<svg width="98" height="92" viewBox="0 0 98 92" fill="none" xmlns="http://www.w3.org/2000/svg">
<path d="M46.9 62.36L46.64 62.464V62.386L46.874 62.282L46.9 62.36ZM46.198 61.944L46.042 62.022V61.944L46.172 61.866L46.198 61.944ZM46.796 62.698L46.64 62.776V62.698L46.77 62.646L46.796 62.698ZM47.81 64.31L47.784 64.388L47.602 64.336V64.258L47.81 64.31ZM46.406 63.166L46.354 63.218L46.276 63.14L46.328 63.088L46.406 63.166ZM47.654 64.622C47.6367 64.622 47.5933 64.6393 47.524 64.674C47.472 64.7087 47.42 64.726 47.368 64.726C47.368 64.726 47.3333 64.6913 47.264 64.622C47.264 64.6393 47.264 64.674 47.264 64.726C47.264 64.7607 47.238 64.778 47.186 64.778C47.0993 64.778 47.0647 64.7607 47.082 64.726C47.3767 64.5873 47.5067 64.518 47.472 64.518C47.5413 64.518 47.602 64.5527 47.654 64.622ZM40.998 63.634L40.92 63.686L40.764 63.452L40.816 63.4L40.998 63.634ZM41.232 64.076L41.18 64.128L41.102 64.05L41.154 63.998L41.232 64.076ZM42.662 67.95H42.584L42.532 67.794L42.61 67.768L42.662 67.95ZM46.094 72.032C45.9727 72.032 45.7733 72.0753 45.496 72.162C45.2187 72.2313 45.0713 72.266 45.054 72.266C44.898 72.266 44.82 72.266 44.82 72.266C45.3227 72.0753 45.7473 71.9973 46.094 72.032ZM42.61 69.952L42.558 70.082L42.48 70.056L42.532 69.926L42.61 69.952ZM47.186 75.672H46.9V75.594H47.186V75.672ZM36.136 65.974L36.006 66.104L35.954 66.052L36.084 65.922L36.136 65.974ZM35.876 66.338L35.642 66.572L35.59 66.494L35.824 66.286L35.876 66.338ZM36.89 67.43C36.89 67.4647 36.812 67.6727 36.656 68.054C36.5347 68.0887 36.4653 68.106 36.448 68.106C36.396 68.106 36.344 68.0973 36.292 68.08C36.2573 68.0627 36.24 68.054 36.24 68.054C36.24 68.054 36.2227 68.0367 36.188 68.002C36.1707 67.95 36.162 67.9067 36.162 67.872C36.162 67.612 36.3267 67.3693 36.656 67.144C36.812 67.2307 36.89 67.326 36.89 67.43ZM34.836 67.274L34.758 67.326L34.628 67.144L34.706 67.092L34.836 67.274ZM47.446 74.762C47.446 74.8313 47.42 74.892 47.368 74.944C47.2813 74.8747 47.1947 74.84 47.108 74.84C46.9867 74.8747 46.8393 74.9613 46.666 75.1L46.562 74.996C46.458 74.996 46.3713 74.9613 46.302 74.892L46.224 74.996C45.7213 74.892 45.444 74.84 45.392 74.84C45.3053 74.84 45.184 74.866 45.028 74.918C45.132 75.0393 45.3747 75.126 45.756 75.178C46.1373 75.2127 46.3973 75.282 46.536 75.386H46.38C46.38 75.438 46.354 75.516 46.302 75.62C46.25 75.7067 46.224 75.7673 46.224 75.802C46.224 75.75 46.25 75.802 46.302 75.958C46.3367 76.0273 46.3973 76.062 46.484 76.062C46.484 76.0793 46.4753 76.114 46.458 76.166C46.4407 76.218 46.432 76.2527 46.432 76.27C46.484 76.3047 46.5707 76.374 46.692 76.478C46.5533 76.634 46.354 76.7207 46.094 76.738C45.8513 76.7553 45.7127 76.8507 45.678 77.024C45.6607 77.024 45.6347 77.0067 45.6 76.972C45.5653 76.9373 45.522 76.92 45.47 76.92C45.4353 76.92 45.4267 76.9373 45.444 76.972C45.4613 77.0067 45.444 77.024 45.392 77.024C45.3573 77.024 45.34 77.0067 45.34 76.972C45.34 76.9373 45.3313 76.92 45.314 76.92C45.2447 77.0413 45.1493 77.102 45.028 77.102C44.8547 77.1193 44.7507 77.1367 44.716 77.154C44.716 77.258 44.742 77.31 44.794 77.31C44.6207 77.31 45.2273 77.2667 46.614 77.18H46.796C46.7613 77.2147 46.744 77.2927 46.744 77.414C46.38 77.4833 45.834 77.5613 45.106 77.648C45.0713 77.648 45.0107 77.674 44.924 77.726C44.8547 77.7607 44.794 77.778 44.742 77.778C44.7073 77.778 44.69 77.7607 44.69 77.726C44.7073 77.6913 44.69 77.674 44.638 77.674C44.6033 77.674 44.5253 77.7 44.404 77.752C44.3 77.7867 44.2133 77.804 44.144 77.804C43.6933 77.8387 43.2687 77.9427 42.87 78.116C42.5407 78.168 42.064 78.2633 41.44 78.402C40.816 78.5407 39.7933 78.8613 38.372 79.364C38.008 79.5373 37.4013 79.8233 36.552 80.222C36.3787 80.3087 36.1013 80.4733 35.72 80.716C35.4773 80.8893 35.2607 80.976 35.07 80.976C34.8793 80.976 34.6973 80.8807 34.524 80.69C34.4373 80.6727 34.3073 80.638 34.134 80.586C33.978 80.534 33.8827 80.508 33.848 80.508C33.8133 80.508 33.718 80.5253 33.562 80.56C33.4233 80.5947 33.3367 80.612 33.302 80.612C33.302 80.612 33.224 80.5687 33.068 80.482C32.9467 80.43 32.834 80.4387 32.73 80.508C32.7127 80.4907 32.678 80.4647 32.626 80.43C32.73 80.43 32.8167 80.3953 32.886 80.326C32.8513 80.2567 32.7907 80.144 32.704 79.988C32.652 79.988 32.5913 80.0227 32.522 80.092C32.522 80.1267 32.5567 80.1613 32.626 80.196C32.574 80.2133 32.548 80.2827 32.548 80.404C32.5307 80.3 32.4527 80.248 32.314 80.248C32.2793 80.248 32.236 80.2653 32.184 80.3C32.1493 80.3347 32.1147 80.352 32.08 80.352C32.0973 80.352 32.0713 80.3173 32.002 80.248C31.8807 80.352 31.82 80.404 31.82 80.404C31.7333 80.404 31.6207 80.3347 31.482 80.196V80.014C31.5167 79.9793 31.5773 79.9187 31.664 79.832C31.6467 79.8147 31.5687 79.806 31.43 79.806C31.3953 79.806 31.3173 79.8493 31.196 79.936C31.092 80.04 31.0227 80.092 30.988 80.092C30.9533 80.092 30.832 79.9967 30.624 79.806C30.6067 79.8407 30.598 79.8753 30.598 79.91C30.5113 79.858 30.3987 79.7973 30.26 79.728C30.26 79.5373 30.546 79.2687 31.118 78.922C31.118 78.922 31.1873 78.818 31.326 78.61C31.326 78.5927 31.3173 78.5753 31.3 78.558C31.4733 78.3673 31.716 78.1247 32.028 77.83C32.3573 77.5353 32.7127 77.2753 33.094 77.05C33.4233 76.8593 33.7527 76.6687 34.082 76.478C34.134 76.374 34.2033 76.218 34.29 76.01C34.238 76.0967 34.186 76.218 34.134 76.374C34.2033 76.426 34.238 76.452 34.238 76.452C34.3073 76.452 34.5587 76.3393 34.992 76.114C35.4427 75.8887 35.7287 75.7327 35.85 75.646C35.8327 75.6807 35.8673 75.698 35.954 75.698C35.9887 75.698 36.006 75.7067 36.006 75.724C36.006 75.7413 36.0233 75.75 36.058 75.75C36.266 75.75 36.6473 75.6113 37.202 75.334C37.202 75.334 37.228 75.308 37.28 75.256C37.3493 75.1867 37.41 75.152 37.462 75.152C37.4967 75.152 37.514 75.1607 37.514 75.178C37.5313 75.1953 37.566 75.204 37.618 75.204C37.7047 75.204 37.8607 75.074 38.086 74.814C37.8953 74.762 37.5487 74.8053 37.046 74.944C37.15 74.892 37.3233 74.7793 37.566 74.606C37.7047 74.346 37.9213 73.956 38.216 73.436C38.4413 73.1587 38.7447 72.6907 39.126 72.032C39.5073 71.1827 39.7847 70.2033 39.958 69.094C39.958 69.0073 39.958 68.7127 39.958 68.21C39.958 67.7767 39.88 67.248 39.724 66.624C39.724 66.468 39.698 66.234 39.646 65.922C39.594 65.766 39.4987 65.5407 39.36 65.246C39.2213 64.934 39.0913 64.7347 38.97 64.648C38.7793 64.5267 38.5107 64.336 38.164 64.076C38.1293 64.076 38.06 64.076 37.956 64.076C38.008 64.076 37.8607 64.1367 37.514 64.258C37.3753 64.31 37.176 64.4053 36.916 64.544C36.7947 64.6827 36.6213 64.8733 36.396 65.116C36.032 65.4453 35.7373 66 35.512 66.78C35.3733 66.8667 35.2347 66.91 35.096 66.91C35.044 66.91 34.9313 66.7887 34.758 66.546L34.446 66.598V66.78C34.498 66.8147 34.5673 66.8667 34.654 66.936C34.55 66.936 34.524 66.9707 34.576 67.04C34.5587 67.0227 34.5327 66.9967 34.498 66.962C34.4633 66.91 34.4373 66.8753 34.42 66.858C34.3853 66.8927 34.342 66.988 34.29 67.144C34.2553 67.1267 34.238 67.0227 34.238 66.832C34.2207 66.8147 34.134 66.832 33.978 66.884C33.9433 67.0227 33.8913 67.2567 33.822 67.586C33.7873 67.586 33.744 67.6033 33.692 67.638C33.7093 67.7767 33.666 67.9673 33.562 68.21C33.4407 68.1753 33.38 68.0107 33.38 67.716C33.38 67.5947 33.3887 67.5167 33.406 67.482C33.4927 67.2567 33.588 67.0053 33.692 66.728V66.546C33.6573 66.546 33.64 66.5807 33.64 66.65C33.6227 66.65 33.5793 66.6673 33.51 66.702C33.458 66.65 33.3887 66.572 33.302 66.468C33.354 66.468 33.4147 66.494 33.484 66.546C33.588 66.546 33.6487 66.5027 33.666 66.416C33.7873 66.1387 33.9347 65.7053 34.108 65.116C33.9867 65.2373 33.822 65.48 33.614 65.844L33.51 65.74C33.4927 65.7573 33.4667 65.792 33.432 65.844C33.3973 65.896 33.3713 65.9307 33.354 65.948C33.3367 65.9307 33.302 65.9047 33.25 65.87C33.198 65.818 33.1633 65.7833 33.146 65.766C33.2673 65.454 33.3713 65.194 33.458 64.986C33.51 64.9167 33.562 64.8213 33.614 64.7C33.8047 63.972 34.5067 63.2527 35.72 62.542C35.7373 62.49 35.7893 62.4207 35.876 62.334C36.3787 62.0567 36.838 61.8487 37.254 61.71C37.2887 61.6927 37.566 61.684 38.086 61.684C38.138 61.684 38.346 61.736 38.71 61.84C39.074 61.944 39.2733 61.996 39.308 61.996C39.412 61.996 39.75 62.1173 40.322 62.36C40.894 62.5853 41.2407 62.7413 41.362 62.828C41.5007 62.9147 41.6827 63.062 41.908 63.27C42.1853 63.6513 42.4367 64.18 42.662 64.856C42.7833 65.116 42.9393 65.5147 43.13 66.052C43.182 66.3293 43.2687 66.728 43.39 67.248C43.3553 67.196 43.286 66.9793 43.182 66.598C43.0953 66.3207 43.026 66.182 42.974 66.182C42.922 66.182 42.8873 66.1907 42.87 66.208C42.87 66.2253 42.8613 66.234 42.844 66.234C42.896 66.13 42.8873 65.974 42.818 65.766C42.6967 65.4367 42.5147 64.9687 42.272 64.362C41.7347 63.322 41.31 62.802 40.998 62.802C40.686 62.802 40.53 62.854 40.53 62.958C40.53 62.9407 40.5907 63.0533 40.712 63.296C40.66 63.244 40.6167 63.244 40.582 63.296C40.7207 63.5387 40.9113 63.92 41.154 64.44C41.2233 64.44 41.2667 64.4227 41.284 64.388C41.2667 64.3707 41.2493 64.3447 41.232 64.31C41.2147 64.2753 41.1973 64.2493 41.18 64.232C41.18 64.232 41.1973 64.258 41.232 64.31C41.284 64.3447 41.336 64.362 41.388 64.362C41.4227 64.362 41.4313 64.3533 41.414 64.336C41.414 64.3187 41.44 64.31 41.492 64.31C41.6307 64.31 41.7347 64.3967 41.804 64.57C41.8733 64.726 41.934 64.8387 41.986 64.908C42.0553 64.96 42.09 65.038 42.09 65.142C42.1073 65.2807 42.09 65.3933 42.038 65.48V65.506C42.09 65.5233 42.168 65.5927 42.272 65.714C42.5147 66.1993 42.636 66.728 42.636 67.3C42.636 67.404 42.5927 67.5253 42.506 67.664C42.4367 67.7853 42.4107 67.9153 42.428 68.054C42.376 68.002 42.35 68.0107 42.35 68.08C42.35 68.132 42.3673 68.1667 42.402 68.184C42.4367 68.184 42.4627 68.184 42.48 68.184C42.4453 68.3053 42.4627 68.418 42.532 68.522C42.584 68.4873 42.61 68.366 42.61 68.158C42.6273 68.3833 42.636 68.7213 42.636 69.172C42.6013 69.2067 42.558 69.25 42.506 69.302C42.4713 69.5447 42.4107 69.8827 42.324 70.316C42.3413 70.3507 42.35 70.394 42.35 70.446C42.35 70.5153 42.298 70.654 42.194 70.862C42.1073 71.0527 42.0553 71.1913 42.038 71.278C42.0553 71.2953 42.064 71.3213 42.064 71.356C42.0813 71.3733 42.0987 71.3907 42.116 71.408C42.1853 71.304 42.272 71.122 42.376 70.862C42.4627 70.4807 42.506 70.264 42.506 70.212C42.5233 70.264 42.558 70.3247 42.61 70.394C42.61 70.394 42.7833 69.9087 43.13 68.938H43.26V69.12C43.2427 68.912 43.078 69.614 42.766 71.226C42.5233 71.7287 42.142 72.5 41.622 73.54C41.83 73.5747 42.1247 73.5573 42.506 73.488C42.09 73.5747 41.5093 73.722 40.764 73.93C40.764 73.9647 40.7813 73.982 40.816 73.982C40.9027 73.982 41.18 73.93 41.648 73.826C42.012 73.7567 42.4887 73.6093 43.078 73.384C43.0953 73.4707 43.0867 73.514 43.052 73.514C43.052 73.514 43.0433 73.514 43.026 73.514C43.026 73.514 43.0347 73.514 43.052 73.514C43.0693 73.5313 43.0953 73.54 43.13 73.54C43.286 73.5227 43.3207 73.4707 43.234 73.384C43.2513 73.384 43.3033 73.3927 43.39 73.41C43.494 73.4273 43.5633 73.436 43.598 73.436C42.974 73.6093 42.3327 73.7653 41.674 73.904C41.6393 73.904 41.5787 73.9387 41.492 74.008C41.4053 74.06 41.3447 74.086 41.31 74.086C41.258 74.086 41.2407 74.0687 41.258 74.034C41.2927 73.9993 41.2927 73.982 41.258 73.982C41.2927 73.982 41.0413 74.06 40.504 74.216C40.4693 74.216 40.4173 74.294 40.348 74.45C40.1573 74.346 40.062 74.294 40.062 74.294C40.0273 74.294 39.9407 74.3807 39.802 74.554C39.8193 74.5713 39.88 74.58 39.984 74.58C40.036 74.58 40.4953 74.4847 41.362 74.294C42.246 74.086 42.7053 73.982 42.74 73.982C42.792 73.982 42.8093 73.9993 42.792 74.034C42.792 74.0687 42.8093 74.086 42.844 74.086C42.6707 74.086 42.9653 74.0167 43.728 73.878L43.832 73.982C43.9707 73.9473 44.2047 73.93 44.534 73.93C44.9153 73.93 45.1667 73.956 45.288 74.008C45.3573 74.06 45.4527 74.1293 45.574 74.216C45.4873 74.1987 45.2793 74.19 44.95 74.19C45.106 74.19 44.4907 74.2767 43.104 74.45L43.182 74.528L45.184 74.476C45.2187 74.476 45.288 74.502 45.392 74.554C45.496 74.5887 45.574 74.606 45.626 74.606C46.0247 74.6233 46.6313 74.6753 47.446 74.762ZM34.628 75.854L34.498 75.958L34.446 75.906L34.55 75.802L34.628 75.854ZM35.876 80.924L35.72 80.976V80.898L35.85 80.846L35.876 80.924ZM35.668 81.08H35.46V81.002H35.668V81.08ZM37.124 80.456C36.916 80.7507 36.5087 81.0193 35.902 81.262C35.3127 81.5047 34.8013 81.626 34.368 81.626C34.0907 81.626 33.8827 81.5653 33.744 81.444C33.744 81.4093 33.7873 81.34 33.874 81.236C33.978 81.1493 34.03 81.0887 34.03 81.054C34.03 81.0193 34.004 80.9847 33.952 80.95C34.0213 80.794 34.108 80.716 34.212 80.716C34.316 80.716 34.4113 80.7593 34.498 80.846C34.4633 80.898 34.3593 80.9153 34.186 80.898C34.186 80.9153 34.1773 80.924 34.16 80.924C34.16 80.9413 34.16 80.9673 34.16 81.002C34.16 81.2447 34.238 81.366 34.394 81.366C34.446 81.366 34.5067 81.3573 34.576 81.34C34.6627 81.3227 34.732 81.314 34.784 81.314C34.836 81.314 34.8707 81.314 34.888 81.314C34.9227 81.2967 34.9487 81.288 34.966 81.288C34.9487 81.288 34.914 81.3053 34.862 81.34C34.8447 81.34 34.836 81.34 34.836 81.34C34.836 81.3573 34.8447 81.366 34.862 81.366C34.8793 81.366 34.9053 81.366 34.94 81.366C35.2 81.366 35.5553 81.262 36.006 81.054C36.474 80.8633 36.786 80.664 36.942 80.456H37.124ZM34.758 81.184H34.42V81.106H34.758V81.184ZM30.91 80.326H30.624V80.248H30.91V80.326ZM41.96 65.922L41.908 65.688H41.804L41.882 65.922H41.96ZM38.19 62.126C37.514 62.0393 37.1153 61.996 36.994 61.996C36.89 61.996 36.708 62.0393 36.448 62.126C36.2747 62.178 36.1187 62.282 35.98 62.438H36.24C36.2747 62.438 36.37 62.4033 36.526 62.334C36.6993 62.2647 36.812 62.2213 36.864 62.204C37.2107 62.1867 37.6527 62.1607 38.19 62.126ZM42.61 70.602H42.532L42.48 70.784L42.558 70.81L42.61 70.602ZM42.506 70.94V70.81H42.428V70.94H42.506ZM45.158 75.126V75.022H44.924V75.126H45.158ZM44.612 74.944L44.482 74.866L44.456 74.944L44.586 75.022L44.612 74.944ZM41.908 72.422L41.83 72.344L41.778 72.396L41.856 72.474L41.908 72.422ZM44.456 75.1V75.022L44.222 75.074V75.178L44.456 75.1ZM41.83 70.42C41.726 70.1947 41.674 70.1167 41.674 70.186C41.5527 70.4633 41.388 70.8447 41.18 71.33C41.3013 71.33 41.3187 71.3733 41.232 71.46C41.1627 71.46 41.1367 71.486 41.154 71.538C41.2233 71.6767 41.2407 71.7893 41.206 71.876C40.9287 72.3093 40.5473 72.9593 40.062 73.826C40.0967 73.826 40.1313 73.8433 40.166 73.878C40.218 73.9127 40.2613 73.93 40.296 73.93C40.3307 73.8953 40.3393 73.8693 40.322 73.852C40.3913 73.8 40.478 73.722 40.582 73.618C41.0153 72.786 41.3273 72.1273 41.518 71.642C41.5873 71.4167 41.648 71.1827 41.7 70.94C41.6827 70.8533 41.6827 70.732 41.7 70.576C41.7867 70.524 41.83 70.472 41.83 70.42ZM42.038 71.616C41.7607 72.1187 41.3707 72.838 40.868 73.774C40.8853 73.774 40.92 73.748 40.972 73.696C41.024 73.644 41.076 73.618 41.128 73.618C41.1627 73.618 41.1713 73.6267 41.154 73.644C41.154 73.6613 41.18 73.67 41.232 73.67C41.284 73.67 41.336 73.644 41.388 73.592C41.44 73.54 41.4747 73.514 41.492 73.514C41.544 73.2887 41.622 72.994 41.726 72.63C41.6393 72.838 41.4833 73.0893 41.258 73.384C41.2233 73.3493 41.2147 73.3233 41.232 73.306C41.3187 73.1153 41.4487 72.8293 41.622 72.448C41.8127 72.0667 41.9513 71.7893 42.038 71.616ZM39.75 72.11C39.6287 72.11 39.568 72.1707 39.568 72.292V72.474C39.6893 72.3527 39.75 72.2313 39.75 72.11ZM40.894 73.41L40.816 73.358L40.712 73.54L40.764 73.592L40.894 73.41ZM40.348 74.112V74.008H40.218V74.112H40.348ZM40.218 74.19V74.112H40.01V74.19H40.218ZM38.918 72.76L38.84 72.708L38.528 73.176L38.606 73.228L38.918 72.76ZM39.906 74.19L39.88 74.112L39.776 74.19V74.242L39.906 74.19ZM39.204 73.124C39.0307 73.3147 38.6927 73.748 38.19 74.424H38.372C38.5453 74.1293 38.8227 73.696 39.204 73.124ZM38.424 73.488H38.346L38.268 73.644L38.346 73.696L38.424 73.488ZM38.242 74.658V74.58H38.06V74.658H38.242ZM33.978 76.92C33.5447 77.1107 33.2153 77.2667 32.99 77.388C32.99 77.4227 32.9727 77.466 32.938 77.518C32.73 77.6047 32.236 77.9687 31.456 78.61C31.4907 78.61 31.534 78.636 31.586 78.688C31.742 78.688 31.9327 78.6447 32.158 78.558C32.262 78.4713 32.392 78.3587 32.548 78.22C32.5827 78.1507 32.626 78.0727 32.678 77.986C33.042 77.726 33.4753 77.3707 33.978 76.92ZM62.8731 67.508H62.7691V67.3H62.8731V67.508ZM54.9171 60.358L54.7871 60.41V60.358L54.8911 60.28L54.9171 60.358ZM62.8211 68.47H62.7171V68.34H62.8211V68.47ZM50.9131 63.218L50.8611 63.348L50.7831 63.322L50.8611 63.192L50.9131 63.218ZM50.7311 63.868L50.6531 64.024L50.5751 63.972L50.6531 63.842L50.7311 63.868ZM50.4971 64.18H50.3411V64.102H50.4971V64.18ZM62.9511 66.052C62.9511 65.9827 62.9251 66.0173 62.8731 66.156C62.8905 66.1907 62.8731 66.3467 62.8211 66.624C62.7865 66.676 62.7691 66.728 62.7691 66.78C62.7691 66.5547 62.7345 66.2427 62.6651 65.844C62.6478 65.792 62.6218 65.74 62.5871 65.688C62.4485 64.5787 61.9978 63.5733 61.2351 62.672L61.1051 62.802C61.1398 62.8193 61.1831 62.8453 61.2351 62.88C61.4431 63.2613 61.6598 63.6427 61.8851 64.024C62.1105 64.4053 62.2491 64.752 62.3011 65.064C62.3531 65.272 62.4311 65.9827 62.5351 67.196C62.6738 67.2827 62.7431 67.378 62.7431 67.482C62.7431 67.4993 62.7171 67.638 62.6651 67.898C62.6131 68.158 62.5785 68.3573 62.5611 68.496C62.5785 68.5133 62.5958 68.548 62.6131 68.6C62.5785 69.0507 62.4918 69.7613 62.3531 70.732C62.2145 71.5987 62.0411 72.2833 61.8331 72.786C61.7985 72.8727 61.8158 72.9767 61.8851 73.098C61.6251 73.878 61.0965 74.7533 60.2991 75.724C59.9871 76.1227 59.7445 76.4693 59.5711 76.764C59.3805 76.9373 59.0945 77.1973 58.7131 77.544C59.0945 76.9373 59.5278 76.2787 60.0131 75.568L59.9351 75.49C59.9178 75.5073 59.9091 75.5593 59.9091 75.646C59.8571 75.594 59.8138 75.568 59.7791 75.568C59.7965 75.568 59.8225 75.542 59.8571 75.49C59.8918 75.438 59.9265 75.4033 59.9611 75.386L59.9351 75.074C59.9178 75.074 59.7878 75.152 59.5451 75.308C59.5971 75.3427 59.6838 75.3947 59.8051 75.464C59.6838 75.4987 59.5105 75.5767 59.2851 75.698C58.7651 76.27 58.2885 76.738 57.8551 77.102C57.7858 77.154 57.6298 77.2407 57.3871 77.362C57.2485 77.4313 57.1271 77.5787 57.0231 77.804C57.0405 77.752 57.0751 77.6567 57.1271 77.518C57.0925 77.5007 56.9885 77.492 56.8151 77.492C56.7631 77.492 56.6851 77.544 56.5811 77.648C56.6158 77.6133 56.6591 77.57 56.7111 77.518C56.7631 77.466 56.7718 77.388 56.7371 77.284C56.7025 77.3013 56.6418 77.3273 56.5551 77.362C56.4511 77.5007 56.0525 77.986 55.3591 78.818C55.3765 78.818 55.3851 78.8353 55.3851 78.87C55.3505 78.974 55.1771 79.13 54.8651 79.338C54.9518 79.234 55.0905 79.104 55.2811 78.948C55.2985 78.9307 55.2898 78.9047 55.2551 78.87C55.0645 78.9567 54.9171 79.0347 54.8131 79.104C54.2411 79.4333 53.7558 79.728 53.3571 79.988C53.3745 80.0227 53.3831 80.0833 53.3831 80.17C53.3311 80.17 53.2098 80.2133 53.0191 80.3C52.8285 80.3867 52.7071 80.43 52.6551 80.43C52.6205 80.43 52.5945 80.4127 52.5771 80.378C52.5598 80.3433 52.5251 80.326 52.4731 80.326C52.2651 80.326 52.1005 80.3867 51.9791 80.508C52.0658 80.5427 52.1525 80.56 52.2391 80.56C52.1871 80.56 52.0831 80.5773 51.9271 80.612C52.0138 80.6987 52.0571 80.742 52.0571 80.742C52.1958 80.742 52.3431 80.768 52.4991 80.82H51.8491C51.8318 80.6987 51.7798 80.6033 51.6931 80.534C51.5545 80.586 51.3811 80.586 51.1731 80.534C51.1558 80.534 51.1038 80.5513 51.0171 80.586C50.9478 80.6207 50.8958 80.638 50.8611 80.638C50.8265 80.638 50.7398 80.5773 50.6011 80.456C50.4625 80.352 50.3498 80.2827 50.2631 80.248C49.8991 80.1613 49.7345 80.118 49.7691 80.118C49.7345 80.118 49.6738 80.144 49.5871 80.196C49.5005 80.248 49.4311 80.274 49.3791 80.274C49.3271 80.274 49.2578 80.2133 49.1711 80.092C49.1018 79.9707 49.0238 79.884 48.9371 79.832C48.8505 79.7973 48.7205 79.728 48.5471 79.624C48.4085 79.4507 48.2958 78.9567 48.2091 78.142C48.2091 78.0553 48.0965 77.7433 47.8711 77.206C47.8711 77.1367 47.8625 77.0413 47.8451 76.92C47.7411 76.7467 47.6285 76.4953 47.5071 76.166C47.4031 75.8193 47.3425 75.5507 47.3251 75.36C47.2731 74.7707 47.2471 74.3807 47.2471 74.19C47.2471 74.0687 47.3251 73.2713 47.4811 71.798C47.4985 71.746 47.4898 71.72 47.4551 71.72C47.5071 71.6333 47.5505 71.5293 47.5851 71.408C47.6198 71.252 47.5765 71.1653 47.4551 71.148C47.6285 71.044 47.7411 70.6973 47.7931 70.108C47.7931 70.056 47.8105 69.952 47.8451 69.796C47.8798 69.64 47.8971 69.5273 47.8971 69.458C47.8971 69.4753 47.9145 69.51 47.9491 69.562L48.0791 69.432C47.9405 69.3453 47.8191 69.302 47.7151 69.302C48.0618 68.4527 48.5125 67.5513 49.0671 66.598C49.2231 66.3207 49.4831 65.9047 49.8471 65.35C49.9685 65.2113 50.1938 64.908 50.5231 64.44C50.5751 64.4227 50.6445 64.362 50.7311 64.258C50.8178 64.154 50.9998 63.972 51.2771 63.712C51.3291 63.6947 51.3985 63.6687 51.4851 63.634C51.9531 63.2527 52.6725 62.6547 53.6431 61.84C53.6605 61.8227 53.6865 61.7707 53.7211 61.684C53.7731 61.58 53.8251 61.528 53.8771 61.528C53.9118 61.528 53.9205 61.5367 53.9031 61.554C53.9031 61.5713 53.9291 61.58 53.9811 61.58C54.1025 61.58 54.1805 61.4327 54.2151 61.138C54.2498 60.826 54.3538 60.67 54.5271 60.67C54.5618 60.67 54.6051 60.6787 54.6571 60.696C54.7091 60.7133 54.7611 60.722 54.8131 60.722C54.8651 60.722 54.8825 60.7307 54.8651 60.748C54.8305 60.7827 54.8218 60.8087 54.8391 60.826C54.9085 60.7393 55.0125 60.6093 55.1511 60.436C55.2031 60.4187 55.2638 60.4013 55.3331 60.384C55.5931 60.0893 55.8878 59.942 56.2171 59.942C56.2518 59.942 56.3125 59.9593 56.3991 59.994C56.4858 60.0287 56.5551 60.046 56.6071 60.046C56.6418 60.046 56.7285 60.0373 56.8671 60.02C57.0058 60.0027 57.0925 59.994 57.1271 59.994C58.1325 59.994 59.1378 60.5313 60.1431 61.606C60.1085 61.658 60.1085 61.762 60.1431 61.918C60.3511 62.0913 60.6458 62.36 61.0271 62.724C61.0271 62.672 61.0531 62.6027 61.1051 62.516C61.0531 62.4467 60.9491 62.3687 60.7931 62.282C60.6545 62.178 60.5851 62.0913 60.5851 62.022C60.5851 61.9873 60.6025 61.944 60.6371 61.892C60.7065 61.9093 60.8018 61.9353 60.9231 61.97C62.0671 63.166 62.6998 64.388 62.8211 65.636C62.8211 65.6533 62.8385 65.714 62.8731 65.818C62.9251 65.922 62.9511 66 62.9511 66.052ZM59.6231 75.828L59.4931 75.958L59.4411 75.906L59.5711 75.776L59.6231 75.828ZM61.4951 78.194C61.5125 78.4193 61.4171 78.532 61.2091 78.532H60.9751C60.7845 78.532 60.6891 78.4367 60.6891 78.246C60.6891 78.2633 60.7151 78.2287 60.7671 78.142C60.7498 78.0727 60.7411 77.908 60.7411 77.648H60.9231C61.1311 77.856 61.2698 77.96 61.3391 77.96C61.3738 77.96 61.4085 77.9427 61.4431 77.908C61.4778 77.8733 61.4951 77.856 61.4951 77.856V78.194ZM60.3251 78.22C60.3251 78.2027 60.2558 78.3153 60.1171 78.558C60.1171 78.6273 60.0911 78.7313 60.0391 78.87C59.7791 79.182 59.5278 79.338 59.2851 79.338C59.2678 79.338 59.1985 79.3207 59.0771 79.286C58.9731 79.2687 58.8951 79.2687 58.8431 79.286C58.8605 79.2167 58.8345 79.1127 58.7651 78.974C58.7131 78.818 58.6871 78.714 58.6871 78.662C58.6871 78.7313 58.7738 78.5233 58.9471 78.038C59.0338 77.986 59.1031 77.9167 59.1551 77.83C59.0858 77.778 59.0251 77.7693 58.9731 77.804C59.3371 77.6307 59.5278 77.544 59.5451 77.544C59.5971 77.544 59.6838 77.5613 59.8051 77.596C59.9265 77.6307 60.0131 77.648 60.0651 77.648V77.752C60.0825 77.8387 60.0825 77.882 60.0651 77.882C60.2385 78.0553 60.3251 78.168 60.3251 78.22ZM49.4571 65.194C49.4745 65.3327 49.3531 65.5927 49.0931 65.974C48.9371 66.1993 48.7725 66.4333 48.5991 66.676C48.5125 66.8147 48.3651 67.1007 48.1571 67.534C48.0531 67.8113 47.8798 68.2013 47.6371 68.704C47.6025 68.756 47.5505 68.8427 47.4811 68.964C47.4291 69.0853 47.3598 69.302 47.2731 69.614C47.1865 69.9087 47.1345 70.0993 47.1171 70.186C47.0998 70.2553 47.0478 70.29 46.9611 70.29V70.108C46.9611 70.1427 47.1345 69.6747 47.4811 68.704C47.9491 67.4733 48.6078 66.3033 49.4571 65.194ZM58.4791 78.766H58.4271L58.3491 78.636L58.4271 78.61L58.4791 78.766ZM50.6531 63.322C50.6011 63.426 50.5058 63.582 50.3671 63.79C50.0205 64.154 49.5611 64.7173 48.9891 65.48C48.9025 65.6187 48.7985 65.7573 48.6771 65.896C48.4345 66.156 48.2178 66.4767 48.0271 66.858C47.8885 67.17 47.7411 67.482 47.5851 67.794C47.0131 68.8687 46.6925 69.9347 46.6231 70.992C46.6058 71.2347 46.5625 71.6333 46.4931 72.188C46.4238 72.7253 46.3891 73.0113 46.3891 73.046C46.3891 73.0807 46.4238 73.2367 46.4931 73.514C46.5625 73.7913 46.5971 73.956 46.5971 74.008C46.5971 74.1293 46.5798 74.216 46.5451 74.268C46.5278 74.3027 46.4931 74.346 46.4411 74.398C46.4238 74.554 46.4325 74.7013 46.4671 74.84C46.4325 74.788 46.3978 74.6667 46.3631 74.476C46.3631 74.4587 46.2851 74.4153 46.1291 74.346C46.0251 73.982 45.9731 73.7307 45.9731 73.592C45.9731 73.748 46.0338 73.202 46.1551 71.954C46.1725 71.7287 46.2418 71.3127 46.3631 70.706C46.3458 70.6193 46.3371 70.5067 46.3371 70.368C46.6145 69.1027 47.2645 67.6033 48.2871 65.87C48.4085 65.6967 48.5991 65.4627 48.8591 65.168C49.2578 64.7693 49.8558 64.154 50.6531 63.322ZM54.6831 79.442L54.5271 79.572L54.4751 79.494L54.6311 79.364L54.6831 79.442ZM47.1951 76.816C47.1605 76.7813 47.1085 76.79 47.0391 76.842C47.1085 76.9633 47.1431 77.076 47.1431 77.18C47.0738 77.128 46.9785 76.7987 46.8571 76.192C46.8051 76.2613 46.7185 76.2613 46.5971 76.192C46.5971 75.9493 46.5625 75.594 46.4931 75.126C46.5798 75.126 46.6405 75.1433 46.6751 75.178C46.7098 75.178 46.7445 75.152 46.7791 75.1C46.7791 75.048 46.7705 74.9613 46.7531 74.84C46.7358 74.7013 46.7271 74.5973 46.7271 74.528C46.7271 73.2107 46.7791 72.4653 46.8831 72.292C46.8831 74.424 46.9438 75.8887 47.0651 76.686C47.1518 76.79 47.1951 76.8333 47.1951 76.816ZM56.9191 63.738C56.7285 63.5473 56.6158 63.452 56.5811 63.452H56.3211C56.4425 63.504 56.6418 63.5993 56.9191 63.738ZM54.0331 63.894C53.8425 64.0327 53.5825 64.232 53.2531 64.492C53.2358 64.5093 53.2185 64.5527 53.2011 64.622C53.1838 64.6913 53.1491 64.726 53.0971 64.726L53.2531 64.778C53.3571 64.5527 53.5131 64.3967 53.7211 64.31C53.9291 64.2233 54.0331 64.0847 54.0331 63.894ZM53.0191 65.012L52.9151 64.986C52.8111 65.1073 52.6638 65.2893 52.4731 65.532C52.5425 65.4627 52.6378 65.3673 52.7591 65.246C52.8805 65.1247 52.9671 65.0467 53.0191 65.012ZM60.5851 74.268C60.5505 74.2507 60.5071 74.242 60.4551 74.242C60.4031 74.242 60.3598 74.2507 60.3251 74.268C60.3598 74.3027 60.3858 74.346 60.4031 74.398C60.4205 74.3807 60.4465 74.3633 60.4811 74.346C60.5331 74.3113 60.5678 74.2853 60.5851 74.268ZM51.9531 66.104L51.8751 66.052L51.7711 66.234L51.8231 66.286L51.9531 66.104ZM51.7451 66.286H51.6671L51.6151 66.442L51.6931 66.494L51.7451 66.286ZM51.2511 66.78C51.1818 66.832 51.1038 66.884 51.0171 66.936V67.196C51.1731 67.04 51.2511 66.9013 51.2511 66.78ZM51.0171 67.196C50.8091 67.3347 50.6878 67.4473 50.6531 67.534C50.6878 67.5687 50.7311 67.5947 50.7831 67.612C50.8525 67.4213 50.9305 67.2827 51.0171 67.196ZM58.2711 67.092C58.2711 66.4853 58.1151 65.8093 57.8031 65.064C57.7338 64.8733 57.6298 64.648 57.4911 64.388C57.3178 64.336 57.0925 64.258 56.8151 64.154C56.7458 64.1193 56.5985 64.024 56.3731 63.868C56.1651 63.712 56.0438 63.634 56.0091 63.634C55.9225 63.634 55.7578 63.7553 55.5151 63.998C55.4978 63.9287 55.4631 63.842 55.4111 63.738C55.2378 63.9807 55.1511 64.154 55.1511 64.258C55.1165 64.2233 55.0818 64.206 55.0471 64.206C54.8218 64.206 54.1718 64.7433 53.0971 65.818C52.9411 65.974 52.6638 66.286 52.2651 66.754C51.6411 67.5167 51.1645 68.3573 50.8351 69.276C50.7658 69.536 50.6618 69.874 50.5231 70.29C50.5231 70.342 50.5231 70.4113 50.5231 70.498C50.4538 70.602 50.3845 70.7407 50.3151 70.914C50.1938 71.3647 50.1331 71.6853 50.1331 71.876C50.1158 71.928 50.0725 72.0147 50.0031 72.136C49.9685 72.1013 49.9511 72.0493 49.9511 71.98L49.8731 72.552C49.8905 72.552 49.9165 72.5433 49.9511 72.526C49.9858 72.5087 50.0291 72.5 50.0811 72.5C50.0985 72.5 50.1331 72.526 50.1851 72.578V74.06C50.1678 74.164 50.0378 74.3287 49.7951 74.554C49.6911 74.398 49.6565 74.1553 49.6911 73.826C49.7431 73.4967 49.7345 73.2973 49.6651 73.228C49.4918 73.9907 49.4051 74.3547 49.4051 74.32C49.4051 74.4067 49.4485 74.528 49.5351 74.684C49.5871 74.788 49.5785 74.892 49.5091 74.996C49.5265 75.0133 49.6305 75.1173 49.8211 75.308L49.7691 75.334C49.8211 75.386 49.8818 75.4467 49.9511 75.516C50.1071 75.88 50.2891 76.426 50.4971 77.154C50.5665 77.622 50.7485 77.856 51.0431 77.856C51.0778 77.856 51.2858 77.8213 51.6671 77.752C52.0485 77.6827 52.2565 77.648 52.2911 77.648C52.3431 77.648 52.3951 77.6653 52.4471 77.7C52.5165 77.7173 52.5511 77.726 52.5511 77.726C52.4991 77.6567 52.4731 77.5787 52.4731 77.492C52.4731 77.1453 52.6811 76.972 53.0971 76.972C53.1318 76.972 53.1751 76.9807 53.2271 76.998C53.2965 77.0153 53.3485 77.024 53.3831 77.024C53.4005 77.024 53.8251 76.816 54.6571 76.4V76.218C54.6225 76.218 54.4838 76.296 54.2411 76.452L54.1111 76.322C54.2671 76.2007 54.6658 75.9147 55.3071 75.464C55.3591 75.256 55.3851 75.1607 55.3851 75.178C55.2985 75.178 55.2465 75.1693 55.2291 75.152C55.2465 75.1347 55.3158 75.126 55.4371 75.126C55.4371 74.9873 55.4718 74.7967 55.5411 74.554C55.7145 74.2767 55.9571 73.9907 56.2691 73.696C56.1825 73.696 56.1305 73.6873 56.1131 73.67C56.1825 73.6353 56.2778 73.5833 56.3991 73.514C57.1965 72.1793 57.6385 71.096 57.7251 70.264C57.7251 70.2467 57.8031 69.8393 57.9591 69.042C58.0978 68.2967 58.1671 67.8633 58.1671 67.742C58.1671 67.7073 58.1325 67.6553 58.0631 67.586C57.9938 67.5167 57.9591 67.4647 57.9591 67.43C57.9591 67.274 58.0631 67.1613 58.2711 67.092ZM55.0731 77.336L55.0471 77.258L54.9431 77.336V77.414L55.0731 77.336ZM49.7951 72.786V72.604H49.6911V72.786H49.7951ZM54.9171 77.388H54.7351C54.0418 77.7693 53.5565 77.96 53.2791 77.96C53.2271 77.96 53.2011 77.9427 53.2011 77.908C53.2185 77.8733 53.2098 77.856 53.1751 77.856C53.1405 77.856 52.9671 77.934 52.6551 78.09C52.3605 78.246 52.1958 78.324 52.1611 78.324C52.1265 78.324 52.0311 78.324 51.8751 78.324C51.7365 78.324 51.6238 78.324 51.5371 78.324V78.61C51.6411 78.714 51.6931 78.766 51.6931 78.766C51.7451 78.766 51.8145 78.7573 51.9011 78.74C51.9878 78.7227 52.0485 78.714 52.0831 78.714C52.3258 78.714 52.5858 78.61 52.8631 78.402C52.7591 78.61 52.7071 78.714 52.7071 78.714C52.7245 78.714 52.7851 78.766 52.8891 78.87C53.0798 78.8353 53.3398 78.714 53.6691 78.506C53.9291 78.3327 54.1805 78.1593 54.4231 77.986C54.4405 77.934 54.4665 77.8733 54.5011 77.804C54.6225 77.7347 54.7611 77.596 54.9171 77.388ZM49.8211 75.594V75.516H49.6911V75.594H49.8211ZM49.8991 77.388L49.8471 77.128H49.7431L49.8211 77.388H49.8991ZM46.8051 75.516V75.178H46.7271V75.516H46.8051ZM53.6951 66.156L53.4611 66.39L53.4091 66.338L53.6431 66.104L53.6951 66.156ZM53.3831 66.416L53.1491 66.65L53.0971 66.598L53.3311 66.364L53.3831 66.416ZM57.2051 70.758L57.0751 71.018L57.0231 70.992L57.1271 70.758H57.2051ZM52.8111 66.91C52.7591 66.962 52.6638 67.066 52.5251 67.222C52.4038 67.378 52.3171 67.4907 52.2651 67.56C52.2478 67.352 52.2825 67.248 52.3691 67.248C52.4211 67.248 52.4471 67.2567 52.4471 67.274C52.4471 67.2913 52.4645 67.3 52.4991 67.3C52.4991 67.3 52.4818 67.274 52.4471 67.222C52.4991 67.1007 52.6205 66.9967 52.8111 66.91ZM52.2131 67.638L52.1351 67.768L52.0831 67.742L52.1351 67.612L52.2131 67.638ZM51.5111 68.47C51.4765 68.4873 51.4591 68.5393 51.4591 68.626L51.2771 68.548C51.3638 68.548 51.4418 68.522 51.5111 68.47ZM51.1211 69.354H51.0431V69.224H51.1211V69.354ZM54.8651 75.23C54.5185 75.5767 54.3191 75.75 54.2671 75.75C54.2325 75.75 54.2151 75.7413 54.2151 75.724C54.2325 75.7067 54.2151 75.698 54.1631 75.698C54.1285 75.698 54.0678 75.7327 53.9811 75.802C54.1891 75.698 54.4838 75.5073 54.8651 75.23ZM53.5651 76.374C53.5651 76.53 53.5305 76.6253 53.4611 76.66H53.1751C53.2098 76.608 53.3398 76.5127 53.5651 76.374ZM49.7431 74.762H49.6651L49.6131 74.632L49.6651 74.606L49.7431 74.762ZM50.8611 75.204C50.8611 75.36 50.8005 75.438 50.6791 75.438C50.6445 75.438 50.5925 75.4033 50.5231 75.334C50.4711 75.386 50.4451 75.438 50.4451 75.49C50.4451 75.7153 50.5145 76.1227 50.6531 76.712C50.4971 76.66 50.4018 76.5733 50.3671 76.452C50.2458 76.0707 50.1851 75.6287 50.1851 75.126C50.1851 75.0913 50.1938 75.022 50.2111 74.918C50.2285 74.814 50.2371 74.7273 50.2371 74.658C50.3585 74.658 50.4191 74.6407 50.4191 74.606C50.7138 74.9007 50.8611 75.1 50.8611 75.204ZM80.088 67.508H79.984V67.3H80.088V67.508ZM72.132 60.358L72.002 60.41V60.358L72.106 60.28L72.132 60.358ZM80.036 68.47H79.932V68.34H80.036V68.47ZM68.128 63.218L68.076 63.348L67.998 63.322L68.076 63.192L68.128 63.218ZM67.946 63.868L67.868 64.024L67.79 63.972L67.868 63.842L67.946 63.868ZM67.712 64.18H67.556V64.102H67.712V64.18ZM80.166 66.052C80.166 65.9827 80.14 66.0173 80.088 66.156C80.1053 66.1907 80.088 66.3467 80.036 66.624C80.0013 66.676 79.984 66.728 79.984 66.78C79.984 66.5547 79.9493 66.2427 79.88 65.844C79.8627 65.792 79.8367 65.74 79.802 65.688C79.6633 64.5787 79.2127 63.5733 78.45 62.672L78.32 62.802C78.3547 62.8193 78.398 62.8453 78.45 62.88C78.658 63.2613 78.8747 63.6427 79.1 64.024C79.3253 64.4053 79.464 64.752 79.516 65.064C79.568 65.272 79.646 65.9827 79.75 67.196C79.8887 67.2827 79.958 67.378 79.958 67.482C79.958 67.4993 79.932 67.638 79.88 67.898C79.828 68.158 79.7933 68.3573 79.776 68.496C79.7933 68.5133 79.8107 68.548 79.828 68.6C79.7933 69.0507 79.7067 69.7613 79.568 70.732C79.4293 71.5987 79.256 72.2833 79.048 72.786C79.0133 72.8727 79.0307 72.9767 79.1 73.098C78.84 73.878 78.3113 74.7533 77.514 75.724C77.202 76.1227 76.9593 76.4693 76.786 76.764C76.5953 76.9373 76.3093 77.1973 75.928 77.544C76.3093 76.9373 76.7427 76.2787 77.228 75.568L77.15 75.49C77.1327 75.5073 77.124 75.5593 77.124 75.646C77.072 75.594 77.0287 75.568 76.994 75.568C77.0113 75.568 77.0373 75.542 77.072 75.49C77.1067 75.438 77.1413 75.4033 77.176 75.386L77.15 75.074C77.1327 75.074 77.0027 75.152 76.76 75.308C76.812 75.3427 76.8987 75.3947 77.02 75.464C76.8987 75.4987 76.7253 75.5767 76.5 75.698C75.98 76.27 75.5033 76.738 75.07 77.102C75.0007 77.154 74.8447 77.2407 74.602 77.362C74.4633 77.4313 74.342 77.5787 74.238 77.804C74.2553 77.752 74.29 77.6567 74.342 77.518C74.3073 77.5007 74.2033 77.492 74.03 77.492C73.978 77.492 73.9 77.544 73.796 77.648C73.8307 77.6133 73.874 77.57 73.926 77.518C73.978 77.466 73.9867 77.388 73.952 77.284C73.9173 77.3013 73.8567 77.3273 73.77 77.362C73.666 77.5007 73.2673 77.986 72.574 78.818C72.5913 78.818 72.6 78.8353 72.6 78.87C72.5653 78.974 72.392 79.13 72.08 79.338C72.1667 79.234 72.3053 79.104 72.496 78.948C72.5133 78.9307 72.5047 78.9047 72.47 78.87C72.2793 78.9567 72.132 79.0347 72.028 79.104C71.456 79.4333 70.9707 79.728 70.572 79.988C70.5893 80.0227 70.598 80.0833 70.598 80.17C70.546 80.17 70.4247 80.2133 70.234 80.3C70.0433 80.3867 69.922 80.43 69.87 80.43C69.8353 80.43 69.8093 80.4127 69.792 80.378C69.7747 80.3433 69.74 80.326 69.688 80.326C69.48 80.326 69.3153 80.3867 69.194 80.508C69.2807 80.5427 69.3673 80.56 69.454 80.56C69.402 80.56 69.298 80.5773 69.142 80.612C69.2287 80.6987 69.272 80.742 69.272 80.742C69.4107 80.742 69.558 80.768 69.714 80.82H69.064C69.0467 80.6987 68.9947 80.6033 68.908 80.534C68.7693 80.586 68.596 80.586 68.388 80.534C68.3707 80.534 68.3187 80.5513 68.232 80.586C68.1627 80.6207 68.1107 80.638 68.076 80.638C68.0413 80.638 67.9547 80.5773 67.816 80.456C67.6773 80.352 67.5647 80.2827 67.478 80.248C67.114 80.1613 66.9493 80.118 66.984 80.118C66.9493 80.118 66.8887 80.144 66.802 80.196C66.7153 80.248 66.646 80.274 66.594 80.274C66.542 80.274 66.4727 80.2133 66.386 80.092C66.3167 79.9707 66.2387 79.884 66.152 79.832C66.0653 79.7973 65.9353 79.728 65.762 79.624C65.6233 79.4507 65.5107 78.9567 65.424 78.142C65.424 78.0553 65.3113 77.7433 65.086 77.206C65.086 77.1367 65.0773 77.0413 65.06 76.92C64.956 76.7467 64.8433 76.4953 64.722 76.166C64.618 75.8193 64.5573 75.5507 64.54 75.36C64.488 74.7707 64.462 74.3807 64.462 74.19C64.462 74.0687 64.54 73.2713 64.696 71.798C64.7133 71.746 64.7047 71.72 64.67 71.72C64.722 71.6333 64.7653 71.5293 64.8 71.408C64.8347 71.252 64.7913 71.1653 64.67 71.148C64.8433 71.044 64.956 70.6973 65.008 70.108C65.008 70.056 65.0253 69.952 65.06 69.796C65.0947 69.64 65.112 69.5273 65.112 69.458C65.112 69.4753 65.1293 69.51 65.164 69.562L65.294 69.432C65.1553 69.3453 65.034 69.302 64.93 69.302C65.2767 68.4527 65.7273 67.5513 66.282 66.598C66.438 66.3207 66.698 65.9047 67.062 65.35C67.1833 65.2113 67.4087 64.908 67.738 64.44C67.79 64.4227 67.8593 64.362 67.946 64.258C68.0327 64.154 68.2147 63.972 68.492 63.712C68.544 63.6947 68.6133 63.6687 68.7 63.634C69.168 63.2527 69.8873 62.6547 70.858 61.84C70.8753 61.8227 70.9013 61.7707 70.936 61.684C70.988 61.58 71.04 61.528 71.092 61.528C71.1267 61.528 71.1353 61.5367 71.118 61.554C71.118 61.5713 71.144 61.58 71.196 61.58C71.3173 61.58 71.3953 61.4327 71.43 61.138C71.4647 60.826 71.5687 60.67 71.742 60.67C71.7767 60.67 71.82 60.6787 71.872 60.696C71.924 60.7133 71.976 60.722 72.028 60.722C72.08 60.722 72.0973 60.7307 72.08 60.748C72.0453 60.7827 72.0367 60.8087 72.054 60.826C72.1233 60.7393 72.2273 60.6093 72.366 60.436C72.418 60.4187 72.4787 60.4013 72.548 60.384C72.808 60.0893 73.1027 59.942 73.432 59.942C73.4667 59.942 73.5273 59.9593 73.614 59.994C73.7007 60.0287 73.77 60.046 73.822 60.046C73.8567 60.046 73.9433 60.0373 74.082 60.02C74.2207 60.0027 74.3073 59.994 74.342 59.994C75.3473 59.994 76.3527 60.5313 77.358 61.606C77.3233 61.658 77.3233 61.762 77.358 61.918C77.566 62.0913 77.8607 62.36 78.242 62.724C78.242 62.672 78.268 62.6027 78.32 62.516C78.268 62.4467 78.164 62.3687 78.008 62.282C77.8693 62.178 77.8 62.0913 77.8 62.022C77.8 61.9873 77.8173 61.944 77.852 61.892C77.9213 61.9093 78.0167 61.9353 78.138 61.97C79.282 63.166 79.9147 64.388 80.036 65.636C80.036 65.6533 80.0533 65.714 80.088 65.818C80.14 65.922 80.166 66 80.166 66.052ZM76.838 75.828L76.708 75.958L76.656 75.906L76.786 75.776L76.838 75.828ZM78.71 78.194C78.7273 78.4193 78.632 78.532 78.424 78.532H78.19C77.9993 78.532 77.904 78.4367 77.904 78.246C77.904 78.2633 77.93 78.2287 77.982 78.142C77.9647 78.0727 77.956 77.908 77.956 77.648H78.138C78.346 77.856 78.4847 77.96 78.554 77.96C78.5887 77.96 78.6233 77.9427 78.658 77.908C78.6927 77.8733 78.71 77.856 78.71 77.856V78.194ZM77.54 78.22C77.54 78.2027 77.4707 78.3153 77.332 78.558C77.332 78.6273 77.306 78.7313 77.254 78.87C76.994 79.182 76.7427 79.338 76.5 79.338C76.4827 79.338 76.4133 79.3207 76.292 79.286C76.188 79.2687 76.11 79.2687 76.058 79.286C76.0753 79.2167 76.0493 79.1127 75.98 78.974C75.928 78.818 75.902 78.714 75.902 78.662C75.902 78.7313 75.9887 78.5233 76.162 78.038C76.2487 77.986 76.318 77.9167 76.37 77.83C76.3007 77.778 76.24 77.7693 76.188 77.804C76.552 77.6307 76.7427 77.544 76.76 77.544C76.812 77.544 76.8987 77.5613 77.02 77.596C77.1413 77.6307 77.228 77.648 77.28 77.648V77.752C77.2973 77.8387 77.2973 77.882 77.28 77.882C77.4533 78.0553 77.54 78.168 77.54 78.22ZM66.672 65.194C66.6893 65.3327 66.568 65.5927 66.308 65.974C66.152 66.1993 65.9873 66.4333 65.814 66.676C65.7273 66.8147 65.58 67.1007 65.372 67.534C65.268 67.8113 65.0947 68.2013 64.852 68.704C64.8173 68.756 64.7653 68.8427 64.696 68.964C64.644 69.0853 64.5747 69.302 64.488 69.614C64.4013 69.9087 64.3493 70.0993 64.332 70.186C64.3147 70.2553 64.2627 70.29 64.176 70.29V70.108C64.176 70.1427 64.3493 69.6747 64.696 68.704C65.164 67.4733 65.8227 66.3033 66.672 65.194ZM75.694 78.766H75.642L75.564 78.636L75.642 78.61L75.694 78.766ZM67.868 63.322C67.816 63.426 67.7207 63.582 67.582 63.79C67.2353 64.154 66.776 64.7173 66.204 65.48C66.1173 65.6187 66.0133 65.7573 65.892 65.896C65.6493 66.156 65.4327 66.4767 65.242 66.858C65.1033 67.17 64.956 67.482 64.8 67.794C64.228 68.8687 63.9073 69.9347 63.838 70.992C63.8207 71.2347 63.7773 71.6333 63.708 72.188C63.6387 72.7253 63.604 73.0113 63.604 73.046C63.604 73.0807 63.6387 73.2367 63.708 73.514C63.7773 73.7913 63.812 73.956 63.812 74.008C63.812 74.1293 63.7947 74.216 63.76 74.268C63.7427 74.3027 63.708 74.346 63.656 74.398C63.6387 74.554 63.6473 74.7013 63.682 74.84C63.6473 74.788 63.6127 74.6667 63.578 74.476C63.578 74.4587 63.5 74.4153 63.344 74.346C63.24 73.982 63.188 73.7307 63.188 73.592C63.188 73.748 63.2487 73.202 63.37 71.954C63.3873 71.7287 63.4567 71.3127 63.578 70.706C63.5607 70.6193 63.552 70.5067 63.552 70.368C63.8293 69.1027 64.4793 67.6033 65.502 65.87C65.6233 65.6967 65.814 65.4627 66.074 65.168C66.4727 64.7693 67.0707 64.154 67.868 63.322ZM71.898 79.442L71.742 79.572L71.69 79.494L71.846 79.364L71.898 79.442ZM64.41 76.816C64.3753 76.7813 64.3233 76.79 64.254 76.842C64.3233 76.9633 64.358 77.076 64.358 77.18C64.2887 77.128 64.1933 76.7987 64.072 76.192C64.02 76.2613 63.9333 76.2613 63.812 76.192C63.812 75.9493 63.7773 75.594 63.708 75.126C63.7947 75.126 63.8553 75.1433 63.89 75.178C63.9247 75.178 63.9593 75.152 63.994 75.1C63.994 75.048 63.9853 74.9613 63.968 74.84C63.9507 74.7013 63.942 74.5973 63.942 74.528C63.942 73.2107 63.994 72.4653 64.098 72.292C64.098 74.424 64.1587 75.8887 64.28 76.686C64.3667 76.79 64.41 76.8333 64.41 76.816ZM74.134 63.738C73.9433 63.5473 73.8307 63.452 73.796 63.452H73.536C73.6573 63.504 73.8567 63.5993 74.134 63.738ZM71.248 63.894C71.0573 64.0327 70.7973 64.232 70.468 64.492C70.4507 64.5093 70.4333 64.5527 70.416 64.622C70.3987 64.6913 70.364 64.726 70.312 64.726L70.468 64.778C70.572 64.5527 70.728 64.3967 70.936 64.31C71.144 64.2233 71.248 64.0847 71.248 63.894ZM70.234 65.012L70.13 64.986C70.026 65.1073 69.8787 65.2893 69.688 65.532C69.7573 65.4627 69.8527 65.3673 69.974 65.246C70.0953 65.1247 70.182 65.0467 70.234 65.012ZM77.8 74.268C77.7653 74.2507 77.722 74.242 77.67 74.242C77.618 74.242 77.5747 74.2507 77.54 74.268C77.5747 74.3027 77.6007 74.346 77.618 74.398C77.6353 74.3807 77.6613 74.3633 77.696 74.346C77.748 74.3113 77.7827 74.2853 77.8 74.268ZM69.168 66.104L69.09 66.052L68.986 66.234L69.038 66.286L69.168 66.104ZM68.96 66.286H68.882L68.83 66.442L68.908 66.494L68.96 66.286ZM68.466 66.78C68.3967 66.832 68.3187 66.884 68.232 66.936V67.196C68.388 67.04 68.466 66.9013 68.466 66.78ZM68.232 67.196C68.024 67.3347 67.9027 67.4473 67.868 67.534C67.9027 67.5687 67.946 67.5947 67.998 67.612C68.0673 67.4213 68.1453 67.2827 68.232 67.196ZM75.486 67.092C75.486 66.4853 75.33 65.8093 75.018 65.064C74.9487 64.8733 74.8447 64.648 74.706 64.388C74.5327 64.336 74.3073 64.258 74.03 64.154C73.9607 64.1193 73.8133 64.024 73.588 63.868C73.38 63.712 73.2587 63.634 73.224 63.634C73.1373 63.634 72.9727 63.7553 72.73 63.998C72.7127 63.9287 72.678 63.842 72.626 63.738C72.4527 63.9807 72.366 64.154 72.366 64.258C72.3313 64.2233 72.2967 64.206 72.262 64.206C72.0367 64.206 71.3867 64.7433 70.312 65.818C70.156 65.974 69.8787 66.286 69.48 66.754C68.856 67.5167 68.3793 68.3573 68.05 69.276C67.9807 69.536 67.8767 69.874 67.738 70.29C67.738 70.342 67.738 70.4113 67.738 70.498C67.6687 70.602 67.5993 70.7407 67.53 70.914C67.4087 71.3647 67.348 71.6853 67.348 71.876C67.3307 71.928 67.2873 72.0147 67.218 72.136C67.1833 72.1013 67.166 72.0493 67.166 71.98L67.088 72.552C67.1053 72.552 67.1313 72.5433 67.166 72.526C67.2007 72.5087 67.244 72.5 67.296 72.5C67.3133 72.5 67.348 72.526 67.4 72.578V74.06C67.3827 74.164 67.2527 74.3287 67.01 74.554C66.906 74.398 66.8713 74.1553 66.906 73.826C66.958 73.4967 66.9493 73.2973 66.88 73.228C66.7067 73.9907 66.62 74.3547 66.62 74.32C66.62 74.4067 66.6633 74.528 66.75 74.684C66.802 74.788 66.7933 74.892 66.724 74.996C66.7413 75.0133 66.8453 75.1173 67.036 75.308L66.984 75.334C67.036 75.386 67.0967 75.4467 67.166 75.516C67.322 75.88 67.504 76.426 67.712 77.154C67.7813 77.622 67.9633 77.856 68.258 77.856C68.2927 77.856 68.5007 77.8213 68.882 77.752C69.2633 77.6827 69.4713 77.648 69.506 77.648C69.558 77.648 69.61 77.6653 69.662 77.7C69.7313 77.7173 69.766 77.726 69.766 77.726C69.714 77.6567 69.688 77.5787 69.688 77.492C69.688 77.1453 69.896 76.972 70.312 76.972C70.3467 76.972 70.39 76.9807 70.442 76.998C70.5113 77.0153 70.5633 77.024 70.598 77.024C70.6153 77.024 71.04 76.816 71.872 76.4V76.218C71.8373 76.218 71.6987 76.296 71.456 76.452L71.326 76.322C71.482 76.2007 71.8807 75.9147 72.522 75.464C72.574 75.256 72.6 75.1607 72.6 75.178C72.5133 75.178 72.4613 75.1693 72.444 75.152C72.4613 75.1347 72.5307 75.126 72.652 75.126C72.652 74.9873 72.6867 74.7967 72.756 74.554C72.9293 74.2767 73.172 73.9907 73.484 73.696C73.3973 73.696 73.3453 73.6873 73.328 73.67C73.3973 73.6353 73.4927 73.5833 73.614 73.514C74.4113 72.1793 74.8533 71.096 74.94 70.264C74.94 70.2467 75.018 69.8393 75.174 69.042C75.3127 68.2967 75.382 67.8633 75.382 67.742C75.382 67.7073 75.3473 67.6553 75.278 67.586C75.2087 67.5167 75.174 67.4647 75.174 67.43C75.174 67.274 75.278 67.1613 75.486 67.092ZM72.288 77.336L72.262 77.258L72.158 77.336V77.414L72.288 77.336ZM67.01 72.786V72.604H66.906V72.786H67.01ZM72.132 77.388H71.95C71.2567 77.7693 70.7713 77.96 70.494 77.96C70.442 77.96 70.416 77.9427 70.416 77.908C70.4333 77.8733 70.4247 77.856 70.39 77.856C70.3553 77.856 70.182 77.934 69.87 78.09C69.5753 78.246 69.4107 78.324 69.376 78.324C69.3413 78.324 69.246 78.324 69.09 78.324C68.9513 78.324 68.8387 78.324 68.752 78.324V78.61C68.856 78.714 68.908 78.766 68.908 78.766C68.96 78.766 69.0293 78.7573 69.116 78.74C69.2027 78.7227 69.2633 78.714 69.298 78.714C69.5407 78.714 69.8007 78.61 70.078 78.402C69.974 78.61 69.922 78.714 69.922 78.714C69.9393 78.714 70 78.766 70.104 78.87C70.2947 78.8353 70.5547 78.714 70.884 78.506C71.144 78.3327 71.3953 78.1593 71.638 77.986C71.6553 77.934 71.6813 77.8733 71.716 77.804C71.8373 77.7347 71.976 77.596 72.132 77.388ZM67.036 75.594V75.516H66.906V75.594H67.036ZM67.114 77.388L67.062 77.128H66.958L67.036 77.388H67.114ZM64.02 75.516V75.178H63.942V75.516H64.02ZM70.91 66.156L70.676 66.39L70.624 66.338L70.858 66.104L70.91 66.156ZM70.598 66.416L70.364 66.65L70.312 66.598L70.546 66.364L70.598 66.416ZM74.42 70.758L74.29 71.018L74.238 70.992L74.342 70.758H74.42ZM70.026 66.91C69.974 66.962 69.8787 67.066 69.74 67.222C69.6187 67.378 69.532 67.4907 69.48 67.56C69.4627 67.352 69.4973 67.248 69.584 67.248C69.636 67.248 69.662 67.2567 69.662 67.274C69.662 67.2913 69.6793 67.3 69.714 67.3C69.714 67.3 69.6967 67.274 69.662 67.222C69.714 67.1007 69.8353 66.9967 70.026 66.91ZM69.428 67.638L69.35 67.768L69.298 67.742L69.35 67.612L69.428 67.638ZM68.726 68.47C68.6913 68.4873 68.674 68.5393 68.674 68.626L68.492 68.548C68.5787 68.548 68.6567 68.522 68.726 68.47ZM68.336 69.354H68.258V69.224H68.336V69.354ZM72.08 75.23C71.7333 75.5767 71.534 75.75 71.482 75.75C71.4473 75.75 71.43 75.7413 71.43 75.724C71.4473 75.7067 71.43 75.698 71.378 75.698C71.3433 75.698 71.2827 75.7327 71.196 75.802C71.404 75.698 71.6987 75.5073 72.08 75.23ZM70.78 76.374C70.78 76.53 70.7453 76.6253 70.676 76.66H70.39C70.4247 76.608 70.5547 76.5127 70.78 76.374ZM66.958 74.762H66.88L66.828 74.632L66.88 74.606L66.958 74.762ZM68.076 75.204C68.076 75.36 68.0153 75.438 67.894 75.438C67.8593 75.438 67.8073 75.4033 67.738 75.334C67.686 75.386 67.66 75.438 67.66 75.49C67.66 75.7153 67.7293 76.1227 67.868 76.712C67.712 76.66 67.6167 76.5733 67.582 76.452C67.4607 76.0707 67.4 75.6287 67.4 75.126C67.4 75.0913 67.4087 75.022 67.426 74.918C67.4433 74.814 67.452 74.7273 67.452 74.658C67.5733 74.658 67.634 74.6407 67.634 74.606C67.9287 74.9007 68.076 75.1 68.076 75.204ZM97.3028 67.508H97.1988V67.3H97.3028V67.508ZM89.3468 60.358L89.2168 60.41V60.358L89.3208 60.28L89.3468 60.358ZM97.2508 68.47H97.1468V68.34H97.2508V68.47ZM85.3428 63.218L85.2908 63.348L85.2128 63.322L85.2908 63.192L85.3428 63.218ZM85.1608 63.868L85.0828 64.024L85.0048 63.972L85.0828 63.842L85.1608 63.868ZM84.9268 64.18H84.7708V64.102H84.9268V64.18ZM97.3808 66.052C97.3808 65.9827 97.3548 66.0173 97.3028 66.156C97.3202 66.1907 97.3028 66.3467 97.2508 66.624C97.2162 66.676 97.1988 66.728 97.1988 66.78C97.1988 66.5547 97.1642 66.2427 97.0948 65.844C97.0775 65.792 97.0515 65.74 97.0168 65.688C96.8782 64.5787 96.4275 63.5733 95.6648 62.672L95.5348 62.802C95.5695 62.8193 95.6128 62.8453 95.6648 62.88C95.8728 63.2613 96.0895 63.6427 96.3148 64.024C96.5402 64.4053 96.6788 64.752 96.7308 65.064C96.7828 65.272 96.8608 65.9827 96.9648 67.196C97.1035 67.2827 97.1728 67.378 97.1728 67.482C97.1728 67.4993 97.1468 67.638 97.0948 67.898C97.0428 68.158 97.0082 68.3573 96.9908 68.496C97.0082 68.5133 97.0255 68.548 97.0428 68.6C97.0082 69.0507 96.9215 69.7613 96.7828 70.732C96.6442 71.5987 96.4708 72.2833 96.2628 72.786C96.2282 72.8727 96.2455 72.9767 96.3148 73.098C96.0548 73.878 95.5262 74.7533 94.7288 75.724C94.4168 76.1227 94.1742 76.4693 94.0008 76.764C93.8102 76.9373 93.5242 77.1973 93.1428 77.544C93.5242 76.9373 93.9575 76.2787 94.4428 75.568L94.3648 75.49C94.3475 75.5073 94.3388 75.5593 94.3388 75.646C94.2868 75.594 94.2435 75.568 94.2088 75.568C94.2262 75.568 94.2522 75.542 94.2868 75.49C94.3215 75.438 94.3562 75.4033 94.3908 75.386L94.3648 75.074C94.3475 75.074 94.2175 75.152 93.9748 75.308C94.0268 75.3427 94.1135 75.3947 94.2348 75.464C94.1135 75.4987 93.9402 75.5767 93.7148 75.698C93.1948 76.27 92.7182 76.738 92.2848 77.102C92.2155 77.154 92.0595 77.2407 91.8168 77.362C91.6782 77.4313 91.5568 77.5787 91.4528 77.804C91.4702 77.752 91.5048 77.6567 91.5568 77.518C91.5222 77.5007 91.4182 77.492 91.2448 77.492C91.1928 77.492 91.1148 77.544 91.0108 77.648C91.0455 77.6133 91.0888 77.57 91.1408 77.518C91.1928 77.466 91.2015 77.388 91.1668 77.284C91.1322 77.3013 91.0715 77.3273 90.9848 77.362C90.8808 77.5007 90.4822 77.986 89.7888 78.818C89.8062 78.818 89.8148 78.8353 89.8148 78.87C89.7802 78.974 89.6068 79.13 89.2948 79.338C89.3815 79.234 89.5202 79.104 89.7108 78.948C89.7282 78.9307 89.7195 78.9047 89.6848 78.87C89.4942 78.9567 89.3468 79.0347 89.2428 79.104C88.6708 79.4333 88.1855 79.728 87.7868 79.988C87.8042 80.0227 87.8128 80.0833 87.8128 80.17C87.7608 80.17 87.6395 80.2133 87.4488 80.3C87.2582 80.3867 87.1368 80.43 87.0848 80.43C87.0502 80.43 87.0242 80.4127 87.0068 80.378C86.9895 80.3433 86.9548 80.326 86.9028 80.326C86.6948 80.326 86.5302 80.3867 86.4088 80.508C86.4955 80.5427 86.5822 80.56 86.6688 80.56C86.6168 80.56 86.5128 80.5773 86.3568 80.612C86.4435 80.6987 86.4868 80.742 86.4868 80.742C86.6255 80.742 86.7728 80.768 86.9288 80.82H86.2788C86.2615 80.6987 86.2095 80.6033 86.1228 80.534C85.9842 80.586 85.8108 80.586 85.6028 80.534C85.5855 80.534 85.5335 80.5513 85.4468 80.586C85.3775 80.6207 85.3255 80.638 85.2908 80.638C85.2562 80.638 85.1695 80.5773 85.0308 80.456C84.8922 80.352 84.7795 80.2827 84.6928 80.248C84.3288 80.1613 84.1642 80.118 84.1988 80.118C84.1642 80.118 84.1035 80.144 84.0168 80.196C83.9302 80.248 83.8608 80.274 83.8088 80.274C83.7568 80.274 83.6875 80.2133 83.6008 80.092C83.5315 79.9707 83.4535 79.884 83.3668 79.832C83.2802 79.7973 83.1502 79.728 82.9768 79.624C82.8382 79.4507 82.7255 78.9567 82.6388 78.142C82.6388 78.0553 82.5262 77.7433 82.3008 77.206C82.3008 77.1367 82.2922 77.0413 82.2748 76.92C82.1708 76.7467 82.0582 76.4953 81.9368 76.166C81.8328 75.8193 81.7722 75.5507 81.7548 75.36C81.7028 74.7707 81.6768 74.3807 81.6768 74.19C81.6768 74.0687 81.7548 73.2713 81.9108 71.798C81.9282 71.746 81.9195 71.72 81.8848 71.72C81.9368 71.6333 81.9802 71.5293 82.0148 71.408C82.0495 71.252 82.0062 71.1653 81.8848 71.148C82.0582 71.044 82.1708 70.6973 82.2228 70.108C82.2228 70.056 82.2402 69.952 82.2748 69.796C82.3095 69.64 82.3268 69.5273 82.3268 69.458C82.3268 69.4753 82.3442 69.51 82.3788 69.562L82.5088 69.432C82.3702 69.3453 82.2488 69.302 82.1448 69.302C82.4915 68.4527 82.9422 67.5513 83.4968 66.598C83.6528 66.3207 83.9128 65.9047 84.2768 65.35C84.3982 65.2113 84.6235 64.908 84.9528 64.44C85.0048 64.4227 85.0742 64.362 85.1608 64.258C85.2475 64.154 85.4295 63.972 85.7068 63.712C85.7588 63.6947 85.8282 63.6687 85.9148 63.634C86.3828 63.2527 87.1022 62.6547 88.0728 61.84C88.0902 61.8227 88.1162 61.7707 88.1508 61.684C88.2028 61.58 88.2548 61.528 88.3068 61.528C88.3415 61.528 88.3502 61.5367 88.3328 61.554C88.3328 61.5713 88.3588 61.58 88.4108 61.58C88.5322 61.58 88.6102 61.4327 88.6448 61.138C88.6795 60.826 88.7835 60.67 88.9568 60.67C88.9915 60.67 89.0348 60.6787 89.0868 60.696C89.1388 60.7133 89.1908 60.722 89.2428 60.722C89.2948 60.722 89.3122 60.7307 89.2948 60.748C89.2602 60.7827 89.2515 60.8087 89.2688 60.826C89.3382 60.7393 89.4422 60.6093 89.5808 60.436C89.6328 60.4187 89.6935 60.4013 89.7628 60.384C90.0228 60.0893 90.3175 59.942 90.6468 59.942C90.6815 59.942 90.7422 59.9593 90.8288 59.994C90.9155 60.0287 90.9848 60.046 91.0368 60.046C91.0715 60.046 91.1582 60.0373 91.2968 60.02C91.4355 60.0027 91.5222 59.994 91.5568 59.994C92.5622 59.994 93.5675 60.5313 94.5728 61.606C94.5382 61.658 94.5382 61.762 94.5728 61.918C94.7808 62.0913 95.0755 62.36 95.4568 62.724C95.4568 62.672 95.4828 62.6027 95.5348 62.516C95.4828 62.4467 95.3788 62.3687 95.2228 62.282C95.0842 62.178 95.0148 62.0913 95.0148 62.022C95.0148 61.9873 95.0322 61.944 95.0668 61.892C95.1362 61.9093 95.2315 61.9353 95.3528 61.97C96.4968 63.166 97.1295 64.388 97.2508 65.636C97.2508 65.6533 97.2682 65.714 97.3028 65.818C97.3548 65.922 97.3808 66 97.3808 66.052ZM94.0528 75.828L93.9228 75.958L93.8708 75.906L94.0008 75.776L94.0528 75.828ZM95.9248 78.194C95.9422 78.4193 95.8468 78.532 95.6388 78.532H95.4048C95.2142 78.532 95.1188 78.4367 95.1188 78.246C95.1188 78.2633 95.1448 78.2287 95.1968 78.142C95.1795 78.0727 95.1708 77.908 95.1708 77.648H95.3528C95.5608 77.856 95.6995 77.96 95.7688 77.96C95.8035 77.96 95.8382 77.9427 95.8728 77.908C95.9075 77.8733 95.9248 77.856 95.9248 77.856V78.194ZM94.7548 78.22C94.7548 78.2027 94.6855 78.3153 94.5468 78.558C94.5468 78.6273 94.5208 78.7313 94.4688 78.87C94.2088 79.182 93.9575 79.338 93.7148 79.338C93.6975 79.338 93.6282 79.3207 93.5068 79.286C93.4028 79.2687 93.3248 79.2687 93.2728 79.286C93.2902 79.2167 93.2642 79.1127 93.1948 78.974C93.1428 78.818 93.1168 78.714 93.1168 78.662C93.1168 78.7313 93.2035 78.5233 93.3768 78.038C93.4635 77.986 93.5328 77.9167 93.5848 77.83C93.5155 77.778 93.4548 77.7693 93.4028 77.804C93.7668 77.6307 93.9575 77.544 93.9748 77.544C94.0268 77.544 94.1135 77.5613 94.2348 77.596C94.3562 77.6307 94.4428 77.648 94.4948 77.648V77.752C94.5122 77.8387 94.5122 77.882 94.4948 77.882C94.6682 78.0553 94.7548 78.168 94.7548 78.22ZM83.8868 65.194C83.9042 65.3327 83.7828 65.5927 83.5228 65.974C83.3668 66.1993 83.2022 66.4333 83.0288 66.676C82.9422 66.8147 82.7948 67.1007 82.5868 67.534C82.4828 67.8113 82.3095 68.2013 82.0668 68.704C82.0322 68.756 81.9802 68.8427 81.9108 68.964C81.8588 69.0853 81.7895 69.302 81.7028 69.614C81.6162 69.9087 81.5642 70.0993 81.5468 70.186C81.5295 70.2553 81.4775 70.29 81.3908 70.29V70.108C81.3908 70.1427 81.5642 69.6747 81.9108 68.704C82.3788 67.4733 83.0375 66.3033 83.8868 65.194ZM92.9088 78.766H92.8568L92.7788 78.636L92.8568 78.61L92.9088 78.766ZM85.0828 63.322C85.0308 63.426 84.9355 63.582 84.7968 63.79C84.4502 64.154 83.9908 64.7173 83.4188 65.48C83.3322 65.6187 83.2282 65.7573 83.1068 65.896C82.8642 66.156 82.6475 66.4767 82.4568 66.858C82.3182 67.17 82.1708 67.482 82.0148 67.794C81.4428 68.8687 81.1222 69.9347 81.0528 70.992C81.0355 71.2347 80.9922 71.6333 80.9228 72.188C80.8535 72.7253 80.8188 73.0113 80.8188 73.046C80.8188 73.0807 80.8535 73.2367 80.9228 73.514C80.9922 73.7913 81.0268 73.956 81.0268 74.008C81.0268 74.1293 81.0095 74.216 80.9748 74.268C80.9575 74.3027 80.9228 74.346 80.8708 74.398C80.8535 74.554 80.8622 74.7013 80.8968 74.84C80.8622 74.788 80.8275 74.6667 80.7928 74.476C80.7928 74.4587 80.7148 74.4153 80.5588 74.346C80.4548 73.982 80.4028 73.7307 80.4028 73.592C80.4028 73.748 80.4635 73.202 80.5848 71.954C80.6022 71.7287 80.6715 71.3127 80.7928 70.706C80.7755 70.6193 80.7668 70.5067 80.7668 70.368C81.0442 69.1027 81.6942 67.6033 82.7168 65.87C82.8382 65.6967 83.0288 65.4627 83.2888 65.168C83.6875 64.7693 84.2855 64.154 85.0828 63.322ZM89.1128 79.442L88.9568 79.572L88.9048 79.494L89.0608 79.364L89.1128 79.442ZM81.6248 76.816C81.5902 76.7813 81.5382 76.79 81.4688 76.842C81.5382 76.9633 81.5728 77.076 81.5728 77.18C81.5035 77.128 81.4082 76.7987 81.2868 76.192C81.2348 76.2613 81.1482 76.2613 81.0268 76.192C81.0268 75.9493 80.9922 75.594 80.9228 75.126C81.0095 75.126 81.0702 75.1433 81.1048 75.178C81.1395 75.178 81.1742 75.152 81.2088 75.1C81.2088 75.048 81.2002 74.9613 81.1828 74.84C81.1655 74.7013 81.1568 74.5973 81.1568 74.528C81.1568 73.2107 81.2088 72.4653 81.3128 72.292C81.3128 74.424 81.3735 75.8887 81.4948 76.686C81.5815 76.79 81.6248 76.8333 81.6248 76.816ZM91.3488 63.738C91.1582 63.5473 91.0455 63.452 91.0108 63.452H90.7508C90.8722 63.504 91.0715 63.5993 91.3488 63.738ZM88.4628 63.894C88.2722 64.0327 88.0122 64.232 87.6828 64.492C87.6655 64.5093 87.6482 64.5527 87.6308 64.622C87.6135 64.6913 87.5788 64.726 87.5268 64.726L87.6828 64.778C87.7868 64.5527 87.9428 64.3967 88.1508 64.31C88.3588 64.2233 88.4628 64.0847 88.4628 63.894ZM87.4488 65.012L87.3448 64.986C87.2408 65.1073 87.0935 65.2893 86.9028 65.532C86.9722 65.4627 87.0675 65.3673 87.1888 65.246C87.3102 65.1247 87.3968 65.0467 87.4488 65.012ZM95.0148 74.268C94.9802 74.2507 94.9368 74.242 94.8848 74.242C94.8328 74.242 94.7895 74.2507 94.7548 74.268C94.7895 74.3027 94.8155 74.346 94.8328 74.398C94.8502 74.3807 94.8762 74.3633 94.9108 74.346C94.9628 74.3113 94.9975 74.2853 95.0148 74.268ZM86.3828 66.104L86.3048 66.052L86.2008 66.234L86.2528 66.286L86.3828 66.104ZM86.1748 66.286H86.0968L86.0448 66.442L86.1228 66.494L86.1748 66.286ZM85.6808 66.78C85.6115 66.832 85.5335 66.884 85.4468 66.936V67.196C85.6028 67.04 85.6808 66.9013 85.6808 66.78ZM85.4468 67.196C85.2388 67.3347 85.1175 67.4473 85.0828 67.534C85.1175 67.5687 85.1608 67.5947 85.2128 67.612C85.2822 67.4213 85.3602 67.2827 85.4468 67.196ZM92.7008 67.092C92.7008 66.4853 92.5448 65.8093 92.2328 65.064C92.1635 64.8733 92.0595 64.648 91.9208 64.388C91.7475 64.336 91.5222 64.258 91.2448 64.154C91.1755 64.1193 91.0282 64.024 90.8028 63.868C90.5948 63.712 90.4735 63.634 90.4388 63.634C90.3522 63.634 90.1875 63.7553 89.9448 63.998C89.9275 63.9287 89.8928 63.842 89.8408 63.738C89.6675 63.9807 89.5808 64.154 89.5808 64.258C89.5462 64.2233 89.5115 64.206 89.4768 64.206C89.2515 64.206 88.6015 64.7433 87.5268 65.818C87.3708 65.974 87.0935 66.286 86.6948 66.754C86.0708 67.5167 85.5942 68.3573 85.2648 69.276C85.1955 69.536 85.0915 69.874 84.9528 70.29C84.9528 70.342 84.9528 70.4113 84.9528 70.498C84.8835 70.602 84.8142 70.7407 84.7448 70.914C84.6235 71.3647 84.5628 71.6853 84.5628 71.876C84.5455 71.928 84.5022 72.0147 84.4328 72.136C84.3982 72.1013 84.3808 72.0493 84.3808 71.98L84.3028 72.552C84.3202 72.552 84.3462 72.5433 84.3808 72.526C84.4155 72.5087 84.4588 72.5 84.5108 72.5C84.5282 72.5 84.5628 72.526 84.6148 72.578V74.06C84.5975 74.164 84.4675 74.3287 84.2248 74.554C84.1208 74.398 84.0862 74.1553 84.1208 73.826C84.1728 73.4967 84.1642 73.2973 84.0948 73.228C83.9215 73.9907 83.8348 74.3547 83.8348 74.32C83.8348 74.4067 83.8782 74.528 83.9648 74.684C84.0168 74.788 84.0082 74.892 83.9388 74.996C83.9562 75.0133 84.0602 75.1173 84.2508 75.308L84.1988 75.334C84.2508 75.386 84.3115 75.4467 84.3808 75.516C84.5368 75.88 84.7188 76.426 84.9268 77.154C84.9962 77.622 85.1782 77.856 85.4728 77.856C85.5075 77.856 85.7155 77.8213 86.0968 77.752C86.4782 77.6827 86.6862 77.648 86.7208 77.648C86.7728 77.648 86.8248 77.6653 86.8768 77.7C86.9462 77.7173 86.9808 77.726 86.9808 77.726C86.9288 77.6567 86.9028 77.5787 86.9028 77.492C86.9028 77.1453 87.1108 76.972 87.5268 76.972C87.5615 76.972 87.6048 76.9807 87.6568 76.998C87.7262 77.0153 87.7782 77.024 87.8128 77.024C87.8302 77.024 88.2548 76.816 89.0868 76.4V76.218C89.0522 76.218 88.9135 76.296 88.6708 76.452L88.5408 76.322C88.6968 76.2007 89.0955 75.9147 89.7368 75.464C89.7888 75.256 89.8148 75.1607 89.8148 75.178C89.7282 75.178 89.6762 75.1693 89.6588 75.152C89.6762 75.1347 89.7455 75.126 89.8668 75.126C89.8668 74.9873 89.9015 74.7967 89.9708 74.554C90.1442 74.2767 90.3868 73.9907 90.6988 73.696C90.6122 73.696 90.5602 73.6873 90.5428 73.67C90.6122 73.6353 90.7075 73.5833 90.8288 73.514C91.6262 72.1793 92.0682 71.096 92.1548 70.264C92.1548 70.2467 92.2328 69.8393 92.3888 69.042C92.5275 68.2967 92.5968 67.8633 92.5968 67.742C92.5968 67.7073 92.5622 67.6553 92.4928 67.586C92.4235 67.5167 92.3888 67.4647 92.3888 67.43C92.3888 67.274 92.4928 67.1613 92.7008 67.092ZM89.5028 77.336L89.4768 77.258L89.3728 77.336V77.414L89.5028 77.336ZM84.2248 72.786V72.604H84.1208V72.786H84.2248ZM89.3468 77.388H89.1648C88.4715 77.7693 87.9862 77.96 87.7088 77.96C87.6568 77.96 87.6308 77.9427 87.6308 77.908C87.6482 77.8733 87.6395 77.856 87.6048 77.856C87.5702 77.856 87.3968 77.934 87.0848 78.09C86.7902 78.246 86.6255 78.324 86.5908 78.324C86.5562 78.324 86.4608 78.324 86.3048 78.324C86.1662 78.324 86.0535 78.324 85.9668 78.324V78.61C86.0708 78.714 86.1228 78.766 86.1228 78.766C86.1748 78.766 86.2442 78.7573 86.3308 78.74C86.4175 78.7227 86.4782 78.714 86.5128 78.714C86.7555 78.714 87.0155 78.61 87.2928 78.402C87.1888 78.61 87.1368 78.714 87.1368 78.714C87.1542 78.714 87.2148 78.766 87.3188 78.87C87.5095 78.8353 87.7695 78.714 88.0988 78.506C88.3588 78.3327 88.6102 78.1593 88.8528 77.986C88.8702 77.934 88.8962 77.8733 88.9308 77.804C89.0522 77.7347 89.1908 77.596 89.3468 77.388ZM84.2508 75.594V75.516H84.1208V75.594H84.2508ZM84.3288 77.388L84.2768 77.128H84.1728L84.2508 77.388H84.3288ZM81.2348 75.516V75.178H81.1568V75.516H81.2348ZM88.1248 66.156L87.8908 66.39L87.8388 66.338L88.0728 66.104L88.1248 66.156ZM87.8128 66.416L87.5788 66.65L87.5268 66.598L87.7608 66.364L87.8128 66.416ZM91.6348 70.758L91.5048 71.018L91.4528 70.992L91.5568 70.758H91.6348ZM87.2408 66.91C87.1888 66.962 87.0935 67.066 86.9548 67.222C86.8335 67.378 86.7468 67.4907 86.6948 67.56C86.6775 67.352 86.7122 67.248 86.7988 67.248C86.8508 67.248 86.8768 67.2567 86.8768 67.274C86.8768 67.2913 86.8942 67.3 86.9288 67.3C86.9288 67.3 86.9115 67.274 86.8768 67.222C86.9288 67.1007 87.0502 66.9967 87.2408 66.91ZM86.6428 67.638L86.5648 67.768L86.5128 67.742L86.5648 67.612L86.6428 67.638ZM85.9408 68.47C85.9062 68.4873 85.8888 68.5393 85.8888 68.626L85.7068 68.548C85.7935 68.548 85.8715 68.522 85.9408 68.47ZM85.5508 69.354H85.4728V69.224H85.5508V69.354ZM89.2948 75.23C88.9482 75.5767 88.7488 75.75 88.6968 75.75C88.6622 75.75 88.6448 75.7413 88.6448 75.724C88.6622 75.7067 88.6448 75.698 88.5928 75.698C88.5582 75.698 88.4975 75.7327 88.4108 75.802C88.6188 75.698 88.9135 75.5073 89.2948 75.23ZM87.9948 76.374C87.9948 76.53 87.9602 76.6253 87.8908 76.66H87.6048C87.6395 76.608 87.7695 76.5127 87.9948 76.374ZM84.1728 74.762H84.0948L84.0428 74.632L84.0948 74.606L84.1728 74.762ZM85.2908 75.204C85.2908 75.36 85.2302 75.438 85.1088 75.438C85.0742 75.438 85.0222 75.4033 84.9528 75.334C84.9008 75.386 84.8748 75.438 84.8748 75.49C84.8748 75.7153 84.9442 76.1227 85.0828 76.712C84.9268 76.66 84.8315 76.5733 84.7968 76.452C84.6755 76.0707 84.6148 75.6287 84.6148 75.126C84.6148 75.0913 84.6235 75.022 84.6408 74.918C84.6582 74.814 84.6668 74.7273 84.6668 74.658C84.7882 74.658 84.8488 74.6407 84.8488 74.606C85.1435 74.9007 85.2908 75.1 85.2908 75.204Z" fill="white"/>
<path d="M13.28 55.88L13.2 56H13.12L13.2 55.84L13.28 55.88ZM13.36 56.12L13.32 56.28L13.24 56.24L13.28 56.12H13.36ZM15.28 58.76L15.2 58.88L15.16 58.84L15.2 58.72L15.28 58.76ZM21.16 73.84L21 73.88V73.8L21.12 73.76L21.16 73.84ZM17.52 71V71.08L17.32 71V70.96L17.52 71ZM18 71.44C17.9733 71.4933 17.92 71.52 17.84 71.52C17.68 71.52 17.52 71.4267 17.36 71.24C17.3067 71.2667 17.2267 71.3333 17.12 71.44C17.04 71.3867 16.9733 71.36 16.92 71.36C17 71.2267 17.1067 71.16 17.24 71.16C17.2667 71.16 17.52 71.2533 18 71.44ZM17.2 70.96H16.84V70.88H17.2V70.96ZM6.28 65.36L6.12 65.6L6.04 65.52L6.2 65.32L6.28 65.36ZM21.4 74.92C21.4 74.9467 21.3733 75 21.32 75.08C21.4267 75.56 21.24 76.2267 20.76 77.08C20.28 77.9333 19.8133 78.48 19.36 78.72L19.24 78.6H19.12C19.0667 78.6533 19.08 78.72 19.16 78.8L19.04 78.72C19.0133 78.72 18.96 78.76 18.88 78.84C18.9333 78.9467 19 79.0133 19.08 79.04C19.0533 79.04 19 79.04 18.92 79.04C18.8133 79.0133 18.7467 79 18.72 79C18.64 79 18.5867 79.08 18.56 79.24C18.3467 79.3733 18.1467 79.4667 17.96 79.52C17.88 79.6 17.84 79.68 17.84 79.76C17.8667 79.84 17.8533 79.88 17.8 79.88C17.7467 79.88 17.7067 79.8667 17.68 79.84C17.68 79.8133 17.6667 79.8 17.64 79.8C17.5867 79.8 17.2667 80 16.68 80.4C15.96 80.8533 15.4267 81.1733 15.08 81.36C15.2133 81.3067 15.3733 81.1467 15.56 80.88C15.56 80.88 15.5467 80.88 15.52 80.88C15.4933 80.8533 15.4667 80.8267 15.44 80.8C15.2267 80.9333 14.9067 81.16 14.48 81.48L14.52 81.52C14.3867 81.4667 14.4533 81.44 14.72 81.44C14.6667 81.44 14.7467 81.48 14.96 81.56C14.8 81.64 14.5333 81.7733 14.16 81.96C13.8133 82.1467 13.56 82.28 13.4 82.36C13.4 83.9067 13.3867 84.9467 13.36 85.48C13.28 85.5067 13.24 85.56 13.24 85.64C13.24 85.9067 13.2267 86.28 13.2 86.76C13.2 87.32 13.2 87.7067 13.2 87.92C13.1467 87.6533 13.0933 87.2533 13.04 86.72C13.0133 86.2133 13 86 13 86.08C13 86 13.0133 85.88 13.04 85.72C13.0933 85.56 13.12 85.4533 13.12 85.4V83.52C13.0667 83.4933 13 83.4533 12.92 83.4C12.8133 83.4533 12.7467 83.52 12.72 83.6C12.72 83.6533 12.7333 83.72 12.76 83.8C12.7867 83.88 12.8 83.9333 12.8 83.96V85.28C12.8 85.4133 12.7867 85.5733 12.76 85.76C12.68 85.76 12.64 85.8 12.64 85.88C12.64 85.8 12.7067 86.0133 12.84 86.52C12.8133 86.5467 12.7733 86.5733 12.72 86.6C12.72 86.5733 12.7067 86.5333 12.68 86.48C12.6533 86.4533 12.64 86.4267 12.64 86.4C12.6133 86.4267 12.56 86.6 12.48 86.92C12.5067 86.7867 12.5067 86.5067 12.48 86.08C12.4533 86 12.44 85.7467 12.44 85.32C12.3867 85.3467 12.36 85.4133 12.36 85.52C12.36 85.76 12.3733 86.12 12.4 86.6C12.4267 87.08 12.44 87.44 12.44 87.68V88.68C12.3867 88.5733 12.3467 88.3333 12.32 87.96C12.2933 87.88 12.2267 87.76 12.12 87.6C12.0933 87.6 12.08 87.6267 12.08 87.68C12.0533 87.6267 12.0933 87.5467 12.2 87.44C12.2 87.36 12.1733 87.32 12.12 87.32C12.0667 87.32 12.0533 87.3333 12.08 87.36C12.1067 87.3867 12.1067 87.4 12.08 87.4C12.1067 87.4 12.0667 87.3467 11.96 87.24C11.88 87.3733 11.84 87.5067 11.84 87.64C11.84 87.8533 11.84 87.9733 11.84 88C11.84 88.16 11.8533 88.3733 11.88 88.64C11.9067 88.72 11.88 88.7867 11.8 88.84C11.8533 89.0533 11.88 89.1333 11.88 89.08C11.88 89.0533 11.8533 89.0133 11.8 88.96C11.6933 89.0133 11.6267 89.1067 11.6 89.24C11.5467 89.5067 11.52 89.6533 11.52 89.68C11.5733 89.28 11.6133 88.76 11.64 88.12C11.64 87.64 11.6267 87.2267 11.6 86.88C11.5733 86.88 11.5333 86.8533 11.48 86.8C11.4533 87.0133 11.4 87.32 11.32 87.72C11.24 87.72 11.1733 87.7467 11.12 87.8C11.1733 86.9733 11.1333 86.36 11 85.96L10.96 86V83.24C10.8267 83.2933 10.76 83.44 10.76 83.68C10.76 83.8933 10.76 84.1067 10.76 84.32L10.68 84.28C10.7067 84.2267 10.7067 84.1467 10.68 84.04L10.72 84C10.72 83.8933 10.6667 83.72 10.56 83.48C10.4267 83.5333 10.36 83.6 10.36 83.68C10.3333 83.6533 10.2933 83.64 10.24 83.64C10.1867 83.64 10.08 83.68 9.92 83.76C9.78667 83.84 9.69333 83.88 9.64 83.88C9.69333 83.88 9.64 83.8933 9.48 83.92C9.53333 83.84 9.6 83.6933 9.68 83.48C9.78667 83.5067 9.84 83.52 9.84 83.52C9.86667 83.52 9.86667 83.5067 9.84 83.48C9.84 83.4533 9.88 83.44 9.96 83.44C10.04 83.44 10.2267 83.32 10.52 83.08V82.72C10.52 82.6933 10.48 82.68 10.4 82.68C10.3467 82.68 10.2267 82.7467 10.04 82.88C9.85333 83.0133 9.73333 83.08 9.68 83.08C9.54667 83.08 9.45333 83.0933 9.4 83.12C9.50667 83.0133 9.68 82.84 9.92 82.6C9.89333 82.6 9.8 82.5867 9.64 82.56C9.53333 82.5333 9.41333 82.5333 9.28 82.56C9.14667 82.5867 9.04 82.6133 8.96 82.64C8.85333 82.7467 8.66667 82.8667 8.4 83C8.16 83.1067 7.81333 83.24 7.36 83.4C7.25333 83.48 7.09333 83.5867 6.88 83.72C6.88 83.6133 7.01333 83.44 7.28 83.2C7.28 83.1467 7.24 83.08 7.16 83C7.26667 82.9733 7.45333 82.8933 7.72 82.76C7.69333 82.7333 7.66667 82.7067 7.64 82.68C7.64 82.6267 7.64 82.6 7.64 82.6C7.77333 82.5467 7.85333 82.52 7.88 82.52C7.90667 82.52 7.92 82.5067 7.92 82.48C7.92 82.4533 7.94667 82.44 8 82.44C8.05333 82.44 8.09333 82.44 8.12 82.44C8.17333 82.44 8.21333 82.44 8.24 82.44C8.26667 82.36 8.26667 82.2667 8.24 82.16C8.02667 82.2667 7.69333 82.4267 7.24 82.64C6.81333 82.8267 6.49333 82.9733 6.28 83.08C6.28 83.0533 6.25333 83 6.2 82.92C6.06667 83 5.88 83.08 5.64 83.16C5.98667 82.9467 6.4 82.72 6.88 82.48C6.96 82.5067 7.05333 82.5067 7.16 82.48C7.66667 82.2133 7.90667 82.0267 7.88 81.92C7.96 81.8667 8.08 81.8 8.24 81.72C8.4 81.6133 8.61333 81.4667 8.88 81.28C8.90667 81.2267 8.93333 81.1733 8.96 81.12C8.96 81.0933 8.88 81.08 8.72 81.08C8.61333 81.08 8.4 81.1867 8.08 81.4C7.89333 81.5333 7.70667 81.6667 7.52 81.8C7.33333 81.9333 7.01333 82.08 6.56 82.24L6.44 82.12C6.44 82.12 6.41333 82.1333 6.36 82.16C6.22667 82.1333 6.29333 82.12 6.56 82.12C6.61333 82.12 6.85333 82 7.28 81.76C7.73333 81.4933 8.08 81.2533 8.32 81.04C8.34667 80.9867 8.32 80.96 8.24 80.96C8.13333 80.96 7.66667 81.1733 6.84 81.6C6.22667 81.8933 5.73333 82.1867 5.36 82.48C5.38667 82.3733 5.36 82.32 5.28 82.32C5.06667 82.32 4.8 82.4533 4.48 82.72C4.56 82.7467 4.66667 82.76 4.8 82.76C4.72 82.76 4.6 82.7867 4.44 82.84C4.17333 82.9733 4.08 83.04 4.16 83.04C4.10667 83.04 4.08 83.0267 4.08 83C4.05333 83 4.02667 83 4 83C3.92 83 3.81333 83.0533 3.68 83.16C3.94667 83.2933 4.01333 83.36 3.88 83.36C3.8 83.4133 3.68 83.4933 3.52 83.6C3.38667 83.68 3.2 83.72 2.96 83.72C2.90667 83.72 2.81333 83.7467 2.68 83.8C2.57333 83.8267 2.49333 83.8533 2.44 83.88C2.38667 83.88 2.33333 83.9067 2.28 83.96C2.25333 84.0133 2.22667 84.04 2.2 84.04C2.14667 84.04 2.12 84.0267 2.12 84C2.14667 84 2.13333 84 2.08 84C2.05333 84 1.94667 84.04 1.76 84.12C1.78667 84.12 1.82667 84.0667 1.88 83.96C1.90667 83.9333 1.88 83.92 1.8 83.92C1.77333 83.92 1.70667 83.9467 1.6 84C1.52 84.0533 1.45333 84.08 1.4 84.08C1.48 84.0533 1.56 84.0267 1.64 84C1.74667 83.9467 1.77333 83.8667 1.72 83.76C1.8 83.76 1.86667 83.7867 1.92 83.84C1.97333 83.84 2.02667 83.7867 2.08 83.68C2.02667 83.6267 1.97333 83.6 1.92 83.6C2 83.6 1.88 83.6933 1.56 83.88C1.45333 83.9067 1.28 83.96 1.04 84.04C1.01333 84.04 0.973333 84.0133 0.92 83.96L1.04 83.84C1.6 83.8667 2.21333 83.5733 2.88 82.96C3.04 82.9333 3.42667 82.72 4.04 82.32C4.25333 82.24 4.53333 82.1067 4.88 81.92C5.14667 81.68 5.46667 81.52 5.84 81.44C5.65333 81.4933 5.38667 81.64 5.04 81.88C5.06667 81.9067 5.12 81.92 5.2 81.92C5.25333 81.92 5.57333 81.76 6.16 81.44C6.16 81.3867 6.13333 81.2933 6.08 81.16C6.05333 81.1867 6.02667 81.2 6 81.2C6.08 81.1467 6.12 81.12 6.12 81.12C6.06667 81.12 6.14667 81.1733 6.36 81.28C6.36 81.28 6.4 81.2133 6.48 81.08C6.61333 81.0267 6.78667 80.9333 7 80.8C7.10667 80.72 7.26667 80.6533 7.48 80.6C7.50667 80.5733 7.57333 80.52 7.68 80.44C8.05333 80.2267 8.57333 79.96 9.24 79.64C8.92 79.8533 8.48 80.12 7.92 80.44C7.94667 80.4667 8 80.48 8.08 80.48C8.34667 80.48 8.88 80.16 9.68 79.52C9.62667 79.4667 9.52 79.48 9.36 79.56C9.52 79.48 9.74667 79.3333 10.04 79.12L9.88 73.96C9.8 73.9333 9.57333 73.92 9.2 73.92C9.06667 73.8133 9.01333 73.76 9.04 73.76C8.98667 73.76 8.96 73.7867 8.96 73.84C8.98667 73.8667 8.97333 73.88 8.92 73.88C9.05333 73.88 8.93333 73.8267 8.56 73.72C7.76 73.48 7.36 73.36 7.36 73.36C7.30667 73.36 7.28 73.3733 7.28 73.4C7.28 73.4267 7.25333 73.44 7.2 73.44C7.17333 73.44 7.10667 73.4 7 73.32C6.92 73.2133 6.86667 73.16 6.84 73.16C6.78667 73.16 6.77333 73.1867 6.8 73.24C6.82667 73.2667 6.81333 73.28 6.76 73.28C6.73333 73.28 6.61333 73.2 6.4 73.04C6.18667 72.8533 6.01333 72.7467 5.88 72.72C5.77333 72.6933 5.62667 72.6267 5.44 72.52C5.28 72.4133 5 72.1067 4.6 71.6C4.6 71.52 4.57333 71.4133 4.52 71.28C4.46667 71.2533 4.4 71.1733 4.32 71.04C4.13333 70.7733 4.04 70.5733 4.04 70.44C4.04 70.52 4.14667 70.3467 4.36 69.92C4.41333 69.8667 4.4 69.84 4.32 69.84C4.26667 69.84 4.24 69.8533 4.24 69.88C4.21333 69.88 4.2 69.88 4.2 69.88V69.68C4.2 69.68 4.28 69.44 4.44 68.96C4.33333 68.8267 4.28 68.76 4.28 68.76C4.28 68.8133 4.45333 68.4667 4.8 67.72C4.90667 67.5067 5.09333 67.2 5.36 66.8C5.62667 66.5333 5.94667 66.1467 6.32 65.64C6.48 65.5067 6.72 65.32 7.04 65.08C7.36 64.84 7.84 64.4267 8.48 63.84C8.58667 63.84 8.90667 63.7067 9.44 63.44C9.68 63.3067 9.93333 63.2133 10.2 63.16C10.2267 63.1067 10.2667 62.9333 10.32 62.64L10.28 62.36C9.74667 62.6267 8.92 63.0933 7.8 63.76C7.24 64.24 6.42667 64.92 5.36 65.8C5.92 65.2133 6.74667 64.44 7.84 63.48C8.8 62.8933 9.64 62.4 10.36 62C10.3867 61.6 10.44 61 10.52 60.2C10.5467 60.2 10.5867 60.1733 10.64 60.12C10.56 59.9867 10.52 59.92 10.52 59.92C10.52 59.8667 10.5467 59.7867 10.6 59.68C10.6533 59.5733 10.68 59.5067 10.68 59.48C10.68 59.4267 10.6667 59.3733 10.64 59.32C10.6133 59.24 10.6 59.1867 10.6 59.16C10.6 58.9467 10.64 58.6267 10.72 58.2C10.7733 58.12 10.84 58 10.92 57.84C11.08 57.44 11.1333 57.2133 11.08 57.16C11.0533 57.1867 11.0267 57.2267 11 57.28C11.1333 57.0667 11.16 56.84 11.08 56.6C11.16 56.4933 11.3067 56.3333 11.52 56.12C11.52 56.2 11.4667 56.32 11.36 56.48C11.52 56.7467 11.6667 56.88 11.8 56.88C11.8533 56.88 11.9333 56.8267 12.04 56.72C12.1467 56.5867 12.2133 56.52 12.24 56.52C12.2933 56.52 12.3333 56.5333 12.36 56.56C12.36 56.56 12.4533 56.4267 12.64 56.16C12.6667 56.2133 12.7067 56.2667 12.76 56.32C12.76 56.32 12.76 56.3867 12.76 56.52C12.8133 56.5733 12.9067 56.5867 13.04 56.56V56.72C13.1733 56.7467 13.2667 56.7333 13.32 56.68C13.3733 56.7333 13.4533 56.8267 13.56 56.96C13.6133 56.9333 13.6267 56.8533 13.6 56.72C13.7333 56.7733 13.88 56.76 14.04 56.68C14.04 56.6533 14 56.64 13.92 56.64L14.04 56.52C14.0933 56.5733 14.1733 56.72 14.28 56.96C14.2267 57.1467 14.2 57.2533 14.2 57.28C14.3333 57.36 14.4133 57.4267 14.44 57.48C14.4133 57.6933 14.4267 57.9733 14.48 58.32C14.5333 58.2667 14.5867 58.1733 14.64 58.04C14.64 58.0933 14.6533 58.16 14.68 58.24C14.7333 58.24 14.7867 58.1733 14.84 58.04C14.92 58.6 14.96 58.96 14.96 59.12C14.96 59.1733 14.92 59.44 14.84 59.92C14.7867 60.3733 14.76 60.6267 14.76 60.68V61.44C14.76 61.4667 14.7867 61.5067 14.84 61.56C14.8933 61.5067 14.92 61.4533 14.92 61.4H15.12C15.12 61.4267 15.12 61.5467 15.12 61.76C15.0667 61.7333 15.0267 61.72 15 61.72C14.9733 61.72 14.9467 61.7067 14.92 61.68L14.88 61.88C14.9067 61.9067 15.0133 61.92 15.2 61.92C15.28 61.92 15.52 61.8667 15.92 61.76C16.1333 62.08 16.2667 62.24 16.32 62.24C16.4267 62.24 16.44 62.2133 16.36 62.16C16.4933 62.24 16.6267 62.24 16.76 62.16C16.7867 62.2133 16.8267 62.28 16.88 62.36C17.2 62.4667 17.4 62.6933 17.48 63.04L17.56 62.96L17.88 63.28C17.8267 63.44 17.72 63.6667 17.56 63.96C17.56 63.96 17.4933 64.2133 17.36 64.72C17.3067 64.9333 17.24 65.2667 17.16 65.72C17.1333 65.8267 17 65.9467 16.76 66.08C16.3067 66.32 15.8667 66.44 15.44 66.44C15.4133 66.44 15.3467 66.4267 15.24 66.4C15.16 66.3467 15.1067 66.32 15.08 66.32C14.6533 66.32 14.4267 66.4933 14.4 66.84C14.3733 67.48 14.36 67.8 14.36 67.8C14.3867 68.1467 14.3867 68.4267 14.36 68.64C14.3333 68.6933 14.2933 68.7733 14.24 68.88C14.32 68.96 14.3333 69.1333 14.28 69.4C14.2533 69.4 14.2133 69.4267 14.16 69.48C14.16 69.64 14.1867 69.72 14.24 69.72C14.24 69.7467 14.1733 69.8133 14.04 69.92C14.1467 69.9733 14.2 70.0533 14.2 70.16C14.2 70.1333 14.1333 70.2533 14 70.52C14.1333 70.5733 14.3333 70.6267 14.6 70.68C14.6 70.7867 14.6533 70.8667 14.76 70.92C14.8667 70.9467 15 70.9867 15.16 71.04C15.56 71.2 16.1867 71.4133 17.04 71.68C17.2267 71.7067 17.48 71.76 17.8 71.84C17.8267 71.8667 17.8667 71.9067 17.92 71.96C18.16 72.0133 18.4133 72.16 18.68 72.4C18.7067 72.4 18.72 72.4 18.72 72.4C18.6933 72.3733 18.7067 72.36 18.76 72.36C18.68 72.36 18.9067 72.48 19.44 72.72C19.4933 72.72 19.5867 72.7467 19.72 72.8C19.9333 72.9333 20.04 73 20.04 73C20.12 73 20.1867 72.9467 20.24 72.84C20.3467 72.8933 20.4 72.92 20.4 72.92C20.4533 72.92 20.4667 72.9067 20.44 72.88C20.44 72.88 20.4533 72.88 20.48 72.88C20.4533 72.88 20.52 72.9467 20.68 73.08C20.6267 73.0533 20.56 73.0267 20.48 73L20.4 73.08C20.7733 73.5867 20.9333 73.9467 20.88 74.16C21.0133 74.32 21.1867 74.4533 21.4 74.56V74.92ZM13.44 86H13.32V85.8H13.44V86ZM7.24 80.52H7.08V80.44H7.24V80.52ZM12.96 87.28L12.92 87.6H12.84L12.88 87.28H12.96ZM8.56 83.36H8.44V83.28H8.56V83.36ZM13.24 88.12H13.12V87.96H13.24V88.12ZM10.96 87.2H10.88V86.28H10.96V87.2ZM8.88 83.44C8.4 83.6267 8.22667 83.72 8.36 83.72C8.33333 83.72 8.32 83.72 8.32 83.72C8.32 83.6933 8.30667 83.68 8.28 83.68C8.28 83.68 8.10667 83.8 7.76 84.04C7.57333 84.0667 7.30667 84.1333 6.96 84.24C6.93333 84.16 6.94667 84.12 7 84.12C7.08 84.12 7.33333 84.0267 7.76 83.84C8.18667 83.6533 8.49333 83.52 8.68 83.44H8.88ZM8.48 84.52H8.2V84.44H8.48V84.52ZM6.12 82.24L6.08 82.4L6 82.36L6.04 82.24H6.12ZM9.48 86.28C9.4 86.28 9.32 86.28 9.24 86.28L9.16 86.24C9.24 86.2133 9.34667 86.1733 9.48 86.12V86.28ZM11.32 88.52L11.24 88.68L11.16 88.64L11.24 88.52H11.32ZM5.12 82.84C5.04 82.84 4.92 82.88 4.76 82.96C4.84 82.8267 4.88 82.7733 4.88 82.8L5.12 82.84ZM6.8 84.8L6.68 84.84V84.8L6.8 84.72V84.8ZM12.28 90.52C12.28 90.4933 12.2533 90.52 12.2 90.6C12.1733 90.44 12.16 90.7733 12.16 91.6C12.08 90.6133 12.0267 90.2133 12 90.4V89.72C12.0267 89.8267 12.0667 89.9867 12.12 90.2C12.2267 90.4933 12.28 90.6 12.28 90.52ZM5.32 83.8C5.24 83.8533 5.12 83.9333 4.96 84.04C4.93333 84.0133 4.89333 83.96 4.84 83.88C4.89333 83.88 4.96 83.8667 5.04 83.84C5.14667 83.8133 5.24 83.8 5.32 83.8ZM4.48 83.4C4.4 83.3467 4.29333 83.28 4.16 83.2H4.44C4.44 83.1467 4.45333 83.2133 4.48 83.4ZM6.56 84.84C6.45333 84.9733 6.09333 85.1333 5.48 85.32C5.72 85.16 5.8 85.08 5.72 85.08C5.77333 85.08 5.8 85.1067 5.8 85.16C5.8 85.1867 5.82667 85.2 5.88 85.2C5.88 85.2 6.10667 85.08 6.56 84.84ZM6.28 85.4L6.16 85.52L6.08 85.44L6.24 85.32L6.28 85.4ZM6.8 83.76C6.61333 83.84 6.25333 84.0667 5.72 84.44L5.64 84.32C5.61333 84.3733 5.58667 84.4267 5.56 84.48C4.81333 84.7733 4.26667 84.96 3.92 85.04V84.88C3.84 84.8533 3.66667 84.84 3.4 84.84C3.53333 84.5467 3.6 84.4133 3.6 84.44C3.6 84.4667 3.65333 84.48 3.76 84.48C3.86667 84.48 3.94667 84.4933 4 84.52C4.05333 84.5467 4.08 84.5733 4.08 84.6C4.18667 84.6 4.26667 84.5867 4.32 84.56C4.37333 84.56 4.41333 84.56 4.44 84.56C4.46667 84.56 4.48 84.5733 4.48 84.6C4.48 84.6267 4.50667 84.64 4.56 84.64C4.64 84.64 4.8 84.56 5.04 84.4C5.06667 84.4533 5.13333 84.5067 5.24 84.56C5.32 84.4533 5.41333 84.3867 5.52 84.36C5.54667 84.3333 5.54667 84.2667 5.52 84.16C5.65333 84.1867 5.72 84.2 5.72 84.2C5.8 84.2 5.88 84.1333 5.96 84V83.92C6.01333 83.9733 6.06667 84 6.12 84C6.2 84 6.28 83.92 6.36 83.76C6.68 83.76 6.82667 83.76 6.8 83.76ZM4.76 84.08L4.56 84.16V84.08L4.72 84.04L4.76 84.08ZM3.52 85.12L3.32 85.16V85.08L3.52 85.04V85.12ZM2.44 84.76H2.28V84.68H2.44V84.76ZM1.84 84.24H1.64V84.16H1.84V84.24ZM2.16 84.48C2.10667 84.56 1.85333 84.6667 1.4 84.8C1.50667 84.6933 1.57333 84.64 1.6 84.64C1.65333 84.64 1.68 84.6533 1.68 84.68C1.68 84.68 1.69333 84.68 1.72 84.68C1.8 84.68 1.94667 84.6133 2.16 84.48ZM0.76 84.08C0.733333 84.1067 0.693333 84.12 0.64 84.12C0.64 84.04 0.626667 84 0.6 84C0.68 84 0.733333 84.0267 0.76 84.08ZM14.28 57.68V57.48H14.2V57.68H14.28ZM9.92 69.88L9.88 68.88C9.69333 69.0667 9.57333 69.2133 9.52 69.32C9.38667 69.4533 9.24 69.64 9.08 69.88C9.10667 69.88 9.16 69.8933 9.24 69.92C9.32 69.92 9.37333 69.92 9.4 69.92C9.72 69.92 9.89333 69.9067 9.92 69.88ZM15.88 74.64C15.88 74.48 15.8533 74.4133 15.8 74.44C15.64 74.36 15.56 74.32 15.56 74.32C15.5067 74.32 15.4133 74.36 15.28 74.44C15.1467 74.52 15.0667 74.56 15.04 74.56C14.96 74.56 14.92 74.56 14.92 74.56C14.9733 74.48 15.0667 74.3733 15.2 74.24C15.12 74.24 14.9867 74.2133 14.8 74.16C14.64 74.08 14.5333 74.04 14.48 74.04C14.4533 74.04 14.4267 74.0533 14.4 74.08C14.3733 74.1067 14.3467 74.12 14.32 74.12C14.2667 74.12 14.2 74.12 14.12 74.12C14.0133 74.0933 13.9467 74.08 13.92 74.08C13.92 74.3467 13.9067 74.7333 13.88 75.24C13.88 75.7467 13.88 76.12 13.88 76.36C13.88 76.36 13.88 76.3733 13.88 76.4C13.8533 76.6667 13.8667 76.8267 13.92 76.88C14.1067 76.6667 14.2 76.56 14.2 76.56C14.2533 76.56 14.28 76.5733 14.28 76.6C14.3067 76.6267 14.3467 76.6533 14.4 76.68C14.48 76.6533 14.5867 76.56 14.72 76.4C14.6133 76.4267 14.5733 76.44 14.6 76.44C14.52 76.44 14.4933 76.3867 14.52 76.28C14.5467 76.2267 14.6 76.1733 14.68 76.12L14.8 76.24C14.8 76.1867 14.7867 76.12 14.76 76.04H14.52C14.52 76.0933 14.4933 76.1333 14.44 76.16L14.36 76.08C14.4667 76 14.6 75.9067 14.76 75.8C15.5067 75.16 15.88 74.7733 15.88 74.64ZM15.24 76.08C15.0533 76.0267 14.9467 76 14.92 76C14.92 76 14.92 76.08 14.92 76.24C15.16 76.1333 15.2667 76.08 15.24 76.08ZM16.48 80.36H16.24C16.24 80.4133 16.2533 80.4667 16.28 80.52C16.3333 80.4933 16.4 80.44 16.48 80.36ZM5.76 72.04C5.68 71.9867 5.64 71.9333 5.64 71.88C5.61333 71.88 5.53333 71.9067 5.4 71.96C5.48 72.0133 5.6 72.04 5.76 72.04ZM9.92 79.88C9.70667 79.9867 9.42667 80.1733 9.08 80.44C9.10667 80.4667 9.14667 80.4933 9.2 80.52C9.33333 80.4133 9.48 80.3067 9.64 80.2C9.82667 80.0933 9.92 79.9867 9.92 79.88ZM11.04 82.64C11.04 82.56 10.9733 82.5067 10.84 82.48C10.8667 82.5867 10.8933 82.6533 10.92 82.68C10.8933 82.7067 10.8533 82.8 10.8 82.96C10.96 82.88 11.04 82.7733 11.04 82.64ZM11 83.16V83.08H10.8V83.16H11ZM9.24 81.56H9.04C8.96 81.64 8.94667 81.7067 9 81.76C9.16 81.7067 9.24 81.64 9.24 81.56ZM8.52 80.84C8.44 80.68 8.34667 80.6 8.24 80.6C7.97333 80.6 7.8 80.76 7.72 81.08C7.88 81 8.14667 80.92 8.52 80.84ZM8.64 82.12L8.56 82.04C8.45333 82.04 8.37333 82.0667 8.32 82.12H8.64ZM7.92 80.6C7.76 80.6267 7.53333 80.68 7.24 80.76C7.21333 80.8133 6.97333 80.9733 6.52 81.24C7.05333 81.1067 7.52 80.8933 7.92 80.6ZM7.52 81.12C7.49333 81.0667 7.46667 81.0133 7.44 80.96C7.30667 81.04 7.24 81.12 7.24 81.2C7.37333 81.1467 7.46667 81.12 7.52 81.12ZM7 81.32C7 81.2667 6.98667 81.2133 6.96 81.16L6.8 81.32H7ZM11.72 86.16C11.6933 85.8933 11.68 85.6933 11.68 85.56C11.6533 85.64 11.6667 86.0933 11.72 86.92C11.72 86.3867 11.72 86.1333 11.72 86.16ZM7.96 82.84C8.01333 82.76 8.01333 82.6933 7.96 82.64C7.90667 82.64 7.84 82.6533 7.76 82.68C7.81333 82.76 7.88 82.8133 7.96 82.84ZM6.16 81.92L6.08 81.72C5.92 81.8 5.8 81.84 5.72 81.84C5.8 81.8933 5.94667 81.92 6.16 81.92ZM11.32 87.64V87.4H11.24V87.64H11.32ZM2.24 83.6L2.2 83.52L2.12 83.56L2.16 83.64L2.24 83.6ZM14.64 75H14.48V74.92H14.64V75ZM14.52 76.52H14.32V76.44H14.52V76.52Z" fill="white"/>
<path d="M40.021 13.5891C40.021 14.1381 40.183 14.5971 40.507 14.9121C40.849 15.2361 41.488 15.5511 42.415 15.8481V11.5461C41.668 11.6001 41.083 11.8341 40.651 12.2121C40.237 12.5721 40.021 13.0311 40.021 13.5891V13.5891Z" fill="white"/>
<path d="M43.9897 19.3311V23.8041C44.7997 23.7141 45.4207 23.4891 45.8887 23.0931C46.3387 22.7331 46.5727 22.2381 46.5727 21.6531C46.5727 21.0861 46.4017 20.6181 46.0237 20.2851C45.6727 19.9251 44.9887 19.6191 43.9897 19.3311Z" fill="white"/>
<path d="M59.1909 23.1112C59.7129 21.4822 59.9919 19.7452 59.9919 17.9452C59.9919 8.53117 52.3599 0.89917 42.9459 0.89917C33.5229 0.89917 25.8999 8.53117 25.8999 17.9452C25.8999 27.3592 33.5229 34.9912 42.9459 34.9912C44.7459 34.9912 46.4829 34.7122 48.1119 34.1902C48.2649 28.1512 53.1519 23.2642 59.1909 23.1112V23.1112ZM48.0849 24.9652C47.0409 25.8742 45.6999 26.3692 43.9899 26.4592V28.2502H42.4149V26.4232C40.1379 26.2162 38.0769 25.2892 36.2859 23.7232L38.1039 21.5632C39.4899 22.7692 40.9209 23.4892 42.4149 23.7232V18.8992C40.5339 18.4402 39.1659 17.8552 38.2749 17.1352C37.4199 16.4062 36.9969 15.3082 36.9969 13.8952C36.9969 12.4552 37.4829 11.2852 38.4729 10.3672C39.4899 9.46717 40.8039 8.96317 42.4149 8.88217V7.63117H43.9899V8.90017C45.8169 9.04417 47.5359 9.66517 49.1559 10.7722L47.5449 13.0672C46.4559 12.2842 45.2679 11.7892 43.9899 11.6182V16.2892H44.0709C45.9699 16.7482 47.3829 17.3512 48.2829 18.1162C49.1559 18.8722 49.6059 19.9702 49.6059 21.4192C49.6059 22.8592 49.1019 24.0652 48.0849 24.9652V24.9652Z" fill="white"/>
<path d="M59.5013 24.9031C54.2003 24.9031 49.9028 29.2006 49.9028 34.5016C49.9028 39.8026 54.2003 44.1001 59.5013 44.1001C64.8023 44.1001 69.0998 39.8035 69.0998 34.5025C69.0998 29.2015 64.8023 24.9031 59.5013 24.9031V24.9031ZM61.8773 34.1416V41.0194H57.1244V34.1416H54.5018L59.5004 27.9847L64.499 34.1416H61.8773Z" fill="white"/>
</svg>
