<svg width="11" height="18" viewBox="0 0 11 18" fill="none" xmlns="http://www.w3.org/2000/svg">
<path d="M7.32953 10.6568L8.21641 10.7499V17.9688L5.76672 15.3529V11.1914L6.4782 11.5388L7.32953 10.6568ZM3.42523 10.6568L2.53789 10.7499V17.9688L4.98754 15.3529V11.1914L4.27609 11.5388L3.42523 10.6568ZM10.1432 6.13414L10.4302 7.13313L9.56867 7.71398L9.49652 8.75191L8.48832 9.00289L8.06633 9.95266L7.03274 9.84348L6.31106 10.5891L5.37738 10.1329L4.44371 10.5891L3.72203 9.84101L2.68844 9.9502L2.26645 9.00047L1.25824 8.75191L1.18609 7.71543L0.322109 7.13262L0.609141 6.13367L0 5.29211L0.611094 4.45148L0.322109 3.45449L1.18414 2.87363L1.25629 1.83711L2.26645 1.58859L2.68844 0.638867L3.72203 0.748008L4.44371 0L5.37738 0.456133L6.31106 0L7.03274 0.748008L8.06633 0.638867L8.48832 1.58859L9.49652 1.83957L9.56867 2.87605L10.4302 3.45691L10.1432 4.4559L10.7548 5.29211L10.1432 6.13414ZM8.22078 5.29211C8.22078 4.73398 8.05528 4.18838 7.7452 3.72432C7.43512 3.26025 6.99439 2.89855 6.47874 2.68496C5.9631 2.47138 5.3957 2.41549 4.84829 2.52438C4.30089 2.63326 3.79806 2.90203 3.40341 3.29669C3.00875 3.69134 2.73998 4.19417 2.6311 4.74157C2.52221 5.28898 2.5781 5.85638 2.79168 6.37202C3.00527 6.88767 3.36697 7.3284 3.83104 7.63848C4.2951 7.94856 4.8407 8.11406 5.39883 8.11406C6.1469 8.1129 6.86399 7.81521 7.39296 7.28624C7.92193 6.75728 8.21961 6.04018 8.22078 5.29211ZM5.39883 3.2498C4.99491 3.2498 4.60006 3.36958 4.26421 3.59399C3.92836 3.81839 3.6666 4.13735 3.51202 4.51052C3.35745 4.88369 3.317 5.29432 3.3958 5.69048C3.4746 6.08664 3.6691 6.45054 3.95471 6.73616C4.24033 7.02177 4.60422 7.21628 5.00038 7.29509C5.39654 7.3739 5.80717 7.33346 6.18034 7.17889C6.55352 7.02432 6.87248 6.76256 7.09689 6.42672C7.3213 6.09088 7.44109 5.69603 7.44109 5.29211C7.43955 4.75108 7.22384 4.23267 6.84113 3.85023C6.45843 3.4678 5.93986 3.25245 5.39883 3.25129V3.2498Z" fill="white"/>
</svg>
