<svg width="139" height="26" viewBox="0 0 139 26" fill="none" xmlns="http://www.w3.org/2000/svg">
<rect width="26" height="26" rx="2" fill="url(#paint0_radial_60_59916)"/>
<path d="M14.9946 17.1206C14.8868 17.1206 14.7793 17.1145 14.6727 17.1022C14.1923 17.4576 13.6064 17.6543 13 17.6543C12.3935 17.6543 11.8076 17.4576 11.3272 17.1022C11.2206 17.1145 11.1132 17.1206 11.0054 17.1206C10.8088 17.1206 10.6132 17.0994 10.4219 17.0586V20.9981L13 19.709L15.5781 20.9981V17.0586C15.3867 17.0994 15.1912 17.1206 14.9946 17.1206Z" fill="white"/>
<path d="M18.2297 9.45809C18.3924 8.96756 18.3531 8.41247 18.0744 7.92969C17.7956 7.44691 17.3346 7.13534 16.8284 7.031C16.724 6.52481 16.4125 6.06375 15.9297 5.785C15.4469 5.50628 14.8918 5.467 14.4013 5.62972C14.0578 5.24353 13.5575 5 13 5C12.4425 5 11.9422 5.24353 11.5987 5.62972C11.1082 5.46697 10.5531 5.50625 10.0703 5.785C9.58753 6.06375 9.27597 6.52484 9.17163 7.031C8.66547 7.13534 8.20438 7.44691 7.92563 7.92969C7.64688 8.41247 7.60763 8.96756 7.77034 9.45809C7.38416 9.80153 7.14062 10.3019 7.14062 10.8594C7.14062 11.4168 7.38416 11.9172 7.77034 12.2607C7.60763 12.7512 7.64688 13.3063 7.92563 13.7891C8.20438 14.2718 8.66544 14.5834 9.17163 14.6877C9.27597 15.1939 9.58753 15.655 10.0703 15.9338C10.5531 16.2125 11.1082 16.2517 11.5987 16.089C11.9422 16.4752 12.4425 16.7188 13 16.7188C13.5575 16.7188 14.0578 16.4752 14.4013 16.089C14.8918 16.2518 15.4469 16.2125 15.9297 15.9338C16.4125 15.655 16.724 15.1939 16.8284 14.6877C17.3346 14.5834 17.7957 14.2718 18.0744 13.7891C18.3531 13.3063 18.3924 12.7512 18.2297 12.2607C18.6158 11.9172 18.8594 11.4168 18.8594 10.8594C18.8594 10.3019 18.6158 9.80153 18.2297 9.45809ZM13 14.8438C10.803 14.8438 9.01562 13.0564 9.01562 10.8594C9.01562 8.66237 10.803 6.875 13 6.875C15.197 6.875 16.9844 8.66237 16.9844 10.8594C16.9844 13.0564 15.197 14.8438 13 14.8438Z" fill="white"/>
<path d="M13 7.8125C11.3199 7.8125 9.95312 9.17931 9.95312 10.8594C9.95312 12.5394 11.3199 13.9062 13 13.9062C14.6801 13.9062 16.0469 12.5394 16.0469 10.8594C16.0469 9.17931 14.6801 7.8125 13 7.8125ZM13 12.9688C11.8369 12.9688 10.8906 12.0225 10.8906 10.8594C10.8906 9.69625 11.8369 8.75 13 8.75C14.1631 8.75 15.1094 9.69625 15.1094 10.8594C15.1094 12.0225 14.1631 12.9688 13 12.9688Z" fill="white"/>
<path d="M13 12.0312C13.6472 12.0312 14.1719 11.5066 14.1719 10.8594C14.1719 10.2122 13.6472 9.6875 13 9.6875C12.3528 9.6875 11.8281 10.2122 11.8281 10.8594C11.8281 11.5066 12.3528 12.0312 13 12.0312Z" fill="white"/>
<rect x="31" width="108" height="26" rx="1" fill="url(#paint1_radial_60_59916)" fill-opacity="0.25"/>
<path d="M47.644 18L46.734 15.592H42.086L41.176 18H40.14L43.906 8.2H44.914L48.68 18H47.644ZM42.436 14.668H46.384L44.41 9.418L42.436 14.668ZM52.9236 18.168C51.869 18.168 50.9916 17.818 50.2916 17.118C49.5916 16.4087 49.2416 15.536 49.2416 14.5C49.2416 13.464 49.5916 12.596 50.2916 11.896C50.9916 11.1867 51.869 10.832 52.9236 10.832C53.6143 10.832 54.235 11 54.7856 11.336C55.3363 11.6627 55.7376 12.106 55.9896 12.666L55.2336 13.1C55.047 12.68 54.7436 12.3487 54.3236 12.106C53.913 11.854 53.4463 11.728 52.9236 11.728C52.149 11.728 51.4956 11.9987 50.9636 12.54C50.4316 13.072 50.1656 13.7253 50.1656 14.5C50.1656 15.2747 50.4316 15.9327 50.9636 16.474C51.4956 17.006 52.149 17.272 52.9236 17.272C53.4463 17.272 53.913 17.1507 54.3236 16.908C54.7343 16.656 55.0563 16.32 55.2896 15.9L56.0596 16.348C55.7703 16.908 55.3456 17.3513 54.7856 17.678C54.2256 18.0047 53.605 18.168 52.9236 18.168ZM60.6623 10.832C61.5116 10.832 62.1789 11.0933 62.6643 11.616C63.1589 12.1293 63.4062 12.8247 63.4062 13.702V18H62.4823V13.702C62.4823 13.0767 62.3143 12.5913 61.9783 12.246C61.6516 11.9007 61.1849 11.728 60.5783 11.728C59.9063 11.728 59.3603 11.9427 58.9403 12.372C58.5203 12.792 58.3103 13.4453 58.3103 14.332V18H57.3863V8.2H58.3103V12.092C58.8329 11.252 59.6169 10.832 60.6623 10.832ZM66.1309 9.32C66.0002 9.45067 65.8416 9.516 65.6549 9.516C65.4682 9.516 65.3096 9.45067 65.1789 9.32C65.0482 9.18933 64.9829 9.03067 64.9829 8.844C64.9829 8.65733 65.0482 8.49867 65.1789 8.368C65.3096 8.23733 65.4682 8.172 65.6549 8.172C65.8416 8.172 66.0002 8.23733 66.1309 8.368C66.2616 8.49867 66.3269 8.65733 66.3269 8.844C66.3269 9.03067 66.2616 9.18933 66.1309 9.32ZM65.1929 18V11H66.1169V18H65.1929ZM71.3117 10.832C72.3477 10.832 73.183 11.2007 73.8177 11.938C74.4617 12.666 74.7837 13.5293 74.7837 14.528C74.7837 14.6307 74.7743 14.7753 74.7557 14.962H68.6097C68.703 15.6713 69.0017 16.236 69.5057 16.656C70.019 17.0667 70.649 17.272 71.3957 17.272C71.9277 17.272 72.385 17.1647 72.7677 16.95C73.1597 16.726 73.4537 16.4367 73.6497 16.082L74.4617 16.558C74.1537 17.0527 73.7337 17.4447 73.2017 17.734C72.6697 18.0233 72.063 18.168 71.3817 18.168C70.2803 18.168 69.3843 17.8227 68.6937 17.132C68.003 16.4413 67.6577 15.564 67.6577 14.5C67.6577 13.4547 67.9983 12.582 68.6797 11.882C69.361 11.182 70.2383 10.832 71.3117 10.832ZM71.3117 11.728C70.5837 11.728 69.9723 11.9473 69.4777 12.386C68.9923 12.8153 68.703 13.3753 68.6097 14.066H73.8317C73.7383 13.3287 73.4537 12.7547 72.9777 12.344C72.5017 11.9333 71.9463 11.728 71.3117 11.728ZM81.02 11H82L79.13 18H78.01L75.14 11H76.12L78.57 17.034L81.02 11ZM86.0773 10.832C87.1133 10.832 87.9486 11.2007 88.5833 11.938C89.2273 12.666 89.5493 13.5293 89.5493 14.528C89.5493 14.6307 89.5399 14.7753 89.5213 14.962H83.3753C83.4686 15.6713 83.7673 16.236 84.2713 16.656C84.7846 17.0667 85.4146 17.272 86.1613 17.272C86.6933 17.272 87.1506 17.1647 87.5333 16.95C87.9253 16.726 88.2193 16.4367 88.4153 16.082L89.2273 16.558C88.9193 17.0527 88.4993 17.4447 87.9673 17.734C87.4353 18.0233 86.8286 18.168 86.1473 18.168C85.0459 18.168 84.1499 17.8227 83.4593 17.132C82.7686 16.4413 82.4233 15.564 82.4233 14.5C82.4233 13.4547 82.7639 12.582 83.4453 11.882C84.1266 11.182 85.0039 10.832 86.0773 10.832ZM86.0773 11.728C85.3493 11.728 84.7379 11.9473 84.2433 12.386C83.7579 12.8153 83.4686 13.3753 83.3753 14.066H88.5973C88.5039 13.3287 88.2193 12.7547 87.7433 12.344C87.2673 11.9333 86.7119 11.728 86.0773 11.728ZM98.4811 10.832C99.2651 10.832 99.8951 11.084 100.371 11.588C100.856 12.092 101.099 12.7733 101.099 13.632V18H100.175V13.632C100.175 13.0253 100.016 12.5587 99.6991 12.232C99.3911 11.896 98.9804 11.728 98.4671 11.728C97.8884 11.728 97.4171 11.924 97.0531 12.316C96.6984 12.6987 96.5211 13.3007 96.5211 14.122V18H95.5971V13.632C95.5971 13.016 95.4477 12.5447 95.1491 12.218C94.8597 11.8913 94.4631 11.728 93.9591 11.728C93.3991 11.728 92.9231 11.924 92.5311 12.316C92.1391 12.708 91.9431 13.31 91.9431 14.122V18H91.0191V11H91.9431V12.022C92.4471 11.2287 93.1611 10.832 94.0851 10.832C95.0931 10.832 95.8024 11.2567 96.2131 12.106C96.7171 11.2567 97.4731 10.832 98.4811 10.832ZM106.12 10.832C107.156 10.832 107.992 11.2007 108.626 11.938C109.27 12.666 109.592 13.5293 109.592 14.528C109.592 14.6307 109.583 14.7753 109.564 14.962H103.418C103.512 15.6713 103.81 16.236 104.314 16.656C104.828 17.0667 105.458 17.272 106.204 17.272C106.736 17.272 107.194 17.1647 107.576 16.95C107.968 16.726 108.262 16.4367 108.458 16.082L109.27 16.558C108.962 17.0527 108.542 17.4447 108.01 17.734C107.478 18.0233 106.872 18.168 106.19 18.168C105.089 18.168 104.193 17.8227 103.502 17.132C102.812 16.4413 102.466 15.564 102.466 14.5C102.466 13.4547 102.807 12.582 103.488 11.882C104.17 11.182 105.047 10.832 106.12 10.832ZM106.12 11.728C105.392 11.728 104.781 11.9473 104.286 12.386C103.801 12.8153 103.512 13.3753 103.418 14.066H108.64C108.547 13.3287 108.262 12.7547 107.786 12.344C107.31 11.9333 106.755 11.728 106.12 11.728ZM114.338 10.832C115.187 10.832 115.855 11.0933 116.34 11.616C116.835 12.1293 117.082 12.8247 117.082 13.702V18H116.158V13.702C116.158 13.0767 115.99 12.5913 115.654 12.246C115.327 11.9007 114.861 11.728 114.254 11.728C113.582 11.728 113.036 11.9427 112.616 12.372C112.196 12.792 111.986 13.4453 111.986 14.332V18H111.062V11H111.986V12.092C112.509 11.252 113.293 10.832 114.338 10.832ZM122.579 11.896H120.563V16.138C120.563 16.5207 120.637 16.796 120.787 16.964C120.936 17.1227 121.16 17.2067 121.459 17.216C121.757 17.216 122.131 17.2067 122.579 17.188V18C121.599 18.1493 120.861 18.0793 120.367 17.79C119.881 17.5007 119.639 16.95 119.639 16.138V11.896H118.169V11H119.639V9.32L120.563 9.04V11H122.579V11.896ZM124.423 12.834C124.423 13.1513 124.563 13.4033 124.843 13.59C125.123 13.7767 125.464 13.9213 125.865 14.024C126.266 14.1267 126.668 14.2433 127.069 14.374C127.47 14.4953 127.811 14.7053 128.091 15.004C128.371 15.2933 128.511 15.676 128.511 16.152C128.511 16.7493 128.273 17.2347 127.797 17.608C127.33 17.9813 126.724 18.168 125.977 18.168C125.305 18.168 124.731 18.0187 124.255 17.72C123.788 17.4213 123.462 17.034 123.275 16.558L124.059 16.096C124.19 16.46 124.423 16.7493 124.759 16.964C125.104 17.1693 125.51 17.272 125.977 17.272C126.434 17.272 126.817 17.1833 127.125 17.006C127.433 16.8193 127.587 16.5347 127.587 16.152C127.587 15.8347 127.447 15.5827 127.167 15.396C126.887 15.2093 126.546 15.0647 126.145 14.962C125.744 14.8593 125.342 14.7473 124.941 14.626C124.54 14.4953 124.199 14.2853 123.919 13.996C123.639 13.6973 123.499 13.31 123.499 12.834C123.499 12.2647 123.723 11.7887 124.171 11.406C124.628 11.0233 125.202 10.832 125.893 10.832C126.462 10.832 126.962 10.9627 127.391 11.224C127.82 11.476 128.138 11.8213 128.343 12.26L127.573 12.708C127.302 12.0547 126.742 11.728 125.893 11.728C125.492 11.728 125.146 11.826 124.857 12.022C124.568 12.2087 124.423 12.4793 124.423 12.834Z" fill="white"/>
<defs>
<radialGradient id="paint0_radial_60_59916" cx="0" cy="0" r="1" gradientUnits="userSpaceOnUse" gradientTransform="translate(13 13) rotate(90) scale(25)">
<stop stop-color="#5FDF68"/>
<stop offset="1" stop-color="#5FDF74" stop-opacity="0"/>
</radialGradient>
<radialGradient id="paint1_radial_60_59916" cx="0" cy="0" r="1" gradientUnits="userSpaceOnUse" gradientTransform="translate(85 13) rotate(90) scale(25 103.846)">
<stop stop-color="white"/>
<stop offset="1" stop-color="white" stop-opacity="0"/>
</radialGradient>
</defs>
</svg>
