<svg width="123" height="26" viewBox="0 0 123 26" fill="none" xmlns="http://www.w3.org/2000/svg">
<rect width="26" height="26" rx="2" fill="url(#paint0_radial_60_60010)"/>
<g clip-path="url(#clip0_60_60010)">
<path d="M14.5533 11.1712C14.5533 12.0298 13.858 12.7252 12.9993 12.7252C12.1406 12.7252 11.4453 12.0299 11.4453 11.1712C11.4453 10.3125 12.1406 9.61719 12.9993 9.61719C13.858 9.61719 14.5533 10.3125 14.5533 11.1712Z" fill="white"/>
<path d="M16.7335 6.93332C15.1795 6.78864 13.9102 6.38264 13.0002 6C12.0902 6.38268 10.8209 6.78868 9.26691 6.93332C8.38959 7.01264 7.60091 6.994 6.93359 6.93332V11.8753C6.93359 15.366 9.08027 18.4926 12.3376 19.7433L13.0002 20L13.6629 19.7433C16.9202 18.4926 19.0669 15.366 19.0669 11.8753V6.93332C18.3996 6.994 17.6109 7.01264 16.7335 6.93332ZM16.4022 16.0286C16.3369 16.108 16.2389 16.15 16.1362 16.15H9.86423C9.76155 16.15 9.66355 16.108 9.59823 16.0286C9.53291 15.954 9.50491 15.8513 9.51891 15.7533C9.69623 14.4886 10.5455 13.4526 11.6702 12.9906C11.1102 12.58 10.7462 11.9173 10.7462 11.1706C10.7462 9.92927 11.7589 8.91664 13.0002 8.91664C14.2416 8.91664 15.2542 9.92927 15.2542 11.1706C15.2542 11.9173 14.8902 12.58 14.3302 12.9906C15.4549 13.4526 16.3042 14.4886 16.4815 15.7533C16.4955 15.8513 16.4675 15.954 16.4022 16.0286ZM13.0002 13.4246C11.7402 13.4246 10.6435 14.274 10.2982 15.45H15.7022C15.3569 14.274 14.2602 13.4246 13.0002 13.4246Z" fill="white"/>
</g>
<rect x="31" width="92" height="26" rx="1" fill="url(#paint1_radial_60_60010)" fill-opacity="0.25"/>
<path d="M46.144 18L45.234 15.592H40.586L39.676 18H38.64L42.406 8.2H43.414L47.18 18H46.144ZM40.936 14.668H44.884L42.91 9.418L40.936 14.668ZM54.1816 8.2H55.1056V18H54.1816V16.628C53.5376 17.6547 52.595 18.168 51.3536 18.168C50.355 18.168 49.501 17.8133 48.7916 17.104C48.0916 16.3947 47.7416 15.5267 47.7416 14.5C47.7416 13.4733 48.0916 12.6053 48.7916 11.896C49.501 11.1867 50.355 10.832 51.3536 10.832C52.595 10.832 53.5376 11.3453 54.1816 12.372V8.2ZM49.4636 16.474C49.9956 17.006 50.649 17.272 51.4236 17.272C52.1983 17.272 52.8516 17.006 53.3836 16.474C53.9156 15.9327 54.1816 15.2747 54.1816 14.5C54.1816 13.7253 53.9156 13.072 53.3836 12.54C52.8516 11.9987 52.1983 11.728 51.4236 11.728C50.649 11.728 49.9956 11.9987 49.4636 12.54C48.9316 13.072 48.6656 13.7253 48.6656 14.5C48.6656 15.2747 48.9316 15.9327 49.4636 16.474ZM64.524 10.832C65.308 10.832 65.938 11.084 66.414 11.588C66.8994 12.092 67.142 12.7733 67.142 13.632V18H66.218V13.632C66.218 13.0253 66.0594 12.5587 65.742 12.232C65.434 11.896 65.0234 11.728 64.51 11.728C63.9314 11.728 63.46 11.924 63.096 12.316C62.7414 12.6987 62.564 13.3007 62.564 14.122V18H61.64V13.632C61.64 13.016 61.4907 12.5447 61.192 12.218C60.9027 11.8913 60.506 11.728 60.002 11.728C59.442 11.728 58.966 11.924 58.574 12.316C58.182 12.708 57.986 13.31 57.986 14.122V18H57.062V11H57.986V12.022C58.49 11.2287 59.204 10.832 60.128 10.832C61.136 10.832 61.8454 11.2567 62.256 12.106C62.76 11.2567 63.516 10.832 64.524 10.832ZM69.8672 9.32C69.7366 9.45067 69.5779 9.516 69.3912 9.516C69.2046 9.516 69.0459 9.45067 68.9152 9.32C68.7846 9.18933 68.7192 9.03067 68.7192 8.844C68.7192 8.65733 68.7846 8.49867 68.9152 8.368C69.0459 8.23733 69.2046 8.172 69.3912 8.172C69.5779 8.172 69.7366 8.23733 69.8672 8.368C69.9979 8.49867 70.0632 8.65733 70.0632 8.844C70.0632 9.03067 69.9979 9.18933 69.8672 9.32ZM68.9292 18V11H69.8532V18H68.9292ZM75.09 10.832C75.9393 10.832 76.6067 11.0933 77.092 11.616C77.5867 12.1293 77.834 12.8247 77.834 13.702V18H76.91V13.702C76.91 13.0767 76.742 12.5913 76.406 12.246C76.0793 11.9007 75.6127 11.728 75.006 11.728C74.334 11.728 73.788 11.9427 73.368 12.372C72.948 12.792 72.738 13.4453 72.738 14.332V18H71.814V11H72.738V12.092C73.2607 11.252 74.0447 10.832 75.09 10.832ZM87.8386 18.168C86.3546 18.168 85.1273 17.678 84.1566 16.698C83.186 15.718 82.7006 14.5187 82.7006 13.1C82.7006 11.6813 83.186 10.482 84.1566 9.502C85.1273 8.522 86.3546 8.032 87.8386 8.032C88.744 8.032 89.5746 8.25133 90.3306 8.69C91.0866 9.11933 91.67 9.70267 92.0806 10.44L91.2126 10.944C90.9046 10.3467 90.4473 9.87067 89.8406 9.516C89.234 9.16133 88.5666 8.984 87.8386 8.984C86.616 8.984 85.6173 9.38067 84.8426 10.174C84.068 10.9673 83.6806 11.9427 83.6806 13.1C83.6806 14.2573 84.068 15.2327 84.8426 16.026C85.6173 16.8193 86.616 17.216 87.8386 17.216C88.5666 17.216 89.234 17.0387 89.8406 16.684C90.4473 16.3293 90.9046 15.8533 91.2126 15.256L92.0806 15.746C91.6793 16.4833 91.096 17.0713 90.3306 17.51C89.5746 17.9487 88.744 18.168 87.8386 18.168ZM96.8283 10.832C97.6776 10.832 98.3449 11.0933 98.8303 11.616C99.3249 12.1293 99.5723 12.8247 99.5723 13.702V18H98.6483V13.702C98.6483 13.0767 98.4803 12.5913 98.1443 12.246C97.8176 11.9007 97.3509 11.728 96.7443 11.728C96.0723 11.728 95.5263 11.9427 95.1063 12.372C94.6863 12.792 94.4763 13.4453 94.4763 14.332V18H93.5523V8.2H94.4763V12.092C94.9989 11.252 95.7829 10.832 96.8283 10.832ZM107.379 11H108.303V18H107.379V16.628C106.735 17.6547 105.792 18.168 104.551 18.168C103.552 18.168 102.698 17.8133 101.989 17.104C101.289 16.3947 100.939 15.5267 100.939 14.5C100.939 13.4733 101.289 12.6053 101.989 11.896C102.698 11.1867 103.552 10.832 104.551 10.832C105.792 10.832 106.735 11.3453 107.379 12.372V11ZM102.661 16.474C103.193 17.006 103.846 17.272 104.621 17.272C105.396 17.272 106.049 17.006 106.581 16.474C107.113 15.9327 107.379 15.2747 107.379 14.5C107.379 13.7253 107.113 13.072 106.581 12.54C106.049 11.9987 105.396 11.728 104.621 11.728C103.846 11.728 103.193 11.9987 102.661 12.54C102.129 13.072 101.863 13.7253 101.863 14.5C101.863 15.2747 102.129 15.9327 102.661 16.474ZM113.969 11.896H111.953V16.138C111.953 16.5207 112.028 16.796 112.177 16.964C112.327 17.1227 112.551 17.2067 112.849 17.216C113.148 17.216 113.521 17.2067 113.969 17.188V18C112.989 18.1493 112.252 18.0793 111.757 17.79C111.272 17.5007 111.029 16.95 111.029 16.138V11.896H109.559V11H111.029V9.32L111.953 9.04V11H113.969V11.896Z" fill="white"/>
<defs>
<radialGradient id="paint0_radial_60_60010" cx="0" cy="0" r="1" gradientUnits="userSpaceOnUse" gradientTransform="translate(13 13) rotate(90) scale(25)">
<stop stop-color="#DF5F61"/>
<stop offset="1" stop-color="#DF5F61" stop-opacity="0"/>
</radialGradient>
<radialGradient id="paint1_radial_60_60010" cx="0" cy="0" r="1" gradientUnits="userSpaceOnUse" gradientTransform="translate(77 13) rotate(90) scale(25 88.4615)">
<stop stop-color="white"/>
<stop offset="1" stop-color="white" stop-opacity="0"/>
</radialGradient>
<clipPath id="clip0_60_60010">
<rect width="14" height="14" fill="white" transform="translate(6 6)"/>
</clipPath>
</defs>
</svg>
