<svg width="20" height="20" viewBox="0 0 20 20" fill="none" xmlns="http://www.w3.org/2000/svg">
<path d="M18.2908 9.16668C17.889 5.22645 14.7736 2.11102 10.8333 1.70918V0H9.16664V1.70918C5.22645 2.11102 2.11102 5.22645 1.70918 9.16668H0V10.8334H1.70918C2.11102 14.7736 5.22645 17.889 9.16668 18.2909V20H10.8334V18.2908C14.7736 17.889 17.889 14.7736 18.2909 10.8333H20V9.16664H18.2908V9.16668ZM16.6092 10.8333C16.2249 13.8498 13.8498 16.2249 10.8334 16.6091V15H9.16668V16.6092C6.15023 16.2249 3.77512 13.8498 3.39086 10.8334H5V9.16668H3.39082C3.77508 6.15023 6.1502 3.77512 9.16664 3.39086V5H10.8333V3.39082C13.8498 3.77508 16.2249 6.1502 16.6091 9.16664H15V10.8333H16.6092Z" fill="white"/>
<path d="M10 12.5781C11.4239 12.5781 12.5781 11.4239 12.5781 10C12.5781 8.57614 11.4239 7.42188 10 7.42188C8.57614 7.42188 7.42188 8.57614 7.42188 10C7.42188 11.4239 8.57614 12.5781 10 12.5781Z" fill="white"/>
</svg>
