<svg width="38" height="38" viewBox="0 0 38 38" fill="none" xmlns="http://www.w3.org/2000/svg">
<path d="M10.8436 3.24169L3.24365 10.8417L0.556641 8.15469L8.15664 0.554688L10.8436 3.24169Z" fill="white"/>
<path d="M34.7565 10.8417L27.1565 3.24169L29.8435 0.554688L37.4435 8.15469L34.7565 10.8417Z" fill="white"/>
<path fill-rule="evenodd" clip-rule="evenodd" d="M1.90005 20.8982C1.90005 11.4541 9.55599 3.79816 19.0001 3.79816C28.4441 3.79816 36.1001 11.4541 36.1001 20.8982C36.1001 30.3422 28.4441 37.9982 19.0001 37.9982C9.55599 37.9982 1.90005 30.3422 1.90005 20.8982ZM16.1501 22.7982V10.4482H19.9501V19.1061L23.5957 16.5021L25.8044 19.5943L19.1544 24.3443C18.5753 24.7579 17.8135 24.8132 17.1807 24.4876C16.5478 24.1619 16.1501 23.5099 16.1501 22.7982Z" fill="white"/>
</svg>
