<svg width="30" height="30" viewBox="0 0 30 30" fill="none" xmlns="http://www.w3.org/2000/svg">
<path d="M7.49998 10.625V17.4999H22.5V10.625C22.5 8.90248 23.9025 7.49998 25.625 7.49998H27.5V5.62498C27.5 3.9025 26.0975 2.5 24.375 2.5H5.62498C3.9025 2.5 2.5 3.9025 2.5 5.62498V7.49998H4.375C6.09748 7.49998 7.49998 8.90248 7.49998 10.625Z" fill="white"/>
<path d="M28.125 8.75H25.625C24.5912 8.75 23.75 9.59123 23.75 10.625V18.125C23.75 18.47 23.47 18.75 23.125 18.75H6.87498C6.52998 18.75 6.24996 18.47 6.24996 18.125V10.625C6.24996 9.59123 5.40873 8.75 4.37496 8.75H1.875C0.84123 8.75 0 9.59123 0 10.625V23.125C0 24.1587 0.84123 25 1.875 25H2.50002V26.875C2.50002 27.22 2.78004 27.5 3.12504 27.5H8.12502C8.47002 27.5 8.75004 27.22 8.75004 26.875V25H21.25V26.875C21.25 27.22 21.53 27.5 21.875 27.5H26.875C27.22 27.5 27.5 27.22 27.5 26.875V25H28.125C29.1588 25 30 24.1587 30 23.125V10.625C30 9.59129 29.1588 8.75 28.125 8.75Z" fill="white"/>
</svg>
