<svg width="96" height="91" viewBox="0 0 96 91" fill="none" xmlns="http://www.w3.org/2000/svg">
<path d="M12.09 4.242C12.09 4.48467 11.9687 4.606 11.726 4.606C11.6047 4.606 11.544 4.53667 11.544 4.398C11.544 4.346 11.5787 4.27667 11.648 4.19C11.7347 4.086 11.804 4.034 11.856 4.034C12.012 4.034 12.09 4.10333 12.09 4.242ZM15.08 9.26C14.976 9.03467 14.924 8.95667 14.924 9.026C14.924 9.13 14.976 9.026 15.08 8.714V9.26ZM6.214 4.476V4.528L6.058 4.45V4.398L6.214 4.476ZM15.08 14.486C14.9587 14.226 14.898 14.0613 14.898 13.992C14.898 13.8187 14.9587 13.7233 15.08 13.706V14.486ZM12.064 13.134C11.9947 13.1513 11.9513 13.186 11.934 13.238C11.8647 13.238 11.8127 13.1947 11.778 13.108C11.7433 13.108 11.7087 13.1253 11.674 13.16C11.6393 13.1947 11.6133 13.2207 11.596 13.238C11.5613 13.2033 11.544 13.1687 11.544 13.134C11.544 13.03 11.6913 12.9173 11.986 12.796C12.0033 12.8133 12.0293 12.822 12.064 12.822V13.134ZM14.326 17.762H14.196V17.71H14.326V17.762ZM14.196 17.788L14.092 17.814V17.788L14.17 17.736L14.196 17.788ZM14.378 17.138C13.962 17.2593 13.3727 17.424 12.61 17.632C12.558 17.6667 12.4627 17.71 12.324 17.762C12.064 17.866 11.8733 17.918 11.752 17.918C11.648 17.918 11.5787 17.9353 11.544 17.97C11.6307 18.022 11.8733 17.9873 12.272 17.866H12.48C12.3933 17.8833 12.0293 17.9787 11.388 18.152C11.388 18.204 11.414 18.23 11.466 18.23C11.4833 18.23 11.544 18.2127 11.648 18.178C11.7693 18.1433 11.8473 18.126 11.882 18.126C11.8993 18.126 11.9167 18.1347 11.934 18.152C11.9513 18.152 11.9773 18.152 12.012 18.152C12.0467 18.152 12.2807 18.1173 12.714 18.048C13.1473 17.9613 13.3813 17.918 13.416 17.918C13.4333 17.918 13.494 17.9353 13.598 17.97C13.702 17.9873 13.7627 17.996 13.78 17.996C13.8147 17.996 13.8667 17.97 13.936 17.918C14.0053 17.866 14.0487 17.84 14.066 17.84C14.0313 17.84 14.0573 17.8747 14.144 17.944C14.1613 17.9613 14.1873 17.9613 14.222 17.944C13.7713 18.0653 13.0693 18.2473 12.116 18.49C12.0813 18.5073 12.038 18.5333 11.986 18.568C11.8127 18.5853 11.6913 18.6113 11.622 18.646C11.466 18.698 11.3707 18.7847 11.336 18.906C11.0587 18.958 10.634 19.036 10.062 19.14C10.114 20.3707 10.166 21.2373 10.218 21.74C10.2353 21.844 10.2613 22.1647 10.296 22.702C10.2787 22.7713 10.2613 22.8667 10.244 22.988C10.2613 23.0053 10.2787 23.0487 10.296 23.118C10.3307 23.1873 10.374 23.3433 10.426 23.586C10.3393 23.6207 10.2267 23.69 10.088 23.794C10.1053 23.8633 10.0793 23.9587 10.01 24.08C9.94067 24.2187 9.86267 24.288 9.776 24.288C9.74133 24.288 9.62 24.2013 9.412 24.028C9.42933 24.2187 9.52467 24.522 9.698 24.938V25.068C9.438 25.1373 9.32533 25.172 9.36 25.172C9.23867 25.172 9.178 25.1113 9.178 24.99C9.178 24.9207 9.18667 24.834 9.204 24.73C9.204 24.6087 9.204 24.522 9.204 24.47C9.204 24.4527 9.18667 24.444 9.152 24.444C9.11733 24.444 9.074 24.4613 9.022 24.496C8.97 24.5307 8.93533 24.548 8.918 24.548C8.918 24.548 8.88333 24.5567 8.814 24.574C8.814 24.522 8.80533 24.444 8.788 24.34C8.77067 24.3053 8.70133 24.21 8.58 24.054C8.56267 24.0193 8.54533 23.9673 8.528 23.898C8.58 23.898 8.64067 23.8807 8.71 23.846C8.69267 23.794 8.67533 23.7507 8.658 23.716C8.606 23.768 8.58 23.82 8.58 23.872C8.51067 23.8027 8.46733 23.768 8.45 23.768C8.41533 23.768 8.38067 23.768 8.346 23.768C8.32867 23.7853 8.30267 23.794 8.268 23.794C8.25067 23.794 8.164 23.7593 8.008 23.69C8.02533 23.6207 8.06 23.5687 8.112 23.534C8.09467 23.5167 8.06867 23.482 8.034 23.43C7.99933 23.378 7.97333 23.3433 7.956 23.326C7.92133 23.3607 7.904 23.4473 7.904 23.586C7.78267 23.586 7.722 23.534 7.722 23.43C7.70467 23.118 7.65267 22.4853 7.566 21.532C7.49667 20.752 7.462 20.128 7.462 19.66C7.42733 19.6253 7.37533 19.608 7.306 19.608C7.08067 19.608 6.27467 19.8507 4.888 20.336C4.784 20.2147 4.74067 20.154 4.758 20.154C4.48067 20.154 4.28133 20.2233 4.16 20.362C4.03867 20.4833 3.94333 20.752 3.874 21.168C3.78733 21.3933 3.68333 21.714 3.562 22.13C3.562 22.2167 3.55333 22.3293 3.536 22.468C3.39733 23.1267 3.15467 23.612 2.808 23.924H2.704L2.6 23.846C2.79067 23.6727 2.886 23.4647 2.886 23.222C2.886 23.1353 2.86 23.066 2.808 23.014C2.72133 23.2393 2.58267 23.612 2.392 24.132C2.37467 24.2187 2.314 24.3227 2.21 24.444C2.17533 24.4267 2.14067 24.4007 2.106 24.366C2.106 23.898 2.12333 23.7247 2.158 23.846C2.106 23.794 2.04533 23.7073 1.976 23.586C1.99333 23.638 2.002 23.5253 2.002 23.248L1.95 23.17C1.86333 23.3087 1.73333 23.508 1.56 23.768C1.43867 23.768 1.378 23.7073 1.378 23.586C1.378 23.5687 1.39533 23.508 1.43 23.404C1.482 23.3173 1.508 23.2653 1.508 23.248C1.64667 23.1093 1.716 22.9707 1.716 22.832C1.716 22.7453 1.64667 22.702 1.508 22.702C1.52533 22.702 1.456 22.754 1.3 22.858C1.248 22.8753 1.18733 22.91 1.118 22.962C1.03133 23.1873 0.884 23.5253 0.676 23.976L0.598 24.002C0.563333 23.9153 0.546 23.872 0.546 23.872C0.546 23.7853 0.65 23.4907 0.858 22.988C0.840667 22.9707 0.832 22.936 0.832 22.884C0.849333 22.7453 0.823333 22.5547 0.754 22.312C0.788667 22.312 0.814667 22.3293 0.832 22.364L0.962 22.234L0.91 22.182C0.858 22.1993 0.823333 22.234 0.806 22.286C0.771333 22.234 0.736667 22.208 0.702 22.208V22.026C0.702 22.182 0.858 21.7053 1.17 20.596C1.17 20.5787 1.15267 20.57 1.118 20.57C1.10067 20.622 1.066 20.7 1.014 20.804C0.91 21.116 0.788667 21.506 0.65 21.974C0.615333 21.9913 0.563333 22.026 0.494 22.078L1.378 19.166C1.482 18.9233 1.638 18.5507 1.846 18.048C1.82867 18.1173 1.846 18.2127 1.898 18.334C1.81133 18.4207 1.77667 18.4553 1.794 18.438C1.794 18.4033 1.77667 18.386 1.742 18.386C1.72467 18.438 1.70733 18.4987 1.69 18.568C1.67267 18.62 1.638 18.7327 1.586 18.906C1.60333 18.906 1.62067 18.906 1.638 18.906C1.742 18.906 1.82 18.7847 1.872 18.542C1.90667 18.438 1.96733 18.2907 2.054 18.1V18.022C2.03667 18.022 2.01067 18.0307 1.976 18.048C1.94133 18.0653 1.91533 18.074 1.898 18.074C1.93267 18.0567 1.96733 18.022 2.002 17.97C2.002 17.9353 2.002 17.9007 2.002 17.866L2.054 17.814L2.106 17.892C2.12333 17.84 2.158 17.7707 2.21 17.684C2.19267 17.6493 2.158 17.6233 2.106 17.606C2.14067 17.5887 2.17533 17.5973 2.21 17.632C2.24467 17.476 2.262 17.3893 2.262 17.372C2.22733 17.3893 2.20133 17.4153 2.184 17.45C2.184 17.4327 2.184 17.398 2.184 17.346C2.20133 17.294 2.21 17.2593 2.21 17.242C2.24467 17.242 2.27933 17.2593 2.314 17.294C2.418 17.086 2.418 16.982 2.314 16.982C2.38333 16.722 2.522 16.41 2.73 16.046C2.81667 15.9593 2.964 15.5867 3.172 14.928C3.224 14.72 3.44067 14.174 3.822 13.29C3.874 13.2727 3.91733 13.238 3.952 13.186C3.98667 12.9087 4.004 12.8047 4.004 12.874C4.03867 12.822 4.09067 12.7353 4.16 12.614C4.09067 12.458 4.134 12.3627 4.29 12.328C4.29 12.328 4.27267 12.2933 4.238 12.224C4.32467 12.0507 4.446 11.8427 4.602 11.6C4.602 11.5653 4.58467 11.548 4.55 11.548C4.55 11.5307 4.61067 11.444 4.732 11.288C4.732 11.236 4.74067 11.158 4.758 11.054C5.434 9.68467 5.772 8.99133 5.772 8.974C5.772 8.88733 5.772 8.844 5.772 8.844L4.758 10.95C4.77533 10.8113 4.77533 10.7247 4.758 10.69L3.562 13.42C3.80467 12.744 4.22933 11.7127 4.836 10.326C5.16533 9.66733 6.02333 8.09 7.41 5.594C7.49667 5.35133 7.63533 5.00467 7.826 4.554C8.22467 3.73933 8.56267 3.14133 8.84 2.76C8.87467 2.77733 8.90933 2.786 8.944 2.786V2.916C8.736 3.14133 8.502 3.52267 8.242 4.06V4.112C8.36333 4.02533 8.41533 3.982 8.398 3.982C8.43267 3.982 8.44133 3.99067 8.424 4.008C8.424 4.02533 8.44133 4.034 8.476 4.034C8.476 4.034 8.53667 3.92133 8.658 3.696C8.95267 3.644 9.048 3.618 8.944 3.618C8.97867 3.618 8.996 3.62667 8.996 3.644C8.97867 3.644 8.98733 3.644 9.022 3.644C9.09133 3.644 9.14333 3.592 9.178 3.488C9.178 3.50533 9.204 3.514 9.256 3.514C9.29067 3.514 9.31667 3.50533 9.334 3.488C9.35133 3.45333 9.36867 3.436 9.386 3.436C9.40333 3.436 9.44667 3.42733 9.516 3.41C9.60267 3.39267 9.65467 3.384 9.672 3.384C9.75867 3.384 9.81933 3.436 9.854 3.54C9.94067 3.47067 10.0013 3.384 10.036 3.28C10.1573 2.74267 10.3393 2.474 10.582 2.474C10.7553 2.474 10.842 2.56067 10.842 2.734C10.842 2.80333 10.6947 2.994 10.4 3.306C10.3653 3.358 10.2873 3.47067 10.166 3.644C10.1833 3.66133 10.2267 3.66133 10.296 3.644C10.3307 3.748 10.3393 3.86067 10.322 3.982C10.3567 3.96467 10.374 3.982 10.374 4.034C10.374 4.06867 10.3393 4.12067 10.27 4.19C10.2007 4.25933 10.166 4.30267 10.166 4.32C10.166 4.372 10.1747 4.398 10.192 4.398C10.296 4.32867 10.4 4.20733 10.504 4.034C10.608 3.982 10.712 3.91267 10.816 3.826C10.8507 3.86067 10.868 3.89533 10.868 3.93C10.868 3.878 10.738 4.06 10.478 4.476C10.5647 4.51067 10.686 4.51067 10.842 4.476C10.8767 4.51067 10.894 4.57133 10.894 4.658C10.9633 4.72733 11.0413 4.762 11.128 4.762V4.866C11.128 4.83133 10.998 5.03933 10.738 5.49C10.8073 5.71533 10.79 5.92333 10.686 6.114C10.7033 6.114 10.7293 6.114 10.764 6.114C10.8507 6.114 10.894 6.062 10.894 5.958C10.894 5.83667 10.92 5.776 10.972 5.776C11.0067 5.776 11.024 5.79333 11.024 5.828C11.024 5.84533 11.0413 5.854 11.076 5.854C11.0413 5.854 11.0673 5.84533 11.154 5.828C11.2753 6.036 11.3187 6.20933 11.284 6.348C11.232 6.38267 11.206 6.41733 11.206 6.452C11.206 6.46933 11.2233 6.51267 11.258 6.582C11.31 6.634 11.336 6.66867 11.336 6.686C11.3187 6.61667 11.31 6.72933 11.31 7.024C11.31 7.19733 11.3707 7.284 11.492 7.284C11.5613 7.284 11.6047 7.29267 11.622 7.31C11.5353 7.44867 11.492 7.56133 11.492 7.648C11.4747 8.116 11.4227 8.52333 11.336 8.87C11.3187 8.90467 11.2753 9.12133 11.206 9.52C11.154 9.572 11.1193 9.64133 11.102 9.728C11.0847 9.81467 11.05 9.962 10.998 10.17C10.9633 10.3607 10.946 10.5167 10.946 10.638C10.998 10.5167 11.0847 10.352 11.206 10.144C11.0673 10.7507 10.946 11.3487 10.842 11.938C10.79 12.0767 10.7293 12.302 10.66 12.614C10.6773 12.7007 10.6773 12.8393 10.66 13.03C10.5907 13.3593 10.504 13.862 10.4 14.538C10.4 14.538 10.3913 14.5207 10.374 14.486C10.374 14.5553 10.374 14.6593 10.374 14.798C10.374 14.7633 10.3653 14.7373 10.348 14.72C10.348 14.72 10.348 14.9367 10.348 15.37C10.3133 15.37 10.2873 15.3613 10.27 15.344C10.2353 15.4307 10.2527 15.5 10.322 15.552C10.322 15.6213 10.27 15.6993 10.166 15.786C10.166 16.15 10.1833 16.4187 10.218 16.592C10.218 16.592 10.3913 16.5833 10.738 16.566C10.582 16.566 10.3913 16.618 10.166 16.722C10.1833 16.7567 10.2353 16.774 10.322 16.774L13.208 16.332L13.286 16.41C13.3033 16.3927 13.3293 16.384 13.364 16.384C13.2253 16.436 13.208 16.5227 13.312 16.644C13.2427 16.644 13.1127 16.6787 12.922 16.748C12.7487 16.8 12.6447 16.826 12.61 16.826C12.5927 16.826 12.5667 16.8173 12.532 16.8C12.5147 16.7827 12.4887 16.774 12.454 16.774C12.5407 16.774 12.194 16.852 11.414 17.008C11.3967 17.0427 11.4053 17.06 11.44 17.06C11.4747 17.06 11.57 17.0427 11.726 17.008C11.8993 16.9733 12.0033 16.956 12.038 16.956C12.0553 16.956 12.116 16.9647 12.22 16.982C12.324 16.9993 12.402 17.008 12.454 17.008C12.246 17.008 11.9687 17.0687 11.622 17.19C11.6393 17.19 11.6567 17.1987 11.674 17.216C11.7087 17.216 11.7347 17.2247 11.752 17.242L14.144 16.748C14.1787 16.748 14.222 16.7567 14.274 16.774C14.1873 16.8087 14.0573 16.878 13.884 16.982C13.884 17.034 13.9187 17.06 13.988 17.06C14.0053 17.06 14.0313 17.0513 14.066 17.034C14.0833 17.034 14.1093 17.034 14.144 17.034C14.1267 17.034 14.2047 17.0687 14.378 17.138ZM2.34 17.086L2.314 17.164L2.262 17.138L2.288 17.06L2.34 17.086ZM8.034 4.554L7.982 4.554L7.904 4.736L7.956 4.762L8.034 4.554ZM7.878 4.814H7.826L7.8 4.944L7.852 4.97L7.878 4.814ZM10.842 11.08V10.976H10.79V11.08H10.842ZM10.738 11.548V11.418H10.686V11.548H10.738ZM6.344 7.752L6.292 7.726L6.24 7.83L6.292 7.856L6.344 7.752ZM6.266 7.934V7.856H6.214V7.934H6.266ZM6.24 7.96H6.188L6.136 8.064L6.188 8.09L6.24 7.96ZM6.136 8.194H6.084L5.928 8.454H5.98L6.136 8.194ZM5.954 8.506H5.902L5.772 8.818L5.824 8.844L5.954 8.506ZM10.712 11.6C10.6773 11.7733 10.582 11.9727 10.426 12.198C10.4607 12.2327 10.4867 12.2673 10.504 12.302C10.348 13.03 10.2093 13.7147 10.088 14.356C9.932 14.4947 9.854 14.7807 9.854 15.214C9.854 15.1967 9.87133 15.1707 9.906 15.136C9.94067 15.2227 9.958 15.3353 9.958 15.474C9.958 15.5607 9.94067 15.708 9.906 15.916C9.88867 16.1067 9.88 16.2453 9.88 16.332C9.88 16.436 9.89733 16.5313 9.932 16.618C10.1227 14.746 10.3827 13.0733 10.712 11.6ZM10.322 15.084V14.928H10.27V15.084H10.322ZM5.07 10.222V10.118H5.018V10.222H5.07ZM4.966 10.352H4.914L4.758 10.638L4.81 10.664L4.966 10.352ZM11.414 17.216C11.3967 17.1813 11.3533 17.164 11.284 17.164L11.206 17.268L11.414 17.216ZM8.502 9.156C8.346 9.416 8.164 9.84067 7.956 10.43C7.93867 10.3953 7.91267 10.3693 7.878 10.352L6.448 13.472L6.396 13.446L5.148 16.618C5.52933 16.5313 5.89333 16.488 6.24 16.488C6.25733 16.488 6.28333 16.4793 6.318 16.462C6.37 16.4273 6.41333 16.41 6.448 16.41C6.56933 16.41 6.64733 16.4187 6.682 16.436C6.682 16.5227 6.63 16.566 6.526 16.566C6.49133 16.566 6.474 16.566 6.474 16.566C6.49133 16.5487 6.48267 16.54 6.448 16.54C6.37867 16.54 6.136 16.618 5.72 16.774C5.32133 16.93 5.07867 17.034 4.992 17.086C4.97467 17.1727 4.94 17.3113 4.888 17.502C5.13067 17.4673 5.434 17.424 5.798 17.372C6.162 17.3027 6.69933 17.1987 7.41 17.06C7.44467 16.5747 7.488 15.8727 7.54 14.954C7.66133 14.7633 7.68733 14.5207 7.618 14.226C7.63533 14.174 7.66133 14.1133 7.696 14.044L8.164 10.742C8.19867 10.586 8.27667 10.3 8.398 9.884C8.43267 9.71067 8.46733 9.468 8.502 9.156ZM8.216 13.706C8.14667 13.6367 8.112 13.6453 8.112 13.732C8.112 13.9053 8.112 14.018 8.112 14.07C8.09467 14.1047 8.06867 14.148 8.034 14.2C8.01667 14.2347 8.008 14.2607 8.008 14.278C8.008 14.278 7.99933 14.512 7.982 14.98C7.96467 15.4307 7.956 15.7687 7.956 15.994L8.216 13.706ZM9.542 16.644V16.54H9.464V16.644H9.542ZM11.31 18.75L11.18 18.698V18.75L11.284 18.802L11.31 18.75ZM9.672 20.076V19.218H9.62V20.076H9.672ZM9.49 19.946C9.47267 19.9113 9.45533 19.8853 9.438 19.868C9.438 19.8507 9.438 19.8333 9.438 19.816L9.386 19.972C9.42067 19.972 9.45533 19.9633 9.49 19.946ZM9.958 22.208C9.97533 21.6707 9.96667 21.3413 9.932 21.22H9.88C9.86267 21.7747 9.86267 22.0953 9.88 22.182L9.958 22.208ZM9.776 22.312V21.922H9.724V22.312H9.776ZM2.912 15.942L2.86 15.916L2.808 16.02H2.86L2.912 15.942ZM9.906 23.248H9.854L9.828 23.378H9.88L9.906 23.248ZM2.106 17.97V17.892H2.054V17.97H2.106ZM7.956 10.794H7.904V10.612H7.956V10.794ZM9.984 15.032H9.932V14.928H9.984V15.032ZM7.566 12.692H7.514V12.588H7.566V12.692ZM7.046 16.54C6.97667 16.54 6.92467 16.54 6.89 16.54C6.85533 16.5053 6.85533 16.462 6.89 16.41C6.95933 16.4273 7.01133 16.4447 7.046 16.462V16.54ZM27.5381 21.48H27.3301C27.3127 21.4627 27.3041 21.4453 27.3041 21.428C27.3214 21.4107 27.3127 21.402 27.2781 21.402C27.1741 21.402 27.1307 21.4107 27.1481 21.428C27.2347 21.376 27.3647 21.3933 27.5381 21.48ZM32.3481 17.45C32.2441 17.5367 32.1401 17.606 32.0361 17.658L31.7241 17.606C31.7414 17.5713 31.8107 17.4847 31.9321 17.346C32.0014 17.2767 32.0707 17.242 32.1401 17.242H32.2961L32.3481 17.294V17.45ZM17.5541 2.994C17.5541 3.06333 17.5107 3.14133 17.4241 3.228C17.3894 3.228 17.3374 3.202 17.2681 3.15C17.1987 3.098 17.1294 3.072 17.0601 3.072C17.0601 2.93333 17.1207 2.864 17.2421 2.864C17.2247 2.864 17.3114 2.864 17.5021 2.864C17.5367 2.88133 17.5541 2.92467 17.5541 2.994ZM32.0361 19.608C31.9841 19.66 31.9321 19.686 31.8801 19.686C31.8107 19.634 31.7761 19.5907 31.7761 19.556C31.7761 19.4693 31.8107 19.426 31.8801 19.426C31.9494 19.4607 32.0014 19.5213 32.0361 19.608ZM16.3841 5.282C16.3667 5.29933 16.3581 5.34267 16.3581 5.412C16.1154 5.412 16.0114 5.40333 16.0461 5.386C16.1327 5.36867 16.2454 5.334 16.3841 5.282ZM15.3701 4.632C15.3701 4.66667 15.3441 4.72733 15.2921 4.814C15.2574 4.88333 15.2401 4.93533 15.2401 4.97H15.0841C15.0494 4.97 15.0234 4.95267 15.0061 4.918C14.9887 4.88333 14.9627 4.866 14.9281 4.866C14.8934 4.866 14.8761 4.866 14.8761 4.866C14.8587 4.88333 14.8327 4.892 14.7981 4.892C14.6941 4.892 14.6074 4.814 14.5381 4.658C14.5381 4.346 14.6594 4.19 14.9021 4.19C14.9887 4.19 15.0841 4.242 15.1881 4.346C15.3094 4.45 15.3701 4.54533 15.3701 4.632ZM32.2441 18.334C32.2267 18.3687 32.1921 18.412 32.1401 18.464C32.0881 18.516 32.0101 18.594 31.9061 18.698C31.9754 18.7847 32.0621 18.8193 32.1661 18.802C32.1487 18.8713 32.1054 18.9147 32.0361 18.932C31.9667 18.932 31.9061 18.9407 31.8541 18.958C31.7847 19.0793 31.6894 19.1573 31.5681 19.192C31.3774 19.2613 31.2647 19.3133 31.2301 19.348C31.3167 19.4347 31.3861 19.478 31.4381 19.478C31.4727 19.478 31.4987 19.4693 31.5161 19.452C31.5507 19.4347 31.5767 19.426 31.5941 19.426C31.6287 19.478 31.6461 19.5127 31.6461 19.53C31.5074 19.5473 31.3254 19.6253 31.1001 19.764C30.7534 19.712 30.3461 19.8247 29.8781 20.102V20.258C29.9301 20.31 29.9647 20.336 29.9821 20.336C29.9994 20.336 30.0341 20.31 30.0861 20.258C30.1034 20.2753 30.1467 20.3187 30.2161 20.388C30.2334 20.3707 30.2507 20.3273 30.2681 20.258C30.5281 20.206 30.6061 20.18 30.5021 20.18H30.7881C30.8054 20.232 30.8141 20.31 30.8141 20.414C30.8141 20.674 30.6754 20.804 30.3981 20.804C30.3634 20.804 30.2854 20.778 30.1641 20.726C30.0601 20.674 29.9907 20.648 29.9561 20.648C29.8521 20.648 29.5661 20.7347 29.0981 20.908C29.0981 20.9427 29.0981 21.0033 29.0981 21.09C28.8381 21.2287 28.6734 21.298 28.6041 21.298C28.5867 21.298 28.5261 21.298 28.4221 21.298C28.3354 21.2807 28.2661 21.272 28.2141 21.272C28.1101 21.272 27.9454 21.2807 27.7201 21.298C27.5121 21.3153 27.3994 21.324 27.3821 21.324H26.9141C26.9661 21.3587 27.0267 21.376 27.0961 21.376C27.0614 21.376 27.0094 21.376 26.9401 21.376C26.8881 21.376 26.8447 21.376 26.8101 21.376C26.7407 21.376 26.6887 21.3933 26.6541 21.428C26.8274 21.5147 27.3821 21.558 28.3181 21.558C28.7687 21.558 29.0634 21.506 29.2021 21.402L29.4361 21.454C29.1067 21.558 28.8207 21.6273 28.5781 21.662C28.2314 21.662 27.7114 21.6793 27.0181 21.714C27.0181 21.7487 26.9921 21.766 26.9401 21.766C26.9054 21.766 26.8881 21.7573 26.8881 21.74C26.8881 21.7053 26.8707 21.688 26.8361 21.688C26.8014 21.688 26.7841 21.7053 26.7841 21.74C26.8014 21.7573 26.7927 21.766 26.7581 21.766C26.7234 21.766 26.6974 21.7573 26.6801 21.74C26.6801 21.7053 26.6801 21.688 26.6801 21.688C26.4027 21.636 26.0387 21.5233 25.5881 21.35C25.2414 21.1073 25.0074 20.986 24.8861 20.986C24.8514 20.986 24.8341 20.9947 24.8341 21.012C24.8514 21.0293 24.8427 21.038 24.8081 21.038C24.7907 21.038 24.7821 21.0293 24.7821 21.012C24.7821 20.9947 24.7647 20.986 24.7301 20.986C24.6434 20.986 24.2447 20.7433 23.5341 20.258C22.5634 19.582 21.8181 18.7067 21.2981 17.632C21.2114 17.528 21.0987 17.372 20.9601 17.164C20.8387 16.956 20.4401 16.202 19.7641 14.902C19.7121 14.954 19.6774 14.98 19.6601 14.98C19.6254 14.98 19.6081 14.9713 19.6081 14.954C19.6081 14.9367 19.5907 14.928 19.5561 14.928C19.3307 14.928 19.2094 15.084 19.1921 15.396C19.1747 15.6213 19.1661 15.8467 19.1661 16.072C19.1487 16.072 19.1141 16.0893 19.0621 16.124C19.0621 16.1587 19.0881 16.202 19.1401 16.254C19.1054 16.2887 19.0447 16.3493 18.9581 16.436C18.9581 16.54 18.9407 16.7133 18.9061 16.956C18.8887 17.1987 18.8801 17.3807 18.8801 17.502C18.8281 17.4847 18.7674 17.4933 18.6981 17.528C18.6981 17.58 18.7587 17.632 18.8801 17.684V17.892C18.8454 17.944 18.7847 17.9527 18.6981 17.918L18.6721 17.944V18.048C18.7241 18.0827 18.7847 18.1 18.8541 18.1C18.8887 18.2213 18.8627 18.3773 18.7761 18.568C18.8454 18.5853 18.8887 18.646 18.9061 18.75C18.9061 18.906 18.9234 19.0187 18.9581 19.088C18.9234 19.1227 18.8627 19.1747 18.7761 19.244C18.7761 19.4 18.8107 19.4953 18.8801 19.53C18.8627 19.5127 18.8367 19.5473 18.8021 19.634C18.8021 19.6513 18.8107 19.6773 18.8281 19.712C18.7761 19.7813 18.7501 19.8767 18.7501 19.998C18.6807 22.2513 18.6461 23.274 18.6461 23.066C18.6287 22.7887 18.5941 22.39 18.5421 21.87C18.5941 21.714 18.6201 21.5407 18.6201 21.35V21.194C18.6027 21.1767 18.5767 21.168 18.5421 21.168C18.5247 21.1853 18.5421 21.22 18.5941 21.272C18.5594 21.2893 18.4901 21.298 18.3861 21.298C18.3861 21.4887 18.3774 21.792 18.3601 22.208C18.3427 22.3293 18.3081 22.4507 18.2561 22.572C18.2041 22.6933 18.1954 22.806 18.2301 22.91C18.1954 23.0833 18.1347 23.352 18.0481 23.716C18.0481 23.508 18.0134 23.3607 17.9441 23.274C17.9441 23.274 17.9527 23.248 17.9701 23.196C17.9181 23.1267 17.8921 23.0573 17.8921 22.988L17.7101 19.01C17.6581 18.958 17.6234 18.932 17.6061 18.932L17.5021 23.43H17.3721C17.3894 23.4127 17.3981 23.378 17.3981 23.326C17.3981 23.43 17.3374 23.3173 17.2161 22.988C17.2161 22.8493 17.2074 22.7193 17.1901 22.598C17.1554 22.3727 17.0514 22.2427 16.8781 22.208V21.948C16.8434 21.896 16.8174 21.87 16.8001 21.87C16.7654 21.974 16.7567 22.078 16.7741 22.182C16.6354 22.39 16.6441 22.6067 16.8001 22.832V23.482C16.7654 23.3433 16.6874 23.196 16.5661 23.04C16.4621 23.0747 16.4101 23.1527 16.4101 23.274C16.4274 23.4993 16.4361 23.638 16.4361 23.69C16.4187 23.69 16.3841 23.6987 16.3321 23.716C16.2974 23.7333 16.2714 23.742 16.2541 23.742C16.2541 23.6727 16.2194 23.56 16.1501 23.404L15.9421 20.544C15.9074 20.492 15.8814 20.466 15.8641 20.466C15.8294 20.6393 15.8121 20.778 15.8121 20.882V22.104C15.8121 22.4853 15.8034 22.7107 15.7861 22.78C15.7861 22.7107 15.7514 22.6153 15.6821 22.494C15.6994 22.3207 15.6907 22.1647 15.6561 22.026C15.6561 21.974 15.6301 21.922 15.5781 21.87C15.5781 21.4887 15.5521 20.804 15.5001 19.816C15.4481 18.828 15.4221 18.3427 15.4221 18.36L15.5521 15.838H15.6301L15.8121 13.238C15.8121 13.2207 15.8294 13.1253 15.8641 12.952C15.8987 12.7787 15.9247 12.666 15.9421 12.614C15.9594 12.2327 16.0114 11.6693 16.0981 10.924C16.1327 10.872 16.1674 10.8027 16.2021 10.716C16.1847 10.6813 16.1761 10.6293 16.1761 10.56C16.1934 10.5427 16.2107 10.5167 16.2281 10.482C16.2801 10.1353 16.3581 9.66733 16.4621 9.078C16.5834 8.47133 16.7221 7.91667 16.8781 7.414C16.5487 7.39667 16.2887 7.43133 16.0981 7.518C15.9767 7.60467 15.7514 7.76933 15.4221 8.012C15.3874 8.012 15.3267 8.02933 15.2401 8.064C15.2227 8.064 15.2054 8.09867 15.1881 8.168C15.1014 8.272 15.0061 8.324 14.9021 8.324C14.9541 8.324 14.8674 8.272 14.6421 8.168V7.882C14.6421 7.726 14.8587 7.56133 15.2921 7.388C15.3094 7.388 15.3267 7.39667 15.3441 7.414C15.3614 7.414 15.3874 7.414 15.4221 7.414C15.4394 7.414 15.4741 7.39667 15.5261 7.362C15.5781 7.31 15.6214 7.284 15.6561 7.284C15.6907 7.284 15.6994 7.284 15.6821 7.284C15.6821 7.30133 15.6994 7.31 15.7341 7.31C15.8034 7.31 15.8987 7.26667 16.0201 7.18C15.9334 7.128 15.7687 7.06733 15.5261 6.998C15.4914 6.96333 15.4481 6.91133 15.3961 6.842C15.5521 6.80733 15.7774 6.738 16.0721 6.634C16.0374 6.582 15.7774 6.478 15.2921 6.322C15.5694 6.35667 15.9854 6.218 16.5401 5.906C16.5921 5.87133 16.5921 5.854 16.5401 5.854C16.4707 5.854 16.2801 5.91467 15.9681 6.036H15.8381C15.8207 5.96667 15.8121 5.92333 15.8121 5.906C15.9854 5.78467 16.3321 5.62 16.8521 5.412C17.3027 5.256 17.6234 5.06533 17.8141 4.84C17.6927 4.80533 17.5367 4.84 17.3461 4.944C17.0687 5.1 16.9127 5.178 16.8781 5.178H16.7221V5.074C16.7394 5.074 16.8001 5.03933 16.9041 4.97C16.9041 4.95267 16.9127 4.918 16.9301 4.866C17.3807 4.606 17.7361 4.424 17.9961 4.32C18.1174 4.30267 18.2474 4.216 18.3861 4.06C18.5421 4.02533 18.7154 3.982 18.9061 3.93C19.0967 3.86067 19.2354 3.70467 19.3221 3.462C19.3221 3.47933 19.3134 3.52267 19.2961 3.592C19.2961 3.66133 19.2961 3.722 19.2961 3.774C19.4174 3.73933 19.7554 3.66133 20.3101 3.54C20.3967 3.54 20.5094 3.52267 20.6481 3.488C20.8041 3.436 21.1334 3.41 21.6361 3.41C21.7401 3.41 21.8787 3.42733 22.0521 3.462C22.2427 3.49667 22.7194 3.60933 23.4821 3.8C23.8807 3.904 24.0627 3.956 24.0281 3.956C24.0454 3.956 24.0541 3.956 24.0541 3.956C24.0541 3.93867 24.0627 3.93 24.0801 3.93C24.1494 3.93 24.3747 4.05133 24.7561 4.294C25.9347 5.00467 26.6714 6.00133 26.9661 7.284C27.0874 7.752 27.1481 8.09867 27.1481 8.324V9.39C27.1134 9.47667 27.0527 9.598 26.9661 9.754C26.7234 10.1353 26.6021 10.4127 26.6021 10.586C26.6714 10.5513 26.7321 10.4733 26.7841 10.352C26.8534 10.2307 26.9314 10.17 27.0181 10.17H27.1741V10.3C27.1741 10.3347 27.0527 10.534 26.8101 10.898C26.7061 11.0887 26.5414 11.3487 26.3161 11.678C25.2761 12.822 24.4527 13.5587 23.8461 13.888C23.9327 13.784 24.3401 13.368 25.0681 12.64C25.0507 12.64 25.0247 12.64 24.9901 12.64C24.9727 12.64 24.9207 12.6487 24.8341 12.666C24.5221 13.03 24.3054 13.212 24.1841 13.212C24.1494 13.212 24.1321 13.2033 24.1321 13.186C24.1321 13.1687 24.1147 13.16 24.0801 13.16C24.0281 13.16 23.9067 13.2553 23.7161 13.446C23.5254 13.6367 23.4301 13.7493 23.4301 13.784C23.4301 13.7493 23.4561 13.81 23.5081 13.966C23.8201 14.7807 24.1494 15.4047 24.4961 15.838C24.9294 16.358 25.3627 16.748 25.7961 17.008C25.8481 17.0427 26.3074 17.242 27.1741 17.606C27.1221 17.6407 27.0787 17.6753 27.0441 17.71C27.0267 17.6927 27.0094 17.684 26.9921 17.684C26.9747 17.7013 26.9574 17.7187 26.9401 17.736C26.9401 17.7533 26.9314 17.7707 26.9141 17.788C26.9661 17.84 27.0614 17.918 27.2001 18.022C27.5294 18.1433 27.7807 18.204 27.9541 18.204C27.9887 18.204 28.0927 18.2213 28.2661 18.256C28.4394 18.2733 28.5434 18.282 28.5781 18.282C28.6821 18.282 28.7947 18.2387 28.9161 18.152C28.8294 18.1173 28.7341 18.1 28.6301 18.1C28.5954 18.1 28.5434 18.1 28.4741 18.1C28.4047 18.1173 28.3527 18.126 28.3181 18.126C28.3007 18.126 28.2314 18.0913 28.1101 18.022C28.2834 18.022 28.3701 18.0307 28.3701 18.048C28.0927 17.9613 27.9714 17.918 28.0061 17.918C27.9541 17.918 27.9281 17.9527 27.9281 18.022C27.9281 18.022 27.8761 17.9873 27.7721 17.918C27.7201 17.918 27.6421 17.9093 27.5381 17.892C27.5034 17.8747 27.4601 17.8487 27.4081 17.814V17.684C27.4081 17.6667 27.4341 17.658 27.4861 17.658C27.5207 17.658 27.5381 17.6667 27.5381 17.684C27.5554 17.7013 27.5814 17.71 27.6161 17.71C27.6334 17.71 27.6334 17.7013 27.6161 17.684C27.6161 17.6667 27.6334 17.658 27.6681 17.658C27.6681 17.658 27.7114 17.6927 27.7981 17.762C27.9541 17.7793 28.0407 17.788 28.0581 17.788C28.0927 17.788 28.3874 17.8053 28.9421 17.84C29.4967 17.8573 29.7914 17.866 29.8261 17.866C29.7741 17.866 30.0947 17.8227 30.7881 17.736C30.8401 17.7187 30.8661 17.6927 30.8661 17.658H31.0221L31.1261 17.736C30.8661 17.8573 30.6927 17.9613 30.6061 18.048C30.6407 18.0827 30.6667 18.1 30.6841 18.1C30.8574 18.1 31.1087 18.048 31.4381 17.944C31.4381 17.996 31.4467 18.0567 31.4641 18.126L31.5421 18.048C31.5594 18.048 31.5767 18.074 31.5941 18.126C31.6114 18.1607 31.6374 18.178 31.6721 18.178C31.7067 18.178 31.7241 18.1693 31.7241 18.152C31.7414 18.1347 31.7587 18.126 31.7761 18.126C31.7934 18.126 31.8887 18.1433 32.0621 18.178C32.0794 18.1953 32.1401 18.2473 32.2441 18.334ZM15.2141 5.204L14.9541 5.308V5.256L15.1881 5.152L15.2141 5.204ZM15.5781 5.308C15.4914 5.36 15.3441 5.438 15.1361 5.542C14.9974 5.62867 14.8847 5.71533 14.7981 5.802C14.7287 5.88867 14.6507 5.932 14.5641 5.932C14.4774 5.932 14.4081 5.91467 14.3561 5.88V5.75C14.4254 5.68067 14.5381 5.57667 14.6941 5.438C14.7981 5.36867 14.8934 5.334 14.9801 5.334C15.0147 5.334 15.0321 5.34267 15.0321 5.36C15.0494 5.37733 15.0754 5.386 15.1101 5.386C15.1967 5.386 15.3354 5.32533 15.5261 5.204C15.5607 5.204 15.5781 5.23867 15.5781 5.308ZM29.4101 21.09H29.2021V21.012H29.4101V21.09ZM18.6201 21.116C18.6027 21.0467 18.5681 21.012 18.5161 21.012C18.5334 20.9947 18.5681 20.9773 18.6201 20.96V21.116ZM24.0541 8.974C24.0541 8.974 24.0107 8.766 23.9241 8.35C23.9241 8.36733 23.9154 8.39333 23.8981 8.428C23.8807 8.46267 23.8634 8.48867 23.8461 8.506C23.8461 8.36733 23.8201 8.18533 23.7681 7.96C23.7161 7.71733 23.5601 7.47467 23.3001 7.232C23.1961 7.128 23.0314 7.03267 22.8061 6.946C22.6674 6.894 22.4247 6.85067 22.0781 6.816C22.0087 6.79867 21.6881 6.79 21.1161 6.79C21.0814 6.79 21.0381 6.842 20.9861 6.946C20.9167 6.946 20.8214 6.96333 20.7001 6.998C20.7001 7.32733 20.7087 7.44 20.7261 7.336C20.7261 7.336 20.6654 7.52667 20.5441 7.908C20.5267 7.97733 20.4314 8.34133 20.2581 9C20.1541 9.39867 20.0674 9.806 19.9981 10.222C19.9461 10.326 19.9027 10.482 19.8681 10.69C19.8334 10.898 19.7987 11.1753 19.7641 11.522C19.7641 11.5567 19.7467 11.5913 19.7121 11.626C19.6774 11.6607 19.6601 11.6953 19.6601 11.73V11.886C19.6601 11.886 19.7381 11.9207 19.8941 11.99C19.8941 12.094 19.9114 12.1807 19.9461 12.25C20.0501 12.1633 20.1107 12.12 20.1281 12.12C20.1281 12.12 20.1541 12.1373 20.2061 12.172L20.3101 12.094C20.3101 11.99 20.3014 11.8513 20.2841 11.678C20.2494 11.6087 20.2321 11.574 20.2321 11.574C20.3014 11.5047 20.3447 11.47 20.3621 11.47C20.4141 11.47 20.4401 11.5307 20.4401 11.652C20.4401 11.6867 20.4227 11.7387 20.3881 11.808C20.3707 11.8773 20.3621 11.9293 20.3621 11.964C20.4487 11.7213 20.5701 11.6173 20.7261 11.652C20.8994 11.8773 21.0207 11.99 21.0901 11.99C21.1767 11.99 21.2374 11.9727 21.2721 11.938C21.2721 11.834 21.1941 11.7213 21.0381 11.6C20.8994 11.4613 20.8301 11.34 20.8301 11.236C20.8301 11.184 20.8301 11.1493 20.8301 11.132C20.9514 11.0453 21.0381 11.002 21.0901 11.002C21.1247 11.002 21.2721 11.132 21.5321 11.392C21.5494 11.3747 21.4887 11.366 21.3501 11.366V11.548C21.4021 11.6 21.4887 11.6693 21.6101 11.756C21.6447 11.6693 21.7401 11.626 21.8961 11.626C21.9134 11.574 21.9481 11.5133 22.0001 11.444C22.0174 11.444 22.0521 11.4353 22.1041 11.418C22.2774 11.2793 22.3987 11.184 22.4681 11.132C22.6761 10.9933 23.0141 10.69 23.4821 10.222C23.4647 10.2047 23.4561 10.1873 23.4561 10.17C23.8547 9.84067 24.0541 9.442 24.0541 8.974ZM24.2881 12.952L24.2361 12.926L24.1841 13.03H24.2361L24.2881 12.952ZM23.5601 13.238C23.5081 13.186 23.4561 13.16 23.4041 13.16C23.3174 13.2293 23.2741 13.2987 23.2741 13.368C23.2741 13.4373 23.2914 13.4893 23.3261 13.524C23.4301 13.42 23.5081 13.3247 23.5601 13.238ZM29.2801 20.18C29.2801 20.18 29.2627 20.1887 29.2281 20.206C29.1934 20.206 29.1674 20.206 29.1501 20.206C29.1501 20.2753 29.1847 20.31 29.2541 20.31C29.2714 20.2927 29.2801 20.2493 29.2801 20.18ZM19.4521 13.472V13.342H19.4001V13.472H19.4521ZM18.6461 20.83V20.44H18.5681V20.83H18.6461ZM21.4801 7.102H21.3501V7.05H21.4801V7.102ZM21.2981 7.024V7.076L21.1161 6.972L21.1421 6.92L21.2981 7.024ZM20.8301 11.496C20.7607 11.5133 20.6741 11.5567 20.5701 11.626C20.5181 11.574 20.4921 11.5133 20.4921 11.444C20.6134 11.4267 20.7261 11.444 20.8301 11.496ZM44.5498 21.48H44.3418C44.3244 21.4627 44.3158 21.4453 44.3158 21.428C44.3331 21.4107 44.3244 21.402 44.2898 21.402C44.1858 21.402 44.1424 21.4107 44.1598 21.428C44.2464 21.376 44.3764 21.3933 44.5498 21.48ZM49.3598 17.45C49.2558 17.5367 49.1518 17.606 49.0478 17.658L48.7358 17.606C48.7531 17.5713 48.8224 17.4847 48.9438 17.346C49.0131 17.2767 49.0824 17.242 49.1518 17.242H49.3078L49.3598 17.294V17.45ZM34.5658 2.994C34.5658 3.06333 34.5224 3.14133 34.4358 3.228C34.4011 3.228 34.3491 3.202 34.2798 3.15C34.2104 3.098 34.1411 3.072 34.0718 3.072C34.0718 2.93333 34.1324 2.864 34.2538 2.864C34.2364 2.864 34.3231 2.864 34.5138 2.864C34.5484 2.88133 34.5658 2.92467 34.5658 2.994ZM49.0478 19.608C48.9958 19.66 48.9438 19.686 48.8918 19.686C48.8224 19.634 48.7878 19.5907 48.7878 19.556C48.7878 19.4693 48.8224 19.426 48.8918 19.426C48.9611 19.4607 49.0131 19.5213 49.0478 19.608ZM33.3958 5.282C33.3784 5.29933 33.3698 5.34267 33.3698 5.412C33.1271 5.412 33.0231 5.40333 33.0578 5.386C33.1444 5.36867 33.2571 5.334 33.3958 5.282ZM32.3818 4.632C32.3818 4.66667 32.3558 4.72733 32.3038 4.814C32.2691 4.88333 32.2518 4.93533 32.2518 4.97H32.0958C32.0611 4.97 32.0351 4.95267 32.0178 4.918C32.0004 4.88333 31.9744 4.866 31.9398 4.866C31.9051 4.866 31.8878 4.866 31.8878 4.866C31.8704 4.88333 31.8444 4.892 31.8098 4.892C31.7058 4.892 31.6191 4.814 31.5498 4.658C31.5498 4.346 31.6711 4.19 31.9138 4.19C32.0004 4.19 32.0958 4.242 32.1998 4.346C32.3211 4.45 32.3818 4.54533 32.3818 4.632ZM49.2558 18.334C49.2384 18.3687 49.2038 18.412 49.1518 18.464C49.0998 18.516 49.0218 18.594 48.9178 18.698C48.9871 18.7847 49.0738 18.8193 49.1778 18.802C49.1604 18.8713 49.1171 18.9147 49.0478 18.932C48.9784 18.932 48.9178 18.9407 48.8658 18.958C48.7964 19.0793 48.7011 19.1573 48.5798 19.192C48.3891 19.2613 48.2764 19.3133 48.2418 19.348C48.3284 19.4347 48.3978 19.478 48.4498 19.478C48.4844 19.478 48.5104 19.4693 48.5278 19.452C48.5624 19.4347 48.5884 19.426 48.6058 19.426C48.6404 19.478 48.6578 19.5127 48.6578 19.53C48.5191 19.5473 48.3371 19.6253 48.1118 19.764C47.7651 19.712 47.3578 19.8247 46.8898 20.102V20.258C46.9418 20.31 46.9764 20.336 46.9938 20.336C47.0111 20.336 47.0458 20.31 47.0978 20.258C47.1151 20.2753 47.1584 20.3187 47.2278 20.388C47.2451 20.3707 47.2624 20.3273 47.2798 20.258C47.5398 20.206 47.6178 20.18 47.5138 20.18H47.7998C47.8171 20.232 47.8258 20.31 47.8258 20.414C47.8258 20.674 47.6871 20.804 47.4098 20.804C47.3751 20.804 47.2971 20.778 47.1758 20.726C47.0718 20.674 47.0024 20.648 46.9678 20.648C46.8638 20.648 46.5778 20.7347 46.1098 20.908C46.1098 20.9427 46.1098 21.0033 46.1098 21.09C45.8498 21.2287 45.6851 21.298 45.6158 21.298C45.5984 21.298 45.5378 21.298 45.4338 21.298C45.3471 21.2807 45.2778 21.272 45.2258 21.272C45.1218 21.272 44.9571 21.2807 44.7318 21.298C44.5238 21.3153 44.4111 21.324 44.3938 21.324H43.9258C43.9778 21.3587 44.0384 21.376 44.1078 21.376C44.0731 21.376 44.0211 21.376 43.9518 21.376C43.8998 21.376 43.8564 21.376 43.8218 21.376C43.7524 21.376 43.7004 21.3933 43.6658 21.428C43.8391 21.5147 44.3938 21.558 45.3298 21.558C45.7804 21.558 46.0751 21.506 46.2138 21.402L46.4478 21.454C46.1184 21.558 45.8324 21.6273 45.5898 21.662C45.2431 21.662 44.7231 21.6793 44.0298 21.714C44.0298 21.7487 44.0038 21.766 43.9518 21.766C43.9171 21.766 43.8998 21.7573 43.8998 21.74C43.8998 21.7053 43.8824 21.688 43.8478 21.688C43.8131 21.688 43.7958 21.7053 43.7958 21.74C43.8131 21.7573 43.8044 21.766 43.7698 21.766C43.7351 21.766 43.7091 21.7573 43.6918 21.74C43.6918 21.7053 43.6918 21.688 43.6918 21.688C43.4144 21.636 43.0504 21.5233 42.5998 21.35C42.2531 21.1073 42.0191 20.986 41.8978 20.986C41.8631 20.986 41.8458 20.9947 41.8458 21.012C41.8631 21.0293 41.8544 21.038 41.8198 21.038C41.8024 21.038 41.7938 21.0293 41.7938 21.012C41.7938 20.9947 41.7764 20.986 41.7418 20.986C41.6551 20.986 41.2564 20.7433 40.5458 20.258C39.5751 19.582 38.8298 18.7067 38.3098 17.632C38.2231 17.528 38.1104 17.372 37.9718 17.164C37.8504 16.956 37.4518 16.202 36.7758 14.902C36.7238 14.954 36.6891 14.98 36.6718 14.98C36.6371 14.98 36.6198 14.9713 36.6198 14.954C36.6198 14.9367 36.6024 14.928 36.5678 14.928C36.3424 14.928 36.2211 15.084 36.2038 15.396C36.1864 15.6213 36.1778 15.8467 36.1778 16.072C36.1604 16.072 36.1258 16.0893 36.0738 16.124C36.0738 16.1587 36.0998 16.202 36.1518 16.254C36.1171 16.2887 36.0564 16.3493 35.9698 16.436C35.9698 16.54 35.9524 16.7133 35.9178 16.956C35.9004 17.1987 35.8918 17.3807 35.8918 17.502C35.8398 17.4847 35.7791 17.4933 35.7098 17.528C35.7098 17.58 35.7704 17.632 35.8918 17.684V17.892C35.8571 17.944 35.7964 17.9527 35.7098 17.918L35.6838 17.944V18.048C35.7358 18.0827 35.7964 18.1 35.8658 18.1C35.9004 18.2213 35.8744 18.3773 35.7878 18.568C35.8571 18.5853 35.9004 18.646 35.9178 18.75C35.9178 18.906 35.9351 19.0187 35.9698 19.088C35.9351 19.1227 35.8744 19.1747 35.7878 19.244C35.7878 19.4 35.8224 19.4953 35.8918 19.53C35.8744 19.5127 35.8484 19.5473 35.8138 19.634C35.8138 19.6513 35.8224 19.6773 35.8398 19.712C35.7878 19.7813 35.7618 19.8767 35.7618 19.998C35.6924 22.2513 35.6578 23.274 35.6578 23.066C35.6404 22.7887 35.6058 22.39 35.5538 21.87C35.6058 21.714 35.6318 21.5407 35.6318 21.35V21.194C35.6144 21.1767 35.5884 21.168 35.5538 21.168C35.5364 21.1853 35.5538 21.22 35.6058 21.272C35.5711 21.2893 35.5018 21.298 35.3978 21.298C35.3978 21.4887 35.3891 21.792 35.3718 22.208C35.3544 22.3293 35.3198 22.4507 35.2678 22.572C35.2158 22.6933 35.2071 22.806 35.2418 22.91C35.2071 23.0833 35.1464 23.352 35.0598 23.716C35.0598 23.508 35.0251 23.3607 34.9558 23.274C34.9558 23.274 34.9644 23.248 34.9818 23.196C34.9298 23.1267 34.9038 23.0573 34.9038 22.988L34.7218 19.01C34.6698 18.958 34.6351 18.932 34.6178 18.932L34.5138 23.43H34.3838C34.4011 23.4127 34.4098 23.378 34.4098 23.326C34.4098 23.43 34.3491 23.3173 34.2278 22.988C34.2278 22.8493 34.2191 22.7193 34.2018 22.598C34.1671 22.3727 34.0631 22.2427 33.8898 22.208V21.948C33.8551 21.896 33.8291 21.87 33.8118 21.87C33.7771 21.974 33.7684 22.078 33.7858 22.182C33.6471 22.39 33.6558 22.6067 33.8118 22.832V23.482C33.7771 23.3433 33.6991 23.196 33.5778 23.04C33.4738 23.0747 33.4218 23.1527 33.4218 23.274C33.4391 23.4993 33.4478 23.638 33.4478 23.69C33.4304 23.69 33.3958 23.6987 33.3438 23.716C33.3091 23.7333 33.2831 23.742 33.2658 23.742C33.2658 23.6727 33.2311 23.56 33.1618 23.404L32.9538 20.544C32.9191 20.492 32.8931 20.466 32.8758 20.466C32.8411 20.6393 32.8238 20.778 32.8238 20.882V22.104C32.8238 22.4853 32.8151 22.7107 32.7978 22.78C32.7978 22.7107 32.7631 22.6153 32.6938 22.494C32.7111 22.3207 32.7024 22.1647 32.6678 22.026C32.6678 21.974 32.6418 21.922 32.5898 21.87C32.5898 21.4887 32.5638 20.804 32.5118 19.816C32.4598 18.828 32.4338 18.3427 32.4338 18.36L32.5638 15.838H32.6418L32.8238 13.238C32.8238 13.2207 32.8411 13.1253 32.8758 12.952C32.9104 12.7787 32.9364 12.666 32.9538 12.614C32.9711 12.2327 33.0231 11.6693 33.1098 10.924C33.1444 10.872 33.1791 10.8027 33.2138 10.716C33.1964 10.6813 33.1878 10.6293 33.1878 10.56C33.2051 10.5427 33.2224 10.5167 33.2398 10.482C33.2918 10.1353 33.3698 9.66733 33.4738 9.078C33.5951 8.47133 33.7338 7.91667 33.8898 7.414C33.5604 7.39667 33.3004 7.43133 33.1098 7.518C32.9884 7.60467 32.7631 7.76933 32.4338 8.012C32.3991 8.012 32.3384 8.02933 32.2518 8.064C32.2344 8.064 32.2171 8.09867 32.1998 8.168C32.1131 8.272 32.0178 8.324 31.9138 8.324C31.9658 8.324 31.8791 8.272 31.6538 8.168V7.882C31.6538 7.726 31.8704 7.56133 32.3038 7.388C32.3211 7.388 32.3384 7.39667 32.3558 7.414C32.3731 7.414 32.3991 7.414 32.4338 7.414C32.4511 7.414 32.4858 7.39667 32.5378 7.362C32.5898 7.31 32.6331 7.284 32.6678 7.284C32.7024 7.284 32.7111 7.284 32.6938 7.284C32.6938 7.30133 32.7111 7.31 32.7458 7.31C32.8151 7.31 32.9104 7.26667 33.0318 7.18C32.9451 7.128 32.7804 7.06733 32.5378 6.998C32.5031 6.96333 32.4598 6.91133 32.4078 6.842C32.5638 6.80733 32.7891 6.738 33.0838 6.634C33.0491 6.582 32.7891 6.478 32.3038 6.322C32.5811 6.35667 32.9971 6.218 33.5518 5.906C33.6038 5.87133 33.6038 5.854 33.5518 5.854C33.4824 5.854 33.2918 5.91467 32.9798 6.036H32.8498C32.8324 5.96667 32.8238 5.92333 32.8238 5.906C32.9971 5.78467 33.3438 5.62 33.8638 5.412C34.3144 5.256 34.6351 5.06533 34.8258 4.84C34.7044 4.80533 34.5484 4.84 34.3578 4.944C34.0804 5.1 33.9244 5.178 33.8898 5.178H33.7338V5.074C33.7511 5.074 33.8118 5.03933 33.9158 4.97C33.9158 4.95267 33.9244 4.918 33.9418 4.866C34.3924 4.606 34.7478 4.424 35.0078 4.32C35.1291 4.30267 35.2591 4.216 35.3978 4.06C35.5538 4.02533 35.7271 3.982 35.9178 3.93C36.1084 3.86067 36.2471 3.70467 36.3338 3.462C36.3338 3.47933 36.3251 3.52267 36.3078 3.592C36.3078 3.66133 36.3078 3.722 36.3078 3.774C36.4291 3.73933 36.7671 3.66133 37.3218 3.54C37.4084 3.54 37.5211 3.52267 37.6598 3.488C37.8158 3.436 38.1451 3.41 38.6478 3.41C38.7518 3.41 38.8904 3.42733 39.0638 3.462C39.2544 3.49667 39.7311 3.60933 40.4938 3.8C40.8924 3.904 41.0744 3.956 41.0398 3.956C41.0571 3.956 41.0658 3.956 41.0658 3.956C41.0658 3.93867 41.0744 3.93 41.0918 3.93C41.1611 3.93 41.3864 4.05133 41.7678 4.294C42.9464 5.00467 43.6831 6.00133 43.9778 7.284C44.0991 7.752 44.1598 8.09867 44.1598 8.324V9.39C44.1251 9.47667 44.0644 9.598 43.9778 9.754C43.7351 10.1353 43.6138 10.4127 43.6138 10.586C43.6831 10.5513 43.7438 10.4733 43.7958 10.352C43.8651 10.2307 43.9431 10.17 44.0298 10.17H44.1858V10.3C44.1858 10.3347 44.0644 10.534 43.8218 10.898C43.7178 11.0887 43.5531 11.3487 43.3278 11.678C42.2878 12.822 41.4644 13.5587 40.8578 13.888C40.9444 13.784 41.3518 13.368 42.0798 12.64C42.0624 12.64 42.0364 12.64 42.0018 12.64C41.9844 12.64 41.9324 12.6487 41.8458 12.666C41.5338 13.03 41.3171 13.212 41.1958 13.212C41.1611 13.212 41.1438 13.2033 41.1438 13.186C41.1438 13.1687 41.1264 13.16 41.0918 13.16C41.0398 13.16 40.9184 13.2553 40.7278 13.446C40.5371 13.6367 40.4418 13.7493 40.4418 13.784C40.4418 13.7493 40.4678 13.81 40.5198 13.966C40.8318 14.7807 41.1611 15.4047 41.5078 15.838C41.9411 16.358 42.3744 16.748 42.8078 17.008C42.8598 17.0427 43.3191 17.242 44.1858 17.606C44.1338 17.6407 44.0904 17.6753 44.0558 17.71C44.0384 17.6927 44.0211 17.684 44.0038 17.684C43.9864 17.7013 43.9691 17.7187 43.9518 17.736C43.9518 17.7533 43.9431 17.7707 43.9258 17.788C43.9778 17.84 44.0731 17.918 44.2118 18.022C44.5411 18.1433 44.7924 18.204 44.9658 18.204C45.0004 18.204 45.1044 18.2213 45.2778 18.256C45.4511 18.2733 45.5551 18.282 45.5898 18.282C45.6938 18.282 45.8064 18.2387 45.9278 18.152C45.8411 18.1173 45.7458 18.1 45.6418 18.1C45.6071 18.1 45.5551 18.1 45.4858 18.1C45.4164 18.1173 45.3644 18.126 45.3298 18.126C45.3124 18.126 45.2431 18.0913 45.1218 18.022C45.2951 18.022 45.3818 18.0307 45.3818 18.048C45.1044 17.9613 44.9831 17.918 45.0178 17.918C44.9658 17.918 44.9398 17.9527 44.9398 18.022C44.9398 18.022 44.8878 17.9873 44.7838 17.918C44.7318 17.918 44.6538 17.9093 44.5498 17.892C44.5151 17.8747 44.4718 17.8487 44.4198 17.814V17.684C44.4198 17.6667 44.4458 17.658 44.4978 17.658C44.5324 17.658 44.5498 17.6667 44.5498 17.684C44.5671 17.7013 44.5931 17.71 44.6278 17.71C44.6451 17.71 44.6451 17.7013 44.6278 17.684C44.6278 17.6667 44.6451 17.658 44.6798 17.658C44.6798 17.658 44.7231 17.6927 44.8098 17.762C44.9658 17.7793 45.0524 17.788 45.0698 17.788C45.1044 17.788 45.3991 17.8053 45.9538 17.84C46.5084 17.8573 46.8031 17.866 46.8378 17.866C46.7858 17.866 47.1064 17.8227 47.7998 17.736C47.8518 17.7187 47.8778 17.6927 47.8778 17.658H48.0338L48.1378 17.736C47.8778 17.8573 47.7044 17.9613 47.6178 18.048C47.6524 18.0827 47.6784 18.1 47.6958 18.1C47.8691 18.1 48.1204 18.048 48.4498 17.944C48.4498 17.996 48.4584 18.0567 48.4758 18.126L48.5538 18.048C48.5711 18.048 48.5884 18.074 48.6058 18.126C48.6231 18.1607 48.6491 18.178 48.6838 18.178C48.7184 18.178 48.7358 18.1693 48.7358 18.152C48.7531 18.1347 48.7704 18.126 48.7878 18.126C48.8051 18.126 48.9004 18.1433 49.0738 18.178C49.0911 18.1953 49.1518 18.2473 49.2558 18.334ZM32.2258 5.204L31.9658 5.308V5.256L32.1998 5.152L32.2258 5.204ZM32.5898 5.308C32.5031 5.36 32.3558 5.438 32.1478 5.542C32.0091 5.62867 31.8964 5.71533 31.8098 5.802C31.7404 5.88867 31.6624 5.932 31.5758 5.932C31.4891 5.932 31.4198 5.91467 31.3678 5.88V5.75C31.4371 5.68067 31.5498 5.57667 31.7058 5.438C31.8098 5.36867 31.9051 5.334 31.9918 5.334C32.0264 5.334 32.0438 5.34267 32.0438 5.36C32.0611 5.37733 32.0871 5.386 32.1218 5.386C32.2084 5.386 32.3471 5.32533 32.5378 5.204C32.5724 5.204 32.5898 5.23867 32.5898 5.308ZM46.4218 21.09H46.2138V21.012H46.4218V21.09ZM35.6318 21.116C35.6144 21.0467 35.5798 21.012 35.5278 21.012C35.5451 20.9947 35.5798 20.9773 35.6318 20.96V21.116ZM41.0658 8.974C41.0658 8.974 41.0224 8.766 40.9358 8.35C40.9358 8.36733 40.9271 8.39333 40.9098 8.428C40.8924 8.46267 40.8751 8.48867 40.8578 8.506C40.8578 8.36733 40.8318 8.18533 40.7798 7.96C40.7278 7.71733 40.5718 7.47467 40.3118 7.232C40.2078 7.128 40.0431 7.03267 39.8178 6.946C39.6791 6.894 39.4364 6.85067 39.0898 6.816C39.0204 6.79867 38.6998 6.79 38.1278 6.79C38.0931 6.79 38.0498 6.842 37.9978 6.946C37.9284 6.946 37.8331 6.96333 37.7118 6.998C37.7118 7.32733 37.7204 7.44 37.7378 7.336C37.7378 7.336 37.6771 7.52667 37.5558 7.908C37.5384 7.97733 37.4431 8.34133 37.2698 9C37.1658 9.39867 37.0791 9.806 37.0098 10.222C36.9578 10.326 36.9144 10.482 36.8798 10.69C36.8451 10.898 36.8104 11.1753 36.7758 11.522C36.7758 11.5567 36.7584 11.5913 36.7238 11.626C36.6891 11.6607 36.6718 11.6953 36.6718 11.73V11.886C36.6718 11.886 36.7498 11.9207 36.9058 11.99C36.9058 12.094 36.9231 12.1807 36.9578 12.25C37.0618 12.1633 37.1224 12.12 37.1398 12.12C37.1398 12.12 37.1658 12.1373 37.2178 12.172L37.3218 12.094C37.3218 11.99 37.3131 11.8513 37.2958 11.678C37.2611 11.6087 37.2438 11.574 37.2438 11.574C37.3131 11.5047 37.3564 11.47 37.3738 11.47C37.4258 11.47 37.4518 11.5307 37.4518 11.652C37.4518 11.6867 37.4344 11.7387 37.3998 11.808C37.3824 11.8773 37.3738 11.9293 37.3738 11.964C37.4604 11.7213 37.5818 11.6173 37.7378 11.652C37.9111 11.8773 38.0324 11.99 38.1018 11.99C38.1884 11.99 38.2491 11.9727 38.2838 11.938C38.2838 11.834 38.2058 11.7213 38.0498 11.6C37.9111 11.4613 37.8418 11.34 37.8418 11.236C37.8418 11.184 37.8418 11.1493 37.8418 11.132C37.9631 11.0453 38.0498 11.002 38.1018 11.002C38.1364 11.002 38.2838 11.132 38.5438 11.392C38.5611 11.3747 38.5004 11.366 38.3618 11.366V11.548C38.4138 11.6 38.5004 11.6693 38.6218 11.756C38.6564 11.6693 38.7518 11.626 38.9078 11.626C38.9251 11.574 38.9598 11.5133 39.0118 11.444C39.0291 11.444 39.0638 11.4353 39.1158 11.418C39.2891 11.2793 39.4104 11.184 39.4798 11.132C39.6878 10.9933 40.0258 10.69 40.4938 10.222C40.4764 10.2047 40.4678 10.1873 40.4678 10.17C40.8664 9.84067 41.0658 9.442 41.0658 8.974ZM41.2998 12.952L41.2478 12.926L41.1958 13.03H41.2478L41.2998 12.952ZM40.5718 13.238C40.5198 13.186 40.4678 13.16 40.4158 13.16C40.3291 13.2293 40.2858 13.2987 40.2858 13.368C40.2858 13.4373 40.3031 13.4893 40.3378 13.524C40.4418 13.42 40.5198 13.3247 40.5718 13.238ZM46.2918 20.18C46.2918 20.18 46.2744 20.1887 46.2398 20.206C46.2051 20.206 46.1791 20.206 46.1618 20.206C46.1618 20.2753 46.1964 20.31 46.2658 20.31C46.2831 20.2927 46.2918 20.2493 46.2918 20.18ZM36.4638 13.472V13.342H36.4118V13.472H36.4638ZM35.6578 20.83V20.44H35.5798V20.83H35.6578ZM38.4918 7.102H38.3618V7.05H38.4918V7.102ZM38.3098 7.024V7.076L38.1278 6.972L38.1538 6.92L38.3098 7.024ZM37.8418 11.496C37.7724 11.5133 37.6858 11.5567 37.5818 11.626C37.5298 11.574 37.5038 11.5133 37.5038 11.444C37.6251 11.4267 37.7378 11.444 37.8418 11.496ZM53.7875 24.86H53.6835V24.782H53.7875V24.86ZM52.7215 24.6L52.6955 24.652L52.5915 24.6L52.6175 24.522L52.7215 24.6ZM63.0695 5.776L62.6795 5.802V5.724L63.0695 5.698V5.776ZM61.3795 7.856H61.1715V7.804H61.3795V7.856ZM56.1535 3.202C56.1535 3.39267 56.0582 3.488 55.8675 3.488C55.7982 3.488 55.6248 3.514 55.3475 3.566C55.3475 3.54867 55.3302 3.514 55.2955 3.462C55.3995 3.37533 55.6162 3.27133 55.9455 3.15L56.1535 3.202ZM59.0135 8.454H58.9095V8.402H59.0135V8.454ZM55.8935 5.464H55.7375V5.386H55.8935V5.464ZM52.1235 3.8C52.0888 3.97333 51.9675 4.18133 51.7595 4.424H51.5255C51.5255 4.372 51.4995 4.32 51.4475 4.268C51.5168 4.268 51.5428 4.22467 51.5255 4.138C51.6295 3.94733 51.7855 3.8 51.9935 3.696C51.9935 3.71333 52.0108 3.73067 52.0455 3.748C52.0802 3.76533 52.1062 3.78267 52.1235 3.8ZM52.6695 4.632C52.4962 5.152 52.4095 5.386 52.4095 5.334C52.4095 5.42067 52.4268 5.48133 52.4615 5.516C52.3922 5.53333 52.2968 5.568 52.1755 5.62C52.1755 5.60267 52.2015 5.568 52.2535 5.516C52.2362 5.49867 52.2102 5.49 52.1755 5.49C52.2102 5.24733 52.2795 4.97867 52.3835 4.684C52.4008 4.684 52.4528 4.72733 52.5395 4.814C52.5395 4.79667 52.5568 4.77067 52.5915 4.736C52.6262 4.684 52.6522 4.64933 52.6695 4.632ZM52.3315 6.166H52.1755V6.088H52.3315V6.166ZM51.8375 5.906H51.7855L51.7335 5.724H51.7855L51.8375 5.906ZM51.9675 6.452L51.9155 6.478L51.8635 6.426L51.9155 6.374L51.9675 6.452ZM58.5715 13.654L58.5195 13.758L58.4415 13.732L58.4935 13.628L58.5715 13.654ZM50.8755 6.712C50.8408 6.72933 50.8235 6.78133 50.8235 6.868C50.8062 6.83333 50.7715 6.78133 50.7195 6.712H50.8755ZM50.4075 6.868C50.3728 6.83333 50.3208 6.83333 50.2515 6.868V6.686C50.2862 6.686 50.3208 6.70333 50.3555 6.738C50.3728 6.738 50.3902 6.72067 50.4075 6.686V6.868ZM50.1735 6.972C50.1042 6.972 50.0695 7.024 50.0695 7.128L49.9655 7.024C49.9308 7.05867 49.8962 7.076 49.8615 7.076C49.8615 6.972 49.8702 6.92 49.8875 6.92C49.9742 6.95467 50.0695 6.972 50.1735 6.972ZM55.9715 13.264H55.8675V13.186H55.9715V13.264ZM49.7835 7.258L49.6535 7.31V7.258L49.7575 7.206L49.7835 7.258ZM64.0835 18.958C63.6328 19.1487 62.8268 19.4607 61.6655 19.894C61.5962 19.9807 61.5008 20.0673 61.3795 20.154C61.3968 20.1713 61.4835 20.18 61.6395 20.18C61.6048 20.18 61.8735 20.0847 62.4455 19.894C62.2202 20.05 61.8302 20.232 61.2755 20.44C60.7382 20.6307 60.3568 20.83 60.1315 21.038C60.4782 20.934 61.0242 20.7607 61.7695 20.518L61.9775 20.596C61.6135 20.7867 60.9202 21.1333 59.8975 21.636C59.7762 21.7573 59.5768 21.922 59.2995 22.13C59.0915 22.2513 58.7708 22.4333 58.3375 22.676C58.3202 22.6587 58.4242 22.65 58.6495 22.65C58.6668 22.65 58.9528 22.5027 59.5075 22.208C59.5768 22.208 59.6808 22.1907 59.8195 22.156C59.6982 22.3467 59.4295 22.5287 59.0135 22.702C58.5455 22.8927 58.2422 23.0747 58.1035 23.248C58.1035 23.248 58.1035 23.2393 58.1035 23.222C58.1208 23.1873 58.1295 23.1527 58.1295 23.118C57.7482 23.3607 57.4882 23.482 57.3495 23.482C57.2108 23.482 57.1675 23.508 57.2195 23.56C57.2195 23.56 57.2108 23.5513 57.1935 23.534C57.1762 23.5167 57.1415 23.508 57.0895 23.508C57.0548 23.508 57.0375 23.5687 57.0375 23.69L56.7775 23.638L56.6475 23.768C56.5262 23.7853 56.0668 23.872 55.2695 24.028C55.2522 23.9933 55.2262 23.9847 55.1915 24.002C55.1742 24.054 55.0962 24.1147 54.9575 24.184L55.0875 24.054L55.0095 23.976C55.0095 23.976 54.8448 23.976 54.5155 23.976C54.4982 23.9933 54.4808 24.0193 54.4635 24.054C54.4635 24.106 54.4548 24.132 54.4375 24.132C54.4895 24.184 54.5588 24.2447 54.6455 24.314C54.5935 24.2967 54.4462 24.288 54.2035 24.288C54.1688 24.288 54.0735 24.314 53.9175 24.366C53.7788 24.4353 53.6922 24.47 53.6575 24.47C53.6228 24.47 53.5968 24.4527 53.5795 24.418C53.5622 24.3833 53.5362 24.366 53.5015 24.366C53.4668 24.366 53.4408 24.3833 53.4235 24.418C53.4062 24.4527 53.3802 24.47 53.3455 24.47C53.3108 24.47 53.1722 24.4267 52.9295 24.34C52.6868 24.2707 52.5482 24.236 52.5135 24.236C52.4788 24.236 52.4615 24.2447 52.4615 24.262C52.4615 24.2793 52.4442 24.288 52.4095 24.288C52.3575 24.288 52.2708 24.2447 52.1495 24.158C51.8028 23.898 51.5688 23.6813 51.4475 23.508C50.9622 22.728 50.6762 22.0433 50.5895 21.454C50.5375 21.1073 50.5115 20.986 50.5115 21.09V20.518C50.5462 20.622 50.5722 20.752 50.5895 20.908C50.6242 20.9253 50.6588 20.9513 50.6935 20.986C50.8495 21.7833 51.1528 22.4853 51.6035 23.092H51.7595C51.7768 23.0747 51.8028 23.04 51.8375 22.988C51.8375 22.936 51.8202 22.91 51.7855 22.91C51.6642 22.91 51.5168 22.676 51.3435 22.208C51.3088 22.1213 51.2482 22.026 51.1615 21.922C51.1095 21.87 51.1095 21.8093 51.1615 21.74C51.1095 21.5147 50.9622 21.22 50.7195 20.856C50.7195 20.7693 50.7195 20.6393 50.7195 20.466C50.6502 20.4313 50.5635 20.414 50.4595 20.414L50.5375 20.31C50.5375 20.2753 50.5202 20.258 50.4855 20.258C50.4682 20.0673 50.4248 19.7207 50.3555 19.218C50.3035 18.7847 50.2775 18.5507 50.2775 18.516C50.2775 18.308 50.3035 18.152 50.3555 18.048C50.3555 18.1 50.3642 18.1433 50.3815 18.178C50.3988 18.074 50.4248 17.918 50.4595 17.71C50.5462 17.7447 50.5895 17.8227 50.5895 17.944C50.5895 18.776 50.5895 19.1833 50.5895 19.166C50.6068 19.1833 50.6328 19.218 50.6675 19.27C50.6848 19.2527 50.7195 19.218 50.7715 19.166V17.294C50.7368 17.2767 50.6762 17.268 50.5895 17.268C50.6415 17.1987 50.7022 17.0947 50.7715 16.956C50.7542 16.9387 50.7368 16.9213 50.7195 16.904C50.7195 16.8693 50.7108 16.852 50.6935 16.852C50.6588 16.8867 50.5895 16.9127 50.4855 16.93C50.4682 16.982 50.4335 17.0513 50.3815 17.138C50.3988 16.826 50.3815 16.6093 50.3295 16.488C50.3122 16.488 50.2602 16.462 50.1735 16.41C50.1042 16.3407 50.0695 16.28 50.0695 16.228C50.0695 16.0893 50.0868 15.9853 50.1215 15.916C50.1215 15.916 50.2168 15.812 50.4075 15.604C50.4075 15.4653 50.4248 15.2487 50.4595 14.954C50.4942 14.642 50.5115 14.1913 50.5115 13.602C50.5288 13.5847 50.5462 13.5587 50.5635 13.524C50.6155 13.368 50.6155 13.264 50.5635 13.212C50.5982 13.1427 50.6675 13.004 50.7715 12.796C50.7715 12.692 50.7455 12.614 50.6935 12.562C50.7455 12.2327 50.8582 11.7473 51.0315 11.106C51.1008 11.0887 51.1962 11.0453 51.3175 10.976C51.1095 11.4613 50.9708 12.068 50.9015 12.796C51.0055 13.0213 51.0055 13.2553 50.9015 13.498C50.8495 13.5327 50.7888 13.602 50.7195 13.706C50.7195 13.7233 50.6762 14.0873 50.5895 14.798C50.5375 15.3873 50.5115 15.6387 50.5115 15.552C50.5115 15.5867 50.5115 15.656 50.5115 15.76C50.5288 15.8813 50.5462 15.9767 50.5635 16.046C50.5982 16.098 50.6502 16.124 50.7195 16.124C50.7715 15.9333 50.8408 15.6213 50.9275 15.188C50.8235 15.1707 50.7108 15.1273 50.5895 15.058H50.7715C50.8582 14.902 50.9275 14.5813 50.9795 14.096C51.0315 13.6107 51.0922 13.29 51.1615 13.134C51.1095 13.0647 51.0922 12.978 51.1095 12.874C51.1615 12.8567 51.1875 12.8307 51.1875 12.796C51.1875 12.7787 51.1788 12.7527 51.1615 12.718C51.2308 12.2327 51.3782 11.574 51.6035 10.742C51.5515 10.7593 51.4562 10.768 51.3175 10.768C51.3175 10.82 51.2915 10.846 51.2395 10.846C51.2742 10.8113 51.2915 10.7593 51.2915 10.69C51.2915 10.69 51.3002 10.69 51.3175 10.69C51.3348 10.7073 51.3608 10.716 51.3955 10.716C51.4302 10.716 51.5168 10.6813 51.6555 10.612C51.6555 10.56 51.6728 10.4733 51.7075 10.352L51.6295 10.3C51.6295 10.3 51.6208 10.326 51.6035 10.378C51.5862 10.43 51.5602 10.456 51.5255 10.456C51.5428 10.456 51.5255 10.43 51.4735 10.378C51.3522 10.482 51.2655 10.5513 51.2135 10.586C51.1962 10.5687 51.1702 10.5427 51.1355 10.508C51.1008 10.456 51.0748 10.4213 51.0575 10.404C51.1095 10.3347 51.2135 10.2307 51.3695 10.092C51.0402 10.0573 50.7195 10.04 50.4075 10.04C50.2688 10.04 50.1215 9.97933 49.9655 9.858C49.8095 9.73667 49.7315 9.60667 49.7315 9.468C49.7315 9.32933 49.7922 9.26 49.9135 9.26C49.9828 9.26 50.0522 9.34667 50.1215 9.52C50.2082 9.69333 50.3295 9.78 50.4855 9.78H50.7715C50.8235 9.78 50.8755 9.71933 50.9275 9.598C50.9448 9.598 50.9708 9.60667 51.0055 9.624C51.0402 9.64133 51.0835 9.65 51.1355 9.65C51.3262 9.65 51.4562 9.52867 51.5255 9.286C51.4735 9.234 51.4908 9.14733 51.5775 9.026C51.5255 8.99133 51.4822 8.974 51.4475 8.974C51.3088 8.974 51.1008 9.026 50.8235 9.13C50.7715 9.078 50.7802 9.01733 50.8495 8.948C50.8322 8.93067 50.8148 8.91333 50.7975 8.896C50.7975 8.86133 50.7888 8.844 50.7715 8.844C50.6155 8.948 50.5635 9 50.6155 9C50.5808 9 50.5635 8.99133 50.5635 8.974C50.5808 8.974 50.5635 8.974 50.5115 8.974C50.4942 8.974 50.4422 9.00867 50.3555 9.078C50.2688 9.14733 50.2082 9.182 50.1735 9.182C50.1215 9.182 50.0695 9.156 50.0175 9.104L49.9135 9.182C49.9828 9.06067 50.0868 8.87867 50.2255 8.636C50.1908 8.532 50.1735 8.48867 50.1735 8.506C50.2255 8.43667 50.2602 8.402 50.2775 8.402L50.4855 8.454C50.5202 8.41933 50.5202 8.35867 50.4855 8.272C50.4508 8.30667 50.3988 8.324 50.3295 8.324C50.3468 8.25467 50.3555 8.142 50.3555 7.986C50.3035 8.038 50.2082 8.12467 50.0695 8.246C50.0175 8.246 49.9655 8.20267 49.9135 8.116C49.8615 8.168 49.7922 8.194 49.7055 8.194C49.4628 8.194 49.3155 8.116 49.2635 7.96C49.2808 7.89067 49.3242 7.778 49.3935 7.622C49.4975 7.55267 49.6015 7.518 49.7055 7.518C49.7228 7.518 49.8008 7.52667 49.9395 7.544C50.0955 7.56133 50.2082 7.57 50.2775 7.57C50.2602 7.674 50.2775 7.76933 50.3295 7.856C50.4335 7.83867 50.4855 7.81267 50.4855 7.778C50.4855 7.76067 50.4768 7.73467 50.4595 7.7C50.4422 7.648 50.4335 7.61333 50.4335 7.596C50.4335 7.544 50.4682 7.492 50.5375 7.44C50.3815 7.336 50.2862 7.24067 50.2515 7.154V6.998C50.3035 6.98067 50.3988 6.96333 50.5375 6.946C50.5722 7.08467 50.6242 7.154 50.6935 7.154C50.7628 7.154 50.8495 7.11933 50.9535 7.05C50.9362 6.998 50.9622 6.93733 51.0315 6.868C51.0662 6.868 51.1355 6.868 51.2395 6.868C51.3608 6.868 51.4388 6.868 51.4735 6.868C51.4042 6.868 51.6035 6.77267 52.0715 6.582C52.1062 6.53 52.1235 6.44333 52.1235 6.322C52.1582 6.322 52.2015 6.30467 52.2535 6.27C52.3228 6.23533 52.3748 6.218 52.4095 6.218C52.4442 6.218 52.4615 6.23533 52.4615 6.27C52.4615 6.30467 52.4702 6.322 52.4875 6.322C52.5395 6.28733 52.5828 6.14 52.6175 5.88C52.7908 5.79333 52.8168 5.68933 52.6955 5.568V5.412C52.7475 5.464 52.8342 5.55067 52.9555 5.672C52.9382 5.60267 52.9468 5.49867 52.9815 5.36C52.9642 5.34267 52.9468 5.34267 52.9295 5.36C52.8775 5.308 52.8602 5.27333 52.8775 5.256C52.8948 5.256 52.9295 5.23867 52.9815 5.204C52.9815 5.16933 52.9902 5.11733 53.0075 5.048C53.1288 4.92667 53.1635 4.84867 53.1115 4.814C53.1808 4.83133 53.2762 4.87467 53.3975 4.944C53.4322 4.92667 53.4668 4.892 53.5015 4.84C53.5535 4.77067 53.5882 4.736 53.6055 4.736C53.6748 4.892 53.7962 5.13467 53.9695 5.464H54.0735C54.0562 5.36 54.0388 5.23 54.0215 5.074V4.866C54.0908 4.918 54.1342 4.944 54.1515 4.944C54.1862 4.944 54.1948 4.93533 54.1775 4.918C54.1775 4.90067 54.1948 4.892 54.2295 4.892C54.3162 4.892 54.4028 4.97 54.4895 5.126C54.5242 5.16067 54.5675 5.16933 54.6195 5.152C54.5675 5.08267 54.4895 4.93533 54.3855 4.71C54.2988 4.658 54.2208 4.606 54.1515 4.554C53.9955 4.46733 53.9175 4.398 53.9175 4.346C53.9175 4.294 53.9435 4.25067 53.9955 4.216H54.1255C54.4722 4.216 54.7148 4.45 54.8535 4.918C54.8362 5.00467 54.8275 5.16067 54.8275 5.386C54.8968 5.45533 54.9402 5.49 54.9575 5.49C54.9922 5.49 55.0788 5.49 55.2175 5.49C55.3562 5.47267 55.4515 5.464 55.5035 5.464C55.4515 5.44667 55.3648 5.49 55.2435 5.594C55.3302 5.646 55.4428 5.672 55.5815 5.672C55.8242 5.672 56.6735 5.55067 58.1295 5.308C58.1468 5.29067 58.1815 5.256 58.2335 5.204V5.256C58.2335 5.27333 58.2855 5.282 58.3895 5.282C58.4068 5.282 58.5108 5.26467 58.7015 5.23C58.8922 5.19533 59.0308 5.178 59.1175 5.178C59.2215 5.10867 59.2822 5.074 59.2995 5.074C59.3342 5.074 59.3602 5.08267 59.3775 5.1C59.4122 5.1 59.4468 5.1 59.4815 5.1C59.5162 5.1 59.8455 5.09133 60.4695 5.074C61.1108 5.03933 61.4488 5.022 61.4835 5.022C61.6222 5.022 61.8648 5.08267 62.2115 5.204L62.2635 5.308C62.2462 5.32533 62.0555 5.334 61.6915 5.334C61.6395 5.334 61.5875 5.35133 61.5355 5.386C61.5355 5.42067 61.5528 5.44667 61.5875 5.464C61.6222 5.464 61.6308 5.48133 61.6135 5.516C61.6135 5.568 61.6048 5.60267 61.5875 5.62C61.3622 5.62 61.1022 5.65467 60.8075 5.724C60.9115 5.828 60.9635 5.88 60.9635 5.88C61.1195 5.88 61.6742 5.84533 62.6275 5.776C62.3848 5.81067 62.0122 5.88 61.5095 5.984C61.6308 6.05333 61.8735 6.07067 62.2375 6.036C62.6015 6.00133 62.8442 6.02733 62.9655 6.114C62.7748 6.13133 62.4888 6.15733 62.1075 6.192C62.2115 6.244 62.3242 6.26133 62.4455 6.244C62.3762 6.244 62.2895 6.26133 62.1855 6.296C62.0815 6.33067 62.0208 6.348 62.0035 6.348C61.9862 6.348 61.7262 6.36533 61.2235 6.4C61.1715 6.38267 61.1455 6.40867 61.1455 6.478C61.4228 6.53 61.7002 6.53867 61.9775 6.504C61.9255 6.556 61.8042 6.59067 61.6135 6.608C61.6135 6.712 61.5182 6.77267 61.3275 6.79C61.0848 6.80733 60.9462 6.83333 60.9115 6.868C60.9462 6.90267 61.0242 6.92 61.1455 6.92V7.076C61.0415 7.128 60.9895 7.17133 60.9895 7.206C61.0242 7.24067 61.0675 7.258 61.1195 7.258C61.1542 7.258 61.1975 7.24067 61.2495 7.206C61.1628 7.27533 60.9722 7.336 60.6775 7.388C60.4002 7.42267 60.2268 7.47467 60.1575 7.544C60.1748 7.544 60.1575 7.518 60.1055 7.466C60.0535 7.518 60.0362 7.57 60.0535 7.622C59.8975 7.60467 59.6722 7.648 59.3775 7.752C59.4295 7.7 59.4122 7.674 59.3255 7.674C59.2908 7.674 59.2388 7.7 59.1695 7.752C58.9268 7.752 58.6235 7.81267 58.2595 7.934C58.1728 7.934 58.0255 7.96 57.8175 8.012C57.6268 8.04667 57.5228 8.064 57.5055 8.064C57.4882 8.064 57.3668 8.07267 57.1415 8.09C56.9335 8.10733 56.7688 8.10733 56.6475 8.09C56.6475 8.09 56.6215 8.116 56.5695 8.168C56.7082 8.30667 56.8902 8.376 57.1155 8.376C57.1848 8.376 57.2368 8.34133 57.2715 8.272C57.2715 8.23733 57.2542 8.22 57.2195 8.22C57.5315 8.168 57.8435 8.142 58.1555 8.142C58.1728 8.142 58.3028 8.09867 58.5455 8.012C58.8055 7.92533 58.9528 7.882 58.9875 7.882C59.0222 7.882 59.0482 7.89933 59.0655 7.934C59.1002 7.96867 59.1348 7.986 59.1695 7.986C59.1868 7.986 59.1955 7.94267 59.1955 7.856C59.3168 7.908 59.4208 7.934 59.5075 7.934C59.5595 7.934 59.6028 7.91667 59.6375 7.882C59.6895 7.83 59.7328 7.804 59.7675 7.804C59.8022 7.804 59.8368 7.82133 59.8715 7.856C59.9235 7.87333 59.9668 7.882 60.0015 7.882C60.0188 7.882 60.0622 7.87333 60.1315 7.856C60.1835 7.82133 60.5128 7.83 61.1195 7.882C59.8888 8.142 59.3428 8.272 59.4815 8.272C59.2908 8.272 59.1435 8.28933 59.0395 8.324C58.8835 8.39333 58.7795 8.428 58.7275 8.428C58.7448 8.46267 58.7795 8.48 58.8315 8.48C58.7968 8.48 58.7448 8.48867 58.6755 8.506C58.6062 8.52333 58.5542 8.532 58.5195 8.532C58.4675 8.532 58.4415 8.52333 58.4415 8.506C58.4588 8.47133 58.4502 8.454 58.4155 8.454C58.3982 8.454 58.2768 8.48867 58.0515 8.558C57.8435 8.62733 57.7048 8.67067 57.6355 8.688C57.5835 8.70533 57.5315 8.74 57.4795 8.792C57.0288 8.87867 56.3702 9.03467 55.5035 9.26C55.3475 9.27733 55.1048 9.32933 54.7755 9.416C54.7408 9.43333 54.7062 9.45933 54.6715 9.494C54.6368 9.58067 54.5935 9.71067 54.5415 9.884C54.5415 9.95333 54.5415 10.0573 54.5415 10.196C54.4548 10.56 54.4288 10.7593 54.4635 10.794C54.4462 10.742 54.4202 10.8113 54.3855 11.002C54.4028 11.0367 54.4115 11.08 54.4115 11.132C54.4115 11.2013 54.3768 11.3053 54.3075 11.444C54.2382 11.5827 54.2035 11.6867 54.2035 11.756C54.2035 11.8427 54.2035 11.9553 54.2035 12.094C54.1342 12.354 54.0388 12.8307 53.9175 13.524C54.0735 13.5933 54.1688 13.628 54.2035 13.628C54.2382 13.628 54.2555 13.6193 54.2555 13.602C54.2728 13.5673 54.2988 13.55 54.3335 13.55C54.3682 13.55 54.5675 13.5067 54.9315 13.42C55.3128 13.3333 55.5208 13.29 55.5555 13.29C55.5902 13.29 55.6162 13.3073 55.6335 13.342C55.6682 13.3593 55.7028 13.368 55.7375 13.368C55.7722 13.368 55.8675 13.3593 56.0235 13.342C56.1795 13.342 56.2835 13.342 56.3355 13.342C56.9595 13.342 57.3842 13.524 57.6095 13.888C57.5402 13.8013 57.4535 13.7407 57.3495 13.706C57.1415 13.6193 57.0635 13.576 57.1155 13.576C57.0808 13.576 57.0635 13.5847 57.0635 13.602C57.0635 13.6193 57.0462 13.628 57.0115 13.628C56.9768 13.628 56.9162 13.6107 56.8295 13.576C56.7428 13.524 56.6822 13.498 56.6475 13.498C56.6128 13.498 56.5868 13.5153 56.5695 13.55C56.5695 13.5673 56.5522 13.576 56.5175 13.576C56.5348 13.576 56.5088 13.5673 56.4395 13.55C56.3875 13.5153 56.2662 13.498 56.0755 13.498C55.9022 13.498 55.7375 13.5413 55.5815 13.628L55.4775 13.55C55.4428 13.5847 55.3388 13.6367 55.1655 13.706C55.2002 13.7233 55.2955 13.7667 55.4515 13.836C55.6768 13.8533 56.0148 13.888 56.4655 13.94C56.5002 13.9573 56.5782 13.992 56.6995 14.044C56.8208 14.0787 56.9162 14.096 56.9855 14.096L57.0895 14.2C57.1242 14.2 57.1935 14.1827 57.2975 14.148C57.4015 14.1133 57.4708 14.096 57.5055 14.096C57.6095 14.096 57.6355 14.0787 57.5835 14.044C57.6182 14.0613 57.6615 14.0873 57.7135 14.122C57.8348 14.122 58.1295 14.1913 58.5975 14.33C58.5802 14.3473 58.5368 14.408 58.4675 14.512C58.3982 14.616 58.3895 14.6853 58.4415 14.72C58.3548 14.7893 58.2768 14.824 58.2075 14.824C58.1728 14.824 58.0775 14.8153 57.9215 14.798C57.7828 14.7633 57.6962 14.746 57.6615 14.746C57.7135 14.746 57.6355 14.7633 57.4275 14.798C57.3755 14.8327 57.3408 14.8933 57.3235 14.98C57.2888 14.9973 57.2368 15.0233 57.1675 15.058C57.2715 15.0753 57.4275 15.1447 57.6355 15.266C57.6528 15.2313 57.6615 15.2053 57.6615 15.188H57.8955C57.8955 15.188 57.8695 15.214 57.8175 15.266C57.8695 15.318 57.9128 15.344 57.9475 15.344C57.9475 15.604 57.9302 15.6993 57.8955 15.63C57.7742 15.682 57.6095 15.6993 57.4015 15.682C57.4015 15.6647 57.3842 15.6733 57.3495 15.708C57.5575 15.812 57.7395 15.864 57.8955 15.864C57.9475 15.864 57.9822 15.8553 57.9995 15.838C58.0342 15.8207 58.0602 15.812 58.0775 15.812C58.0775 15.8813 58.0168 15.942 57.8955 15.994C57.9648 16.0287 58.0515 16.0807 58.1555 16.15C58.1035 16.15 58.0255 16.124 57.9215 16.072C57.9215 16.0893 57.9042 16.1067 57.8695 16.124C57.8522 16.124 57.8348 16.1327 57.8175 16.15C57.8175 16.1847 57.8608 16.202 57.9475 16.202C57.8782 16.2713 57.8435 16.3407 57.8435 16.41C57.7395 16.2887 57.6442 16.228 57.5575 16.228C57.5228 16.228 57.4015 16.2453 57.1935 16.28C57.0028 16.3147 56.8902 16.332 56.8555 16.332C56.8208 16.332 56.7948 16.3147 56.7775 16.28C56.7775 16.2453 56.7602 16.228 56.7255 16.228C56.7428 16.228 56.7082 16.2453 56.6215 16.28C56.5522 16.3147 56.4742 16.3147 56.3875 16.28L56.1015 16.306C56.2402 16.3407 56.5435 16.3927 57.0115 16.462C57.0115 16.4793 57.0115 16.5053 57.0115 16.54C57.0288 16.5747 57.0375 16.6007 57.0375 16.618C56.9335 16.618 56.7602 16.6093 56.5175 16.592C56.2748 16.592 56.1362 16.592 56.1015 16.592C55.9628 16.644 55.9195 16.6787 55.9715 16.696C55.9542 16.696 55.9108 16.6873 55.8415 16.67C55.7895 16.67 55.7462 16.67 55.7115 16.67C55.6768 16.67 55.6508 16.6873 55.6335 16.722C55.6335 16.7393 55.6162 16.748 55.5815 16.748C55.5295 16.748 55.5122 16.7393 55.5295 16.722C55.5468 16.6873 55.5468 16.67 55.5295 16.67C55.5122 16.67 55.4775 16.696 55.4255 16.748C55.4948 16.8693 55.5468 16.93 55.5815 16.93C55.6162 16.93 55.6595 16.9213 55.7115 16.904C55.7635 16.8693 55.8068 16.852 55.8415 16.852H56.8555C56.8728 16.852 56.9075 16.8347 56.9595 16.8C57.0115 16.7653 57.0635 16.748 57.1155 16.748C57.0462 16.748 57.1588 16.774 57.4535 16.826C57.4535 16.8433 57.4708 16.878 57.5055 16.93H57.6355C57.7048 16.8433 57.7395 16.8 57.7395 16.8C57.7395 16.8 57.7395 16.826 57.7395 16.878C57.7568 16.9473 57.7655 17.034 57.7655 17.138C56.7948 17.0513 56.2575 17.008 56.1535 17.008C56.1188 17.008 56.0755 17.0167 56.0235 17.034C55.9888 17.0513 55.9542 17.06 55.9195 17.06C55.6422 17.06 55.3475 17.1033 55.0355 17.19C55.0008 17.242 55.0095 17.3547 55.0615 17.528C55.0268 17.476 54.9315 17.45 54.7755 17.45C54.5848 17.45 54.3508 17.502 54.0735 17.606C54.0562 17.5713 54.0562 17.5107 54.0735 17.424C54.0735 17.32 54.0648 17.2593 54.0475 17.242C54.0475 17.2073 54.0302 17.19 53.9955 17.19C53.9782 17.2247 53.9262 17.32 53.8395 17.476C53.7008 17.7533 53.6402 18.2213 53.6575 18.88C53.6228 18.88 53.5795 18.828 53.5275 18.724C53.4755 18.62 53.4582 18.4553 53.4755 18.23C53.4582 18.2127 53.4495 18.1953 53.4495 18.178C53.4495 18.0393 53.4668 17.8313 53.5015 17.554C53.4842 17.5367 53.4495 17.528 53.3975 17.528C53.3282 17.84 53.2935 18.0047 53.2935 18.022C53.2935 18.022 53.3108 18.0653 53.3455 18.152C53.3282 18.4467 53.3282 18.7847 53.3455 19.166C53.3802 19.5993 53.4062 19.8593 53.4235 19.946C53.5102 20.3273 53.6575 20.6133 53.8655 20.804C53.9002 20.856 53.9002 20.908 53.8655 20.96C53.8828 20.9773 53.9088 21.0033 53.9435 21.038C53.9435 21.09 53.9435 21.1507 53.9435 21.22C53.9955 21.3413 54.0995 21.4887 54.2555 21.662C54.3422 21.7313 54.4982 21.7833 54.7235 21.818C54.7235 21.818 54.7408 21.8353 54.7755 21.87C54.8275 21.8873 54.8708 21.896 54.9055 21.896C54.9748 21.896 55.6855 21.5233 57.0375 20.778C56.9162 20.9167 56.6735 21.1073 56.3095 21.35C55.8588 21.6447 55.6248 21.8093 55.6075 21.844L55.6335 21.974C55.7375 21.922 55.9022 21.8527 56.1275 21.766C56.1795 21.6967 56.2662 21.6013 56.3875 21.48C56.4742 21.428 57.2368 21.038 58.6755 20.31C58.3462 20.5527 57.8435 20.8733 57.1675 21.272C57.1502 21.2893 57.1155 21.3327 57.0635 21.402C57.0635 21.4193 57.1068 21.428 57.1935 21.428C57.2282 21.428 57.2802 21.3933 57.3495 21.324C57.4188 21.2373 57.4622 21.194 57.4795 21.194C58.3462 20.7607 58.9875 20.4487 59.4035 20.258C60.1315 19.9287 60.8075 19.6687 61.4315 19.478C61.8128 19.3567 62.1855 19.2353 62.5495 19.114C63.0695 18.9407 63.5028 18.854 63.8495 18.854H63.9795C63.9795 18.9233 64.0142 18.958 64.0835 18.958ZM49.6535 7.44C49.6015 7.44 49.5495 7.466 49.4975 7.518V7.336C49.5495 7.336 49.6015 7.37067 49.6535 7.44ZM49.3935 7.466L49.3415 7.518L49.2895 7.466L49.3415 7.414L49.3935 7.466ZM50.1215 8.558H50.0695L50.0175 8.48L50.0695 8.454L50.1215 8.558ZM51.2135 9.13C51.1442 9.30333 51.1095 9.39867 51.1095 9.416C51.0055 9.45067 50.7888 9.468 50.4595 9.468C50.6328 9.39867 50.8842 9.286 51.2135 9.13ZM50.1475 11.08C50.1475 11.236 50.0348 11.366 49.8095 11.47C49.8095 11.4873 49.8182 11.5133 49.8355 11.548C49.8528 11.5653 49.8615 11.6 49.8615 11.652C49.8615 11.704 49.8095 11.7733 49.7055 11.86C49.6188 11.9467 49.5495 11.99 49.4975 11.99C49.4628 11.99 49.4368 11.9813 49.4195 11.964C49.4195 11.9293 49.4022 11.912 49.3675 11.912C49.3328 11.912 49.3155 11.9207 49.3155 11.938C49.3155 11.9553 49.2982 11.964 49.2635 11.964C49.0902 11.964 49.0035 11.7993 49.0035 11.47C49.0035 11.262 49.1248 11.158 49.3675 11.158C49.4022 11.158 49.4455 11.21 49.4975 11.314C49.5842 11.21 49.7055 11.0713 49.8615 10.898H50.1215C50.1215 10.898 50.1302 10.924 50.1475 10.976C50.1475 11.0107 50.1475 11.0453 50.1475 11.08ZM50.1215 15.318C50.1215 15.3527 50.0955 15.4047 50.0435 15.474C49.9915 15.526 49.9655 15.5693 49.9655 15.604C49.9655 15.604 49.9135 15.604 49.8095 15.604C49.7055 15.604 49.6535 15.5347 49.6535 15.396C49.6535 15.2227 49.7228 15.136 49.8615 15.136C49.8962 15.136 49.9048 15.1533 49.8875 15.188C49.8875 15.2053 49.9048 15.214 49.9395 15.214C49.9915 15.214 50.0175 15.1967 50.0175 15.162C50.0175 15.162 50.0348 15.1793 50.0695 15.214C50.1042 15.2487 50.1215 15.2833 50.1215 15.318ZM50.7455 16.618C50.7455 16.618 50.6502 16.7047 50.4595 16.878V16.436C50.4768 16.3147 50.5635 16.2713 50.7195 16.306C50.6848 16.3407 50.6242 16.384 50.5375 16.436C50.5548 16.4533 50.6242 16.462 50.7455 16.462V16.618ZM51.7595 19.712C51.6902 19.3653 51.6555 18.802 51.6555 18.022C51.6555 17.8313 51.6555 17.7447 51.6555 17.762C51.6902 17.7273 51.7248 17.6927 51.7595 17.658V19.712ZM52.7215 19.894C52.6348 19.998 52.5828 20.05 52.5655 20.05C52.5828 20.0327 52.5915 19.998 52.5915 19.946C52.5915 19.8767 52.6002 19.842 52.6175 19.842C52.6695 19.8767 52.7042 19.894 52.7215 19.894ZM51.0055 20.726C50.9708 20.6393 50.9188 20.5353 50.8495 20.414C50.9188 20.4313 50.9708 20.518 51.0055 20.674V20.726ZM54.1255 23.976H53.9695V23.898H54.1255V23.976ZM52.9295 24.028L52.7735 23.976C52.7908 23.9587 52.8255 23.9327 52.8775 23.898C52.9122 23.95 52.9295 23.9933 52.9295 24.028ZM52.2275 24.236L52.2015 24.314L52.0715 24.262L52.0975 24.184L52.2275 24.236ZM61.1195 6.166V6.088H60.9895V6.166H61.1195ZM58.8055 5.802V5.75H58.5455V5.802H58.8055ZM59.6895 8.09V8.012H59.5855V8.09H59.6895ZM59.1695 8.116H59.0395C59.0742 8.116 59.0915 8.15933 59.0915 8.246C59.0915 8.15933 59.1175 8.116 59.1695 8.116ZM58.6235 8.454V8.402H58.5195V8.454H58.6235ZM57.6875 8.246V8.168L57.4015 8.22V8.298L57.6875 8.246ZM52.5135 6.686C52.5135 6.59933 52.4442 6.49533 52.3055 6.374L52.3835 6.452C52.3488 6.48667 52.3142 6.504 52.2795 6.504C52.3142 6.504 52.3662 6.53 52.4355 6.582C52.3835 6.634 52.3575 6.686 52.3575 6.738C52.3575 6.738 52.3748 6.72933 52.4095 6.712C52.4442 6.69467 52.4788 6.686 52.5135 6.686ZM51.7855 8.064C51.6815 8.012 51.6122 7.986 51.5775 7.986L51.6555 8.09C51.5515 8.142 51.4995 8.18533 51.4995 8.22H51.6555C51.7422 8.13333 51.7855 8.08133 51.7855 8.064ZM58.2075 16.436V16.358H58.0775V16.436H58.2075ZM54.9315 17.19L54.7755 17.086L54.7235 17.138L54.8795 17.242L54.9315 17.19ZM55.1135 16.982C55.0962 16.982 55.0442 16.9733 54.9575 16.956C54.8882 16.956 54.7668 16.982 54.5935 17.034C54.4202 17.0687 54.3162 17.086 54.2815 17.086C54.2468 17.086 54.2035 17.1033 54.1515 17.138C54.1168 17.1553 54.0908 17.164 54.0735 17.164C54.1082 17.164 54.1428 17.1727 54.1775 17.19C54.2295 17.2073 54.2728 17.216 54.3075 17.216C54.2728 17.216 54.3508 17.1727 54.5415 17.086C54.5762 17.1207 54.5848 17.1467 54.5675 17.164C54.4982 17.2333 54.4635 17.268 54.4635 17.268C54.4635 17.268 54.5068 17.268 54.5935 17.268C54.5935 17.1467 54.6715 17.0687 54.8275 17.034C54.9315 17.0167 55.0268 16.9993 55.1135 16.982ZM53.8135 19.972C53.7788 19.764 53.7182 19.4607 53.6315 19.062V19.426C53.6315 19.5127 53.6922 19.6947 53.8135 19.972ZM54.0475 20.206C53.9955 20.1367 53.9002 20.0673 53.7615 19.998C53.7615 20.0673 53.7442 20.154 53.7095 20.258C53.7615 20.2753 53.8395 20.31 53.9435 20.362C53.9608 20.3447 53.9782 20.3187 53.9955 20.284C54.0128 20.2493 54.0302 20.2233 54.0475 20.206ZM54.3595 20.882V20.804H53.9435V20.882H54.3595ZM51.7335 19.816C51.7162 19.816 51.6815 19.816 51.6295 19.816C51.5775 19.8333 51.5428 19.842 51.5255 19.842C51.5255 19.9287 51.5515 19.972 51.6035 19.972C51.6555 19.9373 51.6988 19.8853 51.7335 19.816ZM54.9315 23.482H54.8535L54.8015 23.586L54.8795 23.612L54.9315 23.482ZM54.2295 24.028V23.872L54.1255 23.768H53.9955C53.9608 23.768 53.9175 23.7853 53.8655 23.82C53.8308 23.8547 53.8048 23.872 53.7875 23.872C53.7528 23.872 53.6402 23.8547 53.4495 23.82C53.2588 23.8027 53.1028 23.794 52.9815 23.794C52.9815 23.8113 52.9728 23.8373 52.9555 23.872C52.8862 23.82 52.7822 23.7593 52.6435 23.69C52.4008 23.5513 52.1235 23.352 51.8115 23.092L51.7075 23.196C51.8462 23.352 52.0542 23.5253 52.3315 23.716C52.9902 23.924 53.2848 24.028 53.2155 24.028C53.2502 24.028 53.2935 24.0193 53.3455 24.002C53.3975 24.002 53.4408 24.002 53.4755 24.002C53.5102 24.002 53.5622 24.0107 53.6315 24.028C53.7008 24.0453 53.7528 24.054 53.7875 24.054C53.7355 24.054 53.6835 24.028 53.6315 23.976C53.7182 23.924 53.7962 23.898 53.8655 23.898C53.9348 23.898 53.9522 23.9067 53.9175 23.924L53.8395 24.028H54.2295ZM52.5655 23.872L52.4095 23.768L52.3835 23.82L52.5135 23.924L52.5655 23.872ZM77.6923 4.892C77.6923 5.11733 77.5536 5.23 77.2763 5.23C76.9989 5.23 76.8516 5.126 76.8343 4.918V4.632L76.9123 4.684C76.9643 4.684 77.0596 4.67533 77.1983 4.658C77.3543 4.64067 77.4583 4.632 77.5103 4.632C77.6316 4.632 77.6923 4.71867 77.6923 4.892ZM71.7383 13.706L70.9843 13.654V13.55L71.7383 13.602V13.706ZM78.4203 17.84C78.4203 18.048 78.3596 18.3253 78.2383 18.672C78.2036 18.7587 78.0909 18.9667 77.9003 19.296C77.7963 19.4693 77.5536 19.816 77.1723 20.336C77.0163 20.4227 76.8429 20.6133 76.6523 20.908C76.6869 20.908 76.7563 20.856 76.8603 20.752C76.6523 21.0813 76.5136 21.246 76.4443 21.246C76.4443 21.246 76.4096 21.2027 76.3403 21.116C75.6296 21.6013 75.1443 21.844 74.8843 21.844C74.9016 21.844 74.8756 21.8093 74.8063 21.74C74.7369 21.8093 74.6763 21.844 74.6243 21.844C74.5896 21.844 74.5723 21.8613 74.5723 21.896C74.5896 21.9307 74.5723 21.948 74.5203 21.948C74.4856 21.948 74.4683 21.9393 74.4683 21.922C74.4856 21.9047 74.4683 21.896 74.4163 21.896C74.3816 21.896 74.2689 21.9393 74.0783 22.026C73.8876 22.1127 73.7489 22.1733 73.6623 22.208C72.8996 22.416 71.8076 22.65 70.3863 22.91C70.3516 22.91 70.2996 22.9273 70.2303 22.962C70.1783 22.9967 70.1263 23.014 70.0743 23.014C70.0396 23.014 69.6323 23.0313 68.8523 23.066C68.0896 23.1007 67.6823 23.118 67.6303 23.118C67.4916 23.118 66.7636 22.962 65.4463 22.65C65.5329 22.7367 65.6716 22.832 65.8623 22.936C66.2956 23.1613 66.6336 23.274 66.8763 23.274C66.9283 23.274 66.9629 23.2653 66.9803 23.248C67.0149 23.2307 67.0583 23.222 67.1103 23.222C67.3183 23.222 67.4569 23.3173 67.5263 23.508C67.5609 23.508 67.6043 23.4907 67.6563 23.456C67.7256 23.4213 67.7776 23.404 67.8123 23.404C67.8123 23.4213 67.8036 23.4387 67.7863 23.456C67.7689 23.4907 67.7603 23.5253 67.7603 23.56H67.8903C67.9596 23.4387 67.9943 23.404 67.9943 23.456L68.0203 23.56L68.2543 23.508C68.1849 23.4387 68.1503 23.3953 68.1503 23.378C68.3063 23.3607 68.7829 23.352 69.5803 23.352C69.5629 23.3693 69.5369 23.3867 69.5023 23.404C69.4676 23.4387 69.4416 23.4647 69.4243 23.482C69.4069 23.4993 69.4156 23.5253 69.4503 23.56C69.4676 23.5427 69.5283 23.5253 69.6323 23.508C69.6843 23.4907 69.6929 23.4387 69.6583 23.352C69.7449 23.352 69.8663 23.3867 70.0223 23.456C70.0743 23.456 70.1003 23.404 70.1003 23.3C70.0136 23.2827 70.1609 23.274 70.5423 23.274C70.9236 23.274 71.5303 23.144 72.3623 22.884C72.8303 22.728 73.3156 22.5113 73.8183 22.234V22.468C73.8876 22.52 73.9656 22.5287 74.0523 22.494C73.9656 22.5113 73.7923 22.598 73.5323 22.754C73.5496 22.7887 73.5756 22.806 73.6103 22.806C71.4263 23.638 69.8489 24.054 68.8783 24.054C68.8263 24.054 68.7656 24.0367 68.6963 24.002C68.6443 23.9673 68.5923 23.95 68.5403 23.95C68.4883 23.95 68.3843 23.9673 68.2283 24.002C68.0896 24.0367 68.0029 24.054 67.9683 24.054C67.9163 24.054 67.7256 24.002 67.3963 23.898C67.0843 23.8113 66.9023 23.768 66.8503 23.768C66.8156 23.768 66.7896 23.7767 66.7723 23.794C66.7723 23.8113 66.7549 23.82 66.7203 23.82C66.3389 23.82 65.8623 23.716 65.2903 23.508C64.6143 23.2653 64.1549 22.9707 63.9123 22.624C63.9469 22.624 64.0683 22.728 64.2763 22.936C64.3803 22.9533 64.5103 22.988 64.6663 23.04C64.7183 23.0573 64.8396 23.1353 65.0303 23.274C65.1689 23.3953 65.2643 23.456 65.3163 23.456C65.3509 23.456 65.4203 23.456 65.5243 23.456C65.6283 23.456 65.7149 23.456 65.7843 23.456C65.5589 23.3173 65.1949 23.0487 64.6923 22.65C64.6923 22.598 64.6836 22.5287 64.6663 22.442C64.4236 22.3033 64.1809 22.1733 63.9383 22.052C63.5916 21.8267 63.3663 21.6013 63.2623 21.376C63.1236 21.1333 63.1496 20.8387 63.3403 20.492C63.1669 20.3707 62.9849 20.2493 62.7943 20.128C62.4649 19.9027 62.3003 19.712 62.3003 19.556C62.3003 19.504 62.3089 19.4607 62.3263 19.426C62.3436 19.3913 62.3523 19.374 62.3523 19.374H62.5863C62.5516 19.374 62.6469 19.426 62.8723 19.53C62.8723 19.53 62.9936 19.4433 63.2363 19.27C63.2189 19.218 63.1929 19.1573 63.1583 19.088C63.1236 19.0187 63.0456 18.9753 62.9243 18.958C62.8029 18.6807 62.7423 18.4727 62.7423 18.334V18.1C62.7769 18.1 62.8896 18.048 63.0803 17.944C63.0629 17.9093 62.9936 17.7187 62.8723 17.372C63.0456 17.632 63.1756 17.762 63.2623 17.762C63.2623 17.762 63.3576 17.658 63.5483 17.45C63.5483 17.3633 63.5223 17.2247 63.4703 17.034C63.5223 17.034 63.6089 17.0773 63.7303 17.164C63.8516 17.2333 63.9383 17.268 63.9903 17.268C64.0423 17.268 64.1289 17.216 64.2503 17.112C64.3023 17.112 64.3803 17.164 64.4843 17.268C64.5189 17.268 64.5796 17.2333 64.6663 17.164C64.7529 17.0947 64.8223 17.0513 64.8743 17.034C64.8916 17.0513 64.9176 17.0773 64.9523 17.112C65.0043 17.1293 65.0389 17.1467 65.0563 17.164C64.9523 17.3893 64.9003 17.5453 64.9003 17.632C64.9003 18.0133 65.0129 18.204 65.2383 18.204C65.3769 18.204 65.5503 18.0567 65.7583 17.762C65.9836 18.4207 66.1396 18.75 66.2263 18.75C66.2609 18.75 66.2696 18.7413 66.2523 18.724C66.2523 18.7067 66.2783 18.698 66.3303 18.698C66.3996 18.698 66.5556 18.8453 66.7983 19.14C66.8676 19.2613 66.9803 19.4087 67.1363 19.582C67.4656 19.7727 67.7516 19.868 67.9943 19.868H68.9823C69.7103 19.868 70.4123 19.7727 71.0883 19.582C71.4869 19.426 72.0936 19.2093 72.9083 18.932C73.0643 18.9147 73.3069 18.8713 73.6363 18.802C73.9136 18.698 74.2689 18.4467 74.7023 18.048C74.7369 17.996 74.7716 17.9267 74.8063 17.84C75.1009 17.6147 75.2743 17.346 75.3263 17.034C75.0836 16.7393 74.5203 16.5487 73.6363 16.462C73.4456 16.462 73.1509 16.4447 72.7523 16.41C72.7176 16.3753 72.6396 16.3147 72.5183 16.228C72.1716 16.176 71.6256 16.072 70.8803 15.916C70.6896 15.8813 70.3863 15.786 69.9703 15.63C69.5716 15.474 69.3549 15.396 69.3203 15.396C69.1989 15.396 69.1383 15.4393 69.1383 15.526V15.604C69.0516 15.5867 68.9649 15.552 68.8783 15.5V15.526V15.63C69.2423 15.942 69.7709 16.2193 70.4643 16.462C71.6603 16.878 72.2669 17.086 72.2843 17.086V17.19C71.4869 17.034 70.6809 16.8173 69.8663 16.54L69.7103 16.384C68.9996 16.228 68.3236 15.812 67.6823 15.136C67.6303 14.9453 67.5263 14.6767 67.3703 14.33C67.1969 14.226 66.9629 14.044 66.6683 13.784C66.4083 13.4373 66.2783 12.952 66.2783 12.328C66.2783 11.1147 66.6856 9.82333 67.5003 8.454C68.2283 7.27533 69.5543 6.13133 71.4783 5.022C71.6516 5.022 71.8943 4.97867 72.2063 4.892C72.5009 4.684 72.9343 4.38067 73.5063 3.982C74.0609 3.63533 74.7109 3.462 75.4563 3.462C75.6469 3.462 75.8463 3.514 76.0543 3.618C76.2623 3.722 76.3663 3.852 76.3663 4.008C76.3663 4.14667 76.0543 4.36333 75.4303 4.658C74.5463 5.05667 74.0696 5.27333 74.0003 5.308C74.1389 5.36 74.3036 5.35133 74.4943 5.282C74.4943 5.282 74.4423 5.334 74.3383 5.438C74.4076 5.49 74.5203 5.57667 74.6763 5.698C74.6069 5.71533 74.4596 5.84533 74.2343 6.088L74.3123 6.166C74.6243 5.97533 75.1009 5.74133 75.7423 5.464L76.0543 5.516C75.9676 5.65467 75.8463 5.828 75.6903 6.036C75.5343 6.14 75.3089 6.28733 75.0143 6.478C73.0729 7.81267 71.5476 9.24267 70.4383 10.768C70.2823 10.976 70.0743 11.2793 69.8143 11.678C69.7796 11.7647 69.8316 11.8947 69.9703 12.068C69.9009 12.068 69.8229 12.016 69.7363 11.912C69.6843 11.9467 69.6149 12.042 69.5283 12.198C69.7363 12.3887 70.0569 12.5533 70.4903 12.692C71.0969 12.9 71.4869 13.056 71.6603 13.16C72.2496 13.4373 72.5183 13.576 72.4663 13.576C72.4836 13.576 72.5356 13.5327 72.6223 13.446C72.7263 13.5153 72.7696 13.5673 72.7523 13.602C72.7349 13.654 72.6916 13.68 72.6223 13.68C72.3623 13.5933 71.9203 13.4373 71.2963 13.212C70.7589 13.004 70.4643 12.9 70.4123 12.9C70.2563 12.9 70.1089 12.9693 69.9703 13.108V13.238C70.1783 13.3247 70.4903 13.446 70.9063 13.602C70.6983 13.5673 70.5163 13.5673 70.3603 13.602L75.0663 14.902C75.1009 14.902 75.1356 14.8933 75.1703 14.876C75.0316 14.7373 74.7196 14.5813 74.2343 14.408C73.8876 14.2867 73.5409 14.1653 73.1943 14.044C73.1596 13.9747 73.1076 13.8793 73.0383 13.758C72.9863 13.7753 72.9429 13.7753 72.9083 13.758V13.68C72.9083 13.6453 72.9516 13.628 73.0383 13.628C73.0903 13.628 73.1683 13.6713 73.2723 13.758C73.3936 13.8447 73.4803 13.888 73.5323 13.888C73.5843 13.888 73.6103 13.8793 73.6103 13.862C73.6103 13.8447 73.6276 13.836 73.6623 13.836C73.7143 13.836 73.8269 13.8967 74.0003 14.018C74.1736 14.122 74.2776 14.174 74.3123 14.174C74.3469 14.174 74.3556 14.1653 74.3383 14.148C74.3383 14.1307 74.3643 14.122 74.4163 14.122C74.5549 14.122 74.9276 14.2607 75.5343 14.538C75.9329 14.7113 76.2623 14.98 76.5223 15.344C76.5916 15.448 76.6003 15.5607 76.5483 15.682C76.6696 15.7687 76.8516 15.8813 77.0943 16.02C77.1636 16.0547 77.3716 16.2453 77.7183 16.592C77.7183 16.6093 77.7269 16.618 77.7443 16.618C77.7443 16.6007 77.7443 16.566 77.7443 16.514C77.7443 16.4793 77.7096 16.4273 77.6403 16.358C77.5883 16.2887 77.5623 16.2367 77.5623 16.202C77.4583 15.9767 77.2849 15.7773 77.0423 15.604C76.7996 15.4133 76.6523 15.2833 76.6003 15.214C77.0163 15.318 77.3716 15.4913 77.6663 15.734C77.8916 15.942 78.0389 16.202 78.1083 16.514C78.3163 17.398 78.4203 17.84 78.4203 17.84ZM76.3403 21.35L75.7423 21.818L75.6903 21.74L76.2883 21.272L76.3403 21.35ZM75.6643 21.844L74.8323 22.26V22.182L75.6383 21.766L75.6643 21.844ZM74.6503 22.364H74.3903V22.26H74.6503V22.364ZM75.4823 4.424C75.4476 4.424 75.3869 4.41533 75.3003 4.398C75.2309 4.36333 75.1789 4.346 75.1443 4.346C75.0229 4.346 74.7976 4.38933 74.4683 4.476C74.4163 4.49333 74.3296 4.53667 74.2083 4.606C74.1043 4.658 74.0349 4.684 74.0003 4.684C74.0003 4.70133 74.0089 4.74467 74.0263 4.814C74.0609 4.88333 74.0783 4.92667 74.0783 4.944C74.4076 4.80533 74.8756 4.632 75.4823 4.424ZM76.6003 20.96L76.5483 20.882L76.3663 21.09L76.4183 21.142L76.6003 20.96ZM73.6623 22.52V22.442H73.4543V22.52H73.6623ZM69.9183 23.456V23.378H69.7623V23.456H69.9183ZM69.3723 23.508L69.1643 23.43V23.508L69.3463 23.586L69.3723 23.508ZM69.0863 23.586V23.482H68.9303V23.586H69.0863ZM68.8783 23.456H68.5403C68.4363 23.456 68.3843 23.508 68.3843 23.612H68.6703C68.7049 23.612 68.7743 23.56 68.8783 23.456ZM82.1159 25.198H82.0379V25.094H82.1159V25.198ZM81.9859 26.108H81.9079V25.692H81.9859V26.108ZM94.1019 7.622H93.8419V7.544H94.1019V7.622ZM92.5159 6.426L92.4899 6.452L92.4119 6.4L92.4639 6.348L92.5159 6.426ZM93.3479 7.622H93.1919V7.544H93.3479V7.622ZM92.3599 6.426C92.3079 6.426 92.2213 6.43467 92.0999 6.452C91.9959 6.46933 91.9266 6.478 91.8919 6.478C91.8573 6.478 91.8399 6.44333 91.8399 6.374C91.9959 6.40867 92.1693 6.426 92.3599 6.426ZM90.1499 7.024H89.9939V6.946H90.1499V7.024ZM89.9419 7.024H89.8379V6.946H89.9419V7.024ZM86.8479 3.618C86.8479 3.774 86.7873 3.96467 86.6659 4.19C86.5619 4.25933 86.4319 4.32 86.2759 4.372C86.2759 4.38933 86.2586 4.424 86.2239 4.476C86.2066 4.51067 86.1806 4.528 86.1459 4.528C86.0593 4.528 85.8773 4.43267 85.5999 4.242C85.6866 3.60067 85.8859 3.28 86.1979 3.28C86.2673 3.28 86.4839 3.39267 86.8479 3.618ZM84.2479 4.372C84.1959 4.56267 84.0659 4.788 83.8579 5.048C83.8406 5.03067 83.7973 4.95267 83.7279 4.814C83.8319 4.72733 84.0053 4.58 84.2479 4.372ZM82.9219 5.178C82.7833 5.35133 82.6706 5.438 82.5839 5.438C82.3933 5.438 82.2979 5.35133 82.2979 5.178L82.3759 5.048C82.3413 5.048 82.4279 5.1 82.6359 5.204C82.7399 5.152 82.8093 5.11733 82.8439 5.1L82.9219 5.178ZM83.1299 5.802C83.1299 5.87133 83.0693 5.96667 82.9479 6.088C82.8613 5.94933 82.8699 5.81933 82.9739 5.698C83.0779 5.698 83.1299 5.73267 83.1299 5.802ZM95.1679 7.206C95.0639 7.17133 94.8733 7.154 94.5959 7.154C94.5786 7.154 94.5613 7.17133 94.5439 7.206C94.5439 7.22333 94.5266 7.232 94.4919 7.232C94.4573 7.232 94.4399 7.22333 94.4399 7.206C94.4573 7.17133 94.4573 7.154 94.4399 7.154C94.0759 7.154 93.8159 7.17133 93.6599 7.206C93.5733 7.24067 93.4953 7.29267 93.4259 7.362C93.4606 7.362 93.7293 7.362 94.2319 7.362C94.2146 7.43133 94.2233 7.55267 94.2579 7.726C94.2233 7.74333 94.1539 7.76933 94.0499 7.804C93.4086 7.83867 92.5159 7.87333 91.3719 7.908C91.3719 7.92533 91.3633 7.94267 91.3459 7.96C91.3286 7.97733 91.3199 7.99467 91.3199 8.012C91.6319 8.064 91.9526 8.09 92.2819 8.09C92.3166 8.09 92.3599 8.08133 92.4119 8.064C92.4639 8.02933 92.5073 8.012 92.5419 8.012C92.5766 8.012 92.6113 8.012 92.6459 8.012C92.6633 8.02933 92.6893 8.038 92.7239 8.038C92.6719 8.038 92.7326 8.00333 92.9059 7.934C92.9233 7.96867 92.9666 8.02067 93.0359 8.09C93.0533 8.07267 93.0706 8.04667 93.0879 8.012C93.1053 7.96 93.1226 7.934 93.1399 7.934C93.1226 7.96867 93.1139 7.99467 93.1139 8.012C93.1486 8.064 93.1833 8.09 93.2179 8.09C93.3393 8.09 93.4346 8.05533 93.5039 7.986C93.4866 7.95133 93.4519 7.95133 93.3999 7.986C93.3999 7.96867 93.4173 7.934 93.4519 7.882C93.5213 7.882 93.5733 7.92533 93.6079 8.012C93.6946 7.92533 93.7466 7.882 93.7639 7.882C93.7466 7.882 93.7726 7.92533 93.8419 8.012C93.9113 7.97733 93.9806 7.92533 94.0499 7.856C94.0499 7.87333 94.0326 7.89933 93.9979 7.934C93.9806 7.95133 93.9806 7.97733 93.9979 8.012C94.0326 7.97733 94.1019 7.96 94.2059 7.96C94.2406 7.92533 94.2233 7.908 94.1539 7.908C94.2579 7.83867 94.3793 7.804 94.5179 7.804C94.6393 7.804 94.7433 7.856 94.8299 7.96L94.7779 8.012C93.4779 8.064 91.9786 8.22867 90.2799 8.506C90.2973 8.506 90.3319 8.52333 90.3839 8.558C90.4879 8.558 90.9559 8.558 91.7879 8.558C91.8226 8.558 91.8399 8.54933 91.8399 8.532C91.8573 8.49733 91.8833 8.48 91.9179 8.48C91.9353 8.48 91.9959 8.49733 92.0999 8.532C92.2039 8.56667 92.2733 8.584 92.3079 8.584C92.2039 8.67067 92.0479 8.714 91.8399 8.714C91.4759 8.73133 91.2766 8.74867 91.2419 8.766C91.2246 8.78333 91.1899 8.80933 91.1379 8.844C91.1033 8.86133 91.0339 8.87867 90.9299 8.896C90.8259 8.91333 90.7653 8.922 90.7479 8.922C90.7133 8.922 90.6613 8.91333 90.5919 8.896C90.5399 8.87867 90.4966 8.87 90.4619 8.87C90.3579 8.87 90.2799 8.87867 90.2279 8.896C90.2279 8.98267 90.1933 9.03467 90.1239 9.052C90.0719 9.06933 89.5346 9.09533 88.5119 9.13C88.3733 9.13 88.1479 9.156 87.8359 9.208C87.5413 9.26 87.3853 9.286 87.3679 9.286C87.3333 9.286 87.2639 9.286 87.1599 9.286C87.0559 9.30333 86.9866 9.312 86.9519 9.312C86.9346 9.312 86.8826 9.32933 86.7959 9.364C86.7093 9.38133 86.6486 9.39 86.6139 9.39C86.5793 9.39 86.5706 9.39 86.5879 9.39C86.5879 9.37267 86.5706 9.364 86.5359 9.364C86.4146 9.364 86.3366 9.40733 86.3019 9.494C86.1286 9.89267 85.9726 10.4907 85.8339 11.288C85.8339 11.3053 85.8426 11.3313 85.8599 11.366C85.9639 10.9847 86.1199 10.4387 86.3279 9.728C86.3453 9.728 86.3713 9.73667 86.4059 9.754C86.4579 9.754 86.4839 9.754 86.4839 9.754C86.5186 9.68467 86.5706 9.598 86.6399 9.494C86.5879 9.66733 86.2499 10.9847 85.6259 13.446C85.6259 13.4633 85.6346 13.4893 85.6519 13.524C85.5826 13.68 85.5046 14.0007 85.4179 14.486C85.3139 15.1447 85.2446 15.5607 85.2099 15.734C85.0193 16.566 84.8459 17.5453 84.6899 18.672C84.5339 19.9027 84.3953 20.8127 84.2739 21.402C84.2739 21.3673 84.2653 21.2807 84.2479 21.142C84.2306 20.986 84.2219 20.8993 84.2219 20.882C84.2219 20.882 84.2393 20.648 84.2739 20.18C84.3259 19.712 84.3519 19.348 84.3519 19.088C84.3173 19.1227 84.2999 19.1747 84.2999 19.244C84.2999 19.2267 84.2653 19.218 84.1959 19.218C84.0919 19.218 83.9966 19.4953 83.9099 20.05C83.8579 20.4487 83.7973 20.8733 83.7279 21.324C83.7279 21.3587 83.7106 21.4367 83.6759 21.558C83.6586 21.662 83.6413 21.818 83.6239 22.026C83.6066 22.0607 83.5719 22.104 83.5199 22.156C83.5199 22.2253 83.5633 22.26 83.6499 22.26L83.5199 23.118C83.4159 23.118 83.3639 23.092 83.3639 23.04C83.3639 23.0227 83.3899 22.7193 83.4419 22.13C83.4939 21.5407 83.5286 21.0987 83.5459 20.804C83.4766 20.8387 83.4246 20.9253 83.3899 21.064C83.3726 19.9893 83.5373 18.516 83.8839 16.644C83.8666 16.5747 83.8579 16.462 83.8579 16.306C83.8753 16.2367 83.9099 16.124 83.9619 15.968C83.9966 15.9507 83.9793 15.942 83.9099 15.942C83.8059 15.942 83.7453 16.046 83.7279 16.254C83.7279 16.3753 83.7106 16.4793 83.6759 16.566C83.6586 16.6527 83.6239 16.748 83.5719 16.852C83.5373 17.216 83.4679 17.7707 83.3639 18.516C83.1906 19.2613 83.1039 19.9113 83.1039 20.466C83.1039 20.518 83.0779 20.6307 83.0259 20.804C83.0433 20.8733 83.0433 20.9947 83.0259 21.168C83.0086 21.2373 82.9826 21.35 82.9479 21.506C82.9306 21.6447 82.9133 21.8353 82.8959 22.078C82.8786 22.3207 82.8699 22.494 82.8699 22.598V20.258L82.6099 22.572C82.6099 22.6933 82.6186 22.7713 82.6359 22.806C82.6533 22.7713 82.6879 22.728 82.7399 22.676H82.7919C82.8093 22.8493 82.7746 22.9533 82.6879 22.988C82.7053 23.0227 82.7313 23.0487 82.7659 23.066C82.7486 23.0833 82.7399 23.1093 82.7399 23.144C82.7399 23.1093 82.7226 23.0747 82.6879 23.04L82.6099 25.822C82.5579 25.9433 82.4713 26.1253 82.3499 26.368C82.3326 26.316 82.3066 26.2467 82.2719 26.16C82.2546 26.212 82.2459 26.3073 82.2459 26.446C82.1939 26.2553 82.1766 26.0213 82.1939 25.744C82.2286 25.4667 82.2286 25.2587 82.1939 25.12C82.1593 25.1547 82.1333 25.2587 82.1159 25.432C82.1159 25.432 82.0899 25.4407 82.0379 25.458C81.9859 25.4927 81.9599 25.5273 81.9599 25.562C81.9599 25.6487 81.9166 25.4927 81.8299 25.094C81.8126 25.1113 81.8039 25.146 81.8039 25.198C81.8039 24.886 81.8039 24.4527 81.8039 23.898C81.8386 23.5167 81.8646 23.1093 81.8819 22.676V22.364C81.8473 22.312 81.8213 22.286 81.8039 22.286C81.7866 22.442 81.7693 22.676 81.7519 22.988C81.6306 23.8027 81.5699 24.6347 81.5699 25.484C81.2059 24.548 81.0239 23.9153 81.0239 23.586C81.0239 23.2047 81.1973 22.6587 81.5439 21.948C81.5266 21.8787 81.5179 21.8527 81.5179 21.87C81.5526 21.8007 81.5439 21.7313 81.4919 21.662C81.5959 21.558 81.6306 21.4713 81.5959 21.402C81.5613 21.4367 81.5439 21.4627 81.5439 21.48C81.5439 21.3587 81.5526 21.2807 81.5699 21.246C81.7259 21.038 81.7433 20.8993 81.6219 20.83C81.6913 20.7607 81.7346 20.674 81.7519 20.57C81.7693 20.4313 81.7346 20.336 81.6479 20.284C81.6479 20.3013 81.6913 20.2753 81.7779 20.206C81.6739 20.0847 81.6826 19.894 81.8039 19.634C81.8039 19.5647 81.8213 19.478 81.8559 19.374C81.6826 19.3047 81.6306 19.244 81.6999 19.192C81.7173 19.1747 81.7346 19.1487 81.7519 19.114C81.7693 19.0793 81.7519 19.01 81.6999 18.906C81.7346 18.9233 81.7606 18.932 81.7779 18.932L81.8299 18.906V18.802C81.6566 18.698 81.5699 18.6027 81.5699 18.516C81.5699 18.5507 81.6133 18.048 81.6999 17.008L82.5839 11.6H82.6359C82.7746 10.4213 82.8439 9.81467 82.8439 9.78C82.8439 9.69333 82.8266 9.60667 82.7919 9.52C82.7053 9.53733 82.5579 9.58067 82.3499 9.65C82.1419 9.702 82.0206 9.728 81.9859 9.728C81.8993 9.728 81.7866 9.74533 81.6479 9.78C81.6826 9.71067 81.6999 9.832 81.6999 10.144C81.4053 10.2307 81.2666 10.274 81.2839 10.274C81.2493 10.274 81.2233 10.2653 81.2059 10.248C81.2059 10.2307 81.1973 10.222 81.1799 10.222C81.1106 9.94467 81.1106 9.78867 81.1799 9.754C81.0933 9.73667 80.9806 9.73667 80.8419 9.754C80.6686 9.78867 80.5819 9.806 80.5819 9.806C80.6166 9.806 80.5559 9.76267 80.3999 9.676C80.2613 9.58933 80.1486 9.546 80.0619 9.546C80.0273 9.546 79.9146 9.56333 79.7239 9.598C79.5333 9.63267 79.4206 9.65 79.3859 9.65C79.1953 9.65 79.0913 9.64133 79.0739 9.624C78.9873 9.572 78.8659 9.494 78.7099 9.39C78.6753 9.35533 78.6579 9.29467 78.6579 9.208C78.6579 9.104 78.7273 9.01733 78.8659 8.948C78.9006 8.948 78.9613 8.974 79.0479 9.026C79.1346 9.06067 79.1953 9.078 79.2299 9.078C79.3166 9.078 79.4033 9.052 79.4899 9C79.4206 8.844 79.3946 8.766 79.4119 8.766C79.3773 8.766 79.3599 8.77467 79.3599 8.792C79.3599 8.792 79.3426 8.792 79.3079 8.792C79.3079 8.792 79.1606 8.67933 78.8659 8.454C78.9006 8.43667 78.9179 8.39333 78.9179 8.324H79.1259C79.1086 8.28933 79.0999 8.22867 79.0999 8.142C79.1693 8.10733 79.2906 8.04667 79.4639 7.96C79.4639 7.94267 79.4553 7.82133 79.4379 7.596C79.4379 7.492 79.4033 7.44 79.3339 7.44V7.31C79.3339 7.27533 79.3426 7.258 79.3599 7.258C79.3773 7.24067 79.3859 7.22333 79.3859 7.206C80.9113 6.82467 82.1679 6.62533 83.1559 6.608C83.1906 6.53867 83.2426 6.44333 83.3119 6.322C83.3986 6.27 83.5373 6.166 83.7279 6.01C83.7453 5.92333 83.7539 5.84533 83.7539 5.776C83.7539 5.89733 83.7713 5.984 83.8059 6.036C83.8579 5.96667 83.8579 5.88867 83.8059 5.802C83.8579 5.854 83.8926 5.91467 83.9099 5.984C83.9273 6.036 83.9793 6.07933 84.0659 6.114C84.0833 6.14867 84.0919 6.192 84.0919 6.244C84.0919 6.27867 84.1093 6.322 84.1439 6.374C84.1439 6.35667 84.2046 6.18333 84.3259 5.854C84.3953 5.66333 84.5253 5.516 84.7159 5.412C84.8026 5.42933 84.8459 5.48133 84.8459 5.568C84.8459 5.65467 84.8546 5.70667 84.8719 5.724C84.8719 5.724 84.9326 5.724 85.0539 5.724C85.2273 5.48133 85.4959 5.16933 85.8599 4.788C85.9813 4.80533 86.0853 4.788 86.1719 4.736H86.3539C86.3539 4.736 86.3626 4.75333 86.3799 4.788C86.3973 4.80533 86.4059 4.83133 86.4059 4.866C86.4059 5.022 86.2933 5.178 86.0679 5.334C85.9466 5.40333 85.8426 5.47267 85.7559 5.542C85.6866 5.594 85.6086 5.672 85.5219 5.776L85.4699 5.802C85.4699 5.854 85.5133 5.91467 85.5999 5.984C85.5306 5.94933 85.4873 5.932 85.4699 5.932C85.4179 5.932 85.3573 5.99267 85.2879 6.114L85.3139 6.244C85.4006 6.22667 85.5479 6.20067 85.7559 6.166C85.7559 6.23533 85.8079 6.33933 85.9119 6.478C85.9813 6.46067 86.0159 6.374 86.0159 6.218C86.0159 5.99267 86.0159 5.87133 86.0159 5.854C86.0679 5.854 86.1459 5.776 86.2499 5.62C86.3193 5.65467 86.4319 5.75867 86.5879 5.932C86.6226 6.036 86.6746 6.192 86.7439 6.4C86.6919 6.4 87.0993 6.4 87.9659 6.4C88.0006 6.4 88.1653 6.39133 88.4599 6.374C88.7719 6.374 88.9453 6.374 88.9799 6.374C89.1706 6.374 89.7773 6.33933 90.7999 6.27C90.6613 6.28733 90.4619 6.33067 90.2019 6.4C90.2019 6.4 90.2453 6.4 90.3319 6.4C90.3493 6.4 90.4273 6.40867 90.5659 6.426C90.7219 6.426 90.8259 6.426 90.8779 6.426C90.9299 6.426 90.9993 6.41733 91.0859 6.4C91.1726 6.38267 91.2333 6.374 91.2679 6.374C91.3719 6.374 91.4239 6.40867 91.4239 6.478C91.1293 6.51267 90.7133 6.54733 90.1759 6.582C90.1586 6.582 90.1413 6.59933 90.1239 6.634C90.1586 6.66867 90.1846 6.686 90.2019 6.686C90.2366 6.686 90.4186 6.67733 90.7479 6.66C91.0773 6.62533 91.2593 6.608 91.2939 6.608C91.3286 6.608 91.3459 6.62533 91.3459 6.66C91.3633 6.67733 91.3893 6.686 91.4239 6.686C91.4413 6.686 91.5019 6.66 91.6059 6.608C91.7099 6.556 91.7793 6.53 91.8139 6.53C91.8139 6.53 91.8573 6.56467 91.9439 6.634C91.9786 6.634 91.9959 6.59933 91.9959 6.53C92.0479 6.582 92.1086 6.608 92.1779 6.608C92.2299 6.608 92.2559 6.56467 92.2559 6.478C92.3079 6.59933 92.3773 6.67733 92.4639 6.712C92.4119 6.712 92.3253 6.72933 92.2039 6.764C92.0999 6.79867 92.0219 6.82467 91.9699 6.842C91.4673 6.85933 90.7133 6.88533 89.7079 6.92C89.6733 6.95467 89.6559 7.05 89.6559 7.206C89.7079 7.154 89.7513 7.128 89.7859 7.128C89.8206 7.128 89.8379 7.13667 89.8379 7.154C89.8379 7.154 89.8553 7.154 89.8899 7.154C89.9246 7.154 89.9333 7.14533 89.9159 7.128C89.9159 7.09333 89.9333 7.076 89.9679 7.076C89.9853 7.076 90.0199 7.102 90.0719 7.154C90.1239 7.18867 90.1673 7.206 90.2019 7.206C90.2366 7.206 90.2713 7.18 90.3059 7.128C90.3406 7.076 90.3753 7.05 90.4099 7.05C90.4446 7.05 90.5486 7.06733 90.7219 7.102C90.8953 7.13667 90.9993 7.154 91.0339 7.154C91.1899 7.154 91.6146 7.128 92.3079 7.076C92.3426 7.05867 92.3426 7.04133 92.3079 7.024C92.4639 7.05867 92.7673 7.076 93.2179 7.076C93.2526 7.076 93.2959 7.076 93.3479 7.076C93.3826 7.05867 93.4173 7.05 93.4519 7.05C93.5733 7.05 93.6686 7.05867 93.7379 7.076L93.8419 6.972C94.1366 6.98933 94.5786 6.998 95.1679 6.998V7.206ZM84.0139 17.32L83.9879 17.502H83.9099L83.9619 17.32H84.0139ZM84.1439 20.44H84.0659V20.31H84.1439V20.44ZM84.0919 20.96H84.0399V20.83H84.0919V20.96ZM82.4279 19.79L82.3759 20.206H82.3239L82.3499 19.79H82.4279ZM83.8579 21.428L83.8319 21.714H83.7539L83.8059 21.428H83.8579ZM84.0659 21.532L83.9879 22.234H83.9099L83.9879 21.532H84.0659ZM83.8319 21.87L83.7799 22.078H83.7019L83.7539 21.87H83.8319ZM83.4159 21.662L83.3899 21.974H83.3119L83.3639 21.662H83.4159ZM82.7139 19.894L82.5319 22.286L82.3759 22.156C82.4106 22.104 82.4279 22.0607 82.4279 22.026C82.4279 22.078 82.4366 22.1127 82.4539 22.13L82.7139 19.894ZM83.5719 22.494H83.5199V22.338H83.5719V22.494ZM83.7019 22.806H83.6239V22.624H83.7019V22.806ZM83.3119 23.04H83.2339V22.884H83.3119V23.04ZM83.2599 23.69H83.2079V23.482H83.2599V23.69ZM80.3999 20.362C80.4346 20.518 80.3826 20.8387 80.2439 21.324C80.1399 21.324 80.0879 21.2893 80.0879 21.22C80.0879 21.3587 80.1919 21.0727 80.3999 20.362ZM82.4539 22.52L82.4019 22.572C82.4193 22.624 82.4279 22.728 82.4279 22.884C82.3759 23.2653 82.3153 23.8547 82.2459 24.652C82.2633 24.6173 82.2459 24.548 82.1939 24.444C82.1419 24.5133 82.1679 24.6433 82.2719 24.834C82.2373 24.938 82.2026 24.9813 82.1679 24.964C82.1333 24.964 82.1159 24.99 82.1159 25.042L82.0639 24.496C82.0813 24.4613 82.0986 24.3573 82.1159 24.184C82.1333 24.1493 82.1593 24.106 82.1939 24.054C82.2806 23.5513 82.3499 22.9533 82.4019 22.26C82.4366 22.3293 82.4539 22.416 82.4539 22.52ZM94.9079 7.804L94.8559 7.752L94.8039 7.804L94.8819 7.856L94.9079 7.804ZM93.3739 7.414V7.362L93.1919 7.31V7.362L93.3739 7.414ZM93.0359 7.362V7.31L92.8279 7.362V7.414L93.0359 7.362ZM92.6199 7.44L92.4899 7.362L92.4379 7.44H92.6199ZM91.5799 7.102V7.024H91.2679V7.102H91.5799ZM90.2799 8.584V8.506H89.8899V8.584H90.2799ZM89.7599 8.558L89.7339 8.506L89.6559 8.558V8.61L89.7599 8.558ZM90.0719 8.948V8.87H89.6559V8.948H90.0719ZM89.3959 8.61L89.2139 8.558C89.1619 8.61 89.1359 8.65333 89.1359 8.688L89.3959 8.61ZM89.4999 8.922V8.87L89.3179 8.896V8.974L89.4999 8.922ZM88.8239 8.688V8.636H88.4859V8.688H88.8239ZM83.6499 6.374C83.5633 6.40867 83.4853 6.46933 83.4159 6.556H83.5979C83.5979 6.46933 83.6153 6.40867 83.6499 6.374ZM85.8599 11.496V11.366H85.7819V11.496H85.8599ZM78.2159 7.934C78.2159 7.79533 78.1466 7.726 78.0079 7.726C77.9906 7.726 77.9473 7.752 77.8779 7.804C77.5486 7.908 77.3839 8.064 77.3839 8.272C77.3839 8.324 77.4359 8.41933 77.5399 8.558C77.6266 8.67933 77.6699 8.75733 77.6699 8.792C77.7046 8.77467 77.7653 8.766 77.8519 8.766C77.8519 8.67933 77.9126 8.54933 78.0339 8.376C78.1553 8.18533 78.2159 8.038 78.2159 7.934ZM84.3519 15.032V14.876H84.2739V15.032H84.3519ZM84.3259 15.162C84.2219 15.1967 84.1526 15.37 84.1179 15.682C84.0486 16.2193 84.0139 16.6007 84.0139 16.826C84.0659 16.7567 84.1093 16.67 84.1439 16.566C84.1786 16.0807 84.2393 15.6127 84.3259 15.162ZM84.0659 16.878H83.9879L83.9619 17.242H84.0139L84.0659 16.878ZM84.3779 19.036L84.2739 18.932L84.2479 18.958L84.3259 19.062L84.3779 19.036ZM83.3379 19.322V19.218H83.2859V19.322H83.3379ZM82.7919 19.764V19.66H82.7139V19.764H82.7919ZM82.4799 19.452H82.4019L82.3499 19.686H82.4279L82.4799 19.452ZM83.3379 22.572V22.208H83.2859V22.572H83.3379ZM83.3119 23.248V23.144H83.2339V23.248H83.3119ZM81.3619 22.416V22.208H81.2839V22.416H81.3619Z" fill="white"/>
<g clip-path="url(#clip0_81_7175)">
<path d="M68.1192 45.0949C66.9449 42.2598 64.7367 40.0517 61.9016 38.8774C60.4964 38.2954 59.019 38.0002 57.5103 38.0002C54.6764 38.0002 51.9804 39.0281 49.8713 40.9035L44.215 38.5605L42.8289 41.9067C39.4376 40.5108 35.5296 41.2705 32.8984 43.9017C30.2673 46.5329 29.5075 50.4409 30.9034 53.8322L27.5572 55.2183L29.9003 60.8748C26.9859 64.1555 26.1862 68.83 27.8741 72.9051C29.6592 77.2147 33.827 79.9996 38.4922 80C38.4925 80 38.4927 80 38.493 80C40.0014 80 41.479 79.7048 42.8844 79.1227C45.7195 77.9484 47.9277 75.7402 49.102 72.9052C50.2763 70.0701 50.2763 66.9473 49.102 64.1123C47.414 60.0372 43.5431 57.2973 39.1626 57.0383L36.8196 51.3818L33.2795 52.8481C32.2809 50.4135 32.8279 47.6093 34.7167 45.7204C36.6057 43.8314 39.4098 43.2845 41.8445 44.283L40.3781 47.8231L46.0347 50.1661C46.2937 54.5466 49.0336 58.4175 53.1086 60.1055C54.5141 60.6876 55.9918 60.9828 57.5008 60.9828C57.5011 60.9828 57.5008 60.9828 57.5011 60.9828C62.1658 60.9828 66.3339 58.1977 68.119 53.8879C69.2936 51.0527 69.2936 47.93 68.1192 45.0949ZM33.6579 56.8476C34.2766 56.5914 34.9859 56.8852 35.2421 57.5038C35.4983 58.1225 35.2046 58.8318 34.5859 59.088C33.9672 59.3442 33.258 59.0504 33.0017 58.4318C32.7455 57.8131 33.0393 57.1038 33.6579 56.8476ZM36.1674 62.9059C36.907 62.5995 37.6849 62.4442 38.4794 62.4442C40.9463 62.4442 43.1488 63.9137 44.0908 66.1879C44.7097 67.6818 44.7086 69.3296 44.0879 70.8281C43.4672 72.3265 42.3026 73.4925 40.8089 74.1113C40.0693 74.4177 39.2914 74.573 38.4968 74.573C36.03 74.573 33.8274 73.1035 32.8854 70.8294C31.6058 67.74 33.0782 64.1856 36.1674 62.9059ZM48.0847 45.5893C47.8285 46.208 47.1192 46.5017 46.5005 46.2455C45.8818 45.9893 45.5881 45.2799 45.8443 44.6613C46.1005 44.0426 46.8099 43.7488 47.4285 44.0051C48.0471 44.2614 48.3409 44.9706 48.0847 45.5893ZM63.108 51.8121C62.1659 54.0863 59.9633 55.5558 57.4966 55.5558C56.702 55.5558 55.9242 55.4004 55.1846 55.0941C52.0952 53.8145 50.6229 50.26 51.9026 47.1706C52.8446 44.8964 55.0472 43.427 57.514 43.427C58.3086 43.427 59.0864 43.5824 59.8261 43.8887C62.9153 45.1684 64.3876 48.7228 63.108 51.8121Z" fill="white"/>
</g>
<defs>
<clipPath id="clip0_81_7175">
<rect width="42" height="42" fill="white" transform="translate(27 38)"/>
</clipPath>
</defs>
</svg>
