<svg width="18" height="18" viewBox="0 0 18 18" fill="none" xmlns="http://www.w3.org/2000/svg">
<path d="M5.42864 11.0213C5.56247 11.1543 5.74351 11.229 5.93221 11.229C6.12092 11.229 6.30196 11.1543 6.43579 11.0213L9.00007 8.49272L11.5286 11.0213C11.6625 11.1543 11.8435 11.229 12.0322 11.229C12.2209 11.229 12.402 11.1543 12.5358 11.0213C12.6027 10.9549 12.6559 10.8759 12.6921 10.7888C12.7284 10.7018 12.7471 10.6084 12.7471 10.5142C12.7471 10.4199 12.7284 10.3265 12.6921 10.2395C12.6559 10.1524 12.6027 10.0734 12.5358 10.007L9.50721 6.97844C9.44081 6.91149 9.36181 6.85835 9.27477 6.82209C9.18773 6.78582 9.09437 6.76715 9.00007 6.76715C8.90578 6.76715 8.81242 6.78582 8.72537 6.82209C8.63833 6.85835 8.55933 6.91149 8.49293 6.97844L5.42864 10.007C5.36169 10.0734 5.30856 10.1524 5.27229 10.2395C5.23603 10.3265 5.21736 10.4199 5.21736 10.5142C5.21736 10.6084 5.23603 10.7018 5.27229 10.7888C5.30856 10.8759 5.36169 10.9549 5.42864 11.0213Z" fill="white"/>
</svg>
