<svg width="37" height="34" viewBox="0 0 37 34" fill="none" xmlns="http://www.w3.org/2000/svg">
<path fill-rule="evenodd" clip-rule="evenodd" d="M33.3177 19.8172C33.0585 19.888 32.8258 20.0603 32.6707 20.2962C32.5156 20.5322 32.4508 20.8125 32.4906 21.0754C32.5821 21.681 32.6346 22.2965 32.648 22.9181C32.6439 23.0569 32.6672 23.192 32.7163 23.3152C32.7655 23.4384 32.8395 23.5471 32.9339 23.6346C33.0283 23.7222 33.141 23.7868 33.2653 23.8245C33.3896 23.8622 33.5229 23.8722 33.657 23.8539C33.791 23.8357 33.9231 23.7895 34.0452 23.7183C34.1673 23.647 34.2768 23.5522 34.3671 23.4395C34.4573 23.3268 34.5265 23.1986 34.5704 23.0628C34.6142 22.9269 34.6318 22.7862 34.6221 22.6493C34.6081 21.9385 34.5489 21.2346 34.4448 20.5421C34.4255 20.4117 34.381 20.2893 34.3138 20.1822C34.2467 20.075 34.1581 19.9852 34.0534 19.9178C33.9486 19.8504 33.8297 19.8068 33.7034 19.7896C33.5771 19.7723 33.446 19.7817 33.3177 19.8172Z" fill="white"/>
<path fill-rule="evenodd" clip-rule="evenodd" d="M30.9898 14.114C30.8762 14.1989 30.7765 14.304 30.6966 14.4232C30.6167 14.5424 30.558 14.6735 30.524 14.8089C30.49 14.9444 30.4813 15.0815 30.4984 15.2124C30.5156 15.3433 30.5581 15.4655 30.6237 15.572C30.9297 16.0648 31.2002 16.5835 31.4334 17.1247C31.5344 17.3604 31.7286 17.53 31.973 17.5964C32.2175 17.6627 32.4923 17.6202 32.7369 17.4784C32.9815 17.3365 33.176 17.1068 33.2775 16.8398C33.379 16.5728 33.3792 16.2905 33.2781 16.0548C33.0143 15.4316 32.7082 14.8337 32.3617 14.2647C32.2957 14.1577 32.2076 14.0688 32.1025 14.0032C31.9975 13.9376 31.8776 13.8965 31.7499 13.8825C31.6223 13.8685 31.4893 13.8817 31.3588 13.9215C31.2283 13.9612 31.1029 14.0267 30.9898 14.114Z" fill="white"/>
<path fill-rule="evenodd" clip-rule="evenodd" d="M18.5563 7.52265C14.8168 7.76378 11.3454 9.44394 8.81897 12.2355C6.2925 15.0272 4.89204 18.7301 4.89061 22.6225L3.91314 21.6222C3.82532 21.5213 3.71913 21.4394 3.60109 21.3815C3.48305 21.3236 3.35565 21.291 3.22674 21.2856C3.09782 21.2802 2.9701 21.3022 2.85143 21.3502C2.73276 21.3983 2.62564 21.4713 2.53667 21.5648C2.44769 21.6583 2.37874 21.7704 2.33404 21.8941C2.28935 22.0178 2.26985 22.1506 2.27676 22.2842C2.28366 22.4178 2.31683 22.5495 2.3742 22.6711C2.43158 22.7928 2.51196 22.9018 2.61041 22.9915L5.34978 25.795C5.53144 25.9796 5.77387 26.0845 6.02397 26.0867C6.27407 26.0889 6.51144 25.9883 6.6841 25.8068L9.28955 23.0681C9.44515 22.8829 9.52461 22.6407 9.5117 22.3909C9.49879 22.1411 9.39449 21.9026 9.22009 21.7241C9.0457 21.5457 8.81438 21.4407 8.5734 21.4306C8.33242 21.4206 8.09997 21.5062 7.92353 21.6701L6.7583 22.8949C6.71566 19.4499 7.923 16.158 10.1411 13.6716C12.3592 11.1851 15.4262 9.68537 18.7345 9.46963C20.457 9.3511 22.1967 9.59021 23.8522 10.173C25.5077 10.7558 27.0459 11.6707 28.3772 12.8642C28.5704 13.0369 28.8193 13.1253 29.0691 13.1099C29.3189 13.0945 29.5492 12.9765 29.7093 12.782C29.8695 12.5875 29.9463 12.3323 29.9229 12.0726C29.8995 11.813 29.7778 11.57 29.5846 11.3973C28.0614 10.0338 26.3019 8.98893 24.4085 8.32372C22.5152 7.6585 20.5258 7.38619 18.5563 7.52265V7.52265Z" fill="white"/>
</svg>
