<svg width="30" height="30" viewBox="0 0 30 30" fill="none" xmlns="http://www.w3.org/2000/svg">
<path opacity="0.8" d="M16.4282 19.2008C16.6175 19.2008 16.799 19.127 16.9329 18.9957C17.0668 18.8644 17.142 18.6863 17.142 18.5006L17.142 10.3862L18.7765 11.9965C18.9109 12.1283 19.0932 12.2024 19.2833 12.2024C19.4734 12.2024 19.6557 12.1283 19.7901 11.9965C19.9245 11.8646 20 11.6858 20 11.4994C20 11.3129 19.9245 11.1341 19.7901 11.0023L16.935 8.20177C16.8346 8.10462 16.7071 8.03881 16.5687 8.01264C16.4302 7.98648 16.2869 8.00112 16.1569 8.05474C16.0266 8.10726 15.915 8.19646 15.8362 8.31108C15.7575 8.42571 15.7151 8.56063 15.7144 8.69886L15.7144 18.5006C15.7144 18.6863 15.7896 18.8644 15.9235 18.9957C16.0573 19.127 16.2389 19.2008 16.4282 19.2008ZM13.8443 21.9453C13.9746 21.8927 14.0862 21.8035 14.165 21.6889C14.2437 21.5743 14.2861 21.4394 14.2868 21.3011L14.2868 11.4994C14.2868 11.3137 14.2116 11.1356 14.0778 11.0043C13.9439 10.873 13.7624 10.7992 13.573 10.7992C13.3837 10.7992 13.2022 10.873 13.0683 11.0043C12.9345 11.1356 12.8593 11.3137 12.8593 11.4994L12.8593 19.6138L11.2247 18.0035C11.1584 17.9379 11.0794 17.8858 10.9924 17.8503C10.9054 17.8147 10.8121 17.7964 10.7179 17.7964C10.6237 17.7964 10.5304 17.8147 10.4434 17.8503C10.3564 17.8858 10.2775 17.9379 10.2111 18.0035C10.1442 18.0686 10.0911 18.1461 10.0549 18.2314C10.0187 18.3167 10 18.4082 10 18.5006C10 18.5931 10.0187 18.6846 10.0549 18.7699C10.0911 18.8552 10.1442 18.9326 10.2111 18.9977L13.0663 21.7982C13.1666 21.8954 13.2941 21.9612 13.4326 21.9874C13.571 22.0135 13.7143 21.9989 13.8443 21.9453Z" fill="white"/>
</svg>
