<svg width="18" height="18" viewBox="0 0 18 18" fill="none" xmlns="http://www.w3.org/2000/svg">
<path d="M11.0218 12.5714C11.1548 12.4375 11.2295 12.2565 11.2295 12.0678C11.2295 11.8791 11.1548 11.698 11.0218 11.5642L8.49321 8.99993L11.0218 6.47136C11.1548 6.33753 11.2295 6.15649 11.2295 5.96779C11.2295 5.77908 11.1548 5.59804 11.0218 5.46421C10.9554 5.39727 10.8764 5.34413 10.7893 5.30786C10.7023 5.2716 10.6089 5.25293 10.5146 5.25293C10.4203 5.25293 10.327 5.2716 10.2399 5.30786C10.1529 5.34413 10.0739 5.39727 10.0075 5.46421L6.97893 8.49279C6.91198 8.55919 6.85884 8.63819 6.82258 8.72523C6.78631 8.81227 6.76764 8.90563 6.76764 8.99993C6.76764 9.09422 6.78631 9.18758 6.82258 9.27463C6.85884 9.36167 6.91198 9.44067 6.97893 9.50707L10.0075 12.5714C10.0739 12.6383 10.1529 12.6914 10.2399 12.7277C10.327 12.764 10.4203 12.7826 10.5146 12.7826C10.6089 12.7826 10.7023 12.764 10.7893 12.7277C10.8764 12.6914 10.9554 12.6383 11.0218 12.5714Z" fill="white"/>
</svg>
