<svg width="2047" height="2062" viewBox="0 0 2047 2062" fill="none" xmlns="http://www.w3.org/2000/svg">
<path opacity="0.2" d="M776.319 559.309C701.585 421.231 626.851 283.153 552.056 144.954H495.503C588.6 283.519 681.636 421.902 774.611 560.285C775.16 559.98 775.77 559.614 776.319 559.309ZM285.272 1084.24C285.211 1083.26 285.211 1082.22 285.15 1081.25C268.007 1082.71 250.803 1084.54 233.721 1085.46C218.835 1086.25 115.814 1080.45 100.928 1081.25V1088.75C128.992 1085.52 245.19 1088.93 273.192 1085.7C277.219 1085.27 281.245 1084.72 285.272 1084.24ZM718.118 734.406C541.807 572.482 480.312 533.206 303.94 371.221V444.59C480.068 582.362 541.258 597.426 717.264 735.138C717.569 734.894 717.813 734.65 718.118 734.406ZM803.406 467.643C761.128 360.06 657.615 107.584 615.337 0H572.876C628.88 107.766 745.998 360.486 801.942 468.192L803.406 467.643ZM430.042 636.459C349.695 582.423 314.067 576.812 233.721 522.716V552.783C313.701 597.243 349.024 593.218 428.944 637.679C429.31 637.313 429.676 636.886 430.042 636.459ZM330.783 1020.44C321.876 1018.98 312.908 1018.67 303.94 1018.37C265.627 1017.09 139.18 1009.16 100.928 1007.88V1018.98C132.469 1017.88 252.084 1023.43 283.624 1022.33C299.303 1021.78 315.043 1021.05 330.783 1020.44ZM450.662 849.187C450.845 848.882 450.967 848.516 451.15 848.211C363.788 819.912 276.426 791.613 189.124 763.315V785.393C251.596 800.64 314.067 815.887 376.538 831.134C401.185 837.233 425.954 843.21 450.662 849.187ZM413.143 766.608C338.47 733.796 205.453 679.944 130.781 647.071V668.539C205.209 694.581 337.921 741.664 412.35 767.706C412.594 767.34 412.838 766.974 413.143 766.608ZM872.039 144.954H854.896C869.599 200.331 884.302 255.709 899.004 311.025C899.798 309.744 899.92 308.586 899.737 307.549C893.514 271.139 887.169 234.729 881.007 198.257C878.018 180.51 875.029 162.701 872.039 144.954ZM203.827 94.8879C373.61 270.047 571.152 494.966 740.63 669.759C741.057 669.332 741.484 668.966 741.911 668.539C599.093 494.112 428.212 269.559 285.272 94.8879H203.827ZM1599.55 712.633C1715.04 652.804 1830.58 592.974 1946.07 533.145V499.662C1830.16 570.409 1714.31 641.155 1598.45 711.841C1598.82 712.085 1599.18 712.39 1599.55 712.633ZM1591.68 972.025C1686 965.194 1780.25 958.302 1874.57 951.471V931.406C1780.25 944.702 1686 957.997 1591.68 971.354C1591.68 971.537 1591.68 971.781 1591.68 972.025ZM1827.29 666.343C1866.88 649.876 1906.48 633.41 1946.07 616.882V605.782C1906.29 625.603 1866.52 645.485 1826.8 665.368C1826.99 665.733 1827.11 666.038 1827.29 666.343ZM2002.93 51.1592C1842.06 220.341 1590.64 483.134 1429.95 652.133C1430.32 652.377 1430.68 652.621 1431.05 652.865C1602.66 498.198 1865 249.737 2036.79 94.8879V51.1592H2002.93ZM650.522 1417.42C496.784 1558.48 457.8 1574.61 303.94 1715.74V1776.36H316.019C466.463 1615.23 501.847 1579.34 652.047 1418.45C651.559 1418.09 651.01 1417.78 650.522 1417.42ZM1469.48 501.004C1571.91 382.32 1674.35 263.637 1776.84 144.954H1730.72C1643.05 263.454 1555.44 381.832 1467.9 500.15C1468.38 500.394 1468.93 500.699 1469.48 501.004ZM1763.05 523.813C1824.06 484.598 1885.06 445.382 1946.07 406.106V382.808C1884.7 429.465 1823.39 476.12 1762.01 522.716C1762.38 523.082 1762.68 523.447 1763.05 523.813ZM1585.64 198.257H1559.41C1513.65 276.567 1504.07 301.572 1458.38 379.881C1458.87 380.064 1459.36 380.247 1459.9 380.491C1513.84 301.999 1531.71 276.75 1585.64 198.257ZM1422.26 51.1592C1379.25 168.501 1312.51 379.454 1269.5 496.674C1270.05 496.796 1270.54 496.918 1271.09 497.039C1325.57 379.698 1403.9 168.562 1458.38 51.1592H1422.26ZM1285.85 144.954C1271.7 207.04 1257.61 269.126 1243.45 331.212C1244 331.273 1244.55 331.334 1245.1 331.395C1265.47 269.248 1285.79 207.04 1306.17 144.893H1285.85V144.954ZM238.235 1324.35C233.537 1324.9 229.206 1326.3 224.935 1327.7C212.978 1331.73 201.021 1335.69 189.063 1339.72V1344.66C189.673 1344.41 190.222 1344.17 190.832 1343.92C206.633 1337.4 222.434 1330.87 238.235 1324.35ZM1427.75 1653.68C1471.62 1736.26 1515.54 1818.84 1559.41 1901.42H1591.68C1537.51 1818.6 1483.33 1735.84 1429.16 1653.07C1428.73 1653.26 1428.24 1653.5 1427.75 1653.68ZM189.063 1262.5V1264.88C195.652 1262.81 202.18 1260.74 208.769 1258.6C202.119 1259.64 195.591 1260.98 189.063 1262.5ZM1280.79 1539.33C1326.73 1660.03 1401.28 1941.3 1447.22 2062H1492.06C1431.6 1941 1342.65 1659.54 1282.25 1538.72C1281.82 1538.9 1281.28 1539.15 1280.79 1539.33ZM1679.9 1377.89C1768.6 1432.97 1857.31 1487.98 1946.07 1543.05V1515.73C1857.61 1469.38 1769.21 1423.03 1680.81 1376.74C1680.51 1377.1 1680.2 1377.47 1679.9 1377.89ZM1150.29 1669.18C1158.29 1746.57 1171.62 1910.65 1179.61 1988.1H1202.61C1187.3 1910.59 1166.64 1746.45 1151.39 1668.99C1151.03 1669.05 1150.66 1669.11 1150.29 1669.18ZM1888.05 1117.05C1907.39 1120.04 1926.73 1123.02 1946.07 1126.01V1120.22C1926.85 1118.69 1907.64 1117.17 1888.42 1115.71C1888.3 1116.07 1888.18 1116.56 1888.05 1117.05ZM1879.39 778.379C1901.6 772.585 1923.86 766.791 1946.07 760.997V755.63C1923.68 762.888 1901.29 770.207 1878.9 777.464C1879.09 777.708 1879.27 778.013 1879.39 778.379ZM1764.09 1334.11C1824.73 1364.11 1967.82 1408.94 2028.52 1438.94V1418.45C1968.18 1394.85 1825.34 1356.37 1765 1332.76C1764.7 1333.19 1764.39 1333.62 1764.09 1334.11ZM1853.65 1201.88C1884.45 1210.12 2016.19 1222.43 2047 1230.66V1222.06C2016.37 1216.27 1884.82 1206.46 1854.19 1200.66C1854.01 1201.03 1853.83 1201.46 1853.65 1201.88ZM1490.96 1383.44C1642.62 1520.79 1895.21 1746.83 2047 1884.36V1816.24C1895.58 1701.09 1643.29 1497.43 1492.06 1382.47C1491.69 1382.77 1491.32 1383.08 1490.96 1383.44ZM483.545 1355.63C385.445 1409.18 287.224 1462.79 189.063 1516.34V1545.19C287.468 1482.31 385.873 1419.43 484.216 1356.61C484.033 1356.3 483.789 1356 483.545 1355.63ZM505.935 1279.95C400.331 1326.24 206.593 1403.81 100.928 1450.16V1476.51C206.776 1421.74 400.758 1335.75 506.545 1281.05C506.362 1280.62 506.118 1280.31 505.935 1279.95ZM459.996 1494.2C369.706 1561.29 90.3517 1728.64 0 1795.73V1831.1C90.7788 1752.55 370.56 1573.85 461.277 1495.36C460.85 1494.93 460.423 1494.57 459.996 1494.2ZM425.771 1132.36C424.124 1131.87 422.477 1131.87 420.891 1132.11C364.337 1140.16 307.783 1148.21 251.23 1156.32C230.487 1159.25 88.9148 1179.07 68.2333 1182V1200.66C102.031 1193.4 256.659 1169.25 290.457 1161.93C335.603 1152.12 380.687 1142.24 425.771 1132.36ZM697.192 1511.09C595.859 1641.12 494.526 1771.21 393.132 1901.42H438.095C524.969 1771.45 611.782 1641.61 698.596 1511.76C698.108 1511.52 697.681 1511.34 697.192 1511.09ZM755.393 1901.42H779.247C799.685 1827.01 820.061 1752.61 840.498 1678.26C840.132 1678.14 839.766 1677.96 839.339 1677.84C811.337 1752.36 783.396 1826.89 755.393 1901.42ZM982.096 1901.42H1006.19C1008.33 1812.32 1010.46 1723.21 1012.6 1634.17C1012.23 1634.17 1011.87 1634.17 1011.56 1634.17C1001.8 1723.21 991.98 1812.32 982.096 1901.42ZM1075.07 371.221C1079.28 329.931 1082.58 288.703 1085.87 247.414C1088.55 213.261 1093.8 85.3127 1096.48 51.1592H1075.07C1075.86 126.663 1074.22 295.839 1075.07 371.221ZM634.111 1851.68H658.758C693.166 1773.86 701.341 1745.84 735.749 1668.08C735.261 1667.96 734.773 1667.77 734.285 1667.65C692.19 1745.59 676.267 1773.74 634.111 1851.68Z" fill="white"/>
</svg>
