<svg width="18" height="18" viewBox="0 0 18 18" fill="none" xmlns="http://www.w3.org/2000/svg">
<path d="M6.97822 5.42864C6.84518 5.56247 6.77051 5.74351 6.77051 5.93221C6.77051 6.12092 6.84518 6.30196 6.97822 6.43579L9.50679 9.00007L6.97822 11.5286C6.84518 11.6625 6.77051 11.8435 6.77051 12.0322C6.77051 12.2209 6.84518 12.402 6.97822 12.5358C7.04462 12.6027 7.12362 12.6559 7.21066 12.6921C7.2977 12.7284 7.39107 12.7471 7.48536 12.7471C7.57965 12.7471 7.67301 12.7284 7.76006 12.6921C7.8471 12.6559 7.9261 12.6027 7.9925 12.5358L11.0211 9.50721C11.088 9.44081 11.1412 9.36181 11.1774 9.27477C11.2137 9.18773 11.2324 9.09437 11.2324 9.00007C11.2324 8.90578 11.2137 8.81242 11.1774 8.72537C11.1412 8.63833 11.088 8.55933 11.0211 8.49293L7.9925 5.42864C7.9261 5.36169 7.8471 5.30856 7.76006 5.27229C7.67301 5.23603 7.57965 5.21736 7.48536 5.21736C7.39107 5.21736 7.2977 5.23603 7.21066 5.27229C7.12362 5.30856 7.04462 5.36169 6.97822 5.42864Z" fill="white"/>
</svg>
