<svg width="18" height="18" viewBox="0 0 18 18" fill="none" xmlns="http://www.w3.org/2000/svg">
<path d="M12.5714 6.9787C12.4375 6.84567 12.2565 6.771 12.0678 6.771C11.8791 6.771 11.698 6.84567 11.5642 6.9787L8.99993 9.50728L6.47136 6.9787C6.33753 6.84567 6.15649 6.771 5.96779 6.771C5.77908 6.771 5.59804 6.84567 5.46421 6.9787C5.39727 7.04511 5.34413 7.12411 5.30786 7.21115C5.2716 7.29819 5.25293 7.39155 5.25293 7.48585C5.25293 7.58014 5.2716 7.6735 5.30786 7.76055C5.34413 7.84759 5.39727 7.92659 5.46421 7.99299L8.49279 11.0216C8.55919 11.0885 8.63819 11.1416 8.72523 11.1779C8.81227 11.2142 8.90563 11.2328 8.99993 11.2328C9.09422 11.2328 9.18758 11.2142 9.27463 11.1779C9.36167 11.1416 9.44067 11.0885 9.50707 11.0216L12.5714 7.99299C12.6383 7.92659 12.6914 7.84759 12.7277 7.76055C12.764 7.6735 12.7826 7.58014 12.7826 7.48585C12.7826 7.39155 12.764 7.29819 12.7277 7.21115C12.6914 7.12411 12.6383 7.04511 12.5714 6.9787Z" fill="white"/>
</svg>
