<svg width="32" height="32" viewBox="0 0 32 32" fill="none" xmlns="http://www.w3.org/2000/svg">
<path d="M17.795 14.8694L14.6753 18.3092L26.0001 19.4872L24.9317 7.00033L21.8548 10.393C20.1027 9.07362 18.0087 8.3197 15.8292 8.3197C13.9916 8.3197 12.0685 8.88514 10.4446 10.1574C9.93175 10.5344 9.46166 11.0056 8.99158 11.571C9.54713 11.3354 10.1454 11.2412 10.7864 11.2412C13.0087 11.2412 15.4873 12.5605 17.795 14.8694ZM11.5557 23.5396V21.1365C11.5557 18.7804 11.983 17.2255 12.4958 16.2359C13.0087 15.1993 13.607 14.681 14.2907 14.3511C14.6326 14.2097 15.0172 14.1155 15.4018 14.0684C13.7352 12.8433 12.1112 12.1836 10.7864 12.1836C9.37619 12.1836 8.22234 12.7961 7.32491 14.2569C7.15397 14.5396 6.76935 15.4349 6.72662 15.5291C6.25653 17.1783 6.00012 19.0632 6.00012 21.1365V23.5396L8.35055 25.0003L11.5557 23.5396Z" fill="#141B1F"/>
</svg>
