<svg width="24" height="24" viewBox="0 0 24 24" fill="none" xmlns="http://www.w3.org/2000/svg">
<path d="M9.1697 17.0036C8.98345 16.8162 8.87891 16.5628 8.87891 16.2986C8.87891 16.0344 8.98345 15.781 9.1697 15.5936L12.7097 12.0036L9.1697 8.46361C8.98345 8.27625 8.87891 8.0228 8.87891 7.75861C8.87891 7.49442 8.98345 7.24097 9.1697 7.05361C9.26266 6.95988 9.37326 6.88549 9.49512 6.83472C9.61698 6.78395 9.74769 6.75781 9.8797 6.75781C10.0117 6.75781 10.1424 6.78395 10.2643 6.83472C10.3861 6.88549 10.4967 6.95988 10.5897 7.05361L14.8297 11.2936C14.9234 11.3866 14.9978 11.4972 15.0486 11.619C15.0994 11.7409 15.1255 11.8716 15.1255 12.0036C15.1255 12.1356 15.0994 12.2663 15.0486 12.3882C14.9978 12.51 14.9234 12.6206 14.8297 12.7136L10.5897 17.0036C10.4967 17.0973 10.3861 17.1717 10.2643 17.2225C10.1424 17.2733 10.0117 17.2994 9.8797 17.2994C9.74769 17.2994 9.61698 17.2733 9.49512 17.2225C9.37326 17.1717 9.26266 17.0973 9.1697 17.0036Z" fill="white"/>
</svg>
