<svg width="22" height="22" viewBox="0 0 22 22" fill="none" xmlns="http://www.w3.org/2000/svg">
<path d="M13.462 15.3508C13.6239 15.1879 13.7148 14.9675 13.7148 14.7378C13.7148 14.508 13.6239 14.2876 13.462 14.1247L10.3837 11.003L13.462 7.92471C13.6239 7.76179 13.7148 7.54139 13.7148 7.31167C13.7148 7.08194 13.6239 6.86155 13.462 6.69862C13.3811 6.61712 13.285 6.55243 13.179 6.50828C13.073 6.46413 12.9594 6.44141 12.8446 6.44141C12.7298 6.44141 12.6161 6.46413 12.5102 6.50828C12.4042 6.55243 12.308 6.61712 12.2272 6.69862L8.54024 10.3856C8.45874 10.4664 8.39405 10.5626 8.3499 10.6686C8.30575 10.7745 8.28302 10.8882 8.28302 11.003C8.28302 11.1178 8.30575 11.2314 8.3499 11.3374C8.39405 11.4433 8.45874 11.5395 8.54024 11.6204L12.2272 15.3508C12.308 15.4323 12.4042 15.497 12.5102 15.5411C12.6161 15.5853 12.7298 15.608 12.8446 15.608C12.9594 15.608 13.073 15.5853 13.179 15.5411C13.285 15.497 13.3811 15.4323 13.462 15.3508Z" fill="white"/>
</svg>
