<svg width="46" height="46" viewBox="0 0 46 46" fill="none" xmlns="http://www.w3.org/2000/svg">
<rect opacity="0.3" x="0.5" y="-0.5" width="45" height="45" rx="3.5" transform="matrix(1 0 0 -1 0 45)" stroke="white"/>
<path d="M18 25.83C18.1874 26.0162 18.4408 26.1208 18.705 26.1208C18.9692 26.1208 19.2226 26.0162 19.41 25.83L23 22.29L26.54 25.83C26.7274 26.0162 26.9808 26.1208 27.245 26.1208C27.5092 26.1208 27.7626 26.0162 27.95 25.83C28.0437 25.737 28.1181 25.6264 28.1689 25.5046C28.2197 25.3827 28.2458 25.252 28.2458 25.12C28.2458 24.988 28.2197 24.8573 28.1689 24.7354C28.1181 24.6136 28.0437 24.503 27.95 24.41L23.71 20.17C23.617 20.0763 23.5064 20.0019 23.3846 19.9511C23.2627 19.9003 23.132 19.8742 23 19.8742C22.868 19.8742 22.7373 19.9003 22.6154 19.9511C22.4936 20.0019 22.383 20.0763 22.29 20.17L18 24.41C17.9063 24.503 17.8319 24.6136 17.7811 24.7354C17.7303 24.8573 17.7042 24.988 17.7042 25.12C17.7042 25.252 17.7303 25.3827 17.7811 25.5046C17.8319 25.6264 17.9063 25.737 18 25.83Z" fill="white"/>
</svg>
