<svg width="24" height="24" viewBox="0 0 24 24" fill="none" xmlns="http://www.w3.org/2000/svg">
<path d="M14.8303 17.0036C15.0166 16.8162 15.1211 16.5628 15.1211 16.2986C15.1211 16.0344 15.0166 15.781 14.8303 15.5936L11.2903 12.0036L14.8303 8.46361C15.0166 8.27625 15.1211 8.0228 15.1211 7.75861C15.1211 7.49442 15.0166 7.24097 14.8303 7.05361C14.7373 6.95988 14.6267 6.88549 14.5049 6.83472C14.383 6.78395 14.2523 6.75781 14.1203 6.75781C13.9883 6.75781 13.8576 6.78395 13.7357 6.83472C13.6139 6.88549 13.5033 6.95988 13.4103 7.05361L9.1703 11.2936C9.07657 11.3866 9.00218 11.4972 8.95141 11.619C8.90064 11.7409 8.8745 11.8716 8.8745 12.0036C8.8745 12.1356 8.90064 12.2663 8.95141 12.3882C9.00218 12.51 9.07657 12.6206 9.1703 12.7136L13.4103 17.0036C13.5033 17.0973 13.6139 17.1717 13.7357 17.2225C13.8576 17.2733 13.9883 17.2994 14.1203 17.2994C14.2523 17.2994 14.383 17.2733 14.5049 17.2225C14.6267 17.1717 14.7373 17.0973 14.8303 17.0036Z" fill="white"/>
</svg>
