<svg width="22" height="22" viewBox="0 0 22 22" fill="none" xmlns="http://www.w3.org/2000/svg">
<path d="M8.53802 6.6492C8.37606 6.81213 8.28516 7.03252 8.28516 7.26225C8.28516 7.49197 8.37606 7.71237 8.53802 7.87529L11.6163 10.997L8.53802 14.0753C8.37606 14.2382 8.28516 14.4586 8.28516 14.6883C8.28516 14.9181 8.37606 15.1385 8.53802 15.3014C8.61886 15.3829 8.71503 15.4476 8.821 15.4917C8.92696 15.5359 9.04062 15.5586 9.15541 15.5586C9.2702 15.5586 9.38386 15.5359 9.48983 15.4917C9.59579 15.4476 9.69196 15.3829 9.7728 15.3014L13.4598 11.6144C13.5413 11.5336 13.606 11.4374 13.6501 11.3314C13.6942 11.2255 13.717 11.1118 13.717 10.997C13.717 10.8822 13.6942 10.7686 13.6501 10.6626C13.606 10.5567 13.5413 10.4605 13.4598 10.3796L9.7728 6.6492C9.69196 6.5677 9.59579 6.50301 9.48983 6.45886C9.38386 6.41472 9.2702 6.39199 9.15541 6.39199C9.04062 6.39199 8.92696 6.41472 8.821 6.45886C8.71503 6.50301 8.61886 6.5677 8.53802 6.6492Z" fill="white"/>
</svg>
