<svg width="24" height="24" viewBox="0 0 24 24" fill="none" xmlns="http://www.w3.org/2000/svg">
<path d="M16.9997 14.8264C16.8123 15.0126 16.5589 15.1172 16.2947 15.1172C16.0305 15.1172 15.7771 15.0126 15.5897 14.8264L11.9997 11.2864L8.4597 14.8264C8.27234 15.0126 8.01889 15.1172 7.7547 15.1172C7.49052 15.1172 7.23707 15.0126 7.0497 14.8264C6.95598 14.7334 6.88158 14.6228 6.83081 14.501C6.78004 14.3791 6.75391 14.2484 6.75391 14.1164C6.75391 13.9844 6.78004 13.8537 6.83081 13.7318C6.88158 13.61 6.95598 13.4994 7.0497 13.4064L11.2897 9.1664C11.3827 9.07267 11.4933 8.99827 11.6151 8.9475C11.737 8.89674 11.8677 8.8706 11.9997 8.8706C12.1317 8.8706 12.2624 8.89674 12.3843 8.9475C12.5061 8.99827 12.6167 9.07267 12.7097 9.1664L16.9997 13.4064C17.0934 13.4994 17.1678 13.61 17.2186 13.7318C17.2694 13.8537 17.2955 13.9844 17.2955 14.1164C17.2955 14.2484 17.2694 14.3791 17.2186 14.501C17.1678 14.6228 17.0934 14.7334 16.9997 14.8264Z" fill="white"/>
</svg>
