<svg width="26" height="26" viewBox="0 0 26 26" fill="none" xmlns="http://www.w3.org/2000/svg">
<path d="M21.4217 1.89794C21.2609 1.77406 21.0736 1.68914 20.8744 1.64985C20.6753 1.61055 20.4698 1.61795 20.274 1.67145L10.1523 4.39231C9.80108 4.48664 9.49118 4.69501 9.27131 4.98465C9.05143 5.2743 8.93404 5.6288 8.93759 5.99243V17.469C8.93759 17.8113 8.71619 18.1068 8.37341 18.2221L8.36732 18.2246L5.7267 19.1387C4.71666 19.4764 4.06259 20.4143 4.06259 21.5269C4.0589 21.9795 4.16415 22.4262 4.36947 22.8295C4.57478 23.2328 4.87414 23.5808 5.24224 23.8441C5.71627 24.1884 6.28692 24.3743 6.87283 24.3752C7.17935 24.3747 7.48376 24.3245 7.7742 24.2265L7.79349 24.2199L8.90255 23.8166C9.38365 23.656 9.80241 23.3489 10.1001 22.9383C10.3978 22.5276 10.5595 22.0341 10.5626 21.5269V10.7613C10.5626 10.3911 10.8048 10.0905 11.1801 9.99602L11.1908 9.99298L20.0587 7.62454C20.0886 7.6168 20.12 7.61601 20.1503 7.62223C20.1806 7.62845 20.2091 7.64152 20.2336 7.66043C20.2581 7.67934 20.2779 7.70359 20.2916 7.73135C20.3053 7.7591 20.3125 7.78961 20.3126 7.82055V15.0279C20.3126 15.3707 20.0968 15.6566 19.7484 15.7734L19.7357 15.778L17.1515 16.6976C16.6489 16.8629 16.212 17.1838 15.9038 17.6139C15.5957 18.044 15.4324 18.5609 15.4376 19.0899C15.4331 19.5438 15.5379 19.9921 15.7432 20.397C15.9485 20.8018 16.2483 21.1512 16.6172 21.4157C16.9784 21.6768 17.3972 21.847 17.8381 21.912C18.279 21.977 18.7291 21.9348 19.1502 21.789L19.1685 21.7829L20.2776 21.3791C20.7586 21.2186 21.1774 20.9116 21.4751 20.501C21.7728 20.0905 21.9345 19.597 21.9376 19.0899V2.94555C21.9387 2.74289 21.8927 2.54274 21.8031 2.36093C21.7136 2.17911 21.583 2.02061 21.4217 1.89794Z" fill="#F04E27"/>
</svg>
