<svg width="1918" height="1080" viewBox="0 0 1918 1080" fill="none" xmlns="http://www.w3.org/2000/svg">
<g clip-path="url(#clip0_2163_1877)">
<g opacity="0.16">
<path d="M70.9112 -43.1367H2.46289V25.2649H70.9112V-43.1367Z" stroke="white" stroke-width="0.5" stroke-miterlimit="10"/>
<path d="M70.9112 25.2617H2.46289V93.6633H70.9112V25.2617Z" stroke="white" stroke-width="0.5" stroke-miterlimit="10"/>
<path d="M70.9112 93.418H2.46289V161.82H70.9112V93.418Z" stroke="white" stroke-width="0.5" stroke-miterlimit="10"/>
<path d="M70.9112 161.82H2.46289V230.222H70.9112V161.82Z" stroke="white" stroke-width="0.5" stroke-miterlimit="10"/>
<path d="M70.9112 230.223H2.46289V298.624H70.9112V230.223Z" stroke="white" stroke-width="0.5" stroke-miterlimit="10"/>
<path d="M70.9112 298.625H2.46289V367.027H70.9112V298.625Z" stroke="white" stroke-width="0.5" stroke-miterlimit="10"/>
<path d="M70.9112 366.781H2.46289V435.183H70.9112V366.781Z" stroke="white" stroke-width="0.5" stroke-miterlimit="10"/>
<path d="M70.9112 435.18H2.46289V503.581H70.9112V435.18Z" stroke="white" stroke-width="0.5" stroke-miterlimit="10"/>
<path d="M70.9112 503.582H2.46289V571.984H70.9112V503.582Z" stroke="white" stroke-width="0.5" stroke-miterlimit="10"/>
<path d="M70.9112 571.984H2.46289V640.386H70.9112V571.984Z" stroke="white" stroke-width="0.5" stroke-miterlimit="10"/>
<path d="M70.9112 640.387H2.46289V708.788H70.9112V640.387Z" stroke="white" stroke-width="0.5" stroke-miterlimit="10"/>
<path d="M70.9112 708.543H2.46289V776.945H70.9112V708.543Z" stroke="white" stroke-width="0.5" stroke-miterlimit="10"/>
<path d="M70.9112 776.941H2.46289V845.343H70.9112V776.941Z" stroke="white" stroke-width="0.5" stroke-miterlimit="10"/>
<path d="M70.9112 845.344H2.46289V913.745H70.9112V845.344Z" stroke="white" stroke-width="0.5" stroke-miterlimit="10"/>
<path d="M70.9112 913.746H2.46289V982.148H70.9112V913.746Z" stroke="white" stroke-width="0.5" stroke-miterlimit="10"/>
<path d="M70.9112 981.902H2.46289V1050.3H70.9112V981.902Z" stroke="white" stroke-width="0.5" stroke-miterlimit="10"/>
<path d="M70.9112 1050.3H2.46289V1118.71H70.9112V1050.3Z" stroke="white" stroke-width="0.5" stroke-miterlimit="10"/>
<path d="M139.358 -43.1367H70.9102V25.2649H139.358V-43.1367Z" stroke="white" stroke-width="0.5" stroke-miterlimit="10"/>
<path d="M139.358 25.2617H70.9102V93.6633H139.358V25.2617Z" stroke="white" stroke-width="0.5" stroke-miterlimit="10"/>
<path d="M139.358 93.418H70.9102V161.82H139.358V93.418Z" stroke="white" stroke-width="0.5" stroke-miterlimit="10"/>
<path d="M139.358 161.82H70.9102V230.222H139.358V161.82Z" stroke="white" stroke-width="0.5" stroke-miterlimit="10"/>
<path d="M139.358 230.223H70.9102V298.624H139.358V230.223Z" stroke="white" stroke-width="0.5" stroke-miterlimit="10"/>
<path d="M139.358 298.625H70.9102V367.027H139.358V298.625Z" stroke="white" stroke-width="0.5" stroke-miterlimit="10"/>
<path d="M139.358 366.781H70.9102V435.183H139.358V366.781Z" stroke="white" stroke-width="0.5" stroke-miterlimit="10"/>
<path d="M139.358 435.18H70.9102V503.581H139.358V435.18Z" stroke="white" stroke-width="0.5" stroke-miterlimit="10"/>
<path d="M139.358 503.582H70.9102V571.984H139.358V503.582Z" stroke="white" stroke-width="0.5" stroke-miterlimit="10"/>
<path d="M139.358 571.984H70.9102V640.386H139.358V571.984Z" stroke="white" stroke-width="0.5" stroke-miterlimit="10"/>
<path d="M139.358 640.387H70.9102V708.788H139.358V640.387Z" stroke="white" stroke-width="0.5" stroke-miterlimit="10"/>
<path d="M139.358 708.543H70.9102V776.945H139.358V708.543Z" stroke="white" stroke-width="0.5" stroke-miterlimit="10"/>
<path d="M139.358 776.941H70.9102V845.343H139.358V776.941Z" stroke="white" stroke-width="0.5" stroke-miterlimit="10"/>
<path d="M139.358 845.344H70.9102V913.745H139.358V845.344Z" stroke="white" stroke-width="0.5" stroke-miterlimit="10"/>
<path d="M139.358 913.746H70.9102V982.148H139.358V913.746Z" stroke="white" stroke-width="0.5" stroke-miterlimit="10"/>
<path d="M139.358 981.902H70.9102V1050.3H139.358V981.902Z" stroke="white" stroke-width="0.5" stroke-miterlimit="10"/>
<path d="M139.358 1050.3H70.9102V1118.71H139.358V1050.3Z" stroke="white" stroke-width="0.5" stroke-miterlimit="10"/>
<path d="M207.808 -43.1367H139.359V25.2649H207.808V-43.1367Z" stroke="white" stroke-width="0.5" stroke-miterlimit="10"/>
<path d="M207.808 25.2617H139.359V93.6633H207.808V25.2617Z" stroke="white" stroke-width="0.5" stroke-miterlimit="10"/>
<path d="M207.808 93.418H139.359V161.82H207.808V93.418Z" stroke="white" stroke-width="0.5" stroke-miterlimit="10"/>
<path d="M207.808 161.82H139.359V230.222H207.808V161.82Z" stroke="white" stroke-width="0.5" stroke-miterlimit="10"/>
<path d="M207.808 230.223H139.359V298.624H207.808V230.223Z" stroke="white" stroke-width="0.5" stroke-miterlimit="10"/>
<path d="M207.808 298.625H139.359V367.027H207.808V298.625Z" stroke="white" stroke-width="0.5" stroke-miterlimit="10"/>
<path d="M207.808 366.781H139.359V435.183H207.808V366.781Z" stroke="white" stroke-width="0.5" stroke-miterlimit="10"/>
<path d="M207.808 435.18H139.359V503.581H207.808V435.18Z" stroke="white" stroke-width="0.5" stroke-miterlimit="10"/>
<path d="M207.808 503.582H139.359V571.984H207.808V503.582Z" stroke="white" stroke-width="0.5" stroke-miterlimit="10"/>
<path d="M207.808 571.984H139.359V640.386H207.808V571.984Z" stroke="white" stroke-width="0.5" stroke-miterlimit="10"/>
<path d="M207.808 640.387H139.359V708.788H207.808V640.387Z" stroke="white" stroke-width="0.5" stroke-miterlimit="10"/>
<path d="M207.808 708.543H139.359V776.945H207.808V708.543Z" stroke="white" stroke-width="0.5" stroke-miterlimit="10"/>
<path d="M207.808 776.941H139.359V845.343H207.808V776.941Z" stroke="white" stroke-width="0.5" stroke-miterlimit="10"/>
<path d="M207.808 845.344H139.359V913.745H207.808V845.344Z" stroke="white" stroke-width="0.5" stroke-miterlimit="10"/>
<path d="M207.808 913.746H139.359V982.148H207.808V913.746Z" stroke="white" stroke-width="0.5" stroke-miterlimit="10"/>
<path d="M207.808 981.902H139.359V1050.3H207.808V981.902Z" stroke="white" stroke-width="0.5" stroke-miterlimit="10"/>
<path d="M207.808 1050.3H139.359V1118.71H207.808V1050.3Z" stroke="white" stroke-width="0.5" stroke-miterlimit="10"/>
<path d="M276.009 -43.1367H207.561V25.2649H276.009V-43.1367Z" stroke="white" stroke-width="0.5" stroke-miterlimit="10"/>
<path d="M276.009 25.2617H207.561V93.6633H276.009V25.2617Z" stroke="white" stroke-width="0.5" stroke-miterlimit="10"/>
<path d="M276.009 93.418H207.561V161.82H276.009V93.418Z" stroke="white" stroke-width="0.5" stroke-miterlimit="10"/>
<path d="M276.009 161.82H207.561V230.222H276.009V161.82Z" stroke="white" stroke-width="0.5" stroke-miterlimit="10"/>
<path d="M276.009 230.223H207.561V298.624H276.009V230.223Z" stroke="white" stroke-width="0.5" stroke-miterlimit="10"/>
<path d="M276.009 298.625H207.561V367.027H276.009V298.625Z" stroke="white" stroke-width="0.5" stroke-miterlimit="10"/>
<path d="M276.009 366.781H207.561V435.183H276.009V366.781Z" stroke="white" stroke-width="0.5" stroke-miterlimit="10"/>
<path d="M276.009 435.18H207.561V503.581H276.009V435.18Z" stroke="white" stroke-width="0.5" stroke-miterlimit="10"/>
<path d="M276.009 503.582H207.561V571.984H276.009V503.582Z" stroke="white" stroke-width="0.5" stroke-miterlimit="10"/>
<path d="M276.009 571.984H207.561V640.386H276.009V571.984Z" stroke="white" stroke-width="0.5" stroke-miterlimit="10"/>
<path d="M276.009 640.387H207.561V708.788H276.009V640.387Z" stroke="white" stroke-width="0.5" stroke-miterlimit="10"/>
<path d="M276.009 708.543H207.561V776.945H276.009V708.543Z" stroke="white" stroke-width="0.5" stroke-miterlimit="10"/>
<path d="M276.009 776.941H207.561V845.343H276.009V776.941Z" stroke="white" stroke-width="0.5" stroke-miterlimit="10"/>
<path d="M276.009 845.344H207.561V913.745H276.009V845.344Z" stroke="white" stroke-width="0.5" stroke-miterlimit="10"/>
<path d="M276.009 913.746H207.561V982.148H276.009V913.746Z" stroke="white" stroke-width="0.5" stroke-miterlimit="10"/>
<path d="M276.009 981.902H207.561V1050.3H276.009V981.902Z" stroke="white" stroke-width="0.5" stroke-miterlimit="10"/>
<path d="M276.009 1050.3H207.561V1118.71H276.009V1050.3Z" stroke="white" stroke-width="0.5" stroke-miterlimit="10"/>
<path d="M344.458 -43.1367H276.01V25.2649H344.458V-43.1367Z" stroke="white" stroke-width="0.5" stroke-miterlimit="10"/>
<path d="M344.458 25.2617H276.01V93.6633H344.458V25.2617Z" stroke="white" stroke-width="0.5" stroke-miterlimit="10"/>
<path d="M344.458 93.418H276.01V161.82H344.458V93.418Z" stroke="white" stroke-width="0.5" stroke-miterlimit="10"/>
<path d="M344.458 161.82H276.01V230.222H344.458V161.82Z" stroke="white" stroke-width="0.5" stroke-miterlimit="10"/>
<path d="M344.458 230.223H276.01V298.624H344.458V230.223Z" stroke="white" stroke-width="0.5" stroke-miterlimit="10"/>
<path d="M344.458 298.625H276.01V367.027H344.458V298.625Z" stroke="white" stroke-width="0.5" stroke-miterlimit="10"/>
<path d="M344.458 366.781H276.01V435.183H344.458V366.781Z" stroke="white" stroke-width="0.5" stroke-miterlimit="10"/>
<path d="M344.458 435.18H276.01V503.581H344.458V435.18Z" stroke="white" stroke-width="0.5" stroke-miterlimit="10"/>
<path d="M344.458 503.582H276.01V571.984H344.458V503.582Z" stroke="white" stroke-width="0.5" stroke-miterlimit="10"/>
<path d="M344.458 571.984H276.01V640.386H344.458V571.984Z" stroke="white" stroke-width="0.5" stroke-miterlimit="10"/>
<path d="M344.458 640.387H276.01V708.788H344.458V640.387Z" stroke="white" stroke-width="0.5" stroke-miterlimit="10"/>
<path d="M344.458 708.543H276.01V776.945H344.458V708.543Z" stroke="white" stroke-width="0.5" stroke-miterlimit="10"/>
<path d="M344.458 776.941H276.01V845.343H344.458V776.941Z" stroke="white" stroke-width="0.5" stroke-miterlimit="10"/>
<path d="M344.458 845.344H276.01V913.745H344.458V845.344Z" stroke="white" stroke-width="0.5" stroke-miterlimit="10"/>
<path d="M344.458 913.746H276.01V982.148H344.458V913.746Z" stroke="white" stroke-width="0.5" stroke-miterlimit="10"/>
<path d="M344.458 981.902H276.01V1050.3H344.458V981.902Z" stroke="white" stroke-width="0.5" stroke-miterlimit="10"/>
<path d="M344.458 1050.3H276.01V1118.71H344.458V1050.3Z" stroke="white" stroke-width="0.5" stroke-miterlimit="10"/>
<path d="M412.905 -43.1367H344.457V25.2649H412.905V-43.1367Z" stroke="white" stroke-width="0.5" stroke-miterlimit="10"/>
<path d="M412.905 25.2617H344.457V93.6633H412.905V25.2617Z" stroke="white" stroke-width="0.5" stroke-miterlimit="10"/>
<path d="M412.905 93.418H344.457V161.82H412.905V93.418Z" stroke="white" stroke-width="0.5" stroke-miterlimit="10"/>
<path d="M412.905 161.82H344.457V230.222H412.905V161.82Z" stroke="white" stroke-width="0.5" stroke-miterlimit="10"/>
<path d="M412.905 230.223H344.457V298.624H412.905V230.223Z" stroke="white" stroke-width="0.5" stroke-miterlimit="10"/>
<path d="M412.905 298.625H344.457V367.027H412.905V298.625Z" stroke="white" stroke-width="0.5" stroke-miterlimit="10"/>
<path d="M412.905 366.781H344.457V435.183H412.905V366.781Z" stroke="white" stroke-width="0.5" stroke-miterlimit="10"/>
<path d="M412.905 435.18H344.457V503.581H412.905V435.18Z" stroke="white" stroke-width="0.5" stroke-miterlimit="10"/>
<path d="M412.905 503.582H344.457V571.984H412.905V503.582Z" stroke="white" stroke-width="0.5" stroke-miterlimit="10"/>
<path d="M412.905 571.984H344.457V640.386H412.905V571.984Z" stroke="white" stroke-width="0.5" stroke-miterlimit="10"/>
<path d="M412.905 640.387H344.457V708.788H412.905V640.387Z" stroke="white" stroke-width="0.5" stroke-miterlimit="10"/>
<path d="M412.905 708.543H344.457V776.945H412.905V708.543Z" stroke="white" stroke-width="0.5" stroke-miterlimit="10"/>
<path d="M412.905 776.941H344.457V845.343H412.905V776.941Z" stroke="white" stroke-width="0.5" stroke-miterlimit="10"/>
<path d="M412.905 845.344H344.457V913.745H412.905V845.344Z" stroke="white" stroke-width="0.5" stroke-miterlimit="10"/>
<path d="M412.905 913.746H344.457V982.148H412.905V913.746Z" stroke="white" stroke-width="0.5" stroke-miterlimit="10"/>
<path d="M412.905 981.902H344.457V1050.3H412.905V981.902Z" stroke="white" stroke-width="0.5" stroke-miterlimit="10"/>
<path d="M412.905 1050.3H344.457V1118.71H412.905V1050.3Z" stroke="white" stroke-width="0.5" stroke-miterlimit="10"/>
<path d="M481.355 -43.1367H412.906V25.2649H481.355V-43.1367Z" stroke="white" stroke-width="0.5" stroke-miterlimit="10"/>
<path d="M481.355 25.2617H412.906V93.6633H481.355V25.2617Z" stroke="white" stroke-width="0.5" stroke-miterlimit="10"/>
<path d="M481.355 93.418H412.906V161.82H481.355V93.418Z" stroke="white" stroke-width="0.5" stroke-miterlimit="10"/>
<path d="M481.355 161.82H412.906V230.222H481.355V161.82Z" stroke="white" stroke-width="0.5" stroke-miterlimit="10"/>
<path d="M481.355 230.223H412.906V298.624H481.355V230.223Z" stroke="white" stroke-width="0.5" stroke-miterlimit="10"/>
<path d="M481.355 298.625H412.906V367.027H481.355V298.625Z" stroke="white" stroke-width="0.5" stroke-miterlimit="10"/>
<path d="M481.355 366.781H412.906V435.183H481.355V366.781Z" stroke="white" stroke-width="0.5" stroke-miterlimit="10"/>
<path d="M481.355 435.18H412.906V503.581H481.355V435.18Z" stroke="white" stroke-width="0.5" stroke-miterlimit="10"/>
<path d="M481.355 503.582H412.906V571.984H481.355V503.582Z" stroke="white" stroke-width="0.5" stroke-miterlimit="10"/>
<path d="M481.355 571.984H412.906V640.386H481.355V571.984Z" stroke="white" stroke-width="0.5" stroke-miterlimit="10"/>
<path d="M481.355 640.387H412.906V708.788H481.355V640.387Z" stroke="white" stroke-width="0.5" stroke-miterlimit="10"/>
<path d="M481.355 708.543H412.906V776.945H481.355V708.543Z" stroke="white" stroke-width="0.5" stroke-miterlimit="10"/>
<path d="M481.355 776.941H412.906V845.343H481.355V776.941Z" stroke="white" stroke-width="0.5" stroke-miterlimit="10"/>
<path d="M481.355 845.344H412.906V913.745H481.355V845.344Z" stroke="white" stroke-width="0.5" stroke-miterlimit="10"/>
<path d="M481.355 913.746H412.906V982.148H481.355V913.746Z" stroke="white" stroke-width="0.5" stroke-miterlimit="10"/>
<path d="M481.355 981.902H412.906V1050.3H481.355V981.902Z" stroke="white" stroke-width="0.5" stroke-miterlimit="10"/>
<path d="M481.355 1050.3H412.906V1118.71H481.355V1050.3Z" stroke="white" stroke-width="0.5" stroke-miterlimit="10"/>
<path d="M549.556 -43.1367H481.107V25.2649H549.556V-43.1367Z" stroke="white" stroke-width="0.5" stroke-miterlimit="10"/>
<path d="M549.556 25.2617H481.107V93.6633H549.556V25.2617Z" stroke="white" stroke-width="0.5" stroke-miterlimit="10"/>
<path d="M549.556 93.418H481.107V161.82H549.556V93.418Z" stroke="white" stroke-width="0.5" stroke-miterlimit="10"/>
<path d="M549.556 161.82H481.107V230.222H549.556V161.82Z" stroke="white" stroke-width="0.5" stroke-miterlimit="10"/>
<path d="M549.556 230.223H481.107V298.624H549.556V230.223Z" stroke="white" stroke-width="0.5" stroke-miterlimit="10"/>
<path d="M549.556 298.625H481.107V367.027H549.556V298.625Z" stroke="white" stroke-width="0.5" stroke-miterlimit="10"/>
<path d="M549.556 366.781H481.107V435.183H549.556V366.781Z" stroke="white" stroke-width="0.5" stroke-miterlimit="10"/>
<path d="M549.556 435.18H481.107V503.581H549.556V435.18Z" stroke="white" stroke-width="0.5" stroke-miterlimit="10"/>
<path d="M549.556 503.582H481.107V571.984H549.556V503.582Z" stroke="white" stroke-width="0.5" stroke-miterlimit="10"/>
<path d="M549.556 571.984H481.107V640.386H549.556V571.984Z" stroke="white" stroke-width="0.5" stroke-miterlimit="10"/>
<path d="M549.556 640.387H481.107V708.788H549.556V640.387Z" stroke="white" stroke-width="0.5" stroke-miterlimit="10"/>
<path d="M549.556 708.543H481.107V776.945H549.556V708.543Z" stroke="white" stroke-width="0.5" stroke-miterlimit="10"/>
<path d="M549.556 776.941H481.107V845.343H549.556V776.941Z" stroke="white" stroke-width="0.5" stroke-miterlimit="10"/>
<path d="M549.556 845.344H481.107V913.745H549.556V845.344Z" stroke="white" stroke-width="0.5" stroke-miterlimit="10"/>
<path d="M549.556 913.746H481.107V982.148H549.556V913.746Z" stroke="white" stroke-width="0.5" stroke-miterlimit="10"/>
<path d="M549.556 981.902H481.107V1050.3H549.556V981.902Z" stroke="white" stroke-width="0.5" stroke-miterlimit="10"/>
<path d="M549.556 1050.3H481.107V1118.71H549.556V1050.3Z" stroke="white" stroke-width="0.5" stroke-miterlimit="10"/>
<path d="M618.005 -43.1367H549.557V25.2649H618.005V-43.1367Z" stroke="white" stroke-width="0.5" stroke-miterlimit="10"/>
<path d="M618.005 25.2617H549.557V93.6633H618.005V25.2617Z" stroke="white" stroke-width="0.5" stroke-miterlimit="10"/>
<path d="M618.005 93.418H549.557V161.82H618.005V93.418Z" stroke="white" stroke-width="0.5" stroke-miterlimit="10"/>
<path d="M618.005 161.82H549.557V230.222H618.005V161.82Z" stroke="white" stroke-width="0.5" stroke-miterlimit="10"/>
<path d="M618.005 230.223H549.557V298.624H618.005V230.223Z" stroke="white" stroke-width="0.5" stroke-miterlimit="10"/>
<path d="M618.005 298.625H549.557V367.027H618.005V298.625Z" stroke="white" stroke-width="0.5" stroke-miterlimit="10"/>
<path d="M618.005 366.781H549.557V435.183H618.005V366.781Z" stroke="white" stroke-width="0.5" stroke-miterlimit="10"/>
<path d="M618.005 435.18H549.557V503.581H618.005V435.18Z" stroke="white" stroke-width="0.5" stroke-miterlimit="10"/>
<path d="M618.005 503.582H549.557V571.984H618.005V503.582Z" stroke="white" stroke-width="0.5" stroke-miterlimit="10"/>
<path d="M618.005 571.984H549.557V640.386H618.005V571.984Z" stroke="white" stroke-width="0.5" stroke-miterlimit="10"/>
<path d="M618.005 640.387H549.557V708.788H618.005V640.387Z" stroke="white" stroke-width="0.5" stroke-miterlimit="10"/>
<path d="M618.005 708.543H549.557V776.945H618.005V708.543Z" stroke="white" stroke-width="0.5" stroke-miterlimit="10"/>
<path d="M618.005 776.941H549.557V845.343H618.005V776.941Z" stroke="white" stroke-width="0.5" stroke-miterlimit="10"/>
<path d="M618.005 845.344H549.557V913.745H618.005V845.344Z" stroke="white" stroke-width="0.5" stroke-miterlimit="10"/>
<path d="M618.005 913.746H549.557V982.148H618.005V913.746Z" stroke="white" stroke-width="0.5" stroke-miterlimit="10"/>
<path d="M618.005 981.902H549.557V1050.3H618.005V981.902Z" stroke="white" stroke-width="0.5" stroke-miterlimit="10"/>
<path d="M618.005 1050.3H549.557V1118.71H618.005V1050.3Z" stroke="white" stroke-width="0.5" stroke-miterlimit="10"/>
<path d="M686.452 -43.1367H618.004V25.2649H686.452V-43.1367Z" stroke="white" stroke-width="0.5" stroke-miterlimit="10"/>
<path d="M686.452 25.2617H618.004V93.6633H686.452V25.2617Z" stroke="white" stroke-width="0.5" stroke-miterlimit="10"/>
<path d="M686.452 93.418H618.004V161.82H686.452V93.418Z" stroke="white" stroke-width="0.5" stroke-miterlimit="10"/>
<path d="M686.452 161.82H618.004V230.222H686.452V161.82Z" stroke="white" stroke-width="0.5" stroke-miterlimit="10"/>
<path d="M686.452 230.223H618.004V298.624H686.452V230.223Z" stroke="white" stroke-width="0.5" stroke-miterlimit="10"/>
<path d="M686.452 298.625H618.004V367.027H686.452V298.625Z" stroke="white" stroke-width="0.5" stroke-miterlimit="10"/>
<path d="M686.452 366.781H618.004V435.183H686.452V366.781Z" stroke="white" stroke-width="0.5" stroke-miterlimit="10"/>
<path d="M686.452 435.18H618.004V503.581H686.452V435.18Z" stroke="white" stroke-width="0.5" stroke-miterlimit="10"/>
<path d="M686.452 503.582H618.004V571.984H686.452V503.582Z" stroke="white" stroke-width="0.5" stroke-miterlimit="10"/>
<path d="M686.452 571.984H618.004V640.386H686.452V571.984Z" stroke="white" stroke-width="0.5" stroke-miterlimit="10"/>
<path d="M686.452 640.387H618.004V708.788H686.452V640.387Z" stroke="white" stroke-width="0.5" stroke-miterlimit="10"/>
<path d="M686.452 708.543H618.004V776.945H686.452V708.543Z" stroke="white" stroke-width="0.5" stroke-miterlimit="10"/>
<path d="M686.452 776.941H618.004V845.343H686.452V776.941Z" stroke="white" stroke-width="0.5" stroke-miterlimit="10"/>
<path d="M686.452 845.344H618.004V913.745H686.452V845.344Z" stroke="white" stroke-width="0.5" stroke-miterlimit="10"/>
<path d="M686.452 913.746H618.004V982.148H686.452V913.746Z" stroke="white" stroke-width="0.5" stroke-miterlimit="10"/>
<path d="M686.452 981.902H618.004V1050.3H686.452V981.902Z" stroke="white" stroke-width="0.5" stroke-miterlimit="10"/>
<path d="M686.452 1050.3H618.004V1118.71H686.452V1050.3Z" stroke="white" stroke-width="0.5" stroke-miterlimit="10"/>
<path d="M754.901 -43.1367H686.453V25.2649H754.901V-43.1367Z" stroke="white" stroke-width="0.5" stroke-miterlimit="10"/>
<path d="M754.901 25.2617H686.453V93.6633H754.901V25.2617Z" stroke="white" stroke-width="0.5" stroke-miterlimit="10"/>
<path d="M754.901 93.418H686.453V161.82H754.901V93.418Z" stroke="white" stroke-width="0.5" stroke-miterlimit="10"/>
<path d="M754.901 161.82H686.453V230.222H754.901V161.82Z" stroke="white" stroke-width="0.5" stroke-miterlimit="10"/>
<path d="M754.901 230.223H686.453V298.624H754.901V230.223Z" stroke="white" stroke-width="0.5" stroke-miterlimit="10"/>
<path d="M754.901 298.625H686.453V367.027H754.901V298.625Z" stroke="white" stroke-width="0.5" stroke-miterlimit="10"/>
<path d="M754.901 366.781H686.453V435.183H754.901V366.781Z" stroke="white" stroke-width="0.5" stroke-miterlimit="10"/>
<path d="M754.901 435.18H686.453V503.581H754.901V435.18Z" stroke="white" stroke-width="0.5" stroke-miterlimit="10"/>
<path d="M754.901 503.582H686.453V571.984H754.901V503.582Z" stroke="white" stroke-width="0.5" stroke-miterlimit="10"/>
<path d="M754.901 571.984H686.453V640.386H754.901V571.984Z" stroke="white" stroke-width="0.5" stroke-miterlimit="10"/>
<path d="M754.901 640.387H686.453V708.788H754.901V640.387Z" stroke="white" stroke-width="0.5" stroke-miterlimit="10"/>
<path d="M754.901 708.543H686.453V776.945H754.901V708.543Z" stroke="white" stroke-width="0.5" stroke-miterlimit="10"/>
<path d="M754.901 776.941H686.453V845.343H754.901V776.941Z" stroke="white" stroke-width="0.5" stroke-miterlimit="10"/>
<path d="M754.901 845.344H686.453V913.745H754.901V845.344Z" stroke="white" stroke-width="0.5" stroke-miterlimit="10"/>
<path d="M754.901 913.746H686.453V982.148H754.901V913.746Z" stroke="white" stroke-width="0.5" stroke-miterlimit="10"/>
<path d="M754.901 981.902H686.453V1050.3H754.901V981.902Z" stroke="white" stroke-width="0.5" stroke-miterlimit="10"/>
<path d="M754.901 1050.3H686.453V1118.71H754.901V1050.3Z" stroke="white" stroke-width="0.5" stroke-miterlimit="10"/>
<path d="M823.349 -43.1367H754.9V25.2649H823.349V-43.1367Z" stroke="white" stroke-width="0.5" stroke-miterlimit="10"/>
<path d="M823.349 25.2617H754.9V93.6633H823.349V25.2617Z" stroke="white" stroke-width="0.5" stroke-miterlimit="10"/>
<path d="M823.349 93.418H754.9V161.82H823.349V93.418Z" stroke="white" stroke-width="0.5" stroke-miterlimit="10"/>
<path d="M823.349 161.82H754.9V230.222H823.349V161.82Z" stroke="white" stroke-width="0.5" stroke-miterlimit="10"/>
<path d="M823.349 230.223H754.9V298.624H823.349V230.223Z" stroke="white" stroke-width="0.5" stroke-miterlimit="10"/>
<path d="M823.349 298.625H754.9V367.027H823.349V298.625Z" stroke="white" stroke-width="0.5" stroke-miterlimit="10"/>
<path d="M823.349 366.781H754.9V435.183H823.349V366.781Z" stroke="white" stroke-width="0.5" stroke-miterlimit="10"/>
<path d="M823.349 435.18H754.9V503.581H823.349V435.18Z" stroke="white" stroke-width="0.5" stroke-miterlimit="10"/>
<path d="M823.349 503.582H754.9V571.984H823.349V503.582Z" stroke="white" stroke-width="0.5" stroke-miterlimit="10"/>
<path d="M823.349 571.984H754.9V640.386H823.349V571.984Z" stroke="white" stroke-width="0.5" stroke-miterlimit="10"/>
<path d="M823.349 640.387H754.9V708.788H823.349V640.387Z" stroke="white" stroke-width="0.5" stroke-miterlimit="10"/>
<path d="M823.349 708.543H754.9V776.945H823.349V708.543Z" stroke="white" stroke-width="0.5" stroke-miterlimit="10"/>
<path d="M823.349 776.941H754.9V845.343H823.349V776.941Z" stroke="white" stroke-width="0.5" stroke-miterlimit="10"/>
<path d="M823.349 845.344H754.9V913.745H823.349V845.344Z" stroke="white" stroke-width="0.5" stroke-miterlimit="10"/>
<path d="M823.349 913.746H754.9V982.148H823.349V913.746Z" stroke="white" stroke-width="0.5" stroke-miterlimit="10"/>
<path d="M823.349 981.902H754.9V1050.3H823.349V981.902Z" stroke="white" stroke-width="0.5" stroke-miterlimit="10"/>
<path d="M823.349 1050.3H754.9V1118.71H823.349V1050.3Z" stroke="white" stroke-width="0.5" stroke-miterlimit="10"/>
<path d="M891.552 -43.1367H823.104V25.2649H891.552V-43.1367Z" stroke="white" stroke-width="0.5" stroke-miterlimit="10"/>
<path d="M891.552 25.2617H823.104V93.6633H891.552V25.2617Z" stroke="white" stroke-width="0.5" stroke-miterlimit="10"/>
<path d="M891.552 93.418H823.104V161.82H891.552V93.418Z" stroke="white" stroke-width="0.5" stroke-miterlimit="10"/>
<path d="M891.552 161.82H823.104V230.222H891.552V161.82Z" stroke="white" stroke-width="0.5" stroke-miterlimit="10"/>
<path d="M891.552 230.223H823.104V298.624H891.552V230.223Z" stroke="white" stroke-width="0.5" stroke-miterlimit="10"/>
<path d="M891.552 298.625H823.104V367.027H891.552V298.625Z" stroke="white" stroke-width="0.5" stroke-miterlimit="10"/>
<path d="M891.552 366.781H823.104V435.183H891.552V366.781Z" stroke="white" stroke-width="0.5" stroke-miterlimit="10"/>
<path d="M891.552 435.18H823.104V503.581H891.552V435.18Z" stroke="white" stroke-width="0.5" stroke-miterlimit="10"/>
<path d="M891.552 503.582H823.104V571.984H891.552V503.582Z" stroke="white" stroke-width="0.5" stroke-miterlimit="10"/>
<path d="M891.552 571.984H823.104V640.386H891.552V571.984Z" stroke="white" stroke-width="0.5" stroke-miterlimit="10"/>
<path d="M891.552 640.387H823.104V708.788H891.552V640.387Z" stroke="white" stroke-width="0.5" stroke-miterlimit="10"/>
<path d="M891.552 708.543H823.104V776.945H891.552V708.543Z" stroke="white" stroke-width="0.5" stroke-miterlimit="10"/>
<path d="M891.552 776.941H823.104V845.343H891.552V776.941Z" stroke="white" stroke-width="0.5" stroke-miterlimit="10"/>
<path d="M891.552 845.344H823.104V913.745H891.552V845.344Z" stroke="white" stroke-width="0.5" stroke-miterlimit="10"/>
<path d="M891.552 913.746H823.104V982.148H891.552V913.746Z" stroke="white" stroke-width="0.5" stroke-miterlimit="10"/>
<path d="M891.552 981.902H823.104V1050.3H891.552V981.902Z" stroke="white" stroke-width="0.5" stroke-miterlimit="10"/>
<path d="M891.552 1050.3H823.104V1118.71H891.552V1050.3Z" stroke="white" stroke-width="0.5" stroke-miterlimit="10"/>
<path d="M959.999 -43.1367H891.551V25.2649H959.999V-43.1367Z" stroke="white" stroke-width="0.5" stroke-miterlimit="10"/>
<path d="M959.999 25.2617H891.551V93.6633H959.999V25.2617Z" stroke="white" stroke-width="0.5" stroke-miterlimit="10"/>
<path d="M959.999 93.418H891.551V161.82H959.999V93.418Z" stroke="white" stroke-width="0.5" stroke-miterlimit="10"/>
<path d="M959.999 161.82H891.551V230.222H959.999V161.82Z" stroke="white" stroke-width="0.5" stroke-miterlimit="10"/>
<path d="M959.999 230.223H891.551V298.624H959.999V230.223Z" stroke="white" stroke-width="0.5" stroke-miterlimit="10"/>
<path d="M959.999 298.625H891.551V367.027H959.999V298.625Z" stroke="white" stroke-width="0.5" stroke-miterlimit="10"/>
<path d="M959.999 366.781H891.551V435.183H959.999V366.781Z" stroke="white" stroke-width="0.5" stroke-miterlimit="10"/>
<path d="M959.999 435.18H891.551V503.581H959.999V435.18Z" stroke="white" stroke-width="0.5" stroke-miterlimit="10"/>
<path d="M959.999 503.582H891.551V571.984H959.999V503.582Z" stroke="white" stroke-width="0.5" stroke-miterlimit="10"/>
<path d="M959.999 571.984H891.551V640.386H959.999V571.984Z" stroke="white" stroke-width="0.5" stroke-miterlimit="10"/>
<path d="M959.999 640.387H891.551V708.788H959.999V640.387Z" stroke="white" stroke-width="0.5" stroke-miterlimit="10"/>
<path d="M959.999 708.543H891.551V776.945H959.999V708.543Z" stroke="white" stroke-width="0.5" stroke-miterlimit="10"/>
<path d="M959.999 776.941H891.551V845.343H959.999V776.941Z" stroke="white" stroke-width="0.5" stroke-miterlimit="10"/>
<path d="M959.999 845.344H891.551V913.745H959.999V845.344Z" stroke="white" stroke-width="0.5" stroke-miterlimit="10"/>
<path d="M959.999 913.746H891.551V982.148H959.999V913.746Z" stroke="white" stroke-width="0.5" stroke-miterlimit="10"/>
<path d="M959.999 981.902H891.551V1050.3H959.999V981.902Z" stroke="white" stroke-width="0.5" stroke-miterlimit="10"/>
<path d="M959.999 1050.3H891.551V1118.71H959.999V1050.3Z" stroke="white" stroke-width="0.5" stroke-miterlimit="10"/>
<path d="M1028.45 -43.1367H960V25.2649H1028.45V-43.1367Z" stroke="white" stroke-width="0.5" stroke-miterlimit="10"/>
<path d="M1028.45 25.2617H960V93.6633H1028.45V25.2617Z" stroke="white" stroke-width="0.5" stroke-miterlimit="10"/>
<path d="M1028.45 93.418H960V161.82H1028.45V93.418Z" stroke="white" stroke-width="0.5" stroke-miterlimit="10"/>
<path d="M1028.45 161.82H960V230.222H1028.45V161.82Z" stroke="white" stroke-width="0.5" stroke-miterlimit="10"/>
<path d="M1028.45 230.223H960V298.624H1028.45V230.223Z" stroke="white" stroke-width="0.5" stroke-miterlimit="10"/>
<path d="M1028.45 298.625H960V367.027H1028.45V298.625Z" stroke="white" stroke-width="0.5" stroke-miterlimit="10"/>
<path d="M1028.45 366.781H960V435.183H1028.45V366.781Z" stroke="white" stroke-width="0.5" stroke-miterlimit="10"/>
<path d="M1028.45 435.18H960V503.581H1028.45V435.18Z" stroke="white" stroke-width="0.5" stroke-miterlimit="10"/>
<path d="M1028.45 503.582H960V571.984H1028.45V503.582Z" stroke="white" stroke-width="0.5" stroke-miterlimit="10"/>
<path d="M1028.45 571.984H960V640.386H1028.45V571.984Z" stroke="white" stroke-width="0.5" stroke-miterlimit="10"/>
<path d="M1028.45 640.387H960V708.788H1028.45V640.387Z" stroke="white" stroke-width="0.5" stroke-miterlimit="10"/>
<path d="M1028.45 708.543H960V776.945H1028.45V708.543Z" stroke="white" stroke-width="0.5" stroke-miterlimit="10"/>
<path d="M1028.45 776.941H960V845.343H1028.45V776.941Z" stroke="white" stroke-width="0.5" stroke-miterlimit="10"/>
<path d="M1028.45 845.344H960V913.745H1028.45V845.344Z" stroke="white" stroke-width="0.5" stroke-miterlimit="10"/>
<path d="M1028.45 913.746H960V982.148H1028.45V913.746Z" stroke="white" stroke-width="0.5" stroke-miterlimit="10"/>
<path d="M1028.45 981.902H960V1050.3H1028.45V981.902Z" stroke="white" stroke-width="0.5" stroke-miterlimit="10"/>
<path d="M1028.45 1050.3H960V1118.71H1028.45V1050.3Z" stroke="white" stroke-width="0.5" stroke-miterlimit="10"/>
<path d="M1096.9 -43.1367H1028.45V25.2649H1096.9V-43.1367Z" stroke="white" stroke-width="0.5" stroke-miterlimit="10"/>
<path d="M1096.9 25.2617H1028.45V93.6633H1096.9V25.2617Z" stroke="white" stroke-width="0.5" stroke-miterlimit="10"/>
<path d="M1096.9 93.418H1028.45V161.82H1096.9V93.418Z" stroke="white" stroke-width="0.5" stroke-miterlimit="10"/>
<path d="M1096.9 161.82H1028.45V230.222H1096.9V161.82Z" stroke="white" stroke-width="0.5" stroke-miterlimit="10"/>
<path d="M1096.9 230.223H1028.45V298.624H1096.9V230.223Z" stroke="white" stroke-width="0.5" stroke-miterlimit="10"/>
<path d="M1096.9 298.625H1028.45V367.027H1096.9V298.625Z" stroke="white" stroke-width="0.5" stroke-miterlimit="10"/>
<path d="M1096.9 366.781H1028.45V435.183H1096.9V366.781Z" stroke="white" stroke-width="0.5" stroke-miterlimit="10"/>
<path d="M1096.9 435.18H1028.45V503.581H1096.9V435.18Z" stroke="white" stroke-width="0.5" stroke-miterlimit="10"/>
<path d="M1096.9 503.582H1028.45V571.984H1096.9V503.582Z" stroke="white" stroke-width="0.5" stroke-miterlimit="10"/>
<path d="M1096.9 571.984H1028.45V640.386H1096.9V571.984Z" stroke="white" stroke-width="0.5" stroke-miterlimit="10"/>
<path d="M1096.9 640.387H1028.45V708.788H1096.9V640.387Z" stroke="white" stroke-width="0.5" stroke-miterlimit="10"/>
<path d="M1096.9 708.543H1028.45V776.945H1096.9V708.543Z" stroke="white" stroke-width="0.5" stroke-miterlimit="10"/>
<path d="M1096.9 776.941H1028.45V845.343H1096.9V776.941Z" stroke="white" stroke-width="0.5" stroke-miterlimit="10"/>
<path d="M1096.9 845.344H1028.45V913.745H1096.9V845.344Z" stroke="white" stroke-width="0.5" stroke-miterlimit="10"/>
<path d="M1096.9 913.746H1028.45V982.148H1096.9V913.746Z" stroke="white" stroke-width="0.5" stroke-miterlimit="10"/>
<path d="M1096.9 981.902H1028.45V1050.3H1096.9V981.902Z" stroke="white" stroke-width="0.5" stroke-miterlimit="10"/>
<path d="M1096.9 1050.3H1028.45V1118.71H1096.9V1050.3Z" stroke="white" stroke-width="0.5" stroke-miterlimit="10"/>
<path d="M1165.1 -43.1367H1096.65V25.2649H1165.1V-43.1367Z" stroke="white" stroke-width="0.5" stroke-miterlimit="10"/>
<path d="M1165.1 25.2617H1096.65V93.6633H1165.1V25.2617Z" stroke="white" stroke-width="0.5" stroke-miterlimit="10"/>
<path d="M1165.1 93.418H1096.65V161.82H1165.1V93.418Z" stroke="white" stroke-width="0.5" stroke-miterlimit="10"/>
<path d="M1165.1 161.82H1096.65V230.222H1165.1V161.82Z" stroke="white" stroke-width="0.5" stroke-miterlimit="10"/>
<path d="M1165.1 230.223H1096.65V298.624H1165.1V230.223Z" stroke="white" stroke-width="0.5" stroke-miterlimit="10"/>
<path d="M1165.1 298.625H1096.65V367.027H1165.1V298.625Z" stroke="white" stroke-width="0.5" stroke-miterlimit="10"/>
<path d="M1165.1 366.781H1096.65V435.183H1165.1V366.781Z" stroke="white" stroke-width="0.5" stroke-miterlimit="10"/>
<path d="M1165.1 435.18H1096.65V503.581H1165.1V435.18Z" stroke="white" stroke-width="0.5" stroke-miterlimit="10"/>
<path d="M1165.1 503.582H1096.65V571.984H1165.1V503.582Z" stroke="white" stroke-width="0.5" stroke-miterlimit="10"/>
<path d="M1165.1 571.984H1096.65V640.386H1165.1V571.984Z" stroke="white" stroke-width="0.5" stroke-miterlimit="10"/>
<path d="M1165.1 640.387H1096.65V708.788H1165.1V640.387Z" stroke="white" stroke-width="0.5" stroke-miterlimit="10"/>
<path d="M1165.1 708.543H1096.65V776.945H1165.1V708.543Z" stroke="white" stroke-width="0.5" stroke-miterlimit="10"/>
<path d="M1165.1 776.941H1096.65V845.343H1165.1V776.941Z" stroke="white" stroke-width="0.5" stroke-miterlimit="10"/>
<path d="M1165.1 845.344H1096.65V913.745H1165.1V845.344Z" stroke="white" stroke-width="0.5" stroke-miterlimit="10"/>
<path d="M1165.1 913.746H1096.65V982.148H1165.1V913.746Z" stroke="white" stroke-width="0.5" stroke-miterlimit="10"/>
<path d="M1165.1 981.902H1096.65V1050.3H1165.1V981.902Z" stroke="white" stroke-width="0.5" stroke-miterlimit="10"/>
<path d="M1165.1 1050.3H1096.65V1118.71H1165.1V1050.3Z" stroke="white" stroke-width="0.5" stroke-miterlimit="10"/>
<path d="M1233.55 -43.1367H1165.1V25.2649H1233.55V-43.1367Z" stroke="white" stroke-width="0.5" stroke-miterlimit="10"/>
<path d="M1233.55 25.2617H1165.1V93.6633H1233.55V25.2617Z" stroke="white" stroke-width="0.5" stroke-miterlimit="10"/>
<path d="M1233.55 93.418H1165.1V161.82H1233.55V93.418Z" stroke="white" stroke-width="0.5" stroke-miterlimit="10"/>
<path d="M1233.55 161.82H1165.1V230.222H1233.55V161.82Z" stroke="white" stroke-width="0.5" stroke-miterlimit="10"/>
<path d="M1233.55 230.223H1165.1V298.624H1233.55V230.223Z" stroke="white" stroke-width="0.5" stroke-miterlimit="10"/>
<path d="M1233.55 298.625H1165.1V367.027H1233.55V298.625Z" stroke="white" stroke-width="0.5" stroke-miterlimit="10"/>
<path d="M1233.55 366.781H1165.1V435.183H1233.55V366.781Z" stroke="white" stroke-width="0.5" stroke-miterlimit="10"/>
<path d="M1233.55 435.18H1165.1V503.581H1233.55V435.18Z" stroke="white" stroke-width="0.5" stroke-miterlimit="10"/>
<path d="M1233.55 503.582H1165.1V571.984H1233.55V503.582Z" stroke="white" stroke-width="0.5" stroke-miterlimit="10"/>
<path d="M1233.55 571.984H1165.1V640.386H1233.55V571.984Z" stroke="white" stroke-width="0.5" stroke-miterlimit="10"/>
<path d="M1233.55 640.387H1165.1V708.788H1233.55V640.387Z" stroke="white" stroke-width="0.5" stroke-miterlimit="10"/>
<path d="M1233.55 708.543H1165.1V776.945H1233.55V708.543Z" stroke="white" stroke-width="0.5" stroke-miterlimit="10"/>
<path d="M1233.55 776.941H1165.1V845.343H1233.55V776.941Z" stroke="white" stroke-width="0.5" stroke-miterlimit="10"/>
<path d="M1233.55 845.344H1165.1V913.745H1233.55V845.344Z" stroke="white" stroke-width="0.5" stroke-miterlimit="10"/>
<path d="M1233.55 913.746H1165.1V982.148H1233.55V913.746Z" stroke="white" stroke-width="0.5" stroke-miterlimit="10"/>
<path d="M1233.55 981.902H1165.1V1050.3H1233.55V981.902Z" stroke="white" stroke-width="0.5" stroke-miterlimit="10"/>
<path d="M1233.55 1050.3H1165.1V1118.71H1233.55V1050.3Z" stroke="white" stroke-width="0.5" stroke-miterlimit="10"/>
<path d="M1301.99 -43.1367H1233.55V25.2649H1301.99V-43.1367Z" stroke="white" stroke-width="0.5" stroke-miterlimit="10"/>
<path d="M1301.99 25.2617H1233.55V93.6633H1301.99V25.2617Z" stroke="white" stroke-width="0.5" stroke-miterlimit="10"/>
<path d="M1301.99 93.418H1233.55V161.82H1301.99V93.418Z" stroke="white" stroke-width="0.5" stroke-miterlimit="10"/>
<path d="M1301.99 161.82H1233.55V230.222H1301.99V161.82Z" stroke="white" stroke-width="0.5" stroke-miterlimit="10"/>
<path d="M1301.99 230.223H1233.55V298.624H1301.99V230.223Z" stroke="white" stroke-width="0.5" stroke-miterlimit="10"/>
<path d="M1301.99 298.625H1233.55V367.027H1301.99V298.625Z" stroke="white" stroke-width="0.5" stroke-miterlimit="10"/>
<path d="M1301.99 366.781H1233.55V435.183H1301.99V366.781Z" stroke="white" stroke-width="0.5" stroke-miterlimit="10"/>
<path d="M1301.99 435.18H1233.55V503.581H1301.99V435.18Z" stroke="white" stroke-width="0.5" stroke-miterlimit="10"/>
<path d="M1301.99 503.582H1233.55V571.984H1301.99V503.582Z" stroke="white" stroke-width="0.5" stroke-miterlimit="10"/>
<path d="M1301.99 571.984H1233.55V640.386H1301.99V571.984Z" stroke="white" stroke-width="0.5" stroke-miterlimit="10"/>
<path d="M1301.99 640.387H1233.55V708.788H1301.99V640.387Z" stroke="white" stroke-width="0.5" stroke-miterlimit="10"/>
<path d="M1301.99 708.543H1233.55V776.945H1301.99V708.543Z" stroke="white" stroke-width="0.5" stroke-miterlimit="10"/>
<path d="M1301.99 776.941H1233.55V845.343H1301.99V776.941Z" stroke="white" stroke-width="0.5" stroke-miterlimit="10"/>
<path d="M1301.99 845.344H1233.55V913.745H1301.99V845.344Z" stroke="white" stroke-width="0.5" stroke-miterlimit="10"/>
<path d="M1301.99 913.746H1233.55V982.148H1301.99V913.746Z" stroke="white" stroke-width="0.5" stroke-miterlimit="10"/>
<path d="M1301.99 981.902H1233.55V1050.3H1301.99V981.902Z" stroke="white" stroke-width="0.5" stroke-miterlimit="10"/>
<path d="M1301.99 1050.3H1233.55V1118.71H1301.99V1050.3Z" stroke="white" stroke-width="0.5" stroke-miterlimit="10"/>
<path d="M1370.44 -43.1367H1302V25.2649H1370.44V-43.1367Z" stroke="white" stroke-width="0.5" stroke-miterlimit="10"/>
<path d="M1370.44 25.2617H1302V93.6633H1370.44V25.2617Z" stroke="white" stroke-width="0.5" stroke-miterlimit="10"/>
<path d="M1370.44 93.418H1302V161.82H1370.44V93.418Z" stroke="white" stroke-width="0.5" stroke-miterlimit="10"/>
<path d="M1370.44 161.82H1302V230.222H1370.44V161.82Z" stroke="white" stroke-width="0.5" stroke-miterlimit="10"/>
<path d="M1370.44 230.223H1302V298.624H1370.44V230.223Z" stroke="white" stroke-width="0.5" stroke-miterlimit="10"/>
<path d="M1370.44 298.625H1302V367.027H1370.44V298.625Z" stroke="white" stroke-width="0.5" stroke-miterlimit="10"/>
<path d="M1370.44 366.781H1302V435.183H1370.44V366.781Z" stroke="white" stroke-width="0.5" stroke-miterlimit="10"/>
<path d="M1370.44 435.18H1302V503.581H1370.44V435.18Z" stroke="white" stroke-width="0.5" stroke-miterlimit="10"/>
<path d="M1370.44 503.582H1302V571.984H1370.44V503.582Z" stroke="white" stroke-width="0.5" stroke-miterlimit="10"/>
<path d="M1370.44 571.984H1302V640.386H1370.44V571.984Z" stroke="white" stroke-width="0.5" stroke-miterlimit="10"/>
<path d="M1370.44 640.387H1302V708.788H1370.44V640.387Z" stroke="white" stroke-width="0.5" stroke-miterlimit="10"/>
<path d="M1370.44 708.543H1302V776.945H1370.44V708.543Z" stroke="white" stroke-width="0.5" stroke-miterlimit="10"/>
<path d="M1370.44 776.941H1302V845.343H1370.44V776.941Z" stroke="white" stroke-width="0.5" stroke-miterlimit="10"/>
<path d="M1370.44 845.344H1302V913.745H1370.44V845.344Z" stroke="white" stroke-width="0.5" stroke-miterlimit="10"/>
<path d="M1370.44 913.746H1302V982.148H1370.44V913.746Z" stroke="white" stroke-width="0.5" stroke-miterlimit="10"/>
<path d="M1370.44 981.902H1302V1050.3H1370.44V981.902Z" stroke="white" stroke-width="0.5" stroke-miterlimit="10"/>
<path d="M1370.44 1050.3H1302V1118.71H1370.44V1050.3Z" stroke="white" stroke-width="0.5" stroke-miterlimit="10"/>
<path d="M1438.89 -43.1367H1370.44V25.2649H1438.89V-43.1367Z" stroke="white" stroke-width="0.5" stroke-miterlimit="10"/>
<path d="M1438.89 25.2617H1370.44V93.6633H1438.89V25.2617Z" stroke="white" stroke-width="0.5" stroke-miterlimit="10"/>
<path d="M1438.89 93.418H1370.44V161.82H1438.89V93.418Z" stroke="white" stroke-width="0.5" stroke-miterlimit="10"/>
<path d="M1438.89 161.82H1370.44V230.222H1438.89V161.82Z" stroke="white" stroke-width="0.5" stroke-miterlimit="10"/>
<path d="M1438.89 230.223H1370.44V298.624H1438.89V230.223Z" stroke="white" stroke-width="0.5" stroke-miterlimit="10"/>
<path d="M1438.89 298.625H1370.44V367.027H1438.89V298.625Z" stroke="white" stroke-width="0.5" stroke-miterlimit="10"/>
<path d="M1438.89 366.781H1370.44V435.183H1438.89V366.781Z" stroke="white" stroke-width="0.5" stroke-miterlimit="10"/>
<path d="M1438.89 435.18H1370.44V503.581H1438.89V435.18Z" stroke="white" stroke-width="0.5" stroke-miterlimit="10"/>
<path d="M1438.89 503.582H1370.44V571.984H1438.89V503.582Z" stroke="white" stroke-width="0.5" stroke-miterlimit="10"/>
<path d="M1438.89 571.984H1370.44V640.386H1438.89V571.984Z" stroke="white" stroke-width="0.5" stroke-miterlimit="10"/>
<path d="M1438.89 640.387H1370.44V708.788H1438.89V640.387Z" stroke="white" stroke-width="0.5" stroke-miterlimit="10"/>
<path d="M1438.89 708.543H1370.44V776.945H1438.89V708.543Z" stroke="white" stroke-width="0.5" stroke-miterlimit="10"/>
<path d="M1438.89 776.941H1370.44V845.343H1438.89V776.941Z" stroke="white" stroke-width="0.5" stroke-miterlimit="10"/>
<path d="M1438.89 845.344H1370.44V913.745H1438.89V845.344Z" stroke="white" stroke-width="0.5" stroke-miterlimit="10"/>
<path d="M1438.89 913.746H1370.44V982.148H1438.89V913.746Z" stroke="white" stroke-width="0.5" stroke-miterlimit="10"/>
<path d="M1438.89 981.902H1370.44V1050.3H1438.89V981.902Z" stroke="white" stroke-width="0.5" stroke-miterlimit="10"/>
<path d="M1438.89 1050.3H1370.44V1118.71H1438.89V1050.3Z" stroke="white" stroke-width="0.5" stroke-miterlimit="10"/>
<path d="M1507.09 -43.1367H1438.65V25.2649H1507.09V-43.1367Z" stroke="white" stroke-width="0.5" stroke-miterlimit="10"/>
<path d="M1507.09 25.2617H1438.65V93.6633H1507.09V25.2617Z" stroke="white" stroke-width="0.5" stroke-miterlimit="10"/>
<path d="M1507.09 93.418H1438.65V161.82H1507.09V93.418Z" stroke="white" stroke-width="0.5" stroke-miterlimit="10"/>
<path d="M1507.09 161.82H1438.65V230.222H1507.09V161.82Z" stroke="white" stroke-width="0.5" stroke-miterlimit="10"/>
<path d="M1507.09 230.223H1438.65V298.624H1507.09V230.223Z" stroke="white" stroke-width="0.5" stroke-miterlimit="10"/>
<path d="M1507.09 298.625H1438.65V367.027H1507.09V298.625Z" stroke="white" stroke-width="0.5" stroke-miterlimit="10"/>
<path d="M1507.09 366.781H1438.65V435.183H1507.09V366.781Z" stroke="white" stroke-width="0.5" stroke-miterlimit="10"/>
<path d="M1507.09 435.18H1438.65V503.581H1507.09V435.18Z" stroke="white" stroke-width="0.5" stroke-miterlimit="10"/>
<path d="M1507.09 503.582H1438.65V571.984H1507.09V503.582Z" stroke="white" stroke-width="0.5" stroke-miterlimit="10"/>
<path d="M1507.09 571.984H1438.65V640.386H1507.09V571.984Z" stroke="white" stroke-width="0.5" stroke-miterlimit="10"/>
<path d="M1507.09 640.387H1438.65V708.788H1507.09V640.387Z" stroke="white" stroke-width="0.5" stroke-miterlimit="10"/>
<path d="M1507.09 708.543H1438.65V776.945H1507.09V708.543Z" stroke="white" stroke-width="0.5" stroke-miterlimit="10"/>
<path d="M1507.09 776.941H1438.65V845.343H1507.09V776.941Z" stroke="white" stroke-width="0.5" stroke-miterlimit="10"/>
<path d="M1507.09 845.344H1438.65V913.745H1507.09V845.344Z" stroke="white" stroke-width="0.5" stroke-miterlimit="10"/>
<path d="M1507.09 913.746H1438.65V982.148H1507.09V913.746Z" stroke="white" stroke-width="0.5" stroke-miterlimit="10"/>
<path d="M1507.09 981.902H1438.65V1050.3H1507.09V981.902Z" stroke="white" stroke-width="0.5" stroke-miterlimit="10"/>
<path d="M1507.09 1050.3H1438.65V1118.71H1507.09V1050.3Z" stroke="white" stroke-width="0.5" stroke-miterlimit="10"/>
<path d="M1575.54 -43.1367H1507.09V25.2649H1575.54V-43.1367Z" stroke="white" stroke-width="0.5" stroke-miterlimit="10"/>
<path d="M1575.54 25.2617H1507.09V93.6633H1575.54V25.2617Z" stroke="white" stroke-width="0.5" stroke-miterlimit="10"/>
<path d="M1575.54 93.418H1507.09V161.82H1575.54V93.418Z" stroke="white" stroke-width="0.5" stroke-miterlimit="10"/>
<path d="M1575.54 161.82H1507.09V230.222H1575.54V161.82Z" stroke="white" stroke-width="0.5" stroke-miterlimit="10"/>
<path d="M1575.54 230.223H1507.09V298.624H1575.54V230.223Z" stroke="white" stroke-width="0.5" stroke-miterlimit="10"/>
<path d="M1575.54 298.625H1507.09V367.027H1575.54V298.625Z" stroke="white" stroke-width="0.5" stroke-miterlimit="10"/>
<path d="M1575.54 366.781H1507.09V435.183H1575.54V366.781Z" stroke="white" stroke-width="0.5" stroke-miterlimit="10"/>
<path d="M1575.54 435.18H1507.09V503.581H1575.54V435.18Z" stroke="white" stroke-width="0.5" stroke-miterlimit="10"/>
<path d="M1575.54 503.582H1507.09V571.984H1575.54V503.582Z" stroke="white" stroke-width="0.5" stroke-miterlimit="10"/>
<path d="M1575.54 571.984H1507.09V640.386H1575.54V571.984Z" stroke="white" stroke-width="0.5" stroke-miterlimit="10"/>
<path d="M1575.54 640.387H1507.09V708.788H1575.54V640.387Z" stroke="white" stroke-width="0.5" stroke-miterlimit="10"/>
<path d="M1575.54 708.543H1507.09V776.945H1575.54V708.543Z" stroke="white" stroke-width="0.5" stroke-miterlimit="10"/>
<path d="M1575.54 776.941H1507.09V845.343H1575.54V776.941Z" stroke="white" stroke-width="0.5" stroke-miterlimit="10"/>
<path d="M1575.54 845.344H1507.09V913.745H1575.54V845.344Z" stroke="white" stroke-width="0.5" stroke-miterlimit="10"/>
<path d="M1575.54 913.746H1507.09V982.148H1575.54V913.746Z" stroke="white" stroke-width="0.5" stroke-miterlimit="10"/>
<path d="M1575.54 981.902H1507.09V1050.3H1575.54V981.902Z" stroke="white" stroke-width="0.5" stroke-miterlimit="10"/>
<path d="M1575.54 1050.3H1507.09V1118.71H1575.54V1050.3Z" stroke="white" stroke-width="0.5" stroke-miterlimit="10"/>
<path d="M1643.99 -43.1367H1575.54V25.2649H1643.99V-43.1367Z" stroke="white" stroke-width="0.5" stroke-miterlimit="10"/>
<path d="M1643.99 25.2617H1575.54V93.6633H1643.99V25.2617Z" stroke="white" stroke-width="0.5" stroke-miterlimit="10"/>
<path d="M1643.99 93.418H1575.54V161.82H1643.99V93.418Z" stroke="white" stroke-width="0.5" stroke-miterlimit="10"/>
<path d="M1643.99 161.82H1575.54V230.222H1643.99V161.82Z" stroke="white" stroke-width="0.5" stroke-miterlimit="10"/>
<path d="M1643.99 230.223H1575.54V298.624H1643.99V230.223Z" stroke="white" stroke-width="0.5" stroke-miterlimit="10"/>
<path d="M1643.99 298.625H1575.54V367.027H1643.99V298.625Z" stroke="white" stroke-width="0.5" stroke-miterlimit="10"/>
<path d="M1643.99 366.781H1575.54V435.183H1643.99V366.781Z" stroke="white" stroke-width="0.5" stroke-miterlimit="10"/>
<path d="M1643.99 435.18H1575.54V503.581H1643.99V435.18Z" stroke="white" stroke-width="0.5" stroke-miterlimit="10"/>
<path d="M1643.99 503.582H1575.54V571.984H1643.99V503.582Z" stroke="white" stroke-width="0.5" stroke-miterlimit="10"/>
<path d="M1643.99 571.984H1575.54V640.386H1643.99V571.984Z" stroke="white" stroke-width="0.5" stroke-miterlimit="10"/>
<path d="M1643.99 640.387H1575.54V708.788H1643.99V640.387Z" stroke="white" stroke-width="0.5" stroke-miterlimit="10"/>
<path d="M1643.99 708.543H1575.54V776.945H1643.99V708.543Z" stroke="white" stroke-width="0.5" stroke-miterlimit="10"/>
<path d="M1643.99 776.941H1575.54V845.343H1643.99V776.941Z" stroke="white" stroke-width="0.5" stroke-miterlimit="10"/>
<path d="M1643.99 845.344H1575.54V913.745H1643.99V845.344Z" stroke="white" stroke-width="0.5" stroke-miterlimit="10"/>
<path d="M1643.99 913.746H1575.54V982.148H1643.99V913.746Z" stroke="white" stroke-width="0.5" stroke-miterlimit="10"/>
<path d="M1643.99 981.902H1575.54V1050.3H1643.99V981.902Z" stroke="white" stroke-width="0.5" stroke-miterlimit="10"/>
<path d="M1643.99 1050.3H1575.54V1118.71H1643.99V1050.3Z" stroke="white" stroke-width="0.5" stroke-miterlimit="10"/>
<path d="M1712.44 -43.1367H1643.99V25.2649H1712.44V-43.1367Z" stroke="white" stroke-width="0.5" stroke-miterlimit="10"/>
<path d="M1712.44 25.2617H1643.99V93.6633H1712.44V25.2617Z" stroke="white" stroke-width="0.5" stroke-miterlimit="10"/>
<path d="M1712.44 93.418H1643.99V161.82H1712.44V93.418Z" stroke="white" stroke-width="0.5" stroke-miterlimit="10"/>
<path d="M1712.44 161.82H1643.99V230.222H1712.44V161.82Z" stroke="white" stroke-width="0.5" stroke-miterlimit="10"/>
<path d="M1712.44 230.223H1643.99V298.624H1712.44V230.223Z" stroke="white" stroke-width="0.5" stroke-miterlimit="10"/>
<path d="M1712.44 298.625H1643.99V367.027H1712.44V298.625Z" stroke="white" stroke-width="0.5" stroke-miterlimit="10"/>
<path d="M1712.44 366.781H1643.99V435.183H1712.44V366.781Z" stroke="white" stroke-width="0.5" stroke-miterlimit="10"/>
<path d="M1712.44 435.18H1643.99V503.581H1712.44V435.18Z" stroke="white" stroke-width="0.5" stroke-miterlimit="10"/>
<path d="M1712.44 503.582H1643.99V571.984H1712.44V503.582Z" stroke="white" stroke-width="0.5" stroke-miterlimit="10"/>
<path d="M1712.44 571.984H1643.99V640.386H1712.44V571.984Z" stroke="white" stroke-width="0.5" stroke-miterlimit="10"/>
<path d="M1712.44 640.387H1643.99V708.788H1712.44V640.387Z" stroke="white" stroke-width="0.5" stroke-miterlimit="10"/>
<path d="M1712.44 708.543H1643.99V776.945H1712.44V708.543Z" stroke="white" stroke-width="0.5" stroke-miterlimit="10"/>
<path d="M1712.44 776.941H1643.99V845.343H1712.44V776.941Z" stroke="white" stroke-width="0.5" stroke-miterlimit="10"/>
<path d="M1712.44 845.344H1643.99V913.745H1712.44V845.344Z" stroke="white" stroke-width="0.5" stroke-miterlimit="10"/>
<path d="M1712.44 913.746H1643.99V982.148H1712.44V913.746Z" stroke="white" stroke-width="0.5" stroke-miterlimit="10"/>
<path d="M1712.44 981.902H1643.99V1050.3H1712.44V981.902Z" stroke="white" stroke-width="0.5" stroke-miterlimit="10"/>
<path d="M1712.44 1050.3H1643.99V1118.71H1712.44V1050.3Z" stroke="white" stroke-width="0.5" stroke-miterlimit="10"/>
<path d="M1780.64 -43.1367H1712.19V25.2649H1780.64V-43.1367Z" stroke="white" stroke-width="0.5" stroke-miterlimit="10"/>
<path d="M1780.64 25.2617H1712.19V93.6633H1780.64V25.2617Z" stroke="white" stroke-width="0.5" stroke-miterlimit="10"/>
<path d="M1780.64 93.418H1712.19V161.82H1780.64V93.418Z" stroke="white" stroke-width="0.5" stroke-miterlimit="10"/>
<path d="M1780.64 161.82H1712.19V230.222H1780.64V161.82Z" stroke="white" stroke-width="0.5" stroke-miterlimit="10"/>
<path d="M1780.64 230.223H1712.19V298.624H1780.64V230.223Z" stroke="white" stroke-width="0.5" stroke-miterlimit="10"/>
<path d="M1780.64 298.625H1712.19V367.027H1780.64V298.625Z" stroke="white" stroke-width="0.5" stroke-miterlimit="10"/>
<path d="M1780.64 366.781H1712.19V435.183H1780.64V366.781Z" stroke="white" stroke-width="0.5" stroke-miterlimit="10"/>
<path d="M1780.64 435.18H1712.19V503.581H1780.64V435.18Z" stroke="white" stroke-width="0.5" stroke-miterlimit="10"/>
<path d="M1780.64 503.582H1712.19V571.984H1780.64V503.582Z" stroke="white" stroke-width="0.5" stroke-miterlimit="10"/>
<path d="M1780.64 571.984H1712.19V640.386H1780.64V571.984Z" stroke="white" stroke-width="0.5" stroke-miterlimit="10"/>
<path d="M1780.64 640.387H1712.19V708.788H1780.64V640.387Z" stroke="white" stroke-width="0.5" stroke-miterlimit="10"/>
<path d="M1780.64 708.543H1712.19V776.945H1780.64V708.543Z" stroke="white" stroke-width="0.5" stroke-miterlimit="10"/>
<path d="M1780.64 776.941H1712.19V845.343H1780.64V776.941Z" stroke="white" stroke-width="0.5" stroke-miterlimit="10"/>
<path d="M1780.64 845.344H1712.19V913.745H1780.64V845.344Z" stroke="white" stroke-width="0.5" stroke-miterlimit="10"/>
<path d="M1780.64 913.746H1712.19V982.148H1780.64V913.746Z" stroke="white" stroke-width="0.5" stroke-miterlimit="10"/>
<path d="M1780.64 981.902H1712.19V1050.3H1780.64V981.902Z" stroke="white" stroke-width="0.5" stroke-miterlimit="10"/>
<path d="M1780.64 1050.3H1712.19V1118.71H1780.64V1050.3Z" stroke="white" stroke-width="0.5" stroke-miterlimit="10"/>
<path d="M1849.09 -43.1367H1780.64V25.2649H1849.09V-43.1367Z" stroke="white" stroke-width="0.5" stroke-miterlimit="10"/>
<path d="M1849.09 25.2617H1780.64V93.6633H1849.09V25.2617Z" stroke="white" stroke-width="0.5" stroke-miterlimit="10"/>
<path d="M1849.09 93.418H1780.64V161.82H1849.09V93.418Z" stroke="white" stroke-width="0.5" stroke-miterlimit="10"/>
<path d="M1849.09 161.82H1780.64V230.222H1849.09V161.82Z" stroke="white" stroke-width="0.5" stroke-miterlimit="10"/>
<path d="M1849.09 230.223H1780.64V298.624H1849.09V230.223Z" stroke="white" stroke-width="0.5" stroke-miterlimit="10"/>
<path d="M1849.09 298.625H1780.64V367.027H1849.09V298.625Z" stroke="white" stroke-width="0.5" stroke-miterlimit="10"/>
<path d="M1849.09 366.781H1780.64V435.183H1849.09V366.781Z" stroke="white" stroke-width="0.5" stroke-miterlimit="10"/>
<path d="M1849.09 435.18H1780.64V503.581H1849.09V435.18Z" stroke="white" stroke-width="0.5" stroke-miterlimit="10"/>
<path d="M1849.09 503.582H1780.64V571.984H1849.09V503.582Z" stroke="white" stroke-width="0.5" stroke-miterlimit="10"/>
<path d="M1849.09 571.984H1780.64V640.386H1849.09V571.984Z" stroke="white" stroke-width="0.5" stroke-miterlimit="10"/>
<path d="M1849.09 640.387H1780.64V708.788H1849.09V640.387Z" stroke="white" stroke-width="0.5" stroke-miterlimit="10"/>
<path d="M1849.09 708.543H1780.64V776.945H1849.09V708.543Z" stroke="white" stroke-width="0.5" stroke-miterlimit="10"/>
<path d="M1849.09 776.941H1780.64V845.343H1849.09V776.941Z" stroke="white" stroke-width="0.5" stroke-miterlimit="10"/>
<path d="M1849.09 845.344H1780.64V913.745H1849.09V845.344Z" stroke="white" stroke-width="0.5" stroke-miterlimit="10"/>
<path d="M1849.09 913.746H1780.64V982.148H1849.09V913.746Z" stroke="white" stroke-width="0.5" stroke-miterlimit="10"/>
<path d="M1849.09 981.902H1780.64V1050.3H1849.09V981.902Z" stroke="white" stroke-width="0.5" stroke-miterlimit="10"/>
<path d="M1849.09 1050.3H1780.64V1118.71H1849.09V1050.3Z" stroke="white" stroke-width="0.5" stroke-miterlimit="10"/>
<path d="M1917.54 -43.1367H1849.09V25.2649H1917.54V-43.1367Z" stroke="white" stroke-width="0.5" stroke-miterlimit="10"/>
<path d="M1917.54 25.2617H1849.09V93.6633H1917.54V25.2617Z" stroke="white" stroke-width="0.5" stroke-miterlimit="10"/>
<path d="M1917.54 93.418H1849.09V161.82H1917.54V93.418Z" stroke="white" stroke-width="0.5" stroke-miterlimit="10"/>
<path d="M1917.54 161.82H1849.09V230.222H1917.54V161.82Z" stroke="white" stroke-width="0.5" stroke-miterlimit="10"/>
<path d="M1917.54 230.223H1849.09V298.624H1917.54V230.223Z" stroke="white" stroke-width="0.5" stroke-miterlimit="10"/>
<path d="M1917.54 298.625H1849.09V367.027H1917.54V298.625Z" stroke="white" stroke-width="0.5" stroke-miterlimit="10"/>
<path d="M1917.54 366.781H1849.09V435.183H1917.54V366.781Z" stroke="white" stroke-width="0.5" stroke-miterlimit="10"/>
<path d="M1917.54 435.18H1849.09V503.581H1917.54V435.18Z" stroke="white" stroke-width="0.5" stroke-miterlimit="10"/>
<path d="M1917.54 503.582H1849.09V571.984H1917.54V503.582Z" stroke="white" stroke-width="0.5" stroke-miterlimit="10"/>
<path d="M1917.54 571.984H1849.09V640.386H1917.54V571.984Z" stroke="white" stroke-width="0.5" stroke-miterlimit="10"/>
<path d="M1917.54 640.387H1849.09V708.788H1917.54V640.387Z" stroke="white" stroke-width="0.5" stroke-miterlimit="10"/>
<path d="M1917.54 708.543H1849.09V776.945H1917.54V708.543Z" stroke="white" stroke-width="0.5" stroke-miterlimit="10"/>
<path d="M1917.54 776.941H1849.09V845.343H1917.54V776.941Z" stroke="white" stroke-width="0.5" stroke-miterlimit="10"/>
<path d="M1917.54 845.344H1849.09V913.745H1917.54V845.344Z" stroke="white" stroke-width="0.5" stroke-miterlimit="10"/>
<path d="M1917.54 913.746H1849.09V982.148H1917.54V913.746Z" stroke="white" stroke-width="0.5" stroke-miterlimit="10"/>
<path d="M1917.54 981.902H1849.09V1050.3H1917.54V981.902Z" stroke="white" stroke-width="0.5" stroke-miterlimit="10"/>
<path d="M1917.54 1050.3H1849.09V1118.71H1917.54V1050.3Z" stroke="white" stroke-width="0.5" stroke-miterlimit="10"/>
<path d="M139.36 -111.539H2.46289V25.2641H139.36V-111.539Z" stroke="white" stroke-width="0.5" stroke-miterlimit="10"/>
<path d="M139.36 25.2617H2.46289V162.065H139.36V25.2617Z" stroke="white" stroke-width="0.5" stroke-miterlimit="10"/>
<path d="M139.36 161.82H2.46289V298.623H139.36V161.82Z" stroke="white" stroke-width="0.5" stroke-miterlimit="10"/>
<path d="M139.36 298.625H2.46289V435.428H139.36V298.625Z" stroke="white" stroke-width="0.5" stroke-miterlimit="10"/>
<path d="M139.36 435.18H2.46289V571.983H139.36V435.18Z" stroke="white" stroke-width="0.5" stroke-miterlimit="10"/>
<path d="M139.36 571.984H2.46289V708.788H139.36V571.984Z" stroke="white" stroke-width="0.5" stroke-miterlimit="10"/>
<path d="M139.36 708.543H2.46289V845.346H139.36V708.543Z" stroke="white" stroke-width="0.5" stroke-miterlimit="10"/>
<path d="M139.36 845.344H2.46289V982.147H139.36V845.344Z" stroke="white" stroke-width="0.5" stroke-miterlimit="10"/>
<path d="M139.36 981.902H2.46289V1118.71H139.36V981.902Z" stroke="white" stroke-width="0.5" stroke-miterlimit="10"/>
<path d="M276.256 -111.539H139.359V25.2641H276.256V-111.539Z" stroke="white" stroke-width="0.5" stroke-miterlimit="10"/>
<path d="M276.256 25.2617H139.359V162.065H276.256V25.2617Z" stroke="white" stroke-width="0.5" stroke-miterlimit="10"/>
<path d="M276.256 161.82H139.359V298.623H276.256V161.82Z" stroke="white" stroke-width="0.5" stroke-miterlimit="10"/>
<path d="M276.256 298.625H139.359V435.428H276.256V298.625Z" stroke="white" stroke-width="0.5" stroke-miterlimit="10"/>
<path d="M276.256 435.18H139.359V571.983H276.256V435.18Z" stroke="white" stroke-width="0.5" stroke-miterlimit="10"/>
<path d="M276.256 571.984H139.359V708.788H276.256V571.984Z" stroke="white" stroke-width="0.5" stroke-miterlimit="10"/>
<path d="M276.256 708.543H139.359V845.346H276.256V708.543Z" stroke="white" stroke-width="0.5" stroke-miterlimit="10"/>
<path d="M276.256 845.344H139.359V982.147H276.256V845.344Z" stroke="white" stroke-width="0.5" stroke-miterlimit="10"/>
<path d="M276.256 981.902H139.359V1118.71H276.256V981.902Z" stroke="white" stroke-width="0.5" stroke-miterlimit="10"/>
<path d="M412.906 -111.539H276.01V25.2641H412.906V-111.539Z" stroke="white" stroke-width="0.5" stroke-miterlimit="10"/>
<path d="M412.906 25.2617H276.01V162.065H412.906V25.2617Z" stroke="white" stroke-width="0.5" stroke-miterlimit="10"/>
<path d="M412.906 161.82H276.01V298.623H412.906V161.82Z" stroke="white" stroke-width="0.5" stroke-miterlimit="10"/>
<path d="M412.906 298.625H276.01V435.428H412.906V298.625Z" stroke="white" stroke-width="0.5" stroke-miterlimit="10"/>
<path d="M412.906 435.18H276.01V571.983H412.906V435.18Z" stroke="white" stroke-width="0.5" stroke-miterlimit="10"/>
<path d="M412.906 571.984H276.01V708.788H412.906V571.984Z" stroke="white" stroke-width="0.5" stroke-miterlimit="10"/>
<path d="M412.906 708.543H276.01V845.346H412.906V708.543Z" stroke="white" stroke-width="0.5" stroke-miterlimit="10"/>
<path d="M412.906 845.344H276.01V982.147H412.906V845.344Z" stroke="white" stroke-width="0.5" stroke-miterlimit="10"/>
<path d="M412.906 981.902H276.01V1118.71H412.906V981.902Z" stroke="white" stroke-width="0.5" stroke-miterlimit="10"/>
<path d="M549.803 -111.539H412.906V25.2641H549.803V-111.539Z" stroke="white" stroke-width="0.5" stroke-miterlimit="10"/>
<path d="M549.803 25.2617H412.906V162.065H549.803V25.2617Z" stroke="white" stroke-width="0.5" stroke-miterlimit="10"/>
<path d="M549.803 161.82H412.906V298.623H549.803V161.82Z" stroke="white" stroke-width="0.5" stroke-miterlimit="10"/>
<path d="M549.803 298.625H412.906V435.428H549.803V298.625Z" stroke="white" stroke-width="0.5" stroke-miterlimit="10"/>
<path d="M549.803 435.18H412.906V571.983H549.803V435.18Z" stroke="white" stroke-width="0.5" stroke-miterlimit="10"/>
<path d="M549.803 571.984H412.906V708.788H549.803V571.984Z" stroke="white" stroke-width="0.5" stroke-miterlimit="10"/>
<path d="M549.803 708.543H412.906V845.346H549.803V708.543Z" stroke="white" stroke-width="0.5" stroke-miterlimit="10"/>
<path d="M549.803 845.344H412.906V982.147H549.803V845.344Z" stroke="white" stroke-width="0.5" stroke-miterlimit="10"/>
<path d="M549.803 981.902H412.906V1118.71H549.803V981.902Z" stroke="white" stroke-width="0.5" stroke-miterlimit="10"/>
<path d="M686.453 -111.539H549.557V25.2641H686.453V-111.539Z" stroke="white" stroke-width="0.5" stroke-miterlimit="10"/>
<path d="M686.453 25.2617H549.557V162.065H686.453V25.2617Z" stroke="white" stroke-width="0.5" stroke-miterlimit="10"/>
<path d="M686.453 161.82H549.557V298.623H686.453V161.82Z" stroke="white" stroke-width="0.5" stroke-miterlimit="10"/>
<path d="M686.453 298.625H549.557V435.428H686.453V298.625Z" stroke="white" stroke-width="0.5" stroke-miterlimit="10"/>
<path d="M686.453 435.18H549.557V571.983H686.453V435.18Z" stroke="white" stroke-width="0.5" stroke-miterlimit="10"/>
<path d="M686.453 571.984H549.557V708.788H686.453V571.984Z" stroke="white" stroke-width="0.5" stroke-miterlimit="10"/>
<path d="M686.453 708.543H549.557V845.346H686.453V708.543Z" stroke="white" stroke-width="0.5" stroke-miterlimit="10"/>
<path d="M686.453 845.344H549.557V982.147H686.453V845.344Z" stroke="white" stroke-width="0.5" stroke-miterlimit="10"/>
<path d="M686.453 981.902H549.557V1118.71H686.453V981.902Z" stroke="white" stroke-width="0.5" stroke-miterlimit="10"/>
<path d="M823.35 -111.539H686.453V25.2641H823.35V-111.539Z" stroke="white" stroke-width="0.5" stroke-miterlimit="10"/>
<path d="M823.35 25.2617H686.453V162.065H823.35V25.2617Z" stroke="white" stroke-width="0.5" stroke-miterlimit="10"/>
<path d="M823.35 161.82H686.453V298.623H823.35V161.82Z" stroke="white" stroke-width="0.5" stroke-miterlimit="10"/>
<path d="M823.35 298.625H686.453V435.428H823.35V298.625Z" stroke="white" stroke-width="0.5" stroke-miterlimit="10"/>
<path d="M823.35 435.18H686.453V571.983H823.35V435.18Z" stroke="white" stroke-width="0.5" stroke-miterlimit="10"/>
<path d="M823.35 571.984H686.453V708.788H823.35V571.984Z" stroke="white" stroke-width="0.5" stroke-miterlimit="10"/>
<path d="M823.35 708.543H686.453V845.346H823.35V708.543Z" stroke="white" stroke-width="0.5" stroke-miterlimit="10"/>
<path d="M823.35 845.344H686.453V982.147H823.35V845.344Z" stroke="white" stroke-width="0.5" stroke-miterlimit="10"/>
<path d="M823.35 981.902H686.453V1118.71H823.35V981.902Z" stroke="white" stroke-width="0.5" stroke-miterlimit="10"/>
<path d="M960 -111.539H823.104V25.2641H960V-111.539Z" stroke="white" stroke-width="0.5" stroke-miterlimit="10"/>
<path d="M960 25.2617H823.104V162.065H960V25.2617Z" stroke="white" stroke-width="0.5" stroke-miterlimit="10"/>
<path d="M960 161.82H823.104V298.623H960V161.82Z" stroke="white" stroke-width="0.5" stroke-miterlimit="10"/>
<path d="M960 298.625H823.104V435.428H960V298.625Z" stroke="white" stroke-width="0.5" stroke-miterlimit="10"/>
<path d="M960 435.18H823.104V571.983H960V435.18Z" stroke="white" stroke-width="0.5" stroke-miterlimit="10"/>
<path d="M960 571.984H823.104V708.788H960V571.984Z" stroke="white" stroke-width="0.5" stroke-miterlimit="10"/>
<path d="M960 708.543H823.104V845.346H960V708.543Z" stroke="white" stroke-width="0.5" stroke-miterlimit="10"/>
<path d="M960 845.344H823.104V982.147H960V845.344Z" stroke="white" stroke-width="0.5" stroke-miterlimit="10"/>
<path d="M960 981.902H823.104V1118.71H960V981.902Z" stroke="white" stroke-width="0.5" stroke-miterlimit="10"/>
<path d="M1096.9 -111.539H960V25.2641H1096.9V-111.539Z" stroke="white" stroke-width="0.5" stroke-miterlimit="10"/>
<path d="M1096.9 25.2617H960V162.065H1096.9V25.2617Z" stroke="white" stroke-width="0.5" stroke-miterlimit="10"/>
<path d="M1096.9 161.82H960V298.623H1096.9V161.82Z" stroke="white" stroke-width="0.5" stroke-miterlimit="10"/>
<path d="M1096.9 298.625H960V435.428H1096.9V298.625Z" stroke="white" stroke-width="0.5" stroke-miterlimit="10"/>
<path d="M1096.9 435.18H960V571.983H1096.9V435.18Z" stroke="white" stroke-width="0.5" stroke-miterlimit="10"/>
<path d="M1096.9 571.984H960V708.788H1096.9V571.984Z" stroke="white" stroke-width="0.5" stroke-miterlimit="10"/>
<path d="M1096.9 708.543H960V845.346H1096.9V708.543Z" stroke="white" stroke-width="0.5" stroke-miterlimit="10"/>
<path d="M1096.9 845.344H960V982.147H1096.9V845.344Z" stroke="white" stroke-width="0.5" stroke-miterlimit="10"/>
<path d="M1096.9 981.902H960V1118.71H1096.9V981.902Z" stroke="white" stroke-width="0.5" stroke-miterlimit="10"/>
<path d="M1233.55 -111.539H1096.65V25.2641H1233.55V-111.539Z" stroke="white" stroke-width="0.5" stroke-miterlimit="10"/>
<path d="M1233.55 25.2617H1096.65V162.065H1233.55V25.2617Z" stroke="white" stroke-width="0.5" stroke-miterlimit="10"/>
<path d="M1233.55 161.82H1096.65V298.623H1233.55V161.82Z" stroke="white" stroke-width="0.5" stroke-miterlimit="10"/>
<path d="M1233.55 298.625H1096.65V435.428H1233.55V298.625Z" stroke="white" stroke-width="0.5" stroke-miterlimit="10"/>
<path d="M1233.55 435.18H1096.65V571.983H1233.55V435.18Z" stroke="white" stroke-width="0.5" stroke-miterlimit="10"/>
<path d="M1233.55 571.984H1096.65V708.788H1233.55V571.984Z" stroke="white" stroke-width="0.5" stroke-miterlimit="10"/>
<path d="M1233.55 708.543H1096.65V845.346H1233.55V708.543Z" stroke="white" stroke-width="0.5" stroke-miterlimit="10"/>
<path d="M1233.55 845.344H1096.65V982.147H1233.55V845.344Z" stroke="white" stroke-width="0.5" stroke-miterlimit="10"/>
<path d="M1233.55 981.902H1096.65V1118.71H1233.55V981.902Z" stroke="white" stroke-width="0.5" stroke-miterlimit="10"/>
<path d="M1370.44 -111.539H1233.55V25.2641H1370.44V-111.539Z" stroke="white" stroke-width="0.5" stroke-miterlimit="10"/>
<path d="M1370.44 25.2617H1233.55V162.065H1370.44V25.2617Z" stroke="white" stroke-width="0.5" stroke-miterlimit="10"/>
<path d="M1370.44 161.82H1233.55V298.623H1370.44V161.82Z" stroke="white" stroke-width="0.5" stroke-miterlimit="10"/>
<path d="M1370.44 298.625H1233.55V435.428H1370.44V298.625Z" stroke="white" stroke-width="0.5" stroke-miterlimit="10"/>
<path d="M1370.44 435.18H1233.55V571.983H1370.44V435.18Z" stroke="white" stroke-width="0.5" stroke-miterlimit="10"/>
<path d="M1370.44 571.984H1233.55V708.788H1370.44V571.984Z" stroke="white" stroke-width="0.5" stroke-miterlimit="10"/>
<path d="M1370.44 708.543H1233.55V845.346H1370.44V708.543Z" stroke="white" stroke-width="0.5" stroke-miterlimit="10"/>
<path d="M1370.44 845.344H1233.55V982.147H1370.44V845.344Z" stroke="white" stroke-width="0.5" stroke-miterlimit="10"/>
<path d="M1370.44 981.902H1233.55V1118.71H1370.44V981.902Z" stroke="white" stroke-width="0.5" stroke-miterlimit="10"/>
<path d="M1507.34 -111.539H1370.44V25.2641H1507.34V-111.539Z" stroke="white" stroke-width="0.5" stroke-miterlimit="10"/>
<path d="M1507.34 25.2617H1370.44V162.065H1507.34V25.2617Z" stroke="white" stroke-width="0.5" stroke-miterlimit="10"/>
<path d="M1507.34 161.82H1370.44V298.623H1507.34V161.82Z" stroke="white" stroke-width="0.5" stroke-miterlimit="10"/>
<path d="M1507.34 298.625H1370.44V435.428H1507.34V298.625Z" stroke="white" stroke-width="0.5" stroke-miterlimit="10"/>
<path d="M1507.34 435.18H1370.44V571.983H1507.34V435.18Z" stroke="white" stroke-width="0.5" stroke-miterlimit="10"/>
<path d="M1507.34 571.984H1370.44V708.788H1507.34V571.984Z" stroke="white" stroke-width="0.5" stroke-miterlimit="10"/>
<path d="M1507.34 708.543H1370.44V845.346H1507.34V708.543Z" stroke="white" stroke-width="0.5" stroke-miterlimit="10"/>
<path d="M1507.34 845.344H1370.44V982.147H1507.34V845.344Z" stroke="white" stroke-width="0.5" stroke-miterlimit="10"/>
<path d="M1507.34 981.902H1370.44V1118.71H1507.34V981.902Z" stroke="white" stroke-width="0.5" stroke-miterlimit="10"/>
<path d="M1643.99 -111.539H1507.09V25.2641H1643.99V-111.539Z" stroke="white" stroke-width="0.5" stroke-miterlimit="10"/>
<path d="M1643.99 25.2617H1507.09V162.065H1643.99V25.2617Z" stroke="white" stroke-width="0.5" stroke-miterlimit="10"/>
<path d="M1643.99 161.82H1507.09V298.623H1643.99V161.82Z" stroke="white" stroke-width="0.5" stroke-miterlimit="10"/>
<path d="M1643.99 298.625H1507.09V435.428H1643.99V298.625Z" stroke="white" stroke-width="0.5" stroke-miterlimit="10"/>
<path d="M1643.99 435.18H1507.09V571.983H1643.99V435.18Z" stroke="white" stroke-width="0.5" stroke-miterlimit="10"/>
<path d="M1643.99 571.984H1507.09V708.788H1643.99V571.984Z" stroke="white" stroke-width="0.5" stroke-miterlimit="10"/>
<path d="M1643.99 708.543H1507.09V845.346H1643.99V708.543Z" stroke="white" stroke-width="0.5" stroke-miterlimit="10"/>
<path d="M1643.99 845.344H1507.09V982.147H1643.99V845.344Z" stroke="white" stroke-width="0.5" stroke-miterlimit="10"/>
<path d="M1643.99 981.902H1507.09V1118.71H1643.99V981.902Z" stroke="white" stroke-width="0.5" stroke-miterlimit="10"/>
<path d="M1780.89 -111.539H1643.99V25.2641H1780.89V-111.539Z" stroke="white" stroke-width="0.5" stroke-miterlimit="10"/>
<path d="M1780.89 25.2617H1643.99V162.065H1780.89V25.2617Z" stroke="white" stroke-width="0.5" stroke-miterlimit="10"/>
<path d="M1780.89 161.82H1643.99V298.623H1780.89V161.82Z" stroke="white" stroke-width="0.5" stroke-miterlimit="10"/>
<path d="M1780.89 298.625H1643.99V435.428H1780.89V298.625Z" stroke="white" stroke-width="0.5" stroke-miterlimit="10"/>
<path d="M1780.89 435.18H1643.99V571.983H1780.89V435.18Z" stroke="white" stroke-width="0.5" stroke-miterlimit="10"/>
<path d="M1780.89 571.984H1643.99V708.788H1780.89V571.984Z" stroke="white" stroke-width="0.5" stroke-miterlimit="10"/>
<path d="M1780.89 708.543H1643.99V845.346H1780.89V708.543Z" stroke="white" stroke-width="0.5" stroke-miterlimit="10"/>
<path d="M1780.89 845.344H1643.99V982.147H1780.89V845.344Z" stroke="white" stroke-width="0.5" stroke-miterlimit="10"/>
<path d="M1780.89 981.902H1643.99V1118.71H1780.89V981.902Z" stroke="white" stroke-width="0.5" stroke-miterlimit="10"/>
<path d="M1917.54 -111.539H1780.64V25.2641H1917.54V-111.539Z" stroke="white" stroke-width="0.5" stroke-miterlimit="10"/>
<path d="M1917.54 25.2617H1780.64V162.065H1917.54V25.2617Z" stroke="white" stroke-width="0.5" stroke-miterlimit="10"/>
<path d="M1917.54 161.82H1780.64V298.623H1917.54V161.82Z" stroke="white" stroke-width="0.5" stroke-miterlimit="10"/>
<path d="M1917.54 298.625H1780.64V435.428H1917.54V298.625Z" stroke="white" stroke-width="0.5" stroke-miterlimit="10"/>
<path d="M1917.54 435.18H1780.64V571.983H1917.54V435.18Z" stroke="white" stroke-width="0.5" stroke-miterlimit="10"/>
<path d="M1917.54 571.984H1780.64V708.788H1917.54V571.984Z" stroke="white" stroke-width="0.5" stroke-miterlimit="10"/>
<path d="M1917.54 708.543H1780.64V845.346H1917.54V708.543Z" stroke="white" stroke-width="0.5" stroke-miterlimit="10"/>
<path d="M1917.54 845.344H1780.64V982.147H1917.54V845.344Z" stroke="white" stroke-width="0.5" stroke-miterlimit="10"/>
<path d="M1917.54 981.902H1780.64V1118.71H1917.54V981.902Z" stroke="white" stroke-width="0.5" stroke-miterlimit="10"/>
</g>
</g>
<defs>
<clipPath id="clip0_2163_1877">
<rect width="1918" height="1080" fill="white"/>
</clipPath>
</defs>
</svg>
