<svg width="9" height="12" viewBox="0 0 9 12" fill="none" xmlns="http://www.w3.org/2000/svg">
<path opacity="0.4" d="M3.44778 5.57143H5.55337C5.80618 5.58922 6.05566 5.50392 6.24795 5.33394C6.44025 5.16396 6.55993 4.92293 6.58119 4.66286V1.71429H6.16507C6.16507 1.25963 5.9897 0.823594 5.67755 0.502103C5.36539 0.180612 4.94202 0 4.50057 0C4.05912 0 3.63575 0.180612 3.3236 0.502103C3.01144 0.823594 2.83608 1.25963 2.83608 1.71429H2.41995V4.66286C2.44121 4.92293 2.5609 5.16396 2.75319 5.33394C2.94548 5.50392 3.19496 5.58922 3.44778 5.57143ZM4.50057 0.857143C4.7213 0.857143 4.93298 0.947449 5.08906 1.10819C5.24514 1.26894 5.33282 1.48696 5.33282 1.71429H3.66833C3.66833 1.48696 3.75601 1.26894 3.91209 1.10819C4.06816 0.947449 4.27985 0.857143 4.50057 0.857143ZM8.98638 8.19L8.74919 5.57143C8.72423 5.28857 8.70758 5.01 8.69094 4.74429C8.6202 3.49714 8.54529 2.23714 7.41344 1.84286V4.66286C7.39288 5.15059 7.18569 5.61012 6.83714 5.94099C6.48859 6.27185 6.02704 6.44715 5.55337 6.42857H3.44778C2.97411 6.44715 2.51255 6.27185 2.164 5.94099C1.81546 5.61012 1.60826 5.15059 1.58771 4.66286V1.84286C0.455851 2.23714 0.380949 3.49714 0.310208 4.71429C0.310208 4.98 0.276918 5.25857 0.251951 5.54143L0.0147604 8.17714C-0.0292075 8.66122 0.0253122 9.14942 0.174838 9.61057C0.324365 10.0717 0.565612 10.4957 0.883179 10.8554C1.20075 11.2152 1.58765 11.5028 2.0192 11.6998C2.45075 11.8969 2.91746 11.9991 3.38952 12H5.61162C6.08254 11.999 6.5481 11.8971 6.97872 11.7008C7.40934 11.5045 7.79561 11.2181 8.11299 10.8598C8.43036 10.5015 8.6719 10.0791 8.82226 9.61948C8.97262 9.15986 9.02851 8.67306 8.98638 8.19ZM6.16507 9.42857H2.83608C2.72572 9.42857 2.61987 9.38342 2.54183 9.30305C2.4638 9.22267 2.41995 9.11366 2.41995 9C2.41995 8.88634 2.4638 8.77733 2.54183 8.69695C2.61987 8.61658 2.72572 8.57143 2.83608 8.57143H6.16507C6.27543 8.57143 6.38127 8.61658 6.45931 8.69695C6.53735 8.77733 6.58119 8.88634 6.58119 9C6.58119 9.11366 6.53735 9.22267 6.45931 9.30305C6.38127 9.38342 6.27543 9.42857 6.16507 9.42857Z" fill="#141B1F"/>
</svg>
