<svg width="1920" height="1080" viewBox="0 0 1920 1080" fill="none" xmlns="http://www.w3.org/2000/svg">
<rect width="1920" height="1080" fill="url(#paint0_radial_181:13)"/>
<rect width="1920" height="1080" fill="#1A1E37" fill-opacity="0.7"/>
<g opacity="0.05">
<path d="M70.9102 -43.1377H2.46191V25.2639H70.9102V-43.1377Z" stroke="white" stroke-width="0.5" stroke-miterlimit="10"/>
<path d="M70.9102 25.2637H2.46191V93.6653H70.9102V25.2637Z" stroke="white" stroke-width="0.5" stroke-miterlimit="10"/>
<path d="M70.9102 93.4189H2.46191V161.821H70.9102V93.4189Z" stroke="white" stroke-width="0.5" stroke-miterlimit="10"/>
<path d="M70.9102 161.82H2.46191V230.222H70.9102V161.82Z" stroke="white" stroke-width="0.5" stroke-miterlimit="10"/>
<path d="M70.9102 230.223H2.46191V298.624H70.9102V230.223Z" stroke="white" stroke-width="0.5" stroke-miterlimit="10"/>
<path d="M70.9102 298.624H2.46191V367.026H70.9102V298.624Z" stroke="white" stroke-width="0.5" stroke-miterlimit="10"/>
<path d="M70.9102 366.779H2.46191V435.181H70.9102V366.779Z" stroke="white" stroke-width="0.5" stroke-miterlimit="10"/>
<path d="M70.9102 435.181H2.46191V503.582H70.9102V435.181Z" stroke="white" stroke-width="0.5" stroke-miterlimit="10"/>
<path d="M70.9102 503.582H2.46191V571.984H70.9102V503.582Z" stroke="white" stroke-width="0.5" stroke-miterlimit="10"/>
<path d="M70.9102 571.984H2.46191V640.386H70.9102V571.984Z" stroke="white" stroke-width="0.5" stroke-miterlimit="10"/>
<path d="M70.9102 640.386H2.46191V708.787H70.9102V640.386Z" stroke="white" stroke-width="0.5" stroke-miterlimit="10"/>
<path d="M70.9102 708.541H2.46191V776.943H70.9102V708.541Z" stroke="white" stroke-width="0.5" stroke-miterlimit="10"/>
<path d="M70.9102 776.943H2.46191V845.345H70.9102V776.943Z" stroke="white" stroke-width="0.5" stroke-miterlimit="10"/>
<path d="M70.9102 845.345H2.46191V913.746H70.9102V845.345Z" stroke="white" stroke-width="0.5" stroke-miterlimit="10"/>
<path d="M70.9102 913.746H2.46191V982.148H70.9102V913.746Z" stroke="white" stroke-width="0.5" stroke-miterlimit="10"/>
<path d="M70.9102 981.901H2.46191V1050.3H70.9102V981.901Z" stroke="white" stroke-width="0.5" stroke-miterlimit="10"/>
<path d="M70.9102 1050.3H2.46191V1118.7H70.9102V1050.3Z" stroke="white" stroke-width="0.5" stroke-miterlimit="10"/>
<path d="M139.359 -43.1377H70.9106V25.2639H139.359V-43.1377Z" stroke="white" stroke-width="0.5" stroke-miterlimit="10"/>
<path d="M139.359 25.2637H70.9106V93.6653H139.359V25.2637Z" stroke="white" stroke-width="0.5" stroke-miterlimit="10"/>
<path d="M139.359 93.4189H70.9106V161.821H139.359V93.4189Z" stroke="white" stroke-width="0.5" stroke-miterlimit="10"/>
<path d="M139.359 161.82H70.9106V230.222H139.359V161.82Z" stroke="white" stroke-width="0.5" stroke-miterlimit="10"/>
<path d="M139.359 230.223H70.9106V298.624H139.359V230.223Z" stroke="white" stroke-width="0.5" stroke-miterlimit="10"/>
<path d="M139.359 298.624H70.9106V367.026H139.359V298.624Z" stroke="white" stroke-width="0.5" stroke-miterlimit="10"/>
<path d="M139.359 366.779H70.9106V435.181H139.359V366.779Z" stroke="white" stroke-width="0.5" stroke-miterlimit="10"/>
<path d="M139.359 435.181H70.9106V503.582H139.359V435.181Z" stroke="white" stroke-width="0.5" stroke-miterlimit="10"/>
<path d="M139.359 503.582H70.9106V571.984H139.359V503.582Z" stroke="white" stroke-width="0.5" stroke-miterlimit="10"/>
<path d="M139.359 571.984H70.9106V640.386H139.359V571.984Z" stroke="white" stroke-width="0.5" stroke-miterlimit="10"/>
<path d="M139.359 640.386H70.9106V708.787H139.359V640.386Z" stroke="white" stroke-width="0.5" stroke-miterlimit="10"/>
<path d="M139.359 708.541H70.9106V776.943H139.359V708.541Z" stroke="white" stroke-width="0.5" stroke-miterlimit="10"/>
<path d="M139.359 776.943H70.9106V845.345H139.359V776.943Z" stroke="white" stroke-width="0.5" stroke-miterlimit="10"/>
<path d="M139.359 845.345H70.9106V913.746H139.359V845.345Z" stroke="white" stroke-width="0.5" stroke-miterlimit="10"/>
<path d="M139.359 913.746H70.9106V982.148H139.359V913.746Z" stroke="white" stroke-width="0.5" stroke-miterlimit="10"/>
<path d="M139.359 981.901H70.9106V1050.3H139.359V981.901Z" stroke="white" stroke-width="0.5" stroke-miterlimit="10"/>
<path d="M139.359 1050.3H70.9106V1118.7H139.359V1050.3Z" stroke="white" stroke-width="0.5" stroke-miterlimit="10"/>
<path d="M207.807 -43.1377H139.359V25.2639H207.807V-43.1377Z" stroke="white" stroke-width="0.5" stroke-miterlimit="10"/>
<path d="M207.807 25.2637H139.359V93.6653H207.807V25.2637Z" stroke="white" stroke-width="0.5" stroke-miterlimit="10"/>
<path d="M207.807 93.4189H139.359V161.821H207.807V93.4189Z" stroke="white" stroke-width="0.5" stroke-miterlimit="10"/>
<path d="M207.807 161.82H139.359V230.222H207.807V161.82Z" stroke="white" stroke-width="0.5" stroke-miterlimit="10"/>
<path d="M207.807 230.223H139.359V298.624H207.807V230.223Z" stroke="white" stroke-width="0.5" stroke-miterlimit="10"/>
<path d="M207.807 298.624H139.359V367.026H207.807V298.624Z" stroke="white" stroke-width="0.5" stroke-miterlimit="10"/>
<path d="M207.807 366.779H139.359V435.181H207.807V366.779Z" stroke="white" stroke-width="0.5" stroke-miterlimit="10"/>
<path d="M207.807 435.181H139.359V503.582H207.807V435.181Z" stroke="white" stroke-width="0.5" stroke-miterlimit="10"/>
<path d="M207.807 503.582H139.359V571.984H207.807V503.582Z" stroke="white" stroke-width="0.5" stroke-miterlimit="10"/>
<path d="M207.807 571.984H139.359V640.386H207.807V571.984Z" stroke="white" stroke-width="0.5" stroke-miterlimit="10"/>
<path d="M207.807 640.386H139.359V708.787H207.807V640.386Z" stroke="white" stroke-width="0.5" stroke-miterlimit="10"/>
<path d="M207.807 708.541H139.359V776.943H207.807V708.541Z" stroke="white" stroke-width="0.5" stroke-miterlimit="10"/>
<path d="M207.807 776.943H139.359V845.345H207.807V776.943Z" stroke="white" stroke-width="0.5" stroke-miterlimit="10"/>
<path d="M207.807 845.345H139.359V913.746H207.807V845.345Z" stroke="white" stroke-width="0.5" stroke-miterlimit="10"/>
<path d="M207.807 913.746H139.359V982.148H207.807V913.746Z" stroke="white" stroke-width="0.5" stroke-miterlimit="10"/>
<path d="M207.807 981.901H139.359V1050.3H207.807V981.901Z" stroke="white" stroke-width="0.5" stroke-miterlimit="10"/>
<path d="M207.807 1050.3H139.359V1118.7H207.807V1050.3Z" stroke="white" stroke-width="0.5" stroke-miterlimit="10"/>
<path d="M276.009 -43.1377H207.561V25.2639H276.009V-43.1377Z" stroke="white" stroke-width="0.5" stroke-miterlimit="10"/>
<path d="M276.009 25.2637H207.561V93.6653H276.009V25.2637Z" stroke="white" stroke-width="0.5" stroke-miterlimit="10"/>
<path d="M276.009 93.4189H207.561V161.821H276.009V93.4189Z" stroke="white" stroke-width="0.5" stroke-miterlimit="10"/>
<path d="M276.009 161.82H207.561V230.222H276.009V161.82Z" stroke="white" stroke-width="0.5" stroke-miterlimit="10"/>
<path d="M276.009 230.223H207.561V298.624H276.009V230.223Z" stroke="white" stroke-width="0.5" stroke-miterlimit="10"/>
<path d="M276.009 298.624H207.561V367.026H276.009V298.624Z" stroke="white" stroke-width="0.5" stroke-miterlimit="10"/>
<path d="M276.009 366.779H207.561V435.181H276.009V366.779Z" stroke="white" stroke-width="0.5" stroke-miterlimit="10"/>
<path d="M276.009 435.181H207.561V503.582H276.009V435.181Z" stroke="white" stroke-width="0.5" stroke-miterlimit="10"/>
<path d="M276.009 503.582H207.561V571.984H276.009V503.582Z" stroke="white" stroke-width="0.5" stroke-miterlimit="10"/>
<path d="M276.009 571.984H207.561V640.386H276.009V571.984Z" stroke="white" stroke-width="0.5" stroke-miterlimit="10"/>
<path d="M276.009 640.386H207.561V708.787H276.009V640.386Z" stroke="white" stroke-width="0.5" stroke-miterlimit="10"/>
<path d="M276.009 708.541H207.561V776.943H276.009V708.541Z" stroke="white" stroke-width="0.5" stroke-miterlimit="10"/>
<path d="M276.009 776.943H207.561V845.345H276.009V776.943Z" stroke="white" stroke-width="0.5" stroke-miterlimit="10"/>
<path d="M276.009 845.345H207.561V913.746H276.009V845.345Z" stroke="white" stroke-width="0.5" stroke-miterlimit="10"/>
<path d="M276.009 913.746H207.561V982.148H276.009V913.746Z" stroke="white" stroke-width="0.5" stroke-miterlimit="10"/>
<path d="M276.009 981.901H207.561V1050.3H276.009V981.901Z" stroke="white" stroke-width="0.5" stroke-miterlimit="10"/>
<path d="M276.009 1050.3H207.561V1118.7H276.009V1050.3Z" stroke="white" stroke-width="0.5" stroke-miterlimit="10"/>
<path d="M344.458 -43.1377H276.009V25.2639H344.458V-43.1377Z" stroke="white" stroke-width="0.5" stroke-miterlimit="10"/>
<path d="M344.458 25.2637H276.009V93.6653H344.458V25.2637Z" stroke="white" stroke-width="0.5" stroke-miterlimit="10"/>
<path d="M344.458 93.4189H276.009V161.821H344.458V93.4189Z" stroke="white" stroke-width="0.5" stroke-miterlimit="10"/>
<path d="M344.458 161.82H276.009V230.222H344.458V161.82Z" stroke="white" stroke-width="0.5" stroke-miterlimit="10"/>
<path d="M344.458 230.223H276.009V298.624H344.458V230.223Z" stroke="white" stroke-width="0.5" stroke-miterlimit="10"/>
<path d="M344.458 298.624H276.009V367.026H344.458V298.624Z" stroke="white" stroke-width="0.5" stroke-miterlimit="10"/>
<path d="M344.458 366.779H276.009V435.181H344.458V366.779Z" stroke="white" stroke-width="0.5" stroke-miterlimit="10"/>
<path d="M344.458 435.181H276.009V503.582H344.458V435.181Z" stroke="white" stroke-width="0.5" stroke-miterlimit="10"/>
<path d="M344.458 503.582H276.009V571.984H344.458V503.582Z" stroke="white" stroke-width="0.5" stroke-miterlimit="10"/>
<path d="M344.458 571.984H276.009V640.386H344.458V571.984Z" stroke="white" stroke-width="0.5" stroke-miterlimit="10"/>
<path d="M344.458 640.386H276.009V708.787H344.458V640.386Z" stroke="white" stroke-width="0.5" stroke-miterlimit="10"/>
<path d="M344.458 708.541H276.009V776.943H344.458V708.541Z" stroke="white" stroke-width="0.5" stroke-miterlimit="10"/>
<path d="M344.458 776.943H276.009V845.345H344.458V776.943Z" stroke="white" stroke-width="0.5" stroke-miterlimit="10"/>
<path d="M344.458 845.345H276.009V913.746H344.458V845.345Z" stroke="white" stroke-width="0.5" stroke-miterlimit="10"/>
<path d="M344.458 913.746H276.009V982.148H344.458V913.746Z" stroke="white" stroke-width="0.5" stroke-miterlimit="10"/>
<path d="M344.458 981.901H276.009V1050.3H344.458V981.901Z" stroke="white" stroke-width="0.5" stroke-miterlimit="10"/>
<path d="M344.458 1050.3H276.009V1118.7H344.458V1050.3Z" stroke="white" stroke-width="0.5" stroke-miterlimit="10"/>
<path d="M412.906 -43.1377H344.458V25.2639H412.906V-43.1377Z" stroke="white" stroke-width="0.5" stroke-miterlimit="10"/>
<path d="M412.906 25.2637H344.458V93.6653H412.906V25.2637Z" stroke="white" stroke-width="0.5" stroke-miterlimit="10"/>
<path d="M412.906 93.4189H344.458V161.821H412.906V93.4189Z" stroke="white" stroke-width="0.5" stroke-miterlimit="10"/>
<path d="M412.906 161.82H344.458V230.222H412.906V161.82Z" stroke="white" stroke-width="0.5" stroke-miterlimit="10"/>
<path d="M412.906 230.223H344.458V298.624H412.906V230.223Z" stroke="white" stroke-width="0.5" stroke-miterlimit="10"/>
<path d="M412.906 298.624H344.458V367.026H412.906V298.624Z" stroke="white" stroke-width="0.5" stroke-miterlimit="10"/>
<path d="M412.906 366.779H344.458V435.181H412.906V366.779Z" stroke="white" stroke-width="0.5" stroke-miterlimit="10"/>
<path d="M412.906 435.181H344.458V503.582H412.906V435.181Z" stroke="white" stroke-width="0.5" stroke-miterlimit="10"/>
<path d="M412.906 503.582H344.458V571.984H412.906V503.582Z" stroke="white" stroke-width="0.5" stroke-miterlimit="10"/>
<path d="M412.906 571.984H344.458V640.386H412.906V571.984Z" stroke="white" stroke-width="0.5" stroke-miterlimit="10"/>
<path d="M412.906 640.386H344.458V708.787H412.906V640.386Z" stroke="white" stroke-width="0.5" stroke-miterlimit="10"/>
<path d="M412.906 708.541H344.458V776.943H412.906V708.541Z" stroke="white" stroke-width="0.5" stroke-miterlimit="10"/>
<path d="M412.906 776.943H344.458V845.345H412.906V776.943Z" stroke="white" stroke-width="0.5" stroke-miterlimit="10"/>
<path d="M412.906 845.345H344.458V913.746H412.906V845.345Z" stroke="white" stroke-width="0.5" stroke-miterlimit="10"/>
<path d="M412.906 913.746H344.458V982.148H412.906V913.746Z" stroke="white" stroke-width="0.5" stroke-miterlimit="10"/>
<path d="M412.906 981.901H344.458V1050.3H412.906V981.901Z" stroke="white" stroke-width="0.5" stroke-miterlimit="10"/>
<path d="M412.906 1050.3H344.458V1118.7H412.906V1050.3Z" stroke="white" stroke-width="0.5" stroke-miterlimit="10"/>
<path d="M481.354 -43.1377H412.906V25.2639H481.354V-43.1377Z" stroke="white" stroke-width="0.5" stroke-miterlimit="10"/>
<path d="M481.354 25.2637H412.906V93.6653H481.354V25.2637Z" stroke="white" stroke-width="0.5" stroke-miterlimit="10"/>
<path d="M481.354 93.4189H412.906V161.821H481.354V93.4189Z" stroke="white" stroke-width="0.5" stroke-miterlimit="10"/>
<path d="M481.354 161.82H412.906V230.222H481.354V161.82Z" stroke="white" stroke-width="0.5" stroke-miterlimit="10"/>
<path d="M481.354 230.223H412.906V298.624H481.354V230.223Z" stroke="white" stroke-width="0.5" stroke-miterlimit="10"/>
<path d="M481.354 298.624H412.906V367.026H481.354V298.624Z" stroke="white" stroke-width="0.5" stroke-miterlimit="10"/>
<path d="M481.354 366.779H412.906V435.181H481.354V366.779Z" stroke="white" stroke-width="0.5" stroke-miterlimit="10"/>
<path d="M481.354 435.181H412.906V503.582H481.354V435.181Z" stroke="white" stroke-width="0.5" stroke-miterlimit="10"/>
<path d="M481.354 503.582H412.906V571.984H481.354V503.582Z" stroke="white" stroke-width="0.5" stroke-miterlimit="10"/>
<path d="M481.354 571.984H412.906V640.386H481.354V571.984Z" stroke="white" stroke-width="0.5" stroke-miterlimit="10"/>
<path d="M481.354 640.386H412.906V708.787H481.354V640.386Z" stroke="white" stroke-width="0.5" stroke-miterlimit="10"/>
<path d="M481.354 708.541H412.906V776.943H481.354V708.541Z" stroke="white" stroke-width="0.5" stroke-miterlimit="10"/>
<path d="M481.354 776.943H412.906V845.345H481.354V776.943Z" stroke="white" stroke-width="0.5" stroke-miterlimit="10"/>
<path d="M481.354 845.345H412.906V913.746H481.354V845.345Z" stroke="white" stroke-width="0.5" stroke-miterlimit="10"/>
<path d="M481.354 913.746H412.906V982.148H481.354V913.746Z" stroke="white" stroke-width="0.5" stroke-miterlimit="10"/>
<path d="M481.354 981.901H412.906V1050.3H481.354V981.901Z" stroke="white" stroke-width="0.5" stroke-miterlimit="10"/>
<path d="M481.354 1050.3H412.906V1118.7H481.354V1050.3Z" stroke="white" stroke-width="0.5" stroke-miterlimit="10"/>
<path d="M549.556 -43.1377H481.108V25.2639H549.556V-43.1377Z" stroke="white" stroke-width="0.5" stroke-miterlimit="10"/>
<path d="M549.556 25.2637H481.108V93.6653H549.556V25.2637Z" stroke="white" stroke-width="0.5" stroke-miterlimit="10"/>
<path d="M549.556 93.4189H481.108V161.821H549.556V93.4189Z" stroke="white" stroke-width="0.5" stroke-miterlimit="10"/>
<path d="M549.556 161.82H481.108V230.222H549.556V161.82Z" stroke="white" stroke-width="0.5" stroke-miterlimit="10"/>
<path d="M549.556 230.223H481.108V298.624H549.556V230.223Z" stroke="white" stroke-width="0.5" stroke-miterlimit="10"/>
<path d="M549.556 298.624H481.108V367.026H549.556V298.624Z" stroke="white" stroke-width="0.5" stroke-miterlimit="10"/>
<path d="M549.556 366.779H481.108V435.181H549.556V366.779Z" stroke="white" stroke-width="0.5" stroke-miterlimit="10"/>
<path d="M549.556 435.181H481.108V503.582H549.556V435.181Z" stroke="white" stroke-width="0.5" stroke-miterlimit="10"/>
<path d="M549.556 503.582H481.108V571.984H549.556V503.582Z" stroke="white" stroke-width="0.5" stroke-miterlimit="10"/>
<path d="M549.556 571.984H481.108V640.386H549.556V571.984Z" stroke="white" stroke-width="0.5" stroke-miterlimit="10"/>
<path d="M549.556 640.386H481.108V708.787H549.556V640.386Z" stroke="white" stroke-width="0.5" stroke-miterlimit="10"/>
<path d="M549.556 708.541H481.108V776.943H549.556V708.541Z" stroke="white" stroke-width="0.5" stroke-miterlimit="10"/>
<path d="M549.556 776.943H481.108V845.345H549.556V776.943Z" stroke="white" stroke-width="0.5" stroke-miterlimit="10"/>
<path d="M549.556 845.345H481.108V913.746H549.556V845.345Z" stroke="white" stroke-width="0.5" stroke-miterlimit="10"/>
<path d="M549.556 913.746H481.108V982.148H549.556V913.746Z" stroke="white" stroke-width="0.5" stroke-miterlimit="10"/>
<path d="M549.556 981.901H481.108V1050.3H549.556V981.901Z" stroke="white" stroke-width="0.5" stroke-miterlimit="10"/>
<path d="M549.556 1050.3H481.108V1118.7H549.556V1050.3Z" stroke="white" stroke-width="0.5" stroke-miterlimit="10"/>
<path d="M618.005 -43.1377H549.556V25.2639H618.005V-43.1377Z" stroke="white" stroke-width="0.5" stroke-miterlimit="10"/>
<path d="M618.005 25.2637H549.556V93.6653H618.005V25.2637Z" stroke="white" stroke-width="0.5" stroke-miterlimit="10"/>
<path d="M618.005 93.4189H549.556V161.821H618.005V93.4189Z" stroke="white" stroke-width="0.5" stroke-miterlimit="10"/>
<path d="M618.005 161.82H549.556V230.222H618.005V161.82Z" stroke="white" stroke-width="0.5" stroke-miterlimit="10"/>
<path d="M618.005 230.223H549.556V298.624H618.005V230.223Z" stroke="white" stroke-width="0.5" stroke-miterlimit="10"/>
<path d="M618.005 298.624H549.556V367.026H618.005V298.624Z" stroke="white" stroke-width="0.5" stroke-miterlimit="10"/>
<path d="M618.005 366.779H549.556V435.181H618.005V366.779Z" stroke="white" stroke-width="0.5" stroke-miterlimit="10"/>
<path d="M618.005 435.181H549.556V503.582H618.005V435.181Z" stroke="white" stroke-width="0.5" stroke-miterlimit="10"/>
<path d="M618.005 503.582H549.556V571.984H618.005V503.582Z" stroke="white" stroke-width="0.5" stroke-miterlimit="10"/>
<path d="M618.005 571.984H549.556V640.386H618.005V571.984Z" stroke="white" stroke-width="0.5" stroke-miterlimit="10"/>
<path d="M618.005 640.386H549.556V708.787H618.005V640.386Z" stroke="white" stroke-width="0.5" stroke-miterlimit="10"/>
<path d="M618.005 708.541H549.556V776.943H618.005V708.541Z" stroke="white" stroke-width="0.5" stroke-miterlimit="10"/>
<path d="M618.005 776.943H549.556V845.345H618.005V776.943Z" stroke="white" stroke-width="0.5" stroke-miterlimit="10"/>
<path d="M618.005 845.345H549.556V913.746H618.005V845.345Z" stroke="white" stroke-width="0.5" stroke-miterlimit="10"/>
<path d="M618.005 913.746H549.556V982.148H618.005V913.746Z" stroke="white" stroke-width="0.5" stroke-miterlimit="10"/>
<path d="M618.005 981.901H549.556V1050.3H618.005V981.901Z" stroke="white" stroke-width="0.5" stroke-miterlimit="10"/>
<path d="M618.005 1050.3H549.556V1118.7H618.005V1050.3Z" stroke="white" stroke-width="0.5" stroke-miterlimit="10"/>
<path d="M686.453 -43.1377H618.005V25.2639H686.453V-43.1377Z" stroke="white" stroke-width="0.5" stroke-miterlimit="10"/>
<path d="M686.453 25.2637H618.005V93.6653H686.453V25.2637Z" stroke="white" stroke-width="0.5" stroke-miterlimit="10"/>
<path d="M686.453 93.4189H618.005V161.821H686.453V93.4189Z" stroke="white" stroke-width="0.5" stroke-miterlimit="10"/>
<path d="M686.453 161.82H618.005V230.222H686.453V161.82Z" stroke="white" stroke-width="0.5" stroke-miterlimit="10"/>
<path d="M686.453 230.223H618.005V298.624H686.453V230.223Z" stroke="white" stroke-width="0.5" stroke-miterlimit="10"/>
<path d="M686.453 298.624H618.005V367.026H686.453V298.624Z" stroke="white" stroke-width="0.5" stroke-miterlimit="10"/>
<path d="M686.453 366.779H618.005V435.181H686.453V366.779Z" stroke="white" stroke-width="0.5" stroke-miterlimit="10"/>
<path d="M686.453 435.181H618.005V503.582H686.453V435.181Z" stroke="white" stroke-width="0.5" stroke-miterlimit="10"/>
<path d="M686.453 503.582H618.005V571.984H686.453V503.582Z" stroke="white" stroke-width="0.5" stroke-miterlimit="10"/>
<path d="M686.453 571.984H618.005V640.386H686.453V571.984Z" stroke="white" stroke-width="0.5" stroke-miterlimit="10"/>
<path d="M686.453 640.386H618.005V708.787H686.453V640.386Z" stroke="white" stroke-width="0.5" stroke-miterlimit="10"/>
<path d="M686.453 708.541H618.005V776.943H686.453V708.541Z" stroke="white" stroke-width="0.5" stroke-miterlimit="10"/>
<path d="M686.453 776.943H618.005V845.345H686.453V776.943Z" stroke="white" stroke-width="0.5" stroke-miterlimit="10"/>
<path d="M686.453 845.345H618.005V913.746H686.453V845.345Z" stroke="white" stroke-width="0.5" stroke-miterlimit="10"/>
<path d="M686.453 913.746H618.005V982.148H686.453V913.746Z" stroke="white" stroke-width="0.5" stroke-miterlimit="10"/>
<path d="M686.453 981.901H618.005V1050.3H686.453V981.901Z" stroke="white" stroke-width="0.5" stroke-miterlimit="10"/>
<path d="M686.453 1050.3H618.005V1118.7H686.453V1050.3Z" stroke="white" stroke-width="0.5" stroke-miterlimit="10"/>
<path d="M754.901 -43.1377H686.453V25.2639H754.901V-43.1377Z" stroke="white" stroke-width="0.5" stroke-miterlimit="10"/>
<path d="M754.901 25.2637H686.453V93.6653H754.901V25.2637Z" stroke="white" stroke-width="0.5" stroke-miterlimit="10"/>
<path d="M754.901 93.4189H686.453V161.821H754.901V93.4189Z" stroke="white" stroke-width="0.5" stroke-miterlimit="10"/>
<path d="M754.901 161.82H686.453V230.222H754.901V161.82Z" stroke="white" stroke-width="0.5" stroke-miterlimit="10"/>
<path d="M754.901 230.223H686.453V298.624H754.901V230.223Z" stroke="white" stroke-width="0.5" stroke-miterlimit="10"/>
<path d="M754.901 298.624H686.453V367.026H754.901V298.624Z" stroke="white" stroke-width="0.5" stroke-miterlimit="10"/>
<path d="M754.901 366.779H686.453V435.181H754.901V366.779Z" stroke="white" stroke-width="0.5" stroke-miterlimit="10"/>
<path d="M754.901 435.181H686.453V503.582H754.901V435.181Z" stroke="white" stroke-width="0.5" stroke-miterlimit="10"/>
<path d="M754.901 503.582H686.453V571.984H754.901V503.582Z" stroke="white" stroke-width="0.5" stroke-miterlimit="10"/>
<path d="M754.901 571.984H686.453V640.386H754.901V571.984Z" stroke="white" stroke-width="0.5" stroke-miterlimit="10"/>
<path d="M754.901 640.386H686.453V708.787H754.901V640.386Z" stroke="white" stroke-width="0.5" stroke-miterlimit="10"/>
<path d="M754.901 708.541H686.453V776.943H754.901V708.541Z" stroke="white" stroke-width="0.5" stroke-miterlimit="10"/>
<path d="M754.901 776.943H686.453V845.345H754.901V776.943Z" stroke="white" stroke-width="0.5" stroke-miterlimit="10"/>
<path d="M754.901 845.345H686.453V913.746H754.901V845.345Z" stroke="white" stroke-width="0.5" stroke-miterlimit="10"/>
<path d="M754.901 913.746H686.453V982.148H754.901V913.746Z" stroke="white" stroke-width="0.5" stroke-miterlimit="10"/>
<path d="M754.901 981.901H686.453V1050.3H754.901V981.901Z" stroke="white" stroke-width="0.5" stroke-miterlimit="10"/>
<path d="M754.901 1050.3H686.453V1118.7H754.901V1050.3Z" stroke="white" stroke-width="0.5" stroke-miterlimit="10"/>
<path d="M823.35 -43.1377H754.901V25.2639H823.35V-43.1377Z" stroke="white" stroke-width="0.5" stroke-miterlimit="10"/>
<path d="M823.35 25.2637H754.901V93.6653H823.35V25.2637Z" stroke="white" stroke-width="0.5" stroke-miterlimit="10"/>
<path d="M823.35 93.4189H754.901V161.821H823.35V93.4189Z" stroke="white" stroke-width="0.5" stroke-miterlimit="10"/>
<path d="M823.35 161.82H754.901V230.222H823.35V161.82Z" stroke="white" stroke-width="0.5" stroke-miterlimit="10"/>
<path d="M823.35 230.223H754.901V298.624H823.35V230.223Z" stroke="white" stroke-width="0.5" stroke-miterlimit="10"/>
<path d="M823.35 298.624H754.901V367.026H823.35V298.624Z" stroke="white" stroke-width="0.5" stroke-miterlimit="10"/>
<path d="M823.35 366.779H754.901V435.181H823.35V366.779Z" stroke="white" stroke-width="0.5" stroke-miterlimit="10"/>
<path d="M823.35 435.181H754.901V503.582H823.35V435.181Z" stroke="white" stroke-width="0.5" stroke-miterlimit="10"/>
<path d="M823.35 503.582H754.901V571.984H823.35V503.582Z" stroke="white" stroke-width="0.5" stroke-miterlimit="10"/>
<path d="M823.35 571.984H754.901V640.386H823.35V571.984Z" stroke="white" stroke-width="0.5" stroke-miterlimit="10"/>
<path d="M823.35 640.386H754.901V708.787H823.35V640.386Z" stroke="white" stroke-width="0.5" stroke-miterlimit="10"/>
<path d="M823.35 708.541H754.901V776.943H823.35V708.541Z" stroke="white" stroke-width="0.5" stroke-miterlimit="10"/>
<path d="M823.35 776.943H754.901V845.345H823.35V776.943Z" stroke="white" stroke-width="0.5" stroke-miterlimit="10"/>
<path d="M823.35 845.345H754.901V913.746H823.35V845.345Z" stroke="white" stroke-width="0.5" stroke-miterlimit="10"/>
<path d="M823.35 913.746H754.901V982.148H823.35V913.746Z" stroke="white" stroke-width="0.5" stroke-miterlimit="10"/>
<path d="M823.35 981.901H754.901V1050.3H823.35V981.901Z" stroke="white" stroke-width="0.5" stroke-miterlimit="10"/>
<path d="M823.35 1050.3H754.901V1118.7H823.35V1050.3Z" stroke="white" stroke-width="0.5" stroke-miterlimit="10"/>
<path d="M891.552 -43.1377H823.104V25.2639H891.552V-43.1377Z" stroke="white" stroke-width="0.5" stroke-miterlimit="10"/>
<path d="M891.552 25.2637H823.104V93.6653H891.552V25.2637Z" stroke="white" stroke-width="0.5" stroke-miterlimit="10"/>
<path d="M891.552 93.4189H823.104V161.821H891.552V93.4189Z" stroke="white" stroke-width="0.5" stroke-miterlimit="10"/>
<path d="M891.552 161.82H823.104V230.222H891.552V161.82Z" stroke="white" stroke-width="0.5" stroke-miterlimit="10"/>
<path d="M891.552 230.223H823.104V298.624H891.552V230.223Z" stroke="white" stroke-width="0.5" stroke-miterlimit="10"/>
<path d="M891.552 298.624H823.104V367.026H891.552V298.624Z" stroke="white" stroke-width="0.5" stroke-miterlimit="10"/>
<path d="M891.552 366.779H823.104V435.181H891.552V366.779Z" stroke="white" stroke-width="0.5" stroke-miterlimit="10"/>
<path d="M891.552 435.181H823.104V503.582H891.552V435.181Z" stroke="white" stroke-width="0.5" stroke-miterlimit="10"/>
<path d="M891.552 503.582H823.104V571.984H891.552V503.582Z" stroke="white" stroke-width="0.5" stroke-miterlimit="10"/>
<path d="M891.552 571.984H823.104V640.386H891.552V571.984Z" stroke="white" stroke-width="0.5" stroke-miterlimit="10"/>
<path d="M891.552 640.386H823.104V708.787H891.552V640.386Z" stroke="white" stroke-width="0.5" stroke-miterlimit="10"/>
<path d="M891.552 708.541H823.104V776.943H891.552V708.541Z" stroke="white" stroke-width="0.5" stroke-miterlimit="10"/>
<path d="M891.552 776.943H823.104V845.345H891.552V776.943Z" stroke="white" stroke-width="0.5" stroke-miterlimit="10"/>
<path d="M891.552 845.345H823.104V913.746H891.552V845.345Z" stroke="white" stroke-width="0.5" stroke-miterlimit="10"/>
<path d="M891.552 913.746H823.104V982.148H891.552V913.746Z" stroke="white" stroke-width="0.5" stroke-miterlimit="10"/>
<path d="M891.552 981.901H823.104V1050.3H891.552V981.901Z" stroke="white" stroke-width="0.5" stroke-miterlimit="10"/>
<path d="M891.552 1050.3H823.104V1118.7H891.552V1050.3Z" stroke="white" stroke-width="0.5" stroke-miterlimit="10"/>
<path d="M960 -43.1377H891.552V25.2639H960V-43.1377Z" stroke="white" stroke-width="0.5" stroke-miterlimit="10"/>
<path d="M960 25.2637H891.552V93.6653H960V25.2637Z" stroke="white" stroke-width="0.5" stroke-miterlimit="10"/>
<path d="M960 93.4189H891.552V161.821H960V93.4189Z" stroke="white" stroke-width="0.5" stroke-miterlimit="10"/>
<path d="M960 161.82H891.552V230.222H960V161.82Z" stroke="white" stroke-width="0.5" stroke-miterlimit="10"/>
<path d="M960 230.223H891.552V298.624H960V230.223Z" stroke="white" stroke-width="0.5" stroke-miterlimit="10"/>
<path d="M960 298.624H891.552V367.026H960V298.624Z" stroke="white" stroke-width="0.5" stroke-miterlimit="10"/>
<path d="M960 366.779H891.552V435.181H960V366.779Z" stroke="white" stroke-width="0.5" stroke-miterlimit="10"/>
<path d="M960 435.181H891.552V503.582H960V435.181Z" stroke="white" stroke-width="0.5" stroke-miterlimit="10"/>
<path d="M960 503.582H891.552V571.984H960V503.582Z" stroke="white" stroke-width="0.5" stroke-miterlimit="10"/>
<path d="M960 571.984H891.552V640.386H960V571.984Z" stroke="white" stroke-width="0.5" stroke-miterlimit="10"/>
<path d="M960 640.386H891.552V708.787H960V640.386Z" stroke="white" stroke-width="0.5" stroke-miterlimit="10"/>
<path d="M960 708.541H891.552V776.943H960V708.541Z" stroke="white" stroke-width="0.5" stroke-miterlimit="10"/>
<path d="M960 776.943H891.552V845.345H960V776.943Z" stroke="white" stroke-width="0.5" stroke-miterlimit="10"/>
<path d="M960 845.345H891.552V913.746H960V845.345Z" stroke="white" stroke-width="0.5" stroke-miterlimit="10"/>
<path d="M960 913.746H891.552V982.148H960V913.746Z" stroke="white" stroke-width="0.5" stroke-miterlimit="10"/>
<path d="M960 981.901H891.552V1050.3H960V981.901Z" stroke="white" stroke-width="0.5" stroke-miterlimit="10"/>
<path d="M960 1050.3H891.552V1118.7H960V1050.3Z" stroke="white" stroke-width="0.5" stroke-miterlimit="10"/>
<path d="M1028.45 -43.1377H960V25.2639H1028.45V-43.1377Z" stroke="white" stroke-width="0.5" stroke-miterlimit="10"/>
<path d="M1028.45 25.2637H960V93.6653H1028.45V25.2637Z" stroke="white" stroke-width="0.5" stroke-miterlimit="10"/>
<path d="M1028.45 93.4189H960V161.821H1028.45V93.4189Z" stroke="white" stroke-width="0.5" stroke-miterlimit="10"/>
<path d="M1028.45 161.82H960V230.222H1028.45V161.82Z" stroke="white" stroke-width="0.5" stroke-miterlimit="10"/>
<path d="M1028.45 230.223H960V298.624H1028.45V230.223Z" stroke="white" stroke-width="0.5" stroke-miterlimit="10"/>
<path d="M1028.45 298.624H960V367.026H1028.45V298.624Z" stroke="white" stroke-width="0.5" stroke-miterlimit="10"/>
<path d="M1028.45 366.779H960V435.181H1028.45V366.779Z" stroke="white" stroke-width="0.5" stroke-miterlimit="10"/>
<path d="M1028.45 435.181H960V503.582H1028.45V435.181Z" stroke="white" stroke-width="0.5" stroke-miterlimit="10"/>
<path d="M1028.45 503.582H960V571.984H1028.45V503.582Z" stroke="white" stroke-width="0.5" stroke-miterlimit="10"/>
<path d="M1028.45 571.984H960V640.386H1028.45V571.984Z" stroke="white" stroke-width="0.5" stroke-miterlimit="10"/>
<path d="M1028.45 640.386H960V708.787H1028.45V640.386Z" stroke="white" stroke-width="0.5" stroke-miterlimit="10"/>
<path d="M1028.45 708.541H960V776.943H1028.45V708.541Z" stroke="white" stroke-width="0.5" stroke-miterlimit="10"/>
<path d="M1028.45 776.943H960V845.345H1028.45V776.943Z" stroke="white" stroke-width="0.5" stroke-miterlimit="10"/>
<path d="M1028.45 845.345H960V913.746H1028.45V845.345Z" stroke="white" stroke-width="0.5" stroke-miterlimit="10"/>
<path d="M1028.45 913.746H960V982.148H1028.45V913.746Z" stroke="white" stroke-width="0.5" stroke-miterlimit="10"/>
<path d="M1028.45 981.901H960V1050.3H1028.45V981.901Z" stroke="white" stroke-width="0.5" stroke-miterlimit="10"/>
<path d="M1028.45 1050.3H960V1118.7H1028.45V1050.3Z" stroke="white" stroke-width="0.5" stroke-miterlimit="10"/>
<path d="M1096.9 -43.1377H1028.45V25.2639H1096.9V-43.1377Z" stroke="white" stroke-width="0.5" stroke-miterlimit="10"/>
<path d="M1096.9 25.2637H1028.45V93.6653H1096.9V25.2637Z" stroke="white" stroke-width="0.5" stroke-miterlimit="10"/>
<path d="M1096.9 93.4189H1028.45V161.821H1096.9V93.4189Z" stroke="white" stroke-width="0.5" stroke-miterlimit="10"/>
<path d="M1096.9 161.82H1028.45V230.222H1096.9V161.82Z" stroke="white" stroke-width="0.5" stroke-miterlimit="10"/>
<path d="M1096.9 230.223H1028.45V298.624H1096.9V230.223Z" stroke="white" stroke-width="0.5" stroke-miterlimit="10"/>
<path d="M1096.9 298.624H1028.45V367.026H1096.9V298.624Z" stroke="white" stroke-width="0.5" stroke-miterlimit="10"/>
<path d="M1096.9 366.779H1028.45V435.181H1096.9V366.779Z" stroke="white" stroke-width="0.5" stroke-miterlimit="10"/>
<path d="M1096.9 435.181H1028.45V503.582H1096.9V435.181Z" stroke="white" stroke-width="0.5" stroke-miterlimit="10"/>
<path d="M1096.9 503.582H1028.45V571.984H1096.9V503.582Z" stroke="white" stroke-width="0.5" stroke-miterlimit="10"/>
<path d="M1096.9 571.984H1028.45V640.386H1096.9V571.984Z" stroke="white" stroke-width="0.5" stroke-miterlimit="10"/>
<path d="M1096.9 640.386H1028.45V708.787H1096.9V640.386Z" stroke="white" stroke-width="0.5" stroke-miterlimit="10"/>
<path d="M1096.9 708.541H1028.45V776.943H1096.9V708.541Z" stroke="white" stroke-width="0.5" stroke-miterlimit="10"/>
<path d="M1096.9 776.943H1028.45V845.345H1096.9V776.943Z" stroke="white" stroke-width="0.5" stroke-miterlimit="10"/>
<path d="M1096.9 845.345H1028.45V913.746H1096.9V845.345Z" stroke="white" stroke-width="0.5" stroke-miterlimit="10"/>
<path d="M1096.9 913.746H1028.45V982.148H1096.9V913.746Z" stroke="white" stroke-width="0.5" stroke-miterlimit="10"/>
<path d="M1096.9 981.901H1028.45V1050.3H1096.9V981.901Z" stroke="white" stroke-width="0.5" stroke-miterlimit="10"/>
<path d="M1096.9 1050.3H1028.45V1118.7H1096.9V1050.3Z" stroke="white" stroke-width="0.5" stroke-miterlimit="10"/>
<path d="M1165.1 -43.1377H1096.65V25.2639H1165.1V-43.1377Z" stroke="white" stroke-width="0.5" stroke-miterlimit="10"/>
<path d="M1165.1 25.2637H1096.65V93.6653H1165.1V25.2637Z" stroke="white" stroke-width="0.5" stroke-miterlimit="10"/>
<path d="M1165.1 93.4189H1096.65V161.821H1165.1V93.4189Z" stroke="white" stroke-width="0.5" stroke-miterlimit="10"/>
<path d="M1165.1 161.82H1096.65V230.222H1165.1V161.82Z" stroke="white" stroke-width="0.5" stroke-miterlimit="10"/>
<path d="M1165.1 230.223H1096.65V298.624H1165.1V230.223Z" stroke="white" stroke-width="0.5" stroke-miterlimit="10"/>
<path d="M1165.1 298.624H1096.65V367.026H1165.1V298.624Z" stroke="white" stroke-width="0.5" stroke-miterlimit="10"/>
<path d="M1165.1 366.779H1096.65V435.181H1165.1V366.779Z" stroke="white" stroke-width="0.5" stroke-miterlimit="10"/>
<path d="M1165.1 435.181H1096.65V503.582H1165.1V435.181Z" stroke="white" stroke-width="0.5" stroke-miterlimit="10"/>
<path d="M1165.1 503.582H1096.65V571.984H1165.1V503.582Z" stroke="white" stroke-width="0.5" stroke-miterlimit="10"/>
<path d="M1165.1 571.984H1096.65V640.386H1165.1V571.984Z" stroke="white" stroke-width="0.5" stroke-miterlimit="10"/>
<path d="M1165.1 640.386H1096.65V708.787H1165.1V640.386Z" stroke="white" stroke-width="0.5" stroke-miterlimit="10"/>
<path d="M1165.1 708.541H1096.65V776.943H1165.1V708.541Z" stroke="white" stroke-width="0.5" stroke-miterlimit="10"/>
<path d="M1165.1 776.943H1096.65V845.345H1165.1V776.943Z" stroke="white" stroke-width="0.5" stroke-miterlimit="10"/>
<path d="M1165.1 845.345H1096.65V913.746H1165.1V845.345Z" stroke="white" stroke-width="0.5" stroke-miterlimit="10"/>
<path d="M1165.1 913.746H1096.65V982.148H1165.1V913.746Z" stroke="white" stroke-width="0.5" stroke-miterlimit="10"/>
<path d="M1165.1 981.901H1096.65V1050.3H1165.1V981.901Z" stroke="white" stroke-width="0.5" stroke-miterlimit="10"/>
<path d="M1165.1 1050.3H1096.65V1118.7H1165.1V1050.3Z" stroke="white" stroke-width="0.5" stroke-miterlimit="10"/>
<path d="M1233.55 -43.1377H1165.1V25.2639H1233.55V-43.1377Z" stroke="white" stroke-width="0.5" stroke-miterlimit="10"/>
<path d="M1233.55 25.2637H1165.1V93.6653H1233.55V25.2637Z" stroke="white" stroke-width="0.5" stroke-miterlimit="10"/>
<path d="M1233.55 93.4189H1165.1V161.821H1233.55V93.4189Z" stroke="white" stroke-width="0.5" stroke-miterlimit="10"/>
<path d="M1233.55 161.82H1165.1V230.222H1233.55V161.82Z" stroke="white" stroke-width="0.5" stroke-miterlimit="10"/>
<path d="M1233.55 230.223H1165.1V298.624H1233.55V230.223Z" stroke="white" stroke-width="0.5" stroke-miterlimit="10"/>
<path d="M1233.55 298.624H1165.1V367.026H1233.55V298.624Z" stroke="white" stroke-width="0.5" stroke-miterlimit="10"/>
<path d="M1233.55 366.779H1165.1V435.181H1233.55V366.779Z" stroke="white" stroke-width="0.5" stroke-miterlimit="10"/>
<path d="M1233.55 435.181H1165.1V503.582H1233.55V435.181Z" stroke="white" stroke-width="0.5" stroke-miterlimit="10"/>
<path d="M1233.55 503.582H1165.1V571.984H1233.55V503.582Z" stroke="white" stroke-width="0.5" stroke-miterlimit="10"/>
<path d="M1233.55 571.984H1165.1V640.386H1233.55V571.984Z" stroke="white" stroke-width="0.5" stroke-miterlimit="10"/>
<path d="M1233.55 640.386H1165.1V708.787H1233.55V640.386Z" stroke="white" stroke-width="0.5" stroke-miterlimit="10"/>
<path d="M1233.55 708.541H1165.1V776.943H1233.55V708.541Z" stroke="white" stroke-width="0.5" stroke-miterlimit="10"/>
<path d="M1233.55 776.943H1165.1V845.345H1233.55V776.943Z" stroke="white" stroke-width="0.5" stroke-miterlimit="10"/>
<path d="M1233.55 845.345H1165.1V913.746H1233.55V845.345Z" stroke="white" stroke-width="0.5" stroke-miterlimit="10"/>
<path d="M1233.55 913.746H1165.1V982.148H1233.55V913.746Z" stroke="white" stroke-width="0.5" stroke-miterlimit="10"/>
<path d="M1233.55 981.901H1165.1V1050.3H1233.55V981.901Z" stroke="white" stroke-width="0.5" stroke-miterlimit="10"/>
<path d="M1233.55 1050.3H1165.1V1118.7H1233.55V1050.3Z" stroke="white" stroke-width="0.5" stroke-miterlimit="10"/>
<path d="M1301.99 -43.1377H1233.55V25.2639H1301.99V-43.1377Z" stroke="white" stroke-width="0.5" stroke-miterlimit="10"/>
<path d="M1301.99 25.2637H1233.55V93.6653H1301.99V25.2637Z" stroke="white" stroke-width="0.5" stroke-miterlimit="10"/>
<path d="M1301.99 93.4189H1233.55V161.821H1301.99V93.4189Z" stroke="white" stroke-width="0.5" stroke-miterlimit="10"/>
<path d="M1301.99 161.82H1233.55V230.222H1301.99V161.82Z" stroke="white" stroke-width="0.5" stroke-miterlimit="10"/>
<path d="M1301.99 230.223H1233.55V298.624H1301.99V230.223Z" stroke="white" stroke-width="0.5" stroke-miterlimit="10"/>
<path d="M1301.99 298.624H1233.55V367.026H1301.99V298.624Z" stroke="white" stroke-width="0.5" stroke-miterlimit="10"/>
<path d="M1301.99 366.779H1233.55V435.181H1301.99V366.779Z" stroke="white" stroke-width="0.5" stroke-miterlimit="10"/>
<path d="M1301.99 435.181H1233.55V503.582H1301.99V435.181Z" stroke="white" stroke-width="0.5" stroke-miterlimit="10"/>
<path d="M1301.99 503.582H1233.55V571.984H1301.99V503.582Z" stroke="white" stroke-width="0.5" stroke-miterlimit="10"/>
<path d="M1301.99 571.984H1233.55V640.386H1301.99V571.984Z" stroke="white" stroke-width="0.5" stroke-miterlimit="10"/>
<path d="M1301.99 640.386H1233.55V708.787H1301.99V640.386Z" stroke="white" stroke-width="0.5" stroke-miterlimit="10"/>
<path d="M1301.99 708.541H1233.55V776.943H1301.99V708.541Z" stroke="white" stroke-width="0.5" stroke-miterlimit="10"/>
<path d="M1301.99 776.943H1233.55V845.345H1301.99V776.943Z" stroke="white" stroke-width="0.5" stroke-miterlimit="10"/>
<path d="M1301.99 845.345H1233.55V913.746H1301.99V845.345Z" stroke="white" stroke-width="0.5" stroke-miterlimit="10"/>
<path d="M1301.99 913.746H1233.55V982.148H1301.99V913.746Z" stroke="white" stroke-width="0.5" stroke-miterlimit="10"/>
<path d="M1301.99 981.901H1233.55V1050.3H1301.99V981.901Z" stroke="white" stroke-width="0.5" stroke-miterlimit="10"/>
<path d="M1301.99 1050.3H1233.55V1118.7H1301.99V1050.3Z" stroke="white" stroke-width="0.5" stroke-miterlimit="10"/>
<path d="M1370.44 -43.1377H1302V25.2639H1370.44V-43.1377Z" stroke="white" stroke-width="0.5" stroke-miterlimit="10"/>
<path d="M1370.44 25.2637H1302V93.6653H1370.44V25.2637Z" stroke="white" stroke-width="0.5" stroke-miterlimit="10"/>
<path d="M1370.44 93.4189H1302V161.821H1370.44V93.4189Z" stroke="white" stroke-width="0.5" stroke-miterlimit="10"/>
<path d="M1370.44 161.82H1302V230.222H1370.44V161.82Z" stroke="white" stroke-width="0.5" stroke-miterlimit="10"/>
<path d="M1370.44 230.223H1302V298.624H1370.44V230.223Z" stroke="white" stroke-width="0.5" stroke-miterlimit="10"/>
<path d="M1370.44 298.624H1302V367.026H1370.44V298.624Z" stroke="white" stroke-width="0.5" stroke-miterlimit="10"/>
<path d="M1370.44 366.779H1302V435.181H1370.44V366.779Z" stroke="white" stroke-width="0.5" stroke-miterlimit="10"/>
<path d="M1370.44 435.181H1302V503.582H1370.44V435.181Z" stroke="white" stroke-width="0.5" stroke-miterlimit="10"/>
<path d="M1370.44 503.582H1302V571.984H1370.44V503.582Z" stroke="white" stroke-width="0.5" stroke-miterlimit="10"/>
<path d="M1370.44 571.984H1302V640.386H1370.44V571.984Z" stroke="white" stroke-width="0.5" stroke-miterlimit="10"/>
<path d="M1370.44 640.386H1302V708.787H1370.44V640.386Z" stroke="white" stroke-width="0.5" stroke-miterlimit="10"/>
<path d="M1370.44 708.541H1302V776.943H1370.44V708.541Z" stroke="white" stroke-width="0.5" stroke-miterlimit="10"/>
<path d="M1370.44 776.943H1302V845.345H1370.44V776.943Z" stroke="white" stroke-width="0.5" stroke-miterlimit="10"/>
<path d="M1370.44 845.345H1302V913.746H1370.44V845.345Z" stroke="white" stroke-width="0.5" stroke-miterlimit="10"/>
<path d="M1370.44 913.746H1302V982.148H1370.44V913.746Z" stroke="white" stroke-width="0.5" stroke-miterlimit="10"/>
<path d="M1370.44 981.901H1302V1050.3H1370.44V981.901Z" stroke="white" stroke-width="0.5" stroke-miterlimit="10"/>
<path d="M1370.44 1050.3H1302V1118.7H1370.44V1050.3Z" stroke="white" stroke-width="0.5" stroke-miterlimit="10"/>
<path d="M1438.89 -43.1377H1370.44V25.2639H1438.89V-43.1377Z" stroke="white" stroke-width="0.5" stroke-miterlimit="10"/>
<path d="M1438.89 25.2637H1370.44V93.6653H1438.89V25.2637Z" stroke="white" stroke-width="0.5" stroke-miterlimit="10"/>
<path d="M1438.89 93.4189H1370.44V161.821H1438.89V93.4189Z" stroke="white" stroke-width="0.5" stroke-miterlimit="10"/>
<path d="M1438.89 161.82H1370.44V230.222H1438.89V161.82Z" stroke="white" stroke-width="0.5" stroke-miterlimit="10"/>
<path d="M1438.89 230.223H1370.44V298.624H1438.89V230.223Z" stroke="white" stroke-width="0.5" stroke-miterlimit="10"/>
<path d="M1438.89 298.624H1370.44V367.026H1438.89V298.624Z" stroke="white" stroke-width="0.5" stroke-miterlimit="10"/>
<path d="M1438.89 366.779H1370.44V435.181H1438.89V366.779Z" stroke="white" stroke-width="0.5" stroke-miterlimit="10"/>
<path d="M1438.89 435.181H1370.44V503.582H1438.89V435.181Z" stroke="white" stroke-width="0.5" stroke-miterlimit="10"/>
<path d="M1438.89 503.582H1370.44V571.984H1438.89V503.582Z" stroke="white" stroke-width="0.5" stroke-miterlimit="10"/>
<path d="M1438.89 571.984H1370.44V640.386H1438.89V571.984Z" stroke="white" stroke-width="0.5" stroke-miterlimit="10"/>
<path d="M1438.89 640.386H1370.44V708.787H1438.89V640.386Z" stroke="white" stroke-width="0.5" stroke-miterlimit="10"/>
<path d="M1438.89 708.541H1370.44V776.943H1438.89V708.541Z" stroke="white" stroke-width="0.5" stroke-miterlimit="10"/>
<path d="M1438.89 776.943H1370.44V845.345H1438.89V776.943Z" stroke="white" stroke-width="0.5" stroke-miterlimit="10"/>
<path d="M1438.89 845.345H1370.44V913.746H1438.89V845.345Z" stroke="white" stroke-width="0.5" stroke-miterlimit="10"/>
<path d="M1438.89 913.746H1370.44V982.148H1438.89V913.746Z" stroke="white" stroke-width="0.5" stroke-miterlimit="10"/>
<path d="M1438.89 981.901H1370.44V1050.3H1438.89V981.901Z" stroke="white" stroke-width="0.5" stroke-miterlimit="10"/>
<path d="M1438.89 1050.3H1370.44V1118.7H1438.89V1050.3Z" stroke="white" stroke-width="0.5" stroke-miterlimit="10"/>
<path d="M1507.09 -43.1377H1438.65V25.2639H1507.09V-43.1377Z" stroke="white" stroke-width="0.5" stroke-miterlimit="10"/>
<path d="M1507.09 25.2637H1438.65V93.6653H1507.09V25.2637Z" stroke="white" stroke-width="0.5" stroke-miterlimit="10"/>
<path d="M1507.09 93.4189H1438.65V161.821H1507.09V93.4189Z" stroke="white" stroke-width="0.5" stroke-miterlimit="10"/>
<path d="M1507.09 161.82H1438.65V230.222H1507.09V161.82Z" stroke="white" stroke-width="0.5" stroke-miterlimit="10"/>
<path d="M1507.09 230.223H1438.65V298.624H1507.09V230.223Z" stroke="white" stroke-width="0.5" stroke-miterlimit="10"/>
<path d="M1507.09 298.624H1438.65V367.026H1507.09V298.624Z" stroke="white" stroke-width="0.5" stroke-miterlimit="10"/>
<path d="M1507.09 366.779H1438.65V435.181H1507.09V366.779Z" stroke="white" stroke-width="0.5" stroke-miterlimit="10"/>
<path d="M1507.09 435.181H1438.65V503.582H1507.09V435.181Z" stroke="white" stroke-width="0.5" stroke-miterlimit="10"/>
<path d="M1507.09 503.582H1438.65V571.984H1507.09V503.582Z" stroke="white" stroke-width="0.5" stroke-miterlimit="10"/>
<path d="M1507.09 571.984H1438.65V640.386H1507.09V571.984Z" stroke="white" stroke-width="0.5" stroke-miterlimit="10"/>
<path d="M1507.09 640.386H1438.65V708.787H1507.09V640.386Z" stroke="white" stroke-width="0.5" stroke-miterlimit="10"/>
<path d="M1507.09 708.541H1438.65V776.943H1507.09V708.541Z" stroke="white" stroke-width="0.5" stroke-miterlimit="10"/>
<path d="M1507.09 776.943H1438.65V845.345H1507.09V776.943Z" stroke="white" stroke-width="0.5" stroke-miterlimit="10"/>
<path d="M1507.09 845.345H1438.65V913.746H1507.09V845.345Z" stroke="white" stroke-width="0.5" stroke-miterlimit="10"/>
<path d="M1507.09 913.746H1438.65V982.148H1507.09V913.746Z" stroke="white" stroke-width="0.5" stroke-miterlimit="10"/>
<path d="M1507.09 981.901H1438.65V1050.3H1507.09V981.901Z" stroke="white" stroke-width="0.5" stroke-miterlimit="10"/>
<path d="M1507.09 1050.3H1438.65V1118.7H1507.09V1050.3Z" stroke="white" stroke-width="0.5" stroke-miterlimit="10"/>
<path d="M1575.54 -43.1377H1507.09V25.2639H1575.54V-43.1377Z" stroke="white" stroke-width="0.5" stroke-miterlimit="10"/>
<path d="M1575.54 25.2637H1507.09V93.6653H1575.54V25.2637Z" stroke="white" stroke-width="0.5" stroke-miterlimit="10"/>
<path d="M1575.54 93.4189H1507.09V161.821H1575.54V93.4189Z" stroke="white" stroke-width="0.5" stroke-miterlimit="10"/>
<path d="M1575.54 161.82H1507.09V230.222H1575.54V161.82Z" stroke="white" stroke-width="0.5" stroke-miterlimit="10"/>
<path d="M1575.54 230.223H1507.09V298.624H1575.54V230.223Z" stroke="white" stroke-width="0.5" stroke-miterlimit="10"/>
<path d="M1575.54 298.624H1507.09V367.026H1575.54V298.624Z" stroke="white" stroke-width="0.5" stroke-miterlimit="10"/>
<path d="M1575.54 366.779H1507.09V435.181H1575.54V366.779Z" stroke="white" stroke-width="0.5" stroke-miterlimit="10"/>
<path d="M1575.54 435.181H1507.09V503.582H1575.54V435.181Z" stroke="white" stroke-width="0.5" stroke-miterlimit="10"/>
<path d="M1575.54 503.582H1507.09V571.984H1575.54V503.582Z" stroke="white" stroke-width="0.5" stroke-miterlimit="10"/>
<path d="M1575.54 571.984H1507.09V640.386H1575.54V571.984Z" stroke="white" stroke-width="0.5" stroke-miterlimit="10"/>
<path d="M1575.54 640.386H1507.09V708.787H1575.54V640.386Z" stroke="white" stroke-width="0.5" stroke-miterlimit="10"/>
<path d="M1575.54 708.541H1507.09V776.943H1575.54V708.541Z" stroke="white" stroke-width="0.5" stroke-miterlimit="10"/>
<path d="M1575.54 776.943H1507.09V845.345H1575.54V776.943Z" stroke="white" stroke-width="0.5" stroke-miterlimit="10"/>
<path d="M1575.54 845.345H1507.09V913.746H1575.54V845.345Z" stroke="white" stroke-width="0.5" stroke-miterlimit="10"/>
<path d="M1575.54 913.746H1507.09V982.148H1575.54V913.746Z" stroke="white" stroke-width="0.5" stroke-miterlimit="10"/>
<path d="M1575.54 981.901H1507.09V1050.3H1575.54V981.901Z" stroke="white" stroke-width="0.5" stroke-miterlimit="10"/>
<path d="M1575.54 1050.3H1507.09V1118.7H1575.54V1050.3Z" stroke="white" stroke-width="0.5" stroke-miterlimit="10"/>
<path d="M1643.99 -43.1377H1575.54V25.2639H1643.99V-43.1377Z" stroke="white" stroke-width="0.5" stroke-miterlimit="10"/>
<path d="M1643.99 25.2637H1575.54V93.6653H1643.99V25.2637Z" stroke="white" stroke-width="0.5" stroke-miterlimit="10"/>
<path d="M1643.99 93.4189H1575.54V161.821H1643.99V93.4189Z" stroke="white" stroke-width="0.5" stroke-miterlimit="10"/>
<path d="M1643.99 161.82H1575.54V230.222H1643.99V161.82Z" stroke="white" stroke-width="0.5" stroke-miterlimit="10"/>
<path d="M1643.99 230.223H1575.54V298.624H1643.99V230.223Z" stroke="white" stroke-width="0.5" stroke-miterlimit="10"/>
<path d="M1643.99 298.624H1575.54V367.026H1643.99V298.624Z" stroke="white" stroke-width="0.5" stroke-miterlimit="10"/>
<path d="M1643.99 366.779H1575.54V435.181H1643.99V366.779Z" stroke="white" stroke-width="0.5" stroke-miterlimit="10"/>
<path d="M1643.99 435.181H1575.54V503.582H1643.99V435.181Z" stroke="white" stroke-width="0.5" stroke-miterlimit="10"/>
<path d="M1643.99 503.582H1575.54V571.984H1643.99V503.582Z" stroke="white" stroke-width="0.5" stroke-miterlimit="10"/>
<path d="M1643.99 571.984H1575.54V640.386H1643.99V571.984Z" stroke="white" stroke-width="0.5" stroke-miterlimit="10"/>
<path d="M1643.99 640.386H1575.54V708.787H1643.99V640.386Z" stroke="white" stroke-width="0.5" stroke-miterlimit="10"/>
<path d="M1643.99 708.541H1575.54V776.943H1643.99V708.541Z" stroke="white" stroke-width="0.5" stroke-miterlimit="10"/>
<path d="M1643.99 776.943H1575.54V845.345H1643.99V776.943Z" stroke="white" stroke-width="0.5" stroke-miterlimit="10"/>
<path d="M1643.99 845.345H1575.54V913.746H1643.99V845.345Z" stroke="white" stroke-width="0.5" stroke-miterlimit="10"/>
<path d="M1643.99 913.746H1575.54V982.148H1643.99V913.746Z" stroke="white" stroke-width="0.5" stroke-miterlimit="10"/>
<path d="M1643.99 981.901H1575.54V1050.3H1643.99V981.901Z" stroke="white" stroke-width="0.5" stroke-miterlimit="10"/>
<path d="M1643.99 1050.3H1575.54V1118.7H1643.99V1050.3Z" stroke="white" stroke-width="0.5" stroke-miterlimit="10"/>
<path d="M1712.44 -43.1377H1643.99V25.2639H1712.44V-43.1377Z" stroke="white" stroke-width="0.5" stroke-miterlimit="10"/>
<path d="M1712.44 25.2637H1643.99V93.6653H1712.44V25.2637Z" stroke="white" stroke-width="0.5" stroke-miterlimit="10"/>
<path d="M1712.44 93.4189H1643.99V161.821H1712.44V93.4189Z" stroke="white" stroke-width="0.5" stroke-miterlimit="10"/>
<path d="M1712.44 161.82H1643.99V230.222H1712.44V161.82Z" stroke="white" stroke-width="0.5" stroke-miterlimit="10"/>
<path d="M1712.44 230.223H1643.99V298.624H1712.44V230.223Z" stroke="white" stroke-width="0.5" stroke-miterlimit="10"/>
<path d="M1712.44 298.624H1643.99V367.026H1712.44V298.624Z" stroke="white" stroke-width="0.5" stroke-miterlimit="10"/>
<path d="M1712.44 366.779H1643.99V435.181H1712.44V366.779Z" stroke="white" stroke-width="0.5" stroke-miterlimit="10"/>
<path d="M1712.44 435.181H1643.99V503.582H1712.44V435.181Z" stroke="white" stroke-width="0.5" stroke-miterlimit="10"/>
<path d="M1712.44 503.582H1643.99V571.984H1712.44V503.582Z" stroke="white" stroke-width="0.5" stroke-miterlimit="10"/>
<path d="M1712.44 571.984H1643.99V640.386H1712.44V571.984Z" stroke="white" stroke-width="0.5" stroke-miterlimit="10"/>
<path d="M1712.44 640.386H1643.99V708.787H1712.44V640.386Z" stroke="white" stroke-width="0.5" stroke-miterlimit="10"/>
<path d="M1712.44 708.541H1643.99V776.943H1712.44V708.541Z" stroke="white" stroke-width="0.5" stroke-miterlimit="10"/>
<path d="M1712.44 776.943H1643.99V845.345H1712.44V776.943Z" stroke="white" stroke-width="0.5" stroke-miterlimit="10"/>
<path d="M1712.44 845.345H1643.99V913.746H1712.44V845.345Z" stroke="white" stroke-width="0.5" stroke-miterlimit="10"/>
<path d="M1712.44 913.746H1643.99V982.148H1712.44V913.746Z" stroke="white" stroke-width="0.5" stroke-miterlimit="10"/>
<path d="M1712.44 981.901H1643.99V1050.3H1712.44V981.901Z" stroke="white" stroke-width="0.5" stroke-miterlimit="10"/>
<path d="M1712.44 1050.3H1643.99V1118.7H1712.44V1050.3Z" stroke="white" stroke-width="0.5" stroke-miterlimit="10"/>
<path d="M1780.64 -43.1377H1712.19V25.2639H1780.64V-43.1377Z" stroke="white" stroke-width="0.5" stroke-miterlimit="10"/>
<path d="M1780.64 25.2637H1712.19V93.6653H1780.64V25.2637Z" stroke="white" stroke-width="0.5" stroke-miterlimit="10"/>
<path d="M1780.64 93.4189H1712.19V161.821H1780.64V93.4189Z" stroke="white" stroke-width="0.5" stroke-miterlimit="10"/>
<path d="M1780.64 161.82H1712.19V230.222H1780.64V161.82Z" stroke="white" stroke-width="0.5" stroke-miterlimit="10"/>
<path d="M1780.64 230.223H1712.19V298.624H1780.64V230.223Z" stroke="white" stroke-width="0.5" stroke-miterlimit="10"/>
<path d="M1780.64 298.624H1712.19V367.026H1780.64V298.624Z" stroke="white" stroke-width="0.5" stroke-miterlimit="10"/>
<path d="M1780.64 366.779H1712.19V435.181H1780.64V366.779Z" stroke="white" stroke-width="0.5" stroke-miterlimit="10"/>
<path d="M1780.64 435.181H1712.19V503.582H1780.64V435.181Z" stroke="white" stroke-width="0.5" stroke-miterlimit="10"/>
<path d="M1780.64 503.582H1712.19V571.984H1780.64V503.582Z" stroke="white" stroke-width="0.5" stroke-miterlimit="10"/>
<path d="M1780.64 571.984H1712.19V640.386H1780.64V571.984Z" stroke="white" stroke-width="0.5" stroke-miterlimit="10"/>
<path d="M1780.64 640.386H1712.19V708.787H1780.64V640.386Z" stroke="white" stroke-width="0.5" stroke-miterlimit="10"/>
<path d="M1780.64 708.541H1712.19V776.943H1780.64V708.541Z" stroke="white" stroke-width="0.5" stroke-miterlimit="10"/>
<path d="M1780.64 776.943H1712.19V845.345H1780.64V776.943Z" stroke="white" stroke-width="0.5" stroke-miterlimit="10"/>
<path d="M1780.64 845.345H1712.19V913.746H1780.64V845.345Z" stroke="white" stroke-width="0.5" stroke-miterlimit="10"/>
<path d="M1780.64 913.746H1712.19V982.148H1780.64V913.746Z" stroke="white" stroke-width="0.5" stroke-miterlimit="10"/>
<path d="M1780.64 981.901H1712.19V1050.3H1780.64V981.901Z" stroke="white" stroke-width="0.5" stroke-miterlimit="10"/>
<path d="M1780.64 1050.3H1712.19V1118.7H1780.64V1050.3Z" stroke="white" stroke-width="0.5" stroke-miterlimit="10"/>
<path d="M1849.09 -43.1377H1780.64V25.2639H1849.09V-43.1377Z" stroke="white" stroke-width="0.5" stroke-miterlimit="10"/>
<path d="M1849.09 25.2637H1780.64V93.6653H1849.09V25.2637Z" stroke="white" stroke-width="0.5" stroke-miterlimit="10"/>
<path d="M1849.09 93.4189H1780.64V161.821H1849.09V93.4189Z" stroke="white" stroke-width="0.5" stroke-miterlimit="10"/>
<path d="M1849.09 161.82H1780.64V230.222H1849.09V161.82Z" stroke="white" stroke-width="0.5" stroke-miterlimit="10"/>
<path d="M1849.09 230.223H1780.64V298.624H1849.09V230.223Z" stroke="white" stroke-width="0.5" stroke-miterlimit="10"/>
<path d="M1849.09 298.624H1780.64V367.026H1849.09V298.624Z" stroke="white" stroke-width="0.5" stroke-miterlimit="10"/>
<path d="M1849.09 366.779H1780.64V435.181H1849.09V366.779Z" stroke="white" stroke-width="0.5" stroke-miterlimit="10"/>
<path d="M1849.09 435.181H1780.64V503.582H1849.09V435.181Z" stroke="white" stroke-width="0.5" stroke-miterlimit="10"/>
<path d="M1849.09 503.582H1780.64V571.984H1849.09V503.582Z" stroke="white" stroke-width="0.5" stroke-miterlimit="10"/>
<path d="M1849.09 571.984H1780.64V640.386H1849.09V571.984Z" stroke="white" stroke-width="0.5" stroke-miterlimit="10"/>
<path d="M1849.09 640.386H1780.64V708.787H1849.09V640.386Z" stroke="white" stroke-width="0.5" stroke-miterlimit="10"/>
<path d="M1849.09 708.541H1780.64V776.943H1849.09V708.541Z" stroke="white" stroke-width="0.5" stroke-miterlimit="10"/>
<path d="M1849.09 776.943H1780.64V845.345H1849.09V776.943Z" stroke="white" stroke-width="0.5" stroke-miterlimit="10"/>
<path d="M1849.09 845.345H1780.64V913.746H1849.09V845.345Z" stroke="white" stroke-width="0.5" stroke-miterlimit="10"/>
<path d="M1849.09 913.746H1780.64V982.148H1849.09V913.746Z" stroke="white" stroke-width="0.5" stroke-miterlimit="10"/>
<path d="M1849.09 981.901H1780.64V1050.3H1849.09V981.901Z" stroke="white" stroke-width="0.5" stroke-miterlimit="10"/>
<path d="M1849.09 1050.3H1780.64V1118.7H1849.09V1050.3Z" stroke="white" stroke-width="0.5" stroke-miterlimit="10"/>
<path d="M1917.54 -43.1377H1849.09V25.2639H1917.54V-43.1377Z" stroke="white" stroke-width="0.5" stroke-miterlimit="10"/>
<path d="M1917.54 25.2637H1849.09V93.6653H1917.54V25.2637Z" stroke="white" stroke-width="0.5" stroke-miterlimit="10"/>
<path d="M1917.54 93.4189H1849.09V161.821H1917.54V93.4189Z" stroke="white" stroke-width="0.5" stroke-miterlimit="10"/>
<path d="M1917.54 161.82H1849.09V230.222H1917.54V161.82Z" stroke="white" stroke-width="0.5" stroke-miterlimit="10"/>
<path d="M1917.54 230.223H1849.09V298.624H1917.54V230.223Z" stroke="white" stroke-width="0.5" stroke-miterlimit="10"/>
<path d="M1917.54 298.624H1849.09V367.026H1917.54V298.624Z" stroke="white" stroke-width="0.5" stroke-miterlimit="10"/>
<path d="M1917.54 366.779H1849.09V435.181H1917.54V366.779Z" stroke="white" stroke-width="0.5" stroke-miterlimit="10"/>
<path d="M1917.54 435.181H1849.09V503.582H1917.54V435.181Z" stroke="white" stroke-width="0.5" stroke-miterlimit="10"/>
<path d="M1917.54 503.582H1849.09V571.984H1917.54V503.582Z" stroke="white" stroke-width="0.5" stroke-miterlimit="10"/>
<path d="M1917.54 571.984H1849.09V640.386H1917.54V571.984Z" stroke="white" stroke-width="0.5" stroke-miterlimit="10"/>
<path d="M1917.54 640.386H1849.09V708.787H1917.54V640.386Z" stroke="white" stroke-width="0.5" stroke-miterlimit="10"/>
<path d="M1917.54 708.541H1849.09V776.943H1917.54V708.541Z" stroke="white" stroke-width="0.5" stroke-miterlimit="10"/>
<path d="M1917.54 776.943H1849.09V845.345H1917.54V776.943Z" stroke="white" stroke-width="0.5" stroke-miterlimit="10"/>
<path d="M1917.54 845.345H1849.09V913.746H1917.54V845.345Z" stroke="white" stroke-width="0.5" stroke-miterlimit="10"/>
<path d="M1917.54 913.746H1849.09V982.148H1917.54V913.746Z" stroke="white" stroke-width="0.5" stroke-miterlimit="10"/>
<path d="M1917.54 981.901H1849.09V1050.3H1917.54V981.901Z" stroke="white" stroke-width="0.5" stroke-miterlimit="10"/>
<path d="M1917.54 1050.3H1849.09V1118.7H1917.54V1050.3Z" stroke="white" stroke-width="0.5" stroke-miterlimit="10"/>
<path d="M139.359 -111.539H2.46191V25.2641H139.359V-111.539Z" stroke="white" stroke-width="0.5" stroke-miterlimit="10"/>
<path d="M139.359 25.2637H2.46191V162.067H139.359V25.2637Z" stroke="white" stroke-width="0.5" stroke-miterlimit="10"/>
<path d="M139.359 161.82H2.46191V298.623H139.359V161.82Z" stroke="white" stroke-width="0.5" stroke-miterlimit="10"/>
<path d="M139.359 298.624H2.46191V435.427H139.359V298.624Z" stroke="white" stroke-width="0.5" stroke-miterlimit="10"/>
<path d="M139.359 435.181H2.46191V571.984H139.359V435.181Z" stroke="white" stroke-width="0.5" stroke-miterlimit="10"/>
<path d="M139.359 571.984H2.46191V708.788H139.359V571.984Z" stroke="white" stroke-width="0.5" stroke-miterlimit="10"/>
<path d="M139.359 708.541H2.46191V845.344H139.359V708.541Z" stroke="white" stroke-width="0.5" stroke-miterlimit="10"/>
<path d="M139.359 845.345H2.46191V982.148H139.359V845.345Z" stroke="white" stroke-width="0.5" stroke-miterlimit="10"/>
<path d="M139.359 981.901H2.46191V1118.7H139.359V981.901Z" stroke="white" stroke-width="0.5" stroke-miterlimit="10"/>
<path d="M276.256 -111.539H139.359V25.2641H276.256V-111.539Z" stroke="white" stroke-width="0.5" stroke-miterlimit="10"/>
<path d="M276.256 25.2637H139.359V162.067H276.256V25.2637Z" stroke="white" stroke-width="0.5" stroke-miterlimit="10"/>
<path d="M276.256 161.82H139.359V298.623H276.256V161.82Z" stroke="white" stroke-width="0.5" stroke-miterlimit="10"/>
<path d="M276.256 298.624H139.359V435.427H276.256V298.624Z" stroke="white" stroke-width="0.5" stroke-miterlimit="10"/>
<path d="M276.256 435.181H139.359V571.984H276.256V435.181Z" stroke="white" stroke-width="0.5" stroke-miterlimit="10"/>
<path d="M276.256 571.984H139.359V708.788H276.256V571.984Z" stroke="white" stroke-width="0.5" stroke-miterlimit="10"/>
<path d="M276.256 708.541H139.359V845.344H276.256V708.541Z" stroke="white" stroke-width="0.5" stroke-miterlimit="10"/>
<path d="M276.256 845.345H139.359V982.148H276.256V845.345Z" stroke="white" stroke-width="0.5" stroke-miterlimit="10"/>
<path d="M276.256 981.901H139.359V1118.7H276.256V981.901Z" stroke="white" stroke-width="0.5" stroke-miterlimit="10"/>
<path d="M412.906 -111.539H276.009V25.2641H412.906V-111.539Z" stroke="white" stroke-width="0.5" stroke-miterlimit="10"/>
<path d="M412.906 25.2637H276.009V162.067H412.906V25.2637Z" stroke="white" stroke-width="0.5" stroke-miterlimit="10"/>
<path d="M412.906 161.82H276.009V298.623H412.906V161.82Z" stroke="white" stroke-width="0.5" stroke-miterlimit="10"/>
<path d="M412.906 298.624H276.009V435.427H412.906V298.624Z" stroke="white" stroke-width="0.5" stroke-miterlimit="10"/>
<path d="M412.906 435.181H276.009V571.984H412.906V435.181Z" stroke="white" stroke-width="0.5" stroke-miterlimit="10"/>
<path d="M412.906 571.984H276.009V708.788H412.906V571.984Z" stroke="white" stroke-width="0.5" stroke-miterlimit="10"/>
<path d="M412.906 708.541H276.009V845.344H412.906V708.541Z" stroke="white" stroke-width="0.5" stroke-miterlimit="10"/>
<path d="M412.906 845.345H276.009V982.148H412.906V845.345Z" stroke="white" stroke-width="0.5" stroke-miterlimit="10"/>
<path d="M412.906 981.901H276.009V1118.7H412.906V981.901Z" stroke="white" stroke-width="0.5" stroke-miterlimit="10"/>
<path d="M549.802 -111.539H412.906V25.2641H549.802V-111.539Z" stroke="white" stroke-width="0.5" stroke-miterlimit="10"/>
<path d="M549.802 25.2637H412.906V162.067H549.802V25.2637Z" stroke="white" stroke-width="0.5" stroke-miterlimit="10"/>
<path d="M549.802 161.82H412.906V298.623H549.802V161.82Z" stroke="white" stroke-width="0.5" stroke-miterlimit="10"/>
<path d="M549.802 298.624H412.906V435.427H549.802V298.624Z" stroke="white" stroke-width="0.5" stroke-miterlimit="10"/>
<path d="M549.802 435.181H412.906V571.984H549.802V435.181Z" stroke="white" stroke-width="0.5" stroke-miterlimit="10"/>
<path d="M549.802 571.984H412.906V708.788H549.802V571.984Z" stroke="white" stroke-width="0.5" stroke-miterlimit="10"/>
<path d="M549.802 708.541H412.906V845.344H549.802V708.541Z" stroke="white" stroke-width="0.5" stroke-miterlimit="10"/>
<path d="M549.802 845.345H412.906V982.148H549.802V845.345Z" stroke="white" stroke-width="0.5" stroke-miterlimit="10"/>
<path d="M549.802 981.901H412.906V1118.7H549.802V981.901Z" stroke="white" stroke-width="0.5" stroke-miterlimit="10"/>
<path d="M686.453 -111.539H549.556V25.2641H686.453V-111.539Z" stroke="white" stroke-width="0.5" stroke-miterlimit="10"/>
<path d="M686.453 25.2637H549.556V162.067H686.453V25.2637Z" stroke="white" stroke-width="0.5" stroke-miterlimit="10"/>
<path d="M686.453 161.82H549.556V298.623H686.453V161.82Z" stroke="white" stroke-width="0.5" stroke-miterlimit="10"/>
<path d="M686.453 298.624H549.556V435.427H686.453V298.624Z" stroke="white" stroke-width="0.5" stroke-miterlimit="10"/>
<path d="M686.453 435.181H549.556V571.984H686.453V435.181Z" stroke="white" stroke-width="0.5" stroke-miterlimit="10"/>
<path d="M686.453 571.984H549.556V708.788H686.453V571.984Z" stroke="white" stroke-width="0.5" stroke-miterlimit="10"/>
<path d="M686.453 708.541H549.556V845.344H686.453V708.541Z" stroke="white" stroke-width="0.5" stroke-miterlimit="10"/>
<path d="M686.453 845.345H549.556V982.148H686.453V845.345Z" stroke="white" stroke-width="0.5" stroke-miterlimit="10"/>
<path d="M686.453 981.901H549.556V1118.7H686.453V981.901Z" stroke="white" stroke-width="0.5" stroke-miterlimit="10"/>
<path d="M823.35 -111.539H686.453V25.2641H823.35V-111.539Z" stroke="white" stroke-width="0.5" stroke-miterlimit="10"/>
<path d="M823.35 25.2637H686.453V162.067H823.35V25.2637Z" stroke="white" stroke-width="0.5" stroke-miterlimit="10"/>
<path d="M823.35 161.82H686.453V298.623H823.35V161.82Z" stroke="white" stroke-width="0.5" stroke-miterlimit="10"/>
<path d="M823.35 298.624H686.453V435.427H823.35V298.624Z" stroke="white" stroke-width="0.5" stroke-miterlimit="10"/>
<path d="M823.35 435.181H686.453V571.984H823.35V435.181Z" stroke="white" stroke-width="0.5" stroke-miterlimit="10"/>
<path d="M823.35 571.984H686.453V708.788H823.35V571.984Z" stroke="white" stroke-width="0.5" stroke-miterlimit="10"/>
<path d="M823.35 708.541H686.453V845.344H823.35V708.541Z" stroke="white" stroke-width="0.5" stroke-miterlimit="10"/>
<path d="M823.35 845.345H686.453V982.148H823.35V845.345Z" stroke="white" stroke-width="0.5" stroke-miterlimit="10"/>
<path d="M823.35 981.901H686.453V1118.7H823.35V981.901Z" stroke="white" stroke-width="0.5" stroke-miterlimit="10"/>
<path d="M960 -111.539H823.104V25.2641H960V-111.539Z" stroke="white" stroke-width="0.5" stroke-miterlimit="10"/>
<path d="M960 25.2637H823.104V162.067H960V25.2637Z" stroke="white" stroke-width="0.5" stroke-miterlimit="10"/>
<path d="M960 161.82H823.104V298.623H960V161.82Z" stroke="white" stroke-width="0.5" stroke-miterlimit="10"/>
<path d="M960 298.624H823.104V435.427H960V298.624Z" stroke="white" stroke-width="0.5" stroke-miterlimit="10"/>
<path d="M960 435.181H823.104V571.984H960V435.181Z" stroke="white" stroke-width="0.5" stroke-miterlimit="10"/>
<path d="M960 571.984H823.104V708.788H960V571.984Z" stroke="white" stroke-width="0.5" stroke-miterlimit="10"/>
<path d="M960 708.541H823.104V845.344H960V708.541Z" stroke="white" stroke-width="0.5" stroke-miterlimit="10"/>
<path d="M960 845.345H823.104V982.148H960V845.345Z" stroke="white" stroke-width="0.5" stroke-miterlimit="10"/>
<path d="M960 981.901H823.104V1118.7H960V981.901Z" stroke="white" stroke-width="0.5" stroke-miterlimit="10"/>
<path d="M1096.9 -111.539H960V25.2641H1096.9V-111.539Z" stroke="white" stroke-width="0.5" stroke-miterlimit="10"/>
<path d="M1096.9 25.2637H960V162.067H1096.9V25.2637Z" stroke="white" stroke-width="0.5" stroke-miterlimit="10"/>
<path d="M1096.9 161.82H960V298.623H1096.9V161.82Z" stroke="white" stroke-width="0.5" stroke-miterlimit="10"/>
<path d="M1096.9 298.624H960V435.427H1096.9V298.624Z" stroke="white" stroke-width="0.5" stroke-miterlimit="10"/>
<path d="M1096.9 435.181H960V571.984H1096.9V435.181Z" stroke="white" stroke-width="0.5" stroke-miterlimit="10"/>
<path d="M1096.9 571.984H960V708.788H1096.9V571.984Z" stroke="white" stroke-width="0.5" stroke-miterlimit="10"/>
<path d="M1096.9 708.541H960V845.344H1096.9V708.541Z" stroke="white" stroke-width="0.5" stroke-miterlimit="10"/>
<path d="M1096.9 845.345H960V982.148H1096.9V845.345Z" stroke="white" stroke-width="0.5" stroke-miterlimit="10"/>
<path d="M1096.9 981.901H960V1118.7H1096.9V981.901Z" stroke="white" stroke-width="0.5" stroke-miterlimit="10"/>
<path d="M1233.55 -111.539H1096.65V25.2641H1233.55V-111.539Z" stroke="white" stroke-width="0.5" stroke-miterlimit="10"/>
<path d="M1233.55 25.2637H1096.65V162.067H1233.55V25.2637Z" stroke="white" stroke-width="0.5" stroke-miterlimit="10"/>
<path d="M1233.55 161.82H1096.65V298.623H1233.55V161.82Z" stroke="white" stroke-width="0.5" stroke-miterlimit="10"/>
<path d="M1233.55 298.624H1096.65V435.427H1233.55V298.624Z" stroke="white" stroke-width="0.5" stroke-miterlimit="10"/>
<path d="M1233.55 435.181H1096.65V571.984H1233.55V435.181Z" stroke="white" stroke-width="0.5" stroke-miterlimit="10"/>
<path d="M1233.55 571.984H1096.65V708.788H1233.55V571.984Z" stroke="white" stroke-width="0.5" stroke-miterlimit="10"/>
<path d="M1233.55 708.541H1096.65V845.344H1233.55V708.541Z" stroke="white" stroke-width="0.5" stroke-miterlimit="10"/>
<path d="M1233.55 845.345H1096.65V982.148H1233.55V845.345Z" stroke="white" stroke-width="0.5" stroke-miterlimit="10"/>
<path d="M1233.55 981.901H1096.65V1118.7H1233.55V981.901Z" stroke="white" stroke-width="0.5" stroke-miterlimit="10"/>
<path d="M1370.44 -111.539H1233.55V25.2641H1370.44V-111.539Z" stroke="white" stroke-width="0.5" stroke-miterlimit="10"/>
<path d="M1370.44 25.2637H1233.55V162.067H1370.44V25.2637Z" stroke="white" stroke-width="0.5" stroke-miterlimit="10"/>
<path d="M1370.44 161.82H1233.55V298.623H1370.44V161.82Z" stroke="white" stroke-width="0.5" stroke-miterlimit="10"/>
<path d="M1370.44 298.624H1233.55V435.427H1370.44V298.624Z" stroke="white" stroke-width="0.5" stroke-miterlimit="10"/>
<path d="M1370.44 435.181H1233.55V571.984H1370.44V435.181Z" stroke="white" stroke-width="0.5" stroke-miterlimit="10"/>
<path d="M1370.44 571.984H1233.55V708.788H1370.44V571.984Z" stroke="white" stroke-width="0.5" stroke-miterlimit="10"/>
<path d="M1370.44 708.541H1233.55V845.344H1370.44V708.541Z" stroke="white" stroke-width="0.5" stroke-miterlimit="10"/>
<path d="M1370.44 845.345H1233.55V982.148H1370.44V845.345Z" stroke="white" stroke-width="0.5" stroke-miterlimit="10"/>
<path d="M1370.44 981.901H1233.55V1118.7H1370.44V981.901Z" stroke="white" stroke-width="0.5" stroke-miterlimit="10"/>
<path d="M1507.34 -111.539H1370.44V25.2641H1507.34V-111.539Z" stroke="white" stroke-width="0.5" stroke-miterlimit="10"/>
<path d="M1507.34 25.2637H1370.44V162.067H1507.34V25.2637Z" stroke="white" stroke-width="0.5" stroke-miterlimit="10"/>
<path d="M1507.34 161.82H1370.44V298.623H1507.34V161.82Z" stroke="white" stroke-width="0.5" stroke-miterlimit="10"/>
<path d="M1507.34 298.624H1370.44V435.427H1507.34V298.624Z" stroke="white" stroke-width="0.5" stroke-miterlimit="10"/>
<path d="M1507.34 435.181H1370.44V571.984H1507.34V435.181Z" stroke="white" stroke-width="0.5" stroke-miterlimit="10"/>
<path d="M1507.34 571.984H1370.44V708.788H1507.34V571.984Z" stroke="white" stroke-width="0.5" stroke-miterlimit="10"/>
<path d="M1507.34 708.541H1370.44V845.344H1507.34V708.541Z" stroke="white" stroke-width="0.5" stroke-miterlimit="10"/>
<path d="M1507.34 845.345H1370.44V982.148H1507.34V845.345Z" stroke="white" stroke-width="0.5" stroke-miterlimit="10"/>
<path d="M1507.34 981.901H1370.44V1118.7H1507.34V981.901Z" stroke="white" stroke-width="0.5" stroke-miterlimit="10"/>
<path d="M1643.99 -111.539H1507.09V25.2641H1643.99V-111.539Z" stroke="white" stroke-width="0.5" stroke-miterlimit="10"/>
<path d="M1643.99 25.2637H1507.09V162.067H1643.99V25.2637Z" stroke="white" stroke-width="0.5" stroke-miterlimit="10"/>
<path d="M1643.99 161.82H1507.09V298.623H1643.99V161.82Z" stroke="white" stroke-width="0.5" stroke-miterlimit="10"/>
<path d="M1643.99 298.624H1507.09V435.427H1643.99V298.624Z" stroke="white" stroke-width="0.5" stroke-miterlimit="10"/>
<path d="M1643.99 435.181H1507.09V571.984H1643.99V435.181Z" stroke="white" stroke-width="0.5" stroke-miterlimit="10"/>
<path d="M1643.99 571.984H1507.09V708.788H1643.99V571.984Z" stroke="white" stroke-width="0.5" stroke-miterlimit="10"/>
<path d="M1643.99 708.541H1507.09V845.344H1643.99V708.541Z" stroke="white" stroke-width="0.5" stroke-miterlimit="10"/>
<path d="M1643.99 845.345H1507.09V982.148H1643.99V845.345Z" stroke="white" stroke-width="0.5" stroke-miterlimit="10"/>
<path d="M1643.99 981.901H1507.09V1118.7H1643.99V981.901Z" stroke="white" stroke-width="0.5" stroke-miterlimit="10"/>
<path d="M1780.89 -111.539H1643.99V25.2641H1780.89V-111.539Z" stroke="white" stroke-width="0.5" stroke-miterlimit="10"/>
<path d="M1780.89 25.2637H1643.99V162.067H1780.89V25.2637Z" stroke="white" stroke-width="0.5" stroke-miterlimit="10"/>
<path d="M1780.89 161.82H1643.99V298.623H1780.89V161.82Z" stroke="white" stroke-width="0.5" stroke-miterlimit="10"/>
<path d="M1780.89 298.624H1643.99V435.427H1780.89V298.624Z" stroke="white" stroke-width="0.5" stroke-miterlimit="10"/>
<path d="M1780.89 435.181H1643.99V571.984H1780.89V435.181Z" stroke="white" stroke-width="0.5" stroke-miterlimit="10"/>
<path d="M1780.89 571.984H1643.99V708.788H1780.89V571.984Z" stroke="white" stroke-width="0.5" stroke-miterlimit="10"/>
<path d="M1780.89 708.541H1643.99V845.344H1780.89V708.541Z" stroke="white" stroke-width="0.5" stroke-miterlimit="10"/>
<path d="M1780.89 845.345H1643.99V982.148H1780.89V845.345Z" stroke="white" stroke-width="0.5" stroke-miterlimit="10"/>
<path d="M1780.89 981.901H1643.99V1118.7H1780.89V981.901Z" stroke="white" stroke-width="0.5" stroke-miterlimit="10"/>
<path d="M1917.54 -111.539H1780.64V25.2641H1917.54V-111.539Z" stroke="white" stroke-width="0.5" stroke-miterlimit="10"/>
<path d="M1917.54 25.2637H1780.64V162.067H1917.54V25.2637Z" stroke="white" stroke-width="0.5" stroke-miterlimit="10"/>
<path d="M1917.54 161.82H1780.64V298.623H1917.54V161.82Z" stroke="white" stroke-width="0.5" stroke-miterlimit="10"/>
<path d="M1917.54 298.624H1780.64V435.427H1917.54V298.624Z" stroke="white" stroke-width="0.5" stroke-miterlimit="10"/>
<path d="M1917.54 435.181H1780.64V571.984H1917.54V435.181Z" stroke="white" stroke-width="0.5" stroke-miterlimit="10"/>
<path d="M1917.54 571.984H1780.64V708.788H1917.54V571.984Z" stroke="white" stroke-width="0.5" stroke-miterlimit="10"/>
<path d="M1917.54 708.541H1780.64V845.344H1917.54V708.541Z" stroke="white" stroke-width="0.5" stroke-miterlimit="10"/>
<path d="M1917.54 845.345H1780.64V982.148H1917.54V845.345Z" stroke="white" stroke-width="0.5" stroke-miterlimit="10"/>
<path d="M1917.54 981.901H1780.64V1118.7H1917.54V981.901Z" stroke="white" stroke-width="0.5" stroke-miterlimit="10"/>
</g>
<defs>
<radialGradient id="paint0_radial_181:13" cx="0" cy="0" r="1" gradientUnits="userSpaceOnUse" gradientTransform="translate(960 540) rotate(90) scale(764 1358.22)">
<stop offset="0.4375" stop-color="#141B1F" stop-opacity="0.46"/>
<stop offset="1" stop-color="#141B1F"/>
</radialGradient>
</defs>
</svg>
