<svg width="1920" height="1080" viewBox="0 0 1920 1080" fill="none" xmlns="http://www.w3.org/2000/svg">
<g clip-path="url(#clip0)">
<rect y="-5" width="1920" height="1080" fill="url(#paint0_radial)"/>
<rect y="-5" width="1920" height="1080" fill="#1A1E37" fill-opacity="0.7"/>
<g opacity="0.05">
<path d="M70.9105 -48.3623H2.46216V20.3574H70.9105V-48.3623Z" stroke="white" stroke-width="0.5" stroke-miterlimit="10"/>
<path d="M70.9105 20.3574H2.46216V89.0772H70.9105V20.3574Z" stroke="white" stroke-width="0.5" stroke-miterlimit="10"/>
<path d="M70.9105 88.8301H2.46216V157.55H70.9105V88.8301Z" stroke="white" stroke-width="0.5" stroke-miterlimit="10"/>
<path d="M70.9105 157.55H2.46216V226.27H70.9105V157.55Z" stroke="white" stroke-width="0.5" stroke-miterlimit="10"/>
<path d="M70.9105 226.27H2.46216V294.989H70.9105V226.27Z" stroke="white" stroke-width="0.5" stroke-miterlimit="10"/>
<path d="M70.9105 294.989H2.46216V363.709H70.9105V294.989Z" stroke="white" stroke-width="0.5" stroke-miterlimit="10"/>
<path d="M70.9105 363.462H2.46216V432.182H70.9105V363.462Z" stroke="white" stroke-width="0.5" stroke-miterlimit="10"/>
<path d="M70.9105 432.182H2.46216V500.901H70.9105V432.182Z" stroke="white" stroke-width="0.5" stroke-miterlimit="10"/>
<path d="M70.9105 500.901H2.46216V569.621H70.9105V500.901Z" stroke="white" stroke-width="0.5" stroke-miterlimit="10"/>
<path d="M70.9105 569.621H2.46216V638.341H70.9105V569.621Z" stroke="white" stroke-width="0.5" stroke-miterlimit="10"/>
<path d="M70.9105 638.341H2.46216V707.06H70.9105V638.341Z" stroke="white" stroke-width="0.5" stroke-miterlimit="10"/>
<path d="M70.9105 706.813H2.46216V775.533H70.9105V706.813Z" stroke="white" stroke-width="0.5" stroke-miterlimit="10"/>
<path d="M70.9105 775.533H2.46216V844.253H70.9105V775.533Z" stroke="white" stroke-width="0.5" stroke-miterlimit="10"/>
<path d="M70.9105 844.253H2.46216V912.973H70.9105V844.253Z" stroke="white" stroke-width="0.5" stroke-miterlimit="10"/>
<path d="M70.9105 912.973H2.46216V981.692H70.9105V912.973Z" stroke="white" stroke-width="0.5" stroke-miterlimit="10"/>
<path d="M70.9105 981.445H2.46216V1050.16H70.9105V981.445Z" stroke="white" stroke-width="0.5" stroke-miterlimit="10"/>
<path d="M70.9105 1050.17H2.46216V1118.88H70.9105V1050.17Z" stroke="white" stroke-width="0.5" stroke-miterlimit="10"/>
<path d="M139.359 -48.3623H70.9104V20.3574H139.359V-48.3623Z" stroke="white" stroke-width="0.5" stroke-miterlimit="10"/>
<path d="M139.359 20.3574H70.9104V89.0772H139.359V20.3574Z" stroke="white" stroke-width="0.5" stroke-miterlimit="10"/>
<path d="M139.359 88.8301H70.9104V157.55H139.359V88.8301Z" stroke="white" stroke-width="0.5" stroke-miterlimit="10"/>
<path d="M139.359 157.55H70.9104V226.27H139.359V157.55Z" stroke="white" stroke-width="0.5" stroke-miterlimit="10"/>
<path d="M139.359 226.27H70.9104V294.989H139.359V226.27Z" stroke="white" stroke-width="0.5" stroke-miterlimit="10"/>
<path d="M139.359 294.989H70.9104V363.709H139.359V294.989Z" stroke="white" stroke-width="0.5" stroke-miterlimit="10"/>
<path d="M139.359 363.462H70.9104V432.182H139.359V363.462Z" stroke="white" stroke-width="0.5" stroke-miterlimit="10"/>
<path d="M139.359 432.182H70.9104V500.901H139.359V432.182Z" stroke="white" stroke-width="0.5" stroke-miterlimit="10"/>
<path d="M139.359 500.901H70.9104V569.621H139.359V500.901Z" stroke="white" stroke-width="0.5" stroke-miterlimit="10"/>
<path d="M139.359 569.621H70.9104V638.341H139.359V569.621Z" stroke="white" stroke-width="0.5" stroke-miterlimit="10"/>
<path d="M139.359 638.341H70.9104V707.06H139.359V638.341Z" stroke="white" stroke-width="0.5" stroke-miterlimit="10"/>
<path d="M139.359 706.813H70.9104V775.533H139.359V706.813Z" stroke="white" stroke-width="0.5" stroke-miterlimit="10"/>
<path d="M139.359 775.533H70.9104V844.253H139.359V775.533Z" stroke="white" stroke-width="0.5" stroke-miterlimit="10"/>
<path d="M139.359 844.253H70.9104V912.973H139.359V844.253Z" stroke="white" stroke-width="0.5" stroke-miterlimit="10"/>
<path d="M139.359 912.973H70.9104V981.692H139.359V912.973Z" stroke="white" stroke-width="0.5" stroke-miterlimit="10"/>
<path d="M139.359 981.445H70.9104V1050.16H139.359V981.445Z" stroke="white" stroke-width="0.5" stroke-miterlimit="10"/>
<path d="M139.359 1050.17H70.9104V1118.88H139.359V1050.17Z" stroke="white" stroke-width="0.5" stroke-miterlimit="10"/>
<path d="M207.807 -48.3623H139.359V20.3574H207.807V-48.3623Z" stroke="white" stroke-width="0.5" stroke-miterlimit="10"/>
<path d="M207.807 20.3574H139.359V89.0772H207.807V20.3574Z" stroke="white" stroke-width="0.5" stroke-miterlimit="10"/>
<path d="M207.807 88.8301H139.359V157.55H207.807V88.8301Z" stroke="white" stroke-width="0.5" stroke-miterlimit="10"/>
<path d="M207.807 157.55H139.359V226.27H207.807V157.55Z" stroke="white" stroke-width="0.5" stroke-miterlimit="10"/>
<path d="M207.807 226.27H139.359V294.989H207.807V226.27Z" stroke="white" stroke-width="0.5" stroke-miterlimit="10"/>
<path d="M207.807 294.989H139.359V363.709H207.807V294.989Z" stroke="white" stroke-width="0.5" stroke-miterlimit="10"/>
<path d="M207.807 363.462H139.359V432.182H207.807V363.462Z" stroke="white" stroke-width="0.5" stroke-miterlimit="10"/>
<path d="M207.807 432.182H139.359V500.901H207.807V432.182Z" stroke="white" stroke-width="0.5" stroke-miterlimit="10"/>
<path d="M207.807 500.901H139.359V569.621H207.807V500.901Z" stroke="white" stroke-width="0.5" stroke-miterlimit="10"/>
<path d="M207.807 569.621H139.359V638.341H207.807V569.621Z" stroke="white" stroke-width="0.5" stroke-miterlimit="10"/>
<path d="M207.807 638.341H139.359V707.06H207.807V638.341Z" stroke="white" stroke-width="0.5" stroke-miterlimit="10"/>
<path d="M207.807 706.813H139.359V775.533H207.807V706.813Z" stroke="white" stroke-width="0.5" stroke-miterlimit="10"/>
<path d="M207.807 775.533H139.359V844.253H207.807V775.533Z" stroke="white" stroke-width="0.5" stroke-miterlimit="10"/>
<path d="M207.807 844.253H139.359V912.973H207.807V844.253Z" stroke="white" stroke-width="0.5" stroke-miterlimit="10"/>
<path d="M207.807 912.973H139.359V981.692H207.807V912.973Z" stroke="white" stroke-width="0.5" stroke-miterlimit="10"/>
<path d="M207.807 981.445H139.359V1050.16H207.807V981.445Z" stroke="white" stroke-width="0.5" stroke-miterlimit="10"/>
<path d="M207.807 1050.17H139.359V1118.88H207.807V1050.17Z" stroke="white" stroke-width="0.5" stroke-miterlimit="10"/>
<path d="M276.009 -48.3623H207.561V20.3574H276.009V-48.3623Z" stroke="white" stroke-width="0.5" stroke-miterlimit="10"/>
<path d="M276.009 20.3574H207.561V89.0772H276.009V20.3574Z" stroke="white" stroke-width="0.5" stroke-miterlimit="10"/>
<path d="M276.009 88.8301H207.561V157.55H276.009V88.8301Z" stroke="white" stroke-width="0.5" stroke-miterlimit="10"/>
<path d="M276.009 157.55H207.561V226.27H276.009V157.55Z" stroke="white" stroke-width="0.5" stroke-miterlimit="10"/>
<path d="M276.009 226.27H207.561V294.989H276.009V226.27Z" stroke="white" stroke-width="0.5" stroke-miterlimit="10"/>
<path d="M276.009 294.989H207.561V363.709H276.009V294.989Z" stroke="white" stroke-width="0.5" stroke-miterlimit="10"/>
<path d="M276.009 363.462H207.561V432.182H276.009V363.462Z" stroke="white" stroke-width="0.5" stroke-miterlimit="10"/>
<path d="M276.009 432.182H207.561V500.901H276.009V432.182Z" stroke="white" stroke-width="0.5" stroke-miterlimit="10"/>
<path d="M276.009 500.901H207.561V569.621H276.009V500.901Z" stroke="white" stroke-width="0.5" stroke-miterlimit="10"/>
<path d="M276.009 569.621H207.561V638.341H276.009V569.621Z" stroke="white" stroke-width="0.5" stroke-miterlimit="10"/>
<path d="M276.009 638.341H207.561V707.06H276.009V638.341Z" stroke="white" stroke-width="0.5" stroke-miterlimit="10"/>
<path d="M276.009 706.813H207.561V775.533H276.009V706.813Z" stroke="white" stroke-width="0.5" stroke-miterlimit="10"/>
<path d="M276.009 775.533H207.561V844.253H276.009V775.533Z" stroke="white" stroke-width="0.5" stroke-miterlimit="10"/>
<path d="M276.009 844.253H207.561V912.973H276.009V844.253Z" stroke="white" stroke-width="0.5" stroke-miterlimit="10"/>
<path d="M276.009 912.973H207.561V981.692H276.009V912.973Z" stroke="white" stroke-width="0.5" stroke-miterlimit="10"/>
<path d="M276.009 981.445H207.561V1050.16H276.009V981.445Z" stroke="white" stroke-width="0.5" stroke-miterlimit="10"/>
<path d="M276.009 1050.17H207.561V1118.88H276.009V1050.17Z" stroke="white" stroke-width="0.5" stroke-miterlimit="10"/>
<path d="M344.458 -48.3623H276.009V20.3574H344.458V-48.3623Z" stroke="white" stroke-width="0.5" stroke-miterlimit="10"/>
<path d="M344.458 20.3574H276.009V89.0772H344.458V20.3574Z" stroke="white" stroke-width="0.5" stroke-miterlimit="10"/>
<path d="M344.458 88.8301H276.009V157.55H344.458V88.8301Z" stroke="white" stroke-width="0.5" stroke-miterlimit="10"/>
<path d="M344.458 157.55H276.009V226.27H344.458V157.55Z" stroke="white" stroke-width="0.5" stroke-miterlimit="10"/>
<path d="M344.458 226.27H276.009V294.989H344.458V226.27Z" stroke="white" stroke-width="0.5" stroke-miterlimit="10"/>
<path d="M344.458 294.989H276.009V363.709H344.458V294.989Z" stroke="white" stroke-width="0.5" stroke-miterlimit="10"/>
<path d="M344.458 363.462H276.009V432.182H344.458V363.462Z" stroke="white" stroke-width="0.5" stroke-miterlimit="10"/>
<path d="M344.458 432.182H276.009V500.901H344.458V432.182Z" stroke="white" stroke-width="0.5" stroke-miterlimit="10"/>
<path d="M344.458 500.901H276.009V569.621H344.458V500.901Z" stroke="white" stroke-width="0.5" stroke-miterlimit="10"/>
<path d="M344.458 569.621H276.009V638.341H344.458V569.621Z" stroke="white" stroke-width="0.5" stroke-miterlimit="10"/>
<path d="M344.458 638.341H276.009V707.06H344.458V638.341Z" stroke="white" stroke-width="0.5" stroke-miterlimit="10"/>
<path d="M344.458 706.813H276.009V775.533H344.458V706.813Z" stroke="white" stroke-width="0.5" stroke-miterlimit="10"/>
<path d="M344.458 775.533H276.009V844.253H344.458V775.533Z" stroke="white" stroke-width="0.5" stroke-miterlimit="10"/>
<path d="M344.458 844.253H276.009V912.973H344.458V844.253Z" stroke="white" stroke-width="0.5" stroke-miterlimit="10"/>
<path d="M344.458 912.973H276.009V981.692H344.458V912.973Z" stroke="white" stroke-width="0.5" stroke-miterlimit="10"/>
<path d="M344.458 981.445H276.009V1050.16H344.458V981.445Z" stroke="white" stroke-width="0.5" stroke-miterlimit="10"/>
<path d="M344.458 1050.17H276.009V1118.88H344.458V1050.17Z" stroke="white" stroke-width="0.5" stroke-miterlimit="10"/>
<path d="M412.906 -48.3623H344.458V20.3574H412.906V-48.3623Z" stroke="white" stroke-width="0.5" stroke-miterlimit="10"/>
<path d="M412.906 20.3574H344.458V89.0772H412.906V20.3574Z" stroke="white" stroke-width="0.5" stroke-miterlimit="10"/>
<path d="M412.906 88.8301H344.458V157.55H412.906V88.8301Z" stroke="white" stroke-width="0.5" stroke-miterlimit="10"/>
<path d="M412.906 157.55H344.458V226.27H412.906V157.55Z" stroke="white" stroke-width="0.5" stroke-miterlimit="10"/>
<path d="M412.906 226.27H344.458V294.989H412.906V226.27Z" stroke="white" stroke-width="0.5" stroke-miterlimit="10"/>
<path d="M412.906 294.989H344.458V363.709H412.906V294.989Z" stroke="white" stroke-width="0.5" stroke-miterlimit="10"/>
<path d="M412.906 363.462H344.458V432.182H412.906V363.462Z" stroke="white" stroke-width="0.5" stroke-miterlimit="10"/>
<path d="M412.906 432.182H344.458V500.901H412.906V432.182Z" stroke="white" stroke-width="0.5" stroke-miterlimit="10"/>
<path d="M412.906 500.901H344.458V569.621H412.906V500.901Z" stroke="white" stroke-width="0.5" stroke-miterlimit="10"/>
<path d="M412.906 569.621H344.458V638.341H412.906V569.621Z" stroke="white" stroke-width="0.5" stroke-miterlimit="10"/>
<path d="M412.906 638.341H344.458V707.06H412.906V638.341Z" stroke="white" stroke-width="0.5" stroke-miterlimit="10"/>
<path d="M412.906 706.813H344.458V775.533H412.906V706.813Z" stroke="white" stroke-width="0.5" stroke-miterlimit="10"/>
<path d="M412.906 775.533H344.458V844.253H412.906V775.533Z" stroke="white" stroke-width="0.5" stroke-miterlimit="10"/>
<path d="M412.906 844.253H344.458V912.973H412.906V844.253Z" stroke="white" stroke-width="0.5" stroke-miterlimit="10"/>
<path d="M412.906 912.973H344.458V981.692H412.906V912.973Z" stroke="white" stroke-width="0.5" stroke-miterlimit="10"/>
<path d="M412.906 981.445H344.458V1050.16H412.906V981.445Z" stroke="white" stroke-width="0.5" stroke-miterlimit="10"/>
<path d="M412.906 1050.17H344.458V1118.88H412.906V1050.17Z" stroke="white" stroke-width="0.5" stroke-miterlimit="10"/>
<path d="M481.354 -48.3623H412.906V20.3574H481.354V-48.3623Z" stroke="white" stroke-width="0.5" stroke-miterlimit="10"/>
<path d="M481.354 20.3574H412.906V89.0772H481.354V20.3574Z" stroke="white" stroke-width="0.5" stroke-miterlimit="10"/>
<path d="M481.354 88.8301H412.906V157.55H481.354V88.8301Z" stroke="white" stroke-width="0.5" stroke-miterlimit="10"/>
<path d="M481.354 157.55H412.906V226.27H481.354V157.55Z" stroke="white" stroke-width="0.5" stroke-miterlimit="10"/>
<path d="M481.354 226.27H412.906V294.989H481.354V226.27Z" stroke="white" stroke-width="0.5" stroke-miterlimit="10"/>
<path d="M481.354 294.989H412.906V363.709H481.354V294.989Z" stroke="white" stroke-width="0.5" stroke-miterlimit="10"/>
<path d="M481.354 363.462H412.906V432.182H481.354V363.462Z" stroke="white" stroke-width="0.5" stroke-miterlimit="10"/>
<path d="M481.354 432.182H412.906V500.901H481.354V432.182Z" stroke="white" stroke-width="0.5" stroke-miterlimit="10"/>
<path d="M481.354 500.901H412.906V569.621H481.354V500.901Z" stroke="white" stroke-width="0.5" stroke-miterlimit="10"/>
<path d="M481.354 569.621H412.906V638.341H481.354V569.621Z" stroke="white" stroke-width="0.5" stroke-miterlimit="10"/>
<path d="M481.354 638.341H412.906V707.06H481.354V638.341Z" stroke="white" stroke-width="0.5" stroke-miterlimit="10"/>
<path d="M481.354 706.813H412.906V775.533H481.354V706.813Z" stroke="white" stroke-width="0.5" stroke-miterlimit="10"/>
<path d="M481.354 775.533H412.906V844.253H481.354V775.533Z" stroke="white" stroke-width="0.5" stroke-miterlimit="10"/>
<path d="M481.354 844.253H412.906V912.973H481.354V844.253Z" stroke="white" stroke-width="0.5" stroke-miterlimit="10"/>
<path d="M481.354 912.973H412.906V981.692H481.354V912.973Z" stroke="white" stroke-width="0.5" stroke-miterlimit="10"/>
<path d="M481.354 981.445H412.906V1050.16H481.354V981.445Z" stroke="white" stroke-width="0.5" stroke-miterlimit="10"/>
<path d="M481.354 1050.17H412.906V1118.88H481.354V1050.17Z" stroke="white" stroke-width="0.5" stroke-miterlimit="10"/>
<path d="M549.556 -48.3623H481.108V20.3574H549.556V-48.3623Z" stroke="white" stroke-width="0.5" stroke-miterlimit="10"/>
<path d="M549.556 20.3574H481.108V89.0772H549.556V20.3574Z" stroke="white" stroke-width="0.5" stroke-miterlimit="10"/>
<path d="M549.556 88.8301H481.108V157.55H549.556V88.8301Z" stroke="white" stroke-width="0.5" stroke-miterlimit="10"/>
<path d="M549.556 157.55H481.108V226.27H549.556V157.55Z" stroke="white" stroke-width="0.5" stroke-miterlimit="10"/>
<path d="M549.556 226.27H481.108V294.989H549.556V226.27Z" stroke="white" stroke-width="0.5" stroke-miterlimit="10"/>
<path d="M549.556 294.989H481.108V363.709H549.556V294.989Z" stroke="white" stroke-width="0.5" stroke-miterlimit="10"/>
<path d="M549.556 363.462H481.108V432.182H549.556V363.462Z" stroke="white" stroke-width="0.5" stroke-miterlimit="10"/>
<path d="M549.556 432.182H481.108V500.901H549.556V432.182Z" stroke="white" stroke-width="0.5" stroke-miterlimit="10"/>
<path d="M549.556 500.901H481.108V569.621H549.556V500.901Z" stroke="white" stroke-width="0.5" stroke-miterlimit="10"/>
<path d="M549.556 569.621H481.108V638.341H549.556V569.621Z" stroke="white" stroke-width="0.5" stroke-miterlimit="10"/>
<path d="M549.556 638.341H481.108V707.06H549.556V638.341Z" stroke="white" stroke-width="0.5" stroke-miterlimit="10"/>
<path d="M549.556 706.813H481.108V775.533H549.556V706.813Z" stroke="white" stroke-width="0.5" stroke-miterlimit="10"/>
<path d="M549.556 775.533H481.108V844.253H549.556V775.533Z" stroke="white" stroke-width="0.5" stroke-miterlimit="10"/>
<path d="M549.556 844.253H481.108V912.973H549.556V844.253Z" stroke="white" stroke-width="0.5" stroke-miterlimit="10"/>
<path d="M549.556 912.973H481.108V981.692H549.556V912.973Z" stroke="white" stroke-width="0.5" stroke-miterlimit="10"/>
<path d="M549.556 981.445H481.108V1050.16H549.556V981.445Z" stroke="white" stroke-width="0.5" stroke-miterlimit="10"/>
<path d="M549.556 1050.17H481.108V1118.88H549.556V1050.17Z" stroke="white" stroke-width="0.5" stroke-miterlimit="10"/>
<path d="M618.005 -48.3623H549.556V20.3574H618.005V-48.3623Z" stroke="white" stroke-width="0.5" stroke-miterlimit="10"/>
<path d="M618.005 20.3574H549.556V89.0772H618.005V20.3574Z" stroke="white" stroke-width="0.5" stroke-miterlimit="10"/>
<path d="M618.005 88.8301H549.556V157.55H618.005V88.8301Z" stroke="white" stroke-width="0.5" stroke-miterlimit="10"/>
<path d="M618.005 157.55H549.556V226.27H618.005V157.55Z" stroke="white" stroke-width="0.5" stroke-miterlimit="10"/>
<path d="M618.005 226.27H549.556V294.989H618.005V226.27Z" stroke="white" stroke-width="0.5" stroke-miterlimit="10"/>
<path d="M618.005 294.989H549.556V363.709H618.005V294.989Z" stroke="white" stroke-width="0.5" stroke-miterlimit="10"/>
<path d="M618.005 363.462H549.556V432.182H618.005V363.462Z" stroke="white" stroke-width="0.5" stroke-miterlimit="10"/>
<path d="M618.005 432.182H549.556V500.901H618.005V432.182Z" stroke="white" stroke-width="0.5" stroke-miterlimit="10"/>
<path d="M618.005 500.901H549.556V569.621H618.005V500.901Z" stroke="white" stroke-width="0.5" stroke-miterlimit="10"/>
<path d="M618.005 569.621H549.556V638.341H618.005V569.621Z" stroke="white" stroke-width="0.5" stroke-miterlimit="10"/>
<path d="M618.005 638.341H549.556V707.06H618.005V638.341Z" stroke="white" stroke-width="0.5" stroke-miterlimit="10"/>
<path d="M618.005 706.813H549.556V775.533H618.005V706.813Z" stroke="white" stroke-width="0.5" stroke-miterlimit="10"/>
<path d="M618.005 775.533H549.556V844.253H618.005V775.533Z" stroke="white" stroke-width="0.5" stroke-miterlimit="10"/>
<path d="M618.005 844.253H549.556V912.973H618.005V844.253Z" stroke="white" stroke-width="0.5" stroke-miterlimit="10"/>
<path d="M618.005 912.973H549.556V981.692H618.005V912.973Z" stroke="white" stroke-width="0.5" stroke-miterlimit="10"/>
<path d="M618.005 981.445H549.556V1050.16H618.005V981.445Z" stroke="white" stroke-width="0.5" stroke-miterlimit="10"/>
<path d="M618.005 1050.17H549.556V1118.88H618.005V1050.17Z" stroke="white" stroke-width="0.5" stroke-miterlimit="10"/>
<path d="M686.453 -48.3623H618.005V20.3574H686.453V-48.3623Z" stroke="white" stroke-width="0.5" stroke-miterlimit="10"/>
<path d="M686.453 20.3574H618.005V89.0772H686.453V20.3574Z" stroke="white" stroke-width="0.5" stroke-miterlimit="10"/>
<path d="M686.453 88.8301H618.005V157.55H686.453V88.8301Z" stroke="white" stroke-width="0.5" stroke-miterlimit="10"/>
<path d="M686.453 157.55H618.005V226.27H686.453V157.55Z" stroke="white" stroke-width="0.5" stroke-miterlimit="10"/>
<path d="M686.453 226.27H618.005V294.989H686.453V226.27Z" stroke="white" stroke-width="0.5" stroke-miterlimit="10"/>
<path d="M686.453 294.989H618.005V363.709H686.453V294.989Z" stroke="white" stroke-width="0.5" stroke-miterlimit="10"/>
<path d="M686.453 363.462H618.005V432.182H686.453V363.462Z" stroke="white" stroke-width="0.5" stroke-miterlimit="10"/>
<path d="M686.453 432.182H618.005V500.901H686.453V432.182Z" stroke="white" stroke-width="0.5" stroke-miterlimit="10"/>
<path d="M686.453 500.901H618.005V569.621H686.453V500.901Z" stroke="white" stroke-width="0.5" stroke-miterlimit="10"/>
<path d="M686.453 569.621H618.005V638.341H686.453V569.621Z" stroke="white" stroke-width="0.5" stroke-miterlimit="10"/>
<path d="M686.453 638.341H618.005V707.06H686.453V638.341Z" stroke="white" stroke-width="0.5" stroke-miterlimit="10"/>
<path d="M686.453 706.813H618.005V775.533H686.453V706.813Z" stroke="white" stroke-width="0.5" stroke-miterlimit="10"/>
<path d="M686.453 775.533H618.005V844.253H686.453V775.533Z" stroke="white" stroke-width="0.5" stroke-miterlimit="10"/>
<path d="M686.453 844.253H618.005V912.973H686.453V844.253Z" stroke="white" stroke-width="0.5" stroke-miterlimit="10"/>
<path d="M686.453 912.973H618.005V981.692H686.453V912.973Z" stroke="white" stroke-width="0.5" stroke-miterlimit="10"/>
<path d="M686.453 981.445H618.005V1050.16H686.453V981.445Z" stroke="white" stroke-width="0.5" stroke-miterlimit="10"/>
<path d="M686.453 1050.17H618.005V1118.88H686.453V1050.17Z" stroke="white" stroke-width="0.5" stroke-miterlimit="10"/>
<path d="M754.901 -48.3623H686.453V20.3574H754.901V-48.3623Z" stroke="white" stroke-width="0.5" stroke-miterlimit="10"/>
<path d="M754.901 20.3574H686.453V89.0772H754.901V20.3574Z" stroke="white" stroke-width="0.5" stroke-miterlimit="10"/>
<path d="M754.901 88.8301H686.453V157.55H754.901V88.8301Z" stroke="white" stroke-width="0.5" stroke-miterlimit="10"/>
<path d="M754.901 157.55H686.453V226.27H754.901V157.55Z" stroke="white" stroke-width="0.5" stroke-miterlimit="10"/>
<path d="M754.901 226.27H686.453V294.989H754.901V226.27Z" stroke="white" stroke-width="0.5" stroke-miterlimit="10"/>
<path d="M754.901 294.989H686.453V363.709H754.901V294.989Z" stroke="white" stroke-width="0.5" stroke-miterlimit="10"/>
<path d="M754.901 363.462H686.453V432.182H754.901V363.462Z" stroke="white" stroke-width="0.5" stroke-miterlimit="10"/>
<path d="M754.901 432.182H686.453V500.901H754.901V432.182Z" stroke="white" stroke-width="0.5" stroke-miterlimit="10"/>
<path d="M754.901 500.901H686.453V569.621H754.901V500.901Z" stroke="white" stroke-width="0.5" stroke-miterlimit="10"/>
<path d="M754.901 569.621H686.453V638.341H754.901V569.621Z" stroke="white" stroke-width="0.5" stroke-miterlimit="10"/>
<path d="M754.901 638.341H686.453V707.06H754.901V638.341Z" stroke="white" stroke-width="0.5" stroke-miterlimit="10"/>
<path d="M754.901 706.813H686.453V775.533H754.901V706.813Z" stroke="white" stroke-width="0.5" stroke-miterlimit="10"/>
<path d="M754.901 775.533H686.453V844.253H754.901V775.533Z" stroke="white" stroke-width="0.5" stroke-miterlimit="10"/>
<path d="M754.901 844.253H686.453V912.973H754.901V844.253Z" stroke="white" stroke-width="0.5" stroke-miterlimit="10"/>
<path d="M754.901 912.973H686.453V981.692H754.901V912.973Z" stroke="white" stroke-width="0.5" stroke-miterlimit="10"/>
<path d="M754.901 981.445H686.453V1050.16H754.901V981.445Z" stroke="white" stroke-width="0.5" stroke-miterlimit="10"/>
<path d="M754.901 1050.17H686.453V1118.88H754.901V1050.17Z" stroke="white" stroke-width="0.5" stroke-miterlimit="10"/>
<path d="M823.35 -48.3623H754.901V20.3574H823.35V-48.3623Z" stroke="white" stroke-width="0.5" stroke-miterlimit="10"/>
<path d="M823.35 20.3574H754.901V89.0772H823.35V20.3574Z" stroke="white" stroke-width="0.5" stroke-miterlimit="10"/>
<path d="M823.35 88.8301H754.901V157.55H823.35V88.8301Z" stroke="white" stroke-width="0.5" stroke-miterlimit="10"/>
<path d="M823.35 157.55H754.901V226.27H823.35V157.55Z" stroke="white" stroke-width="0.5" stroke-miterlimit="10"/>
<path d="M823.35 226.27H754.901V294.989H823.35V226.27Z" stroke="white" stroke-width="0.5" stroke-miterlimit="10"/>
<path d="M823.35 294.989H754.901V363.709H823.35V294.989Z" stroke="white" stroke-width="0.5" stroke-miterlimit="10"/>
<path d="M823.35 363.462H754.901V432.182H823.35V363.462Z" stroke="white" stroke-width="0.5" stroke-miterlimit="10"/>
<path d="M823.35 432.182H754.901V500.901H823.35V432.182Z" stroke="white" stroke-width="0.5" stroke-miterlimit="10"/>
<path d="M823.35 500.901H754.901V569.621H823.35V500.901Z" stroke="white" stroke-width="0.5" stroke-miterlimit="10"/>
<path d="M823.35 569.621H754.901V638.341H823.35V569.621Z" stroke="white" stroke-width="0.5" stroke-miterlimit="10"/>
<path d="M823.35 638.341H754.901V707.06H823.35V638.341Z" stroke="white" stroke-width="0.5" stroke-miterlimit="10"/>
<path d="M823.35 706.813H754.901V775.533H823.35V706.813Z" stroke="white" stroke-width="0.5" stroke-miterlimit="10"/>
<path d="M823.35 775.533H754.901V844.253H823.35V775.533Z" stroke="white" stroke-width="0.5" stroke-miterlimit="10"/>
<path d="M823.35 844.253H754.901V912.973H823.35V844.253Z" stroke="white" stroke-width="0.5" stroke-miterlimit="10"/>
<path d="M823.35 912.973H754.901V981.692H823.35V912.973Z" stroke="white" stroke-width="0.5" stroke-miterlimit="10"/>
<path d="M823.35 981.445H754.901V1050.16H823.35V981.445Z" stroke="white" stroke-width="0.5" stroke-miterlimit="10"/>
<path d="M823.35 1050.17H754.901V1118.88H823.35V1050.17Z" stroke="white" stroke-width="0.5" stroke-miterlimit="10"/>
<path d="M891.552 -48.3623H823.104V20.3574H891.552V-48.3623Z" stroke="white" stroke-width="0.5" stroke-miterlimit="10"/>
<path d="M891.552 20.3574H823.104V89.0772H891.552V20.3574Z" stroke="white" stroke-width="0.5" stroke-miterlimit="10"/>
<path d="M891.552 88.8301H823.104V157.55H891.552V88.8301Z" stroke="white" stroke-width="0.5" stroke-miterlimit="10"/>
<path d="M891.552 157.55H823.104V226.27H891.552V157.55Z" stroke="white" stroke-width="0.5" stroke-miterlimit="10"/>
<path d="M891.552 226.27H823.104V294.989H891.552V226.27Z" stroke="white" stroke-width="0.5" stroke-miterlimit="10"/>
<path d="M891.552 294.989H823.104V363.709H891.552V294.989Z" stroke="white" stroke-width="0.5" stroke-miterlimit="10"/>
<path d="M891.552 363.462H823.104V432.182H891.552V363.462Z" stroke="white" stroke-width="0.5" stroke-miterlimit="10"/>
<path d="M891.552 432.182H823.104V500.901H891.552V432.182Z" stroke="white" stroke-width="0.5" stroke-miterlimit="10"/>
<path d="M891.552 500.901H823.104V569.621H891.552V500.901Z" stroke="white" stroke-width="0.5" stroke-miterlimit="10"/>
<path d="M891.552 569.621H823.104V638.341H891.552V569.621Z" stroke="white" stroke-width="0.5" stroke-miterlimit="10"/>
<path d="M891.552 638.341H823.104V707.06H891.552V638.341Z" stroke="white" stroke-width="0.5" stroke-miterlimit="10"/>
<path d="M891.552 706.813H823.104V775.533H891.552V706.813Z" stroke="white" stroke-width="0.5" stroke-miterlimit="10"/>
<path d="M891.552 775.533H823.104V844.253H891.552V775.533Z" stroke="white" stroke-width="0.5" stroke-miterlimit="10"/>
<path d="M891.552 844.253H823.104V912.973H891.552V844.253Z" stroke="white" stroke-width="0.5" stroke-miterlimit="10"/>
<path d="M891.552 912.973H823.104V981.692H891.552V912.973Z" stroke="white" stroke-width="0.5" stroke-miterlimit="10"/>
<path d="M891.552 981.445H823.104V1050.16H891.552V981.445Z" stroke="white" stroke-width="0.5" stroke-miterlimit="10"/>
<path d="M891.552 1050.17H823.104V1118.88H891.552V1050.17Z" stroke="white" stroke-width="0.5" stroke-miterlimit="10"/>
<path d="M960 -48.3623H891.552V20.3574H960V-48.3623Z" stroke="white" stroke-width="0.5" stroke-miterlimit="10"/>
<path d="M960 20.3574H891.552V89.0772H960V20.3574Z" stroke="white" stroke-width="0.5" stroke-miterlimit="10"/>
<path d="M960 88.8301H891.552V157.55H960V88.8301Z" stroke="white" stroke-width="0.5" stroke-miterlimit="10"/>
<path d="M960 157.55H891.552V226.27H960V157.55Z" stroke="white" stroke-width="0.5" stroke-miterlimit="10"/>
<path d="M960 226.27H891.552V294.989H960V226.27Z" stroke="white" stroke-width="0.5" stroke-miterlimit="10"/>
<path d="M960 294.989H891.552V363.709H960V294.989Z" stroke="white" stroke-width="0.5" stroke-miterlimit="10"/>
<path d="M960 363.462H891.552V432.182H960V363.462Z" stroke="white" stroke-width="0.5" stroke-miterlimit="10"/>
<path d="M960 432.182H891.552V500.901H960V432.182Z" stroke="white" stroke-width="0.5" stroke-miterlimit="10"/>
<path d="M960 500.901H891.552V569.621H960V500.901Z" stroke="white" stroke-width="0.5" stroke-miterlimit="10"/>
<path d="M960 569.621H891.552V638.341H960V569.621Z" stroke="white" stroke-width="0.5" stroke-miterlimit="10"/>
<path d="M960 638.341H891.552V707.06H960V638.341Z" stroke="white" stroke-width="0.5" stroke-miterlimit="10"/>
<path d="M960 706.813H891.552V775.533H960V706.813Z" stroke="white" stroke-width="0.5" stroke-miterlimit="10"/>
<path d="M960 775.533H891.552V844.253H960V775.533Z" stroke="white" stroke-width="0.5" stroke-miterlimit="10"/>
<path d="M960 844.253H891.552V912.973H960V844.253Z" stroke="white" stroke-width="0.5" stroke-miterlimit="10"/>
<path d="M960 912.973H891.552V981.692H960V912.973Z" stroke="white" stroke-width="0.5" stroke-miterlimit="10"/>
<path d="M960 981.445H891.552V1050.16H960V981.445Z" stroke="white" stroke-width="0.5" stroke-miterlimit="10"/>
<path d="M960 1050.17H891.552V1118.88H960V1050.17Z" stroke="white" stroke-width="0.5" stroke-miterlimit="10"/>
<path d="M1028.45 -48.3623H960V20.3574H1028.45V-48.3623Z" stroke="white" stroke-width="0.5" stroke-miterlimit="10"/>
<path d="M1028.45 20.3574H960V89.0772H1028.45V20.3574Z" stroke="white" stroke-width="0.5" stroke-miterlimit="10"/>
<path d="M1028.45 88.8301H960V157.55H1028.45V88.8301Z" stroke="white" stroke-width="0.5" stroke-miterlimit="10"/>
<path d="M1028.45 157.55H960V226.27H1028.45V157.55Z" stroke="white" stroke-width="0.5" stroke-miterlimit="10"/>
<path d="M1028.45 226.27H960V294.989H1028.45V226.27Z" stroke="white" stroke-width="0.5" stroke-miterlimit="10"/>
<path d="M1028.45 294.989H960V363.709H1028.45V294.989Z" stroke="white" stroke-width="0.5" stroke-miterlimit="10"/>
<path d="M1028.45 363.462H960V432.182H1028.45V363.462Z" stroke="white" stroke-width="0.5" stroke-miterlimit="10"/>
<path d="M1028.45 432.182H960V500.901H1028.45V432.182Z" stroke="white" stroke-width="0.5" stroke-miterlimit="10"/>
<path d="M1028.45 500.901H960V569.621H1028.45V500.901Z" stroke="white" stroke-width="0.5" stroke-miterlimit="10"/>
<path d="M1028.45 569.621H960V638.341H1028.45V569.621Z" stroke="white" stroke-width="0.5" stroke-miterlimit="10"/>
<path d="M1028.45 638.341H960V707.06H1028.45V638.341Z" stroke="white" stroke-width="0.5" stroke-miterlimit="10"/>
<path d="M1028.45 706.813H960V775.533H1028.45V706.813Z" stroke="white" stroke-width="0.5" stroke-miterlimit="10"/>
<path d="M1028.45 775.533H960V844.253H1028.45V775.533Z" stroke="white" stroke-width="0.5" stroke-miterlimit="10"/>
<path d="M1028.45 844.253H960V912.973H1028.45V844.253Z" stroke="white" stroke-width="0.5" stroke-miterlimit="10"/>
<path d="M1028.45 912.973H960V981.692H1028.45V912.973Z" stroke="white" stroke-width="0.5" stroke-miterlimit="10"/>
<path d="M1028.45 981.445H960V1050.16H1028.45V981.445Z" stroke="white" stroke-width="0.5" stroke-miterlimit="10"/>
<path d="M1028.45 1050.17H960V1118.88H1028.45V1050.17Z" stroke="white" stroke-width="0.5" stroke-miterlimit="10"/>
<path d="M1096.9 -48.3623H1028.45V20.3574H1096.9V-48.3623Z" stroke="white" stroke-width="0.5" stroke-miterlimit="10"/>
<path d="M1096.9 20.3574H1028.45V89.0772H1096.9V20.3574Z" stroke="white" stroke-width="0.5" stroke-miterlimit="10"/>
<path d="M1096.9 88.8301H1028.45V157.55H1096.9V88.8301Z" stroke="white" stroke-width="0.5" stroke-miterlimit="10"/>
<path d="M1096.9 157.55H1028.45V226.27H1096.9V157.55Z" stroke="white" stroke-width="0.5" stroke-miterlimit="10"/>
<path d="M1096.9 226.27H1028.45V294.989H1096.9V226.27Z" stroke="white" stroke-width="0.5" stroke-miterlimit="10"/>
<path d="M1096.9 294.989H1028.45V363.709H1096.9V294.989Z" stroke="white" stroke-width="0.5" stroke-miterlimit="10"/>
<path d="M1096.9 363.462H1028.45V432.182H1096.9V363.462Z" stroke="white" stroke-width="0.5" stroke-miterlimit="10"/>
<path d="M1096.9 432.182H1028.45V500.901H1096.9V432.182Z" stroke="white" stroke-width="0.5" stroke-miterlimit="10"/>
<path d="M1096.9 500.901H1028.45V569.621H1096.9V500.901Z" stroke="white" stroke-width="0.5" stroke-miterlimit="10"/>
<path d="M1096.9 569.621H1028.45V638.341H1096.9V569.621Z" stroke="white" stroke-width="0.5" stroke-miterlimit="10"/>
<path d="M1096.9 638.341H1028.45V707.06H1096.9V638.341Z" stroke="white" stroke-width="0.5" stroke-miterlimit="10"/>
<path d="M1096.9 706.813H1028.45V775.533H1096.9V706.813Z" stroke="white" stroke-width="0.5" stroke-miterlimit="10"/>
<path d="M1096.9 775.533H1028.45V844.253H1096.9V775.533Z" stroke="white" stroke-width="0.5" stroke-miterlimit="10"/>
<path d="M1096.9 844.253H1028.45V912.973H1096.9V844.253Z" stroke="white" stroke-width="0.5" stroke-miterlimit="10"/>
<path d="M1096.9 912.973H1028.45V981.692H1096.9V912.973Z" stroke="white" stroke-width="0.5" stroke-miterlimit="10"/>
<path d="M1096.9 981.445H1028.45V1050.16H1096.9V981.445Z" stroke="white" stroke-width="0.5" stroke-miterlimit="10"/>
<path d="M1096.9 1050.17H1028.45V1118.88H1096.9V1050.17Z" stroke="white" stroke-width="0.5" stroke-miterlimit="10"/>
<path d="M1165.1 -48.3623H1096.65V20.3574H1165.1V-48.3623Z" stroke="white" stroke-width="0.5" stroke-miterlimit="10"/>
<path d="M1165.1 20.3574H1096.65V89.0772H1165.1V20.3574Z" stroke="white" stroke-width="0.5" stroke-miterlimit="10"/>
<path d="M1165.1 88.8301H1096.65V157.55H1165.1V88.8301Z" stroke="white" stroke-width="0.5" stroke-miterlimit="10"/>
<path d="M1165.1 157.55H1096.65V226.27H1165.1V157.55Z" stroke="white" stroke-width="0.5" stroke-miterlimit="10"/>
<path d="M1165.1 226.27H1096.65V294.989H1165.1V226.27Z" stroke="white" stroke-width="0.5" stroke-miterlimit="10"/>
<path d="M1165.1 294.989H1096.65V363.709H1165.1V294.989Z" stroke="white" stroke-width="0.5" stroke-miterlimit="10"/>
<path d="M1165.1 363.462H1096.65V432.182H1165.1V363.462Z" stroke="white" stroke-width="0.5" stroke-miterlimit="10"/>
<path d="M1165.1 432.182H1096.65V500.901H1165.1V432.182Z" stroke="white" stroke-width="0.5" stroke-miterlimit="10"/>
<path d="M1165.1 500.901H1096.65V569.621H1165.1V500.901Z" stroke="white" stroke-width="0.5" stroke-miterlimit="10"/>
<path d="M1165.1 569.621H1096.65V638.341H1165.1V569.621Z" stroke="white" stroke-width="0.5" stroke-miterlimit="10"/>
<path d="M1165.1 638.341H1096.65V707.06H1165.1V638.341Z" stroke="white" stroke-width="0.5" stroke-miterlimit="10"/>
<path d="M1165.1 706.813H1096.65V775.533H1165.1V706.813Z" stroke="white" stroke-width="0.5" stroke-miterlimit="10"/>
<path d="M1165.1 775.533H1096.65V844.253H1165.1V775.533Z" stroke="white" stroke-width="0.5" stroke-miterlimit="10"/>
<path d="M1165.1 844.253H1096.65V912.973H1165.1V844.253Z" stroke="white" stroke-width="0.5" stroke-miterlimit="10"/>
<path d="M1165.1 912.973H1096.65V981.692H1165.1V912.973Z" stroke="white" stroke-width="0.5" stroke-miterlimit="10"/>
<path d="M1165.1 981.445H1096.65V1050.16H1165.1V981.445Z" stroke="white" stroke-width="0.5" stroke-miterlimit="10"/>
<path d="M1165.1 1050.17H1096.65V1118.88H1165.1V1050.17Z" stroke="white" stroke-width="0.5" stroke-miterlimit="10"/>
<path d="M1233.55 -48.3623H1165.1V20.3574H1233.55V-48.3623Z" stroke="white" stroke-width="0.5" stroke-miterlimit="10"/>
<path d="M1233.55 20.3574H1165.1V89.0772H1233.55V20.3574Z" stroke="white" stroke-width="0.5" stroke-miterlimit="10"/>
<path d="M1233.55 88.8301H1165.1V157.55H1233.55V88.8301Z" stroke="white" stroke-width="0.5" stroke-miterlimit="10"/>
<path d="M1233.55 157.55H1165.1V226.27H1233.55V157.55Z" stroke="white" stroke-width="0.5" stroke-miterlimit="10"/>
<path d="M1233.55 226.27H1165.1V294.989H1233.55V226.27Z" stroke="white" stroke-width="0.5" stroke-miterlimit="10"/>
<path d="M1233.55 294.989H1165.1V363.709H1233.55V294.989Z" stroke="white" stroke-width="0.5" stroke-miterlimit="10"/>
<path d="M1233.55 363.462H1165.1V432.182H1233.55V363.462Z" stroke="white" stroke-width="0.5" stroke-miterlimit="10"/>
<path d="M1233.55 432.182H1165.1V500.901H1233.55V432.182Z" stroke="white" stroke-width="0.5" stroke-miterlimit="10"/>
<path d="M1233.55 500.901H1165.1V569.621H1233.55V500.901Z" stroke="white" stroke-width="0.5" stroke-miterlimit="10"/>
<path d="M1233.55 569.621H1165.1V638.341H1233.55V569.621Z" stroke="white" stroke-width="0.5" stroke-miterlimit="10"/>
<path d="M1233.55 638.341H1165.1V707.06H1233.55V638.341Z" stroke="white" stroke-width="0.5" stroke-miterlimit="10"/>
<path d="M1233.55 706.813H1165.1V775.533H1233.55V706.813Z" stroke="white" stroke-width="0.5" stroke-miterlimit="10"/>
<path d="M1233.55 775.533H1165.1V844.253H1233.55V775.533Z" stroke="white" stroke-width="0.5" stroke-miterlimit="10"/>
<path d="M1233.55 844.253H1165.1V912.973H1233.55V844.253Z" stroke="white" stroke-width="0.5" stroke-miterlimit="10"/>
<path d="M1233.55 912.973H1165.1V981.692H1233.55V912.973Z" stroke="white" stroke-width="0.5" stroke-miterlimit="10"/>
<path d="M1233.55 981.445H1165.1V1050.16H1233.55V981.445Z" stroke="white" stroke-width="0.5" stroke-miterlimit="10"/>
<path d="M1233.55 1050.17H1165.1V1118.88H1233.55V1050.17Z" stroke="white" stroke-width="0.5" stroke-miterlimit="10"/>
<path d="M1302 -48.3623H1233.55V20.3574H1302V-48.3623Z" stroke="white" stroke-width="0.5" stroke-miterlimit="10"/>
<path d="M1302 20.3574H1233.55V89.0772H1302V20.3574Z" stroke="white" stroke-width="0.5" stroke-miterlimit="10"/>
<path d="M1302 88.8301H1233.55V157.55H1302V88.8301Z" stroke="white" stroke-width="0.5" stroke-miterlimit="10"/>
<path d="M1302 157.55H1233.55V226.27H1302V157.55Z" stroke="white" stroke-width="0.5" stroke-miterlimit="10"/>
<path d="M1302 226.27H1233.55V294.989H1302V226.27Z" stroke="white" stroke-width="0.5" stroke-miterlimit="10"/>
<path d="M1302 294.989H1233.55V363.709H1302V294.989Z" stroke="white" stroke-width="0.5" stroke-miterlimit="10"/>
<path d="M1302 363.462H1233.55V432.182H1302V363.462Z" stroke="white" stroke-width="0.5" stroke-miterlimit="10"/>
<path d="M1302 432.182H1233.55V500.901H1302V432.182Z" stroke="white" stroke-width="0.5" stroke-miterlimit="10"/>
<path d="M1302 500.901H1233.55V569.621H1302V500.901Z" stroke="white" stroke-width="0.5" stroke-miterlimit="10"/>
<path d="M1302 569.621H1233.55V638.341H1302V569.621Z" stroke="white" stroke-width="0.5" stroke-miterlimit="10"/>
<path d="M1302 638.341H1233.55V707.06H1302V638.341Z" stroke="white" stroke-width="0.5" stroke-miterlimit="10"/>
<path d="M1302 706.813H1233.55V775.533H1302V706.813Z" stroke="white" stroke-width="0.5" stroke-miterlimit="10"/>
<path d="M1302 775.533H1233.55V844.253H1302V775.533Z" stroke="white" stroke-width="0.5" stroke-miterlimit="10"/>
<path d="M1302 844.253H1233.55V912.973H1302V844.253Z" stroke="white" stroke-width="0.5" stroke-miterlimit="10"/>
<path d="M1302 912.973H1233.55V981.692H1302V912.973Z" stroke="white" stroke-width="0.5" stroke-miterlimit="10"/>
<path d="M1302 981.445H1233.55V1050.16H1302V981.445Z" stroke="white" stroke-width="0.5" stroke-miterlimit="10"/>
<path d="M1302 1050.17H1233.55V1118.88H1302V1050.17Z" stroke="white" stroke-width="0.5" stroke-miterlimit="10"/>
<path d="M1370.44 -48.3623H1302V20.3574H1370.44V-48.3623Z" stroke="white" stroke-width="0.5" stroke-miterlimit="10"/>
<path d="M1370.44 20.3574H1302V89.0772H1370.44V20.3574Z" stroke="white" stroke-width="0.5" stroke-miterlimit="10"/>
<path d="M1370.44 88.8301H1302V157.55H1370.44V88.8301Z" stroke="white" stroke-width="0.5" stroke-miterlimit="10"/>
<path d="M1370.44 157.55H1302V226.27H1370.44V157.55Z" stroke="white" stroke-width="0.5" stroke-miterlimit="10"/>
<path d="M1370.44 226.27H1302V294.989H1370.44V226.27Z" stroke="white" stroke-width="0.5" stroke-miterlimit="10"/>
<path d="M1370.44 294.989H1302V363.709H1370.44V294.989Z" stroke="white" stroke-width="0.5" stroke-miterlimit="10"/>
<path d="M1370.44 363.462H1302V432.182H1370.44V363.462Z" stroke="white" stroke-width="0.5" stroke-miterlimit="10"/>
<path d="M1370.44 432.182H1302V500.901H1370.44V432.182Z" stroke="white" stroke-width="0.5" stroke-miterlimit="10"/>
<path d="M1370.44 500.901H1302V569.621H1370.44V500.901Z" stroke="white" stroke-width="0.5" stroke-miterlimit="10"/>
<path d="M1370.44 569.621H1302V638.341H1370.44V569.621Z" stroke="white" stroke-width="0.5" stroke-miterlimit="10"/>
<path d="M1370.44 638.341H1302V707.06H1370.44V638.341Z" stroke="white" stroke-width="0.5" stroke-miterlimit="10"/>
<path d="M1370.44 706.813H1302V775.533H1370.44V706.813Z" stroke="white" stroke-width="0.5" stroke-miterlimit="10"/>
<path d="M1370.44 775.533H1302V844.253H1370.44V775.533Z" stroke="white" stroke-width="0.5" stroke-miterlimit="10"/>
<path d="M1370.44 844.253H1302V912.973H1370.44V844.253Z" stroke="white" stroke-width="0.5" stroke-miterlimit="10"/>
<path d="M1370.44 912.973H1302V981.692H1370.44V912.973Z" stroke="white" stroke-width="0.5" stroke-miterlimit="10"/>
<path d="M1370.44 981.445H1302V1050.16H1370.44V981.445Z" stroke="white" stroke-width="0.5" stroke-miterlimit="10"/>
<path d="M1370.44 1050.17H1302V1118.88H1370.44V1050.17Z" stroke="white" stroke-width="0.5" stroke-miterlimit="10"/>
<path d="M1438.89 -48.3623H1370.44V20.3574H1438.89V-48.3623Z" stroke="white" stroke-width="0.5" stroke-miterlimit="10"/>
<path d="M1438.89 20.3574H1370.44V89.0772H1438.89V20.3574Z" stroke="white" stroke-width="0.5" stroke-miterlimit="10"/>
<path d="M1438.89 88.8301H1370.44V157.55H1438.89V88.8301Z" stroke="white" stroke-width="0.5" stroke-miterlimit="10"/>
<path d="M1438.89 157.55H1370.44V226.27H1438.89V157.55Z" stroke="white" stroke-width="0.5" stroke-miterlimit="10"/>
<path d="M1438.89 226.27H1370.44V294.989H1438.89V226.27Z" stroke="white" stroke-width="0.5" stroke-miterlimit="10"/>
<path d="M1438.89 294.989H1370.44V363.709H1438.89V294.989Z" stroke="white" stroke-width="0.5" stroke-miterlimit="10"/>
<path d="M1438.89 363.462H1370.44V432.182H1438.89V363.462Z" stroke="white" stroke-width="0.5" stroke-miterlimit="10"/>
<path d="M1438.89 432.182H1370.44V500.901H1438.89V432.182Z" stroke="white" stroke-width="0.5" stroke-miterlimit="10"/>
<path d="M1438.89 500.901H1370.44V569.621H1438.89V500.901Z" stroke="white" stroke-width="0.5" stroke-miterlimit="10"/>
<path d="M1438.89 569.621H1370.44V638.341H1438.89V569.621Z" stroke="white" stroke-width="0.5" stroke-miterlimit="10"/>
<path d="M1438.89 638.341H1370.44V707.06H1438.89V638.341Z" stroke="white" stroke-width="0.5" stroke-miterlimit="10"/>
<path d="M1438.89 706.813H1370.44V775.533H1438.89V706.813Z" stroke="white" stroke-width="0.5" stroke-miterlimit="10"/>
<path d="M1438.89 775.533H1370.44V844.253H1438.89V775.533Z" stroke="white" stroke-width="0.5" stroke-miterlimit="10"/>
<path d="M1438.89 844.253H1370.44V912.973H1438.89V844.253Z" stroke="white" stroke-width="0.5" stroke-miterlimit="10"/>
<path d="M1438.89 912.973H1370.44V981.692H1438.89V912.973Z" stroke="white" stroke-width="0.5" stroke-miterlimit="10"/>
<path d="M1438.89 981.445H1370.44V1050.16H1438.89V981.445Z" stroke="white" stroke-width="0.5" stroke-miterlimit="10"/>
<path d="M1438.89 1050.17H1370.44V1118.88H1438.89V1050.17Z" stroke="white" stroke-width="0.5" stroke-miterlimit="10"/>
<path d="M1507.09 -48.3623H1438.65V20.3574H1507.09V-48.3623Z" stroke="white" stroke-width="0.5" stroke-miterlimit="10"/>
<path d="M1507.09 20.3574H1438.65V89.0772H1507.09V20.3574Z" stroke="white" stroke-width="0.5" stroke-miterlimit="10"/>
<path d="M1507.09 88.8301H1438.65V157.55H1507.09V88.8301Z" stroke="white" stroke-width="0.5" stroke-miterlimit="10"/>
<path d="M1507.09 157.55H1438.65V226.27H1507.09V157.55Z" stroke="white" stroke-width="0.5" stroke-miterlimit="10"/>
<path d="M1507.09 226.27H1438.65V294.989H1507.09V226.27Z" stroke="white" stroke-width="0.5" stroke-miterlimit="10"/>
<path d="M1507.09 294.989H1438.65V363.709H1507.09V294.989Z" stroke="white" stroke-width="0.5" stroke-miterlimit="10"/>
<path d="M1507.09 363.462H1438.65V432.182H1507.09V363.462Z" stroke="white" stroke-width="0.5" stroke-miterlimit="10"/>
<path d="M1507.09 432.182H1438.65V500.901H1507.09V432.182Z" stroke="white" stroke-width="0.5" stroke-miterlimit="10"/>
<path d="M1507.09 500.901H1438.65V569.621H1507.09V500.901Z" stroke="white" stroke-width="0.5" stroke-miterlimit="10"/>
<path d="M1507.09 569.621H1438.65V638.341H1507.09V569.621Z" stroke="white" stroke-width="0.5" stroke-miterlimit="10"/>
<path d="M1507.09 638.341H1438.65V707.06H1507.09V638.341Z" stroke="white" stroke-width="0.5" stroke-miterlimit="10"/>
<path d="M1507.09 706.813H1438.65V775.533H1507.09V706.813Z" stroke="white" stroke-width="0.5" stroke-miterlimit="10"/>
<path d="M1507.09 775.533H1438.65V844.253H1507.09V775.533Z" stroke="white" stroke-width="0.5" stroke-miterlimit="10"/>
<path d="M1507.09 844.253H1438.65V912.973H1507.09V844.253Z" stroke="white" stroke-width="0.5" stroke-miterlimit="10"/>
<path d="M1507.09 912.973H1438.65V981.692H1507.09V912.973Z" stroke="white" stroke-width="0.5" stroke-miterlimit="10"/>
<path d="M1507.09 981.445H1438.65V1050.16H1507.09V981.445Z" stroke="white" stroke-width="0.5" stroke-miterlimit="10"/>
<path d="M1507.09 1050.17H1438.65V1118.88H1507.09V1050.17Z" stroke="white" stroke-width="0.5" stroke-miterlimit="10"/>
<path d="M1575.54 -48.3623H1507.09V20.3574H1575.54V-48.3623Z" stroke="white" stroke-width="0.5" stroke-miterlimit="10"/>
<path d="M1575.54 20.3574H1507.09V89.0772H1575.54V20.3574Z" stroke="white" stroke-width="0.5" stroke-miterlimit="10"/>
<path d="M1575.54 88.8301H1507.09V157.55H1575.54V88.8301Z" stroke="white" stroke-width="0.5" stroke-miterlimit="10"/>
<path d="M1575.54 157.55H1507.09V226.27H1575.54V157.55Z" stroke="white" stroke-width="0.5" stroke-miterlimit="10"/>
<path d="M1575.54 226.27H1507.09V294.989H1575.54V226.27Z" stroke="white" stroke-width="0.5" stroke-miterlimit="10"/>
<path d="M1575.54 294.989H1507.09V363.709H1575.54V294.989Z" stroke="white" stroke-width="0.5" stroke-miterlimit="10"/>
<path d="M1575.54 363.462H1507.09V432.182H1575.54V363.462Z" stroke="white" stroke-width="0.5" stroke-miterlimit="10"/>
<path d="M1575.54 432.182H1507.09V500.901H1575.54V432.182Z" stroke="white" stroke-width="0.5" stroke-miterlimit="10"/>
<path d="M1575.54 500.901H1507.09V569.621H1575.54V500.901Z" stroke="white" stroke-width="0.5" stroke-miterlimit="10"/>
<path d="M1575.54 569.621H1507.09V638.341H1575.54V569.621Z" stroke="white" stroke-width="0.5" stroke-miterlimit="10"/>
<path d="M1575.54 638.341H1507.09V707.06H1575.54V638.341Z" stroke="white" stroke-width="0.5" stroke-miterlimit="10"/>
<path d="M1575.54 706.813H1507.09V775.533H1575.54V706.813Z" stroke="white" stroke-width="0.5" stroke-miterlimit="10"/>
<path d="M1575.54 775.533H1507.09V844.253H1575.54V775.533Z" stroke="white" stroke-width="0.5" stroke-miterlimit="10"/>
<path d="M1575.54 844.253H1507.09V912.973H1575.54V844.253Z" stroke="white" stroke-width="0.5" stroke-miterlimit="10"/>
<path d="M1575.54 912.973H1507.09V981.692H1575.54V912.973Z" stroke="white" stroke-width="0.5" stroke-miterlimit="10"/>
<path d="M1575.54 981.445H1507.09V1050.16H1575.54V981.445Z" stroke="white" stroke-width="0.5" stroke-miterlimit="10"/>
<path d="M1575.54 1050.17H1507.09V1118.88H1575.54V1050.17Z" stroke="white" stroke-width="0.5" stroke-miterlimit="10"/>
<path d="M1643.99 -48.3623H1575.54V20.3574H1643.99V-48.3623Z" stroke="white" stroke-width="0.5" stroke-miterlimit="10"/>
<path d="M1643.99 20.3574H1575.54V89.0772H1643.99V20.3574Z" stroke="white" stroke-width="0.5" stroke-miterlimit="10"/>
<path d="M1643.99 88.8301H1575.54V157.55H1643.99V88.8301Z" stroke="white" stroke-width="0.5" stroke-miterlimit="10"/>
<path d="M1643.99 157.55H1575.54V226.27H1643.99V157.55Z" stroke="white" stroke-width="0.5" stroke-miterlimit="10"/>
<path d="M1643.99 226.27H1575.54V294.989H1643.99V226.27Z" stroke="white" stroke-width="0.5" stroke-miterlimit="10"/>
<path d="M1643.99 294.989H1575.54V363.709H1643.99V294.989Z" stroke="white" stroke-width="0.5" stroke-miterlimit="10"/>
<path d="M1643.99 363.462H1575.54V432.182H1643.99V363.462Z" stroke="white" stroke-width="0.5" stroke-miterlimit="10"/>
<path d="M1643.99 432.182H1575.54V500.901H1643.99V432.182Z" stroke="white" stroke-width="0.5" stroke-miterlimit="10"/>
<path d="M1643.99 500.901H1575.54V569.621H1643.99V500.901Z" stroke="white" stroke-width="0.5" stroke-miterlimit="10"/>
<path d="M1643.99 569.621H1575.54V638.341H1643.99V569.621Z" stroke="white" stroke-width="0.5" stroke-miterlimit="10"/>
<path d="M1643.99 638.341H1575.54V707.06H1643.99V638.341Z" stroke="white" stroke-width="0.5" stroke-miterlimit="10"/>
<path d="M1643.99 706.813H1575.54V775.533H1643.99V706.813Z" stroke="white" stroke-width="0.5" stroke-miterlimit="10"/>
<path d="M1643.99 775.533H1575.54V844.253H1643.99V775.533Z" stroke="white" stroke-width="0.5" stroke-miterlimit="10"/>
<path d="M1643.99 844.253H1575.54V912.973H1643.99V844.253Z" stroke="white" stroke-width="0.5" stroke-miterlimit="10"/>
<path d="M1643.99 912.973H1575.54V981.692H1643.99V912.973Z" stroke="white" stroke-width="0.5" stroke-miterlimit="10"/>
<path d="M1643.99 981.445H1575.54V1050.16H1643.99V981.445Z" stroke="white" stroke-width="0.5" stroke-miterlimit="10"/>
<path d="M1643.99 1050.17H1575.54V1118.88H1643.99V1050.17Z" stroke="white" stroke-width="0.5" stroke-miterlimit="10"/>
<path d="M1712.44 -48.3623H1643.99V20.3574H1712.44V-48.3623Z" stroke="white" stroke-width="0.5" stroke-miterlimit="10"/>
<path d="M1712.44 20.3574H1643.99V89.0772H1712.44V20.3574Z" stroke="white" stroke-width="0.5" stroke-miterlimit="10"/>
<path d="M1712.44 88.8301H1643.99V157.55H1712.44V88.8301Z" stroke="white" stroke-width="0.5" stroke-miterlimit="10"/>
<path d="M1712.44 157.55H1643.99V226.27H1712.44V157.55Z" stroke="white" stroke-width="0.5" stroke-miterlimit="10"/>
<path d="M1712.44 226.27H1643.99V294.989H1712.44V226.27Z" stroke="white" stroke-width="0.5" stroke-miterlimit="10"/>
<path d="M1712.44 294.989H1643.99V363.709H1712.44V294.989Z" stroke="white" stroke-width="0.5" stroke-miterlimit="10"/>
<path d="M1712.44 363.462H1643.99V432.182H1712.44V363.462Z" stroke="white" stroke-width="0.5" stroke-miterlimit="10"/>
<path d="M1712.44 432.182H1643.99V500.901H1712.44V432.182Z" stroke="white" stroke-width="0.5" stroke-miterlimit="10"/>
<path d="M1712.44 500.901H1643.99V569.621H1712.44V500.901Z" stroke="white" stroke-width="0.5" stroke-miterlimit="10"/>
<path d="M1712.44 569.621H1643.99V638.341H1712.44V569.621Z" stroke="white" stroke-width="0.5" stroke-miterlimit="10"/>
<path d="M1712.44 638.341H1643.99V707.06H1712.44V638.341Z" stroke="white" stroke-width="0.5" stroke-miterlimit="10"/>
<path d="M1712.44 706.813H1643.99V775.533H1712.44V706.813Z" stroke="white" stroke-width="0.5" stroke-miterlimit="10"/>
<path d="M1712.44 775.533H1643.99V844.253H1712.44V775.533Z" stroke="white" stroke-width="0.5" stroke-miterlimit="10"/>
<path d="M1712.44 844.253H1643.99V912.973H1712.44V844.253Z" stroke="white" stroke-width="0.5" stroke-miterlimit="10"/>
<path d="M1712.44 912.973H1643.99V981.692H1712.44V912.973Z" stroke="white" stroke-width="0.5" stroke-miterlimit="10"/>
<path d="M1712.44 981.445H1643.99V1050.16H1712.44V981.445Z" stroke="white" stroke-width="0.5" stroke-miterlimit="10"/>
<path d="M1712.44 1050.17H1643.99V1118.88H1712.44V1050.17Z" stroke="white" stroke-width="0.5" stroke-miterlimit="10"/>
<path d="M1780.64 -48.3623H1712.19V20.3574H1780.64V-48.3623Z" stroke="white" stroke-width="0.5" stroke-miterlimit="10"/>
<path d="M1780.64 20.3574H1712.19V89.0772H1780.64V20.3574Z" stroke="white" stroke-width="0.5" stroke-miterlimit="10"/>
<path d="M1780.64 88.8301H1712.19V157.55H1780.64V88.8301Z" stroke="white" stroke-width="0.5" stroke-miterlimit="10"/>
<path d="M1780.64 157.55H1712.19V226.27H1780.64V157.55Z" stroke="white" stroke-width="0.5" stroke-miterlimit="10"/>
<path d="M1780.64 226.27H1712.19V294.989H1780.64V226.27Z" stroke="white" stroke-width="0.5" stroke-miterlimit="10"/>
<path d="M1780.64 294.989H1712.19V363.709H1780.64V294.989Z" stroke="white" stroke-width="0.5" stroke-miterlimit="10"/>
<path d="M1780.64 363.462H1712.19V432.182H1780.64V363.462Z" stroke="white" stroke-width="0.5" stroke-miterlimit="10"/>
<path d="M1780.64 432.182H1712.19V500.901H1780.64V432.182Z" stroke="white" stroke-width="0.5" stroke-miterlimit="10"/>
<path d="M1780.64 500.901H1712.19V569.621H1780.64V500.901Z" stroke="white" stroke-width="0.5" stroke-miterlimit="10"/>
<path d="M1780.64 569.621H1712.19V638.341H1780.64V569.621Z" stroke="white" stroke-width="0.5" stroke-miterlimit="10"/>
<path d="M1780.64 638.341H1712.19V707.06H1780.64V638.341Z" stroke="white" stroke-width="0.5" stroke-miterlimit="10"/>
<path d="M1780.64 706.813H1712.19V775.533H1780.64V706.813Z" stroke="white" stroke-width="0.5" stroke-miterlimit="10"/>
<path d="M1780.64 775.533H1712.19V844.253H1780.64V775.533Z" stroke="white" stroke-width="0.5" stroke-miterlimit="10"/>
<path d="M1780.64 844.253H1712.19V912.973H1780.64V844.253Z" stroke="white" stroke-width="0.5" stroke-miterlimit="10"/>
<path d="M1780.64 912.973H1712.19V981.692H1780.64V912.973Z" stroke="white" stroke-width="0.5" stroke-miterlimit="10"/>
<path d="M1780.64 981.445H1712.19V1050.16H1780.64V981.445Z" stroke="white" stroke-width="0.5" stroke-miterlimit="10"/>
<path d="M1780.64 1050.17H1712.19V1118.88H1780.64V1050.17Z" stroke="white" stroke-width="0.5" stroke-miterlimit="10"/>
<path d="M1849.09 -48.3623H1780.64V20.3574H1849.09V-48.3623Z" stroke="white" stroke-width="0.5" stroke-miterlimit="10"/>
<path d="M1849.09 20.3574H1780.64V89.0772H1849.09V20.3574Z" stroke="white" stroke-width="0.5" stroke-miterlimit="10"/>
<path d="M1849.09 88.8301H1780.64V157.55H1849.09V88.8301Z" stroke="white" stroke-width="0.5" stroke-miterlimit="10"/>
<path d="M1849.09 157.55H1780.64V226.27H1849.09V157.55Z" stroke="white" stroke-width="0.5" stroke-miterlimit="10"/>
<path d="M1849.09 226.27H1780.64V294.989H1849.09V226.27Z" stroke="white" stroke-width="0.5" stroke-miterlimit="10"/>
<path d="M1849.09 294.989H1780.64V363.709H1849.09V294.989Z" stroke="white" stroke-width="0.5" stroke-miterlimit="10"/>
<path d="M1849.09 363.462H1780.64V432.182H1849.09V363.462Z" stroke="white" stroke-width="0.5" stroke-miterlimit="10"/>
<path d="M1849.09 432.182H1780.64V500.901H1849.09V432.182Z" stroke="white" stroke-width="0.5" stroke-miterlimit="10"/>
<path d="M1849.09 500.901H1780.64V569.621H1849.09V500.901Z" stroke="white" stroke-width="0.5" stroke-miterlimit="10"/>
<path d="M1849.09 569.621H1780.64V638.341H1849.09V569.621Z" stroke="white" stroke-width="0.5" stroke-miterlimit="10"/>
<path d="M1849.09 638.341H1780.64V707.06H1849.09V638.341Z" stroke="white" stroke-width="0.5" stroke-miterlimit="10"/>
<path d="M1849.09 706.813H1780.64V775.533H1849.09V706.813Z" stroke="white" stroke-width="0.5" stroke-miterlimit="10"/>
<path d="M1849.09 775.533H1780.64V844.253H1849.09V775.533Z" stroke="white" stroke-width="0.5" stroke-miterlimit="10"/>
<path d="M1849.09 844.253H1780.64V912.973H1849.09V844.253Z" stroke="white" stroke-width="0.5" stroke-miterlimit="10"/>
<path d="M1849.09 912.973H1780.64V981.692H1849.09V912.973Z" stroke="white" stroke-width="0.5" stroke-miterlimit="10"/>
<path d="M1849.09 981.445H1780.64V1050.16H1849.09V981.445Z" stroke="white" stroke-width="0.5" stroke-miterlimit="10"/>
<path d="M1849.09 1050.17H1780.64V1118.88H1849.09V1050.17Z" stroke="white" stroke-width="0.5" stroke-miterlimit="10"/>
<path d="M1917.54 -48.3623H1849.09V20.3574H1917.54V-48.3623Z" stroke="white" stroke-width="0.5" stroke-miterlimit="10"/>
<path d="M1917.54 20.3574H1849.09V89.0772H1917.54V20.3574Z" stroke="white" stroke-width="0.5" stroke-miterlimit="10"/>
<path d="M1917.54 88.8301H1849.09V157.55H1917.54V88.8301Z" stroke="white" stroke-width="0.5" stroke-miterlimit="10"/>
<path d="M1917.54 157.55H1849.09V226.27H1917.54V157.55Z" stroke="white" stroke-width="0.5" stroke-miterlimit="10"/>
<path d="M1917.54 226.27H1849.09V294.989H1917.54V226.27Z" stroke="white" stroke-width="0.5" stroke-miterlimit="10"/>
<path d="M1917.54 294.989H1849.09V363.709H1917.54V294.989Z" stroke="white" stroke-width="0.5" stroke-miterlimit="10"/>
<path d="M1917.54 363.462H1849.09V432.182H1917.54V363.462Z" stroke="white" stroke-width="0.5" stroke-miterlimit="10"/>
<path d="M1917.54 432.182H1849.09V500.901H1917.54V432.182Z" stroke="white" stroke-width="0.5" stroke-miterlimit="10"/>
<path d="M1917.54 500.901H1849.09V569.621H1917.54V500.901Z" stroke="white" stroke-width="0.5" stroke-miterlimit="10"/>
<path d="M1917.54 569.621H1849.09V638.341H1917.54V569.621Z" stroke="white" stroke-width="0.5" stroke-miterlimit="10"/>
<path d="M1917.54 638.341H1849.09V707.06H1917.54V638.341Z" stroke="white" stroke-width="0.5" stroke-miterlimit="10"/>
<path d="M1917.54 706.813H1849.09V775.533H1917.54V706.813Z" stroke="white" stroke-width="0.5" stroke-miterlimit="10"/>
<path d="M1917.54 775.533H1849.09V844.253H1917.54V775.533Z" stroke="white" stroke-width="0.5" stroke-miterlimit="10"/>
<path d="M1917.54 844.253H1849.09V912.973H1917.54V844.253Z" stroke="white" stroke-width="0.5" stroke-miterlimit="10"/>
<path d="M1917.54 912.973H1849.09V981.692H1917.54V912.973Z" stroke="white" stroke-width="0.5" stroke-miterlimit="10"/>
<path d="M1917.54 981.445H1849.09V1050.16H1917.54V981.445Z" stroke="white" stroke-width="0.5" stroke-miterlimit="10"/>
<path d="M1917.54 1050.17H1849.09V1118.88H1917.54V1050.17Z" stroke="white" stroke-width="0.5" stroke-miterlimit="10"/>
<path d="M139.359 -117.082H2.46216V20.3574H139.359V-117.082Z" stroke="white" stroke-width="0.5" stroke-miterlimit="10"/>
<path d="M139.359 20.3574H2.46216V157.797H139.359V20.3574Z" stroke="white" stroke-width="0.5" stroke-miterlimit="10"/>
<path d="M139.359 157.55H2.46216V294.989H139.359V157.55Z" stroke="white" stroke-width="0.5" stroke-miterlimit="10"/>
<path d="M139.359 294.989H2.46216V432.429H139.359V294.989Z" stroke="white" stroke-width="0.5" stroke-miterlimit="10"/>
<path d="M139.359 432.182H2.46216V569.621H139.359V432.182Z" stroke="white" stroke-width="0.5" stroke-miterlimit="10"/>
<path d="M139.359 569.621H2.46216V707.061H139.359V569.621Z" stroke="white" stroke-width="0.5" stroke-miterlimit="10"/>
<path d="M139.359 706.813H2.46216V844.253H139.359V706.813Z" stroke="white" stroke-width="0.5" stroke-miterlimit="10"/>
<path d="M139.359 844.253H2.46216V981.692H139.359V844.253Z" stroke="white" stroke-width="0.5" stroke-miterlimit="10"/>
<path d="M139.359 981.445H2.46216V1118.88H139.359V981.445Z" stroke="white" stroke-width="0.5" stroke-miterlimit="10"/>
<path d="M276.256 -117.082H139.359V20.3574H276.256V-117.082Z" stroke="white" stroke-width="0.5" stroke-miterlimit="10"/>
<path d="M276.256 20.3574H139.359V157.797H276.256V20.3574Z" stroke="white" stroke-width="0.5" stroke-miterlimit="10"/>
<path d="M276.256 157.55H139.359V294.989H276.256V157.55Z" stroke="white" stroke-width="0.5" stroke-miterlimit="10"/>
<path d="M276.256 294.989H139.359V432.429H276.256V294.989Z" stroke="white" stroke-width="0.5" stroke-miterlimit="10"/>
<path d="M276.256 432.182H139.359V569.621H276.256V432.182Z" stroke="white" stroke-width="0.5" stroke-miterlimit="10"/>
<path d="M276.256 569.621H139.359V707.061H276.256V569.621Z" stroke="white" stroke-width="0.5" stroke-miterlimit="10"/>
<path d="M276.256 706.813H139.359V844.253H276.256V706.813Z" stroke="white" stroke-width="0.5" stroke-miterlimit="10"/>
<path d="M276.256 844.253H139.359V981.692H276.256V844.253Z" stroke="white" stroke-width="0.5" stroke-miterlimit="10"/>
<path d="M276.256 981.445H139.359V1118.88H276.256V981.445Z" stroke="white" stroke-width="0.5" stroke-miterlimit="10"/>
<path d="M412.906 -117.082H276.009V20.3574H412.906V-117.082Z" stroke="white" stroke-width="0.5" stroke-miterlimit="10"/>
<path d="M412.906 20.3574H276.009V157.797H412.906V20.3574Z" stroke="white" stroke-width="0.5" stroke-miterlimit="10"/>
<path d="M412.906 157.55H276.009V294.989H412.906V157.55Z" stroke="white" stroke-width="0.5" stroke-miterlimit="10"/>
<path d="M412.906 294.989H276.009V432.429H412.906V294.989Z" stroke="white" stroke-width="0.5" stroke-miterlimit="10"/>
<path d="M412.906 432.182H276.009V569.621H412.906V432.182Z" stroke="white" stroke-width="0.5" stroke-miterlimit="10"/>
<path d="M412.906 569.621H276.009V707.061H412.906V569.621Z" stroke="white" stroke-width="0.5" stroke-miterlimit="10"/>
<path d="M412.906 706.813H276.009V844.253H412.906V706.813Z" stroke="white" stroke-width="0.5" stroke-miterlimit="10"/>
<path d="M412.906 844.253H276.009V981.692H412.906V844.253Z" stroke="white" stroke-width="0.5" stroke-miterlimit="10"/>
<path d="M412.906 981.445H276.009V1118.88H412.906V981.445Z" stroke="white" stroke-width="0.5" stroke-miterlimit="10"/>
<path d="M549.802 -117.082H412.906V20.3574H549.802V-117.082Z" stroke="white" stroke-width="0.5" stroke-miterlimit="10"/>
<path d="M549.802 20.3574H412.906V157.797H549.802V20.3574Z" stroke="white" stroke-width="0.5" stroke-miterlimit="10"/>
<path d="M549.802 157.55H412.906V294.989H549.802V157.55Z" stroke="white" stroke-width="0.5" stroke-miterlimit="10"/>
<path d="M549.802 294.989H412.906V432.429H549.802V294.989Z" stroke="white" stroke-width="0.5" stroke-miterlimit="10"/>
<path d="M549.802 432.182H412.906V569.621H549.802V432.182Z" stroke="white" stroke-width="0.5" stroke-miterlimit="10"/>
<path d="M549.802 569.621H412.906V707.061H549.802V569.621Z" stroke="white" stroke-width="0.5" stroke-miterlimit="10"/>
<path d="M549.802 706.813H412.906V844.253H549.802V706.813Z" stroke="white" stroke-width="0.5" stroke-miterlimit="10"/>
<path d="M549.802 844.253H412.906V981.692H549.802V844.253Z" stroke="white" stroke-width="0.5" stroke-miterlimit="10"/>
<path d="M549.802 981.445H412.906V1118.88H549.802V981.445Z" stroke="white" stroke-width="0.5" stroke-miterlimit="10"/>
<path d="M686.453 -117.082H549.556V20.3574H686.453V-117.082Z" stroke="white" stroke-width="0.5" stroke-miterlimit="10"/>
<path d="M686.453 20.3574H549.556V157.797H686.453V20.3574Z" stroke="white" stroke-width="0.5" stroke-miterlimit="10"/>
<path d="M686.453 157.55H549.556V294.989H686.453V157.55Z" stroke="white" stroke-width="0.5" stroke-miterlimit="10"/>
<path d="M686.453 294.989H549.556V432.429H686.453V294.989Z" stroke="white" stroke-width="0.5" stroke-miterlimit="10"/>
<path d="M686.453 432.182H549.556V569.621H686.453V432.182Z" stroke="white" stroke-width="0.5" stroke-miterlimit="10"/>
<path d="M686.453 569.621H549.556V707.061H686.453V569.621Z" stroke="white" stroke-width="0.5" stroke-miterlimit="10"/>
<path d="M686.453 706.813H549.556V844.253H686.453V706.813Z" stroke="white" stroke-width="0.5" stroke-miterlimit="10"/>
<path d="M686.453 844.253H549.556V981.692H686.453V844.253Z" stroke="white" stroke-width="0.5" stroke-miterlimit="10"/>
<path d="M686.453 981.445H549.556V1118.88H686.453V981.445Z" stroke="white" stroke-width="0.5" stroke-miterlimit="10"/>
<path d="M823.35 -117.082H686.453V20.3574H823.35V-117.082Z" stroke="white" stroke-width="0.5" stroke-miterlimit="10"/>
<path d="M823.35 20.3574H686.453V157.797H823.35V20.3574Z" stroke="white" stroke-width="0.5" stroke-miterlimit="10"/>
<path d="M823.35 157.55H686.453V294.989H823.35V157.55Z" stroke="white" stroke-width="0.5" stroke-miterlimit="10"/>
<path d="M823.35 294.989H686.453V432.429H823.35V294.989Z" stroke="white" stroke-width="0.5" stroke-miterlimit="10"/>
<path d="M823.35 432.182H686.453V569.621H823.35V432.182Z" stroke="white" stroke-width="0.5" stroke-miterlimit="10"/>
<path d="M823.35 569.621H686.453V707.061H823.35V569.621Z" stroke="white" stroke-width="0.5" stroke-miterlimit="10"/>
<path d="M823.35 706.813H686.453V844.253H823.35V706.813Z" stroke="white" stroke-width="0.5" stroke-miterlimit="10"/>
<path d="M823.35 844.253H686.453V981.692H823.35V844.253Z" stroke="white" stroke-width="0.5" stroke-miterlimit="10"/>
<path d="M823.35 981.445H686.453V1118.88H823.35V981.445Z" stroke="white" stroke-width="0.5" stroke-miterlimit="10"/>
<path d="M960 -117.082H823.104V20.3574H960V-117.082Z" stroke="white" stroke-width="0.5" stroke-miterlimit="10"/>
<path d="M960 20.3574H823.104V157.797H960V20.3574Z" stroke="white" stroke-width="0.5" stroke-miterlimit="10"/>
<path d="M960 157.55H823.104V294.989H960V157.55Z" stroke="white" stroke-width="0.5" stroke-miterlimit="10"/>
<path d="M960 294.989H823.104V432.429H960V294.989Z" stroke="white" stroke-width="0.5" stroke-miterlimit="10"/>
<path d="M960 432.182H823.104V569.621H960V432.182Z" stroke="white" stroke-width="0.5" stroke-miterlimit="10"/>
<path d="M960 569.621H823.104V707.061H960V569.621Z" stroke="white" stroke-width="0.5" stroke-miterlimit="10"/>
<path d="M960 706.813H823.104V844.253H960V706.813Z" stroke="white" stroke-width="0.5" stroke-miterlimit="10"/>
<path d="M960 844.253H823.104V981.692H960V844.253Z" stroke="white" stroke-width="0.5" stroke-miterlimit="10"/>
<path d="M960 981.445H823.104V1118.88H960V981.445Z" stroke="white" stroke-width="0.5" stroke-miterlimit="10"/>
<path d="M1096.9 -117.082H960V20.3574H1096.9V-117.082Z" stroke="white" stroke-width="0.5" stroke-miterlimit="10"/>
<path d="M1096.9 20.3574H960V157.797H1096.9V20.3574Z" stroke="white" stroke-width="0.5" stroke-miterlimit="10"/>
<path d="M1096.9 157.55H960V294.989H1096.9V157.55Z" stroke="white" stroke-width="0.5" stroke-miterlimit="10"/>
<path d="M1096.9 294.989H960V432.429H1096.9V294.989Z" stroke="white" stroke-width="0.5" stroke-miterlimit="10"/>
<path d="M1096.9 432.182H960V569.621H1096.9V432.182Z" stroke="white" stroke-width="0.5" stroke-miterlimit="10"/>
<path d="M1096.9 569.621H960V707.061H1096.9V569.621Z" stroke="white" stroke-width="0.5" stroke-miterlimit="10"/>
<path d="M1096.9 706.813H960V844.253H1096.9V706.813Z" stroke="white" stroke-width="0.5" stroke-miterlimit="10"/>
<path d="M1096.9 844.253H960V981.692H1096.9V844.253Z" stroke="white" stroke-width="0.5" stroke-miterlimit="10"/>
<path d="M1096.9 981.445H960V1118.88H1096.9V981.445Z" stroke="white" stroke-width="0.5" stroke-miterlimit="10"/>
<path d="M1233.55 -117.082H1096.65V20.3574H1233.55V-117.082Z" stroke="white" stroke-width="0.5" stroke-miterlimit="10"/>
<path d="M1233.55 20.3574H1096.65V157.797H1233.55V20.3574Z" stroke="white" stroke-width="0.5" stroke-miterlimit="10"/>
<path d="M1233.55 157.55H1096.65V294.989H1233.55V157.55Z" stroke="white" stroke-width="0.5" stroke-miterlimit="10"/>
<path d="M1233.55 294.989H1096.65V432.429H1233.55V294.989Z" stroke="white" stroke-width="0.5" stroke-miterlimit="10"/>
<path d="M1233.55 432.182H1096.65V569.621H1233.55V432.182Z" stroke="white" stroke-width="0.5" stroke-miterlimit="10"/>
<path d="M1233.55 569.621H1096.65V707.061H1233.55V569.621Z" stroke="white" stroke-width="0.5" stroke-miterlimit="10"/>
<path d="M1233.55 706.813H1096.65V844.253H1233.55V706.813Z" stroke="white" stroke-width="0.5" stroke-miterlimit="10"/>
<path d="M1233.55 844.253H1096.65V981.692H1233.55V844.253Z" stroke="white" stroke-width="0.5" stroke-miterlimit="10"/>
<path d="M1233.55 981.445H1096.65V1118.88H1233.55V981.445Z" stroke="white" stroke-width="0.5" stroke-miterlimit="10"/>
<path d="M1370.44 -117.082H1233.55V20.3574H1370.44V-117.082Z" stroke="white" stroke-width="0.5" stroke-miterlimit="10"/>
<path d="M1370.44 20.3574H1233.55V157.797H1370.44V20.3574Z" stroke="white" stroke-width="0.5" stroke-miterlimit="10"/>
<path d="M1370.44 157.55H1233.55V294.989H1370.44V157.55Z" stroke="white" stroke-width="0.5" stroke-miterlimit="10"/>
<path d="M1370.44 294.989H1233.55V432.429H1370.44V294.989Z" stroke="white" stroke-width="0.5" stroke-miterlimit="10"/>
<path d="M1370.44 432.182H1233.55V569.621H1370.44V432.182Z" stroke="white" stroke-width="0.5" stroke-miterlimit="10"/>
<path d="M1370.44 569.621H1233.55V707.061H1370.44V569.621Z" stroke="white" stroke-width="0.5" stroke-miterlimit="10"/>
<path d="M1370.44 706.813H1233.55V844.253H1370.44V706.813Z" stroke="white" stroke-width="0.5" stroke-miterlimit="10"/>
<path d="M1370.44 844.253H1233.55V981.692H1370.44V844.253Z" stroke="white" stroke-width="0.5" stroke-miterlimit="10"/>
<path d="M1370.44 981.445H1233.55V1118.88H1370.44V981.445Z" stroke="white" stroke-width="0.5" stroke-miterlimit="10"/>
<path d="M1507.34 -117.082H1370.44V20.3574H1507.34V-117.082Z" stroke="white" stroke-width="0.5" stroke-miterlimit="10"/>
<path d="M1507.34 20.3574H1370.44V157.797H1507.34V20.3574Z" stroke="white" stroke-width="0.5" stroke-miterlimit="10"/>
<path d="M1507.34 157.55H1370.44V294.989H1507.34V157.55Z" stroke="white" stroke-width="0.5" stroke-miterlimit="10"/>
<path d="M1507.34 294.989H1370.44V432.429H1507.34V294.989Z" stroke="white" stroke-width="0.5" stroke-miterlimit="10"/>
<path d="M1507.34 432.182H1370.44V569.621H1507.34V432.182Z" stroke="white" stroke-width="0.5" stroke-miterlimit="10"/>
<path d="M1507.34 569.621H1370.44V707.061H1507.34V569.621Z" stroke="white" stroke-width="0.5" stroke-miterlimit="10"/>
<path d="M1507.34 706.813H1370.44V844.253H1507.34V706.813Z" stroke="white" stroke-width="0.5" stroke-miterlimit="10"/>
<path d="M1507.34 844.253H1370.44V981.692H1507.34V844.253Z" stroke="white" stroke-width="0.5" stroke-miterlimit="10"/>
<path d="M1507.34 981.445H1370.44V1118.88H1507.34V981.445Z" stroke="white" stroke-width="0.5" stroke-miterlimit="10"/>
<path d="M1643.99 -117.082H1507.09V20.3574H1643.99V-117.082Z" stroke="white" stroke-width="0.5" stroke-miterlimit="10"/>
<path d="M1643.99 20.3574H1507.09V157.797H1643.99V20.3574Z" stroke="white" stroke-width="0.5" stroke-miterlimit="10"/>
<path d="M1643.99 157.55H1507.09V294.989H1643.99V157.55Z" stroke="white" stroke-width="0.5" stroke-miterlimit="10"/>
<path d="M1643.99 294.989H1507.09V432.429H1643.99V294.989Z" stroke="white" stroke-width="0.5" stroke-miterlimit="10"/>
<path d="M1643.99 432.182H1507.09V569.621H1643.99V432.182Z" stroke="white" stroke-width="0.5" stroke-miterlimit="10"/>
<path d="M1643.99 569.621H1507.09V707.061H1643.99V569.621Z" stroke="white" stroke-width="0.5" stroke-miterlimit="10"/>
<path d="M1643.99 706.813H1507.09V844.253H1643.99V706.813Z" stroke="white" stroke-width="0.5" stroke-miterlimit="10"/>
<path d="M1643.99 844.253H1507.09V981.692H1643.99V844.253Z" stroke="white" stroke-width="0.5" stroke-miterlimit="10"/>
<path d="M1643.99 981.445H1507.09V1118.88H1643.99V981.445Z" stroke="white" stroke-width="0.5" stroke-miterlimit="10"/>
<path d="M1780.89 -117.082H1643.99V20.3574H1780.89V-117.082Z" stroke="white" stroke-width="0.5" stroke-miterlimit="10"/>
<path d="M1780.89 20.3574H1643.99V157.797H1780.89V20.3574Z" stroke="white" stroke-width="0.5" stroke-miterlimit="10"/>
<path d="M1780.89 157.55H1643.99V294.989H1780.89V157.55Z" stroke="white" stroke-width="0.5" stroke-miterlimit="10"/>
<path d="M1780.89 294.989H1643.99V432.429H1780.89V294.989Z" stroke="white" stroke-width="0.5" stroke-miterlimit="10"/>
<path d="M1780.89 432.182H1643.99V569.621H1780.89V432.182Z" stroke="white" stroke-width="0.5" stroke-miterlimit="10"/>
<path d="M1780.89 569.621H1643.99V707.061H1780.89V569.621Z" stroke="white" stroke-width="0.5" stroke-miterlimit="10"/>
<path d="M1780.89 706.813H1643.99V844.253H1780.89V706.813Z" stroke="white" stroke-width="0.5" stroke-miterlimit="10"/>
<path d="M1780.89 844.253H1643.99V981.692H1780.89V844.253Z" stroke="white" stroke-width="0.5" stroke-miterlimit="10"/>
<path d="M1780.89 981.445H1643.99V1118.88H1780.89V981.445Z" stroke="white" stroke-width="0.5" stroke-miterlimit="10"/>
<path d="M1917.54 -117.082H1780.64V20.3574H1917.54V-117.082Z" stroke="white" stroke-width="0.5" stroke-miterlimit="10"/>
<path d="M1917.54 20.3574H1780.64V157.797H1917.54V20.3574Z" stroke="white" stroke-width="0.5" stroke-miterlimit="10"/>
<path d="M1917.54 157.55H1780.64V294.989H1917.54V157.55Z" stroke="white" stroke-width="0.5" stroke-miterlimit="10"/>
<path d="M1917.54 294.989H1780.64V432.429H1917.54V294.989Z" stroke="white" stroke-width="0.5" stroke-miterlimit="10"/>
<path d="M1917.54 432.182H1780.64V569.621H1917.54V432.182Z" stroke="white" stroke-width="0.5" stroke-miterlimit="10"/>
<path d="M1917.54 569.621H1780.64V707.061H1917.54V569.621Z" stroke="white" stroke-width="0.5" stroke-miterlimit="10"/>
<path d="M1917.54 706.813H1780.64V844.253H1917.54V706.813Z" stroke="white" stroke-width="0.5" stroke-miterlimit="10"/>
<path d="M1917.54 844.253H1780.64V981.692H1917.54V844.253Z" stroke="white" stroke-width="0.5" stroke-miterlimit="10"/>
<path d="M1917.54 981.445H1780.64V1118.88H1917.54V981.445Z" stroke="white" stroke-width="0.5" stroke-miterlimit="10"/>
</g>
<mask id="mask0" style="mask-type:alpha" maskUnits="userSpaceOnUse" x="0" y="-5" width="1920" height="1080">
<rect y="-5" width="1920" height="1080" fill="url(#paint1_linear)"/>
</mask>
<g mask="url(#mask0)">
<g opacity="0.1">
<path d="M-133.766 563.038L-80.0184 509.29H2.01766L191.549 319.759V237.723L403.711 25.5605H618.702" stroke="white" stroke-width="28.7135"/>
<path d="M10.5039 582.839L253.783 339.56V257.524L420.684 90.623H511.207L635.675 215.092H731.855" stroke="white" stroke-width="28.7135"/>
<path d="M-91.333 894.011L-0.810493 803.488V673.362L417.856 254.695" stroke="white" stroke-width="28.7135"/>
<path d="M98.198 1041.11L174.576 964.731V673.362L465.946 381.992H570.612" stroke="white" stroke-width="28.7135"/>
<path d="M-133.766 1318.33L4.84649 1179.72H89.7113L256.612 1012.82V761.055L423.513 594.154" stroke="white" stroke-width="28.7135"/>
<path d="M140.63 1295.7L511.207 925.127V676.19L635.675 551.722H737.513" stroke="white" stroke-width="28.7135"/>
<path d="M692.252 715.794H805.405L1263.68 257.524V-84.7645L2437.64 -1258.73V-1337.94" stroke="white" stroke-width="28.7135"/>
<path d="M1014.74 673.361L1410.77 277.325H1702.14L1747.4 322.587H1874.7L2482.9 -285.612V-376.134L2816.7 -709.936V-924.927" stroke="white" stroke-width="28.7135"/>
<path d="M1699.32 45.3614H1812.47L2267.91 -410.08" stroke="white" stroke-width="28.7135"/>
<path d="M972.307 993.019V885.524L1430.58 427.254H1521.1L1577.68 483.83H1704.97L1767.21 421.596H1854.9L1917.14 483.83H2041.6L2545.14 -19.7013V-350.674L2944 -749.539V-1049.39L2890.25 -1103.14" stroke="white" stroke-width="28.7135"/>
<path d="M494.234 1697.4L550.811 1640.82H720.541L1204.27 1157.09V990.19L1325.91 868.551V775.199" stroke="white" stroke-width="28.7135"/>
<path d="M392.396 2051L630.018 1813.38H714.882L1473.01 1055.25V944.93" stroke="white" stroke-width="28.7135"/>
<path d="M536.666 2031.2L695.081 1872.79H740.342L1577.68 1035.45V820.461L1475.84 718.623V611.128" stroke="white" stroke-width="28.7135"/>
<path d="M768.63 1923.7L1639.91 1052.42V778.028" stroke="white" stroke-width="28.7135"/>
<path d="M692.252 2036.86H779.946L845.009 1971.79V1932.19L1707.8 1069.4V820.461L1809.64 718.623V611.128" stroke="white" stroke-width="28.7135"/>
<path d="M-122.451 217.921L344.306 -248.836H675.279L717.711 -291.269H907.243" stroke="white" stroke-width="28.7135"/>
<path d="M-20.6123 200.948L364.108 -183.773H695.081L740.343 -229.034H864.811L972.307 -121.539H1071.32" stroke="white" stroke-width="28.7135"/>
<path d="M-113.964 370.677L-60.2161 316.929H30.3064L67.0811 280.155V195.29L383.91 -121.539H734.685M2.01809 421.596L126.487 297.128V212.263L400.883 -62.1337H695.081L819.549 62.3348H898.757" stroke="white" stroke-width="28.7135"/>
<circle cx="-37.5851" cy="217.92" r="30.0324" stroke="white" stroke-width="19.1424"/>
<circle cx="-20.6122" cy="432.911" r="30.0324" stroke="white" stroke-width="19.1424"/>
<circle cx="-14.955" cy="591.325" r="30.0324" stroke="white" stroke-width="19.1424"/>
<circle cx="358.45" cy="947.758" r="30.0324" stroke="white" stroke-width="19.1424"/>
<circle cx="75.5677" cy="1060.91" r="30.0324" stroke="white" stroke-width="19.1424"/>
<circle cx="460.288" cy="212.263" r="53.5351" stroke="white" stroke-width="28.7135"/>
<circle cx="669.621" cy="48.1907" r="53.5351" stroke="white" stroke-width="28.7135"/>
<circle cx="782.775" cy="206.605" r="53.5351" stroke="white" stroke-width="28.7135"/>
<circle cx="630.017" cy="381.992" r="53.5351" stroke="white" stroke-width="28.7135"/>
<circle cx="794.09" cy="546.065" r="53.5351" stroke="white" stroke-width="28.7135"/>
<circle cx="969.477" cy="715.794" r="53.5351" stroke="white" stroke-width="28.7135"/>
<circle cx="969.477" cy="1055.25" r="53.5351" stroke="white" stroke-width="28.7135"/>
<circle cx="1144.86" cy="879.867" r="53.5351" stroke="white" stroke-width="28.7135"/>
<circle cx="1308.94" cy="710.136" r="53.5351" stroke="white" stroke-width="28.7135"/>
<circle cx="1473.01" cy="546.065" r="53.5351" stroke="white" stroke-width="28.7135"/>
<circle cx="1308.94" cy="1049.6" r="53.5351" stroke="white" stroke-width="28.7135"/>
<circle cx="1473.01" cy="879.867" r="53.5351" stroke="white" stroke-width="28.7135"/>
<circle cx="1642.74" cy="710.136" r="53.5351" stroke="white" stroke-width="28.7135"/>
<circle cx="1812.47" cy="546.065" r="53.5351" stroke="white" stroke-width="28.7135"/>
<circle cx="1642.74" cy="381.992" r="53.5351" stroke="white" stroke-width="28.7135"/>
<circle cx="1982.2" cy="381.992" r="53.5351" stroke="white" stroke-width="28.7135"/>
<circle cx="1982.2" cy="48.1907" r="53.5351" stroke="white" stroke-width="28.7135"/>
<circle cx="1642.74" cy="42.5325" r="53.5351" stroke="white" stroke-width="28.7135"/>
<circle cx="641.334" cy="715.794" r="53.5351" stroke="white" stroke-width="28.7135"/>
<circle cx="465.946" cy="551.722" r="53.5351" stroke="white" stroke-width="28.7135"/>
<circle cx="952.505" cy="53.8479" r="53.5351" stroke="white" stroke-width="28.7135"/>
</g>
</g>
</g>
<defs>
<radialGradient id="paint0_radial" cx="0" cy="0" r="1" gradientUnits="userSpaceOnUse" gradientTransform="translate(960 535) rotate(90) scale(764 1358.22)">
<stop offset="0.4375" stop-color="#141B1F" stop-opacity="0.46"/>
<stop offset="1" stop-color="#141B1F"/>
</radialGradient>
<linearGradient id="paint1_linear" x1="3.72721e-08" y1="504.5" x2="1920" y2="502" gradientUnits="userSpaceOnUse">
<stop stop-color="#071934"/>
<stop offset="0.258992" stop-color="#071934" stop-opacity="0.2"/>
<stop offset="0.692191" stop-color="#071934" stop-opacity="0.2"/>
<stop offset="1" stop-color="#071934"/>
</linearGradient>
<clipPath id="clip0">
<rect width="1920" height="1080" fill="white"/>
</clipPath>
</defs>
</svg>
