<svg width="32" height="32" viewBox="0 0 32 32" fill="none" xmlns="http://www.w3.org/2000/svg">
<rect width="32" height="32" rx="16" fill="#F04D26" fill-opacity="0.2"/>
<path fill-rule="evenodd" clip-rule="evenodd" d="M11.0595 9.33541C10.9115 9.33509 10.7688 9.35184 10.6332 9.38369C10.4474 8.97407 10.2019 8.60658 9.92267 8.32737C9.44878 7.85348 8.70137 7.66663 7.66675 7.66663V9.33329C8.29879 9.33329 8.6625 9.42422 8.74416 9.50588C9.05913 9.82086 9.33341 10.4608 9.33341 11L9.34179 11.1178L10.1583 16.8337C8.79204 16.9046 7.73358 17.9656 7.66777 19.292L7.66675 20.1666C7.74743 21.5366 8.80238 22.5904 10.1194 22.6653L10.3086 22.6656C10.6515 23.6371 11.5778 24.3333 12.6667 24.3333C13.7553 24.3333 14.6813 23.6376 15.0245 22.6666H16.9757C17.3189 23.6376 18.2449 24.3333 19.3334 24.3333C20.7141 24.3333 21.8334 23.214 21.8334 21.8333C21.8334 20.4526 20.7141 19.3333 19.3334 19.3333C18.2449 19.3333 17.3189 20.029 16.9757 21H15.0245C14.6813 20.029 13.7553 19.3333 12.6667 19.3333C11.5782 19.3333 10.6522 20.029 10.309 21H10.1667C9.74176 20.9745 9.36053 20.5936 9.33192 20.1167L9.33341 19.3333C9.35589 18.9011 9.73451 18.5224 10.208 18.4989L11.8532 18.4993L11.8651 18.5H20.2641L20.3871 18.4609C21.019 18.2604 21.5248 17.7846 21.7643 17.1687L21.852 16.995L22.1373 16.4299C22.4324 15.8449 22.7275 15.2589 23.0151 14.6865C23.7194 13.2842 24.1624 12.393 24.2605 12.1742C24.7643 11.0503 23.7438 10.1853 22.7007 10.1669L11.0595 9.33541ZM19.9746 16.8331H11.9275C11.874 16.8183 11.8332 16.7729 11.8252 16.7165L11.0086 11.0004L22.5779 11.8289C22.3755 12.2417 22.0075 12.9791 21.5257 13.9382L21.5137 13.9622C21.2387 14.5097 20.944 15.0948 20.6493 15.679L20.3644 16.2434L20.2564 16.4572L20.2157 16.5517C20.1722 16.6729 20.0858 16.7726 19.9746 16.8331ZM19.3334 22.6666C19.7937 22.6666 20.1667 22.2935 20.1667 21.8333C20.1667 21.3731 19.7937 21 19.3334 21C18.8732 21 18.5001 21.3731 18.5001 21.8333C18.5001 22.2935 18.8732 22.6666 19.3334 22.6666ZM13.5001 21.8333C13.5001 22.2935 13.127 22.6666 12.6667 22.6666C12.2065 22.6666 11.8334 22.2935 11.8334 21.8333C11.8334 21.3731 12.2065 21 12.6667 21C13.127 21 13.5001 21.3731 13.5001 21.8333Z" fill="#F04D26"/>
</svg>
