<svg width="48" height="47" viewBox="0 0 48 47" fill="none" xmlns="http://www.w3.org/2000/svg">
<path d="M37.0257 15.9967C36.3214 16.0883 35.6022 16.0027 34.9348 15.7438C34.1004 15.4201 33.3894 14.8419 32.9029 14.0914C32.3561 13.2492 31.6641 12.5107 30.859 11.91C30.3029 11.6708 29.7053 11.5418 29.0995 11.5305C28.3303 11.5168 27.5698 11.6932 26.8855 12.0439C26.2012 12.3947 25.6143 12.9089 25.1771 13.5408L25.1758 13.5428C25.0927 13.6615 24.9823 13.7583 24.8541 13.8251C24.7259 13.8918 24.5833 13.9269 24.4385 13.9269C24.2936 13.9269 24.151 13.8918 24.0228 13.8251C23.8946 13.7583 23.7842 13.6615 23.7011 13.5428L23.6998 13.5409C23.0818 12.6483 22.1711 11.9989 21.1246 11.7051C20.0956 11.4161 18.9988 11.4889 18.0178 11.9101C17.2128 12.5108 16.5208 13.2492 15.9741 14.0914C15.4878 14.8411 14.7774 15.4187 13.944 15.7423C13.2765 16.0015 12.5571 16.0874 11.8524 15.9959C12.3081 16.4735 12.8525 16.8647 13.4599 17.1451L13.46 17.1451C14.6114 17.6767 15.8646 17.9526 17.1332 17.9539C18.4018 17.9552 19.6556 17.6817 20.808 17.1524C22.0089 16.6002 23.0052 15.6848 23.6561 14.536L23.6565 14.5354C23.735 14.3972 23.8488 14.2823 23.9862 14.2025C24.1238 14.1225 24.2799 14.0806 24.4385 14.0806C24.597 14.0806 24.7531 14.1225 24.8907 14.2025L24.6394 14.6347L24.8907 14.2025C25.0281 14.2823 25.1419 14.3972 25.2204 14.5354L25.2207 14.5359C25.8726 15.6853 26.8703 16.6007 28.0726 17.1523L28.0728 17.1524C29.225 17.6814 30.4784 17.9547 31.7467 17.9534C33.0149 17.9522 34.2678 17.6764 35.4189 17.1451L37.0257 15.9967ZM37.0257 15.9967C36.5701 16.474 36.026 16.8648 35.4189 17.1451L37.0257 15.9967ZM19.9697 9.93402C19.0338 9.91721 18.1061 10.1101 17.2546 10.4984L17.2089 10.5192L17.1682 10.5488C16.166 11.2769 15.3066 12.1831 14.633 13.2221L14.633 13.2221C14.3294 13.6905 13.8856 14.0515 13.3646 14.2537C12.8436 14.4558 12.2719 14.4889 11.731 14.348L11.731 14.348C11.3393 14.2461 10.968 14.0781 10.6331 13.8512L10.6331 13.8512L10.6313 13.85C10.4718 13.7429 10.2821 13.6897 10.09 13.6982C9.89838 13.7067 9.71405 13.7762 9.56432 13.8972C9.53084 13.9242 9.4995 13.9535 9.47049 13.9848L9.40539 13.9529L9.44066 14.0186C9.35536 14.1203 9.2932 14.2402 9.25944 14.3699C9.21098 14.5561 9.22357 14.7528 9.29531 14.9312L9.29571 14.9322C9.95126 16.5527 11.2004 17.8627 12.7888 18.5957C14.1501 19.2241 15.6316 19.5503 17.1313 19.5517C18.6309 19.5531 20.1131 19.2298 21.4755 18.6039L21.4757 18.6038C22.6441 18.0665 23.6599 17.2541 24.4385 16.2408C25.2177 17.2544 26.2343 18.0669 27.4034 18.6039L27.4035 18.6039C28.7656 19.2295 30.2474 19.5526 31.7467 19.5512C33.2459 19.5498 34.727 19.2239 36.0879 18.5958C37.6771 17.8632 38.9271 16.5532 39.5832 14.9323C39.6558 14.7536 39.6689 14.5562 39.6207 14.3694C39.587 14.2391 39.5247 14.1188 39.4392 14.0169L39.4742 13.9517L39.4096 13.9834C39.3801 13.9516 39.3483 13.9218 39.3142 13.8944C39.1638 13.7732 38.9782 13.7037 38.7851 13.6961C38.5919 13.6885 38.4015 13.7434 38.2421 13.8523L38.5242 14.2651L38.2438 13.8512C37.9089 14.0781 37.5376 14.2461 37.1459 14.348L37.1459 14.348C36.605 14.4889 36.0333 14.4558 35.5123 14.2537C34.9913 14.0515 34.5475 13.6905 34.2439 13.2221C33.5709 12.1833 32.7123 11.2773 31.711 10.549L31.6704 10.5194L31.6247 10.4986C30.3337 9.90848 28.8803 9.77371 27.5026 10.1165C26.3244 10.4096 25.2612 11.0371 24.4383 11.9171C23.9361 11.3808 23.3423 10.9357 22.683 10.6036C21.8406 10.1793 20.9131 9.95031 19.9697 9.93402ZM19.9697 9.93402C19.9696 9.93402 19.9696 9.93402 19.9695 9.93401L19.9609 10.4339L19.9699 9.93402C19.9698 9.93402 19.9698 9.93402 19.9697 9.93402Z" fill="white" stroke="white"/>
<path d="M2.74765 1.63264L2.74901 1.45882L2.20458 1.50271C1.97767 1.521 1.766 1.62461 1.61241 1.79288C1.46003 1.95982 1.37611 2.17802 1.37749 2.40408C1.31374 13.5118 4.23523 24.4333 9.8373 34.0297L9.83962 34.0336C13.1022 39.5077 18.1423 43.702 24.1223 45.9196C24.326 45.996 24.5506 45.996 24.7544 45.9195C24.7547 45.9194 24.7551 45.9193 24.7554 45.9191L24.5792 45.4512M2.74765 1.63264L47.2591 1.79671M2.74765 1.63264C2.77627 1.65019 2.80402 1.66941 2.83074 1.69025C3.00768 1.82829 3.12656 2.02748 3.16407 2.24859C4.23086 8.17599 6.35468 13.864 9.43451 19.042L9.43454 19.042C9.8345 19.7146 10.3122 20.338 10.8578 20.8993L10.4993 21.2478M2.74765 1.63264L10.4993 21.2478M24.5792 45.4512C30.4528 43.2734 35.4031 39.154 38.6074 33.7776C44.165 24.2575 47.0629 13.4228 46.999 2.40341C46.9979 2.30443 46.9599 2.20942 46.8926 2.13681M24.5792 45.4512C24.4883 45.4854 24.3881 45.4854 24.2973 45.4512H24.5792ZM46.8926 2.13681L47.2591 1.79672C47.2591 1.79671 47.2591 1.79671 47.2591 1.79671M46.8926 2.13681L47.2591 1.79671M46.8926 2.13681C46.8252 2.06421 46.7332 2.0193 46.6344 2.01066C46.5357 2.00202 46.4373 2.03036 46.3583 2.09016C46.2793 2.14996 46.2254 2.23692 46.207 2.33419C45.1298 8.32165 42.9847 14.0673 39.8737 19.2976C39.4537 20.0038 38.9521 20.6584 38.3792 21.2478L38.0207 20.8993C38.5663 20.338 39.044 19.7146 39.444 19.042L39.444 19.042C42.5243 13.8631 44.6483 8.17412 45.7149 2.24566L45.7157 2.2416C45.757 2.02213 45.8786 1.82614 46.0565 1.69152C46.2343 1.55685 46.4559 1.49313 46.678 1.51256L46.6345 2.01049L46.678 1.51256C46.8999 1.53197 47.1071 1.63294 47.2591 1.79671M10.4993 21.2478L10.8578 20.8993C11.4147 21.4723 12.0094 22.0073 12.6379 22.5009C13.2325 22.8919 13.9371 23.0827 14.6485 23.0448C15.3662 23.0066 16.0522 22.7377 16.6042 22.2785L16.6061 22.277C16.7271 22.1773 16.8719 22.1111 17.0261 22.0847C17.18 22.0583 17.3386 22.0722 17.4862 22.126L17.4862 22.126C17.6334 22.1797 17.764 22.2709 17.8651 22.3904L17.4833 22.7132L10.4993 21.2478ZM11.2158 33.2203C6.96355 25.935 4.29299 17.8589 3.35397 9.51559C4.53714 13.1199 6.11393 16.5887 8.05905 19.8584L8.05916 19.8586C8.52372 20.6387 9.07844 21.3615 9.71189 22.0123C10.3282 22.6469 10.987 23.2388 11.6838 23.7839L11.6977 23.7949L11.7125 23.8048C12.5459 24.3665 13.5314 24.6603 14.5367 24.6469C15.3074 24.6367 16.0616 24.4462 16.7402 24.0949C17.2242 25.6091 18.1472 26.9522 19.3992 27.9496C20.8307 29.0899 22.6074 29.7109 24.4383 29.7109C26.2692 29.7109 28.0459 29.0899 29.4773 27.9496C30.7294 26.9522 31.6524 25.6091 32.1363 24.0949C32.815 24.4462 33.5692 24.6367 34.3399 24.6469C35.3452 24.6603 36.3306 24.3665 37.1641 23.8048L37.1786 23.795L37.1924 23.7843C37.8905 23.2392 38.5506 22.6474 39.1682 22.0127L39.1686 22.0123C39.8008 21.3612 40.3542 20.6382 40.8176 19.8581C42.7626 16.5885 44.3394 13.1197 45.5225 9.51553C44.5835 17.8588 41.913 25.9349 37.6608 33.2202C34.629 38.3042 29.9699 42.2176 24.4382 44.33C18.9067 42.2175 14.2476 38.3043 11.2158 33.2203Z" fill="white" stroke="white"/>
</svg>
