<svg width="1920" height="1080" viewBox="0 0 1920 1080" fill="none" xmlns="http://www.w3.org/2000/svg">
<g clip-path="url(#clip0)">
<path opacity="0.9" d="M-89.9775 58.1427L34.4647 911.875L1576.01 1318L2009.14 413.141L910.384 -237.046L-89.9775 58.1427Z" fill="url(#paint0_linear)"/>
<rect width="1920" height="1080" fill="url(#paint1_linear)"/>
<g opacity="0.04" clip-path="url(#clip1)">
<path d="M88.0549 297.884L98.0374 258.764C111.379 251.41 129.344 238.359 134.119 219.646C141.97 188.883 111.198 154.468 111.198 154.468C111.198 154.468 67.6998 169.931 59.8492 200.695C55.0742 219.407 64.589 239.471 72.7762 252.318L62.7846 291.473C54.8556 270.879 37.4233 254.302 14.4124 248.429L-11.2774 241.874C-20.9903 279.577 2.23836 318.148 39.6058 327.622L52.7074 330.965L39.87 381.273C31.941 360.679 14.5087 344.101 -8.50219 338.229L-34.192 331.673C-43.9048 369.376 -20.6762 407.947 16.6912 417.421L29.7928 420.765L16.9554 471.073C9.02645 450.478 -8.40588 433.901 -31.4168 428.028L-57.1066 421.473C-66.8194 459.176 -43.5908 497.747 -6.22339 507.221L6.87816 510.564L-5.95916 560.872C-13.8881 540.278 -31.3205 523.7 -54.3314 517.828L-80.0212 511.272C-89.734 548.975 -66.5054 587.546 -29.138 597.021L-16.0364 600.364L-28.8738 650.672C-36.8028 630.077 -54.2351 613.5 -77.2455 607.628L-102.935 601.073C-112.648 638.776 -89.4196 677.346 -52.0517 686.822L-38.9501 690.165L-53.2153 746.063L-27.9542 752.509L-13.6908 696.613L-0.673364 699.935C37.0565 709.562 75.4473 686.781 85.0748 649.052L59.385 642.497C36.6227 636.651 13.3039 642.831 -3.60442 657.086L9.2238 606.813L22.242 610.135C59.8526 619.75 98.3884 596.987 107.99 559.252L82.3003 552.697C59.538 546.851 36.2193 553.031 19.3109 567.286L32.1391 517.013L45.1573 520.335C82.6482 529.937 121.329 507.193 130.906 469.452L105.216 462.897C82.4534 457.051 59.1346 463.231 42.2263 477.486L55.0545 427.213L68.0727 430.535C105.444 440.125 144.27 417.399 153.821 379.652L128.131 373.097C105.369 367.251 82.05 373.431 65.1416 387.686L77.9698 337.413L90.988 340.735C128.24 350.313 167.211 327.605 176.736 289.852L151.046 283.297C128.282 277.45 104.963 283.629 88.0549 297.884V297.884Z" fill="white"/>
</g>
<g opacity="0.04" clip-path="url(#clip2)">
<path d="M1508.75 870.446L1504.67 846.27C1510.27 838.905 1517.03 827.24 1515.08 815.676C1511.88 796.664 1486.33 785.123 1486.33 785.123C1486.33 785.123 1465.98 804.407 1469.18 823.419C1471.13 834.984 1481.35 843.784 1489.06 848.903L1493.14 873.102C1483.67 863.617 1469.92 858.7 1455.69 861.098L1439.82 863.777C1443.7 887.1 1466.08 902.803 1489.16 898.874L1497.26 897.508L1502.5 928.598C1493.03 919.114 1479.28 914.196 1465.06 916.595L1449.18 919.273C1453.06 942.596 1475.44 958.3 1498.52 954.37L1506.62 953.004L1511.86 984.095C1502.4 974.61 1488.64 969.693 1474.42 972.091L1458.54 974.77C1462.42 998.093 1484.81 1013.8 1507.88 1009.87L1515.98 1008.5L1521.23 1039.59C1511.76 1030.11 1498 1025.19 1483.78 1027.59L1467.9 1030.27C1471.78 1053.59 1494.17 1069.29 1517.25 1065.36L1525.34 1064L1530.59 1095.09C1521.12 1085.6 1507.36 1080.69 1493.14 1083.08L1477.27 1085.76C1481.15 1109.09 1503.53 1124.79 1526.61 1120.86L1534.71 1119.49L1540.53 1154.04L1556.14 1151.41L1550.32 1116.86L1558.36 1115.51C1581.68 1111.57 1597.39 1089.48 1593.46 1066.16L1577.58 1068.84C1563.51 1071.2 1552.08 1080.36 1546.2 1092.43L1540.95 1061.37L1549 1060.01C1572.25 1056.1 1588.05 1033.98 1584.1 1010.67L1568.22 1013.35C1554.14 1015.7 1542.72 1024.86 1536.83 1036.94L1531.59 1005.87L1539.64 1004.51C1562.82 1000.62 1578.7 978.481 1574.74 955.17L1558.86 957.848C1544.78 960.201 1533.35 969.367 1527.47 981.441L1522.23 950.372L1530.28 949.015C1553.39 945.149 1569.35 922.981 1565.37 899.673L1549.5 902.351C1535.42 904.704 1523.99 913.87 1518.11 925.944L1512.87 894.875L1520.91 893.518C1543.95 889.674 1560.01 867.481 1556.01 844.176L1540.14 846.854C1526.06 849.207 1514.63 858.373 1508.75 870.446V870.446Z" fill="white"/>
</g>
</g>
<defs>
<linearGradient id="paint0_linear" x1="-823" y1="-178.5" x2="1505" y2="803.5" gradientUnits="userSpaceOnUse">
<stop stop-color="#4B775D"/>
<stop offset="1" stop-color="#141B1F"/>
</linearGradient>
<linearGradient id="paint1_linear" x1="-149" y1="-4.21128e-06" x2="1959.5" y2="1080" gradientUnits="userSpaceOnUse">
<stop stop-color="#427A5A"/>
<stop offset="1" stop-color="#141B1F" stop-opacity="0.09"/>
</linearGradient>
<clipPath id="clip0">
<rect width="1920" height="1080" fill="white"/>
</clipPath>
<clipPath id="clip1">
<rect width="608" height="608" fill="white" transform="translate(-185.396 87.2744) rotate(14.315)"/>
</clipPath>
<clipPath id="clip2">
<rect width="369.225" height="369.225" fill="white" transform="translate(1305.12 820.759) rotate(-9.57553)"/>
</clipPath>
</defs>
</svg>
