<svg width="40" height="40" viewBox="0 0 40 40" fill="none" xmlns="http://www.w3.org/2000/svg">
<g clip-path="url(#clip0_80_1428)">
<path d="M38.0432 25.8935C32.6822 16.6043 24.1428 9.56725 13.9999 6.08062C12.8769 5.69488 11.6415 5.81756 10.6168 6.41723L1.14471 11.9583C0.353699 12.421 -0.0466919 13.2657 0.00488281 14.1006L0 14.0985V17.0138C0 18.5153 0.465393 19.9795 1.3324 21.2054C6.30615 28.2382 21.1877 34.6948 30.6024 34.0671C35.7312 33.7253 40 29.284 40 29.284L38.0432 25.8935Z" fill="#82A5B9"/>
<path d="M1.1447 11.9583L10.6167 6.41723C11.6415 5.81756 12.8769 5.69488 13.9999 6.08062C24.1424 9.56725 32.6822 16.6043 38.0432 25.8935L40 29.284H31.1661C19.4632 29.284 8.32335 24.2581 0.578906 15.4837C-0.384228 14.3924 -0.111706 12.6935 1.1447 11.9583Z" fill="#EDEDED"/>
<path d="M22.0537 12.1304L23.5536 12.9217C23.5649 12.8323 23.5704 12.7422 23.5689 12.6513L22.0537 12.1304Z" fill="#304E75"/>
<path d="M29.291 18.2657L27.8694 16.6355C28.1621 17.5043 28.3275 18.8874 27.4172 20.503C26.4885 22.1516 23.9913 22.9508 22.5856 23.2804C21.314 23.5789 19.9367 23.7342 18.7111 23.7342C18.319 23.7342 17.9436 23.7177 17.5908 23.6854L20.6829 24.8359C23.1932 25.7697 25.9896 25.5332 28.3074 24.191C30.4256 22.9645 30.8992 20.1105 29.291 18.2657Z" fill="#82A5B9"/>
<path d="M19.8098 11.7243L19.9996 13.3863L22.188 14.6952C22.0919 14.7596 22.8369 14.2158 22.8369 14.2158C23.0517 14.0421 23.2232 13.8276 23.3465 13.5898L19.75 11.6929L19.8098 11.7243Z" fill="#627681"/>
<path d="M14.085 16.7418L14.3819 16.754H14.3822C16.8666 16.8581 19.1115 16.3439 21.4461 15.1351C21.6964 15.0057 21.9445 14.858 22.1889 14.6944L20.0005 13.3855L14.085 16.7418Z" fill="#808E9A"/>
<path d="M14.1779 8.71838L13.7821 8.50537L4.16113 14.0602L5.66962 15.3352L14.3662 10.3663L14.1779 8.71838Z" fill="#525E65"/>
<path d="M10.4546 6.71771C10.3969 6.68689 10.3527 6.64111 10.3218 6.58862L1.45801 11.7739L4.16187 14.059L13.7828 8.50421L10.4546 6.71771Z" fill="#808E9A"/>
<path d="M16.9244 11.8431L18.4109 10.9847L14.1787 8.71875L14.367 10.3667L16.9244 11.8431Z" fill="#627681"/>
<path d="M14.3675 10.3647L5.6709 15.3336L6.98743 16.4463L7.02008 16.4478L14.3675 12.2056L15.3306 12.7616L16.9246 11.8412L14.3675 10.3647Z" fill="#808E9A"/>
<path d="M14.3672 12.2085V13.3203L15.3303 12.7645L14.3672 12.2085Z" fill="#627681"/>
<path d="M8.81702 16.5246L14.3669 13.3203V12.2085L7.01953 16.4507L8.81702 16.5246Z" fill="#525E65"/>
<path d="M19.9998 13.3865L19.8099 11.7245L19.4236 11.521L10.626 16.6003L14.0842 16.7429L19.9998 13.3865Z" fill="#525E65"/>
<path d="M10.6268 16.5981L19.4253 11.5193L18.4112 10.9844L8.81738 16.5233L10.6268 16.5981Z" fill="#808E9A"/>
<path d="M14.1313 17.4283L7.78027 17.1667C11.8467 20.8069 14.9336 22.2101 16.2257 22.6846L14.1313 17.4283Z" fill="#304E75"/>
<path d="M27.3939 15.6645C27.3872 15.6554 27.3799 15.6465 27.3723 15.638L24.1347 12.0757C24.1344 12.0754 24.1341 12.0754 24.1338 12.0751C24.1325 12.0739 24.1316 12.0726 24.1304 12.0711C24.0315 11.9643 18.1105 10.0499 18.1105 10.0499L10.7783 6.11377C10.6117 6.02435 10.4042 6.08691 10.3145 6.25354C10.2251 6.42016 10.2876 6.62799 10.4542 6.71741L17.8108 10.6667C17.8114 10.6667 17.8117 10.667 17.8123 10.6673C17.8126 10.6673 17.813 10.6676 17.8133 10.6676L23.3464 13.5863C23.2231 13.824 23.0516 14.0383 22.8368 14.2122L22.8133 14.2311C22.372 14.5876 21.9118 14.8906 21.4452 15.1323C19.1103 16.3408 16.8657 16.8553 14.3813 16.7513C14.3809 16.7513 14.3809 16.7513 14.3806 16.7513L6.98654 16.4464L1.3652 11.6954C1.22085 11.5734 1.00448 11.5914 0.882717 11.736C0.760646 11.8804 0.778651 12.0964 0.923 12.2185L6.62765 17.04C12.5316 22.5472 16.5657 23.5247 16.7348 23.5637C16.7366 23.564 16.7384 23.5643 16.7406 23.5646C16.7421 23.5649 16.7436 23.5655 16.7451 23.5659C17.3119 23.6775 17.9848 23.7322 18.7111 23.7322C19.9367 23.7322 21.3136 23.5768 22.5856 23.2784C23.9912 22.9488 26.4885 22.1495 27.4171 20.501C28.9375 17.8023 27.4577 15.7503 27.3939 15.6645ZM22.0534 12.1297L23.5686 12.6506C23.5701 12.7416 23.5646 12.8316 23.5533 12.9207L22.0534 12.1297ZM7.77969 17.1645L14.1307 17.426L16.2251 22.6824C14.933 22.2078 11.8465 20.8046 7.77969 17.1645Z" fill="#CECECE"/>
<path d="M30.25 23.75C32.9426 24.6613 35.7303 26.1578 37.959 27.9242C35.2653 27.0157 32.4805 25.5139 30.25 23.75Z" fill="#525E65"/>
<path d="M21.7615 15.7393C19.1199 17.1386 14.9207 17.4471 14.8779 17.4468L17.0609 22.9259C20.029 23.4264 25.5582 22.4065 26.8219 20.1638C28.0716 17.9454 26.9601 16.2377 26.853 16.0826L24.2075 13.1719C24.1782 13.326 24.0244 14.5409 21.7615 15.7393Z" fill="#304E75"/>
</g>
<defs>
<clipPath id="clip0_80_1428">
<rect width="40" height="40" fill="white"/>
</clipPath>
</defs>
</svg>
