<svg width="45" height="52" viewBox="0 0 45 52" fill="none" xmlns="http://www.w3.org/2000/svg">
<g id="Group 46">
<g id="Vector">
<mask id="path-1-outside-1" maskUnits="userSpaceOnUse" x="0" y="0" width="45" height="52" fill="black">
<rect fill="white" width="45" height="52"/>
<path d="M9.72471 2C9.6403 2.00084 9.55722 2.02072 9.48185 2.05813C9.40649 2.09555 9.34086 2.14949 9.29001 2.2158C9.23917 2.2821 9.20446 2.35894 9.18857 2.44053C9.17269 2.52211 9.17604 2.60616 9.19837 2.68627C9.39049 3.3618 9.56525 4.042 9.72249 4.72621C10.6608 8.79233 9.99254 13.0575 7.85325 16.6567C4.92325 21.5868 3.04302 27.052 2.32695 32.7198C1.61087 38.3875 2.07391 44.1394 3.6879 49.6255C3.73711 49.7527 3.83314 49.8571 3.95693 49.9178C4.08071 49.9786 4.22318 49.9913 4.35605 49.9534C4.48891 49.9156 4.60245 49.8299 4.6741 49.7135C4.74574 49.597 4.77027 49.4583 4.74279 49.3249C3.11514 43.7877 2.6915 37.9751 3.49948 32.266C7.19512 32.0812 10.8712 32.9003 14.1254 34.6339C17.3796 36.3674 20.0865 38.9485 21.9498 42.0947V49.4742C21.9573 49.6128 22.0185 49.7433 22.1209 49.8388C22.2232 49.9343 22.3589 49.9877 22.5 49.9877C22.6411 49.9877 22.7768 49.9343 22.8791 49.8388C22.9815 49.7433 23.0427 49.6128 23.0502 49.4742V42.0947C24.9135 38.9485 27.6204 36.3674 30.8746 34.6339C34.1288 32.9003 37.8049 32.0812 41.5005 32.266C42.3071 37.9754 41.882 43.788 40.2529 49.3249C40.218 49.4614 40.2384 49.6058 40.3096 49.7278C40.3809 49.8498 40.4976 49.9397 40.6349 49.9787C40.7723 50.0177 40.9197 50.0027 41.0461 49.9368C41.1724 49.8709 41.2678 49.7593 41.3121 49.6255C42.9261 44.1394 43.3891 38.3875 42.6731 32.7198C41.957 27.052 40.0768 21.5868 37.1468 16.6567C35.0067 13.0578 34.3377 8.79261 35.2753 4.72621C35.4333 4.04198 35.6088 3.36178 35.8017 2.68627C35.8365 2.54932 35.8156 2.40456 35.7436 2.28249C35.6716 2.16041 35.5541 2.0707 35.416 2.03246C35.2779 1.99422 35.1301 2.01045 35.004 2.07764C34.8779 2.14482 34.7833 2.25767 34.7403 2.39233C34.5426 3.0862 34.3628 3.78483 34.201 4.48764C33.2017 8.82119 33.9141 13.3666 36.1938 17.2024C36.6441 17.9597 37.0696 18.7311 37.4696 19.5153C27.8016 22.9866 17.1985 22.9866 7.53052 19.5153C7.92982 18.7312 8.35457 17.9597 8.80412 17.2024C11.0846 13.3668 11.7977 8.82145 10.799 4.48764C10.6372 3.78483 10.4574 3.0862 10.2597 2.39233C10.2263 2.27846 10.1559 2.17851 10.0593 2.10771C9.96266 2.0369 9.84516 1.99916 9.72471 2.00025V2ZM7.04744 20.4956C17.0227 24.1051 27.9773 24.1051 37.9526 20.4956C39.5689 23.8862 40.7058 27.4785 41.3316 31.1726C37.6011 31.0247 33.8967 31.8457 30.5908 33.553C27.2848 35.2603 24.4937 37.7938 22.4979 40.8989C20.5025 37.7944 17.712 35.2613 14.4069 33.554C11.1017 31.8467 7.3982 31.0255 3.66838 31.1726C4.29423 27.4785 5.43114 23.8862 7.04744 20.4956Z"/>
</mask>
<path d="M9.72471 2C9.6403 2.00084 9.55722 2.02072 9.48185 2.05813C9.40649 2.09555 9.34086 2.14949 9.29001 2.2158C9.23917 2.2821 9.20446 2.35894 9.18857 2.44053C9.17269 2.52211 9.17604 2.60616 9.19837 2.68627C9.39049 3.3618 9.56525 4.042 9.72249 4.72621C10.6608 8.79233 9.99254 13.0575 7.85325 16.6567C4.92325 21.5868 3.04302 27.052 2.32695 32.7198C1.61087 38.3875 2.07391 44.1394 3.6879 49.6255C3.73711 49.7527 3.83314 49.8571 3.95693 49.9178C4.08071 49.9786 4.22318 49.9913 4.35605 49.9534C4.48891 49.9156 4.60245 49.8299 4.6741 49.7135C4.74574 49.597 4.77027 49.4583 4.74279 49.3249C3.11514 43.7877 2.6915 37.9751 3.49948 32.266C7.19512 32.0812 10.8712 32.9003 14.1254 34.6339C17.3796 36.3674 20.0865 38.9485 21.9498 42.0947V49.4742C21.9573 49.6128 22.0185 49.7433 22.1209 49.8388C22.2232 49.9343 22.3589 49.9877 22.5 49.9877C22.6411 49.9877 22.7768 49.9343 22.8791 49.8388C22.9815 49.7433 23.0427 49.6128 23.0502 49.4742V42.0947C24.9135 38.9485 27.6204 36.3674 30.8746 34.6339C34.1288 32.9003 37.8049 32.0812 41.5005 32.266C42.3071 37.9754 41.882 43.788 40.2529 49.3249C40.218 49.4614 40.2384 49.6058 40.3096 49.7278C40.3809 49.8498 40.4976 49.9397 40.6349 49.9787C40.7723 50.0177 40.9197 50.0027 41.0461 49.9368C41.1724 49.8709 41.2678 49.7593 41.3121 49.6255C42.9261 44.1394 43.3891 38.3875 42.6731 32.7198C41.957 27.052 40.0768 21.5868 37.1468 16.6567C35.0067 13.0578 34.3377 8.79261 35.2753 4.72621C35.4333 4.04198 35.6088 3.36178 35.8017 2.68627C35.8365 2.54932 35.8156 2.40456 35.7436 2.28249C35.6716 2.16041 35.5541 2.0707 35.416 2.03246C35.2779 1.99422 35.1301 2.01045 35.004 2.07764C34.8779 2.14482 34.7833 2.25767 34.7403 2.39233C34.5426 3.0862 34.3628 3.78483 34.201 4.48764C33.2017 8.82119 33.9141 13.3666 36.1938 17.2024C36.6441 17.9597 37.0696 18.7311 37.4696 19.5153C27.8016 22.9866 17.1985 22.9866 7.53052 19.5153C7.92982 18.7312 8.35457 17.9597 8.80412 17.2024C11.0846 13.3668 11.7977 8.82145 10.799 4.48764C10.6372 3.78483 10.4574 3.0862 10.2597 2.39233C10.2263 2.27846 10.1559 2.17851 10.0593 2.10771C9.96266 2.0369 9.84516 1.99916 9.72471 2.00025V2ZM7.04744 20.4956C17.0227 24.1051 27.9773 24.1051 37.9526 20.4956C39.5689 23.8862 40.7058 27.4785 41.3316 31.1726C37.6011 31.0247 33.8967 31.8457 30.5908 33.553C27.2848 35.2603 24.4937 37.7938 22.4979 40.8989C20.5025 37.7944 17.712 35.2613 14.4069 33.554C11.1017 31.8467 7.3982 31.0255 3.66838 31.1726C4.29423 27.4785 5.43114 23.8862 7.04744 20.4956Z" fill="white"/>
<path d="M9.72471 2C9.6403 2.00084 9.55722 2.02072 9.48185 2.05813C9.40649 2.09555 9.34086 2.14949 9.29001 2.2158C9.23917 2.2821 9.20446 2.35894 9.18857 2.44053C9.17269 2.52211 9.17604 2.60616 9.19837 2.68627C9.39049 3.3618 9.56525 4.042 9.72249 4.72621C10.6608 8.79233 9.99254 13.0575 7.85325 16.6567C4.92325 21.5868 3.04302 27.052 2.32695 32.7198C1.61087 38.3875 2.07391 44.1394 3.6879 49.6255C3.73711 49.7527 3.83314 49.8571 3.95693 49.9178C4.08071 49.9786 4.22318 49.9913 4.35605 49.9534C4.48891 49.9156 4.60245 49.8299 4.6741 49.7135C4.74574 49.597 4.77027 49.4583 4.74279 49.3249C3.11514 43.7877 2.6915 37.9751 3.49948 32.266C7.19512 32.0812 10.8712 32.9003 14.1254 34.6339C17.3796 36.3674 20.0865 38.9485 21.9498 42.0947V49.4742C21.9573 49.6128 22.0185 49.7433 22.1209 49.8388C22.2232 49.9343 22.3589 49.9877 22.5 49.9877C22.6411 49.9877 22.7768 49.9343 22.8791 49.8388C22.9815 49.7433 23.0427 49.6128 23.0502 49.4742V42.0947C24.9135 38.9485 27.6204 36.3674 30.8746 34.6339C34.1288 32.9003 37.8049 32.0812 41.5005 32.266C42.3071 37.9754 41.882 43.788 40.2529 49.3249C40.218 49.4614 40.2384 49.6058 40.3096 49.7278C40.3809 49.8498 40.4976 49.9397 40.6349 49.9787C40.7723 50.0177 40.9197 50.0027 41.0461 49.9368C41.1724 49.8709 41.2678 49.7593 41.3121 49.6255C42.9261 44.1394 43.3891 38.3875 42.6731 32.7198C41.957 27.052 40.0768 21.5868 37.1468 16.6567C35.0067 13.0578 34.3377 8.79261 35.2753 4.72621C35.4333 4.04198 35.6088 3.36178 35.8017 2.68627C35.8365 2.54932 35.8156 2.40456 35.7436 2.28249C35.6716 2.16041 35.5541 2.0707 35.416 2.03246C35.2779 1.99422 35.1301 2.01045 35.004 2.07764C34.8779 2.14482 34.7833 2.25767 34.7403 2.39233C34.5426 3.0862 34.3628 3.78483 34.201 4.48764C33.2017 8.82119 33.9141 13.3666 36.1938 17.2024C36.6441 17.9597 37.0696 18.7311 37.4696 19.5153C27.8016 22.9866 17.1985 22.9866 7.53052 19.5153C7.92982 18.7312 8.35457 17.9597 8.80412 17.2024C11.0846 13.3668 11.7977 8.82145 10.799 4.48764C10.6372 3.78483 10.4574 3.0862 10.2597 2.39233C10.2263 2.27846 10.1559 2.17851 10.0593 2.10771C9.96266 2.0369 9.84516 1.99916 9.72471 2.00025V2ZM7.04744 20.4956C17.0227 24.1051 27.9773 24.1051 37.9526 20.4956C39.5689 23.8862 40.7058 27.4785 41.3316 31.1726C37.6011 31.0247 33.8967 31.8457 30.5908 33.553C27.2848 35.2603 24.4937 37.7938 22.4979 40.8989C20.5025 37.7944 17.712 35.2613 14.4069 33.554C11.1017 31.8467 7.3982 31.0255 3.66838 31.1726C4.29423 27.4785 5.43114 23.8862 7.04744 20.4956Z" stroke="white" stroke-width="2.4" mask="url(#path-1-outside-1)"/>
</g>
<g id="Vector_2">
<mask id="path-2-outside-2" maskUnits="userSpaceOnUse" x="20" y="12" width="6" height="6" fill="black">
<rect fill="white" x="20" y="12" width="6" height="6"/>
<path d="M23.9993 14.9999C24.0042 14.8703 23.982 14.7412 23.934 14.62C23.886 14.4989 23.8132 14.3885 23.7199 14.2951C23.6266 14.2018 23.5148 14.1275 23.3911 14.0768C23.2674 14.0261 23.1344 14 23 14C22.8656 14 22.7326 14.0261 22.6089 14.0768C22.4852 14.1275 22.3734 14.2018 22.2801 14.2951C22.1868 14.3885 22.114 14.4989 22.066 14.62C22.018 14.7412 21.9958 14.8703 22.0007 14.9999C21.9958 15.1295 22.018 15.2588 22.066 15.38C22.114 15.5011 22.1868 15.6115 22.2801 15.7049C22.3734 15.7982 22.4852 15.8725 22.6089 15.9232C22.7326 15.9739 22.8656 16 23 16C23.1344 16 23.2674 15.9739 23.3911 15.9232C23.5148 15.8725 23.6266 15.7982 23.7199 15.7049C23.8132 15.6115 23.886 15.5011 23.934 15.38C23.982 15.2588 24.0042 15.1295 23.9993 14.9999Z"/>
</mask>
<path d="M23.9993 14.9999C24.0042 14.8703 23.982 14.7412 23.934 14.62C23.886 14.4989 23.8132 14.3885 23.7199 14.2951C23.6266 14.2018 23.5148 14.1275 23.3911 14.0768C23.2674 14.0261 23.1344 14 23 14C22.8656 14 22.7326 14.0261 22.6089 14.0768C22.4852 14.1275 22.3734 14.2018 22.2801 14.2951C22.1868 14.3885 22.114 14.4989 22.066 14.62C22.018 14.7412 21.9958 14.8703 22.0007 14.9999C21.9958 15.1295 22.018 15.2588 22.066 15.38C22.114 15.5011 22.1868 15.6115 22.2801 15.7049C22.3734 15.7982 22.4852 15.8725 22.6089 15.9232C22.7326 15.9739 22.8656 16 23 16C23.1344 16 23.2674 15.9739 23.3911 15.9232C23.5148 15.8725 23.6266 15.7982 23.7199 15.7049C23.8132 15.6115 23.886 15.5011 23.934 15.38C23.982 15.2588 24.0042 15.1295 23.9993 14.9999Z" fill="white"/>
<path d="M23.9993 14.9999C24.0042 14.8703 23.982 14.7412 23.934 14.62C23.886 14.4989 23.8132 14.3885 23.7199 14.2951C23.6266 14.2018 23.5148 14.1275 23.3911 14.0768C23.2674 14.0261 23.1344 14 23 14C22.8656 14 22.7326 14.0261 22.6089 14.0768C22.4852 14.1275 22.3734 14.2018 22.2801 14.2951C22.1868 14.3885 22.114 14.4989 22.066 14.62C22.018 14.7412 21.9958 14.8703 22.0007 14.9999C21.9958 15.1295 22.018 15.2588 22.066 15.38C22.114 15.5011 22.1868 15.6115 22.2801 15.7049C22.3734 15.7982 22.4852 15.8725 22.6089 15.9232C22.7326 15.9739 22.8656 16 23 16C23.1344 16 23.2674 15.9739 23.3911 15.9232C23.5148 15.8725 23.6266 15.7982 23.7199 15.7049C23.8132 15.6115 23.886 15.5011 23.934 15.38C23.982 15.2588 24.0042 15.1295 23.9993 14.9999Z" stroke="white" stroke-width="2.4" mask="url(#path-2-outside-2)"/>
</g>
</g>
</svg>
