<svg version="1.2" xmlns="http://www.w3.org/2000/svg" viewBox="0 0 60 60" width="60" height="60">
	<title>body-armor-svg</title>
	<style>
		.s0 { fill: #ffffff } 
	</style>
	<g id="Layer" style="opacity: .2">
		<path id="Layer" fill-rule="evenodd" class="s0" d="m19 34.5v-15.8c2.1-0.2 3.8-1.8 3.8-3.9v-5.3c0-0.8 0.7-1.5 1.5-1.5 0.9 0 1.6 0.7 1.6 1.5v5.3c0 2.2 1.8 4 4.1 4 2.3 0 4.1-1.8 4.1-4v-5.3c0-0.8 0.7-1.5 1.6-1.5 0.8 0 1.5 0.7 1.5 1.5v5.3c0 2.1 1.7 3.8 3.8 3.9v15.8c0 0.8-0.7 1.5-1.5 1.5h-19c-0.8 0-1.5-0.7-1.5-1.5zm3.1-12.5c0 0.2 0.1 0.3 0.3 0.3h15.2c0.2 0 0.3-0.1 0.3-0.3 0-0.2-0.1-0.3-0.3-0.3h-15.2c-0.2 0-0.3 0.1-0.3 0.3zm0 3.6c0 0.2 0.1 0.3 0.3 0.3h15.2c0.2 0 0.3-0.1 0.3-0.3 0-0.2-0.1-0.3-0.3-0.3h-15.2c-0.2 0-0.3 0.1-0.3 0.3zm0 3.6c0 0.2 0.1 0.3 0.3 0.3h15.2c0.2 0 0.3-0.1 0.3-0.3 0-0.2-0.1-0.4-0.3-0.4h-15.2c-0.2 0-0.3 0.2-0.3 0.4zm0 3.6c0 0.1 0.1 0.3 0.3 0.3h15.2c0.2 0 0.3-0.2 0.3-0.3 0-0.2-0.1-0.4-0.3-0.4h-15.2c-0.2 0-0.3 0.2-0.3 0.4z"/>
	</g>
</svg>