<svg width="24" height="24" viewBox="0 0 24 24" fill="none" xmlns="http://www.w3.org/2000/svg">
<g clip-path="url(#clip0)">
<path d="M23.9069 10.4027L21.4284 6.07683C21.3437 5.92908 21.2122 5.82249 21.0619 5.76694C21.0613 5.76671 21.0609 5.76638 21.0603 5.76619L12.3185 2.56247C12.1635 2.50566 11.9935 2.50524 11.8382 2.56111L2.9434 5.76483C2.94316 5.76492 2.94302 5.76511 2.94279 5.76521C2.79049 5.82024 2.65713 5.92758 2.57159 6.07678L0.0930259 10.4027C-0.00878648 10.5804 -0.0280521 10.7937 0.0402916 10.9868C0.108635 11.1799 0.257744 11.3336 0.448666 11.4077L2.47854 12.1957V17.5726C2.47854 17.8691 2.66449 18.1337 2.9434 18.2341L11.7706 21.4135C11.8607 21.4554 11.9606 21.4794 12.0665 21.4794C12.0681 21.4794 12.0696 21.4792 12.0711 21.4792C12.0729 21.4792 12.0747 21.4794 12.0765 21.4794C12.1571 21.4794 12.2378 21.4656 12.3148 21.4379L21.2096 18.2341C21.4885 18.1337 21.6745 17.8691 21.6745 17.5726V12.1362L23.5513 11.4077C23.7422 11.3336 23.8913 11.1799 23.9596 10.9868C24.028 10.7937 24.0088 10.5804 23.9069 10.4027ZM12.0744 3.97074L18.7784 6.4276L12.0647 8.89739L5.251 6.42839L12.0744 3.97074ZM3.49788 7.28883L11.0359 10.0203L9.14528 13.2751L1.71954 10.3926L3.49788 7.28883ZM3.88479 12.7416L9.1968 14.8036C9.28005 14.8359 9.36606 14.8514 9.45105 14.8514C9.69541 14.8514 9.9302 14.7234 10.0592 14.5013L11.3634 12.2562V19.7722L3.88479 17.0786V12.7416ZM20.2682 17.0786L12.7696 19.7794V12.3775L13.9329 14.4876C14.103 14.796 14.475 14.931 14.8031 14.8036L20.2682 12.6821V17.0786ZM14.8675 13.2701L13.0774 10.0232L20.5035 7.29136L22.2804 10.3926L14.8675 13.2701Z" fill="white"/>
</g>
<defs>
<clipPath id="clip0">
<rect width="24" height="24" fill="white"/>
</clipPath>
</defs>
</svg>
