<svg width="24" height="24" viewBox="0 0 24 24" fill="none" xmlns="http://www.w3.org/2000/svg">
<g clip-path="url(#clip0)">
<path d="M23.9069 10.4034L21.4284 6.07753C21.3437 5.92978 21.2122 5.82319 21.0619 5.76764C21.0613 5.76741 21.0609 5.76708 21.0603 5.76689L12.3185 2.56317C12.1635 2.50636 11.9935 2.50594 11.8382 2.56181L2.9434 5.76553C2.94316 5.76563 2.94302 5.76581 2.94279 5.76591C2.79049 5.82094 2.65713 5.92828 2.57159 6.07749L0.0930259 10.4034C-0.00878648 10.5811 -0.0280521 10.7944 0.0402916 10.9875C0.108635 11.1806 0.257744 11.3343 0.448666 11.4084L2.47854 12.1964V17.5733C2.47854 17.8698 2.66449 18.1344 2.9434 18.2348L11.7706 21.4142C11.8607 21.4561 11.9606 21.4801 12.0665 21.4801C12.0681 21.4801 12.0696 21.4799 12.0711 21.4799C12.0729 21.4799 12.0747 21.4801 12.0765 21.4801C12.1571 21.4801 12.2378 21.4663 12.3148 21.4386L21.2096 18.2348C21.4885 18.1344 21.6745 17.8698 21.6745 17.5733V12.1369L23.5513 11.4084C23.7422 11.3343 23.8913 11.1806 23.9596 10.9875C24.028 10.7944 24.0088 10.5811 23.9069 10.4034ZM12.0744 3.97144L18.7784 6.4283L12.0647 8.8981L5.251 6.4291L12.0744 3.97144ZM3.49788 7.28953L11.0359 10.021L9.14528 13.2758L1.71954 10.3933L3.49788 7.28953ZM3.88479 12.7423L9.1968 14.8043C9.28005 14.8366 9.36606 14.8521 9.45105 14.8521C9.69541 14.8521 9.9302 14.7241 10.0592 14.502L11.3634 12.2569V19.7729L3.88479 17.0793V12.7423ZM20.2682 17.0793L12.7696 19.7801V12.3782L13.9329 14.4883C14.103 14.7967 14.475 14.9317 14.8031 14.8043L20.2682 12.6828V17.0793ZM14.8675 13.2708L13.0774 10.0239L20.5035 7.29206L22.2804 10.3933L14.8675 13.2708Z" fill="white"/>
</g>
<defs>
<clipPath id="clip0">
<rect width="24" height="24" fill="white"/>
</clipPath>
</defs>
</svg>
