<svg width="18" height="18" viewBox="0 0 18 18" fill="none" xmlns="http://www.w3.org/2000/svg">
<path d="M6.22564 13.2457L5.52466 12.1083L4.04452 12.3742L5.99113 8.92188H2.19531V18.0013H8.66306V8.92188L6.22564 13.2457Z" fill="white"/>
<path d="M16.8714 4.58778H12.5764C12.8276 4.45835 13.0518 4.32315 13.2505 4.17962C14.0142 3.63242 14.4198 2.93913 14.4186 2.25096C14.4186 1.68646 14.1514 0.87783 13.7631 0.540795C13.3741 0.199915 12.8583 0 12.3079 0C11.7197 0 11.1731 0.201837 10.7048 0.515805C10.0006 0.987399 9.44952 2.00876 9.05674 2.78791C9.03688 2.827 9.01702 2.8648 8.99779 2.90261C8.85427 2.60209 8.68639 2.00043 8.49609 1.72619C8.16289 1.25075 7.76242 0.830414 7.29211 0.515805C6.825 0.201837 6.27908 0 5.69151 0C5.10587 0.00192226 4.56956 0.24733 4.16845 0.626015C3.76926 1.00085 3.48989 1.84472 3.48733 2.44767C3.48477 2.79944 3.58729 3.16788 3.79937 3.50299C4.06593 3.92268 4.48818 4.28855 5.07127 4.58778H1.11719L1.12616 8.19842H8.55119V4.58778H9.45593V8.19842H16.8822L16.8714 4.58778ZM5.32757 3.45878C5.02962 3.2704 4.84636 3.08138 4.73872 2.91158C4.63427 2.74306 4.59775 2.44703 4.59775 2.30158C4.59519 2.05874 4.71629 1.63264 4.93158 1.43272C5.14175 1.23217 5.42753 1.1085 5.68383 1.1085H5.69151C6.0215 1.11106 6.34828 1.22127 6.67763 1.43849C7.16781 1.76207 7.62979 2.64182 7.95081 3.28642C8.11868 3.61448 8.24683 3.95728 8.33333 4.2924C6.84615 4.13862 5.88502 3.81055 5.32757 3.45878ZM10.4107 2.67386C10.6785 2.29005 10.9944 1.65698 11.3218 1.43849C11.6473 1.22127 11.9779 1.11106 12.3079 1.1085H12.3111C12.586 1.1085 12.8506 1.21615 13.0307 1.37569C13.2114 1.5378 13.3081 1.83447 13.3081 2.04336C13.3043 2.29005 13.1768 2.85775 12.6007 3.27873C12.0542 3.67728 11.1052 4.08543 9.64623 4.37121C9.784 3.79261 10.0538 3.18005 10.4107 2.67386Z" fill="white"/>
<path d="M13.9628 12.3595L12.4833 12.1083L11.7849 13.2591L9.37891 8.98018V18.0013H15.814V8.92188H12.0182L13.9628 12.3595Z" fill="white"/>
</svg>
