<svg version="1.2" xmlns="http://www.w3.org/2000/svg" viewBox="0 0 60 60" width="60" height="60">
	<title>bracelet-svg</title>
	<style>
		.s0 { fill: #ffffff } 
	</style>
	<g id="Layer" style="opacity: .2">
		<path id="Layer" class="s0" d="m16.9 26.4c3-0.3 6-2.3 7.5-3.5q0.2-0.1 0.3-0.3 0.1-0.2 0.1-0.5 0.1-0.2 0-0.4-0.1-0.3-0.3-0.4l-2.9-2.9q-0.1-0.2-0.3-0.3-0.2 0-0.5 0-0.2 0-0.4 0.1-0.2 0-0.3 0.2c-2.8 3.1-3.8 5.7-4.1 7q0 0.2 0 0.4 0.1 0.2 0.2 0.3 0.1 0.2 0.3 0.2 0.2 0.1 0.4 0.1z"/>
		<path id="Layer" class="s0" d="m42.9 13.9q-1-0.4-1.8-1.2l-1.3-1.3q-1.1-1.1-1.9-2.5-0.1-0.2-0.2-0.3c-0.4-0.5-1.1-0.3-1.2 0.3-0.4 1.9-1.9 6.6-7.4 12.2-5.6 5.5-10.3 7-12.2 7.4-0.6 0.1-0.8 0.8-0.3 1.2q0.1 0.1 0.3 0.2 1.4 0.8 2.5 1.9l1.3 1.3q0.8 0.8 1.2 1.8 0.2 0.5 0.6 0.8 0.5 0.3 1 0.3c2.4 0 5-1 7.3-2.3 4.5-2.6 8.3-6.4 10.9-10.9 1.3-2.3 2.3-4.9 2.3-7.3q0-0.5-0.3-1-0.3-0.4-0.8-0.6z"/>
		<path id="Layer" class="s0" d="m33.4 8c-1.3 0.3-3.9 1.3-7 4.1q-0.2 0.1-0.3 0.3 0 0.2 0 0.4 0 0.3 0 0.5 0.1 0.2 0.3 0.3l2.9 2.9q0.1 0.2 0.4 0.3 0.2 0.1 0.4 0 0.3 0 0.5-0.1 0.2-0.1 0.3-0.3c1.2-1.5 3.2-4.5 3.5-7.5q0-0.2-0.1-0.4 0-0.2-0.2-0.3-0.1-0.1-0.3-0.2-0.2 0-0.4 0z"/>
		<path id="Layer" class="s0" d="m30 14.3c0.2 0 0.4-0.1 0.4-0.4 0-0.2-0.2-0.3-0.4-0.3-0.2 0-0.4 0.1-0.4 0.3 0 0.3 0.2 0.4 0.4 0.4z"/>
	</g>
</svg>