<svg width="45" height="10" viewBox="0 0 45 10" fill="none" xmlns="http://www.w3.org/2000/svg">
<path d="M44.7923 6.8413C42.9101 4.71075 40.5688 3.03631 37.9455 1.94449C35.2996 0.776194 32.4579 0.116565 29.5685 0C23.0183 0.048976 16.5534 1.49183 10.6027 4.23283C8.94032 4.92453 7.3106 5.70327 5.60375 6.28215C4.7647 6.56669 3.90993 6.79988 3.06269 7.05744C2.67215 7.17609 2.28786 7.29603 1.90281 7.43129C1.52068 7.6178 1.10498 7.72546 0.680443 7.74785C0.523344 7.72988 0.365404 7.77358 0.239812 7.86976C0.114221 7.96594 0.0307578 8.10711 0.0069617 8.26361C-0.0168343 8.42011 0.0208897 8.57975 0.112206 8.70898C0.203523 8.83822 0.341322 8.92699 0.496646 8.95663C0.834245 9.09295 1.1608 9.25522 1.47338 9.442C1.8355 9.60253 2.21026 9.7328 2.59383 9.83148C3.44047 10.0162 4.3131 10.0494 5.1713 9.92941C6.8254 9.68072 8.44716 9.25065 10.0073 8.64697C12.9808 7.55759 15.8713 6.29208 18.9145 5.39242C19.6415 5.17746 20.3743 4.98579 21.1069 4.79132L21.2185 4.76134L21.33 4.73567L21.8829 4.60624C22.3131 4.5088 22.7447 4.41852 23.1779 4.3354C24.6606 4.04762 26.1607 3.85867 27.6683 3.76979C28.3263 3.73268 28.9844 3.72071 29.6432 3.72664L30.0769 3.73312L30.409 3.74185C30.7951 3.75623 31.1806 3.77903 31.5655 3.81023C32.9352 3.90606 34.2967 4.09613 35.6403 4.37908C37.0587 4.69569 38.4363 5.17337 39.7464 5.80283C41.083 6.42838 42.3488 7.19581 43.5217 8.09192C44.3016 8.69701 45.4809 7.63093 44.7923 6.8413Z" fill="white"/>
</svg>
