<svg width="40" height="40" viewBox="0 0 40 40" fill="none" xmlns="http://www.w3.org/2000/svg">
<rect width="40" height="40" rx="8" fill="#171D21"/>
<path d="M23.4375 21.375H16.5625V20H9.6875V28.4219C9.6875 28.5586 9.74182 28.6898 9.83852 28.7865C9.93522 28.8832 10.0664 28.9375 10.2031 28.9375H29.7969C29.9336 28.9375 30.0648 28.8832 30.1615 28.7865C30.2582 28.6898 30.3125 28.5586 30.3125 28.4219V20H23.4375V21.375ZM30.3125 14.3281C30.3125 14.1914 30.2582 14.0602 30.1615 13.9635C30.0648 13.8668 29.9336 13.8125 29.7969 13.8125H25.5V11.4062C25.5 11.3151 25.4638 11.2276 25.3993 11.1632C25.3349 11.0987 25.2474 11.0625 25.1562 11.0625H14.8438C14.7526 11.0625 14.6651 11.0987 14.6007 11.1632C14.5362 11.2276 14.5 11.3151 14.5 11.4062V13.8125H10.2031C10.0664 13.8125 9.93522 13.8668 9.83852 13.9635C9.74182 14.0602 9.6875 14.1914 9.6875 14.3281V18.625H30.3125V14.3281ZM23.7812 13.8125H16.2188V12.7812H23.7812V13.8125Z" fill="#F04E27"/>
</svg>
