<svg width="26" height="26" viewBox="0 0 26 26" fill="none" xmlns="http://www.w3.org/2000/svg">
<path d="M16.25 8.9375V0.8125H1.625V25.1875H8.125V20.3125H9.75V25.1875H24.375V8.9375H16.25ZM5.6875 21.9375H4.0625V20.3125H5.6875V21.9375ZM5.6875 17.875H4.0625V16.25H5.6875V17.875ZM5.6875 13.8125H4.0625V12.1875H5.6875V13.8125ZM5.6875 9.75H4.0625V8.125H5.6875V9.75ZM5.6875 5.6875H4.0625V4.0625H5.6875V5.6875ZM12.1875 4.0625H13.8125V5.6875H12.1875V4.0625ZM9.75 17.875H8.125V16.25H9.75V17.875ZM9.75 13.8125H8.125V12.1875H9.75V13.8125ZM9.75 9.75H8.125V8.125H9.75V9.75ZM9.75 5.6875H8.125V4.0625H9.75V5.6875ZM13.8125 21.9375H12.1875V20.3125H13.8125V21.9375ZM13.8125 17.875H12.1875V16.25H13.8125V17.875ZM13.8125 13.8125H12.1875V12.1875H13.8125V13.8125ZM13.8125 9.75H12.1875V8.125H13.8125V9.75ZM22.75 23.5625H16.25V21.9375H17.875V20.3125H16.25V17.875H17.875V16.25H16.25V13.8125H17.875V12.1875H16.25V10.5625H22.75V23.5625Z" fill="#F04E27"/>
<path d="M19.5 20.3125H21.125V21.9375H19.5V20.3125ZM19.5 16.25H21.125V17.875H19.5V16.25ZM19.5 12.1875H21.125V13.8125H19.5V12.1875Z" fill="#F04E27"/>
</svg>
