<svg width="166" height="60" viewBox="0 0 166 60" fill="none" xmlns="http://www.w3.org/2000/svg">
<path d="M5.75945 0.789123C5.01532 0.747037 3.87095 0.385794 3.39178 0.210433C2.54616 0.105216 2.88444 3.99823 2.969 4.68213C3.05356 5.36604 3.39178 15.3492 3.39178 15.6122C3.39178 15.8753 4.82931 18.2024 5.16755 18.5707C5.43814 18.8653 3.36359 21.7252 2.54618 22.0408C2.54618 26.6703 3.05356 34.006 3.05356 34.9319C3.05356 35.4053 1.36237 39.4562 1.36237 39.877C1.36237 40.2979 0.854991 50.0304 0.263074 51.1878C-0.328843 52.3452 0.263074 58.0269 0.263074 58.4478C0.263074 58.8686 2.12338 58.9212 2.54618 58.9212C2.96898 58.9212 3.1381 58.7634 4.32193 58.9212C5.269 59.0475 20.4446 59.2544 27.9141 59.3421L29.267 58.0269L30.4508 59.3421C36.6519 59.4824 49.6628 59.805 52.0981 59.9734C55.1422 60.1838 73.1534 59.079 77.0432 59.0264C80.9329 58.9738 109.514 58.0795 117.04 58.0795C124.566 58.0795 162.617 58.7634 164.478 58.6582C166.338 58.553 166.254 57.606 165.492 55.6595C164.884 54.1023 163.322 43.8959 162.617 37.6531C162.082 37.5128 160.977 34.4689 160.842 34.0901C160.706 33.7114 161.969 31.3297 162.617 31.2245C162.646 28.2609 162.719 24.0946 162.787 22.832C162.854 21.5694 163.04 16.6449 163.125 12.8571L159.066 9.73252L163.125 7.65306L163.548 0.683907C154.584 0.824196 136.624 1.10477 136.489 1.10477C136.319 1.10477 135.013 4.53923 133.998 4.59184C133.187 4.63392 132.232 1.85882 131.922 1.2626C123.156 1.19245 105.049 1.01008 102.749 0.841732C99.8742 0.631299 81.102 0.736515 78.5652 0.841732C76.0284 0.946948 62.1607 1.36781 59.6239 1.05216C57.0871 0.736515 46.1497 1.05216 45.3886 1.05216C44.7798 1.05216 41.359 0.122753 41.1053 0C35.6653 0.140289 24.7177 0.420866 24.4471 0.420866C24.1765 0.420866 23.4003 4.29634 22.9493 4.68213L21.5721 0.631299C16.6113 0.701443 6.50357 0.83121 5.75945 0.789123Z" fill="url(#paint0_linear_2121_2506)"/>
<defs>
<linearGradient id="paint0_linear_2121_2506" x1="-12.2372" y1="67.5" x2="186.454" y2="8.61436" gradientUnits="userSpaceOnUse">
<stop stop-color="#FF2121"/>
<stop offset="1" stop-color="#FB6D07"/>
</linearGradient>
</defs>
</svg>
