<svg width="32" height="32" viewBox="0 0 32 32" fill="none" xmlns="http://www.w3.org/2000/svg">
<path d="M30.8909 17.2638C30.6659 14.7381 30.2953 14.2463 30.1553 14.0612C29.8334 13.6337 29.3184 13.3544 28.7734 13.0612C28.7426 13.045 28.7159 13.0217 28.6956 12.9934C28.6753 12.965 28.6619 12.9324 28.6564 12.8979C28.6509 12.8635 28.6534 12.8283 28.6639 12.795C28.6743 12.7617 28.6923 12.7314 28.7165 12.7063C28.8174 12.6039 28.895 12.4809 28.9439 12.3457C28.9927 12.2105 29.0118 12.0664 28.9996 11.9231C28.9761 11.6691 28.858 11.4332 28.6687 11.2623C28.4795 11.0913 28.2328 10.9977 27.9778 11H27.0028C26.961 11.0002 26.9192 11.003 26.8778 11.0081C26.8493 10.9958 26.8198 10.9859 26.7896 10.9788C26.2121 9.75813 25.4215 8.08687 23.7828 7.27125C21.3521 6.0625 16.8746 6 15.9996 6C15.1246 6 10.6471 6.0625 8.21963 7.26937C6.58088 8.085 5.79025 9.75625 5.21275 10.9769L5.20775 10.9869C5.17895 10.9909 5.15066 10.9981 5.12338 11.0081C5.08191 11.003 5.04017 11.0002 4.99838 11H4.0215C3.76643 10.9977 3.5198 11.0913 3.33052 11.2623C3.14124 11.4332 3.02313 11.6691 2.99963 11.9231C2.98853 12.066 3.00841 12.2096 3.05792 12.3442C3.10743 12.4787 3.1854 12.6009 3.2865 12.7025C3.31069 12.7276 3.32871 12.758 3.33914 12.7913C3.34958 12.8245 3.35214 12.8598 3.34662 12.8942C3.34111 12.9286 3.32767 12.9613 3.30736 12.9896C3.28706 13.018 3.26045 13.0412 3.22963 13.0575C2.68463 13.3525 2.16713 13.6319 1.84775 14.0575C1.70775 14.245 1.33775 14.7344 1.11213 17.26C0.987128 18.6813 0.968378 20.1525 1.0665 21.1C1.27213 23.0688 1.65775 24.2587 1.674 24.3081C1.73318 24.4878 1.8421 24.647 1.98813 24.7673C2.13416 24.8875 2.31131 24.9639 2.499 24.9875V25C2.499 25.2652 2.60436 25.5196 2.7919 25.7071C2.97943 25.8946 3.23379 26 3.499 26H6.999C7.26422 26 7.51857 25.8946 7.70611 25.7071C7.89365 25.5196 7.999 25.2652 7.999 25C8.53713 25 8.9115 24.9038 9.30838 24.8013C9.88137 24.6469 10.467 24.5442 11.0584 24.4944C12.9653 24.3125 14.8615 24.25 15.9996 24.25C17.1146 24.25 19.0946 24.3125 21.0046 24.4944C21.5983 24.5443 22.1863 24.6474 22.7615 24.8025C23.1415 24.9 23.5021 24.99 24.0015 24.9994C24.0015 25.2646 24.1069 25.5189 24.2944 25.7065C24.4819 25.894 24.7363 25.9994 25.0015 25.9994H28.5015C28.7667 25.9994 29.0211 25.894 29.2086 25.7065C29.3961 25.5189 29.5015 25.2646 29.5015 24.9994V24.9919C29.6896 24.9687 29.8673 24.8925 30.0138 24.7723C30.1603 24.652 30.2696 24.4925 30.329 24.3125C30.3453 24.2631 30.7309 23.0731 30.9365 21.1044C31.0346 20.1563 31.0171 18.6875 30.8909 17.2638ZM7.02025 11.8319C7.52025 10.7694 8.09213 9.56688 9.11025 9.06C10.5815 8.3275 13.6309 7.9975 15.9996 7.9975C18.3684 7.9975 21.4178 8.325 22.889 9.06C23.9071 9.56688 24.4765 10.77 24.979 11.8319L25.0415 11.9675C25.0781 12.0447 25.0942 12.13 25.0884 12.2152C25.0827 12.3005 25.0551 12.3828 25.0085 12.4544C24.9619 12.5259 24.8977 12.5844 24.8221 12.6241C24.7464 12.6638 24.6619 12.6835 24.5765 12.6812C22.4996 12.625 18.1246 12.445 15.9996 12.445C13.8746 12.445 9.49963 12.6294 7.41963 12.6856C7.33423 12.6879 7.24969 12.6682 7.17406 12.6285C7.09844 12.5887 7.03425 12.5303 6.98762 12.4587C6.94099 12.3872 6.91347 12.3048 6.9077 12.2196C6.90192 12.1344 6.91808 12.0491 6.95463 11.9719C6.9765 11.9256 6.99963 11.8787 7.02025 11.8319ZM7.76588 16.8088C6.69076 16.9381 5.60876 17.002 4.52588 17C3.86338 17 3.18025 16.8125 3.05338 16.2225C2.9665 15.8256 2.97588 15.6025 3.02275 15.3781C3.06213 15.1875 3.12463 15.0487 3.43713 15C4.24963 14.875 4.704 15.0319 6.034 15.4237C6.91588 15.6831 7.55213 16.0287 7.91463 16.3025C8.0965 16.4375 7.99963 16.79 7.76588 16.8088ZM21.6021 21.9338C20.7796 22.0275 19.1346 21.9931 16.0184 21.9931C12.9021 21.9931 11.2578 22.0275 10.4353 21.9338C9.5865 21.8394 8.50463 21.0369 9.24338 20.3219C9.73525 19.8506 10.8828 19.4981 12.4109 19.3C13.939 19.1019 14.5859 19 16.0121 19C17.4384 19 18.0196 19.0625 19.6134 19.3006C21.2071 19.5387 22.4115 19.8956 22.7809 20.3225C23.4546 21.0875 22.4503 21.8344 21.6021 21.9375V21.9338ZM28.9459 16.2219C28.8209 16.8144 28.1334 16.9994 27.4734 16.9994C26.3698 16.9996 25.2671 16.9358 24.1709 16.8081C23.9796 16.79 23.8909 16.4544 24.0846 16.3019C24.4415 16.0212 25.0846 15.6825 25.9653 15.4231C27.2953 15.0312 28.0621 14.8744 28.7209 15.005C28.8815 15.0369 28.9665 15.2094 28.9765 15.3175C29.0206 15.6186 29.0102 15.9251 28.9459 16.2225V16.2219Z" fill="#F04E27"/>
</svg>
