<svg width="40" height="40" viewBox="0 0 40 40" fill="none" xmlns="http://www.w3.org/2000/svg">
<g clip-path="url(#clip0_80_1448)">
<path d="M32.653 17.8567L31.0221 16.8316L29.4395 12.9669C28.863 11.5597 27.833 10.3854 26.5128 9.63069L22.2376 7.18715C20.8216 6.37782 19.1346 6.18801 17.5742 6.66255L14.351 7.64308L12.5007 6.58443C12.298 6.46877 12.0774 6.45778 11.8821 6.52004L11.8806 6.51912L11.8696 6.52522C11.7667 6.56001 11.6721 6.61495 11.5916 6.68788L0.392517 13.2388C0.164246 13.3694 0.000976562 13.6132 0.000976562 13.9135V16.6232L0.653137 17.9495C1.09656 18.8513 1.82196 19.584 2.71948 20.0363L16.4881 26.9748L26.6724 32.835C27.9481 33.569 29.463 33.7658 30.8832 33.3819C34.0189 32.5341 36.8421 30.8233 39.0388 28.4573C39.661 27.7871 40.001 26.9024 40.001 25.9878V25.1229C38.1129 22.192 35.6046 19.7119 32.653 17.8567Z" fill="#ED5100"/>
<path d="M32.6528 17.8586L31.0219 16.8335L30.3575 17.2235L36.8389 25.7458L31.263 28.8315L20.1912 23.1906L19.6855 23.4875L21.3408 24.5279C23.3699 25.8032 26.0924 28.7683 27.5807 30.4782C28.2674 31.2674 29.3239 31.6272 30.3502 31.4264C34.2638 30.6598 37.7254 28.3997 40.0011 25.1245C38.1127 22.1939 35.6044 19.7137 32.6528 17.8586Z" fill="#E33400"/>
<path d="M9.13055 20.5775L5.97626 18.3585C5.51239 17.1989 4.73938 16.1683 3.86383 15.6626C2.44446 14.8432 1.29395 15.713 1.29395 17.6057C1.29395 19.4981 2.44446 21.6963 3.86383 22.5157C4.53674 22.9041 5.14862 22.9124 5.60669 22.6127L9.13055 20.5775Z" fill="#23292E"/>
<path d="M27.2009 30.9209L24.0466 28.702C23.5827 27.5423 22.8097 26.5117 21.9341 26.0064C20.5148 25.187 19.3643 26.0567 19.3643 27.9491C19.3643 29.8415 20.5148 32.0397 21.9341 32.8594C22.6071 33.2476 23.2189 33.2561 23.677 32.9565L27.2009 30.9209Z" fill="#23292E"/>
<path d="M30.3504 31.4267C29.3238 31.6275 28.2673 31.2677 27.5806 30.4785C26.0923 28.7686 23.3698 25.8035 21.341 24.5282L19.6854 23.4879L18.1028 19.6231C17.5266 18.216 16.4966 17.0416 15.1761 16.2869L10.9012 13.8434C9.48523 13.0341 7.79822 12.8443 6.23755 13.3188L3.01428 14.2993L1.16431 13.241C0.646118 12.9444 0.000976562 13.3185 0.000976562 13.9157V16.6254L0.653137 17.9517C1.09656 18.8535 1.82196 19.5862 2.71948 20.0385L16.4881 26.9769L26.6724 32.8372C27.9481 33.5712 29.463 33.768 30.8832 33.3841C34.0189 32.5363 36.8421 30.8255 39.0388 28.4595C39.661 27.7893 40.001 26.9046 40.001 25.99V25.1251C37.7253 28.4 34.264 30.6601 30.3504 31.4267Z" fill="#872E02"/>
<path d="M3.01459 14.299L14.351 7.64498L12.5007 6.58632C12.298 6.47066 12.0774 6.45967 11.8821 6.52193L11.8806 6.52101L11.8696 6.52712C11.7667 6.56191 11.6721 6.61684 11.5916 6.68978L0.392517 13.2407C0.164246 13.3713 0.000976562 13.6151 0.000976562 13.9154V16.6251L0.653137 17.9514C1.09656 18.8532 1.82196 19.5859 2.71948 20.0382L16.4881 26.9766L21.7307 29.9933V27.6581L3.01459 14.299Z" fill="#E33400"/>
<path d="M39.1812 26.7866V27.809C37.0959 29.9211 34.5322 31.5831 31.7068 32.4931L30.5908 32.8523V31.7555L32.3587 31.1912C34.7015 30.4435 36.8307 29.1444 38.5672 27.4028L39.1812 26.7866Z" fill="#23292E"/>
<path d="M24.504 30.9164C24.504 32.8087 23.3535 33.6785 21.9341 32.8591C20.5148 32.0397 19.3643 29.8415 19.3643 27.9491C19.3643 26.0567 20.5148 25.187 21.9341 26.0064C23.3535 26.8258 24.504 29.024 24.504 30.9164Z" fill="#2E373D"/>
<path d="M23.1968 30.165C23.1968 31.0955 22.6313 31.523 21.9333 31.1202C21.2354 30.7173 20.6699 29.6364 20.6699 28.7059C20.6699 27.7754 21.2354 27.3479 21.9333 27.7507C22.6313 28.1536 23.1968 29.2345 23.1968 30.165Z" fill="#CECECE"/>
<path d="M22.6189 29.8291C22.6189 30.3338 22.3119 30.5655 21.9335 30.3473C21.5551 30.1288 21.248 29.5425 21.248 29.0378C21.248 28.5333 21.5551 28.3011 21.9335 28.5199C22.3119 28.7381 22.6189 29.3243 22.6189 29.8291Z" fill="#627681"/>
<path d="M6.43372 20.5726C6.43372 22.4653 5.2832 23.3351 3.86383 22.5157C2.44446 21.696 1.29395 19.4978 1.29395 17.6054C1.29395 15.713 2.44446 14.8432 3.86383 15.6626C5.2832 16.482 6.43372 18.6802 6.43372 20.5726Z" fill="#2E373D"/>
<path d="M5.12647 19.8212C5.12647 20.7517 4.56097 21.1793 3.86304 20.7764C3.16541 20.3736 2.59961 19.2927 2.59961 18.3622C2.59961 17.4317 3.16541 17.0041 3.86304 17.407C4.56097 17.8098 5.12647 18.8907 5.12647 19.8212Z" fill="#CECECE"/>
<path d="M4.54858 19.4855C4.54858 19.9903 4.24158 20.2219 3.86316 20.0034C3.48474 19.7849 3.17773 19.1986 3.17773 18.6942C3.17773 18.1894 3.48474 17.9575 3.86316 18.176C4.24158 18.3945 4.54858 18.9807 4.54858 19.4855Z" fill="#627681"/>
<path d="M20.1907 23.1888L30.357 17.2214L28.8073 13.5419C28.5967 13.0417 27.9949 12.8394 27.5247 13.111L19.2584 17.8833C18.717 18.1958 18.486 18.8575 18.7148 19.4391L20.1907 23.1888Z" fill="#3B2F25"/>
<path d="M18.5755 23.2035L17.1888 19.5215C16.9272 18.8272 16.4365 18.2431 15.7978 17.8659L10.2363 14.5819C9.64482 14.2328 8.92308 14.1849 8.29076 14.4529L7.43016 14.8175C6.62877 15.1572 6.56072 16.2668 7.3145 16.702L18.5755 23.2035Z" fill="#24170C"/>
<path d="M29.5331 16.9057L28.1467 13.2235C28.1177 13.1469 28.0851 13.0721 28.0506 12.9982C27.8745 12.9833 27.6917 13.0175 27.5251 13.1136L25.2451 14.4298L29.5331 16.9057Z" fill="#625951"/>
<path d="M38.4186 22.4636C38.3282 22.4636 38.2379 22.4893 38.1506 22.5396L37.1417 23.1222L35.4248 23.8879L36.8387 25.7427C36.9272 25.8331 37.0435 25.8798 37.1588 25.8798C37.2491 25.8798 37.3395 25.8541 37.4268 25.8035L38.436 25.2209C38.6972 25.0701 38.8943 24.7045 38.8943 24.3707V23.0255C38.8943 22.6565 38.6548 22.4636 38.4186 22.4636Z" fill="#872E02"/>
<path d="M38.4178 22.4636C38.3275 22.4636 38.2372 22.4893 38.1499 22.5396L37.141 23.1222C36.8795 23.2729 36.6826 23.6385 36.6826 23.9724V25.3179C36.6826 25.6869 36.9219 25.8798 37.1581 25.8798C37.2484 25.8798 37.3387 25.8541 37.426 25.8038L38.4352 25.2212C38.6965 25.0701 38.8936 24.7048 38.8936 24.371V23.0255C38.8936 22.6565 38.6541 22.4636 38.4178 22.4636Z" fill="#E33400"/>
<path d="M38.2925 24.9752L37.2836 25.5578C37.1091 25.6585 36.9678 25.5514 36.9678 25.3192V23.9736C36.9678 23.7411 37.1091 23.471 37.2836 23.3703L38.2925 22.7877C38.4671 22.6873 38.6084 22.7941 38.6084 23.0267V24.3719C38.6084 24.6044 38.4671 24.8745 38.2925 24.9752Z" fill="white"/>
<path d="M16.2863 24.4166L7.84668 18.9011V21.9507L16.2863 26.485V24.4166Z" fill="#872E02"/>
<path d="M7.84668 18.9011L11.4508 21.2565L9.03534 20.088V22.2056L11.4508 23.8871L7.84668 21.9507V18.9011Z" fill="#23292E"/>
<path d="M30.7873 26.9219C30.697 26.9219 30.6069 26.9475 30.5193 26.9982L29.5104 27.5807L27.1572 28.6299L29.2062 30.2004C29.295 30.2913 29.4116 30.3383 29.5275 30.3383C29.6179 30.3383 29.7082 30.3127 29.7955 30.262L30.8047 29.6794C31.0659 29.5287 31.2631 29.1631 31.2631 28.8292V27.484C31.2631 27.1151 31.0238 26.9219 30.7873 26.9219Z" fill="#872E02"/>
<path d="M30.787 26.9219C30.6967 26.9219 30.6066 26.9475 30.519 26.9982L29.5101 27.5807C29.2489 27.7315 29.0518 28.0971 29.0518 28.431V29.7762C29.0518 30.1451 29.291 30.3383 29.5275 30.3383C29.6179 30.3383 29.7079 30.3127 29.7955 30.262L30.8044 29.6794C31.0659 29.5287 31.2628 29.1631 31.2628 28.8292V27.484C31.2628 27.1151 31.0235 26.9219 30.787 26.9219Z" fill="#E33400"/>
<path d="M30.6617 29.4337L29.6525 30.0163C29.4782 30.117 29.3369 30.0099 29.3369 29.7774V28.4322C29.3369 28.1996 29.4782 27.9295 29.6525 27.8288L30.6617 27.2462C30.8359 27.1458 30.9772 27.2526 30.9772 27.4849V28.8304C30.9772 29.0629 30.8359 29.333 30.6617 29.4337Z" fill="white"/>
</g>
<defs>
<clipPath id="clip0_80_1448">
<rect width="40.0002" height="40" fill="white"/>
</clipPath>
</defs>
</svg>
