<svg width="28" height="28" viewBox="0 0 28 28" fill="none" xmlns="http://www.w3.org/2000/svg">
<path d="M24.5 22C24.7761 22 25 21.7761 25 21.5C25 21.2239 24.7761 21 24.5 21C24.2239 21 24 21.2239 24 21.5C24 21.7761 24.2239 22 24.5 22Z" stroke="white" stroke-width="2" stroke-linecap="round" stroke-linejoin="round"/>
<path d="M15.5 22C15.7761 22 16 21.7761 16 21.5C16 21.2239 15.7761 21 15.5 21C15.2239 21 15 21.2239 15 21.5C15 21.7761 15.2239 22 15.5 22Z" stroke="white" stroke-width="2" stroke-linecap="round" stroke-linejoin="round"/>
<path d="M9 6H12.2727L14.4655 16.7117C14.5403 17.08 14.7452 17.4109 15.0444 17.6464C15.3435 17.8818 15.7178 18.0069 16.1018 17.9997H24.0545C24.4385 18.0069 24.8129 17.8818 25.112 17.6464C25.4112 17.4109 25.6161 17.08 25.6909 16.7117L27 9.9999H13.0909" stroke="white" stroke-width="2" stroke-linecap="round" stroke-linejoin="round"/>
<path d="M10 14.0728V15.9273H6.92727H5.07273H2V14.0728H5.07273H6.92727H10Z" fill="white"/>
</svg>
