<svg width="26" height="26" viewBox="0 0 26 26" fill="none" xmlns="http://www.w3.org/2000/svg">
<path d="M25.0996 14.0268C24.9168 11.9747 24.6156 11.5751 24.5019 11.4248C24.2404 11.0774 23.8219 10.8504 23.3791 10.6123C23.3541 10.599 23.3324 10.5801 23.3159 10.5571C23.2994 10.5341 23.2885 10.5075 23.284 10.4796C23.2796 10.4516 23.2816 10.423 23.2901 10.3959C23.2986 10.3689 23.3132 10.3442 23.3329 10.3238C23.4149 10.2407 23.4779 10.1407 23.5176 10.0309C23.5573 9.92105 23.5728 9.80392 23.5629 9.68754C23.5438 9.48117 23.4479 9.28951 23.2941 9.15059C23.1403 9.01166 22.9399 8.9356 22.7327 8.9375H21.9405C21.9065 8.9377 21.8726 8.93991 21.8389 8.9441C21.8158 8.93407 21.7918 8.92608 21.7673 8.92023C21.2981 7.92848 20.6557 6.57059 19.3242 5.90789C17.3493 4.92578 13.7114 4.875 13.0004 4.875C12.2895 4.875 8.65152 4.92578 6.67918 5.90637C5.3477 6.56906 4.70531 7.92695 4.23609 8.91871L4.23203 8.92684C4.20863 8.93013 4.18565 8.93592 4.16348 8.9441C4.12978 8.93991 4.09587 8.9377 4.06191 8.9375H3.2682C3.06096 8.9356 2.86057 9.01166 2.70678 9.15059C2.55299 9.28951 2.45703 9.48117 2.43793 9.68754C2.42891 9.80365 2.44507 9.92033 2.48529 10.0296C2.52552 10.1389 2.58887 10.2382 2.67102 10.3208C2.69067 10.3412 2.70531 10.3659 2.71379 10.3929C2.72226 10.4199 2.72434 10.4486 2.71986 10.4765C2.71538 10.5045 2.70446 10.531 2.68797 10.5541C2.67147 10.5771 2.64985 10.596 2.62481 10.6092C2.18199 10.8489 1.76152 11.0759 1.50203 11.4217C1.38828 11.5741 1.08766 11.9717 0.904336 14.0238C0.802774 15.1785 0.787539 16.3739 0.867266 17.1438C1.03434 18.7434 1.34766 19.7102 1.36086 19.7504C1.40894 19.8963 1.49744 20.0257 1.61609 20.1234C1.73474 20.2211 1.87867 20.2832 2.03117 20.3023V20.3125C2.03117 20.528 2.11677 20.7347 2.26915 20.887C2.42152 21.0394 2.62818 21.125 2.84367 21.125H5.68742C5.90291 21.125 6.10957 21.0394 6.26195 20.887C6.41432 20.7347 6.49992 20.528 6.49992 20.3125C6.93715 20.3125 7.24133 20.2343 7.56379 20.151C8.02934 20.0256 8.50521 19.9421 8.98566 19.9017C10.535 19.7539 12.0757 19.7031 13.0004 19.7031C13.9064 19.7031 15.5151 19.7539 17.067 19.9017C17.5493 19.9422 18.0271 20.026 18.4945 20.152C18.8032 20.2312 19.0962 20.3044 19.502 20.312C19.502 20.5275 19.5876 20.7341 19.7399 20.8865C19.8923 21.0389 20.099 21.1245 20.3145 21.1245H23.1582C23.3737 21.1245 23.5804 21.0389 23.7327 20.8865C23.8851 20.7341 23.9707 20.5275 23.9707 20.312V20.3059C24.1236 20.2871 24.2679 20.2252 24.387 20.1275C24.506 20.0297 24.5948 19.9002 24.643 19.7539C24.6562 19.7138 24.9696 18.7469 25.1366 17.1473C25.2164 16.377 25.2022 15.1836 25.0996 14.0268ZM5.70469 9.6134C6.11094 8.75012 6.57559 7.77309 7.40281 7.36125C8.5982 6.76609 11.0758 6.49797 13.0004 6.49797C14.925 6.49797 17.4027 6.76406 18.598 7.36125C19.4253 7.77309 19.8879 8.75062 20.2962 9.6134L20.347 9.72359C20.3766 9.78633 20.3898 9.85562 20.3851 9.92487C20.3804 9.99412 20.358 10.061 20.3201 10.1192C20.2823 10.1773 20.2301 10.2248 20.1687 10.2571C20.1072 10.2893 20.0385 10.3053 19.9691 10.3035C18.2817 10.2578 14.727 10.1116 13.0004 10.1116C11.2739 10.1116 7.71918 10.2614 6.02918 10.3071C5.9598 10.3089 5.89111 10.2929 5.82966 10.2606C5.76821 10.2283 5.71606 10.1809 5.67817 10.1227C5.64029 10.0646 5.61793 9.99767 5.61324 9.92842C5.60855 9.85918 5.62167 9.78988 5.65137 9.72715C5.66914 9.68957 5.68793 9.65148 5.70469 9.6134ZM6.31051 13.6571C5.43697 13.7622 4.55785 13.8141 3.67801 13.8125C3.13973 13.8125 2.58469 13.6602 2.4816 13.1808C2.41102 12.8583 2.41863 12.677 2.45672 12.4947C2.48871 12.3398 2.53949 12.2271 2.7934 12.1875C3.45356 12.0859 3.82274 12.2134 4.90336 12.5318C5.61988 12.7425 6.13684 13.0234 6.43137 13.2458C6.57914 13.3555 6.50043 13.6419 6.31051 13.6571ZM17.5525 17.8212C16.8842 17.8973 15.5476 17.8694 13.0157 17.8694C10.4837 17.8694 9.14766 17.8973 8.47938 17.8212C7.78977 17.7445 6.91074 17.0925 7.51098 16.5115C7.91063 16.1286 8.84297 15.8422 10.0846 15.6812C11.3262 15.5203 11.8518 15.4375 13.0106 15.4375C14.1694 15.4375 14.6417 15.4883 15.9366 15.6818C17.2315 15.8752 18.2101 16.1652 18.5102 16.512C19.0576 17.1336 18.2416 17.7404 17.5525 17.8242V17.8212ZM23.5193 13.1803C23.4177 13.6617 22.8591 13.812 22.3229 13.812C21.4262 13.8122 20.5302 13.7603 19.6396 13.6566C19.4842 13.6419 19.4121 13.3692 19.5695 13.2453C19.8595 13.0173 20.382 12.742 21.0975 12.5313C22.1781 12.2129 22.8012 12.0854 23.3364 12.1916C23.467 12.2175 23.536 12.3576 23.5441 12.4455C23.58 12.6901 23.5715 12.9391 23.5193 13.1808V13.1803Z" fill="#F04E27"/>
</svg>
