<svg width="26" height="26" viewBox="0 0 26 26" fill="none" xmlns="http://www.w3.org/2000/svg">
<path d="M12.811 17.8379C12.4144 17.8379 12.0918 18.1605 12.0918 18.5571C12.0918 18.9536 12.4144 19.2763 12.811 19.2763C13.2077 19.2763 13.5303 18.9537 13.5303 18.5571C13.5303 18.1605 13.2077 17.8379 12.811 17.8379Z" fill="#F04E27"/>
<path d="M12.8108 14.1133C10.3606 14.1133 8.36719 16.1067 8.36719 18.5569C8.36719 21.0072 10.3606 23.0005 12.8108 23.0005C15.2611 23.0005 17.2545 21.0071 17.2545 18.5569C17.2545 16.1067 15.2611 14.1133 12.8108 14.1133ZM12.8108 20.6055C11.6812 20.6055 10.7622 19.6865 10.7622 18.5569C10.7622 17.4273 11.6812 16.5084 12.8108 16.5084C13.9404 16.5084 14.8594 17.4274 14.8594 18.5569C14.8594 19.6865 13.9404 20.6055 12.8108 20.6055Z" fill="#F04E27"/>
<path d="M6.27495 11.9101V10.4277C4.74963 10.9579 3.4671 12.0114 2.64355 13.3724H4.81264C5.61895 13.3724 6.27495 12.7164 6.27495 11.9101Z" fill="#F04E27"/>
<path d="M10.135 8.71955H12.015L6.49015 3.19469C6.23062 2.9351 5.80974 2.9351 5.55015 3.19469C5.29057 3.45427 5.29057 3.8751 5.55015 4.13468L10.135 8.71955Z" fill="#F04E27"/>
<path d="M24.1499 10.2426C24.0252 10.1179 23.8561 10.0479 23.6798 10.0479H8.5248C8.21279 10.0479 7.90575 10.0692 7.60465 10.1097V11.909C7.60465 13.4483 6.35229 14.7006 4.81297 14.7006H2.02307C1.78542 15.3961 1.65625 16.1414 1.65625 16.9164V18.4672C1.65625 18.8343 1.95385 19.1319 2.32094 19.1319H7.06639C7.04751 18.9424 7.03772 18.7503 7.03772 18.5559C7.03772 15.3726 9.62751 12.7829 12.8107 12.7829C15.9939 12.7829 18.5837 15.3726 18.5837 18.5559C18.5837 18.7503 18.5739 18.9424 18.5551 19.1319H23.6789C24.046 19.1319 24.3435 18.8343 24.3436 18.4673L24.3445 10.7126C24.3445 10.5363 24.2745 10.3672 24.1499 10.2426Z" fill="#F04E27"/>
<path d="M24.3442 4.42152C24.3442 4.05444 24.0466 3.75684 23.6796 3.75684H19.1984C19.0221 3.75684 18.8531 3.82689 18.7284 3.95154L13.96 8.71994H24.3442V4.42152Z" fill="#F04E27"/>
</svg>
