<svg width="28" height="28" viewBox="0 0 28 28" fill="none" xmlns="http://www.w3.org/2000/svg">
<path fill-rule="evenodd" clip-rule="evenodd" d="M6.09502 3.33607C5.85822 3.33556 5.62995 3.36236 5.41303 3.41332C5.11567 2.75793 4.7229 2.16994 4.27616 1.72321C3.51793 0.964976 2.32209 0.666016 0.666687 0.666016V3.33268C1.67795 3.33268 2.25989 3.47817 2.39054 3.60882C2.89451 4.11279 3.33335 5.13677 3.33335 5.99935L3.34675 6.18791L4.65325 15.3334C2.46716 15.4468 0.773617 17.1444 0.668325 19.2666L0.666687 20.666C0.795782 22.8579 2.48369 24.5441 4.59101 24.6639L4.8937 24.6643C5.44234 26.2188 6.92443 27.3327 8.66669 27.3327C10.4083 27.3327 11.89 26.2196 12.4391 24.666H15.561C16.1101 26.2196 17.5917 27.3327 19.3334 27.3327C21.5425 27.3327 23.3334 25.5418 23.3334 23.3327C23.3334 21.1235 21.5425 19.3327 19.3334 19.3327C17.5917 19.3327 16.1101 20.4458 15.561 21.9993H12.4391C11.89 20.4458 10.4083 19.3327 8.66669 19.3327C6.92506 19.3327 5.44341 20.4458 4.89429 21.9993H4.66669C3.9867 21.9585 3.37674 21.3492 3.33096 20.5862L3.33335 19.3327C3.36931 18.6411 3.9751 18.0353 4.73276 17.9977L7.36494 17.9984L7.38402 17.9993H20.8225L21.0193 17.9369C22.0303 17.6161 22.8395 16.8549 23.2227 15.8694L23.3632 15.5914L23.8196 14.6872C24.2917 13.7512 24.7639 12.8137 25.224 11.8978C26.351 9.65411 27.0597 8.22823 27.2167 7.87809C28.0228 6.07995 26.3899 4.69597 24.721 4.6665L6.09502 3.33607ZM20.3593 15.3324H7.48385C7.39823 15.3086 7.33299 15.2361 7.32022 15.1458L6.0137 6.00008L24.5245 7.32567C24.2006 7.9862 23.6119 9.16598 22.841 10.7006L22.8217 10.739C22.3817 11.6149 21.9102 12.5512 21.4387 13.4859L20.9829 14.3889L20.8101 14.7309L20.7451 14.8821C20.6754 15.0761 20.5371 15.2356 20.3593 15.3324ZM19.3334 24.666C20.0697 24.666 20.6667 24.0691 20.6667 23.3327C20.6667 22.5963 20.0697 21.9993 19.3334 21.9993C18.597 21.9993 18 22.5963 18 23.3327C18 24.0691 18.597 24.666 19.3334 24.666ZM10 23.3327C10 24.0691 9.40307 24.666 8.66669 24.666C7.93031 24.666 7.33335 24.0691 7.33335 23.3327C7.33335 22.5963 7.93031 21.9993 8.66669 21.9993C9.40307 21.9993 10 22.5963 10 23.3327Z" fill="white"/>
</svg>
