<svg width="36" height="36" viewBox="0 0 36 36" fill="none" xmlns="http://www.w3.org/2000/svg">
<rect width="36" height="36" rx="18" fill="#F04D26"/>
<g opacity="0.8" clip-path="url(#clip0)">
<path d="M29.3399 11.004L26.7864 11.004C25.8501 11.004 25.6745 11.4349 25.5628 12.0094L23.4934 22.4895C23.4934 22.4895 23.2167 23.0534 22.6848 23.0534C19.6897 23.0534 10.7098 23.0534 10.7098 23.0534C10.3427 23.0534 10.0449 23.3513 10.0449 23.7184C10.0449 24.0854 10.3428 24.3833 10.7098 24.3833L11.1407 24.3833C11.6035 24.3833 11.4386 24.6546 11.4067 24.8036C11.3801 24.9206 11.3695 25.043 11.3695 25.1707C11.3695 26.1761 12.1887 26.9954 13.1942 26.9954C14.1996 26.9954 15.0189 26.1761 15.0189 25.1707C15.0189 25.043 15.0029 24.9153 14.9816 24.793C14.9497 24.6493 14.8114 24.378 15.2104 24.378L19.0034 24.378C19.2428 24.378 19.1524 24.5483 19.1258 24.6387C19.0779 24.8036 19.046 24.9792 19.046 25.1654C19.046 26.1708 19.8652 26.9901 20.8707 26.9901C21.8761 26.9901 22.6954 26.1708 22.6954 25.1654C22.6954 24.9898 22.6687 24.8196 22.6262 24.66C22.5996 24.5642 22.5411 24.3781 22.7964 24.3781L23.4455 24.3781C24.3977 24.3781 24.5573 23.9472 24.669 23.3726L26.8023 12.584C26.8023 12.584 26.8501 12.3287 27.1746 12.3287C27.7173 12.3287 29.3345 12.3287 29.3345 12.3287C29.7016 12.3287 29.9995 12.0308 29.9995 11.6638C30.0049 11.3019 29.707 11.004 29.3399 11.004Z" fill="white"/>
<path d="M23.85 12.403C23.7064 12.2274 23.4883 12.1317 23.2489 12.1317L10.7899 12.1317C10.5558 12.1317 10.3377 12.2274 10.1887 12.3977C10.0398 12.5679 9.97593 12.7967 10.0078 13.0307L11.1941 21.1275C11.258 21.5744 11.6623 21.9202 12.1091 21.9202L21.4774 21.9202C21.9189 21.9202 22.3286 21.5797 22.4137 21.1488L24.0043 13.0414C24.0522 12.8073 23.9936 12.5785 23.85 12.403ZM18.9239 17.776L18.0248 17.776C18.0248 17.776 17.8227 17.7813 17.8227 17.9356C17.8227 18.1696 17.8227 18.8772 17.8227 18.8772C17.8227 19.3187 17.4662 19.6805 17.0194 19.6805C16.5725 19.6805 16.2161 19.324 16.2161 18.8772C16.2161 18.8772 16.2161 18.1803 16.2161 17.9462C16.2161 17.76 16.0405 17.776 16.0405 17.776L15.1095 17.776C14.668 17.776 14.3063 17.4195 14.3063 16.9727C14.3063 16.5311 14.6627 16.1694 15.1095 16.1694L16.0139 16.1694C16.0139 16.1694 16.2107 16.18 16.2107 15.9832C16.2107 15.7544 16.2107 15.0628 16.2107 15.0628C16.2107 14.6213 16.5672 14.2596 17.014 14.2596C17.4609 14.2596 17.8173 14.616 17.8173 15.0628C17.8173 15.0628 17.8173 15.797 17.8173 16.0417C17.8173 16.1747 17.9876 16.1641 17.9876 16.1641L18.9185 16.1641C19.3601 16.1641 19.7218 16.5205 19.7218 16.9673C19.7271 17.4142 19.3654 17.776 18.9239 17.776Z" fill="white"/>
</g>
<defs>
<clipPath id="clip0">
<rect width="20" height="20" fill="white" transform="translate(10 9)"/>
</clipPath>
</defs>
</svg>
