<svg width="32" height="32" viewBox="0 0 32 32" fill="none" xmlns="http://www.w3.org/2000/svg">
<g id="cart">
<path id="icon" fill-rule="evenodd" clip-rule="evenodd" d="M8.09483 5.33668C7.85803 5.33617 7.62976 5.36297 7.41285 5.41393C7.11549 4.75854 6.72271 4.17055 6.27598 3.72382C5.51775 2.96559 4.32191 2.66663 2.6665 2.66663V5.33329C3.67777 5.33329 4.2597 5.47878 4.39036 5.60944C4.89432 6.1134 5.33317 7.13738 5.33317 7.99996L5.34657 8.18852L6.65306 17.334C4.46698 17.4474 2.77343 19.1451 2.66814 21.2672L2.6665 22.6666C2.7956 24.8585 4.48351 26.5447 6.59082 26.6645L6.89352 26.6649C7.44215 28.2194 8.92425 29.3333 10.6665 29.3333C12.4081 29.3333 13.8898 28.2202 14.4389 26.6666H17.5608C18.1099 28.2202 19.5915 29.3333 21.3332 29.3333C23.5423 29.3333 25.3332 27.5424 25.3332 25.3333C25.3332 23.1242 23.5423 21.3333 21.3332 21.3333C19.5915 21.3333 18.1099 22.4464 17.5608 24H14.4389C13.8898 22.4464 12.4081 21.3333 10.6665 21.3333C8.92488 21.3333 7.44323 22.4464 6.89411 24H6.6665C5.98652 23.9591 5.37655 23.3498 5.33078 22.5868L5.33317 21.3333C5.36912 20.6417 5.97492 20.0359 6.73258 19.9983L9.36476 19.999L9.38384 20H22.8223L23.0191 19.9375C24.0301 19.6167 24.8394 18.8555 25.2225 17.87L25.363 17.592L25.8194 16.6878C26.2915 15.7519 26.7637 14.8143 27.2238 13.8984C28.3508 11.6547 29.0596 10.2288 29.2165 9.8787C30.0226 8.08056 28.3897 6.69658 26.7208 6.66711L8.09483 5.33668ZM22.3591 17.333H9.48366C9.39805 17.3092 9.33281 17.2367 9.32004 17.1464L8.01351 8.00069L26.5243 9.32628C26.2004 9.98681 25.6117 11.1666 24.8409 12.7012L24.8216 12.7396C24.3815 13.6155 23.91 14.5518 23.4385 15.4865L22.9827 16.3895L22.8099 16.7315L22.7449 16.8827C22.6752 17.0767 22.5369 17.2362 22.3591 17.333ZM21.3332 26.6666C22.0695 26.6666 22.6665 26.0697 22.6665 25.3333C22.6665 24.5969 22.0695 24 21.3332 24C20.5968 24 19.9998 24.5969 19.9998 25.3333C19.9998 26.0697 20.5968 26.6666 21.3332 26.6666ZM11.9998 25.3333C11.9998 26.0697 11.4029 26.6666 10.6665 26.6666C9.93012 26.6666 9.33317 26.0697 9.33317 25.3333C9.33317 24.5969 9.93012 24 10.6665 24C11.4029 24 11.9998 24.5969 11.9998 25.3333Z" fill="white"/>
</g>
</svg>
