<svg width="16" height="16" viewBox="0 0 16 16" fill="none" xmlns="http://www.w3.org/2000/svg">
<g clip-path="url(#clip0_2364_4281)">
<path d="M15.8608 3.59071C15.7363 3.43122 15.5453 3.33801 15.3429 3.33801H2.83262L2.64666 1.26634C2.61625 0.927557 2.33231 0.667969 1.99218 0.667969H0.657105C0.294195 0.667969 0 0.962164 0 1.32507C0 1.68798 0.294195 1.98218 0.657105 1.98218H1.39143L2.11168 10.0063C2.11184 10.0158 2.11137 10.0251 2.1119 10.0346C2.11337 10.0598 2.11666 10.0845 2.12085 10.1088L2.1472 10.4021C2.1477 10.4077 2.14826 10.4132 2.14892 10.4187C2.22877 11.1105 2.58233 11.71 3.09359 12.115C2.82868 12.4533 2.67016 12.8787 2.67016 13.3407C2.67016 14.4392 3.56385 15.3329 4.66231 15.3329C5.76081 15.3329 6.6545 14.4392 6.6545 13.3407C6.6545 13.1027 6.61241 12.8744 6.53556 12.6627H10.132C10.0551 12.8744 10.0131 13.1027 10.0131 13.3407C10.0131 14.4392 10.9067 15.3329 12.0052 15.3329C13.1037 15.3329 13.9974 14.4392 13.9974 13.3407C13.9974 12.2422 13.1037 11.3485 12.0052 11.3485H4.66676C4.16761 11.3485 3.73264 11.0473 3.54489 10.6086L14.0463 9.99141C14.333 9.97458 14.5756 9.77344 14.6452 9.49483L15.9804 4.15444C16.0294 3.95819 15.9854 3.75023 15.8608 3.59071Z" fill="white"/>
</g>
<defs>
<clipPath id="clip0_2364_4281">
<rect width="16" height="16" fill="white"/>
</clipPath>
</defs>
</svg>
