<svg width="24" height="25" viewBox="0 0 24 25" fill="none" xmlns="http://www.w3.org/2000/svg">
<path fill-rule="evenodd" clip-rule="evenodd" d="M6.07125 4.50254C5.89365 4.50216 5.72244 4.52226 5.55976 4.56048C5.33674 4.06893 5.04216 3.62794 4.70711 3.29289C4.13843 2.72422 3.24155 2.5 2 2.5V4.5C2.75845 4.5 3.1949 4.60911 3.29289 4.70711C3.67086 5.08508 4 5.85306 4 6.5L4.01005 6.64142L4.98992 13.5005C3.35036 13.5856 2.0802 14.8588 2.00123 16.4504L2 17.5C2.09682 19.1439 3.36275 20.4085 4.94324 20.4984L5.17026 20.4987C5.58174 21.6646 6.69331 22.5 8 22.5C9.30622 22.5 10.4175 21.6652 10.8293 20.5H13.1707C13.5825 21.6652 14.6938 22.5 16 22.5C17.6569 22.5 19 21.1569 19 19.5C19 17.8431 17.6569 16.5 16 16.5C14.6938 16.5 13.5825 17.3348 13.1707 18.5H10.8293C10.4175 17.3348 9.30622 16.5 8 16.5C6.69378 16.5 5.58254 17.3348 5.17071 18.5H5C4.49001 18.4694 4.03254 18.0124 3.99821 17.4401L4 16.5C4.02697 15.9813 4.48131 15.527 5.04955 15.4988L7.02369 15.4993L7.038 15.5H17.1169L17.2645 15.4532C18.0227 15.2126 18.6296 14.6416 18.917 13.9025L19.0224 13.694L19.3647 13.0159C19.7188 12.3139 20.0729 11.6108 20.418 10.9238C21.2632 9.24107 21.7948 8.17166 21.9125 7.90906C22.5171 6.56045 21.2924 5.52246 20.0407 5.50036L6.07125 4.50254ZM16.7694 13.4998H7.11287C7.04866 13.482 6.99973 13.4276 6.99015 13.3598L6.01026 6.50055L19.8934 7.49474C19.6505 7.99014 19.2089 8.87498 18.6308 10.0259L18.6163 10.0547C18.2863 10.7117 17.9326 11.4139 17.579 12.1149L17.2371 12.7922L17.1076 13.0487L17.0588 13.162C17.0065 13.3076 16.9028 13.4272 16.7694 13.4998ZM16 20.5C16.5523 20.5 17 20.0523 17 19.5C17 18.9477 16.5523 18.5 16 18.5C15.4477 18.5 15 18.9477 15 19.5C15 20.0523 15.4477 20.5 16 20.5ZM9 19.5C9 20.0523 8.55228 20.5 8 20.5C7.44772 20.5 7 20.0523 7 19.5C7 18.9477 7.44772 18.5 8 18.5C8.55228 18.5 9 18.9477 9 19.5Z" fill="white"/>
</svg>
