<svg width="26" height="26" viewBox="0 0 26 26" fill="none" xmlns="http://www.w3.org/2000/svg">
<path d="M6.5 13.3809C4.81995 13.3809 3.45312 14.7477 3.45312 16.4277C3.45312 18.1078 4.81995 19.4746 6.5 19.4746C8.18005 19.4746 9.54688 18.1078 9.54688 16.4277C9.54688 14.7477 8.18005 13.3809 6.5 13.3809Z" fill="#F04E27"/>
<path d="M19.8555 13.3809C18.1754 13.3809 16.8086 14.7477 16.8086 16.4277C16.8086 18.1078 18.1754 19.4746 19.8555 19.4746C21.5355 19.4746 22.9023 18.1078 22.9023 16.4277C22.9023 14.7477 21.5355 13.3809 19.8555 13.3809Z" fill="#F04E27"/>
<path d="M22.7833 9.61848L23.4721 8.92968C23.6322 8.76957 23.8452 8.68131 24.0717 8.68131C24.2982 8.68131 24.5111 8.76952 24.6713 8.92968L25.7485 7.85246C25.3006 7.40457 24.7051 7.15787 24.0717 7.15787C23.4382 7.15787 22.8427 7.40452 22.3949 7.85246L21.2536 8.99371L19.1966 6.52539H10.3271L6.26458 10.0801H3.55469C1.59463 10.0801 0 11.6747 0 13.6348C0 15.1203 0.916398 16.3952 2.21325 16.9258C2.19436 16.7622 2.18359 16.5963 2.18359 16.4277C2.18359 14.0477 4.11993 12.1113 6.5 12.1113C8.88007 12.1113 10.8164 14.0477 10.8164 16.4277C10.8164 16.6877 10.792 16.942 10.7477 17.1895H15.6078C15.5635 16.942 15.5391 16.6877 15.5391 16.4277C15.5391 14.0477 17.4755 12.1113 19.8555 12.1113C22.2356 12.1113 24.1719 14.0477 24.1719 16.4277C24.1719 16.4976 24.1699 16.5671 24.1666 16.6361C25.265 15.9672 26 14.7583 26 13.3809C26 11.4821 24.6032 9.90372 22.7833 9.61848Z" fill="#F04E27"/>
</svg>
