<svg width="26" height="26" viewBox="0 0 26 26" fill="none" xmlns="http://www.w3.org/2000/svg">
<path d="M2.4375 18.6875H23.5625V20.3125H2.4375V18.6875ZM4.0625 21.125H21.9375V22.75H4.0625V21.125ZM24.375 8.9375C23.0825 8.93602 21.8434 8.42193 20.9295 7.50801C20.0156 6.59409 19.5015 5.35498 19.5 4.0625V3.25H6.5V4.0625C6.49852 5.35498 5.98443 6.59409 5.07051 7.50801C4.15659 8.42193 2.91748 8.93602 1.625 8.9375H0.8125V12.1875H1.625C2.91748 12.189 4.15659 12.7031 5.07051 13.617C5.98443 14.5309 6.49852 15.77 6.5 17.0625V17.875H19.5V17.0625C19.5015 15.77 20.0156 14.5309 20.9295 13.617C21.8434 12.7031 23.0825 12.189 24.375 12.1875H25.1875V8.9375H24.375ZM13 15.4375C12.0358 15.4375 11.0933 15.1516 10.2916 14.6159C9.48991 14.0802 8.86506 13.3189 8.49609 12.4281C8.12711 11.5373 8.03057 10.5571 8.21867 9.61143C8.40677 8.66578 8.87107 7.79714 9.55285 7.11535C10.2346 6.43357 11.1033 5.96927 12.0489 5.78117C12.9946 5.59307 13.9748 5.68961 14.8656 6.05859C15.7564 6.42756 16.5177 7.05241 17.0534 7.85409C17.5891 8.65578 17.875 9.59832 17.875 10.5625C17.8735 11.855 17.3594 13.0941 16.4455 14.008C15.5316 14.9219 14.2925 15.436 13 15.4375Z" fill="#F04E27"/>
<path d="M4.875 4.0625V3.25H0.8125V7.3125H1.625C2.48666 7.31156 3.31277 6.96885 3.92206 6.35956C4.53135 5.75027 4.87406 4.92416 4.875 4.0625ZM1.625 13.8125H0.8125V17.875H4.875V17.0625C4.87406 16.2008 4.53135 15.3747 3.92206 14.7654C3.31277 14.1562 2.48666 13.8134 1.625 13.8125ZM24.375 7.3125H25.1875V3.25H21.125V4.0625C21.1259 4.92416 21.4687 5.75027 22.0779 6.35956C22.6872 6.96885 23.5133 7.31156 24.375 7.3125ZM21.125 17.0625V17.875H25.1875V13.8125H24.375C23.5133 13.8134 22.6872 14.1562 22.0779 14.7654C21.4687 15.3747 21.1259 16.2008 21.125 17.0625Z" fill="#F04E27"/>
<path d="M13 13.8125C14.7949 13.8125 16.25 12.3574 16.25 10.5625C16.25 8.76757 14.7949 7.3125 13 7.3125C11.2051 7.3125 9.75 8.76757 9.75 10.5625C9.75 12.3574 11.2051 13.8125 13 13.8125Z" fill="#F04E27"/>
</svg>
