<svg width="26" height="26" viewBox="0 0 26 26" fill="none" xmlns="http://www.w3.org/2000/svg">
    <g opacity="0.9">
        <path d="M25.0993 14.0268C24.9165 11.9747 24.6154 11.5751 24.5016 11.4248C24.2401 11.0774 23.8217 10.8504 23.3789 10.6123C23.3538 10.599 23.3322 10.5801 23.3157 10.5571C23.2992 10.5341 23.2883 10.5075 23.2838 10.4796C23.2793 10.4516 23.2814 10.423 23.2899 10.3959C23.2984 10.3689 23.313 10.3442 23.3326 10.3238C23.4147 10.2407 23.4777 10.1407 23.5174 10.0309C23.5571 9.92105 23.5725 9.80392 23.5627 9.68754C23.5436 9.48117 23.4476 9.28951 23.2938 9.15059C23.14 9.01166 22.9397 8.9356 22.7324 8.9375H21.9402C21.9063 8.9377 21.8724 8.93991 21.8387 8.9441C21.8155 8.93407 21.7916 8.92608 21.7671 8.92023C21.2978 7.92848 20.6555 6.57059 19.324 5.90789C17.3491 4.92578 13.7111 4.875 13.0002 4.875C12.2892 4.875 8.65128 4.92578 6.67894 5.90637C5.34745 6.56906 4.70507 7.92695 4.23585 8.91871L4.23179 8.92684C4.20839 8.93013 4.1854 8.93592 4.16323 8.9441C4.12954 8.93991 4.09562 8.9377 4.06167 8.9375H3.26796C3.06072 8.9356 2.86033 9.01166 2.70654 9.15059C2.55275 9.28951 2.45678 9.48117 2.43769 9.68754C2.42867 9.80365 2.44482 9.92033 2.48505 10.0296C2.52528 10.1389 2.58863 10.2382 2.67077 10.3208C2.69042 10.3412 2.70507 10.3659 2.71354 10.3929C2.72202 10.4199 2.7241 10.4486 2.71962 10.4765C2.71514 10.5045 2.70422 10.531 2.68772 10.5541C2.67122 10.5771 2.6496 10.596 2.62456 10.6092C2.18175 10.8489 1.76128 11.0759 1.50179 11.4217C1.38804 11.5741 1.08741 11.9717 0.904092 14.0238C0.80253 15.1785 0.787295 16.3739 0.867022 17.1438C1.03409 18.7434 1.34741 19.7102 1.36062 19.7504C1.40869 19.8963 1.4972 20.0257 1.61585 20.1234C1.7345 20.2211 1.87843 20.2832 2.03093 20.3023V20.3125C2.03093 20.528 2.11653 20.7347 2.2689 20.887C2.42128 21.0394 2.62794 21.125 2.84343 21.125H5.68718C5.90267 21.125 6.10933 21.0394 6.2617 20.887C6.41408 20.7347 6.49968 20.528 6.49968 20.3125C6.9369 20.3125 7.24108 20.2343 7.56355 20.151C8.0291 20.0256 8.50496 19.9421 8.98542 19.9017C10.5348 19.7539 12.0755 19.7031 13.0002 19.7031C13.9061 19.7031 15.5149 19.7539 17.0667 19.9017C17.5491 19.9422 18.0268 20.026 18.4942 20.152C18.803 20.2312 19.096 20.3044 19.5017 20.312C19.5017 20.5275 19.5873 20.7341 19.7397 20.8865C19.8921 21.0389 20.0987 21.1245 20.3142 21.1245H23.158C23.3734 21.1245 23.5801 21.0389 23.7325 20.8865C23.8849 20.7341 23.9705 20.5275 23.9705 20.312V20.3059C24.1233 20.2871 24.2677 20.2252 24.3867 20.1275C24.5058 20.0297 24.5946 19.9002 24.6428 19.7539C24.656 19.7138 24.9693 18.7469 25.1364 17.1473C25.2161 16.377 25.2019 15.1836 25.0993 14.0268ZM5.70444 9.6134C6.11069 8.75012 6.57534 7.77309 7.40257 7.36125C8.59796 6.76609 11.0756 6.49797 13.0002 6.49797C14.9248 6.49797 17.4024 6.76406 18.5978 7.36125C19.425 7.77309 19.8876 8.75062 20.2959 9.6134L20.3467 9.72359C20.3764 9.78633 20.3895 9.85562 20.3848 9.92487C20.3801 9.99412 20.3578 10.061 20.3199 10.1192C20.282 10.1773 20.2299 10.2248 20.1684 10.2571C20.107 10.2893 20.0383 10.3053 19.9689 10.3035C18.2814 10.2578 14.7267 10.1116 13.0002 10.1116C11.2736 10.1116 7.71894 10.2614 6.02894 10.3071C5.95955 10.3089 5.89086 10.2929 5.82942 10.2606C5.76797 10.2283 5.71581 10.1809 5.67793 10.1227C5.64004 10.0646 5.61769 9.99767 5.61299 9.92842C5.6083 9.85918 5.62143 9.78988 5.65112 9.72715C5.6689 9.68957 5.68769 9.65148 5.70444 9.6134ZM6.31026 13.6571C5.43673 13.7622 4.5576 13.8141 3.67776 13.8125C3.13948 13.8125 2.58444 13.6602 2.48136 13.1808C2.41077 12.8583 2.41839 12.677 2.45647 12.4947C2.48847 12.3398 2.53925 12.2271 2.79315 12.1875C3.45331 12.0859 3.82249 12.2134 4.90312 12.5318C5.61964 12.7425 6.13659 13.0234 6.43112 13.2458C6.5789 13.3555 6.50019 13.6419 6.31026 13.6571ZM17.5522 17.8212C16.8839 17.8973 15.5474 17.8694 13.0154 17.8694C10.4835 17.8694 9.14741 17.8973 8.47913 17.8212C7.78952 17.7445 6.9105 17.0925 7.51073 16.5115C7.91038 16.1286 8.84272 15.8422 10.0843 15.6812C11.3259 15.5203 11.8515 15.4375 13.0103 15.4375C14.1692 15.4375 14.6414 15.4883 15.9364 15.6818C17.2313 15.8752 18.2098 16.1652 18.51 16.512C19.0574 17.1336 18.2413 17.7404 17.5522 17.8242V17.8212ZM23.519 13.1803C23.4175 13.6617 22.8589 13.812 22.3226 13.812C21.4259 13.8122 20.53 13.7603 19.6393 13.6566C19.4839 13.6419 19.4118 13.3692 19.5692 13.2453C19.8592 13.0173 20.3818 12.742 21.0973 12.5313C22.1779 12.2129 22.801 12.0854 23.3362 12.1916C23.4667 12.2175 23.5358 12.3576 23.5439 12.4455C23.5797 12.6901 23.5713 12.9391 23.519 13.1808V13.1803Z" fill="white"/>
    </g>
</svg>
