<svg width="26" height="26" viewBox="0 0 26 26" fill="none" xmlns="http://www.w3.org/2000/svg">
<g opacity="0.9" clip-path="url(#clip0)">
<path d="M22.75 5.6875C19.3568 6.5975 16.6791 7.3125 13 7.3125C9.3209 7.3125 6.6432 6.5975 3.25 5.6875L2.4375 8.27735C4.875 9.31988 7.34855 10.0628 9.9125 10.9789L7.3125 25.1875L10.1766 26L12.4922 17.0625H13.5078L15.8234 26L18.6875 25.1875L16.0875 10.9789C18.6499 10.1527 21.125 9.31988 23.5625 8.32813L22.75 5.6875ZM13 5.6875C12.4376 5.6875 11.8877 5.52072 11.4201 5.20824C10.9524 4.89577 10.588 4.45163 10.3727 3.93201C10.1575 3.41238 10.1012 2.8406 10.2109 2.28896C10.3206 1.73733 10.5915 1.23062 10.9892 0.832916C11.3869 0.435211 11.8936 0.16437 12.4452 0.0546431C12.9968 -0.0550836 13.5686 0.00123217 14.0883 0.216469C14.6079 0.431706 15.052 0.796196 15.3645 1.26385C15.677 1.7315 15.8438 2.28131 15.8438 2.84375C15.8429 3.59771 15.5431 4.32056 15.0099 4.8537C14.4768 5.38683 13.754 5.68669 13 5.6875Z" fill="white"/>
</g>
<defs>
<clipPath id="clip0">
<rect width="26" height="26" fill="white"/>
</clipPath>
</defs>
</svg>
