<svg width="24" height="24" viewBox="0 0 24 24" fill="none" xmlns="http://www.w3.org/2000/svg">
<path d="M6.99999 14.8298C7.18735 15.0161 7.4408 15.1206 7.70499 15.1206C7.96918 15.1206 8.22263 15.0161 8.40999 14.8298L12 11.2898L15.54 14.8298C15.7274 15.0161 15.9808 15.1206 16.245 15.1206C16.5092 15.1206 16.7626 15.0161 16.95 14.8298C17.0437 14.7369 17.1181 14.6262 17.1689 14.5044C17.2197 14.3825 17.2458 14.2518 17.2458 14.1198C17.2458 13.9878 17.2197 13.8571 17.1689 13.7352C17.1181 13.6134 17.0437 13.5028 16.95 13.4098L12.71 9.16981C12.617 9.07608 12.5064 9.00169 12.3846 8.95092C12.2627 8.90015 12.132 8.87401 12 8.87401C11.868 8.87401 11.7373 8.90015 11.6154 8.95092C11.4936 9.00169 11.383 9.07608 11.29 9.16981L6.99999 13.4098C6.90626 13.5028 6.83187 13.6134 6.7811 13.7352C6.73033 13.8571 6.70419 13.9878 6.70419 14.1198C6.70419 14.2518 6.73033 14.3825 6.7811 14.5044C6.83187 14.6262 6.90626 14.7369 6.99999 14.8298Z" fill="white"/>
</svg>
