<svg width="30" height="30" viewBox="0 0 30 30" fill="none" xmlns="http://www.w3.org/2000/svg">
<path d="M12.35 13.75H17.6512L18.6638 1.60377C18.7038 1.10754 18.8737 0.6525 19.1212 0.25002C18.7413 0.0874805 18.3288 0 17.9088 0H12.0937C11.6712 0 11.2575 0.0887695 10.875 0.252481C11.1262 0.657481 11.2987 1.11621 11.34 1.61625L12.35 13.75Z" fill="white"/>
<path d="M21.8742 13.75C22.1405 13.75 22.398 13.7825 22.6505 13.8288L23.6342 2.03004C23.6767 1.50879 23.4992 0.98877 23.1442 0.605039C22.7905 0.22002 22.2855 0 21.763 0C21.553 0 21.3543 0.0499805 21.1643 0.11502C21.0942 0.140039 21.028 0.17127 20.963 0.203789C20.8568 0.255059 20.7605 0.32127 20.6655 0.391289C20.5917 0.447539 20.513 0.498809 20.448 0.566309C20.3643 0.650039 20.3005 0.750059 20.2355 0.848789C20.2092 0.88752 20.1755 0.920039 20.1518 0.960059C20.023 1.18629 19.9293 1.43379 19.9068 1.70631L18.9043 13.7501H21.8742V13.75Z" fill="white"/>
<path d="M7.34668 13.8275C7.60045 13.7812 7.85791 13.7487 8.12416 13.7487H11.0954L10.0942 1.71873C10.0567 1.2675 9.84547 0.87 9.54295 0.56625C9.48043 0.5025 9.4042 0.452519 9.33295 0.39873C9.23545 0.324961 9.13297 0.25623 9.0217 0.2025C8.95795 0.17127 8.89297 0.13998 8.82547 0.11625C8.63299 0.0499805 8.43295 0 8.2192 0C7.70047 0 7.20043 0.21873 6.84793 0.60123C6.49666 0.98373 6.31918 1.49871 6.36166 2.01621L7.34668 13.8275Z" fill="white"/>
<path d="M21.875 15H8.12498C6.40121 15 5 16.4025 5 18.125V29.375C4.99994 29.72 5.27996 30 5.62496 30H8.12498C8.46998 30 8.75 29.72 8.75 29.375V22.5H21.25V29.375C21.25 29.72 21.53 30 21.875 30H24.375C24.72 30 25 29.72 25 29.375V18.125C25 16.4025 23.5987 15 21.875 15ZM21.25 21.25H8.74994V20H21.2499V21.25H21.25Z" fill="white"/>
</svg>
