<svg width="26" height="26" viewBox="0 0 26 26" fill="none" xmlns="http://www.w3.org/2000/svg">
<path d="M22.7499 15.8656C22.789 15.8092 22.8266 15.7508 22.8652 15.696C23.8473 14.2363 24.3729 12.5174 24.3749 10.758C24.3912 5.71543 20.1367 1.625 14.8758 1.625C10.2872 1.625 6.4593 4.74754 5.5625 8.89281C5.42797 9.50716 5.35987 10.1342 5.35938 10.7631C5.35938 15.8107 9.45031 20.0109 14.7113 20.0109C15.5476 20.0109 16.6745 19.7595 17.2925 19.5899C17.9105 19.4203 18.5229 19.1963 18.6813 19.1359C18.8398 19.0755 19.0876 19.0135 19.2851 19.0704L23.2166 20.2069C23.2512 20.2171 23.2878 20.2179 23.3228 20.2093C23.3578 20.2006 23.3899 20.1829 23.4157 20.1577C23.4416 20.1326 23.4603 20.1011 23.4699 20.0663C23.4795 20.0316 23.4797 19.9949 23.4705 19.9601L22.5707 16.5329C22.5082 16.2789 22.5001 16.2312 22.7499 15.8656Z" fill="#F04E27"/>
<path d="M15.8712 21.0927C15.4805 21.1552 15.0857 21.19 14.6901 21.1968C12.5354 21.1968 10.5006 20.6281 8.85021 19.5617C7.7945 18.9137 6.87809 18.0624 6.15424 17.0571C4.82986 15.3016 4.10775 13.0703 4.10775 10.7354C4.10775 10.5764 4.11334 10.4236 4.11892 10.2702C4.12094 10.225 4.10897 10.1802 4.08465 10.1421C4.06034 10.1039 4.02485 10.0741 3.98302 10.0568C3.94119 10.0395 3.89504 10.0355 3.85085 10.0453C3.80666 10.0551 3.76657 10.0784 3.73603 10.1118C2.5201 11.4422 1.78504 13.1417 1.64826 14.9389C1.51147 16.736 1.98085 18.5272 2.98142 20.0263C3.10685 20.2178 3.17795 20.3655 3.15611 20.4641L2.4406 24.1335C2.434 24.1684 2.43666 24.2044 2.44832 24.238C2.45998 24.2715 2.48023 24.3014 2.50705 24.3247C2.53388 24.348 2.56633 24.3638 2.60118 24.3706C2.63603 24.3774 2.67207 24.375 2.70568 24.3635L6.15881 23.1326C6.26352 23.0912 6.37538 23.0709 6.48797 23.0728C6.60055 23.0747 6.71165 23.0988 6.8149 23.1438C7.8483 23.55 8.99139 23.7999 10.1345 23.7999C12.3347 23.8071 14.4541 22.9711 16.0571 21.4639C16.0902 21.4317 16.1122 21.3897 16.1198 21.3441C16.1275 21.2986 16.1205 21.2517 16.0998 21.2104C16.0791 21.1691 16.0458 21.1354 16.0047 21.1142C15.9636 21.0931 15.9169 21.0856 15.8712 21.0927Z" fill="#F04E27"/>
</svg>
