<svg width="40" height="40" viewBox="0 0 40 40" fill="none" xmlns="http://www.w3.org/2000/svg">
<g opacity="0.8">
<path d="M30.4687 21.668C25.8664 21.668 22.1354 25.3989 22.1354 30.0013C22.1354 34.6037 25.8664 38.3347 30.4687 38.3347C35.0711 38.3347 38.8021 34.6037 38.8021 30.0013C38.8021 25.399 35.0711 21.668 30.4687 21.668ZM29.9687 34.5013C29.3207 35.1366 28.2835 35.1366 27.6354 34.5013L24.302 31.168L26.6354 28.8346L28.802 31.0013L34.302 25.5012L36.6354 27.8346L29.9687 34.5013Z" fill="white"/>
<path d="M20 30C20 24.4772 24.4772 20 30 20H31.6666V1.66664C31.6666 0.746172 30.9205 0 30 0H3.33334C2.41288 0 1.66663 0.746172 1.66663 1.66664V38.3333C1.66663 39.2537 2.4128 39.9999 3.33327 39.9999H30C24.4772 40 20 35.5229 20 30ZM13.3333 6.66664H25V10H13.3333V6.66664ZM13.3333 15H21.6667V18.3334H13.3333V15ZM8.33334 26.6666C7.41288 26.6666 6.6667 25.9205 6.6667 25C6.6667 24.0795 7.41288 23.3334 8.33334 23.3334C9.25381 23.3334 9.99999 24.0795 9.99999 25C9.99999 25.9205 9.25381 26.6666 8.33334 26.6666ZM8.33334 18.3334C7.41288 18.3334 6.6667 17.5872 6.6667 16.6667C6.6667 15.7463 7.41288 15.0001 8.33334 15.0001C9.25381 15.0001 9.99999 15.7463 9.99999 16.6667C9.99999 17.5871 9.25381 18.3334 8.33334 18.3334ZM8.33334 10C7.41288 10 6.6667 9.25383 6.6667 8.33336C6.6667 7.41289 7.41288 6.66672 8.33334 6.66672C9.25381 6.66672 9.99999 7.41289 9.99999 8.33336C9.99999 9.25383 9.25381 10 8.33334 10ZM18.3333 26.6666H13.3333V23.3333H18.3333V26.6666Z" fill="white"/>
</g>
</svg>
