<svg width="30" height="30" viewBox="0 0 30 30" fill="none" xmlns="http://www.w3.org/2000/svg">
<path d="M29.3478 0H0.652194C0.292194 0 0 0.292194 0 0.652194C0 1.01219 0.292194 1.30439 0.652194 1.30439H1.30439V9.13047H28.6957V1.30439H29.3478C29.7078 1.30439 30 1.01219 30 0.652194C30 0.292194 29.7078 0 29.3478 0ZM16.3044 3.91304H13.6956C13.3356 3.91304 13.0434 3.62085 13.0434 3.26085C13.0434 2.90085 13.3356 2.60871 13.6956 2.60871H16.3044C16.6644 2.60871 16.9566 2.90091 16.9566 3.26091C16.9566 3.62091 16.6644 3.91304 16.3044 3.91304Z" fill="white"/>
<path d="M1.30469 18.2636H28.696V10.4375H1.30469V18.2636V18.2636ZM13.696 11.7418H16.3047C16.6647 11.7418 16.9569 12.034 16.9569 12.394C16.9569 12.754 16.6647 13.0462 16.3047 13.0462H13.696C13.336 13.0462 13.0438 12.754 13.0438 12.394C13.0438 12.034 13.336 11.7418 13.696 11.7418Z" fill="white"/>
<path d="M1.30469 29.3451C1.30469 29.7051 1.59688 29.9973 1.95688 29.9973C2.31688 29.9973 2.60908 29.7051 2.60908 29.3451V28.6929H27.3916V29.3451C27.3916 29.7051 27.6838 29.9973 28.0438 29.9973C28.4038 29.9973 28.696 29.7051 28.696 29.3451V19.5625H1.30475V29.3451H1.30469ZM13.696 20.8668H16.3047C16.6647 20.8668 16.9569 21.159 16.9569 21.519C16.9569 21.879 16.6647 22.1712 16.3047 22.1712H13.696C13.336 22.1712 13.0438 21.879 13.0438 21.519C13.0438 21.159 13.336 20.8668 13.696 20.8668Z" fill="white"/>
</svg>
