<svg width="49" height="39" viewBox="0 0 49 39" fill="none" xmlns="http://www.w3.org/2000/svg">
<path d="M45.3961 2.44035L45.3947 2.45715L45.3943 2.474C45.3236 5.59969 44.5622 8.67104 43.1648 11.4679C41.7673 14.2647 39.7685 16.7178 37.3116 18.6512L37.3115 18.6512L27.4875 26.3838C27.4875 26.3838 27.4875 26.3838 27.4875 26.3839C26.5889 27.091 25.4788 27.4755 24.3354 27.4755C23.192 27.4755 22.0818 27.091 21.1832 26.3838L21.1832 26.3838L11.3562 18.6513C8.89974 16.7175 6.90149 14.2643 5.50461 11.4675C4.10773 8.67066 3.34681 5.59952 3.27639 2.47407L3.27642 2.47407L3.27621 2.46761C3.26652 2.17668 3.14237 1.90157 2.93099 1.70179C2.71962 1.50203 2.43785 1.39355 2.14682 1.4003C1.8559 1.40704 1.57942 1.52832 1.37745 1.73774C1.17546 1.94718 1.06427 2.22786 1.06806 2.51881L1.06804 2.51882L1.06816 2.52455C1.14516 5.93314 1.96598 9.28374 3.47318 12.342C4.93783 15.3138 7.01627 17.9398 9.57002 20.0472L9.56998 37.2841L9.57006 37.2908C9.5733 37.5816 9.69108 37.8593 9.89779 38.0637C10.1043 38.268 10.3833 38.3829 10.6743 38.3829C10.9653 38.3829 11.2442 38.268 11.4508 38.0637C11.6575 37.8593 11.7753 37.5816 11.7785 37.2908H11.7786V37.2841V21.7927L19.8165 28.1192L19.8165 28.1192C21.1042 29.1326 22.6952 29.6836 24.3338 29.6836C25.9724 29.6836 27.5634 29.1326 28.8511 28.1192L36.8918 21.7925V37.2841V37.3022L36.8929 37.3203C36.9098 37.6009 37.0332 37.8647 37.238 38.0575L37.6493 37.6207L37.238 38.0575C37.443 38.2505 37.7138 38.3576 37.9947 38.3576C38.2756 38.3576 38.5463 38.2505 38.7513 38.0575L38.3401 37.6207L38.7514 38.0575C38.9562 37.8647 39.0796 37.6009 39.0965 37.3203L39.0976 37.3022V37.2841V20.0472C41.6514 17.9399 43.7299 15.3138 45.1946 12.342C46.7019 9.28375 47.5228 5.93319 47.5998 2.52456L47.6002 2.50806L47.5997 2.49157C47.5905 2.20954 47.4738 1.94182 47.2734 1.74327C47.073 1.5447 46.8042 1.43038 46.5221 1.42383C46.2403 1.41728 45.9664 1.51873 45.7568 1.70796L45.7567 1.70797C45.5473 1.89702 45.4183 2.15908 45.3961 2.44035Z" fill="white" stroke="white" stroke-width="1.2"/>
<path d="M27.6911 6.33616L27.691 6.33614C27.1844 6.21978 26.6528 6.29445 26.1978 6.54562L26.1978 6.54565L24.3359 7.57389L22.4739 6.54565L22.4738 6.5456C22.019 6.29456 21.4876 6.2199 20.9812 6.33612L20.981 6.33616L13.3999 8.0785L13.3889 8.08101L13.3781 8.08394C13.1031 8.15807 12.8673 8.33562 12.7202 8.5797L13.2203 8.88126L12.7202 8.5797C12.573 8.8237 12.526 9.11514 12.5888 9.39302C12.6516 9.67096 12.8195 9.91377 13.0572 10.0707C13.295 10.2278 13.5843 10.2867 13.8644 10.2353L13.8776 10.2329L13.8906 10.2299L21.4374 8.4956L23.3136 9.53167L23.3136 9.53171C23.6261 9.70423 23.9772 9.79468 24.3341 9.79468C24.691 9.79468 25.0421 9.70423 25.3546 9.53171L25.3546 9.5317L27.2312 8.49559L34.7776 10.2299L34.7776 10.23L34.7854 10.2317C35.069 10.2929 35.3654 10.24 35.6103 10.0843C35.8552 9.92869 36.029 9.68294 36.094 9.4001C36.1591 9.11731 36.1101 8.82027 35.9578 8.57329C35.8055 8.32617 35.562 8.14923 35.2802 8.0804L35.2101 8.06325H35.2055L27.6911 6.33616Z" fill="white" stroke="white" stroke-width="1.2"/>
<path d="M31.8979 11.4602C26.9522 12.8585 21.7157 12.8582 16.7701 11.4594C16.4888 11.3793 16.1871 11.4141 15.9313 11.5564C15.6753 11.6988 15.4865 11.937 15.4062 12.2185C15.3259 12.5001 15.3608 12.8021 15.5031 13.058C15.6453 13.3137 15.8834 13.5028 16.1652 13.5831L16.1664 13.5834C21.5069 15.0943 27.1617 15.0943 32.5022 13.5835L32.5034 13.5831C32.7852 13.5028 33.0232 13.3137 33.1655 13.058C33.3078 12.8021 33.3427 12.5001 33.2624 12.2185C33.1821 11.937 32.9932 11.6988 32.7373 11.5564L32.4461 12.0799L32.7373 11.5564C32.4813 11.414 32.1793 11.3793 31.8978 11.4595L31.8979 11.4602Z" fill="white" stroke="white" stroke-width="1.2"/>
</svg>
