<svg width="542" height="542" viewBox="0 0 542 542" fill="none" xmlns="http://www.w3.org/2000/svg">
<path fill-rule="evenodd" clip-rule="evenodd" d="M461.879 277.881L541.83 280.691C541.943 277.474 542 274.244 542 271C542 267.756 541.943 264.526 541.83 261.309L461.879 264.119L381.929 266.929C381.976 268.273 382 269.63 382 271C382 272.37 381.976 273.726 381.929 275.071L461.879 277.881ZM460.917 250.477L540.469 242.02C539.782 235.563 538.869 229.172 537.737 222.858L458.992 236.976L380.248 251.094C380.709 253.665 381.083 256.278 381.365 258.934L460.917 250.477ZM456.115 223.689L533.644 203.959C532.045 197.678 530.227 191.484 528.199 185.387L452.29 210.642L376.381 235.898C377.202 238.366 377.938 240.874 378.586 243.419L456.115 223.689ZM447.538 197.909L521.436 167.264C518.958 161.288 516.272 155.42 513.388 149.669L441.878 185.534L370.368 221.4C371.543 223.743 372.635 226.128 373.64 228.553L447.538 197.909ZM435.339 173.584L504.101 132.698C500.799 127.144 497.305 121.719 493.626 116.431L427.952 162.114L362.279 207.797C363.791 209.971 365.224 212.197 366.576 214.47L435.339 173.584ZM419.76 151.187L482.021 100.952C477.968 95.929 473.74 91.0539 469.345 86.3357L410.805 140.862L352.265 195.388C354.081 197.338 355.827 199.351 357.499 201.423L419.76 151.187ZM401.138 131.195L455.664 72.6551C450.946 68.2604 446.071 64.0321 441.048 59.9794L390.813 122.24L340.577 184.501C342.649 186.173 344.662 187.919 346.612 189.735L401.138 131.195ZM379.886 114.047L425.569 48.3735C420.281 44.6952 414.856 41.2005 409.302 37.8986L368.416 106.661L327.53 175.424C329.803 176.776 332.029 178.209 334.203 179.721L379.886 114.047ZM356.466 100.122L392.331 28.6121C386.58 25.7276 380.712 23.0418 374.735 20.5636L344.091 94.4617L313.447 168.36C315.872 169.365 318.257 170.457 320.6 171.632L356.466 100.122ZM331.358 89.7101L356.613 13.8011C350.516 11.7725 344.322 9.95462 338.041 8.35615L318.311 85.8851L298.581 163.414C301.126 164.062 303.634 164.798 306.102 165.619L331.358 89.7101ZM305.024 83.0077L319.142 4.26323C312.828 3.13116 306.437 2.21779 299.979 1.53127L291.523 81.083L283.066 160.635C285.722 160.917 288.335 161.291 290.906 161.752L305.024 83.0077ZM277.881 80.1207L280.691 0.170032C277.474 0.0569929 274.244 0 271 0C267.756 0 264.526 0.0569936 261.309 0.170034L264.119 80.1207L266.929 160.071C268.273 160.024 269.63 160 271 160C272.37 160 273.726 160.024 275.071 160.071L277.881 80.1207ZM250.477 81.083L242.02 1.53128C235.563 2.2178 229.172 3.13116 222.858 4.26324L236.976 83.0077L251.094 161.752C253.665 161.291 256.278 160.917 258.934 160.635L250.477 81.083ZM223.689 85.8851L203.959 8.35616C197.678 9.95463 191.484 11.7725 185.387 13.8011L210.642 89.7101L235.898 165.619C238.366 164.798 240.874 164.062 243.419 163.414L223.689 85.8851ZM197.909 94.4617L167.264 20.5636C161.288 23.0418 155.42 25.7276 149.669 28.6122L185.534 100.122L221.4 171.632C223.743 170.457 226.128 169.365 228.553 168.36L197.909 94.4617ZM173.584 106.661L132.698 37.8986C127.144 41.2005 121.719 44.6952 116.431 48.3735L162.114 114.048L207.797 179.721C209.971 178.209 212.197 176.776 214.47 175.424L173.584 106.661ZM151.187 122.24L100.952 59.9794C95.929 64.0321 91.0539 68.2605 86.3357 72.6552L140.862 131.195L195.388 189.735C197.338 187.919 199.351 186.173 201.423 184.501L151.187 122.24ZM131.195 140.862L72.6551 86.3358C68.2604 91.0539 64.0321 95.9291 59.9794 100.952L122.24 151.187L184.501 201.423C186.173 199.351 187.919 197.338 189.735 195.388L131.195 140.862ZM114.047 162.114L48.3735 116.431C44.6952 121.719 41.2005 127.144 37.8986 132.698L106.661 173.584L175.424 214.47C176.776 212.197 178.209 209.971 179.721 207.797L114.047 162.114ZM100.122 185.534L28.6121 149.669C25.7276 155.42 23.0418 161.288 20.5636 167.265L94.4617 197.909L168.36 228.553C169.365 226.128 170.457 223.743 171.632 221.4L100.122 185.534ZM89.7101 210.642L13.8011 185.387C11.7725 191.484 9.95462 197.678 8.35615 203.959L85.8851 223.689L163.414 243.419C164.062 240.874 164.798 238.366 165.619 235.898L89.7101 210.642ZM83.0077 236.976L4.26323 222.858C3.13115 229.172 2.21779 235.563 1.53127 242.021L81.083 250.477L160.635 258.934C160.917 256.278 161.291 253.665 161.752 251.094L83.0077 236.976ZM0 271C0 267.756 0.0569928 264.526 0.170032 261.309L80.1207 264.119L160.071 266.929C160.024 268.274 160 269.63 160 271C160 272.37 160.024 273.727 160.071 275.071L80.1207 277.881L0.170034 280.691C0.0569936 277.474 0 274.244 0 271ZM81.083 291.523L1.53128 299.98C2.2178 306.438 3.13116 312.828 4.26324 319.142L83.0077 305.024L161.752 290.906C161.291 288.336 160.917 285.722 160.635 283.066L81.083 291.523ZM85.8851 318.311L8.35616 338.041C9.95463 344.322 11.7725 350.516 13.8011 356.613L89.7101 331.358L165.619 306.102C164.798 303.634 164.062 301.126 163.414 298.581L85.8851 318.311ZM94.4617 344.091L20.5636 374.736C23.0418 380.712 25.7276 386.58 28.6122 392.331L100.122 356.466L171.632 320.6C170.457 318.257 169.365 315.872 168.36 313.447L94.4617 344.091ZM106.661 368.416L37.8986 409.302C41.2005 414.856 44.6952 420.281 48.3735 425.569L114.048 379.886L179.721 334.203C178.209 332.029 176.776 329.803 175.424 327.53L106.661 368.416ZM122.24 390.813L59.9794 441.048C64.0321 446.071 68.2605 450.946 72.6551 455.664L131.195 401.138L189.735 346.612C187.919 344.662 186.173 342.649 184.501 340.577L122.24 390.813ZM140.862 410.805L86.3358 469.345C91.0539 473.74 95.9291 477.968 100.952 482.021L151.187 419.76L201.423 357.499C199.351 355.827 197.338 354.081 195.388 352.265L140.862 410.805ZM162.114 427.953L116.431 493.626C121.719 497.305 127.144 500.8 132.698 504.101L173.584 435.339L214.47 366.576C212.197 365.224 209.971 363.791 207.797 362.279L162.114 427.953ZM185.534 441.878L149.669 513.388C155.42 516.272 161.288 518.958 167.265 521.436L197.909 447.538L228.553 373.64C226.128 372.635 223.743 371.543 221.4 370.368L185.534 441.878ZM210.642 452.29L185.387 528.199C191.484 530.227 197.678 532.045 203.959 533.644L223.689 456.115L243.419 378.586C240.874 377.938 238.366 377.202 235.898 376.381L210.642 452.29ZM236.976 458.992L222.858 537.737C229.172 538.869 235.563 539.782 242.021 540.469L250.477 460.917L258.934 381.365C256.278 381.083 253.665 380.709 251.094 380.248L236.976 458.992ZM264.119 461.879L261.309 541.83C264.526 541.943 267.756 542 271 542C274.244 542 277.474 541.943 280.691 541.83L277.881 461.879L275.071 381.929C273.727 381.976 272.37 382 271 382C269.63 382 268.274 381.976 266.929 381.929L264.119 461.879ZM291.523 460.917L299.98 540.469C306.438 539.782 312.828 538.869 319.142 537.737L305.024 458.992L290.906 380.248C288.336 380.709 285.722 381.083 283.066 381.365L291.523 460.917ZM318.311 456.115L338.041 533.644C344.322 532.045 350.516 530.227 356.613 528.199L331.358 452.29L306.102 376.381C303.634 377.202 301.126 377.938 298.581 378.586L318.311 456.115ZM344.091 447.538L374.736 521.436C380.712 518.958 386.58 516.272 392.331 513.388L356.466 441.878L320.6 370.368C318.257 371.543 315.872 372.635 313.447 373.64L344.091 447.538ZM368.416 435.339L409.302 504.101C414.856 500.799 420.281 497.305 425.569 493.626L379.886 427.952L334.203 362.279C332.029 363.791 329.803 365.224 327.53 366.576L368.416 435.339ZM390.813 419.76L441.048 482.021C446.071 477.968 450.946 473.74 455.664 469.345L401.138 410.805L346.612 352.265C344.662 354.081 342.649 355.827 340.577 357.499L390.813 419.76ZM410.805 401.138L469.345 455.664C473.74 450.946 477.968 446.071 482.021 441.048L419.76 390.813L357.499 340.577C355.827 342.649 354.081 344.662 352.265 346.612L410.805 401.138ZM427.953 379.886L493.626 425.569C497.305 420.281 500.8 414.856 504.101 409.302L435.339 368.416L366.576 327.53C365.224 329.803 363.791 332.029 362.279 334.203L427.953 379.886ZM441.878 356.466L513.388 392.331C516.272 386.58 518.958 380.712 521.436 374.735L447.538 344.091L373.64 313.447C372.635 315.872 371.543 318.257 370.368 320.6L441.878 356.466ZM452.29 331.358L528.199 356.613C530.227 350.516 532.045 344.322 533.644 338.041L456.115 318.311L378.586 298.581C377.938 301.126 377.202 303.634 376.381 306.102L452.29 331.358ZM458.992 305.024L537.737 319.142C538.869 312.828 539.782 306.437 540.469 299.979L460.917 291.523L381.365 283.066C381.083 285.722 380.709 288.335 380.248 290.906L458.992 305.024Z" fill="white"/>
</svg>
