<svg width="12" height="12" viewBox="0 0 12 12" fill="none" xmlns="http://www.w3.org/2000/svg">
<path fill-rule="evenodd" clip-rule="evenodd" d="M6 0C5.21627 0 4.54953 0.500885 4.30243 1.2H4.2C3.53726 1.2 3 1.73726 3 2.4H2.34C2.04177 2.4 1.8 2.64177 1.8 2.94V10.8C1.8 11.1314 2.06863 11.4 2.4 11.4H9.6C9.93137 11.4 10.2 11.1314 10.2 10.8V2.94C10.2 2.64177 9.95824 2.4 9.66 2.4H9C9 1.73726 8.46275 1.2 7.8 1.2H7.69758C7.45048 0.500885 6.78373 0 6 0ZM7.2 2.4V1.8H6.6C6.6 1.46863 6.33137 1.2 6 1.2C5.66863 1.2 5.4 1.46863 5.4 1.8H4.8V2.4H7.2ZM3.96002 6.12001L3.24002 7.08001L6.14742 9.26056L8.89925 5.13283L7.90079 4.46719L5.85261 7.53945L3.96002 6.12001Z" fill="#141B1F"/>
</svg>
