<svg width="20" height="20" viewBox="0 0 20 20" fill="none" xmlns="http://www.w3.org/2000/svg">
<g opacity="0.4">
<path d="M5.70718 1.70718L1.70718 5.70718L0.292969 4.29297L4.29297 0.292969L5.70718 1.70718Z" fill="white"/>
<path d="M18.2929 5.70718L14.2929 1.70718L15.7071 0.292969L19.7071 4.29297L18.2929 5.70718Z" fill="white"/>
<path fill-rule="evenodd" clip-rule="evenodd" d="M1.00003 11.0001C1.00003 6.0295 5.02947 2.00006 10 2.00006C14.9706 2.00006 19 6.0295 19 11.0001C19 15.9706 14.9706 20.0001 10 20.0001C5.02947 20.0001 1.00003 15.9706 1.00003 11.0001ZM8.50003 12.0001V5.50006H10.5V10.0569L12.4188 8.68633L13.5813 10.3138L10.0813 12.8138C9.77645 13.0315 9.37552 13.0606 9.04245 12.8892C8.70938 12.7178 8.50003 12.3746 8.50003 12.0001Z" fill="white"/>
</g>
</svg>
