<svg width="214" height="254" viewBox="0 0 214 254" fill="none" xmlns="http://www.w3.org/2000/svg">
<g filter="url(#filter0_d)">
<path d="M114.626 221.047C109.988 224.059 104.012 224.059 99.3741 221.047L37.1639 180.64C33.1885 178.058 30.7898 173.64 30.7898 168.899L30.7898 85.1007C30.7898 80.3604 33.1885 75.942 37.1639 73.3599L99.3741 32.9532C104.012 29.9409 109.988 29.9409 114.626 32.9532L176.836 73.3599C180.811 75.942 183.21 80.3604 183.21 85.1007L183.21 168.899C183.21 173.64 180.811 178.058 176.836 180.64L114.626 221.047Z" fill="#FFCC32"/>
</g>
<path d="M64.7296 103.312C66.3296 104.16 67.1296 105.488 67.1296 107.296C67.1296 108.8 66.5616 110.016 65.4256 110.944C64.2896 111.872 62.8256 112.336 61.0336 112.336C57.9136 112.336 55.8256 111.016 54.7696 108.376L57.6256 106.768C58.1376 108.4 59.2736 109.216 61.0336 109.216C61.9456 109.216 62.6416 109.024 63.1216 108.64C63.6016 108.256 63.8416 107.736 63.8416 107.08C63.8416 106.424 63.6016 105.904 63.1216 105.52C62.6576 105.136 61.9856 104.944 61.1056 104.944H59.0176V101.992H60.6016C61.4336 101.992 62.0816 101.816 62.5456 101.464C63.0096 101.096 63.2416 100.6 63.2416 99.976C63.2416 99.352 63.0416 98.864 62.6416 98.512C62.2416 98.144 61.6496 97.96 60.8656 97.96C59.4256 97.96 58.4176 98.664 57.8416 100.072L55.0336 98.44C56.1696 96.056 58.1136 94.864 60.8656 94.864C62.5296 94.864 63.8896 95.312 64.9456 96.208C66.0016 97.104 66.5296 98.288 66.5296 99.76C66.5296 101.264 65.9296 102.448 64.7296 103.312ZM80.0788 112L79.0708 108.976H72.3748L71.3668 112H67.7908L73.6708 95.2H77.7748L83.6788 112H80.0788ZM73.4308 105.88H78.0388L75.7348 99.016L73.4308 105.88ZM98.438 112H94.622L88.622 104.128V112H85.31V95.2H88.622V102.616L94.382 95.2H98.198L91.982 103.36L98.438 112ZM106.34 95.2C107.956 95.2 109.316 95.744 110.42 96.832C111.524 97.92 112.076 99.256 112.076 100.84C112.076 102.424 111.524 103.76 110.42 104.848C109.316 105.936 107.956 106.48 106.34 106.48H103.388V112H100.076V95.2H106.34ZM106.34 103.384C107.044 103.384 107.628 103.144 108.092 102.664C108.556 102.168 108.788 101.56 108.788 100.84C108.788 100.104 108.556 99.496 108.092 99.016C107.628 98.536 107.044 98.296 106.34 98.296H103.388V103.384H106.34ZM114.232 112V95.2H117.544V100.72H120.496C122.112 100.72 123.472 101.264 124.576 102.352C125.68 103.44 126.232 104.776 126.232 106.36C126.232 107.944 125.68 109.28 124.576 110.368C123.472 111.456 122.112 112 120.496 112H114.232ZM127.768 112V95.2H131.056V112H127.768ZM117.544 108.904H120.496C121.2 108.904 121.784 108.664 122.248 108.184C122.712 107.704 122.944 107.096 122.944 106.36C122.944 105.624 122.712 105.016 122.248 104.536C121.784 104.056 121.2 103.816 120.496 103.816H117.544V108.904ZM145.289 95.2V98.368H140.753V112H137.441V98.368H132.929V95.2H145.289ZM153.402 100.72C155.018 100.72 156.378 101.264 157.482 102.352C158.586 103.44 159.138 104.776 159.138 106.36C159.138 107.944 158.586 109.28 157.482 110.368C156.378 111.456 155.018 112 153.402 112H147.138V95.2H150.45V100.72H153.402ZM153.402 108.904C154.106 108.904 154.69 108.664 155.154 108.184C155.618 107.704 155.85 107.096 155.85 106.36C155.85 105.64 155.618 105.04 155.154 104.56C154.69 104.064 154.106 103.816 153.402 103.816H150.45V108.904H153.402Z" fill="#141B1F"/>
<path d="M102.05 156.95L111.95 147.051" stroke="#141B1F" stroke-width="4" stroke-linecap="round" stroke-linejoin="round"/>
<path d="M111.95 156.95L102.05 147.051" stroke="#141B1F" stroke-width="4" stroke-linecap="round" stroke-linejoin="round"/>
<defs>
<filter id="filter0_d" x="0.789551" y="0.694336" width="212.42" height="252.612" filterUnits="userSpaceOnUse" color-interpolation-filters="sRGB">
<feFlood flood-opacity="0" result="BackgroundImageFix"/>
<feColorMatrix in="SourceAlpha" type="matrix" values="0 0 0 0 0 0 0 0 0 0 0 0 0 0 0 0 0 0 127 0" result="hardAlpha"/>
<feOffset/>
<feGaussianBlur stdDeviation="15"/>
<feColorMatrix type="matrix" values="0 0 0 0 0.94902 0 0 0 0 0.788235 0 0 0 0 0.298039 0 0 0 0.55 0"/>
<feBlend mode="normal" in2="BackgroundImageFix" result="effect1_dropShadow"/>
<feBlend mode="normal" in="SourceGraphic" in2="effect1_dropShadow" result="shape"/>
</filter>
</defs>
</svg>
