<svg version="1.2" xmlns="http://www.w3.org/2000/svg" viewBox="0 0 60 60" width="60" height="60">
	<title>clothes-svg</title>
	<style>
		.s0 { fill: #ffffff } 
	</style>
	<g id="Layer" style="opacity: .2">
		<path id="Layer" fill-rule="evenodd" class="s0" d="m43.9 19.4q0.1 0.1 0.1 0.3 0 0.2 0 0.3-0.1 0.2-0.2 0.3-0.1 0.1-0.3 0.2l-4.6 1.9q-0.2 0-0.2 0.1-0.1 0.2-0.1 0.3l0.7 12.4q0 0.1 0 0.3-0.1 0.1-0.2 0.3-0.1 0.1-0.2 0.1-0.2 0.1-0.3 0.1h-17.2q-0.1 0-0.3-0.1-0.1 0-0.2-0.1-0.1-0.2-0.2-0.3 0-0.2 0-0.3l0.7-12.4q0-0.1-0.1-0.3 0-0.1-0.2-0.1l-4.6-1.9q-0.2-0.1-0.3-0.2-0.1-0.1-0.2-0.3 0-0.1 0-0.3 0-0.2 0.1-0.3l3.1-6c0.6-1.2 1.6-2.1 2.8-2.5 0.5-0.2 1.9-0.7 2.4-0.9q0.1-0.1 0.1-0.2l0.8-1.2c0.5-0.6 0.9-0.6 1.2-0.6q1.7 0.3 3.5 0.3 1.8 0 3.5-0.3c0.3 0 0.7 0 1.2 0.6l0.8 1.2q0.1 0.1 0.1 0.2c0.5 0.2 1.9 0.7 2.4 0.9 1.2 0.4 2.2 1.3 2.8 2.5l3.1 6zm-17.4-10.7q0 0.1-0.1 0.1 0 0.1 0 0.1 0 0.1 0.1 0.2c0.7 1.1 2.1 2 3.4 2.7q0 0 0.1 0 0.1 0 0.1 0c1.3-0.7 2.7-1.7 3.5-2.7q0-0.1 0-0.2 0 0 0-0.1-0.1 0-0.1-0.1-0.1 0-0.2 0c-0.7 0.1-2.4 0.2-3.3 0.2-0.9 0-2.6-0.1-3.3-0.2q-0.1 0-0.2 0zm-2.7 2.2c0.5 1.3 1.3 2.4 2.3 3.4q0.5 0.4 1.2 0.5 0.6 0.1 1.2-0.2 0.1-0.1 0.3-0.2 0-0.1 0-0.1 0.1 0 0.1 0.1 0 0 0 0 0.1 0 0.1 0.1v1.2q0 0.1 0 0.2 0 0.1 0.1 0.1 0.1 0.1 0.2 0.2 0.1 0 0.2 0h1q0.1 0 0.2 0 0.1-0.1 0.2-0.2 0.1 0 0.1-0.1 0-0.1 0-0.2v-1.2q0-0.1 0.1-0.1 0 0 0 0 0-0.1 0.1-0.1 0 0 0 0.1 0.2 0.1 0.4 0.2 0.5 0.3 1.2 0.2 0.6-0.1 1.1-0.5c1-1 1.8-2.1 2.3-3.4q-0.3-0.1-0.6-0.2 0 0 0 0c-0.5 1.2-1.2 2.2-2.2 3.1-0.2 0.2-0.6 0.3-0.9 0.3-0.4 0-0.7-0.1-1-0.4l-1.4-1.2q0 0-0.1 0-0.1 0-0.1 0l-1.4 1.3c-0.3 0.2-0.6 0.3-1 0.3-0.3 0-0.7-0.1-0.9-0.3-1-0.9-1.7-1.9-2.2-3.1q0 0 0 0-0.3 0.1-0.6 0.2z"/>
		<path id="Layer" class="s0" d="m30 14.3c0.2 0 0.4-0.1 0.4-0.4 0-0.2-0.2-0.3-0.4-0.3-0.2 0-0.4 0.1-0.4 0.3 0 0.3 0.2 0.4 0.4 0.4z"/>
	</g>
</svg>