<svg width="42" height="27" viewBox="0 0 42 27" fill="none" xmlns="http://www.w3.org/2000/svg">
<path d="M39.9492 23.1046L39.9489 23.1045L22.3532 12.502V11.495C24.5545 10.9048 26.1851 8.91017 26.1851 6.53574C26.1851 3.69723 23.8534 1.4 21.0003 1.4C18.1473 1.4 15.8155 3.69723 15.8155 6.53574V7.13574H16.4155H17.9214H18.5214V6.53574C18.5214 5.19364 19.6279 4.08989 21.0003 4.08989C22.3727 4.08989 23.4793 5.19364 23.4793 6.53574C23.4793 7.87852 22.3725 8.98257 21.0003 8.98257C20.2594 8.98257 19.6474 9.57893 19.6474 10.3275V12.501L2.05172 23.1045L2.05147 23.1046C1.53447 23.4165 1.28479 24.0348 1.45092 24.62C1.61644 25.2031 2.15018 25.6 2.75293 25.6H39.2472C39.8493 25.6 40.3845 25.2036 40.5495 24.6192C40.7141 24.0359 40.4675 23.4173 39.9492 23.1046ZM20.9998 14.8312L34.4056 22.9096H7.59491L20.9998 14.8312Z" fill="white" stroke="white" stroke-width="1.2"/>
</svg>
