<svg width="94" height="158" viewBox="0 0 94 158" fill="none" xmlns="http://www.w3.org/2000/svg">
<g opacity="0.1" clip-path="url(#clip0_2048_6852)">
<path fill-rule="evenodd" clip-rule="evenodd" d="M79 158C122.63 158 158 122.63 158 79C158 35.3695 122.63 0 79 0C35.3695 0 0 35.3695 0 79C0 122.63 35.3695 158 79 158ZM101.519 112.345C106.053 107.96 108.32 102.162 108.32 94.9525C108.32 87.2967 105.236 81.462 99.0666 77.4483C96.5395 75.7388 91.4852 73.5089 83.9037 70.7588C83.8294 70.7588 83.7179 70.7216 83.5693 70.6473C83.4206 70.573 83.3091 70.5358 83.2348 70.5358V59.4981C85.2417 60.3901 86.7654 62.4712 87.806 65.7417L106.871 55.4844C102.263 45.5245 94.384 39.9128 83.2348 38.6492V29.0609H75.4304V38.5377C68.0719 39.1323 62.0885 41.6966 57.4802 46.2306C52.8719 50.6903 50.5677 56.4879 50.5677 63.6233C50.5677 67.1911 51.1252 70.3128 52.2401 72.9886C53.355 75.6644 55.1017 77.9686 57.4802 79.9011C59.8587 81.7593 62.3487 83.3202 64.9502 84.5838C67.5516 85.8473 70.8964 87.1852 74.9844 88.5975L75.4304 88.709V99.3007C71.7883 98.2601 69.4098 95.4728 68.2949 90.9388L48.6724 101.531C50.3819 106.882 53.578 111.193 58.2607 114.464C62.9433 117.66 68.6665 119.481 75.4304 119.927V129.403H83.2348V119.815C90.8906 119.146 96.9854 116.656 101.519 112.345ZM75.4304 67.637C72.9776 66.5221 71.7512 65.147 71.7512 63.5118C71.7512 61.282 72.9776 59.7954 75.4304 59.0522V67.637ZM87.137 95.3985C87.137 97.554 85.8363 98.8919 83.2348 99.4122V91.4963C85.8363 92.5368 87.137 93.8376 87.137 95.3985Z" fill="white"/>
</g>
<defs>
<clipPath id="clip0_2048_6852">
<rect width="94" height="158" fill="white"/>
</clipPath>
</defs>
</svg>
