<svg width="24" height="24" viewBox="0 0 24 24" fill="none" xmlns="http://www.w3.org/2000/svg">
<rect opacity="0.1" width="24" height="24" rx="12" fill="white"/>
<path opacity="0.6" d="M15.336 14.256C15.336 15.0773 15.0747 15.7447 14.552 16.258C14.0293 16.762 13.348 17.0653 12.508 17.168V18.4H11.57V17.182C10.786 17.126 10.114 16.9067 9.554 16.524C8.994 16.1413 8.59267 15.6233 8.35 14.97L10.016 14.004C10.3147 14.7507 10.8327 15.1753 11.57 15.278V12.856C11.5607 12.856 11.556 12.856 11.556 12.856L11.528 12.842C11.2013 12.7207 10.9353 12.6133 10.73 12.52C10.5247 12.4267 10.282 12.2913 10.002 12.114C9.73133 11.9367 9.51667 11.7547 9.358 11.568C9.20867 11.372 9.07333 11.1247 8.952 10.826C8.84 10.5273 8.784 10.2007 8.784 9.846C8.784 9.02467 9.05 8.36667 9.582 7.872C10.1233 7.37733 10.786 7.09267 11.57 7.018V5.8H12.508V7.046C13.7773 7.19533 14.6733 7.85333 15.196 9.02L13.572 9.972C13.348 9.412 12.9933 9.07133 12.508 8.95V11.288C13.376 11.6333 13.9593 11.9087 14.258 12.114C14.9767 12.6273 15.336 13.3413 15.336 14.256ZM10.702 9.86C10.702 10.0653 10.7673 10.2473 10.898 10.406C11.0287 10.5553 11.2527 10.7093 11.57 10.868V8.908C11.29 8.964 11.0753 9.076 10.926 9.244C10.7767 9.412 10.702 9.61733 10.702 9.86ZM12.508 15.25C13.1053 15.1193 13.404 14.7927 13.404 14.27C13.404 14.0367 13.3293 13.8407 13.18 13.682C13.04 13.5233 12.816 13.374 12.508 13.234L12.508 15.25Z" fill="white"/>
</svg>
