<svg width="34" height="34" viewBox="0 0 34 34" fill="none" xmlns="http://www.w3.org/2000/svg">
<g opacity="0.5" clip-path="url(#clip0)">
<path d="M9.87837 19.4168C10.8339 19.4168 11.7574 19.3551 12.6314 19.2402V9.66089C11.7575 9.54609 10.8339 9.48438 9.87837 9.48438C4.42271 9.48438 0 11.4902 0 13.9647V14.9364C0 17.4108 4.42271 19.4168 9.87837 19.4168Z" fill="white"/>
<path d="M9.87837 24.4166C10.8339 24.4166 11.7574 24.3548 12.6314 24.2401V21.4322C11.7573 21.547 10.8341 21.6096 9.87837 21.6096C5.11617 21.6096 1.1414 20.0811 0.207759 18.0469C0.0717928 18.3432 0 18.65 0 18.9645V19.9362C0 22.4107 4.42271 24.4166 9.87837 24.4166Z" fill="white"/>
<path d="M12.6314 26.6544V26.4361C11.7573 26.5509 10.8341 26.6135 9.87837 26.6135C5.11617 26.6135 1.1414 25.085 0.207759 23.0508C0.0717928 23.347 0 23.6538 0 23.9683V24.94C0 27.4146 4.42271 29.4204 9.87837 29.4204C10.9694 29.4204 12.0188 29.34 13.0001 29.1919C12.7569 28.6943 12.6314 28.1696 12.6314 27.626V26.6544Z" fill="white"/>
<path d="M24.1215 1.89453C18.6659 1.89453 14.2432 3.90041 14.2432 6.3749V7.34655C14.2432 9.82103 18.6659 11.8269 24.1215 11.8269C29.5771 11.8269 33.9999 9.82103 33.9999 7.34655V6.3749C33.9999 3.90041 29.5771 1.89453 24.1215 1.89453Z" fill="white"/>
<path d="M24.1215 14.0237C19.3593 14.0237 15.3846 12.4953 14.4509 10.4609C14.315 10.7572 14.2432 11.064 14.2432 11.3786V12.3502C14.2432 14.8247 18.6659 16.8306 24.1215 16.8306C29.5771 16.8306 33.9999 14.8247 33.9999 12.3502V11.3786C33.9999 11.064 33.9281 10.7572 33.7922 10.4609C32.8585 12.4953 28.8837 14.0237 24.1215 14.0237Z" fill="white"/>
<path d="M24.1215 19.0237C19.3593 19.0237 15.3846 17.4952 14.4509 15.4609C14.315 15.7572 14.2432 16.064 14.2432 16.3786V17.3502C14.2432 19.8248 18.6659 21.8307 24.1215 21.8307C29.5771 21.8307 33.9999 19.8248 33.9999 17.3502V16.3786C33.9999 16.064 33.9281 15.7572 33.7922 15.4609C32.8585 17.4953 28.8837 19.0237 24.1215 19.0237Z" fill="white"/>
<path d="M24.1215 24.2971C19.3593 24.2971 15.3846 22.7686 14.4509 20.7344C14.315 21.0307 14.2432 21.3374 14.2432 21.6519V22.6237C14.2432 25.0981 18.6659 27.104 24.1215 27.104C29.5771 27.104 33.9999 25.0981 33.9999 22.6237V21.6519C33.9999 21.3374 33.9281 21.0305 33.7922 20.7344C32.8585 22.7685 28.8837 24.2971 24.1215 24.2971Z" fill="white"/>
<path d="M24.1215 29.2971C19.3593 29.2971 15.3846 27.7687 14.4509 25.7345C14.315 26.0308 14.2432 26.3377 14.2432 26.652V27.6237C14.2432 30.0982 18.6659 32.104 24.1215 32.104C29.5771 32.104 33.9999 30.0982 33.9999 27.6237V26.6519C33.9999 26.3374 33.9281 26.0305 33.7922 25.7344C32.8585 27.7686 28.8837 29.2971 24.1215 29.2971Z" fill="white"/>
</g>
<defs>
<clipPath id="clip0">
<rect width="34.0001" height="34" fill="white"/>
</clipPath>
</defs>
</svg>
