<svg width="41" height="41" viewBox="0 0 41 41" fill="none" xmlns="http://www.w3.org/2000/svg">
<path fill-rule="evenodd" clip-rule="evenodd" d="M0 20.5C0 31.8218 9.17816 41 20.5 41C31.8218 41 41 31.8218 41 20.5C41 9.17816 31.8218 0 20.5 0C9.17816 0 0 9.17816 0 20.5ZM37.2727 20.5C37.2727 29.7633 29.7633 37.2727 20.5 37.2727C11.2367 37.2727 3.72727 29.7633 3.72727 20.5C3.72727 11.2367 11.2367 3.72727 20.5 3.72727C29.7633 3.72727 37.2727 11.2367 37.2727 20.5ZM26.0909 11.1818C28.1494 11.1818 29.8182 12.8506 29.8182 14.9091V26.0909C29.8182 28.1494 28.1494 29.8182 26.0909 29.8182H14.9091C12.8506 29.8182 11.1818 28.1494 11.1818 26.0909V14.9091C11.1818 12.8506 12.8506 11.1818 14.9091 11.1818H26.0909ZM14.9091 26.0909V14.9091H26.0909V26.0909H14.9091Z" fill="white"/>
</svg>
