<svg width="25" height="24" viewBox="0 0 25 24" fill="none" xmlns="http://www.w3.org/2000/svg">
<g opacity="0.8" clip-path="url(#clip0)">
<path d="M12.5 0C5.87284 0 0.5 5.37284 0.5 12C0.5 18.6272 5.87284 24 12.5 24C19.1272 24 24.5 18.6272 24.5 12C24.5 5.37284 19.1272 0 12.5 0ZM15.9469 16.7309C15.4235 17.3679 14.742 17.7975 13.9469 18.0148C13.6012 18.1086 13.4432 18.2914 13.463 18.6519C13.4778 19.0074 13.463 19.358 13.458 19.7136C13.458 20.0296 13.2951 20.1975 12.984 20.2074C12.7815 20.2123 12.579 20.2173 12.3765 20.2173C12.1988 20.2173 12.021 20.2173 11.8432 20.2123C11.5074 20.2074 11.3494 20.0148 11.3494 19.6889C11.3444 19.4321 11.3444 19.1704 11.3444 18.9136C11.3395 18.3407 11.3198 18.321 10.7716 18.2321C10.0704 18.1185 9.37901 17.9605 8.73704 17.6494C8.23333 17.4025 8.17901 17.279 8.32222 16.7457C8.43086 16.3506 8.53951 15.9556 8.66296 15.5654C8.75185 15.279 8.8358 15.1506 8.98889 15.1506C9.07778 15.1506 9.19136 15.1951 9.34445 15.2741C10.0556 15.6444 10.8111 15.8519 11.6062 15.9506C11.7395 15.9654 11.8728 15.9753 12.0062 15.9753C12.3765 15.9753 12.737 15.9062 13.0877 15.7531C13.9716 15.3679 14.1099 14.3457 13.3642 13.7333C13.1123 13.5259 12.821 13.3728 12.5198 13.2395C11.7444 12.8988 10.9395 12.642 10.2086 12.2025C9.02346 11.4914 8.27284 10.5185 8.36173 9.07654C8.46049 7.44691 9.38395 6.42963 10.8802 5.88642C11.4975 5.6642 11.5025 5.66914 11.5025 5.02716C11.5025 4.80988 11.4975 4.59259 11.5074 4.37037C11.5222 3.88642 11.6012 3.80247 12.0852 3.78765C12.1395 3.78765 12.1988 3.78765 12.2531 3.78765C12.3469 3.78765 12.4407 3.78765 12.5346 3.78765C12.5741 3.78765 12.6136 3.78765 12.6481 3.78765C13.5667 3.78765 13.5667 3.82716 13.5716 4.81975C13.5765 5.55062 13.5765 5.55062 14.3025 5.6642C14.8605 5.75309 15.3889 5.91605 15.9025 6.14321C16.184 6.26667 16.2926 6.4642 16.2037 6.76543C16.0753 7.20988 15.9519 7.65926 15.8136 8.09877C15.7247 8.36543 15.6407 8.48889 15.4827 8.48889C15.3938 8.48889 15.2852 8.45432 15.1469 8.38519C14.4358 8.03951 13.6901 7.8716 12.9099 7.8716C12.8111 7.8716 12.7074 7.87654 12.6086 7.88148C12.3765 7.8963 12.1494 7.92593 11.9321 8.01975C11.1617 8.35556 11.0383 9.20494 11.6951 9.7284C12.0259 9.99506 12.4062 10.1827 12.7963 10.3457C13.4778 10.6272 14.1593 10.8988 14.8062 11.2543C16.8407 12.3901 17.3938 14.9728 15.9469 16.7309Z" fill="white"/>
</g>
<defs>
<clipPath id="clip0">
<rect width="24" height="24" fill="white" transform="translate(0.5)"/>
</clipPath>
</defs>
</svg>
