<svg width="41" height="40" viewBox="0 0 41 40" fill="none" xmlns="http://www.w3.org/2000/svg">
<path fill-rule="evenodd" clip-rule="evenodd" d="M0.308594 20C0.308594 31.0457 9.2629 40 20.3086 40C31.3543 40 40.3086 31.0457 40.3086 20C40.3086 8.9543 31.3543 0 20.3086 0C9.2629 0 0.308594 8.9543 0.308594 20ZM36.6716 20.0018C36.6716 29.0392 29.3453 36.3654 20.3079 36.3654C11.2706 36.3654 3.94431 29.0392 3.94431 20.0018C3.94431 10.9644 11.2706 3.63815 20.3079 3.63815C29.3453 3.63815 36.6716 10.9644 36.6716 20.0018ZM14.8541 10.9144H25.7632C27.7715 10.9144 29.3995 12.5425 29.3995 14.5508V25.4599C29.3995 27.4682 27.7715 29.0963 25.7632 29.0963H14.8541C12.8458 29.0963 11.2177 27.4682 11.2177 25.4599V14.5508C11.2177 12.5425 12.8458 10.9144 14.8541 10.9144ZM14.8534 25.4617V14.5526H25.7625V25.4617H14.8534Z" fill="white"/>
</svg>
