<svg width="24" height="24" viewBox="0 0 24 24" fill="none" xmlns="http://www.w3.org/2000/svg">
<g clip-path="url(#clip0)">
<path d="M12.7072 7.05025L16.2427 3.51472C16.4302 3.32718 16.5356 3.07283 16.5356 2.80761C16.5356 2.54239 16.4302 2.28804 16.2427 2.1005C16.0552 1.91297 15.8008 1.80761 15.5356 1.80761C15.2704 1.80761 15.016 1.91297 14.8285 2.1005L12 4.92893L9.17162 2.1005C8.98408 1.91297 8.72973 1.80761 8.46451 1.80761C8.1993 1.80761 7.94494 1.91297 7.7574 2.1005C7.56987 2.28804 7.46451 2.54239 7.46451 2.80761C7.46451 3.07283 7.56987 3.32718 7.7574 3.51472L11.2929 7.05025C11.4805 7.23779 11.7348 7.34314 12 7.34314C12.2653 7.34314 12.5196 7.23779 12.7072 7.05025ZM11.2929 16.9497L7.75741 20.4853C7.56987 20.6728 7.46451 20.9272 7.46451 21.1924C7.46451 21.4576 7.56987 21.712 7.75741 21.8995C7.94494 22.087 8.1993 22.1924 8.46451 22.1924C8.72973 22.1924 8.98408 22.087 9.17162 21.8995L12 19.0711L14.8285 21.8995C15.016 22.087 15.2704 22.1924 15.5356 22.1924C15.8008 22.1924 16.0552 22.087 16.2427 21.8995C16.4302 21.712 16.5356 21.4576 16.5356 21.1924C16.5356 20.9272 16.4302 20.6728 16.2427 20.4853L12.7072 16.9497C12.5196 16.7622 12.2653 16.6569 12 16.6569C11.7348 16.6569 11.4805 16.7622 11.2929 16.9497ZM2.10055 7.75736C1.91301 7.9449 1.80766 8.19925 1.80766 8.46447C1.80766 8.72968 1.91301 8.98404 2.10055 9.17157L4.92898 12L2.10055 14.8284C1.91301 15.016 1.80766 15.2703 1.80766 15.5355C1.80766 15.8008 1.91301 16.0551 2.10055 16.2426C2.28809 16.4302 2.54244 16.5355 2.80766 16.5355C3.07287 16.5355 3.32723 16.4302 3.51476 16.2426L7.0503 12.7071C7.23783 12.5196 7.34319 12.2652 7.34319 12C7.34319 11.7348 7.23783 11.4804 7.0503 11.2929L3.51476 7.75736C3.32723 7.56982 3.07287 7.46447 2.80766 7.46447C2.54244 7.46447 2.28809 7.56982 2.10055 7.75736ZM20.4853 7.75736L16.9498 11.2929C16.7623 11.4804 16.6569 11.7348 16.6569 12C16.6569 12.2652 16.7623 12.5196 16.9498 12.7071L20.4853 16.2426C20.6729 16.4302 20.9272 16.5355 21.1924 16.5355C21.4577 16.5355 21.712 16.4302 21.8995 16.2426C22.0871 16.0551 22.1924 15.8007 22.1924 15.5355C22.1924 15.2703 22.0871 15.016 21.8995 14.8284L19.0711 12L21.8995 9.17157C22.0871 8.98404 22.1924 8.72968 22.1924 8.46446C22.1924 8.19925 22.0871 7.94489 21.8995 7.75736C21.712 7.56982 21.4577 7.46446 21.1924 7.46446C20.9272 7.46446 20.6729 7.56982 20.4853 7.75736Z" fill="white"/>
</g>
<defs>
<clipPath id="clip0">
<rect width="24" height="24" fill="white"/>
</clipPath>
</defs>
</svg>
