<svg width="111" height="111" viewBox="0 0 111 111" fill="none" xmlns="http://www.w3.org/2000/svg">
<path opacity="0.4" d="M46.385 93H43.499L42.199 90.816L40.886 93H38L40.756 88.398L38.065 83.9H40.951L42.199 85.98L43.434 83.9H46.32L43.642 88.398L46.385 93Z" fill="white"/>
<path d="M64.796 22.478H67.825V25H61.39V22.998L64.289 18.422H61.455V15.9H67.695V17.902L64.796 22.478Z" fill="white"/>
<path opacity="0.4" d="M93.762 67.9L90.681 73.542V77H88.081V73.542L85 67.9H87.886L89.381 71.098L90.876 67.9H93.762Z" fill="white"/>
<path d="M49 22.1538L53 18L57 22.1538M53 18.5769V50.5" stroke="white" stroke-width="2" stroke-miterlimit="10" stroke-linecap="square"/>
<path opacity="0.4" d="M87.3462 53L91.5 57L87.3462 61M90.9231 57H59" stroke="white" stroke-width="2" stroke-miterlimit="10" stroke-linecap="square"/>
<path opacity="0.4" d="M25.9367 77.0438L25.8279 82.8094L31.5936 82.7006M26.2359 82.4015L48.8089 59.8284" stroke="white" stroke-width="2" stroke-miterlimit="10" stroke-linecap="square"/>
<circle opacity="0.2" cx="55.5" cy="55.5" r="55" stroke="white" stroke-dasharray="2 2"/>
</svg>
