<svg width="24" height="24" viewBox="0 0 24 24" fill="none" xmlns="http://www.w3.org/2000/svg">
<path d="M22.1344 9.40144C22.1378 9.45869 22.1333 9.51694 22.1181 9.57481L20.7611 14.7081C20.6927 14.9668 20.4476 15.1486 20.1658 15.15L12.0238 15.1889C12.0227 15.1889 12.0217 15.1889 12.0206 15.1889H3.8785C3.59526 15.1889 3.34845 15.0064 3.28002 14.7465L1.92301 9.59371C1.90739 9.53429 1.90286 9.4744 1.90681 9.41568C1.38185 9.25927 1 8.7947 1 8.24722C1 7.57172 1.58105 7.02222 2.29533 7.02222C3.00961 7.02222 3.59065 7.57172 3.59065 8.24722C3.59065 8.62763 3.40635 8.96799 3.11776 9.19284L4.81673 10.8117C5.24612 11.2209 5.84197 11.4555 6.45156 11.4555C7.17234 11.4555 7.85956 11.1318 8.29232 10.5894L11.0845 7.09067C10.8499 6.869 10.7047 6.56271 10.7047 6.225C10.7047 5.5495 11.2857 5 12 5C12.7143 5 13.2953 5.5495 13.2953 6.225C13.2953 6.5526 13.1578 6.84994 12.9355 7.06998C12.9363 7.07091 12.9372 7.07169 12.9379 7.0727L15.7098 10.5811C16.1424 11.1287 16.8321 11.4556 17.5549 11.4556C18.1701 11.4556 18.7486 11.229 19.1836 10.8175L20.8933 9.2007C20.5986 8.97592 20.4093 8.6323 20.4093 8.24722C20.4093 7.57172 20.9904 7.02222 21.7047 7.02222C22.419 7.02222 23 7.57172 23 8.24722C23 8.78008 22.6377 9.23329 22.1344 9.40144ZM20.6287 17.0167C20.6287 16.6945 20.3525 16.4333 20.0119 16.4333H4.05673C3.71607 16.4333 3.4399 16.6945 3.4399 17.0167V18.4167C3.4399 18.7388 3.71607 19 4.05673 19H20.0119C20.3525 19 20.6287 18.7388 20.6287 18.4167V17.0167Z" fill="white"/>
</svg>
