<svg width="20" height="24" viewBox="0 0 20 24" fill="none" xmlns="http://www.w3.org/2000/svg">
<path d="M7.86822 7.55496C9.02143 7.55496 9.95629 6.6201 9.95629 5.4669C9.95629 4.31369 9.02143 3.37883 7.86822 3.37883C6.71501 3.37883 5.78015 4.31369 5.78015 5.4669C5.78015 6.6201 6.71501 7.55496 7.86822 7.55496Z" fill="white"/>
<path d="M19.4117 18.607C18.3301 16.7097 16.7084 15.4154 14.7173 14.5997C14.5943 12.1304 13.3938 9.80593 11.4674 8.23728C10.4893 7.44038 9.13941 7.28907 8.18601 8.25485C8.12732 8.31394 8.07342 8.37822 8.02231 8.44449C6.05721 7.325 3.89329 6.48658 1.89545 5.80866C0.379906 5.29442 -0.265279 7.68552 1.23749 8.19536C3.49923 8.96232 5.98535 9.95644 8.05505 11.3977C8.10216 11.4456 8.15047 11.4928 8.20357 11.5363C9.38974 12.5017 10.1264 13.6491 10.0856 15.203C10.0788 15.4565 10.108 15.6865 10.1631 15.8969C10.0341 16.6985 9.84688 17.4915 9.61052 18.2688C8.8787 17.5126 8.19718 16.7133 7.63065 15.8142C6.56945 14.1322 3.89169 15.6837 4.95928 17.3753C6.09674 19.1795 7.58035 20.6743 9.14061 22.1104C9.79617 22.7144 11.1628 22.7611 11.57 21.7973C12.1817 20.3493 12.6696 18.8904 12.9985 17.3861C13.0984 17.3613 13.1962 17.3282 13.2924 17.2926C13.397 17.3637 13.5124 17.4252 13.6417 17.4751C14.6391 17.8564 15.4655 18.466 16.1167 19.2621C15.404 20.0055 14.6227 20.6679 13.6845 21.145C11.9066 22.0505 13.4724 24.719 15.2459 23.8155C16.7942 23.0278 18.0622 21.8013 19.1681 20.4802C19.6257 19.9376 19.779 19.2529 19.4117 18.607Z" fill="white"/>
<path d="M6.56626 3.06182C6.85771 2.95403 7.17152 2.73803 7.5001 2.73803C8.23991 2.73803 8.90985 3.03667 9.39853 3.51856C9.08033 2.63702 8.77091 1.75189 8.48145 0.85997C7.99158 -0.651982 5.60168 -0.00480097 6.09475 1.51793C6.24566 1.98306 6.40696 2.59949 6.56626 3.06182Z" fill="white"/>
</svg>
