<svg width="24" height="24" viewBox="0 0 24 24" fill="none" xmlns="http://www.w3.org/2000/svg">
<g opacity="0.6">
<path d="M15.7225 0.912989C16.0176 1.27415 16.2052 1.71103 16.2638 2.17372C16.3224 2.6364 16.2497 3.10625 16.054 3.52959C15.8583 3.95293 15.5475 4.31269 15.1571 4.56779C14.7666 4.82289 14.3123 4.96304 13.846 4.97224C13.5059 4.98071 13.1677 4.9193 12.8523 4.79179C12.5368 4.66429 12.2509 4.47341 12.0122 4.23098C11.7735 3.98854 11.5871 3.69969 11.4646 3.38232C11.342 3.06494 11.2859 2.72579 11.2996 2.38585C11.3134 2.04591 11.3968 1.71241 11.5446 1.40599C11.6925 1.09957 11.9016 0.826752 12.1592 0.604416C12.4167 0.38208 12.7171 0.214957 13.0418 0.113389C13.3665 0.0118207 13.7086 -0.0220313 14.0469 0.0139275C14.3718 0.0456064 14.6871 0.141375 14.9747 0.295695C15.2624 0.450015 15.5165 0.659824 15.7225 0.912989ZM3.93921 12.8409V7.94135L7.45216 7.15987V9.95505H7.36887C6.28363 9.95505 5.40907 10.712 5.40907 11.6454C5.40907 12.5787 6.29343 13.3357 7.36887 13.3357C8.44432 13.3357 9.32868 12.5787 9.32868 11.6454V4.51658C9.33092 4.4051 9.30835 4.29451 9.26259 4.19282C9.21683 4.09114 9.14903 4.0009 9.06411 3.92864C8.97554 3.85922 8.87281 3.81008 8.76318 3.78468C8.65356 3.75929 8.53969 3.75825 8.42962 3.78166L2.77313 5.02613C2.56812 5.07056 2.38464 5.18416 2.25349 5.34787C2.12234 5.51158 2.05151 5.71543 2.0529 5.92519V11.1505H1.95981C0.874564 11.1505 0 11.9075 0 12.8409C0 13.7742 0.884363 14.5287 1.95981 14.5287C3.03525 14.5287 3.93921 13.7718 3.93921 12.8409ZM22.2928 15.2024L18.1111 16.2803L16.4942 13.1765L16.2492 8.91635L19.0469 9.95505C19.2545 10.0324 19.4802 10.0477 19.6964 9.99897C19.9126 9.95025 20.11 9.83965 20.2644 9.68067L22.9346 6.96144C23.1415 6.75813 23.2658 6.48539 23.2834 6.19586C23.3011 5.90633 23.2108 5.62053 23.0302 5.3936C22.928 5.27128 22.8014 5.17171 22.6585 5.10128C22.5155 5.03085 22.3594 4.99112 22.2002 4.98466C22.041 4.9782 21.8822 5.00515 21.734 5.06376C21.5858 5.12238 21.4516 5.21137 21.3398 5.325L19.1522 7.55428L16.7735 6.66992C16.4879 6.56496 16.1861 6.51106 15.8818 6.51069H12.7951C12.3351 6.51069 11.8939 6.69342 11.5687 7.01869C11.2434 7.34396 11.0607 7.78512 11.0607 8.24511V13.7228L7.88577 16.295C7.65537 16.4703 7.48644 16.7141 7.40326 16.9914C7.32007 17.2687 7.3269 17.5652 7.42277 17.8384L9.18659 22.853C9.23313 23.0377 9.31768 23.2106 9.43482 23.3607C9.55196 23.5109 9.69913 23.6349 9.86692 23.725C10.0347 23.815 10.2194 23.8691 10.4093 23.8837C10.5992 23.8983 10.79 23.8732 10.9696 23.8099C11.1492 23.7466 11.3136 23.6466 11.4524 23.5161C11.5911 23.3857 11.7012 23.2278 11.7754 23.0524C11.8497 22.8771 11.8866 22.6882 11.8837 22.4978C11.8809 22.3074 11.8383 22.1196 11.7588 21.9466L10.338 17.8702L14.189 15.4205L16.3325 18.588C16.4876 18.8327 16.7163 19.0219 16.9857 19.1284C17.2551 19.235 17.5513 19.2533 17.8318 19.1808L22.9248 17.8678C23.2774 17.7819 23.5831 17.5633 23.7785 17.2575C23.9738 16.9517 24.0436 16.5824 23.9733 16.2264C23.9329 16.0473 23.8569 15.8782 23.7499 15.7291C23.6428 15.5799 23.5068 15.4539 23.35 15.3583C23.1933 15.2628 23.0189 15.1998 22.8373 15.173C22.6556 15.1462 22.4705 15.1562 22.2928 15.2024Z" fill="white"/>
</g>
</svg>
