<svg width="14" height="14" viewBox="0 0 14 14" fill="none" xmlns="http://www.w3.org/2000/svg">
<path d="M12.5514 5.4803C12.5816 5.27684 12.5999 5.07199 12.5999 4.86234C12.5999 4.41684 12.5269 3.98483 12.3946 3.57652C11.7408 1.56102 9.58246 0.0663208 6.99936 0C4.41688 0.0663208 2.25789 1.56102 1.60475 3.57667C1.47165 3.98498 1.3999 4.417 1.3999 4.86249C1.3999 5.07215 1.41695 5.27684 1.44856 5.48045C1.49164 5.77766 1.56772 6.0668 1.6751 6.34386C1.89452 6.91689 1.90366 7.55003 1.68672 8.12677C1.65573 8.21479 1.63017 8.30234 1.6125 8.39469C1.58523 8.51137 1.57361 8.63534 1.57361 8.76039C1.57361 9.28166 1.79845 9.75923 2.17158 10.1179C2.42183 10.367 2.73655 10.5627 3.09465 10.6854C3.58446 10.8555 3.90522 11.3258 3.90522 11.846V12.501C3.90522 12.7138 4.00129 12.9057 4.15314 13.0322V13.6277H4.15562C4.15624 13.8051 4.34761 13.946 4.58221 13.946C4.8179 13.946 5.00927 13.8051 5.00927 13.6275H5.00989V13.0674C5.05126 13.0393 5.08892 13.0065 5.12285 12.9701C5.16717 12.9216 5.24434 12.9226 5.28943 12.9713C5.31314 12.9981 5.33855 13.0224 5.3666 13.0443V13.6277H5.36784C5.36784 13.8053 5.55735 13.9461 5.79551 13.9461C5.91219 13.9461 6.01973 13.9108 6.0969 13.8538C6.17469 13.7953 6.22319 13.7163 6.22319 13.6277V13.0638C6.26022 13.0358 6.29369 13.0041 6.32407 12.9702C6.36714 12.9217 6.44555 12.9217 6.48987 12.9702C6.51652 13.0006 6.54643 13.0274 6.57788 13.0516V13.6277H6.58098C6.58098 13.8028 6.76569 13.9412 6.99905 13.9449C7.23303 13.9413 7.41774 13.8028 7.41774 13.6277H7.42022V13.0516C7.45245 13.0274 7.48204 13.0006 7.50885 12.9702C7.55379 12.9217 7.63158 12.9217 7.67465 12.9702C7.70502 13.0043 7.7385 13.0359 7.77553 13.0638V13.6277C7.77553 13.7163 7.82403 13.7953 7.90182 13.8538C7.98007 13.9106 8.08714 13.946 8.20383 13.946C8.44261 13.946 8.63228 13.8051 8.63228 13.6275V13.0441C8.66017 13.0223 8.68698 12.9979 8.71006 12.9711C8.755 12.9226 8.83155 12.9214 8.87649 12.9699C8.91058 13.0063 8.94823 13.0392 8.98945 13.0672V13.6274C8.98945 13.805 9.18144 13.9458 9.41728 13.9458C9.65188 13.9458 9.84387 13.805 9.84387 13.6274H9.84635V13.0319C9.99821 12.9056 10.0943 12.7134 10.0943 12.5007V11.8457C10.0943 11.3255 10.415 10.8551 10.9048 10.6851C11.2633 10.5624 11.5781 10.3667 11.8271 10.1176C12.2015 9.75907 12.4264 9.2815 12.4264 8.76008C12.4264 8.63487 12.4141 8.51106 12.3862 8.39438C12.3692 8.30188 12.3436 8.21448 12.312 8.12647C12.0957 7.54972 12.1053 6.91658 12.3241 6.34355C12.4324 6.06665 12.5077 5.7775 12.5514 5.4803ZM5.90073 8.61086C5.66613 9.29762 5.12471 9.77627 4.5348 9.89543C4.488 9.90396 4.44121 9.91124 4.39023 9.91728C4.3786 9.91852 4.3628 9.91852 4.34715 9.921C4.31802 9.92348 4.28625 9.92456 4.25712 9.92456C4.10697 9.92456 3.95449 9.90148 3.80558 9.85034C3.64148 9.79549 3.49505 9.70933 3.36628 9.60226C3.05885 9.34596 2.85958 8.9595 2.80488 8.52563C2.78365 8.35053 2.78365 8.1714 2.80906 7.98964H2.81263V7.98174C3.06474 6.50021 6.38977 7.00459 6.1079 7.98964V7.9915C6.0594 8.14955 6.00284 8.31412 5.94381 8.49045C5.93048 8.5295 5.91653 8.57088 5.90073 8.61086ZM7.89872 10.9845C7.83674 11.2056 7.63498 11.3672 7.39496 11.3672C7.28432 11.3672 7.1836 11.3345 7.099 11.2773C7.06924 11.2567 7.03453 11.2457 6.99936 11.247C6.96465 11.2457 6.93009 11.2567 6.90034 11.2773C6.81589 11.3345 6.71502 11.3672 6.605 11.3672C6.36435 11.3672 6.16322 11.2056 6.10062 10.9845C6.08667 10.942 6.08125 10.8919 6.08125 10.8434C6.08125 10.582 6.74911 9.43258 6.95272 9.29405C6.95334 9.29266 6.97643 9.27329 6.99951 9.27329C7.02322 9.27329 7.04631 9.29266 7.04693 9.29405C7.25039 9.43258 7.91886 10.582 7.91886 10.8434C7.91871 10.8919 7.91266 10.9418 7.89872 10.9845ZM11.1938 8.52578C11.1391 8.95966 10.9399 9.34612 10.6337 9.60241C10.5048 9.70933 10.3579 9.79564 10.1938 9.8505C10.0455 9.90148 9.89237 9.92472 9.7416 9.92472C9.71247 9.92472 9.6807 9.92348 9.65297 9.92116C9.637 9.91852 9.62135 9.91852 9.60927 9.91744C9.55813 9.91139 9.51196 9.90411 9.46454 9.89559C8.87509 9.77643 8.33306 9.29777 8.09861 8.61101C8.08281 8.57088 8.06948 8.52966 8.05553 8.49076C7.99712 8.31443 7.94009 8.14986 7.89144 7.99181V7.98995C7.61019 7.00506 10.9338 6.50068 11.1867 7.98205V7.98995H11.1903C11.2158 8.17156 11.2158 8.35084 11.1938 8.52578Z" fill="white"/>
</svg>
