<svg width="20" height="20" viewBox="0 0 20 20" fill="none" xmlns="http://www.w3.org/2000/svg">
<path d="M20 8.125C20 3.6375 15.5227 0 10 0C4.47733 0 0 3.6375 0 8.125C0 9.50937 0.428667 10.8112 1.18 11.9519C0.855333 13.1075 0.666667 13.995 0.666667 14.375C0.666667 15.1925 1.33333 16.25 2.66667 16.25H4.66667V18.75C4.66667 19.4406 5.26333 20 6 20H7.33333V18.125C7.33333 17.78 7.632 17.5 8 17.5C8.368 17.5 8.66667 17.78 8.66667 18.125V20H11.3333V18.125C11.3333 17.78 11.632 17.5 12 17.5C12.368 17.5 12.6667 17.78 12.6667 18.125V20H14C14.7367 20 15.3333 19.4406 15.3333 18.75V16.25H17.3333C18.6667 16.25 19.3333 15.1925 19.3333 14.375C19.3333 13.995 19.1447 13.1075 18.82 11.9519C19.5713 10.8112 20 9.50937 20 8.125ZM3.33333 10C3.33333 8.61938 4.52733 7.5 6 7.5C7.47267 7.5 8.66667 8.61938 8.66667 10C8.66667 11.3806 7.47267 12.5 6 12.5C4.52733 12.5 3.33333 11.3806 3.33333 10ZM14 12.5C12.5273 12.5 11.3333 11.3806 11.3333 10C11.3333 8.61938 12.5273 7.5 14 7.5C15.4727 7.5 16.6667 8.61938 16.6667 10C16.6667 11.3806 15.4727 12.5 14 12.5Z" fill="#EB5757"/>
</svg>
