<svg width="18" height="20" viewBox="0 0 18 20" fill="none" xmlns="http://www.w3.org/2000/svg">
<path d="M18 8.125C18 3.6375 13.9704 0 9 0C4.0296 0 0 3.6375 0 8.125C0 9.50937 0.3858 10.8112 1.062 11.9519C0.7698 13.1075 0.6 13.995 0.6 14.375C0.6 15.1925 1.2 16.25 2.4 16.25H4.2V18.75C4.2 19.4406 4.737 20 5.4 20H6.6V18.125C6.6 17.78 6.8688 17.5 7.2 17.5C7.5312 17.5 7.8 17.78 7.8 18.125V20H10.2V18.125C10.2 17.78 10.4688 17.5 10.8 17.5C11.1312 17.5 11.4 17.78 11.4 18.125V20H12.6C13.263 20 13.8 19.4406 13.8 18.75V16.25H15.6C16.8 16.25 17.4 15.1925 17.4 14.375C17.4 13.995 17.2302 13.1075 16.938 11.9519C17.6142 10.8112 18 9.50937 18 8.125ZM3 10C3 8.61938 4.0746 7.5 5.4 7.5C6.7254 7.5 7.8 8.61938 7.8 10C7.8 11.3806 6.7254 12.5 5.4 12.5C4.0746 12.5 3 11.3806 3 10ZM12.6 12.5C11.2746 12.5 10.2 11.3806 10.2 10C10.2 8.61938 11.2746 7.5 12.6 7.5C13.9254 7.5 15 8.61938 15 10C15 11.3806 13.9254 12.5 12.6 12.5Z" fill="white"/>
</svg>
