<svg width="30" height="30" viewBox="0 0 30 30" fill="none" xmlns="http://www.w3.org/2000/svg">
<g>
<path d="M17.3165 7.68281C17.0728 7.43906 16.6765 7.43906 16.4328 7.68281L10.1828 13.9328C9.93906 14.1765 9.93906 14.5728 10.1828 14.8165C10.3053 14.9391 10.4653 14.9991 10.6253 14.9991C10.7853 14.9991 10.9453 14.9378 11.0678 14.8165L17.3178 8.56652C17.5603 8.32277 17.5603 7.92779 17.3165 7.68281Z" fill="white"/>
<path d="M10.6241 11.2491C10.7841 11.2491 10.9441 11.1879 11.0666 11.0666L13.5666 8.56658C13.8104 8.32283 13.8104 7.92656 13.5666 7.68281C13.3229 7.43906 12.9266 7.43906 12.6828 7.68281L10.1828 10.1828C9.93906 10.4266 9.93906 10.8229 10.1828 11.0666C10.3041 11.1879 10.4641 11.2491 10.6241 11.2491Z" fill="white"/>
<path d="M19.8166 15.1828C19.5729 14.9391 19.1766 14.9391 18.9328 15.1828L12.6828 21.4328C12.4391 21.6765 12.4391 22.0728 12.6828 22.3165C12.8053 22.4391 12.9653 22.4991 13.1253 22.4991C13.2853 22.4991 13.4453 22.4378 13.5678 22.3165L19.8178 16.0665C20.0604 15.8228 20.0604 15.4278 19.8166 15.1828Z" fill="white"/>
<path d="M15 0C8.7975 0 3.75 6.72873 3.75 15C3.75 23.2713 8.7975 30 15 30C21.2025 30 26.25 23.2713 26.25 15C26.25 6.72873 21.2025 0 15 0ZM15 26.25C10.935 26.25 7.5 21.0975 7.5 15C7.5 8.9025 10.935 3.75 15 3.75C19.065 3.75 22.5 8.9025 22.5 15C22.5 21.0975 19.065 26.25 15 26.25Z" fill="white"/>
<path d="M18.9328 18.9328L16.4328 21.4328C16.1891 21.6766 16.1891 22.0729 16.4328 22.3166C16.5553 22.4391 16.7153 22.4991 16.8753 22.4991C17.0353 22.4991 17.1953 22.4379 17.3178 22.3166L19.8178 19.8166C20.0616 19.5728 20.0616 19.1766 19.8178 18.9328C19.5741 18.6891 19.1778 18.6891 18.9328 18.9328Z" fill="white"/>
</g>
</svg>
