<svg width="40" height="40" viewBox="0 0 40 40" fill="none" xmlns="http://www.w3.org/2000/svg">
<path d="M38.9955 30.8009V9.3845C38.9955 9.23066 38.9955 9.08164 38.9955 8.92781C38.9909 8.28363 38.7284 7.70195 38.2306 7.33179C37.7689 6.98566 37.262 7.00009 36.737 7.00009H12.9804C12.6319 7.00009 12.2834 7.00009 11.9349 7.00009C11.3601 7.00489 10.817 7.2068 10.3871 7.62022C10.2603 7.74041 10.1562 7.87982 10.0476 8.01442C8.81203 9.53833 7.57644 11.0574 6.34539 12.5813C4.93783 14.3168 3.53026 16.0522 2.1227 17.7876C1.71084 18.2972 1.1813 18.826 1.05005 19.5038C0.896168 20.2634 1.10436 20.9604 1.57506 21.5421C1.70178 21.7007 1.82851 21.8546 1.95524 22.0132C3.31302 23.6862 4.67532 25.3639 6.0331 27.0368C7.33204 28.6377 8.63099 30.2385 9.92993 31.8393C10.0295 31.9643 10.1291 32.0893 10.2332 32.2095C10.6586 32.719 11.2651 32.9882 11.9032 32.9979C12.1974 33.0027 12.4916 32.9979 12.7858 32.9979H37.2032C37.2168 32.9979 37.2258 32.9979 37.2394 32.9979C37.253 32.9979 37.2666 32.9979 37.2801 32.9979H37.2847C38.2396 32.945 38.9774 32.147 39 31.123C38.9955 31.0125 38.9955 30.9067 38.9955 30.8009ZM25.9382 20.7008C27.0787 21.9123 28.2192 23.1237 29.3552 24.3303C29.8938 24.9024 29.8531 25.7966 29.3552 26.3686C28.8574 26.9407 27.9386 26.9022 27.4362 26.3686C27.0199 25.9264 26.6035 25.4841 26.1871 25.0418C25.2412 24.0371 24.2998 23.0372 23.3538 22.0325C23.1321 22.2632 22.9148 22.4988 22.6931 22.7343C21.5525 23.9458 20.412 25.1572 19.2715 26.3638C18.7329 26.9359 17.8956 26.8926 17.3525 26.3638C16.8139 25.835 16.8501 24.8591 17.3525 24.3255L18.6016 22.9987C19.543 21.994 20.4889 20.9941 21.4349 19.9894C21.2131 19.7538 20.9958 19.5231 20.7741 19.2875L17.357 15.658C16.8184 15.0859 16.8591 14.1918 17.357 13.6197C17.8548 13.0476 18.7736 13.0861 19.276 13.6197C19.6924 14.062 20.1088 14.5043 20.5251 14.9465C21.4711 15.9512 22.4125 16.9512 23.3584 17.9559C23.5801 17.7203 23.7974 17.4896 24.0192 17.254C25.1597 16.0426 26.3002 14.8311 27.4362 13.6245C27.9748 13.0525 28.8166 13.0957 29.3552 13.6245C29.8938 14.1533 29.8576 15.1292 29.3552 15.6628C28.9388 16.1051 28.5225 16.5473 28.1061 16.9896C27.1602 17.9895 26.2188 18.9943 25.2728 19.999L25.9382 20.7008Z" fill="white"/>
</svg>
