<svg width="127" height="26" viewBox="0 0 127 26" fill="none" xmlns="http://www.w3.org/2000/svg">
<rect width="26" height="26" rx="2" fill="url(#paint0_radial_60_59980)"/>
<g clip-path="url(#clip0_60_59980)">
<path d="M19.2385 15.5637V12.4961H13.4688V10.4378H15.2482V5.94141H10.7518V10.4378H12.5312V12.496H6.76147V15.5637H5V20.0601H9.49644V15.5637H7.69897V13.4336H12.5312V15.5637H10.7518V20.0602H15.2482V15.5637H13.4688V13.4336H18.301V15.5637H16.5036V20.0602H21V15.5637H19.2385Z" fill="white"/>
</g>
<rect x="31" width="96" height="26" rx="1" fill="url(#paint1_radial_60_59980)" fill-opacity="0.25"/>
<path d="M44.4 8.2C45.7347 8.2 46.836 8.676 47.704 9.628C48.5813 10.5707 49.02 11.728 49.02 13.1C49.02 14.472 48.5813 15.634 47.704 16.586C46.836 17.5287 45.7347 18 44.4 18H40.62V8.2H44.4ZM44.4 17.076C45.4733 17.076 46.3507 16.6933 47.032 15.928C47.7227 15.1627 48.068 14.22 48.068 13.1C48.068 11.98 47.7227 11.0373 47.032 10.272C46.3507 9.50667 45.4733 9.124 44.4 9.124H41.6V17.076H44.4ZM53.7902 10.832C54.8262 10.832 55.6615 11.2007 56.2962 11.938C56.9402 12.666 57.2622 13.5293 57.2622 14.528C57.2622 14.6307 57.2528 14.7753 57.2342 14.962H51.0882C51.1815 15.6713 51.4802 16.236 51.9842 16.656C52.4975 17.0667 53.1275 17.272 53.8742 17.272C54.4062 17.272 54.8635 17.1647 55.2462 16.95C55.6382 16.726 55.9322 16.4367 56.1282 16.082L56.9402 16.558C56.6322 17.0527 56.2122 17.4447 55.6802 17.734C55.1482 18.0233 54.5415 18.168 53.8602 18.168C52.7588 18.168 51.8628 17.8227 51.1722 17.132C50.4815 16.4413 50.1362 15.564 50.1362 14.5C50.1362 13.4547 50.4768 12.582 51.1582 11.882C51.8395 11.182 52.7168 10.832 53.7902 10.832ZM53.7902 11.728C53.0622 11.728 52.4508 11.9473 51.9562 12.386C51.4708 12.8153 51.1815 13.3753 51.0882 14.066H56.3102C56.2168 13.3287 55.9322 12.7547 55.4562 12.344C54.9802 11.9333 54.4248 11.728 53.7902 11.728ZM62.484 10.832C63.4826 10.832 64.332 11.1867 65.032 11.896C65.7413 12.6053 66.096 13.4733 66.096 14.5C66.096 15.5267 65.7413 16.3947 65.032 17.104C64.332 17.8133 63.4826 18.168 62.484 18.168C61.2426 18.168 60.3 17.6547 59.656 16.628V20.8H58.732V11H59.656V12.372C60.3 11.3453 61.2426 10.832 62.484 10.832ZM60.454 16.474C60.986 17.006 61.6393 17.272 62.414 17.272C63.1886 17.272 63.842 17.006 64.374 16.474C64.906 15.9327 65.172 15.2747 65.172 14.5C65.172 13.7253 64.906 13.072 64.374 12.54C63.842 11.9987 63.1886 11.728 62.414 11.728C61.6393 11.728 60.986 11.9987 60.454 12.54C59.922 13.072 59.656 13.7253 59.656 14.5C59.656 15.2747 59.922 15.9327 60.454 16.474ZM73.6523 11H74.5763V18H73.6523V16.628C73.0083 17.6547 72.0657 18.168 70.8243 18.168C69.8257 18.168 68.9717 17.8133 68.2623 17.104C67.5623 16.3947 67.2123 15.5267 67.2123 14.5C67.2123 13.4733 67.5623 12.6053 68.2623 11.896C68.9717 11.1867 69.8257 10.832 70.8243 10.832C72.0657 10.832 73.0083 11.3453 73.6523 12.372V11ZM68.9343 16.474C69.4663 17.006 70.1197 17.272 70.8943 17.272C71.669 17.272 72.3223 17.006 72.8543 16.474C73.3863 15.9327 73.6523 15.2747 73.6523 14.5C73.6523 13.7253 73.3863 13.072 72.8543 12.54C72.3223 11.9987 71.669 11.728 70.8943 11.728C70.1197 11.728 69.4663 11.9987 68.9343 12.54C68.4023 13.072 68.1363 13.7253 68.1363 14.5C68.1363 15.2747 68.4023 15.9327 68.9343 16.474ZM77.4567 12.162C77.8861 11.3127 78.6234 10.888 79.6687 10.888V11.784C79.0341 11.784 78.5067 11.9707 78.0867 12.344C77.6667 12.7173 77.4567 13.3053 77.4567 14.108V18H76.5327V11H77.4567V12.162ZM84.7818 11.896H82.7658V16.138C82.7658 16.5207 82.8405 16.796 82.9898 16.964C83.1391 17.1227 83.3631 17.2067 83.6618 17.216C83.9605 17.216 84.3338 17.2067 84.7818 17.188V18C83.8018 18.1493 83.0645 18.0793 82.5698 17.79C82.0845 17.5007 81.8418 16.95 81.8418 16.138V11.896H80.3718V11H81.8418V9.32L82.7658 9.04V11H84.7818V11.896ZM93.7838 10.832C94.5678 10.832 95.1978 11.084 95.6738 11.588C96.1591 12.092 96.4018 12.7733 96.4018 13.632V18H95.4778V13.632C95.4778 13.0253 95.3191 12.5587 95.0018 12.232C94.6938 11.896 94.2831 11.728 93.7698 11.728C93.1911 11.728 92.7198 11.924 92.3558 12.316C92.0011 12.6987 91.8238 13.3007 91.8238 14.122V18H90.8998V13.632C90.8998 13.016 90.7505 12.5447 90.4518 12.218C90.1625 11.8913 89.7658 11.728 89.2618 11.728C88.7018 11.728 88.2258 11.924 87.8338 12.316C87.4418 12.708 87.2458 13.31 87.2458 14.122V18H86.3218V11H87.2458V12.022C87.7498 11.2287 88.4638 10.832 89.3878 10.832C90.3958 10.832 91.1051 11.2567 91.5158 12.106C92.0198 11.2567 92.7758 10.832 93.7838 10.832ZM101.423 10.832C102.459 10.832 103.294 11.2007 103.929 11.938C104.573 12.666 104.895 13.5293 104.895 14.528C104.895 14.6307 104.886 14.7753 104.867 14.962H98.721C98.8143 15.6713 99.113 16.236 99.617 16.656C100.13 17.0667 100.76 17.272 101.507 17.272C102.039 17.272 102.496 17.1647 102.879 16.95C103.271 16.726 103.565 16.4367 103.761 16.082L104.573 16.558C104.265 17.0527 103.845 17.4447 103.313 17.734C102.781 18.0233 102.174 18.168 101.493 18.168C100.392 18.168 99.4957 17.8227 98.805 17.132C98.1143 16.4413 97.769 15.564 97.769 14.5C97.769 13.4547 98.1097 12.582 98.791 11.882C99.4723 11.182 100.35 10.832 101.423 10.832ZM101.423 11.728C100.695 11.728 100.084 11.9473 99.589 12.386C99.1037 12.8153 98.8143 13.3753 98.721 14.066H103.943C103.85 13.3287 103.565 12.7547 103.089 12.344C102.613 11.9333 102.058 11.728 101.423 11.728ZM109.641 10.832C110.49 10.832 111.157 11.0933 111.643 11.616C112.137 12.1293 112.385 12.8247 112.385 13.702V18H111.461V13.702C111.461 13.0767 111.293 12.5913 110.957 12.246C110.63 11.9007 110.163 11.728 109.557 11.728C108.885 11.728 108.339 11.9427 107.919 12.372C107.499 12.792 107.289 13.4453 107.289 14.332V18H106.365V11H107.289V12.092C107.811 11.252 108.595 10.832 109.641 10.832ZM117.881 11.896H115.865V16.138C115.865 16.5207 115.94 16.796 116.089 16.964C116.239 17.1227 116.463 17.2067 116.761 17.216C117.06 17.216 117.433 17.2067 117.881 17.188V18C116.901 18.1493 116.164 18.0793 115.669 17.79C115.184 17.5007 114.941 16.95 114.941 16.138V11.896H113.471V11H114.941V9.32L115.865 9.04V11H117.881V11.896Z" fill="white"/>
<defs>
<radialGradient id="paint0_radial_60_59980" cx="0" cy="0" r="1" gradientUnits="userSpaceOnUse" gradientTransform="translate(13 13) rotate(90) scale(25)">
<stop stop-color="#DF5F61"/>
<stop offset="1" stop-color="#DF5F61" stop-opacity="0"/>
</radialGradient>
<radialGradient id="paint1_radial_60_59980" cx="0" cy="0" r="1" gradientUnits="userSpaceOnUse" gradientTransform="translate(79 13) rotate(90) scale(25 92.3077)">
<stop stop-color="white"/>
<stop offset="1" stop-color="white" stop-opacity="0"/>
</radialGradient>
<clipPath id="clip0_60_59980">
<rect width="16" height="16" fill="white" transform="translate(5 5)"/>
</clipPath>
</defs>
</svg>
