<svg width="15" height="15" viewBox="0 0 15 15" fill="none" xmlns="http://www.w3.org/2000/svg">
<path d="M3.75 12.5C4.09722 12.5 4.3925 12.3783 4.63583 12.135C4.87917 11.8917 5.00056 11.5967 5 11.25C5 10.9028 4.87833 10.6075 4.635 10.3642C4.39167 10.1208 4.09667 9.99944 3.75 10C3.40278 10 3.1075 10.1217 2.86417 10.365C2.62083 10.6083 2.49944 10.9033 2.5 11.25C2.5 11.5972 2.62167 11.8925 2.865 12.1358C3.10833 12.3792 3.40333 12.5006 3.75 12.5ZM3.75 5C4.09722 5 4.3925 4.87833 4.63583 4.635C4.87917 4.39167 5.00056 4.09667 5 3.75C5 3.40278 4.87833 3.1075 4.635 2.86417C4.39167 2.62083 4.09667 2.49944 3.75 2.5C3.40278 2.5 3.1075 2.62167 2.86417 2.865C2.62083 3.10833 2.49944 3.40333 2.5 3.75C2.5 4.09722 2.62167 4.3925 2.865 4.63583C3.10833 4.87917 3.40333 5.00056 3.75 5ZM7.5 8.75C7.84722 8.75 8.1425 8.62833 8.38583 8.385C8.62917 8.14167 8.75056 7.84667 8.75 7.5C8.75 7.15278 8.62833 6.8575 8.385 6.61417C8.14167 6.37083 7.84667 6.24944 7.5 6.25C7.15278 6.25 6.8575 6.37167 6.61417 6.615C6.37083 6.85833 6.24944 7.15333 6.25 7.5C6.25 7.84722 6.37167 8.1425 6.615 8.38583C6.85833 8.62917 7.15333 8.75056 7.5 8.75ZM11.25 12.5C11.5972 12.5 11.8925 12.3783 12.1358 12.135C12.3792 11.8917 12.5006 11.5967 12.5 11.25C12.5 10.9028 12.3783 10.6075 12.135 10.3642C11.8917 10.1208 11.5967 9.99944 11.25 10C10.9028 10 10.6075 10.1217 10.3642 10.365C10.1208 10.6083 9.99944 10.9033 10 11.25C10 11.5972 10.1217 11.8925 10.365 12.1358C10.6083 12.3792 10.9033 12.5006 11.25 12.5ZM11.25 5C11.5972 5 11.8925 4.87833 12.1358 4.635C12.3792 4.39167 12.5006 4.09667 12.5 3.75C12.5 3.40278 12.3783 3.1075 12.135 2.86417C11.8917 2.62083 11.5967 2.49944 11.25 2.5C10.9028 2.5 10.6075 2.62167 10.3642 2.865C10.1208 3.10833 9.99944 3.40333 10 3.75C10 4.09722 10.1217 4.3925 10.365 4.63583C10.6083 4.87917 10.9033 5.00056 11.25 5ZM0 15V0H15V15H0Z" fill="white"/>
</svg>
