<svg width="32" height="32" viewBox="0 0 32 32" fill="none" xmlns="http://www.w3.org/2000/svg">
<path d="M24 12H20V8C20 7.20435 19.6839 6.44129 19.1213 5.87868C18.5587 5.31607 17.7956 5 17 5H8C7.20435 5 6.44129 5.31607 5.87868 5.87868C5.31607 6.44129 5 7.20435 5 8V17C5 17.7956 5.31607 18.5587 5.87868 19.1213C6.44129 19.6839 7.20435 20 8 20H12V24C12 24.7956 12.3161 25.5587 12.8787 26.1213C13.4413 26.6839 14.2044 27 15 27H24C24.7956 27 25.5587 26.6839 26.1213 26.1213C26.6839 25.5587 27 24.7956 27 24V15C27 14.2044 26.6839 13.4413 26.1213 12.8787C25.5587 12.3161 24.7956 12 24 12ZM8 18C7.73478 18 7.48043 17.8946 7.29289 17.7071C7.10536 17.5196 7 17.2652 7 17V8C7 7.73478 7.10536 7.48043 7.29289 7.29289C7.48043 7.10536 7.73478 7 8 7H17C17.2652 7 17.5196 7.10536 17.7071 7.29289C17.8946 7.48043 18 7.73478 18 8V12H15C14.2044 12 13.4413 12.3161 12.8787 12.8787C12.3161 13.4413 12 14.2044 12 15V18H8ZM18 14V17C18 17.2652 17.8946 17.5196 17.7071 17.7071C17.5196 17.8946 17.2652 18 17 18H14V15C14 14.7348 14.1054 14.4804 14.2929 14.2929C14.4804 14.1054 14.7348 14 15 14H18ZM25 24C25 24.2652 24.8946 24.5196 24.7071 24.7071C24.5196 24.8946 24.2652 25 24 25H15C14.7348 25 14.4804 24.8946 14.2929 24.7071C14.1054 24.5196 14 24.2652 14 24V20H17C17.7956 20 18.5587 19.6839 19.1213 19.1213C19.6839 18.5587 20 17.7956 20 17V14H24C24.2652 14 24.5196 14.1054 24.7071 14.2929C24.8946 14.4804 25 14.7348 25 15V24Z" fill="#141B1F"/>
<path d="M12.5 23.5L14 26H24L26 24.5V14.5L24 12.5L15 13L13 14.5L12.5 23.5Z" fill="#141B1F"/>
</svg>
