<svg width="30" height="60" viewBox="0 0 30 60" fill="none" xmlns="http://www.w3.org/2000/svg">
<path d="M26.679 58.2422C26.679 59.213 27.4224 60 28.3395 60C29.2565 60 30 59.213 30 58.2422C30 45.9431 25.1782 38.7266 19.6597 32.5221C19.2788 32.9279 18.8992 33.3299 18.5224 33.7288C18.1154 34.1597 17.7118 34.587 17.313 35.0122C17.8678 35.6375 18.4117 36.2699 18.9403 36.9141H11.0595C12.6631 34.96 14.4053 33.1152 16.174 31.2429C22.9714 24.0475 30 16.607 30 1.75781C30 0.787031 29.2565 0 28.3395 0C27.4224 0 26.679 0.787031 26.679 1.75781C26.679 2.36238 26.6658 2.95266 26.6409 3.53027H3.35911C3.33421 2.95266 3.32103 2.36238 3.32103 1.75781C3.32103 0.787031 2.57756 0 1.66052 0C0.743469 0 0 0.787031 0 1.75781C0 14.0569 4.82181 21.2734 10.3403 27.4779C10.7212 27.0721 11.1008 26.6701 11.4776 26.2712C11.8846 25.8403 12.2882 25.413 12.687 24.9878C12.1499 24.3824 11.623 23.7704 11.1102 23.1475H18.89C17.3004 25.0788 15.5761 26.9044 13.8259 28.757C7.02863 35.9525 0 43.393 0 58.2422C0 59.213 0.743469 60 1.66052 60C2.57756 60 3.32103 59.213 3.32103 58.2422C3.32103 57.6589 3.33365 57.0894 3.35679 56.5312H26.6432C26.6663 57.0894 26.679 57.6589 26.679 58.2422ZM21.5543 40.4297C22.503 41.8643 23.3583 43.3856 24.0869 45.0345H5.91321C6.64185 43.3856 7.49701 41.8643 8.44583 40.4297H21.5543ZM26.3218 7.0459C26.0965 8.6366 25.7693 10.1187 25.3562 11.5114H4.6438C4.23066 10.1187 3.90343 8.63648 3.67815 7.0459H26.3218ZM8.48701 19.6318C7.53376 18.1969 6.67362 16.6759 5.94044 15.0271H24.0596C23.3264 16.6759 22.4662 18.1969 21.513 19.6318H8.48701ZM3.66963 53.0156C3.89192 51.425 4.21605 49.943 4.62587 48.5501H25.3741C25.7839 49.943 26.1081 51.425 26.3304 53.0156H3.66963Z" fill="white"/>
</svg>
