<svg width="34" height="34" viewBox="0 0 34 34" fill="none" xmlns="http://www.w3.org/2000/svg">
<path d="M27.625 14.6924V27.625C27.625 28.4704 27.2892 29.2811 26.6914 29.8789C26.0936 30.4767 25.2829 30.8125 24.4375 30.8125H9.5625C8.71712 30.8125 7.90637 30.4767 7.3086 29.8789C6.71083 29.2811 6.375 28.4704 6.375 27.625V6.375C6.375 5.52962 6.71083 4.71887 7.3086 4.1211C7.90637 3.52333 8.71712 3.1875 9.5625 3.1875H16.1201C16.6835 3.18759 17.2238 3.4114 17.6222 3.80973L27.0028 13.1903C27.4011 13.5887 27.6249 14.129 27.625 14.6924Z" stroke="white" stroke-width="3" stroke-linejoin="round"/>
<path d="M17 3.71875V11.6875C17 12.2511 17.2239 12.7916 17.6224 13.1901C18.0209 13.5886 18.5614 13.8125 19.125 13.8125H27.0938M11.6875 19.125H22.3125M11.6875 24.4375H22.3125" stroke="white" stroke-width="3" stroke-linecap="round" stroke-linejoin="round"/>
</svg>
