<svg width="26" height="26" viewBox="0 0 26 26" fill="none" xmlns="http://www.w3.org/2000/svg">
<path d="M14.0156 9.7502H21.4454C21.4655 9.75021 21.4851 9.74428 21.5018 9.73316C21.5185 9.72203 21.5316 9.7062 21.5393 9.68768C21.547 9.66915 21.5491 9.64876 21.5452 9.62906C21.5413 9.60937 21.5317 9.59127 21.5176 9.57703L13.9857 2.04516C13.9714 2.03101 13.9533 2.0214 13.9336 2.01753C13.9139 2.01366 13.8935 2.01571 13.875 2.02343C13.8565 2.03114 13.8407 2.04417 13.8295 2.06088C13.8184 2.07758 13.8125 2.0972 13.8125 2.11727V9.54707C13.8125 9.60094 13.8339 9.65261 13.872 9.6907C13.9101 9.7288 13.9618 9.7502 14.0156 9.7502ZM13 13.8127C12.5521 13.8127 12.1875 14.1316 12.1875 14.5236V15.4377H13.8125V14.5236C13.8125 14.1316 13.4479 13.8127 13 13.8127Z" fill="#F04E27"/>
<path d="M12.5938 11.375C12.486 11.375 12.3827 11.3322 12.3065 11.256C12.2303 11.1798 12.1875 11.0765 12.1875 10.9688V1.625H4.67188C4.51026 1.625 4.35526 1.6892 4.24098 1.80348C4.1267 1.91776 4.0625 2.07276 4.0625 2.23438V23.7656C4.0625 23.9272 4.1267 24.0822 4.24098 24.1965C4.35526 24.3108 4.51026 24.375 4.67188 24.375H21.3281C21.4897 24.375 21.6447 24.3108 21.759 24.1965C21.8733 24.0822 21.9375 23.9272 21.9375 23.7656V11.375H12.5938ZM17.0625 20.3079C17.0624 20.5246 16.9762 20.7323 16.823 20.8855C16.6698 21.0387 16.4621 21.1249 16.2454 21.125H9.75457C9.53791 21.1249 9.33016 21.0387 9.17696 20.8855C9.02376 20.7323 8.93763 20.5246 8.9375 20.3079V16.25C8.9375 15.7422 9.29297 15.4375 9.75 15.4375H10.5625V14.5234C10.5625 13.2356 11.6558 12.1875 13 12.1875C14.3442 12.1875 15.4375 13.2356 15.4375 14.5234V15.4375H16.25C16.3571 15.4361 16.4633 15.4562 16.5625 15.4966C16.6617 15.5369 16.7518 15.5967 16.8276 15.6724C16.9033 15.7482 16.9631 15.8383 17.0034 15.9375C17.0438 16.0367 17.0639 16.1429 17.0625 16.25V20.3079Z" fill="#F04E27"/>
</svg>
