<svg width="162" height="162" viewBox="0 0 162 162" fill="none" xmlns="http://www.w3.org/2000/svg">
<path d="M1 1H161V161M1 1V161H161M1 1H141V141M1 1V141H141M1 1H121V121M1 1V121H121M1 1H101V101M1 1V101H101M1 1H81V81M1 1V81H81M1 1H61V61M1 1V61H61M1 1H41V41M1 1V41H41M1 1H21V21M1 1V21H21M161 161H21V21M161 161V21H21M161 161H41V41M161 161V41H41M161 161H61V61M161 161V61H61M161 161H81V81M161 161V81H81M161 161H101V101M161 161V101H101M161 161H121V121M161 161V121H121M161 161H141V141M161 161V141H141" stroke="#333C42"/>
</svg>
