<svg width="127" height="36" viewBox="0 0 127 36" fill="none" xmlns="http://www.w3.org/2000/svg">
<path d="M126.258 20.0281C127.248 20.6159 127.496 20.2044 125.433 22.2616C126.918 23.2021 125.02 22.3792 124.03 23.0845C125.268 23.4959 128.404 23.3196 125.763 23.7898C125.763 24.6715 125.598 24.4364 126.671 24.789C126.506 25.0241 126.836 24.9066 125.516 25.2592C125.35 25.7882 125.35 25.7882 124.69 26.2585C124.608 27.0226 125.598 26.7287 126.093 26.905C126.341 27.3752 125.846 27.2577 123.865 27.4928C122.875 27.6103 123.865 28.2569 124.195 28.6095C124.608 29.1385 125.763 28.6683 123.948 29.9026C123.7 30.0789 123.452 30.1965 123.452 30.4904C123.452 30.6079 123.287 30.7843 123.205 30.7843C122.545 30.7843 122.875 31.2545 122.462 31.4308C122.05 31.6071 122.132 31.9598 122.132 32.2537C122.132 32.9002 121.224 34.1933 120.317 33.488C119.904 33.1941 120.564 33.4292 118.831 33.6643C118.254 33.7231 117.676 33.5468 117.181 33.7231C114.623 34.546 115.2 33.0766 113.88 33.7231C112.725 34.3109 112.642 34.0758 111.652 33.6056C110.579 33.1353 110.579 32.7239 112.56 32.6064C112.477 32.1361 112.147 31.8423 111.9 31.4896C112.147 31.4896 112.395 31.6071 112.725 31.4308C111.652 31.4896 111.982 31.3133 111.569 32.3712C109.919 32.3712 110.167 32.4888 110.414 31.8423C111.322 30.843 110.414 31.7835 110.414 31.8423C109.836 31.8423 109.836 31.7247 110.167 32.3125C108.599 33.4292 112.725 32.7827 108.681 33.8994C107.278 33.8407 107.443 33.4292 107.443 32.8415C106.453 32.4888 106.948 33.3117 104.638 33.7231C104.308 33.7819 103.977 33.7231 103.812 34.017C103.73 34.2521 103.317 34.4284 103.235 33.6056C101.419 33.7231 100.759 33.8994 102.245 34.6635C101.254 34.7811 101.254 34.7811 100.347 34.3697C99.6039 34.546 98.7787 34.8399 98.036 34.3109C96.0555 34.8399 95.8079 34.0758 93.2497 34.546C93.4148 34.0758 93.3323 34.1933 93.3323 34.1345C93.0847 34.2521 93.1672 34.1345 93.2497 34.6048C91.7644 34.4284 90.3615 34.4872 90.8566 34.546C87.0607 34.7811 89.2062 33.7231 87.4733 34.4284C86.6481 34.7811 86.4005 34.2521 86.2355 34.6635C85.9879 35.1925 84.8326 34.4872 84.2549 34.0758C82.8521 34.2521 83.4297 34.1933 82.1094 34.2521C82.2744 34.4284 82.687 34.7811 82.1094 34.7811C79.4687 34.7223 79.3037 34.8399 78.8911 34.3697C77.2406 34.7811 77.4882 34.6635 77.4882 34.7223C76.1679 35.7803 74.1874 34.1933 73.3622 35.3101C72.9496 35.1338 73.0321 34.7223 72.5369 34.7223C72.0418 34.3697 72.2894 34.6048 71.6292 34.7811C71.3817 34.8399 71.5467 35.075 71.8768 34.7223C72.7845 34.7223 72.702 34.6048 72.0418 35.3689C70.3089 35.7215 70.7215 35.7803 70.2264 35.3101C69.4011 34.4872 69.3186 35.3689 67.9983 35.1338C65.3576 34.7223 67.008 35.604 65.5227 35.6627C65.6052 35.6627 64.8625 34.8986 63.3771 35.2513C62.3043 34.3697 62.882 35.5452 61.8092 35.7215C61.2316 35.8391 60.6539 35.9566 60.1588 35.7803C58.7559 35.3101 58.0957 36.0742 57.023 35.5452C56.7754 35.4276 56.0327 35.7215 55.7026 35.7215C40.2712 36.0154 44.5623 34.8399 43.9021 35.3101C43.572 35.5452 42.1692 35.7215 41.4265 35.1925C41.0139 35.3101 40.6838 35.5452 40.2712 35.2513C40.1061 35.1338 39.9411 35.2513 39.7761 35.3689C38.2082 36.9558 15.6799 33.1941 12.7917 32.5476C12.1315 32.3712 12.1315 32.3712 12.1315 31.6659C13.3693 31.5484 13.7819 31.901 13.947 31.5484C14.1945 31.0782 12.3791 31.3133 12.1315 30.4904C11.9664 30.5492 11.3888 30.7843 11.3063 30.7255C10.6461 30.3728 9.32577 30.843 9.16073 30.0789C10.8112 29.7851 10.0685 28.3156 8.91317 27.7279C9.24325 26.5523 9.49082 26.7287 8.33552 26.5523C8.253 25.7295 8.83065 26.1409 9.49081 26.1409C10.151 26.1997 10.5636 25.318 9.49081 25.318C9.32577 25.318 9.16073 25.4356 8.99569 25.4944C8.58308 25.6119 7.92291 25.2592 8.99569 24.5539C8.6656 23.8486 7.51031 24.6715 3.54929 22.9082C1.56879 22.0265 1.98139 19.7342 1.89887 19.0289C0.743576 18.0885 -0.576761 17.2656 0.496013 15.9725C1.73383 14.5031 1.07366 11.6818 0.496013 10.9177C1.32122 10.2124 0.826098 10.7414 0.413492 9.56583C0.0834075 8.68417 1.07366 9.27194 0.908619 7.68497C0.661055 5.51022 4.62207 8.80173 8.91317 9.03684C32.1016 10.3887 22.034 7.80252 25.1698 8.86051C25.2523 8.44907 24.9223 8.56662 24.2621 8.56662C23.3544 8.68417 24.0145 9.68338 22.1991 8.44907C22.034 8.33151 22.4466 7.80252 22.9418 7.8613C23.932 7.97885 24.9223 7.68497 25.83 7.92008C25.995 7.62619 25.665 7.62619 25.4999 7.50864C25.9125 6.92087 26.1601 7.03842 24.0971 6.86209C23.932 7.74375 24.2621 7.56741 22.5292 7.56741C22.1165 4.8049 19.3108 7.03842 17.8254 6.15677C17.0002 6.56821 17.3303 6.45065 16.5051 6.56821C15.7624 5.80411 15.5974 5.92166 16.175 5.569C18.073 4.45224 16.5876 5.45145 12.9567 5.21634C13.8644 4.8049 21.7039 3.98203 22.034 3.98203C24.1796 3.74692 23.0243 3.62937 24.0971 3.57059C26.9028 3.51181 23.6844 3.33548 23.5194 3.33548C18.8157 3.57059 18.2381 3.62937 17.5779 3.51181C15.0197 3.10037 16.5876 4.45224 13.2868 3.2767C15.5149 3.2767 16.2575 3.39426 18.9807 2.57138C19.971 3.39426 19.7234 2.68894 19.8885 2.51261C23.6844 2.51261 28.3056 1.21951 17.0002 1.80728C16.175 1.86606 15.4323 1.33707 16.0925 1.27829C16.6702 1.21951 17.3303 1.39585 17.6604 0.808077C18.1555 0.808077 19.971 -0.0147991 20.5486 0.866854C20.7137 1.16074 21.6214 1.21951 21.7865 0.808077C22.4466 1.10196 22.9418 1.39585 22.8592 0.808077C23.0243 0.866854 23.2718 1.04318 23.5194 0.866854C21.7865 0.7493 22.5292 0.92563 20.9613 0.7493C20.7962 0.455416 21.2088 0.455416 22.6117 0.396639C26.8202 0.220308 25.995 0.161531 26.4076 0.631746C26.9853 1.33707 29.1308 0.279085 30.8638 1.16074C27.5629 1.33707 30.6987 1.63095 33.6695 1.57218C33.9171 1.27829 33.6695 1.33707 34.4122 1.27829C34.4947 2.15994 36.8053 1.39585 36.3927 2.57138C36.3102 2.39505 36.3102 2.39505 36.8053 2.57138C37.713 1.92484 36.3102 1.98361 39.5285 2.21872C39.6935 2.68894 40.1887 2.86527 40.9314 2.98282C41.509 2.33627 41.0139 2.45383 42.9944 2.57138C43.9846 3.86447 43.4895 2.63016 45.7176 3.0416C47.0379 3.33548 47.0379 2.80649 47.7806 3.51181C48.6883 2.57138 49.0184 3.2767 50.7514 3.21793C50.8339 3.21793 54.6299 2.80649 57.023 3.51181C58.0132 3.8057 58.1783 3.10037 59.0035 3.45304C57.8482 4.5698 58.1783 3.68814 57.6006 4.09958C58.1783 4.45224 58.3433 3.57059 59.7462 4.5698C60.2413 4.39346 60.8189 4.33469 59.6637 3.86447C60.4063 2.80649 61.8092 4.62857 61.8092 3.92325C61.8092 3.62937 61.0665 3.8057 60.984 3.8057C61.0665 3.39426 61.4791 3.21793 62.0568 3.33548C63.5421 3.68814 64.78 3.15915 65.1926 3.39426C66.1003 3.98203 66.3479 3.21793 68.906 3.86447C70.0613 3.39426 69.6487 3.33548 70.639 4.15836C73.6097 3.8057 73.0321 4.09958 73.2796 2.92404C74.1048 2.80649 73.6922 2.92404 74.6825 2.57138C74.2699 3.68814 73.7748 3.74692 73.6097 4.15836C74.6 4.5698 75.2601 3.45304 75.3427 3.39426C75.3427 4.21713 75.0126 4.0408 76.828 4.0408C76.663 3.92325 76.9931 4.33469 77.6533 4.21713C78.0659 4.15836 78.2309 3.45303 78.561 4.09958C78.8911 4.68735 79.8813 4.21713 80.5415 4.62857C79.8813 4.86368 79.3862 5.15756 79.3862 5.80411C80.7891 5.62778 80.459 5.86289 80.459 4.62857C82.687 4.33469 82.357 4.27591 82.7696 4.86368C82.4395 4.86368 83.3472 4.98123 81.1191 5.51022C82.0269 5.92166 84.0074 6.15677 84.3375 5.45145C84.585 4.92246 85.1627 4.68735 85.5753 4.27591C89.3713 5.39267 85.9879 5.27512 85.3277 5.74533C85.6578 6.21555 85.8228 5.74533 86.0704 5.74533C87.1432 6.56821 88.381 5.74533 89.8664 6.21555C90.279 5.86289 90.1139 5.569 89.7839 5.21634C89.2887 5.39267 88.9587 5.86289 88.1334 5.62778C87.3907 3.98203 89.2062 5.09879 89.9489 4.74613C90.444 4.51102 91.2692 5.09879 91.9294 4.68735C92.0119 4.62857 92.2595 4.62857 92.342 4.68735C93.2497 5.15756 98.3661 4.62857 98.5311 5.04001C98.7787 5.569 102.327 5.74533 102.905 5.62778C103.482 5.569 103.4 5.98044 102.657 5.98044C89.9489 5.45145 84.9976 6.03922 113.22 7.21475C122.71 7.62619 117.676 6.50943 117.016 6.56821C116.108 6.62699 116.356 6.21555 116.356 5.62778C119.161 6.50943 117.841 5.86289 118.749 6.56821C118.914 6.50943 119.161 6.3331 119.409 6.3331C121.637 6.39188 120.234 4.21713 123.122 4.21713C123.783 4.68735 123.948 5.21634 124.03 5.86289C123.287 6.09799 122.545 6.3331 121.72 6.56821C122.05 7.0972 121.637 7.56741 121.637 7.97885C121.802 8.33151 122.215 8.15518 122.462 8.33151C122.71 8.50784 123.04 8.56662 123.287 8.68417C123.287 9.09561 123.04 9.3895 122.462 9.44827C121.637 9.56583 122.132 10.2712 121.224 11.2116C121.142 11.3291 120.977 11.4467 120.977 11.5642C121.307 12.681 120.069 14.9145 120.069 15.0909C119.079 15.0321 119.326 16.2076 119.657 16.8542C118.501 17.6183 118.996 17.6183 118.006 16.7366C118.749 15.9137 118.419 16.4427 117.676 16.0313C116.108 15.2084 117.593 16.2076 116.768 16.6778C116.851 16.3252 116.851 16.3252 116.603 16.1488C116.686 16.3252 116.686 16.5015 116.768 16.6778C115.448 16.7366 116.768 18.0885 115.283 16.9129C114.87 16.5603 114.87 16.5603 114.045 16.7954C114.623 16.9129 114.953 17.148 115.118 17.5595C114.54 18.2648 113.715 17.0893 111.982 18.0297C112.642 18.5587 112.89 18.1472 116.686 18.3824C115.861 18.6175 115.2 18.7938 116.768 18.7938C117.428 18.7938 117.511 18.8526 117.181 19.4991C118.584 19.4991 121.885 19.6754 122.957 18.8526C123.205 18.6762 124.855 18.7938 124.855 19.6167C125.598 19.8518 125.846 20.1457 126.258 20.0281ZM95.9729 34.1345C95.8904 33.9582 96.4681 34.2521 95.5603 34.017C95.4778 34.1345 95.3953 34.1345 95.9729 34.1345ZM81.6968 18.3236C82.1919 18.5587 82.1094 18.206 81.6968 18.3236C81.6143 18.1472 81.3667 18.0885 81.6968 18.3236ZM120.069 8.74295C120.317 8.74295 120.234 8.74295 120.069 8.74295C119.904 8.50784 119.657 8.50784 120.069 8.74295ZM62.3043 12.4459C62.3868 12.7986 62.3868 12.7986 62.4694 12.7986C62.3043 12.3871 62.1393 12.4459 63.2946 12.5047C63.2946 13.1512 64.2023 12.6222 62.3043 12.4459ZM114.953 11.5642C115.035 11.623 115.283 11.5642 114.953 11.5642C114.705 11.2704 114.293 11.5055 114.953 11.5642ZM118.831 30.0202C119.244 29.9614 118.749 30.0789 118.831 29.8438C118.996 29.9026 118.996 29.8438 118.831 30.0202ZM68.906 10.0948C68.3284 9.80093 68.6585 10.2124 68.906 10.0948C68.5759 10.3299 68.6585 10.2124 68.6585 10.4475C68.9885 10.3887 68.9885 10.4475 68.906 10.0948ZM73.4447 10.4475C72.2069 10.3887 73.6097 10.3299 73.4447 9.85971C72.0418 10.2124 73.4447 10.565 73.4447 10.4475ZM35.4024 4.8049C34.5772 4.51102 35.485 5.09879 36.5577 4.92246C36.1451 4.62857 36.4752 4.62857 35.4024 4.8049ZM108.516 32.4888C107.031 33.5468 108.929 33.1941 108.516 32.4888C108.764 32.5476 109.094 32.4888 108.516 32.4888ZM56.8579 6.50943C56.8579 6.92087 57.6831 6.86209 57.7657 6.39188C57.3531 6.3331 56.1152 6.62698 56.8579 6.50943ZM26.2426 3.39426C25.2523 2.63016 26.7377 4.0408 27.6455 3.33548C27.2329 3.10037 27.5629 3.10037 26.2426 3.39426ZM82.7696 10.4475C82.4395 10.8589 82.2744 10.7414 83.3472 10.9765C83.6773 11.094 82.8521 10.5063 82.7696 10.4475C83.0171 10.3887 83.3472 10.2711 83.5948 10.1536C82.8521 9.97727 82.8521 9.97726 82.357 10.3887C82.522 10.4475 82.687 10.4475 82.7696 10.4475ZM72.702 4.92246C72.7845 4.62857 72.2894 4.45224 72.0418 4.62857C71.4642 5.15756 71.7117 5.51022 71.3816 4.86368C69.5662 4.5698 69.1536 4.45224 69.1536 4.86368C73.7748 5.27512 72.4544 5.62778 72.702 4.92246ZM115.118 15.7374C114.375 15.6198 112.147 16.2076 115.365 16.0313C115.283 16.5603 116.273 16.7366 116.521 15.7374C114.54 16.2664 115.448 15.7962 115.118 15.7374ZM29.4609 8.09641C29.7085 8.09641 29.9561 8.03763 30.2861 8.03763C30.1211 7.74375 30.1211 7.44986 29.4609 8.09641C29.2959 7.97885 29.2134 7.80252 29.0483 7.74375C28.4707 7.68497 27.9755 7.80252 27.4804 8.09641C28.8008 8.27274 29.0483 7.68497 29.4609 8.09641ZM57.2705 8.74295C56.1152 8.44907 55.3726 8.50784 54.6299 8.80173C54.3823 8.50784 54.96 8.56662 51.9892 8.44907C51.9892 7.68497 51.8241 8.15518 49.7611 8.6254C50.8339 8.68417 50.5038 9.21317 50.8339 9.6246C50.9164 8.91928 50.6689 9.21317 52.0717 8.44907C52.0717 9.15439 53.1445 8.74295 54.2998 9.33072C54.7949 9.68338 55.29 9.91849 55.2075 9.44827C54.0522 9.33072 54.2173 9.44827 54.3823 9.03684C54.3823 8.56662 55.7026 9.03684 57.2705 8.74295ZM115.2 13.21C115.613 12.8573 116.273 12.9161 116.851 12.681C116.768 12.5634 116.768 12.4459 116.768 12.4459C114.87 12.2696 115.283 12.3283 114.705 12.5047C115.365 13.2688 115.448 13.0924 114.54 13.3275C114.54 13.7978 115.118 14.0916 115.365 14.4443C115.695 14.4443 116.026 14.4443 116.273 14.4443C116.273 13.21 116.438 13.3863 115.613 13.5627C115.448 13.5039 115.696 13.21 115.2 13.21ZM58.5909 5.51022C58.3433 5.45145 58.0132 5.569 58.0958 5.74533C59.0035 7.33231 59.086 6.92087 59.1685 6.45065C61.149 6.03922 62.1393 6.21555 60.1588 5.98044C59.9937 5.45145 60.0763 5.51022 59.8287 5.569C60.2413 6.03922 60.6539 6.21555 58.5909 5.51022ZM52.4018 10.3887C54.1347 12.0932 55.3726 9.50705 52.4018 10.3887C54.0522 8.80173 53.3921 9.6246 52.5668 9.3895C50.9989 8.91928 51.9067 9.97726 51.9067 10.0948C51.4941 10.2711 50.7514 10.0948 50.5038 10.565C50.4213 10.4475 50.3388 10.3887 50.3388 10.2711C50.1737 10.3887 50.0912 10.3299 50.5863 10.5063C51.164 11.0352 51.2465 10.9177 52.4018 10.3887ZM83.9249 8.39029C85.7403 8.68417 85.3277 8.74295 86.0704 8.09641C85.6578 8.03763 85.2452 7.92008 85.1627 8.03763C84.8326 8.33151 84.2549 8.21396 83.9249 8.39029C83.1822 7.44986 78.8911 7.80252 80.5415 8.50784C82.1919 9.15439 80.7065 8.6254 83.9249 8.39029ZM66.0178 5.86289C64.4499 6.21555 64.1198 7.92008 64.6149 5.92166C63.9548 5.74533 63.3771 5.86289 62.882 6.09799C62.7169 6.74454 62.5519 6.80332 61.2316 6.68576C61.0665 7.21475 61.6442 7.33231 62.1393 7.56741C63.3771 6.09799 62.3043 7.62619 65.5227 7.15598C66.6779 7.03842 66.9255 5.68656 66.0178 5.86289ZM107.361 12.5047C106.783 12.7986 106.123 12.4459 105.628 12.7398C105.545 12.7986 105.38 12.8573 105.215 12.7986C104.225 12.5047 103.07 12.7398 102.08 12.4459C101.502 12.2696 100.677 12.7986 98.7787 12.6222C94.8176 12.2108 96.4681 13.3275 96.6331 13.21C97.1282 13.0337 97.5408 13.21 97.9534 13.3275C102.162 13.9153 101.337 13.3863 102.822 13.5627C104.803 13.739 104.39 13.7978 105.05 13.4451C109.424 15.7962 102.905 14.6794 107.939 14.0329C108.104 14.0329 108.186 13.7978 108.351 13.6214C108.434 13.5627 108.516 13.5627 108.599 13.5039C109.341 13.8565 109.341 12.9161 110.414 13.6214C111.239 14.1504 110.579 14.4443 111.652 13.7978C112.065 14.0916 111.9 13.6802 113.55 14.3855C113.715 14.0329 113.302 14.3855 113.137 13.1512C113.467 12.9749 113.88 12.8573 114.21 12.681C112.23 12.2696 112.065 14.5031 110.909 12.4459C110.662 13.2688 110.579 14.3268 110.167 12.152C108.104 12.3283 108.516 12.2108 108.021 12.7398C108.021 12.6222 107.443 12.4459 107.361 12.5047ZM92.0119 9.27194C92.8371 9.3895 93.4973 9.68338 94.24 9.44827C94.405 9.3895 94.7351 9.44827 94.9002 9.56583C95.8904 10.036 95.8904 9.21317 96.5506 9.50705C96.9632 9.68338 100.429 9.50705 100.594 9.68338C101.007 10.0948 101.254 9.68338 101.584 9.56583C103.895 9.97727 103.977 9.27194 104.39 9.80093C104.638 10.1536 106.206 10.3299 106.866 10.2124C107.278 9.6246 107.113 9.80093 107.526 9.6246C108.681 10.6826 110.827 10.3887 111.322 10.0948C111.734 9.85971 112.23 10.2712 112.56 10.036C113.055 9.6246 113.715 9.85971 114.293 9.74216C114.623 9.97727 114.87 10.2124 115.2 10.4475C115.778 9.97727 115.778 9.97727 116.438 10.2711C116.438 10.3887 116.438 10.5063 116.438 10.6826C118.666 10.6826 117.181 9.97727 118.996 9.97727C119.657 9.97727 120.152 9.80093 120.564 9.44827C116.026 8.80173 92.5071 8.27274 92.0119 8.44907C91.9294 8.74295 91.9294 8.97806 92.0119 9.27194ZM101.584 7.80252C104.06 9.15439 105.71 8.03763 108.681 8.56662C108.846 8.56662 108.929 8.6254 109.094 8.56662C110.744 8.27274 112.395 8.68417 114.045 8.74295C121.885 9.03684 119.904 7.50864 108.269 7.74375C106.371 7.44986 104.39 7.56741 102.41 7.39108C101.997 7.39108 101.749 7.44986 101.584 7.80252ZM90.5265 13.0337C91.1867 13.1512 94.8176 13.5039 95.3128 13.1512C94.9827 12.3871 95.2303 12.5634 93.8274 12.5634C92.8371 12.5634 92.0945 12.0932 90.279 12.6222C90.444 12.7986 90.444 12.9161 90.5265 13.0337ZM40.1887 6.97965C39.3635 7.44986 39.1984 7.8613 38.2082 7.62619C38.0431 7.56741 35.9801 7.0972 35.8151 7.44986C35.65 7.8613 36.3927 7.50864 36.8053 8.09641C36.9703 8.33151 37.7956 8.15518 38.7033 7.97885C40.2712 8.6254 39.6935 8.44907 41.6741 8.27274C40.9314 7.50864 40.5188 8.56662 40.1887 6.97965ZM91.4343 10.3299C91.1867 10.8001 90.6916 10.6238 99.934 11.2116C100.264 11.2116 100.264 10.9177 100.016 10.8589C97.8709 10.4475 98.1185 10.9177 91.4343 10.3299ZM62.3868 9.44827C63.7072 8.97806 63.4596 8.80173 63.2946 10.2711C64.5324 10.3887 63.2121 10.4475 65.0275 9.15439C64.2848 8.74295 63.4596 8.97806 62.7169 8.97806C62.5519 9.03684 62.5519 9.21317 62.3868 9.44827ZM89.3713 17.2656C89.2887 17.5007 93.0847 17.7358 94.1575 17.148C92.8371 17.0305 94.1575 16.9717 89.3713 17.2656ZM54.5473 5.98044C53.3095 5.62778 53.3921 5.98044 51.9067 5.33389C51.8241 5.27512 51.5766 5.33389 51.329 5.33389C51.5766 5.68656 51.7416 5.98044 51.9067 6.21555C52.4018 6.21555 52.8144 5.98044 53.1445 6.39188C53.227 6.50943 53.8872 6.15677 53.9697 6.09799C54.0522 6.15677 54.2998 6.92087 54.5473 5.98044ZM108.104 11.094C108.104 11.1528 108.021 11.2116 108.021 11.3291C110.414 12.152 114.54 10.9177 108.104 11.094ZM25.7475 8.50784C25.83 8.80173 25.9125 9.03684 25.995 9.21317C26.3251 9.21317 26.5727 9.27194 26.7377 9.21317C27.728 8.86051 27.728 9.21317 29.1308 9.03684C28.8833 8.39029 28.7182 8.97806 25.7475 8.50784ZM78.561 18.3236C80.3764 19.1465 80.2114 19.2052 80.8716 19.0289C80.9541 18.206 79.4687 17.6183 78.561 18.3236ZM40.1061 5.09879C39.8586 5.80411 40.2712 5.98044 40.6838 5.74533C41.4265 5.27512 44.6448 5.09879 40.1061 5.09879ZM122.792 21.4387C120.152 21.38 119.739 21.2624 118.996 21.7326C120.317 21.6739 121.554 21.9677 122.792 21.4387ZM47.9457 5.21634C42.5818 5.569 47.9457 5.98044 48.3583 5.62778C48.1932 5.45145 48.1107 5.33389 47.9457 5.21634ZM94.9827 11.5055C96.303 12.3871 95.9729 11.7406 97.4583 12.0345C97.8709 11.3291 98.201 11.5055 94.9827 11.5055ZM93.3323 11.4467C91.4343 11.3291 90.444 11.3879 92.8371 12.0345C93.1672 11.9169 93.4973 11.7993 93.3323 11.4467ZM117.181 13.4451C120.069 14.2092 119.574 13.21 119.326 13.2688C118.666 13.3275 118.006 13.3863 117.181 13.4451ZM120.729 25.5531C119.409 25.4356 119.409 25.4356 118.666 25.7882C119.326 26.2585 118.914 26.2585 120.729 25.5531ZM109.011 14.6206C109.424 14.9733 110.167 15.1496 110.744 14.797C110.249 14.1504 109.589 14.5031 109.011 14.6206ZM74.6 7.50864C74.765 7.74374 74.765 7.97885 74.8475 8.03763C75.3427 8.21396 77.9833 7.21475 74.6 7.50864ZM30.4512 3.39426C31.0288 3.62937 31.524 3.62937 32.1016 3.51181C31.3589 2.68894 31.7715 2.68894 30.4512 3.39426ZM59.4161 10.8001C58.8384 10.1536 58.0132 10.3887 58.0958 10.6238C58.0958 10.9765 58.5909 10.8589 59.4161 10.8001ZM70.2264 5.92166C68.0808 6.45065 71.2166 7.03842 70.7215 6.3331C70.5564 6.15677 70.3914 6.03922 70.2264 5.92166ZM111.487 15.9137C112.642 16.3839 112.89 16.5603 113.22 16.2664C113.302 16.2076 113.467 15.7962 111.487 15.9137ZM73.7748 7.44986C73.1146 7.33231 72.3719 7.0972 72.2894 7.56741C73.1146 7.8613 73.1146 7.8613 73.7748 7.44986ZM118.006 32.4888C119.161 32.5476 119.822 32.6651 119.657 32.2537C119.161 32.1361 118.584 32.0186 118.006 32.4888ZM57.6006 10.565C56.3628 10.3887 56.9405 10.5063 55.3726 10.0948C55.7026 10.3887 55.7852 10.6238 55.9502 10.6238C56.4453 10.6826 56.9405 10.9765 57.6006 10.565ZM104.39 11.0352C103.565 10.9765 102.905 10.8001 102.987 11.2116C103.4 11.3879 103.895 11.3291 104.39 11.0352ZM31.854 7.03842C31.6065 6.80332 31.0288 6.92087 30.8638 6.97965C30.0386 7.15598 31.6065 7.97885 31.854 7.03842ZM39.1984 5.15756C39.3635 5.15756 39.3635 4.86368 39.1984 4.86368C37.0529 4.86368 37.548 5.09879 39.1984 5.15756ZM98.1185 14.5031C98.5311 14.9145 99.1087 15.4435 99.3563 14.9145C98.9437 14.7382 98.8612 14.268 98.1185 14.5031ZM99.3563 17.5595C100.677 16.8542 98.1185 16.7954 98.6961 17.2068C98.9437 17.3244 99.1913 17.4419 99.3563 17.5595ZM78.1484 7.50864C77.4882 8.39029 78.3134 8.74295 78.726 7.97885C78.561 7.8613 78.3959 7.68497 78.1484 7.50864ZM106.948 11.4467C107.113 10.8589 105.298 10.9765 105.133 11.1528C105.71 11.4467 106.371 11.2704 106.948 11.4467ZM93.8274 14.5031C93.5798 15.0909 93.7449 15.1496 94.8176 15.0909C94.1575 15.2084 94.075 14.797 93.8274 14.5031ZM30.2036 6.86209C27.9755 6.86209 29.2134 7.39108 29.5434 7.33231C29.7085 7.33231 29.791 7.15598 30.2036 6.86209ZM33.9171 7.21475C33.0919 6.39188 33.0919 7.80252 33.4219 7.56741C33.587 7.44986 33.752 7.33231 33.9171 7.21475ZM68.5759 6.56821C68.906 6.62699 68.741 6.3331 68.741 6.27432C67.5857 6.27432 67.1731 6.3331 68.5759 6.56821ZM60.0763 10.4475C61.2316 11.094 60.8189 9.56583 60.3238 10.036C60.2413 10.2124 60.1588 10.3299 60.0763 10.4475ZM65.6052 10.565C65.9353 10.3299 66.1003 10.3887 65.4401 9.85971C65.3576 9.80093 65.0275 9.91849 65.11 10.036C65.2751 10.2124 65.3576 10.3887 65.6052 10.565ZM27.9755 6.74454C27.3979 6.62699 26.9853 6.50943 26.7377 7.0972C27.1503 6.92087 27.728 7.39108 27.9755 6.74454ZM117.593 11.7993C116.686 11.4467 116.686 11.4467 116.521 11.7993C117.181 11.7406 116.933 11.7406 117.593 11.7993ZM95.3128 13.7978C94.7351 14.0329 94.8176 14.3268 95.2303 14.5619C95.2303 14.3268 95.3128 14.0916 95.3128 13.7978ZM24.0145 0.631746C24.7572 0.984407 24.7572 0.984407 25.0873 0.572969C24.7572 0.514193 24.4271 0.337862 24.0145 0.631746ZM24.6747 1.80728C25.665 2.2775 25.7475 1.33707 24.8397 1.68973C24.7572 1.68973 24.7572 1.68973 24.6747 1.80728ZM80.624 7.0972C81.2017 7.39108 81.2017 7.39108 81.6143 7.15598C81.2017 7.15598 80.9541 7.0972 80.624 7.0972ZM70.8865 7.33231C70.3089 7.0972 70.1438 6.97965 69.9788 7.15598C69.8138 7.27353 70.3089 7.56741 70.8865 7.33231ZM87.5558 7.0972C87.3907 7.15598 87.4733 7.39108 87.6383 7.39108C88.6286 7.27353 88.6286 6.92087 87.5558 7.0972ZM110.002 16.2664C109.424 16.2664 109.094 16.2664 108.764 16.2664C109.094 16.5603 109.094 16.5603 110.002 16.2664ZM93.3323 7.44986C93.0022 7.21475 92.7546 7.27353 92.2595 7.33231C92.7546 7.50864 93.0022 7.62619 93.3323 7.44986ZM87.1432 8.39029C86.0704 7.92008 86.2355 8.91928 86.8956 8.56662C86.8956 8.50784 86.9781 8.44907 87.1432 8.39029ZM31.4414 8.97806C30.9463 8.91928 30.6162 8.56662 30.2861 8.97806C30.6162 9.21317 30.9463 9.21317 31.4414 8.97806ZM28.3882 9.50705C28.0581 9.6246 27.9755 9.6246 28.5532 9.80093C28.5532 9.80093 28.7182 9.68338 28.6357 9.68338C28.5532 9.56583 28.4707 9.50705 28.3882 9.50705ZM64.0373 11.9757C64.2023 12.5047 64.0373 12.3871 64.5324 12.5634C64.5324 12.2108 64.6149 12.3871 64.0373 11.9757ZM115.695 31.5484C116.851 31.6659 116.603 31.7247 116.768 31.4896C116.438 31.3133 116.108 31.3133 115.695 31.5484ZM91.7644 15.0909C92.0119 15.9725 92.9197 15.326 92.0119 15.0909C92.0119 15.0321 91.9294 15.0321 91.7644 15.0909ZM28.3056 1.74851C28.3882 1.98361 28.2231 1.98361 29.1308 1.86606C29.2134 1.86606 29.1308 1.68973 29.0483 1.68973C28.8008 1.68973 28.5532 1.74851 28.3056 1.74851ZM78.561 5.39267C78.2309 5.09879 77.7358 5.21634 77.7358 5.39267C77.7358 5.569 78.3959 5.62778 78.561 5.39267ZM63.047 4.45224C62.882 4.15836 63.047 4.21713 62.3868 4.27591C62.5519 4.51102 62.3043 4.45224 63.047 4.45224ZM60.0763 13.1512C60.3238 13.0924 60.4889 13.0924 60.7364 13.0337C60.5714 12.7398 60.1588 12.7986 60.0763 13.1512ZM101.007 10.8589C101.007 11.1528 100.842 11.094 101.749 11.0352C101.749 10.9177 101.832 10.9765 101.007 10.8589ZM84.7501 10.565C85.9054 10.0948 84.585 10.1536 84.585 10.5063C84.585 10.5063 84.6675 10.5063 84.7501 10.565ZM60.984 9.33072C61.149 9.21317 61.3141 9.15439 60.9015 9.03684C60.9015 9.03684 60.8189 9.09561 60.7364 9.15439C60.8189 9.21317 60.9015 9.27194 60.984 9.33072ZM60.5714 6.68576C60.0763 6.68576 59.7462 6.56821 59.8287 6.80332C59.8287 6.97965 60.3238 7.0972 60.5714 6.68576ZM116.851 32.7239C116.933 32.6651 117.016 32.5476 117.016 32.4888C117.098 32.3712 116.191 32.4888 116.851 32.7239ZM26.7377 1.92484C26.8203 1.86606 26.9028 1.80728 26.9028 1.74851C26.8202 1.68973 26.7377 1.63095 26.6552 1.68973C26.2426 1.86606 26.5727 1.86606 26.7377 1.92484ZM110.167 15.5023C109.919 15.5023 109.506 15.3847 109.589 15.6198C109.754 15.855 110.002 15.6198 110.167 15.5023ZM80.5415 16.5015C80.2939 16.4427 80.1289 16.5603 80.2114 16.9129C80.7891 16.619 80.7065 16.7366 80.5415 16.5015ZM55.9502 4.39346C56.1152 4.21713 56.1152 4.27591 55.7852 4.15836C55.7026 4.39346 55.7026 4.33469 55.9502 4.39346ZM86.0704 18.2648C85.8228 18.1472 85.9054 18.1472 85.7403 18.3236C85.9054 18.4411 85.8228 18.4411 86.0704 18.2648ZM43.407 8.27274C43.1594 8.15518 42.9119 8.03763 42.7468 8.27274C42.9944 8.27274 43.242 8.27274 43.407 8.27274ZM66.7605 9.33072C66.5954 9.21317 66.4304 9.03684 66.2653 9.21317C66.1828 9.33072 66.3479 9.56583 66.7605 9.33072ZM103.73 26.0821C103.482 25.9646 103.565 25.9646 103.317 26.0821C103.565 26.1997 103.482 26.1997 103.73 26.0821ZM62.5519 9.97727C61.8092 9.85971 62.0568 9.85971 61.7267 10.0948C62.0568 10.2711 61.8092 10.2711 62.5519 9.97727ZM74.5175 10.2124C74.4349 10.2711 74.3524 10.2712 74.3524 10.3299C74.5175 10.6826 74.6825 10.4475 74.5175 10.2124ZM87.9684 10.5063C87.7208 10.4475 87.6383 10.3299 87.4733 10.6238C87.4733 10.6238 87.5558 10.6826 87.6383 10.7414C87.7208 10.6826 87.8034 10.565 87.9684 10.5063ZM118.089 29.6675C118.006 29.55 117.759 29.3736 117.593 29.6675C118.089 29.7263 117.924 29.6675 118.089 29.6675ZM84.3375 12.5047C84.2549 12.4459 84.1724 12.3871 84.0899 12.3871C84.0074 12.4459 83.9249 12.5047 83.9249 12.5634C84.1724 12.7986 84.2549 12.6222 84.3375 12.5047ZM114.87 31.7835C114.953 31.372 115.035 31.4896 114.623 31.3133C114.54 31.6071 114.54 31.4308 114.87 31.7835ZM19.8885 0.866854C19.6409 1.10196 19.6409 0.984407 19.971 1.21951C20.136 1.04318 20.2186 1.16074 19.8885 0.866854ZM34.6598 2.45383C34.5772 2.68894 34.4947 2.63016 34.8248 2.68894C34.9073 2.51261 34.9898 2.57138 34.6598 2.45383ZM67.8332 14.9145C67.2556 14.6206 67.4206 15.0321 67.5032 15.0321C67.5857 14.9733 67.7507 14.9733 67.8332 14.9145ZM84.9151 14.797C84.585 14.9733 84.8326 15.0321 85.0802 14.9145C85.0802 14.8557 84.9976 14.8557 84.9151 14.797ZM117.098 15.0909C116.768 15.0321 116.851 15.0909 116.933 15.0909C117.016 15.1496 117.098 15.0909 117.098 15.0909ZM115.2 32.4888C115.118 32.6651 115.035 32.6064 115.365 32.7239C115.448 32.4888 115.448 32.5476 115.2 32.4888ZM48.6058 4.15836C48.5233 4.21713 48.4408 4.27591 48.2757 4.27591C48.3583 4.33469 48.4408 4.39346 48.5233 4.39346C49.0184 4.33469 48.6883 4.21713 48.6058 4.15836ZM76.2504 4.68735C75.9203 4.5698 76.0028 4.5698 75.9203 4.74613C76.2504 4.8049 76.0854 4.8049 76.2504 4.68735ZM68.1633 16.5603C67.9983 16.4427 68.0808 16.3839 67.8332 16.5603C68.0808 16.7366 67.9983 16.6778 68.1633 16.5603ZM100.182 16.5015C100.099 16.4427 99.8514 16.3252 99.934 16.4427C100.016 16.619 100.016 16.5603 100.182 16.5015ZM46.6253 6.27432C46.5428 6.3331 46.5428 6.3331 46.8729 6.3331C46.7078 6.27432 46.7904 6.27432 46.6253 6.27432ZM83.8423 7.15598C83.6773 7.0972 83.5948 7.0972 83.4297 7.0972C83.3472 7.27353 83.5123 7.27353 83.8423 7.15598ZM68.5759 7.15598C68.4109 7.03842 68.1633 7.03842 67.9983 7.15598C68.1633 7.39108 68.4109 7.27353 68.5759 7.15598ZM27.0678 7.8613C26.9028 7.62619 27.0678 7.68497 26.5727 7.74375C26.7377 7.92008 26.5727 7.92008 27.0678 7.8613ZM31.0288 8.09641C30.7813 7.92008 30.6162 8.09641 30.8638 8.27274C30.9463 8.21396 31.0288 8.15518 31.0288 8.09641ZM68.8235 9.3895C68.4109 9.21317 68.3284 9.33072 68.5759 9.56583C68.6585 9.50705 68.741 9.44827 68.8235 9.3895ZM91.9294 22.0265C91.7644 21.7326 91.0217 21.909 91.8469 22.0853C91.8469 22.0853 91.9294 22.0265 91.9294 22.0265ZM113.88 31.5484C113.798 31.4308 113.715 31.2545 113.467 31.372C113.302 31.4308 113.385 31.7247 113.88 31.5484ZM119.904 24.4951C119.904 24.6127 119.739 24.6127 120.647 24.6127C120.647 24.4364 120.729 24.4951 119.904 24.4951ZM124.608 25.6119C124.773 25.5531 124.69 25.5531 124.69 25.4944C124.525 25.6119 124.525 25.5531 124.608 25.6119ZM10.8112 30.1965C10.8937 30.0789 10.9762 30.0202 10.6461 30.0202C10.4811 30.0202 10.7286 30.1377 10.8112 30.1965ZM120.152 31.4308C120.152 31.4896 120.069 31.4896 120.234 31.4896C120.234 31.372 120.234 31.4308 120.152 31.4308ZM105.628 32.5476C105.545 32.5476 105.545 32.6064 105.463 32.6064C105.545 32.7239 105.71 32.6651 105.628 32.5476ZM98.7787 33.8994C98.7787 33.8407 98.7787 33.8407 98.6136 33.8407C98.6961 33.9582 98.6961 33.9582 98.7787 33.8994ZM27.3154 1.27829C27.4804 1.27829 27.4804 1.27829 27.3154 1.21951C27.3154 1.21951 27.3154 1.21951 27.3154 1.27829ZM34.0821 2.21872C33.8345 2.04239 33.8345 2.21872 33.8345 2.21872C33.9996 2.33627 33.9996 2.2775 34.0821 2.21872ZM37.6305 2.74771C37.6305 2.63016 37.6305 2.63016 37.4655 2.68894C37.548 2.80649 37.4655 2.80649 37.6305 2.74771ZM20.8787 2.86527C20.5486 2.86527 20.7137 2.92404 20.7962 2.92404L20.8787 2.86527ZM52.1542 3.51181C51.9067 3.57059 51.9067 3.51181 51.9892 3.74692C52.2368 3.62937 52.2368 3.68814 52.1542 3.51181ZM53.9697 4.0408C53.8872 3.98203 53.8046 4.0408 53.8046 4.0408C53.8046 4.09958 53.8872 4.09958 53.9697 4.0408ZM31.4414 4.5698C31.2764 4.45224 31.3589 4.45224 31.1939 4.51102C31.2764 4.5698 31.1939 4.5698 31.4414 4.5698ZM75.7553 5.15756C75.7553 5.04001 75.5077 5.04001 75.5077 5.15756C75.5902 5.15756 75.6728 5.15756 75.7553 5.15756ZM44.3972 5.33389C43.8196 5.21634 43.9021 5.21634 43.7371 5.33389C43.7371 5.45145 44.1497 5.33389 44.3972 5.33389ZM70.3089 10.036C70.2264 9.80094 70.2264 9.85971 69.9788 9.91849C70.0613 10.1536 69.9788 10.0948 70.3089 10.036ZM49.5136 10.5063C49.3485 10.6238 49.3485 10.565 49.431 10.6826C49.5961 10.5063 49.5136 10.565 49.5136 10.5063ZM64.0373 10.8001C64.1198 10.7414 64.1198 10.8001 64.1198 10.6826C63.9547 10.7414 63.9547 10.6826 64.0373 10.8001ZM120.399 11.7406C120.729 11.8581 120.812 11.6818 120.482 11.5642C120.482 11.6818 120.482 11.7406 120.399 11.7406ZM70.804 14.8557C70.5564 14.9145 70.804 14.9733 70.8865 14.9145C70.8865 14.9145 70.804 14.8557 70.804 14.8557ZM66.1828 16.6778C66.1003 16.5603 66.1828 16.5603 66.0178 16.619C66.1003 16.7954 66.1003 16.7954 66.1828 16.6778ZM85.4928 16.619C85.6578 16.5603 85.5753 16.3839 85.3277 16.5603C85.3277 16.5603 85.4102 16.619 85.4928 16.619ZM98.9437 16.5603C99.1087 16.619 99.0262 16.619 99.1087 16.5015C98.9437 16.5015 99.0262 16.5015 98.9437 16.5603ZM86.5655 16.7954C86.4005 16.619 86.483 16.619 86.2355 16.6778C86.483 16.9717 86.4005 16.9129 86.5655 16.7954ZM82.522 16.9129C82.357 16.9717 82.357 16.9129 82.522 16.9129V16.9129ZM87.2257 17.0305C87.1432 16.8542 87.0607 16.8542 87.0607 16.9129C86.9781 17.0893 87.0607 17.0305 87.2257 17.0305ZM88.216 17.4419C88.216 17.4419 88.2985 17.4419 88.2985 17.3831C88.216 17.2656 88.0509 17.3831 88.216 17.4419ZM74.765 18.206C74.765 18.1472 74.6825 18.0885 74.6 18.1472C74.5175 18.1472 74.6 18.206 74.765 18.206ZM110.332 18.1472C110.332 18.2648 110.249 18.206 110.744 18.206C110.827 18.1472 110.909 18.1472 110.332 18.1472ZM76.0028 18.3824C76.0854 18.4411 76.0028 18.4411 76.2504 18.4411C76.0854 18.3236 76.0854 18.3236 76.0028 18.3824ZM83.6773 18.4999C83.6773 18.4411 83.5948 18.3824 83.5948 18.3236C83.5948 18.2648 83.2647 18.4999 83.6773 18.4999ZM32.4317 2.04239C32.4317 2.10117 32.4317 2.10117 32.5142 2.10117L32.4317 2.04239ZM45.8001 3.57059C45.7176 3.57059 45.7176 3.57059 45.7176 3.68814C45.8826 3.62937 45.8826 3.68814 45.8001 3.57059ZM56.4453 3.74692C56.6104 3.62937 56.3628 3.57059 56.2803 3.62937C56.3628 3.68814 56.4453 3.74692 56.4453 3.74692ZM56.9405 4.09958C56.8579 4.21713 56.8579 4.15836 57.023 4.21713C57.023 4.09958 57.023 4.15836 56.9405 4.09958ZM65.0275 4.45224C65.11 4.33469 65.11 4.33469 64.945 4.45224C64.945 4.45224 64.945 4.45224 65.0275 4.45224ZM91.1042 5.74533C91.2692 5.80411 91.1867 5.80411 91.2692 5.68656C91.1042 5.68656 91.1042 5.68656 91.1042 5.74533ZM57.4356 5.92166C57.3531 5.98044 57.3531 5.92166 57.4356 5.92166V5.92166ZM50.7514 6.56821C50.7514 6.45065 50.8339 6.50943 50.5863 6.50943C50.6689 6.56821 50.5863 6.56821 50.7514 6.56821ZM77.2406 7.56741C77.2406 7.50864 77.2407 7.50864 77.0756 7.50864C77.1581 7.62619 77.0756 7.62619 77.2406 7.56741ZM65.4401 7.92008C65.3576 7.97885 65.3576 7.92008 65.4401 7.97885V7.92008ZM70.8865 7.92008C70.804 8.03763 70.804 7.97885 70.8865 7.92008V7.92008ZM77.1581 7.97885C77.2406 8.03763 77.2406 8.03763 77.2406 7.97885H77.1581ZM47.4505 8.44907C47.4505 8.33151 47.4505 8.39029 47.368 8.39029L47.4505 8.44907ZM48.3583 8.56662C48.1932 8.50784 48.2757 8.50784 48.1932 8.6254C48.3583 8.6254 48.2757 8.6254 48.3583 8.56662ZM48.9359 9.03684C48.8534 9.03684 48.8534 9.03684 48.7709 8.97806C48.8534 9.03684 48.7709 9.03684 48.9359 9.03684ZM71.1341 9.85971C71.2991 9.80093 71.2991 9.85971 71.1341 9.80093V9.85971ZM72.1243 10.5063C72.0418 10.6238 72.0418 10.565 72.2069 10.6238C72.2894 10.5063 72.2894 10.565 72.1243 10.5063ZM80.624 10.8589C80.7065 10.8001 80.7065 10.8589 80.624 10.8589V10.8589ZM76.9106 11.623C76.9106 11.6818 76.828 11.6818 76.9931 11.6818L76.9106 11.623ZM72.7845 11.9169C72.9495 11.8581 72.867 11.8581 72.7845 11.8581C72.702 11.7993 72.702 11.8581 72.7845 11.9169ZM55.8677 12.5047C55.7852 12.4459 55.7852 12.4459 55.7852 12.5047C55.7852 12.5634 55.7852 12.5634 55.8677 12.5047ZM51.0815 12.9161C51.164 12.8573 51.164 12.8573 51.0815 12.9161V12.9161ZM57.7657 12.8573C57.6831 12.9749 57.6831 12.9161 57.9307 12.9749C57.8482 12.8573 57.9307 12.8573 57.7657 12.8573ZM64.5324 13.6802C64.5324 13.6214 64.4499 13.5627 64.4499 13.5039C64.2848 13.6214 64.3674 13.739 64.5324 13.6802ZM91.6818 14.268C91.6818 14.1504 91.6818 14.1504 91.6818 14.268V14.268ZM107.691 14.3268C107.608 14.3855 107.608 14.3855 107.691 14.3855V14.3268ZM90.6916 14.4443C90.6916 14.5031 90.6916 14.5031 90.7741 14.5031L90.6916 14.4443ZM82.522 16.5603C82.6045 16.619 82.6045 16.619 82.6045 16.5603H82.522ZM81.2017 16.9717C81.2017 16.9129 81.2017 16.9129 81.1191 16.9129L81.2017 16.9717ZM81.2017 17.7358C81.0366 17.7946 81.0366 17.7358 81.2017 17.7946V17.7358ZM78.726 18.9701C78.561 18.9113 78.561 18.9113 78.6435 19.0289C78.726 19.0289 78.726 19.0289 78.726 18.9701ZM83.1822 19.4403C83.3472 19.4403 83.2647 19.4991 83.3472 19.3816C83.1822 19.3816 83.2647 19.3816 83.1822 19.4403ZM112.312 22.2616C112.395 22.3204 112.395 22.3204 112.395 22.2616H112.312ZM117.016 30.3728C116.851 30.4316 116.851 30.4316 117.016 30.3728V30.3728ZM115.283 30.6667C115.283 30.6079 115.283 30.6079 115.118 30.6079C115.2 30.7255 115.2 30.6667 115.283 30.6667ZM47.6981 34.9574C47.6156 34.8986 47.6156 34.8986 47.6156 34.9574H47.6981ZM48.5233 35.1338C48.6058 35.1925 48.6058 35.1925 48.6058 35.1338H48.5233Z" fill="#FFEC44"/>
</svg>
