<svg version="1.2" xmlns="http://www.w3.org/2000/svg" viewBox="0 0 60 60" width="60" height="60">
	<title>earrings-svg</title>
	<style>
		.s0 { fill: #ffffff } 
	</style>
	<g id="Layer" style="opacity: .2">
		<path id="Layer" class="s0" d="m25.3 23.4q-0.1 0-0.3 0v-0.1c0-0.5-0.2-1-0.5-1.3-0.2-0.4-0.6-0.7-1.1-0.8v-2.2q0-0.3-0.2-0.4-0.1-0.2-0.4-0.2-0.5 0-0.9-0.3-0.5-0.3-0.7-0.8-0.2-0.5-0.1-1 0.1-0.5 0.5-0.9 0.4-0.3 0.9-0.4 0.5-0.1 1 0.1 0.5 0.2 0.8 0.6 0.3 0.4 0.3 1 0 0.2 0.1 0.4 0.2 0.1 0.4 0.1 0.3 0 0.5-0.1 0.1-0.2 0.1-0.4c0-0.6-0.1-1.1-0.4-1.6-0.3-0.5-0.7-0.8-1.2-1.1-0.5-0.2-1.1-0.3-1.6-0.2-0.6 0-1.1 0.3-1.5 0.6-0.4 0.3-0.8 0.8-0.9 1.3-0.2 0.5-0.2 1.1-0.1 1.6 0.1 0.6 0.4 1 0.8 1.4 0.4 0.4 0.9 0.7 1.4 0.8v1.7c-0.4 0.1-0.8 0.4-1.1 0.8-0.3 0.4-0.5 0.8-0.5 1.3v0.1q-0.1 0-0.3 0c-1.1 0.1-2.2 0.5-3 1.3-0.9 0.9-1.3 2-1.3 3.1 0 3.9 6.2 8.9 6.5 9.1q0.1 0.1 0.3 0.1 0.2 0 0.4-0.1c0.2-0.2 6.4-5.2 6.4-9.1 0-1.1-0.4-2.3-1.2-3.1-0.8-0.8-1.9-1.3-3.1-1.3z"/>
		<path id="Layer" class="s0" d="m40.7 17.7q-0.1 0-0.3 0v-0.1c0-0.5-0.2-1-0.4-1.3-0.3-0.4-0.7-0.7-1.2-0.8v-2.3q0-0.2-0.2-0.4-0.1-0.1-0.4-0.1c-0.4 0-0.9-0.2-1.2-0.6-0.3-0.3-0.5-0.7-0.5-1.2 0.1-0.4 0.3-0.8 0.6-1 0.3-0.3 0.7-0.4 1.1-0.4 0.4 0 0.8 0.1 1.1 0.4 0.3 0.2 0.6 0.6 0.6 1q0 0.3 0.2 0.4 0.2 0.2 0.4 0.2 0.2 0 0.4-0.2 0.2-0.1 0.2-0.4c0-0.5-0.2-1.1-0.5-1.5-0.2-0.5-0.7-0.9-1.2-1.1-0.5-0.3-1-0.3-1.6-0.3-0.5 0.1-1 0.3-1.4 0.6-0.5 0.4-0.8 0.8-1 1.4-0.1 0.5-0.2 1 0 1.6 0.1 0.5 0.4 1 0.8 1.4 0.4 0.4 0.9 0.6 1.4 0.7v1.8c-0.5 0.1-0.9 0.4-1.1 0.7-0.3 0.4-0.5 0.9-0.5 1.3v0.2q-0.2 0-0.3-0.1c-1.2 0.1-2.3 0.5-3.1 1.4-0.8 0.8-1.2 1.9-1.2 3 0 3.9 6.2 8.9 6.4 9.1q0.2 0.1 0.4 0.1 0.2 0 0.3-0.1c0.3-0.2 6.5-5.2 6.5-9.1 0-1.1-0.4-2.2-1.2-3-0.8-0.8-1.9-1.3-3.1-1.3z"/>
	</g>
</svg>