<svg width="23" height="23" viewBox="0 0 23 23" fill="none" xmlns="http://www.w3.org/2000/svg">
<path d="M11.5 10C12.3284 10 13 10.6716 13 11.5C13 12.3284 12.3284 13 11.5 13C10.6716 13 10 12.3284 10 11.5C10 10.6716 10.6716 10 11.5 10Z" fill="white"/>
<path d="M11.5 5C12.3284 5 13 5.67157 13 6.5C13 7.32843 12.3284 8 11.5 8C10.6716 8 10 7.32843 10 6.5C10 5.67157 10.6716 5 11.5 5Z" fill="white"/>
<path d="M11.5 15C12.3284 15 13 15.6716 13 16.5C13 17.3284 12.3284 18 11.5 18C10.6716 18 10 17.3284 10 16.5C10 15.6716 10.6716 15 11.5 15Z" fill="white"/>
</svg>
