<svg width="170" height="33" viewBox="0 0 170 33" fill="none" xmlns="http://www.w3.org/2000/svg">
<g clip-path="url(#clip0_80_904)">
<path d="M91.9614 2.3311C92.2056 1.59504 92.6941 1.10433 93.3048 0.613627C93.9154 0.245597 94.6481 0.000244141 95.3809 0.000244141H102.953L98.312 11.4092H111.99C112.479 11.4092 112.845 11.2865 113.211 11.0411C113.578 10.7958 113.822 10.4278 114.066 10.0597L117.242 2.20842C117.486 1.47236 117.974 0.981657 118.585 0.613627C119.196 0.245597 119.928 0.000244141 120.661 0.000244141H128.111L121.883 15.3349C120.661 18.2791 117.73 20.2418 114.555 20.2418H108.082L103.93 30.5468C103.686 31.1601 103.197 31.7735 102.586 32.1415C101.976 32.5095 101.243 32.7549 100.632 32.7549H92.9384L98.0677 20.2418H84.6338L91.9614 2.3311Z" fill="white"/>
<path d="M120.905 33.0007L139.224 15.9487L128.966 0.246094H137.393C140.079 0.246094 142.643 1.59554 144.109 3.92639L147.284 8.83345L156.322 0.246094H170.123L152.414 16.5621L163.161 33.0007H150.46L144.597 23.9227L134.827 33.0007H120.905Z" fill="white"/>
<path d="M53.2472 0.123291H64.605L70.7113 17.9114L76.5734 3.31288C77.3061 1.35005 79.138 0.123291 81.2142 0.123291H89.1524L75.9627 33.0006H64.7271L58.6208 15.2125L53.3694 28.4616C52.2702 31.2831 49.5835 33.0006 46.5303 33.0006H40.1797L53.2472 0.123291Z" fill="white"/>
<path d="M11.3578 4.90731C11.9684 3.43518 12.9454 2.20843 14.2887 1.34969C15.6322 0.490951 17.0978 0.000244141 18.6853 0.000244141H48.6063L37.2486 27.8478C36.6379 29.32 35.6609 30.5467 34.3175 31.4055C32.9742 32.2642 31.5087 32.7549 29.921 32.7549H0L11.3578 4.90731ZM13.8002 23.4315H27.8448C28.2113 23.4315 28.5776 23.3087 28.944 23.0634C29.3103 22.818 29.5546 22.5727 29.6768 22.2047L34.9282 9.44634H20.6393C19.7845 9.44634 19.1738 9.93705 18.9296 10.6731L13.8002 23.4315Z" fill="white"/>
</g>
<defs>
<clipPath id="clip0_80_904">
<rect width="170" height="33" fill="white" transform="translate(0 0.000244141)"/>
</clipPath>
</defs>
</svg>
