<svg width="128" height="128" viewBox="0 0 128 128" fill="none" xmlns="http://www.w3.org/2000/svg">
<path fill-rule="evenodd" clip-rule="evenodd" d="M64 128C99.3462 128 128 99.3462 128 64C128 28.6538 99.3462 0 64 0C28.6538 0 0 28.6538 0 64C0 99.3462 28.6538 128 64 128ZM85.3571 43C85.3571 54.5992 76.0203 64 64.5 64C52.9797 64 43.6429 54.5992 43.6429 43C43.6429 31.4008 52.9797 22 64.5 22C76.0203 22 85.3571 31.4008 85.3571 43ZM76.3788 69.25H79.1C91.1906 69.25 101 79.1266 101 91.3V98.125C101 102.473 97.4967 106 93.1786 106H35.8214C31.5033 106 28 102.473 28 98.125V91.3C28 79.1266 37.8094 69.25 49.9 69.25H52.6212C56.2549 70.9234 60.2634 71.875 64.5 71.875C68.7366 71.875 72.7614 70.9234 76.3788 69.25Z" fill="#BFBFBF" fill-opacity="0.3"/>
</svg>
