<svg width="31" height="36" viewBox="0 0 31 36" fill="none" xmlns="http://www.w3.org/2000/svg">
<path d="M25.0696 0H5.87652C2.64174 0 0 2.64174 0 5.87652V12.5617C0 15.7965 2.64174 18.4383 5.87652 18.4383H7.11652C7.81739 18.4383 8.35652 18.9774 8.35652 19.6783V29.2748C8.35652 32.5096 10.9983 35.1513 14.233 35.1513H25.1235C28.3583 35.1513 31 32.5096 31 29.2748V5.87652C30.9461 2.64174 28.3043 0 25.0696 0ZM29.2748 29.2748C29.2748 31.593 27.3878 33.48 25.0696 33.48H14.233C11.9148 33.48 10.0278 31.593 10.0278 29.2748V19.6783C10.0278 18.0609 8.73391 16.767 7.11652 16.767H5.87652C3.55826 16.767 1.6713 14.88 1.6713 12.5617V5.87652C1.6713 3.55826 3.55826 1.6713 5.87652 1.6713H25.1235C27.4417 1.6713 29.3287 3.55826 29.3287 5.87652V29.2748H29.2748Z" fill="white"/>
<path d="M19.3548 8.78741C19.3548 9.27263 19.7322 9.65002 20.2174 9.65002H22.5357V22.5892H17.0904L18.6539 21.0257C18.9774 20.7022 18.9774 20.1631 18.6539 19.8396C18.3304 19.5161 17.7913 19.5161 17.4678 19.8396L13.9096 23.3978L17.5217 27.01C17.6835 27.1718 17.8991 27.2796 18.1148 27.2796C18.3304 27.2796 18.5461 27.1718 18.7078 27.01C19.0313 26.6865 19.0313 26.1474 18.7078 25.8239L17.1444 24.2605H24.153V7.9248H20.1635C19.7322 7.9248 19.3548 8.3022 19.3548 8.78741Z" fill="white"/>
</svg>
