<svg width="68" height="68" viewBox="0 0 68 68" fill="none" xmlns="http://www.w3.org/2000/svg">
<path d="M33.9998 17.3327C33.1158 17.3327 32.2679 17.6839 31.6428 18.309C31.0177 18.9341 30.6665 19.782 30.6665 20.666V33.9994C30.6665 34.8834 31.0177 35.7313 31.6428 36.3564C32.2679 36.9815 33.1158 37.3327 33.9998 37.3327C34.8839 37.3327 35.7317 36.9815 36.3569 36.3564C36.982 35.7313 37.3332 34.8834 37.3332 33.9994V20.666C37.3332 19.782 36.982 18.9341 36.3569 18.309C35.7317 17.6839 34.8839 17.3327 33.9998 17.3327ZM33.9998 43.9994C33.3406 43.9994 32.6961 44.1948 32.1479 44.5611C31.5998 44.9274 31.1725 45.448 30.9202 46.0571C30.6679 46.6662 30.6019 47.3364 30.7306 47.983C30.8592 48.6296 31.1766 49.2235 31.6428 49.6897C32.109 50.1559 32.7029 50.4734 33.3495 50.602C33.9961 50.7306 34.6664 50.6646 35.2754 50.4123C35.8845 50.16 36.4051 49.7327 36.7714 49.1846C37.1377 48.6364 37.3332 47.992 37.3332 47.3327C37.3332 46.4486 36.982 45.6008 36.3569 44.9757C35.7317 44.3505 34.8839 43.9994 33.9998 43.9994ZM66.3665 19.1994L48.7998 1.63268C48.1611 1.02357 47.3157 0.678294 46.4332 0.666016H21.5665C20.6839 0.678294 19.8386 1.02357 19.1998 1.63268L1.63317 19.1994C1.02406 19.8381 0.678782 20.6835 0.666504 21.566V46.4327C0.678782 47.3152 1.02406 48.1606 1.63317 48.7994L19.1998 66.366C19.8386 66.9751 20.6839 67.3204 21.5665 67.3327H46.4332C47.3157 67.3204 48.1611 66.9751 48.7998 66.366L66.3665 48.7994C66.9756 48.1606 67.3209 47.3152 67.3332 46.4327V21.566C67.3209 20.6835 66.9756 19.8381 66.3665 19.1994ZM60.6665 45.0327L45.0332 60.666H22.9665L7.33317 45.0327V22.966L22.9665 7.33268H45.0332L60.6665 22.966V45.0327Z" fill="white"/>
</svg>
