<svg width="26" height="26" viewBox="0 0 26 26" fill="none" xmlns="http://www.w3.org/2000/svg">
<path fill-rule="evenodd" clip-rule="evenodd" d="M12.516 3.33398H7.45567V3.33482L1.45867 14.5792H1.45801V20.9514H2.39469C2.39499 19.3991 3.65353 18.1407 5.20597 18.1407C6.75842 18.1407 8.01696 19.3991 8.01726 20.9514H8.57993V14.5792H5.95669L10.0798 5.02114H7.45591V5.02076H11.2049V15.4142C10.4447 15.6531 9.89324 16.3634 9.89324 17.2025C9.89324 18.2376 10.7323 19.0767 11.7674 19.0767C11.8964 19.0767 12.0223 19.0637 12.144 19.0389V18.0614C12.029 18.1117 11.902 18.1397 11.7684 18.1397C11.2509 18.1397 10.8313 17.7201 10.8313 17.2026C10.8313 16.685 11.2509 16.2655 11.7684 16.2655C11.902 16.2655 12.029 16.2934 12.144 16.3438V15.5161H12.3295V5.02076H12.516V3.33398ZM7.08094 20.9515C7.08094 21.9866 6.24184 22.8257 5.20675 22.8257C4.17166 22.8257 3.33256 21.9866 3.33256 20.9515C3.33256 19.9164 4.17166 19.0773 5.20675 19.0773C6.24184 19.0773 7.08094 19.9164 7.08094 20.9515ZM24.6987 11.205H20.3881V12.3295L20.3876 12.3295V11.205L18.1385 15.3282H19.2631L20.7624 12.3295L24.6987 12.3295V11.205ZM19.639 15.3288C16.3267 15.3288 13.6416 18.0139 13.6416 21.3262H17.1738C17.0703 21.0332 17.014 20.718 17.014 20.3895C17.014 18.8369 18.2727 17.5783 19.8253 17.5783C21.3779 17.5783 22.6366 18.8369 22.6366 20.3895C22.6366 20.718 22.5803 21.0332 22.4768 21.3262H24.6993V15.3288H19.639ZM21.8879 20.3886C21.8879 21.5272 20.9649 22.4502 19.8263 22.4502C18.6877 22.4502 17.7647 21.5272 17.7647 20.3886C17.7647 19.25 18.6877 18.327 19.8263 18.327C20.9649 18.327 21.8879 19.25 21.8879 20.3886Z" fill="#F04E27"/>
</svg>
