<svg width="105" height="26" viewBox="0 0 105 26" fill="none" xmlns="http://www.w3.org/2000/svg">
<rect width="26" height="26" rx="2" fill="url(#paint0_radial_60_59966)"/>
<g clip-path="url(#clip0_60_59966)">
<path d="M18.6569 7.34313C17.1459 5.83219 15.1369 5 13 5C10.8631 5 8.85406 5.83219 7.34313 7.34313C5.83219 8.85406 5 10.8631 5 13C5 15.1369 5.83219 17.1459 7.34313 18.6569C8.85406 20.1678 10.8631 21 13 21C15.1369 21 17.1459 20.1678 18.6569 18.6569C20.1678 17.1459 21 15.1369 21 13C21 10.8631 20.1678 8.85406 18.6569 7.34313ZM10.6966 9.63625L12.3538 11.2934L11.6909 11.9566L10.6966 10.9622L9.70219 11.9566L9.03906 11.2934L10.6966 9.63625ZM9.91594 13.5356C11.3622 15.3889 14.6382 15.3885 16.0841 13.5356L16.7909 14.1519C14.9751 16.4304 11.0244 16.4299 9.20906 14.1519L9.91594 13.5356ZM16.2978 11.9566L15.3034 10.9622L14.3091 11.9566L13.6462 11.2934L15.3034 9.63625L16.9609 11.2934L16.2978 11.9566Z" fill="white"/>
</g>
<rect x="31" width="74" height="26" rx="1" fill="url(#paint1_radial_60_59966)" fill-opacity="0.25"/>
<path d="M52.1 17.076H56.86V18H51.12V8.2H56.79V9.124H52.1V12.596H56.44V13.52H52.1V17.076ZM63.4438 11H64.4238L61.5538 18H60.4338L57.5638 11H58.5438L60.9938 17.034L63.4438 11ZM68.5011 10.832C69.5371 10.832 70.3724 11.2007 71.0071 11.938C71.6511 12.666 71.9731 13.5293 71.9731 14.528C71.9731 14.6307 71.9638 14.7753 71.9451 14.962H65.7991C65.8924 15.6713 66.1911 16.236 66.6951 16.656C67.2084 17.0667 67.8384 17.272 68.5851 17.272C69.1171 17.272 69.5744 17.1647 69.9571 16.95C70.3491 16.726 70.6431 16.4367 70.8391 16.082L71.6511 16.558C71.3431 17.0527 70.9231 17.4447 70.3911 17.734C69.8591 18.0233 69.2524 18.168 68.5711 18.168C67.4698 18.168 66.5738 17.8227 65.8831 17.132C65.1924 16.4413 64.8471 15.564 64.8471 14.5C64.8471 13.4547 65.1878 12.582 65.8691 11.882C66.5504 11.182 67.4278 10.832 68.5011 10.832ZM68.5011 11.728C67.7731 11.728 67.1618 11.9473 66.6671 12.386C66.1818 12.8153 65.8924 13.3753 65.7991 14.066H71.0211C70.9278 13.3287 70.6431 12.7547 70.1671 12.344C69.6911 11.9333 69.1358 11.728 68.5011 11.728ZM76.7189 10.832C77.5682 10.832 78.2356 11.0933 78.7209 11.616C79.2156 12.1293 79.4629 12.8247 79.4629 13.702V18H78.5389V13.702C78.5389 13.0767 78.3709 12.5913 78.0349 12.246C77.7082 11.9007 77.2416 11.728 76.6349 11.728C75.9629 11.728 75.4169 11.9427 74.9969 12.372C74.5769 12.792 74.3669 13.4453 74.3669 14.332V18H73.4429V11H74.3669V12.092C74.8896 11.252 75.6736 10.832 76.7189 10.832ZM84.9595 11.896H82.9435V16.138C82.9435 16.5207 83.0182 16.796 83.1675 16.964C83.3169 17.1227 83.5409 17.2067 83.8395 17.216C84.1382 17.216 84.5115 17.2067 84.9595 17.188V18C83.9795 18.1493 83.2422 18.0793 82.7475 17.79C82.2622 17.5007 82.0195 16.95 82.0195 16.138V11.896H80.5495V11H82.0195V9.32L82.9435 9.04V11H84.9595V11.896Z" fill="white"/>
<defs>
<radialGradient id="paint0_radial_60_59966" cx="0" cy="0" r="1" gradientUnits="userSpaceOnUse" gradientTransform="translate(13 13) rotate(90) scale(25)">
<stop stop-color="#5FDF99"/>
<stop offset="1" stop-color="#5FDFAC" stop-opacity="0"/>
</radialGradient>
<radialGradient id="paint1_radial_60_59966" cx="0" cy="0" r="1" gradientUnits="userSpaceOnUse" gradientTransform="translate(68 13) rotate(90) scale(25 71.1538)">
<stop stop-color="white"/>
<stop offset="1" stop-color="white" stop-opacity="0"/>
</radialGradient>
<clipPath id="clip0_60_59966">
<rect width="16" height="16" fill="white" transform="translate(5 5)"/>
</clipPath>
</defs>
</svg>
