<svg width="118" height="118" viewBox="0 0 118 118" fill="none" xmlns="http://www.w3.org/2000/svg">
<g opacity="0.1" clip-path="url(#clip0)">
<path d="M34.7162 54.3906H43.9349V63.6094H34.7162V54.3906Z" fill="white"/>
<path d="M54.3906 54.3906H63.6094V63.6094H54.3906V54.3906Z" fill="white"/>
<path d="M74.0651 54.3906H83.2838V63.6094H74.0651V54.3906Z" fill="white"/>
<path d="M78.5412 87.8077C72.8155 91.6969 66.0032 93.8062 59 93.8062C39.764 93.8062 24.1938 78.2387 24.1938 59V55.543H0V59C0 91.6068 26.3878 118 59 118C72.4563 118 85.4112 113.44 95.83 105.096L103.016 112.282L109.41 75.0176L72.1448 81.4113L78.5412 87.8077Z" fill="white"/>
<path d="M59 0C45.5752 0 32.6446 4.54185 22.2375 12.8513L15.1038 5.71761L8.71009 42.9824L45.9749 36.5887L39.5236 30.1374C45.2511 26.2374 51.914 24.1938 59 24.1938C78.236 24.1938 93.8062 39.7622 93.8062 59V62.457H118V59C118 26.3932 91.6122 0 59 0Z" fill="white"/>
</g>
<defs>
<clipPath id="clip0">
<rect width="118" height="118" fill="white"/>
</clipPath>
</defs>
</svg>
