<svg width="26" height="26" viewBox="0 0 26 26" fill="none" xmlns="http://www.w3.org/2000/svg">
<path d="M17.3013 14.9142C17.1877 15.0278 17.1104 15.1725 17.0791 15.3301C17.0477 15.4877 17.0638 15.651 17.1253 15.7994C17.1868 15.9478 17.2908 16.0747 17.4244 16.164C17.5579 16.2532 17.715 16.3009 17.8756 16.301H19.5006V17.3166C19.5006 17.6937 19.3508 18.0554 19.0841 18.322C18.8175 18.5887 18.4558 18.7385 18.0787 18.7385H7.71935C7.37287 18.1126 6.82955 17.6185 6.17365 17.3328C5.51775 17.0472 4.78591 16.9859 4.09165 17.1585C3.39738 17.3312 2.77948 17.7281 2.33376 18.2877C1.88805 18.8473 1.63943 19.5383 1.62646 20.2536C1.6135 20.9689 1.83691 21.6685 2.26206 22.2439C2.6872 22.8192 3.29031 23.2383 3.97787 23.436C4.66542 23.6336 5.399 23.5989 6.06482 23.3372C6.73064 23.0755 7.29151 22.6014 7.66044 21.9885H18.0787C19.3174 21.9872 20.5049 21.4945 21.3808 20.6187C22.2566 19.7428 22.7493 18.5553 22.7506 17.3166V16.301H24.3756C24.5362 16.3009 24.6933 16.2532 24.8268 16.164C24.9604 16.0747 25.0644 15.9478 25.1259 15.7994C25.1874 15.651 25.2035 15.4877 25.1721 15.3301C25.1408 15.1725 25.0635 15.0278 24.9499 14.9142L21.6999 11.6642C21.5476 11.5119 21.341 11.4264 21.1256 11.4264C20.9102 11.4264 20.7036 11.5119 20.5513 11.6642L17.3013 14.9142ZM3.2506 20.3127C3.2506 19.9913 3.34591 19.6771 3.52446 19.4099C3.70302 19.1427 3.95681 18.9344 4.25374 18.8114C4.55067 18.6884 4.8774 18.6562 5.19262 18.7189C5.50784 18.7816 5.79739 18.9364 6.02465 19.1637C6.25191 19.3909 6.40668 19.6805 6.46938 19.9957C6.53208 20.3109 6.4999 20.6377 6.3769 20.9346C6.25391 21.2315 6.04563 21.4853 5.7784 21.6639C5.51117 21.8424 5.19699 21.9377 4.8756 21.9377C4.44462 21.9377 4.0313 21.7665 3.72655 21.4618C3.42181 21.157 3.2506 20.7437 3.2506 20.3127V20.3127ZM18.3128 4.06272H7.92248C6.68383 4.06407 5.4963 4.55671 4.62045 5.43257C3.74459 6.30842 3.25194 7.49595 3.2506 8.7346V9.75022H1.6256C1.46496 9.7503 1.30794 9.79799 1.1744 9.88727C1.04085 9.97656 0.936769 10.1034 0.875304 10.2518C0.813839 10.4003 0.797749 10.5636 0.829068 10.7211C0.860388 10.8787 0.93771 11.0234 1.05126 11.1371L4.30126 14.3871C4.45362 14.5393 4.6602 14.6248 4.8756 14.6248C5.091 14.6248 5.29758 14.5393 5.44994 14.3871L8.69994 11.1371C8.81349 11.0234 8.89081 10.8787 8.92213 10.7211C8.95345 10.5636 8.93736 10.4003 8.8759 10.2518C8.81443 10.1034 8.71035 9.97656 8.5768 9.88727C8.44326 9.79799 8.28624 9.7503 8.1256 9.75022H6.5006V8.7346C6.5006 8.35749 6.6504 7.99583 6.91706 7.72918C7.18371 7.46253 7.54537 7.31272 7.92248 7.31272H18.3128C18.6705 7.93231 19.2227 8.41654 19.8837 8.69033C20.5447 8.96412 21.2775 9.01215 21.9686 8.82698C22.6596 8.64181 23.2703 8.23379 23.7058 7.6662C24.1413 7.0986 24.3774 6.40316 24.3774 5.68772C24.3774 4.97229 24.1413 4.27684 23.7058 3.70925C23.2703 3.14165 22.6596 2.73363 21.9686 2.54846C21.2775 2.36329 20.5447 2.41133 19.8837 2.68511C19.2227 2.9589 18.6705 3.44314 18.3128 4.06272ZM22.7506 5.68772C22.7506 6.00912 22.6553 6.32329 22.4767 6.59052C22.2982 6.85775 22.0444 7.06603 21.7475 7.18903C21.4505 7.31202 21.1238 7.3442 20.8086 7.2815C20.4934 7.2188 20.2038 7.06403 19.9766 6.83677C19.7493 6.60951 19.5945 6.31996 19.5318 6.00474C19.4691 5.68952 19.5013 5.36279 19.6243 5.06586C19.7473 4.76893 19.9556 4.51514 20.2228 4.33658C20.49 4.15803 20.8042 4.06272 21.1256 4.06272C21.5566 4.06272 21.9699 4.23393 22.2746 4.53867C22.5794 4.84342 22.7506 5.25674 22.7506 5.68772Z" fill="#F04E27"/>
</svg>
