<svg width="24" height="24" viewBox="0 0 24 24" fill="none" xmlns="http://www.w3.org/2000/svg">
<g opacity="0.8">
<path d="M6 8.25L2.25 12M2.25 12L6 15.75M2.25 12H15.0469M9 8.25V6.375C9 5.87772 9.19754 5.40081 9.54918 5.04917C9.90081 4.69754 10.3777 4.5 10.875 4.5H19.875C20.3723 4.5 20.8492 4.69754 21.2008 5.04917C21.5525 5.40081 21.75 5.87772 21.75 6.375V17.625C21.75 18.1223 21.5525 18.5992 21.2008 18.9508C20.8492 19.3025 20.3723 19.5 19.875 19.5H10.875C10.3777 19.5 9.90081 19.3025 9.54918 18.9508C9.19754 18.5992 9 18.1223 9 17.625V15.75V8.25Z" stroke="#F04E27" stroke-width="2" stroke-linecap="round" stroke-linejoin="round"/>
</g>
</svg>
