<svg width="24" height="24" viewBox="0 0 24 24" fill="none" xmlns="http://www.w3.org/2000/svg">
<g clip-path="url(#clip0_2718_3549)">
<ellipse cx="11.998" cy="12" rx="6" ry="6" fill="#304048"/>
<path d="M11.9954 8.71875C10.1899 8.71875 8.72266 10.186 8.72266 11.9915C8.72266 13.797 10.1899 15.2642 11.9954 15.2642C13.8009 15.2642 15.2681 13.797 15.2681 11.9915C15.2681 10.186 13.8008 8.71875 11.9954 8.71875Z" fill="white"/>
<path d="M11.9961 3.8125C6.54155 3.8125 1.88338 7.2052 -0.00390625 11.9943C1.88338 16.7834 6.54155 20.1762 11.9961 20.1762C17.4561 20.1762 22.1089 16.7834 23.9961 11.9943C22.1089 7.2052 17.4561 3.8125 11.9961 3.8125ZM11.9961 17.4488C8.98521 17.4488 6.54155 15.0052 6.54155 11.9943C6.54155 8.98336 8.98521 6.53976 11.9961 6.53976C15.007 6.53976 17.4507 8.98342 17.4507 11.9943C17.4507 15.0052 15.007 17.4488 11.9961 17.4488Z" fill="white"/>
</g>
<defs>
<clipPath id="clip0_2718_3549">
<rect width="24" height="24" fill="white"/>
</clipPath>
</defs>
</svg>
