<svg width="48" height="28" viewBox="0 0 48 28" fill="none" xmlns="http://www.w3.org/2000/svg">
<path d="M7.42697 7.44844L7.42691 7.44848C3.76178 10.3486 1.90524 13.1592 1.75501 13.3866L1.75264 13.3902L1.73273 13.4203L1.72776 13.4303L1.57128 13.6708L1.36065 13.9946L1.56817 14.3204L1.74717 14.6014L1.74851 14.6035C1.78865 14.6659 3.73738 17.6323 7.42693 20.5515L7.42694 20.5515C12.3307 24.4313 18.0666 26.475 24.0432 26.475C30.0198 26.475 35.7433 24.4323 40.6198 20.5505C44.187 17.7126 46.1163 14.8091 46.2511 14.6006L46.2512 14.6006L46.4302 14.3236L46.6397 13.9993L46.4313 13.6742L46.2563 13.4012L46.2214 13.3466L46.2112 13.3364C45.922 12.9005 44.0523 10.183 40.62 7.44965L40.2462 7.919L40.62 7.44965C35.7454 3.56772 30.0218 1.525 24.0432 1.525C18.0645 1.525 12.3287 3.57077 7.42697 7.44844ZM24.0472 3.742C29.5468 3.742 34.658 5.56043 39.1661 9.12167C41.518 10.9811 43.0941 12.8582 43.8587 13.8576L43.859 13.858L43.9674 13.9994L43.8576 14.1439L43.8572 14.1443C43.1051 15.1355 41.563 16.9703 39.2415 18.8186C34.7173 22.4194 29.5797 24.263 24.0472 24.263C18.5455 24.263 13.4147 22.4415 8.87789 18.8772L8.87783 18.8771C6.5143 17.0208 4.93132 15.1446 4.15619 14.1404L4.15523 14.1392L4.04569 13.998L4.15523 13.8569L4.15676 13.8549C4.91932 12.8637 6.47476 11.0323 8.80662 9.18644C13.3002 5.6322 18.3732 3.7909 23.824 3.742H24.0472ZM24.0022 5.455C19.2812 5.455 15.4512 9.28129 15.4512 14.002C15.4512 18.7227 19.2812 22.549 24.0022 22.549C28.7236 22.549 32.5492 18.7234 32.5492 14.002C32.5492 9.28063 28.7236 5.455 24.0022 5.455ZM24.0022 7.673C27.4848 7.673 30.3322 10.5213 30.3322 14.003C30.3322 17.4846 27.4838 20.333 24.0022 20.333C20.5192 20.333 17.6682 17.4842 17.6682 14.003C17.6682 10.5218 20.5201 7.673 24.0022 7.673Z" fill="white" stroke="white" stroke-width="1.2"/>
</svg>
