<svg width="46" height="64" viewBox="0 0 46 64" fill="none" xmlns="http://www.w3.org/2000/svg">
<mask id="path-1-outside-1" maskUnits="userSpaceOnUse" x="0" y="0.000366211" width="46" height="64" fill="black">
<rect fill="white" y="0.000366211" width="46" height="64"/>
<path d="M45.0077 35.9362C44.7927 34.2908 43.6417 33.0058 42.2063 32.8123C41.8348 32.7651 41.4943 32.7899 41.1814 32.8679C41.7629 31.2043 45.602 19.4231 39.9045 13.9186C40.2295 12.1847 40.289 7.66823 33.6567 3.59842C32.8701 3.11532 32.2655 2.42603 31.9114 1.60769C31.766 1.27132 31.4435 1.0525 31.0805 1.00565C30.7162 0.96904 30.3457 1.1246 30.1206 1.41159C30.1067 1.42927 28.6725 3.19359 22.8471 3.84235C22.2426 3.84992 8.38748 4.13706 6.08451 13.1646C5.33953 13.3252 4.26337 13.7337 3.3944 14.7822C1.95634 16.5174 1.63638 19.2871 2.42302 22.8751L2.76444 27.2018C2.76248 27.3349 2.74929 29.7408 3.69878 32.3983C2.39553 32.6001 1.32428 33.7951 1.07221 35.3592C0.843291 36.7719 1.19621 38.0809 1.60468 39.5974C1.97906 40.986 2.40268 42.5606 2.5595 44.7132C2.67593 46.3182 2.99589 48.1988 4.44643 48.5023C4.56159 48.5263 4.67409 48.5377 4.78658 48.5377C5.54671 48.5377 6.25227 48.0159 6.8473 47.341L7.0441 50.7004C7.05799 50.8028 7.38426 53.2133 9.09935 54.7538C10.5526 56.059 15.6772 60.4197 15.6924 60.4323L16.7926 61.3329C18.1057 62.4081 19.7613 63 21.4572 63H24.4343C26.1442 63 27.8112 62.398 29.1278 61.3103L32.2453 58.7303L36.8274 54.5592C37.0031 54.4454 38.5411 53.3603 38.6245 50.2706L38.7569 48.3169C39.288 48.824 39.8966 49.1905 40.5482 49.1905C40.6481 49.1905 40.7493 49.1816 40.8505 49.164C42.377 48.8934 42.7931 46.8938 42.9739 45.4128C43.2394 43.2287 43.7706 41.6452 44.2386 40.2489C44.7523 38.7173 45.1949 37.3957 45.0077 35.9362ZM4.96781 16.1318C5.76581 15.144 6.88012 15.1364 6.91547 15.1364C7.38468 15.0933 7.87535 14.7835 7.964 14.2777C9.36909 6.19862 22.7398 5.91653 22.9751 5.90769C23.0284 5.9018 23.08 5.89549 23.1326 5.88932C21.9995 7.20618 20.7007 8.11864 17.6226 8.3435C17.0523 8.3853 16.6235 8.88101 16.6653 9.45262C16.7045 9.99771 17.1597 10.4125 17.6972 10.4125C17.7225 10.4125 17.7479 10.4125 17.7744 10.41C22.5804 10.0583 24.1448 8.01835 25.6575 6.04418L26.0521 5.53317C26.0885 5.48674 26.1192 5.43765 26.1465 5.38743C28.4253 4.87095 29.8375 4.18475 30.6848 3.61833C30.8458 3.84221 31.023 4.05444 31.2123 4.25615C30.4926 6.04558 28.7005 9.65489 23.1382 11.6C22.5969 11.7884 22.3123 12.3791 22.5021 12.9191C22.6513 13.3467 23.051 13.6135 23.4798 13.6135C23.5935 13.6135 23.7087 13.5958 23.8212 13.5553C29.7114 11.4955 31.9345 7.78522 32.9068 5.57315C34.0929 6.33271 35.0075 7.09452 35.7103 7.83235C34.9771 9.64212 33.1613 13.2347 27.5862 15.1628C27.0462 15.3499 26.759 15.9393 26.9463 16.4806C27.0943 16.9094 27.4952 17.1775 27.9252 17.1775C28.0377 17.1775 28.1516 17.1598 28.2641 17.1205C33.684 15.2465 36.0191 11.9796 37.1292 9.73344C38.4067 12.0461 37.8171 13.794 37.7787 13.9006C37.6193 14.3166 37.7433 14.7884 38.0873 15.0717C42.7465 18.9102 40.4574 28.1642 39.5126 31.2855C39.4443 30.5646 39.2571 29.8652 38.9549 29.2012C38.6007 28.4247 38.4173 27.6 38.4098 26.7488C38.4035 26.0697 38.411 25.1907 38.4541 24.151C38.5857 21.036 36.4015 19.3123 36.3091 19.2414C36.3065 19.2389 36.304 19.2376 36.3015 19.2351C32.9601 16.7018 24.6421 20.0483 22.946 20.7718L22.7829 20.768C22.7438 20.7566 22.21 20.5985 15.5462 18.5622C13.3253 17.8818 11.4814 17.9349 10.0661 18.7077C8.88866 19.3526 8.04255 20.4922 7.62132 22.0024C7.38861 22.8359 7.31398 23.7451 7.40123 24.7051C7.61122 27.0284 6.94339 28.5334 6.9295 28.5613C6.817 28.8167 5.97594 30.7696 5.9772 32.5186C4.82754 29.9233 4.83638 27.2434 4.83385 27.1333L4.46957 22.574C3.81689 19.5692 3.99013 17.3409 4.96781 16.1318ZM6.36028 44.3579C5.93652 45.1571 5.32073 45.9944 4.9312 46.332C4.83385 46.0753 4.69849 45.558 4.62639 44.5639C4.45569 42.2129 3.98395 40.4637 3.60578 39.0586C3.2314 37.6686 2.96082 36.6632 3.1189 35.6893C3.22509 35.0303 3.62991 34.4814 4.0409 34.4398C4.39944 34.4012 4.77354 34.9579 5.06488 35.6778L5.90524 39.4978C5.90286 39.9939 5.9469 41.684 6.61459 43.3586L6.65303 44.0151C6.53492 44.1041 6.43364 44.2187 6.36028 44.3579ZM36.5555 50.1731C36.4998 52.1853 35.7044 52.8138 35.569 52.92L30.8896 57.1619L27.8074 59.7116C26.8602 60.4957 25.6624 60.9258 24.4343 60.9258H21.4572C20.2392 60.9258 19.0492 60.5009 18.1057 59.7294L17.0206 58.8417C17.0193 58.8417 11.9288 54.5112 10.4845 53.2111C9.36909 52.2107 9.11099 50.5071 9.1072 50.5071L8.67335 43.0642C8.66577 42.9453 8.63926 42.8289 8.59241 42.719C7.97227 41.2629 7.97424 39.6824 7.97831 39.4602C8.06008 38.7665 8.50797 34.7078 8.09796 33.0122C7.87408 32.0864 8.42423 30.307 8.81502 29.423C8.85163 29.3433 9.72818 27.436 9.46504 24.5184C9.40051 23.8102 9.45115 23.1512 9.61681 22.5606C9.88879 21.5855 10.3744 20.9014 11.0612 20.5257C11.9706 20.0288 13.277 20.0363 14.9413 20.5434C22.039 22.7137 22.2186 22.7631 22.4183 22.7971L23.0761 22.8452C23.243 22.8528 23.4124 22.8288 23.568 22.7605C26.9828 21.2619 33.1129 19.4368 35.0441 20.8824C35.0973 20.9268 36.4681 22.0712 36.3847 24.0657C36.3391 25.1484 36.3315 26.0628 36.3378 26.7672C36.3479 27.9118 36.5945 29.021 37.07 30.0619C37.3091 30.5881 37.4432 31.147 37.4646 31.7224C37.5115 32.9858 37.5481 34.7577 37.4571 36.0314C37.428 36.45 37.4545 36.8586 37.5342 37.2468C37.5803 37.4737 37.699 37.671 37.8638 37.8162C37.7151 38.4954 37.5456 39.5042 37.2964 40.9893C37.1623 41.7923 37.0688 42.5968 37.0131 43.4099L36.5555 50.1731ZM42.2734 39.5887C41.7991 41.0064 41.2072 42.7695 40.9163 45.1623C40.7557 46.4852 40.5091 46.9696 40.5179 47.0936C40.1603 46.9032 39.4753 46.0246 38.9739 45.1148L39.08 43.5498C39.1306 42.8035 39.2166 42.0675 39.3405 41.3301C39.6147 39.6956 39.7684 38.7879 39.8529 38.2959C39.9419 38.1764 40.0075 38.0366 40.0386 37.8813C40.0965 37.5919 40.1964 37.2316 40.3284 36.8618C40.4854 36.5932 40.62 36.2812 40.7335 35.9273C41.0685 35.2948 41.4872 34.8106 41.9294 34.8662C42.4226 34.932 42.8628 35.5074 42.9526 36.2017C43.0804 37.1882 42.7413 38.1949 42.2734 39.5887Z"/>
</mask>
<path d="M45.0077 35.9362C44.7927 34.2908 43.6417 33.0058 42.2063 32.8123C41.8348 32.7651 41.4943 32.7899 41.1814 32.8679C41.7629 31.2043 45.602 19.4231 39.9045 13.9186C40.2295 12.1847 40.289 7.66823 33.6567 3.59842C32.8701 3.11532 32.2655 2.42603 31.9114 1.60769C31.766 1.27132 31.4435 1.0525 31.0805 1.00565C30.7162 0.96904 30.3457 1.1246 30.1206 1.41159C30.1067 1.42927 28.6725 3.19359 22.8471 3.84235C22.2426 3.84992 8.38748 4.13706 6.08451 13.1646C5.33953 13.3252 4.26337 13.7337 3.3944 14.7822C1.95634 16.5174 1.63638 19.2871 2.42302 22.8751L2.76444 27.2018C2.76248 27.3349 2.74929 29.7408 3.69878 32.3983C2.39553 32.6001 1.32428 33.7951 1.07221 35.3592C0.843291 36.7719 1.19621 38.0809 1.60468 39.5974C1.97906 40.986 2.40268 42.5606 2.5595 44.7132C2.67593 46.3182 2.99589 48.1988 4.44643 48.5023C4.56159 48.5263 4.67409 48.5377 4.78658 48.5377C5.54671 48.5377 6.25227 48.0159 6.8473 47.341L7.0441 50.7004C7.05799 50.8028 7.38426 53.2133 9.09935 54.7538C10.5526 56.059 15.6772 60.4197 15.6924 60.4323L16.7926 61.3329C18.1057 62.4081 19.7613 63 21.4572 63H24.4343C26.1442 63 27.8112 62.398 29.1278 61.3103L32.2453 58.7303L36.8274 54.5592C37.0031 54.4454 38.5411 53.3603 38.6245 50.2706L38.7569 48.3169C39.288 48.824 39.8966 49.1905 40.5482 49.1905C40.6481 49.1905 40.7493 49.1816 40.8505 49.164C42.377 48.8934 42.7931 46.8938 42.9739 45.4128C43.2394 43.2287 43.7706 41.6452 44.2386 40.2489C44.7523 38.7173 45.1949 37.3957 45.0077 35.9362ZM4.96781 16.1318C5.76581 15.144 6.88012 15.1364 6.91547 15.1364C7.38468 15.0933 7.87535 14.7835 7.964 14.2777C9.36909 6.19862 22.7398 5.91653 22.9751 5.90769C23.0284 5.9018 23.08 5.89549 23.1326 5.88932C21.9995 7.20618 20.7007 8.11864 17.6226 8.3435C17.0523 8.3853 16.6235 8.88101 16.6653 9.45262C16.7045 9.99771 17.1597 10.4125 17.6972 10.4125C17.7225 10.4125 17.7479 10.4125 17.7744 10.41C22.5804 10.0583 24.1448 8.01835 25.6575 6.04418L26.0521 5.53317C26.0885 5.48674 26.1192 5.43765 26.1465 5.38743C28.4253 4.87095 29.8375 4.18475 30.6848 3.61833C30.8458 3.84221 31.023 4.05444 31.2123 4.25615C30.4926 6.04558 28.7005 9.65489 23.1382 11.6C22.5969 11.7884 22.3123 12.3791 22.5021 12.9191C22.6513 13.3467 23.051 13.6135 23.4798 13.6135C23.5935 13.6135 23.7087 13.5958 23.8212 13.5553C29.7114 11.4955 31.9345 7.78522 32.9068 5.57315C34.0929 6.33271 35.0075 7.09452 35.7103 7.83235C34.9771 9.64212 33.1613 13.2347 27.5862 15.1628C27.0462 15.3499 26.759 15.9393 26.9463 16.4806C27.0943 16.9094 27.4952 17.1775 27.9252 17.1775C28.0377 17.1775 28.1516 17.1598 28.2641 17.1205C33.684 15.2465 36.0191 11.9796 37.1292 9.73344C38.4067 12.0461 37.8171 13.794 37.7787 13.9006C37.6193 14.3166 37.7433 14.7884 38.0873 15.0717C42.7465 18.9102 40.4574 28.1642 39.5126 31.2855C39.4443 30.5646 39.2571 29.8652 38.9549 29.2012C38.6007 28.4247 38.4173 27.6 38.4098 26.7488C38.4035 26.0697 38.411 25.1907 38.4541 24.151C38.5857 21.036 36.4015 19.3123 36.3091 19.2414C36.3065 19.2389 36.304 19.2376 36.3015 19.2351C32.9601 16.7018 24.6421 20.0483 22.946 20.7718L22.7829 20.768C22.7438 20.7566 22.21 20.5985 15.5462 18.5622C13.3253 17.8818 11.4814 17.9349 10.0661 18.7077C8.88866 19.3526 8.04255 20.4922 7.62132 22.0024C7.38861 22.8359 7.31398 23.7451 7.40123 24.7051C7.61122 27.0284 6.94339 28.5334 6.9295 28.5613C6.817 28.8167 5.97594 30.7696 5.9772 32.5186C4.82754 29.9233 4.83638 27.2434 4.83385 27.1333L4.46957 22.574C3.81689 19.5692 3.99013 17.3409 4.96781 16.1318ZM6.36028 44.3579C5.93652 45.1571 5.32073 45.9944 4.9312 46.332C4.83385 46.0753 4.69849 45.558 4.62639 44.5639C4.45569 42.2129 3.98395 40.4637 3.60578 39.0586C3.2314 37.6686 2.96082 36.6632 3.1189 35.6893C3.22509 35.0303 3.62991 34.4814 4.0409 34.4398C4.39944 34.4012 4.77354 34.9579 5.06488 35.6778L5.90524 39.4978C5.90286 39.9939 5.9469 41.684 6.61459 43.3586L6.65303 44.0151C6.53492 44.1041 6.43364 44.2187 6.36028 44.3579ZM36.5555 50.1731C36.4998 52.1853 35.7044 52.8138 35.569 52.92L30.8896 57.1619L27.8074 59.7116C26.8602 60.4957 25.6624 60.9258 24.4343 60.9258H21.4572C20.2392 60.9258 19.0492 60.5009 18.1057 59.7294L17.0206 58.8417C17.0193 58.8417 11.9288 54.5112 10.4845 53.2111C9.36909 52.2107 9.11099 50.5071 9.1072 50.5071L8.67335 43.0642C8.66577 42.9453 8.63926 42.8289 8.59241 42.719C7.97227 41.2629 7.97424 39.6824 7.97831 39.4602C8.06008 38.7665 8.50797 34.7078 8.09796 33.0122C7.87408 32.0864 8.42423 30.307 8.81502 29.423C8.85163 29.3433 9.72818 27.436 9.46504 24.5184C9.40051 23.8102 9.45115 23.1512 9.61681 22.5606C9.88879 21.5855 10.3744 20.9014 11.0612 20.5257C11.9706 20.0288 13.277 20.0363 14.9413 20.5434C22.039 22.7137 22.2186 22.7631 22.4183 22.7971L23.0761 22.8452C23.243 22.8528 23.4124 22.8288 23.568 22.7605C26.9828 21.2619 33.1129 19.4368 35.0441 20.8824C35.0973 20.9268 36.4681 22.0712 36.3847 24.0657C36.3391 25.1484 36.3315 26.0628 36.3378 26.7672C36.3479 27.9118 36.5945 29.021 37.07 30.0619C37.3091 30.5881 37.4432 31.147 37.4646 31.7224C37.5115 32.9858 37.5481 34.7577 37.4571 36.0314C37.428 36.45 37.4545 36.8586 37.5342 37.2468C37.5803 37.4737 37.699 37.671 37.8638 37.8162C37.7151 38.4954 37.5456 39.5042 37.2964 40.9893C37.1623 41.7923 37.0688 42.5968 37.0131 43.4099L36.5555 50.1731ZM42.2734 39.5887C41.7991 41.0064 41.2072 42.7695 40.9163 45.1623C40.7557 46.4852 40.5091 46.9696 40.5179 47.0936C40.1603 46.9032 39.4753 46.0246 38.9739 45.1148L39.08 43.5498C39.1306 42.8035 39.2166 42.0675 39.3405 41.3301C39.6147 39.6956 39.7684 38.7879 39.8529 38.2959C39.9419 38.1764 40.0075 38.0366 40.0386 37.8813C40.0965 37.5919 40.1964 37.2316 40.3284 36.8618C40.4854 36.5932 40.62 36.2812 40.7335 35.9273C41.0685 35.2948 41.4872 34.8106 41.9294 34.8662C42.4226 34.932 42.8628 35.5074 42.9526 36.2017C43.0804 37.1882 42.7413 38.1949 42.2734 39.5887Z" fill="white"/>
<path d="M45.0077 35.9362C44.7927 34.2908 43.6417 33.0058 42.2063 32.8123C41.8348 32.7651 41.4943 32.7899 41.1814 32.8679C41.7629 31.2043 45.602 19.4231 39.9045 13.9186C40.2295 12.1847 40.289 7.66823 33.6567 3.59842C32.8701 3.11532 32.2655 2.42603 31.9114 1.60769C31.766 1.27132 31.4435 1.0525 31.0805 1.00565C30.7162 0.96904 30.3457 1.1246 30.1206 1.41159C30.1067 1.42927 28.6725 3.19359 22.8471 3.84235C22.2426 3.84992 8.38748 4.13706 6.08451 13.1646C5.33953 13.3252 4.26337 13.7337 3.3944 14.7822C1.95634 16.5174 1.63638 19.2871 2.42302 22.8751L2.76444 27.2018C2.76248 27.3349 2.74929 29.7408 3.69878 32.3983C2.39553 32.6001 1.32428 33.7951 1.07221 35.3592C0.843291 36.7719 1.19621 38.0809 1.60468 39.5974C1.97906 40.986 2.40268 42.5606 2.5595 44.7132C2.67593 46.3182 2.99589 48.1988 4.44643 48.5023C4.56159 48.5263 4.67409 48.5377 4.78658 48.5377C5.54671 48.5377 6.25227 48.0159 6.8473 47.341L7.0441 50.7004C7.05799 50.8028 7.38426 53.2133 9.09935 54.7538C10.5526 56.059 15.6772 60.4197 15.6924 60.4323L16.7926 61.3329C18.1057 62.4081 19.7613 63 21.4572 63H24.4343C26.1442 63 27.8112 62.398 29.1278 61.3103L32.2453 58.7303L36.8274 54.5592C37.0031 54.4454 38.5411 53.3603 38.6245 50.2706L38.7569 48.3169C39.288 48.824 39.8966 49.1905 40.5482 49.1905C40.6481 49.1905 40.7493 49.1816 40.8505 49.164C42.377 48.8934 42.7931 46.8938 42.9739 45.4128C43.2394 43.2287 43.7706 41.6452 44.2386 40.2489C44.7523 38.7173 45.1949 37.3957 45.0077 35.9362ZM4.96781 16.1318C5.76581 15.144 6.88012 15.1364 6.91547 15.1364C7.38468 15.0933 7.87535 14.7835 7.964 14.2777C9.36909 6.19862 22.7398 5.91653 22.9751 5.90769C23.0284 5.9018 23.08 5.89549 23.1326 5.88932C21.9995 7.20618 20.7007 8.11864 17.6226 8.3435C17.0523 8.3853 16.6235 8.88101 16.6653 9.45262C16.7045 9.99771 17.1597 10.4125 17.6972 10.4125C17.7225 10.4125 17.7479 10.4125 17.7744 10.41C22.5804 10.0583 24.1448 8.01835 25.6575 6.04418L26.0521 5.53317C26.0885 5.48674 26.1192 5.43765 26.1465 5.38743C28.4253 4.87095 29.8375 4.18475 30.6848 3.61833C30.8458 3.84221 31.023 4.05444 31.2123 4.25615C30.4926 6.04558 28.7005 9.65489 23.1382 11.6C22.5969 11.7884 22.3123 12.3791 22.5021 12.9191C22.6513 13.3467 23.051 13.6135 23.4798 13.6135C23.5935 13.6135 23.7087 13.5958 23.8212 13.5553C29.7114 11.4955 31.9345 7.78522 32.9068 5.57315C34.0929 6.33271 35.0075 7.09452 35.7103 7.83235C34.9771 9.64212 33.1613 13.2347 27.5862 15.1628C27.0462 15.3499 26.759 15.9393 26.9463 16.4806C27.0943 16.9094 27.4952 17.1775 27.9252 17.1775C28.0377 17.1775 28.1516 17.1598 28.2641 17.1205C33.684 15.2465 36.0191 11.9796 37.1292 9.73344C38.4067 12.0461 37.8171 13.794 37.7787 13.9006C37.6193 14.3166 37.7433 14.7884 38.0873 15.0717C42.7465 18.9102 40.4574 28.1642 39.5126 31.2855C39.4443 30.5646 39.2571 29.8652 38.9549 29.2012C38.6007 28.4247 38.4173 27.6 38.4098 26.7488C38.4035 26.0697 38.411 25.1907 38.4541 24.151C38.5857 21.036 36.4015 19.3123 36.3091 19.2414C36.3065 19.2389 36.304 19.2376 36.3015 19.2351C32.9601 16.7018 24.6421 20.0483 22.946 20.7718L22.7829 20.768C22.7438 20.7566 22.21 20.5985 15.5462 18.5622C13.3253 17.8818 11.4814 17.9349 10.0661 18.7077C8.88866 19.3526 8.04255 20.4922 7.62132 22.0024C7.38861 22.8359 7.31398 23.7451 7.40123 24.7051C7.61122 27.0284 6.94339 28.5334 6.9295 28.5613C6.817 28.8167 5.97594 30.7696 5.9772 32.5186C4.82754 29.9233 4.83638 27.2434 4.83385 27.1333L4.46957 22.574C3.81689 19.5692 3.99013 17.3409 4.96781 16.1318ZM6.36028 44.3579C5.93652 45.1571 5.32073 45.9944 4.9312 46.332C4.83385 46.0753 4.69849 45.558 4.62639 44.5639C4.45569 42.2129 3.98395 40.4637 3.60578 39.0586C3.2314 37.6686 2.96082 36.6632 3.1189 35.6893C3.22509 35.0303 3.62991 34.4814 4.0409 34.4398C4.39944 34.4012 4.77354 34.9579 5.06488 35.6778L5.90524 39.4978C5.90286 39.9939 5.9469 41.684 6.61459 43.3586L6.65303 44.0151C6.53492 44.1041 6.43364 44.2187 6.36028 44.3579ZM36.5555 50.1731C36.4998 52.1853 35.7044 52.8138 35.569 52.92L30.8896 57.1619L27.8074 59.7116C26.8602 60.4957 25.6624 60.9258 24.4343 60.9258H21.4572C20.2392 60.9258 19.0492 60.5009 18.1057 59.7294L17.0206 58.8417C17.0193 58.8417 11.9288 54.5112 10.4845 53.2111C9.36909 52.2107 9.11099 50.5071 9.1072 50.5071L8.67335 43.0642C8.66577 42.9453 8.63926 42.8289 8.59241 42.719C7.97227 41.2629 7.97424 39.6824 7.97831 39.4602C8.06008 38.7665 8.50797 34.7078 8.09796 33.0122C7.87408 32.0864 8.42423 30.307 8.81502 29.423C8.85163 29.3433 9.72818 27.436 9.46504 24.5184C9.40051 23.8102 9.45115 23.1512 9.61681 22.5606C9.88879 21.5855 10.3744 20.9014 11.0612 20.5257C11.9706 20.0288 13.277 20.0363 14.9413 20.5434C22.039 22.7137 22.2186 22.7631 22.4183 22.7971L23.0761 22.8452C23.243 22.8528 23.4124 22.8288 23.568 22.7605C26.9828 21.2619 33.1129 19.4368 35.0441 20.8824C35.0973 20.9268 36.4681 22.0712 36.3847 24.0657C36.3391 25.1484 36.3315 26.0628 36.3378 26.7672C36.3479 27.9118 36.5945 29.021 37.07 30.0619C37.3091 30.5881 37.4432 31.147 37.4646 31.7224C37.5115 32.9858 37.5481 34.7577 37.4571 36.0314C37.428 36.45 37.4545 36.8586 37.5342 37.2468C37.5803 37.4737 37.699 37.671 37.8638 37.8162C37.7151 38.4954 37.5456 39.5042 37.2964 40.9893C37.1623 41.7923 37.0688 42.5968 37.0131 43.4099L36.5555 50.1731ZM42.2734 39.5887C41.7991 41.0064 41.2072 42.7695 40.9163 45.1623C40.7557 46.4852 40.5091 46.9696 40.5179 47.0936C40.1603 46.9032 39.4753 46.0246 38.9739 45.1148L39.08 43.5498C39.1306 42.8035 39.2166 42.0675 39.3405 41.3301C39.6147 39.6956 39.7684 38.7879 39.8529 38.2959C39.9419 38.1764 40.0075 38.0366 40.0386 37.8813C40.0965 37.5919 40.1964 37.2316 40.3284 36.8618C40.4854 36.5932 40.62 36.2812 40.7335 35.9273C41.0685 35.2948 41.4872 34.8106 41.9294 34.8662C42.4226 34.932 42.8628 35.5074 42.9526 36.2017C43.0804 37.1882 42.7413 38.1949 42.2734 39.5887Z" stroke="white" mask="url(#path-1-outside-1)"/>
<path d="M12.0463 34.0674L12.0463 34.0674L12.0472 34.0667L13.3525 32.979L13.3527 32.9788C13.5972 32.7746 13.8985 32.6794 14.1931 32.7242L14.1931 32.7243L14.1994 32.7251C15.9668 32.9482 17.1463 33.2205 17.8942 33.436C18.268 33.5437 18.535 33.6375 18.7148 33.7045C18.7758 33.7272 18.8249 33.7461 18.867 33.7623C18.8694 33.7632 18.8718 33.7642 18.8742 33.7651C18.963 34.3884 19.4994 34.8682 20.147 34.8682C20.8567 34.8682 21.4328 34.2921 21.4328 33.5824C21.4328 33.2815 21.3793 32.9505 21.1887 32.6152C20.9989 32.2812 20.6837 31.9616 20.1904 31.6641C19.2125 31.0743 17.4964 30.5486 14.5226 30.1725L14.5225 30.1725C13.5119 30.0448 12.4917 30.3478 11.7068 31.0025C11.7068 31.0026 11.7068 31.0026 11.7067 31.0026L10.3992 32.0914L10.3991 32.0914C9.85405 32.5454 9.78043 33.3569 10.2356 33.9019C10.6902 34.4475 11.4998 34.5184 12.0463 34.0674Z" fill="white" stroke="white" stroke-width="0.5"/>
<path d="M31.7457 32.7251L31.7458 32.7252L31.7511 32.7244C32.0399 32.6815 32.348 32.7754 32.5929 32.9779C32.5931 32.978 32.5932 32.9781 32.5933 32.9782L33.8978 34.0666L33.8986 34.0672C34.4442 34.5188 35.2538 34.4471 35.7093 33.9021C36.1648 33.3571 36.091 32.5455 35.546 32.0915C35.5459 32.0914 35.5459 32.0914 35.5459 32.0914L34.2382 31.0013L34.2378 31.0009C33.4512 30.3483 32.4236 30.042 31.422 30.1726C28.4484 30.5486 26.7324 31.0743 25.7545 31.6641C25.2613 31.9616 24.9461 32.2812 24.7563 32.6152C24.5657 32.9505 24.5122 33.2815 24.5122 33.5824C24.5122 34.2512 25.0215 34.972 25.7702 34.972C26.1078 34.972 26.4221 34.8652 26.6553 34.6566C26.8653 34.4685 26.997 34.2085 27.0233 33.9041C27.027 33.9014 27.0311 33.8985 27.0353 33.8955C27.0796 33.8646 27.1441 33.8257 27.233 33.7805C27.4106 33.6902 27.6757 33.5796 28.0508 33.4598C28.8007 33.2204 29.9773 32.9483 31.7457 32.7251Z" fill="white" stroke="white" stroke-width="0.5"/>
<path d="M35.8151 46.5404L35.8152 46.5404C36.3669 46.7622 36.7754 47.3277 36.6448 47.9623C36.4513 48.9059 35.9103 49.6886 35.0892 50.2211C34.2446 50.7703 33.1073 51.0393 31.8279 51.0393C31.0976 51.0393 30.3144 50.9523 29.5053 50.7742L29.5052 50.7742C29.2219 50.7118 28.9589 50.6237 28.7218 50.526C28.0847 51.5983 26.9191 52.7894 25.1131 52.6935H20.7401L20.7239 52.694L20.7226 52.694C20.7149 52.6943 20.7023 52.6948 20.6894 52.6948C19.0745 52.6948 17.932 51.5734 17.2508 50.4816C16.9549 50.6122 16.6643 50.7098 16.3752 50.774L16.3744 50.7742C14.1553 51.2592 12.1106 51.0805 10.7883 50.2211C9.96715 49.6886 9.42591 48.9059 9.23255 47.9622C9.23254 47.9622 9.23253 47.9621 9.23252 47.9621L9.47744 47.9119C9.3763 47.4213 9.64183 46.9267 10.1073 46.7408L35.8151 46.5404ZM35.8151 46.5404C35.2638 46.319 34.6121 46.5307 34.263 46.9887M35.8151 46.5404L34.263 46.9887M34.263 46.9887C33.8052 47.0554 33.3833 46.8896 32.9491 46.5361C32.4786 46.153 32.023 45.5722 31.5332 44.898C31.3631 44.6624 31.2025 44.4421 31.0548 44.2592L34.263 46.9887ZM29.4558 46.4126C29.8842 47.0034 30.4619 47.7999 31.2139 48.4461C30.8463 48.4132 30.458 48.3497 30.0577 48.2621C29.8051 48.2061 29.5108 48.0812 29.2326 47.9044L29.2323 47.9043C27.648 46.9005 26.4921 46.3508 25.5187 46.054C24.8417 45.8475 24.2591 45.7653 23.692 45.7342C23.7958 45.6589 23.889 45.5678 23.9677 45.4627L23.9678 45.4628L23.9698 45.4599C23.9695 45.4604 23.97 45.4597 23.9715 45.4579C23.9945 45.4292 24.2449 45.1168 24.6477 44.8019C25.0777 44.4659 25.6529 44.1493 26.2917 44.1375L26.2931 44.1375C27.1634 44.1163 28.0758 44.6622 29.0531 45.8746L29.0535 45.875C29.1667 46.0148 29.2907 46.1854 29.4315 46.3792L29.4526 46.4083L29.4527 46.4084L29.4558 46.4126ZM15.8218 48.2621C15.4218 48.3505 15.0348 48.4116 14.6649 48.4436C15.4153 47.798 15.992 47.0029 16.4199 46.4129L16.4232 46.4083L16.4233 46.4081L16.4404 46.3847C16.5827 46.1887 16.7082 46.016 16.8225 45.8748L16.8227 45.8746C17.7806 44.6881 18.704 44.2075 19.5852 44.1376C20.2227 44.1494 20.7967 44.4649 21.2266 44.801C21.6079 45.0991 21.8503 45.3931 21.895 45.4474C21.9011 45.4548 21.9036 45.4578 21.9022 45.4557L21.9066 45.4623L21.9114 45.4686C21.9889 45.5713 22.0804 45.6603 22.1821 45.734C21.6295 45.7646 21.0725 45.8453 20.4144 46.0491C19.465 46.343 18.3165 46.8892 16.6656 47.8903L16.6654 47.8904C16.3314 48.0933 16.0566 48.2105 15.8221 48.2621L15.8218 48.2621ZM25.1576 50.1217H25.1576H25.1575H25.1575H25.1575H25.1574H25.1574H25.1573H25.1573H25.1573H25.1572H25.1572H25.1572H25.1571H25.1571H25.157H25.157H25.157H25.1569H25.1569H25.1569H25.1568H25.1568H25.1567H25.1567H25.1567H25.1566H25.1566H25.1566H25.1565H25.1565H25.1564H25.1564H25.1564H25.1563H25.1563H25.1563H25.1562H25.1562H25.1561H25.1561H25.1561H25.156H25.156H25.1559H25.1559H25.1559H25.1558H25.1558H25.1558H25.1557H25.1557H25.1556H25.1556H25.1556H25.1555H25.1555H25.1555H25.1554H25.1554H25.1553H25.1553H25.1553H25.1552H25.1552H25.1551H25.1551H25.1551H25.155H25.155H25.1549H25.1549H25.1549H25.1548H25.1548H25.1548H25.1547H25.1547H25.1546H25.1546H25.1546H25.1545H25.1545H25.1544H25.1544H25.1544H25.1543H25.1543H25.1542H25.1542H25.1542H25.1541H25.1541H25.154H25.154H25.154H25.1539H25.1539H25.1538H25.1538H25.1538H25.1537H25.1537H25.1537H25.1536H25.1536H25.1535H25.1535H25.1535H25.1534H25.1534H25.1533H25.1533H25.1533H25.1532H25.1532H25.1531H25.1531H25.1531H25.153H25.153H25.1529H25.1529H25.1529H25.1528H25.1528H25.1527H25.1527H25.1527H25.1526H25.1526H25.1525H25.1525H25.1525H25.1524H25.1524H25.1523H25.1523H25.1522H25.1522H25.1522H25.1521H25.1521H25.152H25.152H25.152H25.1519H25.1519H25.1518H25.1518H25.1518H25.1517H25.1517H25.1516H25.1516H25.1516H25.1515H25.1515H25.1514H25.1514H25.1514H25.1513H25.1513H25.1512H25.1512H25.1511H25.1511H25.1511H25.151H25.151H25.1509H25.1509H25.1509H25.1508H25.1508H25.1507H25.1507H25.1507H25.1506H25.1506H25.1505H25.1505H25.1505H25.1504H25.1504H25.1503H25.1503H25.1502H25.1502H25.1502H25.1501H25.1501H25.15H25.15H25.15H25.1499H25.1499H25.1498H25.1498H25.1497H25.1497H25.1497H25.1496H25.1496H25.1495H25.1495H25.1495H25.1494H25.1494H25.1493H25.1493H25.1492H25.1492H25.1492H25.1491H25.1491H25.149H25.149H25.149H25.1489H25.1489H25.1488H25.1488H25.1487H25.1487H25.1487H25.1486H25.1486H25.1485H25.1485H25.1484H25.1484H25.1484H25.1483H25.1483H25.1482H25.1482H25.1482H25.1481H25.1481H25.148H25.148H25.1479H25.1479H25.1479H25.1478H25.1478H25.1477H25.1477H25.1476H25.1476H25.1476H25.1475H25.1475H25.1474H25.1474H25.1473H25.1473H25.1473H25.1472H25.1472H25.1471H25.1471H25.147H25.147H25.147H25.1469H25.1469H25.1468H25.1468H25.1467H25.1467H25.1467H25.1466H25.1466H25.1465H25.1465H25.1465H25.1464H25.1464H25.1463H25.1463H25.1462H25.1462H25.1461H25.1461H25.1461H25.146H25.146H25.1459H25.1459H25.1458H25.1458H25.1458H25.1457H25.1457H25.1456H25.1456H25.1455H25.1455H25.1455H25.1454H25.1454H25.1453H25.1453H25.1452H25.1452H25.1452H25.1451H25.1451H25.145H25.145H25.1449H25.1449H25.1449H25.1448H25.1448H25.1447H25.1447H25.1446H25.1446H25.1446H25.1445H25.1445H25.1444H25.1444H25.1443H25.1443H25.1442H25.1442H25.1442H25.1441H25.1441H25.144H25.144H25.1439H25.1439H25.1439H25.1438H25.1438H25.1437H25.1437H25.1436H25.1436H25.1436H25.1435H25.1435H25.1434H25.1434H25.1433H25.1433H25.1432H25.1432H25.1432H25.1431H25.1431H25.143H25.143H25.1429H25.1429H25.1429H25.1428H25.1428H25.1427H25.1427H25.1426H25.1426H25.1425H25.1425H25.1425H25.1424H25.1424H25.1423H25.1423H25.1422H25.1422H25.1422H25.1421H25.1421H25.142H25.142H25.1419H25.1419H25.1418H25.1418H25.1418H25.1417H25.1417H25.1416H25.1416H25.1415H25.1415H25.1415H25.1414H25.1414H25.1413H25.1413H25.1412H25.1412H25.1411H25.1411H25.1411H25.141H25.141H25.1409H25.1409H25.1408H25.1408H25.1407H25.1407H25.1407H25.1406H25.1406H25.1405H25.1405H25.1404H25.1404H25.1403H25.1403H25.1403H25.1402H25.1402H25.1401H25.1401H25.14H25.14H25.14H25.1399H25.1399H25.1398H25.1398H25.1397H25.1397H25.1396H25.1396H25.1396H25.1395H25.1395H25.1394H25.1394H25.1393H25.1393H25.1392H25.1392H25.1392H25.1391H25.1391H25.139H25.139H25.1389H25.1389H25.1388H25.1388H25.1388H25.1387H25.1387H25.1386H25.1386H25.1385H25.1385H25.1384H25.1384H25.1384H25.1383H25.1383H25.1382H25.1382H25.1381H25.1381H25.138H25.138H25.138H25.1379H25.1379H25.1378H25.1378H25.1377H25.1377H25.1376H25.1376H25.1376H25.1375H25.1375H25.1374H25.1374H25.1373H25.1373H25.1372H25.1372H25.1372H25.1371H25.1371H25.137H25.137H25.1369H25.1369H25.1369H25.1368H25.1368H25.1367H25.1367H25.1366H25.1366H25.1365H25.1365H25.1365H25.1364H25.1364H25.1363H25.1363H25.1362H25.1362H25.1361H20.7235H20.7235H20.7234H20.7234H20.7234H20.7234H20.7233H20.7233H20.7233H20.7232H20.7232H20.7232H20.7231H20.7231H20.7231H20.7231H20.723H20.723H20.723H20.7229H20.7229H20.7229H20.7228H20.7228H20.7228H20.7228H20.7227H20.7227H20.7227H20.7226H20.7226H20.7226H20.7225H20.7225H20.7225H20.7225H20.7224H20.7224H20.7224H20.7223H20.7223H20.7223H20.7222H20.7222H20.7222H20.7221H20.7221H20.7221H20.7221H20.722H20.722H20.722H20.7219H20.7219H20.7219H20.7218H20.7218H20.7218H20.7217H20.7217H20.7217H20.7217H20.7216H20.7216H20.7216H20.7215H20.7215H20.7215H20.7214H20.7214H20.7214H20.7213H20.7213H20.7213H20.7212H20.7212H20.7212H20.7211H20.7211H20.7211H20.7211H20.721H20.721H20.721H20.7209H20.7209H20.7209H20.7208H20.7208H20.7208H20.7207H20.7207H20.7207H20.7206H20.7206H20.7206H20.7205H20.7205H20.7205H20.7205H20.7204H20.7204H20.7204H20.7203H20.7203H20.7203H20.7202H20.7202H20.7202H20.7201H20.7201H20.7201H20.72H20.72H20.72H20.7199H20.7199H20.7199H20.7198H20.7198H20.7198H20.7197H20.7197H20.7197H20.7196H20.7196H20.7196H20.7196H20.7195H20.7195H20.7195H20.7194H20.7194H20.7194H20.7193H20.7193H20.7193H20.7192H20.7192H20.7192H20.7191H20.7191H20.7191H20.719H20.719H20.719H20.7189H20.7189H20.7189H20.7188H20.7188H20.7188H20.7187H20.7187H20.7187H20.7186H20.7186H20.7186H20.7185H20.7185H20.7185H20.7184H20.7184H20.7184H20.7183H20.7183H20.7183H20.7182H20.7182H20.7182H20.7181H20.7181H20.7181H20.7181H20.718H20.718H20.718H20.7179H20.7179H20.7179H20.7178H20.7178H20.7178H20.7177H20.7177H20.7177H20.7176H20.7176H20.7176H20.7175H20.7175H20.7175H20.7174H20.7174H20.7174H20.7173H20.7173H20.7173H20.7172H20.7172H20.7172H20.7171H20.7171H20.7171H20.717H20.717H20.717H20.7169H20.7169H20.7169H20.7168H20.7168H20.7168H20.7167H20.7167H20.7167H20.7166H20.7166H20.7166H20.7165H20.7165H20.7165H20.7164H20.7164H20.7164H20.7163H20.7163H20.7163H20.7162H20.7162H20.7162H20.7161H20.7161H20.7161H20.716H20.716H20.716H20.7159H20.7159H20.7159H20.7158H20.7158H20.7158H20.7157H20.7157H20.7157H20.7156H20.7156H20.7156H20.7155H20.7155H20.7155H20.7154H20.7154H20.7154H20.7153H20.7153H20.7153H20.7152H20.7152H20.7152H20.7151H20.7151H20.7151H20.715H20.715H20.715H20.7149H20.7149H20.7149H20.7148H20.7148H20.7148H20.7147H20.7147H20.7147H20.7146H20.7146H20.7146H20.7145H20.7145H20.7145H20.7144H20.7144H20.7144H20.7143H20.7143H20.7143H20.7142H20.7142H20.7142H20.7141H20.7141H20.7141H20.714H20.714H20.714H20.7139H20.7139H20.7139H20.7138H20.7138H20.7138H20.7137H20.7137H20.7137H20.7136H20.7136H20.7136H20.7135H20.7135H20.7135H20.7134H20.7134H20.7134H20.7133H20.7133H20.7133H20.7132H20.7132H20.7132H20.7131H20.7131H20.7131H20.713H20.713H20.713H20.7129H20.7129H20.7129H20.7128H20.7128H20.7128H20.7127H20.7127H20.7127H20.7126H20.7126H20.7126H20.7125H20.7125H20.7125H20.7124H20.7124H20.7124H20.7123H20.7123H20.7123H20.7122H20.7122H20.7122H20.7122H20.7121H20.7121H20.7121H20.712H20.712H20.712H20.7119H20.7119H20.7119H20.7118H20.7118H20.7118H20.7117H20.7117H20.7117H20.7116H20.7116H20.7116H20.7115H20.7115H20.7115H20.7114H20.7114H20.7114H20.7113H20.7113H20.7113H20.7112H20.7112H20.7112H20.7111H20.7111H20.7111H20.711H20.711H20.711H20.7109H20.7109H20.7109H20.7108H20.7108H20.7108H20.7108H20.7107H20.7107H20.7107H20.7106H20.7106H20.7106H20.7105H20.7105H20.7105H20.7104H20.7104H20.7104H20.7103H20.7103H20.7103H20.7102H20.7102H20.7102H20.7101H20.7101H20.7101H20.71H20.71H20.71H20.71H20.7099H20.7099H20.7099H20.7098H20.7098H20.7098H20.7097H20.7097H20.7097H20.7096H20.7096H20.7096H20.7095H20.7095H20.7095H20.7094H20.7094H20.7094H20.7094H20.7093H20.7093H20.7093H20.7092H20.7092H20.7092H20.7091H20.7091H20.7091H20.709H20.709H20.709H20.7089H20.7089H20.7089H20.7089H20.7088H20.7088H20.7088H20.7087H20.7087H20.7087H20.7086H20.7086H20.7086H20.7085H20.7085H20.7085H20.7085H20.7084H20.7084H20.7084H20.7083H20.7083H20.7083H20.7082H20.7082H20.7082H20.7081H20.7081H20.7081H20.7081H20.708H20.708H20.708H20.7079H20.7079H20.7079H20.7078H20.7078H20.7078H20.7077H20.7077H20.7077H20.7077H20.7076H20.7076H20.7076H20.7075H20.7075H20.7075H20.7074H20.7074H20.7074H20.7074H20.7073H20.7073H20.7073H20.7072H20.7072H20.7072H20.7072H20.7071H20.7071C20.4446 50.1217 20.1958 49.9951 19.9623 49.7802C19.7915 49.6231 19.6395 49.4281 19.5094 49.2284C20.3835 48.7701 20.9948 48.5378 21.4911 48.4183C22.0273 48.2891 22.4406 48.2883 22.9381 48.2883C23.4315 48.2883 23.8711 48.2891 24.433 48.4219C24.9521 48.5445 25.5856 48.7826 26.4567 49.2513C26.3403 49.4262 26.1952 49.6081 26.0226 49.7604C25.7781 49.976 25.4912 50.1217 25.1576 50.1217Z" fill="white" stroke="white" stroke-width="0.5"/>
<path d="M25.4004 54.284H20.1114L19.0611 54.8299C18.8194 55.172 18.7596 55.6085 18.8994 56.0013C18.8994 56.0013 18.8994 56.0014 18.8994 56.0014L19.4279 57.4882C19.428 57.4883 19.428 57.4884 19.428 57.4884C19.6101 58.003 20.0953 58.3454 20.64 58.3454H24.8719C25.4166 58.3454 25.9018 58.0031 26.0839 57.4885C26.0839 57.4884 26.084 57.4883 26.084 57.4882L26.6125 56.0014C26.6125 56.0014 26.6125 56.0013 26.6125 56.0013C26.7522 55.6087 26.6926 55.1721 26.4511 54.8302C26.2107 54.488 25.8183 54.284 25.4004 54.284Z" fill="white" stroke="white" stroke-width="0.5"/>
</svg>
