<svg width="28" height="28" viewBox="0 0 28 28" fill="none" xmlns="http://www.w3.org/2000/svg">
<path fill-rule="evenodd" clip-rule="evenodd" d="M7.58334 12.8333C4.68385 12.8333 2.33334 10.4828 2.33334 7.58331C2.33334 4.68382 4.68385 2.33331 7.58334 2.33331C10.4828 2.33331 12.8333 4.68382 12.8333 7.58331C12.8333 10.4828 10.4828 12.8333 7.58334 12.8333ZM2.33334 20.4166C2.33334 23.3161 4.68385 25.6666 7.58334 25.6666C10.4828 25.6666 12.8333 23.3161 12.8333 20.4166C12.8333 17.5172 10.4828 15.1666 7.58334 15.1666C4.68385 15.1666 2.33334 17.5172 2.33334 20.4166ZM15.1667 20.4166C15.1667 23.3161 17.5172 25.6666 20.4167 25.6666C23.3162 25.6666 25.6667 23.3161 25.6667 20.4166C25.6667 17.5172 23.3162 15.1666 20.4167 15.1666C17.5172 15.1666 15.1667 17.5172 15.1667 20.4166ZM15.1667 7.58331C15.1667 10.4828 17.5172 12.8333 20.4167 12.8333C23.3162 12.8333 25.6667 10.4828 25.6667 7.58331C25.6667 4.68382 23.3162 2.33331 20.4167 2.33331C17.5172 2.33331 15.1667 4.68382 15.1667 7.58331ZM20.4167 10.5C22.0275 10.5 23.3333 9.19414 23.3333 7.58331C23.3333 5.97248 22.0275 4.66665 20.4167 4.66665C18.8058 4.66665 17.5 5.97248 17.5 7.58331C17.5 9.19414 18.8058 10.5 20.4167 10.5ZM10.5 7.58331C10.5 9.19414 9.19417 10.5 7.58334 10.5C5.97251 10.5 4.66668 9.19414 4.66668 7.58331C4.66668 5.97248 5.97251 4.66665 7.58334 4.66665C9.19417 4.66665 10.5 5.97248 10.5 7.58331ZM20.4167 23.3333C22.0275 23.3333 23.3333 22.0275 23.3333 20.4166C23.3333 18.8058 22.0275 17.5 20.4167 17.5C18.8058 17.5 17.5 18.8058 17.5 20.4166C17.5 22.0275 18.8058 23.3333 20.4167 23.3333ZM10.5 20.4166C10.5 22.0275 9.19417 23.3333 7.58334 23.3333C5.97251 23.3333 4.66668 22.0275 4.66668 20.4166C4.66668 18.8058 5.97251 17.5 7.58334 17.5C9.19417 17.5 10.5 18.8058 10.5 20.4166Z" fill="#435565"/>
</svg>
