<svg width="28" height="28" viewBox="0 0 28 28" fill="none" xmlns="http://www.w3.org/2000/svg">
<path fill-rule="evenodd" clip-rule="evenodd" d="M14 26.8333C6.91234 26.8333 1.16666 21.0876 1.16666 14C1.16666 6.9123 6.91234 1.16663 14 1.16663C21.0876 1.16663 26.8333 6.9123 26.8333 14C26.8333 21.0876 21.0876 26.8333 14 26.8333ZM22.6327 19.9787C23.81 18.282 24.5 16.2216 24.5 14C24.5 8.20097 19.799 3.49996 14 3.49996C8.201 3.49996 3.49999 8.20097 3.49999 14C3.49999 16.2216 4.18994 18.282 5.36725 19.9787C6.68027 18.2444 9.76569 17.5 14 17.5C18.2343 17.5 21.3197 18.2444 22.6327 19.9787ZM20.9588 21.863C20.6173 20.6352 18.1643 19.8333 14 19.8333C9.83571 19.8333 7.38266 20.6352 7.0412 21.863C8.89384 23.5038 11.3306 24.5 14 24.5C16.6694 24.5 19.1061 23.5038 20.9588 21.863ZM14 6.99996C11.1756 6.99996 9.33332 9.04835 9.33332 11.6666C9.33332 15.6652 11.3877 17.5 14 17.5C16.5878 17.5 18.6667 15.7262 18.6667 11.9C18.6667 9.2418 16.8166 6.99996 14 6.99996ZM11.6667 11.6666C11.6667 14.3141 12.6212 15.1666 14 15.1666C15.374 15.1666 16.3333 14.3481 16.3333 11.9C16.3333 10.4421 15.4183 9.33329 14 9.33329C12.5227 9.33329 11.6667 10.2851 11.6667 11.6666Z" fill="#435565"/>
</svg>
