<svg width="154" height="154" viewBox="0 0 154 154" fill="none" xmlns="http://www.w3.org/2000/svg">
<path d="M85.26 67.424L77 42L68.74 67.424L42 68.74L63.63 80.248L55.37 112L77 91.91L98.63 112L90.37 80.248L112 68.74L85.26 67.424Z" fill="white"/>
<path d="M84 21V7C84 5.14348 83.2625 3.36301 81.9497 2.05025C80.637 0.737498 78.8565 0 77 0C75.1435 0 73.363 0.737498 72.0503 2.05025C70.7375 3.36301 70 5.14348 70 7V21C70 22.8565 70.7375 24.637 72.0503 25.9497C73.363 27.2625 75.1435 28 77 28C78.8565 28 80.637 27.2625 81.9497 25.9497C83.2625 24.637 84 22.8565 84 21ZM70 133V147C70 148.857 70.7375 150.637 72.0503 151.95C73.363 153.263 75.1435 154 77 154C78.8565 154 80.637 153.263 81.9497 151.95C83.2625 150.637 84 148.857 84 147V133C84 131.143 83.2625 129.363 81.9497 128.05C80.637 126.737 78.8565 126 77 126C75.1435 126 73.363 126.737 72.0503 128.05C70.7375 129.363 70 131.143 70 133ZM131.446 22.554C130.133 21.2417 128.353 20.5045 126.497 20.5045C124.641 20.5045 122.861 21.2417 121.548 22.554L111.65 32.452C110.981 33.0977 110.448 33.8701 110.081 34.7242C109.714 35.5782 109.521 36.4967 109.513 37.4262C109.505 38.3556 109.682 39.2774 110.034 40.1377C110.386 40.998 110.906 41.7795 111.563 42.4368C112.22 43.094 113.002 43.6138 113.862 43.9658C114.723 44.3177 115.644 44.4948 116.574 44.4868C117.503 44.4787 118.422 44.2856 119.276 43.9187C120.13 43.5518 120.902 43.0186 121.548 42.35L131.446 32.452C132.758 31.1393 133.495 29.3591 133.495 27.503C133.495 25.6469 132.758 23.8667 131.446 22.554V22.554ZM22.554 131.446C23.8667 132.758 25.6469 133.495 27.503 133.495C29.3591 133.495 31.1393 132.758 32.452 131.446L42.35 121.548C43.6251 120.228 44.3307 118.46 44.3147 116.624C44.2988 114.789 43.5626 113.033 42.2647 111.735C40.9669 110.437 39.2112 109.701 37.3758 109.685C35.5404 109.669 33.7722 110.375 32.452 111.65L22.554 121.548C21.2417 122.861 20.5045 124.641 20.5045 126.497C20.5045 128.353 21.2417 130.133 22.554 131.446V131.446ZM147 70H133C131.143 70 129.363 70.7375 128.05 72.0503C126.737 73.363 126 75.1435 126 77C126 78.8565 126.737 80.637 128.05 81.9497C129.363 83.2625 131.143 84 133 84H147C148.857 84 150.637 83.2625 151.95 81.9497C153.263 80.637 154 78.8565 154 77C154 75.1435 153.263 73.363 151.95 72.0503C150.637 70.7375 148.857 70 147 70ZM7 84H21C22.8565 84 24.637 83.2625 25.9497 81.9497C27.2625 80.637 28 78.8565 28 77C28 75.1435 27.2625 73.363 25.9497 72.0503C24.637 70.7375 22.8565 70 21 70H7C5.14348 70 3.36301 70.7375 2.05025 72.0503C0.737498 73.363 0 75.1435 0 77C0 78.8565 0.737498 80.637 2.05025 81.9497C3.36301 83.2625 5.14348 84 7 84V84ZM121.548 131.446C122.868 132.721 124.636 133.427 126.472 133.411C128.307 133.395 130.063 132.659 131.361 131.361C132.659 130.063 133.395 128.307 133.411 126.472C133.427 124.636 132.721 122.868 131.446 121.548L121.548 111.65C120.228 110.375 118.46 109.669 116.624 109.685C114.789 109.701 113.033 110.437 111.735 111.735C110.437 113.033 109.701 114.789 109.685 116.624C109.669 118.46 110.375 120.228 111.65 121.548L121.548 131.446ZM42.35 42.35C43.6623 41.0373 44.3995 39.2571 44.3995 37.401C44.3995 35.5449 43.6623 33.7647 42.35 32.452L32.452 22.554C31.1318 21.2789 29.3636 20.5733 27.5282 20.5893C25.6928 20.6052 23.9371 21.3414 22.6393 22.6393C21.3414 23.9371 20.6052 25.6928 20.5893 27.5282C20.5733 29.3636 21.2789 31.1318 22.554 32.452L32.452 42.35C33.7647 43.6623 35.5449 44.3995 37.401 44.3995C39.2571 44.3995 41.0373 43.6623 42.35 42.35V42.35Z" fill="white"/>
</svg>
