<svg width="32" height="32" viewBox="0 0 32 32" fill="none" xmlns="http://www.w3.org/2000/svg">
<rect x="1" y="1" width="30" height="30" rx="15" stroke="white" stroke-width="2"/>
<path d="M19.04 13.64C19.04 14.0027 18.9813 14.312 18.864 14.568C18.7573 14.8134 18.6187 15.0374 18.448 15.24C18.288 15.4427 18.1067 15.6294 17.904 15.8C17.712 15.9707 17.5307 16.1574 17.36 16.36C17.1893 16.5627 17.04 16.792 16.912 17.048C16.7947 17.2934 16.7307 17.5974 16.72 17.96H14.48C14.48 17.512 14.5333 17.128 14.64 16.808C14.7467 16.4774 14.88 16.1947 15.04 15.96C15.2 15.7254 15.3707 15.5227 15.552 15.352C15.744 15.1814 15.92 15.0214 16.08 14.872C16.24 14.712 16.3733 14.5574 16.48 14.408C16.5867 14.2587 16.64 14.0827 16.64 13.88C16.64 13.6027 16.544 13.3734 16.352 13.192C16.1707 13.0107 15.92 12.92 15.6 12.92C15.3227 12.92 15.0773 13.0374 14.864 13.272C14.6613 13.496 14.56 13.832 14.56 14.28L12.24 14.12C12.3253 13.1174 12.6613 12.3227 13.248 11.736C13.8453 11.1387 14.6293 10.84 15.6 10.84C16.144 10.84 16.624 10.9147 17.04 11.064C17.4667 11.2134 17.8293 11.416 18.128 11.672C18.4267 11.928 18.6507 12.2267 18.8 12.568C18.96 12.8987 19.04 13.256 19.04 13.64ZM14.48 19.88C14.48 19.56 14.5973 19.2827 14.832 19.048C15.0773 18.8027 15.36 18.68 15.68 18.68C16 18.68 16.2773 18.8027 16.512 19.048C16.7573 19.2827 16.88 19.56 16.88 19.88C16.88 20.2 16.7573 20.4827 16.512 20.728C16.2773 20.9627 16 21.08 15.68 21.08C15.36 21.08 15.0773 20.9627 14.832 20.728C14.5973 20.4827 14.48 20.2 14.48 19.88Z" fill="white"/>
</svg>
