<svg width="36" height="36" viewBox="0 0 36 36" fill="none" xmlns="http://www.w3.org/2000/svg">
<g clip-path="url(#clip0)">
<path d="M16.4527 3.06521C16.7789 2.57583 16.6419 1.91419 16.1481 1.59469L13.9452 0.169317C13.4609 -0.144066 12.8147 -0.0101911 12.4947 0.469762L9.76697 4.56125L14.0332 6.69432L16.4527 3.06521Z" fill="white"/>
<path d="M20.2002 9.77814L22.1972 6.78262C22.5234 6.29324 22.3864 5.6316 21.8926 5.3121L19.6897 3.88672C19.2054 3.57334 18.5591 3.70722 18.2392 4.18717L15.934 7.645L20.2002 9.77814Z" fill="white"/>
<path d="M20.6797 15.0855L22.6112 15.9439C23.0807 16.1525 23.6322 15.9926 23.9171 15.5651L27.4895 10.2065C27.8157 9.71717 27.6787 9.05553 27.1849 8.73603L25.4356 7.60407C24.9513 7.29069 24.305 7.42456 23.9851 7.90452L20.2304 13.5366C19.8678 14.0806 20.0823 14.82 20.6797 15.0855Z" fill="white"/>
<path d="M32.4763 12.16L30.727 11.0281C30.2427 10.7148 29.5964 10.8486 29.2764 11.3286L26.0732 16.1335C25.7106 16.6774 25.925 17.4168 26.5224 17.6823L28.454 18.5408C28.9235 18.7494 29.4749 18.5895 29.7599 18.162L32.7809 13.6305C33.1071 13.1412 32.9701 12.4796 32.4763 12.16Z" fill="white"/>
<path d="M28.8819 20.7412C28.8817 20.7412 28.8818 20.7412 28.8817 20.7412C28.4366 20.7412 28.0044 20.6494 27.5971 20.4683L17.741 16.0879H17.0745L21.5051 24.9491C21.7732 25.4852 21.5418 26.1404 20.9873 26.3857C20.468 26.6156 19.8591 26.3737 19.6051 25.8658L14.7162 16.0879H10.2041C9.63616 16.0879 9.14749 15.6515 9.12077 15.0842C9.09222 14.4785 9.57485 13.9785 10.1743 13.9785H16.8359C17.1886 13.9785 17.5179 13.8023 17.7135 13.5089L18.3588 12.5409C18.7107 12.0131 18.5203 11.2963 17.9529 11.0126L9.42044 6.74634C8.94471 6.50848 8.36625 6.66211 8.07121 7.10466L3.21818 14.3843C2.97138 14.7544 2.9834 15.2397 3.2482 15.5971L11.0217 26.0913C11.2095 26.3448 11.2739 26.6689 11.1974 26.9749L9.26878 34.6894C9.10235 35.3551 9.60585 35.9999 10.292 35.9999H26.243C26.8255 35.9999 27.2977 35.5277 27.2977 34.9452V29.3159C27.2977 28.9639 27.4733 28.6351 27.7659 28.4394C27.7659 28.4394 28.0305 28.2624 28.4219 28.0014C30.1571 26.8447 31.193 24.9091 31.193 22.8237V19.7367C30.6 20.3724 29.768 20.7412 28.8819 20.7412Z" fill="white"/>
</g>
<defs>
<clipPath id="clip0">
<rect width="36" height="36" fill="white"/>
</clipPath>
</defs>
</svg>
