<svg width="28" height="28" viewBox="0 0 28 28" fill="none" xmlns="http://www.w3.org/2000/svg">
<path d="M25.2706 11.9584L14.7706 2.62503C14.5577 2.43799 14.284 2.33484 14.0006 2.33484C13.7172 2.33484 13.4435 2.43799 13.2306 2.62503L2.73059 11.9584C2.55213 12.1162 2.42628 12.3249 2.36997 12.5565C2.31366 12.788 2.32957 13.0312 2.41559 13.2534C2.50019 13.4726 2.64904 13.6612 2.84264 13.7944C3.03625 13.9277 3.26557 13.9993 3.50059 14H4.66725V24.5C4.66725 24.8094 4.79017 25.1062 5.00896 25.325C5.22775 25.5438 5.5245 25.6667 5.83392 25.6667H22.1672C22.4767 25.6667 22.7734 25.5438 22.9922 25.325C23.211 25.1062 23.3339 24.8094 23.3339 24.5V14H24.5006C24.7356 13.9993 24.9649 13.9277 25.1585 13.7944C25.3521 13.6612 25.501 13.4726 25.5856 13.2534C25.6716 13.0312 25.6875 12.788 25.6312 12.5565C25.5749 12.3249 25.449 12.1162 25.2706 11.9584ZM15.1673 23.3334H12.8339V19.8334C12.8339 19.5239 12.9568 19.2272 13.1756 19.0084C13.3944 18.7896 13.6912 18.6667 14.0006 18.6667C14.31 18.6667 14.6068 18.7896 14.8255 19.0084C15.0443 19.2272 15.1673 19.5239 15.1673 19.8334V23.3334ZM21.0006 23.3334H17.5006V19.8334C17.5006 18.9051 17.1318 18.0149 16.4755 17.3585C15.8191 16.7021 14.9288 16.3334 14.0006 16.3334C13.0723 16.3334 12.1821 16.7021 11.5257 17.3585C10.8693 18.0149 10.5006 18.9051 10.5006 19.8334V23.3334H7.00059V14H21.0006V23.3334ZM6.56892 11.6667L14.0006 5.06336L21.4323 11.6667H6.56892Z" fill="#435565"/>
</svg>
