<svg width="105" height="26" viewBox="0 0 105 26" fill="none" xmlns="http://www.w3.org/2000/svg">
<rect width="26" height="26" rx="2" fill="url(#paint0_radial_60_59926)"/>
<g clip-path="url(#clip0_60_59926)">
<path d="M13 11.3125C11.5862 11.3125 10.436 12.4628 10.436 13.8765C10.436 14.6466 10.7778 15.338 11.317 15.8083C9.82166 16.422 8.76562 17.8936 8.76562 19.6074V21H17.2344V19.6074C17.2344 17.8936 16.1783 16.422 14.6829 15.8083C15.2222 15.338 15.564 14.6466 15.564 13.8765C15.564 12.4628 14.4138 11.3125 13 11.3125Z" fill="white"/>
<path d="M9.49854 13.8765C9.49854 12.1809 10.71 10.7632 12.3126 10.4429C11.9208 10.038 11.4467 9.71313 10.9172 9.49585C11.4565 9.02551 11.7983 8.33411 11.7983 7.56396C11.7983 6.15027 10.6482 5 9.23438 5C7.82056 5 6.67041 6.15027 6.67041 7.56396C6.67041 8.33411 7.01221 9.02551 7.55139 9.49585C6.05603 10.1095 5 11.5811 5 13.2949V14.6875H9.59448C9.53149 14.4241 9.49854 14.1521 9.49854 13.8765Z" fill="white"/>
<path d="M18.4486 9.49585C18.9879 9.02551 19.3297 8.33411 19.3297 7.56396C19.3297 6.15027 18.1796 5 16.7657 5C15.3519 5 14.2018 6.15027 14.2018 7.56396C14.2018 8.33411 14.5436 9.02551 15.0828 9.49585C14.5535 9.71313 14.0793 10.038 13.6875 10.4429C15.2902 10.7632 16.5016 12.1809 16.5016 13.8765C16.5016 14.1521 16.4686 14.4241 16.4056 14.6875H21.0001V13.2949C21.0001 11.5811 19.9441 10.1095 18.4486 9.49585Z" fill="white"/>
</g>
<rect x="31" width="74" height="26" rx="1" fill="url(#paint1_radial_60_59926)" fill-opacity="0.25"/>
<path d="M54.15 9.124H49.6V12.736H53.94V13.66H49.6V18H48.62V8.2H54.15V9.124ZM61.7051 11H62.6291V18H61.7051V16.628C61.0611 17.6547 60.1184 18.168 58.8771 18.168C57.8784 18.168 57.0244 17.8133 56.3151 17.104C55.6151 16.3947 55.2651 15.5267 55.2651 14.5C55.2651 13.4733 55.6151 12.6053 56.3151 11.896C57.0244 11.1867 57.8784 10.832 58.8771 10.832C60.1184 10.832 61.0611 11.3453 61.7051 12.372V11ZM56.9871 16.474C57.5191 17.006 58.1724 17.272 58.9471 17.272C59.7217 17.272 60.3751 17.006 60.9071 16.474C61.4391 15.9327 61.7051 15.2747 61.7051 14.5C61.7051 13.7253 61.4391 13.072 60.9071 12.54C60.3751 11.9987 59.7217 11.728 58.9471 11.728C58.1724 11.728 57.5191 11.9987 56.9871 12.54C56.4551 13.072 56.1891 13.7253 56.1891 14.5C56.1891 15.2747 56.4551 15.9327 56.9871 16.474ZM72.0475 10.832C72.8315 10.832 73.4615 11.084 73.9375 11.588C74.4228 12.092 74.6655 12.7733 74.6655 13.632V18H73.7415V13.632C73.7415 13.0253 73.5828 12.5587 73.2655 12.232C72.9575 11.896 72.5468 11.728 72.0335 11.728C71.4548 11.728 70.9835 11.924 70.6195 12.316C70.2648 12.6987 70.0875 13.3007 70.0875 14.122V18H69.1635V13.632C69.1635 13.016 69.0141 12.5447 68.7155 12.218C68.4261 11.8913 68.0295 11.728 67.5255 11.728C66.9655 11.728 66.4895 11.924 66.0975 12.316C65.7055 12.708 65.5095 13.31 65.5095 14.122V18H64.5855V11H65.5095V12.022C66.0135 11.2287 66.7275 10.832 67.6515 10.832C68.6595 10.832 69.3688 11.2567 69.7795 12.106C70.2835 11.2567 71.0395 10.832 72.0475 10.832ZM77.3907 9.32C77.26 9.45067 77.1013 9.516 76.9147 9.516C76.728 9.516 76.5693 9.45067 76.4387 9.32C76.308 9.18933 76.2427 9.03067 76.2427 8.844C76.2427 8.65733 76.308 8.49867 76.4387 8.368C76.5693 8.23733 76.728 8.172 76.9147 8.172C77.1013 8.172 77.26 8.23733 77.3907 8.368C77.5213 8.49867 77.5867 8.65733 77.5867 8.844C77.5867 9.03067 77.5213 9.18933 77.3907 9.32ZM76.4527 18V11H77.3767V18H76.4527ZM79.3374 18V7.78H80.2614V18H79.3374ZM87.2622 11H88.2422L85.2462 18.644C84.9755 19.3347 84.5882 19.876 84.0842 20.268C83.5895 20.6693 83.0342 20.8467 82.4182 20.8V19.932C83.2582 20.0253 83.8975 19.54 84.3362 18.476L84.5182 18.042L81.3822 11H82.3622L84.9942 16.866L87.2622 11Z" fill="white"/>
<defs>
<radialGradient id="paint0_radial_60_59926" cx="0" cy="0" r="1" gradientUnits="userSpaceOnUse" gradientTransform="translate(13 13) rotate(90) scale(25)">
<stop stop-color="#5F61DF"/>
<stop offset="1" stop-color="#745FDF" stop-opacity="0"/>
</radialGradient>
<radialGradient id="paint1_radial_60_59926" cx="0" cy="0" r="1" gradientUnits="userSpaceOnUse" gradientTransform="translate(68 13) rotate(90) scale(25 71.1538)">
<stop stop-color="white"/>
<stop offset="1" stop-color="white" stop-opacity="0"/>
</radialGradient>
<clipPath id="clip0_60_59926">
<rect width="16" height="16" fill="white" transform="translate(5 5)"/>
</clipPath>
</defs>
</svg>
