<svg width="24" height="24" viewBox="0 0 24 24" fill="none" xmlns="http://www.w3.org/2000/svg">
<path d="M14.2118 7.54944L14.2118 7.54946L14.2328 7.62061C14.4514 8.35797 15.1424 8.84874 15.909 8.84874H15.9602H21.9677C22.1393 8.84874 22.2432 8.94457 22.2831 9.05922C22.3221 9.17158 22.2988 9.29345 22.174 9.38426L17.2509 12.9679L17.5451 13.3721L17.2509 12.9679C17.2393 12.9763 17.2274 12.9845 17.2152 12.9923L17.4855 13.4129L17.2152 12.9923L17.1529 13.0323C16.5216 13.4381 16.2237 14.2013 16.4376 14.923L16.4678 15.025L16.4678 15.025L16.4768 15.0542L16.4768 15.0542L18.2704 20.7216C18.3105 20.8484 18.2659 20.9622 18.1508 21.0392C18.0336 21.1176 17.8845 21.1259 17.7554 21.0305L13.1659 17.6418L13.1659 17.6418C13.1579 17.6358 13.1499 17.6297 13.1421 17.6234L13.1099 17.5976C12.4655 17.0799 11.5346 17.0799 10.8901 17.5976L10.8579 17.6234L10.8579 17.6235C10.855 17.6258 10.8521 17.6281 10.8491 17.6304C10.8442 17.6343 10.8392 17.6381 10.8341 17.6418L10.8341 17.6418L6.24466 21.0305C6.11552 21.1259 5.96644 21.1176 5.84922 21.0392C5.73415 20.9622 5.68954 20.8484 5.72967 20.7216L7.52326 15.0542L7.52327 15.0542L7.53223 15.025L7.53224 15.025L7.56248 14.9229C7.77637 14.2013 7.47846 13.4381 6.84711 13.0323L6.78482 12.9923C6.77266 12.9845 6.76077 12.9763 6.74915 12.9679L1.82598 9.38426C1.70123 9.29345 1.67789 9.17158 1.71695 9.05922C1.75681 8.94457 1.86075 8.84874 2.03228 8.84874H7.89841H7.94963C8.71616 8.84874 9.40721 8.35797 9.62575 7.62062L9.6389 7.57627L9.15951 7.43419L9.6389 7.57627C9.6434 7.56109 9.64845 7.54604 9.65404 7.53114L11.7675 1.90424C11.7675 1.9042 11.7675 1.90416 11.7675 1.90413C11.8172 1.77201 11.9371 1.69671 12.0889 1.70011C12.2408 1.70351 12.3558 1.78386 12.3986 1.91694L14.2072 7.53458L14.6831 7.38136L14.2072 7.53459L14.2118 7.54944Z" stroke="#F2C94C"/>
</svg>
