<svg width="22" height="21" viewBox="0 0 22 21" fill="none" xmlns="http://www.w3.org/2000/svg">
<path fill-rule="evenodd" clip-rule="evenodd" d="M14.909 7.34872C14.3533 7.34872 13.8649 6.9936 13.7122 6.47851L13.6911 6.40736C13.6886 6.39866 13.6859 6.38999 13.6831 6.38134L11.8746 0.763704C11.6384 0.0302364 10.5706 0.00631647 10.2994 0.728419C10.2994 0.728419 10.2994 0.728419 10.2994 0.728419L8.18597 6.35532C8.17621 6.38131 8.16739 6.40761 8.15951 6.43418L8.14637 6.47852C7.9937 6.9936 7.50533 7.34872 6.94963 7.34872H6.89841H1.03228C0.23538 7.34872 -0.104232 8.32557 0.531728 8.78849C0.531728 8.78849 0.531728 8.78849 0.531728 8.78849L5.4549 12.3721C5.47434 12.3863 5.49421 12.3999 5.51448 12.4129L5.57678 12.4529C6.02711 12.7424 6.23178 13.2792 6.08309 13.7808L6.05285 13.8829C6.05082 13.8897 6.04873 13.8965 6.04657 13.9033L4.25297 19.5707C4.01924 20.3092 4.90578 20.9023 5.54166 20.4327L10.1311 17.044C10.1446 17.034 10.158 17.0238 10.1711 17.0132L10.2032 16.9874C10.6648 16.6166 11.3352 16.6166 11.7968 16.9874L11.829 17.0132C11.8421 17.0238 11.8554 17.034 11.8689 17.044L16.4584 20.4327C17.0942 20.9023 17.9808 20.3092 17.7471 19.5707L15.9535 13.9033C15.9513 13.8965 15.9492 13.8897 15.9472 13.8829L15.9169 13.7809C15.7682 13.2792 15.9729 12.7424 16.4233 12.4529L16.4855 12.4129C16.5058 12.3999 16.5257 12.3863 16.5451 12.3721L21.4683 8.78849C22.1043 8.32557 21.7646 7.34872 20.9677 7.34872H14.9602H14.909Z" fill="#F2C94C"/>
</svg>
