<svg width="20" height="20" viewBox="0 0 20 20" fill="none" xmlns="http://www.w3.org/2000/svg">
<g clip-path="url(#clip0)">
<path d="M18 7.87683C18.0005 6.54379 17.6064 5.23935 16.8655 4.12236C16.1246 3.00536 15.069 2.12401 13.8272 1.58561C12.5854 1.04721 11.2109 0.875008 9.87124 1.08996C8.53154 1.30492 7.28439 1.89776 6.28165 2.79629C5.27891 3.69483 4.56385 4.86029 4.22354 6.15076C3.88323 7.44123 3.93235 8.80103 4.36493 10.0646C4.79751 11.3281 5.59488 12.4409 6.65993 13.2674C7.72499 14.0939 9.01179 14.5984 10.3636 14.7196V17.2505H7.81818V18.5003H10.3636V21H11.6364V18.5003H14.1818V17.2505H11.6364V14.7196C13.375 14.5638 14.9916 13.7755 16.1689 12.5096C17.3462 11.2436 17.9993 9.59128 18 7.87683ZM11 13.501C9.86725 13.501 8.75994 13.1712 7.8181 12.5532C6.87625 11.9352 6.14217 11.0568 5.70869 10.0291C5.27521 9.00143 5.16179 7.87059 5.38278 6.7796C5.60376 5.68861 6.14923 4.68647 6.95021 3.89991C7.75118 3.11335 8.77168 2.57769 9.88266 2.36068C10.9936 2.14367 12.1452 2.25505 13.1917 2.68073C14.2383 3.10641 15.1327 3.82728 15.7621 4.75218C16.3914 5.67708 16.7273 6.76446 16.7273 7.87683C16.7273 8.61541 16.5791 9.34676 16.2913 10.0291C16.0035 10.7115 15.5816 11.3315 15.0498 11.8537C14.518 12.376 13.8866 12.7903 13.1917 13.0729C12.4969 13.3556 11.7521 13.501 11 13.501Z" fill="white"/>
</g>
<defs>
<clipPath id="clip0">
<rect width="20" height="20" fill="white"/>
</clipPath>
</defs>
</svg>
