<svg width="24" height="24" viewBox="0 0 24 24" fill="none" xmlns="http://www.w3.org/2000/svg">
<path d="M15.1203 2.08361H20.444L14.9675 7.56004C13.1242 6.09283 10.7893 5.38661 8.44186 5.58625C6.09439 5.7859 3.9123 6.87627 2.34323 8.63369C0.774159 10.3911 -0.062927 12.6823 0.00369188 15.0373C0.0703108 17.3924 1.03558 19.6326 2.70149 21.2985C4.3674 22.9644 6.60764 23.9297 8.96265 23.9963C11.3177 24.0629 13.6089 23.2258 15.3663 21.6568C17.1237 20.0877 18.2141 17.9056 18.4137 15.5581C18.6134 13.2107 17.9072 10.8758 16.44 9.03246L21.9164 3.55603V8.87966H24V0H15.1203V2.08361ZM9.2376 21.8849C7.82807 21.8849 6.45021 21.4669 5.27827 20.6837C4.10634 19.9005 3.19299 18.7874 2.65375 17.4851C2.1145 16.1828 1.97359 14.7498 2.24883 13.3674C2.52406 11.985 3.20309 10.7153 4.20002 9.71888C5.19695 8.72244 6.467 8.04403 7.84953 7.76947C9.23206 7.4949 10.665 7.63652 11.967 8.1764C13.269 8.71628 14.3817 9.63017 15.1643 10.8025C15.9469 11.9748 16.3642 13.3529 16.3636 14.7624C16.3608 16.6512 15.609 18.4617 14.2732 19.7969C12.9373 21.1322 11.1264 21.883 9.2376 21.8849Z" fill="white"/>
</svg>
