<svg width="476" height="238" viewBox="0 0 476 238" fill="none" xmlns="http://www.w3.org/2000/svg">
<rect opacity="0.4" y="-238" width="476" height="476" fill="url(#paint0_radial)"/>
<circle cx="229" r="135" stroke="white" stroke-width="2"/>
<path d="M229 -135C154.442 -135 94 -74.5584 94 0C94 74.5584 154.442 135 229 135C261.912 135 292.074 123.222 315.5 103.652" stroke="white" stroke-width="2"/>
<circle cx="142" cy="103" r="5" fill="white" stroke="white" stroke-width="2"/>
<circle cx="142" cy="103" r="2" fill="white"/>
<circle cx="316" cy="103" r="5" fill="white" stroke="white" stroke-width="2"/>
<circle cx="316" cy="103" r="2" fill="white"/>
<path d="M209.934 67.336C207.406 67.336 205.318 66.496 203.67 64.816C202.022 63.136 201.198 61.064 201.198 58.6C201.198 56.12 202.022 54.048 203.67 52.384C205.318 50.704 207.406 49.864 209.934 49.864C211.454 49.864 212.854 50.224 214.134 50.944C215.43 51.648 216.438 52.608 217.158 53.824L214.302 55.48C213.886 54.728 213.294 54.144 212.526 53.728C211.758 53.296 210.894 53.08 209.934 53.08C208.302 53.08 206.982 53.592 205.974 54.616C204.982 55.64 204.486 56.968 204.486 58.6C204.486 60.216 204.982 61.536 205.974 62.56C206.982 63.584 208.302 64.096 209.934 64.096C210.894 64.096 211.758 63.888 212.526 63.472C213.31 63.04 213.902 62.456 214.302 61.72L217.158 63.376C216.438 64.592 215.438 65.56 214.158 66.28C212.878 66.984 211.47 67.336 209.934 67.336ZM224.807 67.336C222.919 67.336 221.391 66.728 220.223 65.512C219.071 64.296 218.495 62.752 218.495 60.88C218.495 58.832 218.799 57.256 219.407 56.152C220.015 55.032 221.239 54.016 223.079 53.104C223.351 52.976 223.735 52.8 224.231 52.576C224.727 52.336 225.063 52.168 225.239 52.072C225.431 51.976 225.687 51.832 226.007 51.64C226.327 51.448 226.551 51.28 226.679 51.136C226.823 50.976 226.975 50.776 227.135 50.536C227.295 50.296 227.423 50.032 227.519 49.744L230.063 51.208C229.855 52.184 229.383 52.944 228.647 53.488C227.927 54.016 226.839 54.56 225.383 55.12C224.359 55.52 223.615 55.92 223.151 56.32C222.687 56.72 222.351 57.2 222.143 57.76C223.039 56.848 224.239 56.392 225.743 56.392C227.071 56.392 228.255 56.88 229.295 57.856C230.335 58.816 230.855 60.096 230.855 61.696C230.855 63.344 230.295 64.696 229.175 65.752C228.071 66.808 226.615 67.336 224.807 67.336ZM222.599 63.688C223.191 64.232 223.919 64.504 224.783 64.504C225.647 64.504 226.359 64.24 226.919 63.712C227.479 63.184 227.759 62.512 227.759 61.696C227.759 60.88 227.479 60.208 226.919 59.68C226.359 59.136 225.639 58.864 224.759 58.864C223.975 58.864 223.271 59.112 222.647 59.608C222.039 60.104 221.735 60.768 221.735 61.6C221.735 62.448 222.023 63.144 222.599 63.688ZM242.96 65.512C241.728 66.728 240.224 67.336 238.448 67.336C236.672 67.336 235.168 66.728 233.936 65.512C232.72 64.28 232.112 62.776 232.112 61C232.112 59.224 232.72 57.728 233.936 56.512C235.168 55.28 236.672 54.664 238.448 54.664C240.224 54.664 241.728 55.28 242.96 56.512C244.192 57.728 244.808 59.224 244.808 61C244.808 62.776 244.192 64.28 242.96 65.512ZM236.12 63.376C236.744 64 237.52 64.312 238.448 64.312C239.376 64.312 240.152 64 240.776 63.376C241.4 62.752 241.712 61.96 241.712 61C241.712 60.04 241.4 59.248 240.776 58.624C240.152 58 239.376 57.688 238.448 57.688C237.52 57.688 236.744 58 236.12 58.624C235.512 59.248 235.208 60.04 235.208 61C235.208 61.96 235.512 62.752 236.12 63.376ZM253.97 54.664C255.586 54.664 256.962 55.28 258.098 56.512C259.25 57.728 259.826 59.224 259.826 61C259.826 62.776 259.25 64.28 258.098 65.512C256.962 66.728 255.586 67.336 253.97 67.336C252.29 67.336 250.994 66.752 250.082 65.584V71.8H246.986V55H250.082V56.416C250.994 55.248 252.29 54.664 253.97 54.664ZM251.018 63.448C251.642 64.072 252.434 64.384 253.394 64.384C254.354 64.384 255.146 64.072 255.77 63.448C256.41 62.808 256.73 61.992 256.73 61C256.73 60.008 256.41 59.2 255.77 58.576C255.146 57.936 254.354 57.616 253.394 57.616C252.434 57.616 251.642 57.936 251.018 58.576C250.394 59.2 250.082 60.008 250.082 61C250.082 61.992 250.394 62.808 251.018 63.448Z" fill="white"/>
<path d="M178.276 38.13C177.216 38.13 176.339 37.78 175.646 37.08C174.959 36.38 174.616 35.52 174.616 34.5C174.616 33.48 174.959 32.62 175.646 31.92C176.339 31.22 177.216 30.87 178.276 30.87C178.916 30.87 179.503 31.0233 180.036 31.33C180.576 31.6367 180.996 32.05 181.296 32.57L180.486 33.04C180.286 32.6533 179.986 32.3467 179.586 32.12C179.193 31.8867 178.756 31.77 178.276 31.77C177.469 31.77 176.809 32.03 176.296 32.55C175.789 33.07 175.536 33.72 175.536 34.5C175.536 35.2733 175.789 35.92 176.296 36.44C176.809 36.96 177.469 37.22 178.276 37.22C178.756 37.22 179.193 37.1067 179.586 36.88C179.986 36.6467 180.286 36.34 180.486 35.96L181.296 36.42C181.003 36.94 180.586 37.3567 180.046 37.67C179.506 37.9767 178.916 38.13 178.276 38.13ZM189.951 31V31.88H187.881V38H186.961V31.88H184.901V31H189.951ZM198.174 38L197.604 36.43H194.454L193.884 38H192.894L195.504 31H196.554L199.164 38H198.174ZM194.774 35.56H197.284L196.024 32.11L194.774 35.56ZM208.329 37.12H209.079V39.34H208.149V38H203.529V39.34H202.599V37.12H203.209C203.643 36.58 203.859 35.76 203.859 34.66V31H208.329V37.12ZM204.259 37.12H207.399V31.87H204.789V34.68C204.789 35.74 204.613 36.5533 204.259 37.12ZM217.702 38V32.78L214.102 38H213.352V31H214.282V36.23L217.882 31H218.632V38H217.702ZM228.04 31V38H227.12V35.32H225.73L223.92 38H222.87L224.73 35.26C224.25 35.1467 223.853 34.8933 223.54 34.5C223.226 34.1067 223.07 33.6633 223.07 33.17C223.07 32.57 223.28 32.06 223.7 31.64C224.126 31.2133 224.64 31 225.24 31H228.04ZM225.24 34.48H227.12V31.87H225.24C224.9 31.87 224.606 31.9967 224.36 32.25C224.113 32.5033 223.99 32.81 223.99 33.17C223.99 33.53 224.113 33.84 224.36 34.1C224.606 34.3533 224.9 34.48 225.24 34.48ZM244.601 32.56C245.207 33.04 245.511 33.6867 245.511 34.5C245.511 35.3133 245.207 35.96 244.601 36.44C244.001 36.92 243.197 37.1933 242.191 37.26V38.05H241.281V37.26C240.281 37.1933 239.477 36.92 238.871 36.44C238.271 35.96 237.971 35.3133 237.971 34.5C237.971 33.6867 238.271 33.04 238.871 32.56C239.477 32.08 240.281 31.8067 241.281 31.74V30.95H242.191V31.74C243.197 31.8067 244.001 32.08 244.601 32.56ZM242.191 36.41C242.944 36.3567 243.531 36.1733 243.951 35.86C244.371 35.54 244.581 35.0867 244.581 34.5C244.581 33.9133 244.371 33.4633 243.951 33.15C243.531 32.83 242.944 32.6433 242.191 32.59V36.41ZM238.891 34.5C238.891 35.08 239.101 35.53 239.521 35.85C239.941 36.1633 240.527 36.3467 241.281 36.4V32.59C240.527 32.6433 239.941 32.83 239.521 33.15C239.101 33.4633 238.891 33.9133 238.891 34.5ZM250.657 37.12H253.907V38H249.727V31H253.857V31.88H250.657V34.03H253.607V34.9H250.657V37.12ZM260.769 31C261.416 31 261.953 31.2167 262.379 31.65C262.813 32.0767 263.029 32.61 263.029 33.25C263.029 33.8833 262.813 34.4167 262.379 34.85C261.953 35.2833 261.416 35.5 260.769 35.5H259.159V38H258.229V31H260.769ZM260.769 34.63C261.156 34.63 261.476 34.5 261.729 34.24C261.983 33.9733 262.109 33.6433 262.109 33.25C262.109 32.85 261.983 32.52 261.729 32.26C261.476 32 261.156 31.87 260.769 31.87H259.159V34.63H260.769ZM273.878 31V38H272.958V32.53L270.668 36.34H270.548L268.258 32.54V38H267.328V31H268.378L270.608 34.7L272.828 31H273.878ZM278.575 38V31H279.505V33.5H281.115C281.761 33.5 282.298 33.7167 282.725 34.15C283.158 34.5833 283.375 35.1167 283.375 35.75C283.375 36.39 283.158 36.9267 282.725 37.36C282.298 37.7867 281.761 38 281.115 38H278.575ZM284.085 38V31H285.015V38H284.085ZM279.505 37.13H281.115C281.501 37.13 281.821 37 282.075 36.74C282.328 36.48 282.455 36.15 282.455 35.75C282.455 35.35 282.328 35.02 282.075 34.76C281.821 34.5 281.501 34.37 281.115 34.37H279.505V37.13Z" fill="white"/>
<path d="M206.387 151V158H205.007V152.32H202.537V158H201.157V151H206.387ZM215.58 157.09C214.873 157.79 214.013 158.14 213 158.14C211.987 158.14 211.127 157.79 210.42 157.09C209.72 156.383 209.37 155.52 209.37 154.5C209.37 153.48 209.72 152.62 210.42 151.92C211.127 151.213 211.987 150.86 213 150.86C214.013 150.86 214.873 151.213 215.58 151.92C216.287 152.62 216.64 153.48 216.64 154.5C216.64 155.52 216.287 156.383 215.58 157.09ZM211.39 156.15C211.823 156.577 212.36 156.79 213 156.79C213.64 156.79 214.177 156.577 214.61 156.15C215.043 155.717 215.26 155.167 215.26 154.5C215.26 153.833 215.043 153.283 214.61 152.85C214.177 152.417 213.64 152.2 213 152.2C212.36 152.2 211.823 152.417 211.39 152.85C210.957 153.283 210.74 153.833 210.74 154.5C210.74 155.167 210.957 155.717 211.39 156.15ZM222.93 158.14C221.877 158.14 221.007 157.79 220.32 157.09C219.633 156.39 219.29 155.527 219.29 154.5C219.29 153.467 219.633 152.603 220.32 151.91C221.007 151.21 221.877 150.86 222.93 150.86C223.563 150.86 224.147 151.01 224.68 151.31C225.22 151.603 225.64 152.003 225.94 152.51L224.75 153.2C224.577 152.887 224.33 152.643 224.01 152.47C223.69 152.29 223.33 152.2 222.93 152.2C222.25 152.2 221.7 152.413 221.28 152.84C220.867 153.267 220.66 153.82 220.66 154.5C220.66 155.173 220.867 155.723 221.28 156.15C221.7 156.577 222.25 156.79 222.93 156.79C223.33 156.79 223.69 156.703 224.01 156.53C224.337 156.35 224.583 156.107 224.75 155.8L225.94 156.49C225.64 156.997 225.223 157.4 224.69 157.7C224.157 157.993 223.57 158.14 222.93 158.14ZM233.258 158L232.838 156.74H230.048L229.628 158H228.138L230.588 151H232.298L234.758 158H233.258ZM230.488 155.45H232.408L231.448 152.59L230.488 155.45ZM242.857 156.68H243.607V159.34H242.227V158H238.357V159.34H236.977V156.68H237.657C238.044 156.14 238.237 155.35 238.237 154.31V151H242.857V156.68ZM239.137 156.68H241.477V152.29H239.617V154.33C239.617 155.343 239.457 156.127 239.137 156.68ZM251.998 158H250.408L247.908 154.72V158H246.528V151H247.908V154.09L250.308 151H251.898L249.308 154.4L251.998 158ZM259.356 158L258.936 156.74H256.146L255.726 158H254.236L256.686 151H258.396L260.856 158H259.356ZM256.586 155.45H258.506L257.546 152.59L256.586 155.45Z" fill="white"/>
<path d="M54.7296 31.7185L53.9346 30.3415L55.5252 26.5364L52.6846 28.1764L51.9946 26.9813L58.0568 23.4813L58.7468 24.6764L56.0708 26.2214L59.9468 26.7549L60.7418 28.1319L56.5023 27.5889L54.7296 31.7185ZM63.9703 33.7238L64.6603 34.9189L59.2196 35.6353C57.7618 35.8303 56.7446 35.3552 56.1682 34.2101L57.2853 33.5651C57.4431 33.905 57.6364 34.1398 57.8652 34.2695C58.1031 34.4016 58.3932 34.4573 58.7355 34.4368L61.8253 30.0086L62.5153 31.2037L60.3532 34.2187L63.9703 33.7238ZM59.3008 39.636L60.4093 38.996C60.564 39.3839 60.7912 39.6107 61.0908 39.6764C61.3905 39.742 61.8261 39.6098 62.3976 39.2798L65.983 37.2098L68.363 41.3321L62.3008 44.8321L61.6158 43.6457L66.5348 40.8057L65.5248 39.0563L63.1173 40.4463C62.5919 40.7496 62.1136 40.9411 61.6823 41.0208C61.251 41.1004 60.8837 41.0777 60.5805 40.9525C60.2806 40.8331 60.0285 40.6631 59.8241 40.4424C59.623 40.2274 59.4486 39.9586 59.3008 39.636ZM69.325 47.5984C69.6617 48.1816 69.7487 48.7856 69.5861 49.4107C69.4235 50.0357 69.0565 50.5132 68.4849 50.8432C67.9133 51.1732 67.3162 51.2524 66.6936 51.0807C66.071 50.909 65.5914 50.5316 65.2547 49.9484L63.9497 47.6881L70.0119 44.1881L70.7019 45.3832L68.71 46.5332L69.325 47.5984ZM66.3719 49.3034C66.5186 49.5575 66.7268 49.7182 66.9967 49.7856C67.2666 49.8531 67.5343 49.8101 67.7999 49.6568C68.0597 49.5068 68.2279 49.2981 68.3044 49.0306C68.3867 48.7599 68.3545 48.4975 68.2079 48.2434L67.5929 47.1782L65.7569 48.2382L66.3719 49.3034ZM75.8611 54.3192L74.7179 54.9792L73.7729 53.3424L68.8539 56.1824L68.1639 54.9873L73.0829 52.1473L72.1429 50.5192L73.2861 49.8592L75.8611 54.3192ZM73.2091 63.7258L76.907 61.5908L71.7091 61.1277L71.1841 60.2184L77.2463 56.7184L77.9363 57.9135L74.2297 60.0535L79.4363 60.5116L79.9613 61.4209L73.8991 64.9209L73.2091 63.7258ZM80.807 69.6258C80.8077 70.3337 80.4991 70.8659 79.8814 71.2226C79.3675 71.5192 78.8411 71.5807 78.302 71.407C77.7629 71.2332 77.34 70.8808 77.0333 70.3496L75.5483 67.7775L81.6105 64.2775L82.9905 66.6678C83.2905 67.1874 83.3805 67.7166 83.2606 68.2555C83.1497 68.7968 82.846 69.2107 82.3495 69.4974C81.8472 69.7874 81.333 69.8302 80.807 69.6258ZM81.8734 67.3128L81.1834 66.1177L79.8497 66.8877L80.5397 68.0828C80.6463 68.2675 80.7982 68.3839 80.9952 68.4318C81.1956 68.4854 81.391 68.4573 81.5815 68.3473C81.772 68.2373 81.8958 68.085 81.9528 67.8904C82.0098 67.6958 81.9834 67.5033 81.8734 67.3128ZM78.1505 69.7046C78.2672 69.9067 78.4302 70.0358 78.6397 70.0919C78.8549 70.1447 79.0665 70.1111 79.2743 69.9911C79.4764 69.8744 79.6055 69.7114 79.6616 69.5019C79.7235 69.2891 79.6961 69.0817 79.5795 68.8796L78.7845 67.5027L77.3555 68.3277L78.1505 69.7046ZM81.8257 78.6502L82.7069 77.6565L81.3119 75.2403L80.0107 75.5065L79.2657 74.2162L86.5529 72.8379L87.4079 74.3188L82.5757 79.9493L81.8257 78.6502ZM82.6491 74.9763L83.6091 76.6391L85.6059 74.3777L82.6491 74.9763ZM87.6737 86.1392L88.0487 86.7888L85.7451 88.1188L85.0551 86.9236L86.2155 86.2536L83.9155 82.2699L89.9777 78.7699L90.6677 79.965L85.7487 82.805L86.9837 84.9441L91.9027 82.1041L92.5927 83.2992L87.6737 86.1392ZM90.3927 93.4887L94.0906 91.3537L88.8927 90.8906L88.3677 89.9813L94.4299 86.4813L95.1199 87.6764L91.4133 89.8164L96.6199 90.2745L97.1449 91.1838L91.0827 94.6838L90.3927 93.4887ZM101.264 98.3186L95.2019 101.819L94.5119 100.623L96.6164 99.4084L96.2214 98.7243L93.3119 98.545L92.5369 97.2026L95.6263 97.3935C95.5415 96.9267 95.5966 96.4754 95.7914 96.0396C95.9863 95.6038 96.2858 95.2692 96.6899 95.0358C97.2442 94.7158 97.831 94.6388 98.4502 94.8047C99.0695 94.9707 99.5408 95.3337 99.8641 95.8937L101.264 98.3186ZM96.9543 97.5737L97.6643 98.8034L99.4569 97.7684L98.7469 96.5387C98.6169 96.3135 98.4187 96.1701 98.1521 96.1085C97.8856 96.0468 97.6282 96.0876 97.3799 96.231C97.1317 96.3743 96.9647 96.5785 96.8791 96.8435C96.7992 97.1051 96.8243 97.3485 96.9543 97.5737Z" fill="white"/>
<path d="M377.853 72.333C377.326 73.2452 376.588 73.8236 375.639 74.0683C374.689 74.313 373.77 74.1787 372.881 73.6653C371.986 73.1487 371.41 72.4196 371.153 71.4783C370.89 70.5336 371.022 69.6052 371.548 68.693C371.865 68.1445 372.287 67.7143 372.813 67.4024C373.337 67.0815 373.894 66.9177 374.482 66.9112L374.485 68.2868C374.127 68.2803 373.793 68.3722 373.483 68.5627C373.167 68.7498 372.909 69.0166 372.709 69.363C372.369 69.9519 372.279 70.5349 372.438 71.1119C372.601 71.6832 372.977 72.1389 373.566 72.4789C374.149 72.8155 374.729 72.9116 375.305 72.7669C375.884 72.6165 376.344 72.2469 376.684 71.658C376.884 71.3116 376.989 70.9565 376.999 70.5927C377.006 70.2198 376.919 69.8845 376.737 69.5868L377.929 68.9012C378.218 69.4144 378.359 69.9769 378.352 70.5888C378.339 71.1973 378.173 71.7787 377.853 72.333ZM378.234 62.6941C378.574 62.1052 379.028 61.7248 379.597 61.5528C380.16 61.3776 380.719 61.4499 381.273 61.7699C381.833 62.0932 382.181 62.5442 382.316 63.1228C382.446 63.6981 382.341 64.2802 382.001 64.8691L380.661 67.19L374.599 63.69L376.799 59.8795L377.942 60.5395L376.432 63.1549L377.584 63.8199L378.234 62.6941ZM380.884 64.2241C381.02 63.9874 381.067 63.7527 381.024 63.5202C380.976 63.2843 380.83 63.0964 380.588 62.9564C380.345 62.8164 380.113 62.786 379.89 62.8652C379.667 62.9444 379.487 63.1024 379.351 63.3391L378.701 64.4649L380.234 65.3499L380.884 64.2241ZM386.718 54.8785C386.971 55.8405 386.844 56.7602 386.337 57.6378C385.831 58.5154 385.098 59.0852 384.138 59.3472C383.176 59.6001 382.253 59.4715 381.37 58.9615C380.487 58.4515 379.917 57.7184 379.661 56.7622C379.402 55.7968 379.526 54.8754 380.033 53.9978C380.539 53.1202 381.275 52.5521 382.241 52.2935C383.2 52.0315 384.122 52.1555 385.005 52.6655C385.888 53.1755 386.459 53.9132 386.718 54.8785ZM383.809 58.0371C384.395 57.8752 384.848 57.5171 385.168 56.9628C385.488 56.4086 385.572 55.8371 385.419 55.2485C385.26 54.6566 384.892 54.1939 384.315 53.8606C383.738 53.5273 383.153 53.4399 382.561 53.5985C381.969 53.7571 381.513 54.1136 381.193 54.6678C380.873 55.2221 380.792 55.7952 380.951 56.3871C381.11 56.9791 381.478 57.4417 382.055 57.775C382.632 58.1084 383.217 58.1957 383.809 58.0371ZM384.764 46.0831C385.101 45.5 385.58 45.1226 386.203 44.9509C386.825 44.7792 387.422 44.8583 387.994 45.1883C388.566 45.5183 388.933 45.9959 389.095 46.6209C389.258 47.2459 389.171 47.85 388.834 48.4331L388.219 49.4983L390.211 50.6483L389.521 51.8435L383.459 48.3435L384.764 46.0831ZM387.717 47.7881C387.864 47.5341 387.899 47.2734 387.822 47.0059C387.74 46.7352 387.569 46.5248 387.309 46.3748C387.043 46.2215 386.776 46.1785 386.506 46.2459C386.236 46.3134 386.028 46.4741 385.881 46.7281L385.266 47.7933L387.102 48.8533L387.717 47.7881Z" fill="white"/>
<path fill-rule="evenodd" clip-rule="evenodd" d="M148.256 121.155L141.052 129.467L136.293 124.707L137.707 123.293L140.948 126.534L146.744 119.845L148.256 121.155Z" fill="white"/>
<path fill-rule="evenodd" clip-rule="evenodd" d="M322.256 121.155L315.052 129.467L310.293 124.707L311.707 123.293L314.948 126.534L320.744 119.845L322.256 121.155Z" fill="white"/>
<defs>
<radialGradient id="paint0_radial" cx="0" cy="0" r="1" gradientUnits="userSpaceOnUse" gradientTransform="translate(238) rotate(90) scale(238)">
<stop/>
<stop offset="1" stop-opacity="0"/>
</radialGradient>
</defs>
</svg>
