<svg width="476" height="238" viewBox="0 0 476 238" fill="none" xmlns="http://www.w3.org/2000/svg">
<rect opacity="0.4" y="-238" width="476" height="476" fill="url(#paint0_radial)"/>
<circle opacity="0.2" cx="229" r="135" stroke="white" stroke-width="2"/>
<path d="M229 -135C154.442 -135 94 -74.5584 94 0C94 74.5584 154.442 135 229 135C261.912 135 292.074 123.222 315.5 103.652" stroke="white" stroke-width="2"/>
<circle cx="142" cy="103" r="5" fill="white" stroke="white" stroke-width="2"/>
<circle cx="142" cy="103" r="2" fill="white"/>
<circle opacity="0.2" cx="316" cy="103" r="5" stroke="white" stroke-width="2"/>
<circle cx="316" cy="103" r="2" fill="white"/>
<path d="M195.288 50.2V67H191.976V53.368H186.048V67H182.736V50.2H195.288ZM208.495 65.512C207.263 66.728 205.759 67.336 203.983 67.336C202.207 67.336 200.703 66.728 199.471 65.512C198.255 64.28 197.647 62.776 197.647 61C197.647 59.224 198.255 57.728 199.471 56.512C200.703 55.28 202.207 54.664 203.983 54.664C205.759 54.664 207.263 55.28 208.495 56.512C209.727 57.728 210.343 59.224 210.343 61C210.343 62.776 209.727 64.28 208.495 65.512ZM201.655 63.376C202.279 64 203.055 64.312 203.983 64.312C204.911 64.312 205.687 64 206.311 63.376C206.935 62.752 207.247 61.96 207.247 61C207.247 60.04 206.935 59.248 206.311 58.624C205.687 58 204.911 57.688 203.983 57.688C203.055 57.688 202.279 58 201.655 58.624C201.047 59.248 200.743 60.04 200.743 61C200.743 61.96 201.047 62.752 201.655 63.376ZM218.233 67.336C216.425 67.336 214.913 66.728 213.697 65.512C212.497 64.296 211.897 62.792 211.897 61C211.897 59.208 212.497 57.704 213.697 56.488C214.913 55.272 216.425 54.664 218.233 54.664C219.401 54.664 220.465 54.944 221.425 55.504C222.385 56.064 223.113 56.816 223.609 57.76L220.945 59.32C220.705 58.824 220.337 58.432 219.841 58.144C219.361 57.856 218.817 57.712 218.209 57.712C217.281 57.712 216.513 58.024 215.905 58.648C215.297 59.256 214.993 60.04 214.993 61C214.993 61.944 215.297 62.728 215.905 63.352C216.513 63.96 217.281 64.264 218.209 64.264C218.833 64.264 219.385 64.128 219.865 63.856C220.361 63.568 220.729 63.176 220.969 62.68L223.657 64.216C223.129 65.16 222.385 65.92 221.425 66.496C220.465 67.056 219.401 67.336 218.233 67.336ZM234.227 55H237.323V67H234.227V65.584C233.299 66.752 231.995 67.336 230.315 67.336C228.715 67.336 227.339 66.728 226.187 65.512C225.051 64.28 224.483 62.776 224.483 61C224.483 59.224 225.051 57.728 226.187 56.512C227.339 55.28 228.715 54.664 230.315 54.664C231.995 54.664 233.299 55.248 234.227 56.416V55ZM228.515 63.448C229.139 64.072 229.931 64.384 230.891 64.384C231.851 64.384 232.643 64.072 233.267 63.448C233.907 62.808 234.227 61.992 234.227 61C234.227 60.008 233.907 59.2 233.267 58.576C232.643 57.936 231.851 57.616 230.891 57.616C229.931 57.616 229.139 57.936 228.515 58.576C227.891 59.2 227.579 60.008 227.579 61C227.579 61.992 227.891 62.808 228.515 63.448ZM250.931 64.096H252.515V70.216H249.491V67H242.051V70.216H239.027V64.096H240.491C241.179 63.072 241.523 61.656 241.523 59.848V55H250.931V64.096ZM243.803 64.096H247.907V57.784H244.547V59.848C244.547 61.544 244.299 62.96 243.803 64.096ZM265.539 67H261.939L257.571 61.552V67H254.475V55H257.571V60.28L261.699 55H265.395L260.571 60.928L265.539 67ZM275.337 55H278.433V67H275.337V65.584C274.409 66.752 273.105 67.336 271.425 67.336C269.825 67.336 268.449 66.728 267.297 65.512C266.161 64.28 265.593 62.776 265.593 61C265.593 59.224 266.161 57.728 267.297 56.512C268.449 55.28 269.825 54.664 271.425 54.664C273.105 54.664 274.409 55.248 275.337 56.416V55ZM269.625 63.448C270.249 64.072 271.041 64.384 272.001 64.384C272.961 64.384 273.753 64.072 274.377 63.448C275.017 62.808 275.337 61.992 275.337 61C275.337 60.008 275.017 59.2 274.377 58.576C273.753 57.936 272.961 57.616 272.001 57.616C271.041 57.616 270.249 57.936 269.625 58.576C269.001 59.2 268.689 60.008 268.689 61C268.689 61.992 269.001 62.808 269.625 63.448Z" fill="white"/>
<path d="M178.276 38.13C177.216 38.13 176.339 37.78 175.646 37.08C174.959 36.38 174.616 35.52 174.616 34.5C174.616 33.48 174.959 32.62 175.646 31.92C176.339 31.22 177.216 30.87 178.276 30.87C178.916 30.87 179.503 31.0233 180.036 31.33C180.576 31.6367 180.996 32.05 181.296 32.57L180.486 33.04C180.286 32.6533 179.986 32.3467 179.586 32.12C179.193 31.8867 178.756 31.77 178.276 31.77C177.469 31.77 176.809 32.03 176.296 32.55C175.789 33.07 175.536 33.72 175.536 34.5C175.536 35.2733 175.789 35.92 176.296 36.44C176.809 36.96 177.469 37.22 178.276 37.22C178.756 37.22 179.193 37.1067 179.586 36.88C179.986 36.6467 180.286 36.34 180.486 35.96L181.296 36.42C181.003 36.94 180.586 37.3567 180.046 37.67C179.506 37.9767 178.916 38.13 178.276 38.13ZM189.951 31V31.88H187.881V38H186.961V31.88H184.901V31H189.951ZM198.174 38L197.604 36.43H194.454L193.884 38H192.894L195.504 31H196.554L199.164 38H198.174ZM194.774 35.56H197.284L196.024 32.11L194.774 35.56ZM208.329 37.12H209.079V39.34H208.149V38H203.529V39.34H202.599V37.12H203.209C203.643 36.58 203.859 35.76 203.859 34.66V31H208.329V37.12ZM204.259 37.12H207.399V31.87H204.789V34.68C204.789 35.74 204.613 36.5533 204.259 37.12ZM217.702 38V32.78L214.102 38H213.352V31H214.282V36.23L217.882 31H218.632V38H217.702ZM228.04 31V38H227.12V35.32H225.73L223.92 38H222.87L224.73 35.26C224.25 35.1467 223.853 34.8933 223.54 34.5C223.226 34.1067 223.07 33.6633 223.07 33.17C223.07 32.57 223.28 32.06 223.7 31.64C224.126 31.2133 224.64 31 225.24 31H228.04ZM225.24 34.48H227.12V31.87H225.24C224.9 31.87 224.606 31.9967 224.36 32.25C224.113 32.5033 223.99 32.81 223.99 33.17C223.99 33.53 224.113 33.84 224.36 34.1C224.606 34.3533 224.9 34.48 225.24 34.48ZM244.601 32.56C245.207 33.04 245.511 33.6867 245.511 34.5C245.511 35.3133 245.207 35.96 244.601 36.44C244.001 36.92 243.197 37.1933 242.191 37.26V38.05H241.281V37.26C240.281 37.1933 239.477 36.92 238.871 36.44C238.271 35.96 237.971 35.3133 237.971 34.5C237.971 33.6867 238.271 33.04 238.871 32.56C239.477 32.08 240.281 31.8067 241.281 31.74V30.95H242.191V31.74C243.197 31.8067 244.001 32.08 244.601 32.56ZM242.191 36.41C242.944 36.3567 243.531 36.1733 243.951 35.86C244.371 35.54 244.581 35.0867 244.581 34.5C244.581 33.9133 244.371 33.4633 243.951 33.15C243.531 32.83 242.944 32.6433 242.191 32.59V36.41ZM238.891 34.5C238.891 35.08 239.101 35.53 239.521 35.85C239.941 36.1633 240.527 36.3467 241.281 36.4V32.59C240.527 32.6433 239.941 32.83 239.521 33.15C239.101 33.4633 238.891 33.9133 238.891 34.5ZM250.657 37.12H253.907V38H249.727V31H253.857V31.88H250.657V34.03H253.607V34.9H250.657V37.12ZM260.769 31C261.416 31 261.953 31.2167 262.379 31.65C262.813 32.0767 263.029 32.61 263.029 33.25C263.029 33.8833 262.813 34.4167 262.379 34.85C261.953 35.2833 261.416 35.5 260.769 35.5H259.159V38H258.229V31H260.769ZM260.769 34.63C261.156 34.63 261.476 34.5 261.729 34.24C261.983 33.9733 262.109 33.6433 262.109 33.25C262.109 32.85 261.983 32.52 261.729 32.26C261.476 32 261.156 31.87 260.769 31.87H259.159V34.63H260.769ZM273.878 31V38H272.958V32.53L270.668 36.34H270.548L268.258 32.54V38H267.328V31H268.378L270.608 34.7L272.828 31H273.878ZM278.575 38V31H279.505V33.5H281.115C281.761 33.5 282.298 33.7167 282.725 34.15C283.158 34.5833 283.375 35.1167 283.375 35.75C283.375 36.39 283.158 36.9267 282.725 37.36C282.298 37.7867 281.761 38 281.115 38H278.575ZM284.085 38V31H285.015V38H284.085ZM279.505 37.13H281.115C281.501 37.13 281.821 37 282.075 36.74C282.328 36.48 282.455 36.15 282.455 35.75C282.455 35.35 282.328 35.02 282.075 34.76C281.821 34.5 281.501 34.37 281.115 34.37H279.505V37.13Z" fill="white"/>
<path d="M206.387 151V158H205.007V152.32H202.537V158H201.157V151H206.387ZM215.58 157.09C214.873 157.79 214.013 158.14 213 158.14C211.987 158.14 211.127 157.79 210.42 157.09C209.72 156.383 209.37 155.52 209.37 154.5C209.37 153.48 209.72 152.62 210.42 151.92C211.127 151.213 211.987 150.86 213 150.86C214.013 150.86 214.873 151.213 215.58 151.92C216.287 152.62 216.64 153.48 216.64 154.5C216.64 155.52 216.287 156.383 215.58 157.09ZM211.39 156.15C211.823 156.577 212.36 156.79 213 156.79C213.64 156.79 214.177 156.577 214.61 156.15C215.043 155.717 215.26 155.167 215.26 154.5C215.26 153.833 215.043 153.283 214.61 152.85C214.177 152.417 213.64 152.2 213 152.2C212.36 152.2 211.823 152.417 211.39 152.85C210.957 153.283 210.74 153.833 210.74 154.5C210.74 155.167 210.957 155.717 211.39 156.15ZM222.93 158.14C221.877 158.14 221.007 157.79 220.32 157.09C219.633 156.39 219.29 155.527 219.29 154.5C219.29 153.467 219.633 152.603 220.32 151.91C221.007 151.21 221.877 150.86 222.93 150.86C223.563 150.86 224.147 151.01 224.68 151.31C225.22 151.603 225.64 152.003 225.94 152.51L224.75 153.2C224.577 152.887 224.33 152.643 224.01 152.47C223.69 152.29 223.33 152.2 222.93 152.2C222.25 152.2 221.7 152.413 221.28 152.84C220.867 153.267 220.66 153.82 220.66 154.5C220.66 155.173 220.867 155.723 221.28 156.15C221.7 156.577 222.25 156.79 222.93 156.79C223.33 156.79 223.69 156.703 224.01 156.53C224.337 156.35 224.583 156.107 224.75 155.8L225.94 156.49C225.64 156.997 225.223 157.4 224.69 157.7C224.157 157.993 223.57 158.14 222.93 158.14ZM233.258 158L232.838 156.74H230.048L229.628 158H228.138L230.588 151H232.298L234.758 158H233.258ZM230.488 155.45H232.408L231.448 152.59L230.488 155.45ZM242.857 156.68H243.607V159.34H242.227V158H238.357V159.34H236.977V156.68H237.657C238.044 156.14 238.237 155.35 238.237 154.31V151H242.857V156.68ZM239.137 156.68H241.477V152.29H239.617V154.33C239.617 155.343 239.457 156.127 239.137 156.68ZM251.998 158H250.408L247.908 154.72V158H246.528V151H247.908V154.09L250.308 151H251.898L249.308 154.4L251.998 158ZM259.356 158L258.936 156.74H256.146L255.726 158H254.236L256.686 151H258.396L260.856 158H259.356ZM256.586 155.45H258.506L257.546 152.59L256.586 155.45Z" fill="white"/>
<path d="M54.7294 31.7185L53.9344 30.3415L55.525 26.5364L52.6844 28.1764L51.9944 26.9813L58.0566 23.4813L58.7466 24.6764L56.0706 26.2214L59.9466 26.7549L60.7416 28.1319L56.5021 27.5889L54.7294 31.7185ZM63.9701 33.7238L64.6601 34.9189L59.2193 35.6353C57.7615 35.8303 56.7444 35.3552 56.1679 34.2101L57.2851 33.5651C57.4429 33.905 57.6362 34.1398 57.865 34.2695C58.1029 34.4016 58.393 34.4573 58.7352 34.4368L61.8251 30.0086L62.5151 31.2037L60.3529 34.2187L63.9701 33.7238ZM59.3006 39.636L60.4091 38.996C60.5638 39.3839 60.791 39.6107 61.0906 39.6764C61.3902 39.742 61.8258 39.6098 62.3974 39.2798L65.9827 37.2098L68.3627 41.3321L62.3006 44.8321L61.6156 43.6457L66.5346 40.8057L65.5246 39.0563L63.117 40.4463C62.5917 40.7496 62.1133 40.9411 61.682 41.0208C61.2507 41.1004 60.8835 41.0777 60.5803 40.9525C60.2804 40.8331 60.0283 40.6631 59.8239 40.4424C59.6228 40.2274 59.4484 39.9586 59.3006 39.636ZM69.3248 47.5984C69.6615 48.1816 69.7485 48.7856 69.5859 49.4107C69.4233 50.0357 69.0562 50.5132 68.4846 50.8432C67.9131 51.1732 67.316 51.2524 66.6934 51.0807C66.0708 50.909 65.5911 50.5316 65.2545 49.9484L63.9495 47.6881L70.0117 44.1881L70.7017 45.3832L68.7098 46.5332L69.3248 47.5984ZM66.3716 49.3034C66.5183 49.5575 66.7266 49.7182 66.9965 49.7856C67.2663 49.8531 67.5341 49.8101 67.7996 49.6568C68.0594 49.5068 68.2276 49.2981 68.3042 49.0306C68.3865 48.7599 68.3543 48.4975 68.2076 48.2434L67.5926 47.1782L65.7566 48.2382L66.3716 49.3034ZM75.8608 54.3192L74.7177 54.9792L73.7727 53.3424L68.8537 56.1824L68.1637 54.9873L73.0827 52.1473L72.1427 50.5192L73.2858 49.8592L75.8608 54.3192ZM73.2088 63.7258L76.9068 61.5908L71.7088 61.1277L71.1838 60.2184L77.246 56.7184L77.936 57.9135L74.2294 60.0535L79.436 60.5116L79.961 61.4209L73.8988 64.9209L73.2088 63.7258ZM80.8068 69.6258C80.8074 70.3337 80.4989 70.8659 79.8811 71.2226C79.3673 71.5192 78.8408 71.5807 78.3017 71.407C77.7626 71.2332 77.3398 70.8808 77.0331 70.3496L75.5481 67.7775L81.6103 64.2775L82.9903 66.6678C83.2903 67.1874 83.3803 67.7166 83.2603 68.2555C83.1494 68.7968 82.8457 69.2107 82.3492 69.4974C81.8469 69.7874 81.3328 69.8302 80.8068 69.6258ZM81.8731 67.3128L81.1831 66.1177L79.8494 66.8877L80.5394 68.0828C80.6461 68.2675 80.7979 68.3839 80.995 68.4318C81.1953 68.4854 81.3907 68.4573 81.5813 68.3473C81.7718 68.2373 81.8956 68.085 81.9526 67.8904C82.0096 67.6958 81.9831 67.5033 81.8731 67.3128ZM78.1503 69.7046C78.2669 69.9067 78.43 70.0358 78.6395 70.0919C78.8547 70.1447 79.0662 70.1111 79.2741 69.9911C79.4762 69.8744 79.6052 69.7114 79.6614 69.5019C79.7233 69.2891 79.6959 69.0817 79.5792 68.8796L78.7842 67.5027L77.3553 68.3277L78.1503 69.7046ZM81.8254 78.6502L82.7066 77.6565L81.3116 75.2403L80.0104 75.5065L79.2654 74.2162L86.5526 72.8379L87.4076 74.3188L82.5754 79.9493L81.8254 78.6502ZM82.6488 74.9763L83.6088 76.6391L85.6056 74.3777L82.6488 74.9763ZM87.6734 86.1392L88.0484 86.7888L85.7448 88.1188L85.0548 86.9236L86.2153 86.2536L83.9153 82.2699L89.9775 78.7699L90.6675 79.965L85.7484 82.805L86.9834 84.9441L91.9025 82.1041L92.5925 83.2992L87.6734 86.1392ZM90.3924 93.4887L94.0904 91.3537L88.8924 90.8906L88.3674 89.9813L94.4296 86.4813L95.1196 87.6764L91.413 89.8164L96.6196 90.2745L97.1446 91.1838L91.0824 94.6838L90.3924 93.4887ZM101.264 98.3186L95.2017 101.819L94.5117 100.623L96.6161 99.4084L96.2211 98.7243L93.3117 98.545L92.5367 97.2026L95.626 97.3935C95.5413 96.9267 95.5963 96.4754 95.7912 96.0396C95.986 95.6038 96.2856 95.2692 96.6897 95.0358C97.244 94.7158 97.8307 94.6388 98.45 94.8047C99.0692 94.9707 99.5405 95.3337 99.8639 95.8937L101.264 98.3186ZM96.954 97.5737L97.664 98.8034L99.4567 97.7684L98.7467 96.5387C98.6167 96.3135 98.4184 96.1701 98.1519 96.1085C97.8854 96.0468 97.628 96.0876 97.3797 96.231C97.1314 96.3743 96.9645 96.5785 96.8788 96.8435C96.799 97.1051 96.824 97.3485 96.954 97.5737Z" fill="white"/>
<path opacity="0.5" d="M377.853 72.333C377.326 73.2452 376.588 73.8236 375.639 74.0683C374.689 74.313 373.77 74.1787 372.881 73.6653C371.986 73.1487 371.41 72.4196 371.153 71.4783C370.89 70.5336 371.022 69.6052 371.548 68.693C371.865 68.1445 372.287 67.7143 372.813 67.4024C373.337 67.0815 373.894 66.9177 374.482 66.9112L374.485 68.2868C374.127 68.2803 373.793 68.3722 373.483 68.5627C373.167 68.7498 372.909 69.0166 372.709 69.363C372.369 69.9519 372.279 70.5349 372.438 71.1119C372.601 71.6832 372.977 72.1389 373.566 72.4789C374.149 72.8155 374.729 72.9116 375.305 72.7669C375.884 72.6165 376.344 72.2469 376.684 71.658C376.884 71.3116 376.989 70.9565 376.999 70.5927C377.006 70.2198 376.919 69.8845 376.737 69.5868L377.929 68.9012C378.218 69.4144 378.359 69.9769 378.352 70.5888C378.339 71.1973 378.173 71.7787 377.853 72.333ZM378.234 62.6941C378.574 62.1052 379.028 61.7248 379.597 61.5528C380.16 61.3776 380.719 61.4499 381.273 61.7699C381.833 62.0932 382.181 62.5442 382.316 63.1228C382.446 63.6981 382.341 64.2802 382.001 64.8691L380.661 67.19L374.599 63.69L376.799 59.8795L377.942 60.5395L376.432 63.1549L377.584 63.8199L378.234 62.6941ZM380.884 64.2241C381.02 63.9874 381.067 63.7527 381.024 63.5202C380.976 63.2843 380.83 63.0964 380.588 62.9564C380.345 62.8164 380.113 62.786 379.89 62.8652C379.667 62.9444 379.487 63.1024 379.351 63.3391L378.701 64.4649L380.234 65.3499L380.884 64.2241ZM386.718 54.8785C386.971 55.8405 386.844 56.7602 386.337 57.6378C385.831 58.5154 385.098 59.0852 384.138 59.3472C383.176 59.6001 382.253 59.4715 381.37 58.9615C380.487 58.4515 379.917 57.7184 379.661 56.7622C379.402 55.7968 379.526 54.8754 380.033 53.9978C380.539 53.1202 381.275 52.5521 382.241 52.2935C383.2 52.0315 384.122 52.1555 385.005 52.6655C385.888 53.1755 386.459 53.9132 386.718 54.8785ZM383.809 58.0371C384.395 57.8752 384.848 57.5171 385.168 56.9628C385.488 56.4086 385.572 55.8371 385.419 55.2485C385.26 54.6566 384.892 54.1939 384.315 53.8606C383.738 53.5273 383.153 53.4399 382.561 53.5985C381.969 53.7571 381.513 54.1136 381.193 54.6678C380.873 55.2221 380.792 55.7952 380.951 56.3871C381.11 56.9791 381.478 57.4417 382.055 57.775C382.632 58.1084 383.217 58.1957 383.809 58.0371ZM384.764 46.0831C385.101 45.5 385.58 45.1226 386.203 44.9509C386.825 44.7792 387.422 44.8583 387.994 45.1883C388.566 45.5183 388.933 45.9959 389.095 46.6209C389.258 47.2459 389.171 47.85 388.834 48.4331L388.219 49.4983L390.211 50.6483L389.521 51.8435L383.459 48.3435L384.764 46.0831ZM387.717 47.7881C387.864 47.5341 387.899 47.2734 387.822 47.0059C387.74 46.7352 387.569 46.5248 387.309 46.3748C387.043 46.2215 386.776 46.1785 386.506 46.2459C386.236 46.3134 386.028 46.4741 385.881 46.7281L385.266 47.7933L387.102 48.8533L387.717 47.7881Z" fill="white"/>
<path fill-rule="evenodd" clip-rule="evenodd" d="M148.256 121.155L141.052 129.467L136.293 124.707L137.707 123.293L140.948 126.534L146.744 119.845L148.256 121.155Z" fill="white"/>
<defs>
<radialGradient id="paint0_radial" cx="0" cy="0" r="1" gradientUnits="userSpaceOnUse" gradientTransform="translate(238) rotate(90) scale(238)">
<stop/>
<stop offset="1" stop-opacity="0"/>
</radialGradient>
</defs>
</svg>
