<svg width="63" height="19" viewBox="0 0 63 19" fill="none" xmlns="http://www.w3.org/2000/svg">
<path opacity="0.8" d="M29.8589 5.208H24.8989V8.84H29.6509V10.248H24.8989V15H23.4109V3.8H29.8589V5.208ZM32.2209 5.544C31.9543 5.544 31.7303 5.45333 31.5489 5.272C31.3676 5.09067 31.2769 4.872 31.2769 4.616C31.2769 4.36 31.3676 4.14133 31.5489 3.96C31.7303 3.768 31.9543 3.672 32.2209 3.672C32.4769 3.672 32.6956 3.768 32.8769 3.96C33.0583 4.14133 33.1489 4.36 33.1489 4.616C33.1489 4.872 33.0583 5.09067 32.8769 5.272C32.6956 5.45333 32.4769 5.544 32.2209 5.544ZM31.5169 15V7H32.9089V15H31.5169ZM39.0166 6.792C39.9552 6.792 40.7072 7.09067 41.2726 7.688C41.8379 8.27467 42.1206 9.07467 42.1206 10.088V15H40.7286V10.168C40.7286 9.51733 40.5526 9.016 40.2006 8.664C39.8486 8.30133 39.3632 8.12 38.7446 8.12C38.0512 8.12 37.4912 8.33867 37.0646 8.776C36.6379 9.20267 36.4246 9.864 36.4246 10.76V15H35.0326V7H36.4246V8.152C36.9899 7.24533 37.8539 6.792 39.0166 6.792ZM44.7678 5.544C44.5011 5.544 44.2771 5.45333 44.0958 5.272C43.9145 5.09067 43.8238 4.872 43.8238 4.616C43.8238 4.36 43.9145 4.14133 44.0958 3.96C44.2771 3.768 44.5011 3.672 44.7678 3.672C45.0238 3.672 45.2425 3.768 45.4238 3.96C45.6051 4.14133 45.6958 4.36 45.6958 4.616C45.6958 4.872 45.6051 5.09067 45.4238 5.272C45.2425 5.45333 45.0238 5.544 44.7678 5.544ZM44.0638 15V7H45.4558V15H44.0638ZM48.7638 9.16C48.7638 9.46933 48.9185 9.72 49.2278 9.912C49.5371 10.0933 49.9105 10.2427 50.3478 10.36C50.7851 10.4667 51.2225 10.5947 51.6598 10.744C52.0971 10.8827 52.4705 11.128 52.7798 11.48C53.0891 11.8213 53.2438 12.264 53.2438 12.808C53.2438 13.5333 52.9611 14.1147 52.3958 14.552C51.8411 14.9893 51.1265 15.208 50.2518 15.208C49.4731 15.208 48.8065 15.0373 48.2518 14.696C47.6971 14.3547 47.3025 13.9013 47.0678 13.336L48.2678 12.648C48.3958 13.032 48.6358 13.336 48.9878 13.56C49.3398 13.784 49.7611 13.896 50.2518 13.896C50.7105 13.896 51.0891 13.8107 51.3878 13.64C51.6865 13.4587 51.8358 13.1813 51.8358 12.808C51.8358 12.4987 51.6811 12.2533 51.3718 12.072C51.0625 11.88 50.6891 11.7307 50.2518 11.624C49.8145 11.5067 49.3771 11.3733 48.9398 11.224C48.5025 11.0747 48.1291 10.8293 47.8198 10.488C47.5105 10.1467 47.3558 9.70933 47.3558 9.176C47.3558 8.48267 47.6225 7.912 48.1558 7.464C48.6998 7.016 49.3771 6.792 50.1878 6.792C50.8385 6.792 51.4145 6.94133 51.9158 7.24C52.4278 7.528 52.8118 7.93333 53.0678 8.456L51.8998 9.112C51.6118 8.42933 51.0411 8.088 50.1878 8.088C49.7931 8.088 49.4571 8.184 49.1798 8.376C48.9025 8.55733 48.7638 8.81867 48.7638 9.16ZM58.7978 6.792C59.7365 6.792 60.4885 7.09067 61.0538 7.688C61.6191 8.27467 61.9018 9.07467 61.9018 10.088V15H60.5098V10.168C60.5098 9.51733 60.3338 9.016 59.9818 8.664C59.6298 8.30133 59.1445 8.12 58.5258 8.12C57.8325 8.12 57.2725 8.33867 56.8458 8.776C56.4191 9.20267 56.2058 9.864 56.2058 10.76V15H54.8138V3.8H56.2058V8.152C56.7711 7.24533 57.6351 6.792 58.7978 6.792Z" fill="#1963D1"/>
<path opacity="0.8" d="M0 10L5 12.8868V7.11325L0 10ZM4.5 10.5H16V9.5H4.5V10.5Z" fill="#1963D1"/>
</svg>
