<svg width="16" height="16" viewBox="0 0 16 16" fill="none" xmlns="http://www.w3.org/2000/svg">
<path fill-rule="evenodd" clip-rule="evenodd" d="M5.20751 15.2C3.15907 14.554 1.98089 13.3912 1.67297 11.7117C1.204 9.15389 3.15201 7.53324 3.15201 4.79418C3.75253 5.37608 4.05217 6.29424 4.05217 7.15114C5.74889 5.47477 6.59726 3.09106 6.59726 0C8.94725 1.23079 10.4262 3.162 11.0342 5.79362C11.3756 5.19821 11.4383 4.39397 11.222 3.38089C14.2276 4.50619 16.8717 12.9486 10.4194 15.2C11.5302 11.4536 10.7466 8.63339 8.06885 6.73929C8.41243 8.31965 8.08741 9.83762 7.09378 11.2932C7.01566 10.1474 6.8085 9.25972 6.47234 8.63026C6.47234 9.36732 6.17382 10.1023 5.57678 10.8353C5.50197 10.9272 5.42699 11.0195 5.35183 11.1123L5.35182 11.1123C4.39253 12.2966 4.33403 13.9538 5.20751 15.2Z" fill="white"/>
</svg>
