<svg width="21" height="20" viewBox="0 0 21 20" fill="none" xmlns="http://www.w3.org/2000/svg">
<path d="M18.8247 14.9516L13.1954 6.0125V2.89062H14.4454V1.25H6.55473V2.89062H7.80473V6.0125L2.17544 14.9516C1.66762 15.7578 1.59809 16.6598 2.05825 17.4945C2.51841 18.3293 3.29653 18.75 4.25005 18.75H16.75C17.7036 18.75 18.4813 18.3297 18.9415 17.4945C19.4016 16.6594 19.3336 15.7578 18.8247 14.9516ZM9.26528 6.77305C9.38369 6.58613 9.4463 6.36931 9.44575 6.14805V2.89062H11.5551V6.19492C11.5551 6.38603 11.6093 6.57323 11.7114 6.73477L14.4383 11.0547H6.56176L9.26528 6.77305Z" fill="#FFF"/>
</svg>
