<svg width="32" height="32" viewBox="0 0 32 32" fill="none" xmlns="http://www.w3.org/2000/svg">
<path d="M25.8521 12.3399C25.794 12.2373 25.7096 12.1519 25.6078 12.0925C25.5059 12.0331 25.39 12.0019 25.2721 12.0019H16.5388L18.0029 0.814691C18.0187 0.664968 17.9835 0.514315 17.9032 0.386987C17.8229 0.259659 17.702 0.163066 17.5602 0.112761C17.4183 0.0624553 17.2636 0.0613643 17.121 0.109664C16.9784 0.157963 16.8562 0.252842 16.7741 0.379024L6.15344 18.986C6.09133 19.087 6.05729 19.2028 6.05483 19.3213C6.05237 19.4399 6.08157 19.557 6.13943 19.6605C6.19729 19.764 6.28171 19.8502 6.38399 19.9102C6.48626 19.9702 6.60269 20.0018 6.72127 20.0019H15.3241L14.1638 31.2059C14.1524 31.3551 14.1912 31.5038 14.2741 31.6284C14.3569 31.753 14.4791 31.8463 14.6211 31.8934C14.7631 31.9406 14.9169 31.9389 15.0578 31.8886C15.1987 31.8384 15.3188 31.7424 15.3989 31.616L25.8441 13.011C25.9047 12.9099 25.9373 12.7944 25.9387 12.6765C25.9401 12.5586 25.9102 12.4424 25.8521 12.3399Z" fill="white"/>
</svg>
