<svg width="22" height="14" viewBox="0 0 22 14" fill="none" xmlns="http://www.w3.org/2000/svg">
<path d="M21.1344 4.40144C21.1378 4.45869 21.1333 4.51694 21.1181 4.57481L19.7611 9.70814C19.6927 9.96676 19.4476 10.1486 19.1658 10.15L11.0238 10.1889C11.0227 10.1889 11.0217 10.1889 11.0206 10.1889H2.8785C2.59526 10.1889 2.34845 10.0064 2.28002 9.74649L0.923013 4.59371C0.907387 4.53429 0.902864 4.4744 0.906811 4.41568C0.381854 4.25927 0 3.7947 0 3.24722C0 2.57172 0.581047 2.02222 1.29533 2.02222C2.00961 2.02222 2.59065 2.57172 2.59065 3.24722C2.59065 3.62763 2.40635 3.96799 2.11776 4.19284L3.81673 5.81171C4.24612 6.2209 4.84197 6.45548 5.45156 6.45548C6.17234 6.45548 6.85956 6.13177 7.29232 5.58942L10.0845 2.09067C9.84991 1.869 9.70467 1.56271 9.70467 1.225C9.70467 0.5495 10.2857 0 11 0C11.7143 0 12.2953 0.5495 12.2953 1.225C12.2953 1.5526 12.1578 1.84994 11.9355 2.06998C11.9363 2.07091 11.9372 2.07169 11.9379 2.0727L14.7098 5.5811C15.1424 6.12866 15.8321 6.45556 16.5549 6.45556C17.1701 6.45556 17.7486 6.22899 18.1836 5.81754L19.8933 4.2007C19.5986 3.97592 19.4093 3.6323 19.4093 3.24722C19.4093 2.57172 19.9904 2.02222 20.7047 2.02222C21.419 2.02222 22 2.57172 22 3.24722C22 3.78008 21.6377 4.23329 21.1344 4.40144ZM19.6287 12.0167C19.6287 11.6945 19.3525 11.4333 19.0119 11.4333H3.05673C2.71607 11.4333 2.4399 11.6945 2.4399 12.0167V13.4167C2.4399 13.7388 2.71607 14 3.05673 14H19.0119C19.3525 14 19.6287 13.7388 19.6287 13.4167V12.0167Z" fill="white"/>
</svg>
