<svg width="1874" height="592" viewBox="0 0 1874 592" fill="none" xmlns="http://www.w3.org/2000/svg">
<g opacity="0.03">
<path fill-rule="evenodd" clip-rule="evenodd" d="M1519.51 139.182C1489.68 143.052 1453.92 153.629 1430.49 165.506C1407.68 177.073 1378.23 203.667 1360.21 228.974C1352.37 239.999 1329.63 279.588 1322.75 294.23C1312.02 317.02 1306.79 341.999 1304.85 379.695C1303.83 399.455 1305.88 428.854 1309.31 443.649C1312.36 456.82 1318.18 472.355 1328.7 495.421C1336.98 513.59 1338.09 515.218 1353.19 531.224C1377.03 556.5 1408.98 578.937 1431.06 585.913C1442.08 589.392 1483.54 591.291 1549.17 591.324L1603.8 591.352L1606.99 587.926C1608.74 586.04 1617.78 564.971 1627.08 541.102C1650.91 479.912 1651.85 477.797 1655.92 475.816C1660.39 473.64 1761.57 473.418 1766.88 475.572C1768.87 476.379 1770.84 478.607 1771.26 480.521C1771.68 482.435 1773.63 505.037 1775.6 530.748C1777.56 556.459 1779.56 578.562 1780.02 579.869C1780.49 581.174 1782.25 582.599 1783.93 583.036C1785.61 583.472 1806.56 583.638 1830.49 583.403L1874 582.977L1873.94 576.125C1873.84 565.473 1824.83 151.062 1823.1 146.32C1822.26 144.007 1820.21 141.816 1818.54 141.451C1816.88 141.085 1792.39 140.347 1764.12 139.806C1715.52 138.88 1712.56 138.979 1709.62 141.632C1707.9 143.174 1695.51 169.79 1682.08 200.777C1650.01 274.732 1545.78 493.376 1540.97 496.763C1535.69 500.481 1492.15 500.32 1480.69 496.539C1470.87 493.294 1453.46 479.774 1438.05 463.408C1417.37 441.45 1408.3 414.04 1408.26 373.383C1408.24 348.789 1410.1 340.787 1421.88 314.918C1432.22 292.226 1438.73 281.84 1450.44 269.404C1483.12 234.677 1515.24 222.707 1570.07 224.814C1591.75 225.649 1591.85 225.669 1624.06 235.563C1627.84 236.722 1630.21 236.745 1631.91 235.636C1634.79 233.756 1654.77 172.8 1654.93 165.409C1655.05 159.338 1653.11 157.878 1635.06 150.465C1611.63 140.845 1600.11 138.903 1563.02 138.315C1544.97 138.028 1525.39 138.419 1519.51 139.182ZM92.3632 143.566C90.6072 145.637 76.7142 209.557 45.6131 358.654C21.2752 475.332 1.05563 572.915 0.680452 575.505L0 580.215L14.0384 581.207C31.9442 582.473 83.436 582.482 90.5872 581.221C93.8882 580.638 96.8325 578.964 98.0536 576.974C99.1635 575.167 107.126 539.803 115.751 498.39C124.374 456.976 131.768 421.599 132.18 419.773C134.071 411.41 131.657 411.672 206.986 411.672C271.441 411.672 276.729 411.476 278.819 409.007C280.663 406.827 294.124 339.89 294.124 332.898C294.124 331.957 293.115 330.11 291.883 328.792C289.908 326.687 281.727 326.4 223.511 326.4C165.294 326.4 157.113 326.114 155.139 324.008C153.906 322.691 152.905 321.15 152.915 320.582C152.923 320.013 157.069 299.764 162.125 275.583C167.958 247.687 172.206 230.57 173.751 228.747C176.089 225.99 179.387 225.892 257.466 226.27C332.346 226.632 338.87 226.868 340.286 229.265C341.473 231.274 333.774 270.56 306.562 401.362C287.168 494.583 271.299 572.654 271.299 574.85C271.299 577.087 272.292 579.251 273.556 579.768C274.797 580.277 330.546 580.693 397.443 580.693C514.209 580.693 519.168 580.58 521.473 577.86C523.05 576.001 526.067 562.885 530.254 539.692C533.763 520.258 536.633 503.765 536.633 503.044C536.633 502.32 535.624 500.653 534.392 499.336C532.415 497.227 523.958 496.944 462.972 496.944C418.013 496.944 392.826 496.392 391.033 495.368C389.363 494.413 388.262 492.161 388.243 489.658C388.226 487.384 404.07 409.225 423.454 315.973C449.97 188.402 458.328 145.799 457.21 143.907C455.843 141.592 441.258 141.361 275.292 141.004C98.4331 140.625 94.8126 140.677 92.3632 143.566ZM1751.13 244.954C1753.93 247.938 1754.13 249.767 1759.18 318.025C1761.53 349.85 1763.82 379.043 1764.27 382.9C1765.67 394.962 1765.8 394.922 1725.83 394.922C1689.86 394.922 1687.84 394.575 1687.84 388.399C1687.84 384.149 1740.82 249.091 1743.85 245.622C1746.96 242.048 1748.3 241.927 1751.13 244.954Z" fill="white"/>
<path fill-rule="evenodd" clip-rule="evenodd" d="M650.197 -8.33526C648.929 -3.82043 548.044 574.472 548.044 577.225C548.044 579.644 559.041 579.811 717.594 579.811H887.145L889.473 568.01C893.751 546.331 904.675 482.186 904.675 478.747C904.675 476.88 903.905 474.531 902.963 473.526C901.662 472.137 875.818 471.699 795.362 471.699C701.002 471.699 689.23 471.438 687.231 469.307C685.999 467.989 684.995 466.106 684.999 465.119C685.003 464.131 689.818 434.887 695.698 400.131C701.577 365.376 706.388 336.424 706.388 335.797C706.388 335.17 707.672 333.284 709.241 331.61C712.044 328.617 713.996 328.564 819.576 328.564C920.821 328.564 927.191 328.407 929.356 325.854C931.622 323.18 947.471 237.495 947.471 227.915C947.471 224.622 946.685 223.378 944.261 222.835C942.497 222.437 894.082 221.869 836.674 221.572C724.201 220.988 727.76 221.266 727.81 213.033C727.823 210.831 731.962 184.723 737.007 155.013C744.118 113.145 746.742 100.558 748.669 99.0538C752.191 96.3038 998.82 96.1926 1001.39 98.9396C1002.34 99.9446 1003.11 102.379 1003.11 104.35C1003.11 106.322 986.372 203.656 965.919 320.651C945.467 437.646 927.179 542.276 925.277 553.164C923.376 564.051 921.815 574.5 921.808 576.385L921.793 579.811H1087.02H1252.26L1253.77 572.578C1254.59 568.599 1258.68 545.588 1262.84 521.44C1268.46 488.887 1270.03 476.879 1268.91 474.997C1267.54 472.673 1258.78 472.427 1165 472.069C1092.22 471.792 1062.02 471.187 1060.66 469.98C1059.6 469.045 1058.74 466.662 1058.74 464.684C1058.74 462.706 1063.57 432.469 1069.47 397.491C1078.65 343.06 1080.62 333.51 1083.18 331.229C1085.95 328.748 1092.88 328.564 1183.5 328.564C1274.4 328.564 1280.98 328.387 1283.07 325.899C1284.49 324.203 1288.2 306.558 1293.27 277.357C1301.81 228.247 1302.17 225.09 1299.54 222.279C1298.24 220.893 1274.45 220.452 1201.21 220.452C1113.47 220.452 1104.38 220.222 1102.25 217.948C1100.91 216.517 1100.21 214.073 1100.62 212.238C1101.01 210.475 1105.28 185.42 1110.1 156.562C1114.92 127.704 1119.48 102.871 1120.23 101.382C1120.98 99.8913 1123.01 98.3412 1124.76 97.9376C1126.5 97.5356 1172.54 96.9631 1227.07 96.6662C1281.6 96.3693 1327.28 95.614 1328.58 94.9882C1329.88 94.3608 1331.62 92.0128 1332.44 89.7698C1333.99 85.5489 1349.75 -3.87372 1349.75 -8.42814C1349.75 -10.8355 1327.32 -11 1000.35 -11C668.821 -11 650.908 -10.863 650.197 -8.33526Z" fill="white"/>
</g>
</svg>
