<svg width="26" height="26" viewBox="0 0 26 26" fill="none" xmlns="http://www.w3.org/2000/svg">
<g clip-path="url(#clip0)">
<path d="M12.2383 7.70119V8.12501H13.7617V7.70119C15.2862 7.35374 16.4277 5.98803 16.4277 4.35983V0.761876C16.4277 0.532802 16.3261 0.318099 16.149 0.172814C15.9719 0.0275288 15.7413 -0.0299048 15.5167 0.0149351C14.3768 0.242892 13.4369 1.03701 13 2.08417C12.5631 1.03701 11.6232 0.242892 10.4833 0.0149351C10.2586 -0.0300063 10.0282 0.0275796 9.851 0.172814C9.67388 0.318048 9.57227 0.532752 9.57227 0.761876V4.35983C9.57227 5.98803 10.7138 7.35374 12.2383 7.70119Z" fill="#F04E27"/>
<path d="M22.9647 4.04132C22.8478 3.84423 22.651 3.71139 22.4245 3.67676C21.2756 3.50116 20.1207 3.92589 19.3519 4.76048C19.3042 3.72815 18.7924 2.75051 17.9512 2.12793V4.36068C17.9512 5.86639 17.2754 7.21707 16.2114 8.12586H21.7733C21.7803 8.10763 21.7879 8.0897 21.7946 8.07126L23.0252 4.69025C23.1036 4.47494 23.0815 4.2384 22.9647 4.04132Z" fill="#F04E27"/>
<path d="M4.22693 8.12585H9.78869C8.72467 7.21707 8.04893 5.86639 8.04893 4.36068V2.12793C7.20773 2.75051 6.69596 3.72815 6.64823 4.76048C5.8794 3.92594 4.72453 3.50126 3.57566 3.67681C3.34917 3.71144 3.15229 3.84428 3.03545 4.04136C2.9186 4.23845 2.89656 4.47499 2.97491 4.69035L4.2055 8.07126C4.21225 8.08969 4.21982 8.10762 4.22693 8.12585Z" fill="#F04E27"/>
<path d="M9.44531 19.8047C9.02464 19.8047 8.68359 20.1457 8.68359 20.5664C8.68359 20.9871 9.02464 21.3281 9.44531 21.3281H10.3092L10.3799 19.8047H9.44531Z" fill="#F04E27"/>
<path d="M16.5547 21.3281C16.9754 21.3281 17.3164 20.9871 17.3164 20.5664C17.3164 20.1457 16.9754 19.8047 16.5547 19.8047H15.6201L15.6908 21.3281H16.5547Z" fill="#F04E27"/>
<path d="M12.3466 13.5134C15.2859 9.95734 20.8542 9.66017 21.0898 9.64925L21.1075 9.64844H4.87502C4.59248 9.64844 4.33309 9.80484 4.20126 10.0548C4.06943 10.3047 4.0868 10.6071 4.24635 10.8403L10.3799 19.8047H10.6766C10.3938 17.3132 10.9544 15.1979 12.3466 13.5134Z" fill="#F04E27"/>
<path d="M21.1604 11.1719C21.0837 11.1758 16.0139 11.462 13.5166 14.4898C12.3715 15.8782 11.9328 17.6662 12.2109 19.8055H15.62L21.5392 11.1543L21.1604 11.1719Z" fill="#F04E27"/>
<path d="M9.22236 25.0234C9.15462 25.2537 9.19946 25.5024 9.34327 25.6947C9.48708 25.8869 9.71306 26 9.95315 26H16.0469C16.287 26 16.513 25.8869 16.6568 25.6947C16.8006 25.5024 16.8454 25.2537 16.7777 25.0234L15.6908 21.3281H10.3092L9.22236 25.0234Z" fill="#F04E27"/>
</g>
<defs>
<clipPath id="clip0">
<rect width="26" height="26" fill="white"/>
</clipPath>
</defs>
</svg>
