<svg width="46" height="64" viewBox="0 0 46 64" fill="none" xmlns="http://www.w3.org/2000/svg">
<mask id="path-1-outside-1" maskUnits="userSpaceOnUse" x="0" y="0" width="46" height="64" fill="black">
<rect fill="white" width="46" height="64"/>
<path d="M45.0077 35.9358C44.7927 34.2904 43.6417 33.0054 42.2063 32.812C41.8348 32.7647 41.4943 32.7895 41.1814 32.8675C41.7629 31.2039 45.602 19.4227 39.9045 13.9182C40.2295 12.1843 40.289 7.66787 33.6567 3.59805C32.8701 3.11496 32.2655 2.42567 31.9114 1.60733C31.766 1.27096 31.4435 1.05214 31.0805 1.00528C30.7162 0.968674 30.3457 1.12423 30.1206 1.41123C30.1067 1.4289 28.6725 3.19323 22.8471 3.84198C22.2426 3.84956 8.38748 4.13669 6.08451 13.1642C5.33953 13.3248 4.26337 13.7333 3.3944 14.7818C1.95634 16.517 1.63638 19.2868 2.42302 22.8748L2.76444 27.2014C2.76248 27.3345 2.74929 29.7405 3.69878 32.3979C2.39553 32.5997 1.32428 33.7947 1.07221 35.3589C0.843291 36.7715 1.19621 38.0805 1.60468 39.597C1.97906 40.9857 2.40268 42.5602 2.5595 44.7128C2.67593 46.3178 2.99589 48.1984 4.44643 48.5019C4.56159 48.5259 4.67409 48.5373 4.78658 48.5373C5.54671 48.5373 6.25227 48.0155 6.8473 47.3406L7.0441 50.7C7.05799 50.8024 7.38426 53.2129 9.09935 54.7534C10.5526 56.0586 15.6772 60.4194 15.6924 60.432L16.7926 61.3325C18.1057 62.4077 19.7613 62.9996 21.4572 62.9996H24.4343C26.1442 62.9996 27.8112 62.3976 29.1278 61.3099L32.2453 58.7299L36.8274 54.5588C37.0031 54.4451 38.5411 53.3599 38.6245 50.2702L38.7569 48.3165C39.288 48.8236 39.8966 49.1901 40.5482 49.1901C40.6481 49.1901 40.7493 49.1813 40.8505 49.1636C42.377 48.893 42.7931 46.8935 42.9739 45.4125C43.2394 43.2283 43.7706 41.6448 44.2386 40.2486C44.7523 38.7169 45.1949 37.3953 45.0077 35.9358ZM4.96781 16.1314C5.76581 15.1436 6.88012 15.136 6.91547 15.136C7.38468 15.093 7.87535 14.7831 7.964 14.2773C9.36909 6.19825 22.7398 5.91616 22.9751 5.90733C23.0284 5.90144 23.08 5.89512 23.1326 5.88895C21.9995 7.20581 20.7007 8.11828 17.6226 8.34313C17.0523 8.38493 16.6235 8.88065 16.6653 9.45225C16.7046 9.99734 17.1597 10.4121 17.6972 10.4121C17.7225 10.4121 17.7479 10.4121 17.7744 10.4096C22.5804 10.0579 24.1448 8.01798 25.6575 6.04381L26.0521 5.5328C26.0885 5.48638 26.1192 5.43728 26.1465 5.38706C28.4253 4.87059 29.8375 4.18438 30.6848 3.61797C30.8458 3.84184 31.023 4.05407 31.2123 4.25578C30.4926 6.04521 28.7005 9.65452 23.1382 11.5997C22.5969 11.788 22.3123 12.3787 22.5021 12.9188C22.6513 13.3463 23.051 13.6131 23.4798 13.6131C23.5935 13.6131 23.7087 13.5954 23.8212 13.5549C29.7114 11.4952 31.9344 7.78485 32.9068 5.57278C34.0929 6.33235 35.0075 7.09416 35.7103 7.83198C34.9771 9.64176 33.1613 13.2344 27.5862 15.1624C27.0462 15.3495 26.759 15.9389 26.9463 16.4802C27.0943 16.909 27.4952 17.1771 27.9252 17.1771C28.0377 17.1771 28.1516 17.1594 28.2641 17.1202C33.684 15.2461 36.0191 11.9792 37.1292 9.73307C38.4067 12.0457 37.8171 13.7936 37.7787 13.9002C37.6193 14.3163 37.7433 14.788 38.0873 15.0714C42.7465 18.9099 40.4574 28.1638 39.5126 31.2851C39.4443 30.5643 39.2571 29.8649 38.9549 29.2008C38.6007 28.4243 38.4173 27.5996 38.4098 26.7485C38.4035 26.0693 38.411 25.1904 38.4541 24.1507C38.5857 21.0357 36.4015 19.3119 36.3091 19.241C36.3065 19.2385 36.304 19.2373 36.3015 19.2347C32.9601 16.7014 24.6421 20.0479 22.946 20.7714L22.7829 20.7676C22.7438 20.7563 22.21 20.5982 15.5462 18.5619C13.3253 17.8814 11.4814 17.9346 10.0661 18.7073C8.88866 19.3523 8.04255 20.4918 7.62132 22.002C7.38861 22.8355 7.31398 23.7447 7.40123 24.7047C7.61122 27.028 6.94339 28.533 6.9295 28.5609C6.817 28.8163 5.97594 30.7692 5.9772 32.5182C4.82754 29.9229 4.83638 27.2431 4.83385 27.133L4.46957 22.5736C3.81689 19.5689 3.99013 17.3405 4.96781 16.1314ZM6.36028 44.3575C5.93652 45.1568 5.32073 45.994 4.9312 46.3317C4.83385 46.075 4.69849 45.5577 4.62639 44.5636C4.45569 42.2125 3.98395 40.4633 3.60578 39.0582C3.2314 37.6683 2.96082 36.6628 3.1189 35.6889C3.22509 35.0299 3.62991 34.481 4.0409 34.4394C4.39944 34.4008 4.77354 34.9575 5.06488 35.6774L5.90524 39.4974C5.90286 39.9935 5.9469 41.6837 6.61459 43.3582L6.65303 44.0147C6.53492 44.1038 6.43364 44.2184 6.36028 44.3575ZM36.5555 50.1727C36.4998 52.1849 35.7044 52.8135 35.569 52.9196L30.8896 57.1616L27.8074 59.7113C26.8602 60.4954 25.6624 60.9254 24.4343 60.9254H21.4572C20.2392 60.9254 19.0492 60.5006 18.1057 59.7291L17.0206 58.8413C17.0206 58.8413 11.9287 54.5109 10.4845 53.2107C9.36909 52.2103 9.11099 50.5067 9.1072 50.5067L8.67335 43.0638C8.66577 42.945 8.63926 42.8286 8.59241 42.7186C7.97227 41.2626 7.97424 39.682 7.97831 39.4598C8.06008 38.7662 8.50797 34.7074 8.09796 33.0118C7.87408 32.0861 8.42423 30.3066 8.81502 29.4226C8.85163 29.3429 9.72818 27.4357 9.46504 24.518C9.40051 23.8098 9.45115 23.1508 9.61681 22.5603C9.88879 21.5851 10.3744 20.901 11.0612 20.5254C11.9706 20.0284 13.277 20.036 14.9413 20.543C22.039 22.7133 22.2186 22.7627 22.4183 22.7968L23.0761 22.8449C23.243 22.8525 23.4124 22.8285 23.568 22.7602C26.9828 21.2615 33.1129 19.4364 35.0441 20.8821C35.0973 20.9264 36.4681 22.0709 36.3847 24.0654C36.3391 25.148 36.3315 26.0624 36.3378 26.7669C36.3479 27.9115 36.5945 29.0206 37.07 30.0615C37.3091 30.5877 37.4432 31.1467 37.4646 31.7221C37.5115 32.9855 37.5481 34.7574 37.4571 36.031C37.428 36.4496 37.4545 36.8582 37.5342 37.2465C37.5803 37.4733 37.699 37.6707 37.8638 37.8158C37.7152 38.495 37.5456 39.5039 37.2964 40.9889C37.1623 41.792 37.0688 42.5964 37.0131 43.4096L36.5555 50.1727ZM42.2734 39.5883C41.7991 41.006 41.2072 42.7691 40.9163 45.162C40.7557 46.4849 40.5091 46.9692 40.5179 47.0932C40.1603 46.9029 39.4753 46.0242 38.9739 45.1144L39.08 43.5494C39.1306 42.8032 39.2166 42.0672 39.3405 41.3298C39.6147 39.6952 39.7684 38.7875 39.8529 38.2956C39.9419 38.1761 40.0075 38.0362 40.0386 37.8809C40.0965 37.5915 40.1964 37.2312 40.3284 36.8614C40.4854 36.5928 40.62 36.2809 40.7335 35.927C41.0685 35.2945 41.4872 34.8103 41.9294 34.8658C42.4226 34.9316 42.8628 35.507 42.9526 36.2013C43.0804 37.1878 42.7413 38.1946 42.2734 39.5883Z"/>
</mask>
<path d="M45.0077 35.9358C44.7927 34.2904 43.6417 33.0054 42.2063 32.812C41.8348 32.7647 41.4943 32.7895 41.1814 32.8675C41.7629 31.2039 45.602 19.4227 39.9045 13.9182C40.2295 12.1843 40.289 7.66787 33.6567 3.59805C32.8701 3.11496 32.2655 2.42567 31.9114 1.60733C31.766 1.27096 31.4435 1.05214 31.0805 1.00528C30.7162 0.968674 30.3457 1.12423 30.1206 1.41123C30.1067 1.4289 28.6725 3.19323 22.8471 3.84198C22.2426 3.84956 8.38748 4.13669 6.08451 13.1642C5.33953 13.3248 4.26337 13.7333 3.3944 14.7818C1.95634 16.517 1.63638 19.2868 2.42302 22.8748L2.76444 27.2014C2.76248 27.3345 2.74929 29.7405 3.69878 32.3979C2.39553 32.5997 1.32428 33.7947 1.07221 35.3589C0.843291 36.7715 1.19621 38.0805 1.60468 39.597C1.97906 40.9857 2.40268 42.5602 2.5595 44.7128C2.67593 46.3178 2.99589 48.1984 4.44643 48.5019C4.56159 48.5259 4.67409 48.5373 4.78658 48.5373C5.54671 48.5373 6.25227 48.0155 6.8473 47.3406L7.0441 50.7C7.05799 50.8024 7.38426 53.2129 9.09935 54.7534C10.5526 56.0586 15.6772 60.4194 15.6924 60.432L16.7926 61.3325C18.1057 62.4077 19.7613 62.9996 21.4572 62.9996H24.4343C26.1442 62.9996 27.8112 62.3976 29.1278 61.3099L32.2453 58.7299L36.8274 54.5588C37.0031 54.4451 38.5411 53.3599 38.6245 50.2702L38.7569 48.3165C39.288 48.8236 39.8966 49.1901 40.5482 49.1901C40.6481 49.1901 40.7493 49.1813 40.8505 49.1636C42.377 48.893 42.7931 46.8935 42.9739 45.4125C43.2394 43.2283 43.7706 41.6448 44.2386 40.2486C44.7523 38.7169 45.1949 37.3953 45.0077 35.9358ZM4.96781 16.1314C5.76581 15.1436 6.88012 15.136 6.91547 15.136C7.38468 15.093 7.87535 14.7831 7.964 14.2773C9.36909 6.19825 22.7398 5.91616 22.9751 5.90733C23.0284 5.90144 23.08 5.89512 23.1326 5.88895C21.9995 7.20581 20.7007 8.11828 17.6226 8.34313C17.0523 8.38493 16.6235 8.88065 16.6653 9.45225C16.7046 9.99734 17.1597 10.4121 17.6972 10.4121C17.7225 10.4121 17.7479 10.4121 17.7744 10.4096C22.5804 10.0579 24.1448 8.01798 25.6575 6.04381L26.0521 5.5328C26.0885 5.48638 26.1192 5.43728 26.1465 5.38706C28.4253 4.87059 29.8375 4.18438 30.6848 3.61797C30.8458 3.84184 31.023 4.05407 31.2123 4.25578C30.4926 6.04521 28.7005 9.65452 23.1382 11.5997C22.5969 11.788 22.3123 12.3787 22.5021 12.9188C22.6513 13.3463 23.051 13.6131 23.4798 13.6131C23.5935 13.6131 23.7087 13.5954 23.8212 13.5549C29.7114 11.4952 31.9344 7.78485 32.9068 5.57278C34.0929 6.33235 35.0075 7.09416 35.7103 7.83198C34.9771 9.64176 33.1613 13.2344 27.5862 15.1624C27.0462 15.3495 26.759 15.9389 26.9463 16.4802C27.0943 16.909 27.4952 17.1771 27.9252 17.1771C28.0377 17.1771 28.1516 17.1594 28.2641 17.1202C33.684 15.2461 36.0191 11.9792 37.1292 9.73307C38.4067 12.0457 37.8171 13.7936 37.7787 13.9002C37.6193 14.3163 37.7433 14.788 38.0873 15.0714C42.7465 18.9099 40.4574 28.1638 39.5126 31.2851C39.4443 30.5643 39.2571 29.8649 38.9549 29.2008C38.6007 28.4243 38.4173 27.5996 38.4098 26.7485C38.4035 26.0693 38.411 25.1904 38.4541 24.1507C38.5857 21.0357 36.4015 19.3119 36.3091 19.241C36.3065 19.2385 36.304 19.2373 36.3015 19.2347C32.9601 16.7014 24.6421 20.0479 22.946 20.7714L22.7829 20.7676C22.7438 20.7563 22.21 20.5982 15.5462 18.5619C13.3253 17.8814 11.4814 17.9346 10.0661 18.7073C8.88866 19.3523 8.04255 20.4918 7.62132 22.002C7.38861 22.8355 7.31398 23.7447 7.40123 24.7047C7.61122 27.028 6.94339 28.533 6.9295 28.5609C6.817 28.8163 5.97594 30.7692 5.9772 32.5182C4.82754 29.9229 4.83638 27.2431 4.83385 27.133L4.46957 22.5736C3.81689 19.5689 3.99013 17.3405 4.96781 16.1314ZM6.36028 44.3575C5.93652 45.1568 5.32073 45.994 4.9312 46.3317C4.83385 46.075 4.69849 45.5577 4.62639 44.5636C4.45569 42.2125 3.98395 40.4633 3.60578 39.0582C3.2314 37.6683 2.96082 36.6628 3.1189 35.6889C3.22509 35.0299 3.62991 34.481 4.0409 34.4394C4.39944 34.4008 4.77354 34.9575 5.06488 35.6774L5.90524 39.4974C5.90286 39.9935 5.9469 41.6837 6.61459 43.3582L6.65303 44.0147C6.53492 44.1038 6.43364 44.2184 6.36028 44.3575ZM36.5555 50.1727C36.4998 52.1849 35.7044 52.8135 35.569 52.9196L30.8896 57.1616L27.8074 59.7113C26.8602 60.4954 25.6624 60.9254 24.4343 60.9254H21.4572C20.2392 60.9254 19.0492 60.5006 18.1057 59.7291L17.0206 58.8413C17.0206 58.8413 11.9287 54.5109 10.4845 53.2107C9.36909 52.2103 9.11099 50.5067 9.1072 50.5067L8.67335 43.0638C8.66577 42.945 8.63926 42.8286 8.59241 42.7186C7.97227 41.2626 7.97424 39.682 7.97831 39.4598C8.06008 38.7662 8.50797 34.7074 8.09796 33.0118C7.87408 32.0861 8.42423 30.3066 8.81502 29.4226C8.85163 29.3429 9.72818 27.4357 9.46504 24.518C9.40051 23.8098 9.45115 23.1508 9.61681 22.5603C9.88879 21.5851 10.3744 20.901 11.0612 20.5254C11.9706 20.0284 13.277 20.036 14.9413 20.543C22.039 22.7133 22.2186 22.7627 22.4183 22.7968L23.0761 22.8449C23.243 22.8525 23.4124 22.8285 23.568 22.7602C26.9828 21.2615 33.1129 19.4364 35.0441 20.8821C35.0973 20.9264 36.4681 22.0709 36.3847 24.0654C36.3391 25.148 36.3315 26.0624 36.3378 26.7669C36.3479 27.9115 36.5945 29.0206 37.07 30.0615C37.3091 30.5877 37.4432 31.1467 37.4646 31.7221C37.5115 32.9855 37.5481 34.7574 37.4571 36.031C37.428 36.4496 37.4545 36.8582 37.5342 37.2465C37.5803 37.4733 37.699 37.6707 37.8638 37.8158C37.7152 38.495 37.5456 39.5039 37.2964 40.9889C37.1623 41.792 37.0688 42.5964 37.0131 43.4096L36.5555 50.1727ZM42.2734 39.5883C41.7991 41.006 41.2072 42.7691 40.9163 45.162C40.7557 46.4849 40.5091 46.9692 40.5179 47.0932C40.1603 46.9029 39.4753 46.0242 38.9739 45.1144L39.08 43.5494C39.1306 42.8032 39.2166 42.0672 39.3405 41.3298C39.6147 39.6952 39.7684 38.7875 39.8529 38.2956C39.9419 38.1761 40.0075 38.0362 40.0386 37.8809C40.0965 37.5915 40.1964 37.2312 40.3284 36.8614C40.4854 36.5928 40.62 36.2809 40.7335 35.927C41.0685 35.2945 41.4872 34.8103 41.9294 34.8658C42.4226 34.9316 42.8628 35.507 42.9526 36.2013C43.0804 37.1878 42.7413 38.1946 42.2734 39.5883Z" fill="white"/>
<path d="M45.0077 35.9358C44.7927 34.2904 43.6417 33.0054 42.2063 32.812C41.8348 32.7647 41.4943 32.7895 41.1814 32.8675C41.7629 31.2039 45.602 19.4227 39.9045 13.9182C40.2295 12.1843 40.289 7.66787 33.6567 3.59805C32.8701 3.11496 32.2655 2.42567 31.9114 1.60733C31.766 1.27096 31.4435 1.05214 31.0805 1.00528C30.7162 0.968674 30.3457 1.12423 30.1206 1.41123C30.1067 1.4289 28.6725 3.19323 22.8471 3.84198C22.2426 3.84956 8.38748 4.13669 6.08451 13.1642C5.33953 13.3248 4.26337 13.7333 3.3944 14.7818C1.95634 16.517 1.63638 19.2868 2.42302 22.8748L2.76444 27.2014C2.76248 27.3345 2.74929 29.7405 3.69878 32.3979C2.39553 32.5997 1.32428 33.7947 1.07221 35.3589C0.843291 36.7715 1.19621 38.0805 1.60468 39.597C1.97906 40.9857 2.40268 42.5602 2.5595 44.7128C2.67593 46.3178 2.99589 48.1984 4.44643 48.5019C4.56159 48.5259 4.67409 48.5373 4.78658 48.5373C5.54671 48.5373 6.25227 48.0155 6.8473 47.3406L7.0441 50.7C7.05799 50.8024 7.38426 53.2129 9.09935 54.7534C10.5526 56.0586 15.6772 60.4194 15.6924 60.432L16.7926 61.3325C18.1057 62.4077 19.7613 62.9996 21.4572 62.9996H24.4343C26.1442 62.9996 27.8112 62.3976 29.1278 61.3099L32.2453 58.7299L36.8274 54.5588C37.0031 54.4451 38.5411 53.3599 38.6245 50.2702L38.7569 48.3165C39.288 48.8236 39.8966 49.1901 40.5482 49.1901C40.6481 49.1901 40.7493 49.1813 40.8505 49.1636C42.377 48.893 42.7931 46.8935 42.9739 45.4125C43.2394 43.2283 43.7706 41.6448 44.2386 40.2486C44.7523 38.7169 45.1949 37.3953 45.0077 35.9358ZM4.96781 16.1314C5.76581 15.1436 6.88012 15.136 6.91547 15.136C7.38468 15.093 7.87535 14.7831 7.964 14.2773C9.36909 6.19825 22.7398 5.91616 22.9751 5.90733C23.0284 5.90144 23.08 5.89512 23.1326 5.88895C21.9995 7.20581 20.7007 8.11828 17.6226 8.34313C17.0523 8.38493 16.6235 8.88065 16.6653 9.45225C16.7046 9.99734 17.1597 10.4121 17.6972 10.4121C17.7225 10.4121 17.7479 10.4121 17.7744 10.4096C22.5804 10.0579 24.1448 8.01798 25.6575 6.04381L26.0521 5.5328C26.0885 5.48638 26.1192 5.43728 26.1465 5.38706C28.4253 4.87059 29.8375 4.18438 30.6848 3.61797C30.8458 3.84184 31.023 4.05407 31.2123 4.25578C30.4926 6.04521 28.7005 9.65452 23.1382 11.5997C22.5969 11.788 22.3123 12.3787 22.5021 12.9188C22.6513 13.3463 23.051 13.6131 23.4798 13.6131C23.5935 13.6131 23.7087 13.5954 23.8212 13.5549C29.7114 11.4952 31.9344 7.78485 32.9068 5.57278C34.0929 6.33235 35.0075 7.09416 35.7103 7.83198C34.9771 9.64176 33.1613 13.2344 27.5862 15.1624C27.0462 15.3495 26.759 15.9389 26.9463 16.4802C27.0943 16.909 27.4952 17.1771 27.9252 17.1771C28.0377 17.1771 28.1516 17.1594 28.2641 17.1202C33.684 15.2461 36.0191 11.9792 37.1292 9.73307C38.4067 12.0457 37.8171 13.7936 37.7787 13.9002C37.6193 14.3163 37.7433 14.788 38.0873 15.0714C42.7465 18.9099 40.4574 28.1638 39.5126 31.2851C39.4443 30.5643 39.2571 29.8649 38.9549 29.2008C38.6007 28.4243 38.4173 27.5996 38.4098 26.7485C38.4035 26.0693 38.411 25.1904 38.4541 24.1507C38.5857 21.0357 36.4015 19.3119 36.3091 19.241C36.3065 19.2385 36.304 19.2373 36.3015 19.2347C32.9601 16.7014 24.6421 20.0479 22.946 20.7714L22.7829 20.7676C22.7438 20.7563 22.21 20.5982 15.5462 18.5619C13.3253 17.8814 11.4814 17.9346 10.0661 18.7073C8.88866 19.3523 8.04255 20.4918 7.62132 22.002C7.38861 22.8355 7.31398 23.7447 7.40123 24.7047C7.61122 27.028 6.94339 28.533 6.9295 28.5609C6.817 28.8163 5.97594 30.7692 5.9772 32.5182C4.82754 29.9229 4.83638 27.2431 4.83385 27.133L4.46957 22.5736C3.81689 19.5689 3.99013 17.3405 4.96781 16.1314ZM6.36028 44.3575C5.93652 45.1568 5.32073 45.994 4.9312 46.3317C4.83385 46.075 4.69849 45.5577 4.62639 44.5636C4.45569 42.2125 3.98395 40.4633 3.60578 39.0582C3.2314 37.6683 2.96082 36.6628 3.1189 35.6889C3.22509 35.0299 3.62991 34.481 4.0409 34.4394C4.39944 34.4008 4.77354 34.9575 5.06488 35.6774L5.90524 39.4974C5.90286 39.9935 5.9469 41.6837 6.61459 43.3582L6.65303 44.0147C6.53492 44.1038 6.43364 44.2184 6.36028 44.3575ZM36.5555 50.1727C36.4998 52.1849 35.7044 52.8135 35.569 52.9196L30.8896 57.1616L27.8074 59.7113C26.8602 60.4954 25.6624 60.9254 24.4343 60.9254H21.4572C20.2392 60.9254 19.0492 60.5006 18.1057 59.7291L17.0206 58.8413C17.0206 58.8413 11.9287 54.5109 10.4845 53.2107C9.36909 52.2103 9.11099 50.5067 9.1072 50.5067L8.67335 43.0638C8.66577 42.945 8.63926 42.8286 8.59241 42.7186C7.97227 41.2626 7.97424 39.682 7.97831 39.4598C8.06008 38.7662 8.50797 34.7074 8.09796 33.0118C7.87408 32.0861 8.42423 30.3066 8.81502 29.4226C8.85163 29.3429 9.72818 27.4357 9.46504 24.518C9.40051 23.8098 9.45115 23.1508 9.61681 22.5603C9.88879 21.5851 10.3744 20.901 11.0612 20.5254C11.9706 20.0284 13.277 20.036 14.9413 20.543C22.039 22.7133 22.2186 22.7627 22.4183 22.7968L23.0761 22.8449C23.243 22.8525 23.4124 22.8285 23.568 22.7602C26.9828 21.2615 33.1129 19.4364 35.0441 20.8821C35.0973 20.9264 36.4681 22.0709 36.3847 24.0654C36.3391 25.148 36.3315 26.0624 36.3378 26.7669C36.3479 27.9115 36.5945 29.0206 37.07 30.0615C37.3091 30.5877 37.4432 31.1467 37.4646 31.7221C37.5115 32.9855 37.5481 34.7574 37.4571 36.031C37.428 36.4496 37.4545 36.8582 37.5342 37.2465C37.5803 37.4733 37.699 37.6707 37.8638 37.8158C37.7152 38.495 37.5456 39.5039 37.2964 40.9889C37.1623 41.792 37.0688 42.5964 37.0131 43.4096L36.5555 50.1727ZM42.2734 39.5883C41.7991 41.006 41.2072 42.7691 40.9163 45.162C40.7557 46.4849 40.5091 46.9692 40.5179 47.0932C40.1603 46.9029 39.4753 46.0242 38.9739 45.1144L39.08 43.5494C39.1306 42.8032 39.2166 42.0672 39.3405 41.3298C39.6147 39.6952 39.7684 38.7875 39.8529 38.2956C39.9419 38.1761 40.0075 38.0362 40.0386 37.8809C40.0965 37.5915 40.1964 37.2312 40.3284 36.8614C40.4854 36.5928 40.62 36.2809 40.7335 35.927C41.0685 35.2945 41.4872 34.8103 41.9294 34.8658C42.4226 34.9316 42.8628 35.507 42.9526 36.2013C43.0804 37.1878 42.7413 38.1946 42.2734 39.5883Z" stroke="white" mask="url(#path-1-outside-1)"/>
</svg>
