<svg width="214" height="254" viewBox="0 0 214 254" fill="none" xmlns="http://www.w3.org/2000/svg">
<g filter="url(#filter0_d)">
<path d="M114.626 221.047C109.988 224.059 104.012 224.059 99.3741 221.047L37.1639 180.64C33.1885 178.058 30.7898 173.64 30.7898 168.899L30.7898 85.1007C30.7898 80.3604 33.1885 75.942 37.1639 73.3599L99.3741 32.9532C104.012 29.9409 109.988 29.9409 114.626 32.9532L176.836 73.3599C180.811 75.942 183.21 80.3604 183.21 85.1007L183.21 168.899C183.21 173.64 180.811 178.058 176.836 180.64L114.626 221.047Z" fill="#FFCC32"/>
</g>
<path d="M84.5189 108.832H86.3189V115.216H83.0069V112H73.7189V115.216H70.4069V108.832H72.0389C72.9669 107.536 73.4309 105.64 73.4309 103.144V95.2H84.5189V108.832ZM75.5909 108.832H81.2069V98.296H76.7429V103.192C76.7429 105.624 76.3589 107.504 75.5909 108.832ZM99.4225 112L98.4145 108.976H91.7185L90.7105 112H87.1345L93.0145 95.2H97.1185L103.023 112H99.4225ZM92.7745 105.88H97.3825L95.0785 99.016L92.7745 105.88ZM103.545 112V108.928C104.537 109.072 105.281 108.872 105.777 108.328C106.273 107.784 106.521 106.72 106.521 105.136V95.2H117.945V112H114.657V98.368H109.809V105.04C109.809 106.496 109.633 107.72 109.281 108.712C108.929 109.704 108.441 110.44 107.817 110.92C107.209 111.4 106.553 111.72 105.849 111.88C105.161 112.04 104.393 112.08 103.545 112ZM124.372 108.832H131.452V112H121.06V95.2H131.332V98.368H124.372V101.944H130.732V105.064H124.372V108.832ZM137.099 108.832H144.179V112H133.787V95.2H144.059V98.368H137.099V101.944H143.459V105.064H137.099V108.832Z" fill="#141B1F"/>
<path d="M105 158L111 152L105 146" stroke="#141B1F" stroke-width="4" stroke-linecap="round" stroke-linejoin="round"/>
<defs>
<filter id="filter0_d" x="0.789772" y="0.694336" width="212.42" height="252.612" filterUnits="userSpaceOnUse" color-interpolation-filters="sRGB">
<feFlood flood-opacity="0" result="BackgroundImageFix"/>
<feColorMatrix in="SourceAlpha" type="matrix" values="0 0 0 0 0 0 0 0 0 0 0 0 0 0 0 0 0 0 127 0" result="hardAlpha"/>
<feOffset/>
<feGaussianBlur stdDeviation="15"/>
<feColorMatrix type="matrix" values="0 0 0 0 0.94902 0 0 0 0 0.788235 0 0 0 0 0.298039 0 0 0 0.55 0"/>
<feBlend mode="normal" in2="BackgroundImageFix" result="effect1_dropShadow"/>
<feBlend mode="normal" in="SourceGraphic" in2="effect1_dropShadow" result="shape"/>
</filter>
</defs>
</svg>
