<svg width="28" height="28" viewBox="0 0 28 28" fill="none" xmlns="http://www.w3.org/2000/svg">
<path fill-rule="evenodd" clip-rule="evenodd" d="M5.60039 1.39844C4.05399 1.39844 2.80039 2.65204 2.80039 4.19844V5.59844H1.40039V11.1984H2.80039V19.5984H25.2004V11.1984H26.6004V5.59844H25.2004V4.19844C25.2004 2.65204 23.9468 1.39844 22.4004 1.39844H5.60039ZM4.20039 5.59844C4.20039 4.82524 4.82719 4.19844 5.60039 4.19844H12.6004V11.1984H4.20039V5.59844ZM15.4004 4.19844H22.4004C23.1736 4.19844 23.8004 4.82524 23.8004 5.59844V11.1984H15.4004V4.19844ZM5.60039 13.9984H8.40039V16.7984H5.60039V13.9984ZM19.6004 13.9984H22.4004V16.7984H19.6004V13.9984Z" fill="white"/>
<path d="M2.80039 20.9984V25.1984C2.80039 25.9716 3.42719 26.5984 4.20039 26.5984C4.97359 26.5984 5.60039 25.9716 5.60039 25.1984V23.7984H22.4004V25.1984C22.4004 25.9716 23.0272 26.5984 23.8004 26.5984C24.5736 26.5984 25.2004 25.9716 25.2004 25.1984V20.9984H2.80039Z" fill="white"/>
</svg>
