<svg width="16" height="16" viewBox="0 0 16 16" fill="none" xmlns="http://www.w3.org/2000/svg">
<g clip-path="url(#clip0_2364_4304)">
<path d="M5.53369 11.7731L4.91059 10.7621L3.59491 10.9985L5.32523 7.92969H1.95117L1.95117 16.0003H7.70028L7.70028 7.92969L5.53369 11.7731Z" fill="white"/>
<path d="M14.9959 4.07803H11.1781C11.4014 3.96298 11.6008 3.8428 11.7773 3.71522C12.4562 3.22882 12.8168 2.61256 12.8156 2.00085C12.8156 1.49907 12.5781 0.780293 12.233 0.480706C11.8872 0.177702 11.4288 0 10.9395 0C10.4167 0 9.93082 0.17941 9.51447 0.458494C8.88853 0.877688 8.39871 1.78556 8.04957 2.47814C8.03191 2.51289 8.01426 2.54649 7.99717 2.58009C7.86959 2.31297 7.72037 1.77816 7.55121 1.53439C7.25504 1.11178 6.89906 0.738146 6.48101 0.458494C6.0658 0.17941 5.58054 0 5.05826 0C4.53768 0.00170867 4.06096 0.219849 3.70442 0.556457C3.34958 0.889648 3.10126 1.63975 3.09898 2.17571C3.0967 2.48839 3.18783 2.81589 3.37635 3.11377C3.61329 3.48683 3.98863 3.81205 4.50692 4.07803H0.992187L1.00016 7.28748H7.60019V4.07803H8.4044V7.28748L15.0056 7.28748L14.9959 4.07803ZM4.73475 3.07447C4.4699 2.90702 4.30701 2.739 4.21132 2.58807C4.11849 2.43827 4.08602 2.17514 4.08602 2.04585C4.08374 1.82999 4.19139 1.45123 4.38276 1.27353C4.56958 1.09526 4.8236 0.985334 5.05142 0.985334H5.05826C5.35158 0.987612 5.64205 1.08558 5.9348 1.27866C6.37052 1.56628 6.78117 2.34828 7.06652 2.92126C7.21574 3.21287 7.32965 3.51758 7.40654 3.81546C6.0846 3.67877 5.23026 3.38716 4.73475 3.07447ZM9.25305 2.37676C9.49112 2.0356 9.77191 1.47287 10.063 1.27866C10.3523 1.08558 10.6462 0.987612 10.9395 0.985334H10.9424C11.1867 0.985334 11.4219 1.08102 11.582 1.22284C11.7426 1.36694 11.8286 1.63064 11.8286 1.81632C11.8252 2.0356 11.7118 2.54022 11.1998 2.91442C10.714 3.26869 9.87045 3.6315 8.57356 3.88552C8.69602 3.37121 8.9358 2.82671 9.25305 2.37676Z" fill="white"/>
<path d="M12.4105 10.9854L11.0954 10.7621L10.4746 11.785L8.33594 7.98152V16.0003H14.056V7.92969H10.6819L12.4105 10.9854Z" fill="white"/>
</g>
<defs>
<clipPath id="clip0_2364_4304">
<rect width="16" height="16" fill="white"/>
</clipPath>
</defs>
</svg>
