<svg width="29" height="32" viewBox="0 0 29 32" fill="none" xmlns="http://www.w3.org/2000/svg">
<path d="M13.1232 14.8242V7.68359H1.71271C0.766932 7.68359 0 8.45053 0 9.3963V13.1115C0 14.0573 0.766932 14.8242 1.71271 14.8242H13.1232Z" fill="white"/>
<path d="M26.6165 7.68359H15.206V14.8242H26.6165C27.5623 14.8242 28.3292 14.0573 28.3292 13.1115V9.3963C28.3296 8.45053 27.5626 7.68359 26.6165 7.68359Z" fill="white"/>
<path d="M9.83783 0.420622C9.34432 0.145422 8.78574 0 8.22361 0C7.01935 0 5.90681 0.653155 5.32086 1.70418C4.42948 3.30346 5.00513 5.32977 6.60441 6.22115C7.00263 6.44301 7.81259 6.73812 10.2385 6.73812C11.5758 6.73812 12.7587 6.64675 12.8085 6.64283C13.0766 6.62186 13.3162 6.46826 13.4471 6.23359C13.5779 5.99857 13.5825 5.71412 13.4595 5.47484C13.0929 4.76408 11.1953 1.17724 9.83783 0.420622ZM10.2385 5.13279C8.1141 5.13279 7.51819 4.89244 7.38628 4.81884C6.56032 4.35839 6.26308 3.31164 6.72317 2.48569C7.0261 1.9424 7.60068 1.60498 8.22361 1.60498C8.51303 1.60498 8.80103 1.68035 9.05632 1.82258C9.55445 2.10026 10.5642 3.58151 11.4346 5.10933C11.0741 5.12319 10.6631 5.13279 10.2385 5.13279Z" fill="white"/>
<path d="M18.0906 6.73848C20.5166 6.73848 21.3265 6.44337 21.7248 6.2215C23.3241 5.33012 23.8997 3.30382 23.0083 1.70453C22.4224 0.653154 21.3102 0 20.1056 0C19.5431 0 18.9849 0.145422 18.491 0.420622C17.1335 1.17724 15.2359 4.76408 14.8693 5.47519C14.7459 5.71412 14.7509 5.99892 14.8818 6.23395C15.0126 6.46897 15.2522 6.62257 15.5203 6.64319C15.5701 6.6471 16.7534 6.73848 18.0906 6.73848ZM19.2729 1.82293C19.5281 1.68071 19.8162 1.60533 20.1056 1.60533C20.7285 1.60533 21.3031 1.94275 21.606 2.48604C22.0665 3.31199 21.7689 4.35839 20.9429 4.81919C20.811 4.89279 20.2147 5.13315 18.0906 5.13315C17.6665 5.13315 17.2554 5.12319 16.8949 5.11004C17.765 3.58186 18.7747 2.10062 19.2729 1.82293Z" fill="white"/>
<path d="M22.3054 20.9526C22.5486 21.1958 22.449 21.5595 22.1408 21.5538L20.1717 21.7626L19.963 23.7316C19.9687 24.0399 19.6049 24.1394 19.3617 23.8962L15.206 19.7409V31.9993H25.6273C26.2403 31.9993 26.737 31.5026 26.737 30.8897V16.7969H18.15L22.3054 20.9526Z" fill="white"/>
<path d="M8.36622 23.7316L8.15751 21.7626L6.18844 21.5538C5.88018 21.5595 5.78062 21.1958 6.02382 20.9526L10.1795 16.7969H1.59183V30.8893C1.59183 31.5023 2.08854 31.999 2.70151 31.999H13.1228V19.7405L8.96746 23.8962C8.72426 24.1394 8.36053 24.0399 8.36622 23.7316Z" fill="white"/>
</svg>
