<svg version="1.2" xmlns="http://www.w3.org/2000/svg" viewBox="0 0 60 60" width="60" height="60">
	<title>glasses-svg</title>
	<style>
		.s0 { fill: #ffffff } 
	</style>
	<g id="Layer" style="opacity: .2">
		<path id="Layer" fill-rule="evenodd" class="s0" d="m39.9 14.2c3.9 0 7.1 3.5 7.1 7.9 0 4.3-3.2 7.9-7.1 7.9-3.7 0-6.8-3.1-7.1-7.2-1.9-0.7-3.7-0.6-5.6 0.2-0.4 3.9-3.5 7-7.1 7-3.9 0-7.1-3.6-7.1-7.9 0-4 2.7-7.4 6.3-7.9 6.8-0.5 13.7 0 20.6 0zm-3 11.2l6.5-5.9q-0.2-0.3-0.4-0.6l-6.6 5.9q0.2 0.3 0.5 0.6zm7.1-2.3l-4.1 3.7c2 0 3.7-1.6 4.1-3.7zm-8.3-1.7l4.4-4c-2.2-0.1-4.1 1.6-4.4 4zm-18.6 3.9l6.5-5.8q-0.2-0.3-0.4-0.6l-6.6 5.9q0.2 0.3 0.5 0.5zm7.2-2.3l-4.2 3.8c2 0 3.8-1.5 4.2-3.8zm-8.3-1.7l4.3-3.9c-2.1-0.1-4 1.6-4.3 3.9zm17.1-1.7q0.4-1.2 1.1-2.2h-8.4q0.7 1 1.1 2.3c2.1-0.7 4.2-0.8 6.2-0.1z"/>
	</g>
</svg>