<svg width="60" height="60" viewBox="0 0 60 60" fill="none" xmlns="http://www.w3.org/2000/svg">
<g clip-path="url(#clip0_2844_6755)">
<path d="M35.772 24.2229L39.0137 19.2139L39.3027 19.4009C39.3027 19.4009 40.6599 17.4092 39.8893 16.9105L38.9261 16.2871L38.8297 16.2248L37.8665 15.6014C37.0959 15.1027 35.8349 17.1567 35.8349 17.1567L36.1239 17.3437L32.8822 22.3527C32.8822 22.3527 30.049 22.2958 28.8957 24.0778L18.1733 40.646C18.1733 40.646 17.598 41.6404 18.5613 42.2638L20.9695 43.8223L23.3776 45.3808C24.3409 46.0042 25.0124 45.0721 25.0124 45.0721L35.766 28.4558C37.0156 26.7361 35.772 24.2229 35.772 24.2229Z" fill="#99E052" fill-opacity="0.9"/>
</g>
<circle cx="30" cy="30" r="29" stroke="#99E052" stroke-opacity="0.9" stroke-width="2"/>
<defs>
<clipPath id="clip0_2844_6755">
<rect width="32" height="32" fill="white" transform="translate(14 14)"/>
</clipPath>
</defs>
</svg>
