<svg width="105" height="26" viewBox="0 0 105 26" fill="none" xmlns="http://www.w3.org/2000/svg">
<rect width="26" height="26" rx="2" fill="url(#paint0_radial_60_59859)"/>
<g clip-path="url(#clip0_60_59859)">
<path d="M11.1933 7.17625C11.082 7.4731 10.9804 7.78924 10.8887 8.12164C11.5723 8.23645 12.2822 8.29671 13 8.29671C13.7178 8.29671 14.4277 8.23645 15.1113 8.12164C15.0196 7.78924 14.918 7.4731 14.8067 7.17625C14.2956 5.81354 13.6202 5 13 5C12.3798 5 11.7044 5.81354 11.1933 7.17625Z" fill="white"/>
<path d="M14.8457 5.21484C15.1568 5.64604 15.4393 6.19249 15.6846 6.84652C15.8119 7.18611 15.9273 7.5486 16.0306 7.92988C16.8718 7.71942 17.655 7.42216 18.3408 7.04889C17.3624 6.16989 16.167 5.52811 14.8457 5.21484Z" fill="white"/>
<path d="M12.9988 9.2338C12.1997 9.2338 11.4179 9.16728 10.6682 9.03906C10.4499 10.1029 10.3225 11.2899 10.2969 12.5305H15.7008C15.6751 11.2899 15.5478 10.1029 15.3295 9.03906C14.5797 9.16725 13.7979 9.2338 12.9988 9.2338Z" fill="white"/>
<path d="M9.3597 13.4688H5.01367C5.11985 15.2965 5.84219 16.9615 6.9759 18.2585C7.79666 17.777 8.73583 17.4042 9.75155 17.1516C9.52021 16.0241 9.38574 14.7721 9.3597 13.4688Z" fill="white"/>
<path d="M16.6399 13.4688C16.6139 14.7722 16.4794 16.0242 16.248 17.1516C17.2638 17.4042 18.203 17.777 19.0237 18.2585C20.1574 16.9615 20.8797 15.2965 20.9859 13.4688L16.6399 13.4688Z" fill="white"/>
<path d="M9.35967 12.5319C9.38571 11.2285 9.52021 9.97651 9.75155 8.84905C8.7358 8.59649 7.79663 8.22368 6.9759 7.74219C5.84219 9.03919 5.11985 10.7042 5.01367 12.5319L9.35967 12.5319Z" fill="white"/>
<path d="M14.8067 18.8236C14.918 18.5267 15.0196 18.2106 15.1113 17.8782C14.4277 17.7634 13.7178 17.7031 13 17.7031C12.2822 17.7031 11.5723 17.7634 10.8887 17.8782C10.9804 18.2106 11.082 18.5267 11.1933 18.8236C11.7044 20.1863 12.3798 20.9998 13 20.9998C13.6202 20.9998 14.2956 20.1863 14.8067 18.8236Z" fill="white"/>
<path d="M12.9988 16.7655C13.7979 16.7655 14.5797 16.832 15.3295 16.9602C15.5477 15.8963 15.6751 14.7094 15.7008 13.4688H10.2969C10.3225 14.7094 10.4499 15.8963 10.6682 16.9602C11.4179 16.832 12.1997 16.7655 12.9988 16.7655Z" fill="white"/>
<path d="M16.248 8.84908C16.4794 9.97655 16.6139 11.2286 16.6399 12.5319H20.986C20.8798 10.7042 20.1574 9.03919 19.0237 7.74219C18.2029 8.22371 17.2638 8.59652 16.248 8.84908Z" fill="white"/>
<path d="M16.0306 18.0703C15.9273 18.4516 15.8119 18.8141 15.6846 19.1537C15.4393 19.8077 15.1568 20.3542 14.8457 20.7854C16.167 20.4721 17.3624 19.8303 18.3408 18.9513C17.655 18.578 16.8718 18.2808 16.0306 18.0703Z" fill="white"/>
<path d="M9.96845 7.92988C10.0717 7.5486 10.1871 7.18611 10.3144 6.84652C10.5597 6.19249 10.8422 5.64604 11.1533 5.21484C9.83202 5.52811 8.6366 6.16989 7.6582 7.04892C8.344 7.42216 9.12719 7.71942 9.96845 7.92988Z" fill="white"/>
<path d="M10.3144 19.1537C10.1871 18.8141 10.0717 18.4516 9.96845 18.0703C9.12719 18.2808 8.344 18.578 7.6582 18.9513C8.6366 19.8303 9.83202 20.4721 11.1533 20.7854C10.8423 20.3542 10.5597 19.8077 10.3144 19.1537Z" fill="white"/>
</g>
<rect x="31" width="74" height="26" rx="1" fill="url(#paint1_radial_60_59859)" fill-opacity="0.25"/>
<path d="M56.486 13.338V13.842C56.486 15.0553 56.052 16.082 55.184 16.922C54.316 17.7527 53.154 18.168 51.698 18.168C50.214 18.168 48.9867 17.678 48.016 16.698C47.0453 15.718 46.56 14.5187 46.56 13.1C46.56 11.6813 47.0453 10.482 48.016 9.502C48.9867 8.522 50.214 8.032 51.698 8.032C52.6033 8.032 53.434 8.25133 54.19 8.69C54.946 9.12867 55.5293 9.712 55.94 10.44L55.072 10.944C54.764 10.3467 54.3067 9.87067 53.7 9.516C53.0933 9.16133 52.426 8.984 51.698 8.984C50.4753 8.984 49.4767 9.38067 48.702 10.174C47.9273 10.9673 47.54 11.9427 47.54 13.1C47.54 14.2573 47.9273 15.2327 48.702 16.026C49.4767 16.8193 50.4753 17.216 51.698 17.216C52.7993 17.216 53.6813 16.9407 54.344 16.39C55.0067 15.83 55.3847 15.1207 55.478 14.262H51.586V13.338H56.486ZM58.0269 18V7.78H58.9509V18H58.0269ZM66.7776 17.118C66.0683 17.818 65.2003 18.168 64.1736 18.168C63.147 18.168 62.2743 17.818 61.5556 17.118C60.8463 16.4087 60.4916 15.536 60.4916 14.5C60.4916 13.464 60.8463 12.596 61.5556 11.896C62.2743 11.1867 63.147 10.832 64.1736 10.832C65.2003 10.832 66.0683 11.1867 66.7776 11.896C67.4963 12.596 67.8556 13.464 67.8556 14.5C67.8556 15.536 67.4963 16.4087 66.7776 17.118ZM62.2136 16.474C62.7456 17.006 63.399 17.272 64.1736 17.272C64.9483 17.272 65.6016 17.006 66.1336 16.474C66.6656 15.9327 66.9316 15.2747 66.9316 14.5C66.9316 13.7253 66.6656 13.072 66.1336 12.54C65.6016 11.9987 64.9483 11.728 64.1736 11.728C63.399 11.728 62.7456 11.9987 62.2136 12.54C61.6816 13.072 61.4156 13.7253 61.4156 14.5C61.4156 15.2747 61.6816 15.9327 62.2136 16.474ZM73.1539 10.832C74.1525 10.832 75.0019 11.1867 75.7019 11.896C76.4112 12.6053 76.7659 13.4733 76.7659 14.5C76.7659 15.5267 76.4112 16.3947 75.7019 17.104C75.0019 17.8133 74.1525 18.168 73.1539 18.168C71.9125 18.168 70.9699 17.6547 70.3259 16.628V18H69.4019V8.2H70.3259V12.372C70.9699 11.3453 71.9125 10.832 73.1539 10.832ZM71.1239 16.474C71.6559 17.006 72.3092 17.272 73.0839 17.272C73.8585 17.272 74.5119 17.006 75.0439 16.474C75.5759 15.9327 75.8419 15.2747 75.8419 14.5C75.8419 13.7253 75.5759 13.072 75.0439 12.54C74.5119 11.9987 73.8585 11.728 73.0839 11.728C72.3092 11.728 71.6559 11.9987 71.1239 12.54C70.5919 13.072 70.3259 13.7253 70.3259 14.5C70.3259 15.2747 70.5919 15.9327 71.1239 16.474ZM84.3223 11H85.2463V18H84.3223V16.628C83.6783 17.6547 82.7356 18.168 81.4943 18.168C80.4956 18.168 79.6416 17.8133 78.9323 17.104C78.2323 16.3947 77.8823 15.5267 77.8823 14.5C77.8823 13.4733 78.2323 12.6053 78.9323 11.896C79.6416 11.1867 80.4956 10.832 81.4943 10.832C82.7356 10.832 83.6783 11.3453 84.3223 12.372V11ZM79.6043 16.474C80.1363 17.006 80.7896 17.272 81.5643 17.272C82.3389 17.272 82.9923 17.006 83.5243 16.474C84.0563 15.9327 84.3223 15.2747 84.3223 14.5C84.3223 13.7253 84.0563 13.072 83.5243 12.54C82.9923 11.9987 82.3389 11.728 81.5643 11.728C80.7896 11.728 80.1363 11.9987 79.6043 12.54C79.0723 13.072 78.8063 13.7253 78.8063 14.5C78.8063 15.2747 79.0723 15.9327 79.6043 16.474ZM87.2027 18V7.78H88.1267V18H87.2027Z" fill="white"/>
<defs>
<radialGradient id="paint0_radial_60_59859" cx="0" cy="0" r="1" gradientUnits="userSpaceOnUse" gradientTransform="translate(13 13) rotate(90) scale(25)">
<stop stop-color="#5FD8DF"/>
<stop offset="1" stop-color="#5FD8DF" stop-opacity="0"/>
</radialGradient>
<radialGradient id="paint1_radial_60_59859" cx="0" cy="0" r="1" gradientUnits="userSpaceOnUse" gradientTransform="translate(68 13) rotate(90) scale(25 71.1538)">
<stop stop-color="white"/>
<stop offset="1" stop-color="white" stop-opacity="0"/>
</radialGradient>
<clipPath id="clip0_60_59859">
<rect width="16" height="16" fill="white" transform="translate(5 5)"/>
</clipPath>
</defs>
</svg>
