<svg version="1.2" xmlns="http://www.w3.org/2000/svg" viewBox="0 0 60 60" width="60" height="60">
	<title>gloves-svg</title>
	<defs>
		<clipPath clipPathUnits="userSpaceOnUse" id="cp1">
			<path d="m16 8h28v28h-28z"/>
		</clipPath>
	</defs>
	<style>
		.s0 { fill: #595e60 } 
	</style>
	<g id="Clip-Path" clip-path="url(#cp1)">
		<g id="Layer">
			<path id="Layer" class="s0" d="m30.3 11.9l0.3 0.2c0.5 0.2 0.8 0.7 0.9 1.2l0.3 1.3q0 0.2 0.1 0.2 0 0 0 0 0.1 0 0.2-0.1l1.4-4c0.1-0.3 0.1-0.7-0.1-1-0.1-0.3-0.4-0.6-0.7-0.7-0.4-0.1-0.7-0.1-1.1 0.1-0.3 0.1-0.5 0.4-0.6 0.7l-0.7 1.9q-0.1 0.1 0 0.2z"/>
			<path id="Layer" class="s0" d="m32.9 14q0 0 0.1 0l0.4 0.1c0.4 0.2 0.8 0.4 1 0.8l0.4 0.7q0.1 0 0.2 0 0 0 0 0 0.1 0 0.1-0.1l2.1-5.7c0.1-0.3 0.1-0.7-0.1-1-0.1-0.4-0.4-0.6-0.7-0.7-0.4-0.1-0.7-0.1-1 0-0.4 0.2-0.6 0.4-0.7 0.8l-1.8 4.9q-0.1 0.1 0 0.2z"/>
			<path id="Layer" class="s0" d="m34.2 16.3c0-0.7-0.6-1.3-1.4-1.3-0.7 0-1.3 0.6-1.3 1.3v5.2h-0.5v-7.4c0-0.8-0.6-1.4-1.3-1.4-0.8 0-1.4 0.6-1.4 1.4v7.4h-0.5v-9.6c0-0.7-0.6-1.3-1.3-1.3-0.7 0-1.3 0.6-1.3 1.3v9.6h-0.5v-7.4c0-0.8-0.6-1.4-1.4-1.4-0.7 0-1.3 0.6-1.3 1.4v8.5l-1.6-1.8c-0.2-0.3-0.6-0.5-0.9-0.6q-0.1 0-0.2 0-0.4 0-0.8 0.3-1 0.9-0.3 2.3l3.8 7.2-0.5 5.8q0 0.1 0 0.2 0.1 0 0.1 0h13q0 0 0.1 0 0-0.1 0-0.2l-0.5-5.8v-13.7z"/>
			<path id="Layer" class="s0" d="m41.2 14.4c-0.4-0.2-0.7-0.1-1.1 0-0.3 0.2-0.5 0.4-0.6 0.8l-1.8 4.9-0.5-0.2 2.6-7c0.2-0.7-0.1-1.5-0.8-1.7q-0.3-0.1-0.5-0.1c-0.6 0-1.1 0.3-1.3 0.9l-2.1 6q0 0 0 0.1v11.5q0 0 0 0l0.4 4.8q0 0.1 0.1 0.1 0 0 0 0 0.1 0 0.2-0.1l1.5-5.4 4.7-12.9c0.2-0.7-0.1-1.5-0.8-1.7z"/>
		</g>
	</g>
</svg>