<svg width="119" height="26" viewBox="0 0 119 26" fill="none" xmlns="http://www.w3.org/2000/svg">
<rect width="26" height="26" rx="2" fill="url(#paint0_radial_60_59895)"/>
<g clip-path="url(#clip0_60_59895)">
<path d="M13 9.27734C13.2589 9.27734 13.4688 9.06748 13.4688 8.80859C13.4688 8.54971 13.2589 8.33984 13 8.33984C12.7411 8.33984 12.5312 8.54971 12.5312 8.80859C12.5312 9.06748 12.7411 9.27734 13 9.27734Z" fill="white"/>
<path d="M5.46875 9.46503V12.0898H21V9.45634L12.9931 5.46875L5.46875 9.46503ZM14.4062 8.80863C14.4062 9.58406 13.7754 10.2149 13 10.2149C12.2246 10.2149 11.5938 9.58406 11.5938 8.80863C11.5938 8.03319 12.2246 7.40238 13 7.40238C13.7754 7.40238 14.4062 8.03316 14.4062 8.80863Z" fill="white"/>
<path d="M20.0312 18.6523H5.96875V19.5898H5V20.5273H21V19.5898H20.0312V18.6523Z" fill="white"/>
<path d="M13 13.0273C11.7077 13.0273 10.6562 14.0788 10.6562 15.3711V17.7148H15.3438V15.3711C15.3438 14.0663 14.2807 13.0273 13 13.0273Z" fill="white"/>
<path d="M16.2812 13.0273H19.0938V17.7148H16.2812V13.0273Z" fill="white"/>
<path d="M6.90625 13.0273H9.71875V17.7148H6.90625V13.0273Z" fill="white"/>
</g>
<rect x="31" width="88" height="26" rx="1" fill="url(#paint1_radial_60_59895)" fill-opacity="0.25"/>
<path d="M49.486 13.338V13.842C49.486 15.0553 49.052 16.082 48.184 16.922C47.316 17.7527 46.154 18.168 44.698 18.168C43.214 18.168 41.9867 17.678 41.016 16.698C40.0453 15.718 39.56 14.5187 39.56 13.1C39.56 11.6813 40.0453 10.482 41.016 9.502C41.9867 8.522 43.214 8.032 44.698 8.032C45.6033 8.032 46.434 8.25133 47.19 8.69C47.946 9.12867 48.5293 9.712 48.94 10.44L48.072 10.944C47.764 10.3467 47.3067 9.87067 46.7 9.516C46.0933 9.16133 45.426 8.984 44.698 8.984C43.4753 8.984 42.4767 9.38067 41.702 10.174C40.9273 10.9673 40.54 11.9427 40.54 13.1C40.54 14.2573 40.9273 15.2327 41.702 16.026C42.4767 16.8193 43.4753 17.216 44.698 17.216C45.7993 17.216 46.6813 16.9407 47.344 16.39C48.0067 15.83 48.3847 15.1207 48.478 14.262H44.586V13.338H49.486ZM56.8929 17.118C56.1835 17.818 55.3155 18.168 54.2889 18.168C53.2622 18.168 52.3895 17.818 51.6709 17.118C50.9615 16.4087 50.6069 15.536 50.6069 14.5C50.6069 13.464 50.9615 12.596 51.6709 11.896C52.3895 11.1867 53.2622 10.832 54.2889 10.832C55.3155 10.832 56.1835 11.1867 56.8929 11.896C57.6115 12.596 57.9709 13.464 57.9709 14.5C57.9709 15.536 57.6115 16.4087 56.8929 17.118ZM52.3289 16.474C52.8609 17.006 53.5142 17.272 54.2889 17.272C55.0635 17.272 55.7169 17.006 56.2489 16.474C56.7809 15.9327 57.0469 15.2747 57.0469 14.5C57.0469 13.7253 56.7809 13.072 56.2489 12.54C55.7169 11.9987 55.0635 11.728 54.2889 11.728C53.5142 11.728 52.8609 11.9987 52.3289 12.54C51.7969 13.072 51.5309 13.7253 51.5309 14.5C51.5309 15.2747 51.7969 15.9327 52.3289 16.474ZM64.2837 11H65.2637L62.3937 18H61.2737L58.4037 11H59.3837L61.8337 17.034L64.2837 11ZM69.341 10.832C70.377 10.832 71.2123 11.2007 71.847 11.938C72.491 12.666 72.813 13.5293 72.813 14.528C72.813 14.6307 72.8036 14.7753 72.785 14.962H66.639C66.7323 15.6713 67.031 16.236 67.535 16.656C68.0483 17.0667 68.6783 17.272 69.425 17.272C69.957 17.272 70.4143 17.1647 70.797 16.95C71.189 16.726 71.483 16.4367 71.679 16.082L72.491 16.558C72.183 17.0527 71.763 17.4447 71.231 17.734C70.699 18.0233 70.0923 18.168 69.411 18.168C68.3096 18.168 67.4136 17.8227 66.723 17.132C66.0323 16.4413 65.687 15.564 65.687 14.5C65.687 13.4547 66.0276 12.582 66.709 11.882C67.3903 11.182 68.2676 10.832 69.341 10.832ZM69.341 11.728C68.613 11.728 68.0016 11.9473 67.507 12.386C67.0216 12.8153 66.7323 13.3753 66.639 14.066H71.861C71.7676 13.3287 71.483 12.7547 71.007 12.344C70.531 11.9333 69.9756 11.728 69.341 11.728ZM75.2067 12.162C75.6361 11.3127 76.3734 10.888 77.4187 10.888V11.784C76.7841 11.784 76.2567 11.9707 75.8367 12.344C75.4167 12.7173 75.2067 13.3053 75.2067 14.108V18H74.2827V11H75.2067V12.162ZM86.1471 10.832C86.9311 10.832 87.5611 11.084 88.0371 11.588C88.5224 12.092 88.7651 12.7733 88.7651 13.632V18H87.8411V13.632C87.8411 13.0253 87.6824 12.5587 87.3651 12.232C87.0571 11.896 86.6464 11.728 86.1331 11.728C85.5544 11.728 85.0831 11.924 84.7191 12.316C84.3644 12.6987 84.1871 13.3007 84.1871 14.122V18H83.2631V13.632C83.2631 13.016 83.1137 12.5447 82.8151 12.218C82.5257 11.8913 82.1291 11.728 81.6251 11.728C81.0651 11.728 80.5891 11.924 80.1971 12.316C79.8051 12.708 79.6091 13.31 79.6091 14.122V18H78.6851V11H79.6091V12.022C80.1131 11.2287 80.8271 10.832 81.7511 10.832C82.7591 10.832 83.4684 11.2567 83.8791 12.106C84.3831 11.2567 85.1391 10.832 86.1471 10.832ZM93.7863 10.832C94.8223 10.832 95.6576 11.2007 96.2923 11.938C96.9363 12.666 97.2583 13.5293 97.2583 14.528C97.2583 14.6307 97.2489 14.7753 97.2303 14.962H91.0843C91.1776 15.6713 91.4763 16.236 91.9803 16.656C92.4936 17.0667 93.1236 17.272 93.8703 17.272C94.4023 17.272 94.8596 17.1647 95.2423 16.95C95.6343 16.726 95.9283 16.4367 96.1243 16.082L96.9363 16.558C96.6283 17.0527 96.2083 17.4447 95.6763 17.734C95.1443 18.0233 94.5376 18.168 93.8563 18.168C92.7549 18.168 91.8589 17.8227 91.1683 17.132C90.4776 16.4413 90.1323 15.564 90.1323 14.5C90.1323 13.4547 90.4729 12.582 91.1543 11.882C91.8356 11.182 92.7129 10.832 93.7863 10.832ZM93.7863 11.728C93.0583 11.728 92.4469 11.9473 91.9523 12.386C91.4669 12.8153 91.1776 13.3753 91.0843 14.066H96.3063C96.2129 13.3287 95.9283 12.7547 95.4523 12.344C94.9763 11.9333 94.4209 11.728 93.7863 11.728ZM102.004 10.832C102.853 10.832 103.521 11.0933 104.006 11.616C104.501 12.1293 104.748 12.8247 104.748 13.702V18H103.824V13.702C103.824 13.0767 103.656 12.5913 103.32 12.246C102.993 11.9007 102.527 11.728 101.92 11.728C101.248 11.728 100.702 11.9427 100.282 12.372C99.862 12.792 99.652 13.4453 99.652 14.332V18H98.728V11H99.652V12.092C100.175 11.252 100.959 10.832 102.004 10.832ZM110.245 11.896H108.229V16.138C108.229 16.5207 108.303 16.796 108.453 16.964C108.602 17.1227 108.826 17.2067 109.125 17.216C109.423 17.216 109.797 17.2067 110.245 17.188V18C109.265 18.1493 108.527 18.0793 108.033 17.79C107.547 17.5007 107.305 16.95 107.305 16.138V11.896H105.835V11H107.305V9.32L108.229 9.04V11H110.245V11.896Z" fill="white"/>
<defs>
<radialGradient id="paint0_radial_60_59895" cx="0" cy="0" r="1" gradientUnits="userSpaceOnUse" gradientTransform="translate(13 13) rotate(90) scale(25)">
<stop stop-color="#5F92DF"/>
<stop offset="1" stop-color="#5F79DF" stop-opacity="0"/>
</radialGradient>
<radialGradient id="paint1_radial_60_59895" cx="0" cy="0" r="1" gradientUnits="userSpaceOnUse" gradientTransform="translate(75 13) rotate(90) scale(25 84.6154)">
<stop stop-color="white"/>
<stop offset="1" stop-color="white" stop-opacity="0"/>
</radialGradient>
<clipPath id="clip0_60_59895">
<rect width="16" height="16" fill="white" transform="translate(5 5)"/>
</clipPath>
</defs>
</svg>
