<svg width="476" height="238" viewBox="0 0 476 238" fill="none" xmlns="http://www.w3.org/2000/svg">
<rect opacity="0.4" y="-238" width="476" height="476" fill="url(#paint0_radial)"/>
<circle opacity="0.2" cx="229" r="135" stroke="white" stroke-width="2"/>
<path d="M229 -135C154.442 -135 94 -74.5584 94 0C94 74.5584 154.442 135 229 135C261.912 135 292.074 123.222 315.5 103.652" stroke="white" stroke-width="2"/>
<circle cx="142" cy="103" r="5" fill="white" stroke="white" stroke-width="2"/>
<circle cx="142" cy="103" r="2" fill="white"/>
<circle opacity="0.2" cx="316" cy="103" r="5" stroke="white" stroke-width="2"/>
<circle cx="316" cy="103" r="2" fill="white"/>
<path d="M197.665 49.2H210.217V66H206.905V52.368H200.977V66H197.665V49.2ZM223.425 64.512C222.209 65.728 220.705 66.336 218.913 66.336C217.121 66.336 215.617 65.728 214.401 64.512C213.185 63.296 212.577 61.792 212.577 60C212.577 58.224 213.185 56.728 214.401 55.512C215.633 54.28 217.137 53.664 218.913 53.664C220.689 53.664 222.193 54.28 223.425 55.512C224.657 56.744 225.273 58.24 225.273 60C225.273 61.776 224.657 63.28 223.425 64.512ZM216.585 62.376C217.209 63 217.985 63.312 218.913 63.312C219.841 63.312 220.617 63 221.241 62.376C221.865 61.752 222.177 60.96 222.177 60C222.177 59.04 221.865 58.248 221.241 57.624C220.617 57 219.841 56.688 218.913 56.688C217.985 56.688 217.209 57 216.585 57.624C215.977 58.264 215.673 59.056 215.673 60C215.673 60.944 215.977 61.736 216.585 62.376ZM227.938 54H237.442V66H234.346V56.976H231.034V60.984C231.034 64.68 229.346 66.352 225.97 66V63.096C226.61 63.256 227.098 63.144 227.434 62.76C227.77 62.376 227.938 61.728 227.938 60.816V54ZM243.272 60.816L248.912 54H251.216V66H248.192V59.184L242.552 66H240.248V54H243.272V60.816ZM262.693 59.856C263.813 60.4 264.373 61.312 264.373 62.592C264.373 63.616 264.021 64.44 263.317 65.064C262.613 65.688 261.629 66 260.365 66H254.053V54H259.885C261.133 54 262.109 54.312 262.813 54.936C263.517 55.544 263.869 56.36 263.869 57.384C263.869 58.44 263.477 59.264 262.693 59.856ZM259.597 56.544H256.957V58.704H259.597C260.477 58.704 260.917 58.344 260.917 57.624C260.917 56.904 260.477 56.544 259.597 56.544ZM256.957 63.384H260.005C260.901 63.384 261.349 63 261.349 62.232C261.349 61.896 261.229 61.632 260.989 61.44C260.749 61.248 260.421 61.152 260.005 61.152H256.957V63.384Z" fill="white"/>
<path d="M178.276 38.13C177.216 38.13 176.339 37.78 175.646 37.08C174.959 36.38 174.616 35.52 174.616 34.5C174.616 33.48 174.959 32.62 175.646 31.92C176.339 31.22 177.216 30.87 178.276 30.87C178.916 30.87 179.503 31.0233 180.036 31.33C180.576 31.6367 180.996 32.05 181.296 32.57L180.486 33.04C180.286 32.6533 179.986 32.3467 179.586 32.12C179.193 31.8867 178.756 31.77 178.276 31.77C177.469 31.77 176.809 32.03 176.296 32.55C175.789 33.07 175.536 33.72 175.536 34.5C175.536 35.2733 175.789 35.92 176.296 36.44C176.809 36.96 177.469 37.22 178.276 37.22C178.756 37.22 179.193 37.1067 179.586 36.88C179.986 36.6467 180.286 36.34 180.486 35.96L181.296 36.42C181.003 36.94 180.586 37.3567 180.046 37.67C179.506 37.9767 178.916 38.13 178.276 38.13ZM189.951 31V31.88H187.881V38H186.961V31.88H184.901V31H189.951ZM198.174 38L197.604 36.43H194.454L193.884 38H192.894L195.504 31H196.554L199.164 38H198.174ZM194.774 35.56H197.284L196.024 32.11L194.774 35.56ZM208.329 37.12H209.079V39.34H208.149V38H203.529V39.34H202.599V37.12H203.209C203.643 36.58 203.859 35.76 203.859 34.66V31H208.329V37.12ZM204.259 37.12H207.399V31.87H204.789V34.68C204.789 35.74 204.613 36.5533 204.259 37.12ZM217.702 38V32.78L214.102 38H213.352V31H214.282V36.23L217.882 31H218.632V38H217.702ZM228.04 31V38H227.12V35.32H225.73L223.92 38H222.87L224.73 35.26C224.25 35.1467 223.853 34.8933 223.54 34.5C223.226 34.1067 223.07 33.6633 223.07 33.17C223.07 32.57 223.28 32.06 223.7 31.64C224.126 31.2133 224.64 31 225.24 31H228.04ZM225.24 34.48H227.12V31.87H225.24C224.9 31.87 224.606 31.9967 224.36 32.25C224.113 32.5033 223.99 32.81 223.99 33.17C223.99 33.53 224.113 33.84 224.36 34.1C224.606 34.3533 224.9 34.48 225.24 34.48ZM244.601 32.56C245.207 33.04 245.511 33.6867 245.511 34.5C245.511 35.3133 245.207 35.96 244.601 36.44C244.001 36.92 243.197 37.1933 242.191 37.26V38.05H241.281V37.26C240.281 37.1933 239.477 36.92 238.871 36.44C238.271 35.96 237.971 35.3133 237.971 34.5C237.971 33.6867 238.271 33.04 238.871 32.56C239.477 32.08 240.281 31.8067 241.281 31.74V30.95H242.191V31.74C243.197 31.8067 244.001 32.08 244.601 32.56ZM242.191 36.41C242.944 36.3567 243.531 36.1733 243.951 35.86C244.371 35.54 244.581 35.0867 244.581 34.5C244.581 33.9133 244.371 33.4633 243.951 33.15C243.531 32.83 242.944 32.6433 242.191 32.59V36.41ZM238.891 34.5C238.891 35.08 239.101 35.53 239.521 35.85C239.941 36.1633 240.527 36.3467 241.281 36.4V32.59C240.527 32.6433 239.941 32.83 239.521 33.15C239.101 33.4633 238.891 33.9133 238.891 34.5ZM250.657 37.12H253.907V38H249.727V31H253.857V31.88H250.657V34.03H253.607V34.9H250.657V37.12ZM260.769 31C261.416 31 261.953 31.2167 262.379 31.65C262.813 32.0767 263.029 32.61 263.029 33.25C263.029 33.8833 262.813 34.4167 262.379 34.85C261.953 35.2833 261.416 35.5 260.769 35.5H259.159V38H258.229V31H260.769ZM260.769 34.63C261.156 34.63 261.476 34.5 261.729 34.24C261.983 33.9733 262.109 33.6433 262.109 33.25C262.109 32.85 261.983 32.52 261.729 32.26C261.476 32 261.156 31.87 260.769 31.87H259.159V34.63H260.769ZM273.878 31V38H272.958V32.53L270.668 36.34H270.548L268.258 32.54V38H267.328V31H268.378L270.608 34.7L272.828 31H273.878ZM278.575 38V31H279.505V33.5H281.115C281.761 33.5 282.298 33.7167 282.725 34.15C283.158 34.5833 283.375 35.1167 283.375 35.75C283.375 36.39 283.158 36.9267 282.725 37.36C282.298 37.7867 281.761 38 281.115 38H278.575ZM284.085 38V31H285.015V38H284.085ZM279.505 37.13H281.115C281.501 37.13 281.821 37 282.075 36.74C282.328 36.48 282.455 36.15 282.455 35.75C282.455 35.35 282.328 35.02 282.075 34.76C281.821 34.5 281.501 34.37 281.115 34.37H279.505V37.13Z" fill="white"/>
<path d="M210.049 151H215.279V158H213.899V152.32H211.429V158H210.049V151ZM224.472 157.09C223.766 157.79 222.906 158.14 221.892 158.14C220.879 158.14 220.019 157.79 219.312 157.09C218.612 156.377 218.262 155.513 218.262 154.5C218.262 153.48 218.612 152.62 219.312 151.92C220.019 151.213 220.879 150.86 221.892 150.86C222.906 150.86 223.766 151.213 224.472 151.92C225.179 152.62 225.532 153.48 225.532 154.5C225.532 155.52 225.179 156.383 224.472 157.09ZM220.282 156.15C220.709 156.577 221.246 156.79 221.892 156.79C222.539 156.79 223.076 156.577 223.502 156.15C223.936 155.717 224.152 155.167 224.152 154.5C224.152 153.833 223.936 153.283 223.502 152.85C223.069 152.417 222.532 152.2 221.892 152.2C221.252 152.2 220.716 152.417 220.282 152.85C219.849 153.283 219.632 153.833 219.632 154.5C219.632 155.167 219.849 155.717 220.282 156.15ZM227.562 158V156.72C227.989 156.78 228.302 156.693 228.502 156.46C228.702 156.22 228.802 155.78 228.802 155.14V151H233.562V158H232.192V152.32H230.172V155.1C230.172 156.307 229.895 157.123 229.342 157.55C228.869 157.923 228.275 158.073 227.562 158ZM242.29 158H240.91V153.73L237.91 158H236.86V151H238.24V155.28L241.24 151H242.29V158ZM249.818 154.37C250.432 154.723 250.738 155.257 250.738 155.97C250.738 156.563 250.528 157.05 250.108 157.43C249.688 157.81 249.172 158 248.558 158H245.588V151H248.348C248.942 151 249.445 151.187 249.858 151.56C250.272 151.933 250.478 152.403 250.478 152.97C250.478 153.55 250.258 154.017 249.818 154.37ZM248.348 152.29H246.968V153.83H248.348C248.562 153.83 248.738 153.757 248.878 153.61C249.025 153.463 249.098 153.28 249.098 153.06C249.098 152.84 249.028 152.657 248.888 152.51C248.748 152.363 248.568 152.29 248.348 152.29ZM246.968 156.71H248.558C248.792 156.71 248.985 156.633 249.138 156.48C249.292 156.32 249.368 156.12 249.368 155.88C249.368 155.647 249.292 155.453 249.138 155.3C248.985 155.14 248.792 155.06 248.558 155.06H246.968V156.71Z" fill="white"/>
<path d="M65.1406 35.7508L67.7556 40.2801L61.6934 43.7801L61.0034 42.585L65.9224 39.745L64.6874 37.6059L59.7684 40.4459L59.0784 39.2508L65.1406 35.7508ZM67.0781 51.2867C66.1185 51.0247 65.3854 50.4549 64.8787 49.5773C64.3721 48.6997 64.2452 47.78 64.4981 46.818C64.7658 45.8551 65.3385 45.1203 66.2161 44.6136C67.0994 44.1036 68.0192 43.9768 68.9754 44.233C69.9407 44.4916 70.6767 45.0597 71.1834 45.9373C71.6901 46.8149 71.8141 47.7363 71.5554 48.7017C71.3025 49.6637 70.7344 50.3997 69.8511 50.9097C68.9677 51.4197 68.0434 51.5453 67.0781 51.2867ZM65.7971 47.188C65.641 47.7709 65.7245 48.3423 66.0479 48.9023C66.3712 49.4623 66.8243 49.8204 67.4071 49.9766C67.9991 50.1352 68.5837 50.0479 69.1611 49.7145C69.7384 49.3812 70.1064 48.9186 70.265 48.3266C70.4236 47.7347 70.3429 47.1616 70.0229 46.6073C69.7029 46.0531 69.247 45.6966 68.655 45.538C68.0631 45.3794 67.4784 45.4668 66.9011 45.8001C66.3237 46.1334 65.9557 46.5961 65.7971 47.188ZM69.8437 58.1769C69.3204 57.2704 69.1885 56.342 69.448 55.3916C69.7051 54.4502 70.2811 53.7212 71.176 53.2045C72.0767 52.6845 72.996 52.5502 73.934 52.8016C74.8869 53.052 75.625 53.6304 76.1484 54.5369C76.465 55.0854 76.6268 55.6655 76.6337 56.2774C76.6496 56.8917 76.5132 57.4555 76.2244 57.9686L75.0319 57.283C75.2166 56.9763 75.304 56.641 75.2941 56.2772C75.2899 55.9101 75.1879 55.5533 74.9879 55.2069C74.6479 54.618 74.1881 54.2483 73.6086 54.0979C73.0267 53.9566 72.4442 54.0543 71.861 54.391C71.2837 54.7243 70.9107 55.1783 70.7421 55.7529C70.5826 56.33 70.6728 56.913 71.0128 57.5019C71.2128 57.8483 71.4679 58.1167 71.778 58.3072C72.0972 58.5001 72.4313 58.592 72.7802 58.583L72.7776 59.9586C72.1889 59.9521 71.6296 59.7901 71.0997 59.4724C70.579 59.1572 70.1604 58.7254 69.8437 58.1769ZM75.8792 68.3506L75.1292 67.0516L76.0104 66.0578L74.6154 63.6416L73.3142 63.9079L72.5692 62.6175L79.8563 61.2393L80.7113 62.7202L75.8792 68.3506ZM78.9094 62.7791L75.9525 63.3777L76.9125 65.0404L78.9094 62.7791ZM85.9907 71.8643L81.0717 74.7043L81.4467 75.3539L79.1431 76.6839L78.4531 75.4887L79.6135 74.8187L77.6785 71.4672L76.5181 72.1372L75.8281 70.9421L78.1317 69.6121L78.4717 70.201C79.1269 70.2692 79.9077 70.0416 80.8142 69.5183L83.6807 67.8633L85.9907 71.8643ZM79.2117 71.4827L80.3817 73.5092L84.1835 71.3142L83.2535 69.7034L81.4868 70.7234C80.6035 71.2334 79.8451 71.4865 79.2117 71.4827ZM86.2716 79.1509L84.4989 83.2805L83.7039 81.9035L85.2945 78.0984L82.4539 79.7384L81.7639 78.5433L87.8261 75.0433L88.5161 76.2384L85.8401 77.7834L89.7161 78.3169L90.5111 79.6939L86.2716 79.1509ZM88.928 90.9518L88.178 89.6528L89.0592 88.6591L87.6642 86.2429L86.363 86.5091L85.618 85.2188L92.9052 83.8405L93.7602 85.3214L88.928 90.9518ZM91.9582 85.3803L89.0014 85.9789L89.9614 87.6417L91.9582 85.3803Z" fill="white"/>
<path opacity="0.5" d="M377.853 72.333C377.326 73.2452 376.588 73.8236 375.639 74.0683C374.689 74.313 373.77 74.1787 372.881 73.6653C371.986 73.1487 371.41 72.4196 371.153 71.4783C370.89 70.5336 371.022 69.6052 371.548 68.693C371.865 68.1445 372.287 67.7143 372.813 67.4024C373.337 67.0815 373.894 66.9177 374.482 66.9112L374.485 68.2868C374.127 68.2803 373.793 68.3722 373.483 68.5627C373.167 68.7498 372.909 69.0166 372.709 69.363C372.369 69.9519 372.279 70.5349 372.438 71.1119C372.601 71.6832 372.977 72.1389 373.566 72.4789C374.149 72.8155 374.729 72.9116 375.305 72.7669C375.884 72.6165 376.344 72.2469 376.684 71.658C376.884 71.3116 376.989 70.9565 376.999 70.5927C377.006 70.2198 376.919 69.8845 376.737 69.5868L377.929 68.9012C378.218 69.4144 378.359 69.9769 378.352 70.5888C378.339 71.1973 378.173 71.7787 377.853 72.333ZM378.234 62.6941C378.574 62.1052 379.028 61.7248 379.597 61.5528C380.16 61.3776 380.719 61.4499 381.273 61.7699C381.833 62.0932 382.181 62.5442 382.316 63.1228C382.446 63.6981 382.341 64.2802 382.001 64.8691L380.661 67.19L374.599 63.69L376.799 59.8795L377.942 60.5395L376.432 63.1549L377.584 63.8199L378.234 62.6941ZM380.884 64.2241C381.02 63.9874 381.067 63.7527 381.024 63.5202C380.976 63.2843 380.83 63.0964 380.588 62.9564C380.345 62.8164 380.113 62.786 379.89 62.8652C379.667 62.9444 379.487 63.1024 379.351 63.3391L378.701 64.4649L380.234 65.3499L380.884 64.2241ZM386.718 54.8785C386.971 55.8405 386.844 56.7602 386.337 57.6378C385.831 58.5154 385.098 59.0852 384.138 59.3472C383.176 59.6001 382.253 59.4715 381.37 58.9615C380.487 58.4515 379.917 57.7184 379.661 56.7622C379.402 55.7968 379.526 54.8754 380.033 53.9978C380.539 53.1202 381.275 52.5521 382.241 52.2935C383.2 52.0315 384.122 52.1555 385.005 52.6655C385.888 53.1755 386.459 53.9132 386.718 54.8785ZM383.809 58.0371C384.395 57.8752 384.848 57.5171 385.168 56.9628C385.488 56.4086 385.572 55.8371 385.419 55.2485C385.26 54.6566 384.892 54.1939 384.315 53.8606C383.738 53.5273 383.153 53.4399 382.561 53.5985C381.969 53.7571 381.513 54.1136 381.193 54.6678C380.873 55.2221 380.792 55.7952 380.951 56.3871C381.11 56.9791 381.478 57.4417 382.055 57.775C382.632 58.1084 383.217 58.1957 383.809 58.0371ZM384.764 46.0831C385.101 45.5 385.58 45.1226 386.203 44.9509C386.825 44.7792 387.422 44.8583 387.994 45.1883C388.566 45.5183 388.933 45.9959 389.095 46.6209C389.258 47.2459 389.171 47.85 388.834 48.4331L388.219 49.4983L390.211 50.6483L389.521 51.8435L383.459 48.3435L384.764 46.0831ZM387.717 47.7881C387.864 47.5341 387.899 47.2734 387.822 47.0059C387.74 46.7352 387.569 46.5248 387.309 46.3748C387.043 46.2215 386.776 46.1785 386.506 46.2459C386.236 46.3134 386.028 46.4741 385.881 46.7281L385.266 47.7933L387.102 48.8533L387.717 47.7881Z" fill="white"/>
<defs>
<radialGradient id="paint0_radial" cx="0" cy="0" r="1" gradientUnits="userSpaceOnUse" gradientTransform="translate(238) rotate(90) scale(238)">
<stop/>
<stop offset="1" stop-opacity="0"/>
</radialGradient>
</defs>
</svg>
