<svg width="10" height="28" viewBox="0 0 10 28" fill="none" xmlns="http://www.w3.org/2000/svg">
<path d="M0.198871 25.2004C0.11364 24.9765 0.0852306 24.8645 0 24.6685C0.255692 24.1086 0.596614 23.3527 0.937536 22.4009C1.25005 21.561 2.13077 18.8734 2.55692 14.786C2.81261 12.4344 2.72738 10.7547 2.61374 7.67514C2.52851 5.18352 2.35805 3.08384 2.216 1.51609C2.35805 1.34811 2.44328 1.23613 2.61374 1.06815C3.80697 0.984168 5.0002 0.900181 6.19342 0.816193C6.25024 0.816193 6.30706 0.788198 6.33547 0.760202C6.53435 0.620224 6.70481 0.45225 6.90368 0.312271C6.93209 0.284275 6.98891 0.25628 7.01732 0.25628L8.55147 0.00431865C8.69352 -0.023677 8.83557 0.0883057 8.83557 0.228284L8.94921 1.60007C8.94921 1.74005 9.06285 1.82404 9.20491 1.82404C9.34696 1.82404 9.43219 1.90803 9.4606 2.048C9.88675 5.07154 10.1424 8.71098 9.91516 12.7983C9.57424 18.7894 8.32419 23.8286 7.07414 27.5801C6.6764 27.748 6.47753 27.832 6.07978 28C5.31271 27.6361 4.54563 27.2721 3.80697 26.9082C3.69333 26.8522 3.63651 26.7122 3.66492 26.6002C4.97178 23.1567 6.33547 18.4255 6.70481 12.6864C6.93209 9.35488 6.76163 6.38733 6.44912 3.86772C6.4207 3.61576 6.19342 3.41979 5.96614 3.44779C5.73886 3.47578 5.5684 3.67175 5.59681 3.97971C5.93773 6.41533 6.1366 9.32688 5.96614 12.5744C5.65363 18.2295 4.28994 22.9048 2.98307 26.2363C2.92625 26.3762 2.75579 26.4322 2.64215 26.3762C1.84666 25.9843 1.02277 25.5924 0.198871 25.2004Z" fill="white"/>
</svg>
