<svg version="1.2" xmlns="http://www.w3.org/2000/svg" viewBox="0 0 60 60" width="60" height="60">
	<title>gun-svg</title>
	<style>
		.s0 { fill: #ffffff } 
	</style>
	<g id="Layer" style="opacity: .2">
		<path id="Layer" fill-rule="evenodd" class="s0" d="m8.2 24.4l24.8-14.3q0.8 0 1.3-0.7l1.1-0.7c1.1 0.4 2.1 1.3 3.2 2.6l-1 0.7c-1-0.3-1.7-0.3-1.3 0.7l-1.3 0.7-1.6-2.7v0.4l1.4 2.4-0.2 0.2-1.6-2.8v0.5l1.4 2.4-0.3 0.2-1.6-2.8 0.1 0.5 1.3 2.4-0.2 0.1-1.6-2.8v0.5l1.4 2.4-0.3 0.2-1.6-2.8 0.1 0.5 1.4 2.4-0.3 0.1-1.6-2.8v0.5l1.4 2.4-0.2 0.2-1.6-2.8v0.5l1.4 2.4-8.4 4.9-0.2-0.4-0.8 0.6-0.1 0.4-7 4.2c-1.6-0.4-3.8 0.9-6.3 2.5-0.5-0.9-1.2-1.9-1.2-2.9z"/>
		<path id="Layer" fill-rule="evenodd" class="s0" d="m36.5 9.2l0.7-0.3c0.5-0.7 0.4-1.5 1.3-1.4l0.1 0.6c-0.8 0.4-0.9 1.2-1 2q-0.5-0.5-1.1-0.9z"/>
		<path id="Layer" class="s0" d="m11.4 30.1c-0.6-0.9-1.3-1.7-1.9-2.6 1.1-0.7 2.3-1.5 3.5-2 1-0.5 2-0.7 2.7-0.6h0.1l0.8-0.4 1.1 2z"/>
		<path id="Layer" fill-rule="evenodd" class="s0" d="m16.6 24.3l22.3-12.8c0.4 0.7 1.5 0.6 2.7 0.2l1.3-0.3 0.4 0.7c-1.7 1.7-2.7 2.8-1.4 4.3l8.8 6.5 0.6 1.3-7.7 6.8-0.4-0.4 0.9-0.7-7.6-6.6c-0.9-0.7-1.6-0.9-2.3-0.5l-4.2 2.6c-1.3 0.6-2.4 0-3.4-1.8-0.6-0.7-1.2-0.9-2-0.4l-6.5 3.6zm15.3-6.9l12.9 11.4 4.1-3.5 0.1-0.1 0.3-1.5-13.2-9.7c-1.9 0.6-3.3 1.6-4.2 3.4zm4.2-3.3l13 9.7-0.3 1.4-4 3.4-12.7-11.2c0.8-1.7 2.2-2.7 4-3.3zm-1.3 2.8q0 0.3 0.1 0.5c0.2 0.4 0.7 0.5 1.1 0.3q0.2-0.1 0.3-0.3zm0-0.2l1.6 0.4q0.1-0.3-0.1-0.6c-0.2-0.4-0.7-0.5-1.1-0.3q-0.3 0.2-0.4 0.5zm-5.6 8.1l2.4-1.4c0-1.5-0.5-2.6-1.8-3.1l-0.3 0.2c1.5 0.9 1.2 2 0.8 2.9-0.1-1-0.2-2.1-1.5-2.6l-1.4 0.9c-0.9 1.5 0.8 3.3 1.8 3.1zm15.2-0.1q0 0.2 0.2 0.5c0.2 0.4 0.7 0.5 1.1 0.3q0.2-0.2 0.3-0.4zm0-0.1l1.6 0.4q0.1-0.3-0.1-0.6c-0.2-0.4-0.7-0.5-1.1-0.3q-0.3 0.2-0.4 0.5z"/>
		<path id="Layer" fill-rule="evenodd" class="s0" d="m8.8 23.4l0.9 0.1-1.2 0.7z"/>
	</g>
</svg>