<svg width="14" height="14" viewBox="0 0 14 14" fill="none" xmlns="http://www.w3.org/2000/svg">
<path d="M1 8.60467L7.60446 2L12 6.39656L5.39765 13L1 8.60467Z" fill="white"/>
<path d="M0.113866 8.31246L0.310432 8.11373C0.463815 7.96209 0.710793 7.96209 0.864177 8.11373L5.88599 13.1385C6.038 13.2886 6.038 13.5352 5.88599 13.6886L5.68981 13.885C5.53643 14.0383 5.28984 14.0383 5.13607 13.885L0.113866 8.86215C-0.0379552 8.71266 -0.0379552 8.46429 0.113866 8.31246Z" fill="white"/>
<path d="M13.5548 0.443122C11.6756 -0.410231 9.46094 -0.00835418 8 1.4529L12.549 6C14.0081 4.53874 14.4115 2.3246 13.5548 0.443122Z" fill="white"/>
</svg>
