<svg width="50" height="49" viewBox="0 0 50 49" fill="none" xmlns="http://www.w3.org/2000/svg">
<path d="M42.5264 48.2375L42.524 48.2377C42.2482 48.2655 41.9833 48.2235 41.7549 48.0957C41.5246 47.9669 41.3657 47.7697 41.2754 47.5483C41.1751 47.3025 41.1591 47.0327 41.2071 46.7714C41.0881 46.8373 40.9642 46.8994 40.835 46.9578C39.7621 47.443 38.3554 47.6606 36.3178 47.8468M42.5264 48.2375L36.2723 47.3489M42.5264 48.2375C44.1093 48.0704 45.3213 47.0723 46.2369 45.7116C47.1505 44.3539 47.8074 42.5828 48.2814 40.7367C49.2306 37.0405 49.4803 32.9063 49.4984 30.8021C49.5316 26.984 49.0548 21.4164 47.4474 16.5456C45.8673 11.7574 43.1345 7.47468 38.5492 6.39485C34.7571 2.16417 28.6645 0.458368 23.2614 0.500771C14.6945 0.565343 8.91709 4.45759 5.33448 10.2678C1.76993 16.0486 0.392151 23.6989 0.50654 31.3107L1.00649 31.3035L0.506543 31.311C0.548839 34.2113 0.974951 38.4054 2.339 41.9163C3.69893 45.4167 6.06493 48.3976 10.0533 48.499M42.5264 48.2375L10.0526 48.4989M36.3178 47.8468L36.2723 47.3489M36.3178 47.8468C36.3179 47.8468 36.3179 47.8468 36.3179 47.8468L36.2723 47.3489M36.3178 47.8468C36.0242 47.8737 35.7421 47.8268 35.5048 47.6799C35.2636 47.5307 35.1142 47.3062 35.044 47.065C34.9102 46.6055 35.0548 46.0893 35.3296 45.6966M36.2723 47.3489C35.4171 47.4272 35.3095 46.5963 35.7401 45.9822M35.3296 45.6966L35.7401 45.9822M35.3296 45.6966C35.33 45.6961 35.3303 45.6956 35.3307 45.6951L35.7401 45.9822M35.3296 45.6966L35.7401 45.9822M42.5312 27.497L42.5431 27.0977L42.5432 27.0977L42.5433 27.0901C42.5632 25.7069 40.6474 25.3354 40.1461 26.6083C39.6844 27.6557 39.2671 28.4406 38.858 29.1287C38.4829 24.4116 36.8406 18.8271 34.0213 15.261L34.0201 15.2595C33.3271 14.3899 31.9773 14.8018 31.82 15.8507C31.4921 17.6196 30.8009 20.3285 29.7223 22.7548C29.1821 23.9697 28.5519 25.0977 27.833 25.9981C27.4118 26.5255 26.9681 26.9651 26.5031 27.2992C27.1785 24.9502 27.5082 22.1184 27.3886 19.8685C27.3176 18.4386 25.3078 18.2538 24.949 19.6068C23.9236 22.9344 21.5622 25.1796 18.6623 26.9142C16.3849 28.2765 13.823 29.2984 11.3571 30.2821C10.6622 30.5594 9.97487 30.8335 9.30371 31.1114C8.94418 31.2562 8.70795 31.5096 8.60328 31.8341C8.50867 32.1275 8.53854 32.4286 8.58268 32.6611L8.58325 32.664C8.63925 32.9497 8.69387 33.231 8.74772 33.5083C9.48059 37.2821 10.0687 40.3104 11.9915 43.5654C11.6124 43.2118 11.2538 42.8013 10.9279 42.3527C10.1071 41.223 9.54308 39.9195 9.38955 38.8375L9.38926 38.8355C9.29062 38.1602 8.66654 37.6801 7.98607 37.7806C7.33336 37.8719 6.8751 38.4547 6.92372 39.0955C6.9546 40.8049 7.16805 43.3029 7.67957 45.2489C6.02285 44.1752 4.89654 42.0902 4.1601 39.6348C3.29321 36.7446 3.01609 33.5017 2.98357 31.2781L2.98357 31.278C2.87963 24.2043 4.09713 17.1398 7.26699 11.8467C10.4182 6.58486 15.5105 3.0467 23.2749 2.98788M42.5312 27.497L38.3941 45.5681C41.128 44.9804 41.8491 43.4579 42.9243 41.1878C43.112 40.7914 43.3105 40.3722 43.5324 39.9313M42.5312 27.497L42.5311 27.5011L42.5301 27.5495C42.3777 34.6712 42.2833 39.0825 38.7664 44.9607M42.5312 27.497L38.7664 44.9607M23.2749 2.98788C28.2008 2.95233 33.7253 4.51502 36.9353 8.32971C37.1283 8.56198 37.3951 8.71658 37.6911 8.76116C41.4212 9.46554 43.7891 13.1414 45.2155 17.7093C46.6305 22.2404 47.0479 27.4367 47.0213 30.7817C47.0035 32.706 46.8331 35.4634 46.344 38.1226C46.1338 39.2659 45.8674 40.3746 45.5361 41.3843C45.5366 40.9442 45.5016 40.4965 45.425 40.0416C45.4249 40.0413 45.4249 40.0411 45.4249 40.0409L44.9318 40.1239M23.2749 2.98788L23.2712 2.48789L23.2749 2.98788ZM44.9318 40.1239C44.8122 39.4014 43.8374 39.275 43.5324 39.9313M44.9318 40.1239C45.1071 41.164 45.0511 42.1683 44.8408 43.1368L44.9318 40.1239ZM43.5324 39.9313L43.0858 39.7065C43.0847 39.7086 43.0837 39.7107 43.0826 39.7128M43.5324 39.9313L43.079 39.7205C43.0802 39.718 43.0814 39.7154 43.0826 39.7128M43.0826 39.7128C42.8822 40.1113 42.701 40.4913 42.5313 40.8493C42.5115 40.8912 42.4918 40.9327 42.4723 40.974C42.3233 41.2884 42.1835 41.5836 42.0444 41.8639C41.729 42.4992 41.4303 43.0303 41.0763 43.4758C40.551 44.1368 39.8781 44.6432 38.7664 44.9607M43.0826 39.7128L38.7664 44.9607M10.0526 48.4989L10.0666 47.9991L10.054 48.499C10.0537 48.499 10.0535 48.499 10.0533 48.499M10.0526 48.4989C10.0528 48.499 10.053 48.499 10.0533 48.499M10.0526 48.4989L10.0533 48.499M40.4457 31.2823C40.4596 30.9543 40.4716 30.6203 40.4825 30.2799C40.3099 30.5652 40.1321 30.8465 39.9517 31.126C39.9381 31.4608 39.9228 31.789 39.9051 32.1113C40.0852 31.8377 40.2665 31.5616 40.4457 31.2823ZM33.4137 17.865C33.3612 18.0859 33.3041 18.3167 33.2423 18.5559C33.361 18.763 33.477 18.9756 33.5904 19.1933C33.6569 18.9497 33.7189 18.713 33.7765 18.4849C33.6582 18.2728 33.5372 18.066 33.4137 17.865ZM25.0634 24.6995C25.1273 24.3287 25.1813 23.9645 25.2267 23.6149C25.0257 23.9176 24.8136 24.2095 24.5915 24.4914C24.536 24.8232 24.4727 25.1596 24.4006 25.4951C24.63 25.2389 24.8511 24.9739 25.0634 24.6995ZM10.0404 44.4129C9.79343 44.1372 9.56249 43.8494 9.34901 43.5558C9.38129 43.7356 9.46702 44.1689 9.58277 44.6499C9.80816 44.9075 10.0484 45.1576 10.3024 45.395C10.272 45.2975 10.2418 45.1943 10.2119 45.0872C10.1495 44.8628 10.0914 44.6308 10.0404 44.4129ZM15.1069 47.3604C15.1074 47.3604 15.1079 47.3603 15.1084 47.3603C15.1089 47.3603 15.1094 47.3602 15.1099 47.3602L15.0781 46.8612L15.1069 47.3604ZM16.2706 45.296C16.2705 45.2959 16.2705 45.2958 16.2704 45.2958L15.8855 45.6149L16.2706 45.296ZM10.8053 33.1815C10.9317 33.13 11.0588 33.0786 11.1866 33.027C11.1683 32.9335 11.1499 32.8392 11.1313 32.7442L11.1076 32.6225L10.6168 32.7183L10.8053 33.1815ZM10.5453 46.0261C10.4836 46.0168 10.4197 46.012 10.3537 46.012C10.5176 46.012 10.5983 46.1051 10.5982 46.1072C10.5982 46.1076 10.5952 46.1046 10.5893 46.0971C10.5799 46.0851 10.565 46.0624 10.5453 46.0261ZM23.3647 28.5949C23.3604 28.6016 23.3563 28.6082 23.3521 28.6149C23.3493 28.6202 23.3466 28.6254 23.3438 28.6307L23.7855 28.865L23.3647 28.5949ZM36.3335 33.3224C36.3332 33.324 36.333 33.3255 36.3328 33.327C36.3327 33.3283 36.3325 33.3295 36.3323 33.3308L36.8285 33.3927L36.3335 33.3224Z" fill="white" stroke="white"/>
</svg>
