<svg width="26" height="26" viewBox="0 0 26 26" fill="none" xmlns="http://www.w3.org/2000/svg">
<g clip-path="url(#clip0)">
<path d="M21.5229 4.36426C19.7861 4.36426 18.373 5.7773 18.373 7.51412C18.373 9.25099 19.7861 10.664 21.5229 10.664C23.2598 10.664 24.6728 9.25099 24.6728 7.51412C24.6728 5.7773 23.2598 4.36426 21.5229 4.36426Z" fill="#F04E27"/>
<path d="M26.0003 21.6356V14.0118C26.0003 12.8127 25.3371 11.7696 24.3579 11.2266C23.571 11.8289 22.5881 12.1873 21.5229 12.1873C21.0009 12.1873 20.4986 12.1013 20.0295 11.9426L13.0056 15.9979C12.1327 16.5018 11.8336 17.618 12.3376 18.4909C12.6756 19.0764 13.2891 19.4037 13.9198 19.4037C14.2295 19.4037 14.5432 19.3248 14.8306 19.1589L19.6308 16.3876V21.6356H26.0003V21.6356Z" fill="#F04E27"/>
<path d="M10.6834 16.7122C10.8418 16.1211 11.1513 15.5966 11.5789 15.1809L5.97086 11.943C5.50169 12.1017 4.99941 12.1878 4.47743 12.1878C3.41204 12.1878 2.42892 11.8291 1.64196 11.2266C0.662949 11.7698 0 12.8133 0 14.0123V21.6361H6.36954V16.388L10.8838 18.9943C10.5497 18.2813 10.4772 17.4817 10.6834 16.7122Z" fill="#F04E27"/>
<path d="M4.47705 4.36426C2.74019 4.36426 1.32715 5.7773 1.32715 7.51412C1.32715 9.25099 2.74019 10.664 4.47705 10.664C6.21392 10.664 7.62696 9.25099 7.62696 7.51412C7.62701 5.7773 6.21397 4.36426 4.47705 4.36426Z" fill="#F04E27"/>
</g>
<defs>
<clipPath id="clip0">
<rect width="26" height="26" fill="white"/>
</clipPath>
</defs>
</svg>
