<svg width="40" height="40" viewBox="0 0 40 40" fill="none" xmlns="http://www.w3.org/2000/svg">
<path d="M6.89734 2.00094L5.24008 0.34375L1.46875 4.11508L5.24008 7.88633L6.89734 6.22914L5.95516 5.28695H11.6638V2.9432H5.95516L6.89734 2.00094Z" fill="white"/>
<path d="M36.1834 18.7881C34.8179 18.7507 33.6991 19.8465 33.6991 21.2036V20.4484C33.6991 19.1317 32.6668 18.0187 31.3506 17.9826C29.9851 17.9451 28.8663 19.0409 28.8663 20.398L28.8636 19.6715C28.8636 18.3369 27.7817 17.2551 26.4472 17.2551C25.1127 17.2551 24.0308 18.3369 24.0308 19.6715V7.44718C24.0308 6.13046 22.9984 5.01749 21.6823 4.9814C20.3167 4.94398 19.198 6.03976 19.198 7.39687V22.6738H18.0547C16.8509 22.6738 15.875 23.6497 15.875 24.8535V28.6726C15.875 34.9292 20.947 40.0012 27.2035 40.0012C33.4601 40.0012 38.532 34.9292 38.532 28.6726V21.2538C38.532 19.9372 37.4997 18.8242 36.1834 18.7881Z" fill="white"/>
<path d="M16.854 7.3957C16.854 6.12422 17.3491 4.92883 18.2482 4.02977C19.1473 3.13063 20.3427 2.63547 21.6142 2.63555H21.6143C21.6582 2.63555 21.7025 2.63617 21.7463 2.63734C23.0064 2.67188 24.181 3.19969 25.0536 4.12336C25.9052 5.02492 26.3743 6.20492 26.3743 7.44594V10.7238C27.427 9.58469 28.0711 8.06234 28.0711 6.38906C28.0711 2.86047 25.2106 0 21.682 0C18.1534 0 15.293 2.86047 15.293 6.38906C15.293 7.98883 15.8823 9.45008 16.854 10.5709V7.3957Z" fill="white"/>
</svg>
