<svg width="32" height="32" viewBox="0 0 32 32" fill="none" xmlns="http://www.w3.org/2000/svg">
<g clip-path="url(#clip0)">
<path d="M15.0587 19.7873C15.0587 17.8617 13.8956 16.2034 12.2353 15.4756C11.0124 18.1483 10.9482 21.3 12.2355 24.0984C13.9065 23.3629 15.0587 21.6825 15.0587 19.7873Z" fill="#F04E27"/>
<path d="M24.4706 9.82423V6.61018H22.5882V1.9043H9.41177V6.61018H7.52941V9.82423C3.08869 11.0843 0 15.1464 0 19.7867C0 25.1781 4.14256 29.6193 9.41177 30.0964V26.3074C6.22331 25.8493 3.76471 23.1 3.76471 19.7867C3.76471 16.154 6.72019 13.1985 10.3529 13.1985C13.9857 13.1985 16.9412 16.154 16.9412 19.7867C16.9412 23.1 14.4826 25.8493 11.2941 26.3074V30.0964C16.5633 29.6193 20.7059 25.1781 20.7059 19.7867C20.7059 15.152 17.6227 11.0859 13.1765 9.8243V6.61024H11.2941V3.78671H20.7059V6.61024H18.8235V9.8243C18.5047 9.91471 18.1909 10.0207 17.8831 10.1412C18.9879 11.0055 19.9488 12.0632 20.7056 13.2661C24.6638 12.6971 28.2353 15.7695 28.2353 19.7867C28.2353 23.1 25.7767 25.8493 22.5882 26.3074V30.0964C27.8574 29.6193 32 25.1781 32 19.7867C32 15.152 28.9168 11.0858 24.4706 9.82423Z" fill="#F04E27"/>
<path d="M17.8784 29.4285C18.768 29.7774 19.7173 30.0067 20.7062 30.0962V26.3072C20.705 26.307 20.7038 26.3068 20.7026 26.3066C19.9476 27.5013 18.9933 28.5562 17.8784 29.4285Z" fill="#F04E27"/>
</g>
<defs>
<clipPath id="clip0">
<rect width="32" height="32" fill="white"/>
</clipPath>
</defs>
</svg>
