<svg width="147" height="147" viewBox="0 0 147 147" fill="none" xmlns="http://www.w3.org/2000/svg">
<g opacity="0.3" clip-path="url(#clip0_2668_6731)">
<path d="M48.6005 82.9707L46.185 83.6346L28.8739 66.3235C26.3881 63.8382 22.3439 63.838 19.8578 66.3235C17.372 68.8093 17.372 72.8537 19.8578 75.3396L31.7313 87.213L25.6401 93.3042L13.7666 81.4308C7.92205 75.5862 7.92205 66.0765 13.7666 60.2323C14.1511 59.8478 14.5519 59.488 14.9663 59.154V37.0884C14.9663 32.965 11.6116 29.6099 7.48817 29.6094C3.36477 29.6091 0.00947579 32.9635 0.00861436 37.0872L0 87.6067L34.0141 121.621V140.479H69.1905V98.7502C69.2112 94.354 67.5199 90.2415 64.4282 87.1498C60.3022 83.0233 54.238 81.4227 48.6005 82.9707Z" fill="white"/>
<path d="M146.991 37.0872C146.99 32.9635 143.635 29.6091 139.511 29.6094C135.388 29.6099 132.033 32.965 132.033 37.0884V59.154C132.447 59.488 132.848 59.8478 133.233 60.2323C139.077 66.0768 139.077 75.5865 133.233 81.4308L121.359 93.3042L115.268 87.213L127.142 75.3396C128.346 74.1356 129.009 72.5341 129.009 70.8314C129.009 69.1286 128.346 67.5275 127.142 66.3235C124.656 63.8377 120.611 63.8382 118.126 66.3235L100.814 83.6346L98.399 82.9707C92.7629 81.4222 86.6976 83.0236 82.571 87.1498C79.477 90.2441 77.7843 94.3566 77.805 98.7298L77.8047 140.479H112.985V121.621L147 87.607L146.991 37.0872Z" fill="white"/>
<path d="M44.8964 40.5504L73.5092 24.17L102.014 40.6271C105.51 37.6738 107.531 33.3707 107.531 28.658V26.1714L96.2563 19.6618V6.52344H87.6419V14.6881L73.5001 6.52344L39.4688 26.1711V28.6577C39.4688 33.3299 41.4558 37.5997 44.8964 40.5504Z" fill="white"/>
<path d="M50.7441 47.132V66.1939H96.2566V47.2529L73.4912 34.1094L50.7441 47.132Z" fill="white"/>
</g>
<defs>
<clipPath id="clip0_2668_6731">
<rect width="147" height="147" fill="white"/>
</clipPath>
</defs>
</svg>
