<svg version="1.2" xmlns="http://www.w3.org/2000/svg" viewBox="0 0 60 60" width="60" height="60">
	<title>hat-svg</title>
	<style>
		.s0 { fill: #ffffff } 
	</style>
	<g id="Layer" style="opacity: .2">
		<path id="Layer" fill-rule="evenodd" class="s0" d="m46.7 26.8c-0.1 0.8-0.4 1.6-1 2.1-0.6 0.5-1.3 0.8-2.1 0.8-0.7 0-1.5 0-2.2 0q-0.4 0-0.8 0.1-0.3 0.2-0.6 0.6c-1.3 1.7-4.9 6-8.3 6.5-0.9 0.2-1.8 0.1-2.6-0.3-1.8-1.1-4.8-4.4-8.8-5.6q-0.1 0-0.3 0-0.1 0.1-0.2 0.2c-1.2 1.2-2.7 2.7-4.3 2.7-0.6 0-1.2-0.2-1.7-0.6-1-0.7-1-2.2-0.4-3.1 0.2-0.3 4.7-5.8 5.7-6.9q0.1-0.2 0.1-0.5c0.8-8.6 6.1-13.7 13.7-13.4q0.2 0 0.3-0.1 0.1-0.1 0.2-0.2 0.3-0.6 0.9-0.9 0.6-0.3 1.2-0.2 0.7 0.1 1.1 0.6 0.5 0.5 0.6 1.1 0 0.2 0.1 0.3 0.2 0.1 0.3 0.2c3.1 1 5.6 2.9 7 5 2.4 3.7 2.7 7.3 2.1 11.6zm-27.7 3.9c-2.1-0.4-3.9-0.1-5.2 0.7q0 0.2 0 0.4 0 0.2 0.2 0.5 0.1 0.2 0.3 0.3c0.4 0.3 0.8 0.5 1.2 0.5 1.2 0 2.5-1.3 3.5-2.4zm20-1.6q0-0.1 0-0.3-0.1-0.1-0.2-0.2c-1-0.5-3.8-1.9-5.2-2.7-2.3-1.4-4.6-2.7-7.5-3.4-1.9-0.5-3.9-0.5-5.8-0.2q-0.2 0.1-0.3 0.2-0.1 0.1-0.1 0.3 0 0.1 0.1 0.2 0 0 0.1 0.1 0.1 0.1 0.1 0.1 0.1 0 0.2 0c1.8-0.4 3.7-0.3 5.5 0.1 2.8 0.7 5 2 7.3 3.3q2.5 1.6 5.2 2.8 0.1 0 0.2 0 0.1 0 0.1 0 0.1-0.1 0.2-0.1 0-0.1 0.1-0.2z"/>
	</g>
</svg>