<svg width="26" height="26" viewBox="0 0 26 26" fill="none" xmlns="http://www.w3.org/2000/svg">
<path d="M13.0001 22.75C12.6739 22.7496 12.3554 22.651 12.086 22.4671C8.09511 19.758 6.36703 17.9004 5.41386 16.739C3.38261 14.2634 2.41015 11.7218 2.43758 8.96949C2.46957 5.81547 5 3.25 8.07836 3.25C10.3168 3.25 11.8671 4.5109 12.77 5.56105C12.7986 5.59399 12.834 5.62039 12.8737 5.63849C12.9133 5.65659 12.9565 5.66595 13.0001 5.66595C13.0437 5.66595 13.0868 5.65659 13.1265 5.63849C13.1662 5.62039 13.2015 5.59399 13.2301 5.56105C14.133 4.50988 15.6834 3.25 17.9218 3.25C21.0002 3.25 23.5306 5.81547 23.5626 8.97C23.59 11.7229 22.6165 14.2645 20.5863 16.7395C19.6331 17.9009 17.905 19.7585 13.9141 22.4677C13.6447 22.6514 13.3262 22.7497 13.0001 22.75Z" fill="#F04E27"/>
</svg>
