<svg width="24" height="24" viewBox="0 0 24 24" fill="none" xmlns="http://www.w3.org/2000/svg">
<path d="M24 3.42522V1.71094H5.14286V3.42522H13.7143V6.85379H3.42857L1.71429 3.42522H0V8.87665C0 9.69437 0.576 10.3972 1.37829 10.5584L8.57143 11.9967V15.4252C8.57143 16.3715 9.33943 17.1395 10.2857 17.1395H12V18.8538H8.57143C7.62686 18.8538 6.85714 18.0858 6.85714 17.1395H5.14286C5.14286 19.0304 6.68057 20.5681 8.57143 20.5681H22.2857V18.8538H20.5714V17.1395C22.4657 17.1395 24 15.6052 24 13.7109C24 9.92408 20.9297 6.85379 17.1429 6.85379H15.4286V3.42522H24ZM18.8571 18.8538H13.7143V17.1395H18.8571V18.8538ZM22.2857 13.7109H17.1429V8.56808C19.9783 8.56808 22.2857 10.8755 22.2857 13.7109Z" fill="white"/>
</svg>
