<svg width="44" height="56" viewBox="0 0 44 56" fill="none" xmlns="http://www.w3.org/2000/svg">
<path d="M42.3875 53.6624L42.4511 53.7123L42.4187 53.5834C42.419 53.5826 42.4193 53.5817 42.4196 53.5809C42.5239 53.289 42.5268 52.9706 42.4277 52.6768C42.3287 52.3831 42.1336 52.1314 41.8745 51.9617L41.6368 51.806C41.2139 51.4888 40.7752 51.1928 40.3224 50.9191L40.3078 50.9103L40.2927 50.9025C39.5858 50.5385 38.9621 50.0344 38.4598 49.4216C37.8372 48.1998 37.3163 46.9296 36.9023 45.6236C37.275 45.2456 37.5531 44.7838 37.7119 44.2754C37.8965 43.6848 37.9127 43.0549 37.7588 42.4557L37.7542 42.4377L37.7482 42.4201C37.664 42.1706 37.5101 41.9506 37.3051 41.7855C37.3044 41.785 37.3038 41.7844 37.3031 41.7839L35.6742 40.4563L28.9111 1.65388L42.3875 53.6624ZM42.3875 53.6624C42.2771 53.9189 42.091 54.1365 41.8536 54.286L41.5872 53.8629L41.8536 54.286C41.5979 54.447 41.2966 54.5203 40.9959 54.4952C40.6849 54.4871 40.3853 54.3752 40.1454 54.1769C39.7328 53.8728 39.3024 53.5933 38.8563 53.34C37.7699 52.7719 36.8272 51.9658 36.0997 50.9822L36.0795 50.9548L36.0632 50.925C35.5128 49.9201 35.043 48.874 34.6581 47.7965C34.3204 48.0109 33.9359 48.1492 33.5316 48.1972L33.5005 48.2009L33.4693 48.2007C33.2964 48.1996 33.1244 48.1757 32.9578 48.1298L32.9509 48.1278L32.944 48.1257C29.6064 47.1016 26.8606 45.1991 23.4727 42.8517L23.4725 42.8515L23.4699 42.8498L22.5042 42.1894L22.4986 42.1855L22.4987 42.1855C18.0201 39.0327 13.7514 35.5953 9.71917 31.8949L9.71845 31.8942C8.91911 31.1578 6.89956 29.1991 4.97451 27.185C4.01185 26.1778 3.06797 25.1518 2.3102 24.2546C1.56815 23.3761 0.958655 22.5689 0.716294 22.0154L0.715853 22.0144C0.287337 21.0299 0.559733 19.8835 0.982318 18.9267C1.41467 17.9479 2.06051 17.039 2.57268 16.4466L2.57636 16.4424L2.57638 16.4424C2.93073 16.0418 3.46273 15.4518 4.12092 15.0193C4.78539 14.5828 5.63249 14.2722 6.5874 14.5245C7.05875 14.6491 7.562 14.9313 8.09455 15.317C8.63254 15.7067 9.23124 16.225 9.895 16.8545C11.2216 18.1128 12.8477 19.8539 14.8213 21.9874L14.8301 21.9969L14.83 21.997C17.0774 24.5557 19.4783 26.9773 22.0193 29.2486L29.3168 35.2455L28.2403 30.2242L26.8431 30.4226C26.6646 30.4524 26.4819 30.4472 26.3053 30.4072C26.126 30.3666 25.9564 30.2909 25.8065 30.1843L26.0963 29.7768L25.8065 30.1842C25.6566 30.0776 25.5293 29.9423 25.4323 29.786C25.3367 29.6319 25.2723 29.4605 25.243 29.2815L20.9906 6.60515C20.949 6.41161 20.9497 6.21142 20.9925 6.01809L20.9931 6.01544C21.0892 5.59269 21.2742 4.87461 21.5262 4.17C21.6523 3.81765 21.7979 3.46048 21.9614 3.14177C22.1219 2.82899 22.3141 2.52412 22.5429 2.29963L22.5479 2.29474L22.5479 2.29478C22.8304 2.02525 23.2279 1.80005 23.6394 1.61241C24.059 1.42108 24.5309 1.25211 24.9908 1.10786C25.9067 0.820573 26.8094 0.620717 27.2283 0.534595C27.41 0.493336 27.5982 0.48893 27.7816 0.521657L27.6938 1.01389L27.7816 0.521658C27.9668 0.554695 28.1434 0.624905 28.3007 0.728134M42.3875 53.6624L28.3007 0.728134M28.3007 0.728134C28.4605 0.831858 28.5972 0.967354 28.7022 1.12631C28.8074 1.28541 28.8784 1.46453 28.9108 1.65248L28.3007 0.728134ZM33.9284 44.6713C33.7236 44.882 33.5102 45.0842 33.2887 45.2775C30.6051 44.3973 28.1858 42.7206 25.0903 40.5464L25.0859 40.5434L24.1137 39.8758C24.1129 39.8752 24.1121 39.8747 24.1113 39.8741C19.7509 36.8024 15.589 33.4615 11.6501 29.8712C10.1524 28.4527 8.18244 26.475 6.52118 24.7041C5.68975 23.8178 4.93936 22.9873 4.36562 22.307C4.07855 21.9666 3.83908 21.6678 3.65696 21.4208C3.49046 21.1951 3.38743 21.0332 3.33598 20.932C3.33598 20.9022 3.33969 20.8526 3.35239 20.7812C3.37846 20.6348 3.43618 20.4315 3.53649 20.1838C3.73637 19.6902 4.09134 19.0544 4.64163 18.3906L4.64167 18.3906L4.64619 18.385C5.06163 17.8689 5.42142 17.5707 5.67854 17.4083C5.80763 17.3267 5.90653 17.282 5.96992 17.26C5.97276 17.259 5.97549 17.2581 5.9781 17.2572C6.04253 17.2855 6.13659 17.3359 6.26342 17.4192C6.44195 17.5364 6.65609 17.6991 6.90226 17.9042C7.39424 18.3142 7.98722 18.8711 8.63771 19.5176C9.93629 20.8082 11.4352 22.4272 12.7672 23.879C15.0888 26.5331 17.5662 29.0485 20.1864 31.4122L20.1952 31.4201L20.2044 31.4276L30.5797 39.9297L30.5802 39.9302L33.472 42.2929L34.969 43.5693C34.9226 43.6594 34.8589 43.7407 34.7806 43.8082L34.7701 43.8173L34.7601 43.8269C34.4611 44.1151 34.1808 44.4025 33.9284 44.6713ZM3.33695 20.9534C3.33692 20.9534 3.33679 20.9525 3.33663 20.9508L3.33695 20.9534ZM30.1581 27.4645C29.8619 27.2597 29.4977 27.178 29.1426 27.2358L27.7737 27.4254L23.8208 6.32864C23.9818 5.61973 24.2331 4.93415 24.5688 4.28851C25.1514 3.98502 25.7686 3.75298 26.4067 3.59721L30.6801 28.1531C30.5847 27.8752 30.4024 27.6334 30.1581 27.4645Z" fill="white" stroke="white"/>
</svg>
