<svg width="129" height="131" viewBox="0 0 129 131" fill="none" xmlns="http://www.w3.org/2000/svg">
<g filter="url(#filter0_d_60_30464)">
<path d="M57.9273 27.0428C58.8565 26.5063 60.0014 26.5063 60.9307 27.0428L85.0525 40.9695C85.9818 41.506 86.5542 42.4976 86.5542 43.5706V71.4241C86.5542 72.4971 85.9818 73.4886 85.0525 74.0251L60.9307 87.9519C60.0014 88.4884 58.8565 88.4884 57.9273 87.9519L33.8054 74.0251C32.8762 73.4886 32.3037 72.4971 32.3037 71.4241V43.5706C32.3037 42.4976 32.8762 41.506 33.8054 40.9695L57.9273 27.0428Z" fill="url(#paint0_radial_60_30464)" fill-opacity="0.05"/>
<path d="M58.0586 27.2695C58.9066 26.7801 59.9518 26.7799 60.7998 27.2695L84.9209 41.1963C85.7689 41.6859 86.2919 42.5911 86.292 43.5703V71.4238C86.292 72.4031 85.769 73.3082 84.9209 73.7979L60.7998 87.7246C59.9517 88.2142 58.9067 88.2142 58.0586 87.7246L33.9365 73.7979C33.0885 73.3082 32.5664 72.4031 32.5664 71.4238V43.5703C32.5665 42.5911 33.0885 41.6859 33.9365 41.1963L58.0586 27.2695Z" stroke="#5FD8DF" stroke-width="0.524712"/>
</g>
<defs>
<filter id="filter0_d_60_30464" x="-9.74322" y="-15.4073" width="138.346" height="145.811" filterUnits="userSpaceOnUse" color-interpolation-filters="sRGB">
<feFlood flood-opacity="0" result="BackgroundImageFix"/>
<feColorMatrix in="SourceAlpha" type="matrix" values="0 0 0 0 0 0 0 0 0 0 0 0 0 0 0 0 0 0 127 0" result="hardAlpha"/>
<feOffset/>
<feGaussianBlur stdDeviation="21.024"/>
<feColorMatrix type="matrix" values="0 0 0 0 0.372549 0 0 0 0 0.847059 0 0 0 0 0.87451 0 0 0 0.25 0"/>
<feBlend mode="normal" in2="BackgroundImageFix" result="effect1_dropShadow_60_30464"/>
<feBlend mode="normal" in="SourceGraphic" in2="effect1_dropShadow_60_30464" result="shape"/>
</filter>
<radialGradient id="paint0_radial_60_30464" cx="0" cy="0" r="1" gradientUnits="userSpaceOnUse" gradientTransform="translate(59.429 57.4973) rotate(90) scale(31.3215)">
<stop stop-color="white" stop-opacity="0"/>
<stop offset="1" stop-color="white"/>
</radialGradient>
</defs>
</svg>
