<?xml version="1.0" encoding="utf-8"?>
<!-- Generator: Adobe Illustrator 25.1.0, SVG Export Plug-In . SVG Version: 6.00 Build 0)  -->
<svg version="1.1" id="Layer_1" xmlns="http://www.w3.org/2000/svg" x="0px" y="0px"
     viewBox="0 0 27.3 27.3" style="enable-background:new 0 0 27.3 27.3;" xml:space="preserve">
<style type="text/css">
	.st0{fill:#68ACCD;}
	.st1{fill:#FFFFFF;}
</style>
<g>
	<path class="st0" d="M19.3,2.3L25,8c3.1,3.1,3.1,8.2,0,11.3L19.3,25c-3.1,3.1-8.2,3.1-11.3,0l-5.7-5.7c-3.1-3.1-3.1-8.2,0-11.3
		L8,2.3C11.1-0.8,16.2-0.8,19.3,2.3z"/>
	<g>
		<path class="st1" d="M17.7,16c0,0.9-0.3,1.7-0.9,2.3c-0.6,0.6-1.4,0.9-2.3,1v1.4h-1.1v-1.4c-0.9-0.1-1.7-0.3-2.3-0.7
			c-0.6-0.4-1.1-1-1.4-1.8l2.2-1.2c0.3,0.8,0.8,1.2,1.5,1.3v-2.1c0,0-0.1,0-0.1,0c0,0-0.1,0-0.1,0c-0.3-0.1-0.6-0.3-0.9-0.4
			c-0.2-0.1-0.5-0.3-0.8-0.5c-0.3-0.2-0.5-0.4-0.7-0.6c-0.2-0.2-0.3-0.5-0.5-0.8c-0.1-0.3-0.2-0.7-0.2-1.1c0-1,0.3-1.7,0.9-2.3
			c0.6-0.6,1.4-0.9,2.3-1V6.7h1.1v1.4c1.5,0.2,2.5,0.9,3.1,2.3l-2.1,1.2c-0.2-0.5-0.5-0.9-1-1v2.1c0.1,0,0.2,0.1,0.5,0.2
			c0.3,0.1,0.5,0.2,0.6,0.2c0.1,0,0.3,0.1,0.5,0.3c0.3,0.1,0.4,0.2,0.5,0.3c0.1,0.1,0.2,0.2,0.4,0.4c0.2,0.2,0.3,0.4,0.4,0.5
			c0.1,0.2,0.1,0.4,0.2,0.6C17.7,15.5,17.7,15.7,17.7,16z M12.7,11.3c0,0.3,0.2,0.6,0.7,0.9v-1.6C12.9,10.6,12.7,10.9,12.7,11.3z
			 M14.5,16.8c0.5-0.1,0.7-0.4,0.7-0.8c0-0.3-0.2-0.6-0.7-0.9V16.8z"/>
	</g>
</g>
</svg>
