<svg width="32" height="32" viewBox="0 0 32 32" fill="none" xmlns="http://www.w3.org/2000/svg">
<rect width="32" height="32" rx="4" fill="#27AE60"/>
<path d="M12.1818 7C12.013 7.00002 11.8512 7.06775 11.7319 7.18831C11.6125 7.30886 11.5455 7.47237 11.5455 7.64286V8.28571H9.63636C9.46759 8.28573 9.30574 8.35347 9.18641 8.47402C9.06707 8.59458 9.00002 8.75808 9 8.92857V10.2143C9 12.6073 10.1792 14.716 11.9792 15.995C12.419 16.9295 13.1665 17.6853 14.0909 18.1307V19.8571H11.5455C11.3767 19.8572 11.2148 19.9249 11.0955 20.0455C10.9762 20.166 10.9091 20.3295 10.9091 20.5V24.3571C10.9091 24.5276 10.9762 24.6911 11.0955 24.8117C11.2148 24.9322 11.3767 25 11.5455 25H20.4545C20.6233 25 20.7852 24.9322 20.9045 24.8117C21.0238 24.6911 21.0909 24.5276 21.0909 24.3571V20.5C21.0909 20.3295 21.0238 20.166 20.9045 20.0455C20.7852 19.9249 20.6233 19.8572 20.4545 19.8571H17.9091V18.1307C18.834 17.685 19.5823 16.9289 20.022 15.9937C21.8216 14.7152 23 12.6067 23 10.2143V8.92857C23 8.75808 22.9329 8.59458 22.8136 8.47402C22.6943 8.35347 22.5324 8.28573 22.3636 8.28571H20.4545V7.64286C20.4545 7.47237 20.3875 7.30886 20.2681 7.18831C20.1488 7.06775 19.987 7.00002 19.8182 7H12.1818ZM10.2727 9.57143H11.5455V13.8467C10.7531 12.8564 10.2727 11.5992 10.2727 10.2143V9.57143ZM20.4545 9.57143H21.7273V10.2143C21.7273 11.6025 21.2494 12.8658 20.4545 13.858V9.57143ZM12.1818 21.1429H19.8182V23.7143H12.1818V21.1429Z" fill="white"/>
</svg>
