<svg width="24" height="24" viewBox="0 0 24 24" fill="none" xmlns="http://www.w3.org/2000/svg">
<g opacity="0.4">
<path d="M18.6 6.625C17.16 6.625 15.8 7.18502 14.825 8.16002L12 10.66L11.995 10.655L10.48 11.99L10.49 12L7.79498 14.39C7.155 15.025 6.30502 15.375 5.4 15.375C3.53002 15.375 2.01 13.86 2.01 12C2.01 10.14 3.53002 8.62502 5.4 8.62502C6.30502 8.62502 7.155 8.97503 7.83998 9.655L8.97497 10.66L10.485 9.325L9.21994 8.20502C8.19994 7.19003 6.84492 6.63002 5.39995 6.63002C2.42002 6.625 0 9.03503 0 12C0 14.965 2.42002 17.375 5.4 17.375C6.84 17.375 8.19502 16.815 9.17498 15.845L12 13.34L12.005 13.345L13.515 12.005L13.51 12L16.205 9.61502C16.845 8.97503 17.695 8.62502 18.6 8.62502C20.47 8.62502 21.99 10.14 21.99 12C21.99 13.86 20.47 15.375 18.6 15.375C17.695 15.375 16.845 15.025 16.16 14.35L15.025 13.345L13.515 14.685L14.78 15.805C15.8 16.82 17.155 17.375 18.595 17.375C21.58 17.375 24 14.965 24 12C24 9.03503 21.58 6.625 18.6 6.625Z" fill="white"/>
</g>
</svg>
