<svg width="293" height="65" viewBox="0 0 293 65" fill="none" xmlns="http://www.w3.org/2000/svg">
<path d="M12.027 3.78912C10.7315 3.74704 8.73918 3.38579 7.90496 3.21043C6.43278 3.10522 7.0217 6.99823 7.16892 7.68213C7.31613 8.36604 7.90496 18.3492 7.90496 18.6122C7.90496 18.8753 10.4077 21.2024 10.9965 21.5707C11.4676 21.8653 7.85589 24.7252 6.43281 25.0408C6.43281 29.6703 7.31613 37.006 7.31613 37.9319C7.31613 38.4053 4.37183 42.4562 4.37183 42.877C4.37183 43.2979 3.48851 53.0304 2.458 54.1878C1.4275 55.3452 2.458 61.0269 2.458 61.4478C2.458 61.8686 5.69674 61.9212 6.43281 61.9212C7.16889 61.9212 7.46332 61.7634 9.52433 61.9212C11.1731 62.0475 37.5933 62.2544 50.5974 62.3421L52.9528 61.0269L55.0138 62.3421C65.8096 62.4824 88.4611 62.805 92.7009 62.9734C98.0006 63.1838 129.357 62.079 136.129 62.0264C142.901 61.9738 192.66 61.0795 205.762 61.0795C218.864 61.0795 285.111 61.7634 288.35 61.6582C291.589 61.553 291.441 60.606 290.116 58.6595C289.056 57.1023 286.338 46.8959 285.111 40.6531C284.179 40.5128 282.255 37.4689 282.02 37.0901C281.784 36.7114 283.982 34.3297 285.111 34.2245C285.16 31.2609 285.288 27.0946 285.406 25.832C285.523 24.5694 285.847 19.6449 285.994 15.8571L278.928 12.7325L285.994 10.6531L286.73 3.68391C271.126 3.8242 239.857 4.10477 239.622 4.10477C239.327 4.10477 237.053 7.53923 235.286 7.59184C233.873 7.63392 232.212 4.85882 231.672 4.2626C216.411 4.19245 184.887 4.01008 180.883 3.84173C175.877 3.6313 143.196 3.73652 138.779 3.84173C134.363 3.94695 110.219 4.36781 105.803 4.05216C101.387 3.73652 82.3449 4.05216 81.02 4.05216C79.96 4.05216 74.0046 3.12275 73.5629 3C64.0921 3.14029 45.0326 3.42087 44.5615 3.42087C44.0904 3.42087 42.7391 7.29634 41.9539 7.68213L39.5562 3.6313C30.9196 3.70144 13.3225 3.83121 12.027 3.78912Z" fill="white" stroke="#CFD5DA" stroke-width="4"/>
</svg>
