<svg width="226" height="48" viewBox="0 0 226 48" fill="none" xmlns="http://www.w3.org/2000/svg">
<rect width="226" height="48" rx="8" fill="white" fill-opacity="0.1"/>
<g opacity="0.8">
<path d="M28 14.625C22.8306 14.625 18.625 18.8306 18.625 24C18.625 29.1694 22.8306 33.375 28 33.375C33.1694 33.375 37.375 29.1694 37.375 24C37.375 18.8306 33.1694 14.625 28 14.625ZM28 18.4688C28.241 18.4688 28.4767 18.5402 28.6771 18.6741C28.8775 18.8081 29.0337 18.9984 29.126 19.2211C29.2182 19.4438 29.2424 19.6889 29.1953 19.9253C29.1483 20.1617 29.0322 20.3788 28.8618 20.5493C28.6913 20.7197 28.4742 20.8358 28.2378 20.8828C28.0014 20.9299 27.7563 20.9057 27.5336 20.8135C27.3109 20.7212 27.1206 20.565 26.9866 20.3646C26.8527 20.1642 26.7812 19.9285 26.7812 19.6875C26.7812 19.3643 26.9097 19.0543 27.1382 18.8257C27.3668 18.5972 27.6768 18.4688 28 18.4688ZM30.25 29.0625H26.125C25.9261 29.0625 25.7353 28.9835 25.5947 28.8428C25.454 28.7022 25.375 28.5114 25.375 28.3125C25.375 28.1136 25.454 27.9228 25.5947 27.7822C25.7353 27.6415 25.9261 27.5625 26.125 27.5625H27.4375V23.4375H26.6875C26.4886 23.4375 26.2978 23.3585 26.1572 23.2178C26.0165 23.0772 25.9375 22.8864 25.9375 22.6875C25.9375 22.4886 26.0165 22.2978 26.1572 22.1572C26.2978 22.0165 26.4886 21.9375 26.6875 21.9375H28.1875C28.3864 21.9375 28.5772 22.0165 28.7178 22.1572C28.8585 22.2978 28.9375 22.4886 28.9375 22.6875V27.5625H30.25C30.4489 27.5625 30.6397 27.6415 30.7803 27.7822C30.921 27.9228 31 28.1136 31 28.3125C31 28.5114 30.921 28.7022 30.7803 28.8428C30.6397 28.9835 30.4489 29.0625 30.25 29.0625Z" fill="white"/>
</g>
<path d="M57.616 18.3H59.12L55.52 26.844C55.1147 27.804 54.5973 28.5027 53.968 28.94C53.3387 29.3667 52.5707 29.5533 51.664 29.5V28.124C52.2827 28.188 52.784 28.0973 53.168 27.852C53.552 27.6067 53.872 27.1853 54.128 26.588L54.24 26.332L50.448 18.3H51.952L54.928 24.7L57.616 18.3ZM64.2533 21.292C65.3733 21.292 66.3279 21.7027 67.1173 22.524C67.9066 23.3347 68.3013 24.3267 68.3013 25.5C68.3013 26.6733 67.9066 27.6707 67.1173 28.492C66.3279 29.3027 65.3733 29.708 64.2533 29.708C62.9306 29.708 61.9226 29.18 61.2293 28.124V32.7H59.8372V21.5H61.2293V22.876C61.9226 21.82 62.9306 21.292 64.2533 21.292ZM64.0773 28.364C64.8773 28.364 65.5493 28.092 66.0933 27.548C66.6373 26.9933 66.9093 26.3107 66.9093 25.5C66.9093 24.6893 66.6373 24.012 66.0933 23.468C65.5493 22.9133 64.8773 22.636 64.0773 22.636C63.2666 22.636 62.5893 22.9133 62.0453 23.468C61.5013 24.012 61.2293 24.6893 61.2293 25.5C61.2293 26.3107 61.5013 26.9933 62.0453 27.548C62.5893 28.092 63.2666 28.364 64.0773 28.364ZM76.5863 21.5H77.9783V29.5H76.5863V28.124C75.8929 29.18 74.8849 29.708 73.5623 29.708C72.4423 29.708 71.4876 29.3027 70.6983 28.492C69.9089 27.6707 69.5143 26.6733 69.5143 25.5C69.5143 24.3267 69.9089 23.3347 70.6983 22.524C71.4876 21.7027 72.4423 21.292 73.5623 21.292C74.8849 21.292 75.8929 21.82 76.5863 22.876V21.5ZM73.7383 28.364C74.5489 28.364 75.2263 28.092 75.7703 27.548C76.3143 26.9933 76.5863 26.3107 76.5863 25.5C76.5863 24.6893 76.3143 24.012 75.7703 23.468C75.2263 22.9133 74.5489 22.636 73.7383 22.636C72.9383 22.636 72.2663 22.9133 71.7223 23.468C71.1783 24.012 70.9062 24.6893 70.9062 25.5C70.9062 26.3107 71.1783 26.9933 71.7223 27.548C72.2663 28.092 72.9383 28.364 73.7383 28.364ZM85.4153 25.388C86.2366 25.7293 86.6473 26.348 86.6473 27.244C86.6473 27.9053 86.4233 28.4493 85.9753 28.876C85.5379 29.292 84.9086 29.5 84.0873 29.5H80.0872V21.5H83.7673C84.5673 21.5 85.1859 21.7027 85.6233 22.108C86.0606 22.5027 86.2793 23.0253 86.2793 23.676C86.2793 24.444 85.9913 25.0147 85.4153 25.388ZM83.7033 22.748H81.4473V24.844H83.7033C84.5139 24.844 84.9193 24.4867 84.9193 23.772C84.9193 23.0893 84.5139 22.748 83.7033 22.748ZM84.0073 28.236C84.4126 28.236 84.7219 28.14 84.9353 27.948C85.1593 27.756 85.2713 27.484 85.2713 27.132C85.2713 26.8013 85.1593 26.5453 84.9353 26.364C84.7219 26.172 84.4126 26.076 84.0073 26.076H81.4473V28.236H84.0073ZM93.6858 21.5H95.0778V29.5H93.6858V26.156H89.5418V29.5H88.1497V21.5H89.5418V24.828H93.6858V21.5ZM103.949 28.492C103.127 29.3027 102.13 29.708 100.957 29.708C99.7833 29.708 98.786 29.3027 97.9646 28.492C97.154 27.6813 96.7486 26.684 96.7486 25.5C96.7486 24.316 97.154 23.3187 97.9646 22.508C98.786 21.6973 99.7833 21.292 100.957 21.292C102.13 21.292 103.127 21.6973 103.949 22.508C104.77 23.3187 105.181 24.316 105.181 25.5C105.181 26.684 104.77 27.6813 103.949 28.492ZM100.957 28.348C101.757 28.348 102.429 28.076 102.973 27.532C103.517 26.988 103.789 26.3107 103.789 25.5C103.789 24.6893 103.517 24.012 102.973 23.468C102.429 22.924 101.757 22.652 100.957 22.652C100.167 22.652 99.5006 22.924 98.9566 23.468C98.4126 24.012 98.1406 24.6893 98.1406 25.5C98.1406 26.3107 98.4126 26.988 98.9566 27.532C99.5006 28.076 100.167 28.348 100.957 28.348ZM112.15 25.388C112.971 25.7293 113.382 26.348 113.382 27.244C113.382 27.9053 113.158 28.4493 112.71 28.876C112.272 29.292 111.643 29.5 110.822 29.5H106.822V21.5H110.502C111.302 21.5 111.92 21.7027 112.358 22.108C112.795 22.5027 113.014 23.0253 113.014 23.676C113.014 24.444 112.726 25.0147 112.15 25.388ZM110.438 22.748H108.182V24.844H110.438C111.248 24.844 111.654 24.4867 111.654 23.772C111.654 23.0893 111.248 22.748 110.438 22.748ZM110.742 28.236C111.147 28.236 111.456 28.14 111.67 27.948C111.894 27.756 112.006 27.484 112.006 27.132C112.006 26.8013 111.894 26.5453 111.67 26.364C111.456 26.172 111.147 26.076 110.742 26.076H108.182V28.236H110.742ZM115.86 26.14C115.999 26.8547 116.324 27.4093 116.836 27.804C117.359 28.1987 117.999 28.396 118.756 28.396C119.812 28.396 120.58 28.0067 121.06 27.228L122.244 27.9C121.465 29.1053 120.292 29.708 118.724 29.708C117.455 29.708 116.42 29.3133 115.62 28.524C114.831 27.724 114.436 26.716 114.436 25.5C114.436 24.2947 114.825 23.292 115.604 22.492C116.383 21.692 117.391 21.292 118.628 21.292C119.801 21.292 120.756 21.708 121.492 22.54C122.239 23.3613 122.612 24.3533 122.612 25.516C122.612 25.7187 122.596 25.9267 122.564 26.14H115.86ZM118.628 22.604C117.881 22.604 117.263 22.8173 116.772 23.244C116.281 23.66 115.977 24.22 115.86 24.924H121.204C121.087 24.1667 120.788 23.5907 120.308 23.196C119.828 22.8013 119.268 22.604 118.628 22.604ZM127.957 29.708C126.751 29.708 125.749 29.308 124.949 28.508C124.149 27.6973 123.749 26.6947 123.749 25.5C123.749 24.3053 124.149 23.308 124.949 22.508C125.749 21.6973 126.751 21.292 127.957 21.292C128.746 21.292 129.455 21.484 130.085 21.868C130.714 22.2413 131.183 22.748 131.493 23.388L130.325 24.06C130.122 23.6333 129.807 23.292 129.381 23.036C128.965 22.78 128.49 22.652 127.957 22.652C127.157 22.652 126.485 22.924 125.941 23.468C125.407 24.012 125.141 24.6893 125.141 25.5C125.141 26.3 125.407 26.972 125.941 27.516C126.485 28.06 127.157 28.332 127.957 28.332C128.49 28.332 128.97 28.2093 129.397 27.964C129.823 27.708 130.149 27.3667 130.373 26.94L131.557 27.628C131.215 28.2573 130.725 28.764 130.085 29.148C129.445 29.5213 128.735 29.708 127.957 29.708ZM136.323 24.38C137.123 24.38 137.784 24.62 138.307 25.1C138.84 25.5693 139.107 26.1827 139.107 26.94C139.107 27.6973 138.84 28.316 138.307 28.796C137.784 29.2653 137.123 29.5 136.323 29.5H132.947V21.5H134.339V24.38H136.323ZM136.323 28.204C136.717 28.204 137.048 28.092 137.315 27.868C137.592 27.6333 137.731 27.324 137.731 26.94C137.731 26.556 137.592 26.2467 137.315 26.012C137.048 25.7773 136.717 25.66 136.323 25.66H134.339V28.204H136.323ZM147.483 21.292C148.699 21.292 149.68 21.6867 150.427 22.476C151.184 23.2653 151.563 24.2733 151.563 25.5C151.563 26.716 151.184 27.724 150.427 28.524C149.67 29.3133 148.683 29.708 147.467 29.708C146.614 29.708 145.867 29.5213 145.227 29.148C144.587 28.764 144.123 28.2467 143.835 27.596L145.019 26.908C145.19 27.3453 145.483 27.6973 145.899 27.964C146.326 28.2307 146.848 28.364 147.467 28.364C148.16 28.364 148.742 28.1613 149.211 27.756C149.68 27.3507 149.979 26.8173 150.107 26.156H146.539V24.844H150.107C149.979 24.1827 149.686 23.6493 149.227 23.244C148.768 22.8387 148.192 22.636 147.499 22.636C146.934 22.636 146.438 22.7693 146.011 23.036C145.595 23.292 145.286 23.6387 145.083 24.076L143.883 23.388C144.203 22.7373 144.683 22.2253 145.323 21.852C145.963 21.4787 146.683 21.292 147.483 21.292ZM158.748 21.5H160.14V29.5H158.748V26.156H154.604V29.5H153.212V21.5H154.604V24.828H158.748V21.5ZM163.235 26.14C163.374 26.8547 163.699 27.4093 164.211 27.804C164.734 28.1987 165.374 28.396 166.131 28.396C167.187 28.396 167.955 28.0067 168.435 27.228L169.619 27.9C168.84 29.1053 167.667 29.708 166.099 29.708C164.83 29.708 163.795 29.3133 162.995 28.524C162.206 27.724 161.811 26.716 161.811 25.5C161.811 24.2947 162.2 23.292 162.979 22.492C163.758 21.692 164.766 21.292 166.003 21.292C167.176 21.292 168.131 21.708 168.867 22.54C169.614 23.3613 169.987 24.3533 169.987 25.516C169.987 25.7187 169.971 25.9267 169.939 26.14H163.235ZM166.003 22.604C165.256 22.604 164.638 22.8173 164.147 23.244C163.656 23.66 163.352 24.22 163.235 24.924H168.579C168.462 24.1667 168.163 23.5907 167.683 23.196C167.203 22.8013 166.643 22.604 166.003 22.604ZM176.003 21.292C177.123 21.292 178.078 21.7027 178.867 22.524C179.657 23.3347 180.051 24.3267 180.051 25.5C180.051 26.6733 179.657 27.6707 178.867 28.492C178.078 29.3027 177.123 29.708 176.003 29.708C174.681 29.708 173.673 29.18 172.979 28.124V32.7H171.587V21.5H172.979V22.876C173.673 21.82 174.681 21.292 176.003 21.292ZM175.827 28.364C176.627 28.364 177.299 28.092 177.843 27.548C178.387 26.9933 178.659 26.3107 178.659 25.5C178.659 24.6893 178.387 24.012 177.843 23.468C177.299 22.9133 176.627 22.636 175.827 22.636C175.017 22.636 174.339 22.9133 173.795 23.468C173.251 24.012 172.979 24.6893 172.979 25.5C172.979 26.3107 173.251 26.9933 173.795 27.548C174.339 28.092 175.017 28.364 175.827 28.364ZM186.96 21.5V22.844H183.104V29.5H181.712V21.5H186.96ZM193.989 21.5H195.109V29.5H193.733V23.884L189.301 29.5H188.181V21.5H189.557V27.116L193.989 21.5ZM204.22 21.292C205.393 21.292 206.385 21.6973 207.196 22.508C208.017 23.3187 208.428 24.316 208.428 25.5C208.428 26.684 208.017 27.6813 207.196 28.492C206.385 29.3027 205.393 29.708 204.22 29.708C203.164 29.708 202.252 29.372 201.484 28.7C200.716 28.028 200.257 27.18 200.108 26.156H198.62V29.5H197.228V21.5H198.62V24.828H200.108C200.257 23.804 200.716 22.9613 201.484 22.3C202.263 21.628 203.175 21.292 204.22 21.292ZM204.22 28.348C205.009 28.348 205.676 28.076 206.22 27.532C206.764 26.988 207.036 26.3107 207.036 25.5C207.036 24.6893 206.764 24.012 206.22 23.468C205.676 22.924 205.009 22.652 204.22 22.652C203.42 22.652 202.748 22.924 202.204 23.468C201.66 24.012 201.388 24.6893 201.388 25.5C201.388 26.3107 201.66 26.988 202.204 27.532C202.748 28.076 203.42 28.348 204.22 28.348Z" fill="white"/>
</svg>
