<svg width="24" height="24" viewBox="0 0 24 24" fill="none" xmlns="http://www.w3.org/2000/svg">
<g clip-path="url(#clip0_2668_5061)">
<path d="M19.8188 12.9062H16.9688V14.3627C17.2905 14.4273 17.5327 14.7113 17.5327 15.0519C17.5327 15.3926 17.2905 15.6766 16.9688 15.7411V18.8312H19.8188V12.9062Z" fill="white"/>
<path d="M7.64062 11.3779C7.83417 11.5033 7.96234 11.7205 7.96234 11.968C7.96234 12.2156 7.83417 12.4329 7.64062 12.5582V14.2876L8.71692 14.0512V9.9317L7.64062 9.69531V11.3779Z" fill="white"/>
<path d="M6.23431 12.5566C6.04095 12.4313 5.91278 12.214 5.91278 11.9664C5.91278 11.7191 6.04095 11.5017 6.23431 11.3765V9.38483L5.1582 9.14844V14.8315L6.23431 14.5951V12.5566Z" fill="white"/>
<path d="M0.877991 2.13153C0.667236 2.07734 0.443848 2.12384 0.272095 2.25696C0.100525 2.39026 0 2.59534 0 2.8125V21.1699C0 21.3873 0.100525 21.5924 0.272095 21.7255C0.39679 21.8223 0.548767 21.8731 0.703125 21.8731C0.761536 21.8731 0.820129 21.8659 0.877991 21.8511L11.9399 19.0122V4.9704L0.877991 2.13153ZM9.57129 15.3032L4.60638 16.3938C4.5564 16.4048 4.50568 16.4103 4.45551 16.4103C4.29657 16.4103 4.14093 16.3565 4.01477 16.255C3.84888 16.1215 3.75238 15.9201 3.75238 15.7072V8.27546C3.75238 8.06251 3.84888 7.86091 4.01477 7.72743C4.18085 7.59394 4.39874 7.54304 4.60638 7.58863L9.57129 8.67921C9.89374 8.75007 10.1235 9.03571 10.1235 9.36604V14.6166C10.1235 14.9467 9.89374 15.2326 9.57129 15.3032Z" fill="white"/>
<path d="M23.2964 5.14844H13.3457V18.8295H15.5626V12.2015C15.5626 11.8133 15.8775 11.4984 16.2657 11.4984H20.522C20.9103 11.4984 21.2251 11.8133 21.2251 12.2015V18.8295H23.2964C23.6848 18.8295 23.9995 18.5146 23.9995 18.1264V5.85156C23.9995 5.4632 23.6848 5.14844 23.2964 5.14844Z" fill="white"/>
</g>
<defs>
<clipPath id="clip0_2668_5061">
<rect width="24" height="24" fill="white"/>
</clipPath>
</defs>
</svg>
