<svg width="64" height="64" viewBox="0 0 64 64" fill="none" xmlns="http://www.w3.org/2000/svg">
<path d="M50.6003 43.2376C49.6877 43.4431 48.9806 43.7148 48.4206 44.0022C50.1743 41.766 51.4942 39.2351 52.404 36.7866C52.4323 36.8103 52.4681 36.8371 52.5215 36.8681C53.1256 37.212 54.4199 37.2578 56.0778 36.2549C57.6792 35.2856 58.5946 33.6054 59 32.6832C57.9939 32.6193 56.0676 32.6586 54.4504 33.6366C53.8497 34.001 53.4076 34.3689 53.0809 34.7204C53.3166 33.9014 53.5093 33.1033 53.6505 32.347C53.6587 32.3035 53.65 32.2616 53.6488 32.2195C54.1492 31.9043 54.8132 31.1726 55.1711 29.6955C55.5749 28.0321 55.0855 26.3779 54.7369 25.5008C54.0274 26.126 52.8255 27.3896 52.4238 29.0444C52.0712 30.5006 52.2757 31.4273 52.5715 31.9378C52.5351 31.9975 52.5057 32.0625 52.4913 32.135C52.2116 33.6316 51.7352 35.2909 51.0693 36.9752C51.0868 36.6898 51.0908 36.383 51.0727 36.0482C50.9569 33.9139 49.7092 32.0912 49.0159 31.2342C48.4228 32.147 47.3786 34.0807 47.4956 36.2368C47.6354 38.8239 48.724 39.639 49.054 39.8278C49.2953 39.9651 49.4487 39.9687 49.4908 39.9665C49.5479 39.964 49.6264 39.9375 49.7171 39.8898C48.242 42.6213 46.2129 45.1975 43.5915 47.037C44.0252 46.4115 44.4278 45.5585 44.7092 44.4075C45.3797 41.6681 44.4326 38.9276 43.9221 37.7384C42.9256 38.5561 40.8188 40.5565 40.1441 43.3196C39.3318 46.6378 40.456 48.121 41.0547 48.4934C38.7071 49.5378 36.2135 49.8835 33.5972 49.5292C33.8193 49.4474 34.04 49.3713 34.2632 49.2812C34.2835 49.2731 34.3041 49.2633 34.3222 49.253C34.5827 49.1133 34.7005 48.7997 34.5858 48.5221C34.4621 48.2253 34.1191 48.0822 33.8176 48.2033C32.9607 48.5495 32.1165 48.8273 31.2841 49.041C30.458 48.8064 29.6212 48.5076 28.7736 48.1402C28.4752 48.0114 28.1285 48.1458 27.9974 48.4393C27.8754 48.7138 27.9856 49.0304 28.2416 49.1766C28.2596 49.1872 28.2803 49.1975 28.2998 49.2062C28.5207 49.3016 28.7397 49.3833 28.9595 49.4709C26.3353 49.7593 23.851 49.3509 21.5314 48.2479C22.1394 47.8909 23.302 46.4361 22.5754 43.0986C21.9716 40.3194 19.9176 38.2668 18.9423 37.4243C18.4012 38.6004 17.3836 41.3164 17.9834 44.0716C18.2351 45.2293 18.6157 46.0921 19.033 46.7282C16.4605 44.8234 14.4981 42.197 13.0941 39.4295C13.1831 39.4794 13.2611 39.5076 13.3179 39.5118C13.3597 39.5151 13.5134 39.5154 13.7581 39.3843C14.0932 39.2041 15.2018 38.416 15.4087 35.8334C15.5807 33.681 14.5871 31.7219 14.0177 30.7943C13.3027 31.6334 12.0084 33.4243 11.8377 35.555C11.8109 35.8892 11.8069 36.1961 11.8171 36.482C11.1944 34.7818 10.7613 33.1111 10.52 31.6078C10.5076 31.535 10.4796 31.4691 10.4448 31.4086C10.7539 30.9056 10.9822 29.9842 10.6675 28.52C10.3084 26.8554 9.14011 25.5622 8.44678 24.9195C8.07553 25.7876 7.5438 27.429 7.90431 29.1019C8.22414 30.5876 8.86944 31.3355 9.36105 31.6633C9.35879 31.7054 9.34918 31.747 9.35597 31.7908C9.47802 32.5501 9.64952 33.3529 9.86424 34.1775C9.54639 33.818 9.11412 33.4389 8.52334 33.0597C6.93184 32.0418 5.00751 31.954 4 31.9927C4.38142 32.9247 5.25331 34.6275 6.82928 35.6365C8.46118 36.6809 9.75575 36.6675 10.3683 36.3389C10.4228 36.3091 10.4587 36.2834 10.4878 36.2602C11.3343 38.7304 12.5884 41.294 14.2836 43.5734C13.7315 43.2719 13.0317 42.9826 12.1248 42.7541C9.36246 42.057 6.56794 42.9583 5.3635 43.442C6.19189 44.446 8.20323 46.5516 10.9619 47.2453C13.3869 47.8563 14.8097 47.3779 15.4411 47.0386C16.0449 46.7137 16.2763 46.3496 16.3145 46.2015C16.3331 46.1301 16.3379 46.0391 16.3283 45.9379C17.4556 47.059 18.7163 48.0554 20.1357 48.8443C20.9344 49.2887 21.7526 49.6542 22.5864 49.9418C21.8433 50.0893 20.8929 50.4372 19.7498 51.1887C19.5322 51.3321 19.3161 51.4891 19.1081 51.6571C17.1389 53.2494 16.1339 55.5165 15.7384 56.608C17.0454 56.6736 19.9772 56.6103 22.3519 55.0487C22.6432 54.8578 22.9172 54.6576 23.1678 54.4548C25.243 52.7774 25.4063 51.1678 25.2182 50.5775C27.1563 50.8581 29.1781 50.7393 31.268 50.2389C33.3452 50.7915 35.3625 50.9611 37.3077 50.7295C37.1046 51.3151 37.2266 52.9283 39.2572 54.657C39.5024 54.8657 39.7717 55.0732 40.0582 55.271C42.3922 56.8917 45.3209 57.0287 46.6296 56.9961C46.2617 55.895 45.3158 53.6034 43.3881 51.962C43.185 51.789 42.9731 51.6264 42.7589 51.4777C41.6353 50.698 40.6942 50.3264 39.9551 50.1602C40.7964 49.8938 41.6226 49.5487 42.4334 49.1247C43.8729 48.3718 45.1585 47.4071 46.3143 46.315C46.3022 46.4157 46.3041 46.5069 46.3211 46.5786C46.3555 46.7279 46.5771 47.0975 47.1729 47.4376C47.7953 47.7921 49.2057 48.3068 51.646 47.757C54.4218 47.1329 56.4866 45.0778 57.3404 44.0956C56.1498 43.5809 53.3793 42.6099 50.6003 43.2376Z" fill="white"/>
<path d="M31.5025 18.4832C31.5051 18.5012 31.4865 18.3654 31.5006 18.4708C31.5065 18.5153 31.5039 18.4984 31.5025 18.4832Z" fill="white"/>
<path d="M23.2981 19.0658C24.5271 18.8114 25.0015 17.7396 24.9187 16.6151C24.7546 14.3946 24.7786 14.7768 24.4972 12.5641C24.1613 9.91874 20.0597 10.7821 20.3945 13.4149C20.6748 15.6215 20.6514 15.2488 20.8158 17.466C20.8989 18.5927 22.2948 19.2728 23.2981 19.0658Z" fill="white"/>
<path d="M25.9598 9.94998C25.9115 12.6815 26.0061 12.8007 26.237 15.523C26.4635 18.1773 30.5769 17.3672 30.3518 14.7327C30.152 12.3789 30.0961 12.6299 30.1379 10.268C30.1859 7.61175 26.0081 7.27979 25.9598 9.94998Z" fill="white"/>
<path d="M35.8264 13.909C35.8366 11.4276 35.9657 11.5412 35.6874 9.06904C35.5608 7.94818 34.8299 7 33.5916 7C32.5459 7 31.3689 7.94595 31.496 9.06904C31.7749 11.5409 31.6458 11.4279 31.635 13.909C31.6249 16.578 35.8151 16.5769 35.8264 13.909Z" fill="white"/>
<path d="M41.1364 9.96309C41.068 8.83805 40.3682 7.85863 39.1375 7.80339C38.0862 7.75681 36.882 8.64892 36.949 9.77703C37.095 12.1705 36.8958 11.9593 37.0416 14.3528C37.1097 15.4778 37.8096 16.4575 39.0405 16.5125C40.0913 16.5588 41.296 15.6667 41.2282 14.5391C41.0835 12.1451 41.2813 12.3571 41.1364 9.96309Z" fill="white"/>
<path d="M24.2717 30.9949C24.5926 31.1285 24.926 31.2474 25.2693 31.3531L25.2761 38.726H36.4807L36.5681 31.0236C37.1241 30.7321 37.6408 30.3893 38.0909 29.9784C39.4553 28.8561 40.4712 27.615 41.0468 26.4987C42.2407 23.8045 43.7709 20.7577 41.3109 19.0265C38.7314 17.2102 33.7673 17.2018 30.8067 18.0443C30.4543 18.145 30.1684 18.3034 29.9413 18.5003C28.3079 19.2706 28.6744 21.5162 30.2891 21.8057C31.3692 21.9993 32.1964 21.8783 34.177 21.9508C34.1838 21.9511 36.5909 21.7329 36.5986 21.7335C35.9016 22.2864 33.2237 23.3272 32.1964 24.4862C31.9258 24.7914 31.3587 25.3226 31.0335 25.6316C29.8404 23.7342 27.1049 22.2741 25.1738 21.6671C24.0166 21.3039 21.9453 20.5487 21.2477 21.7873C19.3994 25.5365 21.0816 28.6067 24.2717 30.9949Z" fill="white"/>
</svg>
