<svg width="64" height="64" viewBox="0 0 64 64" fill="none" xmlns="http://www.w3.org/2000/svg">
<path d="M61.9753 25.0965L61.527 23.3788C61.3989 22.9334 60.7584 22.5517 60.246 22.5517L51.9836 23.1243C50.7666 22.0427 48.717 20.2614 46.2831 18.4164C42.5042 15.5534 32.5125 15.9988 31.936 16.0624C31.3596 16.0624 21.3678 15.5534 17.5889 18.4164C15.155 20.2614 13.1054 22.0427 11.8885 23.1243L3.75417 22.5517C3.24177 22.5517 2.60127 22.8698 2.47318 23.3788L2.02483 25.0965C1.89673 25.6055 2.28103 26.1145 2.79342 26.1145H5.73971C5.29136 26.6234 4.97111 27.3233 4.84301 28.1503L4.65086 29.6136C4.26657 32.3493 4.20252 35.1486 4.39467 37.8843C4.52276 39.7929 4.77896 41.7652 5.29136 43.1648V45.646C5.29136 46.9184 6.31615 48 7.6612 48H14.6426C15.7315 48 16.6281 47.3002 16.8843 46.2822L31.4877 46.9821H31.8079C31.872 46.9821 31.936 46.9821 32.0001 46.9821C32.0641 46.9821 32.1282 46.9821 32.1922 46.9821H32.5125L47.1158 46.2822C47.372 47.3002 48.3327 48 49.3575 48H56.3389C57.6199 48 58.7088 46.9821 58.7088 45.646V43.1648C59.2212 41.7652 59.4774 39.7929 59.6055 37.8843C59.7976 35.1486 59.6695 32.3493 59.3493 29.6136L59.1571 28.2139C59.029 27.3869 58.7088 26.6871 58.2604 26.1781H61.1427C61.7191 26.1145 62.1034 25.6055 61.9753 25.0965ZM15.2191 33.3036L11.312 35.4667C10.6075 35.8484 9.77484 35.5303 9.45459 34.8305L7.0207 29.2955C6.7645 28.7865 7.34095 28.2139 7.85335 28.4684L15.155 31.8403C15.7955 32.1584 15.7955 32.9855 15.2191 33.3036ZM24.7625 17.3984H26.0435C25.0827 17.9074 22.841 23.4424 22.841 23.4424H19.5104C20.7914 20.1341 24.7625 17.3984 24.7625 17.3984ZM31.8079 41.4471C31.8079 41.4471 18.0372 32.8583 17.717 32.8583L31.8079 37.1845V41.4471ZM32.2563 41.4471V37.1209L46.3472 32.7946C46.0269 32.8583 32.2563 41.4471 32.2563 41.4471ZM56.9794 29.2955L54.4815 34.8305C54.1612 35.5303 53.3286 35.8484 52.6241 35.4667L48.7811 33.3036C48.2046 32.9855 48.2046 32.0948 48.8451 31.8403L56.1468 28.4684C56.6592 28.2776 57.2356 28.7865 56.9794 29.2955Z" fill="white"/>
</svg>
