<svg width="64" height="64" viewBox="0 0 64 64" fill="none" xmlns="http://www.w3.org/2000/svg">
<path d="M32 4C16.6052 4 4 16.6052 4 32C4 47.3948 16.6052 60 32 60C47.3948 60 60 47.3948 60 32C60 16.6052 47.4981 4 32 4ZM53.1808 21.048H43.8819C42.4354 16.2952 39.9557 11.9557 36.7528 8.64945C43.9852 10.0959 49.9779 14.7454 53.1808 21.048ZM55.8672 32C55.8672 34.2731 55.5572 36.5461 54.9373 38.6125H45.0184C45.4317 36.4428 45.6384 34.2731 45.6384 32C45.6384 29.7269 45.4317 27.3506 45.0184 25.1808H54.9373C55.5572 27.3506 55.8672 29.6236 55.8672 32ZM32 54.3173C28.5904 51.4244 25.9041 47.3948 24.3542 42.7454H39.6458C38.0959 47.3948 35.4096 51.4244 32 54.3173ZM23.2177 38.6125C22.8044 36.4428 22.5978 34.2731 22.5978 32C22.5978 29.6236 22.8044 27.3506 23.321 25.1808H40.7823C41.1956 27.3506 41.5055 29.7269 41.5055 32C41.5055 34.2731 41.2989 36.4428 40.8856 38.6125H23.2177ZM8.13284 32C8.13284 29.6236 8.4428 27.3506 9.16605 25.1808H19.0849C18.6716 27.3506 18.4649 29.7269 18.4649 32C18.4649 34.2731 18.6716 36.4428 19.0849 38.6125H9.06273C8.4428 36.5461 8.13284 34.2731 8.13284 32ZM32 9.68266C35.3063 12.4723 37.9926 16.5018 39.5424 21.048H24.4576C26.0074 16.5018 28.6937 12.5756 32 9.68266ZM27.1439 8.64945C23.941 11.9557 21.5646 16.2952 20.0148 21.048H10.7159C14.1255 14.7454 20.0148 10.0959 27.1439 8.64945ZM10.7159 42.7454H20.0148C21.4613 47.6015 23.941 51.941 27.1439 55.3506C19.9114 53.9041 13.9188 49.1513 10.7159 42.7454ZM36.8561 55.3506C40.059 51.941 42.5387 47.6015 43.9852 42.7454H53.2841C50.0812 49.1513 44.0886 53.9041 36.8561 55.3506Z" fill="white"/>
</svg>
