<svg width="64" height="64" viewBox="0 0 64 64" fill="none" xmlns="http://www.w3.org/2000/svg">
<path d="M59.1264 28.4888C58.6783 28.2032 55.1448 26.092 53.7448 25.448L52.0088 21.248C52.524 19.8592 53.5152 15.9672 53.6888 15.2896C53.7583 14.9812 53.7485 14.6602 53.6604 14.3567C53.5723 14.0531 53.4086 13.7768 53.1848 13.5536L50.4464 10.832C50.2238 10.6072 49.9475 10.443 49.6437 10.3548C49.34 10.2666 49.0187 10.2574 48.7104 10.328C48.1952 10.4456 44.2304 11.448 42.752 12.008L38.552 10.272C37.9416 8.928 35.8864 5.484 35.5112 4.8904C35.3453 4.61874 35.1125 4.39421 34.835 4.23831C34.5575 4.0824 34.2447 4.00035 33.9264 4H30.0736C29.7572 4.00016 29.446 4.08034 29.1689 4.23308C28.8918 4.38582 28.6578 4.60616 28.4888 4.8736C28.2032 5.3216 26.092 8.8552 25.448 10.2552L21.248 11.9912C19.8592 11.476 15.9672 10.4848 15.2896 10.3112C14.9812 10.2417 14.6602 10.2514 14.3567 10.3395C14.0531 10.4277 13.7768 10.5913 13.5536 10.8152L10.832 13.5536C10.6072 13.7762 10.443 14.0524 10.3548 14.3562C10.2666 14.66 10.2574 14.9813 10.328 15.2896C10.4456 15.8048 11.448 19.7696 12.008 21.248L10.272 25.448C8.928 26.0584 5.484 28.1136 4.8904 28.4888C4.61874 28.6546 4.39421 28.8875 4.23831 29.1649C4.0824 29.4424 4.00035 29.7553 4 30.0736V33.9208C4.00016 34.2372 4.08034 34.5484 4.23308 34.8255C4.38582 35.1026 4.60616 35.3365 4.8736 35.5056C5.3216 35.7912 8.8552 37.9024 10.2552 38.5464L11.9912 42.7464C11.476 44.1352 10.4848 48.0272 10.3112 48.7048C10.2417 49.0131 10.2514 49.3341 10.3395 49.6377C10.4277 49.9413 10.5913 50.2176 10.8152 50.4408L13.5368 53.1624C13.7594 53.3871 14.0356 53.5514 14.3394 53.6396C14.6432 53.7277 14.9644 53.737 15.2728 53.6664C15.788 53.5488 19.7528 52.5464 21.2312 51.9864L25.4312 53.7224C26.0416 55.0664 28.0968 58.5104 28.472 59.104C28.6386 59.3791 28.8738 59.6063 29.1545 59.7633C29.4352 59.9204 29.7519 60.0019 30.0736 60H33.9208C34.2372 59.9998 34.5484 59.9196 34.8255 59.7669C35.1026 59.6141 35.3365 59.3938 35.5056 59.1264C35.7912 58.6784 37.9024 55.1448 38.5464 53.7448L42.7464 52.0088C44.1352 52.524 48.0272 53.5152 48.7048 53.6888C49.0131 53.7583 49.3341 53.7486 49.6377 53.6604C49.9413 53.5723 50.2176 53.4086 50.4408 53.1848L53.1624 50.4632C53.3871 50.2406 53.5513 49.9643 53.6395 49.6605C53.7277 49.3568 53.737 49.0355 53.6664 48.7272C53.5488 48.212 52.5464 44.2472 51.9864 42.7688L53.7224 38.5688C55.0664 37.9584 58.5103 35.9032 59.1039 35.528C59.3791 35.3613 59.6063 35.1262 59.7633 34.8454C59.9204 34.5647 60.0019 34.248 59.9999 33.9264V30.0736C60.0024 29.7567 59.9234 29.4445 59.7704 29.1669C59.6174 28.8894 59.3956 28.6559 59.1264 28.4888ZM32 44.1912C29.5866 44.189 27.228 43.4711 25.2226 42.1285C23.2171 40.7858 21.6549 38.8786 20.7334 36.6481C19.8118 34.4175 19.5724 31.9638 20.0454 29.5972C20.5184 27.2306 21.6826 25.0574 23.3907 23.3525C25.0988 21.6475 27.2741 20.4873 29.6416 20.0187C32.0091 19.55 34.4623 19.7939 36.6912 20.7195C38.92 21.6452 40.8243 23.2109 42.1633 25.2188C43.5023 27.2267 44.2158 29.5866 44.2136 32C44.2061 35.2349 42.9163 38.3349 40.6267 40.6202C38.3372 42.9055 35.2349 44.1897 32 44.1912Z" fill="white"/>
</svg>
