<svg width="64" height="64" viewBox="0 0 64 64" fill="none" xmlns="http://www.w3.org/2000/svg">
<path d="M60 59.3333H4V62H60V59.3333Z" fill="white"/>
<path d="M59.3333 34H50.9386C50.14 24.6667 42.604 17.1933 33.276 16.542C33.3546 16.3633 33.3333 16.0213 33.3333 15.814V11.6293C37.3333 10.2667 40.6666 15.0987 44 12.28C44 9.54733 44 6.81533 44 4.08267C40.6666 6.902 36.9333 2.06733 33.3366 3.43267C33.3253 2.64 32.798 2 32.0026 2C31.2006 2 30.6666 2.65067 30.6666 3.45267V15.814C30.6666 16.0207 30.658 16.362 30.736 16.54C21.3966 17.1793 13.8606 24.6667 13.0613 34H4.66663V57.3333H59.3333V34ZM16.6666 51.834C16.6666 53.0647 15.5633 54.062 14.3333 54.062C13.1026 54.062 12 53.064 12 51.834V41.0173C12 39.7867 13.1033 38.7893 14.3333 38.7893C15.5633 38.7893 16.6666 39.7873 16.6666 41.0173V51.834ZM28.6666 51.834C28.6666 53.0647 27.5633 54.062 26.3333 54.062C25.1026 54.062 24 53.064 24 51.834V41.0173C24 39.7867 25.1033 38.7893 26.3333 38.7893C27.5633 38.7893 28.6666 39.7873 28.6666 41.0173V51.834ZM40 51.834C40 53.0647 38.8966 54.062 37.6666 54.062C36.4366 54.062 35.3333 53.064 35.3333 51.834V41.0173C35.3333 39.7867 36.4366 38.7893 37.6666 38.7893C38.8973 38.7893 40 39.7873 40 41.0173V51.834ZM52 51.834C52 53.0647 50.8966 54.062 49.6666 54.062C48.4366 54.062 47.3333 53.064 47.3333 51.834V41.0173C47.3333 39.7867 48.4366 38.7893 49.6666 38.7893C50.8973 38.7893 52 39.7873 52 41.0173V51.834Z" fill="white"/>
</svg>
