<svg width="64" height="64" viewBox="0 0 64 64" fill="none" xmlns="http://www.w3.org/2000/svg">
<path d="M45 53.8378C45 53.8378 44.4397 54.9625 42.8046 54.9625C41.1665 54.9625 30.0242 54.9625 30.0242 54.9625C30.0242 54.9625 18 56.4383 18 40.8769C18 25.3155 18.0796 9.67377 18.0796 9.67377C18.0796 9.67377 18.1408 9.04298 19.038 9.01322C19.9351 8.98347 27.7553 9.01322 27.7553 9.01322C27.7553 9.01322 28.4136 8.83768 28.4748 10.1766C28.5361 11.5155 28.6249 43.8255 28.6249 43.8255C28.6249 43.8255 29.3046 46.1166 33.0983 46.1166C36.892 46.1166 43.763 46.194 43.763 46.194C43.763 46.194 45 45.8071 45 48.1726C45 50.5381 45 53.8378 45 53.8378Z" fill="white"/>
</svg>
