<svg width="24" height="24" viewBox="0 0 24 24" fill="none" xmlns="http://www.w3.org/2000/svg">
<path d="M11.9999 0C9.62656 0 7.30648 0.703788 5.33309 2.02236C3.35971 3.34094 1.82164 5.21509 0.913389 7.4078C0.00513839 9.60051 -0.232501 12.0133 0.230521 14.3411C0.693543 16.6689 1.83643 18.8071 3.51466 20.4853C5.19289 22.1635 7.33108 23.3064 9.65885 23.7694C11.9866 24.2324 14.3994 23.9948 16.5921 23.0866C18.7848 22.1783 20.659 20.6402 21.9776 18.6668C23.2961 16.6935 23.9999 14.3734 23.9999 12C23.9963 8.8185 22.7309 5.76833 20.4813 3.51867C18.2316 1.269 15.1814 0.00357316 11.9999 0V0ZM6.99994 7C7.79531 7.00089 8.55785 7.31725 9.12027 7.87967C9.68268 8.44208 9.99904 9.20463 9.99993 10H7.99993C7.99993 9.73479 7.89458 9.48043 7.70704 9.29289C7.51951 9.10536 7.26515 9 6.99994 9C6.73472 9 6.48037 9.10536 6.29283 9.29289C6.10529 9.48043 5.99994 9.73479 5.99994 10H3.99994C4.00083 9.20463 4.31719 8.44208 4.8796 7.87967C5.44202 7.31725 6.20456 7.00089 6.99994 7ZM11.9999 20C10.4092 19.9982 8.8841 19.3655 7.75927 18.2407C6.63444 17.1158 6.00172 15.5908 5.99994 14C5.99994 13.7348 6.10529 13.4804 6.29283 13.2929C6.48037 13.1054 6.73472 13 6.99994 13H16.9999C17.2651 13 17.5195 13.1054 17.707 13.2929C17.8946 13.4804 17.9999 13.7348 17.9999 14C17.9981 15.5908 17.3654 17.1158 16.2406 18.2407C15.1158 19.3655 13.5907 19.9982 11.9999 20ZM17.9999 10C17.9999 9.73479 17.8946 9.48043 17.707 9.29289C17.5195 9.10536 17.2651 9 16.9999 9C16.7347 9 16.4804 9.10536 16.2928 9.29289C16.1053 9.48043 15.9999 9.73479 15.9999 10H13.9999C13.9999 9.20435 14.316 8.44129 14.8786 7.87868C15.4412 7.31607 16.2043 7 16.9999 7C17.7956 7 18.5586 7.31607 19.1212 7.87868C19.6838 8.44129 19.9999 9.20435 19.9999 10H17.9999Z" fill="white"/>
</svg>
