<svg width="34" height="34" viewBox="0 0 34 34" fill="none" xmlns="http://www.w3.org/2000/svg">
<path d="M26.1554 12.6172C25.7561 13.014 25.216 13.2367 24.653 13.2367C24.09 13.2367 23.5499 13.014 23.1505 12.6172L21.3861 10.8528C20.989 10.4535 20.766 9.9132 20.766 9.35001C20.766 8.78682 20.989 8.24654 21.3861 7.84724L25.3798 3.85157C25.3877 3.84397 25.3936 3.83453 25.397 3.82409C25.4003 3.81366 25.4011 3.80255 25.3991 3.79177C25.3971 3.78098 25.3925 3.77086 25.3857 3.76229C25.3788 3.75372 25.37 3.74698 25.3599 3.74267C22.782 2.63767 19.4398 3.20079 17.3174 5.30786C15.2867 7.32329 15.1712 10.3547 15.9149 13.0004C16.0206 13.3764 16.0203 13.7743 15.9142 14.1503C15.808 14.5262 15.6001 14.8655 15.3133 15.1307L4.24999 25.2344C3.92358 25.5238 3.65982 25.8769 3.47491 26.272C3.29001 26.6671 3.18787 27.0959 3.17478 27.5319C3.16169 27.9679 3.23793 28.402 3.3988 28.8075C3.55967 29.213 3.80178 29.5813 4.11024 29.8898C4.41871 30.1982 4.787 30.4403 5.19249 30.6012C5.59797 30.7621 6.03208 30.8383 6.46811 30.8252C6.90415 30.8121 7.3329 30.71 7.728 30.5251C8.12311 30.3402 8.47622 30.0764 8.76562 29.75L18.9829 18.6602C19.2447 18.3782 19.5784 18.1728 19.948 18.066C20.3177 17.9592 20.7095 17.955 21.0813 18.0539C23.707 18.7571 26.6953 18.625 28.6994 16.6467C30.857 14.5217 31.3225 10.7658 30.2766 8.61622C30.2719 8.60683 30.265 8.59868 30.2565 8.59246C30.2481 8.58624 30.2383 8.58212 30.2279 8.58043C30.2175 8.57875 30.2069 8.57955 30.1969 8.58277C30.1869 8.58599 30.1778 8.59154 30.1703 8.59895L26.1554 12.6172Z" stroke="white" stroke-width="3" stroke-miterlimit="10" stroke-linecap="round"/>
<path d="M6.375 28.6875C6.9618 28.6875 7.4375 28.2118 7.4375 27.625C7.4375 27.0382 6.9618 26.5625 6.375 26.5625C5.7882 26.5625 5.3125 27.0382 5.3125 27.625C5.3125 28.2118 5.7882 28.6875 6.375 28.6875Z" fill="white"/>
</svg>
