<svg width="24" height="24" viewBox="0 0 24 24" fill="none" xmlns="http://www.w3.org/2000/svg">
<path d="M22.9843 19.4405C22.9734 19.2987 22.9101 19.1624 22.8061 19.0607L13.8267 10.0813C14.18 9.24906 14.3665 8.34778 14.3665 7.41634C14.3665 5.59602 13.6565 3.8833 12.3714 2.59506C11.0845 1.30938 9.37302 0.600098 7.55166 0.600098C5.72942 0.600098 4.02086 1.30962 2.7319 2.5961C0.0724607 5.2541 0.0719007 9.57738 2.7315 12.2351C4.02038 13.5243 5.7295 14.2343 7.55078 14.2343C8.48246 14.2343 9.3815 14.0463 10.2157 13.6926L13.1657 16.6447C13.2884 16.7659 13.4502 16.8303 13.6249 16.8246L15.2325 16.7682L15.18 18.3798C15.175 18.5498 15.2364 18.7152 15.3596 18.8363C15.4783 18.9572 15.6451 19.023 15.8144 19.0161L17.4279 18.961L17.37 20.5708C17.3649 20.741 17.4303 20.9067 17.549 21.0278C17.6717 21.1487 17.8147 21.2138 18.0082 21.2079L19.6177 21.1531L19.5638 22.7632C19.5544 22.9418 19.6296 23.1135 19.7573 23.2355C19.875 23.3426 20.022 23.4003 20.1769 23.4003C20.1991 23.4003 20.2219 23.3993 20.2446 23.3973L22.7127 23.1232C23.0462 23.0868 23.2891 22.7892 23.2605 22.455L22.9843 19.4405ZM6.72838 6.5933C5.9703 7.35058 4.7447 7.35058 3.98822 6.5933C3.23062 5.83578 3.23062 4.61042 3.98822 3.85362C4.7447 3.09682 5.9699 3.0961 6.72838 3.85338C7.48494 4.6101 7.48446 5.83626 6.72838 6.5933ZM20.8775 19.6461C20.7874 19.7362 20.6667 19.7811 20.5494 19.7811C20.4321 19.7811 20.3113 19.7361 20.2213 19.6461L12.5813 12.0038C12.794 11.7744 12.9874 11.533 13.1631 11.2791L20.8774 18.9919C21.0576 19.1721 21.0576 19.466 20.8775 19.6461Z" fill="white"/>
</svg>
