<svg width="32" height="32" viewBox="0 0 32 32" fill="none" xmlns="http://www.w3.org/2000/svg">
<path d="M10.71 14.29C10.6128 14.2017 10.5012 14.1306 10.38 14.08C10.1979 14.0034 9.99718 13.9825 9.80319 14.0199C9.6092 14.0572 9.43062 14.1512 9.29 14.29C9.19896 14.3851 9.12759 14.4972 9.08 14.62C9.00342 14.8021 8.9825 15.0028 9.01987 15.1968C9.05725 15.3908 9.15124 15.5694 9.29 15.71C9.3872 15.7983 9.49881 15.8694 9.62 15.92C9.80173 15.9927 10.0008 16.0105 10.1926 15.9712C10.3843 15.9319 10.5603 15.8371 10.6987 15.6987C10.8371 15.5603 10.9319 15.3843 10.9712 15.1926C11.0105 15.0008 10.9927 14.8017 10.92 14.62C10.8724 14.4972 10.801 14.3851 10.71 14.29V14.29ZM13.29 11.71C13.3834 11.8027 13.4943 11.876 13.6161 11.9258C13.7379 11.9755 13.8684 12.0008 14 12C14.1312 12.0034 14.2613 11.976 14.38 11.92C14.5012 11.8694 14.6128 11.7983 14.71 11.71C14.7983 11.6128 14.8694 11.5012 14.92 11.38C14.9729 11.2603 15.0002 11.1309 15.0002 11C15.0002 10.8691 14.9729 10.7397 14.92 10.62C14.8694 10.4988 14.7983 10.3872 14.71 10.29C14.617 10.1963 14.5064 10.1219 14.3846 10.0711C14.2627 10.0203 14.132 9.9942 14 9.9942C13.868 9.9942 13.7373 10.0203 13.6154 10.0711C13.4936 10.1219 13.383 10.1963 13.29 10.29C13.2017 10.3872 13.1306 10.4988 13.08 10.62C13.0271 10.7397 12.9998 10.8691 12.9998 11C12.9998 11.1309 13.0271 11.2603 13.08 11.38C13.1306 11.5012 13.2017 11.6128 13.29 11.71V11.71ZM10.71 10.29C10.5701 10.149 10.3914 10.0528 10.1967 10.0137C10.0019 9.97465 9.79996 9.99446 9.61652 10.0706C9.43307 10.1468 9.27647 10.2759 9.16667 10.4414C9.05687 10.6069 8.99884 10.8014 9 11C9.00158 11.1307 9.02876 11.2598 9.08 11.38C9.13064 11.5012 9.20167 11.6128 9.29 11.71C9.38344 11.8027 9.49426 11.876 9.61609 11.9258C9.73793 11.9755 9.86839 12.0008 10 12C10.1312 12.0034 10.2613 11.976 10.38 11.92C10.5012 11.8694 10.6128 11.7983 10.71 11.71C10.7983 11.6128 10.8694 11.5012 10.92 11.38C10.9729 11.2603 11.0002 11.1309 11.0002 11C11.0002 10.8691 10.9729 10.7397 10.92 10.62C10.8694 10.4988 10.7983 10.3872 10.71 10.29V10.29ZM17.29 22.29L16 23.59L14.71 22.29C14.6168 22.1968 14.5061 22.1228 14.3842 22.0723C14.2624 22.0219 14.1319 21.9959 14 21.9959C13.8681 21.9959 13.7376 22.0219 13.6158 22.0723C13.4939 22.1228 13.3832 22.1968 13.29 22.29C13.1968 22.3832 13.1228 22.4939 13.0723 22.6158C13.0219 22.7376 12.9959 22.8681 12.9959 23C12.9959 23.1319 13.0219 23.2624 13.0723 23.3842C13.1228 23.5061 13.1968 23.6168 13.29 23.71L15.29 25.71C15.383 25.8037 15.4936 25.8781 15.6154 25.9289C15.7373 25.9797 15.868 26.0058 16 26.0058C16.132 26.0058 16.2627 25.9797 16.3846 25.9289C16.5064 25.8781 16.617 25.8037 16.71 25.71L18.71 23.71C18.8983 23.5217 19.0041 23.2663 19.0041 23C19.0041 22.7337 18.8983 22.4783 18.71 22.29C18.5217 22.1017 18.2663 21.9959 18 21.9959C17.7337 21.9959 17.4783 22.1017 17.29 22.29V22.29ZM22.71 10.29C22.5701 10.149 22.3914 10.0528 22.1967 10.0137C22.0019 9.97465 21.8 9.99446 21.6165 10.0706C21.4331 10.1468 21.2765 10.2759 21.1667 10.4414C21.0569 10.6069 20.9988 10.8014 21 11C20.9966 11.1312 21.024 11.2613 21.08 11.38C21.1306 11.5012 21.2017 11.6128 21.29 11.71C21.383 11.8037 21.4936 11.8781 21.6154 11.9289C21.7373 11.9797 21.868 12.0058 22 12.0058C22.132 12.0058 22.2627 11.9797 22.3846 11.9289C22.5064 11.8781 22.617 11.8037 22.71 11.71C22.7983 11.6128 22.8694 11.5012 22.92 11.38C22.976 11.2613 23.0034 11.1312 23 11C22.9984 10.8693 22.9712 10.7402 22.92 10.62C22.8694 10.4988 22.7983 10.3872 22.71 10.29V10.29ZM18 14H14C13.7348 14 13.4804 14.1054 13.2929 14.2929C13.1054 14.4804 13 14.7348 13 15C13 15.2652 13.1054 15.5196 13.2929 15.7071C13.4804 15.8946 13.7348 16 14 16H18C18.2652 16 18.5196 15.8946 18.7071 15.7071C18.8946 15.5196 19 15.2652 19 15C19 14.7348 18.8946 14.4804 18.7071 14.2929C18.5196 14.1054 18.2652 14 18 14ZM24 6H8C7.20435 6 6.44129 6.31607 5.87868 6.87868C5.31607 7.44129 5 8.20435 5 9V17C5 17.7956 5.31607 18.5587 5.87868 19.1213C6.44129 19.6839 7.20435 20 8 20H24C24.7956 20 25.5587 19.6839 26.1213 19.1213C26.6839 18.5587 27 17.7956 27 17V9C27 8.20435 26.6839 7.44129 26.1213 6.87868C25.5587 6.31607 24.7956 6 24 6ZM25 17C25 17.2652 24.8946 17.5196 24.7071 17.7071C24.5196 17.8946 24.2652 18 24 18H8C7.73478 18 7.48043 17.8946 7.29289 17.7071C7.10536 17.5196 7 17.2652 7 17V9C7 8.73478 7.10536 8.48043 7.29289 8.29289C7.48043 8.10536 7.73478 8 8 8H24C24.2652 8 24.5196 8.10536 24.7071 8.29289C24.8946 8.48043 25 8.73478 25 9V17ZM22.71 14.29C22.6149 14.199 22.5028 14.1276 22.38 14.08C22.2606 14.0259 22.1311 13.9979 22 13.9979C21.8689 13.9979 21.7394 14.0259 21.62 14.08C21.4988 14.1306 21.3872 14.2017 21.29 14.29C21.1073 14.4816 21.0037 14.7352 21 15C20.9983 15.1488 21.0297 15.296 21.0921 15.4311C21.1545 15.5662 21.2462 15.6856 21.3606 15.7807C21.475 15.8758 21.6092 15.9442 21.7534 15.9809C21.8976 16.0176 22.0481 16.0216 22.1941 15.9927C22.34 15.9638 22.4777 15.9028 22.597 15.8139C22.7164 15.7251 22.8144 15.6107 22.8839 15.4792C22.9535 15.3477 22.9928 15.2023 22.9991 15.0537C23.0053 14.905 22.9783 14.7569 22.92 14.62C22.8724 14.4972 22.801 14.3851 22.71 14.29V14.29ZM17.62 10.08C17.4988 10.1306 17.3872 10.2017 17.29 10.29C17.1073 10.4816 17.0037 10.7352 17 11C17.0016 11.1307 17.0288 11.2598 17.08 11.38C17.1306 11.5012 17.2017 11.6128 17.29 11.71C17.3834 11.8027 17.4943 11.876 17.6161 11.9258C17.7379 11.9755 17.8684 12.0008 18 12C18.1312 12.0034 18.2613 11.976 18.38 11.92C18.5012 11.8694 18.6128 11.7983 18.71 11.71C18.7983 11.6128 18.8694 11.5012 18.92 11.38C18.976 11.2613 19.0034 11.1312 19 11C18.9963 10.7352 18.8927 10.4816 18.71 10.29C18.5694 10.1512 18.3908 10.0572 18.1968 10.0199C18.0028 9.9825 17.8021 10.0034 17.62 10.08Z" fill="#141B1F"/>
</svg>
