<svg width="18" height="18" viewBox="0 0 18 18" fill="none" xmlns="http://www.w3.org/2000/svg">
<path d="M8.61118 7.46824L1.68786 0.5625C0.131143 2.49152 1.05048 6.03668 2.80302 7.78957L5.80888 10.7954C6.74228 11.7288 6.92755 11.8121 7.98645 11.3861C8.21462 11.2943 8.29759 11.3045 8.51028 11.5168L8.96731 11.9433C9.07032 12.0487 9.07278 12.0797 9.07278 12.2815V12.4762C9.07278 13.2173 9.54669 13.6434 9.85888 13.9613L13.5004 17.4375L16.0316 14.9062L10.5321 9.38918L8.61118 7.46824Z" fill="white"/>
<path fill-rule="evenodd" clip-rule="evenodd" d="M12.3988 10.0745L11.5247 9.19712L9.3369 7.00802L15.7988 0.5625C17.3555 2.49152 16.4362 6.03668 14.6837 7.78957L12.3988 10.0745ZM1.45508 14.9062L4.60885 11.7424C5.65744 12.7815 5.91281 12.8596 7.16897 12.3539C7.44926 12.2411 7.55118 12.2536 7.81247 12.5146L8.32824 12.9962C8.19053 13.3945 7.91279 13.6741 7.68998 13.8984C7.6687 13.9199 7.64792 13.9408 7.62781 13.9613L3.98633 17.4375L1.45508 14.9062Z" fill="white"/>
</svg>
