<svg width="30" height="30" viewBox="0 0 30 30" fill="none" xmlns="http://www.w3.org/2000/svg">
<path d="M12.2024 21.25C11.9374 22.7413 11.6099 24.0825 11.2949 25H18.7149C18.3924 24.0812 18.0624 22.7413 17.7974 21.25H12.2024Z" fill="white"/>
<path d="M19.4112 26.2537C19.41 26.2537 19.4087 26.25 19.4075 26.25H10.625C8.90121 26.25 7.5 27.6525 7.5 29.375C7.5 29.72 7.78002 30 8.12502 30H21.875C22.22 30 22.5001 29.72 22.5001 29.375C22.4999 27.665 21.1162 26.2737 19.4112 26.2537Z" fill="white"/>
<path d="M26.2381 19.2525L22.4881 0.5025C22.4281 0.21 22.1707 0 21.8744 0H8.12439C7.82691 0 7.57062 0.21 7.51191 0.5025L3.76191 19.2525C3.72564 19.4362 3.77315 19.6263 3.89192 19.7712C4.0094 19.9162 4.18817 20 4.37444 20H25.6245C25.8107 20 25.9894 19.9162 26.1082 19.7712C26.2269 19.6263 26.2744 19.4362 26.2381 19.2525Z" fill="white"/>
<path d="M23.75 22.615V21.25H22.5V22.615C21.7737 22.8738 21.25 23.5612 21.25 24.375C21.25 25.4088 22.0912 26.25 23.125 26.25C24.1588 26.25 25 25.4088 25 24.375C24.9999 23.5612 24.4762 22.8738 23.75 22.615Z" fill="white"/>
</svg>
