<svg width="118" height="77" viewBox="0 0 118 77" fill="none" xmlns="http://www.w3.org/2000/svg">
<g clip-path="url(#clip0_2787_3480)">
<path d="M7 75V73H17V75H7Z" fill="#BBBEBF"/>
<path d="M58 75V73H68V75H58Z" fill="#BBBEBF"/>
<rect x="13" y="18" width="2" height="55" transform="rotate(-90 13 18)" fill="#BBBEBF"/>
<rect x="9" y="75" width="2" height="54" transform="rotate(180 9 75)" fill="#BBBEBF"/>
<rect x="68" y="75" width="2" height="29" transform="rotate(180 68 75)" fill="#BBBEBF"/>
<rect x="68" y="25" width="2" height="25" transform="rotate(-180 68 25)" fill="#BBBEBF"/>
<rect x="89" y="31" width="2" height="31" transform="rotate(-180 89 31)" fill="#BBBEBF"/>
<rect x="110" y="48" width="2" height="33" transform="rotate(-180 110 48)" fill="#BBBEBF"/>
<rect x="17" y="46" width="2" height="10" transform="rotate(90 17 46)" fill="#BBBEBF"/>
<rect x="110" y="46" width="2" height="44" transform="rotate(90 110 46)" fill="#BBBEBF"/>
<rect x="74" width="2" height="8" transform="rotate(90 74 0)" fill="#BBBEBF"/>
<rect x="80.9492" width="2" height="7" transform="rotate(45 80.9492 0)" fill="#BBBEBF"/>
<rect x="89" width="2" height="8" transform="rotate(90 89 0)" fill="#BBBEBF"/>
<rect x="110" y="15" width="2" height="23" transform="rotate(90 110 15)" fill="#BBBEBF"/>
<rect x="13" y="16" width="2" height="7" fill="#BBBEBF"/>
<rect x="87" y="39" width="2" height="9" fill="#BBBEBF"/>
<rect x="80.6719" y="34.0859" width="2" height="9.4636" transform="rotate(-45 80.6719 34.0859)" fill="#BBBEBF"/>
<rect x="15" y="21" width="2" height="8" transform="rotate(90 15 21)" fill="#BBBEBF"/>
<rect x="17" y="71" width="1" height="6" fill="#BBBEBF"/>
<rect x="57" y="71" width="1" height="6" fill="#BBBEBF"/>
</g>
<defs>
<clipPath id="clip0_2787_3480">
<rect width="118" height="77" fill="white"/>
</clipPath>
</defs>
</svg>
