<svg width="118" height="77" viewBox="0 0 118 77" fill="none" xmlns="http://www.w3.org/2000/svg">
<g clip-path="url(#clip0_2786_3442)">
<rect y="17" width="2" height="45" transform="rotate(-90 0 17)" fill="#BBBEBF"/>
<rect x="2" y="39" width="2" height="24" transform="rotate(180 2 39)" fill="#BBBEBF"/>
<rect x="45" y="29" width="2" height="13" transform="rotate(-180 45 29)" fill="#BBBEBF"/>
<rect x="54" y="29" width="2" height="12" transform="rotate(-180 54 29)" fill="#BBBEBF"/>
<rect x="70" y="39" width="2" height="33" transform="rotate(-180 70 39)" fill="#BBBEBF"/>
<rect x="97" y="50" width="2" height="13" transform="rotate(-180 97 50)" fill="#BBBEBF"/>
<rect x="118" y="67" width="2" height="30" transform="rotate(-180 118 67)" fill="#BBBEBF"/>
<rect x="97" y="70" width="2" height="11" transform="rotate(-180 97 70)" fill="#BBBEBF"/>
<rect x="34" y="38" width="1" height="32" transform="rotate(90 34 38)" fill="#BBBEBF" fill-opacity="0.4"/>
<rect x="58" y="37" width="2" height="15" transform="rotate(90 58 37)" fill="#BBBEBF"/>
<rect x="70" y="29" width="2" height="5" transform="rotate(90 70 29)" fill="#BBBEBF"/>
<rect x="60" y="68" width="2" height="6" transform="rotate(90 60 68)" fill="#BBBEBF"/>
<rect x="54" y="15" width="2" height="7" transform="rotate(90 54 15)" fill="#BBBEBF"/>
<rect x="58" y="29" width="2" height="29" transform="rotate(90 58 29)" fill="#BBBEBF"/>
<rect x="47" y="8" width="2" height="7" fill="#BBBEBF"/>
<rect x="70" y="6" width="2" height="23" transform="rotate(90 70 6)" fill="#BBBEBF"/>
<rect x="96" y="37" width="2" height="31" transform="rotate(90 96 37)" fill="#BBBEBF"/>
<rect x="118" y="37" width="2" height="24" transform="rotate(90 118 37)" fill="#BBBEBF"/>
<rect x="96" y="68" width="2" height="11" transform="rotate(90 96 68)" fill="#BBBEBF"/>
<rect x="118" y="65" width="2" height="22" transform="rotate(90 118 65)" fill="#BBBEBF"/>
<rect x="43" y="37" width="2" height="6" fill="#BBBEBF"/>
<rect x="54" y="37" width="2" height="32" fill="#BBBEBF"/>
<rect x="56.4141" y="38.3984" width="2" height="6.13208" transform="rotate(-45 56.4141 38.3984)" fill="#BBBEBF"/>
<rect x="61.1914" y="24.8359" width="2" height="6.59458" transform="rotate(45 61.1914 24.8359)" fill="#BBBEBF"/>
<rect x="60" y="66" width="1" height="6" fill="#BBBEBF"/>
<rect x="84" y="66" width="1" height="6" fill="#BBBEBF"/>
</g>
<defs>
<clipPath id="clip0_2786_3442">
<rect width="118" height="77" fill="white"/>
</clipPath>
</defs>
</svg>
