<svg width="118" height="77" viewBox="0 0 118 77" fill="none" xmlns="http://www.w3.org/2000/svg">
<g clip-path="url(#clip0_141_9719)">
<path d="M21 25.1858V1H59.1259M21 25.1858H31.9846M21 25.1858V50.5046M77.1545 25.1858H84.0507H96.316M96.316 25.1858V1H59.1259M96.316 25.1858V46.0714V50.5046M21 50.5046V75.183H96.316V50.5046M21 50.5046H26.714M96.316 50.5046H40.3093L30.3098 46.4654M59.1259 1V25.1858M59.1259 25.1858H45.7277L35.3834 28.2891M59.1259 25.1858H61.4903L72.9675 28.2891" stroke="white" stroke-width="2.2"/>
<path d="M96.3145 42.1368H89.3145M96.3145 38.0755H89.3145M96.3145 33.4693H89.3145M96.3145 29.3585H89.3145M96.3145 25V46H89.3145V25H96.3145Z" stroke="white" stroke-opacity="0.3"/>
</g>
<defs>
<clipPath id="clip0_141_9719">
<rect width="118" height="77" fill="white"/>
</clipPath>
</defs>
</svg>
