<svg width="118" height="77" viewBox="0 0 118 77" fill="none" xmlns="http://www.w3.org/2000/svg">
<g clip-path="url(#clip0_141_9713)">
<path d="M96.418 47.1133H89.418V32.1133M96.418 43.7408H89.418M96.418 40.5193H89.418M96.418 37.3985H89.418M96.418 34.7307H89.418" stroke="white" stroke-opacity="0.3"/>
<path d="M23.857 75.2323H21V56.6126M89.4691 75.2323H96.4637V56.6126M63.6577 75.2323H50.1609M58.7319 1H96.4637V16.1716M58.7319 1V32.2298M58.7319 1H34.2012M34.2012 1H21V16.5164M34.2012 1V4.39882V32.2298M21 16.5164H34.2012M21 16.5164V32.2298M21 32.2298H34.2012M21 32.2298V56.6126M41.5407 32.2298H34.2012M34.2012 20.1615V13.5116L36.3193 8.53652M34.2012 30.2102V32.2298M81.0951 1V4.39882M81.0951 16.1716H96.4637M96.4637 16.1716V32.2298M81.0951 19.3241V13.6594L78.3859 7.69913M81.0951 29.8161V32.2298M96.4637 32.2298H78.3859M96.4637 32.2298V56.6126M96.4637 56.6126H48.4861L39.7674 52.672M32.6742 56.6126H21M46.7621 35.7271L54.6927 32.2298H63.5099L73.7064 35.7271M32.9698 20.1615H35.4327M32.9698 30.2102H35.4327M32.9698 4.39882H35.4327M79.7652 4.39882H82.2281M79.7652 19.3241H82.2281M79.7652 29.8161H82.2281M23.857 76.6115V73.9516M50.1609 76.6115V73.9516M63.6577 76.6115V73.9516M89.5183 76.6115V73.9516" stroke="white" stroke-width="2.2"/>
</g>
<defs>
<clipPath id="clip0_141_9713">
<rect width="118" height="77" fill="white"/>
</clipPath>
</defs>
</svg>
