<svg width="118" height="77" viewBox="0 0 118 77" fill="none" xmlns="http://www.w3.org/2000/svg">
<path d="M30.4928 20.3445H5V52.9196H13.6606M32.658 52.9196H43.798L49.2807 54.5257M32.658 52.9196V37.0685M32.658 52.9196H28.7118M32.658 29.7365V28.3399M32.9373 16.888H30.4928V28.3399H43.5186L48.1283 30.1904M32.658 37.0685V34.5198L30.0738 31.6917M32.658 37.0685H43.5186L48.3029 38.3254M44.9853 16.888H54.8681M77.672 16.888H54.8681M72.329 28.3748H77.672M77.672 28.3748V12H111.197V14.5487M77.672 28.3748H79.3832M111.197 19.4717V22.614M111.197 27.2227V52.9895M108.263 64.197H111.197V52.9895M111.197 52.9895H106.028M84.0277 52.9895H93.3169L99.0091 54.805M74.2846 52.9895H62.5509M74.2846 52.9895V51.5231L72.2591 47.2635M74.2846 52.9895L79.2086 55.0494M62.5509 52.9895V37.1034M62.5509 52.9895H60.4207M62.5509 37.1034H74.2846V44.7148M62.5509 37.1034H55.1126M54.8681 16.888V28.3399H63.7383L69.5702 29.946M13.6606 52.9196V32.3551M13.6606 52.9196V55.4684L11.7399 60.0422M13.6606 52.9196H28.7118M13.6606 62.8702V64.0922H28.7118M30.1087 64.0922H28.7118M28.7118 61.753V64.0922M28.7118 52.9196V55.7477L26.407 59.6581M108.263 63.2194V65M110.394 27.2227H112M110.394 22.6838H112M110.394 19.4368H112M110.394 14.5837H112M30.1087 63.1845V64.9651" stroke="white" stroke-width="1.4"/>
</svg>
