<svg width="118" height="77" viewBox="0 0 118 77" fill="none" xmlns="http://www.w3.org/2000/svg">
<path d="M29.3739 72.8259H27V18.4085M80.8696 2.88672H79.5913M90 2.88672V73.0085H88.5391H85.2522M55.1217 73.0085H50.0087M46.9043 73.0085H50.0087M50.0087 73.0085V50.7302M50.0087 37.2172V18.4085M27 18.4085V2.88672H79.5913M27 18.4085H79.5913V16.0345L73.9304 8.54759M79.5913 2.88672V6.17368M85.2522 71.9128V74.6519M55.1217 71.365V74.4693M46.9043 71.365V74.4693M29.3739 71.365V74.4693M47.8174 50.7302H52.2M47.8174 37.2172H52.2" stroke="white" stroke-width="2.2"/>
<path d="M89.8175 47.0783H82.1479V37.7653M79.2262 30.8262H82.1479V37.7653M75.2088 30.8262H70.0958M64.2523 30.8262H59.3218M54.0262 30.8262H50.1914M82.1479 37.7653H89.4523M82.1479 42.5131H89.4523M82.1479 33.2001H89.4523" stroke="white" stroke-opacity="0.31"/>
</svg>
