<svg width="118" height="77" viewBox="0 0 118 77" fill="none" xmlns="http://www.w3.org/2000/svg">
<g clip-path="url(#clip0_2770_3467)">
<rect x="25" y="11.5938" width="2" height="8.04236" fill="#BBBEBF"/>
<rect x="25.1953" y="31.2578" width="2" height="20.4642" transform="rotate(-90 25.1953 31.2578)" fill="#BBBEBF"/>
<rect x="25.1953" y="78" width="2" height="28.1881" transform="rotate(-90 25.1953 78)" fill="#BBBEBF"/>
<rect x="54" y="63" width="2" height="25.8789" transform="rotate(-90 54 63)" fill="#BBBEBF"/>
<rect x="25" y="2" width="2" height="37.2656" transform="rotate(-90 25 2)" fill="#BBBEBF"/>
<rect x="63" y="14" width="2" height="25.3215" transform="rotate(-90 63 14)" fill="#BBBEBF"/>
<rect x="52" y="31" width="2" height="17" transform="rotate(-90 52 31)" fill="#BBBEBF"/>
<rect x="56.4082" y="21.9453" width="2" height="6.05168" transform="rotate(-90 56.4082 21.9453)" fill="#BBBEBF"/>
<rect x="24" y="49" width="1" height="4" transform="rotate(-90 24 49)" fill="#BBBEBF"/>
<rect x="24" y="62" width="1" height="4" transform="rotate(-90 24 62)" fill="#BBBEBF"/>
<rect x="24" y="38" width="1" height="4" transform="rotate(-90 24 38)" fill="#BBBEBF"/>
<rect x="24" y="28" width="1" height="4" transform="rotate(-90 24 28)" fill="#BBBEBF"/>
<rect x="24" y="20" width="1" height="4" transform="rotate(-90 24 20)" fill="#BBBEBF"/>
<rect x="24" y="12" width="1" height="4" transform="rotate(-90 24 12)" fill="#BBBEBF"/>
<rect x="24" y="5" width="1" height="4" transform="rotate(-90 24 5)" fill="#BBBEBF"/>
<rect x="24" y="73" width="1" height="4" transform="rotate(-90 24 73)" fill="#BBBEBF"/>
<rect x="77" y="31" width="2" height="11" transform="rotate(-90 77 31)" fill="#BBBEBF"/>
<rect x="81" y="41" width="2" height="14" transform="rotate(-90 81 41)" fill="#BBBEBF"/>
<rect x="79" y="52" width="2" height="16" transform="rotate(-90 79 52)" fill="#BBBEBF"/>
<rect x="25" width="2" height="4" fill="#BBBEBF"/>
<rect x="25" y="27.6719" width="2" height="9.47565" fill="#BBBEBF"/>
<rect x="25" y="48.4531" width="2" height="13.6163" fill="#BBBEBF"/>
<rect x="53.3828" y="53" width="2" height="25.003" fill="#BBBEBF"/>
<rect x="62" width="2" height="23" fill="#BBBEBF"/>
<rect x="79" y="31" width="2" height="10" fill="#BBBEBF"/>
<rect x="93" y="41" width="2" height="2.30919" fill="#BBBEBF"/>
<rect x="62" y="28" width="2" height="3" fill="#BBBEBF"/>
<rect x="52.8613" y="29.6562" width="2" height="8.28926" transform="rotate(45 52.8613 29.6562)" fill="#BBBEBF"/>
<rect x="77.2266" y="29" width="2" height="7.39218" transform="rotate(45 77.2266 29)" fill="#BBBEBF"/>
<rect x="93.1602" y="41.5312" width="2" height="7.29754" transform="rotate(45 93.1602 41.5312)" fill="#BBBEBF"/>
<rect x="58.5117" y="24.9766" width="2" height="6.02046" transform="rotate(-45 58.5117 24.9766)" fill="#BBBEBF"/>
<rect x="93" y="49" width="2" height="2.30919" fill="#BBBEBF"/>
<rect x="79" y="52" width="2" height="11" fill="#BBBEBF"/>
<rect x="88" y="12" width="2" height="19" fill="#BBBEBF"/>
<rect x="25" y="72.1094" width="2" height="5.89242" fill="#BBBEBF"/>
</g>
<defs>
<clipPath id="clip0_2770_3467">
<rect width="118" height="77" fill="white"/>
</clipPath>
</defs>
</svg>
