<svg width="118" height="77" viewBox="0 0 118 77" fill="none" xmlns="http://www.w3.org/2000/svg">
<rect x="19" y="3" width="2" height="65.0449" fill="#BBBEBF"/>
<rect x="97" y="3" width="2" height="33" fill="#BBBEBF"/>
<rect x="97" y="65" width="2" height="4.90905" fill="#BBBEBF"/>
<rect x="97" y="44" width="2" height="12.2726" fill="#BBBEBF"/>
<rect x="64" y="5" width="2" height="6" fill="#BBBEBF"/>
<rect x="26" y="2" width="1" height="4" fill="#BBBEBF"/>
<rect x="35" y="2" width="1" height="4" fill="#BBBEBF"/>
<rect x="48" y="2" width="1" height="4" fill="#BBBEBF"/>
<rect x="57" y="2" width="1" height="4" fill="#BBBEBF"/>
<rect x="64" y="21" width="2" height="19.6362" fill="#BBBEBF"/>
<rect x="64" y="51" width="2" height="17" fill="#BBBEBF"/>
<rect x="19" y="5" width="2" height="7.36358" transform="rotate(-90 19 5)" fill="#BBBEBF"/>
<rect x="35" y="5" width="2" height="14" transform="rotate(-90 35 5)" fill="#BBBEBF"/>
<rect x="58" y="5" width="2" height="41" transform="rotate(-90 58 5)" fill="#BBBEBF"/>
<rect x="65.6367" y="30.4531" width="2" height="33.1361" transform="rotate(-90 65.6367 30.4531)" fill="#BBBEBF"/>
<rect x="57" y="70" width="2" height="42" transform="rotate(-90 57 70)" fill="#BBBEBF"/>
<rect x="57.8477" y="68" width="2" height="9.9524" transform="rotate(45 57.8477 68)" fill="#BBBEBF"/>
<rect x="58" y="46.4141" width="2" height="9.39095" transform="rotate(-45 58 46.4141)" fill="#BBBEBF"/>
<rect x="58" y="16.4141" width="2" height="9.06449" transform="rotate(-45 58 16.4141)" fill="#BBBEBF"/>
<rect x="19" y="70" width="2" height="28.227" transform="rotate(-90 19 70)" fill="#BBBEBF"/>
<rect x="96" y="44" width="4" height="1" fill="#BBBEBF"/>
<rect x="96" y="56" width="4" height="1" fill="#BBBEBF"/>
<rect x="96" y="64" width="4" height="1" fill="#BBBEBF"/>
<rect x="96" y="35" width="4" height="1" fill="#BBBEBF"/>
</svg>
