<svg width="118" height="77" viewBox="0 0 118 77" fill="none" xmlns="http://www.w3.org/2000/svg">
<g clip-path="url(#clip0_141_9707)">
<path d="M23.8077 75.2323H21V1H46.6636M93.8531 1H96.316V75.0845H89.272M63.2144 75.0845H49.7669M46.6636 1V35.7764H72.672V1M46.6636 1H72.672M72.672 1H77.7456L88.0898 3.75847M23.8077 73.9023V76.5623M49.7176 73.9023V76.5623M63.2144 73.9023V76.5623M89.2228 73.9023V76.5623" stroke="white" stroke-width="2.2"/>
<path d="M96 57.9141H86V35.9141M96 53.9872H86M96 49.256H86M96 45.4237H86M96 41.5442H86M96 37.1442H86" stroke="white" stroke-opacity="0.3"/>
</g>
<defs>
<clipPath id="clip0_141_9707">
<rect width="118" height="77" fill="white"/>
</clipPath>
</defs>
</svg>
