<svg width="118" height="77" viewBox="0 0 118 77" fill="none" xmlns="http://www.w3.org/2000/svg">
<g clip-path="url(#clip0_141_9711)">
<path d="M98.4086 75.802H100.277V50.285M20.5397 75.802H19.0542V50.285M19.0542 17.9634V24.768M46.2724 1H19.1021V3.82724L18 12.7881M46.2724 1V24.768M46.2724 1H65.0567M65.0567 1H100.277V50.285M65.0567 1V6.65448L67.5965 14.4174M19.0542 24.768H31.7528M19.0542 24.768V50.285M65.0567 18.5385V24.768H43.0139L34.8676 27.4994M19.0542 50.285H21.5939M81.9723 50.285H34.8676L25.4754 47.338M95.3417 50.285H100.277M20.5397 74.604V77M98.4565 74.604V77" stroke="white" stroke-width="2.2"/>
</g>
<defs>
<clipPath id="clip0_141_9711">
<rect width="118" height="77" fill="white"/>
</clipPath>
</defs>
</svg>
