<svg width="118" height="77" viewBox="0 0 118 77" fill="none" xmlns="http://www.w3.org/2000/svg">
<g clip-path="url(#clip0_141_9717)">
<path d="M106.142 65.2749H111.053V43.2697M106.142 65.2749V76.2153H9.10807V65.2749M106.142 65.2749H100.299M9.10807 65.2749H6V43.2697M9.10807 65.2749H17.7485M56.2264 1H6V22.197M56.2264 1H111.053V22.197M56.2264 1V22.197M56.2264 43.2697V65.2749M34.5321 65.2749H77.4856M111.053 43.2697H97.0043L84.0125 37.8617M111.053 43.2697V22.197M111.053 22.197H94.0827L80.5315 16.8512M73.3829 22.197H37.0185L21.9755 16.8512M16.4431 22.197H6M6 22.197V43.2697M17.7485 43.2697H6M79.1018 43.2697H35.5267L22.7836 37.8617" stroke="white" stroke-width="2.2"/>
</g>
<defs>
<clipPath id="clip0_141_9717">
<rect width="118" height="77" fill="white"/>
</clipPath>
</defs>
</svg>
