<svg width="1658" height="1080" viewBox="0 0 1658 1080" fill="none" xmlns="http://www.w3.org/2000/svg">
<path d="M547.118 -110.849C545.259 -111.125 543.307 -111.419 541.3 -111.659C539.293 -111.824 537.231 -111.972 535.096 -112.156C526.516 -112.708 516.611 -113.187 505.767 -112.892C500.409 -112.579 494.794 -112.156 488.939 -111.567C486.012 -111.272 483.029 -110.941 479.973 -110.554C476.917 -110.186 473.823 -109.781 470.767 -109.118C464.618 -107.903 458.248 -106.504 451.73 -104.902C448.471 -104.092 445.157 -103.263 441.843 -102.306C438.585 -101.238 435.307 -100.133 431.993 -98.955C425.365 -96.5983 418.609 -94.0024 411.778 -91.1671C405.15 -88.0372 398.467 -84.6311 391.765 -80.9673C388.433 -79.1078 385.027 -77.2851 381.75 -75.2046C378.509 -73.0873 375.287 -70.9148 372.065 -68.6503C368.843 -66.4041 365.64 -64.0843 362.436 -61.6909C359.233 -59.3159 356.048 -56.8856 353.083 -54.1607C347.045 -48.8215 341.263 -43.3534 335.74 -37.7933C332.923 -35.0684 330.456 -32.049 327.915 -29.1216C325.412 -26.1758 322.981 -23.2116 320.606 -20.2475C318.231 -17.2833 315.93 -14.3007 313.702 -11.3181C311.511 -8.29866 309.523 -5.15034 307.534 -2.09409C303.576 4.07363 299.875 10.2229 296.432 16.2986C293.174 22.5031 290.265 28.7445 287.54 34.8018C284.852 40.8958 282.256 46.7506 280.323 52.7894C278.297 58.7362 276.475 64.5357 274.836 70.1327C274.026 72.9312 273.234 75.656 272.553 78.3809C271.964 81.1425 271.393 83.8306 270.823 86.4818C269.755 91.7657 268.853 96.8288 268.079 101.616C267.324 106.421 266.625 110.895 266.33 115.277C265.612 123.948 265.318 131.442 265.226 137.573C265.06 143.667 265.391 148.564 265.667 151.896C265.925 155.21 266.146 156.996 266.146 156.996C387.439 102.904 511.769 22.0245 576.116 -104.883C576.116 -104.883 569.432 -106.89 557.263 -109.136C554.243 -109.707 550.856 -110.296 547.118 -110.849Z" fill="#6FCF97"/>
<path d="M77.0255 304.38C80.0449 316.753 83.4878 328.002 87.0595 338.054C90.7602 348.144 94.9395 357.11 98.7138 364.787C102.58 372.501 106.005 378.927 109.355 384.174C115.947 394.65 120.347 400.137 120.347 400.137C120.347 400.137 121.267 398.48 122.998 395.405C123.827 393.858 124.839 391.962 126.017 389.734C127.177 387.507 128.466 384.929 130.068 382.094C133.179 376.405 136.806 369.5 140.673 361.584C141.648 359.614 142.587 357.552 143.655 355.471C144.723 353.391 145.828 351.255 146.969 349.064C149.197 344.682 151.462 340.061 153.745 335.237C154.868 332.826 155.991 330.358 157.151 327.836C158.384 325.351 159.636 322.828 160.906 320.251C163.41 315.096 165.877 309.756 168.308 304.215C170.609 298.636 173.481 293.113 175.967 287.313C178.563 281.551 180.919 275.53 183.497 269.491C186.148 263.489 188.707 257.303 191.138 250.97C192.389 247.821 193.457 244.544 194.765 241.359C196.053 238.174 197.305 234.934 198.52 231.656C201.006 225.139 203.123 218.327 205.461 211.552C207.855 204.813 210.064 197.891 212.089 190.765C213.986 183.585 216.269 176.736 218.036 169.722C218.957 166.223 219.822 162.744 220.651 159.246C221.442 155.729 222.234 152.249 223.136 148.862C224.848 142.031 226.358 135.201 227.72 128.407C228.438 125.019 228.972 121.558 229.709 118.262C230.408 114.93 231.09 111.634 231.752 108.376C233.06 101.803 234.22 95.267 235.269 88.8231C236.282 82.3424 237.57 76.2483 238.546 70.099C240.608 57.874 242.136 45.962 243.922 35.2468C245.579 24.421 246.868 14.2765 247.954 5.21825C249.225 -3.67432 250.219 -11.5543 250.937 -18.127C252.41 -31.2542 252.796 -38.9868 252.796 -38.9868C252.796 -38.9868 244.935 -35.0653 231.734 -27.1117C228.438 -25.1233 224.793 -22.8955 220.89 -20.3548C217.116 -17.7404 213.047 -14.8499 208.739 -11.6831C204.43 -8.51643 199.901 -5.09196 195.17 -1.39133C193.991 -0.452362 192.795 0.486591 191.598 1.44397C190.438 2.43817 189.278 3.4508 188.1 4.48182C185.761 6.56227 183.35 8.67953 180.919 10.852C176.059 15.2339 171.051 19.8919 165.97 24.8077C160.98 29.7971 156.12 35.1915 151.13 40.7701C148.645 43.5686 146.141 46.4223 143.655 49.3497C142.422 50.8226 141.17 52.2955 139.918 53.7868C138.74 55.3149 137.561 56.8614 136.364 58.4263C131.633 64.6677 126.938 71.1484 122.317 77.8501C117.567 84.4781 113.535 91.6768 109.319 98.9124C107.257 102.539 105.213 106.222 103.224 109.941C102.249 111.8 101.254 113.678 100.26 115.556C99.3581 117.471 98.4744 119.404 97.5723 121.337C94.0005 129.107 90.6497 137.023 87.5382 145.069C85.918 149.064 84.5924 153.188 83.3221 157.349C82.0333 161.492 80.8182 165.671 79.6767 169.869C74.8345 186.549 72.57 203.248 70.9498 218.99C70.5079 222.911 70.3606 226.87 70.2502 230.773C70.1397 234.658 70.0845 238.505 70.0845 242.298C70.1213 249.883 70.2686 257.193 70.8393 264.355C72.257 278.734 74.2454 292.063 77.0255 304.38Z" fill="#6FCF97"/>
<path d="M78.7226 683.886C85.2401 690.348 91.9049 695.78 97.8333 700.382C103.762 704.967 109.064 708.704 113.501 711.632C117.938 714.559 121.51 716.713 123.959 718.131C126.426 719.548 127.862 720.23 127.862 720.23C127.862 720.23 127.954 718.591 128.267 715.516C128.543 712.442 128.893 707.968 129.187 702.352C129.482 696.719 129.703 689.962 129.758 682.284C130.126 674.552 130.329 665.917 130.237 656.582C129.942 647.285 130.255 637.177 129.777 626.627C129.648 623.995 129.519 621.325 129.39 618.619C129.224 615.912 129.022 613.187 128.966 610.426C128.764 604.884 128.451 599.25 127.972 593.524C127.733 590.652 127.475 587.78 127.162 584.871C126.996 583.417 126.831 581.962 126.684 580.489C126.555 579.016 126.444 577.543 126.315 576.071C125.8 570.161 125.1 564.177 124.216 558.12C123.775 555.1 123.296 552.062 122.762 549.006C122.302 545.95 121.823 542.875 121.363 539.782C120.35 533.615 119.135 527.373 117.699 521.095C116.134 514.817 114.9 508.649 113.335 502.555C111.789 496.479 110.077 490.496 108.217 484.604C104.701 472.839 101.129 461.498 96.9312 450.562C89.2537 428.8 80.3612 408.732 72.8494 391.628C69.0015 383.067 65.0799 375.187 61.6923 368.246C58.3967 361.323 55.3405 355.266 52.7261 350.295C47.5157 340.335 44.0544 334.719 44.0544 334.719C44.0544 334.719 40.2249 341.016 34.4254 352.449C32.971 355.303 31.406 358.488 29.7306 361.986C28.1288 365.484 26.5823 369.314 24.9069 373.419C21.6481 381.649 17.9475 391.02 14.744 401.423C11.6877 411.843 8.64988 423.258 6.0355 435.465C3.86299 447.69 1.85617 460.706 0.751505 474.22C0.364871 480.996 0.107115 487.881 0.0334707 494.878C-0.00335148 501.874 -0.132224 508.944 0.567398 516.069C1.13814 523.194 1.91141 530.374 2.90561 537.536C3.40271 541.126 3.95504 544.716 4.58102 548.307C5.33588 551.878 6.14596 555.469 7.01129 559.022C10.5278 573.29 14.5967 586.731 20.1568 599.121C25.5697 611.549 31.1667 623.037 37.9051 633.44C41.1823 638.65 44.4963 643.603 47.8471 648.316C51.2348 653.011 54.4383 657.503 58.0653 661.682C65.1168 670.059 72.0946 677.442 78.7226 683.886Z" fill="#6FCF97"/>
<path d="M206.794 951.97C212.52 953.7 217.528 954.989 221.67 955.928C229.955 957.806 234.797 958.358 234.797 958.358C234.797 958.358 233.564 953.166 230.82 944.587C229.458 940.297 227.727 935.16 225.573 929.416C223.585 923.58 221.357 917.007 218.632 910.066C217.27 906.586 215.815 902.996 214.232 899.332C212.704 895.631 211.249 891.765 209.574 887.862C207.935 883.959 206.168 880.001 204.272 875.987C202.375 871.992 200.313 867.96 198.417 863.762C194.495 855.44 189.929 847.081 184.94 838.668C180.208 830.143 174.869 821.674 168.775 813.352C162.957 804.938 156.918 797.003 150.456 789.602C148.854 787.742 147.234 785.92 145.595 784.134C144.049 782.311 142.484 780.525 140.919 778.758C137.771 775.241 134.567 771.835 131.345 768.54C118.181 755.468 105.901 743.906 94.2837 734.442C91.4115 732.067 88.5946 729.839 85.9066 727.722C83.3107 725.586 80.8067 723.598 78.4317 721.739C73.6632 718.019 69.3919 714.853 65.8017 712.294C58.6214 707.157 54.2027 704.487 54.2027 704.487C54.2027 704.487 53.5951 710.14 53.3005 720.008C53.1901 724.942 53.0244 730.944 53.3374 737.775C53.7424 744.587 54.3868 752.264 55.381 760.604C55.8781 764.784 56.4672 769.11 57.1485 773.584C57.9954 778.021 58.9712 782.587 60.0574 787.264C61.1437 791.94 62.3404 796.727 63.666 801.588C64.9916 806.448 66.4092 811.401 68.2872 816.316C71.8958 826.166 76.0014 836.237 80.8988 846.161C86.1091 855.974 91.9639 865.677 98.4998 874.993C105.257 884.235 112.676 892.502 120.041 900.013C121.9 901.891 123.741 903.714 125.619 905.481C127.571 907.212 129.523 908.906 131.474 910.526C135.377 913.803 139.28 916.86 143.165 919.732C147.05 922.604 150.898 925.292 154.691 927.796C158.483 930.3 162.46 932.491 166.234 934.589C173.82 938.75 181.092 942.212 187.849 945.102C194.514 948.122 201.123 950.202 206.794 951.97Z" fill="#6FCF97"/>
<path d="M376.895 1119.88C380.264 1119.53 382.897 1119.16 384.682 1118.87C386.468 1118.57 387.463 1118.33 387.463 1118.33C387.463 1118.33 386.873 1117.45 385.769 1115.83C384.664 1114.19 383.044 1111.83 380.927 1108.92C378.809 1106.01 376.177 1102.55 373.083 1098.72C371.537 1096.81 369.88 1094.8 368.094 1092.72C366.363 1090.59 364.559 1088.34 362.663 1086C358.833 1081.38 354.58 1076.56 349.904 1071.66C347.51 1069.27 345.227 1066.63 342.779 1064.06C340.33 1061.48 337.771 1058.9 335.12 1056.36C332.469 1053.82 329.689 1051.28 326.816 1048.77C323.963 1046.25 321.164 1043.6 318.163 1041.1C312.253 1036 305.68 1031.28 298.96 1026.61C292.314 1021.88 285.465 1017.7 278.579 1013.96C276.849 1013.02 275.118 1012.12 273.387 1011.25C271.694 1010.35 270.037 1009.45 268.361 1008.56C265.01 1006.83 261.678 1005.2 258.345 1003.67C251.699 1000.59 245.053 997.96 238.756 995.53C232.588 993.044 226.605 990.89 221.008 989.049C209.814 985.33 199.964 982.9 193.317 981.132C186.561 979.438 182.547 978.757 182.547 978.757C182.547 978.757 183.688 983.139 186.229 990.522C188.899 997.831 193.336 1007.98 199.411 1019.76C200.185 1021.23 200.976 1022.72 201.787 1024.23C202.67 1025.71 203.572 1027.2 204.493 1028.73C206.352 1031.76 208.341 1034.86 210.44 1038C212.539 1041.15 214.748 1044.36 217.086 1047.56C219.406 1050.78 221.855 1054.02 224.598 1057.11C229.992 1063.37 235.865 1069.62 242.18 1075.62C245.274 1078.67 248.79 1081.42 252.27 1084.16C255.786 1086.9 259.413 1089.54 263.132 1092.08C266.87 1094.6 270.57 1096.97 274.363 1099.11C278.229 1101.17 282.059 1103.09 285.888 1104.82C293.548 1108.28 300.967 1111.21 308.295 1113.43C315.733 1115.55 322.876 1117.14 329.615 1118.3C336.39 1119.42 342.576 1120.32 348.578 1120.52C360.472 1121.15 370.156 1120.58 376.895 1119.88Z" fill="#6FCF97"/>
<path d="M426.66 186.548C427.967 184.063 429.182 181.761 430.232 179.644C434.485 171.138 436.565 165.652 436.565 165.652C436.565 165.652 430.637 163.866 420.142 162.061C414.877 161.159 408.451 160.257 400.995 159.631C393.686 159.189 385.456 159.097 376.305 159.521C367.045 159.815 357.453 161.215 347.105 163.277C341.987 164.363 336.482 165.449 331.254 167.106C325.97 168.726 320.575 170.586 315.07 172.685C312.327 173.734 309.547 174.857 306.748 176.035C303.931 177.195 301.317 178.595 298.574 179.975C293.142 182.774 287.656 185.83 282.151 189.181C279.353 190.82 276.72 192.642 274.105 194.557C271.473 196.453 268.858 198.442 266.244 200.485C261.07 204.628 255.657 208.881 250.926 213.815C246.084 218.676 241.426 223.72 236.989 228.894C232.588 234.086 228.796 239.627 224.985 245.132C223.107 247.894 221.284 250.674 219.498 253.454C217.694 256.234 216.221 259.162 214.656 262.015C211.581 267.76 208.691 273.522 206.003 279.248C203.407 285.011 201.308 290.884 199.209 296.591C197.221 302.354 195.122 307.914 193.778 313.585C192.323 319.2 191.016 324.705 189.856 330.044C189.304 332.714 188.751 335.347 188.218 337.924C187.849 340.539 187.481 343.116 187.131 345.639C186.469 350.683 185.916 355.525 185.456 360.128C185.253 362.43 185.051 364.676 184.848 366.848C184.683 369.039 184.683 371.193 184.627 373.274C184.443 381.577 184.554 388.813 184.756 394.76C184.812 397.724 185.088 400.412 185.327 402.732C185.603 405.051 185.824 407.04 186.008 408.641C186.413 411.845 186.708 413.576 186.708 413.576C186.708 413.576 192.82 410.538 202.67 404.867C207.531 402.013 213.772 398.626 220.455 394.649C227.231 390.691 234.448 386.125 242.365 381.209C250.392 376.33 258.806 370.991 267.22 365.228C275.873 359.557 284.894 353.574 293.474 347.13C297.874 343.945 302.459 340.76 306.804 337.409C308.994 335.733 311.167 334.04 313.303 332.309C315.438 330.578 317.519 328.811 319.765 327.099C328.639 320.231 336.574 312.628 344.822 304.987C346.829 303.035 348.762 301.084 350.622 299.095C352.482 297.107 354.249 295.082 356.164 293.185C359.883 289.319 363.344 285.379 366.566 281.365L368.941 278.346L371.408 275.456C373.028 273.522 374.593 271.571 376.085 269.601C379.159 265.716 381.718 261.555 384.664 257.818C387.499 253.988 390.114 250.122 392.563 246.237C393.17 245.261 393.759 244.285 394.367 243.328C394.993 242.389 395.637 241.469 396.263 240.548C397.497 238.707 398.693 236.847 399.853 234.988C402.192 231.306 404.254 227.531 406.334 223.96C408.507 220.48 410.532 217.019 412.41 213.631C413.33 211.919 414.232 210.225 415.116 208.586C415.54 207.739 415.963 206.911 416.386 206.101C416.847 205.309 417.289 204.536 417.73 203.763C419.48 200.688 421.1 197.687 422.573 194.815C424.046 191.943 425.445 189.163 426.66 186.548Z" fill="#6FCF97"/>
<path d="M222.92 658.477C227.357 651.462 231.904 643.895 236.304 635.905C238.422 631.928 240.944 627.786 243.19 623.588C245.492 619.39 247.738 615.082 249.892 610.719C253.979 601.992 258.656 592.897 262.393 583.544C265.965 574.209 269.923 564.599 272.722 554.712C273.44 552.245 274.084 549.778 274.673 547.329C275.391 544.88 276.072 542.45 276.68 540.038C277.895 535.196 278.908 530.409 279.699 525.659C280.362 520.909 281.449 516.251 282.056 511.63C282.719 507.009 283.216 502.461 283.547 497.969C284.523 489.021 285.168 480.368 285.168 472.046C285.591 463.798 285.646 455.936 285.333 448.554C285.168 441.208 285.112 434.451 284.634 428.32C284.394 425.245 284.155 422.373 283.952 419.703C283.824 417.052 283.658 414.603 283.474 412.357C282.737 403.428 281.798 398.07 281.798 398.07C281.798 398.07 276.514 399.838 267.806 403.87C263.442 405.895 258.232 408.491 252.396 411.787C246.615 415.082 240.521 419.151 233.893 423.938C220.489 433.475 206.663 446.399 193.628 462.822C187.46 471.07 181.218 480.184 175.916 490.163C173.357 495.17 170.927 500.362 168.644 505.775C166.397 511.188 164.114 516.767 162.568 522.566C160.893 528.366 159.456 534.202 158.223 540.038C157.634 542.966 156.989 545.893 156.584 548.802C156.198 551.729 155.866 554.638 155.59 557.547C155.019 563.365 154.633 569.146 154.412 574.854C154.375 576.29 154.32 577.708 154.283 579.125C154.32 580.543 154.357 581.96 154.393 583.36C154.485 586.177 154.614 588.957 154.78 591.718C155.111 597.242 155.572 602.673 156.161 607.975C156.4 610.627 156.842 613.223 157.302 615.8C157.781 618.359 158.26 620.9 158.738 623.385C160.8 633.346 162.826 642.717 165.827 651.149C168.625 659.619 171.497 667.278 174.204 673.979C177.242 680.626 180.095 686.333 182.526 690.973C184.974 695.612 187.018 699.202 188.454 701.651C189.853 704.1 190.792 705.333 190.792 705.333C190.792 705.333 191.694 704.155 193.37 701.983C195.064 699.773 197.512 696.533 200.458 692.409C203.422 688.285 206.883 683.295 210.658 677.588C214.414 671.917 218.354 665.528 222.92 658.477Z" fill="#6FCF97"/>
<path d="M212.886 826.647C215.61 835.595 219.035 844.101 222.625 852.202C224.356 856.289 226.455 860.1 228.554 863.819C230.652 867.538 232.788 871.11 234.942 874.553C237.115 877.978 239.195 881.328 241.46 884.421C243.761 887.496 246.044 890.423 248.29 893.185C252.783 898.708 257.036 903.661 261.049 907.877C265.192 912.001 268.947 915.463 272.096 918.261C278.392 923.84 282.296 926.749 282.296 926.749C282.296 926.749 283.86 922.164 285.941 914.321C286.99 910.4 288.169 905.668 289.365 900.31C290.599 894.916 291.648 889.043 293.048 882.415C294.355 875.842 295.57 868.809 296.564 861.481C297.098 857.799 297.411 854.117 297.927 850.232C298.424 846.347 298.847 842.426 299.179 838.449C299.51 834.472 299.749 830.459 299.878 826.408C299.952 824.383 299.97 822.358 299.989 820.332C300.062 818.252 300.136 816.172 300.154 814.091C300.302 805.714 299.731 797.374 298.755 788.905C294.889 755.102 283.676 725.57 273.016 703.054C270.42 697.438 267.788 692.32 265.265 687.791C262.835 683.243 260.81 679.23 258.913 675.952C255.194 669.38 252.617 665.661 252.617 665.661C252.617 665.661 249.45 668.919 244.626 675.087C242.215 678.162 239.398 681.991 236.36 686.502C234.85 688.767 233.267 691.197 231.665 693.811C230.155 696.389 228.646 699.15 227.117 702.059C221.134 713.695 214.653 728.166 211.063 744.46C210.106 748.547 209.24 752.782 208.485 757.127C208.117 759.3 207.767 761.509 207.473 763.737C207.252 765.946 207.068 768.174 206.939 770.42C206.405 779.441 206.331 788.941 207.289 798.626C208.504 808.181 210.437 817.589 212.886 826.647Z" fill="#6FCF97"/>
<path d="M415.169 1041.52C414.248 1036.38 413.475 1030.51 412.26 1024.66C411.081 1018.76 409.664 1012.69 407.878 1006.58C406.202 1000.35 404.361 993.909 401.986 987.63C400.808 984.482 399.538 981.371 398.138 978.278C396.794 975.129 395.432 971.907 393.885 968.778C392.339 965.648 390.7 962.628 388.988 959.738C387.294 956.81 385.38 954.122 383.686 951.269C380.169 945.672 376.377 940.517 372.437 935.766C370.411 933.428 368.533 931.035 366.619 928.752C364.704 926.469 362.771 924.278 360.819 922.198C358.868 920.117 356.916 918.129 354.983 916.232C354.007 915.293 353.031 914.373 352.092 913.471C351.172 912.532 350.27 911.63 349.386 910.727C342.261 903.602 335.467 898.152 330.68 894.305C326.004 890.365 323.021 888.284 323.021 888.284C323.021 888.284 321.622 891.709 319.818 897.803C317.921 903.97 316.099 912.513 314.902 923.118C314.313 928.402 313.926 934.202 313.834 940.369C313.852 946.463 314.368 952.852 315.233 959.554C315.675 962.904 316.227 966.329 316.909 969.79C317.258 971.521 317.627 973.288 318.032 975.037C318.492 976.75 318.989 978.48 319.523 980.211C321.659 987.133 324.365 994.203 327.716 1001.25C331.14 1008.25 335.375 1014.58 339.72 1020.7C341.929 1023.72 344.139 1026.72 346.532 1029.46C348.962 1032.17 351.448 1034.78 353.933 1037.29C356.437 1039.79 358.941 1042.18 361.463 1044.48C363.986 1046.77 366.453 1049.01 369.086 1050.91C374.278 1054.83 379.341 1058.33 384.109 1061.39C386.503 1062.91 388.804 1064.37 391.05 1065.66C393.352 1066.89 395.561 1068.01 397.66 1069.04C401.839 1071.11 405.558 1072.8 408.633 1074.11C411.726 1075.43 414.193 1076.39 415.887 1077.02C417.562 1077.66 418.538 1077.92 418.538 1077.92C418.538 1077.92 418.52 1076.96 418.464 1075.21C418.409 1073.43 418.317 1070.83 418.096 1067.57C417.709 1061.07 416.863 1051.94 415.169 1041.52Z" fill="#6FCF97"/>
<path d="M548.498 1133.18C541.06 1117.67 530.308 1098.47 514.566 1082.51C512.541 1080.56 510.553 1078.62 508.564 1076.71C506.557 1074.83 504.495 1073.06 502.415 1071.39C500.335 1069.71 498.236 1068.15 496.118 1066.67C494.001 1065.2 491.847 1063.84 489.803 1062.37C485.661 1059.51 481.5 1057.03 477.431 1054.84C475.387 1053.73 473.381 1052.72 471.392 1051.76C469.404 1050.82 467.581 1049.75 465.722 1048.87C458.394 1045.24 451.84 1042.7 447.108 1041.08C444.77 1040.24 442.929 1039.55 441.658 1039.09C440.37 1038.67 439.67 1038.43 439.67 1038.43C439.67 1038.43 439.504 1041.41 439.725 1046.53C439.964 1051.63 440.811 1058.61 442.634 1066.99C444.475 1075.33 447.292 1085.1 452.171 1094.64C454.546 1099.48 457.345 1104.42 460.585 1109.31C463.825 1114.21 467.765 1118.67 472.055 1123.18C489.288 1141.26 511.933 1150.81 529.35 1155.66C533.659 1157 537.838 1157.66 541.502 1158.31C545.184 1158.91 548.406 1159.36 551.076 1159.65C556.415 1160.24 559.526 1160.31 559.526 1160.31C559.526 1160.31 558.661 1157.35 556.82 1152.45C555.016 1147.59 552.235 1140.8 548.498 1133.18Z" fill="#6FCF97"/>
<path d="M1390.83 156.978C1390.83 156.978 1391.05 155.211 1391.31 151.878C1391.59 148.546 1391.92 143.649 1391.75 137.555C1391.66 131.424 1391.37 123.93 1390.65 115.259C1390.37 110.877 1389.67 106.403 1388.9 101.598C1388.13 96.8108 1387.22 91.7477 1386.16 86.4637C1385.58 83.8125 1385.01 81.1061 1384.42 78.3628C1383.72 75.6564 1382.95 72.9131 1382.14 70.1146C1380.52 64.5177 1378.7 58.7366 1376.66 52.7714C1374.72 46.7325 1372.13 40.8778 1369.44 34.7837C1366.71 28.7265 1363.8 22.4851 1360.55 16.2805C1357.1 10.2049 1353.4 4.07397 1349.44 -2.11217C1347.44 -5.18682 1345.47 -8.33511 1343.28 -11.3361C1341.05 -14.3187 1338.73 -17.2829 1336.37 -20.2655C1334 -23.2297 1331.57 -26.1939 1329.06 -29.1397C1326.54 -32.067 1324.07 -35.0865 1321.24 -37.8113C1315.71 -43.3715 1309.93 -48.858 1303.89 -54.1788C1300.93 -56.9036 1297.73 -59.3339 1294.54 -61.7089C1291.36 -64.1024 1288.13 -66.4222 1284.91 -68.6683C1281.69 -70.9145 1278.47 -73.1054 1275.23 -75.2227C1271.97 -77.3031 1268.55 -79.1258 1265.21 -80.9854C1258.51 -84.6492 1251.83 -88.0552 1245.2 -91.1851C1238.37 -94.0388 1231.63 -96.6348 1224.98 -98.973C1221.67 -100.151 1218.37 -101.274 1215.13 -102.324C1211.82 -103.281 1208.51 -104.11 1205.25 -104.92C1198.73 -106.54 1192.36 -107.939 1186.21 -109.136C1183.15 -109.799 1180.06 -110.204 1177 -110.572C1173.97 -110.959 1170.97 -111.29 1168.04 -111.585C1162.18 -112.174 1156.57 -112.616 1151.21 -112.91C1140.37 -113.205 1130.46 -112.726 1121.88 -112.174C1119.75 -112.008 1117.67 -111.842 1115.68 -111.677C1113.67 -111.456 1111.72 -111.143 1109.86 -110.867C1106.14 -110.314 1102.73 -109.725 1099.7 -109.173C1087.53 -106.927 1080.84 -104.92 1080.84 -104.92C1145.21 22.0064 1269.54 102.886 1390.83 156.978Z" fill="#6FCF97"/>
<path d="M1409.04 5.27199C1410.12 14.3303 1411.41 24.4748 1413.07 35.3005C1414.86 46.0158 1416.38 57.9278 1418.45 70.1528C1419.42 76.3021 1420.71 82.3961 1421.72 88.8769C1422.77 95.3207 1423.93 101.857 1425.24 108.429C1425.92 111.688 1426.6 114.984 1427.28 118.316C1428.02 121.612 1428.57 125.073 1429.27 128.461C1430.63 135.273 1432.14 142.085 1433.86 148.915C1434.76 152.303 1435.53 155.783 1436.34 159.299C1437.15 162.797 1438.04 166.296 1438.96 169.775C1440.74 176.79 1443.03 183.639 1444.9 190.819C1446.93 197.926 1449.14 204.848 1451.53 211.605C1453.87 218.381 1455.99 225.193 1458.47 231.71C1459.69 234.987 1460.94 238.209 1462.23 241.413C1463.54 244.598 1464.6 247.857 1465.86 251.024C1468.29 257.375 1470.84 263.543 1473.5 269.545C1476.06 275.602 1478.41 281.604 1481.03 287.367C1483.53 293.167 1486.38 298.708 1488.69 304.268C1491.12 309.792 1493.58 315.149 1496.09 320.305C1497.36 322.882 1498.61 325.404 1499.84 327.89C1501 330.394 1502.14 332.861 1503.25 335.291C1505.53 340.115 1507.8 344.736 1510.02 349.118C1511.17 351.309 1512.25 353.445 1513.34 355.525C1514.41 357.605 1515.34 359.668 1516.32 361.637C1520.19 369.554 1523.81 376.44 1526.92 382.147C1528.53 384.983 1529.82 387.56 1530.98 389.788C1532.15 392.016 1533.18 393.912 1533.99 395.459C1535.71 398.533 1536.65 400.19 1536.65 400.19C1536.65 400.19 1541.05 394.704 1547.64 384.228C1550.99 378.981 1554.41 372.555 1558.28 364.841C1562.04 357.164 1566.21 348.179 1569.93 338.108C1573.51 328.056 1576.97 316.806 1579.97 304.434C1582.75 292.117 1584.74 278.787 1586.15 264.408C1586.74 257.265 1586.87 249.937 1586.91 242.352C1586.91 238.559 1586.85 234.73 1586.74 230.827C1586.63 226.923 1586.49 222.983 1586.04 219.043C1584.42 203.302 1582.16 186.603 1577.32 169.923C1576.17 165.725 1574.96 161.546 1573.67 157.403C1572.4 153.242 1571.07 149.118 1569.45 145.123C1566.34 137.077 1562.99 129.16 1559.48 121.391C1558.57 119.458 1557.67 117.525 1556.79 115.61C1555.79 113.732 1554.82 111.854 1553.82 109.994C1551.84 106.275 1549.79 102.593 1547.73 98.9662C1543.53 91.7306 1539.5 84.5318 1534.73 77.9038C1530.11 71.2022 1525.4 64.7215 1520.68 58.4801C1519.49 56.9336 1518.31 55.387 1517.13 53.8405C1515.88 52.3492 1514.63 50.8763 1513.39 49.4034C1510.89 46.4761 1508.4 43.6223 1505.92 40.8238C1500.91 35.2453 1496.07 29.8508 1491.08 24.8614C1486 19.9456 1480.99 15.2876 1476.13 10.9058C1473.68 8.73328 1471.29 6.61599 1468.95 4.53553C1467.77 3.50451 1466.59 2.51033 1465.45 1.49771C1464.24 0.540337 1463.06 -0.398617 1461.88 -1.33758C1457.15 -5.03822 1452.62 -8.46268 1448.31 -11.6294C1444 -14.7961 1439.95 -17.6867 1436.16 -20.301C1432.27 -22.8234 1428.61 -25.0511 1425.31 -27.0579C1412.11 -35.0115 1404.25 -38.9331 1404.25 -38.9331C1404.25 -38.9331 1404.66 -31.182 1406.11 -18.0733C1406.77 -11.5189 1407.77 -3.62057 1409.04 5.27199Z" fill="#6FCF97"/>
<path d="M1656.98 494.895C1656.91 487.917 1656.67 481.013 1656.26 474.237C1655.14 460.705 1653.15 447.707 1650.98 435.482C1648.38 423.276 1645.33 411.879 1642.27 401.44C1639.07 391.038 1635.35 381.666 1632.11 373.437C1630.43 369.331 1628.89 365.502 1627.28 362.003C1625.61 358.505 1624.04 355.339 1622.59 352.466C1616.77 341.033 1612.94 334.755 1612.94 334.755C1612.94 334.755 1609.5 340.37 1604.27 350.331C1601.66 355.302 1598.6 361.359 1595.3 368.282C1591.94 375.223 1588 383.103 1584.15 391.664C1576.62 408.768 1567.72 428.836 1560.07 450.598C1555.87 461.534 1552.3 472.875 1548.78 484.64C1546.92 490.531 1545.21 496.515 1543.66 502.591C1542.1 508.666 1540.86 514.834 1539.3 521.131C1537.86 527.409 1536.65 533.65 1535.63 539.818C1535.16 542.911 1534.7 545.986 1534.23 549.042C1533.7 552.098 1533.22 555.136 1532.78 558.155C1531.9 564.213 1531.22 570.196 1530.68 576.106C1530.55 577.579 1530.44 579.052 1530.31 580.525C1530.15 581.998 1529.98 583.452 1529.83 584.907C1529.52 587.816 1529.25 590.706 1529.02 593.56C1528.55 599.286 1528.23 604.938 1528.03 610.461C1527.98 613.241 1527.79 615.966 1527.61 618.654C1527.48 621.361 1527.35 624.03 1527.22 626.663C1526.74 637.213 1527.05 647.32 1526.76 656.618C1526.67 665.934 1526.87 674.569 1527.24 682.32C1527.28 689.997 1527.51 696.773 1527.81 702.388C1528.1 708.022 1528.45 712.496 1528.73 715.552C1529.04 718.627 1529.14 720.265 1529.14 720.265C1529.14 720.265 1530.57 719.584 1533.04 718.166C1535.51 716.749 1539.06 714.595 1543.5 711.667C1547.93 708.721 1553.24 705.002 1559.16 700.418C1565.07 695.834 1571.76 690.384 1578.27 683.922C1584.9 677.478 1591.88 670.095 1598.95 661.736C1602.58 657.575 1605.76 653.083 1609.17 648.37C1612.52 643.657 1615.83 638.704 1619.11 633.494C1625.85 623.11 1631.45 611.603 1636.86 599.175C1642.44 586.766 1646.49 573.326 1650 559.076C1650.87 555.504 1651.68 551.932 1652.43 548.361C1653.06 544.77 1653.59 541.18 1654.11 537.59C1655.1 530.41 1655.88 523.248 1656.45 516.123C1657.13 508.942 1657 501.873 1656.98 494.895Z" fill="#6FCF97"/>
<path d="M1602.77 704.505C1602.77 704.505 1598.35 707.193 1591.17 712.312C1587.58 714.871 1583.29 718.038 1578.54 721.757C1576.17 723.616 1573.66 725.623 1571.07 727.74C1568.38 729.857 1565.56 732.085 1562.69 734.46C1551.07 743.905 1538.79 755.486 1525.63 768.558C1522.41 771.853 1519.2 775.241 1516.06 778.776C1514.47 780.543 1512.93 782.329 1511.38 784.152C1509.74 785.938 1508.12 787.76 1506.52 789.62C1500.06 797.021 1494.02 804.975 1488.2 813.37C1482.12 821.674 1476.77 830.161 1472.03 838.686C1467.05 847.081 1462.46 855.458 1458.56 863.78C1456.66 867.978 1454.6 872.01 1452.7 876.005C1450.81 880.019 1449.06 883.977 1447.4 887.88C1445.73 891.765 1444.27 895.65 1442.74 899.35C1441.16 903.014 1439.7 906.604 1438.36 910.084C1435.64 917.025 1433.41 923.598 1431.4 929.434C1429.27 935.197 1427.54 940.315 1426.15 944.605C1423.43 953.184 1422.18 958.376 1422.18 958.376C1422.18 958.376 1427 957.824 1435.3 955.946C1439.45 955.007 1444.47 953.718 1450.18 951.988C1455.85 950.22 1462.46 948.121 1469.11 945.194C1475.86 942.303 1483.12 938.842 1490.72 934.681C1494.48 932.582 1498.47 930.391 1502.27 927.887C1506.06 925.384 1509.91 922.695 1513.79 919.823C1517.68 916.951 1521.58 913.877 1525.48 910.618C1527.43 908.979 1529.39 907.304 1531.34 905.573C1533.21 903.806 1535.06 901.983 1536.92 900.105C1544.28 892.593 1551.7 884.308 1558.46 875.084C1564.99 865.768 1570.85 856.047 1576.06 846.253C1580.94 836.329 1585.06 826.277 1588.67 816.408C1590.55 811.492 1591.98 806.558 1593.29 801.679C1594.62 796.819 1595.83 792.032 1596.9 787.355C1597.99 782.679 1598.94 778.113 1599.81 773.676C1600.49 769.202 1601.08 764.857 1601.58 760.696C1602.57 752.356 1603.21 744.678 1603.62 737.866C1603.95 731.036 1603.77 725.015 1603.66 720.1C1603.4 710.158 1602.77 704.505 1602.77 704.505Z" fill="#6FCF97"/>
<path d="M1435.97 989.066C1430.37 990.926 1424.39 993.062 1418.22 995.547C1411.94 997.959 1405.28 1000.59 1398.63 1003.68C1395.3 1005.21 1391.95 1006.85 1388.61 1008.58C1386.96 1009.47 1385.28 1010.37 1383.59 1011.27C1381.86 1012.15 1380.13 1013.06 1378.4 1013.98C1371.49 1017.7 1364.66 1021.88 1358.01 1026.63C1351.29 1031.3 1344.74 1036.01 1338.81 1041.11C1335.81 1043.62 1333.01 1046.27 1330.16 1048.79C1327.29 1051.3 1324.51 1053.82 1321.86 1056.38C1319.2 1058.94 1316.65 1061.5 1314.2 1064.07C1311.73 1066.63 1309.46 1069.27 1307.07 1071.68C1302.39 1076.57 1298.14 1081.4 1294.31 1086.02C1292.43 1088.36 1290.61 1090.6 1288.88 1092.74C1287.11 1094.82 1285.44 1096.83 1283.89 1098.74C1280.8 1102.57 1278.18 1106.03 1276.05 1108.94C1273.93 1111.85 1272.29 1114.23 1271.21 1115.85C1270.1 1117.47 1269.51 1118.35 1269.51 1118.35C1269.51 1118.35 1270.51 1118.59 1272.29 1118.88C1274.08 1119.18 1276.71 1119.55 1280.08 1119.9C1286.82 1120.6 1296.52 1121.15 1308.38 1120.58C1314.38 1120.37 1320.57 1119.47 1327.34 1118.35C1334.08 1117.19 1341.22 1115.61 1348.66 1113.49C1355.99 1111.26 1363.43 1108.35 1371.07 1104.87C1374.88 1103.12 1378.73 1101.23 1382.59 1099.17C1386.39 1097.03 1390.09 1094.65 1393.82 1092.13C1397.54 1089.61 1401.17 1086.96 1404.69 1084.22C1408.19 1081.45 1411.68 1078.71 1414.78 1075.67C1421.09 1069.67 1426.96 1063.45 1432.36 1057.17C1435.1 1054.08 1437.55 1050.84 1439.87 1047.61C1442.21 1044.39 1444.42 1041.21 1446.52 1038.06C1448.62 1034.91 1450.6 1031.82 1452.46 1028.78C1453.38 1027.25 1454.29 1025.76 1455.17 1024.29C1455.98 1022.76 1456.77 1021.27 1457.55 1019.81C1463.62 1008.03 1468.06 997.885 1470.73 990.576C1473.27 983.175 1474.41 978.812 1474.41 978.812C1474.41 978.812 1470.4 979.493 1463.64 981.187C1457.01 982.899 1447.16 985.347 1435.97 989.066Z" fill="#6FCF97"/>
<path d="M1350.17 337.391C1354.52 340.742 1359.1 343.927 1363.5 347.112C1372.08 353.574 1381.1 359.539 1389.76 365.21C1398.17 370.973 1406.58 376.312 1414.61 381.191C1422.53 386.107 1429.75 390.673 1436.52 394.631C1443.19 398.608 1449.44 401.995 1454.31 404.849C1464.16 410.538 1470.27 413.558 1470.27 413.558C1470.27 413.558 1470.56 411.845 1470.97 408.623C1471.15 407.003 1471.37 405.033 1471.65 402.714C1471.91 400.375 1472.16 397.687 1472.22 394.742C1472.42 388.795 1472.53 381.559 1472.35 373.256C1472.29 371.175 1472.27 369.021 1472.13 366.83C1471.93 364.639 1471.72 362.412 1471.52 360.11C1471.08 355.507 1470.53 350.665 1469.84 345.621C1469.49 343.098 1469.13 340.521 1468.76 337.906C1468.22 335.329 1467.67 332.696 1467.12 330.026C1465.96 324.687 1464.65 319.201 1463.2 313.567C1461.85 307.896 1459.76 302.336 1457.77 296.573C1455.67 290.866 1453.57 284.993 1450.97 279.23C1448.29 273.504 1445.39 267.742 1442.32 261.997C1440.74 259.144 1439.26 256.216 1437.48 253.436C1435.69 250.656 1433.87 247.876 1431.99 245.114C1428.18 239.628 1424.39 234.086 1419.99 228.876C1415.55 223.702 1410.89 218.658 1406.05 213.797C1401.34 208.863 1395.91 204.61 1390.73 200.467C1388.12 198.424 1385.48 196.435 1382.87 194.539C1380.26 192.624 1377.62 190.802 1374.82 189.163C1369.32 185.812 1363.83 182.756 1358.4 179.957C1355.66 178.577 1353.04 177.177 1350.23 176.017C1347.43 174.839 1344.67 173.734 1341.91 172.667C1336.4 170.568 1331.01 168.708 1325.72 167.088C1320.48 165.431 1314.99 164.345 1309.87 163.259C1299.52 161.197 1289.93 159.816 1280.67 159.503C1271.52 159.079 1263.29 159.171 1255.98 159.613C1248.51 160.258 1242.08 161.141 1236.83 162.043C1226.32 163.848 1220.39 165.634 1220.39 165.634C1220.39 165.634 1222.47 171.12 1226.73 179.626C1227.78 181.762 1228.99 184.045 1230.3 186.53C1231.51 189.126 1232.86 191.888 1234.35 194.76C1235.84 197.632 1237.44 200.633 1239.19 203.708C1239.63 204.481 1240.07 205.254 1240.53 206.046C1240.96 206.875 1241.38 207.703 1241.8 208.531C1242.69 210.188 1243.59 211.864 1244.51 213.576C1246.39 216.982 1248.41 220.425 1250.59 223.905C1252.69 227.476 1254.75 231.251 1257.07 234.933C1258.23 236.793 1259.42 238.634 1260.66 240.493C1261.28 241.414 1261.91 242.334 1262.55 243.273C1263.14 244.249 1263.75 245.206 1264.36 246.182C1266.81 250.067 1269.42 253.933 1272.26 257.763C1275.2 261.5 1277.78 265.661 1280.84 269.546C1282.35 271.516 1283.89 273.467 1285.51 275.401L1287.98 278.291L1290.35 281.311C1293.58 285.324 1297.04 289.264 1300.76 293.131C1302.67 295.027 1304.46 297.052 1306.3 299.041C1308.16 301.029 1310.09 302.999 1312.1 304.932C1320.36 312.573 1328.28 320.176 1337.16 327.044C1339.4 328.738 1341.48 330.524 1343.62 332.254C1345.81 334.022 1347.98 335.715 1350.17 337.391Z" fill="#6FCF97"/>
<path d="M1463.66 702.018C1465.34 704.191 1466.24 705.369 1466.24 705.369C1466.24 705.369 1467.18 704.117 1468.58 701.687C1470.02 699.256 1472.06 695.666 1474.51 691.008C1476.96 686.369 1479.81 680.661 1482.83 674.015C1485.54 667.313 1488.41 659.654 1491.21 651.185C1494.21 642.753 1496.23 633.382 1498.3 623.421C1498.77 620.917 1499.25 618.395 1499.73 615.836C1500.21 613.277 1500.63 610.662 1500.87 608.011C1501.44 602.709 1501.92 597.296 1502.25 591.754C1502.42 588.992 1502.55 586.194 1502.66 583.395C1502.7 581.996 1502.73 580.578 1502.77 579.161C1502.73 577.743 1502.68 576.326 1502.64 574.889C1502.42 569.182 1502.03 563.401 1501.46 557.583C1501.19 554.674 1500.86 551.765 1500.47 548.838C1500.06 545.91 1499.42 543.001 1498.83 540.074C1497.6 534.238 1496.16 528.383 1494.48 522.602C1492.94 516.802 1490.66 511.205 1488.41 505.811C1486.13 500.416 1483.7 495.206 1481.14 490.198C1475.83 480.219 1469.59 471.124 1463.43 462.858C1450.39 446.435 1436.56 433.511 1423.16 423.974C1416.53 419.187 1410.44 415.118 1404.66 411.822C1398.8 408.545 1393.59 405.931 1389.25 403.905C1380.54 399.873 1375.25 398.106 1375.25 398.106C1375.25 398.106 1374.32 403.464 1373.58 412.393C1373.4 414.621 1373.23 417.088 1373.1 419.739C1372.88 422.409 1372.66 425.299 1372.42 428.355C1371.94 434.486 1371.89 441.243 1371.72 448.589C1371.41 455.972 1371.46 463.852 1371.89 472.082C1371.89 480.404 1372.51 489.057 1373.51 498.005C1373.84 502.497 1374.32 507.063 1375 511.666C1375.6 516.287 1376.69 520.945 1377.35 525.695C1378.15 530.445 1379.14 535.232 1380.37 540.074C1380.98 542.486 1381.66 544.935 1382.38 547.365C1382.97 549.813 1383.61 552.281 1384.33 554.748C1387.13 564.634 1391.09 574.245 1394.66 583.58C1398.4 592.914 1403.07 602.009 1407.16 610.754C1409.32 615.118 1411.56 619.426 1413.86 623.624C1416.11 627.821 1418.65 631.964 1420.75 635.941C1425.15 643.913 1429.7 651.498 1434.13 658.513C1438.7 665.546 1442.64 671.953 1446.43 677.66C1450.21 683.368 1453.69 688.376 1456.63 692.481C1459.52 696.587 1461.97 699.827 1463.66 702.018Z" fill="#6FCF97"/>
<path d="M1357.13 826.391C1357.26 830.441 1357.5 834.455 1357.83 838.432C1358.17 842.408 1358.59 846.348 1359.09 850.215C1359.58 854.099 1359.91 857.782 1360.45 861.464C1361.44 868.791 1362.66 875.825 1363.97 882.397C1365.36 889.025 1366.4 894.898 1367.65 900.293C1368.84 905.651 1370.02 910.382 1371.07 914.304C1373.15 922.147 1374.72 926.731 1374.72 926.731C1374.72 926.731 1378.62 923.841 1384.92 918.244C1388.07 915.445 1391.8 911.984 1395.96 907.86C1399.98 903.662 1404.21 898.71 1408.7 893.168C1410.95 890.406 1413.23 887.479 1415.53 884.404C1417.78 881.311 1419.88 877.96 1422.05 874.536C1424.21 871.093 1426.34 867.503 1428.44 863.802C1430.54 860.101 1432.64 856.272 1434.37 852.185C1437.96 844.084 1441.38 835.578 1444.11 826.63C1446.56 817.572 1448.49 808.164 1449.71 798.572C1450.64 788.887 1450.59 779.387 1450.06 770.366C1449.91 768.101 1449.74 765.873 1449.52 763.682C1449.21 761.455 1448.88 759.245 1448.51 757.073C1447.77 752.728 1446.91 748.493 1445.93 744.406C1442.34 728.112 1435.88 713.641 1429.88 702.005C1428.35 699.096 1426.84 696.335 1425.33 693.757C1423.73 691.143 1422.16 688.712 1420.63 686.448C1417.6 681.937 1414.78 678.108 1412.37 675.033C1407.56 668.865 1404.38 665.606 1404.38 665.606C1404.38 665.606 1401.8 669.326 1398.08 675.898C1396.18 679.175 1394.16 683.189 1391.73 687.737C1389.23 692.266 1386.57 697.366 1383.98 702.999C1373.32 725.516 1362.11 755.029 1358.24 788.85C1357.26 797.32 1356.71 805.678 1356.84 814.037C1356.86 816.117 1356.93 818.216 1357.01 820.278C1357.04 822.34 1357.08 824.365 1357.13 826.391Z" fill="#6FCF97"/>
<path d="M1333.95 888.302C1333.95 888.302 1330.97 890.401 1326.29 894.322C1321.49 898.17 1314.71 903.62 1307.59 910.745C1306.7 911.647 1305.8 912.549 1304.88 913.488C1303.94 914.39 1302.97 915.311 1301.99 916.25C1300.06 918.146 1298.11 920.135 1296.16 922.215C1294.2 924.296 1292.27 926.486 1290.36 928.769C1288.46 931.071 1286.56 933.446 1284.54 935.784C1280.58 940.534 1276.79 945.689 1273.29 951.286C1271.59 954.14 1269.7 956.828 1267.99 959.755C1266.26 962.646 1264.62 965.665 1263.09 968.795C1261.54 971.907 1260.16 975.129 1258.84 978.295C1257.44 981.388 1256.15 984.5 1254.99 987.648C1252.63 993.908 1250.77 1000.35 1249.1 1006.59C1247.33 1012.71 1245.89 1018.78 1244.71 1024.67C1243.5 1030.51 1242.73 1036.4 1241.81 1041.54C1240.11 1051.96 1239.26 1061.09 1238.82 1067.61C1238.6 1070.87 1238.51 1073.46 1238.45 1075.25C1238.4 1077.02 1238.38 1077.95 1238.38 1077.95C1238.38 1077.95 1239.36 1077.72 1241.03 1077.05C1242.73 1076.43 1245.19 1075.45 1248.29 1074.14C1251.38 1072.82 1255.08 1071.14 1259.26 1069.08C1261.36 1068.05 1263.55 1066.91 1265.87 1065.69C1268.13 1064.4 1270.42 1062.95 1272.81 1061.42C1277.6 1058.35 1282.66 1054.87 1287.83 1050.95C1290.47 1049.03 1292.93 1046.78 1295.46 1044.52C1297.98 1042.24 1300.48 1039.83 1302.99 1037.32C1305.49 1034.82 1307.96 1032.2 1310.39 1029.5C1312.78 1026.75 1314.99 1023.75 1317.2 1020.73C1321.54 1014.62 1325.78 1008.29 1329.2 1001.29C1332.55 994.239 1335.26 987.17 1337.4 980.247C1337.93 978.516 1338.43 976.786 1338.89 975.073C1339.31 973.324 1339.66 971.557 1340.01 969.826C1340.69 966.346 1341.24 962.94 1341.69 959.59C1342.55 952.87 1343.07 946.499 1343.09 940.405C1343.01 934.219 1342.61 928.438 1342.02 923.154C1340.82 912.549 1339.02 904.006 1337.1 897.839C1335.35 891.726 1333.95 888.302 1333.95 888.302Z" fill="#6FCF97"/>
<path d="M1127.64 1155.67C1145.06 1150.83 1167.7 1141.28 1184.94 1123.2C1189.23 1118.69 1193.19 1114.23 1196.41 1109.33C1199.65 1104.44 1202.43 1099.5 1204.82 1094.66C1209.68 1085.12 1212.52 1075.35 1214.36 1067.01C1216.18 1058.63 1217.03 1051.65 1217.27 1046.55C1217.49 1041.43 1217.32 1038.45 1217.32 1038.45C1217.32 1038.45 1216.62 1038.67 1215.33 1039.11C1214.06 1039.57 1212.22 1040.25 1209.88 1041.1C1205.15 1042.74 1198.6 1045.26 1191.27 1048.89C1189.43 1049.77 1187.59 1050.82 1185.6 1051.78C1183.63 1052.74 1181.61 1053.75 1179.56 1054.85C1175.49 1057.04 1171.33 1059.55 1167.19 1062.38C1165.15 1063.86 1163.01 1065.22 1160.87 1066.69C1158.76 1068.17 1156.64 1069.75 1154.58 1071.41C1152.5 1073.08 1150.45 1074.85 1148.43 1076.73C1146.46 1078.64 1144.45 1080.57 1142.43 1082.53C1126.68 1098.49 1115.93 1117.67 1108.49 1133.19C1104.76 1140.8 1101.98 1147.59 1100.15 1152.49C1098.33 1157.37 1097.45 1160.35 1097.45 1160.35C1097.45 1160.35 1100.56 1160.28 1105.9 1159.69C1108.57 1159.39 1111.79 1158.97 1115.47 1158.34C1119.14 1157.68 1123.32 1157.02 1127.64 1155.67Z" fill="#6FCF97"/>
</svg>
