<svg width="74" height="127" viewBox="0 0 74 127" fill="none" xmlns="http://www.w3.org/2000/svg">
<path d="M12.4941 6.47545C12.4941 3.68694 18.8275 1.99391 21.9941 1.49596H48.9941C52.9941 1.49596 57.9941 1.99391 61.9941 4.48366C65.9941 6.9734 65.4941 10.957 65.4941 12.4508C65.4941 13.9447 72.9941 17.9283 72.9941 20.418C72.9941 22.9078 68.4941 23.9037 68.4941 26.8914C68.4941 29.8791 69.9941 72.2047 69.9941 74.6945C69.9941 77.1842 70.9941 77.1842 71.4941 79.6739C71.9941 82.1637 72.9941 96.6042 68.9941 98.596C64.5941 100.189 48.8275 100.588 41.4941 100.588C41.3275 107.891 40.9941 122.896 40.9941 124.489C40.9941 126.481 33.4941 124.987 33.4941 124.489V100.588H7.99414C5.49414 100.588 1.99414 100.09 1.99414 98.0981V85.6493C1.99414 80.6698 2.99414 78.678 4.99414 75.1924C4.49414 71.2088 8.99414 26.3934 8.99414 24.4016C8.99414 22.4098 4.49414 21.9119 4.49414 18.4262C4.49414 15.6377 9.82747 12.9488 12.4941 11.9529V6.47545Z" stroke="#4C8DEE" stroke-opacity="0.87" stroke-width="2" stroke-dasharray="4 4"/>
</svg>
