<svg width="16" height="50" viewBox="0 0 16 50" fill="none" xmlns="http://www.w3.org/2000/svg">
<path opacity="0.8" d="M10.944 47.484V43.86H12V48.6H3.6V47.484H10.944ZM10.944 37.5446L10.944 33.6446H12L12 38.6606H3.6L3.6 33.7046H4.656V37.5446H7.236V34.0046H8.28L8.28 37.5446H10.944ZM12 26.0213L3.6 29.0213V27.8213L10.608 25.3853L3.6 22.9613V21.7493L12 24.7613V26.0213ZM10.944 15.5682V11.6682H12V16.6842H3.6V11.7282H4.656L4.656 15.5682H7.236L7.236 12.0282H8.28V15.5682H10.944ZM10.944 5.12494V1.50094H12L12 6.24094H3.6V5.12494H10.944Z" fill="white"/>
</svg>
