<svg width="1920" height="1080" viewBox="0 0 1920 1080" fill="none" xmlns="http://www.w3.org/2000/svg">
<g clip-path="url(#clip0)">
<g opacity="0.05">
<path d="M70.9637 -43.1904H2.51538V25.2112H70.9637V-43.1904Z" stroke="white" stroke-width="0.5" stroke-miterlimit="10"/>
<path d="M70.9637 25.2109H2.51538V93.6125H70.9637V25.2109Z" stroke="white" stroke-width="0.5" stroke-miterlimit="10"/>
<path d="M70.9637 93.3662H2.51538V161.768H70.9637V93.3662Z" stroke="white" stroke-width="0.5" stroke-miterlimit="10"/>
<path d="M70.9637 161.768H2.51538V230.169H70.9637V161.768Z" stroke="white" stroke-width="0.5" stroke-miterlimit="10"/>
<path d="M70.9637 230.17H2.51538V298.572H70.9637V230.17Z" stroke="white" stroke-width="0.5" stroke-miterlimit="10"/>
<path d="M70.9637 298.571H2.51538V366.973H70.9637V298.571Z" stroke="white" stroke-width="0.5" stroke-miterlimit="10"/>
<path d="M70.9637 366.727H2.51538V435.128H70.9637V366.727Z" stroke="white" stroke-width="0.5" stroke-miterlimit="10"/>
<path d="M70.9637 435.128H2.51538V503.53H70.9637V435.128Z" stroke="white" stroke-width="0.5" stroke-miterlimit="10"/>
<path d="M70.9637 503.529H2.51538V571.931H70.9637V503.529Z" stroke="white" stroke-width="0.5" stroke-miterlimit="10"/>
<path d="M70.9637 571.932H2.51538V640.333H70.9637V571.932Z" stroke="white" stroke-width="0.5" stroke-miterlimit="10"/>
<path d="M70.9637 640.333H2.51538V708.734H70.9637V640.333Z" stroke="white" stroke-width="0.5" stroke-miterlimit="10"/>
<path d="M70.9637 708.488H2.51538V776.89H70.9637V708.488Z" stroke="white" stroke-width="0.5" stroke-miterlimit="10"/>
<path d="M70.9637 776.891H2.51538V845.292H70.9637V776.891Z" stroke="white" stroke-width="0.5" stroke-miterlimit="10"/>
<path d="M70.9637 845.292H2.51538V913.694H70.9637V845.292Z" stroke="white" stroke-width="0.5" stroke-miterlimit="10"/>
<path d="M70.9637 913.693H2.51538V982.095H70.9637V913.693Z" stroke="white" stroke-width="0.5" stroke-miterlimit="10"/>
<path d="M70.9637 981.849H2.51538V1050.25H70.9637V981.849Z" stroke="white" stroke-width="0.5" stroke-miterlimit="10"/>
<path d="M70.9637 1050.25H2.51538V1118.65H70.9637V1050.25Z" stroke="white" stroke-width="0.5" stroke-miterlimit="10"/>
<path d="M139.412 -43.1904H70.9636V25.2112H139.412V-43.1904Z" stroke="white" stroke-width="0.5" stroke-miterlimit="10"/>
<path d="M139.412 25.2109H70.9636V93.6125H139.412V25.2109Z" stroke="white" stroke-width="0.5" stroke-miterlimit="10"/>
<path d="M139.412 93.3662H70.9636V161.768H139.412V93.3662Z" stroke="white" stroke-width="0.5" stroke-miterlimit="10"/>
<path d="M139.412 161.768H70.9636V230.169H139.412V161.768Z" stroke="white" stroke-width="0.5" stroke-miterlimit="10"/>
<path d="M139.412 230.17H70.9636V298.572H139.412V230.17Z" stroke="white" stroke-width="0.5" stroke-miterlimit="10"/>
<path d="M139.412 298.571H70.9636V366.973H139.412V298.571Z" stroke="white" stroke-width="0.5" stroke-miterlimit="10"/>
<path d="M139.412 366.727H70.9636V435.128H139.412V366.727Z" stroke="white" stroke-width="0.5" stroke-miterlimit="10"/>
<path d="M139.412 435.128H70.9636V503.53H139.412V435.128Z" stroke="white" stroke-width="0.5" stroke-miterlimit="10"/>
<path d="M139.412 503.529H70.9636V571.931H139.412V503.529Z" stroke="white" stroke-width="0.5" stroke-miterlimit="10"/>
<path d="M139.412 571.932H70.9636V640.333H139.412V571.932Z" stroke="white" stroke-width="0.5" stroke-miterlimit="10"/>
<path d="M139.412 640.333H70.9636V708.734H139.412V640.333Z" stroke="white" stroke-width="0.5" stroke-miterlimit="10"/>
<path d="M139.412 708.488H70.9636V776.89H139.412V708.488Z" stroke="white" stroke-width="0.5" stroke-miterlimit="10"/>
<path d="M139.412 776.891H70.9636V845.292H139.412V776.891Z" stroke="white" stroke-width="0.5" stroke-miterlimit="10"/>
<path d="M139.412 845.292H70.9636V913.694H139.412V845.292Z" stroke="white" stroke-width="0.5" stroke-miterlimit="10"/>
<path d="M139.412 913.693H70.9636V982.095H139.412V913.693Z" stroke="white" stroke-width="0.5" stroke-miterlimit="10"/>
<path d="M139.412 981.849H70.9636V1050.25H139.412V981.849Z" stroke="white" stroke-width="0.5" stroke-miterlimit="10"/>
<path d="M139.412 1050.25H70.9636V1118.65H139.412V1050.25Z" stroke="white" stroke-width="0.5" stroke-miterlimit="10"/>
<path d="M207.86 -43.1904H139.412V25.2112H207.86V-43.1904Z" stroke="white" stroke-width="0.5" stroke-miterlimit="10"/>
<path d="M207.86 25.2109H139.412V93.6125H207.86V25.2109Z" stroke="white" stroke-width="0.5" stroke-miterlimit="10"/>
<path d="M207.86 93.3662H139.412V161.768H207.86V93.3662Z" stroke="white" stroke-width="0.5" stroke-miterlimit="10"/>
<path d="M207.86 161.768H139.412V230.169H207.86V161.768Z" stroke="white" stroke-width="0.5" stroke-miterlimit="10"/>
<path d="M207.86 230.17H139.412V298.572H207.86V230.17Z" stroke="white" stroke-width="0.5" stroke-miterlimit="10"/>
<path d="M207.86 298.571H139.412V366.973H207.86V298.571Z" stroke="white" stroke-width="0.5" stroke-miterlimit="10"/>
<path d="M207.86 366.727H139.412V435.128H207.86V366.727Z" stroke="white" stroke-width="0.5" stroke-miterlimit="10"/>
<path d="M207.86 435.128H139.412V503.53H207.86V435.128Z" stroke="white" stroke-width="0.5" stroke-miterlimit="10"/>
<path d="M207.86 503.529H139.412V571.931H207.86V503.529Z" stroke="white" stroke-width="0.5" stroke-miterlimit="10"/>
<path d="M207.86 571.932H139.412V640.333H207.86V571.932Z" stroke="white" stroke-width="0.5" stroke-miterlimit="10"/>
<path d="M207.86 640.333H139.412V708.734H207.86V640.333Z" stroke="white" stroke-width="0.5" stroke-miterlimit="10"/>
<path d="M207.86 708.488H139.412V776.89H207.86V708.488Z" stroke="white" stroke-width="0.5" stroke-miterlimit="10"/>
<path d="M207.86 776.891H139.412V845.292H207.86V776.891Z" stroke="white" stroke-width="0.5" stroke-miterlimit="10"/>
<path d="M207.86 845.292H139.412V913.694H207.86V845.292Z" stroke="white" stroke-width="0.5" stroke-miterlimit="10"/>
<path d="M207.86 913.693H139.412V982.095H207.86V913.693Z" stroke="white" stroke-width="0.5" stroke-miterlimit="10"/>
<path d="M207.86 981.849H139.412V1050.25H207.86V981.849Z" stroke="white" stroke-width="0.5" stroke-miterlimit="10"/>
<path d="M207.86 1050.25H139.412V1118.65H207.86V1050.25Z" stroke="white" stroke-width="0.5" stroke-miterlimit="10"/>
<path d="M276.063 -43.1904H207.614V25.2112H276.063V-43.1904Z" stroke="white" stroke-width="0.5" stroke-miterlimit="10"/>
<path d="M276.063 25.2109H207.614V93.6125H276.063V25.2109Z" stroke="white" stroke-width="0.5" stroke-miterlimit="10"/>
<path d="M276.063 93.3662H207.614V161.768H276.063V93.3662Z" stroke="white" stroke-width="0.5" stroke-miterlimit="10"/>
<path d="M276.063 161.768H207.614V230.169H276.063V161.768Z" stroke="white" stroke-width="0.5" stroke-miterlimit="10"/>
<path d="M276.063 230.17H207.614V298.572H276.063V230.17Z" stroke="white" stroke-width="0.5" stroke-miterlimit="10"/>
<path d="M276.063 298.571H207.614V366.973H276.063V298.571Z" stroke="white" stroke-width="0.5" stroke-miterlimit="10"/>
<path d="M276.063 366.727H207.614V435.128H276.063V366.727Z" stroke="white" stroke-width="0.5" stroke-miterlimit="10"/>
<path d="M276.063 435.128H207.614V503.53H276.063V435.128Z" stroke="white" stroke-width="0.5" stroke-miterlimit="10"/>
<path d="M276.063 503.529H207.614V571.931H276.063V503.529Z" stroke="white" stroke-width="0.5" stroke-miterlimit="10"/>
<path d="M276.063 571.932H207.614V640.333H276.063V571.932Z" stroke="white" stroke-width="0.5" stroke-miterlimit="10"/>
<path d="M276.063 640.333H207.614V708.734H276.063V640.333Z" stroke="white" stroke-width="0.5" stroke-miterlimit="10"/>
<path d="M276.063 708.488H207.614V776.89H276.063V708.488Z" stroke="white" stroke-width="0.5" stroke-miterlimit="10"/>
<path d="M276.063 776.891H207.614V845.292H276.063V776.891Z" stroke="white" stroke-width="0.5" stroke-miterlimit="10"/>
<path d="M276.063 845.292H207.614V913.694H276.063V845.292Z" stroke="white" stroke-width="0.5" stroke-miterlimit="10"/>
<path d="M276.063 913.693H207.614V982.095H276.063V913.693Z" stroke="white" stroke-width="0.5" stroke-miterlimit="10"/>
<path d="M276.063 981.849H207.614V1050.25H276.063V981.849Z" stroke="white" stroke-width="0.5" stroke-miterlimit="10"/>
<path d="M276.063 1050.25H207.614V1118.65H276.063V1050.25Z" stroke="white" stroke-width="0.5" stroke-miterlimit="10"/>
<path d="M344.511 -43.1904H276.062V25.2112H344.511V-43.1904Z" stroke="white" stroke-width="0.5" stroke-miterlimit="10"/>
<path d="M344.511 25.2109H276.062V93.6125H344.511V25.2109Z" stroke="white" stroke-width="0.5" stroke-miterlimit="10"/>
<path d="M344.511 93.3662H276.062V161.768H344.511V93.3662Z" stroke="white" stroke-width="0.5" stroke-miterlimit="10"/>
<path d="M344.511 161.768H276.062V230.169H344.511V161.768Z" stroke="white" stroke-width="0.5" stroke-miterlimit="10"/>
<path d="M344.511 230.17H276.062V298.572H344.511V230.17Z" stroke="white" stroke-width="0.5" stroke-miterlimit="10"/>
<path d="M344.511 298.571H276.062V366.973H344.511V298.571Z" stroke="white" stroke-width="0.5" stroke-miterlimit="10"/>
<path d="M344.511 366.727H276.062V435.128H344.511V366.727Z" stroke="white" stroke-width="0.5" stroke-miterlimit="10"/>
<path d="M344.511 435.128H276.062V503.53H344.511V435.128Z" stroke="white" stroke-width="0.5" stroke-miterlimit="10"/>
<path d="M344.511 503.529H276.062V571.931H344.511V503.529Z" stroke="white" stroke-width="0.5" stroke-miterlimit="10"/>
<path d="M344.511 571.932H276.062V640.333H344.511V571.932Z" stroke="white" stroke-width="0.5" stroke-miterlimit="10"/>
<path d="M344.511 640.333H276.062V708.734H344.511V640.333Z" stroke="white" stroke-width="0.5" stroke-miterlimit="10"/>
<path d="M344.511 708.488H276.062V776.89H344.511V708.488Z" stroke="white" stroke-width="0.5" stroke-miterlimit="10"/>
<path d="M344.511 776.891H276.062V845.292H344.511V776.891Z" stroke="white" stroke-width="0.5" stroke-miterlimit="10"/>
<path d="M344.511 845.292H276.062V913.694H344.511V845.292Z" stroke="white" stroke-width="0.5" stroke-miterlimit="10"/>
<path d="M344.511 913.693H276.062V982.095H344.511V913.693Z" stroke="white" stroke-width="0.5" stroke-miterlimit="10"/>
<path d="M344.511 981.849H276.062V1050.25H344.511V981.849Z" stroke="white" stroke-width="0.5" stroke-miterlimit="10"/>
<path d="M344.511 1050.25H276.062V1118.65H344.511V1050.25Z" stroke="white" stroke-width="0.5" stroke-miterlimit="10"/>
<path d="M412.959 -43.1904H344.511V25.2112H412.959V-43.1904Z" stroke="white" stroke-width="0.5" stroke-miterlimit="10"/>
<path d="M412.959 25.2109H344.511V93.6125H412.959V25.2109Z" stroke="white" stroke-width="0.5" stroke-miterlimit="10"/>
<path d="M412.959 93.3662H344.511V161.768H412.959V93.3662Z" stroke="white" stroke-width="0.5" stroke-miterlimit="10"/>
<path d="M412.959 161.768H344.511V230.169H412.959V161.768Z" stroke="white" stroke-width="0.5" stroke-miterlimit="10"/>
<path d="M412.959 230.17H344.511V298.572H412.959V230.17Z" stroke="white" stroke-width="0.5" stroke-miterlimit="10"/>
<path d="M412.959 298.571H344.511V366.973H412.959V298.571Z" stroke="white" stroke-width="0.5" stroke-miterlimit="10"/>
<path d="M412.959 366.727H344.511V435.128H412.959V366.727Z" stroke="white" stroke-width="0.5" stroke-miterlimit="10"/>
<path d="M412.959 435.128H344.511V503.53H412.959V435.128Z" stroke="white" stroke-width="0.5" stroke-miterlimit="10"/>
<path d="M412.959 503.529H344.511V571.931H412.959V503.529Z" stroke="white" stroke-width="0.5" stroke-miterlimit="10"/>
<path d="M412.959 571.932H344.511V640.333H412.959V571.932Z" stroke="white" stroke-width="0.5" stroke-miterlimit="10"/>
<path d="M412.959 640.333H344.511V708.734H412.959V640.333Z" stroke="white" stroke-width="0.5" stroke-miterlimit="10"/>
<path d="M412.959 708.488H344.511V776.89H412.959V708.488Z" stroke="white" stroke-width="0.5" stroke-miterlimit="10"/>
<path d="M412.959 776.891H344.511V845.292H412.959V776.891Z" stroke="white" stroke-width="0.5" stroke-miterlimit="10"/>
<path d="M412.959 845.292H344.511V913.694H412.959V845.292Z" stroke="white" stroke-width="0.5" stroke-miterlimit="10"/>
<path d="M412.959 913.693H344.511V982.095H412.959V913.693Z" stroke="white" stroke-width="0.5" stroke-miterlimit="10"/>
<path d="M412.959 981.849H344.511V1050.25H412.959V981.849Z" stroke="white" stroke-width="0.5" stroke-miterlimit="10"/>
<path d="M412.959 1050.25H344.511V1118.65H412.959V1050.25Z" stroke="white" stroke-width="0.5" stroke-miterlimit="10"/>
<path d="M481.407 -43.1904H412.959V25.2112H481.407V-43.1904Z" stroke="white" stroke-width="0.5" stroke-miterlimit="10"/>
<path d="M481.407 25.2109H412.959V93.6125H481.407V25.2109Z" stroke="white" stroke-width="0.5" stroke-miterlimit="10"/>
<path d="M481.407 93.3662H412.959V161.768H481.407V93.3662Z" stroke="white" stroke-width="0.5" stroke-miterlimit="10"/>
<path d="M481.407 161.768H412.959V230.169H481.407V161.768Z" stroke="white" stroke-width="0.5" stroke-miterlimit="10"/>
<path d="M481.407 230.17H412.959V298.572H481.407V230.17Z" stroke="white" stroke-width="0.5" stroke-miterlimit="10"/>
<path d="M481.407 298.571H412.959V366.973H481.407V298.571Z" stroke="white" stroke-width="0.5" stroke-miterlimit="10"/>
<path d="M481.407 366.727H412.959V435.128H481.407V366.727Z" stroke="white" stroke-width="0.5" stroke-miterlimit="10"/>
<path d="M481.407 435.128H412.959V503.53H481.407V435.128Z" stroke="white" stroke-width="0.5" stroke-miterlimit="10"/>
<path d="M481.407 503.529H412.959V571.931H481.407V503.529Z" stroke="white" stroke-width="0.5" stroke-miterlimit="10"/>
<path d="M481.407 571.932H412.959V640.333H481.407V571.932Z" stroke="white" stroke-width="0.5" stroke-miterlimit="10"/>
<path d="M481.407 640.333H412.959V708.734H481.407V640.333Z" stroke="white" stroke-width="0.5" stroke-miterlimit="10"/>
<path d="M481.407 708.488H412.959V776.89H481.407V708.488Z" stroke="white" stroke-width="0.5" stroke-miterlimit="10"/>
<path d="M481.407 776.891H412.959V845.292H481.407V776.891Z" stroke="white" stroke-width="0.5" stroke-miterlimit="10"/>
<path d="M481.407 845.292H412.959V913.694H481.407V845.292Z" stroke="white" stroke-width="0.5" stroke-miterlimit="10"/>
<path d="M481.407 913.693H412.959V982.095H481.407V913.693Z" stroke="white" stroke-width="0.5" stroke-miterlimit="10"/>
<path d="M481.407 981.849H412.959V1050.25H481.407V981.849Z" stroke="white" stroke-width="0.5" stroke-miterlimit="10"/>
<path d="M481.407 1050.25H412.959V1118.65H481.407V1050.25Z" stroke="white" stroke-width="0.5" stroke-miterlimit="10"/>
<path d="M549.609 -43.1904H481.161V25.2112H549.609V-43.1904Z" stroke="white" stroke-width="0.5" stroke-miterlimit="10"/>
<path d="M549.609 25.2109H481.161V93.6125H549.609V25.2109Z" stroke="white" stroke-width="0.5" stroke-miterlimit="10"/>
<path d="M549.609 93.3662H481.161V161.768H549.609V93.3662Z" stroke="white" stroke-width="0.5" stroke-miterlimit="10"/>
<path d="M549.609 161.768H481.161V230.169H549.609V161.768Z" stroke="white" stroke-width="0.5" stroke-miterlimit="10"/>
<path d="M549.609 230.17H481.161V298.572H549.609V230.17Z" stroke="white" stroke-width="0.5" stroke-miterlimit="10"/>
<path d="M549.609 298.571H481.161V366.973H549.609V298.571Z" stroke="white" stroke-width="0.5" stroke-miterlimit="10"/>
<path d="M549.609 366.727H481.161V435.128H549.609V366.727Z" stroke="white" stroke-width="0.5" stroke-miterlimit="10"/>
<path d="M549.609 435.128H481.161V503.53H549.609V435.128Z" stroke="white" stroke-width="0.5" stroke-miterlimit="10"/>
<path d="M549.609 503.529H481.161V571.931H549.609V503.529Z" stroke="white" stroke-width="0.5" stroke-miterlimit="10"/>
<path d="M549.609 571.932H481.161V640.333H549.609V571.932Z" stroke="white" stroke-width="0.5" stroke-miterlimit="10"/>
<path d="M549.609 640.333H481.161V708.734H549.609V640.333Z" stroke="white" stroke-width="0.5" stroke-miterlimit="10"/>
<path d="M549.609 708.488H481.161V776.89H549.609V708.488Z" stroke="white" stroke-width="0.5" stroke-miterlimit="10"/>
<path d="M549.609 776.891H481.161V845.292H549.609V776.891Z" stroke="white" stroke-width="0.5" stroke-miterlimit="10"/>
<path d="M549.609 845.292H481.161V913.694H549.609V845.292Z" stroke="white" stroke-width="0.5" stroke-miterlimit="10"/>
<path d="M549.609 913.693H481.161V982.095H549.609V913.693Z" stroke="white" stroke-width="0.5" stroke-miterlimit="10"/>
<path d="M549.609 981.849H481.161V1050.25H549.609V981.849Z" stroke="white" stroke-width="0.5" stroke-miterlimit="10"/>
<path d="M549.609 1050.25H481.161V1118.65H549.609V1050.25Z" stroke="white" stroke-width="0.5" stroke-miterlimit="10"/>
<path d="M618.058 -43.1904H549.609V25.2112H618.058V-43.1904Z" stroke="white" stroke-width="0.5" stroke-miterlimit="10"/>
<path d="M618.058 25.2109H549.609V93.6125H618.058V25.2109Z" stroke="white" stroke-width="0.5" stroke-miterlimit="10"/>
<path d="M618.058 93.3662H549.609V161.768H618.058V93.3662Z" stroke="white" stroke-width="0.5" stroke-miterlimit="10"/>
<path d="M618.058 161.768H549.609V230.169H618.058V161.768Z" stroke="white" stroke-width="0.5" stroke-miterlimit="10"/>
<path d="M618.058 230.17H549.609V298.572H618.058V230.17Z" stroke="white" stroke-width="0.5" stroke-miterlimit="10"/>
<path d="M618.058 298.571H549.609V366.973H618.058V298.571Z" stroke="white" stroke-width="0.5" stroke-miterlimit="10"/>
<path d="M618.058 366.727H549.609V435.128H618.058V366.727Z" stroke="white" stroke-width="0.5" stroke-miterlimit="10"/>
<path d="M618.058 435.128H549.609V503.53H618.058V435.128Z" stroke="white" stroke-width="0.5" stroke-miterlimit="10"/>
<path d="M618.058 503.529H549.609V571.931H618.058V503.529Z" stroke="white" stroke-width="0.5" stroke-miterlimit="10"/>
<path d="M618.058 571.932H549.609V640.333H618.058V571.932Z" stroke="white" stroke-width="0.5" stroke-miterlimit="10"/>
<path d="M618.058 640.333H549.609V708.734H618.058V640.333Z" stroke="white" stroke-width="0.5" stroke-miterlimit="10"/>
<path d="M618.058 708.488H549.609V776.89H618.058V708.488Z" stroke="white" stroke-width="0.5" stroke-miterlimit="10"/>
<path d="M618.058 776.891H549.609V845.292H618.058V776.891Z" stroke="white" stroke-width="0.5" stroke-miterlimit="10"/>
<path d="M618.058 845.292H549.609V913.694H618.058V845.292Z" stroke="white" stroke-width="0.5" stroke-miterlimit="10"/>
<path d="M618.058 913.693H549.609V982.095H618.058V913.693Z" stroke="white" stroke-width="0.5" stroke-miterlimit="10"/>
<path d="M618.058 981.849H549.609V1050.25H618.058V981.849Z" stroke="white" stroke-width="0.5" stroke-miterlimit="10"/>
<path d="M618.058 1050.25H549.609V1118.65H618.058V1050.25Z" stroke="white" stroke-width="0.5" stroke-miterlimit="10"/>
<path d="M686.506 -43.1904H618.058V25.2112H686.506V-43.1904Z" stroke="white" stroke-width="0.5" stroke-miterlimit="10"/>
<path d="M686.506 25.2109H618.058V93.6125H686.506V25.2109Z" stroke="white" stroke-width="0.5" stroke-miterlimit="10"/>
<path d="M686.506 93.3662H618.058V161.768H686.506V93.3662Z" stroke="white" stroke-width="0.5" stroke-miterlimit="10"/>
<path d="M686.506 161.768H618.058V230.169H686.506V161.768Z" stroke="white" stroke-width="0.5" stroke-miterlimit="10"/>
<path d="M686.506 230.17H618.058V298.572H686.506V230.17Z" stroke="white" stroke-width="0.5" stroke-miterlimit="10"/>
<path d="M686.506 298.571H618.058V366.973H686.506V298.571Z" stroke="white" stroke-width="0.5" stroke-miterlimit="10"/>
<path d="M686.506 366.727H618.058V435.128H686.506V366.727Z" stroke="white" stroke-width="0.5" stroke-miterlimit="10"/>
<path d="M686.506 435.128H618.058V503.53H686.506V435.128Z" stroke="white" stroke-width="0.5" stroke-miterlimit="10"/>
<path d="M686.506 503.529H618.058V571.931H686.506V503.529Z" stroke="white" stroke-width="0.5" stroke-miterlimit="10"/>
<path d="M686.506 571.932H618.058V640.333H686.506V571.932Z" stroke="white" stroke-width="0.5" stroke-miterlimit="10"/>
<path d="M686.506 640.333H618.058V708.734H686.506V640.333Z" stroke="white" stroke-width="0.5" stroke-miterlimit="10"/>
<path d="M686.506 708.488H618.058V776.89H686.506V708.488Z" stroke="white" stroke-width="0.5" stroke-miterlimit="10"/>
<path d="M686.506 776.891H618.058V845.292H686.506V776.891Z" stroke="white" stroke-width="0.5" stroke-miterlimit="10"/>
<path d="M686.506 845.292H618.058V913.694H686.506V845.292Z" stroke="white" stroke-width="0.5" stroke-miterlimit="10"/>
<path d="M686.506 913.693H618.058V982.095H686.506V913.693Z" stroke="white" stroke-width="0.5" stroke-miterlimit="10"/>
<path d="M686.506 981.849H618.058V1050.25H686.506V981.849Z" stroke="white" stroke-width="0.5" stroke-miterlimit="10"/>
<path d="M686.506 1050.25H618.058V1118.65H686.506V1050.25Z" stroke="white" stroke-width="0.5" stroke-miterlimit="10"/>
<path d="M754.954 -43.1904H686.506V25.2112H754.954V-43.1904Z" stroke="white" stroke-width="0.5" stroke-miterlimit="10"/>
<path d="M754.954 25.2109H686.506V93.6125H754.954V25.2109Z" stroke="white" stroke-width="0.5" stroke-miterlimit="10"/>
<path d="M754.954 93.3662H686.506V161.768H754.954V93.3662Z" stroke="white" stroke-width="0.5" stroke-miterlimit="10"/>
<path d="M754.954 161.768H686.506V230.169H754.954V161.768Z" stroke="white" stroke-width="0.5" stroke-miterlimit="10"/>
<path d="M754.954 230.17H686.506V298.572H754.954V230.17Z" stroke="white" stroke-width="0.5" stroke-miterlimit="10"/>
<path d="M754.954 298.571H686.506V366.973H754.954V298.571Z" stroke="white" stroke-width="0.5" stroke-miterlimit="10"/>
<path d="M754.954 366.727H686.506V435.128H754.954V366.727Z" stroke="white" stroke-width="0.5" stroke-miterlimit="10"/>
<path d="M754.954 435.128H686.506V503.53H754.954V435.128Z" stroke="white" stroke-width="0.5" stroke-miterlimit="10"/>
<path d="M754.954 503.529H686.506V571.931H754.954V503.529Z" stroke="white" stroke-width="0.5" stroke-miterlimit="10"/>
<path d="M754.954 571.932H686.506V640.333H754.954V571.932Z" stroke="white" stroke-width="0.5" stroke-miterlimit="10"/>
<path d="M754.954 640.333H686.506V708.734H754.954V640.333Z" stroke="white" stroke-width="0.5" stroke-miterlimit="10"/>
<path d="M754.954 708.488H686.506V776.89H754.954V708.488Z" stroke="white" stroke-width="0.5" stroke-miterlimit="10"/>
<path d="M754.954 776.891H686.506V845.292H754.954V776.891Z" stroke="white" stroke-width="0.5" stroke-miterlimit="10"/>
<path d="M754.954 845.292H686.506V913.694H754.954V845.292Z" stroke="white" stroke-width="0.5" stroke-miterlimit="10"/>
<path d="M754.954 913.693H686.506V982.095H754.954V913.693Z" stroke="white" stroke-width="0.5" stroke-miterlimit="10"/>
<path d="M754.954 981.849H686.506V1050.25H754.954V981.849Z" stroke="white" stroke-width="0.5" stroke-miterlimit="10"/>
<path d="M754.954 1050.25H686.506V1118.65H754.954V1050.25Z" stroke="white" stroke-width="0.5" stroke-miterlimit="10"/>
<path d="M823.403 -43.1904H754.955V25.2112H823.403V-43.1904Z" stroke="white" stroke-width="0.5" stroke-miterlimit="10"/>
<path d="M823.403 25.2109H754.955V93.6125H823.403V25.2109Z" stroke="white" stroke-width="0.5" stroke-miterlimit="10"/>
<path d="M823.403 93.3662H754.955V161.768H823.403V93.3662Z" stroke="white" stroke-width="0.5" stroke-miterlimit="10"/>
<path d="M823.403 161.768H754.955V230.169H823.403V161.768Z" stroke="white" stroke-width="0.5" stroke-miterlimit="10"/>
<path d="M823.403 230.17H754.955V298.572H823.403V230.17Z" stroke="white" stroke-width="0.5" stroke-miterlimit="10"/>
<path d="M823.403 298.571H754.955V366.973H823.403V298.571Z" stroke="white" stroke-width="0.5" stroke-miterlimit="10"/>
<path d="M823.403 366.727H754.955V435.128H823.403V366.727Z" stroke="white" stroke-width="0.5" stroke-miterlimit="10"/>
<path d="M823.403 435.128H754.955V503.53H823.403V435.128Z" stroke="white" stroke-width="0.5" stroke-miterlimit="10"/>
<path d="M823.403 503.529H754.955V571.931H823.403V503.529Z" stroke="white" stroke-width="0.5" stroke-miterlimit="10"/>
<path d="M823.403 571.932H754.955V640.333H823.403V571.932Z" stroke="white" stroke-width="0.5" stroke-miterlimit="10"/>
<path d="M823.403 640.333H754.955V708.734H823.403V640.333Z" stroke="white" stroke-width="0.5" stroke-miterlimit="10"/>
<path d="M823.403 708.488H754.955V776.89H823.403V708.488Z" stroke="white" stroke-width="0.5" stroke-miterlimit="10"/>
<path d="M823.403 776.891H754.955V845.292H823.403V776.891Z" stroke="white" stroke-width="0.5" stroke-miterlimit="10"/>
<path d="M823.403 845.292H754.955V913.694H823.403V845.292Z" stroke="white" stroke-width="0.5" stroke-miterlimit="10"/>
<path d="M823.403 913.693H754.955V982.095H823.403V913.693Z" stroke="white" stroke-width="0.5" stroke-miterlimit="10"/>
<path d="M823.403 981.849H754.955V1050.25H823.403V981.849Z" stroke="white" stroke-width="0.5" stroke-miterlimit="10"/>
<path d="M823.403 1050.25H754.955V1118.65H823.403V1050.25Z" stroke="white" stroke-width="0.5" stroke-miterlimit="10"/>
<path d="M891.605 -43.1904H823.157V25.2112H891.605V-43.1904Z" stroke="white" stroke-width="0.5" stroke-miterlimit="10"/>
<path d="M891.605 25.2109H823.157V93.6125H891.605V25.2109Z" stroke="white" stroke-width="0.5" stroke-miterlimit="10"/>
<path d="M891.605 93.3662H823.157V161.768H891.605V93.3662Z" stroke="white" stroke-width="0.5" stroke-miterlimit="10"/>
<path d="M891.605 161.768H823.157V230.169H891.605V161.768Z" stroke="white" stroke-width="0.5" stroke-miterlimit="10"/>
<path d="M891.605 230.17H823.157V298.572H891.605V230.17Z" stroke="white" stroke-width="0.5" stroke-miterlimit="10"/>
<path d="M891.605 298.571H823.157V366.973H891.605V298.571Z" stroke="white" stroke-width="0.5" stroke-miterlimit="10"/>
<path d="M891.605 366.727H823.157V435.128H891.605V366.727Z" stroke="white" stroke-width="0.5" stroke-miterlimit="10"/>
<path d="M891.605 435.128H823.157V503.53H891.605V435.128Z" stroke="white" stroke-width="0.5" stroke-miterlimit="10"/>
<path d="M891.605 503.529H823.157V571.931H891.605V503.529Z" stroke="white" stroke-width="0.5" stroke-miterlimit="10"/>
<path d="M891.605 571.932H823.157V640.333H891.605V571.932Z" stroke="white" stroke-width="0.5" stroke-miterlimit="10"/>
<path d="M891.605 640.333H823.157V708.734H891.605V640.333Z" stroke="white" stroke-width="0.5" stroke-miterlimit="10"/>
<path d="M891.605 708.488H823.157V776.89H891.605V708.488Z" stroke="white" stroke-width="0.5" stroke-miterlimit="10"/>
<path d="M891.605 776.891H823.157V845.292H891.605V776.891Z" stroke="white" stroke-width="0.5" stroke-miterlimit="10"/>
<path d="M891.605 845.292H823.157V913.694H891.605V845.292Z" stroke="white" stroke-width="0.5" stroke-miterlimit="10"/>
<path d="M891.605 913.693H823.157V982.095H891.605V913.693Z" stroke="white" stroke-width="0.5" stroke-miterlimit="10"/>
<path d="M891.605 981.849H823.157V1050.25H891.605V981.849Z" stroke="white" stroke-width="0.5" stroke-miterlimit="10"/>
<path d="M891.605 1050.25H823.157V1118.65H891.605V1050.25Z" stroke="white" stroke-width="0.5" stroke-miterlimit="10"/>
<path d="M960.053 -43.1904H891.605V25.2112H960.053V-43.1904Z" stroke="white" stroke-width="0.5" stroke-miterlimit="10"/>
<path d="M960.053 25.2109H891.605V93.6125H960.053V25.2109Z" stroke="white" stroke-width="0.5" stroke-miterlimit="10"/>
<path d="M960.053 93.3662H891.605V161.768H960.053V93.3662Z" stroke="white" stroke-width="0.5" stroke-miterlimit="10"/>
<path d="M960.053 161.768H891.605V230.169H960.053V161.768Z" stroke="white" stroke-width="0.5" stroke-miterlimit="10"/>
<path d="M960.053 230.17H891.605V298.572H960.053V230.17Z" stroke="white" stroke-width="0.5" stroke-miterlimit="10"/>
<path d="M960.053 298.571H891.605V366.973H960.053V298.571Z" stroke="white" stroke-width="0.5" stroke-miterlimit="10"/>
<path d="M960.053 366.727H891.605V435.128H960.053V366.727Z" stroke="white" stroke-width="0.5" stroke-miterlimit="10"/>
<path d="M960.053 435.128H891.605V503.53H960.053V435.128Z" stroke="white" stroke-width="0.5" stroke-miterlimit="10"/>
<path d="M960.053 503.529H891.605V571.931H960.053V503.529Z" stroke="white" stroke-width="0.5" stroke-miterlimit="10"/>
<path d="M960.053 571.932H891.605V640.333H960.053V571.932Z" stroke="white" stroke-width="0.5" stroke-miterlimit="10"/>
<path d="M960.053 640.333H891.605V708.734H960.053V640.333Z" stroke="white" stroke-width="0.5" stroke-miterlimit="10"/>
<path d="M960.053 708.488H891.605V776.89H960.053V708.488Z" stroke="white" stroke-width="0.5" stroke-miterlimit="10"/>
<path d="M960.053 776.891H891.605V845.292H960.053V776.891Z" stroke="white" stroke-width="0.5" stroke-miterlimit="10"/>
<path d="M960.053 845.292H891.605V913.694H960.053V845.292Z" stroke="white" stroke-width="0.5" stroke-miterlimit="10"/>
<path d="M960.053 913.693H891.605V982.095H960.053V913.693Z" stroke="white" stroke-width="0.5" stroke-miterlimit="10"/>
<path d="M960.053 981.849H891.605V1050.25H960.053V981.849Z" stroke="white" stroke-width="0.5" stroke-miterlimit="10"/>
<path d="M960.053 1050.25H891.605V1118.65H960.053V1050.25Z" stroke="white" stroke-width="0.5" stroke-miterlimit="10"/>
<path d="M1028.5 -43.1904H960.053V25.2112H1028.5V-43.1904Z" stroke="white" stroke-width="0.5" stroke-miterlimit="10"/>
<path d="M1028.5 25.2109H960.053V93.6125H1028.5V25.2109Z" stroke="white" stroke-width="0.5" stroke-miterlimit="10"/>
<path d="M1028.5 93.3662H960.053V161.768H1028.5V93.3662Z" stroke="white" stroke-width="0.5" stroke-miterlimit="10"/>
<path d="M1028.5 161.768H960.053V230.169H1028.5V161.768Z" stroke="white" stroke-width="0.5" stroke-miterlimit="10"/>
<path d="M1028.5 230.17H960.053V298.572H1028.5V230.17Z" stroke="white" stroke-width="0.5" stroke-miterlimit="10"/>
<path d="M1028.5 298.571H960.053V366.973H1028.5V298.571Z" stroke="white" stroke-width="0.5" stroke-miterlimit="10"/>
<path d="M1028.5 366.727H960.053V435.128H1028.5V366.727Z" stroke="white" stroke-width="0.5" stroke-miterlimit="10"/>
<path d="M1028.5 435.128H960.053V503.53H1028.5V435.128Z" stroke="white" stroke-width="0.5" stroke-miterlimit="10"/>
<path d="M1028.5 503.529H960.053V571.931H1028.5V503.529Z" stroke="white" stroke-width="0.5" stroke-miterlimit="10"/>
<path d="M1028.5 571.932H960.053V640.333H1028.5V571.932Z" stroke="white" stroke-width="0.5" stroke-miterlimit="10"/>
<path d="M1028.5 640.333H960.053V708.734H1028.5V640.333Z" stroke="white" stroke-width="0.5" stroke-miterlimit="10"/>
<path d="M1028.5 708.488H960.053V776.89H1028.5V708.488Z" stroke="white" stroke-width="0.5" stroke-miterlimit="10"/>
<path d="M1028.5 776.891H960.053V845.292H1028.5V776.891Z" stroke="white" stroke-width="0.5" stroke-miterlimit="10"/>
<path d="M1028.5 845.292H960.053V913.694H1028.5V845.292Z" stroke="white" stroke-width="0.5" stroke-miterlimit="10"/>
<path d="M1028.5 913.693H960.053V982.095H1028.5V913.693Z" stroke="white" stroke-width="0.5" stroke-miterlimit="10"/>
<path d="M1028.5 981.849H960.053V1050.25H1028.5V981.849Z" stroke="white" stroke-width="0.5" stroke-miterlimit="10"/>
<path d="M1028.5 1050.25H960.053V1118.65H1028.5V1050.25Z" stroke="white" stroke-width="0.5" stroke-miterlimit="10"/>
<path d="M1096.95 -43.1904H1028.5V25.2112H1096.95V-43.1904Z" stroke="white" stroke-width="0.5" stroke-miterlimit="10"/>
<path d="M1096.95 25.2109H1028.5V93.6125H1096.95V25.2109Z" stroke="white" stroke-width="0.5" stroke-miterlimit="10"/>
<path d="M1096.95 93.3662H1028.5V161.768H1096.95V93.3662Z" stroke="white" stroke-width="0.5" stroke-miterlimit="10"/>
<path d="M1096.95 161.768H1028.5V230.169H1096.95V161.768Z" stroke="white" stroke-width="0.5" stroke-miterlimit="10"/>
<path d="M1096.95 230.17H1028.5V298.572H1096.95V230.17Z" stroke="white" stroke-width="0.5" stroke-miterlimit="10"/>
<path d="M1096.95 298.571H1028.5V366.973H1096.95V298.571Z" stroke="white" stroke-width="0.5" stroke-miterlimit="10"/>
<path d="M1096.95 366.727H1028.5V435.128H1096.95V366.727Z" stroke="white" stroke-width="0.5" stroke-miterlimit="10"/>
<path d="M1096.95 435.128H1028.5V503.53H1096.95V435.128Z" stroke="white" stroke-width="0.5" stroke-miterlimit="10"/>
<path d="M1096.95 503.529H1028.5V571.931H1096.95V503.529Z" stroke="white" stroke-width="0.5" stroke-miterlimit="10"/>
<path d="M1096.95 571.932H1028.5V640.333H1096.95V571.932Z" stroke="white" stroke-width="0.5" stroke-miterlimit="10"/>
<path d="M1096.95 640.333H1028.5V708.734H1096.95V640.333Z" stroke="white" stroke-width="0.5" stroke-miterlimit="10"/>
<path d="M1096.95 708.488H1028.5V776.89H1096.95V708.488Z" stroke="white" stroke-width="0.5" stroke-miterlimit="10"/>
<path d="M1096.95 776.891H1028.5V845.292H1096.95V776.891Z" stroke="white" stroke-width="0.5" stroke-miterlimit="10"/>
<path d="M1096.95 845.292H1028.5V913.694H1096.95V845.292Z" stroke="white" stroke-width="0.5" stroke-miterlimit="10"/>
<path d="M1096.95 913.693H1028.5V982.095H1096.95V913.693Z" stroke="white" stroke-width="0.5" stroke-miterlimit="10"/>
<path d="M1096.95 981.849H1028.5V1050.25H1096.95V981.849Z" stroke="white" stroke-width="0.5" stroke-miterlimit="10"/>
<path d="M1096.95 1050.25H1028.5V1118.65H1096.95V1050.25Z" stroke="white" stroke-width="0.5" stroke-miterlimit="10"/>
<path d="M1165.15 -43.1904H1096.7V25.2112H1165.15V-43.1904Z" stroke="white" stroke-width="0.5" stroke-miterlimit="10"/>
<path d="M1165.15 25.2109H1096.7V93.6125H1165.15V25.2109Z" stroke="white" stroke-width="0.5" stroke-miterlimit="10"/>
<path d="M1165.15 93.3662H1096.7V161.768H1165.15V93.3662Z" stroke="white" stroke-width="0.5" stroke-miterlimit="10"/>
<path d="M1165.15 161.768H1096.7V230.169H1165.15V161.768Z" stroke="white" stroke-width="0.5" stroke-miterlimit="10"/>
<path d="M1165.15 230.17H1096.7V298.572H1165.15V230.17Z" stroke="white" stroke-width="0.5" stroke-miterlimit="10"/>
<path d="M1165.15 298.571H1096.7V366.973H1165.15V298.571Z" stroke="white" stroke-width="0.5" stroke-miterlimit="10"/>
<path d="M1165.15 366.727H1096.7V435.128H1165.15V366.727Z" stroke="white" stroke-width="0.5" stroke-miterlimit="10"/>
<path d="M1165.15 435.128H1096.7V503.53H1165.15V435.128Z" stroke="white" stroke-width="0.5" stroke-miterlimit="10"/>
<path d="M1165.15 503.529H1096.7V571.931H1165.15V503.529Z" stroke="white" stroke-width="0.5" stroke-miterlimit="10"/>
<path d="M1165.15 571.932H1096.7V640.333H1165.15V571.932Z" stroke="white" stroke-width="0.5" stroke-miterlimit="10"/>
<path d="M1165.15 640.333H1096.7V708.734H1165.15V640.333Z" stroke="white" stroke-width="0.5" stroke-miterlimit="10"/>
<path d="M1165.15 708.488H1096.7V776.89H1165.15V708.488Z" stroke="white" stroke-width="0.5" stroke-miterlimit="10"/>
<path d="M1165.15 776.891H1096.7V845.292H1165.15V776.891Z" stroke="white" stroke-width="0.5" stroke-miterlimit="10"/>
<path d="M1165.15 845.292H1096.7V913.694H1165.15V845.292Z" stroke="white" stroke-width="0.5" stroke-miterlimit="10"/>
<path d="M1165.15 913.693H1096.7V982.095H1165.15V913.693Z" stroke="white" stroke-width="0.5" stroke-miterlimit="10"/>
<path d="M1165.15 981.849H1096.7V1050.25H1165.15V981.849Z" stroke="white" stroke-width="0.5" stroke-miterlimit="10"/>
<path d="M1165.15 1050.25H1096.7V1118.65H1165.15V1050.25Z" stroke="white" stroke-width="0.5" stroke-miterlimit="10"/>
<path d="M1233.6 -43.1904H1165.15V25.2112H1233.6V-43.1904Z" stroke="white" stroke-width="0.5" stroke-miterlimit="10"/>
<path d="M1233.6 25.2109H1165.15V93.6125H1233.6V25.2109Z" stroke="white" stroke-width="0.5" stroke-miterlimit="10"/>
<path d="M1233.6 93.3662H1165.15V161.768H1233.6V93.3662Z" stroke="white" stroke-width="0.5" stroke-miterlimit="10"/>
<path d="M1233.6 161.768H1165.15V230.169H1233.6V161.768Z" stroke="white" stroke-width="0.5" stroke-miterlimit="10"/>
<path d="M1233.6 230.17H1165.15V298.572H1233.6V230.17Z" stroke="white" stroke-width="0.5" stroke-miterlimit="10"/>
<path d="M1233.6 298.571H1165.15V366.973H1233.6V298.571Z" stroke="white" stroke-width="0.5" stroke-miterlimit="10"/>
<path d="M1233.6 366.727H1165.15V435.128H1233.6V366.727Z" stroke="white" stroke-width="0.5" stroke-miterlimit="10"/>
<path d="M1233.6 435.128H1165.15V503.53H1233.6V435.128Z" stroke="white" stroke-width="0.5" stroke-miterlimit="10"/>
<path d="M1233.6 503.529H1165.15V571.931H1233.6V503.529Z" stroke="white" stroke-width="0.5" stroke-miterlimit="10"/>
<path d="M1233.6 571.932H1165.15V640.333H1233.6V571.932Z" stroke="white" stroke-width="0.5" stroke-miterlimit="10"/>
<path d="M1233.6 640.333H1165.15V708.734H1233.6V640.333Z" stroke="white" stroke-width="0.5" stroke-miterlimit="10"/>
<path d="M1233.6 708.488H1165.15V776.89H1233.6V708.488Z" stroke="white" stroke-width="0.5" stroke-miterlimit="10"/>
<path d="M1233.6 776.891H1165.15V845.292H1233.6V776.891Z" stroke="white" stroke-width="0.5" stroke-miterlimit="10"/>
<path d="M1233.6 845.292H1165.15V913.694H1233.6V845.292Z" stroke="white" stroke-width="0.5" stroke-miterlimit="10"/>
<path d="M1233.6 913.693H1165.15V982.095H1233.6V913.693Z" stroke="white" stroke-width="0.5" stroke-miterlimit="10"/>
<path d="M1233.6 981.849H1165.15V1050.25H1233.6V981.849Z" stroke="white" stroke-width="0.5" stroke-miterlimit="10"/>
<path d="M1233.6 1050.25H1165.15V1118.65H1233.6V1050.25Z" stroke="white" stroke-width="0.5" stroke-miterlimit="10"/>
<path d="M1302.05 -43.1904H1233.6V25.2112H1302.05V-43.1904Z" stroke="white" stroke-width="0.5" stroke-miterlimit="10"/>
<path d="M1302.05 25.2109H1233.6V93.6125H1302.05V25.2109Z" stroke="white" stroke-width="0.5" stroke-miterlimit="10"/>
<path d="M1302.05 93.3662H1233.6V161.768H1302.05V93.3662Z" stroke="white" stroke-width="0.5" stroke-miterlimit="10"/>
<path d="M1302.05 161.768H1233.6V230.169H1302.05V161.768Z" stroke="white" stroke-width="0.5" stroke-miterlimit="10"/>
<path d="M1302.05 230.17H1233.6V298.572H1302.05V230.17Z" stroke="white" stroke-width="0.5" stroke-miterlimit="10"/>
<path d="M1302.05 298.571H1233.6V366.973H1302.05V298.571Z" stroke="white" stroke-width="0.5" stroke-miterlimit="10"/>
<path d="M1302.05 366.727H1233.6V435.128H1302.05V366.727Z" stroke="white" stroke-width="0.5" stroke-miterlimit="10"/>
<path d="M1302.05 435.128H1233.6V503.53H1302.05V435.128Z" stroke="white" stroke-width="0.5" stroke-miterlimit="10"/>
<path d="M1302.05 503.529H1233.6V571.931H1302.05V503.529Z" stroke="white" stroke-width="0.5" stroke-miterlimit="10"/>
<path d="M1302.05 571.932H1233.6V640.333H1302.05V571.932Z" stroke="white" stroke-width="0.5" stroke-miterlimit="10"/>
<path d="M1302.05 640.333H1233.6V708.734H1302.05V640.333Z" stroke="white" stroke-width="0.5" stroke-miterlimit="10"/>
<path d="M1302.05 708.488H1233.6V776.89H1302.05V708.488Z" stroke="white" stroke-width="0.5" stroke-miterlimit="10"/>
<path d="M1302.05 776.891H1233.6V845.292H1302.05V776.891Z" stroke="white" stroke-width="0.5" stroke-miterlimit="10"/>
<path d="M1302.05 845.292H1233.6V913.694H1302.05V845.292Z" stroke="white" stroke-width="0.5" stroke-miterlimit="10"/>
<path d="M1302.05 913.693H1233.6V982.095H1302.05V913.693Z" stroke="white" stroke-width="0.5" stroke-miterlimit="10"/>
<path d="M1302.05 981.849H1233.6V1050.25H1302.05V981.849Z" stroke="white" stroke-width="0.5" stroke-miterlimit="10"/>
<path d="M1302.05 1050.25H1233.6V1118.65H1302.05V1050.25Z" stroke="white" stroke-width="0.5" stroke-miterlimit="10"/>
<path d="M1370.5 -43.1904H1302.05V25.2112H1370.5V-43.1904Z" stroke="white" stroke-width="0.5" stroke-miterlimit="10"/>
<path d="M1370.5 25.2109H1302.05V93.6125H1370.5V25.2109Z" stroke="white" stroke-width="0.5" stroke-miterlimit="10"/>
<path d="M1370.5 93.3662H1302.05V161.768H1370.5V93.3662Z" stroke="white" stroke-width="0.5" stroke-miterlimit="10"/>
<path d="M1370.5 161.768H1302.05V230.169H1370.5V161.768Z" stroke="white" stroke-width="0.5" stroke-miterlimit="10"/>
<path d="M1370.5 230.17H1302.05V298.572H1370.5V230.17Z" stroke="white" stroke-width="0.5" stroke-miterlimit="10"/>
<path d="M1370.5 298.571H1302.05V366.973H1370.5V298.571Z" stroke="white" stroke-width="0.5" stroke-miterlimit="10"/>
<path d="M1370.5 366.727H1302.05V435.128H1370.5V366.727Z" stroke="white" stroke-width="0.5" stroke-miterlimit="10"/>
<path d="M1370.5 435.128H1302.05V503.53H1370.5V435.128Z" stroke="white" stroke-width="0.5" stroke-miterlimit="10"/>
<path d="M1370.5 503.529H1302.05V571.931H1370.5V503.529Z" stroke="white" stroke-width="0.5" stroke-miterlimit="10"/>
<path d="M1370.5 571.932H1302.05V640.333H1370.5V571.932Z" stroke="white" stroke-width="0.5" stroke-miterlimit="10"/>
<path d="M1370.5 640.333H1302.05V708.734H1370.5V640.333Z" stroke="white" stroke-width="0.5" stroke-miterlimit="10"/>
<path d="M1370.5 708.488H1302.05V776.89H1370.5V708.488Z" stroke="white" stroke-width="0.5" stroke-miterlimit="10"/>
<path d="M1370.5 776.891H1302.05V845.292H1370.5V776.891Z" stroke="white" stroke-width="0.5" stroke-miterlimit="10"/>
<path d="M1370.5 845.292H1302.05V913.694H1370.5V845.292Z" stroke="white" stroke-width="0.5" stroke-miterlimit="10"/>
<path d="M1370.5 913.693H1302.05V982.095H1370.5V913.693Z" stroke="white" stroke-width="0.5" stroke-miterlimit="10"/>
<path d="M1370.5 981.849H1302.05V1050.25H1370.5V981.849Z" stroke="white" stroke-width="0.5" stroke-miterlimit="10"/>
<path d="M1370.5 1050.25H1302.05V1118.65H1370.5V1050.25Z" stroke="white" stroke-width="0.5" stroke-miterlimit="10"/>
<path d="M1438.95 -43.1904H1370.5V25.2112H1438.95V-43.1904Z" stroke="white" stroke-width="0.5" stroke-miterlimit="10"/>
<path d="M1438.95 25.2109H1370.5V93.6125H1438.95V25.2109Z" stroke="white" stroke-width="0.5" stroke-miterlimit="10"/>
<path d="M1438.95 93.3662H1370.5V161.768H1438.95V93.3662Z" stroke="white" stroke-width="0.5" stroke-miterlimit="10"/>
<path d="M1438.95 161.768H1370.5V230.169H1438.95V161.768Z" stroke="white" stroke-width="0.5" stroke-miterlimit="10"/>
<path d="M1438.95 230.17H1370.5V298.572H1438.95V230.17Z" stroke="white" stroke-width="0.5" stroke-miterlimit="10"/>
<path d="M1438.95 298.571H1370.5V366.973H1438.95V298.571Z" stroke="white" stroke-width="0.5" stroke-miterlimit="10"/>
<path d="M1438.95 366.727H1370.5V435.128H1438.95V366.727Z" stroke="white" stroke-width="0.5" stroke-miterlimit="10"/>
<path d="M1438.95 435.128H1370.5V503.53H1438.95V435.128Z" stroke="white" stroke-width="0.5" stroke-miterlimit="10"/>
<path d="M1438.95 503.529H1370.5V571.931H1438.95V503.529Z" stroke="white" stroke-width="0.5" stroke-miterlimit="10"/>
<path d="M1438.95 571.932H1370.5V640.333H1438.95V571.932Z" stroke="white" stroke-width="0.5" stroke-miterlimit="10"/>
<path d="M1438.95 640.333H1370.5V708.734H1438.95V640.333Z" stroke="white" stroke-width="0.5" stroke-miterlimit="10"/>
<path d="M1438.95 708.488H1370.5V776.89H1438.95V708.488Z" stroke="white" stroke-width="0.5" stroke-miterlimit="10"/>
<path d="M1438.95 776.891H1370.5V845.292H1438.95V776.891Z" stroke="white" stroke-width="0.5" stroke-miterlimit="10"/>
<path d="M1438.95 845.292H1370.5V913.694H1438.95V845.292Z" stroke="white" stroke-width="0.5" stroke-miterlimit="10"/>
<path d="M1438.95 913.693H1370.5V982.095H1438.95V913.693Z" stroke="white" stroke-width="0.5" stroke-miterlimit="10"/>
<path d="M1438.95 981.849H1370.5V1050.25H1438.95V981.849Z" stroke="white" stroke-width="0.5" stroke-miterlimit="10"/>
<path d="M1438.95 1050.25H1370.5V1118.65H1438.95V1050.25Z" stroke="white" stroke-width="0.5" stroke-miterlimit="10"/>
<path d="M1507.15 -43.1904H1438.7V25.2112H1507.15V-43.1904Z" stroke="white" stroke-width="0.5" stroke-miterlimit="10"/>
<path d="M1507.15 25.2109H1438.7V93.6125H1507.15V25.2109Z" stroke="white" stroke-width="0.5" stroke-miterlimit="10"/>
<path d="M1507.15 93.3662H1438.7V161.768H1507.15V93.3662Z" stroke="white" stroke-width="0.5" stroke-miterlimit="10"/>
<path d="M1507.15 161.768H1438.7V230.169H1507.15V161.768Z" stroke="white" stroke-width="0.5" stroke-miterlimit="10"/>
<path d="M1507.15 230.17H1438.7V298.572H1507.15V230.17Z" stroke="white" stroke-width="0.5" stroke-miterlimit="10"/>
<path d="M1507.15 298.571H1438.7V366.973H1507.15V298.571Z" stroke="white" stroke-width="0.5" stroke-miterlimit="10"/>
<path d="M1507.15 366.727H1438.7V435.128H1507.15V366.727Z" stroke="white" stroke-width="0.5" stroke-miterlimit="10"/>
<path d="M1507.15 435.128H1438.7V503.53H1507.15V435.128Z" stroke="white" stroke-width="0.5" stroke-miterlimit="10"/>
<path d="M1507.15 503.529H1438.7V571.931H1507.15V503.529Z" stroke="white" stroke-width="0.5" stroke-miterlimit="10"/>
<path d="M1507.15 571.932H1438.7V640.333H1507.15V571.932Z" stroke="white" stroke-width="0.5" stroke-miterlimit="10"/>
<path d="M1507.15 640.333H1438.7V708.734H1507.15V640.333Z" stroke="white" stroke-width="0.5" stroke-miterlimit="10"/>
<path d="M1507.15 708.488H1438.7V776.89H1507.15V708.488Z" stroke="white" stroke-width="0.5" stroke-miterlimit="10"/>
<path d="M1507.15 776.891H1438.7V845.292H1507.15V776.891Z" stroke="white" stroke-width="0.5" stroke-miterlimit="10"/>
<path d="M1507.15 845.292H1438.7V913.694H1507.15V845.292Z" stroke="white" stroke-width="0.5" stroke-miterlimit="10"/>
<path d="M1507.15 913.693H1438.7V982.095H1507.15V913.693Z" stroke="white" stroke-width="0.5" stroke-miterlimit="10"/>
<path d="M1507.15 981.849H1438.7V1050.25H1507.15V981.849Z" stroke="white" stroke-width="0.5" stroke-miterlimit="10"/>
<path d="M1507.15 1050.25H1438.7V1118.65H1507.15V1050.25Z" stroke="white" stroke-width="0.5" stroke-miterlimit="10"/>
<path d="M1575.6 -43.1904H1507.15V25.2112H1575.6V-43.1904Z" stroke="white" stroke-width="0.5" stroke-miterlimit="10"/>
<path d="M1575.6 25.2109H1507.15V93.6125H1575.6V25.2109Z" stroke="white" stroke-width="0.5" stroke-miterlimit="10"/>
<path d="M1575.6 93.3662H1507.15V161.768H1575.6V93.3662Z" stroke="white" stroke-width="0.5" stroke-miterlimit="10"/>
<path d="M1575.6 161.768H1507.15V230.169H1575.6V161.768Z" stroke="white" stroke-width="0.5" stroke-miterlimit="10"/>
<path d="M1575.6 230.17H1507.15V298.572H1575.6V230.17Z" stroke="white" stroke-width="0.5" stroke-miterlimit="10"/>
<path d="M1575.6 298.571H1507.15V366.973H1575.6V298.571Z" stroke="white" stroke-width="0.5" stroke-miterlimit="10"/>
<path d="M1575.6 366.727H1507.15V435.128H1575.6V366.727Z" stroke="white" stroke-width="0.5" stroke-miterlimit="10"/>
<path d="M1575.6 435.128H1507.15V503.53H1575.6V435.128Z" stroke="white" stroke-width="0.5" stroke-miterlimit="10"/>
<path d="M1575.6 503.529H1507.15V571.931H1575.6V503.529Z" stroke="white" stroke-width="0.5" stroke-miterlimit="10"/>
<path d="M1575.6 571.932H1507.15V640.333H1575.6V571.932Z" stroke="white" stroke-width="0.5" stroke-miterlimit="10"/>
<path d="M1575.6 640.333H1507.15V708.734H1575.6V640.333Z" stroke="white" stroke-width="0.5" stroke-miterlimit="10"/>
<path d="M1575.6 708.488H1507.15V776.89H1575.6V708.488Z" stroke="white" stroke-width="0.5" stroke-miterlimit="10"/>
<path d="M1575.6 776.891H1507.15V845.292H1575.6V776.891Z" stroke="white" stroke-width="0.5" stroke-miterlimit="10"/>
<path d="M1575.6 845.292H1507.15V913.694H1575.6V845.292Z" stroke="white" stroke-width="0.5" stroke-miterlimit="10"/>
<path d="M1575.6 913.693H1507.15V982.095H1575.6V913.693Z" stroke="white" stroke-width="0.5" stroke-miterlimit="10"/>
<path d="M1575.6 981.849H1507.15V1050.25H1575.6V981.849Z" stroke="white" stroke-width="0.5" stroke-miterlimit="10"/>
<path d="M1575.6 1050.25H1507.15V1118.65H1575.6V1050.25Z" stroke="white" stroke-width="0.5" stroke-miterlimit="10"/>
<path d="M1644.04 -43.1904H1575.6V25.2112H1644.04V-43.1904Z" stroke="white" stroke-width="0.5" stroke-miterlimit="10"/>
<path d="M1644.04 25.2109H1575.6V93.6125H1644.04V25.2109Z" stroke="white" stroke-width="0.5" stroke-miterlimit="10"/>
<path d="M1644.04 93.3662H1575.6V161.768H1644.04V93.3662Z" stroke="white" stroke-width="0.5" stroke-miterlimit="10"/>
<path d="M1644.04 161.768H1575.6V230.169H1644.04V161.768Z" stroke="white" stroke-width="0.5" stroke-miterlimit="10"/>
<path d="M1644.04 230.17H1575.6V298.572H1644.04V230.17Z" stroke="white" stroke-width="0.5" stroke-miterlimit="10"/>
<path d="M1644.04 298.571H1575.6V366.973H1644.04V298.571Z" stroke="white" stroke-width="0.5" stroke-miterlimit="10"/>
<path d="M1644.04 366.727H1575.6V435.128H1644.04V366.727Z" stroke="white" stroke-width="0.5" stroke-miterlimit="10"/>
<path d="M1644.04 435.128H1575.6V503.53H1644.04V435.128Z" stroke="white" stroke-width="0.5" stroke-miterlimit="10"/>
<path d="M1644.04 503.529H1575.6V571.931H1644.04V503.529Z" stroke="white" stroke-width="0.5" stroke-miterlimit="10"/>
<path d="M1644.04 571.932H1575.6V640.333H1644.04V571.932Z" stroke="white" stroke-width="0.5" stroke-miterlimit="10"/>
<path d="M1644.04 640.333H1575.6V708.734H1644.04V640.333Z" stroke="white" stroke-width="0.5" stroke-miterlimit="10"/>
<path d="M1644.04 708.488H1575.6V776.89H1644.04V708.488Z" stroke="white" stroke-width="0.5" stroke-miterlimit="10"/>
<path d="M1644.04 776.891H1575.6V845.292H1644.04V776.891Z" stroke="white" stroke-width="0.5" stroke-miterlimit="10"/>
<path d="M1644.04 845.292H1575.6V913.694H1644.04V845.292Z" stroke="white" stroke-width="0.5" stroke-miterlimit="10"/>
<path d="M1644.04 913.693H1575.6V982.095H1644.04V913.693Z" stroke="white" stroke-width="0.5" stroke-miterlimit="10"/>
<path d="M1644.04 981.849H1575.6V1050.25H1644.04V981.849Z" stroke="white" stroke-width="0.5" stroke-miterlimit="10"/>
<path d="M1644.04 1050.25H1575.6V1118.65H1644.04V1050.25Z" stroke="white" stroke-width="0.5" stroke-miterlimit="10"/>
<path d="M1712.49 -43.1904H1644.04V25.2112H1712.49V-43.1904Z" stroke="white" stroke-width="0.5" stroke-miterlimit="10"/>
<path d="M1712.49 25.2109H1644.04V93.6125H1712.49V25.2109Z" stroke="white" stroke-width="0.5" stroke-miterlimit="10"/>
<path d="M1712.49 93.3662H1644.04V161.768H1712.49V93.3662Z" stroke="white" stroke-width="0.5" stroke-miterlimit="10"/>
<path d="M1712.49 161.768H1644.04V230.169H1712.49V161.768Z" stroke="white" stroke-width="0.5" stroke-miterlimit="10"/>
<path d="M1712.49 230.17H1644.04V298.572H1712.49V230.17Z" stroke="white" stroke-width="0.5" stroke-miterlimit="10"/>
<path d="M1712.49 298.571H1644.04V366.973H1712.49V298.571Z" stroke="white" stroke-width="0.5" stroke-miterlimit="10"/>
<path d="M1712.49 366.727H1644.04V435.128H1712.49V366.727Z" stroke="white" stroke-width="0.5" stroke-miterlimit="10"/>
<path d="M1712.49 435.128H1644.04V503.53H1712.49V435.128Z" stroke="white" stroke-width="0.5" stroke-miterlimit="10"/>
<path d="M1712.49 503.529H1644.04V571.931H1712.49V503.529Z" stroke="white" stroke-width="0.5" stroke-miterlimit="10"/>
<path d="M1712.49 571.932H1644.04V640.333H1712.49V571.932Z" stroke="white" stroke-width="0.5" stroke-miterlimit="10"/>
<path d="M1712.49 640.333H1644.04V708.734H1712.49V640.333Z" stroke="white" stroke-width="0.5" stroke-miterlimit="10"/>
<path d="M1712.49 708.488H1644.04V776.89H1712.49V708.488Z" stroke="white" stroke-width="0.5" stroke-miterlimit="10"/>
<path d="M1712.49 776.891H1644.04V845.292H1712.49V776.891Z" stroke="white" stroke-width="0.5" stroke-miterlimit="10"/>
<path d="M1712.49 845.292H1644.04V913.694H1712.49V845.292Z" stroke="white" stroke-width="0.5" stroke-miterlimit="10"/>
<path d="M1712.49 913.693H1644.04V982.095H1712.49V913.693Z" stroke="white" stroke-width="0.5" stroke-miterlimit="10"/>
<path d="M1712.49 981.849H1644.04V1050.25H1712.49V981.849Z" stroke="white" stroke-width="0.5" stroke-miterlimit="10"/>
<path d="M1712.49 1050.25H1644.04V1118.65H1712.49V1050.25Z" stroke="white" stroke-width="0.5" stroke-miterlimit="10"/>
<path d="M1780.69 -43.1904H1712.25V25.2112H1780.69V-43.1904Z" stroke="white" stroke-width="0.5" stroke-miterlimit="10"/>
<path d="M1780.69 25.2109H1712.25V93.6125H1780.69V25.2109Z" stroke="white" stroke-width="0.5" stroke-miterlimit="10"/>
<path d="M1780.69 93.3662H1712.25V161.768H1780.69V93.3662Z" stroke="white" stroke-width="0.5" stroke-miterlimit="10"/>
<path d="M1780.69 161.768H1712.25V230.169H1780.69V161.768Z" stroke="white" stroke-width="0.5" stroke-miterlimit="10"/>
<path d="M1780.69 230.17H1712.25V298.572H1780.69V230.17Z" stroke="white" stroke-width="0.5" stroke-miterlimit="10"/>
<path d="M1780.69 298.571H1712.25V366.973H1780.69V298.571Z" stroke="white" stroke-width="0.5" stroke-miterlimit="10"/>
<path d="M1780.69 366.727H1712.25V435.128H1780.69V366.727Z" stroke="white" stroke-width="0.5" stroke-miterlimit="10"/>
<path d="M1780.69 435.128H1712.25V503.53H1780.69V435.128Z" stroke="white" stroke-width="0.5" stroke-miterlimit="10"/>
<path d="M1780.69 503.529H1712.25V571.931H1780.69V503.529Z" stroke="white" stroke-width="0.5" stroke-miterlimit="10"/>
<path d="M1780.69 571.932H1712.25V640.333H1780.69V571.932Z" stroke="white" stroke-width="0.5" stroke-miterlimit="10"/>
<path d="M1780.69 640.333H1712.25V708.734H1780.69V640.333Z" stroke="white" stroke-width="0.5" stroke-miterlimit="10"/>
<path d="M1780.69 708.488H1712.25V776.89H1780.69V708.488Z" stroke="white" stroke-width="0.5" stroke-miterlimit="10"/>
<path d="M1780.69 776.891H1712.25V845.292H1780.69V776.891Z" stroke="white" stroke-width="0.5" stroke-miterlimit="10"/>
<path d="M1780.69 845.292H1712.25V913.694H1780.69V845.292Z" stroke="white" stroke-width="0.5" stroke-miterlimit="10"/>
<path d="M1780.69 913.693H1712.25V982.095H1780.69V913.693Z" stroke="white" stroke-width="0.5" stroke-miterlimit="10"/>
<path d="M1780.69 981.849H1712.25V1050.25H1780.69V981.849Z" stroke="white" stroke-width="0.5" stroke-miterlimit="10"/>
<path d="M1780.69 1050.25H1712.25V1118.65H1780.69V1050.25Z" stroke="white" stroke-width="0.5" stroke-miterlimit="10"/>
<path d="M1849.14 -43.1904H1780.69V25.2112H1849.14V-43.1904Z" stroke="white" stroke-width="0.5" stroke-miterlimit="10"/>
<path d="M1849.14 25.2109H1780.69V93.6125H1849.14V25.2109Z" stroke="white" stroke-width="0.5" stroke-miterlimit="10"/>
<path d="M1849.14 93.3662H1780.69V161.768H1849.14V93.3662Z" stroke="white" stroke-width="0.5" stroke-miterlimit="10"/>
<path d="M1849.14 161.768H1780.69V230.169H1849.14V161.768Z" stroke="white" stroke-width="0.5" stroke-miterlimit="10"/>
<path d="M1849.14 230.17H1780.69V298.572H1849.14V230.17Z" stroke="white" stroke-width="0.5" stroke-miterlimit="10"/>
<path d="M1849.14 298.571H1780.69V366.973H1849.14V298.571Z" stroke="white" stroke-width="0.5" stroke-miterlimit="10"/>
<path d="M1849.14 366.727H1780.69V435.128H1849.14V366.727Z" stroke="white" stroke-width="0.5" stroke-miterlimit="10"/>
<path d="M1849.14 435.128H1780.69V503.53H1849.14V435.128Z" stroke="white" stroke-width="0.5" stroke-miterlimit="10"/>
<path d="M1849.14 503.529H1780.69V571.931H1849.14V503.529Z" stroke="white" stroke-width="0.5" stroke-miterlimit="10"/>
<path d="M1849.14 571.932H1780.69V640.333H1849.14V571.932Z" stroke="white" stroke-width="0.5" stroke-miterlimit="10"/>
<path d="M1849.14 640.333H1780.69V708.734H1849.14V640.333Z" stroke="white" stroke-width="0.5" stroke-miterlimit="10"/>
<path d="M1849.14 708.488H1780.69V776.89H1849.14V708.488Z" stroke="white" stroke-width="0.5" stroke-miterlimit="10"/>
<path d="M1849.14 776.891H1780.69V845.292H1849.14V776.891Z" stroke="white" stroke-width="0.5" stroke-miterlimit="10"/>
<path d="M1849.14 845.292H1780.69V913.694H1849.14V845.292Z" stroke="white" stroke-width="0.5" stroke-miterlimit="10"/>
<path d="M1849.14 913.693H1780.69V982.095H1849.14V913.693Z" stroke="white" stroke-width="0.5" stroke-miterlimit="10"/>
<path d="M1849.14 981.849H1780.69V1050.25H1849.14V981.849Z" stroke="white" stroke-width="0.5" stroke-miterlimit="10"/>
<path d="M1849.14 1050.25H1780.69V1118.65H1849.14V1050.25Z" stroke="white" stroke-width="0.5" stroke-miterlimit="10"/>
<path d="M1917.59 -43.1904H1849.14V25.2112H1917.59V-43.1904Z" stroke="white" stroke-width="0.5" stroke-miterlimit="10"/>
<path d="M1917.59 25.2109H1849.14V93.6125H1917.59V25.2109Z" stroke="white" stroke-width="0.5" stroke-miterlimit="10"/>
<path d="M1917.59 93.3662H1849.14V161.768H1917.59V93.3662Z" stroke="white" stroke-width="0.5" stroke-miterlimit="10"/>
<path d="M1917.59 161.768H1849.14V230.169H1917.59V161.768Z" stroke="white" stroke-width="0.5" stroke-miterlimit="10"/>
<path d="M1917.59 230.17H1849.14V298.572H1917.59V230.17Z" stroke="white" stroke-width="0.5" stroke-miterlimit="10"/>
<path d="M1917.59 298.571H1849.14V366.973H1917.59V298.571Z" stroke="white" stroke-width="0.5" stroke-miterlimit="10"/>
<path d="M1917.59 366.727H1849.14V435.128H1917.59V366.727Z" stroke="white" stroke-width="0.5" stroke-miterlimit="10"/>
<path d="M1917.59 435.128H1849.14V503.53H1917.59V435.128Z" stroke="white" stroke-width="0.5" stroke-miterlimit="10"/>
<path d="M1917.59 503.529H1849.14V571.931H1917.59V503.529Z" stroke="white" stroke-width="0.5" stroke-miterlimit="10"/>
<path d="M1917.59 571.932H1849.14V640.333H1917.59V571.932Z" stroke="white" stroke-width="0.5" stroke-miterlimit="10"/>
<path d="M1917.59 640.333H1849.14V708.734H1917.59V640.333Z" stroke="white" stroke-width="0.5" stroke-miterlimit="10"/>
<path d="M1917.59 708.488H1849.14V776.89H1917.59V708.488Z" stroke="white" stroke-width="0.5" stroke-miterlimit="10"/>
<path d="M1917.59 776.891H1849.14V845.292H1917.59V776.891Z" stroke="white" stroke-width="0.5" stroke-miterlimit="10"/>
<path d="M1917.59 845.292H1849.14V913.694H1917.59V845.292Z" stroke="white" stroke-width="0.5" stroke-miterlimit="10"/>
<path d="M1917.59 913.693H1849.14V982.095H1917.59V913.693Z" stroke="white" stroke-width="0.5" stroke-miterlimit="10"/>
<path d="M1917.59 981.849H1849.14V1050.25H1917.59V981.849Z" stroke="white" stroke-width="0.5" stroke-miterlimit="10"/>
<path d="M1917.59 1050.25H1849.14V1118.65H1917.59V1050.25Z" stroke="white" stroke-width="0.5" stroke-miterlimit="10"/>
<path d="M139.412 -111.592H2.51538V25.2114H139.412V-111.592Z" stroke="white" stroke-width="0.5" stroke-miterlimit="10"/>
<path d="M139.412 25.2109H2.51538V162.014H139.412V25.2109Z" stroke="white" stroke-width="0.5" stroke-miterlimit="10"/>
<path d="M139.412 161.768H2.51538V298.571H139.412V161.768Z" stroke="white" stroke-width="0.5" stroke-miterlimit="10"/>
<path d="M139.412 298.571H2.51538V435.374H139.412V298.571Z" stroke="white" stroke-width="0.5" stroke-miterlimit="10"/>
<path d="M139.412 435.128H2.51538V571.931H139.412V435.128Z" stroke="white" stroke-width="0.5" stroke-miterlimit="10"/>
<path d="M139.412 571.932H2.51538V708.735H139.412V571.932Z" stroke="white" stroke-width="0.5" stroke-miterlimit="10"/>
<path d="M139.412 708.488H2.51538V845.292H139.412V708.488Z" stroke="white" stroke-width="0.5" stroke-miterlimit="10"/>
<path d="M139.412 845.292H2.51538V982.095H139.412V845.292Z" stroke="white" stroke-width="0.5" stroke-miterlimit="10"/>
<path d="M139.412 981.849H2.51538V1118.65H139.412V981.849Z" stroke="white" stroke-width="0.5" stroke-miterlimit="10"/>
<path d="M276.309 -111.592H139.412V25.2114H276.309V-111.592Z" stroke="white" stroke-width="0.5" stroke-miterlimit="10"/>
<path d="M276.309 25.2109H139.412V162.014H276.309V25.2109Z" stroke="white" stroke-width="0.5" stroke-miterlimit="10"/>
<path d="M276.309 161.768H139.412V298.571H276.309V161.768Z" stroke="white" stroke-width="0.5" stroke-miterlimit="10"/>
<path d="M276.309 298.571H139.412V435.374H276.309V298.571Z" stroke="white" stroke-width="0.5" stroke-miterlimit="10"/>
<path d="M276.309 435.128H139.412V571.931H276.309V435.128Z" stroke="white" stroke-width="0.5" stroke-miterlimit="10"/>
<path d="M276.309 571.932H139.412V708.735H276.309V571.932Z" stroke="white" stroke-width="0.5" stroke-miterlimit="10"/>
<path d="M276.309 708.488H139.412V845.292H276.309V708.488Z" stroke="white" stroke-width="0.5" stroke-miterlimit="10"/>
<path d="M276.309 845.292H139.412V982.095H276.309V845.292Z" stroke="white" stroke-width="0.5" stroke-miterlimit="10"/>
<path d="M276.309 981.849H139.412V1118.65H276.309V981.849Z" stroke="white" stroke-width="0.5" stroke-miterlimit="10"/>
<path d="M412.959 -111.592H276.062V25.2114H412.959V-111.592Z" stroke="white" stroke-width="0.5" stroke-miterlimit="10"/>
<path d="M412.959 25.2109H276.062V162.014H412.959V25.2109Z" stroke="white" stroke-width="0.5" stroke-miterlimit="10"/>
<path d="M412.959 161.768H276.062V298.571H412.959V161.768Z" stroke="white" stroke-width="0.5" stroke-miterlimit="10"/>
<path d="M412.959 298.571H276.062V435.374H412.959V298.571Z" stroke="white" stroke-width="0.5" stroke-miterlimit="10"/>
<path d="M412.959 435.128H276.062V571.931H412.959V435.128Z" stroke="white" stroke-width="0.5" stroke-miterlimit="10"/>
<path d="M412.959 571.932H276.062V708.735H412.959V571.932Z" stroke="white" stroke-width="0.5" stroke-miterlimit="10"/>
<path d="M412.959 708.488H276.062V845.292H412.959V708.488Z" stroke="white" stroke-width="0.5" stroke-miterlimit="10"/>
<path d="M412.959 845.292H276.062V982.095H412.959V845.292Z" stroke="white" stroke-width="0.5" stroke-miterlimit="10"/>
<path d="M412.959 981.849H276.062V1118.65H412.959V981.849Z" stroke="white" stroke-width="0.5" stroke-miterlimit="10"/>
<path d="M549.856 -111.592H412.959V25.2114H549.856V-111.592Z" stroke="white" stroke-width="0.5" stroke-miterlimit="10"/>
<path d="M549.856 25.2109H412.959V162.014H549.856V25.2109Z" stroke="white" stroke-width="0.5" stroke-miterlimit="10"/>
<path d="M549.856 161.768H412.959V298.571H549.856V161.768Z" stroke="white" stroke-width="0.5" stroke-miterlimit="10"/>
<path d="M549.856 298.571H412.959V435.374H549.856V298.571Z" stroke="white" stroke-width="0.5" stroke-miterlimit="10"/>
<path d="M549.856 435.128H412.959V571.931H549.856V435.128Z" stroke="white" stroke-width="0.5" stroke-miterlimit="10"/>
<path d="M549.856 571.932H412.959V708.735H549.856V571.932Z" stroke="white" stroke-width="0.5" stroke-miterlimit="10"/>
<path d="M549.856 708.488H412.959V845.292H549.856V708.488Z" stroke="white" stroke-width="0.5" stroke-miterlimit="10"/>
<path d="M549.856 845.292H412.959V982.095H549.856V845.292Z" stroke="white" stroke-width="0.5" stroke-miterlimit="10"/>
<path d="M549.856 981.849H412.959V1118.65H549.856V981.849Z" stroke="white" stroke-width="0.5" stroke-miterlimit="10"/>
<path d="M686.506 -111.592H549.609V25.2114H686.506V-111.592Z" stroke="white" stroke-width="0.5" stroke-miterlimit="10"/>
<path d="M686.506 25.2109H549.609V162.014H686.506V25.2109Z" stroke="white" stroke-width="0.5" stroke-miterlimit="10"/>
<path d="M686.506 161.768H549.609V298.571H686.506V161.768Z" stroke="white" stroke-width="0.5" stroke-miterlimit="10"/>
<path d="M686.506 298.571H549.609V435.374H686.506V298.571Z" stroke="white" stroke-width="0.5" stroke-miterlimit="10"/>
<path d="M686.506 435.128H549.609V571.931H686.506V435.128Z" stroke="white" stroke-width="0.5" stroke-miterlimit="10"/>
<path d="M686.506 571.932H549.609V708.735H686.506V571.932Z" stroke="white" stroke-width="0.5" stroke-miterlimit="10"/>
<path d="M686.506 708.488H549.609V845.292H686.506V708.488Z" stroke="white" stroke-width="0.5" stroke-miterlimit="10"/>
<path d="M686.506 845.292H549.609V982.095H686.506V845.292Z" stroke="white" stroke-width="0.5" stroke-miterlimit="10"/>
<path d="M686.506 981.849H549.609V1118.65H686.506V981.849Z" stroke="white" stroke-width="0.5" stroke-miterlimit="10"/>
<path d="M823.403 -111.592H686.506V25.2114H823.403V-111.592Z" stroke="white" stroke-width="0.5" stroke-miterlimit="10"/>
<path d="M823.403 25.2109H686.506V162.014H823.403V25.2109Z" stroke="white" stroke-width="0.5" stroke-miterlimit="10"/>
<path d="M823.403 161.768H686.506V298.571H823.403V161.768Z" stroke="white" stroke-width="0.5" stroke-miterlimit="10"/>
<path d="M823.403 298.571H686.506V435.374H823.403V298.571Z" stroke="white" stroke-width="0.5" stroke-miterlimit="10"/>
<path d="M823.403 435.128H686.506V571.931H823.403V435.128Z" stroke="white" stroke-width="0.5" stroke-miterlimit="10"/>
<path d="M823.403 571.932H686.506V708.735H823.403V571.932Z" stroke="white" stroke-width="0.5" stroke-miterlimit="10"/>
<path d="M823.403 708.488H686.506V845.292H823.403V708.488Z" stroke="white" stroke-width="0.5" stroke-miterlimit="10"/>
<path d="M823.403 845.292H686.506V982.095H823.403V845.292Z" stroke="white" stroke-width="0.5" stroke-miterlimit="10"/>
<path d="M823.403 981.849H686.506V1118.65H823.403V981.849Z" stroke="white" stroke-width="0.5" stroke-miterlimit="10"/>
<path d="M960.053 -111.592H823.157V25.2114H960.053V-111.592Z" stroke="white" stroke-width="0.5" stroke-miterlimit="10"/>
<path d="M960.053 25.2109H823.157V162.014H960.053V25.2109Z" stroke="white" stroke-width="0.5" stroke-miterlimit="10"/>
<path d="M960.053 161.768H823.157V298.571H960.053V161.768Z" stroke="white" stroke-width="0.5" stroke-miterlimit="10"/>
<path d="M960.053 298.571H823.157V435.374H960.053V298.571Z" stroke="white" stroke-width="0.5" stroke-miterlimit="10"/>
<path d="M960.053 435.128H823.157V571.931H960.053V435.128Z" stroke="white" stroke-width="0.5" stroke-miterlimit="10"/>
<path d="M960.053 571.932H823.157V708.735H960.053V571.932Z" stroke="white" stroke-width="0.5" stroke-miterlimit="10"/>
<path d="M960.053 708.488H823.157V845.292H960.053V708.488Z" stroke="white" stroke-width="0.5" stroke-miterlimit="10"/>
<path d="M960.053 845.292H823.157V982.095H960.053V845.292Z" stroke="white" stroke-width="0.5" stroke-miterlimit="10"/>
<path d="M960.053 981.849H823.157V1118.65H960.053V981.849Z" stroke="white" stroke-width="0.5" stroke-miterlimit="10"/>
<path d="M1096.95 -111.592H960.053V25.2114H1096.95V-111.592Z" stroke="white" stroke-width="0.5" stroke-miterlimit="10"/>
<path d="M1096.95 25.2109H960.053V162.014H1096.95V25.2109Z" stroke="white" stroke-width="0.5" stroke-miterlimit="10"/>
<path d="M1096.95 161.768H960.053V298.571H1096.95V161.768Z" stroke="white" stroke-width="0.5" stroke-miterlimit="10"/>
<path d="M1096.95 298.571H960.053V435.374H1096.95V298.571Z" stroke="white" stroke-width="0.5" stroke-miterlimit="10"/>
<path d="M1096.95 435.128H960.053V571.931H1096.95V435.128Z" stroke="white" stroke-width="0.5" stroke-miterlimit="10"/>
<path d="M1096.95 571.932H960.053V708.735H1096.95V571.932Z" stroke="white" stroke-width="0.5" stroke-miterlimit="10"/>
<path d="M1096.95 708.488H960.053V845.292H1096.95V708.488Z" stroke="white" stroke-width="0.5" stroke-miterlimit="10"/>
<path d="M1096.95 845.292H960.053V982.095H1096.95V845.292Z" stroke="white" stroke-width="0.5" stroke-miterlimit="10"/>
<path d="M1096.95 981.849H960.053V1118.65H1096.95V981.849Z" stroke="white" stroke-width="0.5" stroke-miterlimit="10"/>
<path d="M1233.6 -111.592H1096.7V25.2114H1233.6V-111.592Z" stroke="white" stroke-width="0.5" stroke-miterlimit="10"/>
<path d="M1233.6 25.2109H1096.7V162.014H1233.6V25.2109Z" stroke="white" stroke-width="0.5" stroke-miterlimit="10"/>
<path d="M1233.6 161.768H1096.7V298.571H1233.6V161.768Z" stroke="white" stroke-width="0.5" stroke-miterlimit="10"/>
<path d="M1233.6 298.571H1096.7V435.374H1233.6V298.571Z" stroke="white" stroke-width="0.5" stroke-miterlimit="10"/>
<path d="M1233.6 435.128H1096.7V571.931H1233.6V435.128Z" stroke="white" stroke-width="0.5" stroke-miterlimit="10"/>
<path d="M1233.6 571.932H1096.7V708.735H1233.6V571.932Z" stroke="white" stroke-width="0.5" stroke-miterlimit="10"/>
<path d="M1233.6 708.488H1096.7V845.292H1233.6V708.488Z" stroke="white" stroke-width="0.5" stroke-miterlimit="10"/>
<path d="M1233.6 845.292H1096.7V982.095H1233.6V845.292Z" stroke="white" stroke-width="0.5" stroke-miterlimit="10"/>
<path d="M1233.6 981.849H1096.7V1118.65H1233.6V981.849Z" stroke="white" stroke-width="0.5" stroke-miterlimit="10"/>
<path d="M1370.5 -111.592H1233.6V25.2114H1370.5V-111.592Z" stroke="white" stroke-width="0.5" stroke-miterlimit="10"/>
<path d="M1370.5 25.2109H1233.6V162.014H1370.5V25.2109Z" stroke="white" stroke-width="0.5" stroke-miterlimit="10"/>
<path d="M1370.5 161.768H1233.6V298.571H1370.5V161.768Z" stroke="white" stroke-width="0.5" stroke-miterlimit="10"/>
<path d="M1370.5 298.571H1233.6V435.374H1370.5V298.571Z" stroke="white" stroke-width="0.5" stroke-miterlimit="10"/>
<path d="M1370.5 435.128H1233.6V571.931H1370.5V435.128Z" stroke="white" stroke-width="0.5" stroke-miterlimit="10"/>
<path d="M1370.5 571.932H1233.6V708.735H1370.5V571.932Z" stroke="white" stroke-width="0.5" stroke-miterlimit="10"/>
<path d="M1370.5 708.488H1233.6V845.292H1370.5V708.488Z" stroke="white" stroke-width="0.5" stroke-miterlimit="10"/>
<path d="M1370.5 845.292H1233.6V982.095H1370.5V845.292Z" stroke="white" stroke-width="0.5" stroke-miterlimit="10"/>
<path d="M1370.5 981.849H1233.6V1118.65H1370.5V981.849Z" stroke="white" stroke-width="0.5" stroke-miterlimit="10"/>
<path d="M1507.39 -111.592H1370.5V25.2114H1507.39V-111.592Z" stroke="white" stroke-width="0.5" stroke-miterlimit="10"/>
<path d="M1507.39 25.2109H1370.5V162.014H1507.39V25.2109Z" stroke="white" stroke-width="0.5" stroke-miterlimit="10"/>
<path d="M1507.39 161.768H1370.5V298.571H1507.39V161.768Z" stroke="white" stroke-width="0.5" stroke-miterlimit="10"/>
<path d="M1507.39 298.571H1370.5V435.374H1507.39V298.571Z" stroke="white" stroke-width="0.5" stroke-miterlimit="10"/>
<path d="M1507.39 435.128H1370.5V571.931H1507.39V435.128Z" stroke="white" stroke-width="0.5" stroke-miterlimit="10"/>
<path d="M1507.39 571.932H1370.5V708.735H1507.39V571.932Z" stroke="white" stroke-width="0.5" stroke-miterlimit="10"/>
<path d="M1507.39 708.488H1370.5V845.292H1507.39V708.488Z" stroke="white" stroke-width="0.5" stroke-miterlimit="10"/>
<path d="M1507.39 845.292H1370.5V982.095H1507.39V845.292Z" stroke="white" stroke-width="0.5" stroke-miterlimit="10"/>
<path d="M1507.39 981.849H1370.5V1118.65H1507.39V981.849Z" stroke="white" stroke-width="0.5" stroke-miterlimit="10"/>
<path d="M1644.04 -111.592H1507.15V25.2114H1644.04V-111.592Z" stroke="white" stroke-width="0.5" stroke-miterlimit="10"/>
<path d="M1644.04 25.2109H1507.15V162.014H1644.04V25.2109Z" stroke="white" stroke-width="0.5" stroke-miterlimit="10"/>
<path d="M1644.04 161.768H1507.15V298.571H1644.04V161.768Z" stroke="white" stroke-width="0.5" stroke-miterlimit="10"/>
<path d="M1644.04 298.571H1507.15V435.374H1644.04V298.571Z" stroke="white" stroke-width="0.5" stroke-miterlimit="10"/>
<path d="M1644.04 435.128H1507.15V571.931H1644.04V435.128Z" stroke="white" stroke-width="0.5" stroke-miterlimit="10"/>
<path d="M1644.04 571.932H1507.15V708.735H1644.04V571.932Z" stroke="white" stroke-width="0.5" stroke-miterlimit="10"/>
<path d="M1644.04 708.488H1507.15V845.292H1644.04V708.488Z" stroke="white" stroke-width="0.5" stroke-miterlimit="10"/>
<path d="M1644.04 845.292H1507.15V982.095H1644.04V845.292Z" stroke="white" stroke-width="0.5" stroke-miterlimit="10"/>
<path d="M1644.04 981.849H1507.15V1118.65H1644.04V981.849Z" stroke="white" stroke-width="0.5" stroke-miterlimit="10"/>
<path d="M1780.94 -111.592H1644.04V25.2114H1780.94V-111.592Z" stroke="white" stroke-width="0.5" stroke-miterlimit="10"/>
<path d="M1780.94 25.2109H1644.04V162.014H1780.94V25.2109Z" stroke="white" stroke-width="0.5" stroke-miterlimit="10"/>
<path d="M1780.94 161.768H1644.04V298.571H1780.94V161.768Z" stroke="white" stroke-width="0.5" stroke-miterlimit="10"/>
<path d="M1780.94 298.571H1644.04V435.374H1780.94V298.571Z" stroke="white" stroke-width="0.5" stroke-miterlimit="10"/>
<path d="M1780.94 435.128H1644.04V571.931H1780.94V435.128Z" stroke="white" stroke-width="0.5" stroke-miterlimit="10"/>
<path d="M1780.94 571.932H1644.04V708.735H1780.94V571.932Z" stroke="white" stroke-width="0.5" stroke-miterlimit="10"/>
<path d="M1780.94 708.488H1644.04V845.292H1780.94V708.488Z" stroke="white" stroke-width="0.5" stroke-miterlimit="10"/>
<path d="M1780.94 845.292H1644.04V982.095H1780.94V845.292Z" stroke="white" stroke-width="0.5" stroke-miterlimit="10"/>
<path d="M1780.94 981.849H1644.04V1118.65H1780.94V981.849Z" stroke="white" stroke-width="0.5" stroke-miterlimit="10"/>
<path d="M1917.59 -111.592H1780.69V25.2114H1917.59V-111.592Z" stroke="white" stroke-width="0.5" stroke-miterlimit="10"/>
<path d="M1917.59 25.2109H1780.69V162.014H1917.59V25.2109Z" stroke="white" stroke-width="0.5" stroke-miterlimit="10"/>
<path d="M1917.59 161.768H1780.69V298.571H1917.59V161.768Z" stroke="white" stroke-width="0.5" stroke-miterlimit="10"/>
<path d="M1917.59 298.571H1780.69V435.374H1917.59V298.571Z" stroke="white" stroke-width="0.5" stroke-miterlimit="10"/>
<path d="M1917.59 435.128H1780.69V571.931H1917.59V435.128Z" stroke="white" stroke-width="0.5" stroke-miterlimit="10"/>
<path d="M1917.59 571.932H1780.69V708.735H1917.59V571.932Z" stroke="white" stroke-width="0.5" stroke-miterlimit="10"/>
<path d="M1917.59 708.488H1780.69V845.292H1917.59V708.488Z" stroke="white" stroke-width="0.5" stroke-miterlimit="10"/>
<path d="M1917.59 845.292H1780.69V982.095H1917.59V845.292Z" stroke="white" stroke-width="0.5" stroke-miterlimit="10"/>
<path d="M1917.59 981.849H1780.69V1118.65H1917.59V981.849Z" stroke="white" stroke-width="0.5" stroke-miterlimit="10"/>
</g>
<g opacity="0.4">
<circle cx="1698.55" cy="891.447" r="480.5" transform="rotate(-45 1698.55 891.447)" stroke="url(#paint0_linear)" stroke-opacity="0.4" stroke-width="2"/>
<circle cx="1893.05" cy="404.84" r="480.368" transform="rotate(121.48 1893.05 404.84)" stroke="url(#paint1_linear)" stroke-opacity="0.2" stroke-width="2"/>
<circle cx="274.553" cy="1042.45" r="480.5" stroke="url(#paint2_linear)" stroke-opacity="0.4" stroke-width="2"/>
<circle cx="469.054" cy="555.84" r="480.368" transform="rotate(121.48 469.054 555.84)" stroke="url(#paint3_linear)" stroke-opacity="0.2" stroke-width="2"/>
<circle cx="1513.95" cy="13.8399" r="480.368" transform="rotate(121.48 1513.95 13.8399)" stroke="url(#paint4_linear)" stroke-opacity="0.2" stroke-width="2"/>
<g opacity="0.7">
<circle cx="-65.5" cy="-405.5" r="480.5" transform="rotate(90 -65.5 -405.5)" stroke="url(#paint5_linear)" stroke-opacity="0.4" stroke-width="2"/>
<circle cx="421.107" cy="-211" r="480.368" transform="rotate(-148.52 421.107 -211)" stroke="url(#paint6_linear)" stroke-opacity="0.2" stroke-width="2"/>
</g>
</g>
</g>
<defs>
<linearGradient id="paint0_linear" x1="1698.55" y1="409.947" x2="1698.55" y2="1372.95" gradientUnits="userSpaceOnUse">
<stop stop-color="white"/>
<stop offset="1" stop-color="white" stop-opacity="0"/>
</linearGradient>
<linearGradient id="paint1_linear" x1="1893.05" y1="-76.5283" x2="1893.05" y2="886.208" gradientUnits="userSpaceOnUse">
<stop stop-color="white"/>
<stop offset="1" stop-color="white" stop-opacity="0"/>
</linearGradient>
<linearGradient id="paint2_linear" x1="274.553" y1="560.947" x2="274.553" y2="1523.95" gradientUnits="userSpaceOnUse">
<stop stop-color="white"/>
<stop offset="1" stop-color="white" stop-opacity="0"/>
</linearGradient>
<linearGradient id="paint3_linear" x1="469.054" y1="74.4717" x2="469.054" y2="1037.21" gradientUnits="userSpaceOnUse">
<stop stop-color="white"/>
<stop offset="1" stop-color="white" stop-opacity="0"/>
</linearGradient>
<linearGradient id="paint4_linear" x1="1513.95" y1="-467.528" x2="1513.95" y2="495.208" gradientUnits="userSpaceOnUse">
<stop stop-color="white"/>
<stop offset="1" stop-color="white" stop-opacity="0"/>
</linearGradient>
<linearGradient id="paint5_linear" x1="-65.5" y1="-887" x2="-65.5" y2="76" gradientUnits="userSpaceOnUse">
<stop stop-color="white"/>
<stop offset="1" stop-color="white" stop-opacity="0"/>
</linearGradient>
<linearGradient id="paint6_linear" x1="421.107" y1="-692.368" x2="421.107" y2="270.369" gradientUnits="userSpaceOnUse">
<stop stop-color="white"/>
<stop offset="1" stop-color="white" stop-opacity="0"/>
</linearGradient>
<clipPath id="clip0">
<rect width="1920" height="1080" fill="white"/>
</clipPath>
</defs>
</svg>
