<svg width="64" height="64" viewBox="0 0 64 64" fill="none" xmlns="http://www.w3.org/2000/svg">
<g clip-path="url(#clip0)">
<path d="M63.6333 29.068C63.5092 28.9204 63.3588 28.7972 63.1899 28.7045L63.1891 28.7051L45.2493 18.8555C42.198 17.188 38.4926 17.258 35.5063 19.0393C33.4504 20.2679 30.8941 20.3016 28.8063 19.1279L28.5663 18.9927C25.6502 17.3389 22.0888 17.3005 19.1378 18.8907L0.824653 28.6975C0.0643324 29.1046 -0.221901 30.051 0.185353 30.8112C0.281545 30.9906 0.411778 31.1496 0.568871 31.2792L14.8694 43.0597C17.4326 45.1833 20.6561 46.3465 23.9847 46.349C25.5334 46.3479 27.0719 46.0977 28.5412 45.6083L28.6747 45.564C30.9822 44.8033 33.4732 44.805 35.7797 45.5685C40.5281 47.1325 45.7473 46.1347 49.5839 42.9295L63.4438 31.2682C64.1037 30.713 64.1885 29.7279 63.6333 29.068ZM47.5724 40.5403C44.5693 43.0495 40.4835 43.8303 36.7665 42.6056C33.8198 41.6303 30.6379 41.6282 27.69 42.5998L27.5566 42.6442C23.8843 43.8753 19.8364 43.1208 16.8542 40.6493L7.35383 32.8223L13.5427 34.0761C14.8519 34.34 16.2057 34.2819 17.4874 33.9066L22.923 32.3093C24.1565 31.9452 25.4824 32.0634 26.632 32.6401L28.0794 33.3637C30.7153 34.6776 33.8526 34.4824 36.3052 32.8517C37.3933 32.1235 38.7211 31.8449 40.01 32.0745L49.1876 33.6924C50.1884 33.8695 51.2135 33.8586 52.2104 33.6601L56.8418 32.7413L47.5724 40.5403ZM51.6033 30.5968C50.9854 30.72 50.3498 30.7269 49.7294 30.6169L40.5522 28.9988C38.4719 28.6283 36.3289 29.0779 34.5728 30.2531C33.0531 31.2634 31.1093 31.3844 29.4761 30.5704L28.0288 29.8468C26.1732 28.9161 24.0334 28.7254 22.0426 29.313L16.607 30.9102C15.8128 31.1427 14.9741 31.1786 14.1628 31.0151L6.14518 29.3911L20.612 21.6439C22.6216 20.561 25.047 20.5872 27.0327 21.7134L27.2727 21.8486C30.3385 23.5721 34.0923 23.5225 37.1114 21.7183C39.145 20.5054 41.6684 20.4579 43.7462 21.5933L57.8782 29.3521L51.6033 30.5968Z" fill="white"/>
</g>
<defs>
<clipPath id="clip0">
<rect width="64" height="64" fill="white"/>
</clipPath>
</defs>
</svg>
