<svg width="26" height="26" viewBox="0 0 26 26" fill="none" xmlns="http://www.w3.org/2000/svg">
<path d="M25.2476 11.305C25.2199 11.2845 22.4484 9.22926 19.181 7.00829C17.241 5.68961 15.5421 5.7675 14.4586 6.06498C13.8294 6.23779 13.3355 6.49967 13.0028 6.71468C11.9305 6.09291 10.7449 5.85916 9.54388 6.03791C8.46391 6.19848 7.64258 6.64231 7.24923 6.89251C7.09698 6.9893 6.96079 7.07172 6.83277 7.14434L6.80438 7.16043L0 11.8382L6.55921 17.6548C7.65827 18.6294 8.88773 19.3138 10.2134 19.6889C11.3026 19.997 12.3076 20.1174 13.2138 20.1174C14.7162 20.1174 15.9462 19.7862 16.8331 19.4308C17.54 19.1476 18.207 18.732 18.8157 18.1956L26 11.8635L25.2476 11.305ZM13.0121 13.6273C11.9767 13.6273 11.0241 12.954 10.4713 12.4678C11.0245 11.9813 11.9769 11.308 13.0121 11.308C14.0466 11.308 14.9982 11.9801 15.5515 12.4665C14.9965 12.9528 14.0411 13.6273 13.0121 13.6273Z" fill="#F04E27"/>
</svg>
