<svg width="105" height="26" viewBox="0 0 105 26" fill="none" xmlns="http://www.w3.org/2000/svg">
<rect width="26" height="26" rx="2" fill="url(#paint0_radial_60_59960)"/>
<g clip-path="url(#clip0_60_59960)">
<path d="M14.9865 5L5 14.9865L7.10779 17.0942L7.40796 16.9487C7.87903 16.7202 8.44421 16.8154 8.81433 17.1855C9.18457 17.5558 9.27979 18.121 9.05127 18.592L8.90564 18.8922L11.0134 21L21 11.0135L14.9865 5ZM16.9536 12.4064L17.6166 11.7435L18.28 12.407L17.6171 13.0699L16.9536 12.4064ZM15.6124 11.0653L16.2754 10.4023L16.9388 11.0658L16.276 11.7288L15.6124 11.0653ZM15.2802 12.7239L11.4749 16.5293L10.812 15.8663L14.6173 12.061L15.2802 12.7239ZM14.2712 9.724L14.9342 9.06116L15.5977 9.72461L14.9347 10.3876L14.2712 9.724ZM13.939 11.3827L10.1337 15.188L9.4707 14.5251L13.2761 10.7198L13.939 11.3827ZM13.5936 9.04626L12.9301 8.38281L13.593 7.71985L14.2565 8.38342L13.5936 9.04626Z" fill="white"/>
</g>
<rect x="31" width="74" height="26" rx="1" fill="url(#paint1_radial_60_59960)" fill-opacity="0.25"/>
<path d="M47.6 17.076H52.08V18H46.62V8.2H47.6V17.076ZM58.8538 17.118C58.1445 17.818 57.2765 18.168 56.2498 18.168C55.2231 18.168 54.3505 17.818 53.6318 17.118C52.9225 16.4087 52.5678 15.536 52.5678 14.5C52.5678 13.464 52.9225 12.596 53.6318 11.896C54.3505 11.1867 55.2231 10.832 56.2498 10.832C57.2765 10.832 58.1445 11.1867 58.8538 11.896C59.5725 12.596 59.9318 13.464 59.9318 14.5C59.9318 15.536 59.5725 16.4087 58.8538 17.118ZM54.2898 16.474C54.8218 17.006 55.4751 17.272 56.2498 17.272C57.0245 17.272 57.6778 17.006 58.2098 16.474C58.7418 15.9327 59.0078 15.2747 59.0078 14.5C59.0078 13.7253 58.7418 13.072 58.2098 12.54C57.6778 11.9987 57.0245 11.728 56.2498 11.728C55.4751 11.728 54.8218 11.9987 54.2898 12.54C53.7578 13.072 53.4918 13.7253 53.4918 14.5C53.4918 15.2747 53.7578 15.9327 54.2898 16.474ZM65.0513 11.896H63.0353V16.138C63.0353 16.5207 63.11 16.796 63.2593 16.964C63.4087 17.1227 63.6327 17.2067 63.9313 17.216C64.23 17.216 64.6033 17.2067 65.0513 17.188V18C64.0713 18.1493 63.334 18.0793 62.8393 17.79C62.354 17.5007 62.1113 16.95 62.1113 16.138V11.896H60.6413V11H62.1113V9.32L63.0353 9.04V11H65.0513V11.896ZM69.8775 11.896H67.8615V16.138C67.8615 16.5207 67.9362 16.796 68.0855 16.964C68.2348 17.1227 68.4588 17.2067 68.7575 17.216C69.0562 17.216 69.4295 17.2067 69.8775 17.188V18C68.8975 18.1493 68.1602 18.0793 67.6655 17.79C67.1802 17.5007 66.9375 16.95 66.9375 16.138V11.896H65.4675V11H66.9375V9.32L67.8615 9.04V11H69.8775V11.896ZM74.2277 10.832C75.2637 10.832 76.099 11.2007 76.7337 11.938C77.3777 12.666 77.6997 13.5293 77.6997 14.528C77.6997 14.6307 77.6903 14.7753 77.6717 14.962H71.5257C71.619 15.6713 71.9177 16.236 72.4217 16.656C72.935 17.0667 73.565 17.272 74.3117 17.272C74.8437 17.272 75.301 17.1647 75.6837 16.95C76.0757 16.726 76.3697 16.4367 76.5657 16.082L77.3777 16.558C77.0697 17.0527 76.6497 17.4447 76.1177 17.734C75.5857 18.0233 74.979 18.168 74.2977 18.168C73.1963 18.168 72.3003 17.8227 71.6097 17.132C70.919 16.4413 70.5737 15.564 70.5737 14.5C70.5737 13.4547 70.9143 12.582 71.5957 11.882C72.277 11.182 73.1543 10.832 74.2277 10.832ZM74.2277 11.728C73.4997 11.728 72.8883 11.9473 72.3937 12.386C71.9083 12.8153 71.619 13.3753 71.5257 14.066H76.7477C76.6543 13.3287 76.3697 12.7547 75.8937 12.344C75.4177 11.9333 74.8623 11.728 74.2277 11.728ZM80.0935 12.162C80.5228 11.3127 81.2601 10.888 82.3055 10.888V11.784C81.6708 11.784 81.1435 11.9707 80.7235 12.344C80.3035 12.7173 80.0935 13.3053 80.0935 14.108V18H79.1695V11H80.0935V12.162ZM88.7485 11H89.7285L86.7325 18.644C86.4618 19.3347 86.0745 19.876 85.5705 20.268C85.0758 20.6693 84.5205 20.8467 83.9045 20.8V19.932C84.7445 20.0253 85.3838 19.54 85.8225 18.476L86.0045 18.042L82.8685 11H83.8485L86.4805 16.866L88.7485 11Z" fill="white"/>
<defs>
<radialGradient id="paint0_radial_60_59960" cx="0" cy="0" r="1" gradientUnits="userSpaceOnUse" gradientTransform="translate(13 13) rotate(90) scale(25)">
<stop stop-color="#DFB25F"/>
<stop offset="1" stop-color="#DFB45F" stop-opacity="0"/>
</radialGradient>
<radialGradient id="paint1_radial_60_59960" cx="0" cy="0" r="1" gradientUnits="userSpaceOnUse" gradientTransform="translate(68 13) rotate(90) scale(25 71.1538)">
<stop stop-color="white"/>
<stop offset="1" stop-color="white" stop-opacity="0"/>
</radialGradient>
<clipPath id="clip0_60_59960">
<rect width="16" height="16" fill="white" transform="translate(5 5)"/>
</clipPath>
</defs>
</svg>
