<svg version="1.2" xmlns="http://www.w3.org/2000/svg" viewBox="0 0 60 60" width="60" height="60">
	<title>magazine-svg</title>
	<style>
		.s0 { fill: #ffffff } 
	</style>
	<g id="Layer" style="opacity: .2">
		<path id="Layer" class="s0" d="m25.2 33.2c-0.1-0.2-0.1-0.3-0.2-0.5 0.3-0.6 0.6-1.3 0.9-2.3 0.4-0.8 1.2-3.5 1.7-7.6 0.2-2.4 0.1-4 0-7.1-0.1-2.5-0.2-4.6-0.4-6.2 0.2-0.2 0.2-0.3 0.4-0.4q1.8-0.2 3.6-0.3 0.1 0 0.1 0c0.2-0.2 0.4-0.3 0.6-0.5 0 0 0.1 0 0.1 0l1.6-0.3c0.1 0 0.2 0.1 0.2 0.2l0.1 1.4c0 0.1 0.2 0.2 0.3 0.2q0.2 0 0.3 0.2c0.4 3.1 0.6 6.7 0.4 10.8-0.3 6-1.6 11-2.8 14.8-0.4 0.1-0.6 0.2-1 0.4q-1.2-0.5-2.3-1.1c-0.1 0-0.2-0.2-0.1-0.3 1.3-3.4 2.6-8.2 3-13.9 0.2-3.3 0.1-6.3-0.3-8.8 0-0.3-0.2-0.5-0.4-0.5-0.3 0.1-0.4 0.3-0.4 0.6 0.3 2.4 0.5 5.3 0.4 8.6-0.3 5.6-1.7 10.3-3 13.6-0.1 0.2-0.2 0.2-0.4 0.2q-1.2-0.6-2.4-1.2z"/>
	</g>
</svg>