<svg width="47" height="59" viewBox="0 0 47 59" fill="none" xmlns="http://www.w3.org/2000/svg">
<path d="M19.4383 34.9908H19.1481V19.034C19.1481 18.6493 18.9953 18.2803 18.7233 18.0083C18.4512 17.7362 18.0823 17.5834 17.6975 17.5834H17.1173V7.57416C17.1173 7.31545 17.0481 7.06144 16.9169 6.83846C16.7857 6.61549 16.5972 6.43166 16.3711 6.30603L5.92664 0.50356C5.70582 0.380895 5.4568 0.31802 5.20421 0.321157C4.95163 0.324293 4.70424 0.393332 4.48653 0.521442C4.26882 0.649552 4.08834 0.832291 3.96295 1.05158C3.83756 1.27086 3.7716 1.51909 3.77161 1.77169V17.5834H3.19136C2.80663 17.5834 2.43766 17.7362 2.16562 18.0083C1.89357 18.2803 1.74074 18.6493 1.74074 19.034V34.9908H1.45062C1.06589 34.9908 0.696919 35.1437 0.424876 35.4157C0.152832 35.6877 0 36.0567 0 36.4414V53.9939C0.0013054 55.1477 0.460222 56.2538 1.27607 57.0697C2.09192 57.8855 3.19807 58.3445 4.35185 58.3458H16.537C17.6908 58.3445 18.797 57.8855 19.6128 57.0697C20.4287 56.2538 20.8876 55.1477 20.8889 53.9939V36.4414C20.8889 36.0567 20.7361 35.6877 20.464 35.4157C20.192 35.1437 19.823 34.9908 19.4383 34.9908V34.9908ZM6.67284 4.23774L14.216 8.42843V17.5834H6.67284V4.23774ZM4.64198 20.4847H16.2469V34.9908H4.64198V20.4847ZM17.9877 53.9939C17.9872 54.3785 17.8343 54.7472 17.5623 55.0192C17.2904 55.2911 16.9216 55.4441 16.537 55.4445H4.35185C3.96725 55.4441 3.59853 55.2911 3.32658 55.0192C3.05462 54.7472 2.90166 54.3785 2.90123 53.9939V37.8921H17.9877V53.9939Z" fill="white"/>
<path d="M42.6484 24.8365H30.4632C29.3094 24.8379 28.2032 25.2968 27.3874 26.1126C26.5715 26.9285 26.1126 28.0346 26.1113 29.1884V56.8952C26.1113 57.2799 26.2642 57.6489 26.5362 57.9209C26.8082 58.193 27.1772 58.3458 27.5619 58.3458H45.5496C45.9343 58.3458 46.3033 58.193 46.5753 57.9209C46.8474 57.6489 47.0002 57.2799 47.0002 56.8952V29.1884C46.9989 28.0346 46.54 26.9285 45.7241 26.1126C44.9083 25.2968 43.8021 24.8379 42.6484 24.8365V24.8365ZM44.099 55.4446H29.0126V29.1884C29.013 28.8038 29.166 28.4351 29.4379 28.1631C29.7099 27.8912 30.0786 27.7382 30.4632 27.7378H42.6484C43.033 27.7382 43.4017 27.8912 43.6736 28.1631C43.9456 28.4351 44.0986 28.8038 44.099 29.1884V55.4446Z" fill="white"/>
<path d="M40.9076 32.0896C40.5229 32.0896 40.1539 32.2424 39.8819 32.5145C39.6099 32.7865 39.457 33.1555 39.457 33.5402V51.0927C39.457 51.4774 39.6099 51.8464 39.8819 52.1184C40.1539 52.3905 40.5229 52.5433 40.9076 52.5433C41.2924 52.5433 41.6613 52.3905 41.9334 52.1184C42.2054 51.8464 42.3583 51.4774 42.3583 51.0927V33.5402C42.3583 33.1555 42.2054 32.7865 41.9334 32.5145C41.6613 32.2424 41.2924 32.0896 40.9076 32.0896V32.0896Z" fill="white"/>
<path d="M13.6357 22.3705C13.2509 22.3705 12.882 22.5233 12.6099 22.7954C12.3379 23.0674 12.1851 23.4364 12.1851 23.8211V32.0896C12.1851 32.4743 12.3379 32.8433 12.6099 33.1154C12.882 33.3874 13.2509 33.5402 13.6357 33.5402C14.0204 33.5402 14.3894 33.3874 14.6614 33.1154C14.9335 32.8433 15.0863 32.4743 15.0863 32.0896V23.8211C15.0863 23.4364 14.9335 23.0674 14.6614 22.7954C14.3894 22.5233 14.0204 22.3705 13.6357 22.3705Z" fill="white"/>
<path d="M15.2319 53.9939C15.6166 53.9939 15.9856 53.8411 16.2576 53.569C16.5297 53.297 16.6825 52.928 16.6825 52.5433V41.0834C16.6825 40.6987 16.5297 40.3297 16.2576 40.0577C15.9856 39.7856 15.6166 39.6328 15.2319 39.6328C14.8471 39.6328 14.4782 39.7856 14.2061 40.0577C13.9341 40.3297 13.7812 40.6987 13.7812 41.0834V52.5433C13.7813 52.928 13.9341 53.297 14.2061 53.569C14.4782 53.8411 14.8471 53.9939 15.2319 53.9939V53.9939Z" fill="white"/>
</svg>
