<svg width="24" height="24" viewBox="0 0 24 24" fill="none" xmlns="http://www.w3.org/2000/svg">
<path d="M7.68281 2.79385C6.02289 4.45801 5.03311 6.67471 4.90205 9.02164C4.77098 11.3686 5.50779 13.6817 6.97209 15.5204L4.34956 18.1467L1.50671 15.3036L0 16.8104L2.84285 19.6536L0.472624 22.0205L1.97934 23.5273L4.34956 21.1569L7.19241 24L8.69557 22.5002L5.85272 19.6571L8.4717 17.0379C9.91396 18.1893 11.6585 18.8987 13.4949 19.0806C15.3313 19.2624 17.1812 18.909 18.8212 18.063C20.4613 17.2169 21.8215 15.9143 22.7378 14.3123C23.6542 12.7103 24.0874 10.8774 23.9854 9.03465C23.8833 7.1919 23.2503 5.41805 22.1627 3.92708C21.075 2.43611 19.5793 1.29172 17.8558 0.631959C16.1324 -0.0277993 14.2548 -0.174738 12.4497 0.208867C10.6447 0.592472 8.9891 1.49023 7.68281 2.79385ZM19.7116 14.8096C18.6719 15.8457 17.3485 16.5505 15.9085 16.8349C14.4686 17.1194 12.9766 16.9707 11.6211 16.4078C10.2655 15.8448 9.10717 14.8928 8.29227 13.6719C7.47736 12.451 7.04245 11.016 7.04245 9.54805C7.04245 8.08013 7.47736 6.64512 8.29227 5.42423C9.10717 4.20333 10.2655 3.2513 11.6211 2.68833C12.9766 2.12537 14.4686 1.97672 15.9085 2.26116C17.3485 2.5456 18.6719 3.25038 19.7116 4.28649C20.4028 4.97727 20.9512 5.7975 21.3253 6.7003C21.6994 7.60311 21.8919 8.57079 21.8919 9.54805C21.8919 10.5253 21.6994 11.493 21.3253 12.3958C20.9512 13.2986 20.4028 14.1188 19.7116 14.8096Z" fill="white"/>
</svg>
