<svg width="38" height="46" viewBox="0 0 38 46" fill="none" xmlns="http://www.w3.org/2000/svg">
<path d="M18.8382 24.7861C18.8845 24.7861 18.9307 24.7861 18.9862 24.7861C19.0047 24.7861 19.0232 24.7861 19.0417 24.7861C19.0695 24.7861 19.1065 24.7861 19.1342 24.7861C21.8449 24.7385 24.0374 23.7573 25.6564 21.8807C29.2181 17.7465 28.626 10.6594 28.5613 9.98302C28.33 4.90578 25.9987 2.4767 24.0744 1.34314C22.6405 0.495341 20.966 0.0381031 19.0972 0H19.0325C19.0232 0 19.0047 0 18.9955 0H18.94C17.9131 0 15.8963 0.171464 13.9628 1.30503C12.02 2.4386 9.65172 4.86768 9.42044 9.98302C9.35568 10.6594 8.7636 17.7465 12.3253 21.8807C13.935 23.7573 16.1276 24.7385 18.8382 24.7861ZM11.8905 10.2212C11.8905 10.1926 11.8998 10.164 11.8998 10.145C12.2051 3.31497 16.9139 2.58149 18.9307 2.58149H18.9677C18.9862 2.58149 19.014 2.58149 19.0417 2.58149C21.5396 2.63864 25.7859 3.68648 26.0727 10.145C26.0727 10.1735 26.0727 10.2021 26.0819 10.2212C26.0912 10.2878 26.7388 16.7654 23.7969 20.1756C22.6312 21.5283 21.077 22.1951 19.0325 22.2141C19.014 22.2141 19.0047 22.2141 18.9862 22.2141C18.9677 22.2141 18.9585 22.2141 18.94 22.2141C16.9047 22.1951 15.3412 21.5283 14.1848 20.1756C11.2522 16.7844 11.8813 10.2783 11.8905 10.2212Z" fill="white"/>
<path d="M37.9974 36.5409C37.9974 36.5314 37.9974 36.5219 37.9974 36.5123C37.9974 36.4361 37.9882 36.3599 37.9882 36.2742C37.9327 34.3881 37.8124 29.9776 33.7973 28.5678C33.7696 28.5583 33.7326 28.5488 33.7048 28.5393C29.5325 27.4438 26.0633 24.9671 26.0263 24.9385C25.462 24.5289 24.6849 24.6718 24.2871 25.2529C23.8892 25.8339 24.028 26.6341 24.5923 27.0437C24.7496 27.158 28.4316 29.7967 33.0387 31.016C35.1943 31.8066 35.4348 34.1785 35.4996 36.3504C35.4996 36.4361 35.4996 36.5123 35.5088 36.5885C35.5181 37.4459 35.4626 38.7699 35.3145 39.532C33.8158 40.4084 27.9413 43.4376 19.0046 43.4376C10.1049 43.4376 4.19334 40.3988 2.68538 39.5225C2.53736 38.7604 2.4726 37.4363 2.4911 36.579C2.4911 36.5028 2.50036 36.4266 2.50036 36.3409C2.56511 34.169 2.80565 31.7971 4.96119 31.0064C9.56831 29.7871 13.2503 27.139 13.4076 27.0342C13.9719 26.6246 14.1107 25.8244 13.7129 25.2433C13.3151 24.6623 12.538 24.5194 11.9736 24.929C11.9366 24.9576 8.48592 27.4343 4.2951 28.5297C4.25809 28.5393 4.23034 28.5488 4.20259 28.5583C0.187543 29.9776 0.0672768 34.3881 0.0117693 36.2647C0.0117693 36.3504 0.0117691 36.4266 0.00251786 36.5028C0.00251786 36.5123 0.00251786 36.5219 0.00251786 36.5314C-0.00673339 37.0267 -0.0159844 39.5701 0.474332 40.8466C0.566844 41.0942 0.733367 41.3038 0.955397 41.4467C1.23293 41.6372 7.88458 46 19.0138 46C30.1431 46 36.7947 41.6277 37.0723 41.4467C37.2851 41.3038 37.4608 41.0942 37.5533 40.8466C38.0159 39.5796 38.0067 37.0362 37.9974 36.5409Z" fill="white"/>
</svg>
