<svg width="90" height="90" viewBox="0 0 90 90" fill="none" xmlns="http://www.w3.org/2000/svg">
<path fill-rule="evenodd" clip-rule="evenodd" d="M0 4C0 1.79086 1.79086 0 4 0H86C88.2091 0 90 1.79086 90 4V86C90 88.2091 88.2091 90 86 90H4C1.79086 90 0 88.2091 0 86V4ZM68.9874 35.3376C68.9805 35.1709 68.9473 35.0064 68.889 34.8501C68.8862 34.8425 68.8836 34.835 68.8812 34.8274C68.8792 34.8211 68.8772 34.8149 68.8752 34.8086L68.8752 34.8085C68.8684 34.7867 68.8616 34.7651 68.852 34.744C68.848 34.735 68.8453 34.7256 68.8426 34.7163L68.8426 34.7162C68.8394 34.7054 68.8363 34.6946 68.8312 34.6843L62.4312 21.8843C62.2983 21.6186 62.094 21.3951 61.8412 21.2389C61.5884 21.0827 61.2971 21 61 21H29C28.7029 21 28.4116 21.0827 28.1588 21.2389C27.906 21.3951 27.7017 21.6186 27.5688 21.8843L21.1688 34.6843C21.1637 34.6946 21.1605 34.7054 21.1574 34.7163C21.1547 34.7256 21.152 34.735 21.148 34.744C21.1381 34.7652 21.1314 34.787 21.1246 34.809C21.1203 34.8227 21.1161 34.8364 21.111 34.8501C21.0527 35.0064 21.0195 35.1709 21.0126 35.3376C21.0122 35.3481 21.0093 35.3577 21.0064 35.3674C21.0032 35.3779 21 35.3884 21 35.4V38.6C21.0014 39.8726 21.5076 41.0927 22.4074 41.9926C23.3073 42.8924 24.5274 43.3986 25.8 43.4C26.3463 43.3946 26.8876 43.2949 27.4 43.1051V59.4H62.6V43.1051C63.1124 43.2948 63.6537 43.3945 64.2 43.4C65.4726 43.3986 66.6927 42.8924 67.5926 41.9926C68.4924 41.0927 68.9986 39.8726 69 38.6V35.4C69 35.3884 68.9968 35.3779 68.9936 35.3674C68.992 35.362 68.9904 35.3565 68.9892 35.351C68.9882 35.3466 68.9876 35.3422 68.9874 35.3376ZM30.6 53V43.1051C31.4096 43.4081 32.2877 43.4794 33.1356 43.311C33.9835 43.1425 34.7677 42.741 35.4 42.1515C36.2723 42.9544 37.4145 43.4 38.6 43.4C39.7855 43.4 40.9277 42.9544 41.8 42.1515C42.6723 42.9544 43.8145 43.4 45 43.4C46.1855 43.4 47.3277 42.9544 48.2 42.1515C49.0723 42.9544 50.2145 43.4 51.4 43.4C52.5855 43.4 53.7277 42.9544 54.6 42.1515C55.2323 42.741 56.0165 43.1425 56.8644 43.311C57.7123 43.4794 58.5904 43.4081 59.4 43.1051V53H30.6ZM53 37V38.6C53 39.0243 52.8314 39.4313 52.5314 39.7314C52.2313 40.0314 51.8243 40.2 51.4 40.2C50.9757 40.2 50.5687 40.0314 50.2686 39.7314C49.9686 39.4313 49.8 39.0243 49.8 38.6V37H53ZM46.6 37V38.6C46.6 39.0243 46.4314 39.4313 46.1314 39.7314C45.8313 40.0314 45.4243 40.2 45 40.2C44.5757 40.2 44.1687 40.0314 43.8686 39.7314C43.5686 39.4313 43.4 39.0243 43.4 38.6V37H46.6ZM40.2 37V38.6C40.2 39.0243 40.0314 39.4313 39.7314 39.7314C39.4313 40.0314 39.0243 40.2 38.6 40.2C38.1757 40.2 37.7687 40.0314 37.4686 39.7314C37.1686 39.4313 37 39.0243 37 38.6V37H40.2ZM33.8 37V38.6C33.8 39.0243 33.6314 39.4313 33.3314 39.7314C33.0313 40.0314 32.6243 40.2 32.2 40.2C31.7757 40.2 31.3687 40.0314 31.0686 39.7314C30.7686 39.4313 30.6 39.0243 30.6 38.6V37H33.8ZM59.4 38.6C59.4 39.0243 59.2314 39.4313 58.9314 39.7314C58.6313 40.0314 58.2243 40.2 57.8 40.2C57.3757 40.2 56.9687 40.0314 56.6686 39.7314C56.3686 39.4313 56.2 39.0243 56.2 38.6V37H59.4V38.6ZM25.8 40.2C25.3758 40.1996 24.969 40.0309 24.6691 39.7309C24.3691 39.431 24.2004 39.0242 24.2 38.6V37H27.4V38.6C27.3996 39.0242 27.2309 39.431 26.931 39.7309C26.631 40.0309 26.2242 40.1996 25.8 40.2ZM65.8 38.6C65.8 39.0243 65.6314 39.4313 65.3314 39.7314C65.0313 40.0314 64.6243 40.2 64.2 40.2C63.7757 40.2 63.3687 40.0314 63.0686 39.7314C62.7686 39.4313 62.6 39.0243 62.6 38.6V37H65.8V38.6ZM27.8686 68.5314C27.5686 68.2313 27.4 67.8243 27.4 67.4V62.6H62.6V67.4C62.6 67.8243 62.4314 68.2313 62.1314 68.5314C61.8313 68.8314 61.4243 69 61 69H29C28.5757 69 28.1687 68.8314 27.8686 68.5314Z" fill="white"/>
</svg>
