<svg width="36" height="36" viewBox="0 0 36 36" fill="none" xmlns="http://www.w3.org/2000/svg">
<path d="M31.2 14.22C31.2 21.9079 18 35.1 18 35.1C18 35.1 4.80002 21.9079 4.80002 14.22C4.80002 6.5322 10.71 0.300049 18 0.300049C25.29 0.300049 31.2 6.5322 31.2 14.22Z" fill="#1081E0"/>
<path d="M18 23.7C23.6333 23.7 28.2 19.1333 28.2 13.5C28.2 7.86669 23.6333 3.29999 18 3.29999C12.3667 3.29999 7.79998 7.86669 7.79998 13.5C7.79998 19.1333 12.3667 23.7 18 23.7Z" fill="white"/>
<path d="M35.4 35.7H33C32.6689 35.7 32.4001 35.4312 32.4001 35.1C32.4001 34.7688 32.6689 34.5 33 34.5H35.4C35.7312 34.5 36 34.7688 36 35.1C36 35.4312 35.7312 35.7 35.4 35.7Z" fill="#7383BF"/>
<path d="M14.4 35.7H0.599976C0.268805 35.7 0 35.4312 0 35.1C0 34.7688 0.268805 34.5 0.599976 34.5H14.4C14.7312 34.5 15 34.7688 15 35.1C15 35.4312 14.7312 35.7 14.4 35.7Z" fill="#7383BF"/>
<path d="M28.8 35.7H21.6C21.2688 35.7 21 35.4312 21 35.1C21 34.7688 21.2688 34.5 21.6 34.5H28.8C29.1312 34.5 29.4 34.7688 29.4 35.1C29.4 35.4312 29.1312 35.7 28.8 35.7Z" fill="#7383BF"/>
<path d="M19.2 7.50003H15.6H14.4V19.5001H16.8V14.7H19.2C21.1878 14.7 22.8 13.0884 22.8 11.1C22.8 9.11166 21.1878 7.50003 19.2 7.50003ZM19.2 12.3H16.8V9.90001H19.2C19.8624 9.90001 20.4 10.437 20.4 11.1C20.4 11.763 19.8624 12.3 19.2 12.3Z" fill="#1081E0"/>
<path d="M18 35.1001C18 35.1001 18.2202 34.8793 18.6 34.4838V29.7001C18.6 29.3689 18.3312 29.1001 18 29.1001C17.6688 29.1001 17.4 29.3689 17.4 29.7001V34.4838C17.7798 34.8793 18 35.1001 18 35.1001Z" fill="#1F436D"/>
</svg>
