<svg width="26" height="26" viewBox="0 0 26 26" fill="none" xmlns="http://www.w3.org/2000/svg">
<g clip-path="url(#clip0)">
<path d="M25.8383 9.14413C25.5211 6.97226 24.3778 5.45522 22.3022 4.67011C21.4817 4.36003 20.6369 4.14804 19.774 4.0066C17.5073 3.63658 15.2217 3.56578 12.7726 3.585C11.4909 3.56755 10.0535 3.60706 8.61695 3.7217C7.15602 3.83842 5.7066 4.02214 4.30203 4.45555C2.32887 5.06425 0.871525 6.2149 0.335988 8.30745C0.145248 9.0526 0.0322163 9.81001 0.0152111 10.5791C-0.027327 12.503 0.0114771 14.4253 0.232847 16.3383C0.378526 17.597 0.634613 18.831 1.23358 19.9669C1.77436 20.9923 2.56447 21.7542 3.68167 22.0914C5.21294 22.5541 6.75945 22.5264 8.27614 22.0111C9.29711 21.6645 10.0052 20.8896 10.6909 20.1014C11.0152 19.7279 11.3141 19.3309 11.72 19.0334C12.5835 18.399 13.5211 18.4128 14.3518 19.0939C14.9309 19.5684 15.3532 20.1906 15.8677 20.7261C16.5183 21.4031 17.256 21.9402 18.1802 22.1636C19.413 22.4616 20.6568 22.4928 21.8977 22.2126C23.088 21.944 23.9871 21.2655 24.6156 20.2201C25.0404 19.5139 25.2979 18.7447 25.4845 17.9488C25.7797 16.6922 25.8753 15.4115 25.9286 14.1252C25.9977 12.4623 26.0797 10.8003 25.8383 9.14413ZM10.6444 16.9658C9.41852 16.914 8.20075 17.1139 6.96836 17.0104C5.33753 16.8741 4.14923 16.1146 3.31951 14.7376C3.09098 14.3591 3.13876 14.1364 3.51838 13.9401C4.58289 13.3892 5.69383 12.9983 7.04627 13.0035C7.79243 12.9686 8.59253 13.1996 9.29489 13.7315C10.244 14.45 10.7089 15.4688 11.0081 16.5791C11.083 16.8561 10.8904 16.9766 10.6444 16.9658ZM22.6941 14.7376C21.8641 16.1146 20.6762 16.8743 19.0455 17.0104C17.813 17.1142 16.5949 16.914 15.3692 16.9658C15.1232 16.9766 14.9306 16.8561 15.0053 16.5789C15.3049 15.4688 15.7689 14.45 16.7185 13.7313C17.4211 13.1993 18.2211 12.9683 18.9668 13.0033C20.3189 12.998 21.4307 13.3892 22.4949 13.9398C22.8752 14.1364 22.922 14.3591 22.6941 14.7376Z" fill="#F04E27"/>
</g>
<defs>
<clipPath id="clip0">
<rect width="26" height="26" fill="white"/>
</clipPath>
</defs>
</svg>
