<svg version="1.2" xmlns="http://www.w3.org/2000/svg" viewBox="0 0 60 60" width="60" height="60">
	<title>mask-svg</title>
	<style>
		.s0 { fill: #ffffff } 
	</style>
	<g id="Layer" style="opacity: .2">
		<path id="Layer" fill-rule="evenodd" class="s0" d="m49.9 19.2c-0.8 3.7-3.6 10-7.3 11.3-3.5 1.2-6.6 0.2-9.2-2.4-2.9-2.9-3.9-2.9-6.8 0-2.6 2.6-5.7 3.6-9.3 2.4-3.5-1.3-6.4-7.6-7.2-11.3-0.3-1.1 0.3-1.4 1.3-2.4 2.1-2 5.8-3.9 9.1-3.8h19c5.9 0 5.4 0.6 9.1 3.4 1.2 1.1 1.6 1.7 1.3 2.8zm-24.5 4.6c-1.7-3.7-5.6-5.1-9.3-3.1 1.7 3.8 5.6 5.1 9.3 3.1zm18.5-3.1c-3.7-2-7.6-0.6-9.3 3.1 3.7 2 7.5 0.7 9.3-3.1z"/>
	</g>
</svg>