<svg width="124" height="26" viewBox="0 0 124 26" fill="none" xmlns="http://www.w3.org/2000/svg">
<rect width="26" height="26" rx="2" fill="url(#paint0_radial_60_59988)"/>
<g clip-path="url(#clip0_60_59988)">
<path d="M11.7761 19.5H11.308C10.6111 19.5052 9.99736 19.0267 9.83092 18.3453L9.18081 15.6981H10.533L11.4068 15.8957L11.7761 17.3884C12.2649 17.3884 12.6862 17.716 12.8058 18.1893C12.9671 18.8602 12.4626 19.5 11.7761 19.5ZM6.76758 10.6844V13.3473C6.76758 14.3563 7.58933 15.178 8.60351 15.178H10.3302V8.85368H8.60351C7.58933 8.85368 6.76758 9.67023 6.76758 10.6844ZM10.8503 8.79648V15.2352L17.2162 16.6707V7.36103L10.8503 8.79648ZM19.2332 16.7808V7.24765C19.2332 6.83474 18.8985 6.5 18.4856 6.5C18.0727 6.5 17.7379 6.83474 17.7379 7.24765V16.7808C17.7379 17.1937 18.0727 17.5284 18.4856 17.5284C18.8985 17.5284 19.2332 17.1937 19.2332 16.7808Z" fill="white"/>
</g>
<rect x="31" width="93" height="26" rx="1" fill="url(#paint1_radial_60_59988)" fill-opacity="0.25"/>
<path d="M48.08 8.2V18H47.1V9.684L43.67 15.424H43.53L40.1 9.684V18H39.12V8.2H40.338L43.6 13.66L46.862 8.2H48.08ZM53.4113 10.832C54.4473 10.832 55.2826 11.2007 55.9173 11.938C56.5613 12.666 56.8833 13.5293 56.8833 14.528C56.8833 14.6307 56.8739 14.7753 56.8553 14.962H50.7093C50.8026 15.6713 51.1013 16.236 51.6053 16.656C52.1186 17.0667 52.7486 17.272 53.4953 17.272C54.0273 17.272 54.4846 17.1647 54.8673 16.95C55.2593 16.726 55.5533 16.4367 55.7493 16.082L56.5613 16.558C56.2533 17.0527 55.8333 17.4447 55.3013 17.734C54.7693 18.0233 54.1626 18.168 53.4813 18.168C52.3799 18.168 51.4839 17.8227 50.7933 17.132C50.1026 16.4413 49.7573 15.564 49.7573 14.5C49.7573 13.4547 50.0979 12.582 50.7793 11.882C51.4606 11.182 52.3379 10.832 53.4113 10.832ZM53.4113 11.728C52.6833 11.728 52.0719 11.9473 51.5773 12.386C51.0919 12.8153 50.8026 13.3753 50.7093 14.066H55.9313C55.8379 13.3287 55.5533 12.7547 55.0773 12.344C54.6013 11.9333 54.0459 11.728 53.4113 11.728ZM64.373 11H65.297V17.72C65.297 18.728 64.9517 19.5213 64.261 20.1C63.5704 20.6787 62.7444 20.968 61.783 20.968C60.1404 20.968 59.0344 20.3987 58.465 19.26L59.277 18.798C59.697 19.6473 60.5324 20.072 61.783 20.072C62.5857 20.072 63.2157 19.8573 63.673 19.428C64.1397 19.008 64.373 18.4387 64.373 17.72V16.628C63.729 17.6547 62.7864 18.168 61.545 18.168C60.5464 18.168 59.6924 17.8133 58.983 17.104C58.283 16.3947 57.933 15.5267 57.933 14.5C57.933 13.4733 58.283 12.6053 58.983 11.896C59.6924 11.1867 60.5464 10.832 61.545 10.832C62.7864 10.832 63.729 11.3453 64.373 12.372V11ZM59.655 16.474C60.187 17.006 60.8404 17.272 61.615 17.272C62.3897 17.272 63.043 17.006 63.575 16.474C64.107 15.9327 64.373 15.2747 64.373 14.5C64.373 13.7253 64.107 13.072 63.575 12.54C63.043 11.9987 62.3897 11.728 61.615 11.728C60.8404 11.728 60.187 11.9987 59.655 12.54C59.123 13.072 58.857 13.7253 58.857 14.5C58.857 15.2747 59.123 15.9327 59.655 16.474ZM73.2734 11H74.1974V18H73.2734V16.628C72.6294 17.6547 71.6868 18.168 70.4454 18.168C69.4468 18.168 68.5928 17.8133 67.8834 17.104C67.1834 16.3947 66.8334 15.5267 66.8334 14.5C66.8334 13.4733 67.1834 12.6053 67.8834 11.896C68.5928 11.1867 69.4468 10.832 70.4454 10.832C71.6868 10.832 72.6294 11.3453 73.2734 12.372V11ZM68.5554 16.474C69.0874 17.006 69.7408 17.272 70.5154 17.272C71.2901 17.272 71.9434 17.006 72.4754 16.474C73.0074 15.9327 73.2734 15.2747 73.2734 14.5C73.2734 13.7253 73.0074 13.072 72.4754 12.54C71.9434 11.9987 71.2901 11.728 70.5154 11.728C69.7408 11.728 69.0874 11.9987 68.5554 12.54C68.0234 13.072 67.7574 13.7253 67.7574 14.5C67.7574 15.2747 68.0234 15.9327 68.5554 16.474ZM79.9058 10.832C80.9045 10.832 81.7538 11.1867 82.4538 11.896C83.1632 12.6053 83.5178 13.4733 83.5178 14.5C83.5178 15.5267 83.1632 16.3947 82.4538 17.104C81.7538 17.8133 80.9045 18.168 79.9058 18.168C78.6645 18.168 77.7218 17.6547 77.0778 16.628V20.8H76.1538V11H77.0778V12.372C77.7218 11.3453 78.6645 10.832 79.9058 10.832ZM77.8758 16.474C78.4078 17.006 79.0612 17.272 79.8358 17.272C80.6105 17.272 81.2638 17.006 81.7958 16.474C82.3278 15.9327 82.5938 15.2747 82.5938 14.5C82.5938 13.7253 82.3278 13.072 81.7958 12.54C81.2638 11.9987 80.6105 11.728 79.8358 11.728C79.0612 11.728 78.4078 11.9987 77.8758 12.54C77.3438 13.072 77.0778 13.7253 77.0778 14.5C77.0778 15.2747 77.3438 15.9327 77.8758 16.474ZM88.3302 10.832C89.1796 10.832 89.8469 11.0933 90.3322 11.616C90.8269 12.1293 91.0742 12.8247 91.0742 13.702V18H90.1502V13.702C90.1502 13.0767 89.9822 12.5913 89.6462 12.246C89.3196 11.9007 88.8529 11.728 88.2462 11.728C87.5742 11.728 87.0282 11.9427 86.6082 12.372C86.1882 12.792 85.9782 13.4453 85.9782 14.332V18H85.0542V8.2H85.9782V12.092C86.5009 11.252 87.2849 10.832 88.3302 10.832ZM98.7269 17.118C98.0175 17.818 97.1495 18.168 96.1229 18.168C95.0962 18.168 94.2235 17.818 93.5049 17.118C92.7955 16.4087 92.4409 15.536 92.4409 14.5C92.4409 13.464 92.7955 12.596 93.5049 11.896C94.2235 11.1867 95.0962 10.832 96.1229 10.832C97.1495 10.832 98.0175 11.1867 98.7269 11.896C99.4455 12.596 99.8049 13.464 99.8049 14.5C99.8049 15.536 99.4455 16.4087 98.7269 17.118ZM94.1629 16.474C94.6949 17.006 95.3482 17.272 96.1229 17.272C96.8975 17.272 97.5509 17.006 98.0829 16.474C98.6149 15.9327 98.8809 15.2747 98.8809 14.5C98.8809 13.7253 98.6149 13.072 98.0829 12.54C97.5509 11.9987 96.8975 11.728 96.1229 11.728C95.3482 11.728 94.6949 11.9987 94.1629 12.54C93.6309 13.072 93.3649 13.7253 93.3649 14.5C93.3649 15.2747 93.6309 15.9327 94.1629 16.474ZM104.627 10.832C105.476 10.832 106.144 11.0933 106.629 11.616C107.124 12.1293 107.371 12.8247 107.371 13.702V18H106.447V13.702C106.447 13.0767 106.279 12.5913 105.943 12.246C105.616 11.9007 105.15 11.728 104.543 11.728C103.871 11.728 103.325 11.9427 102.905 12.372C102.485 12.792 102.275 13.4453 102.275 14.332V18H101.351V11H102.275V12.092C102.798 11.252 103.582 10.832 104.627 10.832ZM112.392 10.832C113.428 10.832 114.263 11.2007 114.898 11.938C115.542 12.666 115.864 13.5293 115.864 14.528C115.864 14.6307 115.854 14.7753 115.836 14.962H109.69C109.783 15.6713 110.082 16.236 110.586 16.656C111.099 17.0667 111.729 17.272 112.476 17.272C113.008 17.272 113.465 17.1647 113.848 16.95C114.24 16.726 114.534 16.4367 114.73 16.082L115.542 16.558C115.234 17.0527 114.814 17.4447 114.282 17.734C113.75 18.0233 113.143 18.168 112.462 18.168C111.36 18.168 110.464 17.8227 109.774 17.132C109.083 16.4413 108.738 15.564 108.738 14.5C108.738 13.4547 109.078 12.582 109.76 11.882C110.441 11.182 111.318 10.832 112.392 10.832ZM112.392 11.728C111.664 11.728 111.052 11.9473 110.558 12.386C110.072 12.8153 109.783 13.3753 109.69 14.066H114.912C114.818 13.3287 114.534 12.7547 114.058 12.344C113.582 11.9333 113.026 11.728 112.392 11.728Z" fill="white"/>
<defs>
<radialGradient id="paint0_radial_60_59988" cx="0" cy="0" r="1" gradientUnits="userSpaceOnUse" gradientTransform="translate(13 13) rotate(90) scale(25)">
<stop stop-color="#DFC55F"/>
<stop offset="1" stop-color="#DFDD5F" stop-opacity="0"/>
</radialGradient>
<radialGradient id="paint1_radial_60_59988" cx="0" cy="0" r="1" gradientUnits="userSpaceOnUse" gradientTransform="translate(77.5 13) rotate(90) scale(25 89.4231)">
<stop stop-color="white"/>
<stop offset="1" stop-color="white" stop-opacity="0"/>
</radialGradient>
<clipPath id="clip0_60_59988">
<rect width="13" height="13" fill="white" transform="translate(6.5 6.5)"/>
</clipPath>
</defs>
</svg>
