<svg width="60" height="60" viewBox="0 0 60 60" fill="none" xmlns="http://www.w3.org/2000/svg">
<g clip-path="url(#clip0_2844_6737)">
<path d="M25.0081 33.2753C26.8825 35.3465 27.7304 34.6191 29.7143 36.8819C30.7852 38.087 31.1052 38.941 31.3876 39.6944C31.6116 40.2922 31.8098 40.821 32.3907 41.5597L35.1526 37.292C33.1968 35.0895 33.9932 34.3314 32.1755 32.253C30.301 30.1817 29.4531 30.9091 27.4692 28.6463C26.3983 27.4413 26.0783 26.5873 25.796 25.8339C25.572 25.2361 25.3737 24.7074 24.793 23.9688L22.031 28.2364C23.9865 30.4384 23.1906 31.1972 25.0081 33.2753Z" fill="#99E052" fill-opacity="0.9"/>
<path d="M27.373 25.2413C27.8435 26.7889 29.3628 28.4947 30.8381 29.1406C32.6429 29.936 34.5308 32.0621 35.1076 33.9454C35.3316 34.5431 35.5299 35.0719 36.1107 35.8106L40.9677 28.3058L40.261 27.8485C39.4562 27.3513 39.3249 25.8907 39.6299 24.967L40.7767 25.7092L41.6913 24.2959L37.6894 21.706L37.9549 18.7367L36.2782 18.5868L36.0918 20.6721L30.7623 17.2229L29.8477 18.6362L31.1829 19.5003C30.4654 20.1568 29.0786 20.6354 28.2957 20.1048L27.589 19.6475L25.7512 22.4873C26.7806 23.6615 27.0953 24.5002 27.373 25.2413Z" fill="#99E052" fill-opacity="0.9"/>
<path d="M29.8119 40.2841C29.3415 38.7365 27.8221 37.0307 26.3467 36.3847C24.5418 35.5891 22.6541 33.4633 22.0773 31.58C21.8533 30.9823 21.655 30.4535 21.0742 29.7148L17.2239 35.6643L18.3732 39.4169L26.7084 44.8112L30.6025 44.3227L31.4339 43.0381C30.4044 41.8639 30.0896 41.0252 29.8119 40.2841Z" fill="#99E052" fill-opacity="0.9"/>
</g>
<circle cx="30" cy="30" r="29" stroke="#99E052" stroke-opacity="0.9" stroke-width="2"/>
<defs>
<clipPath id="clip0_2844_6737">
<rect width="28" height="28" fill="white" transform="translate(26 11) rotate(32.91)"/>
</clipPath>
</defs>
</svg>
