<svg width="58" height="58" viewBox="0 0 58 58" fill="none" xmlns="http://www.w3.org/2000/svg">
<path d="M28.9336 26.3699C28.1011 26.3699 27.4768 25.6778 27.4768 24.9165V19.1718C27.4768 18.3413 28.1705 17.7184 28.9336 17.7184C29.6966 17.7184 30.3903 18.4105 30.3903 19.1718V24.9165C30.3903 25.747 29.766 26.3699 28.9336 26.3699ZM28.3092 46.2339C22.1352 46.2339 17.1405 41.2506 17.1405 35.0907V22.9093C17.1405 17.0263 21.719 12.2506 27.4768 11.8353V1.45346C27.4768 0.622911 28.1705 0 28.9336 0C44.9583 0 58 13.0119 58 29C58 44.9881 44.9583 58 28.9336 58C28.1011 58 27.4768 57.3079 27.4768 56.5465C27.4768 55.716 28.1705 55.0931 28.9336 55.0931C43.3627 55.0931 55.0864 43.3962 55.0864 29C55.0864 15.0883 44.1258 3.73747 30.3903 2.97613V11.8353C36.1481 12.2506 40.7266 17.0955 40.7266 22.9093V35.0907C40.7266 41.2506 35.7319 46.2339 29.5579 46.2339H28.3092ZM28.3092 43.327H29.5579C34.067 43.327 37.813 39.6587 37.813 35.0907V22.9093C37.813 18.4105 34.1364 14.673 29.5579 14.673H28.3092C23.8001 14.673 20.0541 18.3413 20.0541 22.9093V35.0907C20.1234 39.5895 23.8001 43.327 28.3092 43.327ZM10.5502 6.99045C10.134 6.99045 9.78715 7.12888 9.50967 7.40573C9.23219 7.68258 9.09344 8.02864 9.09344 8.44391C9.09344 8.85919 9.23219 9.20525 9.50967 9.4821C9.78715 9.75895 10.134 9.89737 10.5502 9.89737C10.9665 9.89737 11.3133 9.75895 11.5908 9.4821C11.8683 9.20525 12.007 8.85919 12.007 8.44391C12.007 8.02864 11.8683 7.68258 11.5908 7.40573C11.3133 7.12888 10.9665 6.99045 10.5502 6.99045ZM1.60138 32.9451C2.43383 32.8759 2.98879 32.1838 2.91942 31.3532C2.85005 30.5227 2.15634 29.969 1.32389 30.0382C0.491439 30.1074 -0.0635292 30.7995 0.00584181 31.6301C0.0752128 32.3914 0.699552 32.9451 1.46263 32.9451C1.46263 32.9451 1.532 32.9451 1.60138 32.9451ZM3.75188 36.1289C3.54376 35.3675 2.71131 34.8831 1.94823 35.0907C1.18515 35.2983 0.699552 36.1289 0.907665 36.8902C1.11578 37.5823 1.67075 37.9976 2.29509 37.9976C2.43383 37.9976 2.57257 37.9976 2.64194 37.9284C3.47439 37.7208 3.95999 36.9594 3.75188 36.1289ZM2.0176 22.7017C2.15634 22.7709 2.29508 22.7709 2.43383 22.7709C3.05817 22.7709 3.6825 22.3556 3.82125 21.7327C4.02936 20.9714 3.61313 20.1408 2.85005 19.9332C2.08697 19.7255 1.25452 20.1408 1.04641 20.9021C0.768923 21.6635 1.25452 22.494 2.0176 22.7017ZM1.32389 27.8234C1.39326 27.8234 1.39326 27.8234 1.46263 27.8234C2.22571 27.8234 2.85005 27.2697 2.91942 26.5084C2.98879 25.6778 2.43383 24.9857 1.60138 24.9165C0.768923 24.8473 0.0752128 25.401 0.00584181 26.2315C-0.0635292 26.9928 0.491439 27.7542 1.32389 27.8234ZM3.6825 17.8568C3.89062 17.9952 4.09873 17.9952 4.37621 17.9952C4.93118 17.9952 5.41678 17.7184 5.69426 17.1647C6.04112 16.4726 5.76364 15.5728 5.06992 15.1575C4.37621 14.8115 3.47439 15.0883 3.05817 15.7804C2.64194 16.611 2.91942 17.5107 3.6825 17.8568ZM5.41678 40.7661C5.06992 40.0048 4.23747 39.6587 3.47439 40.0048C2.71131 40.3508 2.36446 41.1814 2.71131 41.9427C2.9888 42.4964 3.47439 42.8425 4.02936 42.8425C4.23747 42.8425 4.44559 42.7733 4.6537 42.7041C5.41678 42.358 5.69426 41.5274 5.41678 40.7661ZM19.3604 53.3628C18.5973 53.0859 17.7648 53.5012 17.4873 54.2625C17.2099 55.0239 17.6261 55.8544 18.3892 56.1313C18.5279 56.2005 18.736 56.2005 18.8748 56.2005C19.4991 56.2005 20.0541 55.8544 20.2622 55.2315C20.4703 54.4702 20.1234 53.6396 19.3604 53.3628ZM8.81596 48.7255C8.26099 49.3484 8.33036 50.2482 8.9547 50.8019C9.23219 51.0788 9.57904 51.148 9.9259 51.148C10.3421 51.148 10.7583 51.0095 11.0358 50.6635C11.5908 50.0406 11.5214 49.1408 10.8971 48.5871C10.2727 48.1026 9.37093 48.1026 8.81596 48.7255ZM7.70602 45.0573C7.22043 44.3652 6.3186 44.2267 5.62489 44.7112C4.93118 45.1957 4.79244 46.0955 5.27804 46.7876C5.55552 47.2029 6.04112 47.4105 6.45735 47.4105C6.73483 47.4105 7.01231 47.3413 7.2898 47.1336C8.05288 46.5799 8.19162 45.6802 7.70602 45.0573ZM7.98351 11.0048C7.35917 10.5203 6.38797 10.6587 5.90238 11.2816C5.41678 11.9045 5.55552 12.8735 6.17986 13.358C6.45735 13.5656 6.73483 13.6348 7.08168 13.6348C7.49791 13.6348 7.98351 13.4272 8.26099 13.0811C8.74659 12.4582 8.60785 11.5585 7.98351 11.0048ZM25.2569 56.3389C25.3956 55.5084 24.8407 54.747 24.0776 54.6086C23.2451 54.4702 22.482 55.0239 22.3433 55.7852C22.2046 56.5465 22.7595 57.3771 23.5226 57.5155C23.592 57.5155 23.7307 57.5155 23.8001 57.5155C24.4938 57.5847 25.1181 57.031 25.2569 56.3389ZM14.8512 51.3556C14.1575 50.9403 13.2557 51.2172 12.8395 51.9785C12.4233 52.6706 12.7007 53.5704 13.4638 53.9857C13.6719 54.1241 13.9494 54.1933 14.1575 54.1933C14.7125 54.1933 15.1981 53.9165 15.4756 53.432C15.8224 52.6706 15.5449 51.7709 14.8512 51.3556Z" fill="white"/>
</svg>
