<svg width="32" height="43" viewBox="0 0 32 43" fill="none" xmlns="http://www.w3.org/2000/svg">
<path opacity="0.2" d="M17 3C2 3 2 13.1665 2 23C2 39.5005 10.1665 43 17 43C23.8325 43 32 39.5005 32 23C32 13.1665 32 3 17 3ZM28.417 15.381C25.3625 15.9595 22.035 16.247 18.6665 16.316V6.3855C25.742 6.81 27.8145 10.043 28.417 15.381ZM15.3335 6.3855V16.316C11.964 16.247 8.6375 15.959 5.583 15.381C6.1855 10.043 8.2575 6.81 15.3335 6.3855ZM17 39.6665C5.3335 39.6665 5.3335 27.1665 5.3335 23C5.3335 21.5075 5.3345 20.1015 5.37 18.7825C9.065 19.409 12.9045 19.6665 17 19.6665C21.0955 19.6665 24.935 19.409 28.631 18.7825C28.6655 20.101 28.6665 21.507 28.6665 22.9995C28.6665 27.1665 28.6665 39.6665 17 39.6665Z" fill="white"/>
<path d="M12 12V0C3.29152 0.512965 0.7415 4.41972 0 10.8701C3.75919 11.5686 7.85314 11.9166 12 12Z" fill="white"/>
</svg>
