<svg width="54" height="55" viewBox="0 0 54 55" fill="none" xmlns="http://www.w3.org/2000/svg">
<path opacity="0.2" d="M40.7887 15.1256C30.1821 4.51904 22.9933 11.7078 16.04 18.6612C4.37238 30.3288 7.67245 38.5779 12.5045 43.4099C17.3358 48.2412 25.5856 51.542 37.2532 39.8744C44.2065 32.921 51.3953 25.7322 40.7887 15.1256ZM40.1071 31.9534C37.5382 30.2026 34.982 28.053 32.5513 25.7199L39.5732 18.6979C44.2762 24.0012 43.4556 27.7528 40.1071 31.9534ZM37.2164 16.3412L30.1945 23.3631C27.8607 20.9317 25.7122 18.3759 23.961 15.8073C28.1616 12.4588 31.9128 11.6378 37.2164 16.3412ZM14.8616 41.0528C6.61214 32.8033 15.451 23.9645 18.3971 21.0183C19.4525 19.963 20.4474 18.9695 21.4052 18.0619C23.5749 21.1177 26.1078 24.0147 29.0037 26.9106C31.8997 29.8066 34.7967 32.3395 37.8532 34.5099C36.9453 35.4666 35.9518 36.4615 34.8964 37.5169C31.9499 40.4634 23.1111 49.3022 14.8616 41.0528Z" fill="white"/>
<path d="M30.8892 17.954L39.3744 9.46868C32.8539 3.67358 28.2883 4.63293 23.2028 8.66975C25.3671 11.8218 28.0158 14.9627 30.8892 17.954Z" fill="white"/>
</svg>
