<svg width="52" height="52" viewBox="0 0 52 52" fill="none" xmlns="http://www.w3.org/2000/svg">
<path opacity="0.2" d="M39.7887 12.1422C29.1821 1.53564 21.9933 8.72445 15.04 15.6778C3.37238 27.3454 6.67245 35.5945 11.5045 40.4265C16.3358 45.2578 24.5856 48.5586 36.2532 36.891C43.2065 29.9376 50.3953 22.7488 39.7887 12.1422ZM39.1071 28.97C36.5382 27.2192 33.982 25.0696 31.5513 22.7365L38.5732 15.7145C43.2762 21.0179 42.4556 24.7694 39.1071 28.97ZM36.2164 13.3578L29.1945 20.3797C26.8607 17.9483 24.7122 15.3925 22.961 12.8239C27.1616 9.47539 30.9128 8.65444 36.2164 13.3578ZM13.8616 38.0694C5.61214 29.8199 14.451 20.9811 17.3971 18.0349C18.4525 16.9796 19.4474 15.9861 20.4052 15.0785C22.5749 18.1343 25.1078 21.0313 28.0037 23.9272C30.8997 26.8232 33.7967 29.3561 36.8532 31.5265C35.9453 32.4832 34.9518 33.4781 33.8964 34.5335C30.9499 37.48 22.1111 46.3188 13.8616 38.0694Z" fill="white"/>
<path d="M34.9997 22.4849L43.4849 13.9996C49.28 20.5201 48.3207 25.0858 44.2839 30.1712C41.1318 28.007 37.9909 25.3582 34.9997 22.4849Z" fill="white"/>
</svg>
