<svg width="17" height="24" viewBox="0 0 17 24" fill="none" xmlns="http://www.w3.org/2000/svg">
<path opacity="0.4" d="M8.27197 4.20121e-05C6.72109 0.00465774 5.17205 0.388687 3.66547 1.15028C2.58816 1.69032 1.76656 2.63101 1.37699 3.77017C1.37607 3.77202 1.37607 3.77386 1.37515 3.77571C-0.460991 9.25828 -0.446221 14.7962 1.34653 20.2751C1.34653 20.2751 1.34745 20.277 1.34838 20.2788C1.75548 21.4974 2.65463 22.4916 3.82518 23.0178C3.83072 23.0196 3.83533 23.0215 3.83995 23.0224C5.30867 23.6538 6.80048 23.9991 8.30428 24C8.3089 24 8.31259 24 8.31721 24C8.82401 24 9.24035 23.5837 9.24035 23.0769C9.24035 22.57 8.82401 22.1537 8.31721 22.1537C8.31259 22.1537 8.3089 22.1537 8.30428 22.1537C7.08296 22.1528 5.85056 21.8749 4.5757 21.3275C3.87872 21.0118 3.34422 20.4228 3.10051 19.7L3.09866 19.6963V19.6944C1.4213 14.5627 1.4093 9.49183 3.12451 4.36652C3.35714 3.68524 3.84918 3.12305 4.49446 2.79994L4.49815 2.7981C7.07281 1.49646 9.47945 1.48815 12.0615 2.77871C12.7031 3.10181 13.1923 3.66124 13.4287 4.33975C15.215 9.54445 15.2334 14.6227 13.4785 19.6981C13.2293 20.409 12.7003 20.9896 12.0135 21.3007C12.0116 21.3016 12.0098 21.3016 12.0079 21.3026C11.887 21.3589 11.7652 21.4115 11.6451 21.4613C11.2814 21.5943 11.0386 21.9414 11.0386 22.3282C11.0386 22.835 11.455 23.2523 11.9618 23.2523C12.0956 23.2523 12.2267 23.2227 12.3486 23.1673C12.4908 23.1082 12.6338 23.0464 12.776 22.9808C13.9207 22.462 14.8042 21.4974 15.2205 20.3111C15.2214 20.3093 15.2214 20.3074 15.2223 20.3056C17.1065 14.8599 17.0816 9.2952 15.1734 3.73786L15.1716 3.73417C14.7783 2.60239 13.9604 1.66724 12.8896 1.12905C12.8877 1.12813 12.8859 1.1272 12.8859 1.1272C11.3737 0.371147 9.82286 -0.00457372 8.27197 4.20121e-05Z" fill="white"/>
<path d="M7.5001 5.93607C7.49271 5.43019 7.90351 5.00831 8.40848 5H8.42324C8.93005 5 9.34639 5.41726 9.34639 5.92315V5.93607V9.62866V9.64158C9.34639 10.1484 8.93005 10.5647 8.42324 10.5647C7.91644 10.5647 7.5001 10.1484 7.5001 9.64158V9.62866V5.93607Z" fill="white"/>
</svg>
