<svg width="16" height="23" viewBox="0 0 16 23" fill="none" xmlns="http://www.w3.org/2000/svg">
<g opacity="0.4">
<path d="M7.97544 0.674458C6.58447 0.678752 5.19515 1.03599 3.84392 1.74445C2.87769 2.24681 2.14081 3.12187 1.79141 4.18156C1.79058 4.18327 1.79058 4.18499 1.78975 4.18671C0.142939 9.28677 0.156186 14.4384 1.76408 19.535C1.76491 19.5358 1.76491 19.5367 1.76574 19.5384C2.13087 20.672 2.9373 21.5968 3.98716 22.0863C3.99212 22.088 3.99626 22.0897 4.0004 22.0906C5.31769 22.678 6.65567 22.9991 8.00442 23C8.00856 23 8.01187 23 8.01601 23C8.47056 23 8.84397 22.6127 8.84397 22.1413C8.84397 21.6698 8.47056 21.2825 8.01601 21.2825C8.01187 21.2825 8.00856 21.2825 8.00442 21.2825C6.90903 21.2817 5.8037 21.0232 4.66029 20.5139C4.03518 20.2203 3.55579 19.6724 3.33721 19L3.33555 18.9966C3.33555 18.9957 3.33555 18.9948 3.33555 18.9948C1.83115 14.2211 1.82038 9.50403 3.35873 4.7363C3.56738 4.10255 4.00868 3.57958 4.58743 3.27902C4.58825 3.27816 4.58991 3.27816 4.59074 3.2773C6.89992 2.06648 9.05841 2.05875 11.3742 3.25927C11.9496 3.55983 12.3885 4.08022 12.6004 4.7114C14.2025 9.55298 14.2191 14.2769 12.6451 18.9983C12.4216 19.6595 11.9472 20.1996 11.3312 20.489C11.3295 20.4899 11.3278 20.4899 11.3262 20.4908C11.2177 20.5431 11.1084 20.5921 11.0008 20.6385C10.6746 20.7621 10.4568 21.085 10.4568 21.4448C10.4568 21.9163 10.8302 22.3044 11.2848 22.3044C11.4048 22.3044 11.5224 22.2769 11.6317 22.2254C11.7592 22.1705 11.8875 22.1129 12.0151 22.052C13.0417 21.5693 13.8341 20.672 14.2075 19.5685C14.2083 19.5668 14.2083 19.565 14.2091 19.5633C15.899 14.4976 15.8767 9.32112 14.1653 4.1515C14.1653 4.14978 14.1644 4.14892 14.1636 4.14806C13.8109 3.09525 13.0773 2.22534 12.1169 1.7247C12.1152 1.72384 12.1144 1.72298 12.1136 1.72298C10.7574 1.01967 9.36641 0.670165 7.97544 0.674458V0.674458ZM7.99117 4.09568C7.53828 4.10341 7.16983 4.49585 7.17646 4.96644V8.40141C7.17646 8.4057 7.17646 8.40914 7.17646 8.41343C7.17646 8.88488 7.54987 9.27217 8.00442 9.27217C8.45897 9.27217 8.83238 8.88488 8.83238 8.41343C8.83238 8.40914 8.83238 8.4057 8.83238 8.40141V4.96644C8.83238 4.96215 8.83238 4.95872 8.83238 4.95442C8.83238 4.48383 8.45897 4.09568 8.00442 4.09568C8.00028 4.09568 7.99614 4.09568 7.99117 4.09568Z" fill="white"/>
</g>
</svg>
