<svg width="48" height="47" viewBox="0 0 48 47" fill="none" xmlns="http://www.w3.org/2000/svg">
<path d="M43.2 1.69019V30.55H43.1625C43.5187 33.2513 41.3046 36.2035 37.9874 37.204C34.2465 38.3323 30.2718 36.9784 29.1028 34.045C27.9338 31.1115 30.2718 27.501 34.0127 26.3727C35.502 25.8337 37.0284 25.7239 38.4 25.9863V7.70983L14.4 13.5848V37.6H14.365C14.708 40.3035 12.4965 43.2521 9.18731 44.2529C5.44645 45.3843 1.47182 44.0267 0.302808 41.0851C-0.866208 38.1434 1.47184 34.5229 5.21269 33.3915C6.70201 32.851 8.22837 32.7767 9.6 33.0687V9.91518L43.2 1.69019Z" fill="white"/>
</svg>
