<svg width="188" height="1048" viewBox="0 0 188 1048" fill="none" xmlns="http://www.w3.org/2000/svg">
<path opacity="0.16" d="M161.08 975.66C161.08 998.833 153.38 1017.97 137.98 1033.08C122.58 1048.19 103.587 1055.74 81 1055.74C58.2667 1055.74 39.2733 1048.19 24.02 1033.08C8.61999 1017.97 0.91999 998.833 0.91999 975.66C0.91999 961.727 4.21999 948.893 10.82 937.16C17.2733 925.28 26.0733 916.04 37.22 909.44L52.4 935.62C45.5067 939.433 40.1533 944.86 36.34 951.9C32.38 958.94 30.4 966.86 30.4 975.66C30.4 990.62 35.0933 1002.72 44.48 1011.96C53.8667 1021.05 66.04 1025.6 81 1025.6C95.8133 1025.6 107.913 1021.05 117.3 1011.96C126.687 1002.72 131.38 990.62 131.38 975.66C131.38 966.86 129.473 958.94 125.66 951.9C121.7 944.713 116.347 939.287 109.6 935.62L124.78 909.44C135.927 916.04 144.8 925.207 151.4 936.94C157.853 948.673 161.08 961.58 161.08 975.66ZM158 770.45V805.43L85.84 860.43H158V890.79H3.99999V860.43H71.98L3.99999 807.63L3.99999 772.65L78.8 829.63L158 770.45ZM3.99999 674.595V644.235L115.54 690.435C145.46 702.755 159.613 722.995 158 751.155H129.62C130.353 742.942 129.253 736.342 126.32 731.355C123.24 726.222 118.327 721.968 111.58 718.595L3.99999 768.975L3.99999 738.615L78.36 704.955L3.99999 674.595ZM3.99999 512.761H158V543.121H33.04V597.461H158V627.821H3.99999L3.99999 512.761ZM128.96 305.231V288.731H187.48V319.091H158L158 484.091H3.99999L3.99999 453.731H128.96V409.731H3.99999L3.99999 379.591H128.96L128.96 335.591H3.99999V305.231H128.96ZM158 179.287H64.06L158 245.287V268.387H3.99999V238.027H98.16L3.99999 172.027L3.99999 148.927H158V179.287ZM158 0.0201457V35.0002L85.84 90.0002H158V120.36H3.99999L3.99999 90.0002H71.98L3.99999 37.2002V2.22014L78.8 59.2002L158 0.0201457Z" fill="white"/>
</svg>
