<svg width="162" height="1042" viewBox="0 0 162 1042" fill="none" xmlns="http://www.w3.org/2000/svg">
<path opacity="0.16" d="M3.99999 985.28C3.99999 970.467 8.98666 958 18.96 947.88C28.9333 937.76 41.18 932.7 55.7 932.7C70.22 932.7 82.4667 937.76 92.44 947.88C102.413 958 107.4 970.467 107.4 985.28V1012.34H158V1042.7H3.99999L3.99999 985.28ZM79.02 985.28C79.02 978.827 76.82 973.473 72.42 969.22C67.8733 964.967 62.3 962.84 55.7 962.84C48.9533 962.84 43.38 964.967 38.98 969.22C34.58 973.473 32.38 978.827 32.38 985.28L32.38 1012.34H79.02V985.28ZM158 912.934H3.99999L3.99999 882.574H54.6V855.514C54.6 840.701 59.5867 828.234 69.56 818.114C79.5333 807.994 91.78 802.934 106.3 802.934C120.82 802.934 133.067 807.994 143.04 818.114C153.013 828.234 158 840.701 158 855.514V912.934ZM158 788.854H3.99999V758.714H158V788.854ZM129.62 882.574V855.514C129.62 849.061 127.42 843.708 123.02 839.454C118.62 835.201 113.047 833.074 106.3 833.074C99.5533 833.074 93.98 835.201 89.58 839.454C85.18 843.708 82.98 849.061 82.98 855.514V882.574H129.62ZM62.3 671.142C62.3 656.182 66.7733 643.936 75.72 634.402C84.52 624.869 95.96 620.102 110.04 620.102C124.267 620.102 135.853 624.869 144.8 634.402C153.6 643.936 158 656.182 158 671.142V730.102H3.99999L3.99999 633.302H33.04L33.04 699.742H62.3V671.142ZM129.62 671.142C129.62 665.129 127.933 660.142 124.56 656.182C121.04 652.222 116.2 650.242 110.04 650.242C103.88 650.242 99.1133 652.222 95.74 656.182C92.3667 660.142 90.68 665.129 90.68 671.142V699.742H129.62V671.142ZM137.98 472.905C153.38 488.452 161.08 507.372 161.08 529.665C161.08 551.958 153.38 570.878 137.98 586.425C122.433 601.825 103.44 609.525 81 609.525C58.56 609.525 39.64 601.825 24.24 586.425C8.69332 570.878 0.91999 551.958 0.91999 529.665C0.91999 507.372 8.69332 488.452 24.24 472.905C39.64 457.358 58.56 449.585 81 449.585C103.44 449.585 122.433 457.358 137.98 472.905ZM117.3 565.085C126.687 555.552 131.38 543.745 131.38 529.665C131.38 515.585 126.687 503.778 117.3 494.245C107.767 484.712 95.6667 479.945 81 479.945C66.3333 479.945 54.2333 484.712 44.7 494.245C35.1667 503.778 30.4 515.585 30.4 529.665C30.4 543.745 35.1667 555.552 44.7 565.085C54.2333 574.618 66.3333 579.385 81 579.385C95.6667 579.385 107.767 574.618 117.3 565.085ZM158 448.935H129.84C131.16 439.842 129.327 433.022 124.34 428.475C119.353 423.929 109.6 421.655 95.08 421.655H3.99999L3.99999 316.935H158V347.075H33.04V391.515H94.2C107.547 391.515 118.767 393.129 127.86 396.355C136.953 399.582 143.7 404.055 148.1 409.775C152.5 415.349 155.433 421.362 156.9 427.815C158.367 434.122 158.733 441.162 158 448.935ZM137.98 158.804C153.38 174.35 161.08 193.27 161.08 215.564C161.08 237.857 153.38 256.777 137.98 272.324C122.433 287.724 103.44 295.424 81 295.424C58.56 295.424 39.64 287.724 24.24 272.324C8.69332 256.777 0.91999 237.857 0.91999 215.564C0.91999 193.27 8.69332 174.35 24.24 158.804C39.64 143.257 58.56 135.484 81 135.484C103.44 135.484 122.433 143.257 137.98 158.804ZM117.3 250.984C126.687 241.45 131.38 229.644 131.38 215.564C131.38 201.484 126.687 189.677 117.3 180.144C107.767 170.61 95.6667 165.844 81 165.844C66.3333 165.844 54.2333 170.61 44.7 180.144C35.1667 189.677 30.4 201.484 30.4 215.564C30.4 229.644 35.1667 241.45 44.7 250.984C54.2333 260.517 66.3333 265.284 81 265.284C95.6667 265.284 107.767 260.517 117.3 250.984ZM78.14 21.0853C85.9133 7.59197 97.6467 0.845303 113.34 0.845303C126.393 0.845303 137.1 5.4653 145.46 14.7053C153.82 23.9453 158 35.312 158 48.8053V114.145H3.99999L3.99999 53.4253C3.99999 40.2253 8.10666 29.152 16.32 20.2053C24.3867 11.112 34.7267 6.56531 47.34 6.56531C60.1 6.56531 70.3667 11.4053 78.14 21.0853ZM32.38 53.4253L32.38 83.7853H66.26V53.4253C66.26 48.732 64.6467 44.8453 61.42 41.7653C58.1933 38.5386 54.16 36.9253 49.32 36.9253C44.48 36.9253 40.4467 38.4653 37.22 41.5453C33.9933 44.6253 32.38 48.5853 32.38 53.4253ZM129.62 48.8053C129.62 43.672 127.933 39.4186 124.56 36.0453C121.04 32.672 116.64 30.9853 111.36 30.9853C106.227 30.9853 101.973 32.672 98.6 36.0453C95.08 39.4186 93.32 43.672 93.32 48.8053V83.7853H129.62V48.8053Z" fill="white"/>
</svg>
