<svg width="252" height="1053" viewBox="0 0 252 1053" fill="none" xmlns="http://www.w3.org/2000/svg">
<path opacity="0.16" d="M-0.746294 864.445H251.105V914.095H46.7458L46.7458 1002.96H251.105V1052.61H-0.746294L-0.746294 864.445ZM251.105 671.843H97.4759L251.105 779.779V817.557H-0.746294L-0.746294 767.906H153.243L-0.746294 659.97V622.192H251.105V671.843ZM-0.746294 481.568C-0.746294 457.342 7.40891 436.954 23.7193 420.404C40.0297 403.854 60.0579 395.579 83.8039 395.579C107.55 395.579 127.578 403.854 143.889 420.404C160.199 436.954 168.354 457.342 168.354 481.568V525.822H251.105V575.473H-0.746294L-0.746294 481.568ZM121.941 481.568C121.941 471.014 118.344 462.259 111.148 455.304C103.712 448.348 94.5976 444.87 83.8039 444.87C72.7704 444.87 63.6558 448.348 56.46 455.304C49.2643 462.259 45.6664 471.014 45.6664 481.568L45.6664 525.822H121.941V481.568ZM251.105 226.998L205.772 242.109V342.49L251.105 357.601V411.21L-0.746294 323.062L-0.746294 261.538L251.105 173.03V226.998ZM159.359 326.66V257.58L56.46 292.12L159.359 326.66ZM-0.746294 0.264188H46.7458L46.7458 68.2642H251.105V117.915H46.7458V185.555H-0.746294L-0.746294 0.264188Z" fill="white"/>
</svg>
