<svg width="206" height="1064" viewBox="0 0 206 1064" fill="none" xmlns="http://www.w3.org/2000/svg">
<path opacity="0.16" d="M48.4 880.2C62.4 863.96 80.6 855.84 103 855.84C125.4 855.84 143.6 863.96 157.6 880.2C171.6 896.44 179.907 918.187 182.52 945.44H205.2V983.24H182.52C179.72 1010.68 171.413 1032.43 157.6 1048.48C143.6 1064.53 125.4 1072.56 103 1072.56C80.6 1072.56 62.4933 1064.53 48.68 1048.48C34.68 1032.43 26.28 1010.68 23.48 983.24H0.799991V945.44H23.48C26.0933 918.187 34.4 896.44 48.4 880.2ZM147.24 945.44C143.32 911.467 128.573 894.48 103 894.48C77.24 894.48 62.4 911.467 58.48 945.44H147.24ZM103 1034.2C128.573 1034.2 143.227 1017.21 146.96 983.24H58.76C62.4933 1017.21 77.24 1034.2 103 1034.2ZM164.04 792.746V710.146H201V831.386H4.99999L4.99999 711.546H41.96L41.96 792.746H83.68L83.68 718.546H120.08V792.746H164.04ZM4.99999 609.829C4.99999 590.976 11.3467 575.109 24.04 562.229C36.7333 549.349 52.32 542.909 70.8 542.909C89.28 542.909 104.867 549.349 117.56 562.229C130.253 575.109 136.6 590.976 136.6 609.829V644.269H201V682.909H4.99999L4.99999 609.829ZM100.48 609.829C100.48 601.616 97.68 594.803 92.08 589.389C86.2933 583.976 79.2 581.269 70.8 581.269C62.2133 581.269 55.12 583.976 49.52 589.389C43.92 594.803 41.12 601.616 41.12 609.829V644.269H100.48V609.829ZM4.99999 325.953H201V364.313H73.88L164.88 419.473V423.953L74.16 479.113H201V517.753H4.99999V477.993L97.68 421.713L4.99999 365.713V325.953ZM164.04 250.793V168.193H201V289.433H4.99999L4.99999 169.593H41.96V250.793H83.68V176.593H120.08V250.793H164.04ZM4.99999 67.8762C4.99999 49.0229 11.3467 33.1562 24.04 20.2762C36.7333 7.39625 52.32 0.956251 70.8 0.956251C89.28 0.956251 104.867 7.39625 117.56 20.2762C130.253 33.1562 136.6 49.0229 136.6 67.8762V102.316H201V140.956H4.99999L4.99999 67.8762ZM100.48 67.8762C100.48 59.6629 97.68 52.8496 92.08 47.4362C86.2933 42.0229 79.2 39.3162 70.8 39.3162C62.2133 39.3162 55.12 42.0229 49.52 47.4362C43.92 52.8496 41.12 59.6629 41.12 67.8762V102.316H100.48V67.8762Z" fill="white"/>
</svg>
