<svg width="199" height="1078" viewBox="0 0 199 1078" fill="none" xmlns="http://www.w3.org/2000/svg">
<path opacity="0.16" d="M4.02833 890.387H195V927.763H71.1412L159.807 981.508V985.873L71.4141 1039.62H195V1077.27H4.02833V1038.53L94.3307 983.691L4.02833 929.127L4.02833 890.387ZM4.02833 720.033H195V757.681H128.706V779.234L195 823.157L195 865.444L124.613 818.792C120.248 830.978 112.791 840.89 102.242 848.529C91.6934 856.168 80.0532 859.988 67.3218 859.988C49.8615 859.988 34.9476 853.804 22.5799 841.436C10.2122 829.068 4.02833 814.063 4.02833 796.421V720.033ZM95.6947 796.421V757.681H39.2217V796.421C39.2217 803.515 41.9499 809.607 47.4062 814.7C52.8625 819.793 59.5011 822.339 67.3218 822.339C75.1425 822.339 81.872 819.793 87.5102 814.7C92.9666 809.607 95.6947 803.515 95.6947 796.421ZM198.819 593.985C198.819 622.722 189.271 646.457 170.174 665.19C151.077 683.924 127.523 693.29 99.5142 693.29C71.3231 693.29 47.7699 683.924 28.8547 665.19C9.75748 646.457 0.208899 622.722 0.208899 593.985C0.208899 576.707 4.30115 560.792 12.4857 546.242C20.4883 531.51 31.4009 520.052 45.2237 511.867L64.048 544.332C55.4997 549.061 48.8612 555.791 44.1324 564.521C39.2217 573.251 36.7663 583.072 36.7663 593.985C36.7663 612.537 42.5864 627.541 54.2266 639C65.8668 650.276 80.9626 655.914 99.5142 655.914C117.884 655.914 132.889 650.276 144.529 639C156.169 627.541 161.989 612.537 161.989 593.985C161.989 583.072 159.625 573.251 154.896 564.521C149.985 555.609 143.347 548.879 134.98 544.332L153.805 511.867C167.627 520.052 178.631 531.419 186.816 545.969C194.818 560.519 198.819 576.525 198.819 593.985ZM4.02833 380.159V342.783H195V380.159H115.883L115.883 451.091H195V488.74H4.02833L4.02833 451.091H79.8714V380.159H4.02833ZM195 196.815H78.5073L195 278.66V307.306H4.02833V269.657H120.794L4.02833 187.812V159.166H195V196.815ZM195 -25.49V17.8879L105.516 86.092H195V123.741H4.02833L4.02833 86.092H88.3287L4.02833 20.616L4.02833 -22.7618L96.786 47.8977L195 -25.49Z" fill="white"/>
</svg>
