<svg width="191" height="1036" viewBox="0 0 191 1036" fill="none" xmlns="http://www.w3.org/2000/svg">
<path opacity="0.16" d="M0.0283317 851.116V813.467H191L191 1035.27H0.0283317V997.618H154.988V943.055H0.0283317V905.679H154.988V851.116H0.0283317ZM191 655.135L156.625 666.594V742.709L191 754.168V794.817L0.0283317 727.977V681.326L191 614.213V655.135ZM121.432 730.705V678.325L43.4062 704.515L121.432 730.705ZM191 450.258V493.091L128.798 530.194L191 567.297V609.856L93.0588 551.473L0.0283317 606.855V564.296L57.3198 530.194L0.0283317 496.092V453.532L92.786 508.914L191 450.258ZM0.0283317 302.842H36.0401V354.404H191L191 392.053H36.0401V443.342H0.0283317L0.0283317 302.842ZM154.988 244.175V163.694H191V281.824H0.0283317L0.0283317 165.059H36.0401L36.0401 244.175H76.6898L76.6898 171.879H112.156V244.175H154.988ZM0.0283317 65.9515C0.0283317 47.5818 6.21218 32.1222 18.5799 19.5726C30.9476 7.02308 46.1344 0.748303 64.1402 0.748303C82.1461 0.748303 97.3329 7.02308 109.701 19.5726C122.068 32.1222 128.252 47.5818 128.252 65.9515V99.5079H191V137.157H0.0283317L0.0283317 65.9515ZM93.0588 65.9515C93.0588 57.9489 90.3306 51.3103 84.8743 46.0359C79.2361 40.7614 72.3248 38.1242 64.1402 38.1242C55.7739 38.1242 48.8625 40.7614 43.4062 46.0359C37.9499 51.3103 35.2217 57.9489 35.2217 65.9515V99.5079H93.0588V65.9515Z" fill="white"/>
</svg>
