<svg width="515" height="515" viewBox="0 0 515 515" fill="none" xmlns="http://www.w3.org/2000/svg">
<g opacity="0.2">
<path d="M254.5 281.703C267.858 281.703 278.688 270.874 278.688 257.516C278.688 244.157 267.858 233.328 254.5 233.328C241.142 233.328 230.312 244.157 230.312 257.516C230.312 270.874 241.142 281.703 254.5 281.703Z" fill="white"/>
<path d="M200.267 209.314C188.468 222.595 181.951 239.743 181.951 257.508C181.951 275.273 188.468 292.42 200.267 305.701M308.748 305.701C320.547 292.42 327.064 275.273 327.064 257.508C327.064 239.743 320.547 222.595 308.748 209.314M161.741 170.788C139.755 194.309 127.525 225.303 127.525 257.5C127.525 289.697 139.755 320.691 161.741 344.212M347.259 344.212C369.245 320.691 381.475 289.697 381.475 257.5C381.475 225.303 369.245 194.309 347.259 170.788M389.799 378.438C419.494 345.153 435.905 302.106 435.905 257.5C435.905 212.894 419.494 169.847 389.799 136.562M119.201 136.562C89.506 169.847 73.0947 212.894 73.0947 257.5C73.0947 302.106 89.506 345.153 119.201 378.438" stroke="white" stroke-width="20" stroke-linecap="round" stroke-linejoin="round"/>
</g>
<g opacity="0.4" filter="url(#filter0_d)">
<path d="M254.374 73H256.234V87H254.734L247.534 76.54V87H245.674V73H247.174L254.374 83.44V73ZM267.289 74.76H261.089V79.3H267.029V81.06H261.089V87H259.229V73H267.289V74.76ZM276.121 87.26C274.001 87.26 272.248 86.56 270.861 85.16C269.488 83.76 268.801 82.04 268.801 80C268.801 77.96 269.488 76.24 270.861 74.84C272.248 73.44 274.001 72.74 276.121 72.74C277.401 72.74 278.574 73.0467 279.641 73.66C280.721 74.2733 281.561 75.1 282.161 76.14L280.541 77.08C280.141 76.3067 279.541 75.6933 278.741 75.24C277.954 74.7733 277.081 74.54 276.121 74.54C274.508 74.54 273.188 75.06 272.161 76.1C271.148 77.14 270.641 78.44 270.641 80C270.641 81.5467 271.148 82.84 272.161 83.88C273.188 84.92 274.508 85.44 276.121 85.44C277.081 85.44 277.954 85.2133 278.741 84.76C279.541 84.2933 280.141 83.68 280.541 82.92L282.161 83.84C281.574 84.88 280.741 85.7133 279.661 86.34C278.581 86.9533 277.401 87.26 276.121 87.26Z" fill="white"/>
</g>
<defs>
<filter id="filter0_d" x="195.674" y="32.7402" width="136.487" height="114.52" filterUnits="userSpaceOnUse" color-interpolation-filters="sRGB">
<feFlood flood-opacity="0" result="BackgroundImageFix"/>
<feColorMatrix in="SourceAlpha" type="matrix" values="0 0 0 0 0 0 0 0 0 0 0 0 0 0 0 0 0 0 127 0"/>
<feOffset dy="10"/>
<feGaussianBlur stdDeviation="25"/>
<feColorMatrix type="matrix" values="0 0 0 0 1 0 0 0 0 1 0 0 0 0 1 0 0 0 0.6 0"/>
<feBlend mode="normal" in2="BackgroundImageFix" result="effect1_dropShadow"/>
<feBlend mode="normal" in="SourceGraphic" in2="effect1_dropShadow" result="shape"/>
</filter>
</defs>
</svg>
