<svg width="38" height="58" viewBox="0 0 38 58" fill="none" xmlns="http://www.w3.org/2000/svg">
<path d="M17.675 1.24698C18.2007 0.204488 19.252 -0.316759 20.3033 0.204488C21.1793 0.725734 21.705 1.76823 21.1793 2.81072L6.11082 35.6493C4.7091 38.0817 1.02957 45.0317 8.91426 44.6842C12.5938 44.6842 19.9528 44.3367 23.4571 46.4217C28.0127 49.0279 25.7349 52.5029 23.8076 55.8041L22.9315 57.0204C22.4058 58.0629 21.1793 58.2366 20.3033 57.7154C19.4272 57.1941 19.0767 55.9779 19.6024 55.1091L20.3033 53.8929C22.4058 50.2442 25.0341 47.9854 8.91426 48.6804C-4.92774 49.0279 1.02957 37.213 2.78173 33.738L17.675 1.24698ZM29.5897 33.043C28.7136 32.348 28.3632 31.1318 29.064 30.263C29.5897 29.3943 30.8162 29.0468 31.6922 29.7418C31.6922 29.7418 45.8847 38.7767 31.6922 47.9854C30.8162 48.6804 29.5897 48.3329 29.064 47.4642C28.3632 46.5954 28.7136 45.3792 29.5897 44.858C38.7009 38.7767 29.5897 33.043 29.5897 33.043ZM14.5212 42.2517C13.6451 42.773 12.4186 42.4255 11.8929 41.5567C11.3673 40.688 11.7177 39.4717 12.5938 38.9505C12.5938 38.9505 18.5511 35.4755 23.9828 39.298C24.8589 39.8192 25.0341 41.0355 24.5084 41.9042C23.8076 42.773 22.5811 42.9467 21.705 42.4255C18.3759 39.993 14.5212 42.2517 14.5212 42.2517Z" fill="white"/>
</svg>
