<svg width="24" height="24" viewBox="0 0 24 24" fill="none" xmlns="http://www.w3.org/2000/svg">
<path fill-rule="evenodd" clip-rule="evenodd" d="M24 12C24 18.6274 18.6274 24 12 24C5.37258 24 0 18.6274 0 12C0 5.37258 5.37258 0 12 0C18.6274 0 24 5.37258 24 12ZM21.6 12C21.6 17.3019 17.3019 21.6 12 21.6C9.78156 21.6 7.73887 20.8475 6.11325 19.5838L19.5838 6.11325C20.8475 7.73887 21.6 9.78156 21.6 12ZM4.41619 17.8868L17.8868 4.41619C16.2612 3.15251 14.2185 2.4 12 2.4C6.69807 2.4 2.4 6.69807 2.4 12C2.4 14.2185 3.1525 16.2612 4.41619 17.8868Z" fill="white"/>
</svg>
