<svg width="30" height="30" viewBox="0 0 30 30" fill="none" xmlns="http://www.w3.org/2000/svg">
<g clip-path="url(#clip0_2212_3394)">
<path d="M25.2849 6.17969C24.842 6.17969 24.4767 6.50764 24.4161 6.93373H21.8828V8.69113H24.416C24.4765 9.1174 24.8419 9.44553 25.2849 9.44553C25.7702 9.44553 26.1636 9.05213 26.1636 8.56686V7.05836C26.1636 6.57309 25.7702 6.17969 25.2849 6.17969Z" fill="white"/>
<path d="M17.9517 3.22189V4.68639H19.7091V3.22189C19.7091 1.44516 18.264 0 16.4872 0H12.3925C10.6157 0 9.17059 1.44516 9.17059 3.22189V26.7711C9.17059 27.5789 8.51393 28.2356 7.70609 28.2356H4.71266C4.22762 28.2356 3.83398 28.6292 3.83398 29.1142C3.83398 29.5993 4.22762 29.9929 4.71266 29.9929H7.70609C9.48283 29.9929 10.928 28.5478 10.928 26.771V3.22189C10.928 2.41406 11.5852 1.7574 12.3925 1.7574H16.4872C17.2951 1.7574 17.9517 2.41406 17.9517 3.22189Z" fill="white"/>
<path d="M18.121 6.44531C17.7974 6.44531 17.5352 6.70758 17.5352 7.03113V8.69127C17.9493 8.58522 18.3834 8.52902 18.8304 8.52902C19.2773 8.52902 19.712 8.58527 20.1262 8.69127V7.03113C20.1262 6.70758 19.8639 6.44531 19.5404 6.44531H18.121Z" fill="white"/>
<path d="M18.8304 10.2852C16.9173 10.2852 15.3613 11.8421 15.3613 13.7548V25.9705H22.3001V13.7548C22.3001 11.8452 20.7473 10.2852 18.8304 10.2852Z" fill="white"/>
<path d="M15.3613 29.4131C15.3613 29.7366 15.6236 29.9989 15.9471 29.9989H21.7144C22.0379 29.9989 22.3002 29.7366 22.3002 29.4131V27.7266H15.3613V29.4131Z" fill="white"/>
</g>
<defs>
<clipPath id="clip0_2212_3394">
<rect width="30" height="30" fill="white"/>
</clipPath>
</defs>
</svg>
