<svg width="42" height="42" viewBox="0 0 42 42" fill="none" xmlns="http://www.w3.org/2000/svg">
<g clip-path="url(#clip0)">
<path d="M41.9935 20.8924C41.9084 18.0276 40.7654 15.6701 38.5512 13.8556C36.4971 12.1733 34.0758 11.2694 31.5263 10.6775C28.0723 9.87531 24.5584 9.66163 21.0252 9.6712C19.9714 9.6994 18.9179 9.69582 17.8628 9.7437C15.8124 9.83663 13.7771 10.0271 11.7624 10.4112C9.06115 10.9258 6.46637 11.7266 4.17646 13.3199C2.0095 14.8281 0.618185 16.8415 0.165659 19.4688C-0.207228 21.632 0.0668709 23.734 0.80991 25.7783C1.80098 28.5048 3.68639 30.3621 6.39288 31.3909C8.23635 32.0918 10.1538 32.3028 12.1151 32.324C14.1157 32.346 15.873 31.7485 17.431 30.5025C18.2199 29.8719 18.9128 29.1289 19.7372 28.542C20.5997 27.927 21.3218 27.9153 22.2049 28.4991C22.8113 28.8998 23.3291 29.4077 23.8657 29.8918C25.1768 31.0749 26.6249 32.0105 28.4216 32.2187C30.7421 32.4872 33.0246 32.269 35.2452 31.5242C37.8856 30.6391 39.8213 28.9583 40.9587 26.3998C41.7375 24.6483 42.0499 22.8031 41.9935 20.8924ZM11.3407 24.915C8.37511 24.915 5.97212 22.0799 5.97212 22.0799C5.97212 22.0799 8.37511 19.2446 11.3407 19.2446C14.3057 19.2446 16.7088 22.0799 16.7088 22.0799C16.7088 22.0799 14.3057 24.915 11.3407 24.915ZM31.6086 24.915C28.6436 24.915 26.2401 22.0799 26.2401 22.0799C26.2401 22.0799 28.6436 19.2446 31.6086 19.2446C34.5735 19.2446 36.9773 22.0799 36.9773 22.0799C36.9773 22.0799 34.5735 24.915 31.6086 24.915Z" fill="white"/>
</g>
<defs>
<clipPath id="clip0">
<rect width="42" height="42" fill="white"/>
</clipPath>
</defs>
</svg>
