<svg width="42" height="42" viewBox="0 0 42 42" fill="none" xmlns="http://www.w3.org/2000/svg">
<path d="M34.9685 22.8596C34.2782 22.723 33.5472 23.0553 32.7801 22.7724C32.8617 22.3919 32.9063 21.998 32.9063 21.5928V15.0302C32.9063 11.9238 30.3878 9.40527 27.2814 9.40527C27.2814 9.40527 24.2813 11.3273 20.9063 11.3737C17.5313 11.421 14.7186 9.40527 14.7186 9.40527C11.6118 9.40527 9.09365 11.9238 9.09365 15.0302V21.5932C9.09365 21.9789 9.13313 22.3559 9.20732 22.7212C8.33874 23.0514 7.51571 22.7598 6.74692 22.9186C2.59794 23.7746 0 20.256 0 22.8444C0 25.4333 9.40126 32.595 20.9996 32.595C32.5979 32.595 42 26.1131 42 22.8444C42 19.5771 39.2832 23.7187 34.9685 22.8596ZM20.5301 27.0416C14.5438 27.0416 9.69107 25.5109 9.69107 23.6215C9.69107 23.1959 9.94011 22.7876 10.3913 22.4115C11.9406 23.7035 15.8948 24.622 20.5301 24.622C25.1655 24.622 29.2602 23.7035 30.8095 22.4115C31.2607 22.7876 31.3692 23.1959 31.3692 23.6215C31.3696 25.5105 26.5169 27.0416 20.5301 27.0416Z" fill="white"/>
</svg>
