<svg width="42" height="42" viewBox="0 0 42 42" fill="none" xmlns="http://www.w3.org/2000/svg">
<g clip-path="url(#clip0)">
<path d="M41.9931 18.0242C41.9269 17.3982 41.399 16.9231 40.7695 16.9231H38.7769C37.3832 14.2105 34.5558 12.3506 31.3021 12.3506C28.0484 12.3506 25.2211 14.2105 23.8273 16.9231H18.1727C16.779 14.2105 13.9516 12.3506 10.6979 12.3506C7.44428 12.3506 4.61693 14.2105 3.22307 16.9231H1.23055C0.601045 16.9231 0.0730956 17.3982 0.00689688 18.0242C-0.0593018 18.6501 0.35766 19.2252 0.973217 19.3568L2.3711 19.6557C2.32443 20.0135 2.30006 20.3782 2.30006 20.7485C2.30006 22.3967 2.77773 23.9354 3.6014 25.2339C2.62015 25.8997 1.87941 26.8934 1.53488 28.0722C1.34424 28.7244 1.71855 29.4077 2.37077 29.5983C2.48603 29.6321 2.60218 29.6481 2.71653 29.6481C3.24916 29.6481 3.74011 29.2994 3.89703 28.7625C3.93173 28.6437 3.97431 28.5285 4.02369 28.4173C4.27232 27.8585 4.69995 27.4037 5.23339 27.1198C5.84485 27.6449 6.53243 28.0838 7.2771 28.4173C8.3225 28.8855 9.48028 29.1463 10.6979 29.1463C11.9156 29.1463 13.0733 28.8855 14.1188 28.4173C15.9913 27.5788 17.503 26.0743 18.3503 24.2066L21 23.6399L23.6497 24.2066C24.4971 26.0742 26.0087 27.5787 27.8812 28.4173C28.9266 28.8855 30.0844 29.1463 31.3021 29.1463C32.5197 29.1463 33.6775 28.8855 34.7229 28.4173C35.4677 28.0838 36.1552 27.645 36.7666 27.1198C37.3 27.4036 37.7276 27.8585 37.9763 28.4173C38.0258 28.5285 38.0683 28.6437 38.103 28.7625C38.2599 29.2995 38.7509 29.6481 39.2835 29.6481C39.3978 29.6481 39.514 29.6321 39.6292 29.5983C40.2815 29.4077 40.6558 28.7244 40.4651 28.0722C40.1206 26.8934 39.3799 25.8997 38.3986 25.2339C39.2223 23.9354 39.6999 22.3967 39.6999 20.7485C39.6999 20.3782 39.6756 20.0135 39.6289 19.6557L41.0268 19.3568C41.6424 19.2251 42.0593 18.6501 41.9931 18.0242ZM22.9048 20.7159L21.0001 21.1233L19.0954 20.7159C19.0937 20.2626 19.0556 19.8178 18.9844 19.384H23.0158C22.9446 19.8178 22.9065 20.2626 22.9048 20.7159Z" fill="white"/>
</g>
<defs>
<clipPath id="clip0">
<rect width="42" height="42" fill="white"/>
</clipPath>
</defs>
</svg>
