<svg width="42" height="42" viewBox="0 0 42 42" fill="none" xmlns="http://www.w3.org/2000/svg">
<g clip-path="url(#clip0)">
<path d="M28.3478 30.0761L26.3808 32.5371C25.9566 33.067 26.0432 33.842 26.5742 34.2662C27.1 34.6884 27.8774 34.6063 28.3034 34.0728L30.2704 31.6118C30.6946 31.0819 30.608 30.3069 30.077 29.8827C29.5495 29.4585 28.7708 29.5474 28.3478 30.0761Z" fill="white"/>
<path d="M25.0253 37.1743C24.4077 36.9147 23.6782 37.2031 23.4138 37.8316C23.0846 38.6138 22.6629 39.3577 22.1606 40.0413C21.7592 40.5893 21.877 41.3595 22.425 41.7621C22.9737 42.1639 23.7433 42.0444 24.1457 41.4977C24.761 40.659 25.2777 39.7458 25.6826 38.7856C25.9458 38.1596 25.6526 37.4387 25.0253 37.1743Z" fill="white"/>
<path d="M31.3123 0.355681C30.828 -0.121331 30.0493 -0.118952 29.5723 0.365279C29.0941 0.848361 29.0989 1.627 29.5819 2.10524C30.2897 2.80456 30.9409 3.57606 31.5178 4.39793C31.9065 4.95279 32.6746 5.09011 33.2313 4.69833C33.7876 4.30778 33.9223 3.53997 33.5317 2.98478C32.8708 2.04282 32.1234 1.15836 31.3123 0.355681Z" fill="white"/>
<path d="M32.1883 26.9195C32.7736 27.2421 33.5284 27.035 33.8585 26.4317C34.3175 25.5941 34.7309 24.7313 35.0938 23.8482C35.3521 23.2197 35.0529 22.4999 34.4245 22.2416C33.7948 21.9844 33.0775 22.2837 32.8179 22.9109C32.4886 23.71 32.1161 24.4911 31.7004 25.2493C31.3735 25.8453 31.5922 26.5927 32.1883 26.9195Z" fill="white"/>
<path d="M36.6126 18.68C36.77 17.8244 36.8842 16.9629 36.9539 16.0942C37.0079 15.4164 36.502 14.8228 35.8255 14.7688C35.143 14.7135 34.5542 15.2206 34.5001 15.8971C34.4376 16.6817 34.3355 17.4616 34.1925 18.2331C34.0687 18.9013 34.511 19.5429 35.179 19.6667C35.8287 19.7903 36.4869 19.3607 36.6126 18.68Z" fill="white"/>
<path d="M34.3404 11.277C34.4551 11.9617 35.1073 12.4016 35.7571 12.2876C36.4277 12.1758 36.8795 11.5413 36.7677 10.8708C36.6199 9.98521 36.406 9.0996 36.1332 8.24049C35.929 7.59277 35.2417 7.23109 34.5879 7.44019C33.9402 7.64568 33.5822 8.33778 33.7877 8.98549C34.0255 9.73411 34.2118 10.5055 34.3404 11.277Z" fill="white"/>
<path d="M18.5702 0.00390625C10.8581 0.00390625 5.04224 5.82099 5.04224 13.5355C5.04224 18.4537 7.06455 20.0627 8.54021 21.2379C9.49194 21.9949 9.87765 22.3373 9.87765 23.2374C9.87765 24.5159 9.54723 25.2933 9.09056 26.37C8.38403 28.0366 7.50317 30.0136 7.50317 34.5883C7.50317 39.1372 10.339 42.0002 13.8694 42.0002C16.7629 42.0002 20.0362 40.1028 21.3735 36.0906C22.2062 33.5948 23.8765 31.6635 25.6441 29.5174C28.6759 25.8355 32.1125 21.5815 32.1125 14.0641C32.1125 6.31129 26.0371 0.00390625 18.5702 0.00390625ZM23.7167 23.9632L17.6653 31.6131C17.2369 32.1448 16.4638 32.2279 15.9349 31.8054C15.405 31.38 15.3185 30.6062 15.7426 30.075L21.7952 22.4251C23.6878 20.0627 24.7296 17.0935 24.7296 14.0641C24.7296 10.6299 22.3011 7.70869 19.2021 7.4119C16.476 7.17409 13.7974 8.80414 12.8154 11.4647L16.9106 10.6455C19.8541 10.0567 22.5717 12.4798 22.175 15.4869C21.6915 19.1424 19.6256 21.1221 19.4064 21.4722C18.9827 22.0029 18.206 22.0884 17.6773 21.6633C17.1461 21.2391 17.0608 20.4641 17.4862 19.9341C17.6939 19.6059 19.3536 18.0548 19.7357 15.1648C19.909 13.837 18.6931 12.8011 17.3937 13.0584L12.472 14.043C12.5205 14.6275 12.6254 15.2026 12.8359 15.7488C13.0799 16.3832 12.7638 17.0959 12.1294 17.3398C11.4914 17.5802 10.7824 17.2677 10.5384 16.6333C10.1575 15.6419 9.96403 14.5953 9.96403 13.5235C9.96912 8.68314 14.0999 4.471 19.4317 4.96187C23.784 5.37761 27.1906 9.37548 27.1906 14.0642C27.1907 17.6498 25.9566 21.1658 23.7167 23.9632Z" fill="white"/>
</g>
<defs>
<clipPath id="clip0">
<rect width="42" height="42" fill="white"/>
</clipPath>
</defs>
</svg>
