<svg width="42" height="42" viewBox="0 0 42 42" fill="none" xmlns="http://www.w3.org/2000/svg">
<g clip-path="url(#clip0)">
<path d="M29.925 7.37625L27.4785 0.8505C27.286 0.3395 26.796 0 26.25 0H15.75C15.2023 0 14.714 0.3395 14.5215 0.85225L12.075 7.37625C10.1308 8.148 8.75 10.0363 8.75 12.25V29.75C8.75 31.9638 10.1308 33.852 12.075 34.622L14.5215 41.1478C14.714 41.6605 15.2023 42 15.75 42H26.25C26.796 42 27.286 41.6605 27.4785 41.1478L29.925 34.622C31.8675 33.852 33.25 31.9638 33.25 29.75V12.25C33.25 10.0363 31.8693 8.148 29.925 7.37625ZM14 31.5C13.0358 31.5 12.25 30.7143 12.25 29.75V12.25C12.25 11.2858 13.0358 10.5 14 10.5H28C28.9643 10.5 29.75 11.2858 29.75 12.25V29.75C29.75 30.7143 28.9643 31.5 28 31.5H14Z" fill="white"/>
<path d="M22.75 20.2755V14.4375C22.75 13.4715 21.966 12.6875 21 12.6875C20.034 12.6875 19.25 13.4715 19.25 14.4375V21C19.25 21.4637 19.4338 21.91 19.7628 22.2372L23.7003 26.1747C24.0415 26.516 24.4895 26.6875 24.9375 26.6875C25.3855 26.6875 25.8335 26.516 26.1747 26.1747C26.859 25.4905 26.859 24.3845 26.1747 23.7002L22.75 20.2755Z" fill="white"/>
</g>
<defs>
<clipPath id="clip0">
<rect width="42" height="42" fill="white"/>
</clipPath>
</defs>
</svg>
