<svg width="42" height="42" viewBox="0 0 42 42" fill="none" xmlns="http://www.w3.org/2000/svg">
<path d="M39.7744 15.157C38.6268 14.1611 37.0424 13.2882 35.0652 12.5625C32.775 11.7219 29.9642 11.0919 26.937 10.7404C26.3222 10.669 25.7278 10.8574 25.2637 11.2709C24.8019 11.6821 24.537 12.2726 24.537 12.8907C24.537 13.9884 25.3604 14.912 26.4522 15.0391C28.6727 15.2975 30.6956 15.7047 32.4649 16.2498C33.8222 16.6678 34.973 17.1506 35.8855 17.685C36.5308 18.0628 36.9161 18.7345 36.9161 19.4817C36.9161 20.2289 36.5308 20.9007 35.8855 21.2784C34.9727 21.8129 33.8218 22.2958 32.4649 22.7136C32.2111 22.7918 31.951 22.8669 31.6863 22.9394L32.3566 27.2373C33.3126 26.9907 34.2191 26.7114 35.0653 26.4009C37.0423 25.6753 38.6267 24.8024 39.7745 23.8064C41.6139 22.2101 42 20.5736 42 19.4817C41.9999 18.3898 41.6138 16.7533 39.7744 15.157Z" fill="white"/>
<path d="M16.7364 11.2708C16.3365 10.9147 15.8402 10.7256 15.3173 10.7256C15.2331 10.7256 15.1483 10.7304 15.063 10.7404C12.0357 11.0918 9.22505 11.7219 6.93491 12.5625C4.95763 13.2882 3.3732 14.1611 2.22559 15.157C0.38612 16.7532 0 18.3897 0 19.4816C0 20.5735 0.38612 22.21 2.2255 23.8063C3.37328 24.8023 4.95771 25.6752 6.93474 26.4008C7.78098 26.7114 8.6875 26.9905 9.64349 27.2373L10.3138 22.9394C10.0491 22.8668 9.78893 22.7918 9.53521 22.7136C8.17834 22.2957 7.02752 21.8128 6.1146 21.2784C5.46926 20.9006 5.08404 20.2289 5.08404 19.4817C5.08404 18.7344 5.46926 18.0628 6.1146 17.6849C7.02711 17.1506 8.17793 16.6678 9.53521 16.2497C11.3045 15.7048 13.3273 15.2974 15.5478 15.039C16.6397 14.912 17.463 13.9884 17.463 12.8906C17.463 12.2725 17.1982 11.6821 16.7364 11.2708Z" fill="white"/>
<path d="M29.9548 27.7695L29.2878 23.4922C28.533 23.6363 27.7501 23.7602 26.9457 23.8634C27.4431 24.8014 27.7262 25.8698 27.7262 27.0034C27.7262 27.3902 27.6916 27.769 27.6285 28.1383C28.4236 28.0339 29.2004 27.9109 29.9548 27.7695Z" fill="white"/>
<path d="M15.0542 23.8634C14.2499 23.7602 13.4669 23.6363 12.7121 23.4922L12.0451 27.7695C12.7995 27.9109 13.5764 28.034 14.3714 28.1383C14.3083 27.769 14.2737 27.3903 14.2737 27.0034C14.2737 25.8697 14.5568 24.8014 15.0542 23.8634Z" fill="white"/>
<path d="M21 22.7314C18.6447 22.7314 16.7285 24.6477 16.7285 27.003C16.7285 29.3582 18.6447 31.2744 21 31.2744C23.3552 31.2744 25.2714 29.3583 25.2714 27.003C25.2714 24.6477 23.3552 22.7314 21 22.7314Z" fill="white"/>
</svg>
