<svg width="42" height="42" viewBox="0 0 42 42" fill="none" xmlns="http://www.w3.org/2000/svg">
<path d="M37.7195 14.6205C37.5761 14.0209 36.2614 8.71483 34.3301 7.05931C33.1978 6.08899 30.75 5.61966 28.383 5.16563C27.2537 4.94912 25.728 4.65656 25.301 4.42137C25.097 3.86492 25.0414 2.20813 25.1208 0.901483C25.1351 0.66756 25.0522 0.4381 24.8916 0.267492C24.731 0.0968834 24.5072 0 24.2727 0H17.7273C17.493 0 17.269 0.0968834 17.1084 0.267492C16.9478 0.4381 16.8649 0.66756 16.8789 0.901483C16.9586 2.20792 16.9027 3.86492 16.699 4.42137C16.2717 4.65656 14.7462 4.94912 13.617 5.16563C11.2497 5.61945 8.80193 6.08878 7.66971 7.05931C5.73863 8.71483 4.42391 14.0209 4.28028 14.6205C4.22717 14.8419 4.26541 15.0753 4.38609 15.2685C4.50677 15.4616 4.6999 15.5982 4.92213 15.6477L9.19796 16.6C9.53089 16.6741 9.87657 16.5418 10.0748 16.2637L10.5286 15.6265C10.9378 18.9953 11.6683 25.4117 11.6683 28.2785C11.6683 32.1058 9.75483 36.4173 9.73549 36.4604C9.60589 36.7496 9.64754 37.087 9.84406 37.3356C9.92947 37.4437 11.9702 39.9958 14.6929 40.9534C16.5367 41.6018 18.9851 41.8695 20.2805 41.9715C20.5195 41.9902 20.7613 41.9998 20.9997 41.9998C21.2381 41.9998 21.4798 41.9902 21.7189 41.9715C23.0145 41.8695 25.4629 41.6018 27.3067 40.9534C30.0292 39.996 32.0699 37.4437 32.1553 37.3356C32.352 37.0868 32.3939 36.7494 32.2639 36.46C32.2445 36.4169 30.3311 32.1153 30.3311 28.2785C30.3311 25.3635 31.0864 18.7782 31.4911 15.4588L32.1659 16.3015C32.3707 16.5573 32.7039 16.6722 33.0232 16.5979L37.0868 15.6456C37.3069 15.594 37.4975 15.4567 37.616 15.2644C37.735 15.0722 37.7722 14.8404 37.7195 14.6205ZM15.6167 16.8911C15.4595 17.0504 15.2406 17.1396 15.0154 17.1396C14.7923 17.1396 14.5714 17.0504 14.4142 16.8911C14.2569 16.7338 14.1656 16.515 14.1656 16.2898C14.1656 16.0667 14.2569 15.8479 14.4142 15.6885C14.5735 15.5313 14.7923 15.4399 15.0154 15.4399C15.2385 15.4399 15.4573 15.5313 15.6167 15.6885C15.7739 15.8479 15.8653 16.0667 15.8653 16.2898C15.8653 16.515 15.7739 16.7338 15.6167 16.8911ZM21.6018 33.7118C21.4424 33.869 21.2236 33.9604 21.0005 33.9604C20.7753 33.9604 20.5565 33.869 20.3993 33.7118C20.2399 33.5525 20.1507 33.3336 20.1507 33.1105C20.1507 32.8874 20.2399 32.6686 20.3993 32.5093C20.5565 32.352 20.7753 32.2607 21.0005 32.2607C21.2236 32.2607 21.4424 32.352 21.6018 32.5093C21.759 32.6686 21.8504 32.8874 21.8504 33.1105C21.8504 33.3336 21.759 33.5525 21.6018 33.7118ZM27.5848 16.8911C27.4275 17.0504 27.2087 17.1396 26.9835 17.1396C26.7604 17.1396 26.5416 17.0504 26.3822 16.8911C26.225 16.7338 26.1336 16.5129 26.1336 16.2898C26.1336 16.0667 26.225 15.8479 26.3822 15.6885C26.5416 15.5313 26.7604 15.4399 26.9835 15.4399C27.2089 15.4399 27.4275 15.5313 27.5848 15.6885C27.7441 15.8479 27.8334 16.0667 27.8334 16.2898C27.8334 16.515 27.7441 16.7338 27.5848 16.8911Z" fill="white"/>
</svg>
