<svg width="42" height="42" viewBox="0 0 42 42" fill="none" xmlns="http://www.w3.org/2000/svg">
<path d="M38.3347 33.3436C35.4269 32.8976 30.6347 31.5506 29.9666 29.7894C29.3455 28.1521 28.9271 20.7809 28.6212 15.3985C28.3396 10.4394 28.2139 8.51179 28.0097 7.94204C27.3573 6.12006 26.3531 5.19143 22.1275 4.50435C19.7126 4.11185 14.9882 3.72123 11.4503 3.46277C10.4231 3.38782 9.37966 3.34961 8.34935 3.34961C5.78747 3.34961 3.20867 3.58323 0.685201 4.044C0.288319 4.11665 0 4.46238 0 4.86574V17.8071C0 18.2407 0.331744 18.6021 0.763701 18.6391C0.791259 18.6414 1.45454 18.6971 2.65041 18.6971C4.22395 18.6971 6.78249 18.5994 10.036 18.1347C13.6809 17.6138 16.7659 16.3277 18.5635 15.4383C18.41 16.511 18.3727 17.9021 18.8071 19.2593C19.085 20.1274 19.6021 21.2235 20.1498 22.3837C21.2068 24.6236 22.5223 27.4112 22.4615 29.3605C22.4283 30.4234 21.8651 31.5145 21.3202 32.5696C20.4243 34.3043 19.3099 36.4633 21.6433 37.9792C22.3379 38.4304 23.0334 38.6496 23.7695 38.6496C24.6376 38.6496 25.3952 38.3448 26.1278 38.0498C26.8191 37.7717 27.4719 37.509 28.1876 37.509C29.4837 37.509 30.6766 37.7529 31.7293 37.9679C32.4696 38.1193 33.169 38.2623 33.8223 38.3057C33.9006 38.311 33.9807 38.3135 34.0626 38.3135C34.8722 38.3135 35.7768 38.0654 36.6518 37.8253C37.3057 37.6462 37.9817 37.4606 38.3857 37.4606C38.4811 37.4606 38.5218 37.4715 38.5291 37.4735C38.7771 37.5479 39.0414 37.5857 39.3149 37.5857C40.6064 37.5857 42 36.7025 42 35.276C42 33.525 39.2771 33.3509 38.3347 33.3436Z" fill="white"/>
</svg>
