<svg width="42" height="42" viewBox="0 0 42 42" fill="none" xmlns="http://www.w3.org/2000/svg">
<g clip-path="url(#clip0)">
<path d="M34.4428 20.7708C33.8884 20.6847 33.3641 20.6035 32.9001 20.5034C32.6845 20.4565 32.3331 20.3284 31.7982 20.0652L27.6122 23.5785C26.6455 24.4262 25.1798 24.4829 24.1382 23.701C23.5739 23.2788 22.8054 23.3321 22.3266 23.8115L19.8898 26.2475H17.9103L21.336 22.821C22.3042 21.8536 23.8602 21.7416 24.9558 22.5641C25.4926 22.9666 26.2179 22.9393 26.7015 22.5158L30.4794 19.3448C30.1119 19.1292 29.6982 18.8772 29.2306 18.5811C29.5534 17.8167 29.407 16.8989 28.7847 16.2774C27.9657 15.4584 26.6344 15.4584 25.8154 16.2774L25.8126 16.2802C25.4738 16.0422 25.1392 15.8042 24.8046 15.5654C25.058 15.2112 25.2 14.7912 25.2 14.3475C25.2 13.786 24.9817 13.2582 24.5855 12.8628C23.7917 12.0697 22.4084 12.0697 21.6154 12.8628L21.399 13.0791C20.3659 12.3063 19.4908 11.6399 18.9288 11.208C18.2463 10.6844 17.2733 10.7467 16.6643 11.3564L15.2265 12.7935C14.5258 13.4942 14.5258 14.6351 15.2265 15.3358L15.6178 15.7271C15.7159 15.8244 15.706 15.9421 15.6969 15.9882C15.685 16.0491 15.65 16.1311 15.5527 16.1731C15.5464 16.1758 15.5401 16.178 15.5338 16.1808L15.8873 16.6344C16.5236 17.0992 16.9303 17.8069 17.008 18.5958C17.0906 19.4245 16.7994 20.2379 16.2107 20.8267L10.79 26.2474H8.8104L15.221 19.8369C15.5122 19.5457 15.6556 19.1439 15.615 18.7344C15.5744 18.3242 15.3547 17.9581 15.0116 17.7299C14.9494 17.6879 14.894 17.6368 14.8478 17.578L14.138 16.6673C8.88102 18.0953 6.40582 13.9135 6.2959 13.7203C6.19303 13.5397 6.01519 13.413 5.81011 13.376C5.55179 13.329 5.15632 13.3403 4.72648 13.649C3.64851 14.4246 2.73148 17.1559 2.04406 19.9636L3.20677 20.7945C4.75379 21.6919 5.60003 23.3474 5.60003 25.5475C5.60003 25.7813 5.57829 26.0151 5.54892 26.2474H4.13429C4.17416 26.0151 4.20008 25.7813 4.20008 25.5475C4.20008 24.3806 3.89632 22.8126 2.44798 21.9691L1.70388 21.4378C1.1943 23.7758 0.856906 25.9248 0.729512 26.7809L0.0379079 28.7962C-0.014592 28.9487 -0.0124592 29.1167 0.0442243 29.2687C0.210091 29.7089 1.15648 31.1475 6.39811 31.1475L37.1434 31.1461C38.827 31.0411 42.0077 30.0282 42 26.9482V26.9475V26.9461V26.9454V26.9447C41.9979 21.9461 37.4514 21.2391 34.4428 20.7708ZM25.3197 18.7527L26.8051 17.2673C27.0781 16.995 27.5219 16.995 27.7949 17.2673C28.0679 17.541 28.0679 17.9841 27.7949 18.2578L27.7613 18.2914H27.7606L26.3102 19.7426C26.0456 20.0064 25.5844 20.0064 25.3205 19.7426C25.1881 19.611 25.1154 19.4345 25.1154 19.2477C25.1153 19.06 25.1874 18.8843 25.3197 18.7527ZM21.1197 15.3374L22.6052 13.8527C22.869 13.5874 23.3304 13.5867 23.5957 13.8535C23.7273 13.985 23.8001 14.1601 23.8001 14.3477C23.8001 14.5346 23.7273 14.7103 23.595 14.8426L23.2562 15.1814L22.1103 16.3273C22.0418 16.3958 21.9633 16.447 21.8786 16.4812C21.8618 16.4876 21.8429 16.4862 21.8254 16.4917C21.635 16.5512 21.4313 16.524 21.257 16.4182C21.2101 16.3895 21.1603 16.3679 21.1205 16.3273C20.8475 16.0542 20.8475 15.6104 21.1197 15.3374ZM37.1 29.7475H6.39803C3.10029 29.7475 1.88935 29.1546 1.49453 28.8649L1.91174 27.6476H4.69498H9.10005H18.2H40.5055C39.956 29.532 37.1896 29.7398 37.1 29.7475Z" fill="white"/>
</g>
<defs>
<clipPath id="clip0">
<rect width="42" height="42" fill="white"/>
</clipPath>
</defs>
</svg>
