<svg width="47" height="47" viewBox="0 0 47 47" fill="none" xmlns="http://www.w3.org/2000/svg">
<path d="M25.216 19.7686C24.0588 18.7221 22.293 18.7242 21.1408 19.7677C19.0872 21.6227 20.3885 25.0667 23.1774 25.0667C25.9709 25.0668 27.2642 21.6213 25.216 19.7686V19.7686Z" fill="white"/>
<path d="M31.2698 17.2923C30.0454 16.2799 28.1722 16.8133 27.6406 18.3125C28.3263 19.1372 28.7714 20.14 28.9244 21.2025C30.4243 21.8332 32.1167 20.7302 32.1167 19.0764C32.1167 18.3656 31.7928 17.7188 31.2698 17.2923V17.2923Z" fill="white"/>
<path d="M15.2169 17.1927C15.2025 17.2063 14.5585 17.617 14.3294 18.4331C13.7881 20.2788 15.6477 21.9502 17.4315 21.2024C17.5826 20.1408 18.0278 19.1382 18.7152 18.3133C18.2081 16.882 16.4601 16.3097 15.2169 17.1927Z" fill="white"/>
<path d="M11.3814 16.8989C13.0694 16.8989 13.6562 14.6474 12.1906 13.8227C11.1137 13.2071 9.73645 13.9822 9.73645 15.2539C9.73636 16.1624 10.4721 16.8989 11.3814 16.8989V16.8989Z" fill="white"/>
<path d="M33.4069 15.2542C33.4069 16.1196 34.1081 16.8208 34.9735 16.8208C35.838 16.8208 36.5383 16.1213 36.5402 15.2578C36.5402 14.3777 35.8292 13.6875 34.9735 13.6875C34.1107 13.6875 33.4069 14.3871 33.4069 15.2542V15.2542Z" fill="white"/>
<path d="M14.4005 12.2892C15.3282 13.2556 15.4578 14.1129 15.5211 14.1129C17.7117 13.6539 19.9373 14.711 20.9897 16.6463C22.3896 16.0777 23.9637 16.0768 25.3654 16.6463C26.4159 14.7146 28.6397 13.653 30.8349 14.1129C31.2555 12.7544 32.3255 11.6736 33.6918 11.2523C34.1922 11.0975 34.3369 11.0063 34.7368 10.8874C31.3067 8.53181 29.6359 6.38276 29.6359 4.33128V0C28.2534 0 17.9923 0 16.6344 0V4.33137C16.6344 7.02285 13.8541 9.33761 11.6303 10.8773C12.7352 11.0137 13.6918 11.55 14.4005 12.2892V12.2892Z" fill="white"/>
<path d="M38.6837 13.2939L39.1151 13.9096V14.1188C39.9663 16.8785 37.8968 19.7845 34.8408 19.7192C34.463 22.6931 31.5684 24.7086 28.635 24.0072C27.8231 26.2356 25.6832 27.8309 23.1775 27.8309C20.6717 27.8309 18.5319 26.2356 17.72 24.0072C14.782 24.7104 11.892 22.6866 11.5141 19.7192C8.74376 19.7784 6.72471 17.3698 7.09147 14.7915C7.16976 14.2257 7.31724 13.8875 7.50804 13.3871C7.99887 13.1005 5.29367 14.5464 0 17.8253C0.0907029 18.008 3.80379 25.5002 14.4603 46.9994H31.9544C32.7189 45.4097 45.5721 18.6827 46.0554 17.6779C45.0776 16.607 42.8547 15.6422 38.6837 13.2939V13.2939Z" fill="white"/>
</svg>
