<svg version="1.2" xmlns="http://www.w3.org/2000/svg" viewBox="0 0 60 60" width="60" height="60">
	<title>pants-svg</title>
	<style>
		.s0 { fill: #ffffff } 
	</style>
	<g id="Layer" style="opacity: .2">
		<path id="Layer" class="s0" d="m15 33.1q0.8 0.4 1.9 0.8c0.1 0 0.2-0.1 0.2-0.1 0-1.2 0.2-10.3 3.5-16.8q0 0 0.1 0h1.4c0 0 0.1 0.1 0 0.1-0.4 1-3.2 6.7-3.6 17.3q0 0.1 0.1 0.1c2.3 0.8 5.1 1.5 7.7 1.5 0.7 0 1.3-0.4 1.6-1 0.4-0.9 1.2-2.4 1.6-3.4 0.2-0.4 0.7-0.4 0.9 0 0.5 1 1.2 2.5 1.7 3.4 0.3 0.6 0.9 1 1.5 1 4.3-0.1 9.2-1.9 11.4-2.8 0.6-0.3 1-0.9 1-1.6-0.9-14.5-3.6-17.9-5.3-19.6-0.4-0.3-0.5-0.7-0.5-1.2v-1.7c0-0.6-0.5-1.1-1.1-1.1h-18.2c-0.6 0-1.1 0.5-1.1 1.1v1.7c0 0.5-0.1 0.9-0.5 1.2-1.7 1.6-4.4 5-5.3 19.5 0 0.7 0.4 1.3 1 1.6z"/>
	</g>
</svg>