<svg width="48" height="61" viewBox="0 0 48 61" fill="none" xmlns="http://www.w3.org/2000/svg">
<path d="M20.3134 30.2485C20.0069 30.2477 19.7088 30.1485 19.4629 29.9656C19.217 29.7827 19.0363 29.5257 18.9474 29.2324C18.8584 28.9392 18.8659 28.6251 18.9688 28.3364C19.0717 28.0477 19.2645 27.7997 19.5188 27.6287C20.3958 27.1036 21.3696 26.7603 22.382 26.6195C22.8668 26.5394 23.3452 26.4246 23.8136 26.2759C24.0338 26.1668 24.2233 26.0044 24.3647 25.8035C24.6102 25.5224 24.9557 25.3483 25.3276 25.3182C25.6996 25.2882 26.0685 25.4045 26.356 25.6425C26.6434 25.8804 26.8265 26.2212 26.8664 26.5922C26.9063 26.9632 26.7997 27.3351 26.5694 27.6287C26.0921 28.2256 25.461 28.6809 24.7441 28.9458C24.1569 29.1393 23.5565 29.29 22.9475 29.3967C22.3037 29.4747 21.68 29.6713 21.1079 29.9765C20.8762 30.1446 20.5995 30.2393 20.3134 30.2485Z" fill="white"/>
<path d="M26.14 21.6166C25.8914 21.6138 25.6478 21.5464 25.4332 21.4209C25.2185 21.2954 25.0403 21.1161 24.916 20.9008C24.7442 20.6216 24.5223 20.321 24.2646 19.9774C23.0048 18.281 21.2798 15.9547 21.2798 10.529C21.2798 10.1493 21.4306 9.78519 21.6991 9.51671C21.9676 9.24824 22.3317 9.09741 22.7114 9.09741C23.091 9.09741 23.4552 9.24824 23.7236 9.51671C23.9921 9.78519 24.1429 10.1493 24.1429 10.529C24.1429 15.0027 25.4886 16.8136 26.5623 18.2738C26.8486 18.6604 27.1135 18.9896 27.3568 19.412C27.4816 19.6279 27.5477 19.8727 27.5487 20.1221C27.5498 20.3714 27.4856 20.6167 27.3627 20.8337C27.2397 21.0507 27.0622 21.2318 26.8478 21.359C26.6333 21.4863 26.3893 21.5553 26.14 21.5593V21.6166Z" fill="white"/>
<path d="M36.4038 22.0246C36.157 22.024 35.9146 21.9595 35.7 21.8375C35.4855 21.7155 35.3061 21.5401 35.1793 21.3284C35.0526 21.1166 34.9827 20.8757 34.9765 20.6289C34.9703 20.3822 35.028 20.138 35.144 19.9202C35.3946 19.4478 35.6952 18.9754 36.003 18.4886C37.6773 16.1678 38.6015 13.3903 38.6514 10.529C38.659 10.1494 38.8171 9.78824 39.091 9.52513C39.2266 9.39486 39.3865 9.29257 39.5616 9.2241C39.7367 9.15563 39.9236 9.12232 40.1116 9.12608C40.2996 9.12984 40.485 9.17059 40.6573 9.24601C40.8295 9.32143 40.9853 9.43003 41.1155 9.56563C41.2458 9.70122 41.3481 9.86114 41.4166 10.0363C41.485 10.2114 41.5183 10.3983 41.5146 10.5863C41.4701 13.9661 40.4019 17.253 38.451 20.0133C38.1647 20.4642 37.8998 20.8937 37.6923 21.273C37.5673 21.5046 37.381 21.6973 37.1537 21.8299C36.9264 21.9625 36.6669 22.0299 36.4038 22.0246Z" fill="white"/>
<path d="M45.809 59.008C45.4293 59.008 45.0652 58.8572 44.7967 58.5887C44.5282 58.3202 44.3774 57.9561 44.3774 57.5765V34.7577C44.4155 33.3267 43.9031 31.9356 42.9459 30.8711C42.2301 30.1554 41.1779 29.8333 39.9325 29.4825C39.4028 29.3322 38.8517 29.1747 38.2862 28.9743C36.6829 28.4017 34.8291 25.0448 34.4998 24.2359C34.4288 24.0616 34.3929 23.8749 34.3941 23.6867C34.3952 23.4985 34.4335 23.3123 34.5066 23.1388C34.6542 22.7885 34.935 22.5111 35.2872 22.3678C35.6393 22.2245 36.0339 22.2269 36.3843 22.3746C36.7346 22.5222 37.012 22.803 37.1553 23.1551C37.6865 24.3195 38.4127 25.3847 39.3026 26.3045C39.7607 26.462 40.2403 26.598 40.7342 26.7268C42.2587 27.1563 43.8263 27.6001 45.0288 28.9171C46.4882 30.5109 47.2799 32.6042 47.2405 34.7649V57.5765C47.2405 57.9561 47.0897 58.3202 46.8212 58.5887C46.5527 58.8572 46.1886 59.008 45.809 59.008Z" fill="white"/>
<path d="M31.4938 25.6534C29.0028 25.6534 26.4832 23.9355 25.0517 21.2656C24.8742 20.9295 24.8374 20.5368 24.9495 20.1737C25.0616 19.8106 25.3133 19.5068 25.6493 19.3293C25.9854 19.1518 26.3781 19.1151 26.7412 19.2272C27.1043 19.3393 27.408 19.591 27.5855 19.927C28.4731 21.6091 30.0765 22.7902 31.4723 22.7902C32.8681 22.7902 34.1565 21.695 35.0942 19.927C35.1806 19.7578 35.2999 19.6074 35.4451 19.4847C35.5903 19.3621 35.7584 19.2695 35.9397 19.2125C36.1211 19.1555 36.3119 19.1352 36.5012 19.1527C36.6904 19.1703 36.8743 19.2253 37.042 19.3147C37.2098 19.404 37.3581 19.5259 37.4782 19.6731C37.5984 19.8204 37.688 19.9901 37.7419 20.1723C37.7958 20.3546 37.8129 20.5458 37.7921 20.7347C37.7713 20.9236 37.7131 21.1065 37.6209 21.2727C36.2108 24.0142 33.9131 25.6534 31.4938 25.6534Z" fill="white"/>
<path d="M40.0838 11.9895C39.7041 11.9895 39.34 11.8387 39.0715 11.5702C38.803 11.3017 38.6522 10.9376 38.6522 10.5579C38.6522 6.38485 35.3953 2.86316 31.5444 2.86316C27.6934 2.86316 24.1718 6.44211 24.1718 10.5579C24.1718 10.9376 24.0209 11.3017 23.7525 11.5702C23.484 11.8387 23.1199 11.9895 22.7402 11.9895C22.3605 11.9895 21.9964 11.8387 21.7279 11.5702C21.4594 11.3017 21.3086 10.9376 21.3086 10.5579C21.3086 4.83158 25.997 0 31.5444 0C36.9271 0 41.5154 4.83158 41.5154 10.5579C41.5154 10.9376 41.3645 11.3017 41.0961 11.5702C40.8276 11.8387 40.4635 11.9895 40.0838 11.9895Z" fill="white"/>
<path d="M31.4942 33.627C31.1621 33.626 30.8408 33.5096 30.5851 33.2978L27.9152 31.0931C27.6238 30.8515 27.4399 30.5042 27.4039 30.1273C27.368 29.7504 27.4827 29.3746 27.7231 29.0821C27.9636 28.7896 28.31 28.6043 28.6868 28.5667C29.0635 28.5291 29.4398 28.6422 29.7333 28.8813L31.5371 30.3773L36.6121 26.4834C36.7598 26.357 36.9318 26.262 37.1175 26.2042C37.3032 26.1464 37.4987 26.1271 37.6921 26.1474C37.8855 26.1677 38.0728 26.2272 38.2425 26.3222C38.4121 26.4173 38.5606 26.5459 38.679 26.7002C38.7973 26.8546 38.8829 27.0314 38.9306 27.2199C38.9783 27.4085 38.9871 27.6047 38.9565 27.7968C38.9258 27.9888 38.8564 28.1726 38.7523 28.3369C38.6483 28.5012 38.5119 28.6426 38.3514 28.7525L32.3746 33.3336C32.1218 33.5264 31.8121 33.6297 31.4942 33.627Z" fill="white"/>
<path d="M35.4166 12.8554H35.3235C32.9647 12.7061 30.7252 11.7655 28.9673 10.1855C27.8149 11.3522 25.9252 12.8482 23.9568 12.7552C23.5782 12.7348 23.2232 12.5651 22.9695 12.2833C22.7159 12.0015 22.5844 11.6307 22.6039 11.252C22.6243 10.8735 22.794 10.5184 23.0758 10.2648C23.3576 10.0112 23.7285 9.87968 24.1071 9.89919H24.1644C25.2595 9.89919 26.9846 8.29582 27.8221 7.18634C27.9554 7.00854 28.1283 6.86424 28.3271 6.76485C28.5259 6.66545 28.7451 6.61371 28.9673 6.61371C29.1896 6.61371 29.4088 6.66545 29.6075 6.76485C29.8063 6.86424 29.9792 7.00854 30.1126 7.18634C30.7681 8.0089 31.5892 8.68442 32.5227 9.16905C33.4562 9.65368 34.4812 9.93658 35.5311 9.9994C35.9108 10.0117 36.27 10.1744 36.5298 10.4516C36.7895 10.7288 36.9285 11.0978 36.9162 11.4775C36.9038 11.8572 36.7412 12.2164 36.464 12.4762C36.1868 12.7359 35.8177 12.8749 35.4381 12.8626L35.4166 12.8554Z" fill="white"/>
<path d="M31.4938 46.0741C31.4009 46.0813 31.3076 46.0813 31.2147 46.0741C31.1218 46.0529 31.0308 46.0241 30.9427 45.9882C30.8587 45.9509 30.7773 45.9079 30.6993 45.8594C30.6215 45.8076 30.5495 45.7476 30.4845 45.6804C30.3471 45.5439 30.2388 45.3808 30.1662 45.2012C30.0936 45.0216 30.0582 44.8291 30.0622 44.6354C30.0515 44.5426 30.0515 44.449 30.0622 44.3562C30.0817 44.266 30.108 44.1775 30.141 44.0914C30.1794 44.0043 30.2249 43.9205 30.277 43.8408C30.3267 43.7616 30.3869 43.6893 30.4559 43.6261C30.5208 43.5589 30.5928 43.4989 30.6707 43.4472C30.7478 43.3971 30.8292 43.354 30.914 43.3183C31.0026 43.2833 31.0935 43.2546 31.186 43.2324C31.3704 43.1969 31.5599 43.1969 31.7443 43.2324C31.8348 43.2536 31.9234 43.2824 32.0092 43.3183C32.1849 43.3857 32.3437 43.4908 32.4744 43.6261C32.5434 43.6893 32.6036 43.7616 32.6534 43.8408C32.7084 43.9187 32.754 44.0028 32.7894 44.0914C32.8252 44.1765 32.8516 44.2653 32.8681 44.3562C32.8788 44.449 32.8788 44.5426 32.8681 44.6354C32.8792 44.7305 32.8792 44.8266 32.8681 44.9217C32.8516 45.0126 32.8252 45.1014 32.7894 45.1865C32.7555 45.2735 32.7097 45.3554 32.6534 45.4299C32.602 45.5101 32.542 45.5845 32.4744 45.6518C32.3405 45.7832 32.1825 45.8877 32.0092 45.9596C31.846 46.0294 31.6712 46.0682 31.4938 46.0741Z" fill="white"/>
<path d="M31.4937 41.8296C31.401 41.8402 31.3073 41.8402 31.2146 41.8296C31.1211 41.8141 31.0299 41.7876 30.9426 41.7509C30.8563 41.7155 30.7745 41.6699 30.6992 41.6149C30.6198 41.5654 30.5475 41.5051 30.4845 41.436C30.3479 41.3002 30.2401 41.1384 30.1675 40.96C30.095 40.7817 30.0591 40.5906 30.0621 40.3981C30.0516 40.3053 30.0516 40.2117 30.0621 40.1189C30.0931 39.9329 30.1665 39.7565 30.2769 39.6035C30.3266 39.5243 30.3868 39.452 30.4558 39.3888C30.5189 39.3196 30.5911 39.2594 30.6706 39.2098C30.7477 39.1578 30.8291 39.1123 30.9139 39.0738C31.0014 39.0377 31.0926 39.0113 31.1859 38.9951C31.3703 38.9596 31.5598 38.9596 31.7442 38.9951C31.8354 39.0104 31.9244 39.0368 32.0091 39.0738C32.0969 39.1107 32.1808 39.1563 32.2596 39.2098C32.4137 39.316 32.5471 39.4495 32.6533 39.6035C32.7083 39.6789 32.7539 39.7606 32.7893 39.8469C32.826 39.9342 32.8525 40.0255 32.868 40.1189C32.9062 40.303 32.9062 40.4931 32.868 40.6772C32.8525 40.7706 32.826 40.8619 32.7893 40.9492C32.754 41.0356 32.7084 41.1173 32.6533 41.1926C32.6035 41.2719 32.5433 41.3441 32.4743 41.4073C32.2142 41.6693 31.8628 41.8206 31.4937 41.8296Z" fill="white"/>
<path d="M31.4937 37.535C31.114 37.535 30.7499 37.3842 30.4814 37.1157C30.213 36.8473 30.0621 36.4831 30.0621 36.1034C30.0516 36.0107 30.0516 35.917 30.0621 35.8243C30.0931 35.6382 30.1665 35.4619 30.2769 35.3089C30.3266 35.2296 30.3868 35.1574 30.4558 35.0942C30.5189 35.025 30.5911 34.9648 30.6706 34.9152C30.7461 34.8606 30.8278 34.8149 30.9139 34.7792C31.0014 34.7431 31.0926 34.7167 31.1859 34.7005C31.3703 34.6649 31.5598 34.6649 31.7442 34.7005C31.8354 34.7157 31.9244 34.7422 32.0091 34.7792C32.0983 34.8132 32.1826 34.8589 32.2596 34.9152C32.4137 35.0214 32.5471 35.1548 32.6533 35.3089C32.7083 35.3843 32.7539 35.466 32.7893 35.5523C32.826 35.6396 32.8525 35.7309 32.868 35.8243C32.8979 35.9148 32.9171 36.0085 32.9253 36.1034C32.9363 36.1962 32.9363 36.2899 32.9253 36.3826C32.9097 36.476 32.8833 36.5673 32.8466 36.6546C32.8113 36.741 32.7656 36.8227 32.7106 36.898C32.6608 36.9772 32.6006 37.0495 32.5316 37.1127C32.3959 37.2493 32.234 37.3571 32.0557 37.4296C31.8774 37.5022 31.6862 37.538 31.4937 37.535Z" fill="white"/>
<path d="M1.43154 60.4395C1.05187 60.4395 0.687753 60.2887 0.419288 60.0202C0.150823 59.7518 0 59.3877 0 59.008V54.5631C0.00196765 52.88 0.554178 51.2438 1.57246 49.9037C2.59075 48.5637 4.01926 47.5933 5.64026 47.1405C6.00567 46.8923 6.28561 46.5373 6.44192 46.1241C6.54087 45.8985 6.59197 45.6548 6.59197 45.4084C6.59197 45.162 6.54087 44.9183 6.44192 44.6926C6.28696 44.4049 6.11734 44.1254 5.93372 43.8552C4.33564 41.5917 3.50984 38.8733 3.57884 36.1034C3.57884 35.7237 3.72967 35.3596 3.99813 35.0911C4.2666 34.8227 4.63071 34.6718 5.01038 34.6718C5.39005 34.6718 5.75417 34.8227 6.02263 35.0911C6.2911 35.3596 6.44192 35.7237 6.44192 36.1034C6.3979 38.3088 7.07106 40.469 8.36018 42.259C8.60575 42.6229 8.83039 43.0005 9.033 43.3899C9.316 43.9827 9.46881 44.6293 9.48116 45.2861C9.4935 45.9429 9.3651 46.5947 9.10458 47.1978C8.88238 47.7883 8.5426 48.3275 8.10582 48.7827C7.66904 49.2379 7.14437 49.5997 6.5636 49.8461H6.45624C5.42815 50.1246 4.52046 50.7341 3.87355 51.5802C3.22663 52.4264 2.87653 53.4621 2.87739 54.5273V59.008C2.8774 59.1972 2.8399 59.3845 2.76707 59.5591C2.69423 59.7338 2.58751 59.8922 2.45305 60.0253C2.3186 60.1585 2.1591 60.2636 1.98376 60.3347C1.80842 60.4058 1.62073 60.4414 1.43154 60.4395Z" fill="white"/>
<path d="M21.4733 60.44C21.0936 60.44 20.7295 60.2892 20.461 60.0207C20.1925 59.7522 20.0417 59.3881 20.0417 59.0084V54.5777C20.0425 53.5125 19.6924 52.4768 19.0455 51.6306C18.3986 50.7844 17.4908 50.1749 16.4627 49.8964C16.2574 49.8423 16.0651 49.7473 15.8973 49.6173C15.2674 49.109 13.7499 47.8135 13.2989 46.7541C13.1678 46.408 13.1758 46.0246 13.3212 45.6843C13.4666 45.344 13.7382 45.0732 14.0789 44.9288C14.4196 44.7843 14.8031 44.7775 15.1487 44.9096C15.4944 45.0417 15.7755 45.3026 15.933 45.6375C16.3747 46.2297 16.8921 46.7616 17.472 47.2194C19.0438 47.7063 20.4188 48.683 21.3962 50.0068C22.3736 51.3306 22.9022 52.9322 22.9048 54.5777V59.0084C22.9048 59.3881 22.754 59.7522 22.4855 60.0207C22.2171 60.2892 21.8529 60.44 21.4733 60.44Z" fill="white"/>
<path d="M11.4521 47.5561C10.4509 47.5711 9.46518 47.3081 8.6046 46.7963C7.74401 46.2845 7.04229 45.544 6.57753 44.6571C6.40003 44.3211 6.36328 43.9283 6.47537 43.5652C6.58746 43.2021 6.8392 42.8984 7.17521 42.7209C7.51123 42.5434 7.904 42.5066 8.26711 42.6187C8.63022 42.7308 8.93393 42.9826 9.11143 43.3186C9.33571 43.7422 9.67341 44.0951 10.0868 44.3378C10.5001 44.5805 10.9728 44.7035 11.4521 44.6929C11.8777 44.7468 12.3098 44.672 12.6925 44.4781C13.0753 44.2842 13.3912 43.98 13.5994 43.6049C13.8113 43.1148 14.0503 42.6369 14.3152 42.1733C15.4495 40.3806 16.0686 38.3104 16.1047 36.1893C16.1047 35.8096 16.2555 35.4455 16.524 35.177C16.7925 34.9085 17.1566 34.7577 17.5363 34.7577C17.916 34.7577 18.2801 34.9085 18.5486 35.177C18.817 35.4455 18.9679 35.8096 18.9679 36.1893C18.9334 38.7826 18.1908 41.3171 16.8205 43.519C16.595 43.9006 16.3919 44.2949 16.2121 44.7L16.1476 44.836C15.7174 45.6995 15.0431 46.4176 14.2083 46.9011C13.3735 47.3847 12.4151 47.6124 11.4521 47.5561Z" fill="white"/>
<path d="M11.4526 52.8812C10.3752 52.8453 9.32495 52.5344 8.40161 51.9781C7.47826 51.4219 6.71253 50.6387 6.17721 49.7031C6.06517 49.5405 5.98796 49.3566 5.95042 49.1628C5.91289 48.9689 5.91585 48.7695 5.95912 48.5768C6.00239 48.3842 6.08503 48.2026 6.20184 48.0435C6.31866 47.8843 6.46712 47.7511 6.63792 47.6521C6.80871 47.5531 6.99813 47.4905 7.19428 47.4682C7.39044 47.4459 7.58908 47.4644 7.77773 47.5226C7.96638 47.5807 8.14096 47.6773 8.2905 47.8062C8.44004 47.9351 8.56131 48.0935 8.64668 48.2715C8.94183 48.7759 9.35833 49.1986 9.85836 49.5011C10.3584 49.8036 10.9261 49.9764 11.5098 50.0037C12.0834 49.9659 12.639 49.7882 13.1281 49.4863C13.6172 49.1843 14.0249 48.7673 14.3157 48.2715C14.5242 47.9849 14.8315 47.7858 15.1783 47.7127C15.5251 47.6396 15.8867 47.6977 16.1931 47.8759C16.4994 48.054 16.7289 48.3395 16.8369 48.677C16.945 49.0145 16.924 49.3801 16.7781 49.7031C16.2367 50.6444 15.4628 51.431 14.5303 51.9875C13.5978 52.544 12.5381 52.8517 11.4526 52.8812Z" fill="white"/>
<path d="M17.5728 37.6497C17.1931 37.6497 16.829 37.4989 16.5605 37.2304C16.292 36.962 16.1412 36.5978 16.1412 36.2181C16.1403 35.6041 16.0182 34.9962 15.7819 34.4294C15.5456 33.8626 15.1997 33.348 14.7642 32.9151C14.3286 32.4822 13.8119 32.1396 13.2437 31.9067C12.6755 31.6739 12.0669 31.5555 11.4528 31.5584C8.71848 31.5584 6.44226 33.6413 6.44226 36.1036C6.44226 36.4833 6.29144 36.8474 6.02296 37.1159C5.75449 37.3844 5.39036 37.5352 5.01068 37.5352C4.631 37.5352 4.26688 37.3844 3.9984 37.1159C3.72993 36.8474 3.5791 36.4833 3.5791 36.1036C3.5791 32.088 7.201 28.6952 11.4528 28.6952C12.4429 28.6924 13.4238 28.8848 14.3394 29.2615C15.255 29.6382 16.0873 30.1918 16.7887 30.8906C17.4902 31.5893 18.0469 32.4196 18.4271 33.3337C18.8073 34.2479 19.0034 35.2281 19.0044 36.2181C19.0044 36.5978 18.8536 36.962 18.5851 37.2304C18.3166 37.4989 17.9525 37.6497 17.5728 37.6497Z" fill="white"/>
<path d="M17.3578 38.7519C8.81845 38.7519 6.6854 37.2201 5.09634 35.5094L4.92455 35.3233C4.68162 35.0457 4.55524 34.685 4.57175 34.3165C4.58826 33.948 4.74639 33.6 5.01317 33.3453C5.27994 33.0905 5.63477 32.9485 6.00367 32.949C6.37256 32.9494 6.72704 33.0923 6.99318 33.3477L7.1936 33.5624C8.10982 34.5431 9.34098 35.8888 17.3578 35.8888C17.7375 35.8888 18.1016 36.0396 18.3701 36.3081C18.6386 36.5765 18.7894 36.9407 18.7894 37.3203C18.7894 37.7 18.6386 38.0642 18.3701 38.3326C18.1016 38.6011 17.7375 38.7519 17.3578 38.7519Z" fill="white"/>
</svg>
