<svg width="19" height="12" viewBox="0 0 19 12" fill="none" xmlns="http://www.w3.org/2000/svg">
<path d="M5.7 6C7.53766 6 9.025 4.65804 9.025 3C9.025 1.34196 7.53766 0 5.7 0C3.86234 0 2.375 1.34196 2.375 3C2.375 4.65804 3.86234 6 5.7 6ZM7.98 6.85714H7.73359C7.11609 7.125 6.43031 7.28571 5.7 7.28571C4.96969 7.28571 4.28687 7.125 3.66641 6.85714H3.42C1.53187 6.85714 0 8.23929 0 9.94286V10.7143C0 11.4241 0.638281 12 1.425 12H9.975C10.7617 12 11.4 11.4241 11.4 10.7143V9.94286C11.4 8.23929 9.86812 6.85714 7.98 6.85714ZM14.25 6C15.8234 6 17.1 4.84821 17.1 3.42857C17.1 2.00893 15.8234 0.857143 14.25 0.857143C12.6766 0.857143 11.4 2.00893 11.4 3.42857C11.4 4.84821 12.6766 6 14.25 6ZM15.675 6.85714H15.5622C15.1495 6.98571 14.7131 7.07143 14.25 7.07143C13.7869 7.07143 13.3505 6.98571 12.9378 6.85714H12.825C12.2194 6.85714 11.6612 7.01518 11.1714 7.26964C11.8958 7.97411 12.35 8.90893 12.35 9.94286V10.9714C12.35 11.0304 12.3352 11.0866 12.3322 11.1429H17.575C18.3617 11.1429 19 10.567 19 9.85714C19 8.19911 17.5127 6.85714 15.675 6.85714Z" fill="white"/>
</svg>
