<svg width="32" height="32" viewBox="0 0 32 32" fill="none" xmlns="http://www.w3.org/2000/svg">
<g opacity="0.6">
<path d="M19.9195 18.3177C19.1151 17.8783 18.1926 17.6289 17.212 17.6289H14.8813C13.8732 17.6289 12.927 17.8927 12.1076 18.3545C10.3845 19.3245 9.2207 21.1714 9.2207 23.2895V25.0358H22.8726V23.2895C22.8726 21.1439 21.6788 19.2777 19.9195 18.3177Z" fill="white"/>
<path d="M26.3571 16.0781H24.4196C23.2884 16.0781 22.234 16.4125 21.3496 16.9888C21.7746 17.2675 22.174 17.5931 22.5421 17.9612C23.9652 19.3844 24.749 21.2769 24.749 23.29V24.1112H32.0009V21.7219C32.0009 18.61 29.469 16.0781 26.3571 16.0781Z" fill="white"/>
<path d="M7.58125 16.0781H5.64375C2.53188 16.0781 0 18.61 0 21.7219V24.1112H7.34625V23.29C7.34625 21.2769 8.13062 19.3844 9.55375 17.9612C9.90812 17.6069 10.2912 17.2919 10.6987 17.02C9.805 16.425 8.73313 16.0781 7.58125 16.0781Z" fill="white"/>
<path d="M25.385 7.58984C25.3751 7.58984 25.3648 7.58991 25.3548 7.59003C23.2574 7.60734 21.5659 9.42016 21.5841 11.631C21.6023 13.8313 23.3069 15.6092 25.3908 15.6092C25.4008 15.6092 25.411 15.6092 25.421 15.609C26.4494 15.6005 27.4091 15.1673 28.1234 14.389C28.821 13.6287 29.2004 12.627 29.1917 11.5681C29.1735 9.36778 27.4689 7.58984 25.385 7.58984Z" fill="white"/>
<path d="M6.60961 7.58984C6.59968 7.58984 6.58936 7.58991 6.57936 7.59003C4.48199 7.60734 2.79049 9.42016 2.80874 11.631C2.82687 13.8313 4.53155 15.6092 6.61536 15.6092C6.62536 15.6092 6.63561 15.6092 6.64561 15.609C7.67399 15.6005 8.63374 15.1673 9.34799 14.389C10.0457 13.6287 10.4251 12.627 10.4163 11.5681C10.3981 9.36778 8.69349 7.58984 6.60961 7.58984Z" fill="white"/>
<path d="M16.0471 6.96484C13.629 6.96484 11.6621 9.04297 11.6621 11.598C11.6621 13.4442 12.6896 15.0417 14.1727 15.7855C14.7415 16.0711 15.3771 16.2305 16.0471 16.2305C16.7171 16.2305 17.3527 16.0711 17.9215 15.7855C19.4046 15.0417 20.4321 13.4442 20.4321 11.598C20.4321 9.04297 18.4652 6.96484 16.0471 6.96484Z" fill="white"/>
</g>
</svg>
