<svg width="105" height="26" viewBox="0 0 105 26" fill="none" xmlns="http://www.w3.org/2000/svg">
<rect width="26" height="26" rx="2" fill="url(#paint0_radial_60_59973)"/>
<path d="M6.90625 6.40625V19.5938C6.90625 20.3692 7.53706 21 8.3125 21H17.6875C18.4629 21 19.0938 20.3692 19.0938 19.5938V6.40625C19.0938 5.63081 18.4629 5 17.6875 5H8.3125C7.53706 5 6.90625 5.63081 6.90625 6.40625ZM11.5938 18.1875H14.4062V19.125H11.5938V18.1875Z" fill="white"/>
<rect x="31" width="74" height="26" rx="1" fill="url(#paint1_radial_60_59973)" fill-opacity="0.25"/>
<path d="M52.12 8.2C52.9973 8.2 53.73 8.494 54.318 9.082C54.906 9.67 55.2 10.4027 55.2 11.28C55.2 12.1573 54.906 12.89 54.318 13.478C53.73 14.066 52.9973 14.36 52.12 14.36H49.6V18H48.62V8.2H52.12ZM52.12 13.436C52.7267 13.436 53.226 13.2353 53.618 12.834C54.0193 12.4233 54.22 11.9053 54.22 11.28C54.22 10.6547 54.0193 10.1413 53.618 9.74C53.226 9.32933 52.7267 9.124 52.12 9.124H49.6V13.436H52.12ZM60.0138 10.832C60.8631 10.832 61.5305 11.0933 62.0158 11.616C62.5105 12.1293 62.7578 12.8247 62.7578 13.702V18H61.8338V13.702C61.8338 13.0767 61.6658 12.5913 61.3298 12.246C61.0031 11.9007 60.5365 11.728 59.9298 11.728C59.2578 11.728 58.7118 11.9427 58.2918 12.372C57.8718 12.792 57.6618 13.4453 57.6618 14.332V18H56.7378V8.2H57.6618V12.092C58.1845 11.252 58.9685 10.832 60.0138 10.832ZM70.4105 17.118C69.7011 17.818 68.8331 18.168 67.8065 18.168C66.7798 18.168 65.9071 17.818 65.1885 17.118C64.4791 16.4087 64.1245 15.536 64.1245 14.5C64.1245 13.464 64.4791 12.596 65.1885 11.896C65.9071 11.1867 66.7798 10.832 67.8065 10.832C68.8331 10.832 69.7011 11.1867 70.4105 11.896C71.1291 12.596 71.4885 13.464 71.4885 14.5C71.4885 15.536 71.1291 16.4087 70.4105 17.118ZM65.8465 16.474C66.3785 17.006 67.0318 17.272 67.8065 17.272C68.5811 17.272 69.2345 17.006 69.7665 16.474C70.2985 15.9327 70.5645 15.2747 70.5645 14.5C70.5645 13.7253 70.2985 13.072 69.7665 12.54C69.2345 11.9987 68.5811 11.728 67.8065 11.728C67.0318 11.728 66.3785 11.9987 65.8465 12.54C65.3145 13.072 65.0485 13.7253 65.0485 14.5C65.0485 15.2747 65.3145 15.9327 65.8465 16.474ZM76.3107 10.832C77.16 10.832 77.8274 11.0933 78.3127 11.616C78.8074 12.1293 79.0547 12.8247 79.0547 13.702V18H78.1307V13.702C78.1307 13.0767 77.9627 12.5913 77.6267 12.246C77.3 11.9007 76.8334 11.728 76.2267 11.728C75.5547 11.728 75.0087 11.9427 74.5887 12.372C74.1687 12.792 73.9587 13.4453 73.9587 14.332V18H73.0347V11H73.9587V12.092C74.4814 11.252 75.2654 10.832 76.3107 10.832ZM84.0753 10.832C85.1113 10.832 85.9467 11.2007 86.5813 11.938C87.2253 12.666 87.5473 13.5293 87.5473 14.528C87.5473 14.6307 87.538 14.7753 87.5193 14.962H81.3733C81.4667 15.6713 81.7653 16.236 82.2693 16.656C82.7827 17.0667 83.4127 17.272 84.1593 17.272C84.6913 17.272 85.1487 17.1647 85.5313 16.95C85.9233 16.726 86.2173 16.4367 86.4133 16.082L87.2253 16.558C86.9173 17.0527 86.4973 17.4447 85.9653 17.734C85.4333 18.0233 84.8267 18.168 84.1453 18.168C83.044 18.168 82.148 17.8227 81.4573 17.132C80.7667 16.4413 80.4213 15.564 80.4213 14.5C80.4213 13.4547 80.762 12.582 81.4433 11.882C82.1247 11.182 83.002 10.832 84.0753 10.832ZM84.0753 11.728C83.3473 11.728 82.736 11.9473 82.2413 12.386C81.756 12.8153 81.4667 13.3753 81.3733 14.066H86.5953C86.502 13.3287 86.2173 12.7547 85.7413 12.344C85.2653 11.9333 84.71 11.728 84.0753 11.728Z" fill="white"/>
<defs>
<radialGradient id="paint0_radial_60_59973" cx="0" cy="0" r="1" gradientUnits="userSpaceOnUse" gradientTransform="translate(13 13) rotate(90) scale(25)">
<stop stop-color="#5F79DF"/>
<stop offset="1" stop-color="#5F70DF" stop-opacity="0"/>
</radialGradient>
<radialGradient id="paint1_radial_60_59973" cx="0" cy="0" r="1" gradientUnits="userSpaceOnUse" gradientTransform="translate(68 13) rotate(90) scale(25 71.1538)">
<stop stop-color="white"/>
<stop offset="1" stop-color="white" stop-opacity="0"/>
</radialGradient>
</defs>
</svg>
