<svg width="112" height="28" viewBox="0 0 112 28" fill="none" xmlns="http://www.w3.org/2000/svg">
<rect width="112" height="28" rx="4" fill="#F2C94C"/>
<path d="M15.75 8.75H20.25V19.25H15.75V8.75ZM21 12.5H23.625V19.25H21V12.5ZM12.375 11H15V19.25H12.375V11Z" fill="#141B1F"/>
<path d="M30.11 17V15.72C30.5233 15.78 30.8333 15.6967 31.04 15.47C31.2467 15.2433 31.35 14.8 31.35 14.14V10H36.11V17H34.74V11.32H32.72V14.1C32.72 14.7067 32.6467 15.2167 32.5 15.63C32.3533 16.0433 32.15 16.35 31.89 16.55C31.6367 16.75 31.3633 16.8833 31.07 16.95C30.7833 17.0167 30.4633 17.0333 30.11 17ZM40.6078 12H41.9878L40.1678 17C39.6611 18.4067 38.7811 19.0733 37.5278 19V17.8C37.8678 17.8067 38.1345 17.7433 38.3278 17.61C38.5278 17.4767 38.6878 17.2533 38.8078 16.94L36.7878 12H38.1578L39.4978 15.36L40.6078 12ZM45.5517 12H46.8417V17H45.5517V15.41C45.1784 15.53 44.7817 15.59 44.3617 15.59C43.7551 15.59 43.2684 15.4367 42.9017 15.13C42.5417 14.8233 42.3617 14.3767 42.3617 13.79V12H43.6517V13.64C43.6517 14.14 43.9617 14.39 44.5817 14.39C44.9417 14.39 45.2651 14.3267 45.5517 14.2V12ZM53.8719 12H55.1619V17H48.0119V12H49.3019V15.79H50.9419V12H52.2319V15.79H53.8719V12ZM59.952 12H60.912V17H59.652V14.16L57.302 17H56.342V12H57.602V14.84L59.952 12ZM62.9339 11.36V10.24H65.8339V11.36H62.9339ZM65.7039 12H66.6639V17H65.4039V14.16L63.0539 17H62.0939V12H63.3539V14.84L65.7039 12ZM73.6259 12H74.9159V17H73.6259V15.1H71.6359V17H70.3459V12H71.6359V13.89H73.6259V12ZM79.8978 12H81.1878V17H79.8978V16.41C79.5111 16.8967 78.9678 17.14 78.2678 17.14C77.6011 17.14 77.0278 16.8867 76.5478 16.38C76.0745 15.8667 75.8378 15.24 75.8378 14.5C75.8378 13.76 76.0745 13.1367 76.5478 12.63C77.0278 12.1167 77.6011 11.86 78.2678 11.86C78.9678 11.86 79.5111 12.1033 79.8978 12.59V12ZM77.5178 15.52C77.7778 15.78 78.1078 15.91 78.5078 15.91C78.9078 15.91 79.2378 15.78 79.4978 15.52C79.7645 15.2533 79.8978 14.9133 79.8978 14.5C79.8978 14.0867 79.7645 13.75 79.4978 13.49C79.2378 13.2233 78.9078 13.09 78.5078 13.09C78.1078 13.09 77.7778 13.2233 77.5178 13.49C77.2578 13.75 77.1278 14.0867 77.1278 14.5C77.1278 14.9133 77.2578 15.2533 77.5178 15.52ZM85.9576 14.44C86.4242 14.6667 86.6576 15.0467 86.6576 15.58C86.6576 16 86.5109 16.3433 86.2176 16.61C85.9309 16.87 85.5209 17 84.9876 17H82.3576V12H84.7876C85.3142 12 85.7209 12.13 86.0076 12.39C86.3009 12.65 86.4476 12.99 86.4476 13.41C86.4476 13.85 86.2842 14.1933 85.9576 14.44ZM84.6676 13.06H83.5676V13.96H84.6676C85.0342 13.96 85.2176 13.81 85.2176 13.51C85.2176 13.21 85.0342 13.06 84.6676 13.06ZM84.8376 15.91C85.2109 15.91 85.3976 15.75 85.3976 15.43C85.3976 15.29 85.3476 15.18 85.2476 15.1C85.1476 15.02 85.0109 14.98 84.8376 14.98H83.5676V15.91H84.8376ZM89.725 13.6C90.2917 13.6 90.7483 13.7567 91.095 14.07C91.4417 14.3767 91.615 14.7867 91.615 15.3C91.615 15.8133 91.4417 16.2267 91.095 16.54C90.7483 16.8467 90.2917 17 89.725 17H87.465V12H88.755V13.6H89.725ZM92.165 12H93.455V17H92.165V12ZM89.735 15.86C89.915 15.86 90.0617 15.81 90.175 15.71C90.295 15.6033 90.355 15.4667 90.355 15.3C90.355 15.1333 90.295 14.9967 90.175 14.89C90.0617 14.7833 89.915 14.73 89.735 14.73H88.755V15.86H89.735ZM99.243 17H97.743L95.923 14.73V17H94.633V12H95.923V14.2L97.643 12H99.183L97.173 14.47L99.243 17Z" fill="#141B1F"/>
</svg>
