<svg width="30" height="30" viewBox="0 0 30 30" fill="none" xmlns="http://www.w3.org/2000/svg">
<g opacity="1">
<path d="M3.72195 28.6328C3.45265 29.0367 3.56181 29.5824 3.9657 29.8516C4.11558 29.9515 4.28492 29.9994 4.45244 29.9994C4.73644 29.9994 5.01517 29.8619 5.18451 29.6078L5.85435 28.6031C5.31212 28.3651 4.7955 28.0792 4.31046 27.75L3.72195 28.6328Z" fill="white"/>
<path d="M25.6904 27.75C25.2053 28.0792 24.6888 28.3651 24.1465 28.6031L24.8163 29.6078C24.9857 29.8619 25.2643 29.9994 25.5484 29.9994C25.7159 29.9994 25.8853 29.9515 26.0352 29.8516C26.4391 29.5824 26.5482 29.0367 26.2789 28.6328L25.6904 27.75Z" fill="white"/>
<path d="M1.81641 17V19.7456C1.81641 24.1072 5.3649 27.6557 9.72657 27.6557H20.2734C24.6351 27.6557 28.1836 24.1072 28.1836 19.7456V19.2338H13.6607C9.57475 19.2338 5.59752 18.4825 1.81641 17V17Z" fill="white"/>
<path d="M4.74609 10.3587V3.22266C4.74609 2.41494 5.40322 1.75781 6.21093 1.75781H7.38281C8.19052 1.75781 8.84765 2.41494 8.84765 3.22266V3.63967C7.48898 4.03113 6.5039 5.30625 6.5039 6.78721V7.03125C6.5039 7.51664 6.89742 7.91016 7.38281 7.91016H12.0703C12.5557 7.91016 12.9492 7.51664 12.9492 7.03125V6.73828C12.9492 5.266 11.9565 4.02187 10.6055 3.63826V3.22266C10.6055 1.44568 9.15978 0 7.38281 0H6.21093C4.43396 0 2.98828 1.44568 2.98828 3.22266V9.65297C3.12668 9.69551 3.26332 9.74549 3.39744 9.80496C3.84328 10.0031 4.29299 10.1874 4.74609 10.3587V10.3587Z" fill="white"/>
<path d="M28.0737 13.7403H13.6608C9.85437 13.7403 6.16221 12.9566 2.68531 11.4112C1.74113 10.9929 0.638928 11.4167 0.220041 12.359C-0.198845 13.3013 0.22549 14.4054 1.16785 14.8242C5.12568 16.5837 9.3285 17.4755 13.6609 17.4755H28.0738C29.1055 17.4755 29.9415 16.6396 29.9415 15.6079C29.9414 14.5762 29.1054 13.7403 28.0737 13.7403V13.7403Z" fill="white"/>
</g>
</svg>
