<svg width="16" height="22" viewBox="0 0 16 22" fill="none" xmlns="http://www.w3.org/2000/svg">
<path d="M9.20001 5C10.5255 5 11.6 3.92548 11.6 2.6C11.6 1.27452 10.5255 0.200001 9.20001 0.200001C7.87453 0.200001 6.80001 1.27452 6.80001 2.6L6.79993 5.44066L4.40388 5.14116C3.19947 4.9906 2.07225 5.76299 1.77786 6.94054L0.835754 10.709L3.1641 11.291L4.1062 7.52262L6.5424 7.82715L5.62153 11.971L5.07231 15.2664L1.09683 19.8098L2.90302 21.3902L6.87849 16.8468C7.17205 16.5113 7.36636 16.1007 7.43965 15.661L7.65908 14.3444L10.3999 16.4V21.8H12.7999V16.4C12.7999 15.6446 12.4443 14.9333 11.8399 14.48L8.1393 11.7045L8.83794 8.56065L10.4404 9.36188C11.2107 9.74704 12.1284 9.68991 12.845 9.21217L15.8656 7.19846L14.5343 5.20154L11.5137 7.21525L9.19993 6.05836L9.20001 5Z" fill="white"/>
</svg>
