<svg width="32" height="32" viewBox="0 0 32 32" fill="none" xmlns="http://www.w3.org/2000/svg">
<path d="M12.6668 14.0003H16.0001C16.3537 14.0003 16.6929 13.8598 16.9429 13.6097C17.1929 13.3597 17.3334 13.0205 17.3334 12.6669C17.3334 12.3133 17.1929 11.9742 16.9429 11.7241C16.6929 11.4741 16.3537 11.3336 16.0001 11.3336H14.6668V10.6669C14.6668 10.3133 14.5263 9.97416 14.2762 9.72411C14.0262 9.47406 13.687 9.33359 13.3334 9.33359C12.9798 9.33359 12.6407 9.47406 12.3906 9.72411C12.1406 9.97416 12.0001 10.3133 12.0001 10.6669V11.4003C11.19 11.5648 10.4699 12.0244 9.97963 12.6899C9.48936 13.3555 9.26388 14.1795 9.34695 15.0019C9.43003 15.8244 9.81574 16.5866 10.4292 17.1407C11.0427 17.6947 11.8401 18.0011 12.6668 18.0003H14.0001C14.1769 18.0003 14.3465 18.0705 14.4715 18.1955C14.5965 18.3205 14.6668 18.4901 14.6668 18.6669C14.6668 18.8437 14.5965 19.0133 14.4715 19.1383C14.3465 19.2634 14.1769 19.3336 14.0001 19.3336H10.6668C10.3131 19.3336 9.974 19.4741 9.72395 19.7241C9.4739 19.9742 9.33343 20.3133 9.33343 20.6669C9.33343 21.0205 9.4739 21.3597 9.72395 21.6097C9.974 21.8598 10.3131 22.0003 10.6668 22.0003H12.0001V22.6669C12.0001 23.0205 12.1406 23.3597 12.3906 23.6097C12.6407 23.8598 12.9798 24.0003 13.3334 24.0003C13.687 24.0003 14.0262 23.8598 14.2762 23.6097C14.5263 23.3597 14.6668 23.0205 14.6668 22.6669V21.9336C15.4769 21.7691 16.1969 21.3095 16.6872 20.6439C17.1775 19.9784 17.403 19.1544 17.3199 18.3319C17.2368 17.5095 16.8511 16.7472 16.2376 16.1932C15.6242 15.6391 14.8267 15.3328 14.0001 15.3336H12.6668C12.4899 15.3336 12.3204 15.2634 12.1954 15.1383C12.0703 15.0133 12.0001 14.8437 12.0001 14.6669C12.0001 14.4901 12.0703 14.3205 12.1954 14.1955C12.3204 14.0705 12.4899 14.0003 12.6668 14.0003ZM28.0001 16.0003H24.0001V4.00025C24.001 3.76531 23.9399 3.53429 23.8228 3.33058C23.7057 3.12688 23.5369 2.95773 23.3334 2.84025C23.1307 2.72323 22.9008 2.66162 22.6668 2.66162C22.4327 2.66162 22.2028 2.72323 22.0001 2.84025L18.0001 5.13359L14.0001 2.84025C13.7974 2.72323 13.5675 2.66162 13.3334 2.66162C13.0994 2.66162 12.8695 2.72323 12.6668 2.84025L8.66676 5.13359L4.66676 2.84025C4.46407 2.72323 4.23414 2.66162 4.00009 2.66162C3.76604 2.66162 3.53612 2.72323 3.33343 2.84025C3.12995 2.95773 2.96113 3.12688 2.84406 3.33058C2.72699 3.53429 2.66583 3.76531 2.66676 4.00025V25.3336C2.66676 26.3945 3.08819 27.4119 3.83833 28.162C4.58848 28.9122 5.60589 29.3336 6.66676 29.3336H25.3334C26.3943 29.3336 27.4117 28.9122 28.1619 28.162C28.912 27.4119 29.3334 26.3945 29.3334 25.3336V17.3336C29.3334 16.98 29.193 16.6408 28.9429 16.3908C28.6929 16.1407 28.3537 16.0003 28.0001 16.0003ZM6.66676 26.6669C6.31314 26.6669 5.974 26.5264 5.72395 26.2764C5.4739 26.0263 5.33343 25.6872 5.33343 25.3336V6.30692L8.00009 7.82692C8.20588 7.9344 8.4346 7.99054 8.66676 7.99054C8.89892 7.99054 9.12764 7.9344 9.33343 7.82692L13.3334 5.53359L17.3334 7.82692C17.5392 7.9344 17.7679 7.99054 18.0001 7.99054C18.2323 7.99054 18.461 7.9344 18.6668 7.82692L21.3334 6.30692V25.3336C21.337 25.7884 21.4182 26.2394 21.5734 26.6669H6.66676ZM26.6668 25.3336C26.6668 25.6872 26.5263 26.0263 26.2762 26.2764C26.0262 26.5264 25.687 26.6669 25.3334 26.6669C24.9798 26.6669 24.6407 26.5264 24.3906 26.2764C24.1406 26.0263 24.0001 25.6872 24.0001 25.3336V18.6669H26.6668V25.3336Z" fill="white"/>
</svg>
