<svg width="115" height="115" viewBox="0 0 115 115" fill="none" xmlns="http://www.w3.org/2000/svg">
<path fill-rule="evenodd" clip-rule="evenodd" d="M78.1864 63.4306C79.2038 62.4151 80.8798 62.4042 81.9134 63.3905L112.479 92.5562C113.521 93.5506 113.54 95.1805 112.519 96.2005L101.452 107.247C100.432 108.265 98.7993 108.25 97.801 107.207L68.5823 76.6974C67.5871 75.6583 67.6091 73.9887 68.6225 72.9772L78.1864 63.4306ZM47.2475 30.3118L63.0424 45.3835C64.0941 46.387 64.1101 48.0134 63.0921 49.0295L54.1953 57.9103C53.1777 58.926 51.5419 58.9041 50.5424 57.8605L35.442 42.0928C34.4499 41.0569 32.815 41.0394 31.7946 42.058L25.2698 48.571C24.2476 49.5913 24.2498 51.2394 25.2696 52.2573L25.5892 52.5763C26.6082 53.5935 26.6092 55.2416 25.5893 56.2596L21.2154 60.6256C20.1965 61.6427 18.5419 61.6401 17.5254 60.6254L2.76467 45.8915C1.74565 44.8743 1.74463 43.2261 2.7645 42.2081L7.13838 37.8422C8.15731 36.8251 9.81196 36.8277 10.8284 37.8423L11.194 38.2073C12.2181 39.2295 13.8694 39.227 14.8894 38.2088L21.6493 31.4613C22.6703 30.4421 22.6866 28.7738 21.6889 27.732L21.3315 27.3589C20.3353 26.3186 20.3507 24.6537 21.3744 23.6319L28.7515 16.2682C29.7715 15.2501 31.4409 15.2289 32.4852 16.2254L32.859 16.5821C33.906 17.5811 35.5752 17.5606 36.5944 16.5432L42.8373 10.3117C48.5967 4.56272 57.934 4.56224 63.6957 10.3134L68.3731 14.9823C69.3894 15.9969 69.2563 16.4945 68.0735 16.0918C63.1858 14.8368 57.7791 16.1206 53.9512 19.9415L47.2056 26.6748C46.1868 27.6919 46.2069 29.3188 47.2475 30.3118ZM86.7775 51.1716L56.1627 81.7309C55.1493 82.7424 54.6036 84.7038 54.9555 86.1C54.9555 86.1 54.9623 85.8261 55.1135 86.9803C55.8034 92.248 54.1212 97.766 50.067 101.813C46.9889 104.885 43.0611 106.593 39.0386 106.936C37.6109 107.058 37.3674 106.953 37.3674 106.953C35.9187 106.878 35.5822 105.958 36.6047 104.937L43.7944 97.7603C45.8302 95.7281 45.8333 92.4299 43.7972 90.3975L36.4098 83.0235C34.3734 80.9908 31.0713 80.9923 29.0336 83.0263L22.0601 89.9872C21.3709 90.6751 21.831 90.2159 21.831 90.2159C20.8187 91.2263 19.9182 90.8856 19.8264 89.448C19.8264 89.448 19.718 89.156 19.8469 87.7101C20.2028 83.717 21.9117 79.8215 24.9737 76.7651C29.06 72.6862 34.6434 71.0127 39.9583 71.7445C41.072 71.8978 40.7083 71.88 40.7083 71.88C42.1158 72.2149 44.0735 71.6972 45.0921 70.6804L75.707 40.1211C76.7203 39.1096 77.2651 37.147 76.9122 35.7491C76.9122 35.7491 76.9138 36.0537 76.7617 34.9138C76.0573 29.6335 77.7376 24.0968 81.8026 20.0392C85.0777 16.7701 89.3144 15.0461 93.6038 14.8671C94.7769 14.8182 95.0297 14.8969 95.0297 14.8969C96.1931 14.9805 96.457 15.7252 95.6436 16.5371L88.0753 24.0917C86.0394 26.1239 86.0364 29.4221 88.0725 31.4545L95.4598 38.8285C97.4963 40.8612 100.798 40.8597 102.836 38.8257L110.404 31.2711C111.212 30.4646 111.952 30.7331 112.044 31.8828C112.044 31.8828 112.131 32.2201 112.072 33.4326C111.864 37.6713 110.139 41.8498 106.896 45.087C102.839 49.1362 97.3071 50.815 92.027 50.1231C90.8739 49.972 91.1476 49.9654 91.1476 49.9654C89.7451 49.6327 87.7961 50.1549 86.7775 51.1716Z" fill="white"/>
</svg>
