<svg width="124" height="26" viewBox="0 0 124 26" fill="none" xmlns="http://www.w3.org/2000/svg">
<rect width="26" height="26" rx="2" fill="url(#paint0_radial_60_60017)"/>
<path d="M8.67199 16.3425C8.93381 16.6043 9.35926 16.6043 9.62108 16.3425L9.79563 16.168C10.0574 15.9061 10.0574 15.4807 9.79563 15.2189L6.58562 12.0089C6.32381 11.747 5.89835 11.747 5.63653 12.0089L5.46199 12.1834C5.20017 12.4452 5.20017 12.8707 5.46199 13.1325L8.67199 16.3425Z" fill="white"/>
<path d="M15.1525 9.86594C15.4143 10.1278 15.8397 10.1278 16.1015 9.86594L16.2761 9.69139C16.5379 9.42957 16.5379 9.00412 16.2761 8.7423L13.0661 5.5323C12.8043 5.27048 12.3788 5.27048 12.117 5.5323L11.9425 5.70685C11.6806 5.96866 11.6806 6.39412 11.9425 6.65594L15.1525 9.86594Z" fill="white"/>
<path d="M20.1352 17.8352L13.5297 12.2852L12.3516 13.4633L17.9016 20.0715C18.4988 20.7833 19.5816 20.8297 20.2388 20.1724C20.8961 19.5124 20.8497 18.4324 20.1352 17.8352Z" fill="white"/>
<path d="M7.86838 11.9211L7.56293 12.2266L9.53747 14.2011L9.84293 13.8957L10.3366 14.3893C10.4266 14.4793 10.5766 14.4793 10.6693 14.3893L14.392 10.6666C14.482 10.5738 14.482 10.4238 14.392 10.3338L13.8984 9.8402L14.1329 9.60565L12.1584 7.63111L11.9238 7.86565L11.4793 7.42111C11.3893 7.32838 11.2366 7.32838 11.1466 7.42111L7.42111 11.1438C7.32838 11.2338 7.32838 11.3866 7.42111 11.4766L7.86838 11.9211Z" fill="white"/>
<rect x="31" width="93" height="26" rx="1" fill="url(#paint1_radial_60_60017)" fill-opacity="0.25"/>
<path d="M45.12 8.2C45.9973 8.2 46.73 8.494 47.318 9.082C47.906 9.67 48.2 10.4027 48.2 11.28C48.2 12.1573 47.906 12.89 47.318 13.478C46.73 14.066 45.9973 14.36 45.12 14.36H42.6V18H41.62V8.2H45.12ZM45.12 13.436C45.7267 13.436 46.226 13.2353 46.618 12.834C47.0193 12.4233 47.22 11.9053 47.22 11.28C47.22 10.6547 47.0193 10.1413 46.618 9.74C46.226 9.32933 45.7267 9.124 45.12 9.124H42.6V13.436H45.12ZM54.6658 11H55.5898V18H54.6658V16.908C54.1431 17.748 53.3591 18.168 52.3138 18.168C51.4645 18.168 50.7925 17.9113 50.2978 17.398C49.8125 16.8753 49.5698 16.1753 49.5698 15.298V11H50.4938V15.298C50.4938 15.9233 50.6571 16.4087 50.9838 16.754C51.3198 17.0993 51.7911 17.272 52.3978 17.272C53.0698 17.272 53.6158 17.062 54.0358 16.642C54.4558 16.2127 54.6658 15.5547 54.6658 14.668V11ZM60.8205 10.832C61.6698 10.832 62.3371 11.0933 62.8225 11.616C63.3171 12.1293 63.5645 12.8247 63.5645 13.702V18H62.6405V13.702C62.6405 13.0767 62.4725 12.5913 62.1365 12.246C61.8098 11.9007 61.3431 11.728 60.7365 11.728C60.0645 11.728 59.5185 11.9427 59.0985 12.372C58.6785 12.792 58.4685 13.4453 58.4685 14.332V18H57.5445V11H58.4685V12.092C58.9911 11.252 59.7751 10.832 60.8205 10.832ZM66.2891 9.32C66.1584 9.45067 65.9998 9.516 65.8131 9.516C65.6264 9.516 65.4678 9.45067 65.3371 9.32C65.2064 9.18933 65.1411 9.03067 65.1411 8.844C65.1411 8.65733 65.2064 8.49867 65.3371 8.368C65.4678 8.23733 65.6264 8.172 65.8131 8.172C65.9998 8.172 66.1584 8.23733 66.2891 8.368C66.4198 8.49867 66.4851 8.65733 66.4851 8.844C66.4851 9.03067 66.4198 9.18933 66.2891 9.32ZM65.3511 18V11H66.2751V18H65.3511ZM68.9639 12.834C68.9639 13.1513 69.1039 13.4033 69.3839 13.59C69.6639 13.7767 70.0045 13.9213 70.4059 14.024C70.8072 14.1267 71.2085 14.2433 71.6099 14.374C72.0112 14.4953 72.3519 14.7053 72.6319 15.004C72.9119 15.2933 73.0519 15.676 73.0519 16.152C73.0519 16.7493 72.8139 17.2347 72.3379 17.608C71.8712 17.9813 71.2645 18.168 70.5179 18.168C69.8459 18.168 69.2719 18.0187 68.7959 17.72C68.3292 17.4213 68.0025 17.034 67.8159 16.558L68.5999 16.096C68.7305 16.46 68.9639 16.7493 69.2999 16.964C69.6452 17.1693 70.0512 17.272 70.5179 17.272C70.9752 17.272 71.3579 17.1833 71.6659 17.006C71.9739 16.8193 72.1279 16.5347 72.1279 16.152C72.1279 15.8347 71.9879 15.5827 71.7079 15.396C71.4279 15.2093 71.0872 15.0647 70.6859 14.962C70.2845 14.8593 69.8832 14.7473 69.4819 14.626C69.0805 14.4953 68.7399 14.2853 68.4599 13.996C68.1799 13.6973 68.0399 13.31 68.0399 12.834C68.0399 12.2647 68.2639 11.7887 68.7119 11.406C69.1692 11.0233 69.7432 10.832 70.4339 10.832C71.0032 10.832 71.5025 10.9627 71.9319 11.224C72.3612 11.476 72.6785 11.8213 72.8839 12.26L72.1139 12.708C71.8432 12.0547 71.2832 11.728 70.4339 11.728C70.0325 11.728 69.6872 11.826 69.3979 12.022C69.1085 12.2087 68.9639 12.4793 68.9639 12.834ZM77.8009 10.832C78.6503 10.832 79.3176 11.0933 79.8029 11.616C80.2976 12.1293 80.5449 12.8247 80.5449 13.702V18H79.6209V13.702C79.6209 13.0767 79.4529 12.5913 79.1169 12.246C78.7903 11.9007 78.3236 11.728 77.7169 11.728C77.0449 11.728 76.4989 11.9427 76.0789 12.372C75.6589 12.792 75.4489 13.4453 75.4489 14.332V18H74.5249V8.2H75.4489V12.092C75.9716 11.252 76.7556 10.832 77.8009 10.832ZM89.7936 10.832C90.5776 10.832 91.2076 11.084 91.6836 11.588C92.1689 12.092 92.4116 12.7733 92.4116 13.632V18H91.4876V13.632C91.4876 13.0253 91.3289 12.5587 91.0116 12.232C90.7036 11.896 90.2929 11.728 89.7796 11.728C89.2009 11.728 88.7296 11.924 88.3656 12.316C88.0109 12.6987 87.8336 13.3007 87.8336 14.122V18H86.9096V13.632C86.9096 13.016 86.7602 12.5447 86.4616 12.218C86.1722 11.8913 85.7756 11.728 85.2716 11.728C84.7116 11.728 84.2356 11.924 83.8436 12.316C83.4516 12.708 83.2556 13.31 83.2556 14.122V18H82.3316V11H83.2556V12.022C83.7596 11.2287 84.4736 10.832 85.3976 10.832C86.4056 10.832 87.1149 11.2567 87.5256 12.106C88.0296 11.2567 88.7856 10.832 89.7936 10.832ZM97.4328 10.832C98.4688 10.832 99.3041 11.2007 99.9388 11.938C100.583 12.666 100.905 13.5293 100.905 14.528C100.905 14.6307 100.895 14.7753 100.877 14.962H94.7308C94.8241 15.6713 95.1228 16.236 95.6268 16.656C96.1401 17.0667 96.7701 17.272 97.5168 17.272C98.0488 17.272 98.5061 17.1647 98.8888 16.95C99.2808 16.726 99.5748 16.4367 99.7708 16.082L100.583 16.558C100.275 17.0527 99.8548 17.4447 99.3228 17.734C98.7908 18.0233 98.1841 18.168 97.5028 18.168C96.4014 18.168 95.5054 17.8227 94.8148 17.132C94.1241 16.4413 93.7788 15.564 93.7788 14.5C93.7788 13.4547 94.1194 12.582 94.8008 11.882C95.4821 11.182 96.3594 10.832 97.4328 10.832ZM97.4328 11.728C96.7048 11.728 96.0934 11.9473 95.5988 12.386C95.1134 12.8153 94.8241 13.3753 94.7308 14.066H99.9528C99.8594 13.3287 99.5748 12.7547 99.0988 12.344C98.6228 11.9333 98.0674 11.728 97.4328 11.728ZM105.651 10.832C106.5 10.832 107.167 11.0933 107.653 11.616C108.147 12.1293 108.395 12.8247 108.395 13.702V18H107.471V13.702C107.471 13.0767 107.303 12.5913 106.967 12.246C106.64 11.9007 106.173 11.728 105.567 11.728C104.895 11.728 104.349 11.9427 103.929 12.372C103.509 12.792 103.299 13.4453 103.299 14.332V18H102.375V11H103.299V12.092C103.821 11.252 104.605 10.832 105.651 10.832ZM113.891 11.896H111.875V16.138C111.875 16.5207 111.95 16.796 112.099 16.964C112.249 17.1227 112.473 17.2067 112.771 17.216C113.07 17.216 113.443 17.2067 113.891 17.188V18C112.911 18.1493 112.174 18.0793 111.679 17.79C111.194 17.5007 110.951 16.95 110.951 16.138V11.896H109.481V11H110.951V9.32L111.875 9.04V11H113.891V11.896Z" fill="white"/>
<defs>
<radialGradient id="paint0_radial_60_60017" cx="0" cy="0" r="1" gradientUnits="userSpaceOnUse" gradientTransform="translate(13 13) rotate(90) scale(25)">
<stop stop-color="#DF5F61"/>
<stop offset="1" stop-color="#DF5F61" stop-opacity="0"/>
</radialGradient>
<radialGradient id="paint1_radial_60_60017" cx="0" cy="0" r="1" gradientUnits="userSpaceOnUse" gradientTransform="translate(77.5 13) rotate(90) scale(25 89.4231)">
<stop stop-color="white"/>
<stop offset="1" stop-color="white" stop-opacity="0"/>
</radialGradient>
</defs>
</svg>
