<svg width="25" height="42" viewBox="0 0 25 42" fill="none" xmlns="http://www.w3.org/2000/svg">
<path d="M23.601 5.91884C24.1492 6.5049 24.0992 7.35267 24.0977 7.36432L24.0997 22.5848L24.0909 22.663C24.0569 22.8184 23.2456 26.4809 22.4779 27.8458C21.8122 29.03 21.3374 31.2354 21.2743 31.5379V42H7.90855V31.432C6.9894 30.2584 -0.639542 20.3902 0.0431404 17.1083C0.138308 16.6495 0.389336 16.2999 0.767092 16.0974C3.0516 14.8743 5.12004 18.2683 6.35576 20.2955C6.4888 20.514 6.6301 20.7456 6.7578 20.9451L6.79761 5.08516C6.79907 4.40199 7.21324 3.11091 8.77234 3.11091C9.34966 3.11091 9.80996 3.2896 10.1396 3.64162C10.598 4.13202 10.6383 4.80499 10.6383 5.01815C10.6383 5.05942 10.6368 5.0837 10.6364 5.08564V16.8874H11.2438L11.2851 1.97424C11.2865 1.29156 11.7012 0 13.2603 0C13.8376 0 14.2979 0.178682 14.6271 0.531191C15.1753 1.11725 15.1248 1.96405 15.1233 1.97521V15.1661H15.7307L15.771 3.47362C15.773 2.79094 16.1881 1.49986 17.7463 1.49986C18.3236 1.49986 18.7844 1.67854 19.1136 2.03057C19.6618 2.61662 19.6117 3.46294 19.6103 3.47459V16.2771H20.2177L20.258 7.36335C20.2595 6.68019 20.6741 5.38814 22.2332 5.38814C22.8115 5.38814 23.2713 5.56682 23.601 5.91884Z" fill="white"/>
</svg>
