<svg width="29" height="42" viewBox="0 0 29 42" fill="none" xmlns="http://www.w3.org/2000/svg">
<path d="M13.0153 32.8386C13.1933 34.5294 13.3713 36.3093 13.1043 38.0002C12.9263 38.8011 12.7483 39.6021 12.9263 40.403C13.1043 40.937 13.4603 41.2929 13.9942 41.4709C14.8842 41.7379 15.5961 41.3819 16.1301 41.2039C16.664 40.937 17.9099 40.937 18.5329 41.2039C21.6477 42.3608 23.4275 41.9159 26.7203 41.9159C27.3432 41.9159 27.8772 41.9159 28.4112 41.4709C28.6781 41.2929 28.8561 40.937 28.7671 40.581C28.6781 40.047 28.1442 39.869 27.6992 39.691C26.0083 39.1571 24.4065 38.7121 22.7156 38.1782C21.2917 37.7332 19.7788 37.2882 18.7999 36.1313C17.554 34.6184 17.732 32.4826 17.9989 30.5247C18.9779 23.9392 21.2027 17.5317 21.5587 10.8572C21.5587 10.1452 21.6477 9.4333 21.3807 8.81035C21.1137 8.18739 20.7577 7.65343 20.3128 7.20846C18.4439 4.98363 16.575 2.7588 14.7952 0.622954C14.6172 0.444967 14.4392 0.26698 14.2612 0.0889934C13.9942 -6.63052e-09 13.7273 0 13.4603 0C9.0106 0.444967 4.56093 1.3349 0.200258 2.58081C-0.0667229 2.6698 -0.0667229 2.93678 0.200258 3.02577C4.64993 5.16162 8.20966 8.89934 11.4134 12.7261C12.1254 13.616 12.8373 14.5059 12.9263 15.5738C13.0153 16.5528 12.5703 17.5317 12.2144 18.4216C11.5914 20.3795 11.5914 22.5153 11.5914 24.6512C11.5914 25.6301 11.5914 26.52 11.8584 27.41C12.0364 28.2109 12.4813 29.0118 12.7483 29.8128C12.7483 30.8807 12.9263 31.8596 13.0153 32.8386Z" fill="white"/>
</svg>
