<svg width="42" height="42" viewBox="0 0 42 42" fill="none" xmlns="http://www.w3.org/2000/svg">
<path fill-rule="evenodd" clip-rule="evenodd" d="M5.87117 27.8841C5.81673 27.7616 6.6169 29.4419 6.88246 30.1058C8.60874 34.4215 8.3887 33.8384 8.55117 34.732C8.61587 35.0878 8.64706 35.4387 8.64706 35.8235V40.7647C8.64706 41.4469 9.20012 42 9.88235 42H32.1176C32.7999 42 33.3529 41.4469 33.3529 40.7647V35.8235C33.3529 35.4387 33.3841 35.0878 33.4488 34.732C33.6113 33.8384 33.3913 34.4215 35.1175 30.1058C35.3831 29.4419 36.1833 27.7616 36.1288 27.8841C36.7718 26.4373 37.0108 24.9814 37.0521 21.5849C37.9561 21.5346 39.3581 21.4285 40.029 21.2794C40.648 21.1419 41.0717 20.9923 41.3172 20.8696C41.7357 20.6604 42 20.2326 42 19.7647V8.64706C42 8.17916 41.7357 7.75141 41.3172 7.54216C41.2447 7.50733 41.2447 7.50736 41.1992 7.48656C41.1214 7.45129 41.0322 7.41304 40.9319 7.37263C40.655 7.26106 40.3394 7.15095 39.9882 7.049C37.6066 6.35755 34.9416 6.35753 32.2487 7.51163C29.3485 8.75454 28.4118 7.90294 28.4118 4.94118V1.23529C28.4118 0.55306 27.8587 0 27.1765 0H14.8235C14.1413 0 13.5882 0.55306 13.5882 1.23529V4.94118C13.5882 7.90294 12.6515 8.75454 9.75131 7.51163C7.05841 6.35753 4.39343 6.35755 2.0118 7.049C1.40393 7.22547 0.952235 7.40747 0.682846 7.54216C0.264348 7.75141 0 8.17916 0 8.64706V19.1471C0 19.4747 0.130146 19.7889 0.361808 20.0205C0.44805 20.1014 0.448057 20.1014 0.495203 20.1421C0.57263 20.2078 0.662194 20.2773 0.764199 20.3493C1.03452 20.5401 1.35824 20.7251 1.73726 20.8935C2.4747 21.2213 3.95556 21.4517 4.94755 21.5556C4.9878 24.973 5.22631 26.4331 5.87117 27.8841ZM21 39.5294C20.3178 39.5294 19.7647 38.9764 19.7647 38.2941C19.7647 37.6119 20.3178 37.0588 21 37.0588C21.6822 37.0588 22.2353 37.6119 22.2353 38.2941C22.2353 38.9764 21.6822 39.5294 21 39.5294ZM29.0294 25.3235C28.3472 25.3235 27.7941 24.7705 27.7941 24.0882C27.7941 23.406 28.3472 22.8529 29.0294 22.8529C29.7116 22.8529 30.2647 23.406 30.2647 24.0882C30.2647 24.7705 29.7116 25.3235 29.0294 25.3235ZM12.9706 25.3235C12.2884 25.3235 11.7353 24.7705 11.7353 24.0882C11.7353 23.406 12.2884 22.8529 12.9706 22.8529C13.6528 22.8529 14.2059 23.406 14.2059 24.0882C14.2059 24.7705 13.6528 25.3235 12.9706 25.3235Z" fill="white"/>
</svg>
