<svg width="29" height="42" viewBox="0 0 29 42" fill="none" xmlns="http://www.w3.org/2000/svg">
<path d="M15.775 32.8386C15.597 34.5294 15.419 36.3093 15.686 38.0002C15.864 38.8011 16.042 39.6021 15.864 40.403C15.686 40.937 15.33 41.2929 14.7961 41.4709C13.9061 41.7379 13.1942 41.3819 12.6602 41.2039C12.1263 40.937 10.8803 40.937 10.2574 41.2039C7.14262 42.3608 5.36275 41.9159 2.07 41.9159C1.44704 41.9159 0.913084 41.9159 0.379124 41.4709C0.112144 41.2929 -0.0658436 40.937 0.0231498 40.581C0.112143 40.047 0.646103 39.869 1.09107 39.691C2.78194 39.1571 4.38383 38.7121 6.0747 38.1782C7.49859 37.7332 9.01148 37.2882 9.99041 36.1313C11.2363 34.6184 11.0583 32.4826 10.7913 30.5247C9.81242 23.9392 7.58759 17.5317 7.23162 10.8572C7.23162 10.1452 7.14262 9.4333 7.4096 8.81035C7.67658 8.18739 8.03256 7.65343 8.47752 7.20846C10.3464 4.98363 12.2152 2.7588 13.9951 0.622954C14.1731 0.444967 14.3511 0.26698 14.5291 0.0889934C14.7961 -6.63052e-09 15.063 0 15.33 0C19.7797 0.444967 24.2293 1.3349 28.59 2.58081C28.857 2.6698 28.857 2.93678 28.59 3.02577C24.1404 5.16162 20.5806 8.89934 17.3769 12.7261C16.6649 13.616 15.953 14.5059 15.864 15.5738C15.775 16.5528 16.2199 17.5317 16.5759 18.4216C17.1989 20.3795 17.1989 22.5153 17.1989 24.6512C17.1989 25.6301 17.1989 26.52 16.9319 27.41C16.7539 28.2109 16.3089 29.0118 16.042 29.8128C16.042 30.8807 15.864 31.8596 15.775 32.8386Z" fill="white"/>
</svg>
