<svg width="25" height="42" viewBox="0 0 25 42" fill="none" xmlns="http://www.w3.org/2000/svg">
<path d="M0.498659 5.91884C-0.0495258 6.5049 0.000485408 7.35267 0.00194206 7.36432L0 22.5848L0.00873971 22.663C0.0427282 22.8184 0.854081 26.4809 1.62173 27.8458C2.28742 29.03 2.76229 31.2354 2.82541 31.5379V42H16.1911V31.432C17.1103 30.2584 24.7392 20.3902 24.0565 17.1083C23.9614 16.6495 23.7103 16.2999 23.3326 16.0974C21.0481 14.8743 18.9796 18.2683 17.7439 20.2955C17.6109 20.514 17.4696 20.7456 17.3419 20.9451L17.3021 5.08516C17.3006 4.40199 16.8864 3.11091 15.3273 3.11091C14.75 3.11091 14.2897 3.2896 13.96 3.64162C13.5017 4.13202 13.4614 4.80499 13.4614 5.01815C13.4614 5.05942 13.4628 5.0837 13.4633 5.08564V16.8874H12.8559L12.8146 1.97424C12.8132 1.29156 12.3985 0 10.8394 0C10.2621 0 9.80178 0.178682 9.47258 0.531191C8.92439 1.11725 8.97489 1.96405 8.97635 1.97521V15.1661H8.36893L8.32862 3.47362C8.32668 2.79094 7.91154 1.49986 6.35341 1.49986C5.77609 1.49986 5.31531 1.67854 4.9861 2.03057C4.43792 2.61662 4.48793 3.46294 4.48939 3.47459V16.2771H3.88197L3.84167 7.36335C3.84021 6.68019 3.42555 5.38814 1.86645 5.38814C1.28816 5.38814 0.828347 5.56682 0.498659 5.91884Z" fill="white"/>
</svg>
