<svg width="42" height="42" viewBox="0 0 42 42" fill="none" xmlns="http://www.w3.org/2000/svg">
<path d="M7.16979 35.4258C7.78341 35.9311 9.97035 36.8084 10.991 36.3998C12.2909 35.8794 14.3871 35.2679 15.7773 38.3889C15.7777 38.3889 15.7777 38.3881 15.7777 38.3881C16.2166 39.3755 16.4858 40.2524 16.5866 40.5212C16.8294 41.168 17.4762 41.9362 18.4061 41.4511C19.3359 40.966 30.8049 38.3885 33.4736 33.4573C33.9125 32.6462 33.0288 33.5266 32.584 30.9797C32.1392 28.4328 33.0607 26.9368 33.1359 26.8116C33.1363 26.8116 33.1363 26.8112 33.1367 26.8103C36.138 23.998 38.0159 20.0005 38.0159 15.5623C38.0159 7.04723 31.1132 0.144531 22.5981 0.144531C20.2179 0.144531 17.9646 0.684651 15.9524 1.64813C15.9512 1.64813 15.9503 1.64855 15.9491 1.64855C10.4592 3.53099 6.72207 10.684 6.23655 12.3825C5.75103 14.081 6.72165 15.2935 6.72165 15.2935C8.01525 17.1936 3.08277 21.6007 3.16383 22.6116C3.24489 23.6225 4.10295 23.5373 4.98327 24.2693C5.84637 24.5688 5.50743 25.762 5.50743 25.762C5.50743 25.762 4.96983 26.0594 4.96983 26.4638C4.96983 27.3534 6.10173 27.3131 6.38481 27.5957C6.66789 27.8784 5.53557 28.3639 5.49525 29.2132C5.46837 29.7797 5.94465 29.949 6.30081 30.0002C6.34239 30.0763 6.41001 30.1367 6.49317 30.1892C6.61245 30.574 6.87285 31.5828 6.74727 32.7092C6.58683 34.1456 6.27519 34.12 6.67461 34.7958C6.67503 34.7954 6.92115 35.1641 7.16979 35.4258Z" fill="white"/>
</svg>
