<svg width="24" height="24" viewBox="0 0 24 24" fill="none" xmlns="http://www.w3.org/2000/svg">
<path fill-rule="evenodd" clip-rule="evenodd" d="M22.8 12C22.8 17.9647 17.9647 22.8 12 22.8C6.03534 22.8 1.20001 17.9647 1.20001 12C1.20001 6.03534 6.03534 1.20001 12 1.20001C17.9647 1.20001 22.8 6.03534 22.8 12ZM10.8 8.40001C10.8 8.00366 10.9437 7.7798 11.1182 7.63437C11.3203 7.46601 11.6356 7.35001 12 7.35001C12.3644 7.35001 12.6797 7.46601 12.8818 7.63438C13.0563 7.77981 13.2 8.00367 13.2 8.40002C13.2 8.79004 13.106 9.00277 13.0266 9.12188C12.9421 9.24849 12.821 9.34788 12.6634 9.4267C12.501 9.50787 12.3241 9.55444 12.1777 9.57884C12.1358 9.58583 12.0748 9.59205 12.0324 9.59594L11.9978 9.60001L12 9.60001C11.6863 9.6033 11.3736 9.72941 11.1515 9.95148C10.9264 10.1765 10.8 10.4818 10.8 10.8V13.2H13.2V11.7928C13.3711 11.737 13.5526 11.6654 13.7367 11.5733C14.179 11.3522 14.6579 11.0015 15.0235 10.4532C15.3941 9.89727 15.6 9.21 15.6 8.40002C15.6 7.29636 15.1437 6.39523 14.4182 5.79065C13.7203 5.20902 12.8356 4.95001 12 4.95001C11.1644 4.95001 10.2798 5.20901 9.58179 5.79064C8.8563 6.39522 8.40001 7.29636 8.40001 8.40001H10.8ZM12 15C11.0059 15 10.2 15.8059 10.2 16.8C10.2 17.7941 11.0059 18.6 12 18.6C12.9941 18.6 13.8 17.7941 13.8 16.8C13.8 15.8059 12.9941 15 12 15Z" fill="white"/>
</svg>
