<svg width="105" height="26" viewBox="0 0 105 26" fill="none" xmlns="http://www.w3.org/2000/svg">
<rect width="26" height="26" rx="2" fill="url(#paint0_radial_60_59907)"/>
<path d="M13.0083 19.9541C16.8382 19.9541 19.9541 16.8382 19.9541 13.0083C19.9541 9.17834 16.8382 6.0625 13.0083 6.0625C9.17837 6.0625 6.0625 9.17838 6.0625 13.0083C6.0625 16.8383 9.17837 19.9541 13.0083 19.9541ZM13.0083 7.23341C16.1926 7.23341 18.7832 9.824 18.7832 13.0083C18.7832 16.1926 16.1926 18.7832 13.0083 18.7832C9.824 18.7832 7.23341 16.1926 7.23341 13.0083C7.23341 9.824 9.82403 7.23341 13.0083 7.23341Z" fill="white"/>
<path d="M12.0714 13.3952L11.8439 14.1719L12.6205 13.9444L13.0089 14.6545L13.3972 13.9444L14.1739 14.1719L13.9464 13.3952L14.6565 13.0069L13.9464 12.6186L14.1739 11.8419L13.3972 12.0694L13.0089 11.3594L12.6205 12.0694L11.8439 11.8419L12.0714 12.6186L11.3613 13.0069L12.0714 13.3952Z" fill="white"/>
<path d="M13.0093 17.8467C15.6766 17.8467 17.8467 15.6766 17.8467 13.0093C17.8467 10.3419 15.6767 8.17188 13.0093 8.17188C10.3419 8.17188 8.17188 10.3419 8.17188 13.0093C8.17188 15.6766 10.3419 17.8467 13.0093 17.8467ZM10.96 12.1604L10.4627 10.4627L12.1604 10.96L13.0093 9.40794L13.8581 10.96L15.5558 10.4627L15.0586 12.1604L16.6106 13.0093L15.0586 13.8581L15.5558 15.5558L13.8581 15.0586L13.0093 16.6106L12.1604 15.0585L10.4627 15.5558L10.96 13.8581L9.40794 13.0092L10.96 12.1604Z" fill="white"/>
<rect x="31" width="74" height="26" rx="1" fill="url(#paint1_radial_60_59907)" fill-opacity="0.25"/>
<path d="M54.712 9.516C55.7013 10.5053 56.196 11.7 56.196 13.1C56.196 14.5 55.7013 15.6947 54.712 16.684L55.832 17.776L55.174 18.378L54.04 17.258C53.1627 17.8647 52.192 18.168 51.128 18.168C49.728 18.168 48.5333 17.6733 47.544 16.684C46.5547 15.6947 46.06 14.5 46.06 13.1C46.06 11.7 46.5547 10.5053 47.544 9.516C48.5333 8.52667 49.728 8.032 51.128 8.032C52.528 8.032 53.7227 8.52667 54.712 9.516ZM51.128 17.216C51.9213 17.216 52.6587 17.0013 53.34 16.572L51.212 14.472L51.87 13.87L54.04 15.998C54.824 15.1953 55.216 14.2293 55.216 13.1C55.216 11.9613 54.8147 10.9907 54.012 10.188C53.2187 9.38533 52.2573 8.984 51.128 8.984C49.9987 8.984 49.0327 9.38533 48.23 10.188C47.4367 10.9907 47.04 11.9613 47.04 13.1C47.04 14.2387 47.4367 15.2093 48.23 16.012C49.0327 16.8147 49.9987 17.216 51.128 17.216ZM62.7967 11H63.7207V18H62.7967V16.908C62.274 17.748 61.49 18.168 60.4447 18.168C59.5953 18.168 58.9233 17.9113 58.4287 17.398C57.9433 16.8753 57.7007 16.1753 57.7007 15.298V11H58.6247V15.298C58.6247 15.9233 58.788 16.4087 59.1147 16.754C59.4507 17.0993 59.922 17.272 60.5287 17.272C61.2007 17.272 61.7467 17.062 62.1667 16.642C62.5867 16.2127 62.7967 15.5547 62.7967 14.668V11ZM68.9093 10.832C69.9453 10.832 70.7806 11.2007 71.4153 11.938C72.0593 12.666 72.3813 13.5293 72.3813 14.528C72.3813 14.6307 72.372 14.7753 72.3533 14.962H66.2073C66.3006 15.6713 66.5993 16.236 67.1033 16.656C67.6166 17.0667 68.2466 17.272 68.9933 17.272C69.5253 17.272 69.9826 17.1647 70.3653 16.95C70.7573 16.726 71.0513 16.4367 71.2473 16.082L72.0593 16.558C71.7513 17.0527 71.3313 17.4447 70.7993 17.734C70.2673 18.0233 69.6606 18.168 68.9793 18.168C67.878 18.168 66.982 17.8227 66.2913 17.132C65.6006 16.4413 65.2553 15.564 65.2553 14.5C65.2553 13.4547 65.596 12.582 66.2773 11.882C66.9586 11.182 67.836 10.832 68.9093 10.832ZM68.9093 11.728C68.1813 11.728 67.57 11.9473 67.0753 12.386C66.59 12.8153 66.3006 13.3753 66.2073 14.066H71.4293C71.336 13.3287 71.0513 12.7547 70.5753 12.344C70.0993 11.9333 69.544 11.728 68.9093 11.728ZM74.3057 12.834C74.3057 13.1513 74.4457 13.4033 74.7257 13.59C75.0057 13.7767 75.3463 13.9213 75.7477 14.024C76.149 14.1267 76.5503 14.2433 76.9517 14.374C77.353 14.4953 77.6937 14.7053 77.9737 15.004C78.2537 15.2933 78.3937 15.676 78.3937 16.152C78.3937 16.7493 78.1557 17.2347 77.6797 17.608C77.213 17.9813 76.6063 18.168 75.8597 18.168C75.1877 18.168 74.6137 18.0187 74.1377 17.72C73.671 17.4213 73.3443 17.034 73.1577 16.558L73.9417 16.096C74.0723 16.46 74.3057 16.7493 74.6417 16.964C74.987 17.1693 75.393 17.272 75.8597 17.272C76.317 17.272 76.6997 17.1833 77.0077 17.006C77.3157 16.8193 77.4697 16.5347 77.4697 16.152C77.4697 15.8347 77.3297 15.5827 77.0497 15.396C76.7697 15.2093 76.429 15.0647 76.0277 14.962C75.6263 14.8593 75.225 14.7473 74.8237 14.626C74.4223 14.4953 74.0817 14.2853 73.8017 13.996C73.5217 13.6973 73.3817 13.31 73.3817 12.834C73.3817 12.2647 73.6057 11.7887 74.0537 11.406C74.511 11.0233 75.085 10.832 75.7757 10.832C76.345 10.832 76.8443 10.9627 77.2737 11.224C77.703 11.476 78.0203 11.8213 78.2257 12.26L77.4557 12.708C77.185 12.0547 76.625 11.728 75.7757 11.728C75.3743 11.728 75.029 11.826 74.7397 12.022C74.4503 12.2087 74.3057 12.4793 74.3057 12.834ZM83.3716 11.896H81.3556V16.138C81.3556 16.5207 81.4303 16.796 81.5796 16.964C81.729 17.1227 81.953 17.2067 82.2516 17.216C82.5503 17.216 82.9236 17.2067 83.3716 17.188V18C82.3916 18.1493 81.6543 18.0793 81.1596 17.79C80.6743 17.5007 80.4316 16.95 80.4316 16.138V11.896H78.9616V11H80.4316V9.32L81.3556 9.04V11H83.3716V11.896ZM85.2158 12.834C85.2158 13.1513 85.3558 13.4033 85.6358 13.59C85.9158 13.7767 86.2565 13.9213 86.6578 14.024C87.0591 14.1267 87.4605 14.2433 87.8618 14.374C88.2631 14.4953 88.6038 14.7053 88.8838 15.004C89.1638 15.2933 89.3038 15.676 89.3038 16.152C89.3038 16.7493 89.0658 17.2347 88.5898 17.608C88.1231 17.9813 87.5165 18.168 86.7698 18.168C86.0978 18.168 85.5238 18.0187 85.0478 17.72C84.5811 17.4213 84.2545 17.034 84.0678 16.558L84.8518 16.096C84.9825 16.46 85.2158 16.7493 85.5518 16.964C85.8971 17.1693 86.3031 17.272 86.7698 17.272C87.2271 17.272 87.6098 17.1833 87.9178 17.006C88.2258 16.8193 88.3798 16.5347 88.3798 16.152C88.3798 15.8347 88.2398 15.5827 87.9598 15.396C87.6798 15.2093 87.3391 15.0647 86.9378 14.962C86.5365 14.8593 86.1351 14.7473 85.7338 14.626C85.3325 14.4953 84.9918 14.2853 84.7118 13.996C84.4318 13.6973 84.2918 13.31 84.2918 12.834C84.2918 12.2647 84.5158 11.7887 84.9638 11.406C85.4211 11.0233 85.9951 10.832 86.6858 10.832C87.2551 10.832 87.7545 10.9627 88.1838 11.224C88.6131 11.476 88.9305 11.8213 89.1358 12.26L88.3658 12.708C88.0951 12.0547 87.5351 11.728 86.6858 11.728C86.2845 11.728 85.9391 11.826 85.6498 12.022C85.3605 12.2087 85.2158 12.4793 85.2158 12.834Z" fill="white"/>
<defs>
<radialGradient id="paint0_radial_60_59907" cx="0" cy="0" r="1" gradientUnits="userSpaceOnUse" gradientTransform="translate(13 13) rotate(90) scale(25)">
<stop stop-color="#DB5FDF"/>
<stop offset="1" stop-color="#DF5FD9" stop-opacity="0"/>
</radialGradient>
<radialGradient id="paint1_radial_60_59907" cx="0" cy="0" r="1" gradientUnits="userSpaceOnUse" gradientTransform="translate(68 13) rotate(90) scale(25 71.1538)">
<stop stop-color="white"/>
<stop offset="1" stop-color="white" stop-opacity="0"/>
</radialGradient>
</defs>
</svg>
