<svg width="33" height="33" viewBox="0 0 33 33" fill="none" xmlns="http://www.w3.org/2000/svg">
<path fill-rule="evenodd" clip-rule="evenodd" d="M25.2504 7.74956L27.195 5.80501C29.9321 8.5421 31.625 12.3233 31.625 16.5C31.625 24.8533 24.8533 31.625 16.5 31.625C8.14669 31.625 1.375 24.8533 1.375 16.5C1.375 8.61019 7.41607 2.13135 15.125 1.43666V1.375H16.5H17.875V15.125L19.4168 13.5832C20.1633 14.3297 20.625 15.3609 20.625 16.5C20.625 18.7782 18.7782 20.625 16.5 20.625C14.2218 20.625 12.375 18.7782 12.375 16.5C12.375 14.7039 13.5229 13.176 15.125 12.6097V9.76253C11.9869 10.3995 9.625 13.1739 9.625 16.5C9.625 20.297 12.703 23.375 16.5 23.375C20.297 23.375 23.375 20.297 23.375 16.5C23.375 14.6015 22.6055 12.8828 21.3614 11.6386L23.3059 9.6941C25.0477 11.4359 26.125 13.8421 26.125 16.5C26.125 21.8157 21.8157 26.125 16.5 26.125C11.1843 26.125 6.875 21.8157 6.875 16.5C6.875 11.6511 10.4606 7.63966 15.125 6.97247V4.20053C8.93757 4.88451 4.125 10.1302 4.125 16.5C4.125 23.3345 9.66548 28.875 16.5 28.875C23.3345 28.875 28.875 23.3345 28.875 16.5C28.875 13.0827 27.4899 9.98899 25.2504 7.74956Z" fill="white"/>
</svg>
