<svg width="105" height="26" viewBox="0 0 105 26" fill="none" xmlns="http://www.w3.org/2000/svg">
<rect width="26" height="26" rx="2" fill="url(#paint0_radial_60_59877)"/>
<g clip-path="url(#clip0_60_59877)">
<path d="M11.1933 7.17625C11.082 7.4731 10.9804 7.78924 10.8887 8.12164C11.5723 8.23645 12.2822 8.29671 13 8.29671C13.7178 8.29671 14.4277 8.23645 15.1113 8.12164C15.0196 7.78924 14.918 7.4731 14.8067 7.17625C14.2956 5.81354 13.6202 5 13 5C12.3798 5 11.7044 5.81354 11.1933 7.17625Z" fill="white"/>
<path d="M14.8457 5.21484C15.1568 5.64604 15.4393 6.19249 15.6846 6.84652C15.8119 7.18611 15.9273 7.5486 16.0306 7.92988C16.8718 7.71942 17.655 7.42216 18.3408 7.04889C17.3624 6.16989 16.167 5.52811 14.8457 5.21484Z" fill="white"/>
<path d="M12.9988 9.2338C12.1997 9.2338 11.4179 9.16728 10.6682 9.03906C10.4499 10.1029 10.3225 11.2899 10.2969 12.5305H15.7008C15.6751 11.2899 15.5478 10.1029 15.3295 9.03906C14.5797 9.16725 13.7979 9.2338 12.9988 9.2338Z" fill="white"/>
<path d="M9.3597 13.4688H5.01367C5.11985 15.2965 5.84219 16.9615 6.9759 18.2585C7.79666 17.777 8.73583 17.4042 9.75155 17.1516C9.52021 16.0241 9.38574 14.7721 9.3597 13.4688Z" fill="white"/>
<path d="M16.6399 13.4688C16.6139 14.7722 16.4794 16.0242 16.248 17.1516C17.2638 17.4042 18.203 17.777 19.0237 18.2585C20.1574 16.9615 20.8797 15.2965 20.9859 13.4688L16.6399 13.4688Z" fill="white"/>
<path d="M9.35967 12.5319C9.38571 11.2285 9.52021 9.97651 9.75155 8.84905C8.7358 8.59649 7.79663 8.22368 6.9759 7.74219C5.84219 9.03919 5.11985 10.7042 5.01367 12.5319L9.35967 12.5319Z" fill="white"/>
<path d="M14.8067 18.8236C14.918 18.5267 15.0196 18.2106 15.1113 17.8782C14.4277 17.7634 13.7178 17.7031 13 17.7031C12.2822 17.7031 11.5723 17.7634 10.8887 17.8782C10.9804 18.2106 11.082 18.5267 11.1933 18.8236C11.7044 20.1863 12.3798 20.9998 13 20.9998C13.6202 20.9998 14.2956 20.1863 14.8067 18.8236Z" fill="white"/>
<path d="M12.9988 16.7655C13.7979 16.7655 14.5797 16.832 15.3295 16.9602C15.5477 15.8963 15.6751 14.7094 15.7008 13.4688H10.2969C10.3225 14.7094 10.4499 15.8963 10.6682 16.9602C11.4179 16.832 12.1997 16.7655 12.9988 16.7655Z" fill="white"/>
<path d="M16.248 8.84908C16.4794 9.97655 16.6139 11.2286 16.6399 12.5319H20.986C20.8798 10.7042 20.1574 9.03919 19.0237 7.74219C18.2029 8.22371 17.2638 8.59652 16.248 8.84908Z" fill="white"/>
<path d="M16.0306 18.0703C15.9273 18.4516 15.8119 18.8141 15.6846 19.1537C15.4393 19.8077 15.1568 20.3542 14.8457 20.7854C16.167 20.4721 17.3624 19.8303 18.3408 18.9513C17.655 18.578 16.8718 18.2808 16.0306 18.0703Z" fill="white"/>
<path d="M9.96845 7.92988C10.0717 7.5486 10.1871 7.18611 10.3144 6.84652C10.5597 6.19249 10.8422 5.64604 11.1533 5.21484C9.83202 5.52811 8.6366 6.16989 7.6582 7.04892C8.344 7.42216 9.12719 7.71942 9.96845 7.92988Z" fill="white"/>
<path d="M10.3144 19.1537C10.1871 18.8141 10.0717 18.4516 9.96845 18.0703C9.12719 18.2808 8.344 18.578 7.6582 18.9513C8.6366 19.8303 9.83202 20.4721 11.1533 20.7854C10.8423 20.3542 10.5597 19.8077 10.3144 19.1537Z" fill="white"/>
</g>
<rect x="31" width="74" height="26" rx="1" fill="url(#paint1_radial_60_59877)" fill-opacity="0.25"/>
<path d="M56.14 18L53.844 14.08H51.1V18H50.12V8.2H54.04C54.852 8.2 55.5427 8.48933 56.112 9.068C56.6907 9.63733 56.98 10.328 56.98 11.14C56.98 11.8027 56.7793 12.3953 56.378 12.918C55.986 13.4313 55.482 13.7767 54.866 13.954L57.26 18H56.14ZM51.1 9.124V13.156H54.04C54.5813 13.156 55.0433 12.96 55.426 12.568C55.8087 12.1667 56 11.6907 56 11.14C56 10.58 55.8087 10.104 55.426 9.712C55.0433 9.32 54.5813 9.124 54.04 9.124H51.1ZM64.1895 11H65.1135V18H64.1895V16.628C63.5455 17.6547 62.6028 18.168 61.3615 18.168C60.3628 18.168 59.5088 17.8133 58.7995 17.104C58.0995 16.3947 57.7495 15.5267 57.7495 14.5C57.7495 13.4733 58.0995 12.6053 58.7995 11.896C59.5088 11.1867 60.3628 10.832 61.3615 10.832C62.6028 10.832 63.5455 11.3453 64.1895 12.372V11ZM59.4715 16.474C60.0035 17.006 60.6568 17.272 61.4315 17.272C62.2061 17.272 62.8595 17.006 63.3915 16.474C63.9235 15.9327 64.1895 15.2747 64.1895 14.5C64.1895 13.7253 63.9235 13.072 63.3915 12.54C62.8595 11.9987 62.2061 11.728 61.4315 11.728C60.6568 11.728 60.0035 11.9987 59.4715 12.54C58.9395 13.072 58.6735 13.7253 58.6735 14.5C58.6735 15.2747 58.9395 15.9327 59.4715 16.474ZM73.0898 8.2H74.0138V18H73.0898V16.628C72.4458 17.6547 71.5032 18.168 70.2618 18.168C69.2632 18.168 68.4092 17.8133 67.6998 17.104C66.9998 16.3947 66.6498 15.5267 66.6498 14.5C66.6498 13.4733 66.9998 12.6053 67.6998 11.896C68.4092 11.1867 69.2632 10.832 70.2618 10.832C71.5032 10.832 72.4458 11.3453 73.0898 12.372V8.2ZM68.3718 16.474C68.9038 17.006 69.5572 17.272 70.3318 17.272C71.1065 17.272 71.7598 17.006 72.2918 16.474C72.8238 15.9327 73.0898 15.2747 73.0898 14.5C73.0898 13.7253 72.8238 13.072 72.2918 12.54C71.7598 11.9987 71.1065 11.728 70.3318 11.728C69.5572 11.728 68.9038 11.9987 68.3718 12.54C67.8398 13.072 67.5738 13.7253 67.5738 14.5C67.5738 15.2747 67.8398 15.9327 68.3718 16.474ZM76.9082 9.32C76.7776 9.45067 76.6189 9.516 76.4322 9.516C76.2456 9.516 76.0869 9.45067 75.9562 9.32C75.8256 9.18933 75.7602 9.03067 75.7602 8.844C75.7602 8.65733 75.8256 8.49867 75.9562 8.368C76.0869 8.23733 76.2456 8.172 76.4322 8.172C76.6189 8.172 76.7776 8.23733 76.9082 8.368C77.0389 8.49867 77.1042 8.65733 77.1042 8.844C77.1042 9.03067 77.0389 9.18933 76.9082 9.32ZM75.9702 18V11H76.8942V18H75.9702ZM84.721 17.118C84.0117 17.818 83.1437 18.168 82.117 18.168C81.0903 18.168 80.2177 17.818 79.499 17.118C78.7897 16.4087 78.435 15.536 78.435 14.5C78.435 13.464 78.7897 12.596 79.499 11.896C80.2177 11.1867 81.0903 10.832 82.117 10.832C83.1437 10.832 84.0117 11.1867 84.721 11.896C85.4397 12.596 85.799 13.464 85.799 14.5C85.799 15.536 85.4397 16.4087 84.721 17.118ZM80.157 16.474C80.689 17.006 81.3423 17.272 82.117 17.272C82.8917 17.272 83.545 17.006 84.077 16.474C84.609 15.9327 84.875 15.2747 84.875 14.5C84.875 13.7253 84.609 13.072 84.077 12.54C83.545 11.9987 82.8917 11.728 82.117 11.728C81.3423 11.728 80.689 11.9987 80.157 12.54C79.625 13.072 79.359 13.7253 79.359 14.5C79.359 15.2747 79.625 15.9327 80.157 16.474Z" fill="white"/>
<defs>
<radialGradient id="paint0_radial_60_59877" cx="0" cy="0" r="1" gradientUnits="userSpaceOnUse" gradientTransform="translate(13 13) rotate(90) scale(25)">
<stop stop-color="#DF5F61"/>
<stop offset="1" stop-color="#DF5F61" stop-opacity="0"/>
</radialGradient>
<radialGradient id="paint1_radial_60_59877" cx="0" cy="0" r="1" gradientUnits="userSpaceOnUse" gradientTransform="translate(68 13) rotate(90) scale(25 71.1538)">
<stop stop-color="white"/>
<stop offset="1" stop-color="white" stop-opacity="0"/>
</radialGradient>
<clipPath id="clip0_60_59877">
<rect width="16" height="16" fill="white" transform="translate(5 5)"/>
</clipPath>
</defs>
</svg>
