<svg width="13" height="14" viewBox="0 0 13 14" fill="none" xmlns="http://www.w3.org/2000/svg">
<path d="M6.68979 6.5467C6.45306 6.78703 6.40499 7.17095 6.58558 7.48373L6.63235 7.56474C6.8475 7.93738 7.31258 8.07984 7.66313 7.87745L8.25353 7.53658C8.62022 7.32487 8.72925 6.85148 8.51426 6.47822L8.46749 6.39721C8.25257 6.02497 7.78748 5.88252 7.43654 6.08513L7.21311 6.21413C7.05444 6.90986 7.86528 7.30709 7.86528 7.30709C7.90247 7.3715 7.79101 7.43585 7.67388 7.4176C7.67388 7.4176 6.91773 7.31292 6.68979 6.5467ZM11.0549 0.488069C11.0881 0.468865 11.1235 0.453624 11.1603 0.442654C11.4207 0.365049 11.6947 0.513225 11.7723 0.773609L12.1402 2.00779C12.2594 2.40798 12.0884 2.83772 11.7268 3.04651L10.2255 3.91324C9.48836 4.33885 9.14421 5.21826 9.39671 6.03117C9.64921 6.84409 9.30508 7.72349 8.56789 8.1491L6.66779 9.24613L7.20164 11.6435C7.27814 11.9233 7.14837 12.2143 6.90891 12.3525L4.79508 13.5514C4.79508 13.5514 4.40289 13.7562 4.06781 13.3232C3.88624 13.0824 3.80177 12.3102 3.80177 12.3102L3.24006 9.459C3.17909 9.16964 2.90182 8.98408 2.62532 9.05731C2.11358 9.20155 1.74343 9.73929 1.3803 9.25767C1.06137 8.81534 2.03217 8.10363 2.15427 7.94672C2.22192 7.84286 1.88536 7.18625 1.77951 6.96653C1.59232 7.0098 1.35669 7.08103 1.24522 7.14539C1.02152 7.27454 0.667623 7.17643 0.855698 6.76541C1.04377 6.35439 1.96591 6.40526 1.96591 6.40526L1.94259 6.1811C1.93284 5.9059 2.09067 5.66356 2.31361 5.53484L11.0549 0.488069Z" fill="white"/>
</svg>
