<svg width="22" height="20" viewBox="0 0 22 20" fill="none" xmlns="http://www.w3.org/2000/svg">
<path d="M15.8666 4.96936H19.256L17.4061 7.14461L18.7346 8.25368L21.7887 4.68137C22.0618 4.36275 22.0618 3.89706 21.7949 3.57843L18.7408 0L17.4123 1.09681L19.2622 3.25368H15.8728C14.712 3.25368 13.6443 3.84191 13.0298 4.81618L7.07046 14.2157C6.7725 14.6814 6.26347 14.9571 5.70479 14.9571H0V16.6728H5.69858C6.8594 16.6728 7.92711 16.1029 8.54167 15.1287L14.501 5.71691C14.7989 5.25123 15.308 4.96936 15.8666 4.96936Z" fill="white"/>
<path d="M21.795 15.3186L18.7408 11.7402L17.4124 12.8554L19.2623 15.0306H15.8729C15.3142 15.0306 14.799 14.7426 14.5072 14.277L12.6636 11.3603L11.1924 12.2672L13.036 15.1838C13.6506 16.1581 14.7121 16.7463 15.8791 16.7463H19.2685L17.4186 18.9032L18.7408 20L21.795 16.4216C22.0681 16.1029 22.0681 15.6373 21.795 15.3186Z" fill="white"/>
<path d="M7.06426 5.77821L8.98241 8.79292L10.4536 7.87993L8.53546 4.86522C7.92091 3.89096 6.8532 3.32111 5.69238 3.32111H0V5.03679H5.69858C6.25727 5.04292 6.76629 5.3064 7.06426 5.77821Z" fill="white"/>
</svg>
