<svg width="26" height="26" viewBox="0 0 26 26" fill="none" xmlns="http://www.w3.org/2000/svg">
<path d="M22.75 2.4375L21.125 1.625L19.5 2.4375L17.875 1.625L16.25 2.4375L14.625 1.625L13 2.4375L11.375 1.625L9.75 2.4375L7.3125 1.625V14.6275H18.6875V21.5312C18.6875 23.1019 20.3668 24.375 21.9375 24.375H22.5469C24.1175 24.375 25.1875 23.1019 25.1875 21.5312V1.625L22.75 2.4375ZM13.8379 12.1875L13.8125 10.5625H21.9121L21.9375 12.1875H13.8379ZM10.5879 8.125L10.5625 6.5H21.9121L21.9375 8.125H10.5879Z" fill="#F04E27"/>
<path d="M17.0625 21.5312V16.25H0.8125V17.875C0.8125 20.442 1.10602 21.512 1.5468 22.325C2.2948 23.7047 3.64914 24.375 5.6875 24.375H18.6875C18.6875 24.375 17.0625 23.3594 17.0625 21.5312Z" fill="#F04E27"/>
</svg>
