<svg width="105" height="26" viewBox="0 0 105 26" fill="none" xmlns="http://www.w3.org/2000/svg">
<rect width="26" height="26" rx="2" fill="url(#paint0_radial_60_59943)"/>
<path d="M13 5L6.43164 6.8605V15.8705C6.43164 16.8863 6.98917 17.813 7.88664 18.2888L13 21L18.1134 18.2888C19.0109 17.8129 19.5684 16.8863 19.5684 15.8705V6.8605L13 5ZM17.6251 16.363L12.9993 18.8001L8.37492 16.3482V8.32978L13 7.01972L17.6251 8.32978V16.363Z" fill="white"/>
<path d="M12.9994 7.99609L9.31445 9.03984V15.7818L9.33058 15.7903C9.74564 14.887 10.4791 14.177 11.371 13.7827C10.8205 13.3183 10.47 12.6241 10.47 11.8493C10.47 10.4546 11.6047 9.31994 12.9994 9.31994C14.3941 9.31994 15.5288 10.4546 15.5288 11.8493C15.5288 12.6241 15.1783 13.3183 14.6278 13.7827C15.5231 14.1785 16.2587 14.8925 16.6729 15.8009L16.6843 15.7949V9.03988L12.9994 7.99609Z" fill="white"/>
<path d="M13 14.3789C11.7591 14.3789 10.6508 15.1218 10.1641 16.2322L13.0007 17.7362L15.8395 16.2405C15.3548 15.1256 14.244 14.3789 13 14.3789Z" fill="white"/>
<path d="M12.9994 10.2617C12.1231 10.2617 11.4102 10.9747 11.4102 11.851C11.4102 12.7273 12.1231 13.4402 12.9994 13.4402C13.8757 13.4402 14.5887 12.7273 14.5887 11.851C14.5887 10.9747 13.8757 10.2617 12.9994 10.2617Z" fill="white"/>
<rect x="31" width="74" height="26" rx="1" fill="url(#paint1_radial_60_59943)" fill-opacity="0.25"/>
<path d="M53.14 18L50.844 14.08H48.1V18H47.12V8.2H51.04C51.852 8.2 52.5427 8.48933 53.112 9.068C53.6907 9.63733 53.98 10.328 53.98 11.14C53.98 11.8027 53.7793 12.3953 53.378 12.918C52.986 13.4313 52.482 13.7767 51.866 13.954L54.26 18H53.14ZM48.1 9.124V13.156H51.04C51.5813 13.156 52.0433 12.96 52.426 12.568C52.8087 12.1667 53 11.6907 53 11.14C53 10.58 52.8087 10.104 52.426 9.712C52.0433 9.32 51.5813 9.124 51.04 9.124H48.1ZM58.4035 10.832C59.4395 10.832 60.2748 11.2007 60.9095 11.938C61.5535 12.666 61.8755 13.5293 61.8755 14.528C61.8755 14.6307 61.8661 14.7753 61.8475 14.962H55.7015C55.7948 15.6713 56.0935 16.236 56.5975 16.656C57.1108 17.0667 57.7408 17.272 58.4875 17.272C59.0195 17.272 59.4768 17.1647 59.8595 16.95C60.2515 16.726 60.5455 16.4367 60.7415 16.082L61.5535 16.558C61.2455 17.0527 60.8255 17.4447 60.2935 17.734C59.7615 18.0233 59.1548 18.168 58.4735 18.168C57.3721 18.168 56.4761 17.8227 55.7855 17.132C55.0948 16.4413 54.7495 15.564 54.7495 14.5C54.7495 13.4547 55.0901 12.582 55.7715 11.882C56.4528 11.182 57.3301 10.832 58.4035 10.832ZM58.4035 11.728C57.6755 11.728 57.0641 11.9473 56.5695 12.386C56.0841 12.8153 55.7948 13.3753 55.7015 14.066H60.9235C60.8301 13.3287 60.5455 12.7547 60.0695 12.344C59.5935 11.9333 59.0381 11.728 58.4035 11.728ZM67.0972 10.832C68.0959 10.832 68.9452 11.1867 69.6452 11.896C70.3546 12.6053 70.7092 13.4733 70.7092 14.5C70.7092 15.5267 70.3546 16.3947 69.6452 17.104C68.9452 17.8133 68.0959 18.168 67.0972 18.168C65.8559 18.168 64.9132 17.6547 64.2692 16.628V20.8H63.3452V11H64.2692V12.372C64.9132 11.3453 65.8559 10.832 67.0972 10.832ZM65.0672 16.474C65.5992 17.006 66.2526 17.272 67.0272 17.272C67.8019 17.272 68.4552 17.006 68.9872 16.474C69.5192 15.9327 69.7852 15.2747 69.7852 14.5C69.7852 13.7253 69.5192 13.072 68.9872 12.54C68.4552 11.9987 67.8019 11.728 67.0272 11.728C66.2526 11.728 65.5992 11.9987 65.0672 12.54C64.5352 13.072 64.2692 13.7253 64.2692 14.5C64.2692 15.2747 64.5352 15.9327 65.0672 16.474ZM78.1116 17.118C77.4023 17.818 76.5343 18.168 75.5076 18.168C74.481 18.168 73.6083 17.818 72.8896 17.118C72.1803 16.4087 71.8256 15.536 71.8256 14.5C71.8256 13.464 72.1803 12.596 72.8896 11.896C73.6083 11.1867 74.481 10.832 75.5076 10.832C76.5343 10.832 77.4023 11.1867 78.1116 11.896C78.8303 12.596 79.1896 13.464 79.1896 14.5C79.1896 15.536 78.8303 16.4087 78.1116 17.118ZM73.5476 16.474C74.0796 17.006 74.733 17.272 75.5076 17.272C76.2823 17.272 76.9356 17.006 77.4676 16.474C77.9996 15.9327 78.2656 15.2747 78.2656 14.5C78.2656 13.7253 77.9996 13.072 77.4676 12.54C76.9356 11.9987 76.2823 11.728 75.5076 11.728C74.733 11.728 74.0796 11.9987 73.5476 12.54C73.0156 13.072 72.7496 13.7253 72.7496 14.5C72.7496 15.2747 73.0156 15.9327 73.5476 16.474ZM81.6599 12.162C82.0892 11.3127 82.8265 10.888 83.8719 10.888V11.784C83.2372 11.784 82.7099 11.9707 82.2899 12.344C81.8699 12.7173 81.6599 13.3053 81.6599 14.108V18H80.7359V11H81.6599V12.162ZM88.9849 11.896H86.9689V16.138C86.9689 16.5207 87.0436 16.796 87.1929 16.964C87.3423 17.1227 87.5663 17.2067 87.8649 17.216C88.1636 17.216 88.5369 17.2067 88.9849 17.188V18C88.0049 18.1493 87.2676 18.0793 86.7729 17.79C86.2876 17.5007 86.0449 16.95 86.0449 16.138V11.896H84.5749V11H86.0449V9.32L86.9689 9.04V11H88.9849V11.896Z" fill="white"/>
<defs>
<radialGradient id="paint0_radial_60_59943" cx="0" cy="0" r="1" gradientUnits="userSpaceOnUse" gradientTransform="translate(13 13) rotate(90) scale(25)">
<stop stop-color="#DF5F61"/>
<stop offset="1" stop-color="#DF5F61" stop-opacity="0"/>
</radialGradient>
<radialGradient id="paint1_radial_60_59943" cx="0" cy="0" r="1" gradientUnits="userSpaceOnUse" gradientTransform="translate(68 13) rotate(90) scale(25 71.1538)">
<stop stop-color="white"/>
<stop offset="1" stop-color="white" stop-opacity="0"/>
</radialGradient>
</defs>
</svg>
