<svg width="50" height="80" viewBox="0 0 50 80" fill="none" xmlns="http://www.w3.org/2000/svg">
<rect x="50" width="80" height="50" rx="4" transform="rotate(90 50 0)" fill="white" fill-opacity="0.15"/>
<path fill-rule="evenodd" clip-rule="evenodd" d="M34.539 29.3238L39.5413 34.3261C39.7221 34.5069 39.7221 34.8082 39.481 34.989L36.3471 38.123C36.1663 38.3038 35.9252 38.3038 35.7444 38.123L34.4788 36.8574C34.2377 36.556 33.7555 36.7971 33.7555 37.1587V51.2615C33.7555 51.5026 33.5747 51.6834 33.3337 51.6834H17.6036C17.3625 51.6834 17.1817 51.5026 17.1817 51.2615V37.0984C17.1817 36.7368 16.7598 36.4958 16.4585 36.7971L15.0723 38.0627C14.8915 38.2435 14.6504 38.2435 14.4696 38.0627L11.3357 34.9288C11.1549 34.748 11.1549 34.5069 11.3357 34.3261L16.5188 29.143C16.5357 29.1328 16.5534 29.1221 16.5719 29.1109C16.8822 28.9227 17.4133 28.6006 18.2665 28.6006H21.3402C21.4608 28.6006 21.6416 28.6609 21.7019 28.7814L25.0769 33.4221C25.2577 33.6631 25.6193 33.6631 25.8001 33.4221L29.1751 28.7814C29.2957 28.6609 29.4162 28.6006 29.5367 28.6006H32.6104C33.635 28.6006 34.1774 28.9622 34.4185 29.2033L34.4788 29.2635L34.539 29.3238ZM20.6773 40.7747C20.6773 40.7747 22.4835 37.7613 25.5271 37.7613C28.5103 37.7613 30.3202 40.7747 30.3202 40.7747C30.3202 40.7747 28.5103 43.7881 25.5271 43.7881C22.4835 43.7881 20.6773 40.7747 20.6773 40.7747ZM27.6081 40.7747C27.6081 39.5995 26.674 38.6653 25.4987 38.6653C24.3235 38.6653 23.3893 39.5995 23.3893 40.7747C23.3893 41.9499 24.3235 42.8841 25.4987 42.8841C26.674 42.8841 27.6081 41.9499 27.6081 40.7747ZM24.2934 40.7747C24.2934 40.1118 24.8358 39.5693 25.4987 39.5693L25.4984 39.569C25.6792 39.569 25.8281 39.6031 25.9788 39.6634C25.8582 39.7538 25.7998 39.8707 25.7998 40.0214C25.7998 40.2624 26.0107 40.4734 26.2518 40.4734C26.4025 40.4734 26.5194 40.4149 26.6098 40.2944C26.67 40.445 26.7041 40.5939 26.7041 40.7747C26.7041 41.4377 26.1617 41.9801 25.4987 41.9801C24.8358 41.9801 24.2934 41.4377 24.2934 40.7747Z" fill="white"/>
</svg>
