<svg width="71" height="119" viewBox="0 0 71 119" fill="none" xmlns="http://www.w3.org/2000/svg">
<path d="M8.38775 5.94702C8.38775 3.18141 17.0367 2.49001 21.3612 2.49001C22.3591 2.47871 46.3103 1.99615 52.2981 1.99615C58.2858 1.99615 56.2899 7.92245 56.2899 9.40402C56.2899 10.8856 63.2756 12.3672 64.7726 15.3303C66.2695 18.2935 63.7746 19.2812 62.7767 19.775C61.7787 20.2689 60.2818 21.2566 60.2818 25.2075C62.7767 33.6031 65.2716 66.6915 65.2716 68.667C65.2716 70.6424 65.7705 71.1362 66.7685 73.6055C67.7665 76.0748 68.7644 83.9765 69.2634 88.9151C69.7624 93.8537 66.2695 97.3107 60.2818 97.3107H40.3226V116.077C40.3226 118.547 31.8399 118.547 31.8399 116.571V97.3107H13.3777C9.88481 97.3107 2.40012 94.3476 2.40012 91.3844V77.5564C2.40012 75.0871 3.89705 74.5932 4.89501 72.124C4.89501 63.2345 6.89093 25.7013 6.89093 24.7136C6.89093 23.7259 2.39999 22.2443 1.40203 18.7873C0.404076 15.3303 7.88877 12.861 8.38775 12.861C8.88673 12.861 8.38775 9.40402 8.38775 5.94702Z" stroke="#4C8DEE" stroke-opacity="0.87" stroke-width="2" stroke-dasharray="4 4"/>
</svg>
