<svg width="26" height="26" viewBox="0 0 26 26" fill="none" xmlns="http://www.w3.org/2000/svg">
<g clip-path="url(#clip0)">
<path d="M9.23019 7.43433C8.73442 6.93856 7.9306 6.93856 7.43482 7.43433C6.93904 7.93011 6.93904 8.73393 7.43482 9.2297L17.3095 19.1044C18.4994 20.2943 18.4993 22.2236 17.3093 23.4134C16.8135 23.9091 16.8134 24.713 17.3092 25.2087L17.3093 25.2088C17.8051 25.7046 18.6089 25.7046 19.1047 25.2088C21.2861 23.0271 21.2861 19.4902 19.1045 17.3086L9.23019 7.43433Z" fill="#F04E27"/>
<path d="M12.8205 5.28004C12.3247 4.78426 11.5209 4.78426 11.0252 5.28004C10.5294 5.77581 10.5294 6.57958 11.0252 7.07536L18.9249 14.9752C19.4207 15.4709 20.2245 15.4709 20.7202 14.9752C21.216 14.4794 21.216 13.6756 20.7202 13.1798L12.8205 5.28004Z" fill="#F04E27"/>
<path d="M24.211 1.78881C22.5685 0.146294 20.1793 -0.417784 17.9754 0.316818C16.0573 0.956052 14.6171 2.4669 14.0591 4.36398L16.6951 7.00004L16.8856 5.66667C17.0527 4.49952 17.8199 3.58007 18.9388 3.20719C20.0574 2.83445 21.2228 3.10958 22.0565 3.94331C22.8902 4.77704 23.1654 5.94262 22.7925 7.06143C22.4197 8.18004 21.5002 8.94724 20.3329 9.11416L18.9995 9.30454L21.6356 11.9405C23.5326 11.3827 25.0435 9.94291 25.6831 8.0249C26.4176 5.82115 25.8537 3.43154 24.211 1.78881Z" fill="#F04E27"/>
<path d="M9.11416 20.3335C8.94729 21.5009 8.18004 22.4203 7.06143 22.7931C5.94267 23.166 4.77704 22.8908 3.94331 22.0571C3.10958 21.2234 2.8345 20.058 3.20718 18.9394C3.58012 17.8206 4.49952 17.0533 5.66667 16.8862L7.00059 16.6957L4.36449 14.0596C2.4672 14.6175 0.956102 16.0578 0.316817 17.976C-0.417785 20.1799 0.146293 22.5691 1.78886 24.2116C3.43159 25.8542 5.8212 26.4183 8.0249 25.6838C9.94306 25.0441 11.383 23.5331 11.9407 21.6357L9.30459 18.9996L9.11416 20.3335Z" fill="#F04E27"/>
<path d="M7.07536 11.0252C6.57958 10.5294 5.77581 10.5294 5.28004 11.0252V11.0252C4.78426 11.521 4.78426 12.3247 5.28004 12.8205L13.1798 20.7203C13.6756 21.2161 14.4794 21.2161 14.9751 20.7203C15.4709 20.2245 15.4709 19.4208 14.9751 18.925L7.07536 11.0252Z" fill="#F04E27"/>
</g>
<defs>
<clipPath id="clip0">
<rect width="26" height="26" fill="white"/>
</clipPath>
</defs>
</svg>
