<svg width="22" height="22" viewBox="0 0 22 22" fill="none" xmlns="http://www.w3.org/2000/svg">
<g id="route">
<path id="icon" fill-rule="evenodd" clip-rule="evenodd" d="M5.50016 20.1667C6.69753 20.1667 7.71617 19.4015 8.09368 18.3334H16.0418C18.32 18.3334 20.1668 16.4865 20.1668 14.2084C20.1668 11.9302 18.32 10.0834 16.0418 10.0834H5.9585C4.69284 10.0834 3.66683 9.05735 3.66683 7.79169C3.66683 6.52604 4.69284 5.50003 5.9585 5.50003H8.78713L7.60198 6.68518L8.89834 7.98154L12.2965 4.58336L8.89834 1.18518L7.60198 2.48154L8.78713 3.6667H5.9585C3.68032 3.6667 1.8335 5.51352 1.8335 7.79169C1.8335 10.0699 3.68032 11.9167 5.9585 11.9167H16.0418C17.3075 11.9167 18.3335 12.9427 18.3335 14.2084C18.3335 15.474 17.3075 16.5 16.0418 16.5H8.09368C7.71617 15.4319 6.69753 14.6667 5.50016 14.6667C3.98138 14.6667 2.75016 15.8979 2.75016 17.4167C2.75016 18.9355 3.98138 20.1667 5.50016 20.1667ZM4.5835 17.4167C4.5835 16.9104 4.9939 16.5 5.50016 16.5C6.00642 16.5 6.41683 16.9104 6.41683 17.4167C6.41683 17.923 6.00642 18.3334 5.50016 18.3334C4.9939 18.3334 4.5835 17.923 4.5835 17.4167ZM16.5002 1.83337C18.0189 1.83337 19.2502 3.06458 19.2502 4.58337C19.2502 6.10215 18.0189 7.33337 16.5002 7.33337C14.9814 7.33337 13.7502 6.10215 13.7502 4.58337C13.7502 3.06458 14.9814 1.83337 16.5002 1.83337ZM15.5835 4.58337C15.5835 4.07711 15.9939 3.6667 16.5002 3.6667C17.0064 3.6667 17.4168 4.07711 17.4168 4.58337C17.4168 5.08963 17.0064 5.50003 16.5002 5.50003C15.9939 5.50003 15.5835 5.08963 15.5835 4.58337Z" fill="#F04D26"/>
</g>
</svg>
