<svg width="33" height="33" viewBox="0 0 33 33" fill="none" xmlns="http://www.w3.org/2000/svg">
<path d="M28.1673 4.8327C25.0508 1.71632 20.9073 0 16.5 0C12.0927 0 7.9492 1.71632 4.8327 4.8327C1.71632 7.9492 0 12.0927 0 16.5C0 20.9073 1.71632 25.0508 4.8327 28.1673C7.9492 31.2837 12.0927 33 16.5 33C20.9073 33 25.0508 31.2837 28.1673 28.1673C31.2837 25.0508 33 20.9073 33 16.5C33 12.0927 31.2837 7.9492 28.1673 4.8327ZM16.5 31.0664C8.46805 31.0664 1.93359 24.532 1.93359 16.5C1.93359 8.46805 8.46805 1.93359 16.5 1.93359C24.532 1.93359 31.0664 8.46805 31.0664 16.5C31.0664 24.532 24.532 31.0664 16.5 31.0664Z" fill="white"/>
<path d="M16.5 3.8833C9.54312 3.8833 3.8833 9.54312 3.8833 16.5C3.8833 23.4569 9.54312 29.1167 16.5 29.1167C23.4569 29.1167 29.1167 23.4569 29.1167 16.5C29.1167 9.54312 23.4569 3.8833 16.5 3.8833ZM16.5 5.81689C20.8208 5.81689 24.5506 8.39541 26.2318 12.0944C24.239 10.9598 21.0173 9.70825 16.5 9.70825C11.9828 9.70825 8.76118 10.9597 6.76829 12.0943C8.44948 8.39534 12.1792 5.81689 16.5 5.81689ZM6.23571 19.4643C10.5359 19.8694 13.1306 22.464 13.5357 26.7643C10.0241 25.7486 7.25143 22.9759 6.23571 19.4643ZM15.5014 27.1361C15.3511 24.4719 14.4888 22.2089 12.9847 20.5529C11.3115 18.7109 8.86166 17.6638 5.86395 17.4986C5.83333 17.1697 5.81689 16.8367 5.81689 16.5C5.81689 16.0033 5.85176 15.5148 5.91763 15.0359C6.27638 14.7224 7.09358 14.0749 8.36937 13.434C9.99707 12.6164 12.729 11.6418 16.5 11.6418C20.271 11.6418 23.0029 12.6164 24.6305 13.434C25.9079 14.0757 26.7254 14.724 27.0824 15.0359C27.1483 15.5148 27.1831 16.0033 27.1831 16.4999C27.1831 16.8367 27.1667 17.1697 27.1361 17.4985C24.1383 17.6638 21.6885 18.7108 20.0154 20.5528C18.5113 22.2087 17.649 24.4718 17.4987 27.1359C17.1698 27.1665 16.8368 27.183 16.5001 27.183C16.1633 27.183 15.8303 27.1667 15.5014 27.1361ZM19.4644 26.7643C19.8695 22.464 22.4642 19.8694 26.7644 19.4643C25.7486 22.9759 22.9759 25.7486 19.4644 26.7643Z" fill="white"/>
<path d="M19.4084 16.5C19.4084 14.8963 18.1037 13.5916 16.5 13.5916C14.8963 13.5916 13.5916 14.8963 13.5916 16.5C13.5916 18.1037 14.8963 19.4084 16.5 19.4084C18.1037 19.4084 19.4084 18.1037 19.4084 16.5ZM15.5251 16.5C15.5251 15.9625 15.9625 15.5251 16.5 15.5251C17.0375 15.5251 17.4749 15.9625 17.4749 16.5C17.4749 17.0375 17.0375 17.4749 16.5 17.4749C15.9625 17.4749 15.5251 17.0375 15.5251 16.5Z" fill="white"/>
</svg>
