<svg width="24" height="24" viewBox="0 0 24 24" fill="none" xmlns="http://www.w3.org/2000/svg">
<path d="M6.14918 0.921143C4.63924 0.921143 3.4106 2.13858 3.4106 3.62935L3.31104 17.6708L4.8048 17.6815L4.90441 3.63483C4.90441 2.96213 5.46283 2.41491 6.14922 2.41491H21.1617V0.921143H6.14918Z" fill="white"/>
<path d="M21.1618 0.921143C19.5968 0.921143 18.3236 2.19431 18.3236 3.75933V19.5187C18.3236 20.6579 17.3965 21.585 16.2572 21.585C15.118 21.585 14.1908 20.6579 14.1908 19.5187V17.7012C14.1908 17.2887 13.8565 16.9543 13.4439 16.9543H0.746906C0.334359 16.9543 0 17.2887 0 17.7012V19.5187C0 21.4817 1.59708 23.0788 3.56016 23.0788V21.585C2.42067 21.585 1.49377 20.6579 1.49377 19.5187V18.4481H12.6971V19.5186C12.6971 21.4817 14.2942 23.0788 16.2572 23.0788C18.2203 23.0788 19.8174 21.4817 19.8174 19.5186V7.84228H23.2531C23.6656 7.84228 24 7.50792 24 7.09538V3.75928C24 2.19431 22.7268 0.921143 21.1618 0.921143ZM22.5062 6.34852H19.8174V3.75928C19.8174 3.01786 20.4207 2.41491 21.1618 2.41491C21.903 2.41491 22.5062 3.01791 22.5062 3.75928V6.34852H22.5062Z" fill="white"/>
<path d="M16.0826 21.585H3.41064V23.0787H16.0826V21.585Z" fill="white"/>
<path d="M11.1039 5.07886H7.24495C6.83241 5.07886 6.49805 5.41322 6.49805 5.82576C6.49805 6.23831 6.83241 6.57267 7.24495 6.57267H11.1039C11.5164 6.57267 11.8508 6.23831 11.8508 5.82576C11.8508 5.41322 11.5164 5.07886 11.1039 5.07886Z" fill="white"/>
<path d="M15.5852 8.06641H7.24495C6.83241 8.06641 6.49805 8.40077 6.49805 8.81331C6.49805 9.22586 6.83241 9.56022 7.24495 9.56022H15.5852C15.9977 9.56022 16.3321 9.22586 16.3321 8.81331C16.3321 8.40077 15.9977 8.06641 15.5852 8.06641Z" fill="white"/>
<path d="M15.5852 11.054H7.24495C6.83241 11.054 6.49805 11.3883 6.49805 11.8009C6.49805 12.2134 6.83241 12.5478 7.24495 12.5478H15.5852C15.9977 12.5478 16.3321 12.2136 16.3321 11.8009C16.3321 11.3883 15.9977 11.054 15.5852 11.054Z" fill="white"/>
<path d="M15.5852 14.0415H7.24495C6.83241 14.0415 6.49805 14.3759 6.49805 14.7884C6.49805 15.201 6.83241 15.5353 7.24495 15.5353H15.5852C15.9977 15.5353 16.3321 15.201 16.3321 14.7884C16.3321 14.3759 15.9977 14.0415 15.5852 14.0415Z" fill="white"/>
</svg>
