<svg width="100" height="100" viewBox="0 0 100 100" fill="none" xmlns="http://www.w3.org/2000/svg">
<g opacity="0.4">
<path d="M33.8906 16.4453C29.0391 34.6037 24.4037 52.8026 19.5529 70.9585" stroke="#222222" stroke-width="5" stroke-linecap="round"/>
<path d="M78.9677 28.7182C76.5805 37.6531 74.1933 46.5879 71.8061 55.5227C70.572 60.1416 69.0981 64.7683 68.2062 69.4685C67.6571 72.362 67.3902 75.2961 67.3763 78.2392C67.3667 80.2738 67.5306 82.5711 67.0028 84.5464" stroke="#222222" stroke-width="5" stroke-linecap="round"/>
<path d="M26.3459 48.9363C31.241 46.4824 36.0052 43.7251 40.9845 41.446C46.2441 39.0388 51.3922 37.1584 56.9394 35.5435C64.624 33.3062 72.1303 30.8214 79.9711 29.211" stroke="#222222" stroke-width="5" stroke-linecap="round"/>
<path d="M33.2416 16.4657C39.3044 17.6943 43.7548 22.9819 47.8722 27.2736C52.6011 32.2026 56.7091 37.9299 60.7139 43.4555C63.0841 46.7257 65.7621 49.751 68.1053 53.0355C69.1444 54.4919 70.6838 57.3441 72.5824 57.8514" stroke="#222222" stroke-width="5" stroke-linecap="round"/>
</g>
</svg>
