<svg width="100" height="100" viewBox="0 0 100 100" fill="none" xmlns="http://www.w3.org/2000/svg">
<path opacity="0.4" d="M67.1764 25.1467C63.9366 26.9017 61.3204 29.0431 58.4056 31.2467C57.822 31.6879 55.8935 33.4636 55.027 33.2402C54.9484 33.2199 53.4125 30.4333 53.1408 30.1219C51.3935 28.1191 49.6259 25.9068 48.2056 23.6581C47.3147 22.2477 46.2557 20.7539 45.8243 19.1324C45.2999 17.1615 45.0993 21.705 45.0864 21.9377C44.7609 27.8565 42.3907 33.9722 40.919 39.6799C39.2522 46.1448 37.5835 52.5259 35.3309 58.8153C33.4122 64.1726 32.1282 69.7139 30.7089 75.2188C30.5399 75.8743 30.1358 76.6942 30.9562 75.9515C33.3646 73.7712 37.4607 72.9551 40.4598 71.9163C42.8761 71.0794 45.3439 70.7612 47.7955 70.0851C48.4619 69.9013 50.1888 69.4071 50.5391 70.3854C51.3627 72.6853 52.0896 75.0852 52.8576 77.4105C53.1998 78.4468 53.3722 80.7462 54.221 81.4846" stroke="#222222" stroke-width="5" stroke-linecap="round"/>
</svg>
