<svg width="100" height="100" viewBox="0 0 100 100" fill="none" xmlns="http://www.w3.org/2000/svg">
<path opacity="0.4" d="M24.8809 17.8973C22.1279 26.7784 19.3749 35.6595 16.6219 44.5406C14.9441 49.9533 13.9314 55.5047 12.3202 60.9328C12.2166 61.2817 10.9907 65.3506 11.2096 65.4937C11.5043 65.6863 12.0819 65.0362 12.2602 64.8989C13.3732 64.0421 14.6766 63.4568 15.9433 62.868C21.0809 60.4799 26.6889 59.1052 32.0481 57.3028C40.1912 54.5642 48.5386 52.4677 56.7056 49.7869C62.3983 47.9183 67.9528 45.6228 73.3922 43.1135C76.8282 41.5284 80.37 40.1307 83.8374 38.6201C84.8359 38.185 85.8606 37.8287 86.833 37.3397C87.6739 36.9169 86.5861 39.5311 86.5 39.8461C85.6409 42.9906 85.3545 46.3323 84.857 49.5477C84.3167 53.0395 83.6969 56.399 82.6494 59.7781C81.0317 64.9969 79.3895 70.1331 77.204 75.1444C76.2135 77.4155 75.0019 79.7275 74.1836 82.0585C73.6607 83.5482 72.626 82.4285 71.726 81.7082C64.5638 75.9763 60.2548 67.7749 55.2587 60.2531C49.8008 52.0363 43.3049 44.5424 37.9237 36.2876C36.1869 33.6235 34.212 31.1596 32.3112 28.6141C30.744 26.5153 28.8824 24.6136 27.469 22.4028C26.3787 20.6974 26.059 18.8157 25.4623 16.9298C25.2534 16.2692 24.8721 15.2102 24.2852 14.7891" stroke="#222222" stroke-width="5" stroke-linecap="round"/>
</svg>
