<svg width="101" height="100" viewBox="0 0 101 100" fill="none" xmlns="http://www.w3.org/2000/svg">
<g opacity="0.4">
<path d="M38.3912 43.7608C39.3844 47.5033 41.2955 50.7953 43.1179 54.1759C44.864 57.4148 46.5104 60.7248 48.0538 64.0639C49.0045 66.1208 49.9794 68.2987 51.1881 70.2075C52.2035 71.8112 53.279 73.3541 54.1806 75.0265C54.6954 75.9815 54.6184 77.0876 55.7292 76.3621C57.8763 74.9598 60.8118 74.3908 63.2116 73.5518C66.156 72.5224 69.1351 71.5973 72.0795 70.5668C76.1647 69.1371 80.3385 67.9675 84.5679 67.0507C85.1561 66.9232 89.9601 65.3045 90.1924 65.7352" stroke="#222222" stroke-width="5" stroke-linecap="round"/>
<path d="M9.63672 38.8398C15.2847 37.2135 20.8472 35.4637 26.1705 32.9456C30.0263 31.1217 34.0264 29.6642 37.804 27.6608C39.6771 26.6674 41.5727 25.6391 43.5042 24.7655C44.256 24.4254 45.5727 23.5783 46.4504 23.7889C47.3597 24.0071 48.1357 25.5985 48.5983 26.2911C50.2566 28.7738 51.5729 31.4267 52.9027 34.0926C54.6301 37.5558 56.6374 40.8483 58.7243 44.1049C60.9629 47.598 63.9089 50.503 67.278 52.8714" stroke="#222222" stroke-width="5" stroke-linecap="round"/>
</g>
</svg>
