<svg width="40" height="40" viewBox="0 0 40 40" fill="none" xmlns="http://www.w3.org/2000/svg">
<g clip-path="url(#clip0_80_1489)">
<path d="M12.9399 20.6665C12.9399 17.8956 11.2587 14.6767 9.1844 13.4768C8.26307 12.9439 7.41987 12.9002 6.76648 13.2582V13.2576C6.76648 13.2576 4.78284 14.3829 4.69403 14.4443L4.67938 14.4526L4.67999 14.4538C3.9668 14.954 3.52246 15.9811 3.52246 17.4048C3.52246 20.1754 5.20368 23.3943 7.27796 24.5941C8.17457 25.113 8.99732 25.1681 9.64277 24.8406L9.64307 24.8415L9.65894 24.8326C9.70167 24.8103 11.5547 23.7566 11.5547 23.7566L11.5541 23.7551C12.3994 23.3246 12.9399 22.2366 12.9399 20.6665Z" fill="#2E373D"/>
<path d="M33.9353 7.20851L28.1156 10.554C25.976 11.7838 24.6567 14.0661 24.6567 16.5373V19.4624L21.6635 17.7179L23.0948 16.9037V14.7859L23.5111 14.5449C24.2752 14.1642 24.7788 13.3787 24.7788 12.4972C24.7788 11.6346 24.3195 10.8377 23.5743 10.4066L15.1721 5.54602C14.3237 5.05525 13.3612 4.79688 12.3813 4.79688C11.2375 4.79688 10.1541 5.14699 9.25081 5.76067L5.56519 7.89283C4.45313 8.43924 3.53577 9.34983 2.98645 10.5014L1.29181 11.4655C0.492249 11.9278 0 12.7821 0 13.7071V17.0697C0 18.068 0.531617 18.9909 1.39466 19.4899L9.90724 24.4144L10.8759 23.8633L18.2022 28.734C20.3049 30.431 23.2315 30.6619 25.5735 29.3156L33.6576 24.6691V24.6684C35.4004 23.6658 36.6468 21.7979 36.6468 19.4966V8.78201C36.6468 7.38769 35.1423 6.51471 33.9353 7.20851Z" fill="#63DBFF"/>
<path d="M23.0948 14.7866L21.6452 15.6254C21.2579 16.0996 21.0303 16.7032 21.0303 17.3496L21.6635 17.7187L23.0948 16.9044V14.7866Z" fill="#2EB3BD"/>
<path d="M38.3618 34.7553C38.3618 31.9844 36.6806 28.7655 34.6066 27.5657C33.6846 27.0324 32.8408 26.9887 32.1871 27.3471L30.3967 28.3723C30.2972 28.4179 30.202 28.4723 30.111 28.5356L30.1013 28.5411L30.1016 28.542C29.3887 29.0429 28.9443 30.0697 28.9443 31.4933C28.9443 34.2643 30.6256 37.4831 32.6998 38.683C33.5964 39.2016 34.4192 39.2572 35.0649 38.9304H35.0653C35.1214 38.9016 35.1769 38.8707 35.2304 38.8365L36.9766 37.8455V37.8452C37.8219 37.414 38.3618 36.3255 38.3618 34.7553Z" fill="#23292E"/>
<path d="M36.4553 35.8392C36.4553 38.6101 34.7738 39.8837 32.6998 38.6838C30.6256 37.484 28.9443 34.2651 28.9443 31.4942C28.9443 28.7233 30.6256 27.4497 32.6998 28.6496C34.7738 29.8494 36.4553 33.0683 36.4553 35.8392Z" fill="#2E373D"/>
<path d="M34.5465 34.736C34.5465 36.0985 33.7197 36.7247 32.7001 36.1346C31.6802 35.5448 30.8535 33.9621 30.8535 32.5999C30.8535 31.2373 31.6802 30.6114 32.7001 31.2013C33.7197 31.7911 34.5465 33.3738 34.5465 34.736Z" fill="#CECECE"/>
<path d="M33.7011 34.2462C33.7011 34.9849 33.2528 35.3247 32.6998 35.0048C32.1465 34.6847 31.6982 33.8264 31.6982 33.0876C31.6982 32.3486 32.1465 32.0089 32.6998 32.329C33.2528 32.6488 33.7011 33.5071 33.7011 34.2462Z" fill="#2E373D"/>
<path d="M36.4553 35.8392C36.4553 38.6101 34.7738 39.8837 32.6998 38.6838C30.6256 37.484 28.9443 34.2651 28.9443 31.4942C28.9443 28.7233 30.6256 27.4497 32.6998 28.6496C34.7738 29.8494 36.4553 33.0683 36.4553 35.8392Z" fill="#2E373D"/>
<path d="M34.5465 34.736C34.5465 36.0985 33.7197 36.7247 32.7001 36.1346C31.6802 35.5448 30.8535 33.9621 30.8535 32.5999C30.8535 31.2373 31.6802 30.6114 32.7001 31.2013C33.7197 31.7911 34.5465 33.3738 34.5465 34.736Z" fill="#CECECE"/>
<path d="M33.7011 34.2462C33.7011 34.9849 33.2528 35.3247 32.6998 35.0048C32.1465 34.6847 31.6982 33.8264 31.6982 33.0876C31.6982 32.3486 32.1465 32.0089 32.6998 32.329C33.2528 32.6488 33.7011 33.5071 33.7011 34.2462Z" fill="#2E373D"/>
<path d="M21.849 20.1963C21.3333 19.8089 21.0299 19.2007 21.0299 18.5549V17.3514C21.0299 16.7038 21.2618 16.102 21.6506 15.6274L21.6485 15.625L19.4256 16.9111C19.2108 17.0591 18.9688 17.1725 18.7054 17.241C17.5063 17.552 16.6689 18.6356 16.6689 19.8765V21.2011C16.6689 21.7463 17.0043 22.2349 17.5121 22.43L24.6563 24.5334V22.4844L21.849 20.1963Z" fill="#23868E"/>
<path d="M17.5127 22.4285C17.0049 22.2334 16.6695 21.7448 16.6695 21.1996V19.875C16.6695 18.6342 17.5072 17.5505 18.706 17.2395C19.7143 16.9781 20.4183 16.0666 20.4183 15.0233C20.4183 14.1607 19.959 13.3638 19.2138 12.9327L10.8117 8.07245C9.96327 7.58138 9.00074 7.323 8.02082 7.323C5.85468 7.323 3.90521 8.57606 2.98633 10.5024L4.32514 9.74075C5.12439 9.27842 6.1092 9.27842 6.90845 9.74075L8.5149 10.67C9.99562 11.5268 11.1971 12.7945 11.9741 14.3203C12.6095 15.5685 12.9409 16.9496 12.9409 18.351V21.9487L16.6695 24.0983L24.656 26.5038L24.6572 24.5319L17.5127 22.4285Z" fill="#2EB3BD"/>
<path d="M18.1677 3.5216L14.0402 1.13382C13.6838 0.927725 13.2449 0.927725 12.8885 1.13382L8.76099 3.5216C8.60077 3.61455 8.52051 3.77692 8.52051 3.93928V6.73007C8.52051 6.89244 8.60077 7.0548 8.76099 7.14745L12.8885 9.53524C13.2449 9.74133 13.6838 9.74163 14.0402 9.53524L18.1677 7.14745C18.3249 7.05664 18.4027 6.89855 18.4061 6.73955H18.4079V6.73221C18.4079 6.73069 18.4079 6.72916 18.4079 6.72732V3.94937C18.4113 3.78365 18.3316 3.61639 18.1677 3.5216Z" fill="#2E373D"/>
<path d="M8.76106 4.35666L12.8886 6.74475C13.245 6.95084 13.6839 6.95084 14.0403 6.74475L18.1678 4.35666C18.4889 4.17106 18.4889 3.7072 18.1678 3.5216L14.0403 1.13382C13.6839 0.927725 13.245 0.927725 12.8886 1.13382L8.76106 3.52129C8.44032 3.7072 8.44032 4.17106 8.76106 4.35666Z" fill="#627681"/>
<path d="M9.90724 24.4158V20.0769C9.90724 18.6758 9.57612 17.2943 8.94044 16.0462C8.16346 14.5204 6.96199 13.2526 5.48158 12.3962L3.87513 11.4666C3.07557 11.0043 2.09107 11.0043 1.29151 11.4666C0.492249 11.9293 0 12.7836 0 13.7085V17.0711C0 18.0695 0.531617 18.9923 1.39466 19.4913L9.90724 24.4158Z" fill="#2EB3BD"/>
<path d="M34.4195 33.6864C34.4195 32.6648 34.1778 31.6576 33.7145 30.7479C33.1481 29.6352 32.2723 28.7109 31.1929 28.0865L30.0216 27.4092C29.4387 27.0719 28.7209 27.0719 28.1381 27.4092C27.5555 27.7462 27.1963 28.369 27.1963 29.0433V31.5524C27.1963 32.1939 27.6681 32.7376 28.3022 32.8266L34.4195 33.6864Z" fill="#2EB3BD"/>
<path d="M38.1991 28.1752C37.6327 27.0625 36.7568 26.1381 35.6774 25.5137L34.5062 24.8364C33.9233 24.4992 33.2052 24.4992 32.6226 24.8364L28.1387 27.4086C28.7216 27.0716 29.4393 27.0716 30.0219 27.4089L31.1932 28.0862C32.2726 28.7106 33.1484 29.6349 33.7152 30.7477C34.1784 31.6576 34.4198 32.6645 34.4198 33.6861L38.9041 31.1137C38.9041 30.0921 38.6624 29.0852 38.1991 28.1752Z" fill="#63DBFF"/>
<path d="M36.4998 8.05782C36.4058 7.84011 36.271 7.64748 36.1071 7.48695C35.9429 7.32642 35.7497 7.19799 35.5391 7.1084C35.1183 6.92952 34.6285 6.90659 34.1646 7.09495C34.0874 7.12644 34.0108 7.16374 33.9351 7.20686L28.1154 10.5523C27.3131 11.0134 26.6262 11.6225 26.0808 12.3344C25.172 13.5205 24.6566 14.9912 24.6566 16.5357V26.3868C24.6566 27.8288 24.1661 29.0996 23.3721 30.0949C24.1326 29.9701 24.8787 29.7133 25.5733 29.3139L33.6574 24.6674V24.6668C35.4 23.6639 36.6463 21.7959 36.6463 19.495V8.78037C36.6466 8.51893 36.5938 8.27584 36.4998 8.05782Z" fill="#2EB3BD"/>
<path d="M24.6685 9.26934C24.6679 9.30114 24.6654 9.33263 24.6624 9.36443C24.6892 9.103 24.627 8.83055 24.4634 8.59664L21.5975 4.50234C21.2322 3.98038 20.5294 3.82536 19.9791 4.14519L15.2794 6.87697C15.0045 7.03689 14.8799 7.32095 14.8983 7.59615L14.8955 7.59554V9.90168L14.8983 9.90198C14.905 10.1805 15.0557 10.4548 15.3487 10.5878L20.8507 13.0802C21.6878 13.4593 22.6561 13.4107 23.4511 12.9496L24.1033 12.5711C24.4777 12.3537 24.6749 11.958 24.6645 11.5577L24.6688 11.5584V9.26964L24.6685 9.26934Z" fill="#2E373D"/>
<path d="M15.2794 6.8769L19.9788 4.14512C20.529 3.82528 21.2318 3.98061 21.5971 4.50226L24.463 8.59687C24.8445 9.14176 24.6782 9.89763 24.1032 10.2312L23.4511 10.6098C22.6561 11.0712 21.6878 11.1198 20.8507 10.7406L15.3486 8.24798C14.7773 7.9893 14.7374 7.19215 15.2794 6.8769Z" fill="#627681"/>
<path d="M29.624 9.6875C30.188 10.0138 30.5353 10.6164 30.5353 11.2687V19.9765C30.5353 21.0485 31.1063 22.0395 32.0328 22.5755V25.6189L29.624 26.9881V9.6875Z" fill="#23868E"/>
<path d="M32.1552 19.0387V10.3312C32.1552 9.67894 31.8079 9.07595 31.2439 8.75L29.624 9.68628C30.188 10.0125 30.5353 10.6152 30.5353 11.2674V19.9752C30.5353 21.0473 31.1063 22.038 32.0328 22.5743V25.6021L33.653 24.6811V21.6377C32.7261 21.1017 32.1552 20.111 32.1552 19.0387Z" fill="#63DBFF"/>
<path d="M32.0332 22.5772L33.6534 21.6406V24.684L32.0332 25.6206V22.5772Z" fill="#EDEDED"/>
<path d="M39.5628 3.29092C39.5628 2.76683 39.2448 2.15864 38.8527 1.93176C38.6799 1.83177 38.524 1.82719 38.4007 1.89293C38.3818 1.90302 38.3622 1.91158 38.3452 1.92503L35.4658 3.5866L36.3902 5.5515L39.2528 3.89482V3.89452C39.4398 3.83214 39.5628 3.61626 39.5628 3.29092Z" fill="#2E373D"/>
<path d="M36.6228 4.98628C36.6228 5.51007 36.3051 5.75071 35.913 5.52383C35.5208 5.29725 35.2031 4.68876 35.2031 4.16497C35.2031 3.64118 35.5208 3.40024 35.913 3.62712C36.3051 3.854 36.6228 4.46249 36.6228 4.98628Z" fill="#2E373D"/>
<path d="M30.2106 10.7663C30.2106 8.84117 31.2357 7.06219 32.8998 6.09961L33.4463 5.76296C34.2395 5.30399 35.1431 5.4208 35.788 5.89902L36.3913 5.55014L36.3907 5.54922C37.1411 5.06793 36.0782 3.05075 35.3964 3.62958V3.62927L34.9219 3.90355C34.126 4.36374 33.1457 4.36466 32.3492 3.90538L32.3483 3.9063C31.752 3.62499 31.0272 3.61031 30.3751 3.98733C27.9996 5.28075 27.6095 8.10915 25.3387 9.40471C24.6081 9.79549 25.4184 11.665 26.1908 11.4063V11.4066C26.514 11.2195 26.8371 11.0326 27.1603 10.8455C27.9446 10.3921 28.9108 10.3936 29.6936 10.8495L30.5078 11.3237C30.3329 11.206 30.2106 11.0079 30.2106 10.7663Z" fill="#63DBFF"/>
<path d="M26.5007 10.8065C26.5007 10.2828 26.1827 9.67427 25.7905 9.44738C25.6178 9.3474 25.4616 9.34281 25.3386 9.40855L25.3383 9.40886C25.3196 9.41895 22.436 11.0836 22.436 11.0836C22.2575 11.1524 22.1406 11.3646 22.1406 11.6817C22.1406 12.2055 22.4583 12.8139 22.8505 13.0408C23.047 13.1543 23.2246 13.1506 23.3531 13.0528L26.1906 11.4108V11.4104C26.3777 11.3478 26.5007 11.1319 26.5007 10.8065Z" fill="#2E373D"/>
<path d="M23.5603 12.5019C23.5603 13.0257 23.2426 13.2663 22.8505 13.0398C22.4583 12.8129 22.1406 12.2044 22.1406 11.6806C22.1406 11.1568 22.4583 10.9159 22.8505 11.1427C23.2426 11.3696 23.5603 11.9781 23.5603 12.5019Z" fill="#627681"/>
<path d="M25.79 13.541C23.9745 13.3297 27.5109 10.0842 27.8462 9.88458C28.1337 9.71335 28.3034 9.40024 28.6736 9.72466C29.1368 10.1304 28.102 10.7756 27.8957 10.9685C27.3772 11.4532 26.3515 12.2207 26.1766 12.961C26.2847 13.2215 26.0683 13.541 25.79 13.541C25.8702 13.541 25.6551 13.541 25.79 13.541Z" fill="#2E373D"/>
<path d="M35.2036 6.63298C34.5099 6.63298 34.9369 5.95355 35.1895 5.75785C35.5011 5.5166 36.066 5.37778 36.4331 5.24048C37.2464 4.93685 38.4006 4.45343 39.2881 4.6586C39.5893 4.72832 40.2417 4.98211 39.9066 5.41906C39.6851 5.70832 39.086 5.46186 38.7604 5.47348C38.1839 5.49397 37.5437 5.74501 37.0047 5.93306C36.4701 6.11958 35.7562 6.63298 35.2036 6.63298Z" fill="#2E373D"/>
<path d="M30.21 10.7673C30.21 11.2862 30.7706 11.6106 31.2192 11.351L36.1551 8.47518C36.4609 8.29814 36.6495 7.97127 36.6495 7.61749C36.6495 5.96998 34.8694 4.94045 33.4457 5.76389L32.8992 6.10055C31.235 7.06312 30.21 8.84211 30.21 10.7673Z" fill="#CECECE"/>
<path d="M34.5101 6.21362C35.1834 6.21362 35.9097 6.74964 35.9097 7.6159C35.9097 7.70457 35.8621 7.78744 35.783 7.833L30.9512 10.6482C30.9921 9.03805 31.8725 7.54863 33.2864 6.73038C33.6697 6.49402 34.0386 6.21362 34.5101 6.21362Z" fill="#EDEDED"/>
</g>
<defs>
<clipPath id="clip0_80_1489">
<rect width="40" height="40" fill="white"/>
</clipPath>
</defs>
</svg>
