<svg width="105" height="26" viewBox="0 0 105 26" fill="none" xmlns="http://www.w3.org/2000/svg">
<rect width="26" height="26" rx="2" fill="url(#paint0_radial_60_59999)"/>
<g clip-path="url(#clip0_60_59999)">
<path d="M6.31374 6.76831C6.18748 6.64205 6.18748 6.43796 6.31374 6.3117C6.44 6.18544 6.64408 6.18544 6.77034 6.3117L8.06201 7.60337C8.18827 7.72963 8.18827 7.93371 8.06201 8.05997C7.93575 8.18623 7.73167 8.18623 7.60541 8.05997L6.31374 6.76831ZM7.10424 8.67093L5.96531 7.90949C5.81709 7.81036 5.61656 7.85008 5.51743 7.9983C5.41829 8.14684 5.45801 8.34704 5.60655 8.44618L6.74548 9.20762C6.8937 9.30675 7.09391 9.26703 7.19336 9.11882C7.29218 8.9706 7.25278 8.77007 7.10424 8.67093ZM17.3281 7.10252L18.0892 5.96327C18.1887 5.81506 18.1486 5.61452 18.0004 5.51539C17.8519 5.41625 17.6517 5.4563 17.5525 5.60451L16.7914 6.74344C16.692 6.89166 16.732 7.09219 16.8802 7.19133C17.0291 7.29078 17.2293 7.25074 17.3281 7.10252ZM8.67265 7.10252C8.77178 7.25074 8.97199 7.29078 9.12053 7.19165C9.26843 7.09219 9.30879 6.89198 9.20933 6.74344L8.4479 5.60451C8.34908 5.4563 8.14887 5.41625 8.00033 5.51539C7.85211 5.61452 7.81207 5.81473 7.91121 5.96327L8.67265 7.10252ZM17.9387 8.05997C18.065 8.18623 18.2691 8.18623 18.3953 8.05997L19.687 6.76831C19.8133 6.64205 19.8133 6.43796 19.687 6.3117C19.5608 6.18544 19.3567 6.18544 19.2304 6.3117L17.9387 7.60337C17.8125 7.72963 17.8125 7.93371 17.9387 8.05997ZM20.4836 7.9983C20.3842 7.84975 20.184 7.81036 20.0358 7.90949L18.8968 8.67093C18.7483 8.77007 18.7086 8.9706 18.8077 9.11882C18.9072 9.26736 19.1074 9.30675 19.2556 9.20762L20.3945 8.44618C20.5427 8.34704 20.5825 8.14684 20.4836 7.9983ZM5.57329 12.9983C5.57329 13.5741 5.88781 14.0879 6.35959 14.3727C6.26788 13.9287 6.21912 13.4691 6.21912 12.9983C6.21912 12.5275 6.26788 12.068 6.35959 11.624C5.88781 11.9088 5.57329 12.4226 5.57329 12.9983ZM19.6412 11.624C19.7329 12.068 19.7816 12.5275 19.7816 12.9983C19.7816 13.4691 19.7329 13.9287 19.6412 14.3727C20.1129 14.0879 20.4275 13.5744 20.4275 12.9983C20.4275 12.4223 20.1129 11.9088 19.6412 11.624ZM19.1358 12.9983C19.1358 16.3815 16.3836 19.1338 13.0004 19.1338C14.2465 19.1338 15.2608 17.9748 15.2608 16.5504C15.2608 15.126 14.2465 13.9671 13.0004 13.9671C11.7542 13.9671 10.74 15.126 10.74 16.5504C10.74 17.9748 11.7542 19.1338 13.0004 19.1338C9.6175 19.1338 6.86496 16.3815 6.86496 12.9983C6.86496 9.61514 9.6175 6.86292 13.0004 6.86292C16.3833 6.86292 19.1358 9.61514 19.1358 12.9983ZM12.0316 12.3525C12.0316 12.2392 11.9719 12.1339 11.875 12.0758L10.2604 11.107C10.107 11.015 9.90909 11.065 9.81738 11.2178C9.72568 11.3708 9.77508 11.5691 9.92815 11.6608L11.0813 12.3525L9.92815 13.0445C9.77508 13.1365 9.72568 13.3348 9.81738 13.4876C9.90909 13.6406 10.1077 13.69 10.2604 13.5983L11.875 12.6296C11.9722 12.5711 12.0316 12.4658 12.0316 12.3525ZM14.9195 12.3525L16.0726 11.6605C16.2257 11.5688 16.2751 11.3705 16.1834 11.2175C16.0917 11.0647 15.8937 11.015 15.7403 11.1067L14.1257 12.0754C14.0289 12.1339 13.9691 12.2392 13.9691 12.3525C13.9691 12.4658 14.0289 12.5711 14.1257 12.6292L15.7403 13.598C15.8934 13.6897 16.0917 13.6403 16.1834 13.4872C16.2751 13.3345 16.226 13.1362 16.0726 13.0442L14.9195 12.3525Z" fill="white"/>
</g>
<rect x="31" width="74" height="26" rx="1" fill="url(#paint1_radial_60_59999)" fill-opacity="0.25"/>
<path d="M44.2 18.168C43.304 18.168 42.534 17.958 41.89 17.538C41.2553 17.1087 40.812 16.5207 40.56 15.774L41.4 15.284C41.5773 15.8907 41.904 16.3667 42.38 16.712C42.856 17.048 43.4673 17.216 44.214 17.216C44.942 17.216 45.5067 17.0573 45.908 16.74C46.3187 16.4133 46.524 15.984 46.524 15.452C46.524 14.9387 46.3373 14.5513 45.964 14.29C45.5907 14.0287 44.9747 13.758 44.116 13.478C43.0987 13.142 42.4267 12.8713 42.1 12.666C41.3533 12.218 40.98 11.5693 40.98 10.72C40.98 9.88933 41.2693 9.236 41.848 8.76C42.4267 8.27467 43.1407 8.032 43.99 8.032C44.7553 8.032 45.418 8.23267 45.978 8.634C46.538 9.026 46.9533 9.53 47.224 10.146L46.398 10.608C45.95 9.52533 45.1473 8.984 43.99 8.984C43.3833 8.984 42.8933 9.13333 42.52 9.432C42.1467 9.73067 41.96 10.146 41.96 10.678C41.96 11.1633 42.128 11.5273 42.464 11.77C42.8 12.0127 43.3553 12.26 44.13 12.512C44.4847 12.6333 44.7367 12.722 44.886 12.778C45.0447 12.8247 45.2687 12.9087 45.558 13.03C45.8567 13.142 46.076 13.2447 46.216 13.338C46.356 13.422 46.524 13.5433 46.72 13.702C46.9253 13.8513 47.07 14.0053 47.154 14.164C47.2473 14.3133 47.3267 14.5 47.392 14.724C47.4667 14.9387 47.504 15.172 47.504 15.424C47.504 16.2547 47.2007 16.922 46.594 17.426C45.9873 17.9207 45.1893 18.168 44.2 18.168ZM52.4451 18.168C51.3905 18.168 50.5131 17.818 49.8131 17.118C49.1131 16.4087 48.7631 15.536 48.7631 14.5C48.7631 13.464 49.1131 12.596 49.8131 11.896C50.5131 11.1867 51.3905 10.832 52.4451 10.832C53.1358 10.832 53.7565 11 54.3071 11.336C54.8578 11.6627 55.2591 12.106 55.5111 12.666L54.7551 13.1C54.5685 12.68 54.2651 12.3487 53.8451 12.106C53.4345 11.854 52.9678 11.728 52.4451 11.728C51.6705 11.728 51.0171 11.9987 50.4851 12.54C49.9531 13.072 49.6871 13.7253 49.6871 14.5C49.6871 15.2747 49.9531 15.9327 50.4851 16.474C51.0171 17.006 51.6705 17.272 52.4451 17.272C52.9678 17.272 53.4345 17.1507 53.8451 16.908C54.2558 16.656 54.5778 16.32 54.8111 15.9L55.5811 16.348C55.2918 16.908 54.8671 17.3513 54.3071 17.678C53.7471 18.0047 53.1265 18.168 52.4451 18.168ZM57.8317 12.162C58.2611 11.3127 58.9984 10.888 60.0437 10.888V11.784C59.4091 11.784 58.8817 11.9707 58.4617 12.344C58.0417 12.7173 57.8317 13.3053 57.8317 14.108V18H56.9077V11H57.8317V12.162ZM64.1203 10.832C65.1563 10.832 65.9916 11.2007 66.6263 11.938C67.2703 12.666 67.5923 13.5293 67.5923 14.528C67.5923 14.6307 67.5829 14.7753 67.5643 14.962H61.4183C61.5116 15.6713 61.8103 16.236 62.3143 16.656C62.8276 17.0667 63.4576 17.272 64.2043 17.272C64.7363 17.272 65.1936 17.1647 65.5763 16.95C65.9683 16.726 66.2623 16.4367 66.4583 16.082L67.2703 16.558C66.9623 17.0527 66.5423 17.4447 66.0103 17.734C65.4783 18.0233 64.8716 18.168 64.1903 18.168C63.0889 18.168 62.1929 17.8227 61.5023 17.132C60.8116 16.4413 60.4663 15.564 60.4663 14.5C60.4663 13.4547 60.8069 12.582 61.4883 11.882C62.1696 11.182 63.0469 10.832 64.1203 10.832ZM64.1203 11.728C63.3923 11.728 62.7809 11.9473 62.2863 12.386C61.8009 12.8153 61.5116 13.3753 61.4183 14.066H66.6403C66.5469 13.3287 66.2623 12.7547 65.7863 12.344C65.3103 11.9333 64.7549 11.728 64.1203 11.728ZM75.082 11H76.006V18H75.082V16.628C74.438 17.6547 73.4954 18.168 72.254 18.168C71.2554 18.168 70.4014 17.8133 69.692 17.104C68.992 16.3947 68.642 15.5267 68.642 14.5C68.642 13.4733 68.992 12.6053 69.692 11.896C70.4014 11.1867 71.2554 10.832 72.254 10.832C73.4954 10.832 74.438 11.3453 75.082 12.372V11ZM70.364 16.474C70.896 17.006 71.5494 17.272 72.324 17.272C73.0987 17.272 73.752 17.006 74.284 16.474C74.816 15.9327 75.082 15.2747 75.082 14.5C75.082 13.7253 74.816 13.072 74.284 12.54C73.752 11.9987 73.0987 11.728 72.324 11.728C71.5494 11.728 70.896 11.9987 70.364 12.54C69.832 13.072 69.566 13.7253 69.566 14.5C69.566 15.2747 69.832 15.9327 70.364 16.474ZM85.4244 10.832C86.2084 10.832 86.8384 11.084 87.3144 11.588C87.7998 12.092 88.0424 12.7733 88.0424 13.632V18H87.1184V13.632C87.1184 13.0253 86.9598 12.5587 86.6424 12.232C86.3344 11.896 85.9238 11.728 85.4104 11.728C84.8318 11.728 84.3604 11.924 83.9964 12.316C83.6418 12.6987 83.4644 13.3007 83.4644 14.122V18H82.5404V13.632C82.5404 13.016 82.3911 12.5447 82.0924 12.218C81.8031 11.8913 81.4064 11.728 80.9024 11.728C80.3424 11.728 79.8664 11.924 79.4744 12.316C79.0824 12.708 78.8864 13.31 78.8864 14.122V18H77.9624V11H78.8864V12.022C79.3904 11.2287 80.1044 10.832 81.0284 10.832C82.0364 10.832 82.7458 11.2567 83.1564 12.106C83.6604 11.2567 84.4164 10.832 85.4244 10.832ZM90.5576 12.834C90.5576 13.1513 90.6976 13.4033 90.9776 13.59C91.2576 13.7767 91.5983 13.9213 91.9996 14.024C92.4009 14.1267 92.8023 14.2433 93.2036 14.374C93.6049 14.4953 93.9456 14.7053 94.2256 15.004C94.5056 15.2933 94.6456 15.676 94.6456 16.152C94.6456 16.7493 94.4076 17.2347 93.9316 17.608C93.4649 17.9813 92.8583 18.168 92.1116 18.168C91.4396 18.168 90.8656 18.0187 90.3896 17.72C89.9229 17.4213 89.5963 17.034 89.4096 16.558L90.1936 16.096C90.3243 16.46 90.5576 16.7493 90.8936 16.964C91.2389 17.1693 91.6449 17.272 92.1116 17.272C92.5689 17.272 92.9516 17.1833 93.2596 17.006C93.5676 16.8193 93.7216 16.5347 93.7216 16.152C93.7216 15.8347 93.5816 15.5827 93.3016 15.396C93.0216 15.2093 92.6809 15.0647 92.2796 14.962C91.8783 14.8593 91.4769 14.7473 91.0756 14.626C90.6743 14.4953 90.3336 14.2853 90.0536 13.996C89.7736 13.6973 89.6336 13.31 89.6336 12.834C89.6336 12.2647 89.8576 11.7887 90.3056 11.406C90.7629 11.0233 91.3369 10.832 92.0276 10.832C92.5969 10.832 93.0963 10.9627 93.5256 11.224C93.9549 11.476 94.2723 11.8213 94.4776 12.26L93.7076 12.708C93.4369 12.0547 92.8769 11.728 92.0276 11.728C91.6263 11.728 91.2809 11.826 90.9916 12.022C90.7023 12.2087 90.5576 12.4793 90.5576 12.834Z" fill="white"/>
<defs>
<radialGradient id="paint0_radial_60_59999" cx="0" cy="0" r="1" gradientUnits="userSpaceOnUse" gradientTransform="translate(13 13) rotate(90) scale(25)">
<stop stop-color="#DF5F61"/>
<stop offset="1" stop-color="#DF5F61" stop-opacity="0"/>
</radialGradient>
<radialGradient id="paint1_radial_60_59999" cx="0" cy="0" r="1" gradientUnits="userSpaceOnUse" gradientTransform="translate(68 13) rotate(90) scale(25 71.1538)">
<stop stop-color="white"/>
<stop offset="1" stop-color="white" stop-opacity="0"/>
</radialGradient>
<clipPath id="clip0_60_59999">
<rect width="15.5" height="15.5" fill="white" transform="translate(5.25 5.25)"/>
</clipPath>
</defs>
</svg>
