<svg width="24" height="24" viewBox="0 0 24 24" fill="none" xmlns="http://www.w3.org/2000/svg">
<g opacity="0.2">
<path fill-rule="evenodd" clip-rule="evenodd" d="M13.92 3.60001C10.3412 3.60001 7.44001 6.50121 7.44001 10.08C7.44001 11.8934 8.18334 13.5311 9.385 14.7086C10.555 15.8551 12.154 16.56 13.92 16.56C17.4988 16.56 20.4 13.6588 20.4 10.08C20.4 6.50121 17.4988 3.60001 13.92 3.60001ZM5.04001 10.08C5.04001 5.17572 9.01572 1.20001 13.92 1.20001C18.8243 1.20001 22.8 5.17572 22.8 10.08C22.8 14.9843 18.8243 18.96 13.92 18.96C11.9259 18.96 10.0839 18.3016 8.60181 17.1919L3.24078 22.4562L1.55923 20.7438L6.89148 15.5077C5.73146 14.0074 5.04001 12.1237 5.04001 10.08Z" fill="white"/>
</g>
</svg>
