<svg width="28" height="28" viewBox="0 0 28 28" fill="none" xmlns="http://www.w3.org/2000/svg">
<path fill-rule="evenodd" clip-rule="evenodd" d="M11.6668 21C6.51217 21 2.3335 16.8213 2.3335 11.6667C2.3335 6.51202 6.51217 2.33334 11.6668 2.33334C16.8215 2.33334 21.0002 6.51202 21.0002 11.6667C21.0002 13.8235 20.2686 15.8095 19.04 17.3899L25.3251 23.6751L23.6752 25.325L17.3901 19.0398C15.8096 20.2684 13.8237 21 11.6668 21ZM18.6668 11.6667C18.6668 15.5327 15.5328 18.6667 11.6668 18.6667C7.80084 18.6667 4.66683 15.5327 4.66683 11.6667C4.66683 7.80068 7.80084 4.66668 11.6668 4.66668C15.5328 4.66668 18.6668 7.80068 18.6668 11.6667Z" fill="white"/>
</svg>
