<svg width="20" height="20" viewBox="0 0 20 20" fill="none" xmlns="http://www.w3.org/2000/svg">
<g opacity="0.5">
<path fill-rule="evenodd" clip-rule="evenodd" d="M8.33342 15C4.65152 15 1.66675 12.0153 1.66675 8.33335C1.66675 4.65146 4.65152 1.66669 8.33342 1.66669C12.0153 1.66669 15.0001 4.65146 15.0001 8.33335C15.0001 9.87394 14.4775 11.2925 13.6 12.4214L18.0893 16.9108L16.9108 18.0893L12.4215 13.5999C11.2926 14.4775 9.87401 15 8.33342 15ZM13.3334 8.33335C13.3334 11.0948 11.0948 13.3334 8.33341 13.3334C5.57199 13.3334 3.33341 11.0948 3.33341 8.33335C3.33341 5.57193 5.57199 3.33335 8.33341 3.33335C11.0948 3.33335 13.3334 5.57193 13.3334 8.33335Z" fill="white"/>
</g>
</svg>
