<svg width="24" height="24" viewBox="0 0 24 24" fill="none" xmlns="http://www.w3.org/2000/svg">
<g opacity="0.8" clip-path="url(#clip0)">
<path d="M11.9999 10.9727L11.0242 12.0133C9.21197 13.9463 8.21387 16.4701 8.21387 19.1199V20.2123C8.21387 22.2999 9.91229 23.9984 11.9999 23.9984C14.0875 23.9984 15.7859 22.2999 15.7859 20.2123V19.1199C15.7859 16.4701 14.7878 13.9463 12.9755 12.0133L11.9999 10.9727ZM9.62013 20.2123V19.1199C9.62013 17.2278 10.2091 15.4102 11.2968 13.893V22.486C10.3267 22.1854 9.62013 21.2799 9.62013 20.2123ZM14.3796 20.2123C14.3796 21.2799 13.673 22.1854 12.7031 22.486V13.893C13.7906 15.4102 14.3796 17.2278 14.3796 19.1199V20.2123Z" fill="white"/>
<path d="M10.3178 10.3177L10.2717 8.89196C10.1864 6.24362 9.10753 3.75324 7.23385 1.87961L6.46139 1.10715C4.98519 -0.36905 2.5833 -0.36905 1.10715 1.10715C-0.36905 2.58335 -0.36905 4.98524 1.10715 6.46139L1.87961 7.23385C3.75324 9.10753 6.24362 10.1864 8.89201 10.2717L10.3178 10.3177ZM5.46704 2.1015L6.23949 2.87396C7.57742 4.21189 8.44616 5.91359 8.74989 7.75549L2.67316 1.67881C3.01153 1.49971 3.39054 1.40451 3.78427 1.40451C4.41995 1.40451 5.01753 1.65204 5.46704 2.1015ZM2.10155 5.46704C1.65209 5.01753 1.40456 4.41995 1.40456 3.78427C1.40456 3.39054 1.49975 3.01153 1.67885 2.67316L7.75563 8.74989C5.91373 8.44616 4.21198 7.57742 2.87405 6.23945L2.10155 5.46704Z" fill="white"/>
<path d="M22.8929 1.10713C21.4169 -0.369021 19.0149 -0.369068 17.5387 1.10713L16.7662 1.87964C14.8925 3.75332 13.8137 6.2437 13.7284 8.89199L13.6824 10.3177L15.1081 10.2718C17.7565 10.1864 20.2468 9.10756 22.1204 7.23392L22.8929 6.46142C24.3691 4.98522 24.3691 2.58333 22.8929 1.10713ZM17.7606 2.87399L18.5331 2.10148C18.9826 1.65203 19.5802 1.40449 20.2159 1.40449C20.6095 1.40449 20.9886 1.49969 21.3269 1.67879L15.2502 7.75547C15.554 5.91362 16.4227 4.21192 17.7606 2.87399ZM21.8986 5.46697L21.1261 6.23948C19.7882 7.5774 18.0865 8.44614 16.2446 8.74992L22.3213 2.67314C22.5004 3.01151 22.5956 3.39052 22.5956 3.78425C22.5956 4.41994 22.3481 5.01751 21.8986 5.46697Z" fill="white"/>
</g>
<defs>
<clipPath id="clip0">
<rect width="24" height="24" fill="white"/>
</clipPath>
</defs>
</svg>
