<svg width="105" height="26" viewBox="0 0 105 26" fill="none" xmlns="http://www.w3.org/2000/svg">
<rect width="26" height="26" rx="2" fill="url(#paint0_radial_60_59994)"/>
<rect x="6.99414" y="13.0078" width="8.49423" height="8.49423" transform="rotate(-45.0619 6.99414 13.0078)" fill="white"/>
<rect x="5.07078" y="13.0099" width="11.2143" height="11.2143" transform="rotate(-45.0619 5.07078 13.0099)" stroke="white" stroke-opacity="0.25" stroke-width="2.72005"/>
<rect x="31" width="74" height="26" rx="1" fill="url(#paint1_radial_60_59994)" fill-opacity="0.25"/>
<path d="M51.7 18.168C50.804 18.168 50.034 17.958 49.39 17.538C48.7553 17.1087 48.312 16.5207 48.06 15.774L48.9 15.284C49.0773 15.8907 49.404 16.3667 49.88 16.712C50.356 17.048 50.9673 17.216 51.714 17.216C52.442 17.216 53.0067 17.0573 53.408 16.74C53.8187 16.4133 54.024 15.984 54.024 15.452C54.024 14.9387 53.8373 14.5513 53.464 14.29C53.0907 14.0287 52.4747 13.758 51.616 13.478C50.5987 13.142 49.9267 12.8713 49.6 12.666C48.8533 12.218 48.48 11.5693 48.48 10.72C48.48 9.88933 48.7693 9.236 49.348 8.76C49.9267 8.27467 50.6407 8.032 51.49 8.032C52.2553 8.032 52.918 8.23267 53.478 8.634C54.038 9.026 54.4533 9.53 54.724 10.146L53.898 10.608C53.45 9.52533 52.6473 8.984 51.49 8.984C50.8833 8.984 50.3933 9.13333 50.02 9.432C49.6467 9.73067 49.46 10.146 49.46 10.678C49.46 11.1633 49.628 11.5273 49.964 11.77C50.3 12.0127 50.8553 12.26 51.63 12.512C51.9847 12.6333 52.2367 12.722 52.386 12.778C52.5447 12.8247 52.7687 12.9087 53.058 13.03C53.3567 13.142 53.576 13.2447 53.716 13.338C53.856 13.422 54.024 13.5433 54.22 13.702C54.4253 13.8513 54.57 14.0053 54.654 14.164C54.7473 14.3133 54.8267 14.5 54.892 14.724C54.9667 14.9387 55.004 15.172 55.004 15.424C55.004 16.2547 54.7007 16.922 54.094 17.426C53.4873 17.9207 52.6893 18.168 51.7 18.168ZM59.9171 10.832C60.9531 10.832 61.7885 11.2007 62.4231 11.938C63.0671 12.666 63.3891 13.5293 63.3891 14.528C63.3891 14.6307 63.3798 14.7753 63.3611 14.962H57.2151C57.3085 15.6713 57.6071 16.236 58.1111 16.656C58.6245 17.0667 59.2545 17.272 60.0011 17.272C60.5331 17.272 60.9905 17.1647 61.3731 16.95C61.7651 16.726 62.0591 16.4367 62.2551 16.082L63.0671 16.558C62.7591 17.0527 62.3391 17.4447 61.8071 17.734C61.2751 18.0233 60.6685 18.168 59.9871 18.168C58.8858 18.168 57.9898 17.8227 57.2991 17.132C56.6085 16.4413 56.2631 15.564 56.2631 14.5C56.2631 13.4547 56.6038 12.582 57.2851 11.882C57.9665 11.182 58.8438 10.832 59.9171 10.832ZM59.9171 11.728C59.1891 11.728 58.5778 11.9473 58.0831 12.386C57.5978 12.8153 57.3085 13.3753 57.2151 14.066H62.4371C62.3438 13.3287 62.0591 12.7547 61.5831 12.344C61.1071 11.9333 60.5518 11.728 59.9171 11.728ZM65.7829 12.162C66.2122 11.3127 66.9496 10.888 67.9949 10.888V11.784C67.3602 11.784 66.8329 11.9707 66.4129 12.344C65.9929 12.7173 65.7829 13.3053 65.7829 14.108V18H64.8589V11H65.7829V12.162ZM74.3013 11H75.2812L72.4113 18H71.2913L68.4213 11H69.4013L71.8513 17.034L74.3013 11ZM79.3585 10.832C80.3945 10.832 81.2299 11.2007 81.8645 11.938C82.5085 12.666 82.8305 13.5293 82.8305 14.528C82.8305 14.6307 82.8212 14.7753 82.8025 14.962H76.6565C76.7499 15.6713 77.0485 16.236 77.5525 16.656C78.0659 17.0667 78.6959 17.272 79.4425 17.272C79.9745 17.272 80.4319 17.1647 80.8145 16.95C81.2065 16.726 81.5005 16.4367 81.6965 16.082L82.5085 16.558C82.2005 17.0527 81.7805 17.4447 81.2485 17.734C80.7165 18.0233 80.1099 18.168 79.4285 18.168C78.3272 18.168 77.4312 17.8227 76.7405 17.132C76.0499 16.4413 75.7045 15.564 75.7045 14.5C75.7045 13.4547 76.0452 12.582 76.7265 11.882C77.4079 11.182 78.2852 10.832 79.3585 10.832ZM79.3585 11.728C78.6305 11.728 78.0192 11.9473 77.5245 12.386C77.0392 12.8153 76.7499 13.3753 76.6565 14.066H81.8785C81.7852 13.3287 81.5005 12.7547 81.0245 12.344C80.5485 11.9333 79.9932 11.728 79.3585 11.728ZM85.2243 12.162C85.6536 11.3127 86.391 10.888 87.4363 10.888V11.784C86.8016 11.784 86.2743 11.9707 85.8543 12.344C85.4343 12.7173 85.2243 13.3053 85.2243 14.108V18H84.3003V11H85.2243V12.162Z" fill="white"/>
<defs>
<radialGradient id="paint0_radial_60_59994" cx="0" cy="0" r="1" gradientUnits="userSpaceOnUse" gradientTransform="translate(13 13) rotate(90) scale(25)">
<stop stop-color="#5FD8DF"/>
<stop offset="1" stop-color="#5FD8DF" stop-opacity="0"/>
</radialGradient>
<radialGradient id="paint1_radial_60_59994" cx="0" cy="0" r="1" gradientUnits="userSpaceOnUse" gradientTransform="translate(68 13) rotate(90) scale(25 71.1538)">
<stop stop-color="white"/>
<stop offset="1" stop-color="white" stop-opacity="0"/>
</radialGradient>
</defs>
</svg>
