<svg width="24" height="22" viewBox="0 0 24 22" fill="none" xmlns="http://www.w3.org/2000/svg">
<path fill-rule="evenodd" clip-rule="evenodd" d="M6 4.8V4.2C6 2.21177 7.61178 0.599998 9.6 0.599998H14.4C16.3882 0.599998 18 2.21177 18 4.2V4.8H21.6C22.9255 4.8 24 5.87452 24 7.2V19.2C24 20.5255 22.9255 21.6 21.6 21.6H2.4C1.07452 21.6 0 20.5255 0 19.2V7.2C0 5.87452 1.07452 4.8 2.4 4.8H6ZM8.4 4.2C8.4 3.53726 8.93726 3 9.6 3H14.4C15.0627 3 15.6 3.53726 15.6 4.2V4.8H8.4V4.2ZM12 12C12.9941 12 13.8 11.1941 13.8 10.2C13.8 9.20588 12.9941 8.4 12 8.4C11.0059 8.4 10.2 9.20588 10.2 10.2C10.2 11.1941 11.0059 12 12 12Z" fill="white"/>
</svg>
