<svg width="24" height="24" viewBox="0 0 24 24" fill="none" xmlns="http://www.w3.org/2000/svg">
<g clip-path="url(#clip0)">
<path d="M11.9999 10.9736L11.0243 12.0142C9.21203 13.9472 8.21393 16.4711 8.21393 19.1208V20.2133C8.21393 22.3009 9.91235 23.9993 11.9999 23.9993C14.0875 23.9993 15.786 22.3009 15.786 20.2133V19.1208C15.786 16.4711 14.7879 13.9473 12.9755 12.0142L11.9999 10.9736ZM9.62019 20.2133V19.1208C9.62019 17.2287 10.2092 15.4111 11.2968 13.8939V22.4869C10.3268 22.1863 9.62019 21.2808 9.62019 20.2133ZM14.3797 20.2133C14.3797 21.2808 13.6731 22.1863 12.7031 22.4869V13.894C13.7907 15.4111 14.3797 17.2288 14.3797 19.1208V20.2133Z" fill="white"/>
<path d="M10.3177 10.3183L10.2717 8.89254C10.1863 6.2442 9.10746 3.75382 7.23379 1.88019L6.46133 1.10773C4.98513 -0.36847 2.58324 -0.36847 1.10709 1.10773C-0.369111 2.58393 -0.369111 4.98582 1.10709 6.46197L1.87955 7.23443C3.75318 9.10811 6.24356 10.187 8.89194 10.2723L10.3177 10.3183ZM5.46698 2.10208L6.23943 2.87454C7.57736 4.21247 8.44609 5.91417 8.74983 7.75607L2.6731 1.67939C3.01147 1.50029 3.39048 1.40509 3.78421 1.40509C4.41989 1.40509 5.01747 1.65262 5.46698 2.10208ZM2.10149 5.46762C1.65203 5.01811 1.4045 4.42053 1.4045 3.78485C1.4045 3.39112 1.49969 3.01211 1.67879 2.67374L7.75557 8.75047C5.91367 8.44674 4.21192 7.578 2.87399 6.24003L2.10149 5.46762Z" fill="white"/>
<path d="M22.8929 1.10773C21.4168 -0.368426 19.0148 -0.368473 17.5386 1.10773L16.7661 1.88023C14.8925 3.75391 13.8136 6.24429 13.7283 8.89258L13.6823 10.3183L15.108 10.2724C17.7564 10.187 20.2468 9.10815 22.1204 7.23452L22.8929 6.46201C24.3691 4.98581 24.3691 2.58393 22.8929 1.10773ZM17.7605 2.87458L18.533 2.10208C18.9825 1.65262 19.5802 1.40509 20.2158 1.40509C20.6095 1.40509 20.9885 1.50028 21.3269 1.67938L15.2501 7.75607C15.5539 5.91422 16.4226 4.21251 17.7605 2.87458ZM21.8985 5.46757L21.126 6.24007C19.7881 7.578 18.0864 8.44673 16.2445 8.75051L22.3213 2.67374C22.5004 3.01211 22.5955 3.39112 22.5955 3.78485C22.5955 4.42053 22.348 5.01811 21.8985 5.46757Z" fill="white"/>
</g>
<defs>
<clipPath id="clip0">
<rect width="24" height="24" fill="white"/>
</clipPath>
</defs>
</svg>
