<svg width="27" height="31" viewBox="0 0 27 31" fill="none" xmlns="http://www.w3.org/2000/svg">
<g opacity="0.3">
<g clip-path="url(#clip0_2364_3814)">
<path d="M24.0812 6.36267C19.5751 6.36267 16.1231 5.06726 13.2039 2.21094C10.285 5.06726 6.83314 6.36267 2.32743 6.36267C2.32743 13.8004 0.79785 24.4556 13.2039 28.7824C25.6107 24.4555 24.0812 13.8004 24.0812 6.36267Z" fill="white"/>
</g>
<path d="M13.2084 0.649778C16.541 3.76268 20.4596 5.22392 25.4345 5.30939C25.439 6.01548 25.4526 6.74006 25.4664 7.47828C25.5369 11.2292 25.6139 15.3326 24.5333 19.1551C23.2197 23.8014 20.189 28.0224 13.2084 30.5021C6.22829 28.0225 3.19785 23.8015 1.88439 19.1551C0.803859 15.3328 0.880926 11.2294 0.951373 7.47854C0.96524 6.74022 0.97885 6.01556 0.983324 5.30939C5.95778 5.22391 9.87623 3.76268 13.2084 0.649778Z" stroke="white" stroke-width="0.939394"/>
</g>
<defs>
<clipPath id="clip0_2364_3814">
<rect width="26.4074" height="26.5714" fill="white" transform="translate(0 2.21094)"/>
</clipPath>
</defs>
</svg>
