<svg width="46" height="54" viewBox="0 0 46 54" fill="none" xmlns="http://www.w3.org/2000/svg">
<g clip-path="url(#clip0_2364_5791)">
<path d="M41.9472 11.0875C34.0978 11.0875 28.0846 8.831 22.9995 3.85547C17.9151 8.831 11.9021 11.0875 4.05347 11.0875C4.05347 24.0436 1.38905 42.6043 22.9995 50.1412C44.6115 42.6041 41.9472 24.0436 41.9472 11.0875Z" fill="#F04E27"/>
</g>
<path d="M23.0079 1.13187C28.813 6.55435 35.639 9.09973 44.3049 9.24862C44.3127 10.4786 44.3364 11.7407 44.3606 13.0267C44.4833 19.5605 44.6175 26.7085 42.735 33.3669C40.4468 41.4605 35.1676 48.8132 23.0078 53.1326C10.849 48.8133 5.57014 41.4607 3.28218 33.367C1.39996 26.7087 1.5342 19.5609 1.65692 13.0271C1.68107 11.741 1.70478 10.4787 1.71257 9.24862C10.3778 9.09972 17.2034 6.55434 23.0079 1.13187Z" stroke="#F04E27" stroke-width="1.63636"/>
<defs>
<clipPath id="clip0_2364_5791">
<rect width="46" height="46.2857" fill="white" transform="translate(0 3.85547)"/>
</clipPath>
</defs>
</svg>
