<svg version="1.2" xmlns="http://www.w3.org/2000/svg" viewBox="0 0 60 60" width="60" height="60">
	<title>shoes-svg</title>
	<style>
		.s0 { fill: #ffffff } 
	</style>
	<g id="Layer" style="opacity: .2">
		<path id="Layer" fill-rule="evenodd" class="s0" d="m15 17.7c1.2 1 3.6 0.8 5.2-0.2 1.7-1.2 4.7-2.5 4.7-2.5-0.4-1.3-1-4.2 1.4-2.5 1.2 1.1 5.7 4.4 5.7 4.4 0 0 0.9 0.2 1.5 0.5 1.8 0.7-0.3 0.8 2.9 1.6 1.2 0.3 1.9 1.4 3.9 2.3 2 0.8 8.3 2.4 10.2 2.4q1 0 1.6 0.4-0.2-0.1-0.5-0.1 0.3 0 0.5 0.1c1.6 1 0.8 3.7-0.5 5.3-2.4 2.5-12.5 2.9-16.6 2.5-3.9-0.5-17-0.6-22.6-0.5-9.2 0.2-3.9-5.3-3.8-5.5 0.6-4.3 1.1-6.3 2.5-9.8-0.3-0.2-0.3-1.2 0.9-1.1 1 0 1.9 1.6 3 2.7zm-5.9 9.3c-0.8 1.9-2.3 3.4 3.3 3.2 4.5-0.1 18.3 0 22.8 0.5 2.5 0.3 12.5 0.1 15.2-1.9-5.6 2.2-19.4 0-24.1-0.9-6.1-1.2-11.3-0.9-17.2-0.9zm43-2.9q0 0 0 0c0.2 0 0.2 0 0 0z"/>
	</g>
</svg>