<svg width="24" height="24" viewBox="0 0 24 24" fill="none" xmlns="http://www.w3.org/2000/svg">
<path d="M20 21.9995C20.5523 21.9995 21 21.5518 21 20.9995C21 20.4472 20.5523 19.9995 20 19.9995C19.4477 19.9995 19 20.4472 19 20.9995C19 21.5518 19.4477 21.9995 20 21.9995Z" stroke="white" stroke-width="2" stroke-linecap="round" stroke-linejoin="round"/>
<path d="M9 21.9995C9.55228 21.9995 10 21.5518 10 20.9995C10 20.4472 9.55228 19.9995 9 19.9995C8.44772 19.9995 8 20.4472 8 20.9995C8 21.5518 8.44772 21.9995 9 21.9995Z" stroke="white" stroke-width="2" stroke-linecap="round" stroke-linejoin="round"/>
<path d="M1 0.999512H5L7.68 14.3895C7.77144 14.8499 8.02191 15.2635 8.38755 15.5578C8.75318 15.8521 9.2107 16.0085 9.68 15.9995H19.4C19.8693 16.0085 20.3268 15.8521 20.6925 15.5578C21.0581 15.2635 21.3086 14.8499 21.4 14.3895L23 5.99951H6" stroke="white" stroke-width="2" stroke-linecap="round" stroke-linejoin="round"/>
</svg>
