<svg width="14" height="24" viewBox="0 0 14 24" fill="none" xmlns="http://www.w3.org/2000/svg">
<path d="M2.82786 16.1116C3.49104 15.9642 4.54721 15.9151 5.97182 15.9151C7.39642 15.9151 9.82807 16.1607 10.0983 15.1537C10.3684 14.0238 10.7369 8.86576 10.7614 7.63766C10.7614 6.72886 10.4667 5.96743 8.74734 5.96743C6.92974 5.96743 6.34025 6.94992 6.26656 7.63766C6.242 7.85871 6.16831 8.74295 6.07006 9.82369C5.35776 9.9465 3.93316 9.97106 2.6068 9.89737C2.04187 9.87281 1.55063 10.2904 1.50151 10.8799C1.47694 11.4448 1.8945 11.936 2.48399 11.9852C2.53312 11.9852 3.26998 12.0343 4.15422 12.0343C4.35071 12.0343 5.55426 11.9852 5.87357 11.9606C5.82444 12.3781 5.79988 12.8203 5.75076 13.2133C2.31206 13.2869 0.912015 13.6063 0.39621 14.7361C0.0277784 15.5467 0.00321612 18.0766 0.347086 22.2767C0.39621 22.989 0.912015 23.5048 1.72257 23.5048C2.53312 23.5048 3.09805 22.7925 3.04892 22.0556C2.85242 19.8205 2.75417 17.1678 2.82786 16.1116Z" fill="white"/>
<path d="M11.359 2.93279C11.4444 1.48377 10.3389 0.239912 8.88987 0.154556C7.44085 0.0692004 6.197 1.17467 6.11164 2.62369C6.02629 4.07271 7.13175 5.31656 8.58077 5.40192C10.0298 5.48727 11.2736 4.38181 11.359 2.93279Z" fill="white"/>
<path d="M12.9229 6.4341C12.358 6.36042 11.8422 6.77797 11.7685 7.36747L10.7614 16.6765H4.79284C4.22791 16.6765 3.76123 17.1432 3.76123 17.7081C3.76123 18.2731 4.22791 18.7397 4.79284 18.7397H11.6948C12.2352 18.7397 12.6773 18.3467 12.7264 17.8064L13.8317 7.56396C13.9054 6.99903 13.4878 6.48323 12.9229 6.4341Z" fill="white"/>
</svg>
