<svg width="40" height="40" viewBox="0 0 40 40" fill="none" xmlns="http://www.w3.org/2000/svg">
<g clip-path="url(#clip0_80_1474)">
<path d="M8.90363 23.3953C8.90363 22.4135 8.5365 21.3344 7.97528 20.4875L5.3642 19.1094L2.54132 20.7631C2.00513 20.9801 1.65723 21.6265 1.65723 22.5829C1.65723 24.1805 2.6283 26.0363 3.82672 26.7281C4.3913 27.054 4.90582 27.0632 5.29156 26.8145C5.29156 26.8145 5.29156 26.8145 5.29126 26.8148L8.06317 25.1967L8.05737 25.1842C8.56885 24.9501 8.90363 24.3251 8.90363 23.3953Z" fill="#CECECE"/>
<path d="M23.6246 31.8381C23.6246 30.8884 23.2813 29.8475 22.7509 29.014C22.7509 29.014 20.1188 27.5516 20.091 27.5657L20.0852 27.5522L17.2623 29.206C17.2626 29.2057 17.2632 29.2057 17.2635 29.2057C16.7267 29.4221 16.3779 30.0687 16.3779 31.0258C16.3779 32.6234 17.3493 34.4791 18.5477 35.171C19.1123 35.4969 19.6265 35.506 20.0126 35.2573L22.7839 33.6396L22.7784 33.6271C23.2899 33.393 23.6246 32.768 23.6246 31.8381Z" fill="#CECECE"/>
<path d="M39.997 23.6696C39.96 22.7498 39.2636 21.8639 38.1348 21.8639L17.3053 9.83784L15.7675 8.06233C12.6297 4.43928 7.36207 3.55275 3.21107 5.94929C1.05775 7.19258 -0.068353 9.45515 0.00214264 11.7223V13.6599L0.00610992 13.6611C0.0442569 15.082 0.546881 16.5062 1.56708 17.6845L2.76215 19.0642C3.19672 19.5662 3.71247 19.9923 4.28742 20.324L23.8141 31.5978C24.0985 31.762 24.4214 31.8486 24.7498 31.8486C28.97 31.8486 33.1155 30.7378 36.7703 28.6278L39.0653 27.303C39.7266 26.921 40.0086 26.2871 39.9924 25.6646L39.9985 25.6664V23.6702L39.997 23.6696Z" fill="#2E373D"/>
<path d="M5.99622 25.088C5.99622 26.6856 5.02484 27.4198 3.82672 26.728C2.6286 26.0365 1.65723 24.1804 1.65723 22.5828C1.65723 20.9852 2.6286 20.2509 3.82672 20.9428C5.02484 21.6346 5.99622 23.4904 5.99622 25.088Z" fill="#EDEDED"/>
<path d="M4.89227 24.4474C4.89227 25.233 4.41467 25.594 3.82568 25.2537C3.23639 24.9137 2.75879 24.0013 2.75879 23.2157C2.75879 22.4302 3.23639 22.0692 3.82568 22.4092C4.41467 22.7494 4.89227 23.6619 4.89227 24.4474Z" fill="#CECECE"/>
<path d="M4.4043 24.1645C4.4043 24.5905 4.1452 24.7864 3.82568 24.6018C3.50616 24.4175 3.24707 23.9225 3.24707 23.4964C3.24707 23.0704 3.50616 22.8748 3.82568 23.0591C4.1452 23.2437 4.4043 23.7384 4.4043 24.1645Z" fill="#627681"/>
<path d="M20.7172 33.5306C20.7172 35.1282 19.7458 35.8624 18.5477 35.1709C17.3493 34.4791 16.3779 32.6233 16.3779 31.0254C16.3779 29.4278 17.3493 28.6936 18.5477 29.3854C19.7458 30.0772 20.7172 31.933 20.7172 33.5306Z" fill="#EDEDED"/>
<path d="M19.6149 32.8954C19.6149 33.681 19.1373 34.042 18.548 33.7017C17.959 33.3617 17.4814 32.4493 17.4814 31.6637C17.4814 30.8782 17.959 30.5172 18.548 30.8572C19.1373 31.1974 19.6149 32.1099 19.6149 32.8954Z" fill="#CECECE"/>
<path d="M19.1266 32.6122C19.1266 33.0382 18.8676 33.2342 18.5483 33.0498C18.2288 32.8652 17.9697 32.3702 17.9697 31.9442C17.9697 31.5182 18.2288 31.3225 18.5483 31.5069C18.8679 31.6915 19.1266 32.1862 19.1266 32.6122Z" fill="#627681"/>
<path d="M39.9974 23.6701C40.0228 24.3015 39.7368 24.9488 39.0657 25.3361L36.7711 26.6608C33.1163 28.7711 28.9708 29.882 24.7506 29.882C24.4222 29.882 24.0993 29.7953 23.8149 29.6311L4.28821 18.3573C3.71326 18.0253 3.19751 17.5995 2.76294 17.0975L1.56787 15.7175C0.538513 14.5292 0.032837 13.0897 0.00292969 11.6562V13.6603L0.00689697 13.6616C0.045044 15.0828 0.547669 16.507 1.56787 17.685L2.76294 19.065C3.19751 19.5667 3.71326 19.9927 4.28821 20.3248L23.8149 31.5983C24.0993 31.7628 24.4222 31.8491 24.7506 31.8491C28.9708 31.8491 33.1163 30.7383 36.7711 28.6283L39.066 27.3035C39.7274 26.9218 40.0093 26.2876 39.9932 25.665L39.9993 25.6669V23.6707L39.9974 23.6701Z" fill="#E7934A"/>
<path d="M15.7681 8.06433C12.6303 4.44097 7.36266 3.55444 3.21166 5.95098C-0.282299 7.9682 -1.07362 12.6691 1.56768 15.7187L2.76274 17.0988C2.98705 17.3582 3.23485 17.5947 3.49944 17.811L17.3056 9.83984L15.7681 8.06433Z" fill="#525E65"/>
<path d="M24.7511 29.8835C28.9711 29.8835 33.1169 28.7726 36.7714 26.6627L39.0663 25.3376C40.7145 24.386 40.0395 21.8662 38.1361 21.8662L24.3428 29.8295C24.4767 29.8597 24.6125 29.8835 24.7511 29.8835Z" fill="#525E65"/>
</g>
<defs>
<clipPath id="clip0_80_1474">
<rect width="40.0001" height="40" fill="white"/>
</clipPath>
</defs>
</svg>
