<svg width="18" height="18" viewBox="0 0 18 18" fill="none" xmlns="http://www.w3.org/2000/svg">
<path d="M9 0.5625C4.96793 0.5625 1.6875 3.84293 1.6875 7.875V13.3182L4.57031 14.4717L5.16375 17.4375H6.75V15.1875H7.875V17.4375H8.4375V15.1875H9.5625V17.4375H10.125V15.1875H11.25V17.4375H12.8363L13.4297 14.4717L16.3125 13.3182V7.875C16.3125 3.84293 13.0321 0.5625 9 0.5625ZM5.90625 11.8125C5.51687 11.8125 5.13623 11.697 4.81247 11.4807C4.48871 11.2644 4.23637 10.9569 4.08736 10.5972C3.93835 10.2374 3.89936 9.84157 3.97533 9.45967C4.05129 9.07777 4.2388 8.72697 4.51413 8.45163C4.78947 8.1763 5.14027 7.98879 5.52217 7.91283C5.90407 7.83686 6.29992 7.87585 6.65966 8.02486C7.0194 8.17387 7.32688 8.42621 7.54321 8.74997C7.75953 9.07373 7.875 9.45437 7.875 9.84375C7.87444 10.3657 7.66684 10.8662 7.29775 11.2353C6.92866 11.6043 6.42822 11.8119 5.90625 11.8125ZM7.71715 14.0625L8.57812 11.25H9.42188L10.2829 14.0625H7.71715ZM12.0938 11.8125C11.7044 11.8125 11.3237 11.697 11 11.4807C10.6762 11.2644 10.4239 10.9569 10.2749 10.5972C10.1259 10.2374 10.0869 9.84157 10.1628 9.45967C10.2388 9.07777 10.4263 8.72697 10.7016 8.45163C10.977 8.1763 11.3278 7.98879 11.7097 7.91283C12.0916 7.83686 12.4874 7.87585 12.8472 8.02486C13.2069 8.17387 13.5144 8.42621 13.7307 8.74997C13.947 9.07373 14.0625 9.45437 14.0625 9.84375C14.0619 10.3657 13.8543 10.8662 13.4853 11.2353C13.1162 11.6043 12.6157 11.8119 12.0938 11.8125Z" fill="white"/>
</svg>
