<svg width="30" height="30" viewBox="0 0 30 30" fill="none" xmlns="http://www.w3.org/2000/svg">
<path d="M6.25 12.5V15.625H23.75V12.5C23.75 10.7775 25.1513 9.375 26.875 9.375H27.5V7.5C27.5 6.46623 26.6588 5.625 25.625 5.625H4.375C3.34123 5.625 2.5 6.46623 2.5 7.5V9.375H3.12502C4.84873 9.375 6.25 10.7775 6.25 12.5Z" fill="white"/>
<path d="M28.125 10.625H26.875C25.8412 10.625 25 11.4662 25 12.5V16.25C25 16.595 24.72 16.875 24.375 16.875H5.625C5.28 16.875 4.99998 16.595 4.99998 16.25V12.5C4.99998 11.4662 4.15875 10.625 3.12498 10.625H1.875C0.84123 10.625 0 11.4662 0 12.5V20C0 21.0338 0.84123 21.875 1.875 21.875H2.50002V23.75C2.50002 24.095 2.78004 24.375 3.12504 24.375H6.87504C7.22004 24.375 7.50006 24.095 7.50006 23.75V21.875H22.5001V23.75C22.5001 24.095 22.7801 24.375 23.1251 24.375H26.8751C27.2201 24.375 27.5001 24.095 27.5001 23.75V21.875H28.125C29.1588 21.875 30 21.0338 30 20V12.5C30 11.4663 29.1588 10.625 28.125 10.625Z" fill="white"/>
</svg>
