<svg width="24" height="24" viewBox="0 0 24 24" fill="none" xmlns="http://www.w3.org/2000/svg">
<path d="M13.62 2.08C13.4374 2.15502 13.2811 2.28242 13.1707 2.44614C13.0604 2.60986 13.001 2.80257 13 3L13 17C13 17.2652 13.1054 17.5196 13.2929 17.7071C13.4804 17.8946 13.7348 18 14 18C14.2652 18 14.5196 17.8946 14.7071 17.7071C14.8946 17.5196 15 17.2652 15 17L15 5.41L17.29 7.71C17.383 7.80373 17.4936 7.87812 17.6154 7.92889C17.7373 7.97966 17.868 8.0058 18 8.0058C18.132 8.0058 18.2627 7.97966 18.3846 7.92889C18.5064 7.87812 18.617 7.80373 18.71 7.71C18.8037 7.61704 18.8781 7.50644 18.9289 7.38458C18.9797 7.26272 19.0058 7.13201 19.0058 7C19.0058 6.86799 18.9797 6.73728 18.9289 6.61542C18.8781 6.49356 18.8037 6.38296 18.71 6.29L14.71 2.29C14.5694 2.15124 14.3908 2.05725 14.1968 2.01987C14.0028 1.9825 13.8021 2.00342 13.62 2.08Z" fill="white"/>
<path d="M9.29308 6.293C9.48062 6.10546 9.73497 6.0001 10.0002 6.0001C10.2654 6.0001 10.5198 6.10546 10.7073 6.293C10.8948 6.48053 11.0002 6.73489 11.0002 7.0001L11.0002 21.0001C10.9992 21.1975 10.9398 21.3902 10.8295 21.554C10.7191 21.7177 10.5628 21.8451 10.3802 21.9201C10.1981 21.9967 9.99736 22.0176 9.80337 21.9802C9.60938 21.9429 9.43081 21.8489 9.29019 21.7101L5.29019 17.7101C5.10188 17.5218 4.99609 17.2664 4.99609 17.0001C4.99609 16.7338 5.10188 16.4784 5.29019 16.2901C5.47849 16.1018 5.73388 15.996 6.00019 15.996C6.26649 15.996 6.52188 16.1018 6.71019 16.2901L9.00019 18.5901L9.00019 7.0001C9.00019 6.73489 9.10554 6.48053 9.29308 6.293Z" fill="#F04D26"/>
</svg>
