<svg width="104" height="46" viewBox="0 0 104 46" fill="none" xmlns="http://www.w3.org/2000/svg">
<rect opacity="0.3" x="0.5" y="-0.5" width="103" height="45" rx="3.5" transform="matrix(1 0 0 -1 0 45)" stroke="white"/>
<path d="M35.2662 18.2V28H33.6562V19.74H29.6662V28H28.0562V18.2H35.2662ZM41.094 20.818C42.0553 20.818 42.8767 21.1773 43.558 21.896C44.2393 22.6053 44.58 23.4733 44.58 24.5C44.58 25.536 44.2393 26.4087 43.558 27.118C42.8767 27.8273 42.0553 28.182 41.094 28.182C40.03 28.182 39.2133 27.79 38.644 27.006V30.8H37.132V21H38.644V22.008C39.2133 21.2147 40.03 20.818 41.094 20.818ZM39.274 26.11C39.694 26.53 40.2213 26.74 40.856 26.74C41.4907 26.74 42.018 26.53 42.438 26.11C42.858 25.6807 43.068 25.144 43.068 24.5C43.068 23.856 42.858 23.324 42.438 22.904C42.018 22.4747 41.4907 22.26 40.856 22.26C40.2213 22.26 39.694 22.4747 39.274 22.904C38.854 23.324 38.644 23.856 38.644 24.5C38.644 25.144 38.854 25.6807 39.274 26.11ZM49.2544 28.182C48.2277 28.182 47.355 27.8273 46.6364 27.118C45.9177 26.4087 45.5584 25.536 45.5584 24.5C45.5584 23.464 45.9177 22.5913 46.6364 21.882C47.355 21.1727 48.2277 20.818 49.2544 20.818C50.2904 20.818 51.163 21.1727 51.8724 21.882C52.591 22.5913 52.9504 23.464 52.9504 24.5C52.9504 25.536 52.591 26.4087 51.8724 27.118C51.163 27.8273 50.2904 28.182 49.2544 28.182ZM47.7004 26.082C48.1204 26.502 48.6384 26.712 49.2544 26.712C49.8704 26.712 50.3884 26.502 50.8084 26.082C51.2284 25.662 51.4384 25.1347 51.4384 24.5C51.4384 23.8653 51.2284 23.338 50.8084 22.918C50.3884 22.498 49.8704 22.288 49.2544 22.288C48.6384 22.288 48.1204 22.498 47.7004 22.918C47.2804 23.338 47.0704 23.8653 47.0704 24.5C47.0704 25.1347 47.2804 25.662 47.7004 26.082ZM57.5655 28.182C56.4922 28.182 55.6149 27.8367 54.9335 27.146C54.2615 26.446 53.9255 25.5547 53.9255 24.472C53.9255 23.2867 54.1029 22.372 54.4575 21.728C54.8122 21.0747 55.5309 20.482 56.6135 19.95C56.7909 19.866 57.0522 19.7447 57.3975 19.586C57.7522 19.4273 57.9949 19.3153 58.1255 19.25C58.2562 19.1753 58.4195 19.0727 58.6155 18.942C58.8115 18.802 58.9562 18.6573 59.0495 18.508C59.1429 18.3493 59.2175 18.1627 59.2735 17.948L60.5055 18.662C60.4682 18.8673 60.4075 19.0587 60.3235 19.236C60.2395 19.404 60.1182 19.5627 59.9595 19.712C59.8009 19.8613 59.6609 19.9827 59.5395 20.076C59.4275 20.1693 59.2362 20.2813 58.9655 20.412C58.6949 20.5427 58.4942 20.636 58.3635 20.692C58.2422 20.748 58.0089 20.846 57.6635 20.986C57.0475 21.2287 56.5949 21.4807 56.3055 21.742C56.0255 21.994 55.8295 22.3113 55.7175 22.694C56.2775 22.0593 57.0382 21.742 57.9995 21.742C58.8209 21.742 59.5349 22.036 60.1415 22.624C60.7575 23.212 61.0655 23.9727 61.0655 24.906C61.0655 25.858 60.7389 26.642 60.0855 27.258C59.4415 27.874 58.6015 28.182 57.5655 28.182ZM57.5515 26.768C58.1395 26.768 58.6202 26.5953 58.9935 26.25C59.3669 25.8953 59.5535 25.4473 59.5535 24.906C59.5535 24.3553 59.3669 23.9027 58.9935 23.548C58.6295 23.1933 58.1535 23.016 57.5655 23.016C57.0429 23.016 56.5715 23.184 56.1515 23.52C55.7315 23.8467 55.5215 24.2853 55.5215 24.836C55.5215 25.396 55.7175 25.858 56.1095 26.222C56.5015 26.586 56.9822 26.768 57.5515 26.768ZM63.4509 25.144C63.5629 25.676 63.8196 26.0867 64.2209 26.376C64.6222 26.656 65.1122 26.796 65.6909 26.796C66.4936 26.796 67.0956 26.5067 67.4969 25.928L68.7429 26.656C68.0522 27.6733 67.0302 28.182 65.6769 28.182C64.5382 28.182 63.6189 27.8367 62.9189 27.146C62.2189 26.446 61.8689 25.564 61.8689 24.5C61.8689 23.4547 62.2142 22.582 62.9049 21.882C63.5956 21.1727 64.4822 20.818 65.5649 20.818C66.5916 20.818 67.4316 21.1773 68.0849 21.896C68.7476 22.6147 69.0789 23.4873 69.0789 24.514C69.0789 24.6727 69.0602 24.8827 69.0229 25.144H63.4509ZM63.4369 23.912H67.5529C67.4502 23.3427 67.2122 22.9133 66.8389 22.624C66.4749 22.3347 66.0456 22.19 65.5509 22.19C64.9909 22.19 64.5242 22.344 64.1509 22.652C63.7776 22.96 63.5396 23.38 63.4369 23.912ZM76.0439 21V28H74.5319V22.456H72.1939V25.06C72.1939 26.1707 71.9512 26.9593 71.4659 27.426C70.9806 27.8927 70.2899 28.084 69.3939 28V26.586C69.8232 26.6607 70.1452 26.572 70.3599 26.32C70.5746 26.068 70.6819 25.6247 70.6819 24.99V21H76.0439Z" fill="white"/>
</svg>
