<svg width="20" height="20" viewBox="0 0 20 20" fill="none" xmlns="http://www.w3.org/2000/svg">
<path d="M10 0C4.47714 0 0 4.47714 0 10C0 15.5229 4.47714 20 10 20C15.5229 20 20 15.5229 20 10C20 4.47714 15.5229 0 10 0ZM14.3521 14.5127C14.225 14.7303 13.9961 14.8516 13.7611 14.8517C13.6439 14.8517 13.5252 14.8215 13.4167 14.7581C11.6197 13.7079 9.54369 13.5391 8.11824 13.5825C6.53924 13.6305 5.38129 13.9422 5.36979 13.9454C5.0058 14.0448 4.62965 13.8306 4.5298 13.4667C4.43 13.1028 4.64345 12.7269 5.00725 12.6267C5.05944 12.6123 6.3055 12.2739 8.03826 12.2167C9.05891 12.183 10.0415 12.2542 10.9583 12.4281C12.1195 12.6484 13.1788 13.035 14.1068 13.5773C14.4329 13.7679 14.5427 14.1867 14.3521 14.5127ZM15.6235 11.8723C15.4729 12.13 15.2018 12.2737 14.9233 12.2738C14.7845 12.2738 14.6439 12.2381 14.5154 12.163C12.3868 10.919 9.9277 10.7191 8.23927 10.7704C6.36887 10.8274 4.99724 11.1966 4.98363 11.2003C4.55258 11.3179 4.10694 11.0644 3.98866 10.6333C3.87044 10.2022 4.12331 9.757 4.55422 9.63826C4.61604 9.62123 6.09201 9.2203 8.14452 9.15263C9.35359 9.11278 10.5174 9.19701 11.6034 9.40302C12.9789 9.66398 14.2336 10.122 15.3328 10.7643C15.7191 10.99 15.8492 11.4861 15.6235 11.8723ZM16.405 9.47153C16.2347 9.47153 16.0622 9.42776 15.9046 9.33563C10.8441 6.37818 4.2796 8.13638 4.21389 8.15453C3.68482 8.3003 3.13788 7.98958 2.99215 7.46055C2.84638 6.93152 3.1571 6.38454 3.68613 6.23881C3.76194 6.21791 5.57238 5.72615 8.08999 5.64314C9.57311 5.59432 11.0006 5.69758 12.3327 5.95026C14.0199 6.27033 15.559 6.8321 16.9072 7.62003C17.381 7.89689 17.5406 8.50537 17.2637 8.97912C17.079 9.29527 16.7465 9.47153 16.405 9.47153Z" fill="#00D95F"/>
</svg>
