<svg width="59" height="19" viewBox="0 0 59 19" fill="none" xmlns="http://www.w3.org/2000/svg">
<path opacity="0.8" d="M5.20663 15.208C4.16129 15.208 3.26529 14.9627 2.51863 14.472C1.78263 13.9813 1.26529 13.3093 0.966625 12.456L2.24663 11.72C2.68396 13.0747 3.68129 13.752 5.23863 13.752C6.00663 13.752 6.59329 13.5973 6.99863 13.288C7.40396 12.968 7.60663 12.5467 7.60663 12.024C7.60663 11.4907 7.40396 11.0907 6.99863 10.824C6.59329 10.5573 5.91596 10.2747 4.96663 9.976C4.49729 9.82667 4.13996 9.70933 3.89463 9.624C3.64929 9.528 3.33996 9.38933 2.96663 9.208C2.60396 9.016 2.33196 8.824 2.15063 8.632C1.96929 8.42933 1.80396 8.168 1.65463 7.848C1.51596 7.528 1.44662 7.16533 1.44662 6.76C1.44662 5.78933 1.78796 5.02133 2.47063 4.456C3.15329 3.88 3.98529 3.592 4.96663 3.592C5.85196 3.592 6.61996 3.816 7.27063 4.264C7.93196 4.712 8.42796 5.304 8.75863 6.04L7.51063 6.76C7.03063 5.608 6.18263 5.032 4.96663 5.032C4.35863 5.032 3.86796 5.18133 3.49463 5.48C3.12129 5.77867 2.93463 6.184 2.93463 6.696C2.93463 7.18667 3.11063 7.56 3.46263 7.816C3.81463 8.072 4.42263 8.33867 5.28663 8.616C5.59596 8.712 5.81463 8.78133 5.94263 8.824C6.07063 8.86667 6.26796 8.94133 6.53463 9.048C6.81196 9.15467 7.01463 9.24 7.14263 9.304C7.27063 9.368 7.44129 9.45867 7.65463 9.576C7.87863 9.69333 8.04396 9.80533 8.15063 9.912C8.25729 10.0187 8.37996 10.152 8.51863 10.312C8.66796 10.4613 8.77463 10.616 8.83862 10.776C8.90263 10.936 8.95596 11.1227 8.99863 11.336C9.05196 11.5387 9.07863 11.7573 9.07863 11.992C9.07863 12.9733 8.72129 13.7573 8.00663 14.344C7.29196 14.92 6.35863 15.208 5.20663 15.208ZM14.8143 8.344H12.6863V12.68C12.6863 13.0747 12.7609 13.3573 12.9103 13.528C13.0703 13.688 13.3103 13.7733 13.6302 13.784C13.9502 13.784 14.3449 13.7733 14.8143 13.752V15C13.5983 15.16 12.7076 15.064 12.1423 14.712C11.5769 14.3493 11.2943 13.672 11.2943 12.68V8.344H9.71025V7H11.2943V5.176L12.6863 4.76V7H14.8143V8.344ZM22.68 7H24.072V15H22.68V13.624C21.9867 14.68 20.9787 15.208 19.656 15.208C18.536 15.208 17.5813 14.8027 16.792 13.992C16.0027 13.1707 15.608 12.1733 15.608 11C15.608 9.82667 16.0027 8.83467 16.792 8.024C17.5813 7.20267 18.536 6.792 19.656 6.792C20.9787 6.792 21.9867 7.32 22.68 8.376V7ZM19.832 13.864C20.6427 13.864 21.32 13.592 21.864 13.048C22.408 12.4933 22.68 11.8107 22.68 11C22.68 10.1893 22.408 9.512 21.864 8.968C21.32 8.41333 20.6427 8.136 19.832 8.136C19.032 8.136 18.36 8.41333 17.816 8.968C17.272 9.512 17 10.1893 17 11C17 11.8107 17.272 12.4933 17.816 13.048C18.36 13.592 19.032 13.864 19.832 13.864ZM27.573 8.344C28.0317 7.352 28.8637 6.856 30.069 6.856V8.312C29.3863 8.28 28.7997 8.46133 28.309 8.856C27.8183 9.25067 27.573 9.88533 27.573 10.76V15H26.181V7H27.573V8.344ZM35.9705 8.344H33.8425V12.68C33.8425 13.0747 33.9172 13.3573 34.0665 13.528C34.2265 13.688 34.4665 13.7733 34.7865 13.784C35.1065 13.784 35.5012 13.7733 35.9705 13.752V15C34.7545 15.16 33.8638 15.064 33.2985 14.712C32.7332 14.3493 32.4505 13.672 32.4505 12.68V8.344H30.8665V7H32.4505V5.176L33.8425 4.76V7H35.9705V8.344Z" fill="#1963D1"/>
<path opacity="0.8" d="M59 10L54 7.11325V12.8868L59 10ZM43 10.5H54.5V9.5H43V10.5Z" fill="#1963D1"/>
</svg>
