<svg width="91" height="90" viewBox="0 0 91 90" fill="none" xmlns="http://www.w3.org/2000/svg">
<path d="M22.12 10.8974C22.12 11.1227 21.9813 11.2354 21.704 11.2354C21.4267 11.2354 21.2793 11.1314 21.262 10.9234V10.6374L21.34 10.6894C21.392 10.6894 21.4873 10.6807 21.626 10.6634C21.782 10.646 21.886 10.6374 21.938 10.6374C22.0593 10.6374 22.12 10.724 22.12 10.8974ZM16.166 19.7114L15.412 19.6594V19.5554L16.166 19.6074V19.7114ZM22.848 23.8454C22.848 24.0534 22.7873 24.3307 22.666 24.6774C22.6313 24.764 22.5187 24.972 22.328 25.3014C22.224 25.4747 21.9813 25.8214 21.6 26.3414C21.444 26.428 21.2707 26.6187 21.08 26.9134C21.1147 26.9134 21.184 26.8614 21.288 26.7574C21.08 27.0867 20.9413 27.2514 20.872 27.2514C20.872 27.2514 20.8373 27.208 20.768 27.1214C20.0573 27.6067 19.572 27.8494 19.312 27.8494C19.3293 27.8494 19.3033 27.8147 19.234 27.7454C19.1647 27.8147 19.104 27.8494 19.052 27.8494C19.0173 27.8494 19 27.8667 19 27.9014C19.0173 27.936 19 27.9534 18.948 27.9534C18.9133 27.9534 18.896 27.9447 18.896 27.9274C18.9133 27.91 18.896 27.9014 18.844 27.9014C18.8093 27.9014 18.6967 27.9447 18.506 28.0314C18.3153 28.118 18.1767 28.1787 18.09 28.2134C17.3273 28.4214 16.2353 28.6554 14.814 28.9154C14.7793 28.9154 14.7273 28.9327 14.658 28.9674C14.606 29.002 14.554 29.0194 14.502 29.0194C14.4673 29.0194 14.06 29.0367 13.28 29.0714C12.5173 29.106 12.11 29.1234 12.058 29.1234C11.9193 29.1234 11.1913 28.9674 9.874 28.6554C9.96067 28.742 10.0993 28.8374 10.29 28.9414C10.7233 29.1667 11.0613 29.2794 11.304 29.2794C11.356 29.2794 11.3907 29.2707 11.408 29.2534C11.4427 29.236 11.486 29.2274 11.538 29.2274C11.746 29.2274 11.8847 29.3227 11.954 29.5134C11.9887 29.5134 12.032 29.496 12.084 29.4614C12.1533 29.4267 12.2053 29.4094 12.24 29.4094C12.24 29.4267 12.2313 29.444 12.214 29.4614C12.1967 29.496 12.188 29.5307 12.188 29.5654H12.318C12.3873 29.444 12.422 29.4094 12.422 29.4614L12.448 29.5654L12.682 29.5134C12.6127 29.444 12.578 29.4007 12.578 29.3834C12.734 29.366 13.2107 29.3574 14.008 29.3574C13.9907 29.3747 13.9647 29.392 13.93 29.4094C13.8953 29.444 13.8693 29.47 13.852 29.4874C13.8347 29.5047 13.8433 29.5307 13.878 29.5654C13.8953 29.548 13.956 29.5307 14.06 29.5134C14.112 29.496 14.1207 29.444 14.086 29.3574C14.1727 29.3574 14.294 29.392 14.45 29.4614C14.502 29.4614 14.528 29.4094 14.528 29.3054C14.4413 29.288 14.5887 29.2794 14.97 29.2794C15.3513 29.2794 15.958 29.1494 16.79 28.8894C17.258 28.7334 17.7433 28.5167 18.246 28.2394V28.4734C18.3153 28.5254 18.3933 28.534 18.48 28.4994C18.3933 28.5167 18.22 28.6034 17.96 28.7594C17.9773 28.794 18.0033 28.8114 18.038 28.8114C15.854 29.6434 14.2767 30.0594 13.306 30.0594C13.254 30.0594 13.1933 30.042 13.124 30.0074C13.072 29.9727 13.02 29.9554 12.968 29.9554C12.916 29.9554 12.812 29.9727 12.656 30.0074C12.5173 30.042 12.4307 30.0594 12.396 30.0594C12.344 30.0594 12.1533 30.0074 11.824 29.9034C11.512 29.8167 11.33 29.7734 11.278 29.7734C11.2433 29.7734 11.2173 29.782 11.2 29.7994C11.2 29.8167 11.1827 29.8254 11.148 29.8254C10.7667 29.8254 10.29 29.7214 9.718 29.5134C9.042 29.2707 8.58267 28.976 8.34 28.6294C8.37467 28.6294 8.496 28.7334 8.704 28.9414C8.808 28.9587 8.938 28.9934 9.094 29.0454C9.146 29.0627 9.26733 29.1407 9.458 29.2794C9.59667 29.4007 9.692 29.4614 9.744 29.4614C9.77867 29.4614 9.848 29.4614 9.952 29.4614C10.056 29.4614 10.1427 29.4614 10.212 29.4614C9.98667 29.3227 9.62267 29.054 9.12 28.6554C9.12 28.6034 9.11133 28.534 9.094 28.4474C8.85133 28.3087 8.60867 28.1787 8.366 28.0574C8.01933 27.832 7.794 27.6067 7.69 27.3814C7.55133 27.1387 7.57733 26.844 7.768 26.4974C7.59467 26.376 7.41267 26.2547 7.222 26.1334C6.89267 25.908 6.728 25.7174 6.728 25.5614C6.728 25.5094 6.73667 25.466 6.754 25.4314C6.77133 25.3967 6.78 25.3794 6.78 25.3794H7.014C6.97933 25.3794 7.07467 25.4314 7.3 25.5354C7.3 25.5354 7.42133 25.4487 7.664 25.2754C7.64667 25.2234 7.62067 25.1627 7.586 25.0934C7.55133 25.024 7.47333 24.9807 7.352 24.9634C7.23067 24.686 7.17 24.478 7.17 24.3394V24.1054C7.20467 24.1054 7.31733 24.0534 7.508 23.9494C7.49067 23.9147 7.42133 23.724 7.3 23.3774C7.47333 23.6374 7.60333 23.7674 7.69 23.7674C7.69 23.7674 7.78533 23.6634 7.976 23.4554C7.976 23.3687 7.95 23.23 7.898 23.0394C7.95 23.0394 8.03667 23.0827 8.158 23.1694C8.27933 23.2387 8.366 23.2734 8.418 23.2734C8.47 23.2734 8.55667 23.2214 8.678 23.1174C8.73 23.1174 8.808 23.1694 8.912 23.2734C8.94667 23.2734 9.00733 23.2387 9.094 23.1694C9.18067 23.1 9.25 23.0567 9.302 23.0394C9.31933 23.0567 9.34533 23.0827 9.38 23.1174C9.432 23.1347 9.46667 23.152 9.484 23.1694C9.38 23.3947 9.328 23.5507 9.328 23.6374C9.328 24.0187 9.44067 24.2094 9.666 24.2094C9.80467 24.2094 9.978 24.062 10.186 23.7674C10.4113 24.426 10.5673 24.7554 10.654 24.7554C10.6887 24.7554 10.6973 24.7467 10.68 24.7294C10.68 24.712 10.706 24.7034 10.758 24.7034C10.8273 24.7034 10.9833 24.8507 11.226 25.1454C11.2953 25.2667 11.408 25.414 11.564 25.5874C11.8933 25.778 12.1793 25.8734 12.422 25.8734H13.41C14.138 25.8734 14.84 25.778 15.516 25.5874C15.9147 25.4314 16.5213 25.2147 17.336 24.9374C17.492 24.92 17.7347 24.8767 18.064 24.8074C18.3413 24.7034 18.6967 24.452 19.13 24.0534C19.1647 24.0014 19.1993 23.932 19.234 23.8454C19.5287 23.62 19.702 23.3514 19.754 23.0394C19.5113 22.7447 18.948 22.554 18.064 22.4674C17.8733 22.4674 17.5787 22.45 17.18 22.4154C17.1453 22.3807 17.0673 22.32 16.946 22.2334C16.5993 22.1814 16.0533 22.0774 15.308 21.9214C15.1173 21.8867 14.814 21.7914 14.398 21.6354C13.9993 21.4794 13.7827 21.4014 13.748 21.4014C13.6267 21.4014 13.566 21.4447 13.566 21.5314V21.6094C13.4793 21.592 13.3927 21.5574 13.306 21.5054V21.5314V21.6354C13.67 21.9474 14.1987 22.2247 14.892 22.4674C16.088 22.8834 16.6947 23.0914 16.712 23.0914V23.1954C15.9147 23.0394 15.1087 22.8227 14.294 22.5454L14.138 22.3894C13.4273 22.2334 12.7513 21.8174 12.11 21.1414C12.058 20.9507 11.954 20.682 11.798 20.3354C11.6247 20.2314 11.3907 20.0494 11.096 19.7894C10.836 19.4427 10.706 18.9574 10.706 18.3334C10.706 17.12 11.1133 15.8287 11.928 14.4594C12.656 13.2807 13.982 12.1367 15.906 11.0274C16.0793 11.0274 16.322 10.984 16.634 10.8974C16.9287 10.6894 17.362 10.386 17.934 9.98737C18.4887 9.6407 19.1387 9.46737 19.884 9.46737C20.0747 9.46737 20.274 9.51937 20.482 9.62337C20.69 9.72737 20.794 9.85737 20.794 10.0134C20.794 10.152 20.482 10.3687 19.858 10.6634C18.974 11.062 18.4973 11.2787 18.428 11.3134C18.5667 11.3654 18.7313 11.3567 18.922 11.2874C18.922 11.2874 18.87 11.3394 18.766 11.4434C18.8353 11.4954 18.948 11.582 19.104 11.7034C19.0347 11.7207 18.8873 11.8507 18.662 12.0934L18.74 12.1714C19.052 11.9807 19.5287 11.7467 20.17 11.4694L20.482 11.5214C20.3953 11.66 20.274 11.8334 20.118 12.0414C19.962 12.1454 19.7367 12.2927 19.442 12.4834C17.5007 13.818 15.9753 15.248 14.866 16.7734C14.71 16.9814 14.502 17.2847 14.242 17.6834C14.2073 17.77 14.2593 17.9 14.398 18.0734C14.3287 18.0734 14.2507 18.0214 14.164 17.9174C14.112 17.952 14.0427 18.0474 13.956 18.2034C14.164 18.394 14.4847 18.5587 14.918 18.6974C15.5247 18.9054 15.9147 19.0614 16.088 19.1654C16.6773 19.4427 16.946 19.5814 16.894 19.5814C16.9113 19.5814 16.9633 19.538 17.05 19.4514C17.154 19.5207 17.1973 19.5727 17.18 19.6074C17.1627 19.6594 17.1193 19.6854 17.05 19.6854C16.79 19.5987 16.348 19.4427 15.724 19.2174C15.1867 19.0094 14.892 18.9054 14.84 18.9054C14.684 18.9054 14.5367 18.9747 14.398 19.1134V19.2434C14.606 19.33 14.918 19.4514 15.334 19.6074C15.126 19.5727 14.944 19.5727 14.788 19.6074L19.494 20.9074C19.5287 20.9074 19.5633 20.8987 19.598 20.8814C19.4593 20.7427 19.1473 20.5867 18.662 20.4134C18.3153 20.292 17.9687 20.1707 17.622 20.0494C17.5873 19.98 17.5353 19.8847 17.466 19.7634C17.414 19.7807 17.3707 19.7807 17.336 19.7634V19.6854C17.336 19.6507 17.3793 19.6334 17.466 19.6334C17.518 19.6334 17.596 19.6767 17.7 19.7634C17.8213 19.85 17.908 19.8934 17.96 19.8934C18.012 19.8934 18.038 19.8847 18.038 19.8674C18.038 19.85 18.0553 19.8414 18.09 19.8414C18.142 19.8414 18.2547 19.902 18.428 20.0234C18.6013 20.1274 18.7053 20.1794 18.74 20.1794C18.7747 20.1794 18.7833 20.1707 18.766 20.1534C18.766 20.136 18.792 20.1274 18.844 20.1274C18.9827 20.1274 19.3553 20.266 19.962 20.5434C20.3607 20.7167 20.69 20.9854 20.95 21.3494C21.0193 21.4534 21.028 21.566 20.976 21.6874C21.0973 21.774 21.2793 21.8867 21.522 22.0254C21.5913 22.06 21.7993 22.2507 22.146 22.5974C22.146 22.6147 22.1547 22.6234 22.172 22.6234C22.172 22.606 22.172 22.5714 22.172 22.5194C22.172 22.4847 22.1373 22.4327 22.068 22.3634C22.016 22.294 21.99 22.242 21.99 22.2074C21.886 21.982 21.7127 21.7827 21.47 21.6094C21.2273 21.4187 21.08 21.2887 21.028 21.2194C21.444 21.3234 21.7993 21.4967 22.094 21.7394C22.3193 21.9474 22.4667 22.2074 22.536 22.5194C22.744 23.4034 22.848 23.8454 22.848 23.8454ZM20.768 27.3554L20.17 27.8234L20.118 27.7454L20.716 27.2774L20.768 27.3554ZM20.092 27.8494L19.26 28.2654V28.1874L20.066 27.7714L20.092 27.8494ZM19.078 28.3694H18.818V28.2654H19.078V28.3694ZM19.91 10.4294C19.8753 10.4294 19.8147 10.4207 19.728 10.4034C19.6587 10.3687 19.6067 10.3514 19.572 10.3514C19.4507 10.3514 19.2253 10.3947 18.896 10.4814C18.844 10.4987 18.7573 10.542 18.636 10.6114C18.532 10.6634 18.4627 10.6894 18.428 10.6894C18.428 10.7067 18.4367 10.75 18.454 10.8194C18.4887 10.8887 18.506 10.932 18.506 10.9494C18.8353 10.8107 19.3033 10.6374 19.91 10.4294ZM21.028 26.9654L20.976 26.8874L20.794 27.0954L20.846 27.1474L21.028 26.9654ZM18.09 28.5254V28.4474H17.882V28.5254H18.09ZM14.346 29.4614V29.3834H14.19V29.4614H14.346ZM13.8 29.5134L13.592 29.4354V29.5134L13.774 29.5914L13.8 29.5134ZM13.514 29.5914V29.4874H13.358V29.5914H13.514ZM13.306 29.4614H12.968C12.864 29.4614 12.812 29.5134 12.812 29.6174H13.098C13.1327 29.6174 13.202 29.5654 13.306 29.4614ZM26.5437 31.2034H26.4657V31.0994H26.5437V31.2034ZM26.4137 32.1134H26.3357V31.6974H26.4137V32.1134ZM38.5297 13.6274H38.2697V13.5494H38.5297V13.6274ZM36.9437 12.4314L36.9177 12.4574L36.8397 12.4054L36.8917 12.3534L36.9437 12.4314ZM37.7757 13.6274H37.6197V13.5494H37.7757V13.6274ZM36.7877 12.4314C36.7357 12.4314 36.649 12.44 36.5277 12.4574C36.4237 12.4747 36.3543 12.4834 36.3197 12.4834C36.285 12.4834 36.2677 12.4487 36.2677 12.3794C36.4237 12.414 36.597 12.4314 36.7877 12.4314ZM34.5777 13.0294H34.4217V12.9514H34.5777V13.0294ZM34.3697 13.0294H34.2657V12.9514H34.3697V13.0294ZM31.2757 9.62337C31.2757 9.77937 31.215 9.97004 31.0937 10.1954C30.9897 10.2647 30.8597 10.3254 30.7037 10.3774C30.7037 10.3947 30.6863 10.4294 30.6517 10.4814C30.6343 10.516 30.6083 10.5334 30.5737 10.5334C30.487 10.5334 30.305 10.438 30.0277 10.2474C30.1143 9.60604 30.3137 9.28537 30.6257 9.28537C30.695 9.28537 30.9117 9.39804 31.2757 9.62337ZM28.6757 10.3774C28.6237 10.568 28.4937 10.7934 28.2857 11.0534C28.2683 11.036 28.225 10.958 28.1557 10.8194C28.2597 10.7327 28.433 10.5854 28.6757 10.3774ZM27.3497 11.1834C27.211 11.3567 27.0983 11.4434 27.0117 11.4434C26.821 11.4434 26.7257 11.3567 26.7257 11.1834L26.8037 11.0534C26.769 11.0534 26.8557 11.1054 27.0637 11.2094C27.1677 11.1574 27.237 11.1227 27.2717 11.1054L27.3497 11.1834ZM27.5577 11.8074C27.5577 11.8767 27.497 11.972 27.3757 12.0934C27.289 11.9547 27.2977 11.8247 27.4017 11.7034C27.5057 11.7034 27.5577 11.738 27.5577 11.8074ZM39.5957 13.2114C39.4917 13.1767 39.301 13.1594 39.0237 13.1594C39.0063 13.1594 38.989 13.1767 38.9717 13.2114C38.9717 13.2287 38.9543 13.2374 38.9197 13.2374C38.885 13.2374 38.8677 13.2287 38.8677 13.2114C38.885 13.1767 38.885 13.1594 38.8677 13.1594C38.5037 13.1594 38.2437 13.1767 38.0877 13.2114C38.001 13.246 37.923 13.298 37.8537 13.3674C37.8883 13.3674 38.157 13.3674 38.6597 13.3674C38.6423 13.4367 38.651 13.558 38.6857 13.7314C38.651 13.7487 38.5817 13.7747 38.4777 13.8094C37.8363 13.844 36.9437 13.8787 35.7997 13.9134C35.7997 13.9307 35.791 13.948 35.7737 13.9654C35.7563 13.9827 35.7477 14 35.7477 14.0174C36.0597 14.0694 36.3803 14.0954 36.7097 14.0954C36.7443 14.0954 36.7877 14.0867 36.8397 14.0694C36.8917 14.0347 36.935 14.0174 36.9697 14.0174C37.0043 14.0174 37.039 14.0174 37.0737 14.0174C37.091 14.0347 37.117 14.0434 37.1517 14.0434C37.0997 14.0434 37.1603 14.0087 37.3337 13.9394C37.351 13.974 37.3943 14.026 37.4637 14.0954C37.481 14.078 37.4983 14.052 37.5157 14.0174C37.533 13.9654 37.5503 13.9394 37.5677 13.9394C37.5503 13.974 37.5417 14 37.5417 14.0174C37.5763 14.0694 37.611 14.0954 37.6457 14.0954C37.767 14.0954 37.8623 14.0607 37.9317 13.9914C37.9143 13.9567 37.8797 13.9567 37.8277 13.9914C37.8277 13.974 37.845 13.9394 37.8797 13.8874C37.949 13.8874 38.001 13.9307 38.0357 14.0174C38.1223 13.9307 38.1743 13.8874 38.1917 13.8874C38.1743 13.8874 38.2003 13.9307 38.2697 14.0174C38.339 13.9827 38.4083 13.9307 38.4777 13.8614C38.4777 13.8787 38.4603 13.9047 38.4257 13.9394C38.4083 13.9567 38.4083 13.9827 38.4257 14.0174C38.4603 13.9827 38.5297 13.9654 38.6337 13.9654C38.6683 13.9307 38.651 13.9134 38.5817 13.9134C38.6857 13.844 38.807 13.8094 38.9457 13.8094C39.067 13.8094 39.171 13.8614 39.2577 13.9654L39.2057 14.0174C37.9057 14.0694 36.4063 14.234 34.7077 14.5114C34.725 14.5114 34.7597 14.5287 34.8117 14.5634C34.9157 14.5634 35.3837 14.5634 36.2157 14.5634C36.2503 14.5634 36.2677 14.5547 36.2677 14.5374C36.285 14.5027 36.311 14.4854 36.3457 14.4854C36.363 14.4854 36.4237 14.5027 36.5277 14.5374C36.6317 14.572 36.701 14.5894 36.7357 14.5894C36.6317 14.676 36.4757 14.7194 36.2677 14.7194C35.9037 14.7367 35.7043 14.754 35.6697 14.7714C35.6523 14.7887 35.6177 14.8147 35.5657 14.8494C35.531 14.8667 35.4617 14.884 35.3577 14.9014C35.2537 14.9187 35.193 14.9274 35.1757 14.9274C35.141 14.9274 35.089 14.9187 35.0197 14.9014C34.9677 14.884 34.9243 14.8754 34.8897 14.8754C34.7857 14.8754 34.7077 14.884 34.6557 14.9014C34.6557 14.988 34.621 15.04 34.5517 15.0574C34.4997 15.0747 33.9623 15.1007 32.9397 15.1354C32.801 15.1354 32.5757 15.1614 32.2637 15.2134C31.969 15.2654 31.813 15.2914 31.7957 15.2914C31.761 15.2914 31.6917 15.2914 31.5877 15.2914C31.4837 15.3087 31.4143 15.3174 31.3797 15.3174C31.3623 15.3174 31.3103 15.3347 31.2237 15.3694C31.137 15.3867 31.0763 15.3954 31.0417 15.3954C31.007 15.3954 30.9983 15.3954 31.0157 15.3954C31.0157 15.378 30.9983 15.3694 30.9637 15.3694C30.8423 15.3694 30.7643 15.4127 30.7297 15.4994C30.5563 15.898 30.4003 16.496 30.2617 17.2934C30.2617 17.3107 30.2703 17.3367 30.2877 17.3714C30.3917 16.99 30.5477 16.444 30.7557 15.7334C30.773 15.7334 30.799 15.742 30.8337 15.7594C30.8857 15.7594 30.9117 15.7594 30.9117 15.7594C30.9463 15.69 30.9983 15.6034 31.0677 15.4994C31.0157 15.6727 30.6777 16.99 30.0537 19.4514C30.0537 19.4687 30.0623 19.4947 30.0797 19.5294C30.0103 19.6854 29.9323 20.006 29.8457 20.4914C29.7417 21.15 29.6723 21.566 29.6377 21.7394C29.447 22.5714 29.2737 23.5507 29.1177 24.6774C28.9617 25.908 28.823 26.818 28.7017 27.4074C28.7017 27.3727 28.693 27.286 28.6757 27.1474C28.6583 26.9914 28.6497 26.9047 28.6497 26.8874C28.6497 26.8874 28.667 26.6534 28.7017 26.1854C28.7537 25.7174 28.7797 25.3534 28.7797 25.0934C28.745 25.128 28.7277 25.18 28.7277 25.2494C28.7277 25.232 28.693 25.2234 28.6237 25.2234C28.5197 25.2234 28.4243 25.5007 28.3377 26.0554C28.2857 26.454 28.225 26.8787 28.1557 27.3294C28.1557 27.364 28.1383 27.442 28.1037 27.5634C28.0863 27.6674 28.069 27.8234 28.0517 28.0314C28.0343 28.066 27.9997 28.1094 27.9477 28.1614C27.9477 28.2307 27.991 28.2654 28.0777 28.2654L27.9477 29.1234C27.8437 29.1234 27.7917 29.0974 27.7917 29.0454C27.7917 29.028 27.8177 28.7247 27.8697 28.1354C27.9217 27.546 27.9563 27.104 27.9737 26.8094C27.9043 26.844 27.8523 26.9307 27.8177 27.0694C27.8003 25.9947 27.965 24.5214 28.3117 22.6494C28.2943 22.58 28.2857 22.4674 28.2857 22.3114C28.303 22.242 28.3377 22.1294 28.3897 21.9734C28.4243 21.956 28.407 21.9474 28.3377 21.9474C28.2337 21.9474 28.173 22.0514 28.1557 22.2594C28.1557 22.3807 28.1383 22.4847 28.1037 22.5714C28.0863 22.658 28.0517 22.7534 27.9997 22.8574C27.965 23.2214 27.8957 23.776 27.7917 24.5214C27.6183 25.2667 27.5317 25.9167 27.5317 26.4714C27.5317 26.5234 27.5057 26.636 27.4537 26.8094C27.471 26.8787 27.471 27 27.4537 27.1734C27.4363 27.2427 27.4103 27.3554 27.3757 27.5114C27.3583 27.65 27.341 27.8407 27.3237 28.0834C27.3063 28.326 27.2977 28.4994 27.2977 28.6034V26.2634L27.0377 28.5774C27.0377 28.6987 27.0463 28.7767 27.0637 28.8114C27.081 28.7767 27.1157 28.7334 27.1677 28.6814H27.2197C27.237 28.8547 27.2023 28.9587 27.1157 28.9934C27.133 29.028 27.159 29.054 27.1937 29.0714C27.1763 29.0887 27.1677 29.1147 27.1677 29.1494C27.1677 29.1147 27.1503 29.08 27.1157 29.0454L27.0377 31.8274C26.9857 31.9487 26.899 32.1307 26.7777 32.3734C26.7603 32.3214 26.7343 32.252 26.6997 32.1654C26.6823 32.2174 26.6737 32.3127 26.6737 32.4514C26.6217 32.2607 26.6043 32.0267 26.6217 31.7494C26.6563 31.472 26.6563 31.264 26.6217 31.1254C26.587 31.16 26.561 31.264 26.5437 31.4374C26.5437 31.4374 26.5177 31.446 26.4657 31.4634C26.4137 31.498 26.3877 31.5327 26.3877 31.5674C26.3877 31.654 26.3443 31.498 26.2577 31.0994C26.2403 31.1167 26.2317 31.1514 26.2317 31.2034C26.2317 30.8914 26.2317 30.458 26.2317 29.9034C26.2663 29.522 26.2923 29.1147 26.3097 28.6814V28.3694C26.275 28.3174 26.249 28.2914 26.2317 28.2914C26.2143 28.4474 26.197 28.6814 26.1797 28.9934C26.0583 29.808 25.9977 30.64 25.9977 31.4894C25.6337 30.5534 25.4517 29.9207 25.4517 29.5914C25.4517 29.21 25.625 28.664 25.9717 27.9534C25.9543 27.884 25.9457 27.858 25.9457 27.8754C25.9803 27.806 25.9717 27.7367 25.9197 27.6674C26.0237 27.5634 26.0583 27.4767 26.0237 27.4074C25.989 27.442 25.9717 27.468 25.9717 27.4854C25.9717 27.364 25.9803 27.286 25.9977 27.2514C26.1537 27.0434 26.171 26.9047 26.0497 26.8354C26.119 26.766 26.1623 26.6794 26.1797 26.5754C26.197 26.4367 26.1623 26.3414 26.0757 26.2894C26.0757 26.3067 26.119 26.2807 26.2057 26.2114C26.1017 26.09 26.1103 25.8994 26.2317 25.6394C26.2317 25.57 26.249 25.4834 26.2837 25.3794C26.1103 25.31 26.0583 25.2494 26.1277 25.1974C26.145 25.18 26.1623 25.154 26.1797 25.1194C26.197 25.0847 26.1797 25.0154 26.1277 24.9114C26.1623 24.9287 26.1883 24.9374 26.2057 24.9374L26.2577 24.9114V24.8074C26.0843 24.7034 25.9977 24.608 25.9977 24.5214C25.9977 24.556 26.041 24.0534 26.1277 23.0134L27.0117 17.6054H27.0637C27.2023 16.4267 27.2717 15.82 27.2717 15.7854C27.2717 15.6987 27.2543 15.612 27.2197 15.5254C27.133 15.5427 26.9857 15.586 26.7777 15.6554C26.5697 15.7074 26.4483 15.7334 26.4137 15.7334C26.327 15.7334 26.2143 15.7507 26.0757 15.7854C26.1103 15.716 26.1277 15.8374 26.1277 16.1494C25.833 16.236 25.6943 16.2794 25.7117 16.2794C25.677 16.2794 25.651 16.2707 25.6337 16.2534C25.6337 16.236 25.625 16.2274 25.6077 16.2274C25.5383 15.95 25.5383 15.794 25.6077 15.7594C25.521 15.742 25.4083 15.742 25.2697 15.7594C25.0963 15.794 25.0097 15.8114 25.0097 15.8114C25.0443 15.8114 24.9837 15.768 24.8277 15.6814C24.689 15.5947 24.5763 15.5514 24.4897 15.5514C24.455 15.5514 24.3423 15.5687 24.1517 15.6034C23.961 15.638 23.8483 15.6554 23.8137 15.6554C23.623 15.6554 23.519 15.6467 23.5017 15.6294C23.415 15.5774 23.2937 15.4994 23.1377 15.3954C23.103 15.3607 23.0857 15.3 23.0857 15.2134C23.0857 15.1094 23.155 15.0227 23.2937 14.9534C23.3283 14.9534 23.389 14.9794 23.4757 15.0314C23.5623 15.066 23.623 15.0834 23.6577 15.0834C23.7443 15.0834 23.831 15.0574 23.9177 15.0054C23.8483 14.8494 23.8223 14.7714 23.8397 14.7714C23.805 14.7714 23.7877 14.78 23.7877 14.7974C23.7877 14.7974 23.7703 14.7974 23.7357 14.7974C23.7357 14.7974 23.5883 14.6847 23.2937 14.4594C23.3283 14.442 23.3457 14.3987 23.3457 14.3294H23.5537C23.5363 14.2947 23.5277 14.234 23.5277 14.1474C23.597 14.1127 23.7183 14.052 23.8917 13.9654C23.8917 13.948 23.883 13.8267 23.8657 13.6014C23.8657 13.4974 23.831 13.4454 23.7617 13.4454V13.3154C23.7617 13.2807 23.7703 13.2634 23.7877 13.2634C23.805 13.246 23.8137 13.2287 23.8137 13.2114C25.339 12.83 26.5957 12.6307 27.5837 12.6134C27.6183 12.544 27.6703 12.4487 27.7397 12.3274C27.8263 12.2754 27.965 12.1714 28.1557 12.0154C28.173 11.9287 28.1817 11.8507 28.1817 11.7814C28.1817 11.9027 28.199 11.9894 28.2337 12.0414C28.2857 11.972 28.2857 11.894 28.2337 11.8074C28.2857 11.8594 28.3203 11.92 28.3377 11.9894C28.355 12.0414 28.407 12.0847 28.4937 12.1194C28.511 12.154 28.5197 12.1974 28.5197 12.2494C28.5197 12.284 28.537 12.3274 28.5717 12.3794C28.5717 12.362 28.6323 12.1887 28.7537 11.8594C28.823 11.6687 28.953 11.5214 29.1437 11.4174C29.2303 11.4347 29.2737 11.4867 29.2737 11.5734C29.2737 11.66 29.2823 11.712 29.2997 11.7294C29.2997 11.7294 29.3603 11.7294 29.4817 11.7294C29.655 11.4867 29.9237 11.1747 30.2877 10.7934C30.409 10.8107 30.513 10.7934 30.5997 10.7414H30.7817C30.7817 10.7414 30.7903 10.7587 30.8077 10.7934C30.825 10.8107 30.8337 10.8367 30.8337 10.8714C30.8337 11.0274 30.721 11.1834 30.4957 11.3394C30.3743 11.4087 30.2703 11.478 30.1837 11.5474C30.1143 11.5994 30.0363 11.6774 29.9497 11.7814L29.8977 11.8074C29.8977 11.8594 29.941 11.92 30.0277 11.9894C29.9583 11.9547 29.915 11.9374 29.8977 11.9374C29.8457 11.9374 29.785 11.998 29.7157 12.1194L29.7417 12.2494C29.8283 12.232 29.9757 12.206 30.1837 12.1714C30.1837 12.2407 30.2357 12.3447 30.3397 12.4834C30.409 12.466 30.4437 12.3794 30.4437 12.2234C30.4437 11.998 30.4437 11.8767 30.4437 11.8594C30.4957 11.8594 30.5737 11.7814 30.6777 11.6254C30.747 11.66 30.8597 11.764 31.0157 11.9374C31.0503 12.0414 31.1023 12.1974 31.1717 12.4054C31.1197 12.4054 31.527 12.4054 32.3937 12.4054C32.4283 12.4054 32.593 12.3967 32.8877 12.3794C33.1997 12.3794 33.373 12.3794 33.4077 12.3794C33.5983 12.3794 34.205 12.3447 35.2277 12.2754C35.089 12.2927 34.8897 12.336 34.6297 12.4054C34.6297 12.4054 34.673 12.4054 34.7597 12.4054C34.777 12.4054 34.855 12.414 34.9937 12.4314C35.1497 12.4314 35.2537 12.4314 35.3057 12.4314C35.3577 12.4314 35.427 12.4227 35.5137 12.4054C35.6003 12.388 35.661 12.3794 35.6957 12.3794C35.7997 12.3794 35.8517 12.414 35.8517 12.4834C35.557 12.518 35.141 12.5527 34.6037 12.5874C34.5863 12.5874 34.569 12.6047 34.5517 12.6394C34.5863 12.674 34.6123 12.6914 34.6297 12.6914C34.6643 12.6914 34.8463 12.6827 35.1757 12.6654C35.505 12.6307 35.687 12.6134 35.7217 12.6134C35.7563 12.6134 35.7737 12.6307 35.7737 12.6654C35.791 12.6827 35.817 12.6914 35.8517 12.6914C35.869 12.6914 35.9297 12.6654 36.0337 12.6134C36.1377 12.5614 36.207 12.5354 36.2417 12.5354C36.2417 12.5354 36.285 12.57 36.3717 12.6394C36.4063 12.6394 36.4237 12.6047 36.4237 12.5354C36.4757 12.5874 36.5363 12.6134 36.6057 12.6134C36.6577 12.6134 36.6837 12.57 36.6837 12.4834C36.7357 12.6047 36.805 12.6827 36.8917 12.7174C36.8397 12.7174 36.753 12.7347 36.6317 12.7694C36.5277 12.804 36.4497 12.83 36.3977 12.8474C35.895 12.8647 35.141 12.8907 34.1357 12.9254C34.101 12.96 34.0837 13.0554 34.0837 13.2114C34.1357 13.1594 34.179 13.1334 34.2137 13.1334C34.2483 13.1334 34.2657 13.142 34.2657 13.1594C34.2657 13.1594 34.283 13.1594 34.3177 13.1594C34.3523 13.1594 34.361 13.1507 34.3437 13.1334C34.3437 13.0987 34.361 13.0814 34.3957 13.0814C34.413 13.0814 34.4477 13.1074 34.4997 13.1594C34.5517 13.194 34.595 13.2114 34.6297 13.2114C34.6643 13.2114 34.699 13.1854 34.7337 13.1334C34.7683 13.0814 34.803 13.0554 34.8377 13.0554C34.8723 13.0554 34.9763 13.0727 35.1497 13.1074C35.323 13.142 35.427 13.1594 35.4617 13.1594C35.6177 13.1594 36.0423 13.1334 36.7357 13.0814C36.7703 13.064 36.7703 13.0467 36.7357 13.0294C36.8917 13.064 37.195 13.0814 37.6457 13.0814C37.6803 13.0814 37.7237 13.0814 37.7757 13.0814C37.8103 13.064 37.845 13.0554 37.8797 13.0554C38.001 13.0554 38.0963 13.064 38.1657 13.0814L38.2697 12.9774C38.5643 12.9947 39.0063 13.0034 39.5957 13.0034V13.2114ZM28.4417 23.3254L28.4157 23.5074H28.3377L28.3897 23.3254H28.4417ZM28.5717 26.4454H28.4937V26.3154H28.5717V26.4454ZM28.5197 26.9654H28.4677V26.8354H28.5197V26.9654ZM26.8557 25.7954L26.8037 26.2114H26.7517L26.7777 25.7954H26.8557ZM28.2857 27.4334L28.2597 27.7194H28.1817L28.2337 27.4334H28.2857ZM28.4937 27.5374L28.4157 28.2394H28.3377L28.4157 27.5374H28.4937ZM28.2597 27.8754L28.2077 28.0834H28.1297L28.1817 27.8754H28.2597ZM27.8437 27.6674L27.8177 27.9794H27.7397L27.7917 27.6674H27.8437ZM27.1417 25.8994L26.9597 28.2914L26.8037 28.1614C26.8383 28.1094 26.8557 28.066 26.8557 28.0314C26.8557 28.0834 26.8643 28.118 26.8817 28.1354L27.1417 25.8994ZM27.9997 28.4994H27.9477V28.3434H27.9997V28.4994ZM28.1297 28.8114H28.0517V28.6294H28.1297V28.8114ZM27.7397 29.0454H27.6617V28.8894H27.7397V29.0454ZM27.6877 29.6954H27.6357V29.4874H27.6877V29.6954ZM24.8277 26.3674C24.8623 26.5234 24.8103 26.844 24.6717 27.3294C24.5677 27.3294 24.5157 27.2947 24.5157 27.2254C24.5157 27.364 24.6197 27.078 24.8277 26.3674ZM26.8817 28.5254L26.8297 28.5774C26.847 28.6294 26.8557 28.7334 26.8557 28.8894C26.8037 29.2707 26.743 29.86 26.6737 30.6574C26.691 30.6227 26.6737 30.5534 26.6217 30.4494C26.5697 30.5187 26.5957 30.6487 26.6997 30.8394C26.665 30.9434 26.6303 30.9867 26.5957 30.9694C26.561 30.9694 26.5437 30.9954 26.5437 31.0474L26.4917 30.5014C26.509 30.4667 26.5263 30.3627 26.5437 30.1894C26.561 30.1547 26.587 30.1114 26.6217 30.0594C26.7083 29.5567 26.7777 28.9587 26.8297 28.2654C26.8643 28.3347 26.8817 28.4214 26.8817 28.5254ZM39.3357 13.8094L39.2837 13.7574L39.2317 13.8094L39.3097 13.8614L39.3357 13.8094ZM37.8017 13.4194V13.3674L37.6197 13.3154V13.3674L37.8017 13.4194ZM37.4637 13.3674V13.3154L37.2557 13.3674V13.4194L37.4637 13.3674ZM37.0477 13.4454L36.9177 13.3674L36.8657 13.4454H37.0477ZM36.0077 13.1074V13.0294H35.6957V13.1074H36.0077ZM34.7077 14.5894V14.5114H34.3177V14.5894H34.7077ZM34.1877 14.5634L34.1617 14.5114L34.0837 14.5634V14.6154L34.1877 14.5634ZM34.4997 14.9534V14.8754H34.0837V14.9534H34.4997ZM33.8237 14.6154L33.6417 14.5634C33.5897 14.6154 33.5637 14.6587 33.5637 14.6934L33.8237 14.6154ZM33.9277 14.9274V14.8754L33.7457 14.9014V14.9794L33.9277 14.9274ZM33.2517 14.6934V14.6414H32.9137V14.6934H33.2517ZM28.0777 12.3794C27.991 12.414 27.913 12.4747 27.8437 12.5614H28.0257C28.0257 12.4747 28.043 12.414 28.0777 12.3794ZM30.2877 17.5014V17.3714H30.2097V17.5014H30.2877ZM22.6437 13.9394C22.6437 13.8007 22.5743 13.7314 22.4357 13.7314C22.4183 13.7314 22.375 13.7574 22.3057 13.8094C21.9763 13.9134 21.8117 14.0694 21.8117 14.2774C21.8117 14.3294 21.8637 14.4247 21.9677 14.5634C22.0543 14.6847 22.0977 14.7627 22.0977 14.7974C22.1323 14.78 22.193 14.7714 22.2797 14.7714C22.2797 14.6847 22.3403 14.5547 22.4617 14.3814C22.583 14.1907 22.6437 14.0434 22.6437 13.9394ZM28.7797 21.0374V20.8814H28.7017V21.0374H28.7797ZM28.7537 21.1674C28.6497 21.202 28.5803 21.3754 28.5457 21.6874C28.4763 22.2247 28.4417 22.606 28.4417 22.8314C28.4937 22.762 28.537 22.6754 28.5717 22.5714C28.6063 22.086 28.667 21.618 28.7537 21.1674ZM28.4937 22.8834H28.4157L28.3897 23.2474H28.4417L28.4937 22.8834ZM28.8057 25.0414L28.7017 24.9374L28.6757 24.9634L28.7537 25.0674L28.8057 25.0414ZM27.7657 25.3274V25.2234H27.7137V25.3274H27.7657ZM27.2197 25.7694V25.6654H27.1417V25.7694H27.2197ZM26.9077 25.4574H26.8297L26.7777 25.6914H26.8557L26.9077 25.4574ZM27.7657 28.5774V28.2134H27.7137V28.5774H27.7657ZM27.7397 29.2534V29.1494H27.6617V29.2534H27.7397ZM25.7897 28.4214V28.2134H25.7117V28.4214H25.7897ZM49.8283 10.2474C49.8283 10.49 49.7069 10.6114 49.4643 10.6114C49.3429 10.6114 49.2823 10.542 49.2823 10.4034C49.2823 10.3514 49.3169 10.282 49.3863 10.1954C49.4729 10.0914 49.5423 10.0394 49.5943 10.0394C49.7503 10.0394 49.8283 10.1087 49.8283 10.2474ZM52.8183 15.2654C52.7143 15.04 52.6623 14.962 52.6623 15.0314C52.6623 15.1354 52.7143 15.0314 52.8183 14.7194V15.2654ZM43.9523 10.4814V10.5334L43.7963 10.4554V10.4034L43.9523 10.4814ZM52.8183 20.4914C52.6969 20.2314 52.6363 20.0667 52.6363 19.9974C52.6363 19.824 52.6969 19.7287 52.8183 19.7114V20.4914ZM49.8023 19.1394C49.7329 19.1567 49.6896 19.1914 49.6723 19.2434C49.6029 19.2434 49.5509 19.2 49.5163 19.1134C49.4816 19.1134 49.4469 19.1307 49.4123 19.1654C49.3776 19.2 49.3516 19.226 49.3343 19.2434C49.2996 19.2087 49.2823 19.174 49.2823 19.1394C49.2823 19.0354 49.4296 18.9227 49.7243 18.8014C49.7416 18.8187 49.7676 18.8274 49.8023 18.8274V19.1394ZM52.0643 23.7674H51.9343V23.7154H52.0643V23.7674ZM51.9343 23.7934L51.8303 23.8194V23.7934L51.9083 23.7414L51.9343 23.7934ZM52.1163 23.1434C51.7003 23.2647 51.1109 23.4294 50.3483 23.6374C50.2963 23.672 50.2009 23.7154 50.0623 23.7674C49.8023 23.8714 49.6116 23.9234 49.4903 23.9234C49.3863 23.9234 49.3169 23.9407 49.2823 23.9754C49.3689 24.0274 49.6116 23.9927 50.0103 23.8714H50.2183C50.1316 23.8887 49.7676 23.984 49.1263 24.1574C49.1263 24.2094 49.1523 24.2354 49.2043 24.2354C49.2216 24.2354 49.2823 24.218 49.3863 24.1834C49.5076 24.1487 49.5856 24.1314 49.6203 24.1314C49.6376 24.1314 49.6549 24.14 49.6723 24.1574C49.6896 24.1574 49.7156 24.1574 49.7503 24.1574C49.7849 24.1574 50.0189 24.1227 50.4523 24.0534C50.8856 23.9667 51.1196 23.9234 51.1543 23.9234C51.1716 23.9234 51.2323 23.9407 51.3363 23.9754C51.4403 23.9927 51.5009 24.0014 51.5183 24.0014C51.5529 24.0014 51.6049 23.9754 51.6743 23.9234C51.7436 23.8714 51.7869 23.8454 51.8043 23.8454C51.7696 23.8454 51.7956 23.88 51.8823 23.9494C51.8996 23.9667 51.9256 23.9667 51.9603 23.9494C51.5096 24.0707 50.8076 24.2527 49.8543 24.4954C49.8196 24.5127 49.7763 24.5387 49.7243 24.5734C49.5509 24.5907 49.4296 24.6167 49.3603 24.6514C49.2043 24.7034 49.1089 24.79 49.0743 24.9114C48.7969 24.9634 48.3723 25.0414 47.8003 25.1454C47.8523 26.376 47.9043 27.2427 47.9563 27.7454C47.9736 27.8494 47.9996 28.17 48.0343 28.7074C48.0169 28.7767 47.9996 28.872 47.9823 28.9934C47.9996 29.0107 48.0169 29.054 48.0343 29.1234C48.0689 29.1927 48.1123 29.3487 48.1643 29.5914C48.0776 29.626 47.9649 29.6954 47.8263 29.7994C47.8436 29.8687 47.8176 29.964 47.7483 30.0854C47.6789 30.224 47.6009 30.2934 47.5143 30.2934C47.4796 30.2934 47.3583 30.2067 47.1503 30.0334C47.1676 30.224 47.2629 30.5274 47.4363 30.9434V31.0734C47.1763 31.1427 47.0636 31.1774 47.0983 31.1774C46.9769 31.1774 46.9163 31.1167 46.9163 30.9954C46.9163 30.926 46.9249 30.8394 46.9423 30.7354C46.9423 30.614 46.9423 30.5274 46.9423 30.4754C46.9423 30.458 46.9249 30.4494 46.8903 30.4494C46.8556 30.4494 46.8123 30.4667 46.7603 30.5014C46.7083 30.536 46.6736 30.5534 46.6563 30.5534C46.6563 30.5534 46.6216 30.562 46.5523 30.5794C46.5523 30.5274 46.5436 30.4494 46.5263 30.3454C46.5089 30.3107 46.4396 30.2154 46.3183 30.0594C46.3009 30.0247 46.2836 29.9727 46.2663 29.9034C46.3183 29.9034 46.3789 29.886 46.4483 29.8514C46.4309 29.7994 46.4136 29.756 46.3963 29.7214C46.3443 29.7734 46.3183 29.8254 46.3183 29.8774C46.2489 29.808 46.2056 29.7734 46.1883 29.7734C46.1536 29.7734 46.1189 29.7734 46.0843 29.7734C46.0669 29.7907 46.0409 29.7994 46.0063 29.7994C45.9889 29.7994 45.9023 29.7647 45.7463 29.6954C45.7636 29.626 45.7983 29.574 45.8503 29.5394C45.8329 29.522 45.8069 29.4874 45.7723 29.4354C45.7376 29.3834 45.7116 29.3487 45.6943 29.3314C45.6596 29.366 45.6423 29.4527 45.6423 29.5914C45.5209 29.5914 45.4603 29.5394 45.4603 29.4354C45.4429 29.1234 45.3909 28.4907 45.3043 27.5374C45.2349 26.7574 45.2003 26.1334 45.2003 25.6654C45.1656 25.6307 45.1136 25.6134 45.0443 25.6134C44.8189 25.6134 44.0129 25.856 42.6263 26.3414C42.5223 26.22 42.4789 26.1594 42.4963 26.1594C42.2189 26.1594 42.0196 26.2287 41.8983 26.3674C41.7769 26.4887 41.6816 26.7574 41.6123 27.1734C41.5256 27.3987 41.4216 27.7194 41.3003 28.1354C41.3003 28.222 41.2916 28.3347 41.2743 28.4734C41.1356 29.132 40.8929 29.6174 40.5463 29.9294H40.4423L40.3383 29.8514C40.5289 29.678 40.6243 29.47 40.6243 29.2274C40.6243 29.1407 40.5983 29.0714 40.5463 29.0194C40.4596 29.2447 40.3209 29.6174 40.1303 30.1374C40.1129 30.224 40.0523 30.328 39.9483 30.4494C39.9136 30.432 39.8789 30.406 39.8443 30.3714C39.8443 29.9034 39.8616 29.73 39.8963 29.8514C39.8443 29.7994 39.7836 29.7127 39.7143 29.5914C39.7316 29.6434 39.7403 29.5307 39.7403 29.2534L39.6883 29.1754C39.6016 29.314 39.4716 29.5134 39.2983 29.7734C39.1769 29.7734 39.1163 29.7127 39.1163 29.5914C39.1163 29.574 39.1336 29.5134 39.1683 29.4094C39.2203 29.3227 39.2463 29.2707 39.2463 29.2534C39.3849 29.1147 39.4543 28.976 39.4543 28.8374C39.4543 28.7507 39.3849 28.7074 39.2463 28.7074C39.2636 28.7074 39.1943 28.7594 39.0383 28.8634C38.9863 28.8807 38.9256 28.9154 38.8563 28.9674C38.7696 29.1927 38.6223 29.5307 38.4143 29.9814L38.3363 30.0074C38.3016 29.9207 38.2843 29.8774 38.2843 29.8774C38.2843 29.7907 38.3883 29.496 38.5963 28.9934C38.5789 28.976 38.5703 28.9414 38.5703 28.8894C38.5876 28.7507 38.5616 28.56 38.4923 28.3174C38.5269 28.3174 38.5529 28.3347 38.5703 28.3694L38.7003 28.2394L38.6483 28.1874C38.5963 28.2047 38.5616 28.2394 38.5443 28.2914C38.5096 28.2394 38.4749 28.2134 38.4403 28.2134V28.0314C38.4403 28.1874 38.5963 27.7107 38.9083 26.6014C38.9083 26.584 38.8909 26.5754 38.8563 26.5754C38.8389 26.6274 38.8043 26.7054 38.7523 26.8094C38.6483 27.1214 38.5269 27.5114 38.3883 27.9794C38.3536 27.9967 38.3016 28.0314 38.2323 28.0834L39.1163 25.1714C39.2203 24.9287 39.3763 24.556 39.5843 24.0534C39.5669 24.1227 39.5843 24.218 39.6363 24.3394C39.5496 24.426 39.5149 24.4607 39.5323 24.4434C39.5323 24.4087 39.5149 24.3914 39.4803 24.3914C39.4629 24.4434 39.4456 24.504 39.4283 24.5734C39.4109 24.6254 39.3763 24.738 39.3243 24.9114C39.3416 24.9114 39.3589 24.9114 39.3763 24.9114C39.4803 24.9114 39.5583 24.79 39.6103 24.5474C39.6449 24.4434 39.7056 24.296 39.7923 24.1054V24.0274C39.7749 24.0274 39.7489 24.036 39.7143 24.0534C39.6796 24.0707 39.6536 24.0794 39.6363 24.0794C39.6709 24.062 39.7056 24.0274 39.7403 23.9754C39.7403 23.9407 39.7403 23.906 39.7403 23.8714L39.7923 23.8194L39.8443 23.8974C39.8616 23.8454 39.8963 23.776 39.9483 23.6894C39.9309 23.6547 39.8963 23.6287 39.8443 23.6114C39.8789 23.594 39.9136 23.6027 39.9483 23.6374C39.9829 23.4814 40.0003 23.3947 40.0003 23.3774C39.9656 23.3947 39.9396 23.4207 39.9223 23.4554C39.9223 23.438 39.9223 23.4034 39.9223 23.3514C39.9396 23.2994 39.9483 23.2647 39.9483 23.2474C39.9829 23.2474 40.0176 23.2647 40.0523 23.2994C40.1563 23.0914 40.1563 22.9874 40.0523 22.9874C40.1216 22.7274 40.2603 22.4154 40.4683 22.0514C40.5549 21.9647 40.7023 21.592 40.9103 20.9334C40.9623 20.7254 41.1789 20.1794 41.5603 19.2954C41.6123 19.278 41.6556 19.2434 41.6903 19.1914C41.7249 18.914 41.7423 18.81 41.7423 18.8794C41.7769 18.8274 41.8289 18.7407 41.8983 18.6194C41.8289 18.4634 41.8723 18.368 42.0283 18.3334C42.0283 18.3334 42.0109 18.2987 41.9763 18.2294C42.0629 18.056 42.1843 17.848 42.3403 17.6054C42.3403 17.5707 42.3229 17.5534 42.2883 17.5534C42.2883 17.536 42.3489 17.4494 42.4703 17.2934C42.4703 17.2414 42.4789 17.1634 42.4963 17.0594C43.1723 15.69 43.5103 14.9967 43.5103 14.9794C43.5103 14.8927 43.5103 14.8494 43.5103 14.8494L42.4963 16.9554C42.5136 16.8167 42.5136 16.73 42.4963 16.6954L41.3003 19.4254C41.5429 18.7494 41.9676 17.718 42.5743 16.3314C42.9036 15.6727 43.7616 14.0954 45.1483 11.5994C45.2349 11.3567 45.3736 11.01 45.5643 10.5594C45.9629 9.7447 46.3009 9.1467 46.5783 8.76537C46.6129 8.7827 46.6476 8.79137 46.6823 8.79137V8.92137C46.4743 9.1467 46.2403 9.52804 45.9803 10.0654V10.1174C46.1016 10.0307 46.1536 9.98737 46.1363 9.98737C46.1709 9.98737 46.1796 9.99604 46.1623 10.0134C46.1623 10.0307 46.1796 10.0394 46.2143 10.0394C46.2143 10.0394 46.2749 9.9267 46.3963 9.70137C46.6909 9.64937 46.7863 9.62337 46.6823 9.62337C46.7169 9.62337 46.7343 9.63204 46.7343 9.64937C46.7169 9.64937 46.7256 9.64937 46.7603 9.64937C46.8296 9.64937 46.8816 9.59737 46.9163 9.49337C46.9163 9.5107 46.9423 9.51937 46.9943 9.51937C47.0289 9.51937 47.0549 9.5107 47.0723 9.49337C47.0896 9.4587 47.1069 9.44137 47.1243 9.44137C47.1416 9.44137 47.1849 9.4327 47.2543 9.41537C47.3409 9.39804 47.3929 9.38937 47.4103 9.38937C47.4969 9.38937 47.5576 9.44137 47.5923 9.54537C47.6789 9.47604 47.7396 9.38937 47.7743 9.28537C47.8956 8.74804 48.0776 8.47937 48.3203 8.47937C48.4936 8.47937 48.5803 8.56604 48.5803 8.73937C48.5803 8.8087 48.4329 8.99937 48.1383 9.31137C48.1036 9.36337 48.0256 9.47604 47.9043 9.64937C47.9216 9.6667 47.9649 9.6667 48.0343 9.64937C48.0689 9.75337 48.0776 9.86604 48.0603 9.98737C48.0949 9.97004 48.1123 9.98737 48.1123 10.0394C48.1123 10.074 48.0776 10.126 48.0083 10.1954C47.9389 10.2647 47.9043 10.308 47.9043 10.3254C47.9043 10.3774 47.9129 10.4034 47.9303 10.4034C48.0343 10.334 48.1383 10.2127 48.2423 10.0394C48.3463 9.98737 48.4503 9.91804 48.5543 9.83137C48.5889 9.86604 48.6063 9.9007 48.6063 9.93537C48.6063 9.88337 48.4763 10.0654 48.2163 10.4814C48.3029 10.516 48.4243 10.516 48.5803 10.4814C48.6149 10.516 48.6323 10.5767 48.6323 10.6634C48.7016 10.7327 48.7796 10.7674 48.8663 10.7674V10.8714C48.8663 10.8367 48.7363 11.0447 48.4763 11.4954C48.5456 11.7207 48.5283 11.9287 48.4243 12.1194C48.4416 12.1194 48.4676 12.1194 48.5023 12.1194C48.5889 12.1194 48.6323 12.0674 48.6323 11.9634C48.6323 11.842 48.6583 11.7814 48.7103 11.7814C48.7449 11.7814 48.7623 11.7987 48.7623 11.8334C48.7623 11.8507 48.7796 11.8594 48.8143 11.8594C48.7796 11.8594 48.8056 11.8507 48.8923 11.8334C49.0136 12.0414 49.0569 12.2147 49.0223 12.3534C48.9703 12.388 48.9443 12.4227 48.9443 12.4574C48.9443 12.4747 48.9616 12.518 48.9963 12.5874C49.0483 12.6394 49.0743 12.674 49.0743 12.6914C49.0569 12.622 49.0483 12.7347 49.0483 13.0294C49.0483 13.2027 49.1089 13.2894 49.2303 13.2894C49.2996 13.2894 49.3429 13.298 49.3603 13.3154C49.2736 13.454 49.2303 13.5667 49.2303 13.6534C49.2129 14.1214 49.1609 14.5287 49.0743 14.8754C49.0569 14.91 49.0136 15.1267 48.9443 15.5254C48.8923 15.5774 48.8576 15.6467 48.8403 15.7334C48.8229 15.82 48.7883 15.9674 48.7363 16.1754C48.7016 16.366 48.6843 16.522 48.6843 16.6434C48.7363 16.522 48.8229 16.3574 48.9443 16.1494C48.8056 16.756 48.6843 17.354 48.5803 17.9434C48.5283 18.082 48.4676 18.3074 48.3983 18.6194C48.4156 18.706 48.4156 18.8447 48.3983 19.0354C48.3289 19.3647 48.2423 19.8674 48.1383 20.5434C48.1383 20.5434 48.1296 20.526 48.1123 20.4914C48.1123 20.5607 48.1123 20.6647 48.1123 20.8034C48.1123 20.7687 48.1036 20.7427 48.0863 20.7254C48.0863 20.7254 48.0863 20.942 48.0863 21.3754C48.0516 21.3754 48.0256 21.3667 48.0083 21.3494C47.9736 21.436 47.9909 21.5054 48.0603 21.5574C48.0603 21.6267 48.0083 21.7047 47.9043 21.7914C47.9043 22.1554 47.9216 22.424 47.9563 22.5974C47.9563 22.5974 48.1296 22.5887 48.4763 22.5714C48.3203 22.5714 48.1296 22.6234 47.9043 22.7274C47.9216 22.762 47.9736 22.7794 48.0603 22.7794L50.9463 22.3374L51.0243 22.4154C51.0416 22.398 51.0676 22.3894 51.1023 22.3894C50.9636 22.4414 50.9463 22.528 51.0503 22.6494C50.9809 22.6494 50.8509 22.684 50.6603 22.7534C50.4869 22.8054 50.3829 22.8314 50.3483 22.8314C50.3309 22.8314 50.3049 22.8227 50.2703 22.8054C50.2529 22.788 50.2269 22.7794 50.1923 22.7794C50.2789 22.7794 49.9323 22.8574 49.1523 23.0134C49.1349 23.048 49.1436 23.0654 49.1783 23.0654C49.2129 23.0654 49.3083 23.048 49.4643 23.0134C49.6376 22.9787 49.7416 22.9614 49.7763 22.9614C49.7936 22.9614 49.8543 22.97 49.9583 22.9874C50.0623 23.0047 50.1403 23.0134 50.1923 23.0134C49.9843 23.0134 49.7069 23.074 49.3603 23.1954C49.3776 23.1954 49.3949 23.204 49.4123 23.2214C49.4469 23.2214 49.4729 23.23 49.4903 23.2474L51.8823 22.7534C51.9169 22.7534 51.9603 22.762 52.0123 22.7794C51.9256 22.814 51.7956 22.8834 51.6223 22.9874C51.6223 23.0394 51.6569 23.0654 51.7263 23.0654C51.7436 23.0654 51.7696 23.0567 51.8043 23.0394C51.8216 23.0394 51.8476 23.0394 51.8823 23.0394C51.8649 23.0394 51.9429 23.074 52.1163 23.1434ZM40.0783 23.0914L40.0523 23.1694L40.0003 23.1434L40.0263 23.0654L40.0783 23.0914ZM45.7723 10.5594H45.7203L45.6423 10.7414L45.6943 10.7674L45.7723 10.5594ZM45.6163 10.8194H45.5643L45.5383 10.9494L45.5903 10.9754L45.6163 10.8194ZM48.5803 17.0854V16.9814H48.5283V17.0854H48.5803ZM48.4763 17.5534V17.4234H48.4243V17.5534H48.4763ZM44.0823 13.7574L44.0303 13.7314L43.9783 13.8354L44.0303 13.8614L44.0823 13.7574ZM44.0043 13.9394V13.8614H43.9523V13.9394H44.0043ZM43.9783 13.9654H43.9263L43.8743 14.0694L43.9263 14.0954L43.9783 13.9654ZM43.8743 14.1994H43.8223L43.6663 14.4594H43.7183L43.8743 14.1994ZM43.6923 14.5114H43.6403L43.5103 14.8234L43.5623 14.8494L43.6923 14.5114ZM48.4503 17.6054C48.4156 17.7787 48.3203 17.978 48.1643 18.2034C48.1989 18.238 48.2249 18.2727 48.2423 18.3074C48.0863 19.0354 47.9476 19.72 47.8263 20.3614C47.6703 20.5 47.5923 20.786 47.5923 21.2194C47.5923 21.202 47.6096 21.176 47.6443 21.1414C47.6789 21.228 47.6963 21.3407 47.6963 21.4794C47.6963 21.566 47.6789 21.7134 47.6443 21.9214C47.6269 22.112 47.6183 22.2507 47.6183 22.3374C47.6183 22.4414 47.6356 22.5367 47.6703 22.6234C47.8609 20.7514 48.1209 19.0787 48.4503 17.6054ZM48.0603 21.0894V20.9334H48.0083V21.0894H48.0603ZM42.8083 16.2274V16.1234H42.7563V16.2274H42.8083ZM42.7043 16.3574H42.6523L42.4963 16.6434L42.5483 16.6694L42.7043 16.3574ZM49.1523 23.2214C49.1349 23.1867 49.0916 23.1694 49.0223 23.1694L48.9443 23.2734L49.1523 23.2214ZM46.2403 15.1614C46.0843 15.4214 45.9023 15.846 45.6943 16.4354C45.6769 16.4007 45.6509 16.3747 45.6163 16.3574L44.1863 19.4774L44.1343 19.4514L42.8863 22.6234C43.2676 22.5367 43.6316 22.4934 43.9783 22.4934C43.9956 22.4934 44.0216 22.4847 44.0563 22.4674C44.1083 22.4327 44.1516 22.4154 44.1863 22.4154C44.3076 22.4154 44.3856 22.424 44.4203 22.4414C44.4203 22.528 44.3683 22.5714 44.2643 22.5714C44.2296 22.5714 44.2123 22.5714 44.2123 22.5714C44.2296 22.554 44.2209 22.5454 44.1863 22.5454C44.1169 22.5454 43.8743 22.6234 43.4583 22.7794C43.0596 22.9354 42.8169 23.0394 42.7303 23.0914C42.7129 23.178 42.6783 23.3167 42.6263 23.5074C42.8689 23.4727 43.1723 23.4294 43.5363 23.3774C43.9003 23.308 44.4376 23.204 45.1483 23.0654C45.1829 22.58 45.2263 21.878 45.2783 20.9594C45.3996 20.7687 45.4256 20.526 45.3563 20.2314C45.3736 20.1794 45.3996 20.1187 45.4343 20.0494L45.9023 16.7474C45.9369 16.5914 46.0149 16.3054 46.1363 15.8894C46.1709 15.716 46.2056 15.4734 46.2403 15.1614ZM45.9543 19.7114C45.8849 19.642 45.8503 19.6507 45.8503 19.7374C45.8503 19.9107 45.8503 20.0234 45.8503 20.0754C45.8329 20.11 45.8069 20.1534 45.7723 20.2054C45.7549 20.24 45.7463 20.266 45.7463 20.2834C45.7463 20.2834 45.7376 20.5174 45.7203 20.9854C45.7029 21.436 45.6943 21.774 45.6943 21.9994L45.9543 19.7114ZM47.2803 22.6494V22.5454H47.2023V22.6494H47.2803ZM49.0483 24.7554L48.9183 24.7034V24.7554L49.0223 24.8074L49.0483 24.7554ZM47.4103 26.0814V25.2234H47.3583V26.0814H47.4103ZM47.2283 25.9514C47.2109 25.9167 47.1936 25.8907 47.1763 25.8734C47.1763 25.856 47.1763 25.8387 47.1763 25.8214L47.1243 25.9774C47.1589 25.9774 47.1936 25.9687 47.2283 25.9514ZM47.6963 28.2134C47.7136 27.676 47.7049 27.3467 47.6703 27.2254H47.6183C47.6009 27.78 47.6009 28.1007 47.6183 28.1874L47.6963 28.2134ZM47.5143 28.3174V27.9274H47.4623V28.3174H47.5143ZM40.6503 21.9474L40.5983 21.9214L40.5463 22.0254H40.5983L40.6503 21.9474ZM47.6443 29.2534H47.5923L47.5663 29.3834H47.6183L47.6443 29.2534ZM39.8443 23.9754V23.8974H39.7923V23.9754H39.8443ZM45.6943 16.7994H45.6423V16.6174H45.6943V16.7994ZM47.7223 21.0374H47.6703V20.9334H47.7223V21.0374ZM45.3043 18.6974H45.2523V18.5934H45.3043V18.6974ZM44.7843 22.5454C44.7149 22.5454 44.6629 22.5454 44.6283 22.5454C44.5936 22.5107 44.5936 22.4674 44.6283 22.4154C44.6976 22.4327 44.7496 22.45 44.7843 22.4674V22.5454ZM65.2763 27.4854H65.0683C65.051 27.468 65.0423 27.4507 65.0423 27.4334C65.0597 27.416 65.051 27.4074 65.0163 27.4074C64.9123 27.4074 64.869 27.416 64.8863 27.4334C64.973 27.3814 65.103 27.3987 65.2763 27.4854ZM70.0863 23.4554C69.9823 23.542 69.8783 23.6114 69.7743 23.6634L69.4623 23.6114C69.4797 23.5767 69.549 23.49 69.6703 23.3514C69.7397 23.282 69.809 23.2474 69.8783 23.2474H70.0343L70.0863 23.2994V23.4554ZM55.2923 8.99937C55.2923 9.0687 55.249 9.1467 55.1623 9.23337C55.1277 9.23337 55.0757 9.20737 55.0063 9.15537C54.937 9.10337 54.8677 9.07737 54.7983 9.07737C54.7983 8.9387 54.859 8.86937 54.9803 8.86937C54.963 8.86937 55.0497 8.86937 55.2403 8.86937C55.275 8.8867 55.2923 8.93004 55.2923 8.99937ZM69.7743 25.6134C69.7223 25.6654 69.6703 25.6914 69.6183 25.6914C69.549 25.6394 69.5143 25.596 69.5143 25.5614C69.5143 25.4747 69.549 25.4314 69.6183 25.4314C69.6877 25.466 69.7397 25.5267 69.7743 25.6134ZM54.1223 11.2874C54.105 11.3047 54.0963 11.348 54.0963 11.4174C53.8537 11.4174 53.7497 11.4087 53.7843 11.3914C53.871 11.374 53.9837 11.3394 54.1223 11.2874ZM53.1083 10.6374C53.1083 10.672 53.0823 10.7327 53.0303 10.8194C52.9957 10.8887 52.9783 10.9407 52.9783 10.9754H52.8223C52.7877 10.9754 52.7617 10.958 52.7443 10.9234C52.727 10.8887 52.701 10.8714 52.6663 10.8714C52.6317 10.8714 52.6143 10.8714 52.6143 10.8714C52.597 10.8887 52.571 10.8974 52.5363 10.8974C52.4323 10.8974 52.3457 10.8194 52.2763 10.6634C52.2763 10.3514 52.3977 10.1954 52.6403 10.1954C52.727 10.1954 52.8223 10.2474 52.9263 10.3514C53.0477 10.4554 53.1083 10.5507 53.1083 10.6374ZM69.9823 24.3394C69.965 24.374 69.9303 24.4174 69.8783 24.4694C69.8263 24.5214 69.7483 24.5994 69.6443 24.7034C69.7137 24.79 69.8003 24.8247 69.9043 24.8074C69.887 24.8767 69.8437 24.92 69.7743 24.9374C69.705 24.9374 69.6443 24.946 69.5923 24.9634C69.523 25.0847 69.4277 25.1627 69.3063 25.1974C69.1157 25.2667 69.003 25.3187 68.9683 25.3534C69.055 25.44 69.1243 25.4834 69.1763 25.4834C69.211 25.4834 69.237 25.4747 69.2543 25.4574C69.289 25.44 69.315 25.4314 69.3323 25.4314C69.367 25.4834 69.3843 25.518 69.3843 25.5354C69.2457 25.5527 69.0637 25.6307 68.8383 25.7694C68.4917 25.7174 68.0843 25.83 67.6163 26.1074V26.2634C67.6683 26.3154 67.703 26.3414 67.7203 26.3414C67.7377 26.3414 67.7723 26.3154 67.8243 26.2634C67.8417 26.2807 67.885 26.324 67.9543 26.3934C67.9717 26.376 67.989 26.3327 68.0063 26.2634C68.2663 26.2114 68.3443 26.1854 68.2403 26.1854H68.5263C68.5437 26.2374 68.5523 26.3154 68.5523 26.4194C68.5523 26.6794 68.4137 26.8094 68.1363 26.8094C68.1017 26.8094 68.0237 26.7834 67.9023 26.7314C67.7983 26.6794 67.729 26.6534 67.6943 26.6534C67.5903 26.6534 67.3043 26.74 66.8363 26.9134C66.8363 26.948 66.8363 27.0087 66.8363 27.0954C66.5763 27.234 66.4117 27.3034 66.3423 27.3034C66.325 27.3034 66.2643 27.3034 66.1603 27.3034C66.0737 27.286 66.0043 27.2774 65.9523 27.2774C65.8483 27.2774 65.6837 27.286 65.4583 27.3034C65.2503 27.3207 65.1377 27.3294 65.1203 27.3294H64.6523C64.7043 27.364 64.765 27.3814 64.8343 27.3814C64.7997 27.3814 64.7477 27.3814 64.6783 27.3814C64.6263 27.3814 64.583 27.3814 64.5483 27.3814C64.479 27.3814 64.427 27.3987 64.3923 27.4334C64.5657 27.52 65.1203 27.5634 66.0563 27.5634C66.507 27.5634 66.8017 27.5114 66.9403 27.4074L67.1743 27.4594C66.845 27.5634 66.559 27.6327 66.3163 27.6674C65.9697 27.6674 65.4497 27.6847 64.7563 27.7194C64.7563 27.754 64.7303 27.7714 64.6783 27.7714C64.6437 27.7714 64.6263 27.7627 64.6263 27.7454C64.6263 27.7107 64.609 27.6934 64.5743 27.6934C64.5397 27.6934 64.5223 27.7107 64.5223 27.7454C64.5397 27.7627 64.531 27.7714 64.4963 27.7714C64.4617 27.7714 64.4357 27.7627 64.4183 27.7454C64.4183 27.7107 64.4183 27.6934 64.4183 27.6934C64.141 27.6414 63.777 27.5287 63.3263 27.3554C62.9797 27.1127 62.7457 26.9914 62.6243 26.9914C62.5897 26.9914 62.5723 27 62.5723 27.0174C62.5897 27.0347 62.581 27.0434 62.5463 27.0434C62.529 27.0434 62.5203 27.0347 62.5203 27.0174C62.5203 27 62.503 26.9914 62.4683 26.9914C62.3817 26.9914 61.983 26.7487 61.2723 26.2634C60.3017 25.5874 59.5563 24.712 59.0363 23.6374C58.9497 23.5334 58.837 23.3774 58.6983 23.1694C58.577 22.9614 58.1783 22.2074 57.5023 20.9074C57.4503 20.9594 57.4157 20.9854 57.3983 20.9854C57.3637 20.9854 57.3463 20.9767 57.3463 20.9594C57.3463 20.942 57.329 20.9334 57.2943 20.9334C57.069 20.9334 56.9477 21.0894 56.9303 21.4014C56.913 21.6267 56.9043 21.852 56.9043 22.0774C56.887 22.0774 56.8523 22.0947 56.8003 22.1294C56.8003 22.164 56.8263 22.2074 56.8783 22.2594C56.8437 22.294 56.783 22.3547 56.6963 22.4414C56.6963 22.5454 56.679 22.7187 56.6443 22.9614C56.627 23.204 56.6183 23.386 56.6183 23.5074C56.5663 23.49 56.5057 23.4987 56.4363 23.5334C56.4363 23.5854 56.497 23.6374 56.6183 23.6894V23.8974C56.5837 23.9494 56.523 23.958 56.4363 23.9234L56.4103 23.9494V24.0534C56.4623 24.088 56.523 24.1054 56.5923 24.1054C56.627 24.2267 56.601 24.3827 56.5143 24.5734C56.5837 24.5907 56.627 24.6514 56.6443 24.7554C56.6443 24.9114 56.6617 25.024 56.6963 25.0934C56.6617 25.128 56.601 25.18 56.5143 25.2494C56.5143 25.4054 56.549 25.5007 56.6183 25.5354C56.601 25.518 56.575 25.5527 56.5403 25.6394C56.5403 25.6567 56.549 25.6827 56.5663 25.7174C56.5143 25.7867 56.4883 25.882 56.4883 26.0034C56.419 28.2567 56.3843 29.2794 56.3843 29.0714C56.367 28.794 56.3323 28.3954 56.2803 27.8754C56.3323 27.7194 56.3583 27.546 56.3583 27.3554V27.1994C56.341 27.182 56.315 27.1734 56.2803 27.1734C56.263 27.1907 56.2803 27.2254 56.3323 27.2774C56.2977 27.2947 56.2283 27.3034 56.1243 27.3034C56.1243 27.494 56.1157 27.7974 56.0983 28.2134C56.081 28.3347 56.0463 28.456 55.9943 28.5774C55.9423 28.6987 55.9337 28.8114 55.9683 28.9154C55.9337 29.0887 55.873 29.3574 55.7863 29.7214C55.7863 29.5134 55.7517 29.366 55.6823 29.2794C55.6823 29.2794 55.691 29.2534 55.7083 29.2014C55.6563 29.132 55.6303 29.0627 55.6303 28.9934L55.4483 25.0154C55.3963 24.9634 55.3617 24.9374 55.3443 24.9374L55.2403 29.4354H55.1103C55.1277 29.418 55.1363 29.3834 55.1363 29.3314C55.1363 29.4354 55.0757 29.3227 54.9543 28.9934C54.9543 28.8547 54.9457 28.7247 54.9283 28.6034C54.8937 28.378 54.7897 28.248 54.6163 28.2134V27.9534C54.5817 27.9014 54.5557 27.8754 54.5383 27.8754C54.5037 27.9794 54.495 28.0834 54.5123 28.1874C54.3737 28.3954 54.3823 28.612 54.5383 28.8374V29.4874C54.5037 29.3487 54.4257 29.2014 54.3043 29.0454C54.2003 29.08 54.1483 29.158 54.1483 29.2794C54.1657 29.5047 54.1743 29.6434 54.1743 29.6954C54.157 29.6954 54.1223 29.704 54.0703 29.7214C54.0357 29.7387 54.0097 29.7474 53.9923 29.7474C53.9923 29.678 53.9577 29.5654 53.8883 29.4094L53.6803 26.5494C53.6457 26.4974 53.6197 26.4714 53.6023 26.4714C53.5677 26.6447 53.5503 26.7834 53.5503 26.8874V28.1094C53.5503 28.4907 53.5417 28.716 53.5243 28.7854C53.5243 28.716 53.4897 28.6207 53.4203 28.4994C53.4377 28.326 53.429 28.17 53.3943 28.0314C53.3943 27.9794 53.3683 27.9274 53.3163 27.8754C53.3163 27.494 53.2903 26.8094 53.2383 25.8214C53.1863 24.8334 53.1603 24.348 53.1603 24.3654L53.2903 21.8434H53.3683L53.5503 19.2434C53.5503 19.226 53.5677 19.1307 53.6023 18.9574C53.637 18.784 53.663 18.6714 53.6803 18.6194C53.6977 18.238 53.7497 17.6747 53.8363 16.9294C53.871 16.8774 53.9057 16.808 53.9403 16.7214C53.923 16.6867 53.9143 16.6347 53.9143 16.5654C53.9317 16.548 53.949 16.522 53.9663 16.4874C54.0183 16.1407 54.0963 15.6727 54.2003 15.0834C54.3217 14.4767 54.4603 13.922 54.6163 13.4194C54.287 13.402 54.027 13.4367 53.8363 13.5234C53.715 13.61 53.4897 13.7747 53.1603 14.0174C53.1257 14.0174 53.065 14.0347 52.9783 14.0694C52.961 14.0694 52.9437 14.104 52.9263 14.1734C52.8397 14.2774 52.7443 14.3294 52.6403 14.3294C52.6923 14.3294 52.6057 14.2774 52.3803 14.1734V13.8874C52.3803 13.7314 52.597 13.5667 53.0303 13.3934C53.0477 13.3934 53.065 13.402 53.0823 13.4194C53.0997 13.4194 53.1257 13.4194 53.1603 13.4194C53.1777 13.4194 53.2123 13.402 53.2643 13.3674C53.3163 13.3154 53.3597 13.2894 53.3943 13.2894C53.429 13.2894 53.4377 13.2894 53.4203 13.2894C53.4203 13.3067 53.4377 13.3154 53.4723 13.3154C53.5417 13.3154 53.637 13.272 53.7583 13.1854C53.6717 13.1334 53.507 13.0727 53.2643 13.0034C53.2297 12.9687 53.1863 12.9167 53.1343 12.8474C53.2903 12.8127 53.5157 12.7434 53.8103 12.6394C53.7757 12.5874 53.5157 12.4834 53.0303 12.3274C53.3077 12.362 53.7237 12.2234 54.2783 11.9114C54.3303 11.8767 54.3303 11.8594 54.2783 11.8594C54.209 11.8594 54.0183 11.92 53.7063 12.0414H53.5763C53.559 11.972 53.5503 11.9287 53.5503 11.9114C53.7237 11.79 54.0703 11.6254 54.5903 11.4174C55.041 11.2614 55.3617 11.0707 55.5523 10.8454C55.431 10.8107 55.275 10.8454 55.0843 10.9494C54.807 11.1054 54.651 11.1834 54.6163 11.1834H54.4603V11.0794C54.4777 11.0794 54.5383 11.0447 54.6423 10.9754C54.6423 10.958 54.651 10.9234 54.6683 10.8714C55.119 10.6114 55.4743 10.4294 55.7343 10.3254C55.8557 10.308 55.9857 10.2214 56.1243 10.0654C56.2803 10.0307 56.4537 9.98737 56.6443 9.93537C56.835 9.86604 56.9737 9.71004 57.0603 9.46737C57.0603 9.4847 57.0517 9.52804 57.0343 9.59737C57.0343 9.6667 57.0343 9.72737 57.0343 9.77937C57.1557 9.7447 57.4937 9.6667 58.0483 9.54537C58.135 9.54537 58.2477 9.52804 58.3863 9.49337C58.5423 9.44137 58.8717 9.41537 59.3743 9.41537C59.4783 9.41537 59.617 9.4327 59.7903 9.46737C59.981 9.50204 60.4577 9.6147 61.2203 9.80537C61.619 9.90937 61.801 9.96137 61.7663 9.96137C61.7837 9.96137 61.7923 9.96137 61.7923 9.96137C61.7923 9.94404 61.801 9.93537 61.8183 9.93537C61.8877 9.93537 62.113 10.0567 62.4943 10.2994C63.673 11.01 64.4097 12.0067 64.7043 13.2894C64.8257 13.7574 64.8863 14.104 64.8863 14.3294V15.3954C64.8517 15.482 64.791 15.6034 64.7043 15.7594C64.4617 16.1407 64.3403 16.418 64.3403 16.5914C64.4097 16.5567 64.4703 16.4787 64.5223 16.3574C64.5917 16.236 64.6697 16.1754 64.7563 16.1754H64.9123V16.3054C64.9123 16.34 64.791 16.5394 64.5483 16.9034C64.4443 17.094 64.2797 17.354 64.0543 17.6834C63.0143 18.8274 62.191 19.564 61.5843 19.8934C61.671 19.7894 62.0783 19.3734 62.8063 18.6454C62.789 18.6454 62.763 18.6454 62.7283 18.6454C62.711 18.6454 62.659 18.654 62.5723 18.6714C62.2603 19.0354 62.0437 19.2174 61.9223 19.2174C61.8877 19.2174 61.8703 19.2087 61.8703 19.1914C61.8703 19.174 61.853 19.1654 61.8183 19.1654C61.7663 19.1654 61.645 19.2607 61.4543 19.4514C61.2637 19.642 61.1683 19.7547 61.1683 19.7894C61.1683 19.7547 61.1943 19.8154 61.2463 19.9714C61.5583 20.786 61.8877 21.41 62.2343 21.8434C62.6677 22.3634 63.101 22.7534 63.5343 23.0134C63.5863 23.048 64.0457 23.2474 64.9123 23.6114C64.8603 23.646 64.817 23.6807 64.7823 23.7154C64.765 23.698 64.7477 23.6894 64.7303 23.6894C64.713 23.7067 64.6957 23.724 64.6783 23.7414C64.6783 23.7587 64.6697 23.776 64.6523 23.7934C64.7043 23.8454 64.7997 23.9234 64.9383 24.0274C65.2677 24.1487 65.519 24.2094 65.6923 24.2094C65.727 24.2094 65.831 24.2267 66.0043 24.2614C66.1777 24.2787 66.2817 24.2874 66.3163 24.2874C66.4203 24.2874 66.533 24.244 66.6543 24.1574C66.5677 24.1227 66.4723 24.1054 66.3683 24.1054C66.3337 24.1054 66.2817 24.1054 66.2123 24.1054C66.143 24.1227 66.091 24.1314 66.0563 24.1314C66.039 24.1314 65.9697 24.0967 65.8483 24.0274C66.0217 24.0274 66.1083 24.036 66.1083 24.0534C65.831 23.9667 65.7097 23.9234 65.7443 23.9234C65.6923 23.9234 65.6663 23.958 65.6663 24.0274C65.6663 24.0274 65.6143 23.9927 65.5103 23.9234C65.4583 23.9234 65.3803 23.9147 65.2763 23.8974C65.2417 23.88 65.1983 23.854 65.1463 23.8194V23.6894C65.1463 23.672 65.1723 23.6634 65.2243 23.6634C65.259 23.6634 65.2763 23.672 65.2763 23.6894C65.2937 23.7067 65.3197 23.7154 65.3543 23.7154C65.3717 23.7154 65.3717 23.7067 65.3543 23.6894C65.3543 23.672 65.3717 23.6634 65.4063 23.6634C65.4063 23.6634 65.4497 23.698 65.5363 23.7674C65.6923 23.7847 65.779 23.7934 65.7963 23.7934C65.831 23.7934 66.1257 23.8107 66.6803 23.8454C67.235 23.8627 67.5297 23.8714 67.5643 23.8714C67.5123 23.8714 67.833 23.828 68.5263 23.7414C68.5783 23.724 68.6043 23.698 68.6043 23.6634H68.7603L68.8643 23.7414C68.6043 23.8627 68.431 23.9667 68.3443 24.0534C68.379 24.088 68.405 24.1054 68.4223 24.1054C68.5957 24.1054 68.847 24.0534 69.1763 23.9494C69.1763 24.0014 69.185 24.062 69.2023 24.1314L69.2803 24.0534C69.2977 24.0534 69.315 24.0794 69.3323 24.1314C69.3497 24.166 69.3757 24.1834 69.4103 24.1834C69.445 24.1834 69.4623 24.1747 69.4623 24.1574C69.4797 24.14 69.497 24.1314 69.5143 24.1314C69.5317 24.1314 69.627 24.1487 69.8003 24.1834C69.8177 24.2007 69.8783 24.2527 69.9823 24.3394ZM52.9523 11.2094L52.6923 11.3134V11.2614L52.9263 11.1574L52.9523 11.2094ZM53.3163 11.3134C53.2297 11.3654 53.0823 11.4434 52.8743 11.5474C52.7357 11.634 52.623 11.7207 52.5363 11.8074C52.467 11.894 52.389 11.9374 52.3023 11.9374C52.2157 11.9374 52.1463 11.92 52.0943 11.8854V11.7554C52.1637 11.686 52.2763 11.582 52.4323 11.4434C52.5363 11.374 52.6317 11.3394 52.7183 11.3394C52.753 11.3394 52.7703 11.348 52.7703 11.3654C52.7877 11.3827 52.8137 11.3914 52.8483 11.3914C52.935 11.3914 53.0737 11.3307 53.2643 11.2094C53.299 11.2094 53.3163 11.244 53.3163 11.3134ZM67.1483 27.0954H66.9403V27.0174H67.1483V27.0954ZM56.3583 27.1214C56.341 27.052 56.3063 27.0174 56.2543 27.0174C56.2717 27 56.3063 26.9827 56.3583 26.9654V27.1214ZM61.7923 14.9794C61.7923 14.9794 61.749 14.7714 61.6623 14.3554C61.6623 14.3727 61.6537 14.3987 61.6363 14.4334C61.619 14.468 61.6017 14.494 61.5843 14.5114C61.5843 14.3727 61.5583 14.1907 61.5063 13.9654C61.4543 13.7227 61.2983 13.48 61.0383 13.2374C60.9343 13.1334 60.7697 13.038 60.5443 12.9514C60.4057 12.8994 60.163 12.856 59.8163 12.8214C59.747 12.804 59.4263 12.7954 58.8543 12.7954C58.8197 12.7954 58.7763 12.8474 58.7243 12.9514C58.655 12.9514 58.5597 12.9687 58.4383 13.0034C58.4383 13.3327 58.447 13.4454 58.4643 13.3414C58.4643 13.3414 58.4037 13.532 58.2823 13.9134C58.265 13.9827 58.1697 14.3467 57.9963 15.0054C57.8923 15.404 57.8057 15.8114 57.7363 16.2274C57.6843 16.3314 57.641 16.4874 57.6063 16.6954C57.5717 16.9034 57.537 17.1807 57.5023 17.5274C57.5023 17.562 57.485 17.5967 57.4503 17.6314C57.4157 17.666 57.3983 17.7007 57.3983 17.7354V17.8914C57.3983 17.8914 57.4763 17.926 57.6323 17.9954C57.6323 18.0994 57.6497 18.186 57.6843 18.2554C57.7883 18.1687 57.849 18.1254 57.8663 18.1254C57.8663 18.1254 57.8923 18.1427 57.9443 18.1774L58.0483 18.0994C58.0483 17.9954 58.0397 17.8567 58.0223 17.6834C57.9877 17.614 57.9703 17.5794 57.9703 17.5794C58.0397 17.51 58.083 17.4754 58.1003 17.4754C58.1523 17.4754 58.1783 17.536 58.1783 17.6574C58.1783 17.692 58.161 17.744 58.1263 17.8134C58.109 17.8827 58.1003 17.9347 58.1003 17.9694C58.187 17.7267 58.3083 17.6227 58.4643 17.6574C58.6377 17.8827 58.759 17.9954 58.8283 17.9954C58.915 17.9954 58.9757 17.978 59.0103 17.9434C59.0103 17.8394 58.9323 17.7267 58.7763 17.6054C58.6377 17.4667 58.5683 17.3454 58.5683 17.2414C58.5683 17.1894 58.5683 17.1547 58.5683 17.1374C58.6897 17.0507 58.7763 17.0074 58.8283 17.0074C58.863 17.0074 59.0103 17.1374 59.2703 17.3974C59.2877 17.38 59.227 17.3714 59.0883 17.3714V17.5534C59.1403 17.6054 59.227 17.6747 59.3483 17.7614C59.383 17.6747 59.4783 17.6314 59.6343 17.6314C59.6517 17.5794 59.6863 17.5187 59.7383 17.4494C59.7557 17.4494 59.7903 17.4407 59.8423 17.4234C60.0157 17.2847 60.137 17.1894 60.2063 17.1374C60.4143 16.9987 60.7523 16.6954 61.2203 16.2274C61.203 16.21 61.1943 16.1927 61.1943 16.1754C61.593 15.846 61.7923 15.4474 61.7923 14.9794ZM62.0263 18.9574L61.9743 18.9314L61.9223 19.0354H61.9743L62.0263 18.9574ZM61.2983 19.2434C61.2463 19.1914 61.1943 19.1654 61.1423 19.1654C61.0557 19.2347 61.0123 19.304 61.0123 19.3734C61.0123 19.4427 61.0297 19.4947 61.0643 19.5294C61.1683 19.4254 61.2463 19.33 61.2983 19.2434ZM67.0183 26.1854C67.0183 26.1854 67.001 26.194 66.9663 26.2114C66.9317 26.2114 66.9057 26.2114 66.8883 26.2114C66.8883 26.2807 66.923 26.3154 66.9923 26.3154C67.0097 26.298 67.0183 26.2547 67.0183 26.1854ZM57.1903 19.4774V19.3474H57.1383V19.4774H57.1903ZM56.3843 26.8354V26.4454H56.3063V26.8354H56.3843ZM59.2183 13.1074H59.0883V13.0554H59.2183V13.1074ZM59.0363 13.0294V13.0814L58.8543 12.9774L58.8803 12.9254L59.0363 13.0294ZM58.5683 17.5014C58.499 17.5187 58.4123 17.562 58.3083 17.6314C58.2563 17.5794 58.2303 17.5187 58.2303 17.4494C58.3517 17.432 58.4643 17.4494 58.5683 17.5014ZM73.1101 31.2034H73.0321V31.0994H73.1101V31.2034ZM72.9801 32.1134H72.9021V31.6974H72.9801V32.1134ZM85.0961 13.6274H84.8361V13.5494H85.0961V13.6274ZM83.5101 12.4314L83.4841 12.4574L83.4061 12.4054L83.4581 12.3534L83.5101 12.4314ZM84.3421 13.6274H84.1861V13.5494H84.3421V13.6274ZM83.3541 12.4314C83.3021 12.4314 83.2154 12.44 83.0941 12.4574C82.9901 12.4747 82.9207 12.4834 82.8861 12.4834C82.8514 12.4834 82.8341 12.4487 82.8341 12.3794C82.9901 12.414 83.1634 12.4314 83.3541 12.4314ZM81.1441 13.0294H80.9881V12.9514H81.1441V13.0294ZM80.9361 13.0294H80.8321V12.9514H80.9361V13.0294ZM77.8421 9.62337C77.8421 9.77937 77.7814 9.97004 77.6601 10.1954C77.5561 10.2647 77.4261 10.3254 77.2701 10.3774C77.2701 10.3947 77.2527 10.4294 77.2181 10.4814C77.2007 10.516 77.1747 10.5334 77.1401 10.5334C77.0534 10.5334 76.8714 10.438 76.5941 10.2474C76.6807 9.60604 76.8801 9.28537 77.1921 9.28537C77.2614 9.28537 77.4781 9.39804 77.8421 9.62337ZM75.2421 10.3774C75.1901 10.568 75.0601 10.7934 74.8521 11.0534C74.8347 11.036 74.7914 10.958 74.7221 10.8194C74.8261 10.7327 74.9994 10.5854 75.2421 10.3774ZM73.9161 11.1834C73.7774 11.3567 73.6647 11.4434 73.5781 11.4434C73.3874 11.4434 73.2921 11.3567 73.2921 11.1834L73.3701 11.0534C73.3354 11.0534 73.4221 11.1054 73.6301 11.2094C73.7341 11.1574 73.8034 11.1227 73.8381 11.1054L73.9161 11.1834ZM74.1241 11.8074C74.1241 11.8767 74.0634 11.972 73.9421 12.0934C73.8554 11.9547 73.8641 11.8247 73.9681 11.7034C74.0721 11.7034 74.1241 11.738 74.1241 11.8074ZM86.1621 13.2114C86.0581 13.1767 85.8674 13.1594 85.5901 13.1594C85.5727 13.1594 85.5554 13.1767 85.5381 13.2114C85.5381 13.2287 85.5207 13.2374 85.4861 13.2374C85.4514 13.2374 85.4341 13.2287 85.4341 13.2114C85.4514 13.1767 85.4514 13.1594 85.4341 13.1594C85.0701 13.1594 84.8101 13.1767 84.6541 13.2114C84.5674 13.246 84.4894 13.298 84.4201 13.3674C84.4547 13.3674 84.7234 13.3674 85.2261 13.3674C85.2087 13.4367 85.2174 13.558 85.2521 13.7314C85.2174 13.7487 85.1481 13.7747 85.0441 13.8094C84.4027 13.844 83.5101 13.8787 82.3661 13.9134C82.3661 13.9307 82.3574 13.948 82.3401 13.9654C82.3227 13.9827 82.3141 14 82.3141 14.0174C82.6261 14.0694 82.9467 14.0954 83.2761 14.0954C83.3107 14.0954 83.3541 14.0867 83.4061 14.0694C83.4581 14.0347 83.5014 14.0174 83.5361 14.0174C83.5707 14.0174 83.6054 14.0174 83.6401 14.0174C83.6574 14.0347 83.6834 14.0434 83.7181 14.0434C83.6661 14.0434 83.7267 14.0087 83.9001 13.9394C83.9174 13.974 83.9607 14.026 84.0301 14.0954C84.0474 14.078 84.0647 14.052 84.0821 14.0174C84.0994 13.9654 84.1167 13.9394 84.1341 13.9394C84.1167 13.974 84.1081 14 84.1081 14.0174C84.1427 14.0694 84.1774 14.0954 84.2121 14.0954C84.3334 14.0954 84.4287 14.0607 84.4981 13.9914C84.4807 13.9567 84.4461 13.9567 84.3941 13.9914C84.3941 13.974 84.4114 13.9394 84.4461 13.8874C84.5154 13.8874 84.5674 13.9307 84.6021 14.0174C84.6887 13.9307 84.7407 13.8874 84.7581 13.8874C84.7407 13.8874 84.7667 13.9307 84.8361 14.0174C84.9054 13.9827 84.9747 13.9307 85.0441 13.8614C85.0441 13.8787 85.0267 13.9047 84.9921 13.9394C84.9747 13.9567 84.9747 13.9827 84.9921 14.0174C85.0267 13.9827 85.0961 13.9654 85.2001 13.9654C85.2347 13.9307 85.2174 13.9134 85.1481 13.9134C85.2521 13.844 85.3734 13.8094 85.5121 13.8094C85.6334 13.8094 85.7374 13.8614 85.8241 13.9654L85.7721 14.0174C84.4721 14.0694 82.9727 14.234 81.2741 14.5114C81.2914 14.5114 81.3261 14.5287 81.3781 14.5634C81.4821 14.5634 81.9501 14.5634 82.7821 14.5634C82.8167 14.5634 82.8341 14.5547 82.8341 14.5374C82.8514 14.5027 82.8774 14.4854 82.9121 14.4854C82.9294 14.4854 82.9901 14.5027 83.0941 14.5374C83.1981 14.572 83.2674 14.5894 83.3021 14.5894C83.1981 14.676 83.0421 14.7194 82.8341 14.7194C82.4701 14.7367 82.2707 14.754 82.2361 14.7714C82.2187 14.7887 82.1841 14.8147 82.1321 14.8494C82.0974 14.8667 82.0281 14.884 81.9241 14.9014C81.8201 14.9187 81.7594 14.9274 81.7421 14.9274C81.7074 14.9274 81.6554 14.9187 81.5861 14.9014C81.5341 14.884 81.4907 14.8754 81.4561 14.8754C81.3521 14.8754 81.2741 14.884 81.2221 14.9014C81.2221 14.988 81.1874 15.04 81.1181 15.0574C81.0661 15.0747 80.5287 15.1007 79.5061 15.1354C79.3674 15.1354 79.1421 15.1614 78.8301 15.2134C78.5354 15.2654 78.3794 15.2914 78.3621 15.2914C78.3274 15.2914 78.2581 15.2914 78.1541 15.2914C78.0501 15.3087 77.9807 15.3174 77.9461 15.3174C77.9287 15.3174 77.8767 15.3347 77.7901 15.3694C77.7034 15.3867 77.6427 15.3954 77.6081 15.3954C77.5734 15.3954 77.5647 15.3954 77.5821 15.3954C77.5821 15.378 77.5647 15.3694 77.5301 15.3694C77.4087 15.3694 77.3307 15.4127 77.2961 15.4994C77.1227 15.898 76.9667 16.496 76.8281 17.2934C76.8281 17.3107 76.8367 17.3367 76.8541 17.3714C76.9581 16.99 77.1141 16.444 77.3221 15.7334C77.3394 15.7334 77.3654 15.742 77.4001 15.7594C77.4521 15.7594 77.4781 15.7594 77.4781 15.7594C77.5127 15.69 77.5647 15.6034 77.6341 15.4994C77.5821 15.6727 77.2441 16.99 76.6201 19.4514C76.6201 19.4687 76.6287 19.4947 76.6461 19.5294C76.5767 19.6854 76.4987 20.006 76.4121 20.4914C76.3081 21.15 76.2387 21.566 76.2041 21.7394C76.0134 22.5714 75.8401 23.5507 75.6841 24.6774C75.5281 25.908 75.3894 26.818 75.2681 27.4074C75.2681 27.3727 75.2594 27.286 75.2421 27.1474C75.2247 26.9914 75.2161 26.9047 75.2161 26.8874C75.2161 26.8874 75.2334 26.6534 75.2681 26.1854C75.3201 25.7174 75.3461 25.3534 75.3461 25.0934C75.3114 25.128 75.2941 25.18 75.2941 25.2494C75.2941 25.232 75.2594 25.2234 75.1901 25.2234C75.0861 25.2234 74.9907 25.5007 74.9041 26.0554C74.8521 26.454 74.7914 26.8787 74.7221 27.3294C74.7221 27.364 74.7047 27.442 74.6701 27.5634C74.6527 27.6674 74.6354 27.8234 74.6181 28.0314C74.6007 28.066 74.5661 28.1094 74.5141 28.1614C74.5141 28.2307 74.5574 28.2654 74.6441 28.2654L74.5141 29.1234C74.4101 29.1234 74.3581 29.0974 74.3581 29.0454C74.3581 29.028 74.3841 28.7247 74.4361 28.1354C74.4881 27.546 74.5227 27.104 74.5401 26.8094C74.4707 26.844 74.4187 26.9307 74.3841 27.0694C74.3667 25.9947 74.5314 24.5214 74.8781 22.6494C74.8607 22.58 74.8521 22.4674 74.8521 22.3114C74.8694 22.242 74.9041 22.1294 74.9561 21.9734C74.9907 21.956 74.9734 21.9474 74.9041 21.9474C74.8001 21.9474 74.7394 22.0514 74.7221 22.2594C74.7221 22.3807 74.7047 22.4847 74.6701 22.5714C74.6527 22.658 74.6181 22.7534 74.5661 22.8574C74.5314 23.2214 74.4621 23.776 74.3581 24.5214C74.1847 25.2667 74.0981 25.9167 74.0981 26.4714C74.0981 26.5234 74.0721 26.636 74.0201 26.8094C74.0374 26.8787 74.0374 27 74.0201 27.1734C74.0027 27.2427 73.9767 27.3554 73.9421 27.5114C73.9247 27.65 73.9074 27.8407 73.8901 28.0834C73.8727 28.326 73.8641 28.4994 73.8641 28.6034V26.2634L73.6041 28.5774C73.6041 28.6987 73.6127 28.7767 73.6301 28.8114C73.6474 28.7767 73.6821 28.7334 73.7341 28.6814H73.7861C73.8034 28.8547 73.7687 28.9587 73.6821 28.9934C73.6994 29.028 73.7254 29.054 73.7601 29.0714C73.7427 29.0887 73.7341 29.1147 73.7341 29.1494C73.7341 29.1147 73.7167 29.08 73.6821 29.0454L73.6041 31.8274C73.5521 31.9487 73.4654 32.1307 73.3441 32.3734C73.3267 32.3214 73.3007 32.252 73.2661 32.1654C73.2487 32.2174 73.2401 32.3127 73.2401 32.4514C73.1881 32.2607 73.1707 32.0267 73.1881 31.7494C73.2227 31.472 73.2227 31.264 73.1881 31.1254C73.1534 31.16 73.1274 31.264 73.1101 31.4374C73.1101 31.4374 73.0841 31.446 73.0321 31.4634C72.9801 31.498 72.9541 31.5327 72.9541 31.5674C72.9541 31.654 72.9107 31.498 72.8241 31.0994C72.8067 31.1167 72.7981 31.1514 72.7981 31.2034C72.7981 30.8914 72.7981 30.458 72.7981 29.9034C72.8327 29.522 72.8587 29.1147 72.8761 28.6814V28.3694C72.8414 28.3174 72.8154 28.2914 72.7981 28.2914C72.7807 28.4474 72.7634 28.6814 72.7461 28.9934C72.6247 29.808 72.5641 30.64 72.5641 31.4894C72.2001 30.5534 72.0181 29.9207 72.0181 29.5914C72.0181 29.21 72.1914 28.664 72.5381 27.9534C72.5207 27.884 72.5121 27.858 72.5121 27.8754C72.5467 27.806 72.5381 27.7367 72.4861 27.6674C72.5901 27.5634 72.6247 27.4767 72.5901 27.4074C72.5554 27.442 72.5381 27.468 72.5381 27.4854C72.5381 27.364 72.5467 27.286 72.5641 27.2514C72.7201 27.0434 72.7374 26.9047 72.6161 26.8354C72.6854 26.766 72.7287 26.6794 72.7461 26.5754C72.7634 26.4367 72.7287 26.3414 72.6421 26.2894C72.6421 26.3067 72.6854 26.2807 72.7721 26.2114C72.6681 26.09 72.6767 25.8994 72.7981 25.6394C72.7981 25.57 72.8154 25.4834 72.8501 25.3794C72.6767 25.31 72.6247 25.2494 72.6941 25.1974C72.7114 25.18 72.7287 25.154 72.7461 25.1194C72.7634 25.0847 72.7461 25.0154 72.6941 24.9114C72.7287 24.9287 72.7547 24.9374 72.7721 24.9374L72.8241 24.9114V24.8074C72.6507 24.7034 72.5641 24.608 72.5641 24.5214C72.5641 24.556 72.6074 24.0534 72.6941 23.0134L73.5781 17.6054H73.6301C73.7687 16.4267 73.8381 15.82 73.8381 15.7854C73.8381 15.6987 73.8207 15.612 73.7861 15.5254C73.6994 15.5427 73.5521 15.586 73.3441 15.6554C73.1361 15.7074 73.0147 15.7334 72.9801 15.7334C72.8934 15.7334 72.7807 15.7507 72.6421 15.7854C72.6767 15.716 72.6941 15.8374 72.6941 16.1494C72.3994 16.236 72.2607 16.2794 72.2781 16.2794C72.2434 16.2794 72.2174 16.2707 72.2001 16.2534C72.2001 16.236 72.1914 16.2274 72.1741 16.2274C72.1047 15.95 72.1047 15.794 72.1741 15.7594C72.0874 15.742 71.9747 15.742 71.8361 15.7594C71.6627 15.794 71.5761 15.8114 71.5761 15.8114C71.6107 15.8114 71.5501 15.768 71.3941 15.6814C71.2554 15.5947 71.1427 15.5514 71.0561 15.5514C71.0214 15.5514 70.9087 15.5687 70.7181 15.6034C70.5274 15.638 70.4147 15.6554 70.3801 15.6554C70.1894 15.6554 70.0854 15.6467 70.0681 15.6294C69.9814 15.5774 69.8601 15.4994 69.7041 15.3954C69.6694 15.3607 69.6521 15.3 69.6521 15.2134C69.6521 15.1094 69.7214 15.0227 69.8601 14.9534C69.8947 14.9534 69.9554 14.9794 70.0421 15.0314C70.1287 15.066 70.1894 15.0834 70.2241 15.0834C70.3107 15.0834 70.3974 15.0574 70.4841 15.0054C70.4147 14.8494 70.3887 14.7714 70.4061 14.7714C70.3714 14.7714 70.3541 14.78 70.3541 14.7974C70.3541 14.7974 70.3367 14.7974 70.3021 14.7974C70.3021 14.7974 70.1547 14.6847 69.8601 14.4594C69.8947 14.442 69.9121 14.3987 69.9121 14.3294H70.1201C70.1027 14.2947 70.0941 14.234 70.0941 14.1474C70.1634 14.1127 70.2847 14.052 70.4581 13.9654C70.4581 13.948 70.4494 13.8267 70.4321 13.6014C70.4321 13.4974 70.3974 13.4454 70.3281 13.4454V13.3154C70.3281 13.2807 70.3367 13.2634 70.3541 13.2634C70.3714 13.246 70.3801 13.2287 70.3801 13.2114C71.9054 12.83 73.1621 12.6307 74.1501 12.6134C74.1847 12.544 74.2367 12.4487 74.3061 12.3274C74.3927 12.2754 74.5314 12.1714 74.7221 12.0154C74.7394 11.9287 74.7481 11.8507 74.7481 11.7814C74.7481 11.9027 74.7654 11.9894 74.8001 12.0414C74.8521 11.972 74.8521 11.894 74.8001 11.8074C74.8521 11.8594 74.8867 11.92 74.9041 11.9894C74.9214 12.0414 74.9734 12.0847 75.0601 12.1194C75.0774 12.154 75.0861 12.1974 75.0861 12.2494C75.0861 12.284 75.1034 12.3274 75.1381 12.3794C75.1381 12.362 75.1987 12.1887 75.3201 11.8594C75.3894 11.6687 75.5194 11.5214 75.7101 11.4174C75.7967 11.4347 75.8401 11.4867 75.8401 11.5734C75.8401 11.66 75.8487 11.712 75.8661 11.7294C75.8661 11.7294 75.9267 11.7294 76.0481 11.7294C76.2214 11.4867 76.4901 11.1747 76.8541 10.7934C76.9754 10.8107 77.0794 10.7934 77.1661 10.7414H77.3481C77.3481 10.7414 77.3567 10.7587 77.3741 10.7934C77.3914 10.8107 77.4001 10.8367 77.4001 10.8714C77.4001 11.0274 77.2874 11.1834 77.0621 11.3394C76.9407 11.4087 76.8367 11.478 76.7501 11.5474C76.6807 11.5994 76.6027 11.6774 76.5161 11.7814L76.4641 11.8074C76.4641 11.8594 76.5074 11.92 76.5941 11.9894C76.5247 11.9547 76.4814 11.9374 76.4641 11.9374C76.4121 11.9374 76.3514 11.998 76.2821 12.1194L76.3081 12.2494C76.3947 12.232 76.5421 12.206 76.7501 12.1714C76.7501 12.2407 76.8021 12.3447 76.9061 12.4834C76.9754 12.466 77.0101 12.3794 77.0101 12.2234C77.0101 11.998 77.0101 11.8767 77.0101 11.8594C77.0621 11.8594 77.1401 11.7814 77.2441 11.6254C77.3134 11.66 77.4261 11.764 77.5821 11.9374C77.6167 12.0414 77.6687 12.1974 77.7381 12.4054C77.6861 12.4054 78.0934 12.4054 78.9601 12.4054C78.9947 12.4054 79.1594 12.3967 79.4541 12.3794C79.7661 12.3794 79.9394 12.3794 79.9741 12.3794C80.1647 12.3794 80.7714 12.3447 81.7941 12.2754C81.6554 12.2927 81.4561 12.336 81.1961 12.4054C81.1961 12.4054 81.2394 12.4054 81.3261 12.4054C81.3434 12.4054 81.4214 12.414 81.5601 12.4314C81.7161 12.4314 81.8201 12.4314 81.8721 12.4314C81.9241 12.4314 81.9934 12.4227 82.0801 12.4054C82.1667 12.388 82.2274 12.3794 82.2621 12.3794C82.3661 12.3794 82.4181 12.414 82.4181 12.4834C82.1234 12.518 81.7074 12.5527 81.1701 12.5874C81.1527 12.5874 81.1354 12.6047 81.1181 12.6394C81.1527 12.674 81.1787 12.6914 81.1961 12.6914C81.2307 12.6914 81.4127 12.6827 81.7421 12.6654C82.0714 12.6307 82.2534 12.6134 82.2881 12.6134C82.3227 12.6134 82.3401 12.6307 82.3401 12.6654C82.3574 12.6827 82.3834 12.6914 82.4181 12.6914C82.4354 12.6914 82.4961 12.6654 82.6001 12.6134C82.7041 12.5614 82.7734 12.5354 82.8081 12.5354C82.8081 12.5354 82.8514 12.57 82.9381 12.6394C82.9727 12.6394 82.9901 12.6047 82.9901 12.5354C83.0421 12.5874 83.1027 12.6134 83.1721 12.6134C83.2241 12.6134 83.2501 12.57 83.2501 12.4834C83.3021 12.6047 83.3714 12.6827 83.4581 12.7174C83.4061 12.7174 83.3194 12.7347 83.1981 12.7694C83.0941 12.804 83.0161 12.83 82.9641 12.8474C82.4614 12.8647 81.7074 12.8907 80.7021 12.9254C80.6674 12.96 80.6501 13.0554 80.6501 13.2114C80.7021 13.1594 80.7454 13.1334 80.7801 13.1334C80.8147 13.1334 80.8321 13.142 80.8321 13.1594C80.8321 13.1594 80.8494 13.1594 80.8841 13.1594C80.9187 13.1594 80.9274 13.1507 80.9101 13.1334C80.9101 13.0987 80.9274 13.0814 80.9621 13.0814C80.9794 13.0814 81.0141 13.1074 81.0661 13.1594C81.1181 13.194 81.1614 13.2114 81.1961 13.2114C81.2307 13.2114 81.2654 13.1854 81.3001 13.1334C81.3347 13.0814 81.3694 13.0554 81.4041 13.0554C81.4387 13.0554 81.5427 13.0727 81.7161 13.1074C81.8894 13.142 81.9934 13.1594 82.0281 13.1594C82.1841 13.1594 82.6087 13.1334 83.3021 13.0814C83.3367 13.064 83.3367 13.0467 83.3021 13.0294C83.4581 13.064 83.7614 13.0814 84.2121 13.0814C84.2467 13.0814 84.2901 13.0814 84.3421 13.0814C84.3767 13.064 84.4114 13.0554 84.4461 13.0554C84.5674 13.0554 84.6627 13.064 84.7321 13.0814L84.8361 12.9774C85.1307 12.9947 85.5727 13.0034 86.1621 13.0034V13.2114ZM75.0081 23.3254L74.9821 23.5074H74.9041L74.9561 23.3254H75.0081ZM75.1381 26.4454H75.0601V26.3154H75.1381V26.4454ZM75.0861 26.9654H75.0341V26.8354H75.0861V26.9654ZM73.4221 25.7954L73.3701 26.2114H73.3181L73.3441 25.7954H73.4221ZM74.8521 27.4334L74.8261 27.7194H74.7481L74.8001 27.4334H74.8521ZM75.0601 27.5374L74.9821 28.2394H74.9041L74.9821 27.5374H75.0601ZM74.8261 27.8754L74.7741 28.0834H74.6961L74.7481 27.8754H74.8261ZM74.4101 27.6674L74.3841 27.9794H74.3061L74.3581 27.6674H74.4101ZM73.7081 25.8994L73.5261 28.2914L73.3701 28.1614C73.4047 28.1094 73.4221 28.066 73.4221 28.0314C73.4221 28.0834 73.4307 28.118 73.4481 28.1354L73.7081 25.8994ZM74.5661 28.4994H74.5141V28.3434H74.5661V28.4994ZM74.6961 28.8114H74.6181V28.6294H74.6961V28.8114ZM74.3061 29.0454H74.2281V28.8894H74.3061V29.0454ZM74.2541 29.6954H74.2021V29.4874H74.2541V29.6954ZM71.3941 26.3674C71.4287 26.5234 71.3767 26.844 71.2381 27.3294C71.1341 27.3294 71.0821 27.2947 71.0821 27.2254C71.0821 27.364 71.1861 27.078 71.3941 26.3674ZM73.4481 28.5254L73.3961 28.5774C73.4134 28.6294 73.4221 28.7334 73.4221 28.8894C73.3701 29.2707 73.3094 29.86 73.2401 30.6574C73.2574 30.6227 73.2401 30.5534 73.1881 30.4494C73.1361 30.5187 73.1621 30.6487 73.2661 30.8394C73.2314 30.9434 73.1967 30.9867 73.1621 30.9694C73.1274 30.9694 73.1101 30.9954 73.1101 31.0474L73.0581 30.5014C73.0754 30.4667 73.0927 30.3627 73.1101 30.1894C73.1274 30.1547 73.1534 30.1114 73.1881 30.0594C73.2747 29.5567 73.3441 28.9587 73.3961 28.2654C73.4307 28.3347 73.4481 28.4214 73.4481 28.5254ZM85.9021 13.8094L85.8501 13.7574L85.7981 13.8094L85.8761 13.8614L85.9021 13.8094ZM84.3681 13.4194V13.3674L84.1861 13.3154V13.3674L84.3681 13.4194ZM84.0301 13.3674V13.3154L83.8221 13.3674V13.4194L84.0301 13.3674ZM83.6141 13.4454L83.4841 13.3674L83.4321 13.4454H83.6141ZM82.5741 13.1074V13.0294H82.2621V13.1074H82.5741ZM81.2741 14.5894V14.5114H80.8841V14.5894H81.2741ZM80.7541 14.5634L80.7281 14.5114L80.6501 14.5634V14.6154L80.7541 14.5634ZM81.0661 14.9534V14.8754H80.6501V14.9534H81.0661ZM80.3901 14.6154L80.2081 14.5634C80.1561 14.6154 80.1301 14.6587 80.1301 14.6934L80.3901 14.6154ZM80.4941 14.9274V14.8754L80.3121 14.9014V14.9794L80.4941 14.9274ZM79.8181 14.6934V14.6414H79.4801V14.6934H79.8181ZM74.6441 12.3794C74.5574 12.414 74.4794 12.4747 74.4101 12.5614H74.5921C74.5921 12.4747 74.6094 12.414 74.6441 12.3794ZM76.8541 17.5014V17.3714H76.7761V17.5014H76.8541ZM69.2101 13.9394C69.2101 13.8007 69.1407 13.7314 69.0021 13.7314C68.9847 13.7314 68.9414 13.7574 68.8721 13.8094C68.5427 13.9134 68.3781 14.0694 68.3781 14.2774C68.3781 14.3294 68.4301 14.4247 68.5341 14.5634C68.6207 14.6847 68.6641 14.7627 68.6641 14.7974C68.6987 14.78 68.7594 14.7714 68.8461 14.7714C68.8461 14.6847 68.9067 14.5547 69.0281 14.3814C69.1494 14.1907 69.2101 14.0434 69.2101 13.9394ZM75.3461 21.0374V20.8814H75.2681V21.0374H75.3461ZM75.3201 21.1674C75.2161 21.202 75.1467 21.3754 75.1121 21.6874C75.0427 22.2247 75.0081 22.606 75.0081 22.8314C75.0601 22.762 75.1034 22.6754 75.1381 22.5714C75.1727 22.086 75.2334 21.618 75.3201 21.1674ZM75.0601 22.8834H74.9821L74.9561 23.2474H75.0081L75.0601 22.8834ZM75.3721 25.0414L75.2681 24.9374L75.2421 24.9634L75.3201 25.0674L75.3721 25.0414ZM74.3321 25.3274V25.2234H74.2801V25.3274H74.3321ZM73.7861 25.7694V25.6654H73.7081V25.7694H73.7861ZM73.4741 25.4574H73.3961L73.3441 25.6914H73.4221L73.4741 25.4574ZM74.3321 28.5774V28.2134H74.2801V28.5774H74.3321ZM74.3061 29.2534V29.1494H74.2281V29.2534H74.3061ZM72.3561 28.4214V28.2134H72.2781V28.4214H72.3561Z" fill="white"/>
<g clip-path="url(#clip0_81_7180)">
<path d="M35.4045 69.3715C34.7933 68.7606 34.5631 69.0676 34.4272 69.2036C30.9076 72.7233 27.7829 81.2156 29.4348 80.3861C35.4483 77.3667 36.4502 78.2657 39.9697 74.7463C40.1058 74.6102 40.4187 74.3859 39.7897 73.7568L35.4045 69.3715Z" fill="white"/>
<path d="M54.3786 69.3245C54.2191 68.8169 54.5532 68.5723 54.6939 68.4205C62.462 60.0339 67.399 48.8602 63.7404 45.2014C60.1011 41.5623 49.272 46.6435 40.8876 54.3556C40.7218 54.5084 40.3948 54.7977 39.8099 54.6756L37.1977 54.0536C36.4724 53.8811 35.4476 54.171 34.9204 54.6982L25.3353 64.2832C24.8081 64.8105 24.9794 65.3366 25.716 65.4523L32.6486 66.5417C33.3852 66.6576 34.4191 66.3209 34.9462 65.7936C34.9462 65.7936 35.3039 65.435 35.6633 65.7942C37.646 67.7768 41.3306 71.4613 43.2196 73.3504C43.5951 73.7258 43.2355 74.0829 43.2355 74.0829C42.7081 74.6102 42.3716 75.6439 42.4875 76.3806L43.5768 83.3131C43.6926 84.0499 44.2187 84.2212 44.7459 83.6939L54.3311 74.1086C54.8582 73.5814 55.1482 72.5569 54.9755 71.8316L54.3786 69.3245ZM52.2326 56.9412C50.6091 55.3177 50.6091 52.6857 52.2326 51.0625C53.856 49.439 56.4879 49.439 58.1116 51.0625C59.7348 52.6856 59.7348 55.3177 58.1116 56.9411C56.4879 58.5646 53.8559 58.5646 52.2326 56.9412Z" fill="white"/>
</g>
<defs>
<clipPath id="clip0_81_7180">
<rect width="40" height="40" fill="white" transform="translate(25 44)"/>
</clipPath>
</defs>
</svg>
