<svg width="727" height="88" viewBox="0 0 727 88" fill="none" xmlns="http://www.w3.org/2000/svg">
<g clip-path="url(#clip0)">
<path opacity="0.2" d="M46.052 85.624C33.8333 85.624 23.7413 81.564 15.776 73.444C7.81067 65.324 3.828 55.3093 3.828 43.4C3.828 31.4133 7.81067 21.3987 15.776 13.356C23.7413 5.236 33.8333 1.17599 46.052 1.17599C53.3987 1.17599 60.1653 2.916 66.352 6.396C72.616 9.79867 77.488 14.4387 80.968 20.316L67.164 28.32C65.1533 24.6853 62.292 21.8627 58.58 19.852C54.868 17.764 50.692 16.72 46.052 16.72C38.164 16.72 31.784 19.1947 26.912 24.144C22.1173 29.0933 19.72 35.512 19.72 43.4C19.72 51.2107 22.1173 57.5907 26.912 62.54C31.784 67.4893 38.164 69.964 46.052 69.964C50.692 69.964 54.868 68.9587 58.58 66.948C62.3693 64.86 65.2307 62.0373 67.164 58.48L80.968 66.484C77.488 72.3613 72.6547 77.04 66.468 80.52C60.2813 83.9227 53.476 85.624 46.052 85.624ZM144.17 2.79999V18.112H122.246V84H106.238V18.112H84.4299V2.79999H144.17ZM199.416 84L194.544 69.384H162.18L157.308 84H140.024L168.444 2.79999H188.28L216.816 84H199.416ZM167.284 54.42H189.556L178.42 21.244L167.284 54.42ZM272.518 2.79999V18.112H250.594V84H234.586V18.112H212.778V2.79999H272.518ZM328.434 84V34.468L293.634 84H281.454V2.79999H297.462V52.448L332.262 2.79999H344.442V84H328.434ZM398.017 85.624C385.798 85.624 375.706 81.564 367.741 73.444C359.776 65.324 355.793 55.3093 355.793 43.4C355.793 31.4133 359.776 21.3987 367.741 13.356C375.706 5.236 385.798 1.17599 398.017 1.17599C405.364 1.17599 412.13 2.916 418.317 6.396C424.581 9.79867 429.453 14.4387 432.933 20.316L419.129 28.32C417.118 24.6853 414.257 21.8627 410.545 19.852C406.833 17.764 402.657 16.72 398.017 16.72C390.129 16.72 383.749 19.1947 378.877 24.144C374.082 29.0933 371.685 35.512 371.685 43.4C371.685 51.2107 374.082 57.5907 378.877 62.54C383.749 67.4893 390.129 69.964 398.017 69.964C402.657 69.964 406.833 68.9587 410.545 66.948C414.334 64.86 417.196 62.0373 419.129 58.48L432.933 66.484C429.453 72.3613 424.62 77.04 418.433 80.52C412.246 83.9227 405.441 85.624 398.017 85.624ZM496.135 2.79999V18.112H474.211V84H458.203V18.112H436.395V2.79999H496.135ZM552.051 84V34.468L517.251 84H505.071V2.79999H521.079V52.448L555.879 2.79999H568.059V84H552.051ZM646.574 84H628.13L599.13 45.952V84H583.122V2.79999H599.13V38.644L626.97 2.79999H645.414L615.37 42.24L646.574 84ZM708.728 84L703.856 69.384H671.492L666.62 84H649.336L677.756 2.79999H697.592L726.128 84H708.728ZM676.596 54.42H698.868L687.732 21.244L676.596 54.42Z" fill="url(#paint0_linear)"/>
</g>
<defs>
<linearGradient id="paint0_linear" x1="363.5" y1="-26" x2="362.998" y2="127.121" gradientUnits="userSpaceOnUse">
<stop stop-color="white"/>
<stop offset="1" stop-color="white" stop-opacity="0"/>
</linearGradient>
<clipPath id="clip0">
<rect width="727" height="88" fill="white"/>
</clipPath>
</defs>
</svg>
