<svg width="34" height="34" viewBox="0 0 34 34" fill="none" xmlns="http://www.w3.org/2000/svg">
<path d="M6.90625 32.9375H4.78125C4.35856 32.9375 3.95318 32.7696 3.6543 32.4707C3.35541 32.1718 3.1875 31.7664 3.1875 31.3438V21.7812C3.1875 21.3586 3.35541 20.9532 3.6543 20.6543C3.95318 20.3554 4.35856 20.1875 4.78125 20.1875H6.90625C7.32894 20.1875 7.73432 20.3554 8.0332 20.6543C8.33209 20.9532 8.5 21.3586 8.5 21.7812V31.3438C8.5 31.7664 8.33209 32.1718 8.0332 32.4707C7.73432 32.7696 7.32894 32.9375 6.90625 32.9375V32.9375ZM21.7812 32.9375H19.6562C19.2336 32.9375 18.8282 32.7696 18.5293 32.4707C18.2304 32.1718 18.0625 31.7664 18.0625 31.3438V15.4062C18.0625 14.9836 18.2304 14.5782 18.5293 14.2793C18.8282 13.9804 19.2336 13.8125 19.6562 13.8125H21.7812C22.2039 13.8125 22.6093 13.9804 22.9082 14.2793C23.2071 14.5782 23.375 14.9836 23.375 15.4062V31.3438C23.375 31.7664 23.2071 32.1718 22.9082 32.4707C22.6093 32.7696 22.2039 32.9375 21.7812 32.9375V32.9375ZM29.2188 32.9375H27.0938C26.6711 32.9375 26.2657 32.7696 25.9668 32.4707C25.6679 32.1718 25.5 31.7664 25.5 31.3438V7.96875C25.5 7.54606 25.6679 7.14068 25.9668 6.8418C26.2657 6.54291 26.6711 6.375 27.0938 6.375H29.2188C29.6414 6.375 30.0468 6.54291 30.3457 6.8418C30.6446 7.14068 30.8125 7.54606 30.8125 7.96875V31.3438C30.8125 31.7664 30.6446 32.1718 30.3457 32.4707C30.0468 32.7696 29.6414 32.9375 29.2188 32.9375V32.9375ZM14.3438 32.9375H12.2188C11.7961 32.9375 11.3907 32.7696 11.0918 32.4707C10.7929 32.1718 10.625 31.7664 10.625 31.3438V2.65625C10.625 2.23356 10.7929 1.82818 11.0918 1.5293C11.3907 1.23041 11.7961 1.0625 12.2188 1.0625H14.3438C14.7664 1.0625 15.1718 1.23041 15.4707 1.5293C15.7696 1.82818 15.9375 2.23356 15.9375 2.65625V31.3438C15.9375 31.7664 15.7696 32.1718 15.4707 32.4707C15.1718 32.7696 14.7664 32.9375 14.3438 32.9375V32.9375Z" fill="white"/>
</svg>
