<svg width="28" height="28" viewBox="0 0 28 28" fill="none" xmlns="http://www.w3.org/2000/svg">
<path d="M6.38344 8.95843H2.11225C1.68514 8.95843 1.40039 9.21043 1.40039 9.58843V25.9684C1.40039 26.3464 1.68514 26.5984 2.11225 26.5984H6.38344C6.81056 26.5984 7.0953 26.3464 7.0953 25.9684V9.58843C7.0953 9.21043 6.81056 8.95843 6.38344 8.95843Z" fill="white"/>
<path d="M22.1868 5.17856C22.0444 4.80056 21.7597 4.67453 21.3326 4.67453L17.2038 5.4305C16.7766 5.5565 16.6343 5.80862 16.6343 6.18662L21.0478 25.9686C21.1902 26.3466 21.4749 26.4726 21.9021 26.4726L26.0309 25.7166C26.458 25.5906 26.6004 25.3385 26.6004 24.9605L22.1868 5.17856Z" fill="white"/>
<path d="M14.9258 1.39844H10.6546C10.2275 1.39844 9.94275 1.65044 9.94275 2.02844V25.9684C9.94275 26.3464 10.2275 26.5984 10.6546 26.5984H14.9258C15.3529 26.5984 15.6377 26.3464 15.6377 25.9684V2.02844C15.6377 1.65044 15.3529 1.39844 14.9258 1.39844Z" fill="white"/>
</svg>
