<svg width="33" height="32" viewBox="0 0 33 32" fill="none" xmlns="http://www.w3.org/2000/svg">
<path d="M16.5004 30.2627C16.3106 30.2627 16.1218 30.2138 15.9518 30.1156L4.54862 23.5322C4.20903 23.3363 4 22.9737 4 22.5819V9.41497C4 9.02325 4.20903 8.66061 4.54862 8.46475L15.9518 1.88127C16.2914 1.68541 16.7094 1.68541 17.049 1.88127L28.4511 8.46475C28.7907 8.66061 28.9997 9.02325 28.9997 9.41497V22.5819C28.9997 22.9737 28.7907 23.3363 28.4511 23.5322L17.049 30.1156C16.8789 30.2138 16.6902 30.2627 16.5004 30.2627ZM6.1945 21.9483L16.5004 27.8981L26.8052 21.9483V10.0486L16.5004 4.09881L6.1945 10.0486V21.9483Z" fill="white"/>
<path fill-rule="evenodd" clip-rule="evenodd" d="M17.5979 16.6351V29.1688C17.5979 29.7744 17.1064 30.266 16.5007 30.266C15.895 30.266 15.4034 29.7744 15.4034 29.1688V16.6346L4.54893 10.3679C4.0239 10.0656 3.8445 9.3946 4.14679 8.86957C4.45018 8.34453 5.11895 8.16404 5.64563 8.46797L16.5004 14.7349L27.3541 8.46797C27.8786 8.16404 28.5496 8.34453 28.8529 8.86957C29.1558 9.3946 28.9764 10.0656 28.4514 10.3684L17.5979 16.6351Z" fill="white"/>
</svg>
