<svg width="132" height="132" viewBox="0 0 132 132" fill="none" xmlns="http://www.w3.org/2000/svg">
<g clip-path="url(#clip0_81_7170)">
<path opacity="0.06" fill-rule="evenodd" clip-rule="evenodd" d="M-1.51454 11.7313L-1.51454 -0.671625L1.06654 -2.56541L17.9708 -2.5654L-1.51454 11.7313ZM-1.51454 24.1343L-1.51454 36.5371L51.7793 -2.56541L34.8752 -2.56541L-1.51454 24.1343ZM-1.51454 61.3428L-1.51454 48.9401L68.6836 -2.5654L85.5875 -2.5654L-1.51454 61.3428ZM-1.51454 73.7458L-1.51454 86.1494L119.397 -2.56539L102.492 -2.5654L-1.51454 73.7458ZM-1.51454 110.955L-1.51454 98.5524L133.485 -0.499322L133.485 11.9034L-1.51454 110.955ZM-1.51454 123.358L-1.51454 132.435L3.01929 132.435L133.485 36.7094L133.485 24.3064L-1.51454 123.358ZM36.8272 132.435L19.9236 132.435L133.485 49.1124L133.485 61.5149L36.8272 132.435ZM53.7315 132.435L70.6367 132.435L133.485 86.3214L133.485 73.9178L53.7315 132.435ZM104.445 132.435L87.541 132.435L133.485 98.7244L133.485 111.127L104.445 132.435ZM121.35 132.435L133.485 132.435L133.485 123.53L121.35 132.435Z" fill="white"/>
</g>
<defs>
<clipPath id="clip0_81_7170">
<rect width="132" height="132" fill="white"/>
</clipPath>
</defs>
</svg>
