<svg width="40" height="38" viewBox="0 0 40 38" fill="none" xmlns="http://www.w3.org/2000/svg">
<path d="M4.69535 29.1731L4.69535 30.8049L1.62804 30.8049L1.62804 37.8269L9.53979e-07 37.8269L1.33225e-06 29.1731L4.69535 29.1731Z" fill="#27AE60"/>
<path d="M13.2206 36.7019C12.3869 37.5673 11.3724 38 10.1769 38C8.98143 38 7.96685 37.5673 7.13317 36.7019C6.30735 35.8283 5.89445 34.761 5.89445 33.5C5.89445 32.239 6.30735 31.1758 7.13317 30.3104C7.96685 29.4368 8.98143 29 10.1769 29C11.3724 29 12.3869 29.4368 13.2206 30.3104C14.0543 31.1758 14.4711 32.239 14.4711 33.5C14.4711 34.761 14.0543 35.8283 13.2206 36.7019ZM8.27751 35.5398C8.78873 36.0673 9.42186 36.331 10.1769 36.331C10.9319 36.331 11.565 36.0673 12.0763 35.5398C12.5875 35.0041 12.8431 34.3242 12.8431 33.5C12.8431 32.6758 12.5875 31.9959 12.0763 31.4602C11.565 30.9245 10.9319 30.6566 10.1769 30.6566C9.42186 30.6566 8.78873 30.9245 8.27752 31.4602C7.7663 31.9959 7.51069 32.6758 7.51069 33.5C7.51069 34.3242 7.7663 35.0041 8.27751 35.5398Z" fill="#27AE60"/>
<path d="M21.785 29.1731L21.785 30.8049L19.5552 30.8049L19.5552 37.8269L17.9272 37.8269L17.9272 30.8049L15.7093 30.8049L15.7093 29.1731L21.785 29.1731Z" fill="#27AE60"/>
<path d="M30.3498 36.7019C29.5162 37.5673 28.5016 38 27.3061 38C26.1107 38 25.0961 37.5673 24.2624 36.7019C23.4366 35.8283 23.0237 34.761 23.0237 33.5C23.0237 32.239 23.4366 31.1758 24.2624 30.3104C25.0961 29.4368 26.1107 29 27.3061 29C28.5016 29 29.5162 29.4368 30.3498 30.3104C31.1835 31.1758 31.6004 32.239 31.6004 33.5C31.6004 34.761 31.1835 35.8283 30.3498 36.7019ZM25.4067 35.5398C25.918 36.0673 26.5511 36.331 27.3061 36.331C28.0612 36.331 28.6943 36.0673 29.2055 35.5398C29.7167 35.0041 29.9723 34.3242 29.9723 33.5C29.9723 32.6758 29.7167 31.9959 29.2055 31.4602C28.6943 30.9245 28.0612 30.6566 27.3061 30.6566C26.5511 30.6566 25.918 30.9245 25.4067 31.4602C24.8955 31.9959 24.6399 32.6758 24.6399 33.5C24.6399 34.3242 24.8955 35.0041 25.4067 35.5398Z" fill="#27AE60"/>
<path d="M38.9146 33.3393C39.6382 33.7761 40 34.4354 40 35.3173C40 36.0508 39.7523 36.6525 39.2568 37.1223C38.7613 37.592 38.1517 37.8269 37.4282 37.8269L33.9244 37.8269L33.9244 29.1731L37.1804 29.1731C37.8883 29.1731 38.4821 29.4038 38.9618 29.8654C39.4495 30.3187 39.6933 30.8997 39.6933 31.6085C39.6933 32.3255 39.4337 32.9025 38.9146 33.3393ZM37.1804 30.7679L35.5524 30.7679L35.5524 32.6717L37.1804 32.6717C37.4321 32.6717 37.6405 32.581 37.8057 32.3997C37.9787 32.2184 38.0652 31.9918 38.0652 31.7198C38.0652 31.4478 37.9826 31.2212 37.8175 31.0398C37.6523 30.8585 37.44 30.7679 37.1804 30.7679ZM37.4282 36.2321C37.7034 36.2321 37.9315 36.1374 38.1124 35.9478C38.2933 35.75 38.3838 35.5027 38.3838 35.206C38.3838 34.9176 38.2933 34.6786 38.1124 34.489C37.9315 34.2912 37.7034 34.1923 37.4282 34.1923L35.5524 34.1923L35.5524 36.2321L37.4282 36.2321Z" fill="#27AE60"/>
<path d="M28 6L17 17L12 12" stroke="#27AE60" stroke-width="2" stroke-linecap="round" stroke-linejoin="round"/>
</svg>
