<svg width="32" height="32" viewBox="0 0 32 32" fill="none" xmlns="http://www.w3.org/2000/svg">
<g clip-path="url(#clip0)">
<path d="M31.0621 0H28.2218C27.9731 0 27.7347 0.09875 27.5589 0.274625L9.37793 18.4556L13.5441 22.6217L31.725 4.44069C31.9009 4.26487 31.9996 4.02644 31.9996 3.77775V0.9375C31.9996 0.41975 31.5799 0 31.0621 0V0Z" fill="#F04E27"/>
<path d="M3.73695 24.1058C3.18058 24.6622 2.88464 25.3894 2.85689 26.1228C2.13239 26.1431 1.41395 26.4289 0.860953 26.9818C-0.286984 28.1297 -0.286984 29.991 0.860953 31.139C2.00889 32.2869 3.87014 32.2869 5.01814 31.139C5.56777 30.5894 5.85352 29.8762 5.87683 29.1561C6.59702 29.1329 7.31027 28.8469 7.85995 28.2972L9.56245 26.5946L5.40527 22.4375L3.73695 24.1058Z" fill="#F04E27"/>
<path d="M17.3223 21.4912L21.4877 17.3257L22.6174 18.4553L18.4519 22.6208L17.3223 21.4912Z" fill="#F04E27"/>
<path d="M10.5081 14.6741L14.6742 10.508L4.44075 0.274625C4.26494 0.09875 4.0265 0 3.77781 0H0.9375C0.41975 0 0 0.41975 0 0.9375V3.77775C0 4.02644 0.09875 4.26488 0.274625 4.44063L10.5081 14.6741Z" fill="#F04E27"/>
<path d="M29.1431 26.1229C29.1154 25.3894 28.8194 24.6622 28.2631 24.1059L26.5947 22.4375L22.4375 26.5946L24.1401 28.2972C24.6898 28.8469 25.403 29.1329 26.1232 29.1561C26.1465 29.8762 26.4323 30.5894 26.9819 31.139C28.1298 32.2869 29.9911 32.2869 31.1391 31.139C32.287 29.991 32.287 28.1298 31.1391 26.9818C30.5861 26.4289 29.8676 26.1431 29.1431 26.1229Z" fill="#F04E27"/>
<path d="M27.7097 17.3459C27.3436 16.9797 26.75 16.9798 26.3839 17.3459L17.3459 26.3838C16.9798 26.7499 16.9798 27.3436 17.3459 27.7097C17.7119 28.0757 18.3056 28.0757 18.6717 27.7097L27.7097 18.6717C28.0759 18.3056 28.0759 17.712 27.7097 17.3459Z" fill="#F04E27"/>
<path d="M5.61603 17.3459C5.24997 16.9798 4.65634 16.9797 4.29022 17.3459C3.92409 17.712 3.92409 18.3055 4.29022 18.6717L13.3283 27.7097C13.6943 28.0757 14.288 28.0757 14.6541 27.7097C15.0202 27.3436 15.0202 26.75 14.6541 26.3838L5.61603 17.3459Z" fill="#F04E27"/>
</g>
<defs>
<clipPath id="clip0">
<rect width="32" height="32" fill="white"/>
</clipPath>
</defs>
</svg>
