<svg width="30" height="30" viewBox="0 0 30 30" fill="none" xmlns="http://www.w3.org/2000/svg">
<path d="M29.375 4.375H0.62502C0.28002 4.375 0 4.65496 0 4.99996C0 5.34496 0.28002 5.62498 0.62502 5.62498H1.25004V7.49998C1.25004 7.84498 1.53006 8.125 1.87506 8.125H2.50008V25C2.50008 25.345 2.7801 25.625 3.1251 25.625H5.625C5.97 25.625 6.25002 25.345 6.25002 25V19.375H23.75V25C23.75 25.345 24.0301 25.625 24.3751 25.625H26.8751C27.2201 25.625 27.5001 25.345 27.5001 25V8.125H28.125C28.47 8.125 28.75 7.84498 28.75 7.49998V5.62498H29.375C29.72 5.62498 30 5.34496 30 4.99996C30 4.65496 29.72 4.375 29.375 4.375ZM23.75 18.125H6.25002V10.625H23.75V18.125H23.75Z" fill="white"/>
</svg>
