<svg width="42" height="42" viewBox="0 0 42 42" fill="none" xmlns="http://www.w3.org/2000/svg">
<path fill-rule="evenodd" clip-rule="evenodd" d="M25.0133 15.96C24.9667 16.0533 24.9667 16.1 24.92 16.1933C24.08 18.48 25.2933 20.3467 26.6933 20.3467C28.7 20.02 27.44 17.6867 25.9467 17.0333C27.7667 17.3133 30.1 18.9933 30.7067 20.8133C30.1 25.2 37.0067 21.7933 30.5667 18.4333C34.2533 19.2267 34.8133 20.86 35.3733 22.8667C35.6533 23.94 37.4733 23.94 37.2867 22.54C37.2867 20.9533 34.3467 18.7133 32.62 17.78C29.1667 16.1467 26.46 14.1867 24.8267 11.1533C24.8733 12.1333 25.2467 13.2067 25.2467 14.1867C25.2467 14.84 25.2 15.4467 25.0133 15.96ZM24.8267 10.5467C24.8267 10.08 24.92 9.70667 25.0133 9.28667C26.7867 11.9933 30.9867 13.58 34.1133 15.1667C36.0733 16.1 38.08 18.6667 38.22 20.4867C37.0067 18.34 34.0667 17.5467 31.78 16.4733C29.0733 15.1667 26.6467 13.16 24.8267 10.5467ZM25.06 9.19333C27.3467 11.5267 32.0133 12.6933 34.9067 14.14C38.9667 16.24 42 19.6 42 24.1733C42 24.5467 41.8133 25.9467 41.58 26.74C41.3933 24.5 40.6933 22.4 39.0133 21.6533C39.8067 22.5867 39.8533 23.66 39.9 24.36C40.1333 28.7 37.8 32.0133 34.4867 33.2733C35.6067 32.0133 36.12 30.6133 36.12 29.4C36.12 27.4867 34.9533 25.7133 32.8067 25.06C30.4733 27.3467 29.3067 32.0133 27.86 34.9067C25.76 38.9667 22.4 42 17.8267 42C17.4533 42 16.0533 41.8133 15.26 41.58C17.5 41.3933 19.6 40.6933 20.3467 39.0133C19.4133 39.8067 18.34 39.8533 17.64 39.9C13.3 40.1333 9.98667 37.8 8.72667 34.4867C9.98667 35.6067 11.3867 36.12 12.6 36.12C14.5133 36.12 16.2867 34.9533 16.94 32.8067C14.6533 30.4733 9.98667 29.3067 7.09333 27.86C3.03333 25.76 0 22.4 0 17.8267C0 17.4533 0.186667 16.0533 0.42 15.26C0.606667 17.5 1.30667 19.6 2.98667 20.3467C2.19333 19.4133 2.14667 18.34 2.1 17.64C1.86667 13.3 4.2 9.98667 7.51333 8.72667C6.39333 9.98667 5.88 11.3867 5.88 12.6C5.88 14.5133 7.04667 16.2867 9.19333 16.94C11.5267 14.6533 12.6933 9.98667 14.14 7.09333C16.24 3.03333 19.6 0 24.1733 0C24.5467 0 25.9467 0.186667 26.74 0.42C24.5 0.606667 22.4 1.30667 21.6533 2.98667C22.5867 2.19333 23.66 2.14667 24.36 2.1C28.7 1.86667 32.0133 4.2 33.2733 7.51333C32.0133 6.39333 30.6133 5.88 29.4 5.88C27.4867 5.88 25.7133 7.04667 25.06 9.19333ZM9.33333 16.9867C9.70667 17.08 10.1267 17.1733 10.5933 17.1733C13.2067 15.4 15.2133 12.9267 16.52 10.1733C17.5933 7.88667 18.3867 4.99333 20.5333 3.73333C18.7133 3.87333 16.1467 5.88 15.2133 7.84C13.6267 11.0133 12.04 15.2133 9.33333 16.9867ZM11.1533 17.1733C14.1867 15.5867 16.1 12.8333 17.78 9.38C18.7133 7.7 20.9533 4.76 22.54 4.71333C23.94 4.57333 23.8933 6.34667 22.8667 6.62667C20.86 7.23333 19.2267 7.79333 18.4333 11.4333C21.7933 4.99333 25.2 11.9 20.8133 11.2933C18.9933 11.9 17.36 14.2333 17.0333 16.0533C17.64 14.56 20.02 13.3 20.3467 15.3067C20.3467 16.7067 18.48 17.92 16.1933 17.08C16.1 17.0333 16.0533 17.0333 15.96 16.9867C15.4467 16.8 14.84 16.7067 14.1867 16.7067C13.2067 16.7533 12.18 17.08 11.1533 17.1733ZM16.9867 32.6667C17.08 32.2933 17.1733 31.8733 17.1733 31.4067C15.4 28.7933 12.9267 26.7867 10.1733 25.48C7.88667 24.4067 4.99333 23.6133 3.73333 21.4667C3.87333 23.2867 5.88 25.8533 7.84 26.7867C11.0133 28.3733 15.2133 29.96 16.9867 32.6667ZM17.1733 30.8467C17.1267 29.8667 16.7533 28.7933 16.7533 27.8133C16.7533 27.16 16.8467 26.5533 17.0333 26.04C17.08 25.9467 17.08 25.9 17.1267 25.8067C17.9667 23.52 16.7533 21.6533 15.3533 21.6533C13.3467 21.98 14.6067 24.3133 16.1 24.9667C14.28 24.6867 11.9467 23.0067 11.34 21.1867C11.9467 16.8 5.04 20.2067 11.48 23.5667C7.79333 22.7733 7.23333 21.14 6.67333 19.1333C6.39333 18.06 4.57333 18.06 4.76 19.46C4.76 21.0467 7.7 23.2867 9.42667 24.22C12.8333 25.8533 15.54 27.8133 17.1733 30.8467ZM32.6667 25.0133C29.96 26.7867 28.3733 30.9867 26.7867 34.1133C25.8533 36.0733 23.2867 38.08 21.4667 38.22C23.6133 37.0067 24.4067 34.0667 25.48 31.78C26.7867 29.0267 28.84 26.5533 31.4067 24.78C31.8733 24.8733 32.2933 24.92 32.6667 25.0133ZM30.8467 24.8267C27.8133 26.4133 25.9 29.1667 24.22 32.62C23.2867 34.3 21.0467 37.24 19.46 37.2867C18.06 37.4267 18.1067 35.6533 19.1333 35.3733C21.14 34.7667 22.7733 34.2067 23.5667 30.5667C20.2067 37.0067 16.8 30.1 21.1867 30.7067C23.0067 30.1 24.64 27.7667 24.9667 25.9467C24.36 27.44 21.98 28.7 21.6533 26.6933C21.6533 25.2933 23.52 24.08 25.8067 24.92C25.9 24.9667 25.9467 24.9667 26.04 25.0133C26.5533 25.2 27.16 25.2933 27.8133 25.2933C28.7933 25.2467 29.82 24.92 30.8467 24.8267Z" fill="white"/>
</svg>
