<svg width="32" height="32" viewBox="0 0 32 32" fill="none" xmlns="http://www.w3.org/2000/svg">
<path d="M31.9979 13.2293L31.276 1.67911C31.2605 1.43083 31.1549 1.19676 30.9789 1.02087C30.803 0.844992 30.5689 0.739399 30.3206 0.723932L18.7707 0.00202998C18.6262 -0.00710456 18.4813 0.0146603 18.3459 0.065875C18.2104 0.11709 18.0874 0.196579 17.9851 0.299047L0.299001 17.9853C0.107553 18.1767 0 18.4364 0 18.7071C0 18.9779 0.107553 19.2376 0.299001 19.429L12.571 31.701C12.7625 31.8925 13.0221 32 13.2929 32C13.5636 32 13.8232 31.8925 14.0147 31.701L31.7009 14.0148C31.8032 13.9124 31.8827 13.7894 31.9339 13.654C31.9851 13.5186 32.0069 13.3738 31.9979 13.2293ZM13.2929 23.7603L9.68348 20.1508L8.23967 21.5947L6.79593 20.1508L11.1273 15.8196L12.571 17.2634L11.1272 18.7071L14.7366 22.3165L13.2929 23.7603ZM20.0551 17.4545L18.7882 16.8211L17.1819 18.4273L17.8154 19.6941L15.9892 20.6073L13.1016 14.8322C13.0058 14.6405 12.9728 14.4235 13.0071 14.212C13.0415 14.0005 13.1415 13.8052 13.2931 13.6537L14.015 12.9318C14.1664 12.7803 14.3618 12.6803 14.5733 12.6459C14.7848 12.6115 15.0017 12.6446 15.1934 12.7404L20.9684 15.628L20.0551 17.4545ZM25.4722 11.7831L22.7222 11.533L22.9722 14.283L20.9387 14.4681L20.6548 11.345L17.5318 11.061L17.7168 9.02766L20.4668 9.27771L20.2168 6.52767L22.2503 6.34263L22.5342 9.46575L25.6572 9.74969L25.4722 11.7831ZM28.4972 6.54828C28.2117 6.83384 27.8479 7.02831 27.4518 7.1071C27.0557 7.18589 26.6452 7.14546 26.2721 6.99092C25.899 6.83638 25.5801 6.57468 25.3557 6.23891C25.1314 5.90314 25.0116 5.50837 25.0116 5.10454C25.0116 4.70071 25.1314 4.30594 25.3557 3.97017C25.5801 3.6344 25.899 3.3727 26.2721 3.21816C26.6452 3.06362 27.0557 3.02319 27.4518 3.10198C27.8479 3.18077 28.2117 3.37524 28.4972 3.6608C28.8801 4.04367 29.0953 4.56298 29.0953 5.10449C29.0954 5.64599 28.8803 6.16534 28.4975 6.54828H28.4972Z" fill="white"/>
<path d="M16.8638 15.8586L15.5762 15.2148L16.22 16.5025L16.8638 15.8586Z" fill="white"/>
</svg>
