<svg width="94" height="90" viewBox="0 0 94 90" fill="none" xmlns="http://www.w3.org/2000/svg">
<path d="M40.166 59.8835C40.166 59.9875 40.14 60.0568 40.088 60.0915C40.0533 60.1088 40.0013 60.1435 39.932 60.1955C39.6893 60.2301 39.438 60.3861 39.178 60.6635C39.074 60.7328 38.9093 60.8541 38.684 61.0275C38.06 61.7035 37.2627 62.6308 36.292 63.8095C36.2747 63.7401 36.266 63.6968 36.266 63.6795C36.8727 62.9341 37.4707 62.1888 38.06 61.4435C38.788 60.5941 39.4033 60.0395 39.906 59.7795H40.088C40.088 59.8488 40.114 59.8835 40.166 59.8835ZM39.23 69.6855L39.178 69.8675L39.1 69.8415L39.178 69.6855H39.23ZM39.178 69.9195L39.126 70.1015L39.074 70.0755L39.126 69.9195H39.178ZM39.23 71.1415H39.152V71.0115H39.23V71.1415ZM41.466 73.0135C41.466 73.0655 41.414 73.1435 41.31 73.2475C41.2233 73.3515 41.154 73.4035 41.102 73.4035H40.712L40.608 73.2735C40.6253 73.2041 40.66 73.1088 40.712 72.9875C40.8507 72.8488 40.9893 72.7795 41.128 72.7795C41.3533 72.7795 41.466 72.8575 41.466 73.0135ZM42.948 76.7315C39.256 77.6328 37.3407 78.0835 37.202 78.0835C37.1673 78.0835 37.1153 78.0748 37.046 78.0575C36.994 78.0401 36.9507 78.0315 36.916 78.0315C36.864 78.0315 36.5867 78.1095 36.084 78.2655C35.5813 78.4388 35.3127 78.5255 35.278 78.5255C35.2433 78.5255 35.2347 78.5081 35.252 78.4735C35.2693 78.4388 35.252 78.4215 35.2 78.4215C34.576 78.4215 34.0733 78.5775 33.692 78.8895C33.5533 78.8895 33.3453 78.9588 33.068 79.0975L33.094 79.1235C33.146 79.1235 33.2327 79.0975 33.354 79.0455H33.536C33.6053 79.1148 33.64 79.1928 33.64 79.2795C33.64 79.3661 33.562 79.4528 33.406 79.5395C33.25 79.6261 33.12 79.6695 33.016 79.6695H32.626V79.4875C32.8167 79.4181 32.912 79.3141 32.912 79.1755C32.8947 79.1581 32.8427 79.1495 32.756 79.1495C32.704 79.1495 32.678 79.1581 32.678 79.1755C32.678 79.2101 32.6607 79.2275 32.626 79.2275C32.5913 79.2275 32.574 79.2188 32.574 79.2015C32.5913 79.1841 32.574 79.1755 32.522 79.1755C32.4873 79.1755 32.47 79.1928 32.47 79.2275C32.47 79.2621 32.4527 79.2795 32.418 79.2795C32.4353 79.2795 32.4007 79.2621 32.314 79.2275C32.2447 79.1928 32.08 79.1755 31.82 79.1755C31.82 79.1061 31.8373 79.0541 31.872 79.0195C31.7853 78.9848 31.6553 78.9068 31.482 78.7855C31.482 78.6641 31.5253 78.5255 31.612 78.3695C31.716 78.2308 31.768 78.1615 31.768 78.1615C31.768 78.0401 31.7507 77.9101 31.716 77.7715C31.6813 77.6848 31.586 77.6241 31.43 77.5895C31.2047 77.2255 31.092 77.0608 31.092 77.0955C31.092 76.8355 31.8893 76.3415 33.484 75.6135V75.4575C33.3973 75.4921 33.3367 75.5095 33.302 75.5095L33.198 75.3795C33.5273 75.0675 33.952 74.8248 34.472 74.6515C34.9573 74.5301 35.4513 74.4088 35.954 74.2875C35.5553 74.4261 34.992 74.6948 34.264 75.0935C34.2987 75.1455 34.368 75.1715 34.472 75.1715C34.5067 75.1715 34.7667 75.0761 35.252 74.8855C35.7373 74.6948 35.9973 74.5995 36.032 74.5995C36.084 74.5995 36.1013 74.6168 36.084 74.6515C36.0667 74.6861 36.0753 74.7035 36.11 74.7035C36.1447 74.7035 36.214 74.6861 36.318 74.6515C36.422 74.6168 36.5173 74.5995 36.604 74.5995C36.6213 74.2008 36.6473 73.5508 36.682 72.6495L37.306 67.9175C37.2713 67.8308 37.2367 67.7615 37.202 67.7095C37.0287 67.9348 36.9507 68.0821 36.968 68.1515L36.864 68.0475C36.3093 68.4635 35.8067 69.0008 35.356 69.6595C34.9747 70.2141 34.5933 70.7775 34.212 71.3495C34.1773 71.4015 34.16 71.4795 34.16 71.5835C34.0907 71.6181 33.9953 71.6961 33.874 71.8175C33.718 72.0081 33.484 72.3115 33.172 72.7275C33.172 72.6235 33.1547 72.5628 33.12 72.5455C33.1027 72.5628 33.0853 72.5888 33.068 72.6235C33.0507 72.6408 33.0333 72.6581 33.016 72.6755C33.016 72.7101 33.1373 72.4761 33.38 71.9735C33.4147 71.8868 33.4233 71.8088 33.406 71.7395C33.5447 71.7221 33.6833 71.4881 33.822 71.0375C33.8567 71.0201 33.8307 71.0115 33.744 71.0115C33.588 71.0115 33.3973 71.1675 33.172 71.4795C33.1027 71.4621 33.0333 71.3841 32.964 71.2455C32.9293 71.2455 32.9033 71.2541 32.886 71.2715C32.8687 71.2888 32.6347 71.6008 32.184 72.2075C32.2013 72.1035 32.2707 71.9648 32.392 71.7915C32.392 71.7395 32.3833 71.7048 32.366 71.6875C31.9153 71.9128 31.7073 72.0255 31.742 72.0255C31.5687 72.0255 31.482 72.0255 31.482 72.0255C31.482 72.0081 31.4733 71.9735 31.456 71.9215C31.4387 71.8695 31.43 71.8175 31.43 71.7655C31.43 71.6961 31.4387 71.6441 31.456 71.6095C31.664 71.3668 31.768 71.2281 31.768 71.1935C31.768 71.0721 31.6987 70.8728 31.56 70.5955C31.4907 70.6475 31.4473 70.6735 31.43 70.6735C31.4993 70.6041 31.5167 70.5521 31.482 70.5175C31.534 70.4655 31.6033 70.4395 31.69 70.4395C31.7247 70.4221 31.7333 70.3528 31.716 70.2315C31.7853 69.9888 31.9067 69.6508 32.08 69.2175C32.1493 69.1481 32.262 69.0441 32.418 68.9055C32.4353 68.8535 32.4613 68.7755 32.496 68.6715C33.588 67.1461 34.55 65.9155 35.382 64.9795C36.2313 64.0955 37.5747 62.6741 39.412 60.7155C39.4813 60.7155 39.5767 60.6895 39.698 60.6375C39.698 60.6721 39.6633 60.7761 39.594 60.9495C39.542 61.0708 39.5593 61.1748 39.646 61.2615C39.8367 61.1401 40.1227 60.9668 40.504 60.7415C40.5213 60.7761 40.504 60.8195 40.452 60.8715C40.4693 60.8888 40.504 60.9668 40.556 61.1055C40.5907 61.1748 40.634 61.2095 40.686 61.2095C40.8073 61.2095 40.868 61.1488 40.868 61.0275C40.868 60.9755 40.8507 60.8975 40.816 60.7935C40.7813 60.6721 40.764 60.6115 40.764 60.6115C41.1627 60.4035 41.362 60.2995 41.362 60.2995C41.414 60.2995 41.466 60.3081 41.518 60.3255C41.57 60.3428 41.596 60.3515 41.596 60.3515C41.648 60.5421 41.6307 60.7155 41.544 60.8715C41.5787 60.9755 41.596 61.0361 41.596 61.0535C41.3533 61.2268 41.232 61.4261 41.232 61.6515C41.232 61.7901 41.2753 61.9115 41.362 62.0155C41.2927 62.0848 41.2147 62.1975 41.128 62.3535V62.4835C41.1107 62.5008 41.1367 62.5095 41.206 62.5095C41.2407 62.5095 41.3187 62.4661 41.44 62.3795C41.5613 62.2928 41.648 62.2408 41.7 62.2235C41.7347 62.2581 41.752 62.3015 41.752 62.3535C41.752 62.3881 41.6393 62.5441 41.414 62.8215C41.1367 63.1508 40.9633 63.4021 40.894 63.5755C40.8247 63.7488 40.738 64.0261 40.634 64.4075C40.5993 64.5635 40.556 64.7975 40.504 65.1095C40.244 66.3575 39.8193 68.2468 39.23 70.7775C39.2647 70.4828 39.308 70.0495 39.36 69.4775C39.3427 69.4601 39.334 69.4428 39.334 69.4255C39.334 69.3908 39.3253 69.3648 39.308 69.3475C39.2907 69.3995 39.2473 69.4775 39.178 69.5815L39.646 67.0855C39.594 67.0335 39.5593 67.0075 39.542 67.0075C39.5247 67.0075 39.5073 67.0335 39.49 67.0855C39.386 67.9175 39.282 68.5501 39.178 68.9835C39.1607 69.0875 39.1173 69.2348 39.048 69.4255C39.0307 69.4428 39.0133 69.4688 38.996 69.5035C38.996 69.5208 38.97 69.5295 38.918 69.5295C38.866 69.5295 38.84 69.5121 38.84 69.4775C38.84 69.4428 38.84 69.4255 38.84 69.4255C38.7187 69.7201 38.632 70.1101 38.58 70.5955C38.4933 71.3408 38.4413 71.7481 38.424 71.8175C38.4067 72.0081 38.3633 72.2855 38.294 72.6495C38.2593 72.7015 38.2073 72.7795 38.138 72.8835C38.1207 72.8315 38.0773 72.7535 38.008 72.6495C37.9907 72.6668 37.982 72.7188 37.982 72.8055C37.982 72.8575 38.0427 72.9355 38.164 73.0395C38.1813 73.1088 38.1813 73.2215 38.164 73.3775L38.372 73.4035C38.372 73.4035 38.372 73.3601 38.372 73.2735C38.372 73.2735 38.3893 73.2995 38.424 73.3515C38.476 73.2821 38.7187 73.2128 39.152 73.1435C39.2387 73.1435 39.36 73.1348 39.516 73.1175C39.6893 73.0135 39.9233 72.9008 40.218 72.7795C40.218 72.9528 40.2527 73.0915 40.322 73.1955C40.2527 73.2301 40.1573 73.3255 40.036 73.4815C40.7467 74.1921 41.1713 74.5475 41.31 74.5475C41.3447 74.5475 41.3793 74.5301 41.414 74.4955C41.414 74.5475 41.3967 74.5908 41.362 74.6255C41.4833 74.7295 41.6913 74.8681 41.986 75.0415C42.0033 75.0935 41.96 75.1801 41.856 75.3015C41.9253 75.3708 41.9947 75.4055 42.064 75.4055C42.116 75.4055 42.1593 75.4055 42.194 75.4055C42.246 75.3881 42.272 75.3795 42.272 75.3795C41.648 75.6741 41.336 75.8561 41.336 75.9255C41.336 75.9601 41.4747 76.1681 41.752 76.5495C41.5787 76.6015 41.31 76.6968 40.946 76.8355C40.9287 76.8355 40.9373 76.8528 40.972 76.8875C41.7 76.7315 42.1507 76.6535 42.324 76.6535C42.3587 76.6535 42.454 76.6708 42.61 76.7055C42.7833 76.7228 42.896 76.7315 42.948 76.7315ZM34.134 71.8435L34.082 71.8955L34.004 71.8175L34.056 71.7655L34.134 71.8435ZM36.448 74.4955L36.136 74.6255V74.5475L36.422 74.4435L36.448 74.4955ZM32.886 72.6495L32.834 72.7795L32.756 72.7535L32.808 72.6235L32.886 72.6495ZM34.368 78.7855L34.238 78.9155L34.186 78.8635L34.316 78.7335L34.368 78.7855ZM40.14 66.1755V65.9935H40.062V66.1755H40.14ZM40.088 66.4095V66.2795H40.01V66.4095H40.088ZM40.01 67.0335V66.8515H39.932V67.0335H40.01ZM39.854 73.0395L39.802 73.0135L39.724 73.1435L39.802 73.1695L39.854 73.0395ZM37.28 71.2195L37.202 71.1935L37.15 71.3235L37.228 71.3495L37.28 71.2195ZM40.088 73.2735C40.0533 73.2735 40.01 73.2648 39.958 73.2475C39.906 73.2301 39.8627 73.2215 39.828 73.2215C39.6373 73.2215 39.4727 73.3341 39.334 73.5595C39.282 73.4901 39.2387 73.4555 39.204 73.4555C39.256 73.4555 39.074 73.5248 38.658 73.6635C38.814 73.7501 38.9093 73.7935 38.944 73.7935C38.9787 73.7935 39.048 73.7588 39.152 73.6895C39.2733 73.6201 39.3513 73.5855 39.386 73.5855C39.438 73.5855 39.516 73.6548 39.62 73.7935C39.8627 73.6548 39.984 73.5855 39.984 73.5855C39.984 73.4468 40.0187 73.3428 40.088 73.2735ZM37.644 77.9015V77.8235H37.514V77.9015H37.644ZM58.4806 65.5515H58.3766V65.3435H58.4806V65.5515ZM50.5246 58.4015L50.3946 58.4535V58.4015L50.4986 58.3235L50.5246 58.4015ZM58.4286 66.5135H58.3246V66.3835H58.4286V66.5135ZM46.5206 61.2615L46.4686 61.3915L46.3906 61.3655L46.4686 61.2355L46.5206 61.2615ZM46.3386 61.9115L46.2606 62.0675L46.1826 62.0155L46.2606 61.8855L46.3386 61.9115ZM46.1046 62.2235H45.9486V62.1455H46.1046V62.2235ZM58.5586 64.0955C58.5586 64.0261 58.5326 64.0608 58.4806 64.1995C58.4979 64.2341 58.4806 64.3901 58.4286 64.6675C58.3939 64.7195 58.3766 64.7715 58.3766 64.8235C58.3766 64.5981 58.3419 64.2861 58.2726 63.8875C58.2552 63.8355 58.2292 63.7835 58.1946 63.7315C58.0559 62.6221 57.6052 61.6168 56.8426 60.7155L56.7126 60.8455C56.7472 60.8628 56.7906 60.8888 56.8426 60.9235C57.0506 61.3048 57.2672 61.6861 57.4926 62.0675C57.7179 62.4488 57.8566 62.7955 57.9086 63.1075C57.9606 63.3155 58.0386 64.0261 58.1426 65.2395C58.2812 65.3261 58.3506 65.4215 58.3506 65.5255C58.3506 65.5428 58.3246 65.6815 58.2726 65.9415C58.2206 66.2015 58.1859 66.4008 58.1686 66.5395C58.1859 66.5568 58.2032 66.5915 58.2206 66.6435C58.1859 67.0941 58.0992 67.8048 57.9606 68.7755C57.8219 69.6421 57.6486 70.3268 57.4406 70.8295C57.4059 70.9161 57.4232 71.0201 57.4926 71.1415C57.2326 71.9215 56.7039 72.7968 55.9066 73.7675C55.5946 74.1661 55.3519 74.5128 55.1786 74.8075C54.9879 74.9808 54.7019 75.2408 54.3206 75.5875C54.7019 74.9808 55.1352 74.3221 55.6206 73.6115L55.5426 73.5335C55.5252 73.5508 55.5166 73.6028 55.5166 73.6895C55.4646 73.6375 55.4212 73.6115 55.3866 73.6115C55.4039 73.6115 55.4299 73.5855 55.4646 73.5335C55.4992 73.4815 55.5339 73.4468 55.5686 73.4295L55.5426 73.1175C55.5252 73.1175 55.3952 73.1955 55.1526 73.3515C55.2046 73.3861 55.2912 73.4381 55.4126 73.5075C55.2912 73.5421 55.1179 73.6201 54.8926 73.7415C54.3726 74.3135 53.8959 74.7815 53.4626 75.1455C53.3932 75.1975 53.2372 75.2841 52.9946 75.4055C52.8559 75.4748 52.7346 75.6221 52.6306 75.8475C52.6479 75.7955 52.6826 75.7001 52.7346 75.5615C52.6999 75.5441 52.5959 75.5355 52.4226 75.5355C52.3706 75.5355 52.2926 75.5875 52.1886 75.6915C52.2232 75.6568 52.2666 75.6135 52.3186 75.5615C52.3706 75.5095 52.3792 75.4315 52.3446 75.3275C52.3099 75.3448 52.2492 75.3708 52.1626 75.4055C52.0586 75.5441 51.6599 76.0295 50.9666 76.8615C50.9839 76.8615 50.9926 76.8788 50.9926 76.9135C50.9579 77.0175 50.7846 77.1735 50.4726 77.3815C50.5592 77.2775 50.6979 77.1475 50.8886 76.9915C50.9059 76.9741 50.8972 76.9481 50.8626 76.9135C50.6719 77.0001 50.5246 77.0781 50.4206 77.1475C49.8486 77.4768 49.3632 77.7715 48.9646 78.0315C48.9819 78.0661 48.9906 78.1268 48.9906 78.2135C48.9386 78.2135 48.8172 78.2568 48.6266 78.3435C48.4359 78.4301 48.3146 78.4735 48.2626 78.4735C48.2279 78.4735 48.2019 78.4561 48.1846 78.4215C48.1672 78.3868 48.1326 78.3695 48.0806 78.3695C47.8726 78.3695 47.7079 78.4301 47.5866 78.5515C47.6732 78.5861 47.7599 78.6035 47.8466 78.6035C47.7946 78.6035 47.6906 78.6208 47.5346 78.6555C47.6212 78.7421 47.6646 78.7855 47.6646 78.7855C47.8032 78.7855 47.9506 78.8115 48.1066 78.8635H47.4566C47.4392 78.7421 47.3872 78.6468 47.3006 78.5775C47.1619 78.6295 46.9886 78.6295 46.7806 78.5775C46.7632 78.5775 46.7112 78.5948 46.6246 78.6295C46.5552 78.6641 46.5032 78.6815 46.4686 78.6815C46.4339 78.6815 46.3472 78.6208 46.2086 78.4995C46.0699 78.3955 45.9572 78.3261 45.8706 78.2915C45.5066 78.2048 45.3419 78.1615 45.3766 78.1615C45.3419 78.1615 45.2812 78.1875 45.1946 78.2395C45.1079 78.2915 45.0386 78.3175 44.9866 78.3175C44.9346 78.3175 44.8652 78.2568 44.7786 78.1355C44.7092 78.0141 44.6312 77.9275 44.5446 77.8755C44.4579 77.8408 44.3279 77.7715 44.1546 77.6675C44.0159 77.4941 43.9032 77.0001 43.8166 76.1855C43.8166 76.0988 43.7039 75.7868 43.4786 75.2495C43.4786 75.1801 43.4699 75.0848 43.4526 74.9635C43.3486 74.7901 43.2359 74.5388 43.1146 74.2095C43.0106 73.8628 42.9499 73.5941 42.9326 73.4035C42.8806 72.8141 42.8546 72.4241 42.8546 72.2335C42.8546 72.1121 42.9326 71.3148 43.0886 69.8415C43.1059 69.7895 43.0972 69.7635 43.0626 69.7635C43.1146 69.6768 43.1579 69.5728 43.1926 69.4515C43.2272 69.2955 43.1839 69.2088 43.0626 69.1915C43.2359 69.0875 43.3486 68.7408 43.4006 68.1515C43.4006 68.0995 43.4179 67.9955 43.4526 67.8395C43.4872 67.6835 43.5046 67.5708 43.5046 67.5015C43.5046 67.5188 43.5219 67.5535 43.5566 67.6055L43.6866 67.4755C43.5479 67.3888 43.4266 67.3455 43.3226 67.3455C43.6692 66.4961 44.1199 65.5948 44.6746 64.6415C44.8306 64.3641 45.0906 63.9481 45.4546 63.3935C45.5759 63.2548 45.8012 62.9515 46.1306 62.4835C46.1826 62.4661 46.2519 62.4055 46.3386 62.3015C46.4252 62.1975 46.6072 62.0155 46.8846 61.7555C46.9366 61.7381 47.0059 61.7121 47.0926 61.6775C47.5606 61.2961 48.2799 60.6981 49.2506 59.8835C49.2679 59.8661 49.2939 59.8141 49.3286 59.7275C49.3806 59.6235 49.4326 59.5715 49.4846 59.5715C49.5192 59.5715 49.5279 59.5801 49.5106 59.5975C49.5106 59.6148 49.5366 59.6235 49.5886 59.6235C49.7099 59.6235 49.7879 59.4761 49.8226 59.1815C49.8572 58.8695 49.9612 58.7135 50.1346 58.7135C50.1692 58.7135 50.2126 58.7221 50.2646 58.7395C50.3166 58.7568 50.3686 58.7655 50.4206 58.7655C50.4726 58.7655 50.4899 58.7741 50.4726 58.7915C50.4379 58.8261 50.4292 58.8521 50.4466 58.8695C50.5159 58.7828 50.6199 58.6528 50.7586 58.4795C50.8106 58.4621 50.8712 58.4448 50.9406 58.4275C51.2006 58.1328 51.4952 57.9855 51.8246 57.9855C51.8592 57.9855 51.9199 58.0028 52.0066 58.0375C52.0932 58.0721 52.1626 58.0895 52.2146 58.0895C52.2492 58.0895 52.3359 58.0808 52.4746 58.0635C52.6132 58.0461 52.6999 58.0375 52.7346 58.0375C53.7399 58.0375 54.7452 58.5748 55.7506 59.6495C55.7159 59.7015 55.7159 59.8055 55.7506 59.9615C55.9586 60.1348 56.2532 60.4035 56.6346 60.7675C56.6346 60.7155 56.6606 60.6461 56.7126 60.5595C56.6606 60.4901 56.5566 60.4121 56.4006 60.3255C56.2619 60.2215 56.1926 60.1348 56.1926 60.0655C56.1926 60.0308 56.2099 59.9875 56.2446 59.9355C56.3139 59.9528 56.4092 59.9788 56.5306 60.0135C57.6746 61.2095 58.3072 62.4315 58.4286 63.6795C58.4286 63.6968 58.4459 63.7575 58.4806 63.8615C58.5326 63.9655 58.5586 64.0435 58.5586 64.0955ZM55.2306 73.8715L55.1006 74.0015L55.0486 73.9495L55.1786 73.8195L55.2306 73.8715ZM57.1026 76.2375C57.1199 76.4628 57.0246 76.5755 56.8166 76.5755H56.5826C56.3919 76.5755 56.2966 76.4801 56.2966 76.2895C56.2966 76.3068 56.3226 76.2721 56.3746 76.1855C56.3572 76.1161 56.3486 75.9515 56.3486 75.6915H56.5306C56.7386 75.8995 56.8772 76.0035 56.9466 76.0035C56.9812 76.0035 57.0159 75.9861 57.0506 75.9515C57.0852 75.9168 57.1026 75.8995 57.1026 75.8995V76.2375ZM55.9326 76.2635C55.9326 76.2461 55.8632 76.3588 55.7246 76.6015C55.7246 76.6708 55.6986 76.7748 55.6466 76.9135C55.3866 77.2255 55.1352 77.3815 54.8926 77.3815C54.8752 77.3815 54.8059 77.3641 54.6846 77.3295C54.5806 77.3121 54.5026 77.3121 54.4506 77.3295C54.4679 77.2601 54.4419 77.1561 54.3726 77.0175C54.3206 76.8615 54.2946 76.7575 54.2946 76.7055C54.2946 76.7748 54.3812 76.5668 54.5546 76.0815C54.6412 76.0295 54.7106 75.9601 54.7626 75.8735C54.6932 75.8215 54.6326 75.8128 54.5806 75.8475C54.9446 75.6741 55.1352 75.5875 55.1526 75.5875C55.2046 75.5875 55.2912 75.6048 55.4126 75.6395C55.5339 75.6741 55.6206 75.6915 55.6726 75.6915V75.7955C55.6899 75.8821 55.6899 75.9255 55.6726 75.9255C55.8459 76.0988 55.9326 76.2115 55.9326 76.2635ZM45.0646 63.2375C45.0819 63.3761 44.9606 63.6361 44.7006 64.0175C44.5446 64.2428 44.3799 64.4768 44.2066 64.7195C44.1199 64.8581 43.9726 65.1441 43.7646 65.5775C43.6606 65.8548 43.4872 66.2448 43.2446 66.7475C43.2099 66.7995 43.1579 66.8861 43.0886 67.0075C43.0366 67.1288 42.9672 67.3455 42.8806 67.6575C42.7939 67.9521 42.7419 68.1428 42.7246 68.2295C42.7072 68.2988 42.6552 68.3335 42.5686 68.3335V68.1515C42.5686 68.1861 42.7419 67.7181 43.0886 66.7475C43.5566 65.5168 44.2152 64.3468 45.0646 63.2375ZM54.0866 76.8095H54.0346L53.9566 76.6795L54.0346 76.6535L54.0866 76.8095ZM46.2606 61.3655C46.2086 61.4695 46.1132 61.6255 45.9746 61.8335C45.6279 62.1975 45.1686 62.7608 44.5966 63.5235C44.5099 63.6621 44.4059 63.8008 44.2846 63.9395C44.0419 64.1995 43.8252 64.5201 43.6346 64.9015C43.4959 65.2135 43.3486 65.5255 43.1926 65.8375C42.6206 66.9121 42.2999 67.9781 42.2306 69.0355C42.2132 69.2781 42.1699 69.6768 42.1006 70.2315C42.0312 70.7688 41.9966 71.0548 41.9966 71.0895C41.9966 71.1241 42.0312 71.2801 42.1006 71.5575C42.1699 71.8348 42.2046 71.9995 42.2046 72.0515C42.2046 72.1728 42.1872 72.2595 42.1526 72.3115C42.1352 72.3461 42.1006 72.3895 42.0486 72.4415C42.0312 72.5975 42.0399 72.7448 42.0746 72.8835C42.0399 72.8315 42.0052 72.7101 41.9706 72.5195C41.9706 72.5021 41.8926 72.4588 41.7366 72.3895C41.6326 72.0255 41.5806 71.7741 41.5806 71.6355C41.5806 71.7915 41.6412 71.2455 41.7626 69.9975C41.7799 69.7721 41.8492 69.3561 41.9706 68.7495C41.9532 68.6628 41.9446 68.5501 41.9446 68.4115C42.2219 67.1461 42.8719 65.6468 43.8946 63.9135C44.0159 63.7401 44.2066 63.5061 44.4666 63.2115C44.8652 62.8128 45.4632 62.1975 46.2606 61.3655ZM50.2906 77.4855L50.1346 77.6155L50.0826 77.5375L50.2386 77.4075L50.2906 77.4855ZM42.8026 74.8595C42.7679 74.8248 42.7159 74.8335 42.6466 74.8855C42.7159 75.0068 42.7506 75.1195 42.7506 75.2235C42.6812 75.1715 42.5859 74.8421 42.4646 74.2355C42.4126 74.3048 42.3259 74.3048 42.2046 74.2355C42.2046 73.9928 42.1699 73.6375 42.1006 73.1695C42.1872 73.1695 42.2479 73.1868 42.2826 73.2215C42.3172 73.2215 42.3519 73.1955 42.3866 73.1435C42.3866 73.0915 42.3779 73.0048 42.3606 72.8835C42.3432 72.7448 42.3346 72.6408 42.3346 72.5715C42.3346 71.2541 42.3866 70.5088 42.4906 70.3355C42.4906 72.4675 42.5512 73.9321 42.6726 74.7295C42.7592 74.8335 42.8026 74.8768 42.8026 74.8595ZM52.5266 61.7815C52.3359 61.5908 52.2232 61.4955 52.1886 61.4955H51.9286C52.0499 61.5475 52.2492 61.6428 52.5266 61.7815ZM49.6406 61.9375C49.4499 62.0761 49.1899 62.2755 48.8606 62.5355C48.8432 62.5528 48.8259 62.5961 48.8086 62.6655C48.7912 62.7348 48.7566 62.7695 48.7046 62.7695L48.8606 62.8215C48.9646 62.5961 49.1206 62.4401 49.3286 62.3535C49.5366 62.2668 49.6406 62.1281 49.6406 61.9375ZM48.6266 63.0555L48.5226 63.0295C48.4186 63.1508 48.2712 63.3328 48.0806 63.5755C48.1499 63.5061 48.2452 63.4108 48.3666 63.2895C48.4879 63.1681 48.5746 63.0901 48.6266 63.0555ZM56.1926 72.3115C56.1579 72.2941 56.1146 72.2855 56.0626 72.2855C56.0106 72.2855 55.9672 72.2941 55.9326 72.3115C55.9672 72.3461 55.9932 72.3895 56.0106 72.4415C56.0279 72.4241 56.0539 72.4068 56.0886 72.3895C56.1406 72.3548 56.1752 72.3288 56.1926 72.3115ZM47.5606 64.1475L47.4826 64.0955L47.3786 64.2775L47.4306 64.3295L47.5606 64.1475ZM47.3526 64.3295H47.2746L47.2226 64.4855L47.3006 64.5375L47.3526 64.3295ZM46.8586 64.8235C46.7892 64.8755 46.7112 64.9275 46.6246 64.9795V65.2395C46.7806 65.0835 46.8586 64.9448 46.8586 64.8235ZM46.6246 65.2395C46.4166 65.3781 46.2952 65.4908 46.2606 65.5775C46.2952 65.6121 46.3386 65.6381 46.3906 65.6555C46.4599 65.4648 46.5379 65.3261 46.6246 65.2395ZM53.8786 65.1355C53.8786 64.5288 53.7226 63.8528 53.4106 63.1075C53.3412 62.9168 53.2372 62.6915 53.0986 62.4315C52.9252 62.3795 52.6999 62.3015 52.4226 62.1975C52.3532 62.1628 52.2059 62.0675 51.9806 61.9115C51.7726 61.7555 51.6512 61.6775 51.6166 61.6775C51.5299 61.6775 51.3652 61.7988 51.1226 62.0415C51.1052 61.9721 51.0706 61.8855 51.0186 61.7815C50.8452 62.0241 50.7586 62.1975 50.7586 62.3015C50.7239 62.2668 50.6892 62.2495 50.6546 62.2495C50.4292 62.2495 49.7792 62.7868 48.7046 63.8615C48.5486 64.0175 48.2712 64.3295 47.8726 64.7975C47.2486 65.5601 46.7719 66.4008 46.4426 67.3195C46.3732 67.5795 46.2692 67.9175 46.1306 68.3335C46.1306 68.3855 46.1306 68.4548 46.1306 68.5415C46.0612 68.6455 45.9919 68.7841 45.9226 68.9575C45.8012 69.4081 45.7406 69.7288 45.7406 69.9195C45.7232 69.9715 45.6799 70.0581 45.6106 70.1795C45.5759 70.1448 45.5586 70.0928 45.5586 70.0235L45.4806 70.5955C45.4979 70.5955 45.5239 70.5868 45.5586 70.5695C45.5932 70.5521 45.6366 70.5435 45.6886 70.5435C45.7059 70.5435 45.7406 70.5695 45.7926 70.6215V72.1035C45.7752 72.2075 45.6452 72.3721 45.4026 72.5975C45.2986 72.4415 45.2639 72.1988 45.2986 71.8695C45.3506 71.5401 45.3419 71.3408 45.2726 71.2715C45.0992 72.0341 45.0126 72.3981 45.0126 72.3635C45.0126 72.4501 45.0559 72.5715 45.1426 72.7275C45.1946 72.8315 45.1859 72.9355 45.1166 73.0395C45.1339 73.0568 45.2379 73.1608 45.4286 73.3515L45.3766 73.3775C45.4286 73.4295 45.4892 73.4901 45.5586 73.5595C45.7146 73.9235 45.8966 74.4695 46.1046 75.1975C46.1739 75.6655 46.3559 75.8995 46.6506 75.8995C46.6852 75.8995 46.8932 75.8648 47.2746 75.7955C47.6559 75.7261 47.8639 75.6915 47.8986 75.6915C47.9506 75.6915 48.0026 75.7088 48.0546 75.7435C48.1239 75.7608 48.1586 75.7695 48.1586 75.7695C48.1066 75.7001 48.0806 75.6221 48.0806 75.5355C48.0806 75.1888 48.2886 75.0155 48.7046 75.0155C48.7392 75.0155 48.7826 75.0241 48.8346 75.0415C48.9039 75.0588 48.9559 75.0675 48.9906 75.0675C49.0079 75.0675 49.4326 74.8595 50.2646 74.4435V74.2615C50.2299 74.2615 50.0912 74.3395 49.8486 74.4955L49.7186 74.3655C49.8746 74.2441 50.2732 73.9581 50.9146 73.5075C50.9666 73.2995 50.9926 73.2041 50.9926 73.2215C50.9059 73.2215 50.8539 73.2128 50.8366 73.1955C50.8539 73.1781 50.9232 73.1695 51.0446 73.1695C51.0446 73.0308 51.0792 72.8401 51.1486 72.5975C51.3219 72.3201 51.5646 72.0341 51.8766 71.7395C51.7899 71.7395 51.7379 71.7308 51.7206 71.7135C51.7899 71.6788 51.8852 71.6268 52.0066 71.5575C52.8039 70.2228 53.2459 69.1395 53.3326 68.3075C53.3326 68.2901 53.4106 67.8828 53.5666 67.0855C53.7052 66.3401 53.7746 65.9068 53.7746 65.7855C53.7746 65.7508 53.7399 65.6988 53.6706 65.6295C53.6012 65.5601 53.5666 65.5081 53.5666 65.4735C53.5666 65.3175 53.6706 65.2048 53.8786 65.1355ZM50.6806 75.3795L50.6546 75.3015L50.5506 75.3795V75.4575L50.6806 75.3795ZM45.4026 70.8295V70.6475H45.2986V70.8295H45.4026ZM50.5246 75.4315H50.3426C49.6492 75.8128 49.1639 76.0035 48.8866 76.0035C48.8346 76.0035 48.8086 75.9861 48.8086 75.9515C48.8259 75.9168 48.8172 75.8995 48.7826 75.8995C48.7479 75.8995 48.5746 75.9775 48.2626 76.1335C47.9679 76.2895 47.8032 76.3675 47.7686 76.3675C47.7339 76.3675 47.6386 76.3675 47.4826 76.3675C47.3439 76.3675 47.2312 76.3675 47.1446 76.3675V76.6535C47.2486 76.7575 47.3006 76.8095 47.3006 76.8095C47.3526 76.8095 47.4219 76.8008 47.5086 76.7835C47.5952 76.7661 47.6559 76.7575 47.6906 76.7575C47.9332 76.7575 48.1932 76.6535 48.4706 76.4455C48.3666 76.6535 48.3146 76.7575 48.3146 76.7575C48.3319 76.7575 48.3926 76.8095 48.4966 76.9135C48.6872 76.8788 48.9472 76.7575 49.2766 76.5495C49.5366 76.3761 49.7879 76.2028 50.0306 76.0295C50.0479 75.9775 50.0739 75.9168 50.1086 75.8475C50.2299 75.7781 50.3686 75.6395 50.5246 75.4315ZM45.4286 73.6375V73.5595H45.2986V73.6375H45.4286ZM45.5066 75.4315L45.4546 75.1715H45.3506L45.4286 75.4315H45.5066ZM42.4126 73.5595V73.2215H42.3346V73.5595H42.4126ZM49.3026 64.1995L49.0686 64.4335L49.0166 64.3815L49.2506 64.1475L49.3026 64.1995ZM48.9906 64.4595L48.7566 64.6935L48.7046 64.6415L48.9386 64.4075L48.9906 64.4595ZM52.8126 68.8015L52.6826 69.0615L52.6306 69.0355L52.7346 68.8015H52.8126ZM48.4186 64.9535C48.3666 65.0055 48.2712 65.1095 48.1326 65.2655C48.0112 65.4215 47.9246 65.5341 47.8726 65.6035C47.8552 65.3955 47.8899 65.2915 47.9766 65.2915C48.0286 65.2915 48.0546 65.3001 48.0546 65.3175C48.0546 65.3348 48.0719 65.3435 48.1066 65.3435C48.1066 65.3435 48.0892 65.3175 48.0546 65.2655C48.1066 65.1441 48.2279 65.0401 48.4186 64.9535ZM47.8206 65.6815L47.7426 65.8115L47.6906 65.7855L47.7426 65.6555L47.8206 65.6815ZM47.1186 66.5135C47.0839 66.5308 47.0666 66.5828 47.0666 66.6695L46.8846 66.5915C46.9712 66.5915 47.0492 66.5655 47.1186 66.5135ZM46.7286 67.3975H46.6506V67.2675H46.7286V67.3975ZM50.4726 73.2735C50.1259 73.6201 49.9266 73.7935 49.8746 73.7935C49.8399 73.7935 49.8226 73.7848 49.8226 73.7675C49.8399 73.7501 49.8226 73.7415 49.7706 73.7415C49.7359 73.7415 49.6752 73.7761 49.5886 73.8455C49.7966 73.7415 50.0912 73.5508 50.4726 73.2735ZM49.1726 74.4175C49.1726 74.5735 49.1379 74.6688 49.0686 74.7035H48.7826C48.8172 74.6515 48.9472 74.5561 49.1726 74.4175ZM45.3506 72.8055H45.2726L45.2206 72.6755L45.2726 72.6495L45.3506 72.8055ZM46.4686 73.2475C46.4686 73.4035 46.4079 73.4815 46.2866 73.4815C46.2519 73.4815 46.1999 73.4468 46.1306 73.3775C46.0786 73.4295 46.0526 73.4815 46.0526 73.5335C46.0526 73.7588 46.1219 74.1661 46.2606 74.7555C46.1046 74.7035 46.0092 74.6168 45.9746 74.4955C45.8532 74.1141 45.7926 73.6721 45.7926 73.1695C45.7926 73.1348 45.8012 73.0655 45.8186 72.9615C45.8359 72.8575 45.8446 72.7708 45.8446 72.7015C45.9659 72.7015 46.0266 72.6841 46.0266 72.6495C46.3212 72.9441 46.4686 73.1435 46.4686 73.2475ZM75.6954 65.5515H75.5914V65.3435H75.6954V65.5515ZM67.7394 58.4015L67.6094 58.4535V58.4015L67.7134 58.3235L67.7394 58.4015ZM75.6434 66.5135H75.5394V66.3835H75.6434V66.5135ZM63.7354 61.2615L63.6834 61.3915L63.6054 61.3655L63.6834 61.2355L63.7354 61.2615ZM63.5534 61.9115L63.4754 62.0675L63.3974 62.0155L63.4754 61.8855L63.5534 61.9115ZM63.3194 62.2235H63.1634V62.1455H63.3194V62.2235ZM75.7734 64.0955C75.7734 64.0261 75.7474 64.0608 75.6954 64.1995C75.7127 64.2341 75.6954 64.3901 75.6434 64.6675C75.6087 64.7195 75.5914 64.7715 75.5914 64.8235C75.5914 64.5981 75.5567 64.2861 75.4874 63.8875C75.4701 63.8355 75.4441 63.7835 75.4094 63.7315C75.2707 62.6221 74.8201 61.6168 74.0574 60.7155L73.9274 60.8455C73.9621 60.8628 74.0054 60.8888 74.0574 60.9235C74.2654 61.3048 74.4821 61.6861 74.7074 62.0675C74.9327 62.4488 75.0714 62.7955 75.1234 63.1075C75.1754 63.3155 75.2534 64.0261 75.3574 65.2395C75.4961 65.3261 75.5654 65.4215 75.5654 65.5255C75.5654 65.5428 75.5394 65.6815 75.4874 65.9415C75.4354 66.2015 75.4007 66.4008 75.3834 66.5395C75.4007 66.5568 75.4181 66.5915 75.4354 66.6435C75.4007 67.0941 75.3141 67.8048 75.1754 68.7755C75.0367 69.6421 74.8634 70.3268 74.6554 70.8295C74.6207 70.9161 74.6381 71.0201 74.7074 71.1415C74.4474 71.9215 73.9187 72.7968 73.1214 73.7675C72.8094 74.1661 72.5667 74.5128 72.3934 74.8075C72.2027 74.9808 71.9167 75.2408 71.5354 75.5875C71.9167 74.9808 72.3501 74.3221 72.8354 73.6115L72.7574 73.5335C72.7401 73.5508 72.7314 73.6028 72.7314 73.6895C72.6794 73.6375 72.6361 73.6115 72.6014 73.6115C72.6187 73.6115 72.6447 73.5855 72.6794 73.5335C72.7141 73.4815 72.7487 73.4468 72.7834 73.4295L72.7574 73.1175C72.7401 73.1175 72.6101 73.1955 72.3674 73.3515C72.4194 73.3861 72.5061 73.4381 72.6274 73.5075C72.5061 73.5421 72.3327 73.6201 72.1074 73.7415C71.5874 74.3135 71.1107 74.7815 70.6774 75.1455C70.6081 75.1975 70.4521 75.2841 70.2094 75.4055C70.0707 75.4748 69.9494 75.6221 69.8454 75.8475C69.8627 75.7955 69.8974 75.7001 69.9494 75.5615C69.9147 75.5441 69.8107 75.5355 69.6374 75.5355C69.5854 75.5355 69.5074 75.5875 69.4034 75.6915C69.4381 75.6568 69.4814 75.6135 69.5334 75.5615C69.5854 75.5095 69.5941 75.4315 69.5594 75.3275C69.5247 75.3448 69.4641 75.3708 69.3774 75.4055C69.2734 75.5441 68.8747 76.0295 68.1814 76.8615C68.1987 76.8615 68.2074 76.8788 68.2074 76.9135C68.1727 77.0175 67.9994 77.1735 67.6874 77.3815C67.7741 77.2775 67.9127 77.1475 68.1034 76.9915C68.1207 76.9741 68.1121 76.9481 68.0774 76.9135C67.8867 77.0001 67.7394 77.0781 67.6354 77.1475C67.0634 77.4768 66.5781 77.7715 66.1794 78.0315C66.1967 78.0661 66.2054 78.1268 66.2054 78.2135C66.1534 78.2135 66.0321 78.2568 65.8414 78.3435C65.6507 78.4301 65.5294 78.4735 65.4774 78.4735C65.4427 78.4735 65.4167 78.4561 65.3994 78.4215C65.3821 78.3868 65.3474 78.3695 65.2954 78.3695C65.0874 78.3695 64.9227 78.4301 64.8014 78.5515C64.8881 78.5861 64.9747 78.6035 65.0614 78.6035C65.0094 78.6035 64.9054 78.6208 64.7494 78.6555C64.8361 78.7421 64.8794 78.7855 64.8794 78.7855C65.0181 78.7855 65.1654 78.8115 65.3214 78.8635H64.6714C64.6541 78.7421 64.6021 78.6468 64.5154 78.5775C64.3767 78.6295 64.2034 78.6295 63.9954 78.5775C63.9781 78.5775 63.9261 78.5948 63.8394 78.6295C63.7701 78.6641 63.7181 78.6815 63.6834 78.6815C63.6487 78.6815 63.5621 78.6208 63.4234 78.4995C63.2847 78.3955 63.1721 78.3261 63.0854 78.2915C62.7214 78.2048 62.5567 78.1615 62.5914 78.1615C62.5567 78.1615 62.4961 78.1875 62.4094 78.2395C62.3227 78.2915 62.2534 78.3175 62.2014 78.3175C62.1494 78.3175 62.0801 78.2568 61.9934 78.1355C61.9241 78.0141 61.8461 77.9275 61.7594 77.8755C61.6727 77.8408 61.5427 77.7715 61.3694 77.6675C61.2307 77.4941 61.1181 77.0001 61.0314 76.1855C61.0314 76.0988 60.9187 75.7868 60.6934 75.2495C60.6934 75.1801 60.6847 75.0848 60.6674 74.9635C60.5634 74.7901 60.4507 74.5388 60.3294 74.2095C60.2254 73.8628 60.1647 73.5941 60.1474 73.4035C60.0954 72.8141 60.0694 72.4241 60.0694 72.2335C60.0694 72.1121 60.1474 71.3148 60.3034 69.8415C60.3207 69.7895 60.3121 69.7635 60.2774 69.7635C60.3294 69.6768 60.3727 69.5728 60.4074 69.4515C60.4421 69.2955 60.3987 69.2088 60.2774 69.1915C60.4507 69.0875 60.5634 68.7408 60.6154 68.1515C60.6154 68.0995 60.6327 67.9955 60.6674 67.8395C60.7021 67.6835 60.7194 67.5708 60.7194 67.5015C60.7194 67.5188 60.7367 67.5535 60.7714 67.6055L60.9014 67.4755C60.7627 67.3888 60.6414 67.3455 60.5374 67.3455C60.8841 66.4961 61.3347 65.5948 61.8894 64.6415C62.0454 64.3641 62.3054 63.9481 62.6694 63.3935C62.7907 63.2548 63.0161 62.9515 63.3454 62.4835C63.3974 62.4661 63.4667 62.4055 63.5534 62.3015C63.6401 62.1975 63.8221 62.0155 64.0994 61.7555C64.1514 61.7381 64.2207 61.7121 64.3074 61.6775C64.7754 61.2961 65.4947 60.6981 66.4654 59.8835C66.4827 59.8661 66.5087 59.8141 66.5434 59.7275C66.5954 59.6235 66.6474 59.5715 66.6994 59.5715C66.7341 59.5715 66.7427 59.5801 66.7254 59.5975C66.7254 59.6148 66.7514 59.6235 66.8034 59.6235C66.9247 59.6235 67.0027 59.4761 67.0374 59.1815C67.0721 58.8695 67.1761 58.7135 67.3494 58.7135C67.3841 58.7135 67.4274 58.7221 67.4794 58.7395C67.5314 58.7568 67.5834 58.7655 67.6354 58.7655C67.6874 58.7655 67.7047 58.7741 67.6874 58.7915C67.6527 58.8261 67.6441 58.8521 67.6614 58.8695C67.7307 58.7828 67.8347 58.6528 67.9734 58.4795C68.0254 58.4621 68.0861 58.4448 68.1554 58.4275C68.4154 58.1328 68.7101 57.9855 69.0394 57.9855C69.0741 57.9855 69.1347 58.0028 69.2214 58.0375C69.3081 58.0721 69.3774 58.0895 69.4294 58.0895C69.4641 58.0895 69.5507 58.0808 69.6894 58.0635C69.8281 58.0461 69.9147 58.0375 69.9494 58.0375C70.9547 58.0375 71.9601 58.5748 72.9654 59.6495C72.9307 59.7015 72.9307 59.8055 72.9654 59.9615C73.1734 60.1348 73.4681 60.4035 73.8494 60.7675C73.8494 60.7155 73.8754 60.6461 73.9274 60.5595C73.8754 60.4901 73.7714 60.4121 73.6154 60.3255C73.4767 60.2215 73.4074 60.1348 73.4074 60.0655C73.4074 60.0308 73.4247 59.9875 73.4594 59.9355C73.5287 59.9528 73.6241 59.9788 73.7454 60.0135C74.8894 61.2095 75.5221 62.4315 75.6434 63.6795C75.6434 63.6968 75.6607 63.7575 75.6954 63.8615C75.7474 63.9655 75.7734 64.0435 75.7734 64.0955ZM72.4454 73.8715L72.3154 74.0015L72.2634 73.9495L72.3934 73.8195L72.4454 73.8715ZM74.3174 76.2375C74.3347 76.4628 74.2394 76.5755 74.0314 76.5755H73.7974C73.6067 76.5755 73.5114 76.4801 73.5114 76.2895C73.5114 76.3068 73.5374 76.2721 73.5894 76.1855C73.5721 76.1161 73.5634 75.9515 73.5634 75.6915H73.7454C73.9534 75.8995 74.0921 76.0035 74.1614 76.0035C74.1961 76.0035 74.2307 75.9861 74.2654 75.9515C74.3001 75.9168 74.3174 75.8995 74.3174 75.8995V76.2375ZM73.1474 76.2635C73.1474 76.2461 73.0781 76.3588 72.9394 76.6015C72.9394 76.6708 72.9134 76.7748 72.8614 76.9135C72.6014 77.2255 72.3501 77.3815 72.1074 77.3815C72.0901 77.3815 72.0207 77.3641 71.8994 77.3295C71.7954 77.3121 71.7174 77.3121 71.6654 77.3295C71.6827 77.2601 71.6567 77.1561 71.5874 77.0175C71.5354 76.8615 71.5094 76.7575 71.5094 76.7055C71.5094 76.7748 71.5961 76.5668 71.7694 76.0815C71.8561 76.0295 71.9254 75.9601 71.9774 75.8735C71.9081 75.8215 71.8474 75.8128 71.7954 75.8475C72.1594 75.6741 72.3501 75.5875 72.3674 75.5875C72.4194 75.5875 72.5061 75.6048 72.6274 75.6395C72.7487 75.6741 72.8354 75.6915 72.8874 75.6915V75.7955C72.9047 75.8821 72.9047 75.9255 72.8874 75.9255C73.0607 76.0988 73.1474 76.2115 73.1474 76.2635ZM62.2794 63.2375C62.2967 63.3761 62.1754 63.6361 61.9154 64.0175C61.7594 64.2428 61.5947 64.4768 61.4214 64.7195C61.3347 64.8581 61.1874 65.1441 60.9794 65.5775C60.8754 65.8548 60.7021 66.2448 60.4594 66.7475C60.4247 66.7995 60.3727 66.8861 60.3034 67.0075C60.2514 67.1288 60.1821 67.3455 60.0954 67.6575C60.0087 67.9521 59.9567 68.1428 59.9394 68.2295C59.9221 68.2988 59.8701 68.3335 59.7834 68.3335V68.1515C59.7834 68.1861 59.9567 67.7181 60.3034 66.7475C60.7714 65.5168 61.4301 64.3468 62.2794 63.2375ZM71.3014 76.8095H71.2494L71.1714 76.6795L71.2494 76.6535L71.3014 76.8095ZM63.4754 61.3655C63.4234 61.4695 63.3281 61.6255 63.1894 61.8335C62.8427 62.1975 62.3834 62.7608 61.8114 63.5235C61.7247 63.6621 61.6207 63.8008 61.4994 63.9395C61.2567 64.1995 61.0401 64.5201 60.8494 64.9015C60.7107 65.2135 60.5634 65.5255 60.4074 65.8375C59.8354 66.9121 59.5147 67.9781 59.4454 69.0355C59.4281 69.2781 59.3847 69.6768 59.3154 70.2315C59.2461 70.7688 59.2114 71.0548 59.2114 71.0895C59.2114 71.1241 59.2461 71.2801 59.3154 71.5575C59.3847 71.8348 59.4194 71.9995 59.4194 72.0515C59.4194 72.1728 59.4021 72.2595 59.3674 72.3115C59.3501 72.3461 59.3154 72.3895 59.2634 72.4415C59.2461 72.5975 59.2547 72.7448 59.2894 72.8835C59.2547 72.8315 59.2201 72.7101 59.1854 72.5195C59.1854 72.5021 59.1074 72.4588 58.9514 72.3895C58.8474 72.0255 58.7954 71.7741 58.7954 71.6355C58.7954 71.7915 58.8561 71.2455 58.9774 69.9975C58.9947 69.7721 59.0641 69.3561 59.1854 68.7495C59.1681 68.6628 59.1594 68.5501 59.1594 68.4115C59.4367 67.1461 60.0867 65.6468 61.1094 63.9135C61.2307 63.7401 61.4214 63.5061 61.6814 63.2115C62.0801 62.8128 62.6781 62.1975 63.4754 61.3655ZM67.5054 77.4855L67.3494 77.6155L67.2974 77.5375L67.4534 77.4075L67.5054 77.4855ZM60.0174 74.8595C59.9827 74.8248 59.9307 74.8335 59.8614 74.8855C59.9307 75.0068 59.9654 75.1195 59.9654 75.2235C59.8961 75.1715 59.8007 74.8421 59.6794 74.2355C59.6274 74.3048 59.5407 74.3048 59.4194 74.2355C59.4194 73.9928 59.3847 73.6375 59.3154 73.1695C59.4021 73.1695 59.4627 73.1868 59.4974 73.2215C59.5321 73.2215 59.5667 73.1955 59.6014 73.1435C59.6014 73.0915 59.5927 73.0048 59.5754 72.8835C59.5581 72.7448 59.5494 72.6408 59.5494 72.5715C59.5494 71.2541 59.6014 70.5088 59.7054 70.3355C59.7054 72.4675 59.7661 73.9321 59.8874 74.7295C59.9741 74.8335 60.0174 74.8768 60.0174 74.8595ZM69.7414 61.7815C69.5507 61.5908 69.4381 61.4955 69.4034 61.4955H69.1434C69.2647 61.5475 69.4641 61.6428 69.7414 61.7815ZM66.8554 61.9375C66.6647 62.0761 66.4047 62.2755 66.0754 62.5355C66.0581 62.5528 66.0407 62.5961 66.0234 62.6655C66.0061 62.7348 65.9714 62.7695 65.9194 62.7695L66.0754 62.8215C66.1794 62.5961 66.3354 62.4401 66.5434 62.3535C66.7514 62.2668 66.8554 62.1281 66.8554 61.9375ZM65.8414 63.0555L65.7374 63.0295C65.6334 63.1508 65.4861 63.3328 65.2954 63.5755C65.3647 63.5061 65.4601 63.4108 65.5814 63.2895C65.7027 63.1681 65.7894 63.0901 65.8414 63.0555ZM73.4074 72.3115C73.3727 72.2941 73.3294 72.2855 73.2774 72.2855C73.2254 72.2855 73.1821 72.2941 73.1474 72.3115C73.1821 72.3461 73.2081 72.3895 73.2254 72.4415C73.2427 72.4241 73.2687 72.4068 73.3034 72.3895C73.3554 72.3548 73.3901 72.3288 73.4074 72.3115ZM64.7754 64.1475L64.6974 64.0955L64.5934 64.2775L64.6454 64.3295L64.7754 64.1475ZM64.5674 64.3295H64.4894L64.4374 64.4855L64.5154 64.5375L64.5674 64.3295ZM64.0734 64.8235C64.0041 64.8755 63.9261 64.9275 63.8394 64.9795V65.2395C63.9954 65.0835 64.0734 64.9448 64.0734 64.8235ZM63.8394 65.2395C63.6314 65.3781 63.5101 65.4908 63.4754 65.5775C63.5101 65.6121 63.5534 65.6381 63.6054 65.6555C63.6747 65.4648 63.7527 65.3261 63.8394 65.2395ZM71.0934 65.1355C71.0934 64.5288 70.9374 63.8528 70.6254 63.1075C70.5561 62.9168 70.4521 62.6915 70.3134 62.4315C70.1401 62.3795 69.9147 62.3015 69.6374 62.1975C69.5681 62.1628 69.4207 62.0675 69.1954 61.9115C68.9874 61.7555 68.8661 61.6775 68.8314 61.6775C68.7447 61.6775 68.5801 61.7988 68.3374 62.0415C68.3201 61.9721 68.2854 61.8855 68.2334 61.7815C68.0601 62.0241 67.9734 62.1975 67.9734 62.3015C67.9387 62.2668 67.9041 62.2495 67.8694 62.2495C67.6441 62.2495 66.9941 62.7868 65.9194 63.8615C65.7634 64.0175 65.4861 64.3295 65.0874 64.7975C64.4634 65.5601 63.9867 66.4008 63.6574 67.3195C63.5881 67.5795 63.4841 67.9175 63.3454 68.3335C63.3454 68.3855 63.3454 68.4548 63.3454 68.5415C63.2761 68.6455 63.2067 68.7841 63.1374 68.9575C63.0161 69.4081 62.9554 69.7288 62.9554 69.9195C62.9381 69.9715 62.8947 70.0581 62.8254 70.1795C62.7907 70.1448 62.7734 70.0928 62.7734 70.0235L62.6954 70.5955C62.7127 70.5955 62.7387 70.5868 62.7734 70.5695C62.8081 70.5521 62.8514 70.5435 62.9034 70.5435C62.9207 70.5435 62.9554 70.5695 63.0074 70.6215V72.1035C62.9901 72.2075 62.8601 72.3721 62.6174 72.5975C62.5134 72.4415 62.4787 72.1988 62.5134 71.8695C62.5654 71.5401 62.5567 71.3408 62.4874 71.2715C62.3141 72.0341 62.2274 72.3981 62.2274 72.3635C62.2274 72.4501 62.2707 72.5715 62.3574 72.7275C62.4094 72.8315 62.4007 72.9355 62.3314 73.0395C62.3487 73.0568 62.4527 73.1608 62.6434 73.3515L62.5914 73.3775C62.6434 73.4295 62.7041 73.4901 62.7734 73.5595C62.9294 73.9235 63.1114 74.4695 63.3194 75.1975C63.3887 75.6655 63.5707 75.8995 63.8654 75.8995C63.9001 75.8995 64.1081 75.8648 64.4894 75.7955C64.8707 75.7261 65.0787 75.6915 65.1134 75.6915C65.1654 75.6915 65.2174 75.7088 65.2694 75.7435C65.3387 75.7608 65.3734 75.7695 65.3734 75.7695C65.3214 75.7001 65.2954 75.6221 65.2954 75.5355C65.2954 75.1888 65.5034 75.0155 65.9194 75.0155C65.9541 75.0155 65.9974 75.0241 66.0494 75.0415C66.1187 75.0588 66.1707 75.0675 66.2054 75.0675C66.2227 75.0675 66.6474 74.8595 67.4794 74.4435V74.2615C67.4447 74.2615 67.3061 74.3395 67.0634 74.4955L66.9334 74.3655C67.0894 74.2441 67.4881 73.9581 68.1294 73.5075C68.1814 73.2995 68.2074 73.2041 68.2074 73.2215C68.1207 73.2215 68.0687 73.2128 68.0514 73.1955C68.0687 73.1781 68.1381 73.1695 68.2594 73.1695C68.2594 73.0308 68.2941 72.8401 68.3634 72.5975C68.5367 72.3201 68.7794 72.0341 69.0914 71.7395C69.0047 71.7395 68.9527 71.7308 68.9354 71.7135C69.0047 71.6788 69.1001 71.6268 69.2214 71.5575C70.0187 70.2228 70.4607 69.1395 70.5474 68.3075C70.5474 68.2901 70.6254 67.8828 70.7814 67.0855C70.9201 66.3401 70.9894 65.9068 70.9894 65.7855C70.9894 65.7508 70.9547 65.6988 70.8854 65.6295C70.8161 65.5601 70.7814 65.5081 70.7814 65.4735C70.7814 65.3175 70.8854 65.2048 71.0934 65.1355ZM67.8954 75.3795L67.8694 75.3015L67.7654 75.3795V75.4575L67.8954 75.3795ZM62.6174 70.8295V70.6475H62.5134V70.8295H62.6174ZM67.7394 75.4315H67.5574C66.8641 75.8128 66.3787 76.0035 66.1014 76.0035C66.0494 76.0035 66.0234 75.9861 66.0234 75.9515C66.0407 75.9168 66.0321 75.8995 65.9974 75.8995C65.9627 75.8995 65.7894 75.9775 65.4774 76.1335C65.1827 76.2895 65.0181 76.3675 64.9834 76.3675C64.9487 76.3675 64.8534 76.3675 64.6974 76.3675C64.5587 76.3675 64.4461 76.3675 64.3594 76.3675V76.6535C64.4634 76.7575 64.5154 76.8095 64.5154 76.8095C64.5674 76.8095 64.6367 76.8008 64.7234 76.7835C64.8101 76.7661 64.8707 76.7575 64.9054 76.7575C65.1481 76.7575 65.4081 76.6535 65.6854 76.4455C65.5814 76.6535 65.5294 76.7575 65.5294 76.7575C65.5467 76.7575 65.6074 76.8095 65.7114 76.9135C65.9021 76.8788 66.1621 76.7575 66.4914 76.5495C66.7514 76.3761 67.0027 76.2028 67.2454 76.0295C67.2627 75.9775 67.2887 75.9168 67.3234 75.8475C67.4447 75.7781 67.5834 75.6395 67.7394 75.4315ZM62.6434 73.6375V73.5595H62.5134V73.6375H62.6434ZM62.7214 75.4315L62.6694 75.1715H62.5654L62.6434 75.4315H62.7214ZM59.6274 73.5595V73.2215H59.5494V73.5595H59.6274ZM66.5174 64.1995L66.2834 64.4335L66.2314 64.3815L66.4654 64.1475L66.5174 64.1995ZM66.2054 64.4595L65.9714 64.6935L65.9194 64.6415L66.1534 64.4075L66.2054 64.4595ZM70.0274 68.8015L69.8974 69.0615L69.8454 69.0355L69.9494 68.8015H70.0274ZM65.6334 64.9535C65.5814 65.0055 65.4861 65.1095 65.3474 65.2655C65.2261 65.4215 65.1394 65.5341 65.0874 65.6035C65.0701 65.3955 65.1047 65.2915 65.1914 65.2915C65.2434 65.2915 65.2694 65.3001 65.2694 65.3175C65.2694 65.3348 65.2867 65.3435 65.3214 65.3435C65.3214 65.3435 65.3041 65.3175 65.2694 65.2655C65.3214 65.1441 65.4427 65.0401 65.6334 64.9535ZM65.0354 65.6815L64.9574 65.8115L64.9054 65.7855L64.9574 65.6555L65.0354 65.6815ZM64.3334 66.5135C64.2987 66.5308 64.2814 66.5828 64.2814 66.6695L64.0994 66.5915C64.1861 66.5915 64.2641 66.5655 64.3334 66.5135ZM63.9434 67.3975H63.8654V67.2675H63.9434V67.3975ZM67.6874 73.2735C67.3407 73.6201 67.1414 73.7935 67.0894 73.7935C67.0547 73.7935 67.0374 73.7848 67.0374 73.7675C67.0547 73.7501 67.0374 73.7415 66.9854 73.7415C66.9507 73.7415 66.8901 73.7761 66.8034 73.8455C67.0114 73.7415 67.3061 73.5508 67.6874 73.2735ZM66.3874 74.4175C66.3874 74.5735 66.3527 74.6688 66.2834 74.7035H65.9974C66.0321 74.6515 66.1621 74.5561 66.3874 74.4175ZM62.5654 72.8055H62.4874L62.4354 72.6755L62.4874 72.6495L62.5654 72.8055ZM63.6834 73.2475C63.6834 73.4035 63.6227 73.4815 63.5014 73.4815C63.4667 73.4815 63.4147 73.4468 63.3454 73.3775C63.2934 73.4295 63.2674 73.4815 63.2674 73.5335C63.2674 73.7588 63.3367 74.1661 63.4754 74.7555C63.3194 74.7035 63.2241 74.6168 63.1894 74.4955C63.0681 74.1141 63.0074 73.6721 63.0074 73.1695C63.0074 73.1348 63.0161 73.0655 63.0334 72.9615C63.0507 72.8575 63.0594 72.7708 63.0594 72.7015C63.1807 72.7015 63.2414 72.6841 63.2414 72.6495C63.5361 72.9441 63.6834 73.1435 63.6834 73.2475ZM92.9103 65.5515H92.8063V65.3435H92.9103V65.5515ZM84.9543 58.4015L84.8243 58.4535V58.4015L84.9283 58.3235L84.9543 58.4015ZM92.8583 66.5135H92.7543V66.3835H92.8583V66.5135ZM80.9503 61.2615L80.8983 61.3915L80.8203 61.3655L80.8983 61.2355L80.9503 61.2615ZM80.7683 61.9115L80.6903 62.0675L80.6123 62.0155L80.6903 61.8855L80.7683 61.9115ZM80.5343 62.2235H80.3783V62.1455H80.5343V62.2235ZM92.9883 64.0955C92.9883 64.0261 92.9623 64.0608 92.9103 64.1995C92.9276 64.2341 92.9103 64.3901 92.8583 64.6675C92.8236 64.7195 92.8063 64.7715 92.8063 64.8235C92.8063 64.5981 92.7716 64.2861 92.7023 63.8875C92.6849 63.8355 92.6589 63.7835 92.6243 63.7315C92.4856 62.6221 92.0349 61.6168 91.2723 60.7155L91.1423 60.8455C91.1769 60.8628 91.2203 60.8888 91.2723 60.9235C91.4803 61.3048 91.6969 61.6861 91.9223 62.0675C92.1476 62.4488 92.2863 62.7955 92.3383 63.1075C92.3903 63.3155 92.4683 64.0261 92.5723 65.2395C92.7109 65.3261 92.7803 65.4215 92.7803 65.5255C92.7803 65.5428 92.7543 65.6815 92.7023 65.9415C92.6503 66.2015 92.6156 66.4008 92.5983 66.5395C92.6156 66.5568 92.6329 66.5915 92.6503 66.6435C92.6156 67.0941 92.5289 67.8048 92.3903 68.7755C92.2516 69.6421 92.0783 70.3268 91.8703 70.8295C91.8356 70.9161 91.8529 71.0201 91.9223 71.1415C91.6623 71.9215 91.1336 72.7968 90.3363 73.7675C90.0243 74.1661 89.7816 74.5128 89.6083 74.8075C89.4176 74.9808 89.1316 75.2408 88.7503 75.5875C89.1316 74.9808 89.5649 74.3221 90.0503 73.6115L89.9723 73.5335C89.9549 73.5508 89.9463 73.6028 89.9463 73.6895C89.8943 73.6375 89.8509 73.6115 89.8163 73.6115C89.8336 73.6115 89.8596 73.5855 89.8943 73.5335C89.9289 73.4815 89.9636 73.4468 89.9983 73.4295L89.9723 73.1175C89.9549 73.1175 89.8249 73.1955 89.5823 73.3515C89.6343 73.3861 89.7209 73.4381 89.8423 73.5075C89.7209 73.5421 89.5476 73.6201 89.3223 73.7415C88.8023 74.3135 88.3256 74.7815 87.8923 75.1455C87.8229 75.1975 87.6669 75.2841 87.4243 75.4055C87.2856 75.4748 87.1643 75.6221 87.0603 75.8475C87.0776 75.7955 87.1123 75.7001 87.1643 75.5615C87.1296 75.5441 87.0256 75.5355 86.8523 75.5355C86.8003 75.5355 86.7223 75.5875 86.6183 75.6915C86.6529 75.6568 86.6963 75.6135 86.7483 75.5615C86.8003 75.5095 86.8089 75.4315 86.7743 75.3275C86.7396 75.3448 86.6789 75.3708 86.5923 75.4055C86.4883 75.5441 86.0896 76.0295 85.3963 76.8615C85.4136 76.8615 85.4223 76.8788 85.4223 76.9135C85.3876 77.0175 85.2143 77.1735 84.9023 77.3815C84.9889 77.2775 85.1276 77.1475 85.3183 76.9915C85.3356 76.9741 85.3269 76.9481 85.2923 76.9135C85.1016 77.0001 84.9543 77.0781 84.8503 77.1475C84.2783 77.4768 83.7929 77.7715 83.3943 78.0315C83.4116 78.0661 83.4203 78.1268 83.4203 78.2135C83.3683 78.2135 83.2469 78.2568 83.0563 78.3435C82.8656 78.4301 82.7443 78.4735 82.6923 78.4735C82.6576 78.4735 82.6316 78.4561 82.6143 78.4215C82.5969 78.3868 82.5623 78.3695 82.5103 78.3695C82.3023 78.3695 82.1376 78.4301 82.0163 78.5515C82.1029 78.5861 82.1896 78.6035 82.2763 78.6035C82.2243 78.6035 82.1203 78.6208 81.9643 78.6555C82.0509 78.7421 82.0943 78.7855 82.0943 78.7855C82.2329 78.7855 82.3803 78.8115 82.5363 78.8635H81.8863C81.8689 78.7421 81.8169 78.6468 81.7303 78.5775C81.5916 78.6295 81.4183 78.6295 81.2103 78.5775C81.1929 78.5775 81.1409 78.5948 81.0543 78.6295C80.9849 78.6641 80.9329 78.6815 80.8983 78.6815C80.8636 78.6815 80.7769 78.6208 80.6383 78.4995C80.4996 78.3955 80.3869 78.3261 80.3003 78.2915C79.9363 78.2048 79.7716 78.1615 79.8063 78.1615C79.7716 78.1615 79.7109 78.1875 79.6243 78.2395C79.5376 78.2915 79.4683 78.3175 79.4163 78.3175C79.3643 78.3175 79.2949 78.2568 79.2083 78.1355C79.1389 78.0141 79.0609 77.9275 78.9743 77.8755C78.8876 77.8408 78.7576 77.7715 78.5843 77.6675C78.4456 77.4941 78.3329 77.0001 78.2463 76.1855C78.2463 76.0988 78.1336 75.7868 77.9083 75.2495C77.9083 75.1801 77.8996 75.0848 77.8823 74.9635C77.7783 74.7901 77.6656 74.5388 77.5443 74.2095C77.4403 73.8628 77.3796 73.5941 77.3623 73.4035C77.3103 72.8141 77.2843 72.4241 77.2843 72.2335C77.2843 72.1121 77.3623 71.3148 77.5183 69.8415C77.5356 69.7895 77.5269 69.7635 77.4923 69.7635C77.5443 69.6768 77.5876 69.5728 77.6222 69.4515C77.6569 69.2955 77.6136 69.2088 77.4923 69.1915C77.6656 69.0875 77.7783 68.7408 77.8303 68.1515C77.8303 68.0995 77.8476 67.9955 77.8823 67.8395C77.9169 67.6835 77.9343 67.5708 77.9343 67.5015C77.9343 67.5188 77.9516 67.5535 77.9863 67.6055L78.1163 67.4755C77.9776 67.3888 77.8563 67.3455 77.7523 67.3455C78.0989 66.4961 78.5496 65.5948 79.1043 64.6415C79.2603 64.3641 79.5203 63.9481 79.8843 63.3935C80.0056 63.2548 80.2309 62.9515 80.5603 62.4835C80.6123 62.4661 80.6816 62.4055 80.7683 62.3015C80.8549 62.1975 81.0369 62.0155 81.3143 61.7555C81.3663 61.7381 81.4356 61.7121 81.5223 61.6775C81.9903 61.2961 82.7096 60.6981 83.6803 59.8835C83.6976 59.8661 83.7236 59.8141 83.7583 59.7275C83.8103 59.6235 83.8623 59.5715 83.9143 59.5715C83.9489 59.5715 83.9576 59.5801 83.9403 59.5975C83.9403 59.6148 83.9663 59.6235 84.0183 59.6235C84.1396 59.6235 84.2176 59.4761 84.2523 59.1815C84.2869 58.8695 84.3909 58.7135 84.5643 58.7135C84.5989 58.7135 84.6423 58.7221 84.6943 58.7395C84.7463 58.7568 84.7983 58.7655 84.8503 58.7655C84.9023 58.7655 84.9196 58.7741 84.9023 58.7915C84.8676 58.8261 84.8589 58.8521 84.8763 58.8695C84.9456 58.7828 85.0496 58.6528 85.1883 58.4795C85.2403 58.4621 85.3009 58.4448 85.3703 58.4275C85.6303 58.1328 85.9249 57.9855 86.2543 57.9855C86.2889 57.9855 86.3496 58.0028 86.4363 58.0375C86.5229 58.0721 86.5923 58.0895 86.6443 58.0895C86.6789 58.0895 86.7656 58.0808 86.9043 58.0635C87.0429 58.0461 87.1296 58.0375 87.1643 58.0375C88.1696 58.0375 89.1749 58.5748 90.1803 59.6495C90.1456 59.7015 90.1456 59.8055 90.1803 59.9615C90.3883 60.1348 90.6829 60.4035 91.0643 60.7675C91.0643 60.7155 91.0903 60.6461 91.1423 60.5595C91.0903 60.4901 90.9863 60.4121 90.8303 60.3255C90.6916 60.2215 90.6223 60.1348 90.6223 60.0655C90.6223 60.0308 90.6396 59.9875 90.6743 59.9355C90.7436 59.9528 90.8389 59.9788 90.9603 60.0135C92.1043 61.2095 92.7369 62.4315 92.8583 63.6795C92.8583 63.6968 92.8756 63.7575 92.9103 63.8615C92.9623 63.9655 92.9883 64.0435 92.9883 64.0955ZM89.6603 73.8715L89.5303 74.0015L89.4783 73.9495L89.6083 73.8195L89.6603 73.8715ZM91.5323 76.2375C91.5496 76.4628 91.4543 76.5755 91.2463 76.5755H91.0123C90.8216 76.5755 90.7263 76.4801 90.7263 76.2895C90.7263 76.3068 90.7523 76.2721 90.8043 76.1855C90.7869 76.1161 90.7783 75.9515 90.7783 75.6915H90.9603C91.1683 75.8995 91.3069 76.0035 91.3763 76.0035C91.4109 76.0035 91.4456 75.9861 91.4803 75.9515C91.5149 75.9168 91.5323 75.8995 91.5323 75.8995V76.2375ZM90.3623 76.2635C90.3623 76.2461 90.2929 76.3588 90.1543 76.6015C90.1543 76.6708 90.1283 76.7748 90.0763 76.9135C89.8163 77.2255 89.5649 77.3815 89.3223 77.3815C89.3049 77.3815 89.2356 77.3641 89.1143 77.3295C89.0103 77.3121 88.9323 77.3121 88.8803 77.3295C88.8976 77.2601 88.8716 77.1561 88.8023 77.0175C88.7503 76.8615 88.7243 76.7575 88.7243 76.7055C88.7243 76.7748 88.8109 76.5668 88.9843 76.0815C89.0709 76.0295 89.1403 75.9601 89.1923 75.8735C89.1229 75.8215 89.0623 75.8128 89.0103 75.8475C89.3743 75.6741 89.5649 75.5875 89.5823 75.5875C89.6343 75.5875 89.7209 75.6048 89.8423 75.6395C89.9636 75.6741 90.0503 75.6915 90.1023 75.6915V75.7955C90.1196 75.8821 90.1196 75.9255 90.1023 75.9255C90.2756 76.0988 90.3623 76.2115 90.3623 76.2635ZM79.4943 63.2375C79.5116 63.3761 79.3903 63.6361 79.1303 64.0175C78.9743 64.2428 78.8096 64.4768 78.6363 64.7195C78.5496 64.8581 78.4023 65.1441 78.1943 65.5775C78.0903 65.8548 77.9169 66.2448 77.6743 66.7475C77.6396 66.7995 77.5876 66.8861 77.5183 67.0075C77.4663 67.1288 77.3969 67.3455 77.3103 67.6575C77.2236 67.9521 77.1716 68.1428 77.1543 68.2295C77.1369 68.2988 77.0849 68.3335 76.9983 68.3335V68.1515C76.9983 68.1861 77.1716 67.7181 77.5183 66.7475C77.9863 65.5168 78.6449 64.3468 79.4943 63.2375ZM88.5163 76.8095H88.4643L88.3863 76.6795L88.4643 76.6535L88.5163 76.8095ZM80.6903 61.3655C80.6383 61.4695 80.5429 61.6255 80.4043 61.8335C80.0576 62.1975 79.5983 62.7608 79.0263 63.5235C78.9396 63.6621 78.8356 63.8008 78.7143 63.9395C78.4716 64.1995 78.2549 64.5201 78.0643 64.9015C77.9256 65.2135 77.7783 65.5255 77.6222 65.8375C77.0502 66.9121 76.7296 67.9781 76.6603 69.0355C76.6429 69.2781 76.5996 69.6768 76.5303 70.2315C76.4609 70.7688 76.4263 71.0548 76.4263 71.0895C76.4263 71.1241 76.4609 71.2801 76.5303 71.5575C76.5996 71.8348 76.6343 71.9995 76.6343 72.0515C76.6343 72.1728 76.6169 72.2595 76.5823 72.3115C76.5649 72.3461 76.5303 72.3895 76.4783 72.4415C76.4609 72.5975 76.4696 72.7448 76.5043 72.8835C76.4696 72.8315 76.4349 72.7101 76.4003 72.5195C76.4003 72.5021 76.3223 72.4588 76.1663 72.3895C76.0623 72.0255 76.0103 71.7741 76.0103 71.6355C76.0103 71.7915 76.0709 71.2455 76.1923 69.9975C76.2096 69.7721 76.2789 69.3561 76.4003 68.7495C76.3829 68.6628 76.3743 68.5501 76.3743 68.4115C76.6516 67.1461 77.3016 65.6468 78.3243 63.9135C78.4456 63.7401 78.6363 63.5061 78.8963 63.2115C79.2949 62.8128 79.8929 62.1975 80.6903 61.3655ZM84.7203 77.4855L84.5643 77.6155L84.5123 77.5375L84.6683 77.4075L84.7203 77.4855ZM77.2323 74.8595C77.1976 74.8248 77.1456 74.8335 77.0763 74.8855C77.1456 75.0068 77.1803 75.1195 77.1803 75.2235C77.1109 75.1715 77.0156 74.8421 76.8943 74.2355C76.8423 74.3048 76.7556 74.3048 76.6343 74.2355C76.6343 73.9928 76.5996 73.6375 76.5303 73.1695C76.6169 73.1695 76.6776 73.1868 76.7123 73.2215C76.7469 73.2215 76.7816 73.1955 76.8163 73.1435C76.8163 73.0915 76.8076 73.0048 76.7903 72.8835C76.7729 72.7448 76.7642 72.6408 76.7642 72.5715C76.7642 71.2541 76.8163 70.5088 76.9203 70.3355C76.9203 72.4675 76.9809 73.9321 77.1023 74.7295C77.1889 74.8335 77.2323 74.8768 77.2323 74.8595ZM86.9563 61.7815C86.7656 61.5908 86.6529 61.4955 86.6183 61.4955H86.3583C86.4796 61.5475 86.6789 61.6428 86.9563 61.7815ZM84.0703 61.9375C83.8796 62.0761 83.6196 62.2755 83.2903 62.5355C83.2729 62.5528 83.2556 62.5961 83.2383 62.6655C83.2209 62.7348 83.1863 62.7695 83.1343 62.7695L83.2903 62.8215C83.3943 62.5961 83.5503 62.4401 83.7583 62.3535C83.9663 62.2668 84.0703 62.1281 84.0703 61.9375ZM83.0563 63.0555L82.9523 63.0295C82.8483 63.1508 82.7009 63.3328 82.5103 63.5755C82.5796 63.5061 82.6749 63.4108 82.7963 63.2895C82.9176 63.1681 83.0043 63.0901 83.0563 63.0555ZM90.6223 72.3115C90.5876 72.2941 90.5443 72.2855 90.4923 72.2855C90.4403 72.2855 90.3969 72.2941 90.3623 72.3115C90.3969 72.3461 90.4229 72.3895 90.4403 72.4415C90.4576 72.4241 90.4836 72.4068 90.5183 72.3895C90.5703 72.3548 90.6049 72.3288 90.6223 72.3115ZM81.9903 64.1475L81.9123 64.0955L81.8083 64.2775L81.8603 64.3295L81.9903 64.1475ZM81.7823 64.3295H81.7043L81.6523 64.4855L81.7303 64.5375L81.7823 64.3295ZM81.2883 64.8235C81.2189 64.8755 81.1409 64.9275 81.0543 64.9795V65.2395C81.2103 65.0835 81.2883 64.9448 81.2883 64.8235ZM81.0543 65.2395C80.8463 65.3781 80.7249 65.4908 80.6903 65.5775C80.7249 65.6121 80.7683 65.6381 80.8203 65.6555C80.8896 65.4648 80.9676 65.3261 81.0543 65.2395ZM88.3083 65.1355C88.3083 64.5288 88.1523 63.8528 87.8403 63.1075C87.7709 62.9168 87.6669 62.6915 87.5283 62.4315C87.3549 62.3795 87.1296 62.3015 86.8523 62.1975C86.7829 62.1628 86.6356 62.0675 86.4103 61.9115C86.2023 61.7555 86.0809 61.6775 86.0463 61.6775C85.9596 61.6775 85.7949 61.7988 85.5523 62.0415C85.5349 61.9721 85.5003 61.8855 85.4483 61.7815C85.2749 62.0241 85.1883 62.1975 85.1883 62.3015C85.1536 62.2668 85.1189 62.2495 85.0843 62.2495C84.8589 62.2495 84.2089 62.7868 83.1343 63.8615C82.9783 64.0175 82.7009 64.3295 82.3023 64.7975C81.6783 65.5601 81.2016 66.4008 80.8723 67.3195C80.8029 67.5795 80.6989 67.9175 80.5603 68.3335C80.5603 68.3855 80.5603 68.4548 80.5603 68.5415C80.4909 68.6455 80.4216 68.7841 80.3523 68.9575C80.2309 69.4081 80.1703 69.7288 80.1703 69.9195C80.1529 69.9715 80.1096 70.0581 80.0403 70.1795C80.0056 70.1448 79.9883 70.0928 79.9883 70.0235L79.9103 70.5955C79.9276 70.5955 79.9536 70.5868 79.9883 70.5695C80.0229 70.5521 80.0663 70.5435 80.1183 70.5435C80.1356 70.5435 80.1703 70.5695 80.2223 70.6215V72.1035C80.2049 72.2075 80.0749 72.3721 79.8323 72.5975C79.7283 72.4415 79.6936 72.1988 79.7282 71.8695C79.7803 71.5401 79.7716 71.3408 79.7023 71.2715C79.5289 72.0341 79.4423 72.3981 79.4423 72.3635C79.4423 72.4501 79.4856 72.5715 79.5723 72.7275C79.6243 72.8315 79.6156 72.9355 79.5463 73.0395C79.5636 73.0568 79.6676 73.1608 79.8583 73.3515L79.8063 73.3775C79.8583 73.4295 79.9189 73.4901 79.9883 73.5595C80.1443 73.9235 80.3263 74.4695 80.5343 75.1975C80.6036 75.6655 80.7856 75.8995 81.0803 75.8995C81.1149 75.8995 81.3229 75.8648 81.7043 75.7955C82.0856 75.7261 82.2936 75.6915 82.3283 75.6915C82.3803 75.6915 82.4323 75.7088 82.4843 75.7435C82.5536 75.7608 82.5882 75.7695 82.5882 75.7695C82.5363 75.7001 82.5103 75.6221 82.5103 75.5355C82.5103 75.1888 82.7183 75.0155 83.1343 75.0155C83.1689 75.0155 83.2123 75.0241 83.2643 75.0415C83.3336 75.0588 83.3856 75.0675 83.4203 75.0675C83.4376 75.0675 83.8623 74.8595 84.6943 74.4435V74.2615C84.6596 74.2615 84.5209 74.3395 84.2783 74.4955L84.1483 74.3655C84.3043 74.2441 84.7029 73.9581 85.3443 73.5075C85.3963 73.2995 85.4223 73.2041 85.4223 73.2215C85.3356 73.2215 85.2836 73.2128 85.2663 73.1955C85.2836 73.1781 85.3529 73.1695 85.4743 73.1695C85.4743 73.0308 85.5089 72.8401 85.5783 72.5975C85.7516 72.3201 85.9943 72.0341 86.3063 71.7395C86.2196 71.7395 86.1676 71.7308 86.1503 71.7135C86.2196 71.6788 86.3149 71.6268 86.4363 71.5575C87.2336 70.2228 87.6756 69.1395 87.7623 68.3075C87.7623 68.2901 87.8403 67.8828 87.9963 67.0855C88.1349 66.3401 88.2043 65.9068 88.2043 65.7855C88.2043 65.7508 88.1696 65.6988 88.1003 65.6295C88.0309 65.5601 87.9963 65.5081 87.9963 65.4735C87.9963 65.3175 88.1003 65.2048 88.3083 65.1355ZM85.1103 75.3795L85.0843 75.3015L84.9803 75.3795V75.4575L85.1103 75.3795ZM79.8323 70.8295V70.6475H79.7282V70.8295H79.8323ZM84.9543 75.4315H84.7723C84.0789 75.8128 83.5936 76.0035 83.3163 76.0035C83.2643 76.0035 83.2383 75.9861 83.2383 75.9515C83.2556 75.9168 83.2469 75.8995 83.2123 75.8995C83.1776 75.8995 83.0043 75.9775 82.6923 76.1335C82.3976 76.2895 82.2329 76.3675 82.1983 76.3675C82.1636 76.3675 82.0683 76.3675 81.9123 76.3675C81.7736 76.3675 81.6609 76.3675 81.5743 76.3675V76.6535C81.6783 76.7575 81.7303 76.8095 81.7303 76.8095C81.7823 76.8095 81.8516 76.8008 81.9383 76.7835C82.0249 76.7661 82.0856 76.7575 82.1203 76.7575C82.3629 76.7575 82.6229 76.6535 82.9003 76.4455C82.7963 76.6535 82.7443 76.7575 82.7443 76.7575C82.7616 76.7575 82.8223 76.8095 82.9263 76.9135C83.1169 76.8788 83.3769 76.7575 83.7063 76.5495C83.9663 76.3761 84.2176 76.2028 84.4603 76.0295C84.4776 75.9775 84.5036 75.9168 84.5383 75.8475C84.6596 75.7781 84.7983 75.6395 84.9543 75.4315ZM79.8583 73.6375V73.5595H79.7282V73.6375H79.8583ZM79.9363 75.4315L79.8843 75.1715H79.7803L79.8583 75.4315H79.9363ZM76.8423 73.5595V73.2215H76.7642V73.5595H76.8423ZM83.7323 64.1995L83.4983 64.4335L83.4463 64.3815L83.6803 64.1475L83.7323 64.1995ZM83.4203 64.4595L83.1863 64.6935L83.1343 64.6415L83.3683 64.4075L83.4203 64.4595ZM87.2423 68.8015L87.1123 69.0615L87.0603 69.0355L87.1643 68.8015H87.2423ZM82.8483 64.9535C82.7963 65.0055 82.7009 65.1095 82.5623 65.2655C82.4409 65.4215 82.3543 65.5341 82.3023 65.6035C82.2849 65.3955 82.3196 65.2915 82.4062 65.2915C82.4583 65.2915 82.4843 65.3001 82.4843 65.3175C82.4843 65.3348 82.5016 65.3435 82.5363 65.3435C82.5363 65.3435 82.5189 65.3175 82.4843 65.2655C82.5363 65.1441 82.6576 65.0401 82.8483 64.9535ZM82.2503 65.6815L82.1723 65.8115L82.1203 65.7855L82.1723 65.6555L82.2503 65.6815ZM81.5483 66.5135C81.5136 66.5308 81.4963 66.5828 81.4963 66.6695L81.3143 66.5915C81.4009 66.5915 81.4789 66.5655 81.5483 66.5135ZM81.1583 67.3975H81.0803V67.2675H81.1583V67.3975ZM84.9023 73.2735C84.5556 73.6201 84.3563 73.7935 84.3043 73.7935C84.2696 73.7935 84.2523 73.7848 84.2523 73.7675C84.2696 73.7501 84.2523 73.7415 84.2003 73.7415C84.1656 73.7415 84.1049 73.7761 84.0183 73.8455C84.2263 73.7415 84.5209 73.5508 84.9023 73.2735ZM83.6023 74.4175C83.6023 74.5735 83.5676 74.6688 83.4983 74.7035H83.2123C83.2469 74.6515 83.3769 74.5561 83.6023 74.4175ZM79.7803 72.8055H79.7023L79.6503 72.6755L79.7023 72.6495L79.7803 72.8055ZM80.8983 73.2475C80.8983 73.4035 80.8376 73.4815 80.7163 73.4815C80.6816 73.4815 80.6296 73.4468 80.5603 73.3775C80.5083 73.4295 80.4823 73.4815 80.4823 73.5335C80.4823 73.7588 80.5516 74.1661 80.6903 74.7555C80.5343 74.7035 80.4389 74.6168 80.4043 74.4955C80.2829 74.1141 80.2223 73.6721 80.2223 73.1695C80.2223 73.1348 80.2309 73.0655 80.2483 72.9615C80.2656 72.8575 80.2743 72.7708 80.2743 72.7015C80.3956 72.7015 80.4563 72.6841 80.4563 72.6495C80.7509 72.9441 80.8983 73.1435 80.8983 73.2475Z" fill="white"/>
<path d="M13.28 53.9235L13.2 54.0435H13.12L13.2 53.8835L13.28 53.9235ZM13.36 54.1635L13.32 54.3235L13.24 54.2835L13.28 54.1635H13.36ZM15.28 56.8035L15.2 56.9235L15.16 56.8835L15.2 56.7635L15.28 56.8035ZM21.16 71.8835L21 71.9235V71.8435L21.12 71.8035L21.16 71.8835ZM17.52 69.0435V69.1235L17.32 69.0435V69.0035L17.52 69.0435ZM18 69.4835C17.9733 69.5368 17.92 69.5635 17.84 69.5635C17.68 69.5635 17.52 69.4701 17.36 69.2835C17.3067 69.3101 17.2267 69.3768 17.12 69.4835C17.04 69.4301 16.9733 69.4035 16.92 69.4035C17 69.2701 17.1067 69.2035 17.24 69.2035C17.2667 69.2035 17.52 69.2968 18 69.4835ZM17.2 69.0035H16.84V68.9235H17.2V69.0035ZM6.28 63.4035L6.12 63.6435L6.04 63.5635L6.2 63.3635L6.28 63.4035ZM21.4 72.9635C21.4 72.9901 21.3733 73.0435 21.32 73.1235C21.4267 73.6035 21.24 74.2701 20.76 75.1235C20.28 75.9768 19.8133 76.5235 19.36 76.7635L19.24 76.6435H19.12C19.0667 76.6968 19.08 76.7635 19.16 76.8435L19.04 76.7635C19.0133 76.7635 18.96 76.8035 18.88 76.8835C18.9333 76.9901 19 77.0568 19.08 77.0835C19.0533 77.0835 19 77.0835 18.92 77.0835C18.8133 77.0568 18.7467 77.0435 18.72 77.0435C18.64 77.0435 18.5867 77.1235 18.56 77.2835C18.3467 77.4168 18.1467 77.5101 17.96 77.5635C17.88 77.6435 17.84 77.7235 17.84 77.8035C17.8667 77.8835 17.8533 77.9235 17.8 77.9235C17.7467 77.9235 17.7067 77.9101 17.68 77.8835C17.68 77.8568 17.6667 77.8435 17.64 77.8435C17.5867 77.8435 17.2667 78.0435 16.68 78.4435C15.96 78.8968 15.4267 79.2168 15.08 79.4035C15.2133 79.3501 15.3733 79.1901 15.56 78.9235C15.56 78.9235 15.5467 78.9235 15.52 78.9235C15.4933 78.8968 15.4667 78.8701 15.44 78.8435C15.2267 78.9768 14.9067 79.2035 14.48 79.5235L14.52 79.5635C14.3867 79.5101 14.4533 79.4835 14.72 79.4835C14.6667 79.4835 14.7467 79.5235 14.96 79.6035C14.8 79.6835 14.5333 79.8168 14.16 80.0035C13.8133 80.1901 13.56 80.3235 13.4 80.4035C13.4 81.9501 13.3867 82.9901 13.36 83.5235C13.28 83.5501 13.24 83.6035 13.24 83.6835C13.24 83.9501 13.2267 84.3235 13.2 84.8035C13.2 85.3635 13.2 85.7501 13.2 85.9635C13.1467 85.6968 13.0933 85.2968 13.04 84.7635C13.0133 84.2568 13 84.0435 13 84.1235C13 84.0435 13.0133 83.9235 13.04 83.7635C13.0933 83.6035 13.12 83.4968 13.12 83.4435V81.5635C13.0667 81.5368 13 81.4968 12.92 81.4435C12.8133 81.4968 12.7467 81.5635 12.72 81.6435C12.72 81.6968 12.7333 81.7635 12.76 81.8435C12.7867 81.9235 12.8 81.9768 12.8 82.0035V83.3235C12.8 83.4568 12.7867 83.6168 12.76 83.8035C12.68 83.8035 12.64 83.8435 12.64 83.9235C12.64 83.8435 12.7067 84.0568 12.84 84.5635C12.8133 84.5901 12.7733 84.6168 12.72 84.6435C12.72 84.6168 12.7067 84.5768 12.68 84.5235C12.6533 84.4968 12.64 84.4701 12.64 84.4435C12.6133 84.4701 12.56 84.6435 12.48 84.9635C12.5067 84.8301 12.5067 84.5501 12.48 84.1235C12.4533 84.0435 12.44 83.7901 12.44 83.3635C12.3867 83.3901 12.36 83.4568 12.36 83.5635C12.36 83.8035 12.3733 84.1635 12.4 84.6435C12.4267 85.1235 12.44 85.4835 12.44 85.7235V86.7235C12.3867 86.6168 12.3467 86.3768 12.32 86.0035C12.2933 85.9235 12.2267 85.8035 12.12 85.6435C12.0933 85.6435 12.08 85.6701 12.08 85.7235C12.0533 85.6701 12.0933 85.5901 12.2 85.4835C12.2 85.4035 12.1733 85.3635 12.12 85.3635C12.0667 85.3635 12.0533 85.3768 12.08 85.4035C12.1067 85.4301 12.1067 85.4435 12.08 85.4435C12.1067 85.4435 12.0667 85.3901 11.96 85.2835C11.88 85.4168 11.84 85.5501 11.84 85.6835C11.84 85.8968 11.84 86.0168 11.84 86.0435C11.84 86.2035 11.8533 86.4168 11.88 86.6835C11.9067 86.7635 11.88 86.8301 11.8 86.8835C11.8533 87.0968 11.88 87.1768 11.88 87.1235C11.88 87.0968 11.8533 87.0568 11.8 87.0035C11.6933 87.0568 11.6267 87.1501 11.6 87.2835C11.5467 87.5501 11.52 87.6968 11.52 87.7235C11.5733 87.3235 11.6133 86.8035 11.64 86.1635C11.64 85.6835 11.6267 85.2701 11.6 84.9235C11.5733 84.9235 11.5333 84.8968 11.48 84.8435C11.4533 85.0568 11.4 85.3635 11.32 85.7635C11.24 85.7635 11.1733 85.7901 11.12 85.8435C11.1733 85.0168 11.1333 84.4035 11 84.0035L10.96 84.0435V81.2835C10.8267 81.3368 10.76 81.4835 10.76 81.7235C10.76 81.9368 10.76 82.1501 10.76 82.3635L10.68 82.3235C10.7067 82.2701 10.7067 82.1901 10.68 82.0835L10.72 82.0435C10.72 81.9368 10.6667 81.7635 10.56 81.5235C10.4267 81.5768 10.36 81.6435 10.36 81.7235C10.3333 81.6968 10.2933 81.6835 10.24 81.6835C10.1867 81.6835 10.08 81.7235 9.92 81.8035C9.78667 81.8835 9.69333 81.9235 9.64 81.9235C9.69333 81.9235 9.64 81.9368 9.48 81.9635C9.53333 81.8835 9.6 81.7368 9.68 81.5235C9.78667 81.5501 9.84 81.5635 9.84 81.5635C9.86667 81.5635 9.86667 81.5501 9.84 81.5235C9.84 81.4968 9.88 81.4835 9.96 81.4835C10.04 81.4835 10.2267 81.3635 10.52 81.1235V80.7635C10.52 80.7368 10.48 80.7235 10.4 80.7235C10.3467 80.7235 10.2267 80.7901 10.04 80.9235C9.85333 81.0568 9.73333 81.1235 9.68 81.1235C9.54667 81.1235 9.45333 81.1368 9.4 81.1635C9.50667 81.0568 9.68 80.8835 9.92 80.6435C9.89333 80.6435 9.8 80.6301 9.64 80.6035C9.53333 80.5768 9.41333 80.5768 9.28 80.6035C9.14667 80.6301 9.04 80.6568 8.96 80.6835C8.85333 80.7901 8.66667 80.9101 8.4 81.0435C8.16 81.1501 7.81333 81.2835 7.36 81.4435C7.25333 81.5235 7.09333 81.6301 6.88 81.7635C6.88 81.6568 7.01333 81.4835 7.28 81.2435C7.28 81.1901 7.24 81.1235 7.16 81.0435C7.26667 81.0168 7.45333 80.9368 7.72 80.8035C7.69333 80.7768 7.66667 80.7501 7.64 80.7235C7.64 80.6701 7.64 80.6435 7.64 80.6435C7.77333 80.5901 7.85333 80.5635 7.88 80.5635C7.90667 80.5635 7.92 80.5501 7.92 80.5235C7.92 80.4968 7.94667 80.4835 8 80.4835C8.05333 80.4835 8.09333 80.4835 8.12 80.4835C8.17333 80.4835 8.21333 80.4835 8.24 80.4835C8.26667 80.4035 8.26667 80.3101 8.24 80.2035C8.02667 80.3101 7.69333 80.4701 7.24 80.6835C6.81333 80.8701 6.49333 81.0168 6.28 81.1235C6.28 81.0968 6.25333 81.0435 6.2 80.9635C6.06667 81.0435 5.88 81.1235 5.64 81.2035C5.98667 80.9901 6.4 80.7635 6.88 80.5235C6.96 80.5501 7.05333 80.5501 7.16 80.5235C7.66667 80.2568 7.90667 80.0701 7.88 79.9635C7.96 79.9101 8.08 79.8435 8.24 79.7635C8.4 79.6568 8.61333 79.5101 8.88 79.3235C8.90667 79.2701 8.93333 79.2168 8.96 79.1635C8.96 79.1368 8.88 79.1235 8.72 79.1235C8.61333 79.1235 8.4 79.2301 8.08 79.4435C7.89333 79.5768 7.70667 79.7101 7.52 79.8435C7.33333 79.9768 7.01333 80.1235 6.56 80.2835L6.44 80.1635C6.44 80.1635 6.41333 80.1768 6.36 80.2035C6.22667 80.1768 6.29333 80.1635 6.56 80.1635C6.61333 80.1635 6.85333 80.0435 7.28 79.8035C7.73333 79.5368 8.08 79.2968 8.32 79.0835C8.34667 79.0301 8.32 79.0035 8.24 79.0035C8.13333 79.0035 7.66667 79.2168 6.84 79.6435C6.22667 79.9368 5.73333 80.2301 5.36 80.5235C5.38667 80.4168 5.36 80.3635 5.28 80.3635C5.06667 80.3635 4.8 80.4968 4.48 80.7635C4.56 80.7901 4.66667 80.8035 4.8 80.8035C4.72 80.8035 4.6 80.8301 4.44 80.8835C4.17333 81.0168 4.08 81.0835 4.16 81.0835C4.10667 81.0835 4.08 81.0701 4.08 81.0435C4.05333 81.0435 4.02667 81.0435 4 81.0435C3.92 81.0435 3.81333 81.0968 3.68 81.2035C3.94667 81.3368 4.01333 81.4035 3.88 81.4035C3.8 81.4568 3.68 81.5368 3.52 81.6435C3.38667 81.7235 3.2 81.7635 2.96 81.7635C2.90667 81.7635 2.81333 81.7901 2.68 81.8435C2.57333 81.8701 2.49333 81.8968 2.44 81.9235C2.38667 81.9235 2.33333 81.9501 2.28 82.0035C2.25333 82.0568 2.22667 82.0835 2.2 82.0835C2.14667 82.0835 2.12 82.0701 2.12 82.0435C2.14667 82.0435 2.13333 82.0435 2.08 82.0435C2.05333 82.0435 1.94667 82.0835 1.76 82.1635C1.78667 82.1635 1.82667 82.1101 1.88 82.0035C1.90667 81.9768 1.88 81.9635 1.8 81.9635C1.77333 81.9635 1.70667 81.9901 1.6 82.0435C1.52 82.0968 1.45333 82.1235 1.4 82.1235C1.48 82.0968 1.56 82.0701 1.64 82.0435C1.74667 81.9901 1.77333 81.9101 1.72 81.8035C1.8 81.8035 1.86667 81.8301 1.92 81.8835C1.97333 81.8835 2.02667 81.8301 2.08 81.7235C2.02667 81.6701 1.97333 81.6435 1.92 81.6435C2 81.6435 1.88 81.7368 1.56 81.9235C1.45333 81.9501 1.28 82.0035 1.04 82.0835C1.01333 82.0835 0.973333 82.0568 0.92 82.0035L1.04 81.8835C1.6 81.9101 2.21333 81.6168 2.88 81.0035C3.04 80.9768 3.42667 80.7635 4.04 80.3635C4.25333 80.2835 4.53333 80.1501 4.88 79.9635C5.14667 79.7235 5.46667 79.5635 5.84 79.4835C5.65333 79.5368 5.38667 79.6835 5.04 79.9235C5.06667 79.9501 5.12 79.9635 5.2 79.9635C5.25333 79.9635 5.57333 79.8035 6.16 79.4835C6.16 79.4301 6.13333 79.3368 6.08 79.2035C6.05333 79.2301 6.02667 79.2435 6 79.2435C6.08 79.1901 6.12 79.1635 6.12 79.1635C6.06667 79.1635 6.14667 79.2168 6.36 79.3235C6.36 79.3235 6.4 79.2568 6.48 79.1235C6.61333 79.0701 6.78667 78.9768 7 78.8435C7.10667 78.7635 7.26667 78.6968 7.48 78.6435C7.50667 78.6168 7.57333 78.5635 7.68 78.4835C8.05333 78.2701 8.57333 78.0035 9.24 77.6835C8.92 77.8968 8.48 78.1635 7.92 78.4835C7.94667 78.5101 8 78.5235 8.08 78.5235C8.34667 78.5235 8.88 78.2035 9.68 77.5635C9.62667 77.5101 9.52 77.5235 9.36 77.6035C9.52 77.5235 9.74667 77.3768 10.04 77.1635L9.88 72.0035C9.8 71.9768 9.57333 71.9635 9.2 71.9635C9.06667 71.8568 9.01333 71.8035 9.04 71.8035C8.98667 71.8035 8.96 71.8301 8.96 71.8835C8.98667 71.9101 8.97333 71.9235 8.92 71.9235C9.05333 71.9235 8.93333 71.8701 8.56 71.7635C7.76 71.5235 7.36 71.4035 7.36 71.4035C7.30667 71.4035 7.28 71.4168 7.28 71.4435C7.28 71.4701 7.25333 71.4835 7.2 71.4835C7.17333 71.4835 7.10667 71.4435 7 71.3635C6.92 71.2568 6.86667 71.2035 6.84 71.2035C6.78667 71.2035 6.77333 71.2301 6.8 71.2835C6.82667 71.3101 6.81333 71.3235 6.76 71.3235C6.73333 71.3235 6.61333 71.2435 6.4 71.0835C6.18667 70.8968 6.01333 70.7901 5.88 70.7635C5.77333 70.7368 5.62667 70.6701 5.44 70.5635C5.28 70.4568 5 70.1501 4.6 69.6435C4.6 69.5635 4.57333 69.4568 4.52 69.3235C4.46667 69.2968 4.4 69.2168 4.32 69.0835C4.13333 68.8168 4.04 68.6168 4.04 68.4835C4.04 68.5635 4.14667 68.3901 4.36 67.9635C4.41333 67.9101 4.4 67.8835 4.32 67.8835C4.26667 67.8835 4.24 67.8968 4.24 67.9235C4.21333 67.9235 4.2 67.9235 4.2 67.9235V67.7235C4.2 67.7235 4.28 67.4835 4.44 67.0035C4.33333 66.8701 4.28 66.8035 4.28 66.8035C4.28 66.8568 4.45333 66.5101 4.8 65.7635C4.90667 65.5501 5.09333 65.2435 5.36 64.8435C5.62667 64.5768 5.94667 64.1901 6.32 63.6835C6.48 63.5501 6.72 63.3635 7.04 63.1235C7.36 62.8835 7.84 62.4701 8.48 61.8835C8.58667 61.8835 8.90667 61.7501 9.44 61.4835C9.68 61.3501 9.93333 61.2568 10.2 61.2035C10.2267 61.1501 10.2667 60.9768 10.32 60.6835L10.28 60.4035C9.74667 60.6701 8.92 61.1368 7.8 61.8035C7.24 62.2835 6.42667 62.9635 5.36 63.8435C5.92 63.2568 6.74667 62.4835 7.84 61.5235C8.8 60.9368 9.64 60.4435 10.36 60.0435C10.3867 59.6435 10.44 59.0435 10.52 58.2435C10.5467 58.2435 10.5867 58.2168 10.64 58.1635C10.56 58.0301 10.52 57.9635 10.52 57.9635C10.52 57.9101 10.5467 57.8301 10.6 57.7235C10.6533 57.6168 10.68 57.5501 10.68 57.5235C10.68 57.4701 10.6667 57.4168 10.64 57.3635C10.6133 57.2835 10.6 57.2301 10.6 57.2035C10.6 56.9901 10.64 56.6701 10.72 56.2435C10.7733 56.1635 10.84 56.0435 10.92 55.8835C11.08 55.4835 11.1333 55.2568 11.08 55.2035C11.0533 55.2301 11.0267 55.2701 11 55.3235C11.1333 55.1101 11.16 54.8835 11.08 54.6435C11.16 54.5368 11.3067 54.3768 11.52 54.1635C11.52 54.2435 11.4667 54.3635 11.36 54.5235C11.52 54.7901 11.6667 54.9235 11.8 54.9235C11.8533 54.9235 11.9333 54.8701 12.04 54.7635C12.1467 54.6301 12.2133 54.5635 12.24 54.5635C12.2933 54.5635 12.3333 54.5768 12.36 54.6035C12.36 54.6035 12.4533 54.4701 12.64 54.2035C12.6667 54.2568 12.7067 54.3101 12.76 54.3635C12.76 54.3635 12.76 54.4301 12.76 54.5635C12.8133 54.6168 12.9067 54.6301 13.04 54.6035V54.7635C13.1733 54.7901 13.2667 54.7768 13.32 54.7235C13.3733 54.7768 13.4533 54.8701 13.56 55.0035C13.6133 54.9768 13.6267 54.8968 13.6 54.7635C13.7333 54.8168 13.88 54.8035 14.04 54.7235C14.04 54.6968 14 54.6835 13.92 54.6835L14.04 54.5635C14.0933 54.6168 14.1733 54.7635 14.28 55.0035C14.2267 55.1901 14.2 55.2968 14.2 55.3235C14.3333 55.4035 14.4133 55.4701 14.44 55.5235C14.4133 55.7368 14.4267 56.0168 14.48 56.3635C14.5333 56.3101 14.5867 56.2168 14.64 56.0835C14.64 56.1368 14.6533 56.2035 14.68 56.2835C14.7333 56.2835 14.7867 56.2168 14.84 56.0835C14.92 56.6435 14.96 57.0035 14.96 57.1635C14.96 57.2168 14.92 57.4835 14.84 57.9635C14.7867 58.4168 14.76 58.6701 14.76 58.7235V59.4835C14.76 59.5101 14.7867 59.5501 14.84 59.6035C14.8933 59.5501 14.92 59.4968 14.92 59.4435H15.12C15.12 59.4701 15.12 59.5901 15.12 59.8035C15.0667 59.7768 15.0267 59.7635 15 59.7635C14.9733 59.7635 14.9467 59.7501 14.92 59.7235L14.88 59.9235C14.9067 59.9501 15.0133 59.9635 15.2 59.9635C15.28 59.9635 15.52 59.9101 15.92 59.8035C16.1333 60.1235 16.2667 60.2835 16.32 60.2835C16.4267 60.2835 16.44 60.2568 16.36 60.2035C16.4933 60.2835 16.6267 60.2835 16.76 60.2035C16.7867 60.2568 16.8267 60.3235 16.88 60.4035C17.2 60.5101 17.4 60.7368 17.48 61.0835L17.56 61.0035L17.88 61.3235C17.8267 61.4835 17.72 61.7101 17.56 62.0035C17.56 62.0035 17.4933 62.2568 17.36 62.7635C17.3067 62.9768 17.24 63.3101 17.16 63.7635C17.1333 63.8701 17 63.9901 16.76 64.1235C16.3067 64.3635 15.8667 64.4835 15.44 64.4835C15.4133 64.4835 15.3467 64.4701 15.24 64.4435C15.16 64.3901 15.1067 64.3635 15.08 64.3635C14.6533 64.3635 14.4267 64.5368 14.4 64.8835C14.3733 65.5235 14.36 65.8435 14.36 65.8435C14.3867 66.1901 14.3867 66.4701 14.36 66.6835C14.3333 66.7368 14.2933 66.8168 14.24 66.9235C14.32 67.0035 14.3333 67.1768 14.28 67.4435C14.2533 67.4435 14.2133 67.4701 14.16 67.5235C14.16 67.6835 14.1867 67.7635 14.24 67.7635C14.24 67.7901 14.1733 67.8568 14.04 67.9635C14.1467 68.0168 14.2 68.0968 14.2 68.2035C14.2 68.1768 14.1333 68.2968 14 68.5635C14.1333 68.6168 14.3333 68.6701 14.6 68.7235C14.6 68.8301 14.6533 68.9101 14.76 68.9635C14.8667 68.9901 15 69.0301 15.16 69.0835C15.56 69.2435 16.1867 69.4568 17.04 69.7235C17.2267 69.7501 17.48 69.8035 17.8 69.8835C17.8267 69.9101 17.8667 69.9501 17.92 70.0035C18.16 70.0568 18.4133 70.2035 18.68 70.4435C18.7067 70.4435 18.72 70.4435 18.72 70.4435C18.6933 70.4168 18.7067 70.4035 18.76 70.4035C18.68 70.4035 18.9067 70.5235 19.44 70.7635C19.4933 70.7635 19.5867 70.7901 19.72 70.8435C19.9333 70.9768 20.04 71.0435 20.04 71.0435C20.12 71.0435 20.1867 70.9901 20.24 70.8835C20.3467 70.9368 20.4 70.9635 20.4 70.9635C20.4533 70.9635 20.4667 70.9501 20.44 70.9235C20.44 70.9235 20.4533 70.9235 20.48 70.9235C20.4533 70.9235 20.52 70.9901 20.68 71.1235C20.6267 71.0968 20.56 71.0701 20.48 71.0435L20.4 71.1235C20.7733 71.6301 20.9333 71.9901 20.88 72.2035C21.0133 72.3635 21.1867 72.4968 21.4 72.6035V72.9635ZM13.44 84.0435H13.32V83.8435H13.44V84.0435ZM7.24 78.5635H7.08V78.4835H7.24V78.5635ZM12.96 85.3235L12.92 85.6435H12.84L12.88 85.3235H12.96ZM8.56 81.4035H8.44V81.3235H8.56V81.4035ZM13.24 86.1635H13.12V86.0035H13.24V86.1635ZM10.96 85.2435H10.88V84.3235H10.96V85.2435ZM8.88 81.4835C8.4 81.6701 8.22667 81.7635 8.36 81.7635C8.33333 81.7635 8.32 81.7635 8.32 81.7635C8.32 81.7368 8.30667 81.7235 8.28 81.7235C8.28 81.7235 8.10667 81.8435 7.76 82.0835C7.57333 82.1101 7.30667 82.1768 6.96 82.2835C6.93333 82.2035 6.94667 82.1635 7 82.1635C7.08 82.1635 7.33333 82.0701 7.76 81.8835C8.18667 81.6968 8.49333 81.5635 8.68 81.4835H8.88ZM8.48 82.5635H8.2V82.4835H8.48V82.5635ZM6.12 80.2835L6.08 80.4435L6 80.4035L6.04 80.2835H6.12ZM9.48 84.3235C9.4 84.3235 9.32 84.3235 9.24 84.3235L9.16 84.2835C9.24 84.2568 9.34667 84.2168 9.48 84.1635V84.3235ZM11.32 86.5635L11.24 86.7235L11.16 86.6835L11.24 86.5635H11.32ZM5.12 80.8835C5.04 80.8835 4.92 80.9235 4.76 81.0035C4.84 80.8701 4.88 80.8168 4.88 80.8435L5.12 80.8835ZM6.8 82.8435L6.68 82.8835V82.8435L6.8 82.7635V82.8435ZM12.28 88.5635C12.28 88.5368 12.2533 88.5635 12.2 88.6435C12.1733 88.4835 12.16 88.8168 12.16 89.6435C12.08 88.6568 12.0267 88.2568 12 88.4435V87.7635C12.0267 87.8701 12.0667 88.0301 12.12 88.2435C12.2267 88.5368 12.28 88.6435 12.28 88.5635ZM5.32 81.8435C5.24 81.8968 5.12 81.9768 4.96 82.0835C4.93333 82.0568 4.89333 82.0035 4.84 81.9235C4.89333 81.9235 4.96 81.9101 5.04 81.8835C5.14667 81.8568 5.24 81.8435 5.32 81.8435ZM4.48 81.4435C4.4 81.3901 4.29333 81.3235 4.16 81.2435H4.44C4.44 81.1901 4.45333 81.2568 4.48 81.4435ZM6.56 82.8835C6.45333 83.0168 6.09333 83.1768 5.48 83.3635C5.72 83.2035 5.8 83.1235 5.72 83.1235C5.77333 83.1235 5.8 83.1501 5.8 83.2035C5.8 83.2301 5.82667 83.2435 5.88 83.2435C5.88 83.2435 6.10667 83.1235 6.56 82.8835ZM6.28 83.4435L6.16 83.5635L6.08 83.4835L6.24 83.3635L6.28 83.4435ZM6.8 81.8035C6.61333 81.8835 6.25333 82.1101 5.72 82.4835L5.64 82.3635C5.61333 82.4168 5.58667 82.4701 5.56 82.5235C4.81333 82.8168 4.26667 83.0035 3.92 83.0835V82.9235C3.84 82.8968 3.66667 82.8835 3.4 82.8835C3.53333 82.5901 3.6 82.4568 3.6 82.4835C3.6 82.5101 3.65333 82.5235 3.76 82.5235C3.86667 82.5235 3.94667 82.5368 4 82.5635C4.05333 82.5901 4.08 82.6168 4.08 82.6435C4.18667 82.6435 4.26667 82.6301 4.32 82.6035C4.37333 82.6035 4.41333 82.6035 4.44 82.6035C4.46667 82.6035 4.48 82.6168 4.48 82.6435C4.48 82.6701 4.50667 82.6835 4.56 82.6835C4.64 82.6835 4.8 82.6035 5.04 82.4435C5.06667 82.4968 5.13333 82.5501 5.24 82.6035C5.32 82.4968 5.41333 82.4301 5.52 82.4035C5.54667 82.3768 5.54667 82.3101 5.52 82.2035C5.65333 82.2301 5.72 82.2435 5.72 82.2435C5.8 82.2435 5.88 82.1768 5.96 82.0435V81.9635C6.01333 82.0168 6.06667 82.0435 6.12 82.0435C6.2 82.0435 6.28 81.9635 6.36 81.8035C6.68 81.8035 6.82667 81.8035 6.8 81.8035ZM4.76 82.1235L4.56 82.2035V82.1235L4.72 82.0835L4.76 82.1235ZM3.52 83.1635L3.32 83.2035V83.1235L3.52 83.0835V83.1635ZM2.44 82.8035H2.28V82.7235H2.44V82.8035ZM1.84 82.2835H1.64V82.2035H1.84V82.2835ZM2.16 82.5235C2.10667 82.6035 1.85333 82.7101 1.4 82.8435C1.50667 82.7368 1.57333 82.6835 1.6 82.6835C1.65333 82.6835 1.68 82.6968 1.68 82.7235C1.68 82.7235 1.69333 82.7235 1.72 82.7235C1.8 82.7235 1.94667 82.6568 2.16 82.5235ZM0.76 82.1235C0.733333 82.1501 0.693333 82.1635 0.64 82.1635C0.64 82.0835 0.626667 82.0435 0.6 82.0435C0.68 82.0435 0.733333 82.0701 0.76 82.1235ZM14.28 55.7235V55.5235H14.2V55.7235H14.28ZM9.92 67.9235L9.88 66.9235C9.69333 67.1101 9.57333 67.2568 9.52 67.3635C9.38667 67.4968 9.24 67.6835 9.08 67.9235C9.10667 67.9235 9.16 67.9368 9.24 67.9635C9.32 67.9635 9.37333 67.9635 9.4 67.9635C9.72 67.9635 9.89333 67.9501 9.92 67.9235ZM15.88 72.6835C15.88 72.5235 15.8533 72.4568 15.8 72.4835C15.64 72.4035 15.56 72.3635 15.56 72.3635C15.5067 72.3635 15.4133 72.4035 15.28 72.4835C15.1467 72.5635 15.0667 72.6035 15.04 72.6035C14.96 72.6035 14.92 72.6035 14.92 72.6035C14.9733 72.5235 15.0667 72.4168 15.2 72.2835C15.12 72.2835 14.9867 72.2568 14.8 72.2035C14.64 72.1235 14.5333 72.0835 14.48 72.0835C14.4533 72.0835 14.4267 72.0968 14.4 72.1235C14.3733 72.1501 14.3467 72.1635 14.32 72.1635C14.2667 72.1635 14.2 72.1635 14.12 72.1635C14.0133 72.1368 13.9467 72.1235 13.92 72.1235C13.92 72.3901 13.9067 72.7768 13.88 73.2835C13.88 73.7901 13.88 74.1635 13.88 74.4035C13.88 74.4035 13.88 74.4168 13.88 74.4435C13.8533 74.7101 13.8667 74.8701 13.92 74.9235C14.1067 74.7101 14.2 74.6035 14.2 74.6035C14.2533 74.6035 14.28 74.6168 14.28 74.6435C14.3067 74.6701 14.3467 74.6968 14.4 74.7235C14.48 74.6968 14.5867 74.6035 14.72 74.4435C14.6133 74.4701 14.5733 74.4835 14.6 74.4835C14.52 74.4835 14.4933 74.4301 14.52 74.3235C14.5467 74.2701 14.6 74.2168 14.68 74.1635L14.8 74.2835C14.8 74.2301 14.7867 74.1635 14.76 74.0835H14.52C14.52 74.1368 14.4933 74.1768 14.44 74.2035L14.36 74.1235C14.4667 74.0435 14.6 73.9501 14.76 73.8435C15.5067 73.2035 15.88 72.8168 15.88 72.6835ZM15.24 74.1235C15.0533 74.0701 14.9467 74.0435 14.92 74.0435C14.92 74.0435 14.92 74.1235 14.92 74.2835C15.16 74.1768 15.2667 74.1235 15.24 74.1235ZM16.48 78.4035H16.24C16.24 78.4568 16.2533 78.5101 16.28 78.5635C16.3333 78.5368 16.4 78.4835 16.48 78.4035ZM5.76 70.0835C5.68 70.0301 5.64 69.9768 5.64 69.9235C5.61333 69.9235 5.53333 69.9501 5.4 70.0035C5.48 70.0568 5.6 70.0835 5.76 70.0835ZM9.92 77.9235C9.70667 78.0301 9.42667 78.2168 9.08 78.4835C9.10667 78.5101 9.14667 78.5368 9.2 78.5635C9.33333 78.4568 9.48 78.3501 9.64 78.2435C9.82667 78.1368 9.92 78.0301 9.92 77.9235ZM11.04 80.6835C11.04 80.6035 10.9733 80.5501 10.84 80.5235C10.8667 80.6301 10.8933 80.6968 10.92 80.7235C10.8933 80.7501 10.8533 80.8435 10.8 81.0035C10.96 80.9235 11.04 80.8168 11.04 80.6835ZM11 81.2035V81.1235H10.8V81.2035H11ZM9.24 79.6035H9.04C8.96 79.6835 8.94667 79.7501 9 79.8035C9.16 79.7501 9.24 79.6835 9.24 79.6035ZM8.52 78.8835C8.44 78.7235 8.34667 78.6435 8.24 78.6435C7.97333 78.6435 7.8 78.8035 7.72 79.1235C7.88 79.0435 8.14667 78.9635 8.52 78.8835ZM8.64 80.1635L8.56 80.0835C8.45333 80.0835 8.37333 80.1101 8.32 80.1635H8.64ZM7.92 78.6435C7.76 78.6701 7.53333 78.7235 7.24 78.8035C7.21333 78.8568 6.97333 79.0168 6.52 79.2835C7.05333 79.1501 7.52 78.9368 7.92 78.6435ZM7.52 79.1635C7.49333 79.1101 7.46667 79.0568 7.44 79.0035C7.30667 79.0835 7.24 79.1635 7.24 79.2435C7.37333 79.1901 7.46667 79.1635 7.52 79.1635ZM7 79.3635C7 79.3101 6.98667 79.2568 6.96 79.2035L6.8 79.3635H7ZM11.72 84.2035C11.6933 83.9368 11.68 83.7368 11.68 83.6035C11.6533 83.6835 11.6667 84.1368 11.72 84.9635C11.72 84.4301 11.72 84.1768 11.72 84.2035ZM7.96 80.8835C8.01333 80.8035 8.01333 80.7368 7.96 80.6835C7.90667 80.6835 7.84 80.6968 7.76 80.7235C7.81333 80.8035 7.88 80.8568 7.96 80.8835ZM6.16 79.9635L6.08 79.7635C5.92 79.8435 5.8 79.8835 5.72 79.8835C5.8 79.9368 5.94667 79.9635 6.16 79.9635ZM11.32 85.6835V85.4435H11.24V85.6835H11.32ZM2.24 81.6435L2.2 81.5635L2.12 81.6035L2.16 81.6835L2.24 81.6435ZM14.64 73.0435H14.48V72.9635H14.64V73.0435ZM14.52 74.5635H14.32V74.4835H14.52V74.5635Z" fill="white"/>
<path d="M68.2767 30.7394L75.4404 13.0019C75.5944 12.6206 75.6038 12.1962 75.467 11.8084C75.3302 11.4206 75.0565 11.096 74.6974 10.8957L57.9926 1.57522C57.7836 1.45844 57.5522 1.38752 57.3137 1.3672C57.0752 1.34688 56.8351 1.37762 56.6094 1.45736L17.6239 15.205C17.2019 15.3538 16.8563 15.6642 16.6631 16.068C16.4699 16.4717 16.4451 16.9356 16.5939 17.3577L26.1354 44.4159C26.2843 44.8379 26.5947 45.1836 26.9983 45.3769C27.4019 45.5701 27.8658 45.5951 28.2878 45.4463L67.2735 31.6987C67.4991 31.6191 67.7053 31.4924 67.8783 31.3271C68.0512 31.1617 68.187 30.9614 68.2767 30.7394V30.7394ZM32.8765 33.0908L30.0703 25.1325L26.8877 26.2548L25.7652 23.0714L35.3128 19.7048L36.4352 22.8881L33.2527 24.0103L36.059 31.9685L32.8765 33.0908ZM47.4569 28.5151L46.02 26.6664L42.4793 27.9147L42.5199 30.2559L39.1458 30.3139L38.9608 19.6417C38.9547 19.2876 39.0601 18.9405 39.2622 18.6496C39.4643 18.3588 39.7528 18.1389 40.0868 18.0212L41.6781 17.4601C42.0121 17.3422 42.3747 17.3325 42.7145 17.4322C43.0543 17.532 43.3542 17.7361 43.5716 18.0158L50.1216 26.4435L47.4569 28.5151ZM59.5793 23.9251L55.6577 21.5894L54.0685 25.8683L50.9048 24.6928L52.7096 19.8333L48.256 17.1808L49.9824 14.2809L53.9041 16.6167L55.4933 12.3377L58.6569 13.5132L56.8521 18.3727L61.3057 21.0252L59.5793 23.9251ZM67.8238 18.2788C67.1943 18.5008 66.5132 18.5311 65.8665 18.3659C65.2198 18.2006 64.6365 17.8473 64.1905 17.3506C63.7445 16.8538 63.4558 16.236 63.3608 15.5752C63.2659 14.9144 63.369 14.2403 63.6571 13.6381C63.9452 13.036 64.4053 12.5328 64.9794 12.1923C65.5534 11.8518 66.2155 11.6892 66.882 11.7251C67.5485 11.761 68.1894 11.9937 68.7237 12.3939C69.258 12.7941 69.6617 13.3437 69.8837 13.9733C70.1815 14.8176 70.1318 15.7455 69.7455 16.5529C69.3593 17.3604 68.6682 17.9813 67.8242 18.279L67.8238 18.2788Z" fill="white"/>
<path d="M43.835 23.8527L42.3745 21.9739L42.4156 24.3531L43.835 23.8527Z" fill="white"/>
</svg>
