<svg width="105" height="26" viewBox="0 0 105 26" fill="none" xmlns="http://www.w3.org/2000/svg">
<rect width="26" height="26" rx="2" fill="url(#paint0_radial_60_59850)"/>
<path d="M11.8787 14.4141L11.5879 14.9957V15.3552H12.5291V14.9957L12.2382 14.4141H11.8787Z" fill="white"/>
<path d="M5 11.5898V19.1193H21V11.5898H5ZM9.70588 14.4134H8.76471V17.2369H7.82353V14.4134H6.88235V13.4722H9.70588V14.4134ZM13.4706 17.2369H12.5294V16.2957H11.5882V17.2369H10.6471V14.7729L11.2974 13.4722H12.8202L13.4706 14.7729V17.2369ZM17.2353 14.6082L16.489 15.3545L17.2353 16.1008V17.2369H16.2941V16.4906L15.8236 16.0201L15.3529 16.4907V17.2369H14.4118V16.1009L15.158 15.3545L14.4118 14.6083V13.4722H15.3529V14.2185L15.8235 14.689L16.2941 14.2184V13.4722H17.2353V14.6082ZM19.1176 17.2369H18.1765V13.4722H19.1176V17.2369Z" fill="white"/>
<path d="M17.2362 9.07889L15.5892 6.88281H10.4127L8.76562 9.07889V10.6475H17.2362V9.07889ZM15.3539 9.70634H14.4127V8.76517H13.4715V9.70634H12.5303V8.76517H11.5892V9.70634H10.648V8.76517H11.5892V7.82399H12.5303V8.76517H13.4715V7.82399H14.4127V8.76517H15.3539V9.70634Z" fill="white"/>
<rect x="31" width="74" height="26" rx="1" fill="url(#paint1_radial_60_59850)" fill-opacity="0.25"/>
<path d="M56.78 8.2V9.124H53.77V18H52.79V9.124H49.78V8.2H56.78ZM62.8027 11H63.7267V18H62.8027V16.628C62.1587 17.6547 61.2161 18.168 59.9747 18.168C58.9761 18.168 58.1221 17.8133 57.4127 17.104C56.7127 16.3947 56.3627 15.5267 56.3627 14.5C56.3627 13.4733 56.7127 12.6053 57.4127 11.896C58.1221 11.1867 58.9761 10.832 59.9747 10.832C61.2161 10.832 62.1587 11.3453 62.8027 12.372V11ZM58.0847 16.474C58.6167 17.006 59.2701 17.272 60.0447 17.272C60.8194 17.272 61.4727 17.006 62.0047 16.474C62.5367 15.9327 62.8027 15.2747 62.8027 14.5C62.8027 13.7253 62.5367 13.072 62.0047 12.54C61.4727 11.9987 60.8194 11.728 60.0447 11.728C59.2701 11.728 58.6167 11.9987 58.0847 12.54C57.5527 13.072 57.2867 13.7253 57.2867 14.5C57.2867 15.2747 57.5527 15.9327 58.0847 16.474ZM71.3391 18H70.1071L66.6071 14.626V18H65.6831V11H66.6071V14.094L69.9391 11H71.1991L67.5871 14.36L71.3391 18ZM75.1658 18.168C74.1112 18.168 73.2338 17.818 72.5338 17.118C71.8338 16.4087 71.4838 15.536 71.4838 14.5C71.4838 13.464 71.8338 12.596 72.5338 11.896C73.2338 11.1867 74.1112 10.832 75.1658 10.832C75.8565 10.832 76.4772 11 77.0278 11.336C77.5785 11.6627 77.9798 12.106 78.2318 12.666L77.4758 13.1C77.2892 12.68 76.9858 12.3487 76.5658 12.106C76.1552 11.854 75.6885 11.728 75.1658 11.728C74.3912 11.728 73.7378 11.9987 73.2058 12.54C72.6738 13.072 72.4078 13.7253 72.4078 14.5C72.4078 15.2747 72.6738 15.9327 73.2058 16.474C73.7378 17.006 74.3912 17.272 75.1658 17.272C75.6885 17.272 76.1552 17.1507 76.5658 16.908C76.9765 16.656 77.2985 16.32 77.5318 15.9L78.3018 16.348C78.0125 16.908 77.5878 17.3513 77.0278 17.678C76.4678 18.0047 75.8472 18.168 75.1658 18.168ZM84.7244 11H85.5084V18H84.5844V12.61L80.4124 18H79.6284V11H80.5524V16.39L84.7244 11Z" fill="white"/>
<defs>
<radialGradient id="paint0_radial_60_59850" cx="0" cy="0" r="1" gradientUnits="userSpaceOnUse" gradientTransform="translate(13 13) rotate(90) scale(25)">
<stop stop-color="#FFCB69"/>
<stop offset="1" stop-color="#FFC669" stop-opacity="0"/>
</radialGradient>
<radialGradient id="paint1_radial_60_59850" cx="0" cy="0" r="1" gradientUnits="userSpaceOnUse" gradientTransform="translate(68 13) rotate(90) scale(25 71.1538)">
<stop stop-color="white"/>
<stop offset="1" stop-color="white" stop-opacity="0"/>
</radialGradient>
</defs>
</svg>
