<svg width="26" height="26" viewBox="0 0 26 26" fill="none" xmlns="http://www.w3.org/2000/svg">
<g clip-path="url(#clip0)">
<path d="M14.9219 16.2889C14.9674 16.0972 14.9986 15.8943 15.0079 15.6772C15.188 11.7348 13.0339 8.50669 9.80481 6.43142C7.88423 5.19651 6.06263 6.54287 5.59987 8.25971C4.40954 7.31235 2.34809 8.73005 3.27538 10.2873C3.30927 10.3439 3.34404 10.401 3.37881 10.458C2.44795 10.4545 -0.518513 10.4451 0.312042 10.4589C1.29373 10.4759 3.64942 13.1178 3.64942 13.1178V10.8887C4.37298 11.9952 5.29805 13.0304 6.67473 13.1869C7.30244 13.2586 7.82092 13.0643 8.24712 12.7241C8.78522 13.3826 9.0594 14.1217 9.1129 15.0089C8.64167 15.0018 8.16911 15.021 7.69208 15.0767C6.04658 15.2706 5.03101 15.6331 4.69843 17.3544C4.19822 19.9508 5.5486 21.8473 7.00508 23.8321C8.19006 25.4464 10.9176 23.882 9.71698 22.245C8.73529 20.9075 7.74781 19.8086 7.78838 18.2545C8.74778 18.1087 9.70182 18.1479 10.6759 18.2411C11.1525 18.4462 11.6902 18.5291 12.2225 18.4876C13.0165 21.1425 14.5242 23.5071 16.4769 25.5239C17.8883 26.9822 20.1072 24.7562 18.6979 23.3042C16.7618 21.3016 15.4649 18.9847 14.9219 16.2889Z" fill="#F04E27"/>
<path d="M3.03385 3.54456C3.03786 3.58914 3.0392 3.63372 3.04544 3.67875C3.24561 5.13211 4.58529 6.14812 6.03776 5.94795C7.49112 5.74823 8.5058 4.40899 8.30696 2.95563C8.26595 2.65337 8.17322 2.37206 8.04215 2.11527C8.13176 2.07203 8.17233 1.96904 8.14201 1.7546L8.05552 1.12021C7.95745 0.410914 7.30343 -0.0857251 6.59503 0.0123545L3.76766 0.400215C3.05659 0.498294 2.56129 1.15231 2.65892 1.86249L2.72802 2.37563C2.33169 2.69171 1.99688 3.09116 2.06955 3.51469C2.13286 3.89051 2.54925 3.79733 3.03385 3.54456Z" fill="#F04E27"/>
<path d="M10.207 5.97304C10.207 5.97304 16.5733 9.38621 15.8212 14.4168C14.1726 18.611 21.3712 22.931 25.2854 13.2577C25.285 13.2577 30.2692 -5.24521e-06 10.207 5.97304ZM20.9855 13.8667V14.6754H20.1251V13.9144C19.7265 13.8769 19.3302 13.7454 19.0739 13.5635L18.9531 13.4766L19.2651 12.6037L19.4747 12.7432C19.7462 12.9247 20.097 13.0294 20.4332 13.0294C20.8447 13.0294 21.1193 12.8159 21.1193 12.4989C21.1193 12.2849 21.0341 12.0526 20.4042 11.7976C19.739 11.5373 19.0574 11.1579 19.0574 10.3322C19.0574 9.66841 19.4938 9.15082 20.1782 8.97829V8.19231H21.031V8.92479C21.3569 8.95778 21.6418 9.04828 21.8981 9.19852L22.0412 9.28322L21.7158 10.1428L21.5152 10.0286C21.3975 9.96131 21.1197 9.80216 20.6788 9.80216C20.2441 9.80216 20.0894 10.0304 20.0894 10.244C20.0894 10.4753 20.2045 10.6251 20.8879 10.9087C21.479 11.1494 22.1598 11.5426 22.1598 12.4472C22.1585 13.1324 21.6935 13.6861 20.9855 13.8667Z" fill="#F04E27"/>
</g>
<defs>
<clipPath id="clip0">
<rect width="26" height="26" fill="white"/>
</clipPath>
</defs>
</svg>
