<svg width="32" height="32" viewBox="0 0 32 32" fill="none" xmlns="http://www.w3.org/2000/svg">
<path d="M23.6451 10.6632L21.4824 12.993L29.3335 13.7909L28.5928 5.33334L26.4597 7.63124C25.245 6.73761 23.7933 6.22697 22.2823 6.22697C21.0084 6.22697 19.6751 6.60995 18.5493 7.47167C18.1938 7.72699 17.8679 8.04614 17.542 8.42913C17.9272 8.26955 18.3419 8.20572 18.7863 8.20572C20.3269 8.20572 22.0453 9.09935 23.6451 10.6632ZM19.3196 16.5356V14.908C19.3196 13.3122 19.6159 12.259 19.9714 11.5888C20.3269 10.8866 20.7417 10.5355 21.2157 10.3121C21.4528 10.2164 21.7194 10.1526 21.986 10.1206C20.8306 9.29085 19.7048 8.84403 18.7863 8.84403C17.8087 8.84403 17.0087 9.25893 16.3866 10.2483C16.2681 10.4398 16.0014 11.0462 15.9718 11.11C15.6459 12.2271 15.4681 13.5037 15.4681 14.908V16.5356L17.0976 17.525L19.3196 16.5356Z" fill="#141B1F"/>
<path d="M26.1336 21.546C26.7261 21.5141 27.9408 21.3545 28.1778 20.6523C28.3556 20.0779 28.0593 19.8225 27.7927 19.7268C27.6445 19.6949 25.5707 19.9183 25.3336 20.014C25.0077 20.1098 23.556 20.1417 23.319 20.2055C23.2598 20.2694 20.6526 20.5885 20.6526 20.5885C20.6526 20.5885 20.4156 20.6843 20.2971 20.5247C20.1786 20.397 20.4749 20.0459 20.623 20.0459C20.7119 20.0459 22.1636 19.4715 23.1709 19.1523C23.7338 18.9608 26.6372 18.131 27.3483 17.9714C27.7038 17.9076 29.037 17.8438 28.8296 16.7587C28.6815 16.0884 27.9408 15.9608 27.1113 16.1842C26.3113 16.3757 23.3783 17.0459 22.6376 17.2693C21.9266 17.5246 20.623 17.8757 20.0601 17.9395C19.7342 17.9714 19.0528 17.4289 20.2675 17.2374C20.5637 17.1736 21.9562 16.7267 22.4598 16.5672C22.9635 16.4076 24.2967 15.9289 24.6226 15.865C24.9781 15.8012 25.5114 15.7374 26.1336 15.3863C26.6076 15.0991 26.8742 14.5246 26.4595 14.0139C26.0151 13.5352 24.1189 14.2054 23.5857 14.3012C23.0524 14.3969 20.8896 14.7799 20.6526 14.8437C20.5341 14.8757 20.2378 14.9395 19.9416 14.9714V16.9502L17.127 18.131L15.0531 16.9182V15.5459C14.6384 15.482 14.194 15.3225 13.9866 15.131C13.6311 14.8437 14.1051 13.2799 14.4014 12.6416C14.6976 11.9713 15.8827 10.3437 15.379 9.03513C14.8458 7.7266 14.1643 7.82235 14.1643 7.82235C14.1643 7.82235 13.9273 7.85426 13.7496 8.07767C13.5718 8.26916 13.5718 9.51386 13.5718 9.51386C13.5718 9.51386 12.4164 10.982 12.2386 11.5564C12.0608 12.1309 11.7646 13.6948 11.2609 14.0139C10.7573 14.3012 9.60182 15.2586 9.42406 16.3757C9.2463 17.4927 7.91309 18.1949 7.91309 18.1949C7.91309 18.1949 3.32094 20.3651 3.08392 20.8438C2.87654 21.3545 2.63952 21.9928 2.66915 22.5034C2.87654 25.2801 6.22436 26.9716 7.05391 26.6205C7.64645 26.3652 8.59451 25.8226 9.48331 25.1843C10.4017 24.5779 11.9423 24.1311 12.4756 24.3545C13.157 24.6418 16.2382 24.7056 17.7492 24.7694C19.3194 24.8333 21.0674 24.8652 21.8673 24.8333C21.8673 24.8333 23.7931 24.8971 24.0301 24.8333C24.2671 24.7694 24.83 24.7694 24.8892 24.2588C24.9485 23.7481 24.7707 23.3332 24.1189 23.2694C23.4672 23.2056 19.7934 23.1098 19.7638 22.9183C19.7046 22.7268 19.7342 22.6311 19.9416 22.5353C20.2082 22.4715 26.1336 21.546 26.1336 21.546Z" fill="#141B1F"/>
</svg>
