<svg version="1.2" xmlns="http://www.w3.org/2000/svg" viewBox="0 0 60 60" width="60" height="60">
	<title>tie-svg</title>
	<style>
		.s0 { fill: #ffffff } 
	</style>
	<g id="Layer" style="opacity: .2">
		<path id="Layer" class="s0" d="m33.9 11.5l1-2.9q0.1-0.2 0-0.4-0.1-0.2-0.4-0.2h-8.7q-0.2 0-0.3 0.1-0.1 0.1-0.2 0.3 0 0.1 0.1 0.2l1 2.9c0.1 0.1 0.2 0.2 0.4 0.2h6.7c0.2 0 0.4-0.1 0.4-0.2z"/>
		<path id="Layer" class="s0" d="m24 28.7q0 0.1 0 0.1v0.1q0 0.1 0.1 0.2l1.4 1.7 9.2-10.5-0.7-3.5-9.9 11.2z"/>
		<path id="Layer" class="s0" d="m35.6 24.8l-0.7-3.5-8.8 10.1 1.8 2.2z"/>
		<path id="Layer" class="s0" d="m33.8 15.7l-0.6-2.8c0-0.2-0.2-0.3-0.4-0.3h-0.1l-7 8q0 0.1-0.1 0.1l-1.1 5.6z"/>
		<path id="Layer" class="s0" d="m30.2 36q0.2 0 0.3-0.2l5.7-7q0.1-0.1 0.1-0.2v-0.1q0 0 0-0.1l-0.5-2.5-7.3 8.4 1.3 1.6q0.2 0.1 0.4 0.1z"/>
		<path id="Layer" class="s0" d="m27.1 12.9l-1.2 6.2 5.7-6.5h-4.1c-0.2 0-0.3 0.1-0.4 0.3z"/>
	</g>
</svg>