<svg width="33" height="34" viewBox="0 0 33 34" fill="none" xmlns="http://www.w3.org/2000/svg">
<g clip-path="url(#clip0_2364_4329)">
<path d="M32.1592 16.9976C32.1592 20.1714 31.2171 23.2582 29.4348 25.924C29.0492 26.5008 28.2691 26.6557 27.6923 26.2701C27.1155 25.8845 26.9606 25.1043 27.3462 24.5276C28.6323 22.6039 29.3997 20.4227 29.596 18.1596H28.4534C27.7595 18.1596 27.1971 17.5972 27.1971 16.9034C27.1971 16.2095 27.7595 15.6471 28.4534 15.6471H29.5797C28.9428 9.23169 23.8183 4.11699 17.3986 3.49466V4.65522C17.3986 5.34903 16.8362 5.91144 16.1424 5.91144C15.4486 5.91144 14.8862 5.34903 14.8862 4.65522V3.48348C8.40794 4.05085 3.22057 9.18992 2.57952 15.6471H3.89428C4.58809 15.6471 5.1505 16.2095 5.1505 16.9034C5.1505 17.5972 4.58809 18.1596 3.89428 18.1596H2.56275C3.12064 24.7049 8.34506 29.9388 14.8862 30.5117V29.2143C14.8862 28.5205 15.4486 27.9581 16.1424 27.9581C16.8362 27.9581 17.3986 28.5205 17.3986 29.2143V30.5005C19.4153 30.3046 21.3637 29.6615 23.0979 28.6109C23.6912 28.2515 24.4637 28.441 24.8232 29.0345C25.1827 29.6279 24.993 30.4004 24.3996 30.7599C21.897 32.2758 19.02 33.0772 16.0796 33.0772C11.7846 33.0772 7.74666 31.4046 4.70956 28.3676C1.67259 25.3305 0 21.2926 0 16.9976C0 12.7026 1.67259 8.66463 4.70956 5.62753C7.74666 2.59056 11.7846 0.917969 16.0796 0.917969C20.3746 0.917969 24.4125 2.59056 27.4496 5.62753C30.4866 8.66463 32.1592 12.7026 32.1592 16.9976ZM16.0796 9.86853C15.3858 9.86853 14.8234 10.4309 14.8234 11.1247V13.8917L10.513 9.43488C10.0307 8.93616 9.23541 8.92285 8.73675 9.40517C8.23803 9.8875 8.22478 10.6827 8.70704 11.1815L15.1766 17.8708C15.418 18.1204 15.7458 18.2538 16.0799 18.2538C16.2382 18.2538 16.398 18.2238 16.5506 18.1621C17.0252 17.9702 17.3358 17.5095 17.3358 16.9976V11.1247C17.3358 10.4309 16.7734 9.86853 16.0796 9.86853Z" fill="white"/>
</g>
<defs>
<clipPath id="clip0_2364_4329">
<rect width="32.1592" height="32.1592" fill="white" transform="translate(0 0.917969)"/>
</clipPath>
</defs>
</svg>
