<svg width="34" height="34" viewBox="0 0 34 34" fill="none" xmlns="http://www.w3.org/2000/svg">
<g opacity="0.5">
<path d="M24.0154 3.8162L22.8735 5.79215L26.8303 8.07598L27.9722 6.09998C28.2867 5.55148 28.0994 4.85553 27.5531 4.53865L25.5771 3.3967C25.0304 3.08015 24.3324 3.26742 24.0154 3.8162Z" fill="white"/>
<path d="M17.0001 5.14222C17.7223 5.14222 18.4278 5.21289 19.1251 5.3125V3.46428L20.586 3.45311V1.0625C20.586 0.475222 20.1108 0 19.5235 0H14.4878C13.9005 0 13.4253 0.475222 13.4253 1.0625V3.45311L14.8751 3.46428V5.3125C15.5723 5.21289 16.2778 5.14222 17.0001 5.14222Z" fill="white"/>
<path d="M17 6.375C9.37156 6.375 3.1875 12.559 3.1875 20.1875C3.1875 27.816 9.37156 34 17 34C24.6284 34 30.8125 27.816 30.8125 20.1875C30.8125 12.559 24.6284 6.375 17 6.375ZM23.4547 26.6794L15.4062 21.1074V13.2411H17.7289V19.8905L24.7767 24.7698L23.4547 26.6794Z" fill="white"/>
</g>
</svg>
