<svg width="185" height="90" viewBox="0 0 185 90" fill="none" xmlns="http://www.w3.org/2000/svg">
<g opacity="0.4" filter="url(#filter0_d)">
<path d="M35.5485 31.488C34.3325 32.688 32.8445 33.288 31.0845 33.288C29.3245 33.288 27.8285 32.688 26.5965 31.488C25.3805 30.272 24.7725 28.776 24.7725 27C24.7725 25.224 25.3805 23.736 26.5965 22.536C27.8285 21.32 29.3245 20.712 31.0845 20.712C32.8445 20.712 34.3325 21.32 35.5485 22.536C36.7805 23.736 37.3965 25.224 37.3965 27C37.3965 28.776 36.7805 30.272 35.5485 31.488ZM27.7245 30.384C28.6365 31.296 29.7565 31.752 31.0845 31.752C32.4125 31.752 33.5325 31.296 34.4445 30.384C35.3565 29.456 35.8125 28.328 35.8125 27C35.8125 25.672 35.3565 24.552 34.4445 23.64C33.5325 22.712 32.4125 22.248 31.0845 22.248C29.7565 22.248 28.6365 22.712 27.7245 23.64C26.8125 24.552 26.3565 25.672 26.3565 27C26.3565 28.328 26.8125 29.456 27.7245 30.384ZM45.6392 33.288C43.8312 33.288 42.3272 32.688 41.1272 31.488C39.9272 30.272 39.3272 28.776 39.3272 27C39.3272 25.224 39.9272 23.736 41.1272 22.536C42.3272 21.32 43.8312 20.712 45.6392 20.712C46.8232 20.712 47.8872 21 48.8312 21.576C49.7752 22.136 50.4632 22.896 50.8952 23.856L49.5992 24.6C49.2792 23.88 48.7592 23.312 48.0392 22.896C47.3352 22.464 46.5352 22.248 45.6392 22.248C44.3112 22.248 43.1912 22.712 42.2792 23.64C41.3672 24.552 40.9112 25.672 40.9112 27C40.9112 28.328 41.3672 29.456 42.2792 30.384C43.1912 31.296 44.3112 31.752 45.6392 31.752C46.5352 31.752 47.3352 31.544 48.0392 31.128C48.7432 30.696 49.2952 30.12 49.6952 29.4L51.0152 30.168C50.5192 31.128 49.7912 31.888 48.8312 32.448C47.8712 33.008 46.8072 33.288 45.6392 33.288ZM61.695 21V22.536H57.447V33H55.863V22.536H51.615V21H61.695ZM73.4766 21L75.0606 21V33H73.4766V30.648C72.3726 32.408 70.7566 33.288 68.6286 33.288C66.9166 33.288 65.4526 32.68 64.2366 31.464C63.0366 30.248 62.4366 28.76 62.4366 27C62.4366 25.24 63.0366 23.752 64.2366 22.536C65.4526 21.32 66.9166 20.712 68.6286 20.712C70.7566 20.712 72.3726 21.592 73.4766 23.352V21ZM65.3886 30.384C66.3006 31.296 67.4206 31.752 68.7486 31.752C70.0766 31.752 71.1966 31.296 72.1086 30.384C73.0206 29.456 73.4766 28.328 73.4766 27C73.4766 25.672 73.0206 24.552 72.1086 23.64C71.1966 22.712 70.0766 22.248 68.7486 22.248C67.4206 22.248 66.3006 22.712 65.3886 23.64C64.4766 24.552 64.0206 25.672 64.0206 27C64.0206 28.328 64.4766 29.456 65.3886 30.384ZM88.2544 21V33H86.6704V22.536H81.2464V27.888C81.2464 29.888 80.8624 31.264 80.0944 32.016C79.3424 32.768 78.3024 33.096 76.9744 33V31.512C77.8864 31.608 78.5584 31.392 78.9904 30.864C79.4384 30.336 79.6624 29.344 79.6624 27.888V21H88.2544ZM101.666 31.488C100.45 32.688 98.9617 33.288 97.2017 33.288C95.4417 33.288 93.9457 32.688 92.7137 31.488C91.4977 30.272 90.8897 28.776 90.8897 27C90.8897 25.224 91.4977 23.736 92.7137 22.536C93.9457 21.32 95.4417 20.712 97.2017 20.712C98.9617 20.712 100.45 21.32 101.666 22.536C102.898 23.736 103.514 25.224 103.514 27C103.514 28.776 102.898 30.272 101.666 31.488ZM93.8417 30.384C94.7537 31.296 95.8737 31.752 97.2017 31.752C98.5297 31.752 99.6497 31.296 100.562 30.384C101.474 29.456 101.93 28.328 101.93 27C101.93 25.672 101.474 24.552 100.562 23.64C99.6497 22.712 98.5297 22.248 97.2017 22.248C95.8737 22.248 94.7537 22.712 93.8417 23.64C92.9297 24.552 92.4737 25.672 92.4737 27C92.4737 28.328 92.9297 29.456 93.8417 30.384ZM111.756 33.288C109.948 33.288 108.444 32.688 107.244 31.488C106.044 30.272 105.444 28.776 105.444 27C105.444 25.224 106.044 23.736 107.244 22.536C108.444 21.32 109.948 20.712 111.756 20.712C112.94 20.712 114.004 21 114.948 21.576C115.892 22.136 116.58 22.896 117.012 23.856L115.716 24.6C115.396 23.88 114.876 23.312 114.156 22.896C113.452 22.464 112.652 22.248 111.756 22.248C110.428 22.248 109.308 22.712 108.396 23.64C107.484 24.552 107.028 25.672 107.028 27C107.028 28.328 107.484 29.456 108.396 30.384C109.308 31.296 110.428 31.752 111.756 31.752C112.652 31.752 113.452 31.544 114.156 31.128C114.86 30.696 115.412 30.12 115.812 29.4L117.132 30.168C116.636 31.128 115.908 31.888 114.948 32.448C113.988 33.008 112.924 33.288 111.756 33.288ZM124.279 25.56C125.399 25.56 126.343 25.912 127.111 26.616C127.895 27.304 128.287 28.192 128.287 29.28C128.287 30.368 127.895 31.264 127.111 31.968C126.343 32.656 125.399 33 124.279 33H119.407V21H120.991V25.56H124.279ZM124.279 31.464C124.951 31.464 125.519 31.264 125.983 30.864C126.463 30.464 126.703 29.936 126.703 29.28C126.703 28.624 126.463 28.096 125.983 27.696C125.519 27.296 124.951 27.096 124.279 27.096H120.991V31.464H124.279ZM41.0464 50.832C42.3584 51.312 43.0144 52.248 43.0144 53.64C43.0144 54.616 42.6864 55.424 42.0304 56.064C41.3904 56.688 40.4624 57 39.2464 57H33.4144V45H38.7664C39.9344 45 40.8384 45.304 41.4784 45.912C42.1184 46.504 42.4384 47.272 42.4384 48.216C42.4384 49.416 41.9744 50.288 41.0464 50.832ZM38.7664 46.536H34.9984V50.184H38.7664C40.1584 50.184 40.8544 49.56 40.8544 48.312C40.8544 47.752 40.6704 47.32 40.3024 47.016C39.9504 46.696 39.4384 46.536 38.7664 46.536ZM39.2464 55.464C39.9504 55.464 40.4864 55.296 40.8544 54.96C41.2384 54.624 41.4304 54.152 41.4304 53.544C41.4304 52.984 41.2384 52.544 40.8544 52.224C40.4864 51.888 39.9504 51.72 39.2464 51.72H34.9984V55.464H39.2464ZM51.8464 44.712C53.5584 44.712 55.0144 45.32 56.2144 46.536C57.4304 47.752 58.0384 49.24 58.0384 51C58.0384 52.76 57.4304 54.248 56.2144 55.464C55.0144 56.68 53.5584 57.288 51.8464 57.288C49.7184 57.288 48.1024 56.408 46.9984 54.648L46.9984 61.8H45.4144L45.4144 45H46.9984V47.352C48.1024 45.592 49.7184 44.712 51.8464 44.712ZM48.3664 54.384C49.2784 55.296 50.3984 55.752 51.7264 55.752C53.0544 55.752 54.1744 55.296 55.0864 54.384C55.9984 53.456 56.4544 52.328 56.4544 51C56.4544 49.672 55.9984 48.552 55.0864 47.64C54.1744 46.712 53.0544 46.248 51.7264 46.248C50.3984 46.248 49.2784 46.712 48.3664 47.64C47.4544 48.552 46.9984 49.672 46.9984 51C46.9984 52.328 47.4544 53.456 48.3664 54.384ZM66.2162 44.712C67.9922 44.712 69.4242 45.344 70.5122 46.608C71.6162 47.856 72.1682 49.336 72.1682 51.048C72.1682 51.224 72.1522 51.472 72.1202 51.792L61.5842 51.792C61.7442 53.008 62.2562 53.976 63.1202 54.696C64.0002 55.4 65.0802 55.752 66.3602 55.752C67.2722 55.752 68.0562 55.568 68.7122 55.2C69.3842 54.816 69.8882 54.32 70.2242 53.712L71.6162 54.528C71.0882 55.376 70.3682 56.048 69.4562 56.544C68.5442 57.04 67.5042 57.288 66.3362 57.288C64.4482 57.288 62.9122 56.696 61.7282 55.512C60.5442 54.328 59.9522 52.824 59.9522 51C59.9522 49.208 60.5362 47.712 61.7042 46.512C62.8722 45.312 64.3762 44.712 66.2162 44.712ZM66.2162 46.248C64.9682 46.248 63.9202 46.624 63.0722 47.376C62.2402 48.112 61.7442 49.072 61.5842 50.256L70.5362 50.256C70.3762 48.992 69.8882 48.008 69.0722 47.304C68.2562 46.6 67.3042 46.248 66.2162 46.248ZM86.4478 45V57H84.8638V47.424L80.6638 54.24H80.4718L76.2718 47.424V57H74.6878V45H76.5118L80.5678 51.576L84.6238 45H86.4478ZM95.349 44.712C97.125 44.712 98.557 45.344 99.645 46.608C100.749 47.856 101.301 49.336 101.301 51.048C101.301 51.224 101.285 51.472 101.253 51.792H90.717C90.877 53.008 91.389 53.976 92.253 54.696C93.133 55.4 94.213 55.752 95.493 55.752C96.405 55.752 97.189 55.568 97.845 55.2C98.517 54.816 99.021 54.32 99.357 53.712L100.749 54.528C100.221 55.376 99.501 56.048 98.589 56.544C97.677 57.04 96.637 57.288 95.469 57.288C93.581 57.288 92.045 56.696 90.861 55.512C89.677 54.328 89.085 52.824 89.085 51C89.085 49.208 89.669 47.712 90.837 46.512C92.005 45.312 93.509 44.712 95.349 44.712ZM95.349 46.248C94.101 46.248 93.053 46.624 92.205 47.376C91.373 48.112 90.877 49.072 90.717 50.256H99.669C99.509 48.992 99.021 48.008 98.205 47.304C97.389 46.6 96.437 46.248 95.349 46.248ZM112.317 45L113.901 45V57L112.317 57V51.768H105.405V57H103.821V45H105.405V50.232H112.317V45ZM125.986 45H127.33V57H125.746V47.76L118.594 57H117.25V45H118.834V54.24L125.986 45Z" fill="white"/>
</g>
<path d="M156.414 23.4144L148.414 31.4144L145.586 28.5859L153.586 20.5859L156.414 23.4144Z" fill="white"/>
<path d="M181.586 31.4144L173.586 23.4144L176.414 20.5859L184.414 28.5859L181.586 31.4144Z" fill="white"/>
<path fill-rule="evenodd" clip-rule="evenodd" d="M147 42.0001C147 32.059 155.059 24.0001 165 24.0001C174.941 24.0001 183 32.059 183 42.0001C183 51.9412 174.941 60.0001 165 60.0001C155.059 60.0001 147 51.9412 147 42.0001ZM162 44.0001V31.0001H166V40.1137L169.838 37.3727L172.163 40.6276L165.163 45.6276C164.553 46.063 163.751 46.1213 163.085 45.7785C162.419 45.4356 162 44.7493 162 44.0001Z" fill="white"/>
<defs>
<filter id="filter0_d" x="0.772522" y="0.711914" width="151.514" height="89.088" filterUnits="userSpaceOnUse" color-interpolation-filters="sRGB">
<feFlood flood-opacity="0" result="BackgroundImageFix"/>
<feColorMatrix in="SourceAlpha" type="matrix" values="0 0 0 0 0 0 0 0 0 0 0 0 0 0 0 0 0 0 127 0" result="hardAlpha"/>
<feOffset dy="4"/>
<feGaussianBlur stdDeviation="12"/>
<feColorMatrix type="matrix" values="0 0 0 0 1 0 0 0 0 1 0 0 0 0 1 0 0 0 0.25 0"/>
<feBlend mode="normal" in2="BackgroundImageFix" result="effect1_dropShadow"/>
<feBlend mode="normal" in="SourceGraphic" in2="effect1_dropShadow" result="shape"/>
</filter>
</defs>
</svg>
