<svg width="289" height="58" viewBox="0 0 289 58" fill="none" xmlns="http://www.w3.org/2000/svg">
<path opacity="0.6" d="M91.308 11.8H92.46L88.732 20.552C88.3587 21.448 87.884 22.0933 87.308 22.488C86.732 22.8827 86.0173 23.0533 85.164 23V21.976C85.7613 22.04 86.252 21.9547 86.636 21.72C87.0307 21.4747 87.356 21.0533 87.612 20.456L87.836 19.928L83.98 11.8H85.132L88.364 18.68L91.308 11.8ZM99.1838 21.976H100.304V25.144H99.2478V23H92.7198V25.144H91.6638V21.976H92.6398C93.1837 21.2613 93.4557 20.2533 93.4557 18.952V15H99.1838V21.976ZM93.9198 21.976H98.1278V16.024H94.5118V18.952C94.5118 20.1787 94.3144 21.1867 93.9198 21.976ZM105.285 14.808C106.469 14.808 107.423 15.2293 108.149 16.072C108.885 16.904 109.253 17.8907 109.253 19.032C109.253 19.1493 109.242 19.3147 109.221 19.528H102.197C102.303 20.3387 102.645 20.984 103.221 21.464C103.807 21.9333 104.527 22.168 105.381 22.168C105.989 22.168 106.511 22.0453 106.949 21.8C107.397 21.544 107.733 21.2133 107.957 20.808L108.885 21.352C108.533 21.9173 108.053 22.3653 107.445 22.696C106.837 23.0267 106.143 23.192 105.365 23.192C104.106 23.192 103.082 22.7973 102.293 22.008C101.503 21.2187 101.109 20.216 101.109 19C101.109 17.8053 101.498 16.808 102.277 16.008C103.055 15.208 104.058 14.808 105.285 14.808ZM105.285 15.832C104.453 15.832 103.754 16.0827 103.189 16.584C102.634 17.0747 102.303 17.7147 102.197 18.504H108.165C108.058 17.6613 107.733 17.0053 107.189 16.536C106.645 16.0667 106.01 15.832 105.285 15.832ZM115.221 14.808C116.362 14.808 117.333 15.2133 118.133 16.024C118.943 16.8347 119.349 17.8267 119.349 19C119.349 20.1733 118.943 21.1653 118.133 21.976C117.333 22.7867 116.362 23.192 115.221 23.192C113.802 23.192 112.725 22.6053 111.989 21.432V26.2H110.933V15H111.989V16.568C112.725 15.3947 113.802 14.808 115.221 14.808ZM112.901 21.256C113.509 21.864 114.255 22.168 115.141 22.168C116.026 22.168 116.773 21.864 117.381 21.256C117.989 20.6373 118.293 19.8853 118.293 19C118.293 18.1147 117.989 17.368 117.381 16.76C116.773 16.1413 116.026 15.832 115.141 15.832C114.255 15.832 113.509 16.1413 112.901 16.76C112.293 17.368 111.989 18.1147 111.989 19C111.989 19.8853 112.293 20.6373 112.901 21.256ZM129.808 23H128.528L125.264 19.144V23H124.208V19.144L120.944 23H119.664L123.248 18.84L119.824 15H121.104L124.208 18.552V15H125.264V18.552L128.368 15H129.648L126.224 18.84L129.808 23ZM137.069 15H137.965V23H136.909V16.84L132.141 23H131.245V15H132.301V21.16L137.069 15ZM145.286 18.888C146.161 19.208 146.598 19.832 146.598 20.76C146.598 21.4107 146.379 21.9493 145.942 22.376C145.515 22.792 144.897 23 144.086 23H140.198V15H143.766C144.545 15 145.147 15.2027 145.574 15.608C146.001 16.0027 146.214 16.5147 146.214 17.144C146.214 17.944 145.905 18.5253 145.286 18.888ZM143.766 16.024H141.254V18.456H143.766C144.694 18.456 145.158 18.04 145.158 17.208C145.158 16.8347 145.035 16.5467 144.79 16.344C144.555 16.1307 144.214 16.024 143.766 16.024ZM144.086 21.976C144.555 21.976 144.913 21.864 145.158 21.64C145.414 21.416 145.542 21.1013 145.542 20.696C145.542 20.3227 145.414 20.0293 145.158 19.816C144.913 19.592 144.555 19.48 144.086 19.48H141.254V21.976H144.086ZM155.078 15H156.134V23H155.078V21.432C154.342 22.6053 153.265 23.192 151.846 23.192C150.705 23.192 149.729 22.7867 148.918 21.976C148.118 21.1653 147.718 20.1733 147.718 19C147.718 17.8267 148.118 16.8347 148.918 16.024C149.729 15.2133 150.705 14.808 151.846 14.808C153.265 14.808 154.342 15.3947 155.078 16.568V15ZM149.686 21.256C150.294 21.864 151.041 22.168 151.926 22.168C152.811 22.168 153.558 21.864 154.166 21.256C154.774 20.6373 155.078 19.8853 155.078 19C155.078 18.1147 154.774 17.368 154.166 16.76C153.558 16.1413 152.811 15.832 151.926 15.832C151.041 15.832 150.294 16.1413 149.686 16.76C149.078 17.368 148.774 18.1147 148.774 19C148.774 19.8853 149.078 20.6373 149.686 21.256ZM159.65 13.72V12.792H163.81V13.72H159.65ZM164.194 15H165.09V23H164.034V16.84L159.266 23H158.37V15H159.426V21.16L164.194 15ZM173.083 15V16.024H170.251V23H169.195V16.024H166.363V15H173.083ZM177.754 14.808C178.938 14.808 179.892 15.2293 180.618 16.072C181.354 16.904 181.722 17.8907 181.722 19.032C181.722 19.1493 181.711 19.3147 181.69 19.528H174.666C174.772 20.3387 175.114 20.984 175.69 21.464C176.276 21.9333 176.996 22.168 177.85 22.168C178.458 22.168 178.98 22.0453 179.418 21.8C179.866 21.544 180.202 21.2133 180.426 20.808L181.354 21.352C181.002 21.9173 180.522 22.3653 179.914 22.696C179.306 23.0267 178.612 23.192 177.834 23.192C176.575 23.192 175.551 22.7973 174.762 22.008C173.972 21.2187 173.578 20.216 173.578 19C173.578 17.8053 173.967 16.808 174.746 16.008C175.524 15.208 176.527 14.808 177.754 14.808ZM177.754 15.832C176.922 15.832 176.223 16.0827 175.658 16.584C175.103 17.0747 174.772 17.7147 174.666 18.504H180.634C180.527 17.6613 180.202 17.0053 179.658 16.536C179.114 16.0667 178.479 15.832 177.754 15.832ZM186.521 23V22.008C187.3 22.1147 187.881 21.8747 188.265 21.288C188.66 20.6907 188.857 19.6027 188.857 18.024V11.8H196.121V23H195.001V12.856H189.977V18.056C189.977 19.0693 189.897 19.9173 189.737 20.6C189.577 21.2827 189.337 21.8053 189.017 22.168C188.708 22.52 188.351 22.76 187.945 22.888C187.551 23.0053 187.076 23.0427 186.521 23ZM206.526 23H205.054L199.806 17.576V23H198.686V11.8H199.806V16.92L204.894 11.8H206.366L200.99 17.24L206.526 23ZM218.208 11.8V23H217.088V13.496L213.168 20.056H213.008L209.088 13.496V23H207.968V11.8H209.36L213.088 18.04L216.816 11.8H218.208ZM222.364 21.64L221.404 25.24H220.444L221.084 21.64H222.364ZM89.804 37H90.86V45H89.804V41.96C89.1853 42.28 88.4227 42.44 87.516 42.44C86.4707 42.44 85.6707 42.2 85.116 41.72C84.572 41.2293 84.3 40.5093 84.3 39.56V37H85.356V39.56C85.356 40.232 85.532 40.7173 85.884 41.016C86.236 41.304 86.7693 41.448 87.484 41.448C88.316 41.448 89.0893 41.2933 89.804 40.984V37ZM98.8644 37V38.024H96.0324V45H94.9764V38.024H92.1444V37H98.8644ZM106.543 43.992C105.732 44.792 104.74 45.192 103.567 45.192C102.393 45.192 101.396 44.792 100.575 43.992C99.7641 43.1813 99.3588 42.184 99.3588 41C99.3588 39.816 99.7641 38.824 100.575 38.024C101.396 37.2133 102.393 36.808 103.567 36.808C104.74 36.808 105.732 37.2133 106.543 38.024C107.364 38.824 107.775 39.816 107.775 41C107.775 42.184 107.364 43.1813 106.543 43.992ZM101.327 43.256C101.935 43.864 102.681 44.168 103.567 44.168C104.452 44.168 105.199 43.864 105.807 43.256C106.415 42.6373 106.719 41.8853 106.719 41C106.719 40.1147 106.415 39.368 105.807 38.76C105.199 38.1413 104.452 37.832 103.567 37.832C102.681 37.832 101.935 38.1413 101.327 38.76C100.719 39.368 100.415 40.1147 100.415 41C100.415 41.8853 100.719 42.6373 101.327 43.256ZM113.094 45.192C111.942 45.192 110.982 44.8133 110.214 44.056C109.446 43.288 109.062 42.296 109.062 41.08C109.062 39.7147 109.265 38.6693 109.67 37.944C110.075 37.208 110.897 36.5413 112.134 35.944C112.369 35.8267 112.678 35.688 113.062 35.528C113.457 35.368 113.75 35.24 113.942 35.144C114.145 35.048 114.363 34.9253 114.598 34.776C114.833 34.616 115.009 34.44 115.126 34.248C115.243 34.056 115.318 33.8267 115.35 33.56L116.182 34.04C116.139 34.296 116.054 34.536 115.926 34.76C115.798 34.984 115.665 35.1653 115.526 35.304C115.398 35.4427 115.19 35.5973 114.902 35.768C114.625 35.928 114.406 36.0453 114.246 36.12C114.097 36.184 113.83 36.296 113.446 36.456C113.073 36.616 112.822 36.7227 112.694 36.776C111.947 37.096 111.398 37.432 111.046 37.784C110.694 38.1253 110.443 38.5733 110.294 39.128C110.657 38.648 111.115 38.296 111.67 38.072C112.235 37.8373 112.785 37.72 113.318 37.72C114.385 37.72 115.265 38.072 115.958 38.776C116.662 39.4693 117.014 40.36 117.014 41.448C117.014 42.5253 116.641 43.4213 115.894 44.136C115.158 44.84 114.225 45.192 113.094 45.192ZM113.094 44.136C113.926 44.136 114.609 43.8853 115.142 43.384C115.686 42.872 115.958 42.2267 115.958 41.448C115.958 40.6587 115.702 40.0133 115.19 39.512C114.689 39 114.017 38.744 113.174 38.744C112.417 38.744 111.729 38.984 111.11 39.464C110.491 39.9333 110.182 40.5627 110.182 41.352C110.182 42.1627 110.459 42.8293 111.014 43.352C111.579 43.8747 112.273 44.136 113.094 44.136ZM121.868 40.04C122.615 40.04 123.244 40.2747 123.756 40.744C124.279 41.2027 124.54 41.7947 124.54 42.52C124.54 43.2453 124.279 43.8427 123.756 44.312C123.244 44.7707 122.615 45 121.868 45H118.62V37H119.676V40.04H121.868ZM125.66 37H126.716V45H125.66V37ZM121.868 43.976C122.316 43.976 122.695 43.8427 123.004 43.576C123.324 43.3093 123.484 42.9573 123.484 42.52C123.484 42.0827 123.324 41.7307 123.004 41.464C122.695 41.1973 122.316 41.064 121.868 41.064H119.676V43.976H121.868ZM139.684 37V45H138.628V38.024H134.02V45H132.964V37H139.684ZM145.613 36.808C146.797 36.808 147.752 37.2293 148.477 38.072C149.213 38.904 149.581 39.8907 149.581 41.032C149.581 41.1493 149.57 41.3147 149.549 41.528H142.525C142.632 42.3387 142.973 42.984 143.549 43.464C144.136 43.9333 144.856 44.168 145.709 44.168C146.317 44.168 146.84 44.0453 147.277 43.8C147.725 43.544 148.061 43.2133 148.285 42.808L149.213 43.352C148.861 43.9173 148.381 44.3653 147.773 44.696C147.165 45.0267 146.472 45.192 145.693 45.192C144.434 45.192 143.41 44.7973 142.621 44.008C141.832 43.2187 141.437 42.216 141.437 41C141.437 39.8053 141.826 38.808 142.605 38.008C143.384 37.208 144.386 36.808 145.613 36.808ZM145.613 37.832C144.781 37.832 144.082 38.0827 143.517 38.584C142.962 39.0747 142.632 39.7147 142.525 40.504H148.493C148.386 39.6613 148.061 39.0053 147.517 38.536C146.973 38.0667 146.338 37.832 145.613 37.832ZM155.549 36.808C156.69 36.808 157.661 37.2133 158.461 38.024C159.271 38.8347 159.677 39.8267 159.677 41C159.677 42.1733 159.271 43.1653 158.461 43.976C157.661 44.7867 156.69 45.192 155.549 45.192C154.13 45.192 153.053 44.6053 152.317 43.432V48.2H151.261V37H152.317V38.568C153.053 37.3947 154.13 36.808 155.549 36.808ZM153.229 43.256C153.837 43.864 154.583 44.168 155.469 44.168C156.354 44.168 157.101 43.864 157.709 43.256C158.317 42.6373 158.621 41.8853 158.621 41C158.621 40.1147 158.317 39.368 157.709 38.76C157.101 38.1413 156.354 37.832 155.469 37.832C154.583 37.832 153.837 38.1413 153.229 38.76C152.621 39.368 152.317 40.1147 152.317 41C152.317 41.8853 152.621 42.6373 153.229 43.256ZM165.129 36.808C166.313 36.808 167.267 37.2293 167.993 38.072C168.729 38.904 169.097 39.8907 169.097 41.032C169.097 41.1493 169.086 41.3147 169.065 41.528H162.041C162.147 42.3387 162.489 42.984 163.065 43.464C163.651 43.9333 164.371 44.168 165.225 44.168C165.833 44.168 166.355 44.0453 166.793 43.8C167.241 43.544 167.577 43.2133 167.801 42.808L168.729 43.352C168.377 43.9173 167.897 44.3653 167.289 44.696C166.681 45.0267 165.987 45.192 165.209 45.192C163.95 45.192 162.926 44.7973 162.137 44.008C161.347 43.2187 160.953 42.216 160.953 41C160.953 39.8053 161.342 38.808 162.121 38.008C162.899 37.208 163.902 36.808 165.129 36.808ZM165.129 37.832C164.297 37.832 163.598 38.0827 163.033 38.584C162.478 39.0747 162.147 39.7147 162.041 40.504H168.009C167.902 39.6613 167.577 39.0053 167.033 38.536C166.489 38.0667 165.854 37.832 165.129 37.832ZM176.224 37V38.024H173.392V45H172.336V38.024H169.504V37H176.224ZM184.078 37H185.134V45H184.078V43.432C183.342 44.6053 182.265 45.192 180.846 45.192C179.705 45.192 178.729 44.7867 177.918 43.976C177.118 43.1653 176.718 42.1733 176.718 41C176.718 39.8267 177.118 38.8347 177.918 38.024C178.729 37.2133 179.705 36.808 180.846 36.808C182.265 36.808 183.342 37.3947 184.078 38.568V37ZM178.686 43.256C179.294 43.864 180.041 44.168 180.926 44.168C181.811 44.168 182.558 43.864 183.166 43.256C183.774 42.6373 184.078 41.8853 184.078 41C184.078 40.1147 183.774 39.368 183.166 38.76C182.558 38.1413 181.811 37.832 180.926 37.832C180.041 37.832 179.294 38.1413 178.686 38.76C178.078 39.368 177.774 40.1147 177.774 41C177.774 41.8853 178.078 42.6373 178.686 43.256ZM191.098 45.192C189.893 45.192 188.89 44.792 188.09 43.992C187.29 43.1813 186.89 42.184 186.89 41C186.89 39.816 187.29 38.824 188.09 38.024C188.89 37.2133 189.893 36.808 191.098 36.808C191.887 36.808 192.597 37 193.226 37.384C193.855 37.7573 194.314 38.264 194.602 38.904L193.738 39.4C193.525 38.92 193.178 38.5413 192.698 38.264C192.229 37.976 191.695 37.832 191.098 37.832C190.213 37.832 189.466 38.1413 188.858 38.76C188.25 39.368 187.946 40.1147 187.946 41C187.946 41.8853 188.25 42.6373 188.858 43.256C189.466 43.864 190.213 44.168 191.098 44.168C191.695 44.168 192.229 44.0293 192.698 43.752C193.167 43.464 193.535 43.08 193.802 42.6L194.682 43.112C194.351 43.752 193.866 44.2587 193.226 44.632C192.586 45.0053 191.877 45.192 191.098 45.192ZM202.662 45H201.254L197.254 41.144V45H196.198V37H197.254V40.536L201.062 37H202.502L198.374 40.84L202.662 45ZM209.928 37H210.824V45H209.768V38.84L205 45H204.104V37H205.16V43.16L209.928 37ZM218.146 40.888C219.02 41.208 219.458 41.832 219.458 42.76C219.458 43.4107 219.239 43.9493 218.802 44.376C218.375 44.792 217.756 45 216.946 45H213.058V37H216.626C217.404 37 218.007 37.2027 218.434 37.608C218.86 38.0027 219.074 38.5147 219.074 39.144C219.074 39.944 218.764 40.5253 218.146 40.888ZM216.626 38.024H214.114V40.456H216.626C217.554 40.456 218.018 40.04 218.018 39.208C218.018 38.8347 217.895 38.5467 217.65 38.344C217.415 38.1307 217.074 38.024 216.626 38.024ZM216.946 43.976C217.415 43.976 217.772 43.864 218.018 43.64C218.274 43.416 218.402 43.1013 218.402 42.696C218.402 42.3227 218.274 42.0293 218.018 41.816C217.772 41.592 217.415 41.48 216.946 41.48H214.114V43.976H216.946ZM227.938 37H228.994V45H227.938V43.432C227.202 44.6053 226.124 45.192 224.706 45.192C223.564 45.192 222.588 44.7867 221.778 43.976C220.978 43.1653 220.578 42.1733 220.578 41C220.578 39.8267 220.978 38.8347 221.778 38.024C222.588 37.2133 223.564 36.808 224.706 36.808C226.124 36.808 227.202 37.3947 227.938 38.568V37ZM222.546 43.256C223.154 43.864 223.9 44.168 224.786 44.168C225.671 44.168 226.418 43.864 227.026 43.256C227.634 42.6373 227.938 41.8853 227.938 41C227.938 40.1147 227.634 39.368 227.026 38.76C226.418 38.1413 225.671 37.832 224.786 37.832C223.9 37.832 223.154 38.1413 222.546 38.76C221.938 39.368 221.634 40.1147 221.634 41C221.634 41.8853 221.938 42.6373 222.546 43.256ZM236.989 37V38.024H234.157V45H233.101V38.024H230.269V37H236.989ZM241.524 40.04C242.271 40.04 242.9 40.2747 243.412 40.744C243.935 41.2027 244.196 41.7947 244.196 42.52C244.196 43.2453 243.935 43.8427 243.412 44.312C242.9 44.7707 242.271 45 241.524 45H238.276V37H239.332V40.04H241.524ZM241.524 43.976C241.972 43.976 242.351 43.8427 242.66 43.576C242.98 43.3093 243.14 42.9573 243.14 42.52C243.14 42.0827 242.98 41.7307 242.66 41.464C242.351 41.1973 241.972 41.064 241.524 41.064H239.332V43.976H241.524ZM254.88 40.888C255.755 41.208 256.192 41.832 256.192 42.76C256.192 43.4107 255.973 43.9493 255.536 44.376C255.109 44.792 254.491 45 253.68 45H249.792V37H253.36C254.139 37 254.741 37.2027 255.168 37.608C255.595 38.0027 255.808 38.5147 255.808 39.144C255.808 39.944 255.499 40.5253 254.88 40.888ZM253.36 38.024H250.848V40.456H253.36C254.288 40.456 254.752 40.04 254.752 39.208C254.752 38.8347 254.629 38.5467 254.384 38.344C254.149 38.1307 253.808 38.024 253.36 38.024ZM253.68 43.976C254.149 43.976 254.507 43.864 254.752 43.64C255.008 43.416 255.136 43.1013 255.136 42.696C255.136 42.3227 255.008 42.0293 254.752 41.816C254.507 41.592 254.149 41.48 253.68 41.48H250.848V43.976H253.68ZM261.488 36.808C262.672 36.808 263.627 37.2293 264.352 38.072C265.088 38.904 265.456 39.8907 265.456 41.032C265.456 41.1493 265.445 41.3147 265.424 41.528H258.4C258.507 42.3387 258.848 42.984 259.424 43.464C260.011 43.9333 260.731 44.168 261.584 44.168C262.192 44.168 262.715 44.0453 263.152 43.8C263.6 43.544 263.936 43.2133 264.16 42.808L265.088 43.352C264.736 43.9173 264.256 44.3653 263.648 44.696C263.04 45.0267 262.347 45.192 261.568 45.192C260.309 45.192 259.285 44.7973 258.496 44.008C257.707 43.2187 257.312 42.216 257.312 41C257.312 39.8053 257.701 38.808 258.48 38.008C259.259 37.208 260.261 36.808 261.488 36.808ZM261.488 37.832C260.656 37.832 259.957 38.0827 259.392 38.584C258.837 39.0747 258.507 39.7147 258.4 40.504H264.368C264.261 39.6613 263.936 39.0053 263.392 38.536C262.848 38.0667 262.213 37.832 261.488 37.832ZM277.856 43.976H278.976V47.144H277.92V45H267.136V37H268.192V43.976H271.968V37H273.024V43.976H276.8V37H277.856V43.976ZM286.397 37H287.293V45H286.237V38.84L281.469 45H280.573V37H281.629V43.16L286.397 37Z" fill="white"/>
<path d="M28.9336 26.3699C28.1011 26.3699 27.4768 25.6778 27.4768 24.9165V19.1718C27.4768 18.3413 28.1705 17.7184 28.9336 17.7184C29.6966 17.7184 30.3903 18.4105 30.3903 19.1718V24.9165C30.3903 25.747 29.766 26.3699 28.9336 26.3699ZM28.3092 46.2339C22.1352 46.2339 17.1405 41.2506 17.1405 35.0907V22.9093C17.1405 17.0263 21.719 12.2506 27.4768 11.8353V1.45346C27.4768 0.622911 28.1705 0 28.9336 0C44.9583 0 58 13.0119 58 29C58 44.9881 44.9583 58 28.9336 58C28.1011 58 27.4768 57.3079 27.4768 56.5465C27.4768 55.716 28.1705 55.0931 28.9336 55.0931C43.3627 55.0931 55.0864 43.3962 55.0864 29C55.0864 15.0883 44.1258 3.73747 30.3903 2.97613V11.8353C36.1481 12.2506 40.7266 17.0955 40.7266 22.9093V35.0907C40.7266 41.2506 35.7319 46.2339 29.5579 46.2339H28.3092ZM28.3092 43.327H29.5579C34.067 43.327 37.813 39.6587 37.813 35.0907V22.9093C37.813 18.4105 34.1364 14.673 29.5579 14.673H28.3092C23.8001 14.673 20.0541 18.3413 20.0541 22.9093V35.0907C20.1234 39.5895 23.8001 43.327 28.3092 43.327ZM10.5502 6.99045C10.134 6.99045 9.78715 7.12888 9.50967 7.40573C9.23219 7.68258 9.09344 8.02864 9.09344 8.44391C9.09344 8.85919 9.23219 9.20525 9.50967 9.4821C9.78715 9.75895 10.134 9.89737 10.5502 9.89737C10.9665 9.89737 11.3133 9.75895 11.5908 9.4821C11.8683 9.20525 12.007 8.85919 12.007 8.44391C12.007 8.02864 11.8683 7.68258 11.5908 7.40573C11.3133 7.12888 10.9665 6.99045 10.5502 6.99045ZM1.60138 32.9451C2.43383 32.8759 2.98879 32.1838 2.91942 31.3532C2.85005 30.5227 2.15634 29.969 1.32389 30.0382C0.491439 30.1074 -0.0635292 30.7995 0.00584181 31.6301C0.0752128 32.3914 0.699552 32.9451 1.46263 32.9451C1.46263 32.9451 1.532 32.9451 1.60138 32.9451ZM3.75188 36.1289C3.54376 35.3675 2.71131 34.8831 1.94823 35.0907C1.18515 35.2983 0.699552 36.1289 0.907665 36.8902C1.11578 37.5823 1.67075 37.9976 2.29509 37.9976C2.43383 37.9976 2.57257 37.9976 2.64194 37.9284C3.47439 37.7208 3.95999 36.9594 3.75188 36.1289ZM2.0176 22.7017C2.15634 22.7709 2.29508 22.7709 2.43383 22.7709C3.05817 22.7709 3.6825 22.3556 3.82125 21.7327C4.02936 20.9714 3.61313 20.1408 2.85005 19.9332C2.08697 19.7255 1.25452 20.1408 1.04641 20.9021C0.768923 21.6635 1.25452 22.494 2.0176 22.7017ZM1.32389 27.8234C1.39326 27.8234 1.39326 27.8234 1.46263 27.8234C2.22571 27.8234 2.85005 27.2697 2.91942 26.5084C2.98879 25.6778 2.43383 24.9857 1.60138 24.9165C0.768923 24.8473 0.0752128 25.401 0.00584181 26.2315C-0.0635292 26.9928 0.491439 27.7542 1.32389 27.8234ZM3.6825 17.8568C3.89062 17.9952 4.09873 17.9952 4.37621 17.9952C4.93118 17.9952 5.41678 17.7184 5.69426 17.1647C6.04112 16.4726 5.76364 15.5728 5.06992 15.1575C4.37621 14.8115 3.47439 15.0883 3.05817 15.7804C2.64194 16.611 2.91942 17.5107 3.6825 17.8568ZM5.41678 40.7661C5.06992 40.0048 4.23747 39.6587 3.47439 40.0048C2.71131 40.3508 2.36446 41.1814 2.71131 41.9427C2.9888 42.4964 3.47439 42.8425 4.02936 42.8425C4.23747 42.8425 4.44559 42.7733 4.6537 42.7041C5.41678 42.358 5.69426 41.5274 5.41678 40.7661ZM19.3604 53.3628C18.5973 53.0859 17.7648 53.5012 17.4873 54.2625C17.2099 55.0239 17.6261 55.8544 18.3892 56.1313C18.5279 56.2005 18.736 56.2005 18.8748 56.2005C19.4991 56.2005 20.0541 55.8544 20.2622 55.2315C20.4703 54.4702 20.1234 53.6396 19.3604 53.3628ZM8.81596 48.7255C8.26099 49.3484 8.33036 50.2482 8.9547 50.8019C9.23219 51.0788 9.57904 51.148 9.9259 51.148C10.3421 51.148 10.7583 51.0095 11.0358 50.6635C11.5908 50.0406 11.5214 49.1408 10.8971 48.5871C10.2727 48.1026 9.37093 48.1026 8.81596 48.7255ZM7.70602 45.0573C7.22043 44.3652 6.3186 44.2267 5.62489 44.7112C4.93118 45.1957 4.79244 46.0955 5.27804 46.7876C5.55552 47.2029 6.04112 47.4105 6.45735 47.4105C6.73483 47.4105 7.01231 47.3413 7.2898 47.1336C8.05288 46.5799 8.19162 45.6802 7.70602 45.0573ZM7.98351 11.0048C7.35917 10.5203 6.38797 10.6587 5.90238 11.2816C5.41678 11.9045 5.55552 12.8735 6.17986 13.358C6.45735 13.5656 6.73483 13.6348 7.08168 13.6348C7.49791 13.6348 7.98351 13.4272 8.26099 13.0811C8.74659 12.4582 8.60785 11.5585 7.98351 11.0048ZM25.2569 56.3389C25.3956 55.5084 24.8407 54.747 24.0776 54.6086C23.2451 54.4702 22.482 55.0239 22.3433 55.7852C22.2046 56.5465 22.7595 57.3771 23.5226 57.5155C23.592 57.5155 23.7307 57.5155 23.8001 57.5155C24.4938 57.5847 25.1181 57.031 25.2569 56.3389ZM14.8512 51.3556C14.1575 50.9403 13.2557 51.2172 12.8395 51.9785C12.4233 52.6706 12.7007 53.5704 13.4638 53.9857C13.6719 54.1241 13.9494 54.1933 14.1575 54.1933C14.7125 54.1933 15.1981 53.9165 15.4756 53.432C15.8224 52.6706 15.5449 51.7709 14.8512 51.3556Z" fill="white"/>
</svg>
