<svg width="233" height="178" viewBox="0 0 233 178" fill="none" xmlns="http://www.w3.org/2000/svg">
<path opacity="0.5" d="M31.96 128H30.68L27.64 123.216L24.6 128H23.32L27 122.224L23.56 116.8H24.824L27.64 121.216L30.456 116.8H31.72L28.28 122.224L31.96 128ZM38.4893 123.888C39.3639 124.208 39.8013 124.832 39.8013 125.76C39.8013 126.411 39.5826 126.949 39.1453 127.376C38.7186 127.792 38.0999 128 37.2893 128H33.4013V120H36.9693C37.7479 120 38.3506 120.203 38.7773 120.608C39.2039 121.003 39.4173 121.515 39.4173 122.144C39.4173 122.944 39.1079 123.525 38.4893 123.888ZM36.9693 121.024H34.4573V123.456H36.9693C37.8973 123.456 38.3613 123.04 38.3613 122.208C38.3613 121.835 38.2386 121.547 37.9933 121.344C37.7586 121.131 37.4173 121.024 36.9693 121.024ZM37.2893 126.976C37.7586 126.976 38.1159 126.864 38.3613 126.64C38.6173 126.416 38.7453 126.101 38.7453 125.696C38.7453 125.323 38.6173 125.029 38.3613 124.816C38.1159 124.592 37.7586 124.48 37.2893 124.48H34.4573V126.976H37.2893ZM48.2812 120H49.3373V128H48.2812V126.432C47.5453 127.605 46.4679 128.192 45.0493 128.192C43.9079 128.192 42.9319 127.787 42.1213 126.976C41.3213 126.165 40.9213 125.173 40.9213 124C40.9213 122.827 41.3213 121.835 42.1213 121.024C42.9319 120.213 43.9079 119.808 45.0493 119.808C46.4679 119.808 47.5453 120.395 48.2812 121.568V120ZM42.8893 126.256C43.4973 126.864 44.2439 127.168 45.1293 127.168C46.0146 127.168 46.7613 126.864 47.3693 126.256C47.9773 125.637 48.2812 124.885 48.2812 124C48.2812 123.115 47.9773 122.368 47.3693 121.76C46.7613 121.141 46.0146 120.832 45.1293 120.832C44.2439 120.832 43.4973 121.141 42.8893 121.76C42.2813 122.368 41.9773 123.115 41.9773 124C41.9773 124.885 42.2813 125.637 42.8893 126.256ZM57.3331 120V121.024H54.5011V128H53.4451V121.024H50.6131V120H57.3331ZM65.1875 120H66.2435V128H65.1875V126.432C64.4515 127.605 63.3742 128.192 61.9555 128.192C60.8142 128.192 59.8382 127.787 59.0275 126.976C58.2275 126.165 57.8275 125.173 57.8275 124C57.8275 122.827 58.2275 121.835 59.0275 121.024C59.8382 120.213 60.8142 119.808 61.9555 119.808C63.3742 119.808 64.4515 120.395 65.1875 121.568V120ZM59.7955 126.256C60.4035 126.864 61.1502 127.168 62.0355 127.168C62.9208 127.168 63.6675 126.864 64.2755 126.256C64.8835 125.637 65.1875 124.885 65.1875 124C65.1875 123.115 64.8835 122.368 64.2755 121.76C63.6675 121.141 62.9208 120.832 62.0355 120.832C61.1502 120.832 60.4035 121.141 59.7955 121.76C59.1875 122.368 58.8835 123.115 58.8835 124C58.8835 124.885 59.1875 125.637 59.7955 126.256ZM69.7594 118.72V117.792H73.9194V118.72H69.7594ZM74.3034 120H75.1994V128H74.1434V121.84L69.3754 128H68.4794V120H69.5354V126.16L74.3034 120ZM83.1925 120V121.024H80.3605V128H79.3045V121.024H76.4725V120H83.1925ZM87.8629 119.808C89.0469 119.808 90.0015 120.229 90.7269 121.072C91.4629 121.904 91.8309 122.891 91.8309 124.032C91.8309 124.149 91.8202 124.315 91.7989 124.528H84.7749C84.8815 125.339 85.2229 125.984 85.7989 126.464C86.3855 126.933 87.1055 127.168 87.9589 127.168C88.5669 127.168 89.0895 127.045 89.5269 126.8C89.9749 126.544 90.3109 126.213 90.5349 125.808L91.4629 126.352C91.1109 126.917 90.6309 127.365 90.0229 127.696C89.4149 128.027 88.7215 128.192 87.9429 128.192C86.6842 128.192 85.6602 127.797 84.8709 127.008C84.0815 126.219 83.6869 125.216 83.6869 124C83.6869 122.805 84.0762 121.808 84.8549 121.008C85.6335 120.208 86.6362 119.808 87.8629 119.808ZM87.8629 120.832C87.0309 120.832 86.3322 121.083 85.7669 121.584C85.2122 122.075 84.8815 122.715 84.7749 123.504H90.7429C90.6362 122.661 90.3109 122.005 89.7669 121.536C89.2229 121.067 88.5882 120.832 87.8629 120.832ZM102.599 123.888C103.473 124.208 103.911 124.832 103.911 125.76C103.911 126.411 103.692 126.949 103.255 127.376C102.828 127.792 102.209 128 101.399 128H97.5106V120H101.079C101.857 120 102.46 120.203 102.887 120.608C103.313 121.003 103.527 121.515 103.527 122.144C103.527 122.944 103.217 123.525 102.599 123.888ZM101.079 121.024H98.5666V123.456H101.079C102.007 123.456 102.471 123.04 102.471 122.208C102.471 121.835 102.348 121.547 102.103 121.344C101.868 121.131 101.527 121.024 101.079 121.024ZM101.399 126.976C101.868 126.976 102.225 126.864 102.471 126.64C102.727 126.416 102.855 126.101 102.855 125.696C102.855 125.323 102.727 125.029 102.471 124.816C102.225 124.592 101.868 124.48 101.399 124.48H98.5666V126.976H101.399ZM109.207 119.808C110.391 119.808 111.345 120.229 112.071 121.072C112.807 121.904 113.175 122.891 113.175 124.032C113.175 124.149 113.164 124.315 113.143 124.528H106.119C106.225 125.339 106.567 125.984 107.143 126.464C107.729 126.933 108.449 127.168 109.303 127.168C109.911 127.168 110.433 127.045 110.871 126.8C111.319 126.544 111.655 126.213 111.879 125.808L112.807 126.352C112.455 126.917 111.975 127.365 111.367 127.696C110.759 128.027 110.065 128.192 109.287 128.192C108.028 128.192 107.004 127.797 106.215 127.008C105.425 126.219 105.031 125.216 105.031 124C105.031 122.805 105.42 121.808 106.199 121.008C106.977 120.208 107.98 119.808 109.207 119.808ZM109.207 120.832C108.375 120.832 107.676 121.083 107.111 121.584C106.556 122.075 106.225 122.715 106.119 123.504H112.087C111.98 122.661 111.655 122.005 111.111 121.536C110.567 121.067 109.932 120.832 109.207 120.832ZM125.574 126.976H126.694V130.144H125.638V128H114.854V120H115.91V126.976H119.686V120H120.742V126.976H124.518V120H125.574V126.976ZM134.116 120H135.012V128H133.956V121.84L129.188 128H128.292V120H129.348V126.16L134.116 120ZM147.069 120H147.965V128H146.909V121.84L142.141 128H141.245V120H142.301V126.16L147.069 120ZM160.662 128H159.254L155.254 124.144V128H154.198V120H155.254V123.536L159.062 120H160.502L156.374 123.84L160.662 128ZM168.664 120V128H167.608V121.024H163.992V124.592C163.992 125.925 163.736 126.843 163.224 127.344C162.723 127.845 162.03 128.064 161.144 128V127.008C161.752 127.072 162.2 126.928 162.488 126.576C162.787 126.224 162.936 125.563 162.936 124.592V120H168.664ZM177.781 120H178.837V128H177.781V126.432C177.045 127.605 175.968 128.192 174.549 128.192C173.408 128.192 172.432 127.787 171.621 126.976C170.821 126.165 170.421 125.173 170.421 124C170.421 122.827 170.821 121.835 171.621 121.024C172.432 120.213 173.408 119.808 174.549 119.808C175.968 119.808 177.045 120.395 177.781 121.568V120ZM172.389 126.256C172.997 126.864 173.744 127.168 174.629 127.168C175.515 127.168 176.261 126.864 176.869 126.256C177.477 125.637 177.781 124.885 177.781 124C177.781 123.115 177.477 122.368 176.869 121.76C176.261 121.141 175.515 120.832 174.629 120.832C173.744 120.832 172.997 121.141 172.389 121.76C171.781 122.368 171.477 123.115 171.477 124C171.477 124.885 171.781 125.637 172.389 126.256ZM187.793 126.976H188.913V130.144H187.857V128H181.329V130.144H180.273V126.976H181.249C181.793 126.261 182.065 125.253 182.065 123.952V120H187.793V126.976ZM182.529 126.976H186.737V121.024H183.121V123.952C183.121 125.179 182.924 126.187 182.529 126.976ZM196.335 120H197.231V128H196.175V121.84L191.407 128H190.511V120H191.567V126.16L196.335 120ZM205.224 120V121.024H202.392V128H201.336V121.024H198.504V120H205.224ZM209.894 119.808C211.078 119.808 212.033 120.229 212.758 121.072C213.494 121.904 213.862 122.891 213.862 124.032C213.862 124.149 213.851 124.315 213.83 124.528H206.806C206.913 125.339 207.254 125.984 207.83 126.464C208.417 126.933 209.137 127.168 209.99 127.168C210.598 127.168 211.121 127.045 211.558 126.8C212.006 126.544 212.342 126.213 212.566 125.808L213.494 126.352C213.142 126.917 212.662 127.365 212.054 127.696C211.446 128.027 210.753 128.192 209.974 128.192C208.715 128.192 207.691 127.797 206.902 127.008C206.113 126.219 205.718 125.216 205.718 124C205.718 122.805 206.107 121.808 206.886 121.008C207.665 120.208 208.667 119.808 209.894 119.808ZM209.894 120.832C209.062 120.832 208.363 121.083 207.798 121.584C207.243 122.075 206.913 122.715 206.806 123.504H212.774C212.667 122.661 212.342 122.005 211.798 121.536C211.254 121.067 210.619 120.832 209.894 120.832ZM224.63 123.888C225.505 124.208 225.942 124.832 225.942 125.76C225.942 126.411 225.723 126.949 225.286 127.376C224.859 127.792 224.241 128 223.43 128H219.542V120H223.11C223.889 120 224.491 120.203 224.918 120.608C225.345 121.003 225.558 121.515 225.558 122.144C225.558 122.944 225.249 123.525 224.63 123.888ZM223.11 121.024H220.598V123.456H223.11C224.038 123.456 224.502 123.04 224.502 122.208C224.502 121.835 224.379 121.547 224.134 121.344C223.899 121.131 223.558 121.024 223.11 121.024ZM223.43 126.976C223.899 126.976 224.257 126.864 224.502 126.64C224.758 126.416 224.886 126.101 224.886 125.696C224.886 125.323 224.758 125.029 224.502 124.816C224.257 124.592 223.899 124.48 223.43 124.48H220.598V126.976H223.43ZM27.848 150.192C26.6427 150.192 25.64 149.792 24.84 148.992C24.04 148.181 23.64 147.184 23.64 146C23.64 144.816 24.04 143.824 24.84 143.024C25.64 142.213 26.6427 141.808 27.848 141.808C28.6373 141.808 29.3467 142 29.976 142.384C30.6053 142.757 31.064 143.264 31.352 143.904L30.488 144.4C30.2747 143.92 29.928 143.541 29.448 143.264C28.9787 142.976 28.4453 142.832 27.848 142.832C26.9627 142.832 26.216 143.141 25.608 143.76C25 144.368 24.696 145.115 24.696 146C24.696 146.885 25 147.637 25.608 148.256C26.216 148.864 26.9627 149.168 27.848 149.168C28.4453 149.168 28.9787 149.029 29.448 148.752C29.9173 148.464 30.2853 148.08 30.552 147.6L31.432 148.112C31.1013 148.752 30.616 149.259 29.976 149.632C29.336 150.005 28.6267 150.192 27.848 150.192ZM38.3956 142H39.5156L36.0916 150.736C35.7823 151.525 35.3396 152.144 34.7636 152.592C34.1983 153.051 33.5636 153.253 32.8596 153.2V152.208C33.8196 152.315 34.5503 151.76 35.0516 150.544L35.2596 150.048L31.6756 142H32.7956L35.8036 148.704L38.3956 142ZM48.6319 142V150H47.5759V143.616L44.7759 148.16H44.6479L41.8479 143.616V150H40.7919V142H42.0079L44.7119 146.384L47.4159 142H48.6319ZM57.334 150H55.926L51.926 146.144V150H50.87V142H51.926V145.536L55.734 142H57.174L53.046 145.84L57.334 150ZM64.2238 142H65.3438L61.9198 150.736C61.6104 151.525 61.1678 152.144 60.5918 152.592C60.0264 153.051 59.3918 153.253 58.6878 153.2V152.208C59.6478 152.315 60.3784 151.76 60.8798 150.544L61.0878 150.048L57.5038 142H58.6238L61.6318 148.704L64.2238 142ZM66.9425 148.64L65.9825 152.24H65.0225L65.6625 148.64H66.9425ZM78.7863 142H79.9062L76.4823 150.736C76.1729 151.525 75.7303 152.144 75.1543 152.592C74.5889 153.051 73.9543 153.253 73.2503 153.2V152.208C74.2103 152.315 74.9409 151.76 75.4423 150.544L75.6503 150.048L72.0663 142H73.1863L76.1943 148.704L78.7863 142ZM90.2705 145.888C91.1452 146.208 91.5825 146.832 91.5825 147.76C91.5825 148.411 91.3638 148.949 90.9265 149.376C90.4998 149.792 89.8812 150 89.0705 150H85.1825V142H88.7505C89.5292 142 90.1318 142.203 90.5585 142.608C90.9852 143.003 91.1985 143.515 91.1985 144.144C91.1985 144.944 90.8892 145.525 90.2705 145.888ZM88.7505 143.024H86.2385V145.456H88.7505C89.6785 145.456 90.1425 145.04 90.1425 144.208C90.1425 143.835 90.0198 143.547 89.7745 143.344C89.5398 143.131 89.1985 143.024 88.7505 143.024ZM89.0705 148.976C89.5398 148.976 89.8972 148.864 90.1425 148.64C90.3985 148.416 90.5265 148.101 90.5265 147.696C90.5265 147.323 90.3985 147.029 90.1425 146.816C89.8972 146.592 89.5398 146.48 89.0705 146.48H86.2385V148.976H89.0705ZM100.062 142H101.119V150H100.062V148.432C99.3265 149.605 98.2492 150.192 96.8305 150.192C95.6892 150.192 94.7132 149.787 93.9025 148.976C93.1025 148.165 92.7025 147.173 92.7025 146C92.7025 144.827 93.1025 143.835 93.9025 143.024C94.7132 142.213 95.6892 141.808 96.8305 141.808C98.2492 141.808 99.3265 142.395 100.062 143.568V142ZM94.6705 148.256C95.2785 148.864 96.0252 149.168 96.9105 149.168C97.7958 149.168 98.5425 148.864 99.1505 148.256C99.7585 147.637 100.062 146.885 100.062 146C100.062 145.115 99.7585 144.368 99.1505 143.76C98.5425 143.141 97.7958 142.832 96.9105 142.832C96.0252 142.832 95.2785 143.141 94.6705 143.76C94.0625 144.368 93.7585 145.115 93.7585 146C93.7585 146.885 94.0625 147.637 94.6705 148.256ZM107.082 150.192C105.877 150.192 104.874 149.792 104.074 148.992C103.274 148.181 102.874 147.184 102.874 146C102.874 144.816 103.274 143.824 104.074 143.024C104.874 142.213 105.877 141.808 107.082 141.808C107.872 141.808 108.581 142 109.21 142.384C109.84 142.757 110.298 143.264 110.586 143.904L109.722 144.4C109.509 143.92 109.162 143.541 108.682 143.264C108.213 142.976 107.68 142.832 107.082 142.832C106.197 142.832 105.45 143.141 104.842 143.76C104.234 144.368 103.93 145.115 103.93 146C103.93 146.885 104.234 147.637 104.842 148.256C105.45 148.864 106.197 149.168 107.082 149.168C107.68 149.168 108.213 149.029 108.682 148.752C109.152 148.464 109.52 148.08 109.786 147.6L110.666 148.112C110.336 148.752 109.85 149.259 109.21 149.632C108.57 150.005 107.861 150.192 107.082 150.192ZM122.887 148.992C122.076 149.792 121.084 150.192 119.911 150.192C118.737 150.192 117.74 149.792 116.919 148.992C116.108 148.181 115.703 147.184 115.703 146C115.703 144.816 116.108 143.824 116.919 143.024C117.74 142.213 118.737 141.808 119.911 141.808C121.084 141.808 122.076 142.213 122.887 143.024C123.708 143.824 124.119 144.816 124.119 146C124.119 147.184 123.708 148.181 122.887 148.992ZM117.671 148.256C118.279 148.864 119.025 149.168 119.911 149.168C120.796 149.168 121.543 148.864 122.151 148.256C122.759 147.637 123.062 146.885 123.062 146C123.062 145.115 122.759 144.368 122.151 143.76C121.543 143.141 120.796 142.832 119.911 142.832C119.025 142.832 118.279 143.141 117.671 143.76C117.063 144.368 116.759 145.115 116.759 146C116.759 146.885 117.063 147.637 117.671 148.256ZM129.614 150.192C128.408 150.192 127.406 149.792 126.606 148.992C125.806 148.181 125.406 147.184 125.406 146C125.406 144.816 125.806 143.824 126.606 143.024C127.406 142.213 128.408 141.808 129.614 141.808C130.403 141.808 131.112 142 131.742 142.384C132.371 142.757 132.83 143.264 133.118 143.904L132.254 144.4C132.04 143.92 131.694 143.541 131.214 143.264C130.744 142.976 130.211 142.832 129.614 142.832C128.728 142.832 127.982 143.141 127.374 143.76C126.766 144.368 126.462 145.115 126.462 146C126.462 146.885 126.766 147.637 127.374 148.256C127.982 148.864 128.728 149.168 129.614 149.168C130.211 149.168 130.744 149.029 131.214 148.752C131.683 148.464 132.051 148.08 132.318 147.6L133.198 148.112C132.867 148.752 132.382 149.259 131.742 149.632C131.102 150.005 130.392 150.192 129.614 150.192ZM140.318 142V143.024H137.486V150H136.43V143.024H133.598V142H140.318ZM148.172 142H149.228V150H148.172V148.432C147.436 149.605 146.359 150.192 144.94 150.192C143.799 150.192 142.823 149.787 142.012 148.976C141.212 148.165 140.812 147.173 140.812 146C140.812 144.827 141.212 143.835 142.012 143.024C142.823 142.213 143.799 141.808 144.94 141.808C146.359 141.808 147.436 142.395 148.172 143.568V142ZM142.78 148.256C143.388 148.864 144.135 149.168 145.02 149.168C145.905 149.168 146.652 148.864 147.26 148.256C147.868 147.637 148.172 146.885 148.172 146C148.172 145.115 147.868 144.368 147.26 143.76C146.652 143.141 145.905 142.832 145.02 142.832C144.135 142.832 143.388 143.141 142.78 143.76C142.172 144.368 141.868 145.115 141.868 146C141.868 146.885 142.172 147.637 142.78 148.256ZM155.16 141.808C156.344 141.808 157.298 142.229 158.024 143.072C158.76 143.904 159.128 144.891 159.128 146.032C159.128 146.149 159.117 146.315 159.096 146.528H152.072C152.178 147.339 152.52 147.984 153.096 148.464C153.682 148.933 154.402 149.168 155.256 149.168C155.864 149.168 156.386 149.045 156.824 148.8C157.272 148.544 157.608 148.213 157.832 147.808L158.76 148.352C158.408 148.917 157.928 149.365 157.32 149.696C156.712 150.027 156.018 150.192 155.24 150.192C153.981 150.192 152.957 149.797 152.168 149.008C151.378 148.219 150.984 147.216 150.984 146C150.984 144.805 151.373 143.808 152.152 143.008C152.93 142.208 153.933 141.808 155.16 141.808ZM155.16 142.832C154.328 142.832 153.629 143.083 153.064 143.584C152.509 144.075 152.178 144.715 152.072 145.504H158.04C157.933 144.661 157.608 144.005 157.064 143.536C156.52 143.067 155.885 142.832 155.16 142.832ZM166.255 142V143.024H163.423V150H162.367V143.024H159.535V142H166.255ZM170.957 150.192C169.752 150.192 168.749 149.792 167.949 148.992C167.149 148.181 166.749 147.184 166.749 146C166.749 144.816 167.149 143.824 167.949 143.024C168.749 142.213 169.752 141.808 170.957 141.808C171.747 141.808 172.456 142 173.085 142.384C173.715 142.757 174.173 143.264 174.461 143.904L173.597 144.4C173.384 143.92 173.037 143.541 172.557 143.264C172.088 142.976 171.555 142.832 170.957 142.832C170.072 142.832 169.325 143.141 168.717 143.76C168.109 144.368 167.805 145.115 167.805 146C167.805 146.885 168.109 147.637 168.717 148.256C169.325 148.864 170.072 149.168 170.957 149.168C171.555 149.168 172.088 149.029 172.557 148.752C173.027 148.464 173.395 148.08 173.661 147.6L174.541 148.112C174.211 148.752 173.725 149.259 173.085 149.632C172.445 150.005 171.736 150.192 170.957 150.192ZM181.661 142V150H180.605V146.928H179.229L176.765 150H175.421L177.949 146.896C177.309 146.8 176.781 146.533 176.365 146.096C175.949 145.659 175.741 145.12 175.741 144.48C175.741 143.755 175.997 143.163 176.509 142.704C177.032 142.235 177.667 142 178.413 142H181.661ZM178.413 145.936H180.605V143.024H178.413C177.965 143.024 177.581 143.157 177.261 143.424C176.952 143.691 176.797 144.043 176.797 144.48C176.797 144.917 176.952 145.269 177.261 145.536C177.581 145.803 177.965 145.936 178.413 145.936ZM194.605 148.992C193.795 149.792 192.803 150.192 191.629 150.192C190.456 150.192 189.459 149.792 188.637 148.992C187.827 148.181 187.421 147.184 187.421 146C187.421 144.816 187.827 143.824 188.637 143.024C189.459 142.213 190.456 141.808 191.629 141.808C192.803 141.808 193.795 142.213 194.605 143.024C195.427 143.824 195.837 144.816 195.837 146C195.837 147.184 195.427 148.181 194.605 148.992ZM189.389 148.256C189.997 148.864 190.744 149.168 191.629 149.168C192.515 149.168 193.261 148.864 193.869 148.256C194.477 147.637 194.781 146.885 194.781 146C194.781 145.115 194.477 144.368 193.869 143.76C193.261 143.141 192.515 142.832 191.629 142.832C190.744 142.832 189.997 143.141 189.389 143.76C188.781 144.368 188.477 145.115 188.477 146C188.477 146.885 188.781 147.637 189.389 148.256ZM202.632 142H203.688V150H202.632V146.96C202.013 147.28 201.251 147.44 200.344 147.44C199.299 147.44 198.499 147.2 197.944 146.72C197.4 146.229 197.128 145.509 197.128 144.56V142H198.184V144.56C198.184 145.232 198.36 145.717 198.712 146.016C199.064 146.304 199.597 146.448 200.312 146.448C201.144 146.448 201.917 146.293 202.632 145.984V142ZM209.629 141.808C210.813 141.808 211.767 142.229 212.493 143.072C213.229 143.904 213.597 144.891 213.597 146.032C213.597 146.149 213.586 146.315 213.565 146.528H206.541C206.647 147.339 206.989 147.984 207.565 148.464C208.151 148.933 208.871 149.168 209.725 149.168C210.333 149.168 210.855 149.045 211.293 148.8C211.741 148.544 212.077 148.213 212.301 147.808L213.229 148.352C212.877 148.917 212.397 149.365 211.789 149.696C211.181 150.027 210.487 150.192 209.709 150.192C208.45 150.192 207.426 149.797 206.637 149.008C205.847 148.219 205.453 147.216 205.453 146C205.453 144.805 205.842 143.808 206.621 143.008C207.399 142.208 208.402 141.808 209.629 141.808ZM209.629 142.832C208.797 142.832 208.098 143.083 207.533 143.584C206.978 144.075 206.647 144.715 206.541 145.504H212.509C212.402 144.661 212.077 144.005 211.533 143.536C210.989 143.067 210.354 142.832 209.629 142.832ZM220.94 142H221.996V150H220.94V146.512H216.332V150H215.276V142H216.332V145.488H220.94V142ZM227.477 145.04C228.224 145.04 228.853 145.275 229.365 145.744C229.888 146.203 230.149 146.795 230.149 147.52C230.149 148.245 229.888 148.843 229.365 149.312C228.853 149.771 228.224 150 227.477 150H224.229V142H225.285V145.04H227.477ZM227.477 148.976C227.925 148.976 228.304 148.843 228.613 148.576C228.933 148.309 229.093 147.957 229.093 147.52C229.093 147.083 228.933 146.731 228.613 146.464C228.304 146.197 227.925 146.064 227.477 146.064H225.285V148.976H227.477ZM31.96 164V172H30.904V165.616L28.104 170.16H27.976L25.176 165.616V172H24.12V164H25.336L28.04 168.384L30.744 164H31.96ZM41.0781 164H42.1341V172H41.0781V170.432C40.3421 171.605 39.2648 172.192 37.8461 172.192C36.7048 172.192 35.7288 171.787 34.9181 170.976C34.1181 170.165 33.7181 169.173 33.7181 168C33.7181 166.827 34.1181 165.835 34.9181 165.024C35.7288 164.213 36.7048 163.808 37.8461 163.808C39.2648 163.808 40.3421 164.395 41.0781 165.568V164ZM35.6861 170.256C36.2941 170.864 37.0408 171.168 37.9261 171.168C38.8115 171.168 39.5581 170.864 40.1661 170.256C40.7741 169.637 41.0781 168.885 41.0781 168C41.0781 167.115 40.7741 166.368 40.1661 165.76C39.5581 165.141 38.8115 164.832 37.9261 164.832C37.0408 164.832 36.2941 165.141 35.6861 165.76C35.0781 166.368 34.7741 167.115 34.7741 168C34.7741 168.885 35.0781 169.637 35.6861 170.256ZM50.93 164V172H49.874V165.024H46.258V168.592C46.258 169.925 46.002 170.843 45.49 171.344C44.9887 171.845 44.2953 172.064 43.41 172V171.008C44.018 171.072 44.466 170.928 44.754 170.576C45.0527 170.224 45.202 169.563 45.202 168.592V164H50.93ZM59.8709 170.992C59.0602 171.792 58.0682 172.192 56.8949 172.192C55.7215 172.192 54.7242 171.792 53.9029 170.992C53.0922 170.181 52.6869 169.184 52.6869 168C52.6869 166.816 53.0922 165.824 53.9029 165.024C54.7242 164.213 55.7215 163.808 56.8949 163.808C58.0682 163.808 59.0602 164.213 59.8709 165.024C60.6922 165.824 61.1029 166.816 61.1029 168C61.1029 169.184 60.6922 170.181 59.8709 170.992ZM54.6549 170.256C55.2629 170.864 56.0095 171.168 56.8949 171.168C57.7802 171.168 58.5269 170.864 59.1349 170.256C59.7429 169.637 60.0469 168.885 60.0469 168C60.0469 167.115 59.7429 166.368 59.1349 165.76C58.5269 165.141 57.7802 164.832 56.8949 164.832C56.0095 164.832 55.2629 165.141 54.6549 165.76C54.0469 166.368 53.7429 167.115 53.7429 168C53.7429 168.885 54.0469 169.637 54.6549 170.256ZM71.958 167.888C72.8327 168.208 73.27 168.832 73.27 169.76C73.27 170.411 73.0513 170.949 72.614 171.376C72.1873 171.792 71.5687 172 70.758 172H66.87V164H70.438C71.2167 164 71.8193 164.203 72.246 164.608C72.6727 165.003 72.886 165.515 72.886 166.144C72.886 166.944 72.5767 167.525 71.958 167.888ZM70.438 165.024H67.926V167.456H70.438C71.366 167.456 71.83 167.04 71.83 166.208C71.83 165.835 71.7073 165.547 71.462 165.344C71.2273 165.131 70.886 165.024 70.438 165.024ZM70.758 170.976C71.2273 170.976 71.5847 170.864 71.83 170.64C72.086 170.416 72.214 170.101 72.214 169.696C72.214 169.323 72.086 169.029 71.83 168.816C71.5847 168.592 71.2273 168.48 70.758 168.48H67.926V170.976H70.758ZM79.158 163.808C80.2993 163.808 81.27 164.213 82.07 165.024C82.8807 165.835 83.286 166.827 83.286 168C83.286 169.173 82.8807 170.165 82.07 170.976C81.27 171.787 80.2993 172.192 79.158 172.192C77.7393 172.192 76.662 171.605 75.926 170.432V175.2H74.87V164H75.926V165.568C76.662 164.395 77.7393 163.808 79.158 163.808ZM76.838 170.256C77.446 170.864 78.1927 171.168 79.078 171.168C79.9633 171.168 80.71 170.864 81.318 170.256C81.926 169.637 82.23 168.885 82.23 168C82.23 167.115 81.926 166.368 81.318 165.76C80.71 165.141 79.9633 164.832 79.078 164.832C78.1927 164.832 77.446 165.141 76.838 165.76C76.23 166.368 75.926 167.115 75.926 168C75.926 168.885 76.23 169.637 76.838 170.256ZM88.7379 163.808C89.9219 163.808 90.8765 164.229 91.6019 165.072C92.3379 165.904 92.7059 166.891 92.7059 168.032C92.7059 168.149 92.6952 168.315 92.6739 168.528H85.6499C85.7565 169.339 86.0979 169.984 86.6739 170.464C87.2605 170.933 87.9805 171.168 88.8339 171.168C89.4419 171.168 89.9645 171.045 90.4019 170.8C90.8499 170.544 91.1859 170.213 91.4099 169.808L92.3379 170.352C91.9859 170.917 91.5059 171.365 90.8979 171.696C90.2899 172.027 89.5965 172.192 88.8179 172.192C87.5592 172.192 86.5352 171.797 85.7459 171.008C84.9565 170.219 84.5619 169.216 84.5619 168C84.5619 166.805 84.9512 165.808 85.7299 165.008C86.5085 164.208 87.5112 163.808 88.7379 163.808ZM88.7379 164.832C87.9059 164.832 87.2072 165.083 86.6419 165.584C86.0872 166.075 85.7565 166.715 85.6499 167.504H91.6179C91.5112 166.661 91.1859 166.005 90.6419 165.536C90.0979 165.067 89.4632 164.832 88.7379 164.832ZM102.226 164V172H101.17V165.616L98.3696 170.16H98.2416L95.4416 165.616V172H94.3856V164H95.6016L98.3056 168.384L101.01 164H102.226ZM108.16 163.808C109.344 163.808 110.298 164.229 111.024 165.072C111.76 165.904 112.128 166.891 112.128 168.032C112.128 168.149 112.117 168.315 112.096 168.528H105.072C105.178 169.339 105.52 169.984 106.096 170.464C106.682 170.933 107.402 171.168 108.256 171.168C108.864 171.168 109.386 171.045 109.824 170.8C110.272 170.544 110.608 170.213 110.832 169.808L111.76 170.352C111.408 170.917 110.928 171.365 110.32 171.696C109.712 172.027 109.018 172.192 108.24 172.192C106.981 172.192 105.957 171.797 105.168 171.008C104.378 170.219 103.984 169.216 103.984 168C103.984 166.805 104.373 165.808 105.152 165.008C105.93 164.208 106.933 163.808 108.16 163.808ZM108.16 164.832C107.328 164.832 106.629 165.083 106.064 165.584C105.509 166.075 105.178 166.715 105.072 167.504H111.04C110.933 166.661 110.608 166.005 110.064 165.536C109.52 165.067 108.885 164.832 108.16 164.832ZM119.472 164H120.528V172H119.472V168.512H114.864V172H113.808V164H114.864V167.488H119.472V164ZM128.585 164H129.481V172H128.425V165.84L123.657 172H122.761V164H123.817V170.16L128.585 164ZM132.034 168.96L131.794 164V160.8H133.074V164L132.834 168.96H132.034ZM133.058 171.904C132.887 172.075 132.679 172.16 132.434 172.16C132.188 172.16 131.98 172.075 131.81 171.904C131.639 171.733 131.554 171.525 131.554 171.28C131.554 171.035 131.639 170.827 131.81 170.656C131.98 170.485 132.188 170.4 132.434 170.4C132.679 170.4 132.887 170.485 133.058 170.656C133.228 170.827 133.314 171.035 133.314 171.28C133.314 171.525 133.228 171.733 133.058 171.904Z" fill="white"/>
<g filter="url(#filter0_d)">
<path d="M37.184 46.504C33.416 46.504 30.284 45.256 27.788 42.76C25.316 40.24 24.08 37.12 24.08 33.4C24.08 29.68 25.316 26.572 27.788 24.076C30.284 21.556 33.416 20.296 37.184 20.296C39.44 20.296 41.528 20.824 43.448 21.88C45.368 22.912 46.88 24.328 47.984 26.128L43.016 29.008C42.464 28.024 41.672 27.268 40.64 26.74C39.608 26.188 38.456 25.912 37.184 25.912C34.952 25.912 33.164 26.596 31.82 27.964C30.5 29.332 29.84 31.144 29.84 33.4C29.84 35.656 30.5 37.468 31.82 38.836C33.164 40.204 34.952 40.888 37.184 40.888C38.456 40.888 39.608 40.612 40.64 40.06C41.696 39.508 42.488 38.752 43.016 37.792L47.984 40.672C46.904 42.472 45.404 43.9 43.484 44.956C41.564 45.988 39.464 46.504 37.184 46.504ZM71.6439 42.724C69.0999 45.244 66.0039 46.504 62.3559 46.504C58.7079 46.504 55.6119 45.244 53.0679 42.724C50.5239 40.204 49.2519 37.096 49.2519 33.4C49.2519 29.704 50.5239 26.596 53.0679 24.076C55.6119 21.556 58.7079 20.296 62.3559 20.296C66.0039 20.296 69.0999 21.556 71.6439 24.076C74.1879 26.596 75.4599 29.704 75.4599 33.4C75.4599 37.096 74.1879 40.204 71.6439 42.724ZM57.0999 38.8C58.5159 40.192 60.2679 40.888 62.3559 40.888C64.4439 40.888 66.1839 40.192 67.5759 38.8C68.9919 37.408 69.6999 35.608 69.6999 33.4C69.6999 31.192 68.9919 29.392 67.5759 28C66.1839 26.608 64.4439 25.912 62.3559 25.912C60.2679 25.912 58.5159 26.608 57.0999 28C55.7079 29.392 55.0119 31.192 55.0119 33.4C55.0119 35.608 55.7079 37.408 57.0999 38.8ZM88.423 30.16C91.015 30.16 93.103 30.892 94.687 32.356C96.271 33.796 97.063 35.704 97.063 38.08C97.063 40.456 96.271 42.376 94.687 43.84C93.103 45.28 91.015 46 88.423 46H78.703V20.8L94.903 20.8V26.344L84.463 26.344V30.16H88.423ZM88.423 40.6C90.343 40.6 91.303 39.76 91.303 38.08C91.303 36.4 90.343 35.56 88.423 35.56H84.463V40.6H88.423ZM105.522 40.456H115.602V46H99.7616V20.8H115.422V26.344H105.522V30.52H114.522V35.992H105.522V40.456ZM128.391 20.8C130.863 20.8 132.951 21.64 134.655 23.32C136.359 25 137.211 27.04 137.211 29.44C137.211 31.84 136.359 33.88 134.655 35.56C132.951 37.24 130.863 38.08 128.391 38.08H124.611V46H118.851V20.8L128.391 20.8ZM128.391 32.68C129.279 32.68 130.011 32.368 130.587 31.744C131.163 31.12 131.451 30.352 131.451 29.44C131.451 28.528 131.163 27.76 130.587 27.136C130.011 26.512 129.279 26.2 128.391 26.2L124.611 26.2V32.68H128.391ZM154.126 46V32.32L144.406 46H140.086V20.8L145.846 20.8V34.48L155.566 20.8H159.886V46H154.126ZM181.123 20.8V26.344H174.643V46H168.883V26.344H162.403V20.8L181.123 20.8ZM189.404 40.456H199.484V46H183.644V20.8L199.304 20.8V26.344H189.404V30.52H198.404V35.992H189.404V40.456ZM39.848 68.932C41.072 69.46 42.044 70.264 42.764 71.344C43.508 72.4 43.88 73.612 43.88 74.98C43.88 76.924 43.196 78.58 41.828 79.948C40.46 81.316 38.804 82 36.86 82H25.88L25.88 56.8H36.032C37.904 56.8 39.5 57.472 40.82 58.816C42.14 60.136 42.8 61.72 42.8 63.568C42.8 65.92 41.816 67.708 39.848 68.932ZM36.032 59.176H28.4V67.96H36.032C37.208 67.96 38.204 67.54 39.02 66.7C39.86 65.836 40.28 64.792 40.28 63.568C40.28 62.368 39.86 61.336 39.02 60.472C38.204 59.608 37.208 59.176 36.032 59.176ZM36.86 79.624C38.108 79.624 39.164 79.18 40.028 78.292C40.916 77.38 41.36 76.276 41.36 74.98C41.36 73.708 40.916 72.616 40.028 71.704C39.164 70.792 38.108 70.336 36.86 70.336H28.4L28.4 79.624H36.86ZM50.7242 79.624H62.9642V82H48.2042L48.2042 56.8H62.7842V59.176H50.7242V68.104H61.8842V70.48H50.7242L50.7242 79.624ZM95.7341 79.624H98.4341V86.824H95.9141V82H67.2941V56.8H69.8141V79.624H80.2541V56.8H82.7741V79.624L93.2141 79.624L93.2141 56.8H95.7341L95.7341 79.624ZM118.791 82V61.48L104.751 82H102.591L102.591 56.8H105.111L105.111 77.32L119.151 56.8H121.311L121.311 82H118.791Z" fill="white"/>
</g>
<defs>
<filter id="filter0_d" x="0.0800171" y="0.295898" width="223.404" height="114.528" filterUnits="userSpaceOnUse" color-interpolation-filters="sRGB">
<feFlood flood-opacity="0" result="BackgroundImageFix"/>
<feColorMatrix in="SourceAlpha" type="matrix" values="0 0 0 0 0 0 0 0 0 0 0 0 0 0 0 0 0 0 127 0" result="hardAlpha"/>
<feOffset dy="4"/>
<feGaussianBlur stdDeviation="12"/>
<feColorMatrix type="matrix" values="0 0 0 0 1 0 0 0 0 1 0 0 0 0 1 0 0 0 0.25 0"/>
<feBlend mode="normal" in2="BackgroundImageFix" result="effect1_dropShadow"/>
<feBlend mode="normal" in="SourceGraphic" in2="effect1_dropShadow" result="shape"/>
</filter>
</defs>
</svg>
