<svg width="32" height="32" viewBox="0 0 32 32" fill="none" xmlns="http://www.w3.org/2000/svg">
<g clip-path="url(#clip0)">
<mask id="path-1-outside-1" maskUnits="userSpaceOnUse" x="-5.18277" y="-5.2259" width="42.4264" height="42.4264" fill="black">
<rect fill="white" x="-5.18277" y="-5.2259" width="42.4264" height="42.4264"/>
<path d="M7.17838 7.13526C6.8099 7.50374 6.46906 7.88957 6.15594 8.29031C6.1129 8.3454 6.0873 8.41207 6.08245 8.48171C6.07759 8.55136 6.0937 8.6208 6.12869 8.68109L8.9239 13.4966C9.35434 14.2381 9.1713 15.3835 8.53063 15.957L4.30914 19.7355C4.25753 19.7817 4.22074 19.8421 4.20342 19.9091C4.18609 19.9761 4.18903 20.0467 4.21184 20.1119C4.54153 21.0541 4.98791 21.9644 5.55073 22.8199C5.58941 22.8787 5.64499 22.9244 5.71019 22.9509C5.77538 22.9775 5.84713 22.9837 5.91604 22.9687L11.4806 21.7596C12.3201 21.5773 13.3523 22.102 13.6979 22.8868L16.0401 28.207C16.0681 28.2706 16.1146 28.3244 16.1735 28.3614C16.2324 28.3984 16.301 28.4169 16.3707 28.4146C17.3503 28.3818 18.3271 28.2344 19.2794 27.9724C19.3474 27.9536 19.4083 27.9147 19.4539 27.8608C19.4996 27.8069 19.5279 27.7405 19.5351 27.6703L20.1368 21.8572C20.2252 21.003 21.0461 20.182 21.9003 20.0936L27.7134 19.492C27.7836 19.4848 27.85 19.4564 27.9039 19.4108C27.9578 19.3651 27.9967 19.3043 28.0155 19.2362C28.2775 18.284 28.4249 17.3072 28.4577 16.3275C28.46 16.2579 28.4415 16.1893 28.4045 16.1304C28.3675 16.0715 28.3138 16.025 28.2501 15.997L22.9299 13.6548C22.1451 13.3092 21.6204 12.2769 21.8027 11.4375L23.0118 5.87292C23.0268 5.80401 23.0206 5.73226 22.994 5.66706C22.9675 5.60187 22.9218 5.54629 22.863 5.5076C22.0076 4.94479 21.0972 4.49841 20.155 4.16872C20.0898 4.1459 20.0193 4.14297 19.9523 4.16029C19.8853 4.17761 19.8248 4.21441 19.7786 4.26601L16.0001 8.4875C15.4266 9.12818 14.2812 9.31122 13.5397 8.88078L8.72421 6.08557C8.66393 6.05058 8.59448 6.03447 8.52484 6.03933C8.45519 6.04418 8.38853 6.06978 8.33344 6.11281C7.93269 6.42593 7.54686 6.76678 7.17838 7.13526ZM7.67183 7.62871C7.96383 7.33671 8.26956 7.06758 8.58294 6.81263L13.1874 9.48557C14.2489 10.1018 15.6993 9.86988 16.5202 8.95273L20.1377 4.91122C20.8774 5.18653 21.594 5.53879 22.2763 5.96807L21.1198 11.291C20.8587 12.4927 21.5231 13.7998 22.6466 14.2945L27.7444 16.5389C27.7036 17.3073 27.5881 18.072 27.3978 18.8223L21.8305 19.3984C20.6077 19.5249 19.568 20.5646 19.4415 21.7874L18.8654 27.3546C18.1151 27.545 17.3504 27.6605 16.582 27.7013L14.3376 22.6035C13.8429 21.48 12.536 20.8155 11.3342 21.0765L6.01118 22.2332C5.58191 21.5509 5.22965 20.8343 4.95434 20.0946L8.99585 16.4771C9.91299 15.6562 10.1449 14.2058 9.52869 13.1443L6.85575 8.53982C7.1107 8.22644 7.37983 7.9207 7.67183 7.62871Z"/>
<path fill-rule="evenodd" clip-rule="evenodd" d="M25.8995 6.05735C26.5676 6.7245 27.1659 7.45847 27.6856 8.24643C28.1905 9.01168 28.6178 9.82598 28.9609 10.676C29.6344 12.3464 29.9791 14.1324 29.9753 15.9353C29.9735 17.7382 29.6234 19.5253 28.9447 21.1978C28.5989 22.0489 28.1692 22.8645 27.6619 23.6313C27.1398 24.4209 26.5392 25.1567 25.869 25.8259C25.1998 26.4961 24.464 27.0967 23.6744 27.6188C22.9076 28.1261 22.092 28.5558 21.2409 28.9016C19.5684 29.5802 17.7813 29.9304 15.9784 29.9322C14.1756 29.936 12.3895 29.5913 10.7191 28.9178C9.86911 28.5746 9.05481 28.1474 8.28956 27.6425C7.5016 27.1228 6.76763 26.5245 6.10048 25.8563C5.43235 25.1892 4.83449 24.4557 4.31431 23.6673C3.80942 22.902 3.38219 22.0877 3.03904 21.2377C2.36553 19.5673 2.02085 17.7813 2.02462 15.9784C2.02641 14.1755 2.37659 12.3884 3.05525 10.7159C3.40103 9.86483 3.83077 9.04922 4.33802 8.28241C4.86014 7.49284 5.46075 6.75702 6.13094 6.08781C6.80015 5.41762 7.53597 4.81701 8.32554 4.29489C9.09235 3.78764 9.90796 3.3579 10.759 3.01212C12.4315 2.33346 14.2186 1.98328 16.0215 1.98149C17.8244 1.97772 19.6104 2.3224 21.2808 2.99591C22.1308 3.33906 22.9451 3.76629 23.7104 4.27119C24.4984 4.79087 25.2323 5.38922 25.8995 6.05735ZM25.4045 6.55233C26.0396 7.18641 26.6078 7.88336 27.1024 8.63232C27.5811 9.35956 27.9867 10.1324 28.3126 10.9394C28.9531 12.5263 29.2801 14.2234 29.2765 15.9364C29.2749 17.6493 28.9426 19.3475 28.2972 20.9364C27.9688 21.7444 27.5608 22.5185 27.0798 23.2472C26.583 23.9977 26.0126 24.6964 25.3756 25.3324C24.7395 25.9695 24.0408 26.5399 23.2903 27.0367C22.5616 27.5177 21.7875 27.9256 20.9795 28.2541C19.3906 28.8995 17.6925 29.2317 15.9795 29.2334C14.2666 29.237 12.5695 28.91 10.9825 28.2695C10.1755 27.9435 9.40269 27.538 8.67545 27.0592C7.92649 26.5647 7.22954 25.9964 6.59546 25.3614C5.96038 24.7273 5.39213 24.0303 4.89759 23.2814C4.41883 22.5541 4.01328 21.7813 3.68736 20.9743C3.04683 19.3874 2.71981 17.6902 2.72343 15.9773C2.72508 14.2644 3.05734 12.5662 3.70276 10.9773C4.03117 10.1693 4.4391 9.39521 4.9201 8.6665C5.41696 7.91601 5.98736 7.21731 6.62439 6.58126C7.26044 5.94423 7.95914 5.37382 8.70963 4.87697C9.43835 4.39597 10.2124 3.98804 11.0205 3.65963C12.6094 3.01421 14.3075 2.68196 16.0204 2.6803C17.7334 2.67668 19.4305 3.0037 21.0174 3.64423C21.8244 3.97015 22.5973 4.3757 23.3245 4.85445C24.0735 5.349 24.7704 5.91725 25.4045 6.55233Z"/>
<path fill-rule="evenodd" clip-rule="evenodd" d="M24.8254 7.10777C26.0038 8.28415 26.9337 9.68727 27.559 11.2312C28.1601 12.7223 28.468 14.3162 28.4646 15.9263C28.4631 17.5355 28.1508 19.1308 27.5445 20.6242C26.9145 22.1701 25.9807 23.5756 24.7987 24.7556C23.6187 25.9376 22.2132 26.8714 20.6673 27.5014C19.1739 28.1076 17.5786 28.42 15.9694 28.4215C14.3593 28.4249 12.7654 28.117 11.2743 27.5159C9.73039 26.8906 8.32777 25.9612 7.15138 24.7828C5.97252 23.6059 5.04359 22.2038 4.41831 20.6599C3.81669 19.1683 3.50878 17.5744 3.51224 15.9643C3.51374 14.3551 3.82606 12.7598 4.43279 11.2668C5.06232 9.72048 5.99638 8.31528 7.17838 7.13526C8.3584 5.95326 9.76359 5.01921 11.31 4.38967C12.8029 3.78295 14.3982 3.47062 16.0074 3.46913C17.6175 3.46566 19.2114 3.77357 20.703 4.3752C22.2469 5.00047 23.6486 5.92891 24.8254 7.10777ZM24.3305 7.60274C25.4427 8.713 26.3204 10.0371 26.9107 11.4946C27.4783 12.9028 27.7686 14.4077 27.7658 15.9274C27.7644 17.4466 27.469 18.9529 26.897 20.3628C26.3022 21.8221 25.421 23.1485 24.3053 24.2622C23.1916 25.3778 21.8653 26.2591 20.4059 26.8539C18.996 27.4259 17.4897 27.7213 15.9705 27.7226C14.4508 27.7255 12.9459 27.4352 11.5378 26.8676C10.0802 26.2772 8.75662 25.4001 7.64635 24.2878C6.53362 23.1771 5.65645 21.8535 5.06614 20.3959C4.49848 18.9878 4.20823 17.4829 4.21106 15.9632C4.21242 14.444 4.5078 12.9377 5.0803 11.5283C5.67461 10.0684 6.55616 8.7424 7.67183 7.62871C8.78553 6.51304 10.1116 5.63149 11.5714 5.03718C12.9808 4.46469 14.4871 4.1693 16.0063 4.16794C17.526 4.16511 19.0309 4.45536 20.4391 5.02302C21.8966 5.61333 23.2202 6.4905 24.3305 7.60274Z"/>
<path fill-rule="evenodd" clip-rule="evenodd" d="M12.1604 13.4201C11.9882 13.2478 11.8912 13.0142 11.8916 12.7701C11.8919 12.5259 11.9892 12.2915 12.1619 12.1188C12.3347 11.946 12.5691 11.8488 12.8132 11.8484C13.0574 11.8481 13.291 11.9451 13.4632 12.1173C13.6354 12.2895 13.7324 12.5231 13.732 12.7673C13.7312 13.0109 13.6339 13.2453 13.4612 13.4181C13.2884 13.5908 13.054 13.688 12.8104 13.6889C12.5662 13.6893 12.3326 13.5923 12.1604 13.4201ZM12.6554 12.9251C12.6139 12.8836 12.5903 12.8273 12.5904 12.769C12.591 12.7102 12.6138 12.6538 12.6554 12.6122C12.6969 12.5707 12.7533 12.5478 12.8121 12.5473C12.8705 12.5472 12.9268 12.5708 12.9682 12.6123C13.0097 12.6537 13.0328 12.7095 13.0332 12.7683C13.0326 12.8271 13.0093 12.883 12.9677 12.9246C12.9261 12.9662 12.8703 12.9895 12.8115 12.9901C12.7526 12.9897 12.6968 12.9665 12.6554 12.9251Z"/>
<path fill-rule="evenodd" clip-rule="evenodd" d="M18.4909 19.7506C18.3187 19.5784 18.2217 19.3448 18.2221 19.1006C18.2225 18.8565 18.3197 18.6221 18.4925 18.4493C18.6652 18.2766 18.8996 18.1794 19.1437 18.179C19.3879 18.1786 19.6215 18.2756 19.7937 18.4478C19.9659 18.62 20.0629 18.8536 20.0626 19.0978C20.0617 19.3414 19.9645 19.5758 19.7917 19.7486C19.619 19.9213 19.3846 20.0186 19.1409 20.0194C18.8968 20.0198 18.6632 19.9228 18.4909 19.7506ZM18.9859 19.2556C18.9445 19.2142 18.9208 19.1579 18.9209 19.0995C18.9215 19.0407 18.9443 18.9844 18.9859 18.9428C19.0275 18.9012 19.0839 18.8784 19.1427 18.8778C19.201 18.8777 19.2573 18.9013 19.2987 18.9428C19.3402 18.9842 19.3633 19.0401 19.3637 19.0989C19.3632 19.1577 19.3398 19.2136 19.2983 19.2551C19.2567 19.2967 19.2008 19.32 19.142 19.3206C19.0832 19.3202 19.0274 19.2971 18.9859 19.2556Z"/>
<path fill-rule="evenodd" clip-rule="evenodd" d="M16.4148 11.3774C16.459 11.2335 16.5378 11.1024 16.6442 10.996C16.8848 10.7545 17.2393 10.6655 17.5648 10.7643C17.7086 10.8081 17.8389 10.8859 17.9455 10.9925C18.1853 11.2324 18.2732 11.5866 18.1739 11.9119C18.1297 12.0558 18.0509 12.1869 17.9445 12.2933C17.7044 12.5344 17.3494 12.6239 17.0239 12.525C16.8802 12.4813 16.7493 12.4029 16.6432 12.2968C16.4034 12.057 16.315 11.7023 16.4148 11.3774ZM17.0827 11.58C17.0936 11.5454 17.1129 11.5142 17.1382 11.489C17.1956 11.4306 17.2811 11.4092 17.3597 11.4333C17.3938 11.4436 17.4254 11.4623 17.4505 11.4875C17.5083 11.5452 17.5294 11.6307 17.5055 11.7088C17.4951 11.7439 17.4763 11.7746 17.4505 11.8003C17.3926 11.8583 17.3076 11.8801 17.229 11.856C17.195 11.8457 17.1634 11.827 17.1382 11.8018C17.08 11.7436 17.0588 11.6581 17.0827 11.58Z"/>
<path fill-rule="evenodd" clip-rule="evenodd" d="M13.7803 19.956C13.824 19.8117 13.9028 19.6806 14.0092 19.5742C14.2498 19.3336 14.6048 19.2441 14.9298 19.3424C15.0735 19.3862 15.2044 19.4646 15.3105 19.5707C15.5508 19.811 15.6387 20.1652 15.5394 20.4905C15.4952 20.6344 15.4164 20.7655 15.31 20.8719C15.0689 21.113 14.7144 21.202 14.3894 21.1037C14.2456 21.0599 14.1148 20.9815 14.0087 20.8754C13.7689 20.6356 13.6805 20.2809 13.7803 19.956ZM14.4482 20.1586C14.4591 20.124 14.4774 20.0929 14.5032 20.0671C14.5611 20.0092 14.6466 19.9878 14.7252 20.0119C14.7592 20.0222 14.7908 20.041 14.816 20.0661C14.8737 20.1239 14.8949 20.2093 14.871 20.2875C14.8601 20.3221 14.8413 20.3537 14.816 20.379C14.7581 20.4369 14.6726 20.4583 14.5945 20.4347C14.5604 20.4243 14.5288 20.4056 14.5032 20.3799C14.4454 20.3222 14.4243 20.2367 14.4482 20.1586Z"/>
<path fill-rule="evenodd" clip-rule="evenodd" d="M12.5681 16.9808C12.667 17.3063 12.5775 17.6613 12.3364 17.9014C12.23 18.0078 12.0989 18.0866 11.955 18.1308C11.6297 18.2301 11.2755 18.1422 11.0357 17.9024C10.9291 17.7958 10.8512 17.6654 10.8074 17.5217C10.7086 17.1962 10.7976 16.8417 11.0391 16.6011C11.1456 16.4947 11.2767 16.4159 11.4205 16.3717C11.7454 16.2719 12.1001 16.3603 12.3399 16.6001C12.446 16.7062 12.5244 16.837 12.5681 16.9808ZM11.8992 17.1859C11.9233 17.2645 11.9014 17.3495 11.8435 17.4074C11.8177 17.4332 11.7871 17.452 11.752 17.4624C11.6738 17.4863 11.5884 17.4651 11.5306 17.4074C11.5055 17.3822 11.4867 17.3506 11.4764 17.3166C11.4523 17.238 11.4737 17.1525 11.5321 17.0951C11.5573 17.0698 11.5885 17.0505 11.6231 17.0396C11.7012 17.0157 11.7867 17.0368 11.8449 17.0951C11.8701 17.1202 11.8888 17.1518 11.8992 17.1859Z"/>
<path fill-rule="evenodd" clip-rule="evenodd" d="M21.1468 14.3463C21.2451 14.6713 21.1561 15.0258 20.9151 15.2668C20.8086 15.3733 20.6775 15.452 20.5337 15.4962C20.2083 15.5956 19.8541 15.5077 19.6138 15.2674C19.5077 15.1613 19.4293 15.0304 19.3856 14.8867C19.2872 14.5616 19.3767 14.2067 19.6173 13.9661C19.7237 13.8597 19.8548 13.7809 19.9992 13.7372C20.324 13.6373 20.6787 13.7258 20.9185 13.9656C21.0246 14.0717 21.103 14.2025 21.1468 14.3463ZM20.4778 14.5514C20.5014 14.6295 20.48 14.715 20.4221 14.7729C20.3969 14.7981 20.3652 14.817 20.3306 14.8279C20.2525 14.8517 20.167 14.8306 20.1093 14.7729C20.0841 14.7477 20.0654 14.7161 20.055 14.682C20.0309 14.6035 20.0523 14.518 20.1102 14.46C20.136 14.4343 20.1671 14.416 20.2018 14.405C20.2799 14.3812 20.3653 14.4023 20.4231 14.4601C20.4487 14.4857 20.4675 14.5173 20.4778 14.5514Z"/>
</mask>
<path d="M7.17838 7.13526C6.8099 7.50374 6.46906 7.88957 6.15594 8.29031C6.1129 8.3454 6.0873 8.41207 6.08245 8.48171C6.07759 8.55136 6.0937 8.6208 6.12869 8.68109L8.9239 13.4966C9.35434 14.2381 9.1713 15.3835 8.53063 15.957L4.30914 19.7355C4.25753 19.7817 4.22074 19.8421 4.20342 19.9091C4.18609 19.9761 4.18903 20.0467 4.21184 20.1119C4.54153 21.0541 4.98791 21.9644 5.55073 22.8199C5.58941 22.8787 5.64499 22.9244 5.71019 22.9509C5.77538 22.9775 5.84713 22.9837 5.91604 22.9687L11.4806 21.7596C12.3201 21.5773 13.3523 22.102 13.6979 22.8868L16.0401 28.207C16.0681 28.2706 16.1146 28.3244 16.1735 28.3614C16.2324 28.3984 16.301 28.4169 16.3707 28.4146C17.3503 28.3818 18.3271 28.2344 19.2794 27.9724C19.3474 27.9536 19.4083 27.9147 19.4539 27.8608C19.4996 27.8069 19.5279 27.7405 19.5351 27.6703L20.1368 21.8572C20.2252 21.003 21.0461 20.182 21.9003 20.0936L27.7134 19.492C27.7836 19.4848 27.85 19.4564 27.9039 19.4108C27.9578 19.3651 27.9967 19.3043 28.0155 19.2362C28.2775 18.284 28.4249 17.3072 28.4577 16.3275C28.46 16.2579 28.4415 16.1893 28.4045 16.1304C28.3675 16.0715 28.3138 16.025 28.2501 15.997L22.9299 13.6548C22.1451 13.3092 21.6204 12.2769 21.8027 11.4375L23.0118 5.87292C23.0268 5.80401 23.0206 5.73226 22.994 5.66706C22.9675 5.60187 22.9218 5.54629 22.863 5.5076C22.0076 4.94479 21.0972 4.49841 20.155 4.16872C20.0898 4.1459 20.0193 4.14297 19.9523 4.16029C19.8853 4.17761 19.8248 4.21441 19.7786 4.26601L16.0001 8.4875C15.4266 9.12818 14.2812 9.31122 13.5397 8.88078L8.72421 6.08557C8.66393 6.05058 8.59448 6.03447 8.52484 6.03933C8.45519 6.04418 8.38853 6.06978 8.33344 6.11281C7.93269 6.42593 7.54686 6.76678 7.17838 7.13526ZM7.67183 7.62871C7.96383 7.33671 8.26956 7.06758 8.58294 6.81263L13.1874 9.48557C14.2489 10.1018 15.6993 9.86988 16.5202 8.95273L20.1377 4.91122C20.8774 5.18653 21.594 5.53879 22.2763 5.96807L21.1198 11.291C20.8587 12.4927 21.5231 13.7998 22.6466 14.2945L27.7444 16.5389C27.7036 17.3073 27.5881 18.072 27.3978 18.8223L21.8305 19.3984C20.6077 19.5249 19.568 20.5646 19.4415 21.7874L18.8654 27.3546C18.1151 27.545 17.3504 27.6605 16.582 27.7013L14.3376 22.6035C13.8429 21.48 12.536 20.8155 11.3342 21.0765L6.01118 22.2332C5.58191 21.5509 5.22965 20.8343 4.95434 20.0946L8.99585 16.4771C9.91299 15.6562 10.1449 14.2058 9.52869 13.1443L6.85575 8.53982C7.1107 8.22644 7.37983 7.9207 7.67183 7.62871Z" fill="white"/>
<path fill-rule="evenodd" clip-rule="evenodd" d="M25.8995 6.05735C26.5676 6.7245 27.1659 7.45847 27.6856 8.24643C28.1905 9.01168 28.6178 9.82598 28.9609 10.676C29.6344 12.3464 29.9791 14.1324 29.9753 15.9353C29.9735 17.7382 29.6234 19.5253 28.9447 21.1978C28.5989 22.0489 28.1692 22.8645 27.6619 23.6313C27.1398 24.4209 26.5392 25.1567 25.869 25.8259C25.1998 26.4961 24.464 27.0967 23.6744 27.6188C22.9076 28.1261 22.092 28.5558 21.2409 28.9016C19.5684 29.5802 17.7813 29.9304 15.9784 29.9322C14.1756 29.936 12.3895 29.5913 10.7191 28.9178C9.86911 28.5746 9.05481 28.1474 8.28956 27.6425C7.5016 27.1228 6.76763 26.5245 6.10048 25.8563C5.43235 25.1892 4.83449 24.4557 4.31431 23.6673C3.80942 22.902 3.38219 22.0877 3.03904 21.2377C2.36553 19.5673 2.02085 17.7813 2.02462 15.9784C2.02641 14.1755 2.37659 12.3884 3.05525 10.7159C3.40103 9.86483 3.83077 9.04922 4.33802 8.28241C4.86014 7.49284 5.46075 6.75702 6.13094 6.08781C6.80015 5.41762 7.53597 4.81701 8.32554 4.29489C9.09235 3.78764 9.90796 3.3579 10.759 3.01212C12.4315 2.33346 14.2186 1.98328 16.0215 1.98149C17.8244 1.97772 19.6104 2.3224 21.2808 2.99591C22.1308 3.33906 22.9451 3.76629 23.7104 4.27119C24.4984 4.79087 25.2323 5.38922 25.8995 6.05735ZM25.4045 6.55233C26.0396 7.18641 26.6078 7.88336 27.1024 8.63232C27.5811 9.35956 27.9867 10.1324 28.3126 10.9394C28.9531 12.5263 29.2801 14.2234 29.2765 15.9364C29.2749 17.6493 28.9426 19.3475 28.2972 20.9364C27.9688 21.7444 27.5608 22.5185 27.0798 23.2472C26.583 23.9977 26.0126 24.6964 25.3756 25.3324C24.7395 25.9695 24.0408 26.5399 23.2903 27.0367C22.5616 27.5177 21.7875 27.9256 20.9795 28.2541C19.3906 28.8995 17.6925 29.2317 15.9795 29.2334C14.2666 29.237 12.5695 28.91 10.9825 28.2695C10.1755 27.9435 9.40269 27.538 8.67545 27.0592C7.92649 26.5647 7.22954 25.9964 6.59546 25.3614C5.96038 24.7273 5.39213 24.0303 4.89759 23.2814C4.41883 22.5541 4.01328 21.7813 3.68736 20.9743C3.04683 19.3874 2.71981 17.6902 2.72343 15.9773C2.72508 14.2644 3.05734 12.5662 3.70276 10.9773C4.03117 10.1693 4.4391 9.39521 4.9201 8.6665C5.41696 7.91601 5.98736 7.21731 6.62439 6.58126C7.26044 5.94423 7.95914 5.37382 8.70963 4.87697C9.43835 4.39597 10.2124 3.98804 11.0205 3.65963C12.6094 3.01421 14.3075 2.68196 16.0204 2.6803C17.7334 2.67668 19.4305 3.0037 21.0174 3.64423C21.8244 3.97015 22.5973 4.3757 23.3245 4.85445C24.0735 5.349 24.7704 5.91725 25.4045 6.55233Z" fill="white"/>
<path fill-rule="evenodd" clip-rule="evenodd" d="M24.8254 7.10777C26.0038 8.28415 26.9337 9.68727 27.559 11.2312C28.1601 12.7223 28.468 14.3162 28.4646 15.9263C28.4631 17.5355 28.1508 19.1308 27.5445 20.6242C26.9145 22.1701 25.9807 23.5756 24.7987 24.7556C23.6187 25.9376 22.2132 26.8714 20.6673 27.5014C19.1739 28.1076 17.5786 28.42 15.9694 28.4215C14.3593 28.4249 12.7654 28.117 11.2743 27.5159C9.73039 26.8906 8.32777 25.9612 7.15138 24.7828C5.97252 23.6059 5.04359 22.2038 4.41831 20.6599C3.81669 19.1683 3.50878 17.5744 3.51224 15.9643C3.51374 14.3551 3.82606 12.7598 4.43279 11.2668C5.06232 9.72048 5.99638 8.31528 7.17838 7.13526C8.3584 5.95326 9.76359 5.01921 11.31 4.38967C12.8029 3.78295 14.3982 3.47062 16.0074 3.46913C17.6175 3.46566 19.2114 3.77357 20.703 4.3752C22.2469 5.00047 23.6486 5.92891 24.8254 7.10777ZM24.3305 7.60274C25.4427 8.713 26.3204 10.0371 26.9107 11.4946C27.4783 12.9028 27.7686 14.4077 27.7658 15.9274C27.7644 17.4466 27.469 18.9529 26.897 20.3628C26.3022 21.8221 25.421 23.1485 24.3053 24.2622C23.1916 25.3778 21.8653 26.2591 20.4059 26.8539C18.996 27.4259 17.4897 27.7213 15.9705 27.7226C14.4508 27.7255 12.9459 27.4352 11.5378 26.8676C10.0802 26.2772 8.75662 25.4001 7.64635 24.2878C6.53362 23.1771 5.65645 21.8535 5.06614 20.3959C4.49848 18.9878 4.20823 17.4829 4.21106 15.9632C4.21242 14.444 4.5078 12.9377 5.0803 11.5283C5.67461 10.0684 6.55616 8.7424 7.67183 7.62871C8.78553 6.51304 10.1116 5.63149 11.5714 5.03718C12.9808 4.46469 14.4871 4.1693 16.0063 4.16794C17.526 4.16511 19.0309 4.45536 20.4391 5.02302C21.8966 5.61333 23.2202 6.4905 24.3305 7.60274Z" fill="white"/>
<path fill-rule="evenodd" clip-rule="evenodd" d="M12.1604 13.4201C11.9882 13.2478 11.8912 13.0142 11.8916 12.7701C11.8919 12.5259 11.9892 12.2915 12.1619 12.1188C12.3347 11.946 12.5691 11.8488 12.8132 11.8484C13.0574 11.8481 13.291 11.9451 13.4632 12.1173C13.6354 12.2895 13.7324 12.5231 13.732 12.7673C13.7312 13.0109 13.6339 13.2453 13.4612 13.4181C13.2884 13.5908 13.054 13.688 12.8104 13.6889C12.5662 13.6893 12.3326 13.5923 12.1604 13.4201ZM12.6554 12.9251C12.6139 12.8836 12.5903 12.8273 12.5904 12.769C12.591 12.7102 12.6138 12.6538 12.6554 12.6122C12.6969 12.5707 12.7533 12.5478 12.8121 12.5473C12.8705 12.5472 12.9268 12.5708 12.9682 12.6123C13.0097 12.6537 13.0328 12.7095 13.0332 12.7683C13.0326 12.8271 13.0093 12.883 12.9677 12.9246C12.9261 12.9662 12.8703 12.9895 12.8115 12.9901C12.7526 12.9897 12.6968 12.9665 12.6554 12.9251Z" fill="white"/>
<path fill-rule="evenodd" clip-rule="evenodd" d="M18.4909 19.7506C18.3187 19.5784 18.2217 19.3448 18.2221 19.1006C18.2225 18.8565 18.3197 18.6221 18.4925 18.4493C18.6652 18.2766 18.8996 18.1794 19.1437 18.179C19.3879 18.1786 19.6215 18.2756 19.7937 18.4478C19.9659 18.62 20.0629 18.8536 20.0626 19.0978C20.0617 19.3414 19.9645 19.5758 19.7917 19.7486C19.619 19.9213 19.3846 20.0186 19.1409 20.0194C18.8968 20.0198 18.6632 19.9228 18.4909 19.7506ZM18.9859 19.2556C18.9445 19.2142 18.9208 19.1579 18.9209 19.0995C18.9215 19.0407 18.9443 18.9844 18.9859 18.9428C19.0275 18.9012 19.0839 18.8784 19.1427 18.8778C19.201 18.8777 19.2573 18.9013 19.2987 18.9428C19.3402 18.9842 19.3633 19.0401 19.3637 19.0989C19.3632 19.1577 19.3398 19.2136 19.2983 19.2551C19.2567 19.2967 19.2008 19.32 19.142 19.3206C19.0832 19.3202 19.0274 19.2971 18.9859 19.2556Z" fill="white"/>
<path fill-rule="evenodd" clip-rule="evenodd" d="M16.4148 11.3774C16.459 11.2335 16.5378 11.1024 16.6442 10.996C16.8848 10.7545 17.2393 10.6655 17.5648 10.7643C17.7086 10.8081 17.8389 10.8859 17.9455 10.9925C18.1853 11.2324 18.2732 11.5866 18.1739 11.9119C18.1297 12.0558 18.0509 12.1869 17.9445 12.2933C17.7044 12.5344 17.3494 12.6239 17.0239 12.525C16.8802 12.4813 16.7493 12.4029 16.6432 12.2968C16.4034 12.057 16.315 11.7023 16.4148 11.3774ZM17.0827 11.58C17.0936 11.5454 17.1129 11.5142 17.1382 11.489C17.1956 11.4306 17.2811 11.4092 17.3597 11.4333C17.3938 11.4436 17.4254 11.4623 17.4505 11.4875C17.5083 11.5452 17.5294 11.6307 17.5055 11.7088C17.4951 11.7439 17.4763 11.7746 17.4505 11.8003C17.3926 11.8583 17.3076 11.8801 17.229 11.856C17.195 11.8457 17.1634 11.827 17.1382 11.8018C17.08 11.7436 17.0588 11.6581 17.0827 11.58Z" fill="white"/>
<path fill-rule="evenodd" clip-rule="evenodd" d="M13.7803 19.956C13.824 19.8117 13.9028 19.6806 14.0092 19.5742C14.2498 19.3336 14.6048 19.2441 14.9298 19.3424C15.0735 19.3862 15.2044 19.4646 15.3105 19.5707C15.5508 19.811 15.6387 20.1652 15.5394 20.4905C15.4952 20.6344 15.4164 20.7655 15.31 20.8719C15.0689 21.113 14.7144 21.202 14.3894 21.1037C14.2456 21.0599 14.1148 20.9815 14.0087 20.8754C13.7689 20.6356 13.6805 20.2809 13.7803 19.956ZM14.4482 20.1586C14.4591 20.124 14.4774 20.0929 14.5032 20.0671C14.5611 20.0092 14.6466 19.9878 14.7252 20.0119C14.7592 20.0222 14.7908 20.041 14.816 20.0661C14.8737 20.1239 14.8949 20.2093 14.871 20.2875C14.8601 20.3221 14.8413 20.3537 14.816 20.379C14.7581 20.4369 14.6726 20.4583 14.5945 20.4347C14.5604 20.4243 14.5288 20.4056 14.5032 20.3799C14.4454 20.3222 14.4243 20.2367 14.4482 20.1586Z" fill="white"/>
<path fill-rule="evenodd" clip-rule="evenodd" d="M12.5681 16.9808C12.667 17.3063 12.5775 17.6613 12.3364 17.9014C12.23 18.0078 12.0989 18.0866 11.955 18.1308C11.6297 18.2301 11.2755 18.1422 11.0357 17.9024C10.9291 17.7958 10.8512 17.6654 10.8074 17.5217C10.7086 17.1962 10.7976 16.8417 11.0391 16.6011C11.1456 16.4947 11.2767 16.4159 11.4205 16.3717C11.7454 16.2719 12.1001 16.3603 12.3399 16.6001C12.446 16.7062 12.5244 16.837 12.5681 16.9808ZM11.8992 17.1859C11.9233 17.2645 11.9014 17.3495 11.8435 17.4074C11.8177 17.4332 11.7871 17.452 11.752 17.4624C11.6738 17.4863 11.5884 17.4651 11.5306 17.4074C11.5055 17.3822 11.4867 17.3506 11.4764 17.3166C11.4523 17.238 11.4737 17.1525 11.5321 17.0951C11.5573 17.0698 11.5885 17.0505 11.6231 17.0396C11.7012 17.0157 11.7867 17.0368 11.8449 17.0951C11.8701 17.1202 11.8888 17.1518 11.8992 17.1859Z" fill="white"/>
<path fill-rule="evenodd" clip-rule="evenodd" d="M21.1468 14.3463C21.2451 14.6713 21.1561 15.0258 20.9151 15.2668C20.8086 15.3733 20.6775 15.452 20.5337 15.4962C20.2083 15.5956 19.8541 15.5077 19.6138 15.2674C19.5077 15.1613 19.4293 15.0304 19.3856 14.8867C19.2872 14.5616 19.3767 14.2067 19.6173 13.9661C19.7237 13.8597 19.8548 13.7809 19.9992 13.7372C20.324 13.6373 20.6787 13.7258 20.9185 13.9656C21.0246 14.0717 21.103 14.2025 21.1468 14.3463ZM20.4778 14.5514C20.5014 14.6295 20.48 14.715 20.4221 14.7729C20.3969 14.7981 20.3652 14.817 20.3306 14.8279C20.2525 14.8517 20.167 14.8306 20.1093 14.7729C20.0841 14.7477 20.0654 14.7161 20.055 14.682C20.0309 14.6035 20.0523 14.518 20.1102 14.46C20.136 14.4343 20.1671 14.416 20.2018 14.405C20.2799 14.3812 20.3653 14.4023 20.4231 14.4601C20.4487 14.4857 20.4675 14.5173 20.4778 14.5514Z" fill="white"/>
<path d="M6.15594 8.29031L5.99834 8.16718L5.99833 8.16719L6.15594 8.29031ZM6.12869 8.68109L5.95572 8.78149L5.95572 8.7815L6.12869 8.68109ZM8.9239 13.4966L8.75093 13.597L8.75093 13.597L8.9239 13.4966ZM8.53063 15.957L8.66401 16.106L8.66401 16.106L8.53063 15.957ZM4.30914 19.7355L4.44252 19.8845L4.44252 19.8845L4.30914 19.7355ZM4.21184 20.1119L4.02306 20.178L4.02306 20.178L4.21184 20.1119ZM5.55073 22.8199L5.38364 22.9298L5.38366 22.9299L5.55073 22.8199ZM5.91604 22.9687L5.9585 23.1641L5.9585 23.1641L5.91604 22.9687ZM11.4806 21.7596L11.4381 21.5642L11.4381 21.5642L11.4806 21.7596ZM13.6979 22.8868L13.8809 22.8062L13.8809 22.8062L13.6979 22.8868ZM16.0401 28.207L15.857 28.2876L15.8571 28.2876L16.0401 28.207ZM16.3707 28.4146L16.364 28.2147L16.3639 28.2147L16.3707 28.4146ZM19.2794 27.9724L19.3324 28.1652L19.3325 28.1652L19.2794 27.9724ZM19.5351 27.6703L19.3362 27.6497L19.3362 27.6497L19.5351 27.6703ZM20.1368 21.8572L20.3357 21.8778L20.3357 21.8778L20.1368 21.8572ZM21.9003 20.0936L21.9209 20.2926L21.9209 20.2926L21.9003 20.0936ZM27.7134 19.492L27.6929 19.2931L27.6929 19.2931L27.7134 19.492ZM28.0155 19.2362L28.2083 19.2894L28.2083 19.2893L28.0155 19.2362ZM28.4577 16.3275L28.2578 16.3208V16.3208L28.4577 16.3275ZM28.2501 15.997L28.3307 15.8139L28.3307 15.8139L28.2501 15.997ZM22.9299 13.6548L22.8493 13.8378L22.8493 13.8378L22.9299 13.6548ZM21.8027 11.4375L21.6073 11.395L21.6073 11.395L21.8027 11.4375ZM23.0118 5.87292L23.2072 5.91538L23.2072 5.91537L23.0118 5.87292ZM22.863 5.5076L22.973 5.34053L22.973 5.34052L22.863 5.5076ZM20.155 4.16872L20.2211 3.97994L20.2211 3.97993L20.155 4.16872ZM19.7786 4.26601L19.9277 4.3994L19.9277 4.3994L19.7786 4.26601ZM16.0001 8.4875L16.1491 8.62089L16.1491 8.62089L16.0001 8.4875ZM13.5397 8.88078L13.6401 8.70781L13.6401 8.7078L13.5397 8.88078ZM8.72421 6.08557L8.82462 5.9126L8.82461 5.9126L8.72421 6.08557ZM8.33344 6.11281L8.21031 5.95521L8.2103 5.95521L8.33344 6.11281ZM8.58294 6.81263L8.68335 6.63966L8.56388 6.57031L8.45672 6.65748L8.58294 6.81263ZM13.1874 9.48557L13.2879 9.3126L13.2879 9.3126L13.1874 9.48557ZM16.5202 8.95273L16.6693 9.08612L16.6693 9.08611L16.5202 8.95273ZM20.1377 4.91122L20.2075 4.72378L20.0796 4.67621L19.9887 4.77783L20.1377 4.91122ZM22.2763 5.96807L22.4718 6.01053L22.5015 5.87347L22.3828 5.79878L22.2763 5.96807ZM21.1198 11.291L20.9243 11.2486L20.9243 11.2486L21.1198 11.291ZM22.6466 14.2945L22.566 14.4775L22.566 14.4775L22.6466 14.2945ZM27.7444 16.5389L27.9442 16.5495L27.9515 16.4115L27.825 16.3558L27.7444 16.5389ZM27.3978 18.8223L27.4184 19.0213L27.5573 19.0069L27.5916 18.8715L27.3978 18.8223ZM21.8305 19.3984L21.8099 19.1994L21.8099 19.1994L21.8305 19.3984ZM19.4415 21.7874L19.2426 21.7668L19.2426 21.7668L19.4415 21.7874ZM18.8654 27.3546L18.9146 27.5485L19.05 27.5142L19.0644 27.3752L18.8654 27.3546ZM16.582 27.7013L16.3989 27.7819L16.4546 27.9084L16.5926 27.901L16.582 27.7013ZM14.3376 22.6035L14.5206 22.5229L14.5206 22.5229L14.3376 22.6035ZM11.3342 21.0765L11.2918 20.8811L11.2918 20.8811L11.3342 21.0765ZM6.01118 22.2332L5.8419 22.3397L5.91659 22.4584L6.05365 22.4286L6.01118 22.2332ZM4.95434 20.0946L4.82095 19.9455L4.71932 20.0365L4.7669 20.1643L4.95434 20.0946ZM8.99585 16.4771L9.12923 16.6261L9.12923 16.6261L8.99585 16.4771ZM9.52869 13.1443L9.35572 13.2447L9.35572 13.2447L9.52869 13.1443ZM6.85575 8.53982L6.70061 8.4136L6.61343 8.52076L6.68278 8.64023L6.85575 8.53982ZM25.8995 6.05735L25.7579 6.19867L25.7581 6.19888L25.8995 6.05735ZM27.6856 8.24643L27.5187 8.35654L27.5187 8.35657L27.6856 8.24643ZM28.9609 10.676L29.1464 10.6012L29.1464 10.6011L28.9609 10.676ZM29.9753 15.9353L29.7753 15.9349V15.9351L29.9753 15.9353ZM28.9447 21.1978L29.13 21.2731L29.13 21.273L28.9447 21.1978ZM27.6619 23.6313L27.4951 23.5209L27.4951 23.521L27.6619 23.6313ZM25.869 25.8259L25.7277 25.6844L25.7275 25.6846L25.869 25.8259ZM23.6744 27.6188L23.5641 27.452L23.5641 27.452L23.6744 27.6188ZM21.2409 28.9016L21.3161 29.0869L21.3162 29.0869L21.2409 28.9016ZM15.9784 29.9322L15.9782 29.7322L15.978 29.7322L15.9784 29.9322ZM10.7191 28.9178L10.6442 29.1032L10.6443 29.1033L10.7191 28.9178ZM8.28956 27.6425L8.3997 27.4756L8.39967 27.4755L8.28956 27.6425ZM6.10048 25.8563L6.24201 25.715L6.2418 25.7148L6.10048 25.8563ZM4.31431 23.6673L4.48126 23.5571L4.48125 23.5571L4.31431 23.6673ZM3.03904 21.2377L2.85355 21.3125L2.85358 21.3126L3.03904 21.2377ZM2.02462 15.9784L2.22462 15.9788L2.22462 15.9786L2.02462 15.9784ZM3.05525 10.7159L2.86996 10.6406L2.86993 10.6407L3.05525 10.7159ZM4.33802 8.28241L4.50483 8.39275L4.50484 8.39272L4.33802 8.28241ZM6.13094 6.08781L6.27226 6.22934L6.27247 6.22913L6.13094 6.08781ZM8.32554 4.29489L8.43585 4.46171L8.43588 4.4617L8.32554 4.29489ZM10.759 3.01212L10.6838 2.8268L10.6838 2.82683L10.759 3.01212ZM16.0215 1.98149L16.0217 2.18149L16.0219 2.18149L16.0215 1.98149ZM21.2808 2.99591L21.3557 2.81045L21.3556 2.81042L21.2808 2.99591ZM23.7104 4.27119L23.6002 4.43812L23.6003 4.43814L23.7104 4.27119ZM25.4045 6.55233L25.263 6.69364L25.2632 6.69386L25.4045 6.55233ZM27.1024 8.63232L27.2694 8.52235L27.2693 8.52212L27.1024 8.63232ZM28.3126 10.9394L28.4981 10.8646L28.498 10.8645L28.3126 10.9394ZM29.2765 15.9364L29.0765 15.936L29.0765 15.9362L29.2765 15.9364ZM28.2972 20.9364L28.4825 21.0117L28.4825 21.0116L28.2972 20.9364ZM27.0798 23.2472L27.2466 23.3576L27.2468 23.3574L27.0798 23.2472ZM25.3756 25.3324L25.2342 25.1909L25.234 25.1911L25.3756 25.3324ZM23.2903 27.0367L23.4005 27.2036L23.4007 27.2035L23.2903 27.0367ZM20.9795 28.2541L21.0548 28.4394L21.0548 28.4393L20.9795 28.2541ZM15.9795 29.2334L15.9793 29.0334L15.9791 29.0334L15.9795 29.2334ZM10.9825 28.2695L10.9077 28.4549L10.9077 28.4549L10.9825 28.2695ZM8.67545 27.0592L8.56525 27.2261L8.56548 27.2263L8.67545 27.0592ZM6.59546 25.3614L6.73699 25.2201L6.73677 25.2198L6.59546 25.3614ZM4.89759 23.2814L4.73053 23.3913L4.73069 23.3916L4.89759 23.2814ZM3.68736 20.9743L3.50189 21.0491L3.50191 21.0492L3.68736 20.9743ZM2.72343 15.9773L2.92343 15.9777V15.9775L2.72343 15.9773ZM3.70276 10.9773L3.51748 10.902L3.51746 10.9021L3.70276 10.9773ZM4.9201 8.6665L4.75334 8.55609L4.75319 8.55632L4.9201 8.6665ZM6.62439 6.58126L6.76571 6.7228L6.76593 6.72258L6.62439 6.58126ZM8.70963 4.87697L8.59945 4.71006L8.59922 4.71021L8.70963 4.87697ZM11.0205 3.65963L10.9452 3.47433L10.9452 3.47435L11.0205 3.65963ZM16.0204 2.6803L16.0206 2.8803L16.0209 2.8803L16.0204 2.6803ZM21.0174 3.64423L21.0923 3.45878L21.0923 3.45876L21.0174 3.64423ZM23.3245 4.85445L23.4347 4.68756L23.4345 4.68741L23.3245 4.85445ZM24.8254 7.10777L24.6839 7.24907L24.6841 7.24931L24.8254 7.10777ZM27.559 11.2312L27.7445 11.1564L27.7444 11.1561L27.559 11.2312ZM28.4646 15.9263L28.2646 15.9259V15.9261L28.4646 15.9263ZM27.5445 20.6242L27.7297 20.6997L27.7298 20.6995L27.5445 20.6242ZM24.7987 24.7556L24.6574 24.6141L24.6572 24.6143L24.7987 24.7556ZM20.6673 27.5014L20.7426 27.6867L20.7428 27.6866L20.6673 27.5014ZM15.9694 28.4215L15.9692 28.2215L15.969 28.2215L15.9694 28.4215ZM11.2743 27.5159L11.1993 27.7013L11.1996 27.7014L11.2743 27.5159ZM7.15138 24.7828L7.29292 24.6415L7.29268 24.6413L7.15138 24.7828ZM4.41831 20.6599L4.23283 20.7347L4.23294 20.7349L4.41831 20.6599ZM3.51224 15.9643L3.71224 15.9647V15.9645L3.51224 15.9643ZM4.43279 11.2668L4.24755 11.1914L4.2475 11.1915L4.43279 11.2668ZM11.31 4.38967L11.2347 4.20438L11.2346 4.20443L11.31 4.38967ZM16.0074 3.46913L16.0076 3.66913L16.0078 3.66913L16.0074 3.46913ZM20.703 4.3752L20.7781 4.18982L20.7778 4.18972L20.703 4.3752ZM24.3305 7.60274L24.1889 7.74404L24.1892 7.74429L24.3305 7.60274ZM26.9107 11.4946L27.0962 11.4199L27.0961 11.4196L26.9107 11.4946ZM27.7658 15.9274L27.5658 15.927L27.5658 15.9272L27.7658 15.9274ZM26.897 20.3628L27.0822 20.4383L27.0823 20.438L26.897 20.3628ZM24.3053 24.2622L24.164 24.1206L24.1637 24.1209L24.3053 24.2622ZM20.4059 26.8539L20.4811 27.0392L20.4814 27.0391L20.4059 26.8539ZM15.9705 27.7226L15.9703 27.5226L15.9701 27.5226L15.9705 27.7226ZM11.5378 26.8676L11.4627 27.0529L11.463 27.0531L11.5378 26.8676ZM7.64635 24.2878L7.7879 24.1465L7.78765 24.1463L7.64635 24.2878ZM5.06614 20.3959L4.88064 20.4707L4.88077 20.471L5.06614 20.3959ZM4.21106 15.9632L4.41106 15.9636L4.41106 15.9634L4.21106 15.9632ZM5.0803 11.5283L4.89506 11.4529L4.895 11.453L5.0803 11.5283ZM11.5714 5.03718L11.4961 4.85188L11.496 4.85194L11.5714 5.03718ZM16.0063 4.16794L16.0065 4.36795L16.0067 4.36794L16.0063 4.16794ZM20.4391 5.02302L20.5141 4.83765L20.5138 4.83753L20.4391 5.02302ZM13.732 12.7673L13.932 12.768L13.932 12.7676L13.732 12.7673ZM12.8104 13.6889L12.8107 13.8889L12.8111 13.8889L12.8104 13.6889ZM12.5904 12.769L12.3904 12.767L12.3904 12.7687L12.5904 12.769ZM12.8121 12.5473L12.8118 12.3473L12.8101 12.3473L12.8121 12.5473ZM13.0332 12.7683L13.2332 12.7703L13.2332 12.767L13.0332 12.7683ZM12.8115 12.9901L12.8101 13.1901L12.8134 13.1901L12.8115 12.9901ZM20.0626 19.0978L20.2626 19.0985L20.2626 19.0981L20.0626 19.0978ZM19.1409 20.0194L19.1412 20.2194L19.1416 20.2194L19.1409 20.0194ZM18.9209 19.0995L18.7209 19.0976L18.7209 19.0992L18.9209 19.0995ZM19.1427 18.8778L19.1424 18.6778L19.1407 18.6778L19.1427 18.8778ZM19.3637 19.0989L19.5638 19.1009L19.5637 19.0975L19.3637 19.0989ZM19.142 19.3206L19.1406 19.5206L19.144 19.5206L19.142 19.3206ZM16.4148 11.3774L16.606 11.4362L16.606 11.4362L16.4148 11.3774ZM16.6442 10.996L16.7857 11.1374L16.7859 11.1372L16.6442 10.996ZM17.5648 10.7643L17.6231 10.573L17.6229 10.5729L17.5648 10.7643ZM18.1739 11.9119L18.3651 11.9706L18.3652 11.9703L18.1739 11.9119ZM17.9445 12.2933L17.8031 12.1519L17.8028 12.1522L17.9445 12.2933ZM17.0239 12.525L16.9657 12.7164L16.9658 12.7164L17.0239 12.525ZM17.0827 11.58L16.892 11.5198L16.8914 11.5216L17.0827 11.58ZM17.1382 11.489L17.2796 11.6304L17.2808 11.6292L17.1382 11.489ZM17.3597 11.4333L17.301 11.6245L17.3017 11.6247L17.3597 11.4333ZM17.5055 11.7088L17.3142 11.6504L17.3138 11.6519L17.5055 11.7088ZM17.229 11.856L17.2877 11.6648L17.287 11.6646L17.229 11.856ZM13.7803 19.956L13.9715 20.0148L13.9717 20.014L13.7803 19.956ZM14.9298 19.3424L14.988 19.1511L14.9877 19.151L14.9298 19.3424ZM15.5394 20.4905L15.7306 20.5493L15.7307 20.5489L15.5394 20.4905ZM14.3894 21.1037L14.3311 21.295L14.3315 21.2951L14.3894 21.1037ZM14.4482 20.1586L14.2574 20.0984L14.2569 20.1002L14.4482 20.1586ZM14.7252 20.0119L14.6665 20.2031L14.6672 20.2033L14.7252 20.0119ZM14.871 20.2875L15.0617 20.3477L15.0623 20.3458L14.871 20.2875ZM14.5945 20.4347L14.5365 20.6261L14.5366 20.6261L14.5945 20.4347ZM12.5681 16.9808L12.7595 16.9227L12.7595 16.9225L12.5681 16.9808ZM12.3364 17.9014L12.1953 17.7596L12.195 17.7599L12.3364 17.9014ZM11.955 18.1308L12.0134 18.322L12.0138 18.3219L11.955 18.1308ZM10.8074 17.5217L10.616 17.5798L10.6161 17.5799L10.8074 17.5217ZM11.0391 16.6011L11.1803 16.7428L11.1806 16.7425L11.0391 16.6011ZM11.4205 16.3717L11.4793 16.5629L11.4793 16.5629L11.4205 16.3717ZM11.8992 17.1859L11.7078 17.2439L11.708 17.2446L11.8992 17.1859ZM11.752 17.4624L11.695 17.2707L11.6936 17.2711L11.752 17.4624ZM11.4764 17.3166L11.6678 17.2586L11.6676 17.2579L11.4764 17.3166ZM11.5321 17.0951L11.6723 17.2377L11.6735 17.2365L11.5321 17.0951ZM11.6231 17.0396L11.5647 16.8483L11.5629 16.8488L11.6231 17.0396ZM21.1468 14.3463L21.3382 14.2883L21.3381 14.288L21.1468 14.3463ZM20.5337 15.4962L20.5921 15.6875L20.5924 15.6874L20.5337 15.4962ZM19.3856 14.8867L19.1941 14.9446L19.1942 14.9449L19.3856 14.8867ZM19.9992 13.7372L20.0571 13.9286L20.0579 13.9284L19.9992 13.7372ZM20.4778 14.5514L20.6692 14.4935L20.6692 14.4934L20.4778 14.5514ZM20.3306 14.8279L20.389 15.0192L20.3908 15.0186L20.3306 14.8279ZM20.055 14.682L20.2464 14.624L20.2462 14.6234L20.055 14.682ZM20.2018 14.405L20.1434 14.2137L20.1415 14.2143L20.2018 14.405ZM7.03696 6.99383C6.66272 7.36808 6.31647 7.76001 5.99834 8.16718L6.31353 8.41345C6.62164 8.01912 6.95708 7.6394 7.3198 7.27668L7.03696 6.99383ZM5.99833 8.16719C5.93078 8.25365 5.89056 8.35833 5.88293 8.4678L6.28196 8.49562C6.28404 8.4658 6.29501 8.43716 6.31354 8.41344L5.99833 8.16719ZM5.88293 8.4678C5.8753 8.57729 5.90061 8.68655 5.95572 8.78149L6.30167 8.58069C6.28678 8.55505 6.27988 8.52544 6.28196 8.49562L5.88293 8.4678ZM5.95572 8.7815L8.75093 13.597L9.09687 13.3962L6.30166 8.58069L5.95572 8.7815ZM8.75093 13.597C8.93846 13.9201 8.99778 14.3432 8.93144 14.7582C8.8651 15.1733 8.67671 15.5578 8.39724 15.808L8.66401 16.106C9.02522 15.7827 9.24868 15.3078 9.32643 14.8214C9.40416 14.335 9.33978 13.8146 9.09687 13.3962L8.75093 13.597ZM8.39724 15.808L4.17575 19.5865L4.44252 19.8845L8.66401 16.106L8.39724 15.808ZM4.17576 19.5865C4.09476 19.659 4.03699 19.7538 4.00978 19.8591L4.39705 19.9592C4.40448 19.9304 4.4203 19.9044 4.44252 19.8845L4.17576 19.5865ZM4.00978 19.8591C3.98257 19.9643 3.98715 20.0753 4.02306 20.178L4.40062 20.0459C4.3909 20.0181 4.38962 19.9879 4.39705 19.9592L4.00978 19.8591ZM4.02306 20.178C4.35808 21.1354 4.81169 22.0605 5.38364 22.9298L5.71781 22.71C5.16413 21.8684 4.72498 20.9728 4.40061 20.0459L4.02306 20.178ZM5.38366 22.9299C5.44458 23.0224 5.53212 23.0943 5.63476 23.1361L5.78562 22.7657C5.75786 22.7544 5.73424 22.735 5.71779 22.71L5.38366 22.9299ZM5.63476 23.1361C5.73738 23.1779 5.85024 23.1876 5.9585 23.1641L5.87358 22.7732C5.84403 22.7797 5.81337 22.777 5.78562 22.7657L5.63476 23.1361ZM5.9585 23.1641L11.5231 21.9551L11.4381 21.5642L5.87357 22.7732L5.9585 23.1641ZM11.523 21.9551C11.8891 21.8756 12.31 21.9488 12.6838 22.1388C13.0577 22.3289 13.3643 22.6255 13.5148 22.9674L13.8809 22.8062C13.6859 22.3633 13.3036 22.0052 12.8651 21.7822C12.4265 21.5593 11.9116 21.4613 11.4381 21.5642L11.523 21.9551ZM13.5148 22.9674L15.857 28.2876L16.2231 28.1264L13.8809 22.8062L13.5148 22.9674ZM15.8571 28.2876C15.9012 28.3878 15.9744 28.4725 16.0671 28.5308L16.2798 28.192C16.2548 28.1763 16.2351 28.1535 16.2231 28.1264L15.8571 28.2876ZM16.0671 28.5308C16.1599 28.589 16.2679 28.6181 16.3774 28.6145L16.3639 28.2147C16.3342 28.2157 16.3049 28.2078 16.2798 28.192L16.0671 28.5308ZM16.3774 28.6145C17.3725 28.5811 18.3649 28.4314 19.3324 28.1652L19.2263 27.7795C18.2892 28.0374 17.328 28.1824 16.364 28.2147L16.3774 28.6145ZM19.3325 28.1652C19.4394 28.1357 19.5349 28.0747 19.6065 27.9901L19.3013 27.7316C19.2816 27.7548 19.2555 27.7715 19.2262 27.7795L19.3325 28.1652ZM19.6065 27.9901C19.6782 27.9055 19.7227 27.8012 19.7341 27.6909L19.3362 27.6497C19.3331 27.6798 19.321 27.7083 19.3013 27.7316L19.6065 27.9901ZM19.7341 27.6909L20.3357 21.8778L19.9378 21.8366L19.3362 27.6497L19.7341 27.6909ZM20.3357 21.8778C20.3742 21.5053 20.5752 21.1273 20.8728 20.8297C21.1704 20.5321 21.5485 20.3311 21.9209 20.2926L21.8797 19.8947C21.398 19.9446 20.9385 20.1983 20.5899 20.5468C20.2414 20.8954 19.9877 21.3549 19.9378 21.8366L20.3357 21.8778ZM21.9209 20.2926L27.734 19.691L27.6929 19.2931L21.8797 19.8947L21.9209 20.2926ZM27.734 19.691C27.8443 19.6796 27.9486 19.6351 28.0332 19.5634L27.7747 19.2582C27.7515 19.2778 27.7229 19.29 27.6929 19.2931L27.734 19.691ZM28.0332 19.5634C28.1178 19.4918 28.1788 19.3963 28.2083 19.2894L27.8227 19.1831C27.8146 19.2123 27.7979 19.2385 27.7747 19.2582L28.0332 19.5634ZM28.2083 19.2893C28.4746 18.3218 28.6242 17.3294 28.6576 16.3342L28.2578 16.3208C28.2255 17.2849 28.0805 18.2461 27.8226 19.1832L28.2083 19.2893ZM28.6576 16.3342C28.6613 16.2248 28.6322 16.1167 28.5739 16.024L28.2352 16.2367C28.2509 16.2618 28.2588 16.291 28.2578 16.3208L28.6576 16.3342ZM28.5739 16.024C28.5157 15.9312 28.431 15.8581 28.3307 15.8139L28.1695 16.18C28.1966 16.1919 28.2194 16.2117 28.2352 16.2367L28.5739 16.024ZM28.3307 15.8139L23.0105 13.4717L22.8493 13.8378L28.1695 16.18L28.3307 15.8139ZM23.0105 13.4717C22.6686 13.3212 22.372 13.0146 22.1819 12.6407C21.9919 12.2669 21.9187 11.8459 21.9982 11.4799L21.6073 11.395C21.5045 11.8685 21.6024 12.3834 21.8254 12.822C22.0483 13.2605 22.4064 13.6428 22.8493 13.8378L23.0105 13.4717ZM21.9982 11.4799L23.2072 5.91538L22.8164 5.83045L21.6073 11.395L21.9982 11.4799ZM23.2072 5.91537C23.2308 5.80712 23.2211 5.69426 23.1793 5.59163L22.8088 5.74249C22.8201 5.77025 22.8228 5.80091 22.8164 5.83046L23.2072 5.91537ZM23.1793 5.59163C23.1375 5.489 23.0656 5.40146 22.973 5.34053L22.7531 5.67467C22.7781 5.69111 22.7975 5.71474 22.8088 5.74249L23.1793 5.59163ZM22.973 5.34052C22.1036 4.76857 21.1785 4.31496 20.2211 3.97994L20.089 4.35749C21.0159 4.68185 21.9115 5.12101 22.7531 5.67469L22.973 5.34052ZM20.2211 3.97993C20.1184 3.94403 20.0075 3.93945 19.9022 3.96666L20.0023 4.35393C20.0311 4.3465 20.0612 4.34778 20.089 4.3575L20.2211 3.97993ZM19.9022 3.96666C19.7969 3.99386 19.7021 4.05164 19.6296 4.13263L19.9277 4.3994C19.9476 4.37717 19.9736 4.36136 20.0023 4.35393L19.9022 3.96666ZM19.6296 4.13263L15.8511 8.35412L16.1491 8.62089L19.9277 4.3994L19.6296 4.13263ZM15.8511 8.35411C15.6009 8.63359 15.2164 8.82198 14.8014 8.88832C14.3863 8.95466 13.9632 8.89534 13.6401 8.70781L13.4393 9.05374C13.8578 9.29666 14.3781 9.36104 14.8645 9.2833C15.3509 9.20556 15.8258 8.98209 16.1491 8.62089L15.8511 8.35411ZM13.6401 8.7078L8.82462 5.9126L8.62381 6.25854L13.4393 9.05375L13.6401 8.7078ZM8.82461 5.9126C8.72968 5.85749 8.62041 5.83218 8.51093 5.83981L8.53874 6.23884C8.56856 6.23676 8.59818 6.24366 8.62382 6.25854L8.82461 5.9126ZM8.51093 5.83981C8.40145 5.84744 8.29677 5.88766 8.21031 5.95521L8.45656 6.27042C8.48028 6.25189 8.50892 6.24092 8.53874 6.23884L8.51093 5.83981ZM8.2103 5.95521C7.80314 6.27335 7.4112 6.61959 7.03696 6.99383L7.3198 7.27668C7.68252 6.91396 8.06224 6.57852 8.45657 6.27041L8.2103 5.95521ZM7.81325 7.77013C8.09937 7.48401 8.39979 7.21946 8.70916 6.96777L8.45672 6.65748C8.13934 6.91569 7.82828 7.18941 7.53041 7.48729L7.81325 7.77013ZM8.48253 6.98559L13.087 9.65854L13.2879 9.3126L8.68335 6.63966L8.48253 6.98559ZM13.087 9.65854C14.2309 10.3225 15.7854 10.0736 16.6693 9.08612L16.3712 8.81934C15.6133 9.66613 14.267 9.88098 13.2879 9.3126L13.087 9.65854ZM16.6693 9.08611L20.2867 5.04461L19.9887 4.77783L16.3712 8.81934L16.6693 9.08611ZM20.0679 5.09866C20.7949 5.36924 21.4992 5.71544 22.1698 6.13735L22.3828 5.79878C21.6888 5.36214 20.9599 5.00383 20.2075 4.72378L20.0679 5.09866ZM22.0809 5.9256L20.9243 11.2486L21.3152 11.3335L22.4718 6.01053L22.0809 5.9256ZM20.9243 11.2486C20.6432 12.5429 21.3552 13.9445 22.566 14.4775L22.7272 14.1114C21.6909 13.6552 21.0743 12.4425 21.3152 11.3335L20.9243 11.2486ZM22.566 14.4775L27.6638 16.7219L27.825 16.3558L22.7272 14.1114L22.566 14.4775ZM27.5447 16.5282C27.5045 17.2838 27.391 18.0355 27.2039 18.7732L27.5916 18.8715C27.7852 18.1085 27.9026 17.3309 27.9442 16.5495L27.5447 16.5282ZM27.3772 18.6234L21.8099 19.1994L21.8511 19.5973L27.4184 19.0213L27.3772 18.6234ZM21.8099 19.1994C20.4929 19.3357 19.3788 20.4498 19.2426 21.7668L19.6404 21.808C19.7572 20.6793 20.7225 19.7141 21.8511 19.5973L21.8099 19.1994ZM19.2426 21.7668L18.6665 27.3341L19.0644 27.3752L19.6404 21.808L19.2426 21.7668ZM18.8163 27.1608C18.0787 27.3479 17.3269 27.4614 16.5714 27.5016L16.5926 27.901C17.374 27.8595 18.1516 27.7421 18.9146 27.5485L18.8163 27.1608ZM16.765 27.6207L14.5206 22.5229L14.1546 22.6841L16.3989 27.7819L16.765 27.6207ZM14.5206 22.5229C13.9876 21.3121 12.5862 20.5999 11.2918 20.8811L11.3767 21.272C12.4857 21.0311 13.6983 21.6478 14.1546 22.6841L14.5206 22.5229ZM11.2918 20.8811L5.96872 22.0378L6.05365 22.4286L11.3767 21.272L11.2918 20.8811ZM6.18047 22.1267C5.75855 21.4561 5.41236 20.7518 5.14177 20.0248L4.7669 20.1643C5.04694 20.9168 5.40526 21.6457 5.8419 22.3397L6.18047 22.1267ZM5.08772 20.2436L9.12923 16.6261L8.86246 16.3281L4.82095 19.9455L5.08772 20.2436ZM9.12923 16.6261C10.1167 15.7422 10.3657 14.1877 9.70166 13.0439L9.35572 13.2447C9.9241 14.2238 9.70925 15.5701 8.86246 16.3281L9.12923 16.6261ZM9.70166 13.0439L7.02872 8.43941L6.68278 8.64023L9.35572 13.2447L9.70166 13.0439ZM7.01089 8.66603C7.26258 8.35666 7.52713 8.05625 7.81325 7.77013L7.53041 7.48729C7.23253 7.78516 6.95882 8.09621 6.70061 8.4136L7.01089 8.66603ZM25.7581 6.19888C26.4166 6.85639 27.0064 7.57983 27.5187 8.35654L27.8526 8.13632C27.3255 7.33711 26.7186 6.59261 26.0408 5.91583L25.7581 6.19888ZM27.5187 8.35657C28.0162 9.11068 28.4373 9.91316 28.7755 10.7509L29.1464 10.6011C28.7982 9.7388 28.3648 8.91268 27.8526 8.13629L27.5187 8.35657ZM28.7754 10.7508C29.4393 12.3973 29.779 14.1578 29.7753 15.9349L30.1753 15.9357C30.1792 14.1071 29.8295 12.2955 29.1464 10.6012L28.7754 10.7508ZM29.7753 15.9351C29.7736 17.7122 29.4284 19.4739 28.7594 21.1226L29.13 21.273C29.8183 19.5767 30.1735 17.7642 30.1753 15.9355L29.7753 15.9351ZM28.7594 21.1225C28.4186 21.9613 27.9951 22.7652 27.4951 23.5209L27.8287 23.7416C28.3433 22.9638 28.7792 22.1364 29.13 21.2731L28.7594 21.1225ZM27.4951 23.521C26.9804 24.2994 26.3883 25.0247 25.7277 25.6844L26.0103 25.9674C26.6901 25.2886 27.2993 24.5423 27.8288 23.7416L27.4951 23.521ZM25.7275 25.6846C25.0678 26.3452 24.3425 26.9372 23.5641 27.452L23.7847 27.7856C24.5855 27.2561 25.3318 26.647 26.0105 25.9672L25.7275 25.6846ZM23.5641 27.452C22.8083 27.9519 22.0045 28.3755 21.1656 28.7163L21.3162 29.0869C22.1795 28.7361 23.0069 28.3002 23.7848 27.7856L23.5641 27.452ZM21.1657 28.7162C19.517 29.3853 17.7554 29.7304 15.9782 29.7322L15.9786 30.1322C17.8073 30.1304 19.6199 29.7752 21.3161 29.0869L21.1657 28.7162ZM15.978 29.7322C14.2009 29.7359 12.4404 29.3962 10.7939 28.7323L10.6443 29.1033C12.3386 29.7864 14.1502 30.136 15.9789 30.1322L15.978 29.7322ZM10.794 28.7323C9.95629 28.3941 9.15381 27.9731 8.3997 27.4756L8.17942 27.8094C8.95581 28.3217 9.78193 28.7551 10.6442 29.1032L10.794 28.7323ZM8.39967 27.4755C7.62296 26.9633 6.89952 26.3735 6.24201 25.715L5.95896 25.9977C6.63574 26.6754 7.38024 27.2824 8.17945 27.8095L8.39967 27.4755ZM6.2418 25.7148C5.58332 25.0573 4.99404 24.3344 4.48126 23.5571L4.14737 23.7774C4.67495 24.5771 5.28137 25.3211 5.95917 25.9979L6.2418 25.7148ZM4.48125 23.5571C3.98371 22.803 3.56268 22.0005 3.22449 21.1628L2.85358 21.3126C3.20171 22.1749 3.63513 23.001 4.14738 23.7774L4.48125 23.5571ZM3.22453 21.1629C2.56066 19.5164 2.2209 17.7559 2.22462 15.9788L1.82462 15.978C1.8208 17.8066 2.1704 19.6182 2.85355 21.3125L3.22453 21.1629ZM2.22462 15.9786C2.22638 14.2015 2.57156 12.4398 3.24057 10.7911L2.86993 10.6407C2.18162 12.337 1.82643 14.1495 1.82462 15.9782L2.22462 15.9786ZM3.24054 10.7912C3.58134 9.95236 4.00489 9.14849 4.50483 8.39275L4.17121 8.17206C3.65664 8.94994 3.22071 9.77731 2.86996 10.6406L3.24054 10.7912ZM4.50484 8.39272C5.01958 7.61432 5.61165 6.88897 6.27226 6.22934L5.98963 5.94629C5.30984 6.62507 4.7007 7.37135 4.1712 8.17209L4.50484 8.39272ZM6.27247 6.22913C6.9321 5.56852 7.65745 4.97645 8.43585 4.46171L8.21522 4.12807C7.41448 4.65757 6.6682 5.26671 5.98942 5.9465L6.27247 6.22913ZM8.43588 4.4617C9.19162 3.96176 9.99549 3.53821 10.8343 3.19741L10.6838 2.82683C9.82044 3.17758 8.99307 3.61351 8.21519 4.12808L8.43588 4.4617ZM10.8342 3.19744C12.4829 2.52843 14.2446 2.18325 16.0217 2.18149L16.0213 1.78149C14.1927 1.7833 12.3801 2.13849 10.6838 2.8268L10.8342 3.19744ZM16.0219 2.18149C17.7991 2.17777 19.5596 2.51753 21.206 3.1814L21.3556 2.81042C19.6613 2.12727 17.8497 1.77767 16.0211 1.78149L16.0219 2.18149ZM21.206 3.18137C22.0437 3.51955 22.8461 3.94058 23.6002 4.43812L23.8205 4.10425C23.0441 3.592 22.218 3.15858 21.3557 2.81045L21.206 3.18137ZM23.6003 4.43814C24.377 4.95041 25.1004 5.54018 25.7579 6.19867L26.041 5.91604C25.3642 5.23825 24.6197 4.63133 23.8205 4.10423L23.6003 4.43814ZM25.2632 6.69386C25.8886 7.31831 26.4483 8.00475 26.9355 8.74253L27.2693 8.52212C26.7673 7.76198 26.1905 7.05451 25.5458 6.4108L25.2632 6.69386ZM26.9353 8.74229C27.4068 9.4585 27.8062 10.2196 28.1271 11.0143L28.498 10.8645C28.1671 10.0452 27.7554 9.26061 27.2694 8.52235L26.9353 8.74229ZM28.1271 11.0143C28.758 12.5772 29.0801 14.2488 29.0765 15.936L29.4765 15.9368C29.4802 14.1981 29.1483 12.4755 28.4981 10.8646L28.1271 11.0143ZM29.0765 15.9362C29.0749 17.6234 28.7476 19.296 28.1119 20.8611L28.4825 21.0116C29.1376 19.3989 29.4748 17.6753 29.4765 15.9366L29.0765 15.9362ZM28.1119 20.8611C27.7885 21.6569 27.3867 22.4193 26.9129 23.137L27.2468 23.3574C27.735 22.6177 28.1491 21.832 28.4825 21.0117L28.1119 20.8611ZM26.9131 23.1368C26.4236 23.8762 25.8617 24.5644 25.2342 25.1909L25.5169 25.474C26.1635 24.8283 26.7424 24.1192 27.2466 23.3576L26.9131 23.1368ZM25.234 25.1911C24.6076 25.8186 23.9193 26.3805 23.1799 26.87L23.4007 27.2035C24.1623 26.6993 24.8715 26.1204 25.5171 25.4737L25.234 25.1911ZM23.1801 26.8698C22.4624 27.3436 21.7 27.7453 20.9042 28.0688L21.0548 28.4393C21.8751 28.106 22.6608 27.6919 23.4005 27.2036L23.1801 26.8698ZM20.9042 28.0688C19.3392 28.7045 17.6665 29.0318 15.9793 29.0334L15.9797 29.4334C17.7184 29.4317 19.442 29.0945 21.0548 28.4394L20.9042 28.0688ZM15.9791 29.0334C14.2919 29.037 12.6203 28.7148 11.0574 28.084L10.9077 28.4549C12.5186 29.1051 14.2413 29.4371 15.9799 29.4334L15.9791 29.0334ZM11.0574 28.084C10.2627 27.7631 9.50163 27.3637 8.78542 26.8922L8.56548 27.2263C9.30374 27.7123 10.0883 28.124 10.9077 28.4549L11.0574 28.084ZM8.78566 26.8923C8.04788 26.4052 7.36144 25.8455 6.73699 25.2201L6.45393 25.5027C7.09764 26.1474 7.80511 26.7242 8.56525 27.2261L8.78566 26.8923ZM6.73677 25.2198C6.11134 24.5954 5.55164 23.9089 5.06448 23.1712L4.73069 23.3916C5.23261 24.1517 5.80943 24.8592 6.45415 25.5029L6.73677 25.2198ZM5.06464 23.1714C4.59313 22.4552 4.19376 21.6941 3.8728 20.8994L3.50191 21.0492C3.8328 21.8685 4.24452 22.6531 4.73053 23.3913L5.06464 23.1714ZM3.87282 20.8994C3.24197 19.3365 2.91986 17.6649 2.92343 15.9777L2.52343 15.9769C2.51975 17.7156 2.85169 19.4382 3.50189 21.0491L3.87282 20.8994ZM2.92343 15.9775C2.92506 14.2903 3.25233 12.6176 3.88805 11.0526L3.51746 10.9021C2.86235 12.5148 2.52511 14.2384 2.52343 15.9771L2.92343 15.9775ZM3.88804 11.0526C4.21148 10.2568 4.61325 9.49444 5.08702 8.77668L4.75319 8.55632C4.26495 9.29599 3.85087 10.0817 3.51748 10.902L3.88804 11.0526ZM5.08687 8.7769C5.57636 8.03753 6.13826 7.34927 6.76571 6.7228L6.48308 6.43973C5.83646 7.08535 5.25755 7.7945 4.75334 8.55609L5.08687 8.7769ZM6.76593 6.72258C7.3924 6.09513 8.08066 5.53323 8.82004 5.04374L8.59922 4.71021C7.83763 5.21442 7.12848 5.79333 6.48286 6.43995L6.76593 6.72258ZM8.81981 5.04389C9.53757 4.57012 10.3 4.16835 11.0958 3.84491L10.9452 3.47435C10.1249 3.80774 9.33912 4.22182 8.59945 4.71006L8.81981 5.04389ZM11.0957 3.84492C12.6608 3.2092 14.3334 2.88193 16.0206 2.8803L16.0202 2.4803C14.2816 2.48198 12.5579 2.81922 10.9452 3.47433L11.0957 3.84492ZM16.0209 2.8803C17.7081 2.87673 19.3796 3.19884 20.9425 3.82969L21.0923 3.45876C19.4814 2.80856 17.7587 2.47662 16.02 2.4803L16.0209 2.8803ZM20.9425 3.82967C21.7372 4.15063 22.4983 4.55 23.2145 5.0215L23.4345 4.68741C22.6962 4.20139 21.9116 3.78967 21.0923 3.45878L20.9425 3.82967ZM23.2143 5.02135C23.9521 5.50851 24.6385 6.06821 25.263 6.69364L25.546 6.41102C24.9023 5.7663 24.1948 5.18948 23.4347 4.68756L23.2143 5.02135ZM24.6841 7.24931C25.8435 8.4067 26.7584 9.7872 27.3736 11.3063L27.7444 11.1561C27.109 9.58734 26.1641 8.16161 24.9667 6.96623L24.6841 7.24931ZM27.3735 11.306C27.965 12.7732 28.268 14.3415 28.2646 15.9259L28.6646 15.9267C28.6681 14.2908 28.3553 12.6714 27.7445 11.1564L27.3735 11.306ZM28.2646 15.9261C28.2631 17.5095 27.9558 19.0794 27.3592 20.549L27.7298 20.6995C28.3457 19.1822 28.6631 17.5614 28.6646 15.9265L28.2646 15.9261ZM27.3593 20.5487C26.7394 22.0699 25.8205 23.4529 24.6574 24.6141L24.94 24.8972C26.141 23.6983 27.0896 22.2703 27.7297 20.6997L27.3593 20.5487ZM24.6572 24.6143C23.4961 25.7774 22.113 26.6962 20.5919 27.3162L20.7428 27.6866C22.3134 27.0465 23.7414 26.0978 24.9403 24.8969L24.6572 24.6143ZM20.5921 27.3161C19.1225 27.9127 17.5526 28.22 15.9692 28.2215L15.9696 28.6215C17.6045 28.6199 19.2253 28.3026 20.7426 27.6867L20.5921 27.3161ZM15.969 28.2215C14.3846 28.2249 12.8163 27.9219 11.3491 27.3304L11.1996 27.7014C12.7145 28.3121 14.3339 28.625 15.9699 28.6215L15.969 28.2215ZM11.3494 27.3305C9.83031 26.7153 8.4503 25.8008 7.29292 24.6415L7.00984 24.9241C8.20523 26.1215 9.63047 27.0659 11.1993 27.7013L11.3494 27.3305ZM7.29268 24.6413C6.13286 23.4834 5.2189 22.1039 4.60369 20.5848L4.23294 20.7349C4.86827 22.3037 5.81218 23.7285 7.01008 24.9244L7.29268 24.6413ZM4.6038 20.585C4.0118 19.1174 3.70883 17.549 3.71224 15.9647L3.31225 15.9638C3.30872 17.5998 3.62157 19.2192 4.23283 20.7347L4.6038 20.585ZM3.71224 15.9645C3.71371 14.381 4.02104 12.8113 4.61807 11.3421L4.2475 11.1915C3.63109 12.7084 3.31376 14.3292 3.31224 15.9641L3.71224 15.9645ZM4.61802 11.3423C5.23747 9.82068 6.15658 8.43796 7.31968 7.2768L7.03708 6.99372C5.83619 8.1926 4.88718 9.62027 4.24755 11.1914L4.61802 11.3423ZM7.31992 7.27656C8.48108 6.11345 9.8638 5.19435 11.3854 4.57491L11.2346 4.20443C9.66339 4.84406 8.23572 5.79307 7.03684 6.99395L7.31992 7.27656ZM11.3853 4.57495C12.8544 3.97793 14.4242 3.67059 16.0076 3.66913L16.0072 3.26913C14.3723 3.27064 12.7515 3.58797 11.2347 4.20438L11.3853 4.57495ZM16.0078 3.66913C17.5922 3.66571 19.1605 3.96869 20.6282 4.56068L20.7778 4.18972C19.2623 3.57845 17.6429 3.2656 16.007 3.26913L16.0078 3.66913ZM20.6279 4.56057C22.147 5.17579 23.526 6.08926 24.6839 7.24907L24.967 6.96646C23.7711 5.76856 22.3468 4.82515 20.7781 4.18982L20.6279 4.56057ZM24.1892 7.74429C25.2824 8.83555 26.1451 10.1371 26.7253 11.5697L27.0961 11.4196C26.4957 9.9372 25.603 8.59046 24.4718 7.46119L24.1892 7.74429ZM26.7252 11.5694C27.2832 12.9536 27.5685 14.433 27.5658 15.927L27.9658 15.9278C27.9686 14.3823 27.6735 12.8519 27.0962 11.4199L26.7252 11.5694ZM27.5658 15.9272C27.5644 17.4206 27.2741 18.9015 26.7117 20.2876L27.0823 20.438C27.664 19.0044 27.9644 17.4726 27.9658 15.9276L27.5658 15.9272ZM26.7118 20.2873C26.1271 21.7219 25.2607 23.0258 24.164 24.1206L24.4466 24.4037C25.5812 23.2711 26.4773 21.9223 27.0822 20.4383L26.7118 20.2873ZM24.1637 24.1209C23.0689 25.2176 21.7651 26.084 20.3304 26.6687L20.4814 27.0391C21.9654 26.4342 23.3143 25.5381 24.4468 24.4035L24.1637 24.1209ZM20.3307 26.6686C18.9446 27.2309 17.4637 27.5213 15.9703 27.5226L15.9707 27.9226C17.5157 27.9213 19.0475 27.6209 20.4811 27.0392L20.3307 26.6686ZM15.9701 27.5226C14.4762 27.5254 12.9967 27.2401 11.6125 26.6821L11.463 27.0531C12.895 27.6304 14.4255 27.9255 15.9709 27.9226L15.9701 27.5226ZM11.6128 26.6822C10.1802 26.1019 8.87916 25.2397 7.7879 24.1465L7.50481 24.4291C8.63408 25.5604 9.98033 26.4526 11.4627 27.0529L11.6128 26.6822ZM7.78765 24.1463C6.69395 23.0545 5.83176 21.7535 5.25151 20.3209L4.88077 20.471C5.48114 21.9534 6.37328 23.2996 7.50506 24.4294L7.78765 24.1463ZM5.25163 20.3212C4.69362 18.937 4.40828 17.4576 4.41106 15.9636L4.01106 15.9628C4.00818 17.5082 4.30335 19.0387 4.88064 20.4707L5.25163 20.3212ZM4.41106 15.9634C4.41239 14.47 4.70277 12.9891 5.26559 11.6035L4.895 11.453C4.31284 12.8862 4.01244 14.418 4.01106 15.963L4.41106 15.9634ZM5.26553 11.6037C5.84975 10.1687 6.71635 8.86509 7.81313 7.77025L7.53053 7.48716C6.39597 8.61972 5.49947 9.96824 4.89506 11.4529L5.26553 11.6037ZM7.81338 7.77C8.90821 6.67323 10.2118 5.80664 11.6468 5.22242L11.496 4.85194C10.0114 5.45635 8.66284 6.35285 7.53028 7.48741L7.81338 7.77ZM11.6467 5.22247C13.0322 4.65965 14.5131 4.36927 16.0065 4.36794L16.0061 3.96795C14.4611 3.96932 12.9293 4.26972 11.4961 4.85188L11.6467 5.22247ZM16.0067 4.36794C17.5007 4.36516 18.9801 4.6505 20.3643 5.20851L20.5138 4.83753C19.0818 4.26023 17.5514 3.96506 16.0059 3.96794L16.0067 4.36794ZM20.364 5.20839C21.7967 5.78865 23.0977 6.65084 24.1889 7.74404L24.472 7.46145C23.3427 6.33016 21.9965 5.43802 20.5141 4.83765L20.364 5.20839ZM12.3018 13.2786C12.1671 13.1439 12.0913 12.9612 12.0916 12.7704L11.6916 12.7698C11.6911 13.0672 11.8093 13.3518 12.019 13.5615L12.3018 13.2786ZM12.0916 12.7704C12.0919 12.5792 12.168 12.3955 12.3033 12.2602L12.0205 11.9774C11.8103 12.1876 11.692 12.4727 11.6916 12.7698L12.0916 12.7704ZM12.3033 12.2602C12.4386 12.1249 12.6223 12.0487 12.8135 12.0484L12.8129 11.6484C12.5159 11.6489 12.2307 11.7672 12.0205 11.9774L12.3033 12.2602ZM12.8135 12.0484C13.0043 12.0481 13.187 12.1239 13.3218 12.2587L13.6046 11.9759C13.3949 11.7662 13.1104 11.648 12.8129 11.6484L12.8135 12.0484ZM13.3218 12.2587C13.4565 12.3935 13.5323 12.5761 13.532 12.7669L13.932 12.7676C13.9325 12.4701 13.8143 12.1855 13.6046 11.9759L13.3218 12.2587ZM13.532 12.7665C13.5313 12.9575 13.4551 13.1413 13.3198 13.2766L13.6026 13.5595C13.8128 13.3493 13.931 13.0643 13.932 12.768L13.532 12.7665ZM13.3198 13.2766C13.1844 13.412 13.0006 13.4882 12.8097 13.4889L12.8111 13.8889C13.1074 13.8878 13.3924 13.7696 13.6026 13.5595L13.3198 13.2766ZM12.8101 13.4889C12.6193 13.4892 12.4366 13.4134 12.3018 13.2786L12.019 13.5615C12.2287 13.7711 12.5132 13.8894 12.8107 13.8889L12.8101 13.4889ZM12.7968 12.7837C12.7922 12.7791 12.7904 12.7735 12.7904 12.7693L12.3904 12.7687C12.3902 12.8812 12.4356 12.9882 12.514 13.0665L12.7968 12.7837ZM12.7904 12.771C12.7905 12.7625 12.7936 12.7568 12.7968 12.7537L12.5139 12.4708C12.434 12.5508 12.3915 12.6579 12.3904 12.767L12.7904 12.771ZM12.7968 12.7537C12.8 12.7505 12.8057 12.7473 12.8141 12.7473L12.8101 12.3473C12.701 12.3484 12.5939 12.3908 12.5139 12.4708L12.7968 12.7537ZM12.8124 12.7473C12.8166 12.7473 12.8222 12.7491 12.8268 12.7537L13.1096 12.4708C13.0313 12.3925 12.9243 12.3471 12.8118 12.3473L12.8124 12.7473ZM12.8268 12.7537C12.8307 12.7576 12.8332 12.7629 12.8332 12.7697L13.2332 12.767C13.2324 12.6561 13.1886 12.5498 13.1096 12.4708L12.8268 12.7537ZM12.8332 12.7663C12.8331 12.7732 12.8306 12.7789 12.8263 12.7832L13.1091 13.066C13.188 12.9872 13.2321 12.8811 13.2332 12.7703L12.8332 12.7663ZM12.8263 12.7832C12.822 12.7875 12.8163 12.79 12.8095 12.7901L12.8134 13.1901C12.9242 13.189 13.0303 13.1449 13.1091 13.066L12.8263 12.7832ZM12.8128 12.7901C12.806 12.79 12.8007 12.7875 12.7968 12.7837L12.514 13.0665C12.593 13.1455 12.6993 13.1893 12.8101 13.1901L12.8128 12.7901ZM18.6324 19.6092C18.4976 19.4744 18.4218 19.2917 18.4221 19.1009L18.0221 19.1003C18.0216 19.3978 18.1399 19.6823 18.3495 19.892L18.6324 19.6092ZM18.4221 19.1009C18.4224 18.9097 18.4986 18.726 18.6339 18.5907L18.351 18.3079C18.1408 18.5181 18.0226 18.8033 18.0221 19.1003L18.4221 19.1009ZM18.6339 18.5907C18.7692 18.4555 18.9528 18.3793 19.1441 18.379L19.1434 17.979C18.8464 17.9794 18.5612 18.0977 18.351 18.3079L18.6339 18.5907ZM19.1441 18.379C19.3349 18.3787 19.5175 18.4545 19.6523 18.5892L19.9351 18.3064C19.7255 18.0967 19.4409 17.9785 19.1434 17.979L19.1441 18.379ZM19.6523 18.5892C19.7871 18.724 19.8629 18.9067 19.8626 19.0975L20.2626 19.0981C20.263 18.8006 20.1448 18.5161 19.9351 18.3064L19.6523 18.5892ZM19.8626 19.0971C19.8619 19.2881 19.7856 19.4718 19.6503 19.6072L19.9331 19.89C20.1433 19.6798 20.2615 19.3948 20.2626 19.0985L19.8626 19.0971ZM19.6503 19.6072C19.515 19.7425 19.3312 19.8188 19.1402 19.8194L19.1416 20.2194C19.4379 20.2184 19.723 20.1002 19.9331 19.89L19.6503 19.6072ZM19.1406 19.8194C18.9498 19.8197 18.7671 19.7439 18.6324 19.6092L18.3495 19.892C18.5592 20.1017 18.8438 20.2199 19.1412 20.2194L19.1406 19.8194ZM19.1273 19.1142C19.1228 19.1096 19.1209 19.104 19.1209 19.0999L18.7209 19.0992C18.7207 19.2117 18.7662 19.3187 18.8445 19.397L19.1273 19.1142ZM19.1209 19.1015C19.121 19.0931 19.1242 19.0874 19.1273 19.0842L18.8445 18.8014C18.7645 18.8813 18.722 18.9884 18.7209 19.0976L19.1209 19.1015ZM19.1273 19.0842C19.1305 19.081 19.1362 19.0779 19.1447 19.0778L19.1407 18.6778C19.0315 18.6789 18.9245 18.7214 18.8445 18.8014L19.1273 19.0842ZM19.143 19.0778C19.1472 19.0778 19.1528 19.0796 19.1573 19.0842L19.4402 18.8014C19.3618 18.723 19.2548 18.6776 19.1424 18.6778L19.143 19.0778ZM19.1573 19.0842C19.1612 19.0881 19.1637 19.0934 19.1637 19.1002L19.5637 19.0975C19.563 18.9867 19.5192 18.8804 19.4402 18.8014L19.1573 19.0842ZM19.1637 19.0969C19.1637 19.1037 19.1611 19.1094 19.1568 19.1137L19.4397 19.3966C19.5185 19.3177 19.5626 19.2116 19.5637 19.1009L19.1637 19.0969ZM19.1568 19.1137C19.1525 19.118 19.1468 19.1206 19.14 19.1206L19.144 19.5206C19.2548 19.5195 19.3608 19.4754 19.4397 19.3966L19.1568 19.1137ZM19.1434 19.1206C19.1366 19.1206 19.1312 19.1181 19.1273 19.1142L18.8445 19.397C18.9235 19.476 19.0298 19.5198 19.1406 19.5206L19.1434 19.1206ZM16.606 11.4362C16.6407 11.3234 16.7024 11.2207 16.7857 11.1374L16.5028 10.8546C16.3732 10.9842 16.2774 11.1437 16.2236 11.3187L16.606 11.4362ZM16.7859 11.1372C16.9743 10.948 17.252 10.8783 17.5067 10.9557L17.6229 10.5729C17.2266 10.4526 16.7953 10.561 16.5025 10.8549L16.7859 11.1372ZM17.5066 10.9556C17.6191 10.9899 17.7209 11.0507 17.8041 11.134L18.0869 10.8511C17.957 10.7212 17.798 10.6262 17.6231 10.573L17.5066 10.9556ZM17.8041 11.134C17.9914 11.3213 18.0605 11.5985 17.9826 11.8535L18.3652 11.9703C18.486 11.5746 18.3793 11.1434 18.0869 10.8511L17.8041 11.134ZM17.9827 11.8532C17.9481 11.9659 17.8863 12.0686 17.8031 12.1519L18.0859 12.4347C18.2155 12.3052 18.3113 12.1457 18.3651 11.9706L17.9827 11.8532ZM17.8028 12.1522C17.6148 12.3409 17.3367 12.411 17.082 12.3336L16.9658 12.7164C17.3622 12.8367 17.794 12.7278 18.0862 12.4344L17.8028 12.1522ZM17.0822 12.3337C16.9697 12.2994 16.8674 12.2382 16.7846 12.1554L16.5018 12.4382C16.6312 12.5676 16.7906 12.6631 16.9657 12.7164L17.0822 12.3337ZM16.7846 12.1554C16.5972 11.9679 16.5279 11.6902 16.606 11.4362L16.2237 11.3187C16.1021 11.7143 16.2096 12.146 16.5018 12.4382L16.7846 12.1554ZM17.2734 11.6402C17.2744 11.6372 17.2763 11.6337 17.2796 11.6304L16.9968 11.3476C16.9495 11.3948 16.9129 11.4535 16.892 11.5198L17.2734 11.6402ZM17.2808 11.6292C17.2854 11.6245 17.2932 11.6221 17.301 11.6245L17.4183 11.2421C17.2691 11.1963 17.1058 11.2367 16.9956 11.3488L17.2808 11.6292ZM17.3017 11.6247C17.3049 11.6257 17.3077 11.6275 17.3091 11.6289L17.5919 11.3461C17.543 11.2972 17.4826 11.2615 17.4177 11.2419L17.3017 11.6247ZM17.3091 11.6289C17.3143 11.6341 17.3166 11.6426 17.3142 11.6505L17.6968 11.7672C17.7421 11.6188 17.7022 11.4564 17.5919 11.3461L17.3091 11.6289ZM17.3138 11.6519C17.3135 11.653 17.3131 11.6539 17.3126 11.6547C17.3121 11.6555 17.3111 11.657 17.3091 11.6589L17.592 11.9418C17.64 11.8938 17.6768 11.8345 17.6972 11.7658L17.3138 11.6519ZM17.3091 11.6589C17.3027 11.6654 17.2943 11.6669 17.2877 11.6648L17.1704 12.0472C17.3209 12.0934 17.4826 12.0511 17.592 11.9418L17.3091 11.6589ZM17.287 11.6646C17.2838 11.6637 17.281 11.6618 17.2796 11.6604L16.9968 11.9432C17.0457 11.9921 17.1061 12.0278 17.1711 12.0474L17.287 11.6646ZM17.2796 11.6604C17.2737 11.6545 17.2717 11.6459 17.274 11.6384L16.8914 11.5216C16.846 11.6704 16.8862 11.8327 16.9968 11.9432L17.2796 11.6604ZM13.9717 20.014C14.0058 19.9013 14.0674 19.7988 14.1506 19.7156L13.8678 19.4327C13.7382 19.5623 13.6422 19.722 13.5889 19.8981L13.9717 20.014ZM14.1506 19.7156C14.3393 19.527 14.6177 19.457 14.8719 19.5339L14.9877 19.151C14.5918 19.0312 14.1603 19.1402 13.8678 19.4327L14.1506 19.7156ZM14.8715 19.5338C14.984 19.568 15.0863 19.6293 15.1691 19.7121L15.4519 19.4292C15.3225 19.2999 15.1631 19.2044 14.988 19.1511L14.8715 19.5338ZM15.1691 19.7121C15.3569 19.8999 15.4259 20.1773 15.3481 20.4321L15.7307 20.5489C15.8515 20.1531 15.7447 19.722 15.4519 19.4292L15.1691 19.7121ZM15.3482 20.4318C15.3135 20.5446 15.2518 20.6472 15.1685 20.7305L15.4514 21.0134C15.581 20.8838 15.6768 20.7243 15.7306 20.5493L15.3482 20.4318ZM15.1685 20.7305C14.9795 20.9196 14.7016 20.9892 14.4473 20.9122L14.3315 21.2951C14.7273 21.4148 15.1583 21.3064 15.4514 21.0134L15.1685 20.7305ZM14.4476 20.9123C14.3352 20.8781 14.2329 20.8168 14.1501 20.734L13.8673 21.0168C13.9967 21.1462 14.1561 21.2417 14.3311 21.295L14.4476 20.9123ZM14.1501 20.734C13.9626 20.5465 13.8934 20.2688 13.9715 20.0148L13.5891 19.8973C13.4675 20.293 13.5751 20.7247 13.8673 21.0168L14.1501 20.734ZM14.6389 20.2188C14.6407 20.2131 14.6429 20.2103 14.6446 20.2085L14.3617 19.9257C14.312 19.9755 14.2775 20.035 14.2574 20.0984L14.6389 20.2188ZM14.6446 20.2085C14.6502 20.2029 14.6588 20.2008 14.6665 20.2031L14.7838 19.8207C14.6344 19.7749 14.472 19.8155 14.3617 19.9257L14.6446 20.2085ZM14.6672 20.2033C14.6704 20.2043 14.6732 20.2061 14.6746 20.2076L14.9574 19.9247C14.9085 19.8758 14.8481 19.8402 14.7831 19.8205L14.6672 20.2033ZM14.6746 20.2076C14.6798 20.2127 14.6821 20.2213 14.6797 20.2291L15.0623 20.3458C15.1076 20.1974 15.0677 20.035 14.9574 19.9247L14.6746 20.2076ZM14.6803 20.2273C14.6786 20.2327 14.676 20.2361 14.6746 20.2376L14.9574 20.5204C15.0065 20.4714 15.0416 20.4114 15.0617 20.3477L14.6803 20.2273ZM14.6746 20.2376C14.6688 20.2433 14.6599 20.2455 14.6524 20.2432L14.5366 20.6261C14.6853 20.6711 14.8474 20.6304 14.9574 20.5204L14.6746 20.2376ZM14.6525 20.2433C14.6496 20.2424 14.6467 20.2407 14.6446 20.2385L14.3618 20.5214C14.4109 20.5706 14.4713 20.6063 14.5365 20.6261L14.6525 20.2433ZM14.6446 20.2385C14.6394 20.2334 14.6371 20.2248 14.6395 20.217L14.2569 20.1002C14.2116 20.2487 14.2515 20.4111 14.3618 20.5214L14.6446 20.2385ZM12.3768 17.0389C12.4541 17.2935 12.384 17.5717 12.1953 17.7596L12.4776 18.0431C12.7709 17.7509 12.8799 17.3191 12.7595 16.9227L12.3768 17.0389ZM12.195 17.7599C12.1117 17.8432 12.0091 17.9049 11.8963 17.9396L12.0138 18.3219C12.1888 18.2682 12.3483 18.1723 12.4778 18.0428L12.195 17.7599ZM11.8966 17.9395C11.6417 18.0173 11.3644 17.9483 11.1771 17.761L10.8942 18.0438C11.1866 18.3361 11.6177 18.4429 12.0134 18.322L11.8966 17.9395ZM11.1771 17.761C11.0939 17.6777 11.033 17.576 10.9988 17.4634L10.6161 17.5799C10.6694 17.7549 10.7643 17.9139 10.8942 18.0438L11.1771 17.761ZM10.9988 17.4636C10.9215 17.2089 10.9911 16.9312 11.1803 16.7428L10.898 16.4594C10.6041 16.7521 10.4957 17.1835 10.616 17.5798L10.9988 17.4636ZM11.1806 16.7425C11.2638 16.6593 11.3665 16.5975 11.4793 16.5629L11.3618 16.1805C11.1868 16.2343 11.0273 16.3301 10.8977 16.4597L11.1806 16.7425ZM11.4793 16.5629C11.7333 16.4848 12.011 16.554 12.1985 16.7415L12.4813 16.4587C12.1892 16.1665 11.7575 16.0589 11.3618 16.1805L11.4793 16.5629ZM12.1985 16.7415C12.2813 16.8243 12.3426 16.9266 12.3768 17.039L12.7595 16.9225C12.7062 16.7475 12.6107 16.5881 12.4813 16.4587L12.1985 16.7415ZM11.708 17.2446C11.71 17.2512 11.7085 17.2595 11.702 17.266L11.9849 17.5488C12.0943 17.4395 12.1365 17.2778 12.0904 17.1273L11.708 17.2446ZM11.702 17.266C11.7001 17.268 11.6986 17.269 11.6978 17.2695C11.697 17.27 11.6961 17.2704 11.695 17.2707L11.8089 17.6541C11.8776 17.6337 11.9369 17.5968 11.9849 17.5488L11.702 17.266ZM11.6936 17.2711C11.6857 17.2735 11.6772 17.2712 11.6721 17.266L11.3892 17.5488C11.4995 17.6591 11.6619 17.699 11.8103 17.6537L11.6936 17.2711ZM11.6721 17.266C11.6706 17.2646 11.6688 17.2618 11.6678 17.2586L11.285 17.3745C11.3047 17.4395 11.3403 17.4999 11.3892 17.5488L11.6721 17.266ZM11.6676 17.2579C11.6652 17.2501 11.6676 17.2423 11.6723 17.2377L11.3919 16.9524C11.2798 17.0627 11.2394 17.226 11.2852 17.3752L11.6676 17.2579ZM11.6735 17.2365C11.6768 17.2332 11.6803 17.2312 11.6833 17.2303L11.5629 16.8488C11.4967 16.8698 11.4379 16.9064 11.3907 16.9536L11.6735 17.2365ZM11.6815 17.2309C11.689 17.2286 11.6976 17.2306 11.7035 17.2365L11.9864 16.9536C11.8758 16.8431 11.7135 16.8029 11.5647 16.8483L11.6815 17.2309ZM11.7035 17.2365C11.7049 17.2379 11.7068 17.2407 11.7078 17.2439L12.0906 17.1279C12.0709 17.063 12.0353 17.0026 11.9864 16.9536L11.7035 17.2365ZM20.9553 14.4042C21.0323 14.6584 20.9627 14.9364 20.7736 15.1254L21.0565 15.4083C21.3495 15.1152 21.458 14.6842 21.3382 14.2883L20.9553 14.4042ZM20.7736 15.1254C20.6904 15.2087 20.5877 15.2704 20.4749 15.3051L20.5924 15.6874C20.7674 15.6337 20.9269 15.5378 21.0565 15.4083L20.7736 15.1254ZM20.4753 15.305C20.2204 15.3828 19.9431 15.3138 19.7552 15.1259L19.4724 15.4088C19.7651 15.7015 20.1963 15.8084 20.5921 15.6875L20.4753 15.305ZM19.7552 15.1259C19.6724 15.0432 19.6111 14.9409 19.5769 14.8284L19.1942 14.9449C19.2475 15.1199 19.343 15.2794 19.4724 15.4088L19.7552 15.1259ZM19.577 14.8288C19.5001 14.5746 19.5701 14.2961 19.7587 14.1075L19.4759 13.8247C19.1834 14.1172 19.0744 14.5487 19.1941 14.9446L19.577 14.8288ZM19.7587 14.1075C19.842 14.0243 19.9444 13.9627 20.0571 13.9286L19.9412 13.5458C19.7652 13.5991 19.6054 13.6951 19.4759 13.8247L19.7587 14.1075ZM20.0579 13.9284C20.312 13.8503 20.5896 13.9195 20.7771 14.107L21.06 13.8242C20.7678 13.532 20.3361 13.4244 19.9404 13.546L20.0579 13.9284ZM20.7771 14.107C20.8599 14.1898 20.9212 14.292 20.9554 14.4045L21.3381 14.288C21.2848 14.113 21.1894 13.9535 21.06 13.8242L20.7771 14.107ZM20.2864 14.6093C20.2886 14.6167 20.2865 14.6257 20.2807 14.6315L20.5635 14.9143C20.6735 14.8043 20.7142 14.6422 20.6692 14.4935L20.2864 14.6093ZM20.2807 14.6315C20.2792 14.6329 20.2758 14.6354 20.2704 14.6372L20.3908 15.0186C20.4546 14.9985 20.5145 14.9634 20.5635 14.9143L20.2807 14.6315ZM20.2722 14.6366C20.2644 14.639 20.2559 14.6366 20.2507 14.6315L19.9678 14.9143C20.0781 15.0246 20.2405 15.0645 20.389 15.0192L20.2722 14.6366ZM20.2507 14.6315C20.2493 14.63 20.2474 14.6273 20.2464 14.624L19.8636 14.74C19.8833 14.805 19.9189 14.8654 19.9678 14.9143L20.2507 14.6315ZM20.2462 14.6234C20.2439 14.6157 20.246 14.6071 20.2517 14.6015L19.9688 14.3186C19.8586 14.4288 19.818 14.5913 19.8638 14.7407L20.2462 14.6234ZM20.2517 14.6015C20.2534 14.5997 20.2562 14.5976 20.262 14.5958L20.1415 14.2143C20.0781 14.2343 20.0186 14.2689 19.9688 14.3186L20.2517 14.6015ZM20.2601 14.5963C20.268 14.5939 20.2765 14.5963 20.2816 14.6015L20.5645 14.3186C20.4542 14.2083 20.2918 14.1685 20.1434 14.2138L20.2601 14.5963ZM20.2816 14.6015C20.2838 14.6036 20.2855 14.6065 20.2864 14.6094L20.6692 14.4934C20.6494 14.4282 20.6137 14.3678 20.5645 14.3186L20.2816 14.6015Z" fill="white" mask="url(#path-1-outside-1)"/>
</g>
<defs>
<clipPath id="clip0">
<rect width="32" height="32" fill="white"/>
</clipPath>
</defs>
</svg>
