<svg width="32" height="32" viewBox="0 0 32 32" fill="none" xmlns="http://www.w3.org/2000/svg">
<path d="M15.2001 2.00061C15.0999 1.99663 14.9962 2.01214 14.8944 2.05032L13.5963 2.53406L9.70197 3.95944L4.50907 5.86856C4.10179 6.02129 3.89795 6.45412 4.05068 6.8614C4.1525 7.16686 4.45816 7.3705 4.76362 7.3705C4.83998 7.3705 4.9418 7.34524 5.01817 7.31978L5.60333 7.11595L7.71629 12.9199C8.42902 14.8544 10.2617 16.1778 12.3235 16.1778C12.8835 16.1778 13.4689 16.0762 14.0034 15.8725H14.0293C16.5748 14.9307 17.873 12.105 16.9566 9.55952L14.8437 3.70489L15.4293 3.50155C15.8366 3.34882 16.0399 2.91599 15.8872 2.50871C15.7727 2.20325 15.5008 2.01254 15.2001 2.00061ZM13.4183 4.21399L15.5054 10.0686C16.1418 11.825 15.2507 13.7853 13.4944 14.4472H13.469C13.0872 14.5744 12.7053 14.6505 12.3235 14.6505C10.9235 14.6505 9.65066 13.7599 9.16702 12.4108L7.05456 6.55614L7.94548 6.22503L13.4183 4.21399ZM26.0289 14.8076C25.9323 14.8016 25.834 14.8162 25.7386 14.8543L23.473 15.6433C23.0657 15.7706 22.8619 16.229 23.0146 16.6108C23.1164 16.9163 23.4221 17.1199 23.7275 17.1199C23.8039 17.1199 23.9057 17.0942 23.9821 17.0687L26.2477 16.2797C26.6549 16.1524 26.8583 15.6945 26.7055 15.3127C26.591 15.0264 26.3188 14.8255 26.0289 14.8076ZM17.8475 15.3127C17.4148 15.3127 17.0839 15.6436 17.0839 16.0764V16.4323H14.5384C14.3348 16.4323 14.1307 16.5088 14.0034 16.6615L13.1125 17.5525H8.78519C8.45428 17.5525 8.14922 17.7818 8.0474 18.1128L7.15648 21.2434C7.08011 21.4725 7.13102 21.727 7.28375 21.9051C7.43648 22.1088 7.66518 22.2109 7.89427 22.2109H7.99619L6.44354 27.6837C6.29081 28.2437 6.39243 28.8289 6.7488 29.2871C7.10517 29.7453 7.64002 30 8.20003 30C8.98913 30 9.70157 29.4909 9.93067 28.7273L12.8073 22.1855H13.3164V25.8765C13.3164 26.3092 13.6473 26.6402 14.08 26.6402C14.5127 26.6402 14.8437 26.3092 14.8437 25.8765V22.1855H17.0839V22.5415C17.0839 22.9743 17.4148 23.3052 17.8475 23.3052H19.6294C20.2912 23.3052 20.8256 22.7709 20.8256 22.0836V16.5343C20.851 15.847 20.2912 15.3127 19.6294 15.3127H17.8475ZM18.6365 16.84H19.3236V21.7779H18.6365V21.4219V17.196V16.84ZM6.13828 17.7563C5.70555 17.7563 5.37464 18.0872 5.37464 18.5199V20.4798C5.37464 20.9125 5.70555 21.2434 6.13828 21.2434C6.57102 21.2434 6.90193 20.9125 6.90193 20.4798V18.5199C6.90193 18.0872 6.57102 17.7563 6.13828 17.7563ZM14.869 17.9343H17.1092V20.6324H8.91993L9.37086 19.0544H13.4436C13.6473 19.0544 13.8508 18.9779 13.9781 18.8252L14.869 17.9343ZM23.7275 18.5453C23.2948 18.5453 22.9639 18.8762 22.9639 19.3089C22.9639 19.7417 23.2948 20.0726 23.7275 20.0726H26.7055C27.1383 20.0726 27.4692 19.7417 27.4692 19.3089C27.4692 18.8762 27.1383 18.5453 26.7055 18.5453H23.7275ZM23.6768 21.5134C23.3773 21.5349 23.11 21.7207 23.0146 22.0071C22.8873 22.4143 23.0911 22.8473 23.473 22.9745L25.7386 23.7636C25.8149 23.789 25.9167 23.8143 25.9931 23.8143C26.2986 23.8143 26.6037 23.6106 26.7055 23.3052C26.8583 22.8979 26.6295 22.4655 26.2477 22.3382L23.9821 21.5492C23.8802 21.5174 23.7766 21.5062 23.6768 21.5134ZM9.32015 23.2037H10.7202L8.53065 28.1416C8.50519 28.167 8.50529 28.2181 8.50529 28.2435C8.47984 28.3708 8.35266 28.4727 8.22539 28.4727C8.09811 28.4727 8.02165 28.3963 7.99619 28.3454C7.97074 28.2945 7.92003 28.1928 7.94548 28.0655L9.32015 23.2037Z" fill="white"/>
</svg>
