<svg width="32" height="32" viewBox="0 0 32 32" fill="none" xmlns="http://www.w3.org/2000/svg">
<path opacity="0.3" d="M28.975 3.67425C29.2326 3.41661 29.6493 3.41661 29.9069 3.67425C30.1645 3.93181 30.1646 4.34902 29.9069 4.60618L28.975 3.67425ZM28.975 3.67425L27.8594 4.78983L27.2103 4.14024L28.3253 3.02516C28.583 2.76752 28.583 2.35088 28.3253 2.09323C28.0677 1.83559 27.651 1.83559 27.3934 2.09323L26.2784 3.20828M28.975 3.67425L26.2784 3.20828M4.78983 27.8594L3.67425 28.975C3.41661 29.2326 3.41661 29.6493 3.67425 29.9069C3.80273 30.0354 3.97159 30.1 4.14021 30.1C4.30883 30.1 4.4777 30.0354 4.60618 29.9069L5.72179 28.7913L6.04633 29.1158C6.17481 29.2443 6.34368 29.3089 6.5123 29.3089C6.68092 29.3089 6.84978 29.2443 6.97826 29.1158L29.1158 6.97826C29.3735 6.72062 29.3735 6.30398 29.1158 6.04633L28.7913 5.72179L29.9068 4.60627L4.78983 27.8594ZM4.78983 27.8594L4.14024 27.2103L3.02516 28.3253C2.89668 28.4538 2.72782 28.5184 2.5592 28.5184C2.39058 28.5184 2.22171 28.4538 2.09323 28.3253C1.83559 28.0677 1.83559 27.651 2.09323 27.3934L3.20828 26.2783L2.88393 25.954C2.75982 25.8305 2.69065 25.663 2.69065 25.4878C2.69065 25.3126 2.75992 25.1457 2.88374 25.0219L25.0217 2.88393L4.78983 27.8594ZM26.2784 3.20828L25.9538 2.88374C25.83 2.75992 25.6631 2.69065 25.4878 2.69065C25.3128 2.69065 25.1453 2.75975 25.0219 2.88374L26.2784 3.20828ZM6.51232 27.718L6.18775 27.3934L6.12033 27.4608L6.18774 27.3934L4.28167 25.4879L4.93126 24.8387L7.16191 27.0688L6.51232 27.718ZM27.3934 6.18718L27.4641 6.11648L27.3934 6.18719L27.718 6.51176L27.0688 7.16135L24.8387 4.93071L25.4879 4.28111L27.3934 6.18718ZM8.0933 26.1369L5.86266 23.9068L23.9063 5.86322L26.1364 8.09386L8.0933 26.1369Z" fill="white" stroke="white" stroke-width="0.2"/>
<path d="M10.7905 11.7224C10.9189 11.8509 11.0878 11.9155 11.2564 11.9155C11.425 11.9155 11.5939 11.8509 11.7224 11.7224C11.98 11.4647 11.98 11.0481 11.7224 10.7905L10.1414 9.20944C9.88373 8.9518 9.46709 8.9518 9.20944 9.20944C8.9518 9.46709 8.9518 9.88373 9.20944 10.1414L10.7905 11.7224Z" fill="white" stroke="white" stroke-width="0.2"/>
<path d="M15.3745 8.30213L15.3745 8.30206L14.584 5.93059L14.584 5.93054L14.6788 5.89891C14.581 5.60597 14.7392 5.28954 15.0322 5.1917L15.3745 8.30213ZM15.3745 8.30213C15.4668 8.57835 15.7239 8.75283 15.9999 8.75283C16.0689 8.75283 16.1394 8.74156 16.2082 8.71863L16.2082 8.71861C16.5535 8.6033 16.7401 8.23027 16.6247 7.88488L15.3745 8.30213Z" fill="white" stroke="white" stroke-width="0.2"/>
<path d="M5.51368 15.8352L5.51373 15.8352L7.88526 16.6257C7.95464 16.6488 8.02517 16.6593 8.09354 16.6593C8.36955 16.6593 8.62664 16.4849 8.71893 16.2086L8.71894 16.2086C8.83429 15.8632 8.64771 15.4902 8.30244 15.3749L8.30239 15.3749L5.93113 14.5844C5.93109 14.5844 5.93104 14.5844 5.93099 14.5844C5.58406 14.4677 5.21174 14.6565 5.09715 15.001L5.19203 15.0325L5.09718 15.0009C4.98186 15.3462 5.16833 15.7198 5.51368 15.8352Z" fill="white" stroke="white" stroke-width="0.2"/>
<path d="M21.2097 20.2778C20.9521 20.0202 20.5354 20.0202 20.2778 20.2778C20.0202 20.5354 20.0202 20.9521 20.2778 21.2097L21.8588 22.7907C21.9873 22.9192 22.1562 22.9838 22.3248 22.9838C22.4934 22.9838 22.6623 22.9192 22.7907 22.7907C23.0484 22.5331 23.0484 22.1165 22.7907 21.8588L21.2097 20.2778Z" fill="white" stroke="white" stroke-width="0.2"/>
<path d="M16.1655 26.4866L16.1655 26.4866L16.9676 26.8083L16.9991 26.9032C16.9992 26.9032 16.9992 26.9031 16.9992 26.9031C17.344 26.7884 17.5311 26.4153 17.4158 26.0694L16.6253 23.698C16.6253 23.698 16.6253 23.6979 16.6253 23.6979C16.5107 23.3537 16.1385 23.1641 15.7914 23.2814C15.446 23.3962 15.2598 23.7693 15.375 24.115L16.1655 26.4866Z" fill="white" stroke="white" stroke-width="0.2"/>
<path d="M26.4865 16.1654L26.4865 16.1654L24.1152 15.375C24.1151 15.3749 24.1151 15.3749 24.1151 15.3749C23.7674 15.2582 23.3964 15.4472 23.2813 15.7913L23.2813 15.7914C23.1659 16.1368 23.3525 16.5098 23.6978 16.6251L23.6978 16.6252L26.0693 17.4157C26.1381 17.4386 26.2086 17.4499 26.2776 17.4499C26.5535 17.4499 26.8107 17.2755 26.9025 16.9991C27.0184 16.6537 26.8317 16.2807 26.4865 16.1654Z" fill="white" stroke="white" stroke-width="0.2"/>
</svg>
