<svg width="32" height="32" viewBox="0 0 32 32" fill="none" xmlns="http://www.w3.org/2000/svg">
<g opacity="0.2">
<mask id="path-1-outside-1" maskUnits="userSpaceOnUse" x="0" y="9.79736" width="32" height="12" fill="black">
<rect fill="white" y="9.79736" width="32" height="12"/>
<path fill-rule="evenodd" clip-rule="evenodd" d="M18.8816 10.8014C18.452 10.8087 18.0308 10.8254 17.629 10.848C16.8253 10.8933 16.1003 10.9629 15.5437 11.0321C15.2654 11.0666 15.0293 11.101 14.8447 11.1325C14.6601 11.164 14.54 11.1863 14.4351 11.2224C14.2536 11.285 14.0025 11.4211 13.6437 11.6156L13.5708 11.6551C13.1954 11.8584 12.7419 12.1108 12.2909 12.3618L12.2906 12.3619L12.2094 12.4071C11.7318 12.6729 11.2623 12.9338 10.9008 13.1278C10.7201 13.2248 10.566 13.3052 10.4546 13.3597C10.399 13.3869 10.3536 13.4078 10.3251 13.4197C10.3178 13.4227 10.3099 13.4248 10.3034 13.4261C10.2929 13.4272 10.2894 13.428 10.2903 13.428C10.2912 13.4281 10.2964 13.4275 10.3034 13.4261C10.3098 13.4254 10.3188 13.4246 10.3311 13.4237C10.31 13.4255 10.2893 13.4296 10.2692 13.4358C10.2534 13.4333 10.2373 13.4321 10.2211 13.4321C10.2141 13.4322 10.2071 13.4325 10.2002 13.4331C7.60184 13.597 5.62554 13.9224 4.24795 14.2417C3.55916 14.4014 3.02018 14.5595 2.62568 14.6962C2.23118 14.833 2.00317 14.9263 1.84102 15.0443C1.54233 15.2615 1.33232 15.5861 1.2092 15.9801C1.20531 15.9927 1.20224 16.0054 1.20002 16.0184C1.06633 16.7871 1 17.6083 1 18.4818C1 18.9694 1.15528 19.3956 1.48416 19.6673C1.81229 19.9384 2.26541 20.0386 2.80652 20.0215H3.84333C3.92321 20.0215 3.99982 19.9897 4.0563 19.9332C4.11279 19.8767 4.14452 19.8001 4.14453 19.7203V18.8077C4.14453 17.4598 5.23306 16.3712 6.581 16.3712C7.92893 16.3712 9.01758 17.4598 9.01758 18.8077V19.7203C9.01758 19.8001 9.04932 19.8767 9.10581 19.9332C9.16229 19.9897 9.2389 20.0215 9.31878 20.0215H22.9563C22.973 20.0243 22.99 20.0258 23.0071 20.0258C23.047 20.0258 23.0866 20.0178 23.1234 20.0024C23.1602 19.987 23.1936 19.9645 23.2216 19.936L23.2228 19.9349L23.2229 19.9348C23.2513 19.9067 23.2739 19.8733 23.2893 19.8365C23.3047 19.7997 23.3126 19.7602 23.3126 19.7203C23.3126 19.7032 23.3112 19.6863 23.3083 19.6695V18.8077C23.3083 17.4598 24.397 16.3713 25.7449 16.3713C27.0928 16.3713 28.1814 17.4598 28.1814 18.8077V19.7203C28.1814 19.7637 28.1908 19.8066 28.2089 19.8461C28.2271 19.8855 28.2535 19.9206 28.2865 19.9488C28.3194 19.9771 28.3581 19.9979 28.3998 20.0099C28.4416 20.0218 28.4854 20.0245 28.5283 20.018L30.2231 19.7572C30.3013 19.7452 30.3717 19.7028 30.419 19.6393C30.8634 19.0421 31 17.9934 31 16.396C31 15.5973 30.9569 14.9503 30.8648 14.4437C30.7727 13.937 30.645 13.5616 30.3869 13.3116C30.3307 13.2572 30.2555 13.2267 30.1773 13.2267H28.0452C26.4363 12.2113 24.6456 11.4952 22.6779 11.0821C21.5344 10.842 20.1703 10.7795 18.8816 10.8014ZM10.238 14.0342C10.263 14.0329 10.2875 14.0285 10.311 14.0213C10.3348 14.025 10.3591 14.0259 10.3832 14.0239C10.4706 14.0176 10.4983 14.0039 10.5289 13.9887C10.5375 13.9845 10.5463 13.9801 10.5568 13.9757C10.6044 13.9559 10.6575 13.9311 10.7195 13.9008C10.8435 13.8401 11.0016 13.7575 11.1858 13.6587C11.554 13.461 12.0246 13.1994 12.5024 12.9335L12.5675 12.8973C13.024 12.6432 13.4827 12.3879 13.8577 12.1849C14.2505 11.9722 14.5888 11.8067 14.6315 11.792C14.6448 11.7874 14.7738 11.7557 14.946 11.7264C15.1182 11.697 15.3468 11.6635 15.618 11.6299C16.1603 11.5625 16.8735 11.4939 17.6627 11.4495C19.2412 11.3607 21.1293 11.3725 22.5541 11.6716C24.4877 12.0776 26.2336 12.7808 27.7989 13.7817C27.8473 13.8127 27.9036 13.8291 27.9611 13.8291H30.0307C30.1124 13.959 30.2078 14.1978 30.272 14.5513C30.3537 15.0007 30.3976 15.6194 30.3976 16.396C30.3976 17.8297 30.2171 18.7795 29.9921 19.1833L28.7838 19.3692V18.8077C28.7838 17.1337 27.4189 15.7689 25.7449 15.7689C24.0709 15.7689 22.7059 17.1337 22.7059 18.8077V19.4191H9.61999V18.8077C9.61999 17.1337 8.25499 15.7688 6.581 15.7688C4.907 15.7688 3.54212 17.1337 3.54212 18.8077V19.4191H2.8004L2.79064 19.4192C2.33394 19.4341 2.0387 19.344 1.86785 19.2029C1.69699 19.0618 1.60241 18.8524 1.60241 18.4818C1.60241 17.6479 1.66611 16.8701 1.79043 16.1463C1.88441 15.8541 2.01931 15.6595 2.19541 15.5314C2.21253 15.5189 2.45348 15.3935 2.82311 15.2654C3.19274 15.1372 3.71308 14.9841 4.38397 14.8286C5.72574 14.5175 7.67058 14.1962 10.238 14.0342ZM4.43738 18.7983C4.43738 18.2296 4.66328 17.6838 5.06509 17.282C5.4669 16.8802 6.01268 16.6543 6.58135 16.6543C7.14943 16.6543 7.69521 16.8802 8.09702 17.282C8.49882 17.6838 8.72473 18.2296 8.72473 18.7983C8.72473 19.3663 8.49882 19.9121 8.09702 20.3139C7.69521 20.7157 7.14943 20.9416 6.58135 20.9416C6.01268 20.9416 5.4669 20.7157 5.06509 20.3139C4.66328 19.9121 4.43738 19.3663 4.43738 18.7983ZM5.03979 18.7983C5.03979 18.3892 5.20244 17.9971 5.49099 17.7079C5.78015 17.4194 6.17232 17.2567 6.58135 17.2567C6.98979 17.2567 7.38196 17.4194 7.67111 17.7079C7.95967 17.9971 8.12232 18.3892 8.12232 18.7983C8.12232 19.2067 7.95967 19.5989 7.67111 19.888C7.38196 20.1766 6.98979 20.3392 6.58135 20.3392C6.17232 20.3392 5.78015 20.1766 5.49099 19.888C5.20244 19.5989 5.03979 19.2067 5.03979 18.7983ZM23.5885 18.7983C23.5885 18.2296 23.8144 17.6838 24.2162 17.282C24.618 16.8802 25.1638 16.6543 25.7319 16.6543C26.3005 16.6543 26.8463 16.8802 27.2481 17.282C27.6499 17.6838 27.8759 18.2296 27.8759 18.7983C27.8759 19.3663 27.6499 19.9121 27.2481 20.3139C26.8463 20.7157 26.3005 20.9416 25.7319 20.9416C25.1638 20.9416 24.618 20.7157 24.2162 20.3139C23.8144 19.9121 23.5885 19.3663 23.5885 18.7983ZM24.1909 18.7983C24.1909 18.3892 24.3536 17.9971 24.6421 17.7079C24.9313 17.4194 25.3234 17.2567 25.7319 17.2567C26.1409 17.2567 26.5331 17.4194 26.8222 17.7079C27.1108 17.9971 27.2734 18.3892 27.2734 18.7983C27.2734 19.2067 27.1108 19.5989 26.8222 19.888C26.5331 20.1766 26.1409 20.3392 25.7319 20.3392C25.3234 20.3392 24.9313 20.1766 24.6421 19.888C24.3536 19.5989 24.1909 19.2067 24.1909 18.7983ZM14.7906 12.0693C16.6422 11.8397 18.2453 11.7316 19.6057 11.7482C20.422 11.7582 21.1509 11.8131 21.7936 11.9137C23.4847 12.1784 24.7756 12.5972 25.6745 13.2052C25.7153 13.2328 25.7487 13.2699 25.7718 13.3134C25.7949 13.3569 25.807 13.4054 25.807 13.4546V14.2152C25.807 14.2947 25.7756 14.3709 25.7196 14.4274C25.6636 14.4838 25.5875 14.5158 25.508 14.5164L17.3629 14.5779L11.2449 14.625C11.1778 14.6255 11.1125 14.6035 11.0593 14.5627C11.0061 14.5218 10.968 14.4643 10.9512 14.3993C10.9343 14.3344 10.9397 14.2657 10.9663 14.2041C10.993 14.1425 11.0394 14.0916 11.0983 14.0594L14.6835 12.1039C14.7167 12.0858 14.753 12.074 14.7906 12.0693ZM21.7004 12.5088C20.8915 12.3822 19.9154 12.331 18.7752 12.3568C17.6497 12.3822 16.3613 12.4844 14.9187 12.6617L12.4407 14.0134L17.3583 13.9755L25.2046 13.9162V13.6301C24.4212 13.1391 23.2594 12.7528 21.7004 12.5088Z"/>
</mask>
<path fill-rule="evenodd" clip-rule="evenodd" d="M18.8816 10.8014C18.452 10.8087 18.0308 10.8254 17.629 10.848C16.8253 10.8933 16.1003 10.9629 15.5437 11.0321C15.2654 11.0666 15.0293 11.101 14.8447 11.1325C14.6601 11.164 14.54 11.1863 14.4351 11.2224C14.2536 11.285 14.0025 11.4211 13.6437 11.6156L13.5708 11.6551C13.1954 11.8584 12.7419 12.1108 12.2909 12.3618L12.2906 12.3619L12.2094 12.4071C11.7318 12.6729 11.2623 12.9338 10.9008 13.1278C10.7201 13.2248 10.566 13.3052 10.4546 13.3597C10.399 13.3869 10.3536 13.4078 10.3251 13.4197C10.3178 13.4227 10.3099 13.4248 10.3034 13.4261C10.2929 13.4272 10.2894 13.428 10.2903 13.428C10.2912 13.4281 10.2964 13.4275 10.3034 13.4261C10.3098 13.4254 10.3188 13.4246 10.3311 13.4237C10.31 13.4255 10.2893 13.4296 10.2692 13.4358C10.2534 13.4333 10.2373 13.4321 10.2211 13.4321C10.2141 13.4322 10.2071 13.4325 10.2002 13.4331C7.60184 13.597 5.62554 13.9224 4.24795 14.2417C3.55916 14.4014 3.02018 14.5595 2.62568 14.6962C2.23118 14.833 2.00317 14.9263 1.84102 15.0443C1.54233 15.2615 1.33232 15.5861 1.2092 15.9801C1.20531 15.9927 1.20224 16.0054 1.20002 16.0184C1.06633 16.7871 1 17.6083 1 18.4818C1 18.9694 1.15528 19.3956 1.48416 19.6673C1.81229 19.9384 2.26541 20.0386 2.80652 20.0215H3.84333C3.92321 20.0215 3.99982 19.9897 4.0563 19.9332C4.11279 19.8767 4.14452 19.8001 4.14453 19.7203V18.8077C4.14453 17.4598 5.23306 16.3712 6.581 16.3712C7.92893 16.3712 9.01758 17.4598 9.01758 18.8077V19.7203C9.01758 19.8001 9.04932 19.8767 9.10581 19.9332C9.16229 19.9897 9.2389 20.0215 9.31878 20.0215H22.9563C22.973 20.0243 22.99 20.0258 23.0071 20.0258C23.047 20.0258 23.0866 20.0178 23.1234 20.0024C23.1602 19.987 23.1936 19.9645 23.2216 19.936L23.2228 19.9349L23.2229 19.9348C23.2513 19.9067 23.2739 19.8733 23.2893 19.8365C23.3047 19.7997 23.3126 19.7602 23.3126 19.7203C23.3126 19.7032 23.3112 19.6863 23.3083 19.6695V18.8077C23.3083 17.4598 24.397 16.3713 25.7449 16.3713C27.0928 16.3713 28.1814 17.4598 28.1814 18.8077V19.7203C28.1814 19.7637 28.1908 19.8066 28.2089 19.8461C28.2271 19.8855 28.2535 19.9206 28.2865 19.9488C28.3194 19.9771 28.3581 19.9979 28.3998 20.0099C28.4416 20.0218 28.4854 20.0245 28.5283 20.018L30.2231 19.7572C30.3013 19.7452 30.3717 19.7028 30.419 19.6393C30.8634 19.0421 31 17.9934 31 16.396C31 15.5973 30.9569 14.9503 30.8648 14.4437C30.7727 13.937 30.645 13.5616 30.3869 13.3116C30.3307 13.2572 30.2555 13.2267 30.1773 13.2267H28.0452C26.4363 12.2113 24.6456 11.4952 22.6779 11.0821C21.5344 10.842 20.1703 10.7795 18.8816 10.8014ZM10.238 14.0342C10.263 14.0329 10.2875 14.0285 10.311 14.0213C10.3348 14.025 10.3591 14.0259 10.3832 14.0239C10.4706 14.0176 10.4983 14.0039 10.5289 13.9887C10.5375 13.9845 10.5463 13.9801 10.5568 13.9757C10.6044 13.9559 10.6575 13.9311 10.7195 13.9008C10.8435 13.8401 11.0016 13.7575 11.1858 13.6587C11.554 13.461 12.0246 13.1994 12.5024 12.9335L12.5675 12.8973C13.024 12.6432 13.4827 12.3879 13.8577 12.1849C14.2505 11.9722 14.5888 11.8067 14.6315 11.792C14.6448 11.7874 14.7738 11.7557 14.946 11.7264C15.1182 11.697 15.3468 11.6635 15.618 11.6299C16.1603 11.5625 16.8735 11.4939 17.6627 11.4495C19.2412 11.3607 21.1293 11.3725 22.5541 11.6716C24.4877 12.0776 26.2336 12.7808 27.7989 13.7817C27.8473 13.8127 27.9036 13.8291 27.9611 13.8291H30.0307C30.1124 13.959 30.2078 14.1978 30.272 14.5513C30.3537 15.0007 30.3976 15.6194 30.3976 16.396C30.3976 17.8297 30.2171 18.7795 29.9921 19.1833L28.7838 19.3692V18.8077C28.7838 17.1337 27.4189 15.7689 25.7449 15.7689C24.0709 15.7689 22.7059 17.1337 22.7059 18.8077V19.4191H9.61999V18.8077C9.61999 17.1337 8.25499 15.7688 6.581 15.7688C4.907 15.7688 3.54212 17.1337 3.54212 18.8077V19.4191H2.8004L2.79064 19.4192C2.33394 19.4341 2.0387 19.344 1.86785 19.2029C1.69699 19.0618 1.60241 18.8524 1.60241 18.4818C1.60241 17.6479 1.66611 16.8701 1.79043 16.1463C1.88441 15.8541 2.01931 15.6595 2.19541 15.5314C2.21253 15.5189 2.45348 15.3935 2.82311 15.2654C3.19274 15.1372 3.71308 14.9841 4.38397 14.8286C5.72574 14.5175 7.67058 14.1962 10.238 14.0342ZM4.43738 18.7983C4.43738 18.2296 4.66328 17.6838 5.06509 17.282C5.4669 16.8802 6.01268 16.6543 6.58135 16.6543C7.14943 16.6543 7.69521 16.8802 8.09702 17.282C8.49882 17.6838 8.72473 18.2296 8.72473 18.7983C8.72473 19.3663 8.49882 19.9121 8.09702 20.3139C7.69521 20.7157 7.14943 20.9416 6.58135 20.9416C6.01268 20.9416 5.4669 20.7157 5.06509 20.3139C4.66328 19.9121 4.43738 19.3663 4.43738 18.7983ZM5.03979 18.7983C5.03979 18.3892 5.20244 17.9971 5.49099 17.7079C5.78015 17.4194 6.17232 17.2567 6.58135 17.2567C6.98979 17.2567 7.38196 17.4194 7.67111 17.7079C7.95967 17.9971 8.12232 18.3892 8.12232 18.7983C8.12232 19.2067 7.95967 19.5989 7.67111 19.888C7.38196 20.1766 6.98979 20.3392 6.58135 20.3392C6.17232 20.3392 5.78015 20.1766 5.49099 19.888C5.20244 19.5989 5.03979 19.2067 5.03979 18.7983ZM23.5885 18.7983C23.5885 18.2296 23.8144 17.6838 24.2162 17.282C24.618 16.8802 25.1638 16.6543 25.7319 16.6543C26.3005 16.6543 26.8463 16.8802 27.2481 17.282C27.6499 17.6838 27.8759 18.2296 27.8759 18.7983C27.8759 19.3663 27.6499 19.9121 27.2481 20.3139C26.8463 20.7157 26.3005 20.9416 25.7319 20.9416C25.1638 20.9416 24.618 20.7157 24.2162 20.3139C23.8144 19.9121 23.5885 19.3663 23.5885 18.7983ZM24.1909 18.7983C24.1909 18.3892 24.3536 17.9971 24.6421 17.7079C24.9313 17.4194 25.3234 17.2567 25.7319 17.2567C26.1409 17.2567 26.5331 17.4194 26.8222 17.7079C27.1108 17.9971 27.2734 18.3892 27.2734 18.7983C27.2734 19.2067 27.1108 19.5989 26.8222 19.888C26.5331 20.1766 26.1409 20.3392 25.7319 20.3392C25.3234 20.3392 24.9313 20.1766 24.6421 19.888C24.3536 19.5989 24.1909 19.2067 24.1909 18.7983ZM14.7906 12.0693C16.6422 11.8397 18.2453 11.7316 19.6057 11.7482C20.422 11.7582 21.1509 11.8131 21.7936 11.9137C23.4847 12.1784 24.7756 12.5972 25.6745 13.2052C25.7153 13.2328 25.7487 13.2699 25.7718 13.3134C25.7949 13.3569 25.807 13.4054 25.807 13.4546V14.2152C25.807 14.2947 25.7756 14.3709 25.7196 14.4274C25.6636 14.4838 25.5875 14.5158 25.508 14.5164L17.3629 14.5779L11.2449 14.625C11.1778 14.6255 11.1125 14.6035 11.0593 14.5627C11.0061 14.5218 10.968 14.4643 10.9512 14.3993C10.9343 14.3344 10.9397 14.2657 10.9663 14.2041C10.993 14.1425 11.0394 14.0916 11.0983 14.0594L14.6835 12.1039C14.7167 12.0858 14.753 12.074 14.7906 12.0693ZM21.7004 12.5088C20.8915 12.3822 19.9154 12.331 18.7752 12.3568C17.6497 12.3822 16.3613 12.4844 14.9187 12.6617L12.4407 14.0134L17.3583 13.9755L25.2046 13.9162V13.6301C24.4212 13.1391 23.2594 12.7528 21.7004 12.5088Z" fill="white"/>
<path d="M17.629 10.848L17.6177 10.6484V10.6484L17.629 10.848ZM18.8816 10.8014L18.8782 10.6015L18.8816 10.8014ZM15.5437 11.0321L15.5191 10.8336V10.8336L15.5437 11.0321ZM14.8447 11.1325L14.8783 11.3297H14.8783L14.8447 11.1325ZM14.4351 11.2224L14.5003 11.4115L14.5003 11.4115L14.4351 11.2224ZM13.6437 11.6156L13.739 11.7914L13.739 11.7914L13.6437 11.6156ZM13.5708 11.6551L13.6661 11.8309L13.6661 11.8309L13.5708 11.6551ZM12.2909 12.3618L12.388 12.5366L12.3881 12.5365L12.2909 12.3618ZM12.2906 12.3619L12.1936 12.1871L12.1934 12.1872L12.2906 12.3619ZM12.2094 12.4071L12.3067 12.5819L12.3067 12.5819L12.2094 12.4071ZM10.9008 13.1278L10.9954 13.304L10.9008 13.1278ZM10.4546 13.3597L10.3667 13.18L10.3667 13.18L10.4546 13.3597ZM10.3251 13.4197L10.2482 13.2351L10.2482 13.2351L10.3251 13.4197ZM10.2903 13.428L10.3067 13.2287L10.3067 13.2287L10.2903 13.428ZM10.3311 13.4237L10.3489 13.6229L10.3157 13.2242L10.3311 13.4237ZM10.2692 13.4358L10.2381 13.6334L10.2838 13.6406L10.3281 13.6269L10.2692 13.4358ZM10.2211 13.4321L10.2203 13.2321L10.2191 13.2321L10.2211 13.4321ZM10.2002 13.4331L10.2128 13.6327L10.2161 13.6324L10.2002 13.4331ZM4.24795 14.2417L4.29312 14.4366L4.24795 14.2417ZM2.62568 14.6962L2.6912 14.8852H2.6912L2.62568 14.6962ZM1.84102 15.0443L1.95865 15.206L1.95866 15.206L1.84102 15.0443ZM1.2092 15.9801L1.0183 15.9205L1.01818 15.9209L1.2092 15.9801ZM1.20002 16.0184L1.39706 16.0526L1.39713 16.0523L1.20002 16.0184ZM1.48416 19.6673L1.61154 19.5131H1.61154L1.48416 19.6673ZM2.80652 20.0215V19.8214L2.80019 19.8216L2.80652 20.0215ZM3.84333 20.0215V20.2215H3.84335L3.84333 20.0215ZM4.14453 19.7203L4.34453 19.7203V19.7203H4.14453ZM9.01758 19.7203H8.81758V19.7203L9.01758 19.7203ZM9.31878 20.0215L9.31876 20.2215H9.31878V20.0215ZM22.9563 20.0215L22.99 19.8243L22.9733 19.8215H22.9563V20.0215ZM23.1234 20.0024L23.2006 20.1869L23.1234 20.0024ZM23.2216 19.936L23.364 20.0765L23.3644 20.0761L23.2216 19.936ZM23.2228 19.9349L23.0819 19.7929L23.08 19.7948L23.2228 19.9349ZM23.2229 19.9348L23.0825 19.7923L23.082 19.7928L23.2229 19.9348ZM23.2893 19.8365L23.4738 19.9137L23.4738 19.9137L23.2893 19.8365ZM23.3083 19.6695H23.1083V19.6865L23.1112 19.7032L23.3083 19.6695ZM28.1814 19.7203H27.9814V19.7203L28.1814 19.7203ZM28.2865 19.9488L28.1562 20.1006L28.1562 20.1006L28.2865 19.9488ZM28.5283 20.018L28.5587 20.2156L28.5588 20.2156L28.5283 20.018ZM30.2231 19.7572L30.1927 19.5595L30.1927 19.5596L30.2231 19.7572ZM30.419 19.6393L30.5794 19.7587L30.5794 19.7587L30.419 19.6393ZM30.8648 14.4437L31.0616 14.4079V14.4079L30.8648 14.4437ZM30.3869 13.3116L30.526 13.1679L30.526 13.1679L30.3869 13.3116ZM30.1773 13.2267L30.1773 13.0267H30.1773V13.2267ZM28.0452 13.2267L27.9385 13.3959L27.9874 13.4267H28.0452V13.2267ZM22.6779 11.0821L22.719 10.8863L22.719 10.8863L22.6779 11.0821ZM10.311 14.0213L10.3421 13.8237L10.2964 13.8165L10.2521 13.8301L10.311 14.0213ZM10.238 14.0342L10.2276 13.8344L10.2255 13.8346L10.238 14.0342ZM10.3832 14.0239L10.3689 13.8244L10.3664 13.8246L10.3832 14.0239ZM10.5289 13.9887L10.4401 13.8095L10.4401 13.8095L10.5289 13.9887ZM10.5568 13.9757L10.4799 13.7911L10.4799 13.7911L10.5568 13.9757ZM10.7195 13.9008L10.8074 14.0804L10.8074 14.0804L10.7195 13.9008ZM11.1858 13.6587L11.0912 13.4824H11.0912L11.1858 13.6587ZM12.5024 12.9335L12.5996 13.1083L12.5996 13.1083L12.5024 12.9335ZM12.5675 12.8973L12.6648 13.072L12.6648 13.072L12.5675 12.8973ZM13.8577 12.1849L13.9529 12.3607V12.3607L13.8577 12.1849ZM14.6315 11.792L14.5663 11.6029L14.5663 11.6029L14.6315 11.792ZM14.946 11.7264L14.9124 11.5292L14.946 11.7264ZM15.618 11.6299L15.6426 11.8284L15.618 11.6299ZM17.6627 11.4495L17.674 11.6492L17.6627 11.4495ZM22.5541 11.6716L22.5952 11.4759L22.5952 11.4759L22.5541 11.6716ZM27.7989 13.7817L27.6911 13.9502L27.6912 13.9502L27.7989 13.7817ZM27.9611 13.8291V13.6291H27.9611L27.9611 13.8291ZM30.0307 13.8291L30.2 13.7227L30.1412 13.6291H30.0307V13.8291ZM30.272 14.5513L30.4688 14.5156L30.272 14.5513ZM29.9921 19.1833L30.0225 19.381L30.1192 19.3661L30.1668 19.2806L29.9921 19.1833ZM28.7838 19.3692H28.5838V19.6023L28.8142 19.5669L28.7838 19.3692ZM22.7059 19.4191V19.6191H22.9059V19.4191H22.7059ZM9.61999 19.4191H9.41999V19.6191H9.61999V19.4191ZM3.54212 19.4191V19.6191H3.74212V19.4191H3.54212ZM2.8004 19.4191V19.219L2.79796 19.2191L2.8004 19.4191ZM2.79064 19.4192L2.7882 19.2191L2.78412 19.2193L2.79064 19.4192ZM1.86785 19.2029L1.74047 19.3571H1.74047L1.86785 19.2029ZM1.79043 16.1463L1.60003 16.085L1.59571 16.0985L1.59331 16.1124L1.79043 16.1463ZM2.19541 15.5314L2.31304 15.6931L2.31305 15.6931L2.19541 15.5314ZM2.82311 15.2654L2.88863 15.4543H2.88863L2.82311 15.2654ZM4.38397 14.8286L4.42913 15.0234H4.42913L4.38397 14.8286ZM5.06509 17.282L5.20651 17.4234L5.06509 17.282ZM8.09702 20.3139L8.23844 20.4554L8.09702 20.3139ZM5.06509 20.3139L4.92367 20.4554H4.92367L5.06509 20.3139ZM5.49099 17.7079L5.34972 17.5663L5.34942 17.5666L5.49099 17.7079ZM7.67111 17.7079L7.81268 17.5666L7.81239 17.5663L7.67111 17.7079ZM7.67111 19.888L7.81239 20.0296L7.81268 20.0293L7.67111 19.888ZM5.49099 19.888L5.34942 20.0293L5.34972 20.0296L5.49099 19.888ZM24.2162 17.282L24.3576 17.4234L24.3576 17.4234L24.2162 17.282ZM27.2481 17.282L27.1067 17.4234L27.1067 17.4234L27.2481 17.282ZM27.2481 20.3139L27.1067 20.1725L27.2481 20.3139ZM24.2162 20.3139L24.3576 20.1725L24.2162 20.3139ZM24.6421 17.7079L24.5008 17.5663L24.5005 17.5666L24.6421 17.7079ZM26.8222 17.7079L26.9638 17.5666L26.9635 17.5663L26.8222 17.7079ZM26.8222 19.888L26.9635 20.0296L26.9638 20.0293L26.8222 19.888ZM24.6421 19.888L24.5005 20.0293L24.5008 20.0296L24.6421 19.888ZM19.6057 11.7482L19.6082 11.5483L19.6057 11.7482ZM14.7906 12.0693L14.766 11.8709L14.7657 11.8709L14.7906 12.0693ZM21.7936 11.9137L21.7627 12.1113L21.7936 11.9137ZM25.6745 13.2052L25.5625 13.3709L25.5625 13.3709L25.6745 13.2052ZM25.7718 13.3134L25.5952 13.4072V13.4072L25.7718 13.3134ZM25.807 13.4546H26.007V13.4546L25.807 13.4546ZM25.807 14.2152L26.007 14.2152V14.2152H25.807ZM25.508 14.5164L25.5065 14.3164H25.5065L25.508 14.5164ZM17.3629 14.5779L17.3614 14.3779L17.3614 14.3779L17.3629 14.5779ZM11.2449 14.625L11.2464 14.825L11.2465 14.825L11.2449 14.625ZM11.0593 14.5627L11.1811 14.404L11.1811 14.404L11.0593 14.5627ZM10.9512 14.3993L10.7576 14.4495L10.9512 14.3993ZM11.0983 14.0594L11.0026 13.8838L11.0024 13.8839L11.0983 14.0594ZM14.6835 12.1039L14.7793 12.2795L14.7794 12.2794L14.6835 12.1039ZM18.7752 12.3568L18.7797 12.5567L18.7752 12.3568ZM21.7004 12.5088L21.7313 12.3112H21.7313L21.7004 12.5088ZM14.9187 12.6617L14.8943 12.4632L14.8564 12.4679L14.8229 12.4862L14.9187 12.6617ZM12.4407 14.0134L12.3449 13.8378L12.4422 14.2134L12.4407 14.0134ZM17.3583 13.9755L17.3568 13.7755L17.3568 13.7755L17.3583 13.9755ZM25.2046 13.9162L25.2061 14.1162L25.4046 14.1147V13.9162H25.2046ZM25.2046 13.6301H25.4046V13.5194L25.3108 13.4606L25.2046 13.6301ZM17.6402 11.0477C18.0398 11.0252 18.4583 11.0087 18.885 11.0014L18.8782 10.6015C18.4457 10.6088 18.0219 10.6256 17.6177 10.6484L17.6402 11.0477ZM15.5684 11.2305C16.1206 11.162 16.841 11.0927 17.6402 11.0477L17.6177 10.6484C16.8095 10.6938 16.0801 10.7639 15.5191 10.8336L15.5684 11.2305ZM14.8783 11.3297C15.0593 11.2988 15.2922 11.2648 15.5684 11.2305L15.5191 10.8336C15.2386 10.8684 14.9994 10.9033 14.8111 10.9354L14.8783 11.3297ZM14.5003 11.4115C14.587 11.3816 14.6906 11.3617 14.8783 11.3297L14.8111 10.9354C14.6296 10.9663 14.493 10.9909 14.3699 11.0333L14.5003 11.4115ZM13.739 11.7914C14.1055 11.5927 14.3385 11.4673 14.5003 11.4115L14.3699 11.0333C14.1687 11.1027 13.8995 11.2495 13.5484 11.4397L13.739 11.7914ZM13.6661 11.8309L13.739 11.7914L13.5484 11.4397L13.4755 11.4792L13.6661 11.8309ZM12.3881 12.5365C12.8395 12.2853 13.2919 12.0336 13.6661 11.8309L13.4756 11.4792C13.0989 11.6832 12.6443 11.9362 12.1936 12.187L12.3881 12.5365ZM12.3877 12.5368L12.388 12.5366L12.1938 12.1869L12.1936 12.1871L12.3877 12.5368ZM12.3067 12.5819L12.3879 12.5367L12.1934 12.1872L12.1121 12.2324L12.3067 12.5819ZM10.9954 13.304C11.3585 13.1092 11.8294 12.8475 12.3067 12.5819L12.1121 12.2324C11.6342 12.4983 11.1661 12.7584 10.8062 12.9516L10.9954 13.304ZM10.5426 13.5393C10.6573 13.4832 10.8141 13.4013 10.9954 13.304L10.8062 12.9516C10.6261 13.0482 10.4746 13.1273 10.3667 13.18L10.5426 13.5393ZM10.402 13.6043C10.436 13.5902 10.4856 13.5672 10.5426 13.5393L10.3667 13.18C10.3124 13.2066 10.2712 13.2255 10.2482 13.2351L10.402 13.6043ZM10.3434 13.6221C10.357 13.6193 10.3786 13.6141 10.402 13.6043L10.2482 13.2351C10.2532 13.233 10.257 13.2318 10.2589 13.2313C10.2609 13.2307 10.2623 13.2304 10.2633 13.2302L10.3434 13.6221ZM10.3067 13.2287C10.3107 13.229 10.3176 13.2297 10.3261 13.2313C10.3325 13.2324 10.3506 13.2359 10.372 13.2455C10.3819 13.2499 10.457 13.2825 10.4827 13.3738C10.5133 13.4826 10.4458 13.5557 10.4291 13.5719C10.4073 13.5929 10.3859 13.6037 10.3797 13.6068C10.3705 13.6114 10.3629 13.6143 10.3587 13.6158C10.3503 13.6189 10.3435 13.6207 10.3408 13.6214C10.3346 13.623 10.3298 13.6239 10.3283 13.6242C10.3262 13.6246 10.3246 13.6249 10.3238 13.625C10.3211 13.6254 10.3209 13.6254 10.3246 13.625L10.2821 13.2273C10.2754 13.228 10.2682 13.2288 10.2614 13.2299C10.2599 13.2301 10.2508 13.2315 10.2402 13.2343C10.2373 13.235 10.2304 13.2369 10.2218 13.24C10.2176 13.2415 10.2099 13.2445 10.2008 13.2491C10.1945 13.2522 10.1731 13.263 10.1513 13.2841C10.1345 13.3002 10.067 13.3734 10.0977 13.4822C10.1234 13.5735 10.1985 13.6061 10.2084 13.6105C10.2298 13.6201 10.2479 13.6236 10.2544 13.6248C10.2629 13.6263 10.2699 13.627 10.2739 13.6274L10.3067 13.2287ZM10.2633 13.2302C10.2643 13.23 10.2657 13.2297 10.2679 13.2294C10.2689 13.2293 10.2711 13.229 10.2741 13.2287C10.2755 13.2286 10.2782 13.2284 10.2817 13.2282C10.2835 13.2282 10.2862 13.2281 10.2896 13.228C10.2924 13.228 10.2987 13.228 10.3067 13.2287L10.2739 13.6274C10.2875 13.6285 10.2984 13.6279 10.3 13.6278C10.3039 13.6276 10.3073 13.6274 10.3094 13.6272C10.3139 13.6268 10.3179 13.6263 10.3213 13.6258C10.328 13.6249 10.3355 13.6237 10.3434 13.6221L10.2633 13.2302ZM10.3157 13.2242C10.302 13.2253 10.291 13.2263 10.2821 13.2273L10.3246 13.625C10.3286 13.6246 10.3356 13.6239 10.3464 13.6231L10.3157 13.2242ZM10.3281 13.6269C10.3348 13.6249 10.3418 13.6235 10.3489 13.6229L10.3133 13.2245C10.2783 13.2276 10.2438 13.2344 10.2104 13.2447L10.3281 13.6269ZM10.2219 13.6321C10.2274 13.6321 10.2328 13.6325 10.2381 13.6334L10.3004 13.2382C10.274 13.2341 10.2473 13.232 10.2203 13.2321L10.2219 13.6321ZM10.2161 13.6324C10.2184 13.6323 10.2208 13.6321 10.2231 13.6321L10.2191 13.2321C10.2075 13.2323 10.1958 13.2328 10.1843 13.2337L10.2161 13.6324ZM4.29312 14.4366C5.65915 14.1199 7.62449 13.796 10.2128 13.6327L10.1876 13.2335C7.57918 13.398 5.59194 13.7249 4.20278 14.0469L4.29312 14.4366ZM2.6912 14.8852C3.07792 14.7511 3.60996 14.5949 4.29312 14.4366L4.20278 14.0469C3.50835 14.2079 2.96245 14.3678 2.56016 14.5073L2.6912 14.8852ZM1.95866 15.206C2.09318 15.1082 2.2932 15.0232 2.6912 14.8852L2.56016 14.5073C2.16916 14.6429 1.91316 14.7445 1.72338 14.8825L1.95866 15.206ZM1.40009 16.0398C1.51336 15.6773 1.70197 15.3927 1.95865 15.206L1.72339 14.8825C1.3827 15.1303 1.15129 15.4949 1.0183 15.9205L1.40009 16.0398ZM1.39713 16.0523C1.39787 16.0479 1.39891 16.0436 1.40021 16.0394L1.01818 15.9209C1.01171 15.9417 1.00661 15.963 1.00291 15.9845L1.39713 16.0523ZM1.2 18.4818C1.2 17.6183 1.26557 16.8087 1.39706 16.0526L1.00298 15.9841C0.867092 16.7655 0.8 17.5982 0.8 18.4818H1.2ZM1.61154 19.5131C1.3419 19.2904 1.2 18.9293 1.2 18.4818H0.8C0.8 19.0094 0.968656 19.5009 1.35679 19.8215L1.61154 19.5131ZM2.80019 19.8216C2.28294 19.8379 1.88664 19.7404 1.61154 19.5131L1.35679 19.8215C1.73794 20.1363 2.24788 20.2392 2.81284 20.2214L2.80019 19.8216ZM3.84333 19.8215H2.80652V20.2215H3.84333V19.8215ZM3.91488 19.7918C3.8959 19.8108 3.87015 19.8215 3.84331 19.8215L3.84335 20.2215C3.97627 20.2214 4.10374 20.1686 4.19772 20.0747L3.91488 19.7918ZM3.94453 19.7202C3.94453 19.7471 3.93386 19.7728 3.91488 19.7918L4.19772 20.0747C4.29171 19.9807 4.34452 19.8532 4.34453 19.7203L3.94453 19.7202ZM3.94453 18.8077V19.7203H4.34453V18.8077H3.94453ZM6.581 16.1712C5.12261 16.1712 3.94453 17.3493 3.94453 18.8077H4.34453C4.34453 17.5702 5.34352 16.5712 6.581 16.5712V16.1712ZM9.21758 18.8077C9.21758 17.3493 8.03937 16.1712 6.581 16.1712V16.5712C7.81848 16.5712 8.81758 17.5702 8.81758 18.8077H9.21758ZM9.21758 19.7203V18.8077H8.81758V19.7203H9.21758ZM9.24723 19.7918C9.22824 19.7728 9.21758 19.7471 9.21758 19.7202L8.81758 19.7203C8.81759 19.8532 8.8704 19.9807 8.96439 20.0747L9.24723 19.7918ZM9.3188 19.8215C9.29196 19.8215 9.26621 19.8108 9.24723 19.7918L8.96439 20.0747C9.05837 20.1686 9.18584 20.2214 9.31876 20.2215L9.3188 19.8215ZM22.9563 19.8215H9.31878V20.2215H22.9563V19.8215ZM23.0071 19.8258C23.0014 19.8258 22.9957 19.8253 22.99 19.8243L22.9226 20.2186C22.9504 20.2234 22.9787 20.2258 23.0071 20.2258V19.8258ZM23.0462 19.8179C23.0338 19.8231 23.0205 19.8258 23.0071 19.8258V20.2258C23.0735 20.2258 23.1393 20.2126 23.2006 20.1869L23.0462 19.8179ZM23.0792 19.7956C23.0698 19.8052 23.0586 19.8128 23.0462 19.8179L23.2006 20.1869C23.2618 20.1613 23.3174 20.1237 23.364 20.0765L23.0792 19.7956ZM23.08 19.7948L23.0789 19.796L23.3644 20.0761L23.3655 20.0749L23.08 19.7948ZM23.082 19.7928L23.0819 19.7929L23.3636 20.0769L23.3637 20.0768L23.082 19.7928ZM23.1048 19.7593C23.0996 19.7717 23.092 19.7829 23.0825 19.7923L23.3633 20.0772C23.4106 20.0305 23.4482 19.975 23.4738 19.9137L23.1048 19.7593ZM23.1126 19.7203C23.1126 19.7337 23.11 19.7469 23.1048 19.7593L23.4738 19.9137C23.4994 19.8524 23.5126 19.7867 23.5126 19.7203H23.1126ZM23.1112 19.7032C23.1121 19.7088 23.1126 19.7145 23.1126 19.7203H23.5126C23.5126 19.6919 23.5102 19.6637 23.5055 19.6359L23.1112 19.7032ZM23.1083 18.8077V19.6695H23.5083V18.8077H23.1083ZM25.7449 16.1713C24.2865 16.1713 23.1083 17.3493 23.1083 18.8077H23.5083C23.5083 17.5703 24.5074 16.5713 25.7449 16.5713V16.1713ZM28.3814 18.8077C28.3814 17.3493 27.2033 16.1713 25.7449 16.1713V16.5713C26.9824 16.5713 27.9814 17.5703 27.9814 18.8077H28.3814ZM28.3814 19.7203V18.8077H27.9814V19.7203H28.3814ZM28.3906 19.7625C28.3845 19.7492 28.3814 19.7348 28.3814 19.7202L27.9814 19.7203C27.9814 19.7926 27.997 19.864 28.0272 19.9296L28.3906 19.7625ZM28.4167 19.7971C28.4056 19.7875 28.3967 19.7758 28.3906 19.7625L28.0272 19.9296C28.0574 19.9953 28.1014 20.0536 28.1562 20.1006L28.4167 19.7971ZM28.4548 19.8176C28.4408 19.8135 28.4278 19.8066 28.4167 19.797L28.1562 20.1006C28.2111 20.1477 28.2754 20.1823 28.3449 20.2022L28.4548 19.8176ZM28.498 19.8203C28.4835 19.8225 28.4688 19.8216 28.4548 19.8176L28.3449 20.2022C28.4144 20.222 28.4873 20.2266 28.5587 20.2156L28.498 19.8203ZM30.1927 19.5596L28.4979 19.8203L28.5588 20.2156L30.2535 19.9549L30.1927 19.5596ZM30.2586 19.5199C30.2427 19.5413 30.219 19.5555 30.1927 19.5595L30.2535 19.9549C30.3837 19.9349 30.5008 19.8644 30.5794 19.7587L30.2586 19.5199ZM30.8 16.396C30.8 17.1908 30.7659 17.8394 30.6789 18.3597C30.5917 18.8812 30.4539 19.2574 30.2585 19.5199L30.5794 19.7587C30.8285 19.4241 30.9812 18.9772 31.0734 18.4257C31.1658 17.873 31.2 17.1986 31.2 16.396H30.8ZM30.668 14.4794C30.7571 14.9693 30.8 15.6028 30.8 16.396H31.2C31.2 15.5917 31.1567 14.9313 31.0616 14.4079L30.668 14.4794ZM30.2477 13.4552C30.4577 13.6586 30.577 13.979 30.668 14.4794L31.0616 14.4079C30.9683 13.8951 30.8322 13.4645 30.526 13.1679L30.2477 13.4552ZM30.1773 13.4267C30.2036 13.4267 30.2289 13.437 30.2477 13.4552L30.526 13.1679C30.4325 13.0774 30.3075 13.0267 30.1773 13.0267L30.1773 13.4267ZM28.0452 13.4267H30.1773V13.0267H28.0452V13.4267ZM22.6368 11.2778C24.5825 11.6863 26.3508 12.3938 27.9385 13.3959L28.152 13.0576C26.5219 12.0288 24.7087 11.3041 22.719 10.8863L22.6368 11.2778ZM18.885 11.0014C20.1674 10.9796 21.5145 11.0422 22.6368 11.2778L22.719 10.8863C21.5543 10.6418 20.1732 10.5795 18.8782 10.6015L18.885 11.0014ZM10.2521 13.8301C10.2442 13.8325 10.236 13.834 10.2276 13.8345L10.2485 14.2339C10.29 14.2317 10.3307 14.2244 10.3698 14.2124L10.2521 13.8301ZM10.3664 13.8246C10.3583 13.8253 10.3501 13.825 10.3421 13.8237L10.2798 14.2188C10.3195 14.2251 10.3599 14.2266 10.4001 14.2232L10.3664 13.8246ZM10.4401 13.8095C10.4259 13.8165 10.4256 13.8164 10.4231 13.8171C10.4187 13.8184 10.4043 13.8218 10.369 13.8244L10.3975 14.2234C10.4495 14.2196 10.4926 14.2131 10.5316 14.2021C10.5724 14.1906 10.6012 14.1761 10.6176 14.168L10.4401 13.8095ZM10.4799 13.7911C10.4626 13.7983 10.4484 13.8054 10.4401 13.8095L10.6176 14.168C10.6266 14.1635 10.63 14.1619 10.6337 14.1604L10.4799 13.7911ZM10.6316 13.7212C10.571 13.7508 10.5221 13.7735 10.4799 13.7911L10.6337 14.1604C10.6867 14.1383 10.7439 14.1115 10.8074 14.0804L10.6316 13.7212ZM11.0912 13.4824C10.9077 13.5809 10.7522 13.6621 10.6316 13.7212L10.8074 14.0804C10.9348 14.0181 11.0956 13.934 11.2803 13.8349L11.0912 13.4824ZM12.4051 12.7588C11.927 13.0249 11.4578 13.2857 11.0912 13.4824L11.2803 13.8349C11.6502 13.6364 12.1223 13.374 12.5996 13.1083L12.4051 12.7588ZM12.4702 12.7225L12.4051 12.7588L12.5996 13.1083L12.6648 13.072L12.4702 12.7225ZM13.7624 12.009C13.3862 12.2127 12.9264 12.4687 12.4702 12.7225L12.6648 13.072C13.1215 12.8178 13.5792 12.5631 13.9529 12.3607L13.7624 12.009ZM14.5663 11.6029C14.5425 11.6111 14.5016 11.6302 14.4618 11.6491C14.4163 11.6708 14.3565 11.7001 14.2861 11.7355C14.1454 11.8061 13.9608 11.9016 13.7624 12.009L13.9529 12.3607C14.1474 12.2554 14.3283 12.1619 14.4656 12.0929C14.5343 12.0585 14.5916 12.0304 14.6338 12.0102C14.6818 11.9874 14.6992 11.9802 14.6967 11.9811L14.5663 11.6029ZM14.9124 11.5292C14.7404 11.5585 14.5968 11.5924 14.5663 11.6029L14.6967 11.9811C14.6894 11.9836 14.69 11.983 14.7096 11.9782C14.7245 11.9746 14.7457 11.9696 14.772 11.9638C14.8248 11.9522 14.897 11.9376 14.9796 11.9235L14.9124 11.5292ZM15.5933 11.4314C15.32 11.4653 15.0883 11.4992 14.9124 11.5292L14.9796 11.9235C15.1481 11.8948 15.3736 11.8618 15.6426 11.8284L15.5933 11.4314ZM17.6515 11.2498C16.8577 11.2945 16.14 11.3635 15.5933 11.4314L15.6426 11.8284C16.1805 11.7616 16.8893 11.6933 17.674 11.6492L17.6515 11.2498ZM22.5952 11.4759C21.1441 11.1713 19.2348 11.1607 17.6515 11.2498L17.674 11.6492C19.2476 11.5607 21.1145 11.5738 22.513 11.8674L22.5952 11.4759ZM27.9066 13.6132C26.3198 12.5985 24.551 11.8865 22.5952 11.4759L22.513 11.8674C24.4243 12.2687 26.1475 12.9631 27.6911 13.9502L27.9066 13.6132ZM27.9611 13.6291C27.9418 13.6291 27.9229 13.6236 27.9066 13.6132L27.6912 13.9502C27.7718 14.0018 27.8655 14.0291 27.9611 14.0291L27.9611 13.6291ZM30.0307 13.6291H27.9611V14.0291H30.0307V13.6291ZM30.4688 14.5156C30.4017 14.1467 30.2997 13.8812 30.2 13.7227L29.8614 13.9356C29.925 14.0368 30.0138 14.249 30.0753 14.5871L30.4688 14.5156ZM30.5976 16.396C30.5976 15.6138 30.5536 14.9817 30.4688 14.5156L30.0753 14.5871C30.1539 15.0197 30.1976 15.625 30.1976 16.396H30.5976ZM30.1668 19.2806C30.2966 19.0478 30.4024 18.6817 30.4768 18.2069C30.552 17.7272 30.5976 17.1207 30.5976 16.396H30.1976C30.1976 17.105 30.1529 17.6903 30.0816 18.1449C30.0096 18.6043 29.9127 18.915 29.8174 19.0859L30.1668 19.2806ZM28.8142 19.5669L30.0225 19.381L29.9617 18.9856L28.7534 19.1715L28.8142 19.5669ZM28.5838 18.8077V19.3692H28.9838V18.8077H28.5838ZM25.7449 15.9689C27.3084 15.9689 28.5838 17.2442 28.5838 18.8077H28.9838C28.9838 17.0233 27.5294 15.5689 25.7449 15.5689V15.9689ZM22.9059 18.8077C22.9059 17.2442 24.1814 15.9689 25.7449 15.9689V15.5689C23.9605 15.5689 22.5059 17.0233 22.5059 18.8077H22.9059ZM22.9059 19.4191V18.8077H22.5059V19.4191H22.9059ZM9.61999 19.6191H22.7059V19.2191H9.61999V19.6191ZM9.41999 18.8077V19.4191H9.81999V18.8077H9.41999ZM6.581 15.9688C8.14454 15.9688 9.41999 17.2442 9.41999 18.8077H9.81999C9.81999 17.0232 8.36544 15.5688 6.581 15.5688V15.9688ZM3.74212 18.8077C3.74212 17.2442 5.01746 15.9688 6.581 15.9688V15.5688C4.79654 15.5688 3.34212 17.0233 3.34212 18.8077H3.74212ZM3.74212 19.4191V18.8077H3.34212V19.4191H3.74212ZM2.8004 19.6191H3.54212V19.2191H2.8004V19.6191ZM2.79308 19.6192L2.80285 19.619L2.79796 19.2191L2.7882 19.2192L2.79308 19.6192ZM1.74047 19.3571C1.96504 19.5426 2.31781 19.6347 2.79716 19.6191L2.78412 19.2193C2.35006 19.2334 2.11235 19.1455 1.99522 19.0487L1.74047 19.3571ZM1.40241 18.4818C1.40241 18.8896 1.50872 19.1657 1.74047 19.3571L1.99522 19.0487C1.88527 18.9579 1.80241 18.8153 1.80241 18.4818H1.40241ZM1.59331 16.1124C1.46688 16.8485 1.40241 17.6377 1.40241 18.4818H1.80241C1.80241 17.658 1.86534 16.8916 1.98754 16.1801L1.59331 16.1124ZM2.07777 15.3696C1.85918 15.5286 1.70351 15.7633 1.60003 16.085L1.98082 16.2075C2.06531 15.9448 2.17944 15.7903 2.31304 15.6931L2.07777 15.3696ZM2.75759 15.0764C2.56654 15.1426 2.40833 15.2083 2.2949 15.2594C2.2382 15.285 2.19229 15.3071 2.15871 15.324C2.14199 15.3324 2.12778 15.3398 2.11651 15.346C2.11025 15.3494 2.09245 15.359 2.07777 15.3696L2.31305 15.6931C2.30265 15.7007 2.29612 15.7036 2.30775 15.6973C2.31439 15.6937 2.3247 15.6883 2.33875 15.6812C2.36672 15.6671 2.40736 15.6475 2.45924 15.6241C2.56297 15.5774 2.71005 15.5162 2.88863 15.4543L2.75759 15.0764ZM4.3388 14.6338C3.66228 14.7906 3.13501 14.9455 2.75759 15.0764L2.88863 15.4543C3.25047 15.3289 3.76387 15.1777 4.42913 15.0234L4.3388 14.6338ZM10.2255 13.8346C7.64792 13.9972 5.69212 14.32 4.3388 14.6338L4.42913 15.0234C5.75936 14.7151 7.69325 14.3951 10.2506 14.2338L10.2255 13.8346ZM4.92367 17.1406C4.48431 17.5799 4.23738 18.1766 4.23738 18.7983H4.63738C4.63738 18.2826 4.84225 17.7877 5.20651 17.4234L4.92367 17.1406ZM6.58135 16.4543C5.9597 16.4543 5.36303 16.7012 4.92367 17.1406L5.20651 17.4234C5.57077 17.0592 6.06566 16.8543 6.58135 16.8543V16.4543ZM8.23844 17.1406C7.7991 16.7013 7.20244 16.4543 6.58135 16.4543V16.8543C7.09641 16.8543 7.59132 17.0592 7.9556 17.4234L8.23844 17.1406ZM8.92473 18.7983C8.92473 18.1766 8.67779 17.5799 8.23844 17.1406L7.9556 17.4234C8.31985 17.7877 8.52473 18.2826 8.52473 18.7983H8.92473ZM8.23844 20.4554C8.67777 20.016 8.92473 19.4194 8.92473 18.7983H8.52473C8.52473 19.3133 8.31987 19.8082 7.9556 20.1725L8.23844 20.4554ZM6.58135 21.1416C7.20244 21.1416 7.7991 20.8947 8.23844 20.4554L7.9556 20.1725C7.59132 20.5368 7.09641 20.7416 6.58135 20.7416V21.1416ZM4.92367 20.4554C5.36303 20.8947 5.9597 21.1416 6.58135 21.1416V20.7416C6.06566 20.7416 5.57077 20.5368 5.20651 20.1725L4.92367 20.4554ZM4.23738 18.7983C4.23738 19.4194 4.48433 20.016 4.92367 20.4554L5.20651 20.1725C4.84223 19.8082 4.63738 19.3133 4.63738 18.7983H4.23738ZM5.34942 17.5666C5.02353 17.8932 4.83979 18.3362 4.83979 18.7983H5.23979C5.23979 18.4423 5.38134 18.1009 5.63256 17.8492L5.34942 17.5666ZM6.58135 17.0567C6.11923 17.0567 5.67629 17.2405 5.34972 17.5663L5.63227 17.8495C5.88401 17.5983 6.2254 17.4567 6.58135 17.4567V17.0567ZM7.81239 17.5663C7.48584 17.2405 7.04291 17.0567 6.58135 17.0567V17.4567C6.93666 17.4567 7.27807 17.5982 7.52984 17.8495L7.81239 17.5663ZM8.32232 18.7983C8.32232 18.3362 8.13857 17.8932 7.81268 17.5666L7.52954 17.8492C7.78076 18.1009 7.92232 18.4423 7.92232 18.7983H8.32232ZM7.81268 20.0293C8.13854 19.7028 8.32232 19.2598 8.32232 18.7983H7.92232C7.92232 19.1536 7.78079 19.495 7.52954 19.7468L7.81268 20.0293ZM6.58135 20.5392C7.04291 20.5392 7.48584 20.3555 7.81239 20.0296L7.52984 19.7465C7.27807 19.9977 6.93666 20.1392 6.58135 20.1392V20.5392ZM5.34972 20.0296C5.67629 20.3555 6.11923 20.5392 6.58135 20.5392V20.1392C6.2254 20.1392 5.88401 19.9977 5.63227 19.7465L5.34972 20.0296ZM4.83979 18.7983C4.83979 19.2598 5.02356 19.7028 5.34942 20.0293L5.63256 19.7468C5.38132 19.495 5.23979 19.1536 5.23979 18.7983H4.83979ZM24.0748 17.1406C23.6354 17.5799 23.3885 18.1766 23.3885 18.7983H23.7885C23.7885 18.2826 23.9934 17.7877 24.3576 17.4234L24.0748 17.1406ZM25.7319 16.4543C25.1108 16.4543 24.5141 16.7013 24.0748 17.1406L24.3576 17.4234C24.7219 17.0592 25.2168 16.8543 25.7319 16.8543V16.4543ZM27.3896 17.1406C26.9502 16.7012 26.3535 16.4543 25.7319 16.4543V16.8543C26.2476 16.8543 26.7425 17.0592 27.1067 17.4234L27.3896 17.1406ZM28.0759 18.7983C28.0759 18.1766 27.8289 17.5799 27.3896 17.1406L27.1067 17.4234C27.471 17.7877 27.6758 18.2826 27.6758 18.7983H28.0759ZM27.3896 20.4554C27.8289 20.016 28.0759 19.4194 28.0759 18.7983H27.6758C27.6758 19.3133 27.471 19.8082 27.1067 20.1725L27.3896 20.4554ZM25.7319 21.1416C26.3535 21.1416 26.9502 20.8947 27.3896 20.4554L27.1067 20.1725C26.7425 20.5368 26.2476 20.7416 25.7319 20.7416V21.1416ZM24.0748 20.4554C24.5141 20.8947 25.1108 21.1416 25.7319 21.1416V20.7416C25.2168 20.7416 24.7219 20.5368 24.3576 20.1725L24.0748 20.4554ZM23.3885 18.7983C23.3885 19.4194 23.6355 20.016 24.0748 20.4554L24.3576 20.1725C23.9934 19.8082 23.7885 19.3133 23.7885 18.7983H23.3885ZM24.5005 17.5666C24.1747 17.8932 23.9909 18.3362 23.9909 18.7983H24.3909C24.3909 18.4423 24.5325 18.1009 24.7837 17.8492L24.5005 17.5666ZM25.7319 17.0567C25.2703 17.0567 24.8274 17.2405 24.5008 17.5663L24.7834 17.8495C25.0352 17.5982 25.3766 17.4567 25.7319 17.4567V17.0567ZM26.9635 17.5663C26.6369 17.2405 26.194 17.0567 25.7319 17.0567V17.4567C26.0878 17.4567 26.4292 17.5983 26.681 17.8495L26.9635 17.5663ZM27.4734 18.7983C27.4734 18.3362 27.2897 17.8932 26.9638 17.5666L26.6807 17.8492C26.9319 18.1009 27.0734 18.4423 27.0734 18.7983H27.4734ZM26.9638 20.0293C27.2897 19.7028 27.4734 19.2598 27.4734 18.7983H27.0734C27.0734 19.1536 26.9319 19.495 26.6807 19.7468L26.9638 20.0293ZM25.7319 20.5392C26.194 20.5392 26.6369 20.3555 26.9635 20.0296L26.681 19.7465C26.4292 19.9977 26.0878 20.1392 25.7319 20.1392V20.5392ZM24.5008 20.0296C24.8274 20.3555 25.2703 20.5392 25.7319 20.5392V20.1392C25.3766 20.1392 25.0352 19.9977 24.7834 19.7465L24.5008 20.0296ZM23.9909 18.7983C23.9909 19.2598 24.1747 19.7028 24.5005 20.0293L24.7837 19.7468C24.5324 19.495 24.3909 19.1536 24.3909 18.7983H23.9909ZM19.6082 11.5483C18.236 11.5315 16.6234 11.6405 14.766 11.8709L14.8152 12.2678C16.6611 12.0389 18.2547 11.9318 19.6033 11.9482L19.6082 11.5483ZM21.8245 11.7161C21.1703 11.6137 20.4316 11.5583 19.6082 11.5483L19.6033 11.9482C20.4123 11.9581 21.1315 12.0125 21.7627 12.1113L21.8245 11.7161ZM25.7866 13.0395C24.8523 12.4076 23.5279 11.9827 21.8245 11.7161L21.7627 12.1113C23.4416 12.3741 24.6989 12.7868 25.5625 13.3709L25.7866 13.0395ZM25.9485 13.2196C25.91 13.1473 25.8544 13.0854 25.7866 13.0395L25.5625 13.3709C25.5762 13.3801 25.5874 13.3926 25.5952 13.4072L25.9485 13.2196ZM26.007 13.4546C26.007 13.3726 25.9869 13.292 25.9485 13.2196L25.5952 13.4072C25.6029 13.4219 25.607 13.4382 25.607 13.4547L26.007 13.4546ZM26.007 14.2152V13.4546H25.607V14.2152H26.007ZM25.8615 14.5683C25.9547 14.4744 26.007 14.3475 26.007 14.2152L25.607 14.2152C25.607 14.2419 25.5965 14.2675 25.5776 14.2865L25.8615 14.5683ZM25.5095 14.7164C25.6418 14.7154 25.7683 14.6621 25.8615 14.5683L25.5776 14.2865C25.5588 14.3054 25.5333 14.3162 25.5065 14.3164L25.5095 14.7164ZM17.3644 14.7779L25.5096 14.7164L25.5065 14.3164L17.3614 14.3779L17.3644 14.7779ZM11.2465 14.825L17.3645 14.7779L17.3614 14.3779L11.2434 14.425L11.2465 14.825ZM10.9374 14.7213C11.026 14.7893 11.1347 14.8258 11.2464 14.825L11.2435 14.425C11.2209 14.4252 11.199 14.4178 11.1811 14.404L10.9374 14.7213ZM10.7576 14.4495C10.7856 14.5576 10.8489 14.6533 10.9374 14.7213L11.1811 14.404C11.1632 14.3903 11.1504 14.371 11.1448 14.3492L10.7576 14.4495ZM10.7828 14.1246C10.7384 14.2271 10.7295 14.3414 10.7576 14.4495L11.1448 14.3492C11.1391 14.3273 11.1409 14.3042 11.1499 14.2835L10.7828 14.1246ZM11.0024 13.8839C10.9045 13.9374 10.8271 14.0221 10.7828 14.1246L11.1499 14.2835C11.1588 14.2628 11.1744 14.2457 11.1942 14.2349L11.0024 13.8839ZM14.5877 11.9283L11.0026 13.8838L11.1941 14.235L14.7793 12.2795L14.5877 11.9283ZM14.7657 11.8709C14.7032 11.8787 14.6428 11.8982 14.5876 11.9284L14.7794 12.2794C14.7906 12.2733 14.8028 12.2694 14.8154 12.2678L14.7657 11.8709ZM18.7797 12.5567C19.9122 12.5311 20.8758 12.5822 21.6695 12.7064L21.7313 12.3112C20.9073 12.1822 19.9186 12.1308 18.7707 12.1568L18.7797 12.5567ZM14.9431 12.8602C16.3809 12.6835 17.6625 12.582 18.7797 12.5567L18.7707 12.1568C17.637 12.1825 16.3416 12.2853 14.8943 12.4632L14.9431 12.8602ZM12.5365 14.189L15.0145 12.8373L14.8229 12.4862L12.3449 13.8378L12.5365 14.189ZM17.3568 13.7755L12.4392 13.8134L12.4422 14.2134L17.3599 14.1755L17.3568 13.7755ZM25.2031 13.7162L17.3568 13.7755L17.3598 14.1755L25.2061 14.1162L25.2031 13.7162ZM25.0046 13.6301V13.9162H25.4046V13.6301H25.0046ZM21.6695 12.7064C23.2151 12.9483 24.3472 13.3287 25.0984 13.7995L25.3108 13.4606C24.4952 12.9495 23.3036 12.5573 21.7313 12.3112L21.6695 12.7064Z" fill="white" mask="url(#path-1-outside-1)"/>
</g>
<path d="M8.76758 19.7202V19.7202C8.76758 19.4282 9.01556 19.2956 9.1588 19.244C9.32043 19.1858 9.50209 19.169 9.61999 19.169H23.0056H23.0071V19.419C23.047 19.4184 23.0867 19.4258 23.1237 19.4407C23.1607 19.4556 23.1945 19.4776 23.2229 19.5057C23.2513 19.5337 23.2739 19.5671 23.2893 19.6039C23.3047 19.6407 23.3126 19.6803 23.3126 19.7202C23.3126 19.7601 23.3047 19.7996 23.2893 19.8364C23.2739 19.8733 23.2513 19.9067 23.2229 19.9347C23.1945 19.9627 23.1607 19.9848 23.1237 19.9997C23.0867 20.0146 23.047 20.0219 23.0071 20.0214L8.76758 19.7202ZM8.76758 19.7202C8.76759 19.8664 8.82567 20.0066 8.92903 20.1099C9.03239 20.2133 9.17258 20.2714 9.31876 20.2714H9.31878H23.0056L8.76758 19.7202Z" fill="white" stroke="white" stroke-width="0.5"/>
</svg>
