<svg width="32" height="32" viewBox="0 0 32 32" fill="none" xmlns="http://www.w3.org/2000/svg">
<path d="M16 0C7.18222 0 0 7.18222 0 16C0 24.8178 7.18222 32 16 32C24.8178 32 32 24.8178 32 16C32 7.18222 24.8178 0 16 0ZM16 30.8622C7.82222 30.8622 1.13778 24.1778 1.13778 16C1.13778 7.82222 7.82222 1.13778 16 1.13778C24.1778 1.13778 30.8622 7.82222 30.8622 16C30.8622 24.1778 24.1778 30.8622 16 30.8622Z" fill="white"/>
<path d="M15.9999 2.20451C10.4177 2.20451 5.36882 5.47563 3.37771 10.3823C3.09326 11.0934 2.95104 11.9112 2.95104 12.6223C2.95104 14.2223 3.80438 14.5778 4.51549 14.5778C5.33326 14.5778 6.43549 14.1156 7.82215 13.5112C9.95549 12.6223 12.8355 11.3778 15.9644 11.3778C19.0933 11.3778 22.0088 12.5867 24.1066 13.5112C25.4933 14.1156 26.5955 14.5778 27.4133 14.5778C28.1244 14.5778 28.9777 14.2223 28.9777 12.6223C28.9777 12.1956 28.9422 11.3778 28.6222 10.5601C26.8088 5.54674 21.6888 2.20451 15.9999 2.20451ZM27.911 12.6223C27.911 13.4401 27.6977 13.4401 27.4844 13.4401C26.8799 13.4401 25.8488 12.9778 24.6044 12.4801C22.3999 11.5201 19.3777 10.2401 15.9999 10.2401C12.6222 10.2401 9.59993 11.5201 7.39549 12.4445C6.1866 12.9423 5.11993 13.4045 4.51549 13.4045C4.30215 13.4045 4.08882 13.4045 4.08882 12.5867C4.08882 12.0178 4.23104 11.3423 4.44438 10.7734C6.22215 6.32896 10.8799 3.30674 15.9999 3.30674C21.2266 3.30674 25.8844 6.36451 27.6266 10.9156C27.8755 11.6267 27.911 12.2667 27.911 12.6223Z" fill="white"/>
<path d="M5.6178 15.9288C4.69335 15.9288 3.98224 16.1777 3.55558 16.6044C2.70224 17.4933 2.48891 18.8799 2.98669 20.5155C2.98669 20.551 2.98669 20.5866 3.02224 20.6222C3.02224 20.6577 3.02224 20.6577 3.0578 20.6933C3.30669 21.4755 3.6978 22.2933 4.26669 23.1466C5.12002 24.4977 6.18669 25.7066 7.43113 26.7377C7.46669 26.7733 7.5378 26.8088 7.57335 26.8444L7.75113 26.9866C7.78669 27.0222 7.8578 27.0577 7.89335 27.0933L7.96446 27.1644C8.53335 27.591 9.06669 27.9466 9.60002 28.1955C10.3822 28.5866 11.0934 28.7644 11.6978 28.7644C12.3734 28.7644 12.9422 28.551 13.3689 28.0888C15.0045 26.3822 14.5422 21.3688 11.84 18.5955C10.1334 16.8533 7.39558 15.9288 5.6178 15.9288ZM12.5511 27.271C12.1245 27.7333 11.2 27.6977 10.0978 27.1288C9.52891 26.8444 8.96002 26.4888 8.35558 25.991C8.28446 25.9199 8.21335 25.8844 8.14224 25.8133C7.50224 25.2799 6.8978 24.6755 6.32891 23.9999C5.90224 23.5022 5.54669 23.0044 5.19113 22.471C4.76447 21.7955 4.44447 21.0844 4.16002 20.3733C3.6978 19.0222 3.76891 17.9555 4.37335 17.351C4.58669 17.1377 5.04891 17.031 5.6178 17.031C7.18224 17.031 9.52891 17.8133 11.0222 19.3422C13.3334 21.7599 13.6534 26.0977 12.5511 27.271Z" fill="white"/>
<path d="M28.4444 16.6044C28.0178 16.1777 27.3067 15.9288 26.3822 15.9288C24.6044 15.9288 21.8667 16.8533 20.16 18.5599C17.4578 21.3333 16.9956 26.311 18.6311 28.0533C19.0578 28.5155 19.6267 28.7288 20.3022 28.7288C21.12 28.7288 22.1156 28.4088 23.1467 27.7688C23.2178 27.7333 23.2533 27.6977 23.3244 27.6622L23.3956 27.6266C23.4311 27.6266 23.4311 27.591 23.4667 27.591C23.68 27.4488 23.8578 27.3066 24.0711 27.1644C25.7067 25.9555 27.0933 24.4266 28.0889 22.6844C29.5467 20.1244 29.6889 17.8844 28.4444 16.6044ZM27.84 20.4799C27.6267 21.0133 27.4133 21.511 27.0933 22.0444C26.7022 22.7199 26.24 23.3955 25.7067 24.0355C24.9956 24.8533 24.2133 25.6355 23.3956 26.2399C23.2178 26.3822 23.04 26.4888 22.8267 26.631C22.72 26.7022 22.6489 26.7377 22.5422 26.8088C21.1556 27.6622 19.9467 27.8399 19.4489 27.3066C18.3111 26.1333 18.6311 21.7599 20.9778 19.4133C22.4711 17.8844 24.8178 17.1022 26.3822 17.1022C26.9511 17.1022 27.4489 17.2088 27.6267 17.4222C28.2311 18.0266 28.3022 19.1288 27.84 20.4799Z" fill="white"/>
<path d="M19.0223 16.2489C19.0223 14.6489 17.7067 13.3333 16.1067 13.3333C14.5067 13.3333 13.1911 14.6489 13.1911 16.2489C13.1911 17.8489 14.5067 19.1644 16.1067 19.1644C17.7067 19.1644 19.0223 17.8489 19.0223 16.2489ZM16.1067 18.0267C15.1467 18.0267 14.3289 17.2444 14.3289 16.2489C14.3289 15.2889 15.1111 14.4711 16.1067 14.4711C17.0667 14.4711 17.8845 15.2533 17.8845 16.2489C17.8489 17.2089 17.0667 18.0267 16.1067 18.0267Z" fill="white"/>
</svg>
