<svg width="32" height="32" viewBox="0 0 32 32" fill="none" xmlns="http://www.w3.org/2000/svg">
<g opacity="0.2">
<mask id="path-1-outside-1" maskUnits="userSpaceOnUse" x="0" y="4" width="32" height="25" fill="black">
<rect fill="white" y="4" width="32" height="25"/>
<path fill-rule="evenodd" clip-rule="evenodd" d="M15.9659 5.00005C11.9243 5.06454 9.15595 5.29161 7.57174 5.7216C7.03826 5.8664 6.65002 6.30673 6.25444 6.8474C5.85886 7.38808 5.48028 8.05624 5.13689 8.73156C4.92739 9.14359 4.73097 9.5593 4.5552 9.94775C4.44833 9.93672 4.33997 9.93834 4.22173 9.94062C3.98804 9.94513 3.73089 9.97124 3.47781 10.0112C3.22474 10.0512 2.97765 10.1046 2.76356 10.1699C2.74177 10.1765 2.72046 10.1828 2.69955 10.189L2.69954 10.189L2.69953 10.1891L2.69951 10.1891L2.6995 10.1891C2.51503 10.2438 2.36232 10.2891 2.19447 10.4605C1.97759 10.682 1.82424 10.9825 1.6798 11.3014C1.60759 11.4608 1.54628 11.617 1.5056 11.7662C1.48526 11.8409 1.4692 11.9128 1.46372 11.9976L1.46266 12.013C1.45686 12.0956 1.44943 12.2015 1.55002 12.3474C1.60338 12.4248 1.63721 12.4494 1.67206 12.4748C1.67822 12.4792 1.68441 12.4838 1.69075 12.4886C1.73294 12.5207 1.77784 12.5505 1.82957 12.582C1.93303 12.6451 2.06259 12.7136 2.21811 12.7842C2.39203 12.863 2.5977 12.944 2.82813 13.016C2.728 13.1285 2.62467 13.2433 2.52055 13.3587C2.43525 13.4532 2.34974 13.5471 2.26504 13.6402L2.26503 13.6402L2.26502 13.6402L2.26501 13.6402C1.76032 14.1945 1.28421 14.7175 1.05 15.1499C1.01819 15.2086 1.00136 15.2742 1.00098 15.341C0.993184 16.7985 1.0319 18.1492 1.11808 19.3941V20.6064V26.1808C1.11808 27.1107 1.88083 27.8734 2.81059 27.8734H4.77423C5.70399 27.8734 6.46674 27.1107 6.46674 26.1808V25.3006H7.81782C7.84574 25.335 7.87552 25.368 7.9071 25.3996C8.14916 25.6416 8.47733 25.7781 8.82012 25.7781C9.1621 25.7781 9.49108 25.6416 9.73315 25.3996C9.90437 25.2284 10.0224 25.0141 10.0767 24.782C10.3361 24.7717 10.5423 24.7762 10.6372 24.7782C10.6412 24.7783 10.6451 24.7784 10.6487 24.7785C10.703 25.0119 10.8217 25.2275 10.9938 25.3996C11.2358 25.6416 11.564 25.7781 11.9068 25.7781C12.2488 25.7781 12.5778 25.6416 12.8198 25.3996C12.9903 25.2291 13.108 25.0158 13.1627 24.7848C16.2234 24.775 18.5845 24.7701 20.246 24.7701C21.9761 24.7701 22.9839 24.7776 23.1438 24.7856C23.4748 24.8022 23.6436 24.8987 23.7909 25.1197C23.828 25.1754 23.8783 25.221 23.9372 25.2525C23.9962 25.2841 24.062 25.3006 24.1289 25.3006H25.5332V26.1808C25.5332 27.1107 26.296 27.8733 27.2257 27.8733H29.1894C30.1192 27.8733 30.8819 27.1107 30.8819 26.1808V20.6064V19.3943C30.9681 18.1493 31.0068 16.7985 30.999 15.341C30.9986 15.2742 30.9818 15.2086 30.95 15.1499C30.7158 14.7175 30.2397 14.1945 29.735 13.6402L29.735 13.6402C29.6502 13.5471 29.5647 13.4532 29.4794 13.3587C29.3753 13.2433 29.272 13.1285 29.1718 13.016C29.4022 12.944 29.6079 12.863 29.7818 12.7842C29.9373 12.7136 30.0669 12.6451 30.1703 12.582C30.2221 12.5505 30.267 12.5207 30.3092 12.4886C30.3155 12.4838 30.3217 12.4793 30.3278 12.4748L30.3278 12.4748C30.3627 12.4494 30.3965 12.4248 30.4499 12.3474C30.5505 12.2015 30.543 12.0956 30.5372 12.013V12.013L30.5362 11.9976C30.5307 11.9128 30.5146 11.8409 30.4943 11.7662C30.4536 11.617 30.3923 11.4608 30.3201 11.3014C30.1757 10.9825 30.0223 10.682 29.8054 10.4605C29.6376 10.2891 29.4849 10.2438 29.3004 10.1891C29.2795 10.1829 29.2582 10.1765 29.2363 10.1699C29.0223 10.1046 28.7752 10.0512 28.5221 10.0112C28.269 9.97124 28.0119 9.94513 27.7782 9.94062C27.66 9.93834 27.5516 9.93672 27.4448 9.94774C27.269 9.55929 27.0726 9.14359 26.8631 8.73156C26.5197 8.05624 26.1411 7.38808 25.7455 6.8474C25.35 6.30673 24.9617 5.8664 24.4283 5.7216C22.844 5.29161 20.0757 5.06454 16.0341 5.00005C16.0227 4.99987 16.0113 5.00017 16 5.00094C15.9887 5.00017 15.9773 4.99987 15.9659 5.00005ZM10.7268 23.9621C10.7907 23.8186 10.8807 23.6866 10.9938 23.5735C11.2358 23.3315 11.564 23.1958 11.9068 23.1958C12.2488 23.1958 12.5778 23.3315 12.8198 23.5735C12.9357 23.6894 13.0272 23.8252 13.0911 23.9728C16.1857 23.9627 18.5705 23.9578 20.246 23.9578C21.9778 23.9578 22.9156 23.9608 23.1844 23.9743C23.6268 23.9964 24.0248 24.1818 24.3101 24.4883H25.8713C25.8937 24.4845 25.9165 24.4825 25.9394 24.4825C25.9623 24.4825 25.9851 24.4845 26.0075 24.4883H28.8098L28.7062 24.295V24.2948C28.2707 23.4817 27.0094 22.7264 26.0869 22.7264H16.0277C16.0184 22.7265 16.0092 22.7264 16 22.7259C15.9908 22.7264 15.9816 22.7265 15.9723 22.7264H5.91313C4.99063 22.7264 3.7293 23.4817 3.29378 24.2948V24.295L3.19019 24.4883H5.99246C6.01491 24.4845 6.0377 24.4826 6.06059 24.4826C6.08347 24.4826 6.10626 24.4845 6.12871 24.4883H7.52857L7.52856 24.4865C7.52856 24.1446 7.66503 23.8156 7.9071 23.5735C8.14916 23.3315 8.47733 23.1958 8.82012 23.1958C9.1621 23.1958 9.49108 23.3315 9.73315 23.5735C9.84876 23.6891 9.94009 23.8246 10.004 23.9718C10.0312 23.9704 10.0576 23.969 10.0832 23.9677C10.2398 23.9595 10.3671 23.9529 10.4788 23.9518C10.5693 23.9509 10.6496 23.9537 10.7268 23.9621ZM16 21.9147C16.0092 21.9142 16.0184 21.914 16.0277 21.9141L26.0869 21.9141C27.3956 21.9141 28.8008 22.7548 29.4203 23.9079C29.7304 22.6021 29.9479 21.0649 30.0696 19.2983V19.1487C30.069 19.1057 30.0752 19.0634 30.0877 19.0231C30.1563 17.9246 30.1888 16.7399 30.1845 15.4694C30.0031 15.1752 29.4426 14.5305 28.8762 13.903C28.5781 13.5726 28.2816 13.2418 28.0355 12.9416C27.7895 12.6413 27.5946 12.3921 27.4834 12.1204C27.4686 12.0841 27.45 12.0381 27.4279 11.9836L27.4274 11.9822C27.226 11.4847 26.7364 10.2746 26.139 9.0998C25.8072 8.44728 25.4422 7.80844 25.09 7.32701C24.7378 6.84559 24.3741 6.54872 24.2155 6.50567C22.7982 6.12098 20.037 5.87643 16.0211 5.81235C16.014 5.81224 16.007 5.81195 16 5.81147C15.993 5.81195 15.9859 5.81224 15.9789 5.81235C11.963 5.87643 9.20179 6.12098 7.78449 6.50567C7.62588 6.54872 7.26223 6.84559 6.91 7.32701C6.55777 7.80844 6.19277 8.44728 5.86099 9.0998C5.26362 10.2746 4.77397 11.4847 4.57263 11.9822L4.57259 11.9823C4.55029 12.0374 4.53154 12.0838 4.51656 12.1204C4.40542 12.3921 4.21048 12.6413 3.96445 12.9416C3.71842 13.2418 3.42189 13.5726 3.12375 13.903C2.55744 14.5305 1.99685 15.1752 1.8155 15.4694C1.81119 16.7399 1.8437 17.9247 1.91232 19.0231C1.92487 19.0637 1.93098 19.1061 1.93038 19.1487V19.2981C2.05211 21.0648 2.26958 22.6021 2.57966 23.9079C3.19915 22.7548 4.60443 21.9141 5.91313 21.9141L15.9723 21.9141C15.9816 21.914 15.9908 21.9142 16 21.9147ZM2.44254 25.3006H2.41489C2.32714 25.3006 2.24173 25.2722 2.17146 25.2197C2.10119 25.1671 2.04984 25.0932 2.02508 25.009C1.99274 24.899 1.96117 24.7873 1.93038 24.674V26.1808C1.93038 26.6711 2.32044 27.061 2.81059 27.061H4.77423C5.26438 27.061 5.65444 26.6711 5.65444 26.1808V25.3006H2.57516C2.54053 25.3063 2.50523 25.3076 2.47014 25.3042C2.46089 25.3033 2.45169 25.3021 2.44254 25.3006ZM3.60458 10.8135C3.81233 10.7807 4.025 10.7592 4.20161 10.7537C4.03094 11.1544 3.8987 11.4816 3.81828 11.6806L3.81828 11.6806L3.81821 11.6808L3.81813 11.681L3.8177 11.682L3.81759 11.6823L3.81753 11.6825C3.79613 11.7354 3.77844 11.7792 3.76471 11.8128C3.73495 11.8855 3.60051 12.0928 3.41136 12.333C3.07603 12.2555 2.77723 12.1457 2.55366 12.0444C2.45028 11.9975 2.37786 11.9569 2.31219 11.9195C2.33781 11.8392 2.37048 11.7453 2.41976 11.6365C2.52694 11.3998 2.69921 11.1278 2.75893 11.0483C2.75882 11.0524 2.77463 11.0445 2.80183 11.0307C2.8452 11.0088 2.91753 10.9722 3.00043 10.947C3.16437 10.897 3.38264 10.8486 3.60458 10.8135ZM26.3455 25.3006H29.4248C29.4594 25.3063 29.4948 25.3076 29.5299 25.3042L29.5369 25.3035L29.5467 25.3023L29.5575 25.3006H29.5851C29.6729 25.3006 29.7583 25.2722 29.8285 25.2197C29.8988 25.1671 29.9502 25.0932 29.9749 25.009C30.0072 24.899 30.0388 24.7873 30.0696 24.674V26.1808C30.0696 26.6711 29.6795 27.061 29.1894 27.061H27.2257C26.7356 27.061 26.3455 26.6711 26.3455 26.1808V25.3006ZM28.5886 12.333C28.9239 12.2555 29.2227 12.1457 29.4462 12.0444C29.5496 11.9975 29.622 11.9569 29.6877 11.9195C29.6621 11.8392 29.6294 11.7453 29.5801 11.6365C29.473 11.3998 29.3007 11.1278 29.241 11.0483C29.2411 11.0524 29.2253 11.0445 29.1981 11.0307C29.1547 11.0088 29.0824 10.9722 28.9995 10.947C28.8355 10.897 28.6173 10.8486 28.3953 10.8135C28.1876 10.7807 27.975 10.7592 27.7984 10.7537C27.9691 11.1544 28.1013 11.4817 28.1817 11.6806L28.1821 11.6815C28.2036 11.7349 28.2215 11.779 28.2353 11.8128C28.265 11.8855 28.3995 12.0928 28.5886 12.333ZM12.3674 24.3569C12.3454 24.2787 12.3037 24.2065 12.2455 24.1478C12.1554 24.0585 12.0335 24.0081 11.9068 24.0081C11.7793 24.0081 11.6574 24.0585 11.5681 24.1478C11.4779 24.238 11.4275 24.3598 11.4275 24.4865C11.4275 24.6141 11.4779 24.7359 11.5681 24.8253C11.6574 24.9154 11.7793 24.9658 11.9068 24.9658C12.0335 24.9658 12.1554 24.9154 12.2455 24.8253C12.3316 24.7392 12.3815 24.623 12.385 24.5006C12.373 24.4621 12.3668 24.4218 12.3667 24.3813C12.3667 24.3732 12.3669 24.365 12.3674 24.3569ZM8.34087 24.4865C8.34087 24.3598 8.39123 24.238 8.48139 24.1478C8.57075 24.0585 8.69259 24.0081 8.82012 24.0081C8.94684 24.0081 9.06869 24.0585 9.15885 24.1478C9.24821 24.238 9.29857 24.3598 9.29857 24.4865C9.29857 24.6141 9.24821 24.7359 9.15885 24.8253C9.06869 24.9154 8.94684 24.9658 8.82012 24.9658C8.69259 24.9658 8.57075 24.9154 8.48139 24.8253C8.39123 24.7359 8.34087 24.6141 8.34087 24.4865ZM16 7.20239C15.9915 7.20285 15.9831 7.20306 15.9746 7.203C12.3503 7.22357 9.97965 7.35698 8.97863 7.56504C8.78655 7.61621 8.52927 7.79283 8.24343 8.163C8.01334 8.46095 7.59479 9.23408 7.08527 10.2867C7.08965 10.2871 7.09217 10.2875 7.0947 10.2878L7.0947 10.2878C7.09728 10.2882 7.09987 10.2886 7.10446 10.2889C7.48489 10.3189 8.07385 10.3448 8.86107 10.3654C10.4355 10.4066 12.8077 10.4274 15.9724 10.4274C15.9816 10.4273 15.9908 10.4275 16 10.428C16.0092 10.4275 16.0184 10.4273 16.0277 10.4274C19.1923 10.4274 21.5645 10.4066 23.1389 10.3654C23.9262 10.3448 24.5151 10.3189 24.8955 10.2889C24.9002 10.2886 24.9028 10.2882 24.9054 10.2878C24.9079 10.2875 24.9104 10.2871 24.9147 10.2867C24.4052 9.23408 23.9867 8.46095 23.7566 8.163C23.4707 7.79283 23.2135 7.61621 23.0214 7.56504C22.0204 7.35698 19.6497 7.22357 16.0254 7.203C16.0169 7.20306 16.0085 7.20285 16 7.20239ZM16 11.2392C15.9908 11.2397 15.9816 11.2399 15.9724 11.2398C12.8042 11.2398 10.4284 11.219 8.83981 11.1774C8.0455 11.1566 7.44936 11.1309 7.04069 11.0987C6.83635 11.0826 6.68124 11.066 6.55569 11.0429C6.49291 11.0313 6.44001 11.021 6.36879 10.9926L6.36586 10.9914C6.33089 10.9775 6.28976 10.9611 6.23092 10.9118C6.17043 10.8611 6.07065 10.7354 6.07735 10.5688C6.07951 10.5149 6.0924 10.4619 6.11527 10.413C6.75905 9.03745 7.2288 8.14782 7.60057 7.66642H7.60041C7.95215 7.21089 8.33238 6.89197 8.77936 6.77622C8.78535 6.77465 8.79138 6.77323 8.79744 6.77194C9.96727 6.52582 12.3166 6.41143 15.97 6.39069L15.97 6.3907C15.98 6.39051 15.99 6.39069 16 6.39125C16.01 6.39069 16.02 6.39051 16.03 6.3907L16.03 6.39069C19.6834 6.41143 22.0327 6.52582 23.2026 6.77194C23.2086 6.77323 23.2147 6.77465 23.2207 6.77622C23.6676 6.89197 24.0479 7.21089 24.3996 7.66642H24.3994C24.7712 8.14782 25.241 9.03745 25.8847 10.413C25.9076 10.4619 25.9205 10.5149 25.9227 10.5688C25.9294 10.7354 25.8296 10.8611 25.7691 10.9118C25.7102 10.9611 25.6691 10.9775 25.6342 10.9914L25.6312 10.9926C25.56 11.021 25.5071 11.0313 25.4443 11.0429C25.3188 11.066 25.1637 11.0826 24.9593 11.0987C24.5507 11.1309 23.9545 11.1566 23.1602 11.1774C21.5716 11.219 19.1958 11.2398 16.0277 11.2398C16.0184 11.2399 16.0092 11.2397 16 11.2392ZM20.5803 12.3877L20.586 12.3877H21.4036H21.4046H25.2745H25.2757C25.9123 12.3899 26.5159 12.6335 27.0349 13.0767C27.5538 13.52 28 14.1547 28.3975 14.9718C28.4277 15.0337 28.4415 15.1023 28.4379 15.1711C28.4342 15.2398 28.4131 15.3065 28.3766 15.3649C28.3401 15.4233 28.2894 15.4714 28.2291 15.5048C28.1689 15.5381 28.1012 15.5557 28.0323 15.5557H21.0456C20.9861 15.5557 20.9273 15.5426 20.8734 15.5173C20.8195 15.4921 20.7718 15.4553 20.7337 15.4096C20.3762 14.9806 20.1798 14.3493 20.1798 13.7705V13.2H16.0277C16.0184 13.2002 16.0092 13.2 16 13.1995C15.9908 13.2 15.9816 13.2002 15.9723 13.2H11.8202V13.7705C11.8202 14.3493 11.6238 14.9806 11.2663 15.4096C11.2282 15.4553 11.1805 15.4921 11.1266 15.5173C11.0727 15.5426 11.0139 15.5557 10.9544 15.5557H3.96765C3.8988 15.5557 3.83107 15.5381 3.77085 15.5048C3.71062 15.4714 3.65986 15.4233 3.62335 15.3649C3.58683 15.3065 3.56576 15.2398 3.5621 15.1711C3.55844 15.1023 3.57232 15.0337 3.60243 14.9718C3.99999 14.1547 4.44616 13.52 4.9651 13.0767C5.48404 12.6335 6.0877 12.3899 6.72424 12.3877H6.72424H6.72551H10.5954H10.5964H11.414L11.4197 12.3877H15.9723C15.9816 12.3876 15.9908 12.3878 16 12.3883C16.0092 12.3878 16.0184 12.3876 16.0277 12.3877H20.5803ZM10.6016 13.2L10.5878 13.2H6.72694C6.28712 13.2015 5.89299 13.3526 5.49262 13.6945C5.20595 13.9394 4.92272 14.2909 4.65081 14.7434H10.7286C10.8636 14.4891 11.0079 14.0451 11.0079 13.7705V13.2H10.6016ZM20.9921 13.2V13.7705C20.9921 14.0451 21.1364 14.4891 21.2713 14.7434H27.3492C27.0772 14.2909 26.794 13.9394 26.5074 13.6945C26.107 13.3526 25.7129 13.2015 25.273 13.2H21.4122L21.3984 13.2H20.9921Z"/>
</mask>
<path fill-rule="evenodd" clip-rule="evenodd" d="M15.9659 5.00005C11.9243 5.06454 9.15595 5.29161 7.57174 5.7216C7.03826 5.8664 6.65002 6.30673 6.25444 6.8474C5.85886 7.38808 5.48028 8.05624 5.13689 8.73156C4.92739 9.14359 4.73097 9.5593 4.5552 9.94775C4.44833 9.93672 4.33997 9.93834 4.22173 9.94062C3.98804 9.94513 3.73089 9.97124 3.47781 10.0112C3.22474 10.0512 2.97765 10.1046 2.76356 10.1699C2.74177 10.1765 2.72046 10.1828 2.69955 10.189L2.69954 10.189L2.69953 10.1891L2.69951 10.1891L2.6995 10.1891C2.51503 10.2438 2.36232 10.2891 2.19447 10.4605C1.97759 10.682 1.82424 10.9825 1.6798 11.3014C1.60759 11.4608 1.54628 11.617 1.5056 11.7662C1.48526 11.8409 1.4692 11.9128 1.46372 11.9976L1.46266 12.013C1.45686 12.0956 1.44943 12.2015 1.55002 12.3474C1.60338 12.4248 1.63721 12.4494 1.67206 12.4748C1.67822 12.4792 1.68441 12.4838 1.69075 12.4886C1.73294 12.5207 1.77784 12.5505 1.82957 12.582C1.93303 12.6451 2.06259 12.7136 2.21811 12.7842C2.39203 12.863 2.5977 12.944 2.82813 13.016C2.728 13.1285 2.62467 13.2433 2.52055 13.3587C2.43525 13.4532 2.34974 13.5471 2.26504 13.6402L2.26503 13.6402L2.26502 13.6402L2.26501 13.6402C1.76032 14.1945 1.28421 14.7175 1.05 15.1499C1.01819 15.2086 1.00136 15.2742 1.00098 15.341C0.993184 16.7985 1.0319 18.1492 1.11808 19.3941V20.6064V26.1808C1.11808 27.1107 1.88083 27.8734 2.81059 27.8734H4.77423C5.70399 27.8734 6.46674 27.1107 6.46674 26.1808V25.3006H7.81782C7.84574 25.335 7.87552 25.368 7.9071 25.3996C8.14916 25.6416 8.47733 25.7781 8.82012 25.7781C9.1621 25.7781 9.49108 25.6416 9.73315 25.3996C9.90437 25.2284 10.0224 25.0141 10.0767 24.782C10.3361 24.7717 10.5423 24.7762 10.6372 24.7782C10.6412 24.7783 10.6451 24.7784 10.6487 24.7785C10.703 25.0119 10.8217 25.2275 10.9938 25.3996C11.2358 25.6416 11.564 25.7781 11.9068 25.7781C12.2488 25.7781 12.5778 25.6416 12.8198 25.3996C12.9903 25.2291 13.108 25.0158 13.1627 24.7848C16.2234 24.775 18.5845 24.7701 20.246 24.7701C21.9761 24.7701 22.9839 24.7776 23.1438 24.7856C23.4748 24.8022 23.6436 24.8987 23.7909 25.1197C23.828 25.1754 23.8783 25.221 23.9372 25.2525C23.9962 25.2841 24.062 25.3006 24.1289 25.3006H25.5332V26.1808C25.5332 27.1107 26.296 27.8733 27.2257 27.8733H29.1894C30.1192 27.8733 30.8819 27.1107 30.8819 26.1808V20.6064V19.3943C30.9681 18.1493 31.0068 16.7985 30.999 15.341C30.9986 15.2742 30.9818 15.2086 30.95 15.1499C30.7158 14.7175 30.2397 14.1945 29.735 13.6402L29.735 13.6402C29.6502 13.5471 29.5647 13.4532 29.4794 13.3587C29.3753 13.2433 29.272 13.1285 29.1718 13.016C29.4022 12.944 29.6079 12.863 29.7818 12.7842C29.9373 12.7136 30.0669 12.6451 30.1703 12.582C30.2221 12.5505 30.267 12.5207 30.3092 12.4886C30.3155 12.4838 30.3217 12.4793 30.3278 12.4748L30.3278 12.4748C30.3627 12.4494 30.3965 12.4248 30.4499 12.3474C30.5505 12.2015 30.543 12.0956 30.5372 12.013V12.013L30.5362 11.9976C30.5307 11.9128 30.5146 11.8409 30.4943 11.7662C30.4536 11.617 30.3923 11.4608 30.3201 11.3014C30.1757 10.9825 30.0223 10.682 29.8054 10.4605C29.6376 10.2891 29.4849 10.2438 29.3004 10.1891C29.2795 10.1829 29.2582 10.1765 29.2363 10.1699C29.0223 10.1046 28.7752 10.0512 28.5221 10.0112C28.269 9.97124 28.0119 9.94513 27.7782 9.94062C27.66 9.93834 27.5516 9.93672 27.4448 9.94774C27.269 9.55929 27.0726 9.14359 26.8631 8.73156C26.5197 8.05624 26.1411 7.38808 25.7455 6.8474C25.35 6.30673 24.9617 5.8664 24.4283 5.7216C22.844 5.29161 20.0757 5.06454 16.0341 5.00005C16.0227 4.99987 16.0113 5.00017 16 5.00094C15.9887 5.00017 15.9773 4.99987 15.9659 5.00005ZM10.7268 23.9621C10.7907 23.8186 10.8807 23.6866 10.9938 23.5735C11.2358 23.3315 11.564 23.1958 11.9068 23.1958C12.2488 23.1958 12.5778 23.3315 12.8198 23.5735C12.9357 23.6894 13.0272 23.8252 13.0911 23.9728C16.1857 23.9627 18.5705 23.9578 20.246 23.9578C21.9778 23.9578 22.9156 23.9608 23.1844 23.9743C23.6268 23.9964 24.0248 24.1818 24.3101 24.4883H25.8713C25.8937 24.4845 25.9165 24.4825 25.9394 24.4825C25.9623 24.4825 25.9851 24.4845 26.0075 24.4883H28.8098L28.7062 24.295V24.2948C28.2707 23.4817 27.0094 22.7264 26.0869 22.7264H16.0277C16.0184 22.7265 16.0092 22.7264 16 22.7259C15.9908 22.7264 15.9816 22.7265 15.9723 22.7264H5.91313C4.99063 22.7264 3.7293 23.4817 3.29378 24.2948V24.295L3.19019 24.4883H5.99246C6.01491 24.4845 6.0377 24.4826 6.06059 24.4826C6.08347 24.4826 6.10626 24.4845 6.12871 24.4883H7.52857L7.52856 24.4865C7.52856 24.1446 7.66503 23.8156 7.9071 23.5735C8.14916 23.3315 8.47733 23.1958 8.82012 23.1958C9.1621 23.1958 9.49108 23.3315 9.73315 23.5735C9.84876 23.6891 9.94009 23.8246 10.004 23.9718C10.0312 23.9704 10.0576 23.969 10.0832 23.9677C10.2398 23.9595 10.3671 23.9529 10.4788 23.9518C10.5693 23.9509 10.6496 23.9537 10.7268 23.9621ZM16 21.9147C16.0092 21.9142 16.0184 21.914 16.0277 21.9141L26.0869 21.9141C27.3956 21.9141 28.8008 22.7548 29.4203 23.9079C29.7304 22.6021 29.9479 21.0649 30.0696 19.2983V19.1487C30.069 19.1057 30.0752 19.0634 30.0877 19.0231C30.1563 17.9246 30.1888 16.7399 30.1845 15.4694C30.0031 15.1752 29.4426 14.5305 28.8762 13.903C28.5781 13.5726 28.2816 13.2418 28.0355 12.9416C27.7895 12.6413 27.5946 12.3921 27.4834 12.1204C27.4686 12.0841 27.45 12.0381 27.4279 11.9836L27.4274 11.9822C27.226 11.4847 26.7364 10.2746 26.139 9.0998C25.8072 8.44728 25.4422 7.80844 25.09 7.32701C24.7378 6.84559 24.3741 6.54872 24.2155 6.50567C22.7982 6.12098 20.037 5.87643 16.0211 5.81235C16.014 5.81224 16.007 5.81195 16 5.81147C15.993 5.81195 15.9859 5.81224 15.9789 5.81235C11.963 5.87643 9.20179 6.12098 7.78449 6.50567C7.62588 6.54872 7.26223 6.84559 6.91 7.32701C6.55777 7.80844 6.19277 8.44728 5.86099 9.0998C5.26362 10.2746 4.77397 11.4847 4.57263 11.9822L4.57259 11.9823C4.55029 12.0374 4.53154 12.0838 4.51656 12.1204C4.40542 12.3921 4.21048 12.6413 3.96445 12.9416C3.71842 13.2418 3.42189 13.5726 3.12375 13.903C2.55744 14.5305 1.99685 15.1752 1.8155 15.4694C1.81119 16.7399 1.8437 17.9247 1.91232 19.0231C1.92487 19.0637 1.93098 19.1061 1.93038 19.1487V19.2981C2.05211 21.0648 2.26958 22.6021 2.57966 23.9079C3.19915 22.7548 4.60443 21.9141 5.91313 21.9141L15.9723 21.9141C15.9816 21.914 15.9908 21.9142 16 21.9147ZM2.44254 25.3006H2.41489C2.32714 25.3006 2.24173 25.2722 2.17146 25.2197C2.10119 25.1671 2.04984 25.0932 2.02508 25.009C1.99274 24.899 1.96117 24.7873 1.93038 24.674V26.1808C1.93038 26.6711 2.32044 27.061 2.81059 27.061H4.77423C5.26438 27.061 5.65444 26.6711 5.65444 26.1808V25.3006H2.57516C2.54053 25.3063 2.50523 25.3076 2.47014 25.3042C2.46089 25.3033 2.45169 25.3021 2.44254 25.3006ZM3.60458 10.8135C3.81233 10.7807 4.025 10.7592 4.20161 10.7537C4.03094 11.1544 3.8987 11.4816 3.81828 11.6806L3.81828 11.6806L3.81821 11.6808L3.81813 11.681L3.8177 11.682L3.81759 11.6823L3.81753 11.6825C3.79613 11.7354 3.77844 11.7792 3.76471 11.8128C3.73495 11.8855 3.60051 12.0928 3.41136 12.333C3.07603 12.2555 2.77723 12.1457 2.55366 12.0444C2.45028 11.9975 2.37786 11.9569 2.31219 11.9195C2.33781 11.8392 2.37048 11.7453 2.41976 11.6365C2.52694 11.3998 2.69921 11.1278 2.75893 11.0483C2.75882 11.0524 2.77463 11.0445 2.80183 11.0307C2.8452 11.0088 2.91753 10.9722 3.00043 10.947C3.16437 10.897 3.38264 10.8486 3.60458 10.8135ZM26.3455 25.3006H29.4248C29.4594 25.3063 29.4948 25.3076 29.5299 25.3042L29.5369 25.3035L29.5467 25.3023L29.5575 25.3006H29.5851C29.6729 25.3006 29.7583 25.2722 29.8285 25.2197C29.8988 25.1671 29.9502 25.0932 29.9749 25.009C30.0072 24.899 30.0388 24.7873 30.0696 24.674V26.1808C30.0696 26.6711 29.6795 27.061 29.1894 27.061H27.2257C26.7356 27.061 26.3455 26.6711 26.3455 26.1808V25.3006ZM28.5886 12.333C28.9239 12.2555 29.2227 12.1457 29.4462 12.0444C29.5496 11.9975 29.622 11.9569 29.6877 11.9195C29.6621 11.8392 29.6294 11.7453 29.5801 11.6365C29.473 11.3998 29.3007 11.1278 29.241 11.0483C29.2411 11.0524 29.2253 11.0445 29.1981 11.0307C29.1547 11.0088 29.0824 10.9722 28.9995 10.947C28.8355 10.897 28.6173 10.8486 28.3953 10.8135C28.1876 10.7807 27.975 10.7592 27.7984 10.7537C27.9691 11.1544 28.1013 11.4817 28.1817 11.6806L28.1821 11.6815C28.2036 11.7349 28.2215 11.779 28.2353 11.8128C28.265 11.8855 28.3995 12.0928 28.5886 12.333ZM12.3674 24.3569C12.3454 24.2787 12.3037 24.2065 12.2455 24.1478C12.1554 24.0585 12.0335 24.0081 11.9068 24.0081C11.7793 24.0081 11.6574 24.0585 11.5681 24.1478C11.4779 24.238 11.4275 24.3598 11.4275 24.4865C11.4275 24.6141 11.4779 24.7359 11.5681 24.8253C11.6574 24.9154 11.7793 24.9658 11.9068 24.9658C12.0335 24.9658 12.1554 24.9154 12.2455 24.8253C12.3316 24.7392 12.3815 24.623 12.385 24.5006C12.373 24.4621 12.3668 24.4218 12.3667 24.3813C12.3667 24.3732 12.3669 24.365 12.3674 24.3569ZM8.34087 24.4865C8.34087 24.3598 8.39123 24.238 8.48139 24.1478C8.57075 24.0585 8.69259 24.0081 8.82012 24.0081C8.94684 24.0081 9.06869 24.0585 9.15885 24.1478C9.24821 24.238 9.29857 24.3598 9.29857 24.4865C9.29857 24.6141 9.24821 24.7359 9.15885 24.8253C9.06869 24.9154 8.94684 24.9658 8.82012 24.9658C8.69259 24.9658 8.57075 24.9154 8.48139 24.8253C8.39123 24.7359 8.34087 24.6141 8.34087 24.4865ZM16 7.20239C15.9915 7.20285 15.9831 7.20306 15.9746 7.203C12.3503 7.22357 9.97965 7.35698 8.97863 7.56504C8.78655 7.61621 8.52927 7.79283 8.24343 8.163C8.01334 8.46095 7.59479 9.23408 7.08527 10.2867C7.08965 10.2871 7.09217 10.2875 7.0947 10.2878L7.0947 10.2878C7.09728 10.2882 7.09987 10.2886 7.10446 10.2889C7.48489 10.3189 8.07385 10.3448 8.86107 10.3654C10.4355 10.4066 12.8077 10.4274 15.9724 10.4274C15.9816 10.4273 15.9908 10.4275 16 10.428C16.0092 10.4275 16.0184 10.4273 16.0277 10.4274C19.1923 10.4274 21.5645 10.4066 23.1389 10.3654C23.9262 10.3448 24.5151 10.3189 24.8955 10.2889C24.9002 10.2886 24.9028 10.2882 24.9054 10.2878C24.9079 10.2875 24.9104 10.2871 24.9147 10.2867C24.4052 9.23408 23.9867 8.46095 23.7566 8.163C23.4707 7.79283 23.2135 7.61621 23.0214 7.56504C22.0204 7.35698 19.6497 7.22357 16.0254 7.203C16.0169 7.20306 16.0085 7.20285 16 7.20239ZM16 11.2392C15.9908 11.2397 15.9816 11.2399 15.9724 11.2398C12.8042 11.2398 10.4284 11.219 8.83981 11.1774C8.0455 11.1566 7.44936 11.1309 7.04069 11.0987C6.83635 11.0826 6.68124 11.066 6.55569 11.0429C6.49291 11.0313 6.44001 11.021 6.36879 10.9926L6.36586 10.9914C6.33089 10.9775 6.28976 10.9611 6.23092 10.9118C6.17043 10.8611 6.07065 10.7354 6.07735 10.5688C6.07951 10.5149 6.0924 10.4619 6.11527 10.413C6.75905 9.03745 7.2288 8.14782 7.60057 7.66642H7.60041C7.95215 7.21089 8.33238 6.89197 8.77936 6.77622C8.78535 6.77465 8.79138 6.77323 8.79744 6.77194C9.96727 6.52582 12.3166 6.41143 15.97 6.39069L15.97 6.3907C15.98 6.39051 15.99 6.39069 16 6.39125C16.01 6.39069 16.02 6.39051 16.03 6.3907L16.03 6.39069C19.6834 6.41143 22.0327 6.52582 23.2026 6.77194C23.2086 6.77323 23.2147 6.77465 23.2207 6.77622C23.6676 6.89197 24.0479 7.21089 24.3996 7.66642H24.3994C24.7712 8.14782 25.241 9.03745 25.8847 10.413C25.9076 10.4619 25.9205 10.5149 25.9227 10.5688C25.9294 10.7354 25.8296 10.8611 25.7691 10.9118C25.7102 10.9611 25.6691 10.9775 25.6342 10.9914L25.6312 10.9926C25.56 11.021 25.5071 11.0313 25.4443 11.0429C25.3188 11.066 25.1637 11.0826 24.9593 11.0987C24.5507 11.1309 23.9545 11.1566 23.1602 11.1774C21.5716 11.219 19.1958 11.2398 16.0277 11.2398C16.0184 11.2399 16.0092 11.2397 16 11.2392ZM20.5803 12.3877L20.586 12.3877H21.4036H21.4046H25.2745H25.2757C25.9123 12.3899 26.5159 12.6335 27.0349 13.0767C27.5538 13.52 28 14.1547 28.3975 14.9718C28.4277 15.0337 28.4415 15.1023 28.4379 15.1711C28.4342 15.2398 28.4131 15.3065 28.3766 15.3649C28.3401 15.4233 28.2894 15.4714 28.2291 15.5048C28.1689 15.5381 28.1012 15.5557 28.0323 15.5557H21.0456C20.9861 15.5557 20.9273 15.5426 20.8734 15.5173C20.8195 15.4921 20.7718 15.4553 20.7337 15.4096C20.3762 14.9806 20.1798 14.3493 20.1798 13.7705V13.2H16.0277C16.0184 13.2002 16.0092 13.2 16 13.1995C15.9908 13.2 15.9816 13.2002 15.9723 13.2H11.8202V13.7705C11.8202 14.3493 11.6238 14.9806 11.2663 15.4096C11.2282 15.4553 11.1805 15.4921 11.1266 15.5173C11.0727 15.5426 11.0139 15.5557 10.9544 15.5557H3.96765C3.8988 15.5557 3.83107 15.5381 3.77085 15.5048C3.71062 15.4714 3.65986 15.4233 3.62335 15.3649C3.58683 15.3065 3.56576 15.2398 3.5621 15.1711C3.55844 15.1023 3.57232 15.0337 3.60243 14.9718C3.99999 14.1547 4.44616 13.52 4.9651 13.0767C5.48404 12.6335 6.0877 12.3899 6.72424 12.3877H6.72424H6.72551H10.5954H10.5964H11.414L11.4197 12.3877H15.9723C15.9816 12.3876 15.9908 12.3878 16 12.3883C16.0092 12.3878 16.0184 12.3876 16.0277 12.3877H20.5803ZM10.6016 13.2L10.5878 13.2H6.72694C6.28712 13.2015 5.89299 13.3526 5.49262 13.6945C5.20595 13.9394 4.92272 14.2909 4.65081 14.7434H10.7286C10.8636 14.4891 11.0079 14.0451 11.0079 13.7705V13.2H10.6016ZM20.9921 13.2V13.7705C20.9921 14.0451 21.1364 14.4891 21.2713 14.7434H27.3492C27.0772 14.2909 26.794 13.9394 26.5074 13.6945C26.107 13.3526 25.7129 13.2015 25.273 13.2H21.4122L21.3984 13.2H20.9921Z" fill="white"/>
<path d="M7.57174 5.7216L7.62413 5.91462L7.62413 5.91462L7.57174 5.7216ZM15.9659 5.00005L15.9691 5.20003L15.9691 5.20003L15.9659 5.00005ZM5.13689 8.73156L4.95862 8.64091V8.64091L5.13689 8.73156ZM4.5552 9.94775L4.53468 10.1467L4.67801 10.1615L4.73742 10.0302L4.5552 9.94775ZM4.22173 9.94062L4.21788 9.74066H4.21788L4.22173 9.94062ZM3.47781 10.0112L3.4466 9.81367H3.4466L3.47781 10.0112ZM2.76356 10.1699L2.70524 9.97857L2.70524 9.97857L2.76356 10.1699ZM2.69955 10.189L2.64263 9.9972L2.63631 9.99931L2.69955 10.189ZM2.69954 10.189L2.75704 10.3807L2.76279 10.3788L2.69954 10.189ZM2.6995 10.1891L2.75639 10.3808L2.75697 10.3806L2.6995 10.1891ZM2.19447 10.4605L2.05157 10.3206L2.05157 10.3206L2.19447 10.4605ZM1.6798 11.3014L1.86199 11.3839V11.3839L1.6798 11.3014ZM1.5056 11.7662L1.69856 11.8188L1.69856 11.8188L1.5056 11.7662ZM1.46372 11.9976L1.66325 12.0112L1.6633 12.0104L1.46372 11.9976ZM1.46266 12.013L1.66217 12.027L1.66219 12.0266L1.46266 12.013ZM1.55002 12.3474L1.71469 12.2339L1.71467 12.2338L1.55002 12.3474ZM1.67206 12.4748L1.55436 12.6365L1.55436 12.6365L1.67206 12.4748ZM1.69075 12.4886L1.81191 12.3295L1.81191 12.3295L1.69075 12.4886ZM1.82957 12.582L1.93364 12.4112H1.93364L1.82957 12.582ZM2.21811 12.7842L2.30071 12.602H2.30071L2.21811 12.7842ZM2.82813 13.016L2.97752 13.149L3.18356 12.9175L2.88777 12.8251L2.82813 13.016ZM2.52055 13.3587L2.37207 13.2247H2.37207L2.52055 13.3587ZM2.26504 13.6402L2.40773 13.7805L2.41293 13.7748L2.26504 13.6402ZM2.26503 13.6402L2.12243 13.4999L2.12021 13.5022L2.26503 13.6402ZM2.26502 13.6402L2.12019 13.5022L2.11424 13.5085L2.10885 13.5152L2.26502 13.6402ZM2.26501 13.6402L2.41321 13.7751L2.42119 13.7651L2.26501 13.6402ZM1.05 15.1499L0.874149 15.0546L0.874144 15.0546L1.05 15.1499ZM1.00098 15.341L0.800983 15.3399L0.800982 15.34L1.00098 15.341ZM1.11808 19.3941H1.31856L1.3176 19.3803L1.11808 19.3941ZM6.46674 25.3006V25.1006H6.26674V25.3006H6.46674ZM7.81782 25.3006L7.97303 25.1745L7.91301 25.1006H7.81782V25.3006ZM7.9071 25.3996L7.76567 25.541H7.76567L7.9071 25.3996ZM9.73315 25.3996L9.87457 25.541L9.73315 25.3996ZM10.0767 24.782L10.0689 24.5821L9.91676 24.5881L9.88202 24.7363L10.0767 24.782ZM10.6372 24.7782L10.6329 24.9782H10.6329L10.6372 24.7782ZM10.6487 24.7785L10.8435 24.7332L10.8083 24.5818L10.6529 24.5785L10.6487 24.7785ZM10.9938 25.3996L10.8523 25.541H10.8523L10.9938 25.3996ZM12.8198 25.3996L12.9612 25.541H12.9612L12.8198 25.3996ZM13.1627 24.7848L13.1621 24.5848L13.0044 24.5854L12.9681 24.7388L13.1627 24.7848ZM23.1438 24.7856L23.1338 24.9854H23.1338L23.1438 24.7856ZM23.7909 25.1197L23.6245 25.2307V25.2307L23.7909 25.1197ZM23.9372 25.2525L24.0316 25.0762H24.0316L23.9372 25.2525ZM24.1289 25.3006L24.1289 25.5006H24.1289V25.3006ZM25.5332 25.3006H25.7332V25.1006H25.5332V25.3006ZM30.8819 19.3943L30.6819 19.3804V19.3943H30.8819ZM30.999 15.341L31.199 15.34V15.3399L30.999 15.341ZM30.95 15.1499L31.1258 15.0546L31.1258 15.0546L30.95 15.1499ZM29.735 13.6402L29.5759 13.7614L29.5812 13.7683L29.5871 13.7748L29.735 13.6402ZM29.735 13.6402L29.894 13.5189L29.8887 13.512L29.8828 13.5055L29.735 13.6402ZM29.4794 13.3587L29.331 13.4927L29.4794 13.3587ZM29.1718 13.016L29.1122 12.8251L28.8164 12.9175L29.0225 13.1489L29.1718 13.016ZM29.7818 12.7842L29.6992 12.602V12.602L29.7818 12.7842ZM30.1703 12.582L30.0663 12.4112V12.4112L30.1703 12.582ZM30.3092 12.4886L30.4303 12.6477L30.4303 12.6477L30.3092 12.4886ZM30.3278 12.4748L30.4456 12.6368L30.4542 12.6298L30.3278 12.4748ZM30.3278 12.4748L30.21 12.3128L30.2015 12.3198L30.3278 12.4748ZM30.4499 12.3474L30.2852 12.2338L30.2852 12.2339L30.4499 12.3474ZM30.5372 12.013H30.3368L30.3377 12.027L30.5372 12.013ZM30.5372 12.013H30.7377L30.7368 11.9994L30.5372 12.013ZM30.5362 11.9976L30.3366 12.0104L30.3367 12.0112L30.5362 11.9976ZM30.4943 11.7662L30.6873 11.7136V11.7136L30.4943 11.7662ZM30.3201 11.3014L30.5023 11.2189V11.2189L30.3201 11.3014ZM29.8054 10.4605L29.9483 10.3206V10.3206L29.8054 10.4605ZM29.3004 10.1891L29.3573 9.99732V9.99732L29.3004 10.1891ZM29.2363 10.1699L29.2947 9.97857V9.97857L29.2363 10.1699ZM28.5221 10.0112L28.5533 9.81367L28.5221 10.0112ZM27.7782 9.94062L27.7743 10.1406L27.7782 9.94062ZM27.4448 9.94774L27.2626 10.0302L27.322 10.1615L27.4653 10.1467L27.4448 9.94774ZM26.8631 8.73156L27.0414 8.64091L26.8631 8.73156ZM24.4283 5.7216L24.3759 5.91462L24.3759 5.91462L24.4283 5.7216ZM16.0341 5.00005L16.0309 5.20003L16.0309 5.20003L16.0341 5.00005ZM16 5.00094L15.9864 5.20047L16 5.2014L16.0136 5.20047L16 5.00094ZM10.7268 23.9621L10.705 24.1609L10.8502 24.1769L10.9095 24.0434L10.7268 23.9621ZM10.9938 23.5735L11.1352 23.7149H11.1352L10.9938 23.5735ZM12.8198 23.5735L12.6784 23.7149H12.6784L12.8198 23.5735ZM13.0911 23.9728L12.9075 24.0522L12.9599 24.1732L13.0917 24.1728L13.0911 23.9728ZM23.1844 23.9743L23.1744 24.174L23.1844 23.9743ZM24.3101 24.4883L24.1637 24.6246L24.223 24.6883H24.3101V24.4883ZM25.8713 24.4883V24.6883H25.8882L25.9048 24.6855L25.8713 24.4883ZM26.0075 24.4883L25.974 24.6855L25.9906 24.6883H26.0075V24.4883ZM28.8098 24.4883V24.6883H29.1439L28.9861 24.3938L28.8098 24.4883ZM28.7062 24.295H28.5062V24.3452L28.5299 24.3895L28.7062 24.295ZM28.7062 24.2948H28.9062V24.2447L28.8825 24.2004L28.7062 24.2948ZM16.0277 22.7264V22.5264L16.0248 22.5264L16.0277 22.7264ZM16 22.7259L16.0108 22.5261L16 22.5256L15.9892 22.5261L16 22.7259ZM15.9723 22.7264L15.9752 22.5264H15.9723V22.7264ZM3.29378 24.2948L3.11747 24.2004L3.09378 24.2447V24.2948H3.29378ZM3.29378 24.295L3.47006 24.3895L3.49378 24.3452V24.295H3.29378ZM3.19019 24.4883L3.01391 24.3938L2.8561 24.6883H3.19019V24.4883ZM5.99246 24.4883V24.6883H6.00935L6.02601 24.6855L5.99246 24.4883ZM6.12871 24.4883L6.09517 24.6855L6.11182 24.6883H6.12871V24.4883ZM7.52857 24.4883V24.6883H7.7287L7.72857 24.4882L7.52857 24.4883ZM7.52856 24.4865H7.32856V24.4867L7.52856 24.4865ZM7.9071 23.5735L8.04852 23.7149H8.04852L7.9071 23.5735ZM9.73315 23.5735L9.59173 23.7149H9.59173L9.73315 23.5735ZM10.004 23.9718L9.8205 24.0514L9.8757 24.1786L10.0142 24.1715L10.004 23.9718ZM10.0832 23.9677L10.0729 23.7679H10.0729L10.0832 23.9677ZM10.4788 23.9518L10.4808 24.1518H10.4808L10.4788 23.9518ZM16.0277 21.9141L16.0248 22.1141H16.0277V21.9141ZM16 21.9147L15.9892 22.1144L16 22.1149L16.0108 22.1144L16 21.9147ZM26.0869 21.9141V22.1141V21.9141ZM29.4203 23.9079L29.2441 24.0025L29.4933 24.4663L29.6149 23.9541L29.4203 23.9079ZM30.0696 19.2983L30.2696 19.3121V19.2983H30.0696ZM30.0696 19.1487H30.2696L30.2696 19.1459L30.0696 19.1487ZM30.0877 19.0231L30.2788 19.0821L30.2858 19.0593L30.2873 19.0355L30.0877 19.0231ZM30.1845 15.4694L30.3845 15.4687L30.3843 15.4124L30.3547 15.3644L30.1845 15.4694ZM28.8762 13.903L28.7278 14.037L28.8762 13.903ZM28.0355 12.9416L27.8808 13.0683L28.0355 12.9416ZM27.4834 12.1204L27.6685 12.0447L27.6685 12.0446L27.4834 12.1204ZM27.4279 11.9836L27.6133 11.9086L27.6132 11.9084L27.4279 11.9836ZM27.4274 11.9822L27.242 12.0573L27.2421 12.0575L27.4274 11.9822ZM26.139 9.0998L26.3173 9.00915V9.00915L26.139 9.0998ZM25.09 7.32701L24.9286 7.44511L24.9286 7.44511L25.09 7.32701ZM24.2155 6.50567L24.1631 6.69868L24.1631 6.69868L24.2155 6.50567ZM16.0211 5.81235L16.0243 5.61238L16.0243 5.61238L16.0211 5.81235ZM16 5.81147L16.0136 5.61193L16 5.61101L15.9864 5.61193L16 5.81147ZM15.9789 5.81235L15.9757 5.61238L15.9757 5.61238L15.9789 5.81235ZM7.78449 6.50567L7.83688 6.69868L7.83688 6.69868L7.78449 6.50567ZM6.91 7.32701L7.07141 7.44511L6.91 7.32701ZM5.86099 9.0998L5.68271 9.00915L5.86099 9.0998ZM4.57263 11.9822L4.75777 12.0579L4.75803 12.0573L4.57263 11.9822ZM4.57259 11.9823L4.38744 11.9067L4.38719 11.9073L4.57259 11.9823ZM4.51656 12.1204L4.33146 12.0446L4.33145 12.0447L4.51656 12.1204ZM3.96445 12.9416L4.11915 13.0683L3.96445 12.9416ZM3.12375 13.903L2.97527 13.769V13.769L3.12375 13.903ZM1.8155 15.4694L1.64525 15.3644L1.61569 15.4124L1.6155 15.4687L1.8155 15.4694ZM1.91232 19.0231L1.71271 19.0356L1.7142 19.0594L1.72124 19.0821L1.91232 19.0231ZM1.93038 19.1487L1.73038 19.1459V19.1487H1.93038ZM1.93038 19.2981H1.72991L1.73086 19.3119L1.93038 19.2981ZM2.57966 23.9079L2.38507 23.9541L2.5067 24.4663L2.75584 24.0025L2.57966 23.9079ZM5.91313 21.9141V22.1141V21.9141ZM15.9723 21.9141V22.1141L15.9752 22.1141L15.9723 21.9141ZM2.41489 25.3006V25.1006H2.41484L2.41489 25.3006ZM2.44254 25.3006L2.4752 25.1033L2.45898 25.1006H2.44254V25.3006ZM2.17146 25.2197L2.29127 25.0595L2.29126 25.0595L2.17146 25.2197ZM2.02508 25.009L1.8332 25.0654L1.83321 25.0654L2.02508 25.009ZM1.93038 24.674L2.12339 24.6215L1.73038 24.674H1.93038ZM5.65444 25.3006H5.85444V25.1006H5.65444V25.3006ZM2.57516 25.3006V25.1006H2.55873L2.54251 25.1033L2.57516 25.3006ZM2.47014 25.3042L2.45107 25.5033H2.45107L2.47014 25.3042ZM4.20161 10.7537L4.38561 10.832L4.50831 10.544L4.19537 10.5538L4.20161 10.7537ZM3.60458 10.8135L3.63579 11.0111H3.63579L3.60458 10.8135ZM3.81828 11.6806L3.99895 11.7673L4.00371 11.7555L3.81828 11.6806ZM3.81828 11.6806L3.6376 11.5939L3.63278 11.6058L3.81828 11.6806ZM3.81821 11.6808L3.63271 11.606L3.63263 11.6062L3.81821 11.6808ZM3.81813 11.681L4.00357 11.7559L4.00371 11.7556L3.81813 11.681ZM3.8177 11.682L3.63226 11.6071L3.63221 11.6072L3.8177 11.682ZM3.81759 11.6823L4.00301 11.7573L4.00308 11.7571L3.81759 11.6823ZM3.81753 11.6825L3.6321 11.6075L3.6321 11.6075L3.81753 11.6825ZM3.76471 11.8128L3.5796 11.737L3.5796 11.737L3.76471 11.8128ZM3.41136 12.333L3.36635 12.5278L3.48998 12.5564L3.56848 12.4567L3.41136 12.333ZM2.55366 12.0444L2.63627 11.8622H2.63626L2.55366 12.0444ZM2.31219 11.9195L2.12165 11.8587L2.07243 12.013L2.21314 12.0932L2.31219 11.9195ZM2.41976 11.6365L2.60195 11.719L2.60195 11.719L2.41976 11.6365ZM2.75893 11.0483L2.95886 11.0536L2.97538 10.4271L2.59902 10.9282L2.75893 11.0483ZM2.80183 11.0307L2.71161 10.8522H2.71161L2.80183 11.0307ZM3.00043 10.947L3.05875 11.1383L3.05875 11.1383L3.00043 10.947ZM29.4248 25.3006L29.4575 25.1033L29.4412 25.1006H29.4248V25.3006ZM26.3455 25.3006V25.1006H26.1455V25.3006H26.3455ZM29.5299 25.3042L29.5489 25.5033L29.5506 25.5031L29.5299 25.3042ZM29.5369 25.3035L29.5577 25.5024L29.5618 25.5019L29.5369 25.3035ZM29.5467 25.3023L29.5716 25.5008L29.5767 25.5L29.5467 25.3023ZM29.5575 25.3006V25.1006H29.5424L29.5275 25.1029L29.5575 25.3006ZM29.5851 25.3006L29.5852 25.1006H29.5851V25.3006ZM29.8285 25.2197L29.7087 25.0595L29.7087 25.0595L29.8285 25.2197ZM29.9749 25.009L30.1668 25.0654L30.1668 25.0654L29.9749 25.009ZM30.0696 24.674H30.2696L29.8766 24.6216L30.0696 24.674ZM29.4462 12.0444L29.3636 11.8622L29.3636 11.8622L29.4462 12.0444ZM28.5886 12.333L28.4315 12.4567L28.51 12.5564L28.6336 12.5278L28.5886 12.333ZM29.6877 11.9195L29.7868 12.0932L29.9275 12.013L29.8783 11.8587L29.6877 11.9195ZM29.5801 11.6365L29.7623 11.554V11.5539L29.5801 11.6365ZM29.241 11.0483L29.4009 10.9282L29.0247 10.4273L29.041 11.0535L29.241 11.0483ZM29.1981 11.0307L29.1079 11.2092V11.2092L29.1981 11.0307ZM28.9995 10.947L28.9412 11.1383L28.9412 11.1383L28.9995 10.947ZM28.3953 10.8135L28.3641 11.0111H28.3641L28.3953 10.8135ZM27.7984 10.7537L27.8046 10.5538L27.4917 10.544L27.6144 10.832L27.7984 10.7537ZM28.1817 11.6806L28.3674 11.6062L28.3672 11.6057L28.1817 11.6806ZM28.1821 11.6815L27.9964 11.7559L27.9966 11.7564L28.1821 11.6815ZM28.2353 11.8128L28.4204 11.737L28.4204 11.737L28.2353 11.8128ZM12.2455 24.1478L12.3876 24.007L12.3863 24.0058L12.2455 24.1478ZM12.3674 24.3569L12.567 24.3683L12.5689 24.3349L12.5599 24.3028L12.3674 24.3569ZM11.5681 24.1478L11.7095 24.2892H11.7095L11.5681 24.1478ZM11.5681 24.8253L11.7101 24.6845L11.7088 24.6832L11.5681 24.8253ZM12.2455 24.8253L12.3869 24.9667L12.2455 24.8253ZM12.385 24.5006L12.5849 24.5064L12.5859 24.4731L12.576 24.4412L12.385 24.5006ZM12.3667 24.3813L12.1667 24.382V24.382L12.3667 24.3813ZM8.48139 24.1478L8.62281 24.2892H8.62282L8.48139 24.1478ZM9.15885 24.1478L9.30092 24.007L9.29963 24.0058L9.15885 24.1478ZM9.15885 24.8253L9.30027 24.9667L9.15885 24.8253ZM8.48139 24.8253L8.62346 24.6845L8.62217 24.6832L8.48139 24.8253ZM15.9746 7.203L15.976 7.00299L15.9734 7.003L15.9746 7.203ZM16 7.20239L16.0111 7.00269L16 7.00208L15.9889 7.00269L16 7.20239ZM8.97863 7.56504L8.93787 7.36893L8.92714 7.37178L8.97863 7.56504ZM8.24343 8.163L8.40172 8.28525L8.40173 8.28524L8.24343 8.163ZM7.08527 10.2867L6.90525 10.1996L6.77807 10.4623L7.06901 10.4861L7.08527 10.2867ZM7.0947 10.2878L7.06579 10.4858L7.07261 10.4866L7.0947 10.2878ZM7.0947 10.2878L7.12359 10.0898L7.11679 10.089L7.0947 10.2878ZM7.10446 10.2889L7.08844 10.4883L7.08877 10.4883L7.10446 10.2889ZM8.86107 10.3654L8.85583 10.5653L8.86107 10.3654ZM15.9724 10.4274V10.6275L15.9752 10.6274L15.9724 10.4274ZM16 10.428L15.9892 10.6277L16 10.6283L16.0108 10.6277L16 10.428ZM16.0277 10.4274L16.0248 10.6274H16.0277V10.4274ZM23.1389 10.3654L23.1442 10.5653L23.1389 10.3654ZM24.8955 10.2889L24.8799 10.0896L24.8799 10.0896L24.8955 10.2889ZM24.9054 10.2878L24.9343 10.4857L24.9344 10.4857L24.9054 10.2878ZM24.9147 10.2867L24.9312 10.4861L25.2218 10.4621L25.0948 10.1996L24.9147 10.2867ZM23.7566 8.163L23.5983 8.28524L23.5983 8.28525L23.7566 8.163ZM23.0214 7.56504L23.0729 7.37148L23.0621 7.36923L23.0214 7.56504ZM16.0254 7.203L16.0266 7.00298L16.024 7.003L16.0254 7.203ZM15.9724 11.2398L15.9752 11.0398H15.9724V11.2398ZM16 11.2392L16.0108 11.0395L16 11.0389L15.9892 11.0395L16 11.2392ZM8.83981 11.1774L8.84504 10.9775L8.83981 11.1774ZM7.04069 11.0987L7.05638 10.8993L7.04069 11.0987ZM6.55569 11.0429L6.59196 10.8462L6.55569 11.0429ZM6.36879 10.9926L6.44284 10.8068L6.44277 10.8068L6.36879 10.9926ZM6.36586 10.9914L6.43983 10.8056L6.43981 10.8056L6.36586 10.9914ZM6.23092 10.9118L6.10247 11.0651L6.23092 10.9118ZM6.07735 10.5688L6.27719 10.5768L6.27719 10.5768L6.07735 10.5688ZM6.11527 10.413L5.93412 10.3282L5.9341 10.3283L6.11527 10.413ZM7.60057 7.66642L7.75886 7.78866L8.00772 7.46642H7.60057V7.66642ZM7.60041 7.66642L7.44211 7.54418L7.19329 7.86642H7.60041V7.66642ZM8.77936 6.77622L8.8295 6.96983L8.82986 6.96974L8.77936 6.77622ZM8.79744 6.77194L8.75627 6.57622L8.75584 6.57631L8.79744 6.77194ZM15.97 6.39069L16.0149 6.19582L15.9922 6.19056L15.9688 6.1907L15.97 6.39069ZM15.97 6.3907L15.925 6.58557L15.949 6.59112L15.9737 6.59066L15.97 6.3907ZM16 6.39125L15.9889 6.59094L16 6.59155L16.0111 6.59094L16 6.39125ZM16.03 6.3907L16.0263 6.59066L16.048 6.59107L16.0693 6.58681L16.03 6.3907ZM16.03 6.39069L16.0312 6.1907L16.0108 6.19058L15.9908 6.19458L16.03 6.39069ZM23.2026 6.77194L23.2442 6.57631L23.2437 6.57622L23.2026 6.77194ZM23.2207 6.77622L23.1702 6.96974L23.1705 6.96983L23.2207 6.77622ZM24.3996 7.66642V7.86642H24.8067L24.5579 7.54418L24.3996 7.66642ZM24.3994 7.66642V7.46642H23.9923L24.2411 7.78866L24.3994 7.66642ZM25.8847 10.413L26.0659 10.3283L26.0659 10.3282L25.8847 10.413ZM25.9227 10.5688L25.7228 10.5768L25.7228 10.5768L25.9227 10.5688ZM25.7691 10.9118L25.8975 11.0651L25.7691 10.9118ZM25.6342 10.9914L25.5602 10.8056L25.5601 10.8056L25.6342 10.9914ZM25.6312 10.9926L25.5572 10.8068L25.5572 10.8068L25.6312 10.9926ZM24.9593 11.0987L24.9436 10.8993L24.9593 11.0987ZM23.1602 11.1774L23.155 10.9775L23.1602 11.1774ZM16.0277 11.2398V11.0397L16.0248 11.0398L16.0277 11.2398ZM20.586 12.3877V12.1877L20.5845 12.1877L20.586 12.3877ZM20.5803 12.3877V12.5877L20.5817 12.5877L20.5803 12.3877ZM25.2757 12.3877L25.2764 12.1877H25.2757V12.3877ZM27.0349 13.0767L27.1648 12.9246L27.0349 13.0767ZM28.3975 14.9718L28.5774 14.8844L28.5774 14.8843L28.3975 14.9718ZM28.4379 15.1711L28.2382 15.1604L28.2382 15.1604L28.4379 15.1711ZM28.3766 15.3649L28.2071 15.2588L28.2071 15.2588L28.3766 15.3649ZM28.2291 15.5048L28.1322 15.3298L28.1322 15.3298L28.2291 15.5048ZM28.0323 15.5557V15.7557H28.0324L28.0323 15.5557ZM21.0456 15.5557L21.0455 15.7557H21.0456V15.5557ZM20.8734 15.5173L20.9582 15.3362V15.3362L20.8734 15.5173ZM20.7337 15.4096L20.58 15.5376L20.58 15.5376L20.7337 15.4096ZM20.1798 13.2H20.3798V13H20.1798V13.2ZM16.0277 13.2V13L16.0248 13.0001L16.0277 13.2ZM16 13.1995L16.0108 12.9998L16 12.9992L15.9892 12.9998L16 13.1995ZM15.9723 13.2L15.9752 13H15.9723V13.2ZM11.8202 13.2V13H11.6202V13.2H11.8202ZM11.2663 15.4096L11.4199 15.5376L11.42 15.5376L11.2663 15.4096ZM11.1266 15.5173L11.2114 15.6984L11.1266 15.5173ZM10.9544 15.5557V15.7557H10.9544L10.9544 15.5557ZM3.96765 15.5557L3.96762 15.7557H3.96765V15.5557ZM3.5621 15.1711L3.76181 15.1604V15.1604L3.5621 15.1711ZM3.60243 14.9718L3.42259 14.8843L3.42257 14.8844L3.60243 14.9718ZM4.9651 13.0767L4.83521 12.9246H4.83521L4.9651 13.0767ZM6.72424 12.3877V12.1877L6.72354 12.1877L6.72424 12.3877ZM11.414 12.3877L11.4154 12.1877H11.414V12.3877ZM11.4197 12.3877L11.4183 12.5877H11.4197V12.3877ZM15.9723 12.3877V12.5878L15.9752 12.5877L15.9723 12.3877ZM16 12.3883L15.9892 12.588L16 12.5886L16.0108 12.588L16 12.3883ZM16.0277 12.3877L16.0248 12.5877H16.0277V12.3877ZM10.5878 13.2L10.5884 13H10.5878V13.2ZM10.6016 13.2L10.6011 13.4H10.6016V13.2ZM6.72694 13.2V13L6.72624 13L6.72694 13.2ZM5.49262 13.6945L5.36272 13.5424L5.49262 13.6945ZM4.65081 14.7434L4.47938 14.6404L4.29729 14.9434H4.65081V14.7434ZM10.7286 14.7434V14.9434H10.8489L10.9053 14.8371L10.7286 14.7434ZM11.0079 13.2H11.2079V13H11.0079V13.2ZM20.9921 13.2V13H20.7921V13.2H20.9921ZM21.2713 14.7434L21.0947 14.8371L21.1511 14.9434H21.2713V14.7434ZM27.3492 14.7434V14.9434H27.7027L27.5206 14.6404L27.3492 14.7434ZM26.5074 13.6945L26.6372 13.5424L26.5074 13.6945ZM25.273 13.2L25.2737 13H25.273V13.2ZM21.4122 13.2V13L21.4116 13L21.4122 13.2ZM21.3984 13.2V13.4L21.3989 13.4L21.3984 13.2ZM7.62413 5.91462C9.18106 5.49203 11.9258 5.26454 15.9691 5.20003L15.9627 4.80008C11.9227 4.86454 9.13083 5.09119 7.51935 5.52859L7.62413 5.91462ZM6.41585 6.9655C6.81275 6.42302 7.16499 6.03924 7.62413 5.91462L7.51935 5.52859C6.91153 5.69356 6.4873 6.19043 6.09303 6.72931L6.41585 6.9655ZM5.31517 8.82221C5.65653 8.15087 6.02949 7.49358 6.41585 6.9655L6.09303 6.72931C5.68824 7.28258 5.30402 7.96161 4.95862 8.64091L5.31517 8.82221ZM4.73742 10.0302C4.91226 9.6438 5.10735 9.23093 5.31517 8.82221L4.95862 8.64091C4.74743 9.05626 4.54969 9.47479 4.37299 9.8653L4.73742 10.0302ZM4.22559 10.1406C4.34538 10.1383 4.44182 10.1371 4.53468 10.1467L4.57573 9.74881C4.45484 9.73633 4.33456 9.73841 4.21788 9.74066L4.22559 10.1406ZM3.50902 10.2088C3.75537 10.1699 4.00314 10.1449 4.22559 10.1406L4.21788 9.74066C3.97293 9.74538 3.7064 9.77263 3.4466 9.81367L3.50902 10.2088ZM2.82188 10.3612C3.02489 10.2993 3.26253 10.2477 3.50902 10.2088L3.4466 9.81367C3.18695 9.85469 2.9304 9.90992 2.70524 9.97857L2.82188 10.3612ZM2.75644 10.3808C2.77724 10.3746 2.79926 10.3681 2.82188 10.3612L2.70524 9.97857C2.68428 9.98496 2.66367 9.99107 2.64267 9.9973L2.75644 10.3808ZM2.76279 10.3788L2.7628 10.3788L2.63631 9.99931L2.63629 9.99931L2.76279 10.3788ZM2.75699 10.3806L2.75701 10.3806L2.64207 9.99748L2.64206 9.99749L2.75699 10.3806ZM2.75698 10.3806L2.75699 10.3806L2.64206 9.99749L2.64204 9.99749L2.75698 10.3806ZM2.75697 10.3806L2.75698 10.3806L2.64204 9.99749L2.64203 9.99749L2.75697 10.3806ZM2.33737 10.6004C2.4667 10.4684 2.57548 10.4345 2.75639 10.3808L2.64261 9.99732C2.45458 10.0531 2.25795 10.1098 2.05157 10.3206L2.33737 10.6004ZM1.86199 11.3839C2.00622 11.0654 2.14752 10.7943 2.33737 10.6004L2.05157 10.3206C1.80765 10.5697 1.64225 10.8995 1.49761 11.2189L1.86199 11.3839ZM1.69856 11.8188C1.73539 11.6837 1.7921 11.5382 1.86199 11.3839L1.49761 11.2189C1.42307 11.3835 1.35717 11.5503 1.31264 11.7136L1.69856 11.8188ZM1.6633 12.0104C1.66755 11.9446 1.67991 11.8873 1.69856 11.8188L1.31264 11.7136C1.29061 11.7945 1.27084 11.8809 1.26413 11.9847L1.6633 12.0104ZM1.66219 12.0266L1.66325 12.0112L1.26418 11.9839L1.26313 11.9994L1.66219 12.0266ZM1.71467 12.2338C1.67941 12.1827 1.66782 12.1461 1.66323 12.1207C1.6582 12.093 1.65925 12.0686 1.66217 12.027L1.26315 11.999C1.26027 12.04 1.25471 12.1098 1.26966 12.1922C1.28505 12.277 1.32004 12.3662 1.38538 12.4609L1.71467 12.2338ZM1.78976 12.3131C1.77254 12.3005 1.76581 12.2954 1.75762 12.2874C1.74934 12.2793 1.7357 12.2643 1.71469 12.2339L1.38536 12.4609C1.45514 12.5621 1.5072 12.6021 1.55436 12.6365L1.78976 12.3131ZM1.81191 12.3295C1.80359 12.3231 1.79568 12.3174 1.78975 12.3131L1.55436 12.6365C1.56076 12.6411 1.56524 12.6444 1.56959 12.6477L1.81191 12.3295ZM1.93364 12.4112C1.8858 12.3821 1.84702 12.3562 1.81191 12.3295L1.56958 12.6477C1.61887 12.6852 1.66988 12.7189 1.7255 12.7528L1.93364 12.4112ZM2.30071 12.602C2.15129 12.5342 2.02907 12.4694 1.93364 12.4112L1.7255 12.7528C1.83699 12.8208 1.97389 12.893 2.13551 12.9663L2.30071 12.602ZM2.88777 12.8251C2.66564 12.7557 2.46763 12.6777 2.30071 12.602L2.13551 12.9663C2.31643 13.0483 2.52976 13.1323 2.76849 13.2069L2.88777 12.8251ZM2.66903 13.4927C2.77324 13.3772 2.87693 13.262 2.97752 13.149L2.67874 12.883C2.57906 12.995 2.4761 13.1094 2.37207 13.2247L2.66903 13.4927ZM2.41293 13.7748C2.49759 13.6818 2.58339 13.5876 2.66903 13.4927L2.37207 13.2247C2.28711 13.3188 2.2019 13.4124 2.11715 13.5055L2.41293 13.7748ZM2.40762 13.7804L2.40763 13.7804L2.12246 13.4999L2.12245 13.4999L2.40762 13.7804ZM2.40985 13.7781L2.40986 13.7781L2.12021 13.5022L2.12019 13.5022L2.40985 13.7781ZM2.42119 13.7651L2.42119 13.7651L2.10885 13.5152L2.10884 13.5152L2.42119 13.7651ZM1.22586 15.2451C1.44567 14.8394 1.90094 14.3372 2.41291 13.7748L2.11712 13.5055C1.61971 14.0519 1.12275 14.5957 0.874149 15.0546L1.22586 15.2451ZM1.20098 15.3422C1.20117 15.3083 1.20971 15.2749 1.22586 15.2451L0.874144 15.0546C0.826672 15.1422 0.801543 15.2402 0.800983 15.3399L1.20098 15.3422ZM1.3176 19.3803C1.23182 18.1411 1.1932 16.7954 1.20098 15.3421L0.800982 15.34C0.793165 16.8015 0.831978 18.1572 0.91856 19.4079L1.3176 19.3803ZM1.31808 20.6064V19.3941H0.918082V20.6064H1.31808ZM1.31808 26.1808V20.6064H0.918082V26.1808H1.31808ZM2.81059 27.6734C1.99128 27.6734 1.31808 27.0002 1.31808 26.1808H0.918082C0.918082 27.2212 1.77038 28.0734 2.81059 28.0734V27.6734ZM4.77423 27.6734H2.81059V28.0734H4.77423V27.6734ZM6.26674 26.1808C6.26674 27.0002 5.59353 27.6734 4.77423 27.6734V28.0734C5.81444 28.0734 6.66674 27.2211 6.66674 26.1808H6.26674ZM6.26674 25.3006V26.1808H6.66674V25.3006H6.26674ZM7.81782 25.1006H6.46674V25.5006H7.81782V25.1006ZM8.04852 25.2582C8.02181 25.2314 7.99663 25.2035 7.97303 25.1745L7.66262 25.4267C7.69485 25.4664 7.72923 25.5045 7.76567 25.541L8.04852 25.2582ZM8.82012 25.5781C8.53055 25.5781 8.2532 25.4628 8.04852 25.2582L7.76567 25.541C8.04512 25.8204 8.42411 25.9781 8.82012 25.9781V25.5781ZM9.59173 25.2582C9.38709 25.4628 9.10895 25.5781 8.82012 25.5781V25.9781C9.21525 25.9781 9.59507 25.8205 9.87457 25.541L9.59173 25.2582ZM9.88202 24.7363C9.83605 24.9325 9.73636 25.1135 9.59173 25.2582L9.87457 25.541C10.0724 25.3432 10.2087 25.0956 10.2715 24.8276L9.88202 24.7363ZM10.0846 24.9818C10.3378 24.9718 10.539 24.9761 10.6329 24.9782L10.6415 24.5783C10.5456 24.5762 10.3345 24.5716 10.0689 24.5821L10.0846 24.9818ZM10.6329 24.9782C10.6369 24.9782 10.6408 24.9783 10.6445 24.9784L10.6529 24.5785C10.6493 24.5784 10.6455 24.5783 10.6414 24.5783L10.6329 24.9782ZM11.1352 25.2582C10.9897 25.1126 10.8894 24.9304 10.8435 24.7332L10.4539 24.8237C10.5166 25.0934 10.6537 25.3423 10.8523 25.541L11.1352 25.2582ZM11.9068 25.5781C11.6172 25.5781 11.3399 25.4628 11.1352 25.2582L10.8523 25.541C11.1318 25.8204 11.5108 25.9781 11.9068 25.9781V25.5781ZM12.6784 25.2582C12.4738 25.4628 12.1956 25.5781 11.9068 25.5781V25.9781C12.3019 25.9781 12.6817 25.8205 12.9612 25.541L12.6784 25.2582ZM12.9681 24.7388C12.9219 24.934 12.8224 25.1141 12.6784 25.2582L12.9612 25.541C13.1582 25.344 13.2942 25.0977 13.3574 24.8309L12.9681 24.7388ZM20.246 24.5701C18.5842 24.5701 16.2228 24.575 13.1621 24.5848L13.1634 24.9848C16.2239 24.975 18.5849 24.9701 20.246 24.9701V24.5701ZM23.1538 24.5859C22.9874 24.5775 21.9724 24.5701 20.246 24.5701V24.9701C21.9798 24.9701 22.9804 24.9777 23.1338 24.9854L23.1538 24.5859ZM23.9574 25.0088C23.8709 24.8791 23.769 24.7727 23.6296 24.6991C23.4926 24.6268 23.3358 24.595 23.1538 24.5859L23.1338 24.9854C23.2829 24.9928 23.3759 25.0175 23.4429 25.0529C23.5075 25.087 23.5636 25.1393 23.6245 25.2307L23.9574 25.0088ZM24.0316 25.0762C24.0017 25.0602 23.9762 25.037 23.9574 25.0088L23.6245 25.2307C23.6799 25.3137 23.7549 25.3818 23.8429 25.4289L24.0316 25.0762ZM24.1289 25.1006C24.095 25.1006 24.0615 25.0922 24.0316 25.0762L23.8429 25.4289C23.9308 25.476 24.0291 25.5006 24.1289 25.5006L24.1289 25.1006ZM25.5332 25.1006H24.1289V25.5006H25.5332V25.1006ZM25.7332 26.1808V25.3006H25.3332V26.1808H25.7332ZM27.2257 27.6733C26.4064 27.6733 25.7332 27.0002 25.7332 26.1808H25.3332C25.3332 27.2211 26.1855 28.0733 27.2257 28.0733V27.6733ZM29.1894 27.6733H27.2257V28.0733H29.1894V27.6733ZM30.6819 26.1808C30.6819 27.0002 30.0087 27.6733 29.1894 27.6733V28.0733C30.2296 28.0733 31.0819 27.2211 31.0819 26.1808H30.6819ZM30.6819 20.6064V26.1808H31.0819V20.6064H30.6819ZM30.6819 19.3943V20.6064H31.0819V19.3943H30.6819ZM30.799 15.3421C30.8068 16.7955 30.7682 18.1412 30.6824 19.3805L31.0814 19.4081C31.168 18.1574 31.2068 16.8016 31.199 15.34L30.799 15.3421ZM30.7741 15.2451C30.7903 15.2749 30.7988 15.3083 30.799 15.3422L31.199 15.3399C31.1984 15.2402 31.1733 15.1422 31.1258 15.0546L30.7741 15.2451ZM29.5871 13.7748C30.099 14.3372 30.5543 14.8394 30.7741 15.2451L31.1258 15.0546C30.8772 14.5957 30.3803 14.0519 29.8829 13.5055L29.5871 13.7748ZM29.5759 13.7614L29.5759 13.7614L29.8941 13.519L29.894 13.5189L29.5759 13.7614ZM29.331 13.4927C29.4166 13.5876 29.5024 13.6818 29.5871 13.7748L29.8828 13.5055C29.7981 13.4124 29.7129 13.3188 29.6279 13.2247L29.331 13.4927ZM29.0225 13.1489C29.1231 13.2619 29.2267 13.3772 29.331 13.4927L29.6279 13.2247C29.5239 13.1094 29.4209 12.995 29.3212 12.883L29.0225 13.1489ZM29.6992 12.602C29.5323 12.6777 29.3343 12.7557 29.1122 12.8251L29.2315 13.2069C29.4702 13.1323 29.6835 13.0483 29.8644 12.9663L29.6992 12.602ZM30.0663 12.4112C29.9708 12.4694 29.8486 12.5342 29.6992 12.602L29.8644 12.9663C30.026 12.893 30.1629 12.8208 30.2744 12.7528L30.0663 12.4112ZM30.188 12.3295C30.1529 12.3562 30.1141 12.3821 30.0663 12.4112L30.2744 12.7528C30.33 12.7189 30.381 12.6852 30.4303 12.6477L30.188 12.3295ZM30.2102 12.313C30.2042 12.3174 30.1963 12.3231 30.188 12.3295L30.4303 12.6477C30.4347 12.6444 30.4391 12.6411 30.4455 12.6365L30.2102 12.313ZM30.2015 12.3198L30.2014 12.3198L30.4542 12.6298L30.4542 12.6298L30.2015 12.3198ZM30.2852 12.2339C30.2642 12.2643 30.2506 12.2793 30.2423 12.2874C30.2341 12.2954 30.2274 12.3005 30.2101 12.3131L30.4455 12.6365C30.4927 12.6021 30.5448 12.5621 30.6145 12.4609L30.2852 12.2339ZM30.3377 12.027C30.3407 12.0686 30.3417 12.0931 30.3367 12.1208C30.3321 12.1461 30.3205 12.1827 30.2852 12.2338L30.6145 12.4609C30.6799 12.3662 30.7149 12.277 30.7302 12.1922C30.7452 12.1098 30.7396 12.04 30.7368 11.999L30.3377 12.027ZM30.3372 12.013V12.013H30.7372V12.013H30.3372ZM30.3367 12.0112L30.3377 12.0266L30.7368 11.9994L30.7357 11.9839L30.3367 12.0112ZM30.3013 11.8188C30.32 11.8873 30.3324 11.9447 30.3366 12.0104L30.7358 11.9847C30.7291 11.8809 30.7093 11.7944 30.6873 11.7136L30.3013 11.8188ZM30.1379 11.3839C30.2078 11.5382 30.2645 11.6837 30.3013 11.8188L30.6873 11.7136C30.6427 11.5503 30.5768 11.3835 30.5023 11.2189L30.1379 11.3839ZM29.6625 10.6005C29.8524 10.7943 29.9937 11.0654 30.1379 11.3839L30.5023 11.2189C30.3577 10.8995 30.1922 10.5697 29.9483 10.3206L29.6625 10.6005ZM29.2435 10.3808C29.4244 10.4345 29.5332 10.4684 29.6625 10.6005L29.9483 10.3206C29.742 10.1098 29.5453 10.0531 29.3573 9.99732L29.2435 10.3808ZM29.178 10.3612C29.2007 10.3681 29.2227 10.3746 29.2435 10.3808L29.3573 9.99732C29.3363 9.99108 29.3156 9.98496 29.2947 9.97857L29.178 10.3612ZM28.4909 10.2088C28.7374 10.2477 28.975 10.2993 29.178 10.3612L29.2947 9.97857C29.0695 9.90992 28.813 9.8547 28.5533 9.81367L28.4909 10.2088ZM27.7743 10.1406C27.9968 10.1449 28.2445 10.1699 28.4909 10.2088L28.5533 9.81367C28.2935 9.77263 28.027 9.74538 27.782 9.74066L27.7743 10.1406ZM27.4653 10.1467C27.5581 10.1371 27.6546 10.1383 27.7743 10.1406L27.782 9.74066C27.6654 9.73841 27.5451 9.73633 27.4243 9.7488L27.4653 10.1467ZM26.6848 8.82221C26.8926 9.23092 27.0877 9.6438 27.2626 10.0302L27.627 9.86529C27.4503 9.47478 27.2526 9.05625 27.0414 8.64091L26.6848 8.82221ZM25.5841 6.9655C25.9705 7.49358 26.3435 8.15087 26.6848 8.82221L27.0414 8.64091C26.696 7.96161 26.3118 7.28258 25.907 6.72931L25.5841 6.9655ZM24.3759 5.91462C24.835 6.03924 25.1872 6.42302 25.5841 6.9655L25.907 6.72931C25.5127 6.19043 25.0885 5.69356 24.4806 5.52859L24.3759 5.91462ZM16.0309 5.20003C20.0742 5.26454 22.8189 5.49203 24.3759 5.91462L24.4806 5.52859C22.8692 5.09119 20.0772 4.86454 16.0373 4.80008L16.0309 5.20003ZM16.0136 5.20047C16.0193 5.20008 16.0251 5.19993 16.0309 5.20003L16.0373 4.80008C16.0203 4.7998 16.0033 4.80025 15.9864 4.8014L16.0136 5.20047ZM15.9691 5.20003C15.9749 5.19993 15.9807 5.20008 15.9864 5.20047L16.0136 4.8014C15.9966 4.80025 15.9797 4.7998 15.9627 4.80008L15.9691 5.20003ZM10.9095 24.0434C10.9635 23.9221 11.0396 23.8105 11.1352 23.7149L10.8523 23.4321C10.7217 23.5627 10.6178 23.7152 10.5441 23.8808L10.9095 24.0434ZM11.1352 23.7149C11.3396 23.5105 11.6169 23.3958 11.9068 23.3958V22.9958C11.5111 22.9958 11.132 23.1524 10.8523 23.4321L11.1352 23.7149ZM11.9068 23.3958C12.1959 23.3958 12.474 23.5105 12.6784 23.7149L12.9612 23.4321C12.6815 23.1524 12.3016 22.9958 11.9068 22.9958V23.3958ZM12.6784 23.7149C12.7762 23.8128 12.8535 23.9275 12.9075 24.0522L13.2746 23.8933C13.2008 23.7229 13.0952 23.566 12.9612 23.4321L12.6784 23.7149ZM13.0917 24.1728C16.1863 24.1627 18.5708 24.1578 20.246 24.1578V23.7578C18.5701 23.7578 16.1851 23.7627 13.0904 23.7728L13.0917 24.1728ZM20.246 24.1578C21.9819 24.1578 22.9121 24.1609 23.1744 24.174L23.1944 23.7745C22.919 23.7607 21.9737 23.7578 20.246 23.7578V24.1578ZM23.1744 24.174C23.5663 24.1936 23.9149 24.3573 24.1637 24.6246L24.4565 24.352C24.1347 24.0064 23.6873 23.7992 23.1944 23.7745L23.1744 24.174ZM24.3101 24.6883H25.8713V24.2883H24.3101V24.6883ZM25.9048 24.6855C25.9162 24.6835 25.9278 24.6826 25.9394 24.6826V24.2826C25.9052 24.2826 25.8712 24.2854 25.8377 24.2911L25.9048 24.6855ZM25.9394 24.6826C25.951 24.6826 25.9626 24.6835 25.974 24.6855L26.0411 24.2911C26.0076 24.2854 25.9736 24.2826 25.9394 24.2826V24.6826ZM26.0075 24.6883H28.8098V24.2883H26.0075V24.6883ZM28.9861 24.3938L28.8825 24.2005L28.5299 24.3895L28.6335 24.5828L28.9861 24.3938ZM28.9062 24.295V24.2948H28.5062V24.295H28.9062ZM28.8825 24.2004C28.6421 23.7514 28.1859 23.3359 27.6819 23.0341C27.1779 22.7323 26.5962 22.5264 26.0869 22.5264V22.9264C26.5 22.9264 27.0103 23.0982 27.4764 23.3773C27.9425 23.6564 28.3349 24.0251 28.5299 24.3893L28.8825 24.2004ZM26.0869 22.5264H16.0277V22.9264H26.0869V22.5264ZM16.0248 22.5264C16.0201 22.5265 16.0155 22.5264 16.0108 22.5261L15.9892 22.9256C16.0029 22.9263 16.0167 22.9266 16.0305 22.9264L16.0248 22.5264ZM15.9892 22.5261C15.9845 22.5264 15.9799 22.5265 15.9752 22.5264L15.9695 22.9264C15.9833 22.9266 15.9971 22.9263 16.0108 22.9256L15.9892 22.5261ZM15.9723 22.5264H5.91313V22.9264H15.9723V22.5264ZM5.91313 22.5264C5.4038 22.5264 4.82213 22.7323 4.31809 23.0341C3.81405 23.3359 3.35793 23.7514 3.11747 24.2004L3.47008 24.3893C3.66514 24.0251 4.05745 23.6564 4.52358 23.3773C4.98972 23.0982 5.49996 22.9264 5.91313 22.9264V22.5264ZM3.09378 24.2948V24.295H3.49378V24.2948H3.09378ZM3.11749 24.2005L3.01391 24.3938L3.36647 24.5828L3.47006 24.3895L3.11749 24.2005ZM3.19019 24.6883H5.99246V24.2883H3.19019V24.6883ZM6.02601 24.6855C6.03741 24.6835 6.04897 24.6826 6.06059 24.6826V24.2826C6.02643 24.2826 5.99242 24.2854 5.95891 24.2911L6.02601 24.6855ZM6.06059 24.6826C6.0722 24.6826 6.08377 24.6835 6.09517 24.6855L6.16226 24.2911C6.12875 24.2854 6.09474 24.2826 6.06059 24.2826V24.6826ZM6.12871 24.6883H7.52857V24.2883H6.12871V24.6883ZM7.72857 24.4882L7.72856 24.4864L7.32856 24.4867L7.32857 24.4884L7.72857 24.4882ZM7.72856 24.4865C7.72856 24.1977 7.84388 23.9196 8.04852 23.7149L7.76567 23.4321C7.48618 23.7116 7.32856 24.0914 7.32856 24.4865H7.72856ZM8.04852 23.7149C8.25297 23.5105 8.53023 23.3958 8.82012 23.3958V22.9958C8.42444 22.9958 8.04535 23.1524 7.76567 23.4321L8.04852 23.7149ZM8.82012 23.3958C9.10927 23.3958 9.38732 23.5105 9.59173 23.7149L9.87457 23.4321C9.59485 23.1524 9.21493 22.9958 8.82012 22.9958V23.3958ZM9.59173 23.7149C9.68933 23.8125 9.7665 23.9269 9.8205 24.0514L10.1874 23.8921C10.1137 23.7222 10.0082 23.5657 9.87457 23.4321L9.59173 23.7149ZM10.0729 23.7679C10.0472 23.7693 10.0209 23.7706 9.99375 23.772L10.0142 24.1715C10.0415 24.1701 10.068 24.1687 10.0936 24.1674L10.0729 23.7679ZM10.4769 23.7518C10.3601 23.753 10.2281 23.7599 10.0729 23.7679L10.0936 24.1674C10.2515 24.1592 10.3742 24.1529 10.4808 24.1518L10.4769 23.7518ZM10.7486 23.7633C10.6611 23.7537 10.5724 23.7509 10.4769 23.7518L10.4808 24.1518C10.5663 24.151 10.6381 24.1536 10.705 24.1609L10.7486 23.7633ZM16.0305 21.7141C16.0167 21.7139 16.0029 21.7142 15.9892 21.7149L16.0108 22.1144C16.0154 22.1141 16.0201 22.114 16.0248 22.1141L16.0305 21.7141ZM26.0869 21.7141L16.0277 21.7141V22.1141L26.0869 22.1141V21.7141ZM29.5965 23.8132C28.9422 22.5953 27.4693 21.7141 26.0869 21.7141V22.1141C27.3219 22.1141 28.6595 22.9143 29.2441 24.0025L29.5965 23.8132ZM29.8701 19.2845C29.7489 21.0433 29.5327 22.5692 29.2257 23.8617L29.6149 23.9541C29.9282 22.635 30.1469 21.0864 30.2691 19.312L29.8701 19.2845ZM29.8696 19.1487V19.2983H30.2696V19.1487H29.8696ZM29.8966 18.964C29.878 19.0242 29.8687 19.0874 29.8696 19.1515L30.2696 19.1459C30.2693 19.1241 30.2724 19.1026 30.2788 19.0821L29.8966 18.964ZM29.9845 15.4701C29.9888 16.7368 29.9564 17.9171 29.8881 19.0106L30.2873 19.0355C30.3562 17.9321 30.3888 16.743 30.3845 15.4687L29.9845 15.4701ZM28.7278 14.037C29.0103 14.3501 29.2904 14.6663 29.522 14.9403C29.7565 15.2177 29.9325 15.4417 30.0142 15.5743L30.3547 15.3644C30.2551 15.2028 30.0602 14.9574 29.8275 14.6821C29.5918 14.4033 29.3085 14.0834 29.0247 13.769L28.7278 14.037ZM27.8808 13.0683C28.1304 13.3728 28.43 13.7071 28.7278 14.037L29.0247 13.769C28.7262 13.4382 28.4328 13.1108 28.1902 12.8148L27.8808 13.0683ZM27.2983 12.1961C27.4226 12.4999 27.6374 12.7713 27.8808 13.0683L28.1902 12.8148C27.9416 12.5114 27.7666 12.2843 27.6685 12.0447L27.2983 12.1961ZM27.2425 12.0586C27.2645 12.113 27.2833 12.1594 27.2983 12.1961L27.6685 12.0446C27.6539 12.0088 27.6354 11.9632 27.6133 11.9086L27.2425 12.0586ZM27.2421 12.0575L27.2426 12.0588L27.6132 11.9084L27.6127 11.907L27.2421 12.0575ZM25.9607 9.19044C26.5538 10.3568 27.0407 11.5598 27.242 12.0573L27.6128 11.9072C27.4114 11.4096 26.9189 10.1924 26.3173 9.00915L25.9607 9.19044ZM24.9286 7.44511C25.2716 7.91395 25.631 8.54194 25.9607 9.19044L26.3173 9.00915C25.9835 8.35262 25.6128 7.70292 25.2514 7.20892L24.9286 7.44511ZM24.1631 6.69868C24.1718 6.70103 24.203 6.71371 24.2583 6.7507C24.3104 6.78553 24.3741 6.83534 24.4461 6.90037C24.59 7.03031 24.7599 7.21455 24.9286 7.44511L25.2514 7.20892C25.0679 6.95805 24.8799 6.75314 24.7142 6.60352C24.6314 6.52878 24.5525 6.46621 24.4807 6.41823C24.4122 6.3724 24.3385 6.33183 24.2679 6.31265L24.1631 6.69868ZM16.0179 6.01233C20.0352 6.07643 22.773 6.32137 24.1631 6.69868L24.2679 6.31265C22.8234 5.92058 20.0387 5.67643 16.0243 5.61238L16.0179 6.01233ZM15.9864 6.01101C15.9969 6.01172 16.0074 6.01216 16.0179 6.01233L16.0243 5.61238C16.0207 5.61232 16.0171 5.61217 16.0136 5.61193L15.9864 6.01101ZM15.9821 6.01233C15.9926 6.01216 16.0031 6.01172 16.0136 6.01101L15.9864 5.61193C15.9829 5.61217 15.9793 5.61232 15.9757 5.61238L15.9821 6.01233ZM7.83688 6.69868C9.22699 6.32137 11.9648 6.07643 15.9821 6.01233L15.9757 5.61238C11.9613 5.67643 9.17658 5.92058 7.7321 6.31265L7.83688 6.69868ZM7.07141 7.44511C7.24009 7.21455 7.41003 7.03031 7.5539 6.90037C7.62591 6.83534 7.6896 6.78553 7.74167 6.7507C7.79697 6.71371 7.82822 6.70103 7.83688 6.69868L7.7321 6.31265C7.66145 6.33183 7.58777 6.3724 7.51927 6.41823C7.44754 6.46621 7.36856 6.52878 7.2858 6.60352C7.12014 6.75314 6.93213 6.95805 6.74858 7.20892L7.07141 7.44511ZM6.03926 9.19044C6.36901 8.54194 6.72838 7.91395 7.07141 7.44511L6.74858 7.20892C6.38715 7.70292 6.01653 8.35262 5.68271 9.00915L6.03926 9.19044ZM4.75803 12.0573C4.95934 11.5598 5.44618 10.3568 6.03926 9.19044L5.68271 9.00915C5.08105 10.1924 4.5886 11.4096 4.38723 11.9072L4.75803 12.0573ZM4.75773 12.058L4.75777 12.0579L4.38749 11.9066L4.38744 11.9067L4.75773 12.058ZM4.70167 12.1961C4.71682 12.1591 4.73574 12.1123 4.75798 12.0574L4.38719 11.9073C4.36484 11.9626 4.34625 12.0085 4.33146 12.0446L4.70167 12.1961ZM4.11915 13.0683C4.36258 12.7713 4.57741 12.4999 4.70167 12.1961L4.33145 12.0447C4.23343 12.2843 4.05839 12.5114 3.80975 12.8148L4.11915 13.0683ZM3.27223 14.037C3.56998 13.7071 3.86964 13.3728 4.11915 13.0683L3.80975 12.8148C3.5672 13.1108 3.27379 13.4382 2.97527 13.769L3.27223 14.037ZM1.98576 15.5743C2.06748 15.4417 2.2435 15.2177 2.47801 14.9403C2.70959 14.6663 2.98967 14.3501 3.27223 14.037L2.97527 13.769C2.69152 14.0834 2.40815 14.4033 2.17252 14.6821C1.93982 14.9574 1.74487 15.2028 1.64525 15.3644L1.98576 15.5743ZM2.11193 19.0106C2.04362 17.9171 2.0112 16.7368 2.0155 15.4701L1.6155 15.4687C1.61117 16.743 1.64378 17.9322 1.71271 19.0356L2.11193 19.0106ZM2.13036 19.1515C2.13126 19.0879 2.12213 19.0247 2.10341 18.9641L1.72124 19.0821C1.7276 19.1028 1.73071 19.1243 1.7304 19.1459L2.13036 19.1515ZM2.13038 19.2981V19.1487H1.73038V19.2981H2.13038ZM2.77425 23.8617C2.46733 22.5692 2.25109 21.0432 2.12991 19.2844L1.73086 19.3119C1.85312 21.0864 2.07183 22.635 2.38507 23.9541L2.77425 23.8617ZM5.91313 21.7141C4.53074 21.7141 3.0578 22.5953 2.40348 23.8132L2.75584 24.0025C3.3405 22.9143 4.67812 22.1141 5.91313 22.1141V21.7141ZM15.9723 21.7141L5.91313 21.7141V22.1141L15.9723 22.1141V21.7141ZM16.0108 21.7149C15.9971 21.7142 15.9833 21.7139 15.9695 21.7141L15.9752 22.1141C15.9799 22.114 15.9845 22.1141 15.9892 22.1144L16.0108 21.7149ZM2.41489 25.5006H2.44254V25.1006H2.41489V25.5006ZM2.05166 25.3798C2.15653 25.4583 2.28398 25.5006 2.41495 25.5006L2.41484 25.1006C2.37029 25.1006 2.32694 25.0862 2.29127 25.0595L2.05166 25.3798ZM1.83321 25.0654C1.87015 25.1911 1.94679 25.3014 2.05166 25.3798L2.29126 25.0595C2.25559 25.0328 2.22953 24.9953 2.21696 24.9526L1.83321 25.0654ZM1.73738 24.7264C1.76852 24.841 1.80046 24.954 1.8332 25.0654L2.21696 24.9526C2.18502 24.8439 2.15382 24.7336 2.12339 24.6215L1.73738 24.7264ZM2.13038 26.1808V24.674H1.73038V26.1808H2.13038ZM2.81059 26.861C2.43089 26.861 2.13038 26.5606 2.13038 26.1808H1.73038C1.73038 26.7815 2.21 27.261 2.81059 27.261V26.861ZM4.77423 26.861H2.81059V27.261H4.77423V26.861ZM5.45444 26.1808C5.45444 26.5606 5.15394 26.861 4.77423 26.861V27.261C5.37482 27.261 5.85444 26.7816 5.85444 26.1808H5.45444ZM5.45444 25.3006V26.1808H5.85444V25.3006H5.45444ZM2.57516 25.5006H5.65444V25.1006H2.57516V25.5006ZM2.45107 25.5033C2.50345 25.5083 2.55613 25.5065 2.60781 25.4979L2.54251 25.1033C2.52494 25.1062 2.50701 25.1068 2.4892 25.1051L2.45107 25.5033ZM2.40989 25.4979C2.42355 25.5002 2.43728 25.502 2.45107 25.5033L2.48921 25.1051C2.4845 25.1047 2.47982 25.1041 2.4752 25.1033L2.40989 25.4979ZM4.19537 10.5538C4.00882 10.5596 3.78766 10.5821 3.57336 10.616L3.63579 11.0111C3.83699 10.9793 4.04119 10.9588 4.20785 10.9536L4.19537 10.5538ZM4.00371 11.7555C4.08406 11.5567 4.21571 11.2309 4.38561 10.832L4.01761 10.6753C3.84616 11.0778 3.71334 11.4065 3.63285 11.6057L4.00371 11.7555ZM3.99858 11.7672L3.99859 11.7672L3.63798 11.5941L3.63797 11.5941L3.99858 11.7672ZM4.00371 11.7555L4.00378 11.7554L3.63278 11.6058L3.63271 11.606L4.00371 11.7555ZM4.00371 11.7556L4.0038 11.7553L3.63263 11.6062L3.63254 11.6064L4.00371 11.7556ZM4.00314 11.757L4.00357 11.7559L3.63268 11.6061L3.63226 11.6071L4.00314 11.757ZM4.00308 11.7571L4.00319 11.7568L3.63221 11.6072L3.63211 11.6075L4.00308 11.7571ZM4.00295 11.7574L4.00301 11.7573L3.63217 11.6074L3.6321 11.6075L4.00295 11.7574ZM3.94981 11.8885C3.96375 11.8544 3.98163 11.8102 4.00296 11.7574L3.6321 11.6075C3.61064 11.6606 3.59314 11.7039 3.5796 11.737L3.94981 11.8885ZM3.56848 12.4567C3.66593 12.333 3.74987 12.217 3.81392 12.1215C3.87438 12.0313 3.92632 11.9459 3.94982 11.8885L3.5796 11.737C3.57334 11.7523 3.54318 11.807 3.48169 11.8987C3.4238 11.985 3.34594 12.0928 3.25423 12.2092L3.56848 12.4567ZM2.47106 12.2265C2.70536 12.3328 3.01673 12.4471 3.36635 12.5278L3.45636 12.1381C3.13533 12.064 2.84911 11.9587 2.63627 11.8622L2.47106 12.2265ZM2.21314 12.0932C2.28071 12.1318 2.35935 12.1758 2.47106 12.2265L2.63626 11.8622C2.54121 11.8191 2.475 11.7821 2.41124 11.7457L2.21314 12.0932ZM2.23757 11.5539C2.184 11.6722 2.14866 11.774 2.12165 11.8587L2.50273 11.9803C2.52695 11.9043 2.55695 11.8183 2.60195 11.719L2.23757 11.5539ZM2.59902 10.9282C2.5308 11.019 2.35097 11.3036 2.23757 11.5539L2.60195 11.719C2.70292 11.496 2.86763 11.2366 2.91883 11.1684L2.59902 10.9282ZM2.71161 10.8522C2.70455 10.8558 2.6994 10.8584 2.69514 10.8605C2.69057 10.8627 2.68947 10.8632 2.69026 10.8629C2.69073 10.8627 2.69326 10.8616 2.69715 10.8601C2.70009 10.8591 2.70944 10.8557 2.72242 10.8531C2.72755 10.8521 2.76981 10.8425 2.82075 10.8589C2.85177 10.8688 2.89246 10.8907 2.92298 10.9343C2.95327 10.9776 2.95967 11.0225 2.95886 11.0536L2.559 11.043C2.55816 11.0746 2.56468 11.1199 2.5952 11.1636C2.62596 11.2075 2.667 11.2296 2.6985 11.2397C2.75038 11.2564 2.79408 11.2467 2.80109 11.2453C2.82598 11.2403 2.84609 11.2313 2.85001 11.2296C2.86394 11.2235 2.88104 11.2148 2.89205 11.2092L2.71161 10.8522ZM2.94211 10.7556C2.84094 10.7865 2.75485 10.8304 2.71161 10.8522L2.89205 11.2092C2.93556 11.1872 2.99412 11.158 3.05875 11.1383L2.94211 10.7556ZM3.57337 10.616C3.3447 10.6521 3.11702 10.7023 2.94211 10.7556L3.05875 11.1383C3.21172 11.0916 3.42057 11.0451 3.63579 11.0111L3.57337 10.616ZM29.4248 25.1006H26.3455V25.5006H29.4248V25.1006ZM29.5108 25.1051C29.493 25.1068 29.4751 25.1062 29.4575 25.1033L29.3921 25.4979C29.4438 25.5065 29.4965 25.5083 29.5489 25.5033L29.5108 25.1051ZM29.5161 25.1046L29.5091 25.1053L29.5506 25.5031L29.5577 25.5024L29.5161 25.1046ZM29.5218 25.1038L29.512 25.105L29.5618 25.5019L29.5716 25.5007L29.5218 25.1038ZM29.5275 25.1029L29.5167 25.1045L29.5767 25.5L29.5875 25.4983L29.5275 25.1029ZM29.5851 25.1006H29.5575V25.5006H29.5851V25.1006ZM29.7087 25.0595C29.6731 25.0862 29.6297 25.1006 29.5852 25.1006L29.585 25.5006C29.716 25.5006 29.8435 25.4583 29.9483 25.3798L29.7087 25.0595ZM29.783 24.9526C29.7705 24.9953 29.7444 25.0328 29.7087 25.0595L29.9483 25.3798C30.0532 25.3014 30.1298 25.1911 30.1668 25.0654L29.783 24.9526ZM29.8766 24.6216C29.8462 24.7336 29.815 24.8439 29.783 24.9526L30.1668 25.0654C30.1995 24.954 30.2315 24.841 30.2626 24.7264L29.8766 24.6216ZM30.2696 26.1808V24.674H29.8696V26.1808H30.2696ZM29.1894 27.261C29.79 27.261 30.2696 26.7815 30.2696 26.1808H29.8696C29.8696 26.5606 29.5691 26.861 29.1894 26.861V27.261ZM27.2257 27.261H29.1894V26.861H27.2257V27.261ZM26.1455 26.1808C26.1455 26.7816 26.6252 27.261 27.2257 27.261V26.861C26.846 26.861 26.5455 26.5606 26.5455 26.1808H26.1455ZM26.1455 25.3006V26.1808H26.5455V25.3006H26.1455ZM29.3636 11.8622C29.1508 11.9587 28.8646 12.0639 28.5436 12.1381L28.6336 12.5278C28.9832 12.4471 29.2946 12.3327 29.5288 12.2265L29.3636 11.8622ZM29.5887 11.7457C29.5249 11.7821 29.4587 11.8191 29.3636 11.8622L29.5288 12.2265C29.6406 12.1758 29.7192 12.1318 29.7868 12.0932L29.5887 11.7457ZM29.398 11.719C29.4429 11.8183 29.473 11.9043 29.4972 11.9803L29.8783 11.8587C29.8512 11.774 29.8159 11.6722 29.7623 11.554L29.398 11.719ZM29.0811 11.1684C29.1323 11.2366 29.297 11.496 29.398 11.719L29.7623 11.5539C29.6489 11.3036 29.4691 11.019 29.4009 10.9282L29.0811 11.1684ZM29.1079 11.2092C29.1189 11.2148 29.136 11.2235 29.1499 11.2296C29.1538 11.2313 29.1739 11.2403 29.1988 11.2453C29.2058 11.2467 29.2495 11.2564 29.3014 11.2397C29.3329 11.2296 29.3739 11.2076 29.4047 11.1636C29.4352 11.12 29.4417 11.0746 29.4409 11.0431L29.041 11.0535C29.0402 11.0225 29.0467 10.9775 29.077 10.9343C29.1075 10.8906 29.1482 10.8688 29.1792 10.8589C29.2301 10.8425 29.2724 10.8521 29.2775 10.8531C29.2905 10.8557 29.2998 10.8591 29.3028 10.8601C29.3066 10.8616 29.3092 10.8627 29.3096 10.8629C29.3104 10.8632 29.3093 10.8627 29.3048 10.8605C29.3005 10.8584 29.2954 10.8558 29.2883 10.8522L29.1079 11.2092ZM28.9412 11.1383C29.0058 11.158 29.0643 11.1872 29.1079 11.2092L29.2883 10.8522C29.2451 10.8304 29.159 10.7865 29.0578 10.7556L28.9412 11.1383ZM28.3641 11.0111C28.5793 11.0451 28.7882 11.0916 28.9412 11.1383L29.0578 10.7556C28.8829 10.7023 28.6552 10.6521 28.4265 10.616L28.3641 11.0111ZM27.7921 10.9536C27.9588 10.9588 28.1629 10.9793 28.3641 11.0111L28.4265 10.616C28.2123 10.5821 27.9912 10.5596 27.8046 10.5538L27.7921 10.9536ZM28.3672 11.6057C28.2867 11.4065 28.1538 11.0778 27.9824 10.6753L27.6144 10.832C27.7843 11.231 27.916 11.5568 27.9963 11.7556L28.3672 11.6057ZM28.3677 11.607L28.3674 11.6062L27.9961 11.7551L27.9964 11.7559L28.3677 11.607ZM28.4204 11.737C28.4068 11.7037 28.3891 11.6601 28.3675 11.6065L27.9966 11.7564C28.0181 11.8096 28.0362 11.8542 28.0502 11.8885L28.4204 11.737ZM28.7457 12.2092C28.654 12.0928 28.5762 11.985 28.5183 11.8987C28.4568 11.807 28.4267 11.7523 28.4204 11.737L28.0502 11.8885C28.0737 11.9459 28.1256 12.0313 28.1861 12.1214C28.2501 12.217 28.334 12.333 28.4315 12.4567L28.7457 12.2092ZM12.1035 24.2886C12.1376 24.323 12.162 24.3653 12.1748 24.411L12.5599 24.3028C12.5288 24.1921 12.4699 24.0901 12.3876 24.007L12.1035 24.2886ZM11.9068 24.2081C11.9805 24.2081 12.0518 24.2374 12.1047 24.2899L12.3863 24.0058C12.2589 23.8795 12.0865 23.8081 11.9068 23.8081V24.2081ZM11.7095 24.2892C11.7611 24.2377 11.8319 24.2081 11.9068 24.2081V23.8081C11.7266 23.8081 11.5538 23.8793 11.4266 24.0064L11.7095 24.2892ZM11.6275 24.4865C11.6275 24.4129 11.6568 24.3419 11.7095 24.2892L11.4266 24.0064C11.299 24.134 11.2275 24.3067 11.2275 24.4865H11.6275ZM11.7088 24.6832C11.657 24.6318 11.6275 24.5613 11.6275 24.4865H11.2275C11.2275 24.6668 11.2988 24.84 11.4273 24.9673L11.7088 24.6832ZM11.9068 24.7658C11.832 24.7658 11.7615 24.7363 11.7101 24.6845L11.426 24.9661C11.5533 25.0945 11.7265 25.1658 11.9068 25.1658V24.7658ZM12.1041 24.6839C12.0514 24.7366 11.9804 24.7658 11.9068 24.7658V25.1658C12.0866 25.1658 12.2593 25.0943 12.3869 24.9667L12.1041 24.6839ZM12.1851 24.4948C12.183 24.5666 12.1538 24.6342 12.1041 24.6839L12.3869 24.9667C12.5094 24.8443 12.5799 24.6794 12.5849 24.5064L12.1851 24.4948ZM12.1667 24.382C12.1669 24.4425 12.1762 24.5025 12.1941 24.56L12.576 24.4412C12.5699 24.4216 12.5668 24.4012 12.5667 24.3806L12.1667 24.382ZM12.1677 24.3456C12.167 24.3577 12.1667 24.3698 12.1667 24.382L12.5667 24.3807C12.5667 24.3765 12.5668 24.3724 12.567 24.3683L12.1677 24.3456ZM8.33997 24.0064C8.21234 24.134 8.14087 24.3067 8.14087 24.4865H8.54087C8.54087 24.4129 8.57011 24.3419 8.62281 24.2892L8.33997 24.0064ZM8.82012 23.8081C8.63992 23.8081 8.4671 23.8793 8.33997 24.0064L8.62282 24.2892C8.6744 24.2377 8.74526 24.2081 8.82012 24.2081V23.8081ZM9.29963 24.0058C9.17221 23.8795 8.99985 23.8081 8.82012 23.8081V24.2081C8.89383 24.2081 8.96516 24.2374 9.01807 24.2899L9.29963 24.0058ZM9.49857 24.4865C9.49857 24.3068 9.42719 24.1345 9.30091 24.007L9.01679 24.2886C9.06923 24.3415 9.09857 24.4128 9.09857 24.4865H9.49857ZM9.30027 24.9667C9.4274 24.8396 9.49857 24.6668 9.49857 24.4865H9.09857C9.09857 24.5614 9.06901 24.6323 9.01743 24.6839L9.30027 24.9667ZM8.82012 25.1658C8.99995 25.1658 9.17264 25.0943 9.30027 24.9667L9.01743 24.6839C8.96473 24.7366 8.89374 24.7658 8.82012 24.7658V25.1658ZM8.33933 24.9661C8.46666 25.0945 8.63983 25.1658 8.82012 25.1658V24.7658C8.74536 24.7658 8.67483 24.7363 8.62345 24.6845L8.33933 24.9661ZM8.14087 24.4865C8.14087 24.6668 8.21213 24.84 8.34061 24.9673L8.62217 24.6832C8.57033 24.6318 8.54087 24.5613 8.54087 24.4865H8.14087ZM15.9731 7.40299C15.9858 7.40308 15.9984 7.40278 16.0111 7.40208L15.9889 7.00269C15.9846 7.00293 15.9803 7.00303 15.976 7.003L15.9731 7.40299ZM9.01933 7.76086C9.99719 7.55761 12.347 7.42359 15.9757 7.40299L15.9734 7.003C12.3536 7.02354 9.96211 7.15635 8.93793 7.36923L9.01933 7.76086ZM8.40173 8.28524C8.67524 7.93103 8.89878 7.79329 9.03011 7.7583L8.92714 7.37178C8.67431 7.43914 8.3833 7.65462 8.08513 8.04077L8.40173 8.28524ZM7.26529 10.3739C7.77706 9.31658 8.18674 8.56363 8.40172 8.28525L8.08514 8.04076C7.83993 8.35828 7.41252 9.15158 6.90525 10.1996L7.26529 10.3739ZM7.12358 10.0899C7.11942 10.0893 7.1121 10.0883 7.10153 10.0874L7.06901 10.4861C7.06864 10.486 7.06769 10.4859 7.0664 10.4858C7.06531 10.4857 7.06446 10.4855 7.06581 10.4857L7.12358 10.0899ZM7.11679 10.089L7.11678 10.089L7.07261 10.4866L7.07262 10.4866L7.11679 10.089ZM7.12049 10.0896C7.12075 10.0896 7.12166 10.0897 7.12296 10.0898C7.12407 10.09 7.12494 10.0901 7.12358 10.0899L7.06583 10.4857C7.07017 10.4864 7.07761 10.4874 7.08844 10.4883L7.12049 10.0896ZM8.8663 10.1655C8.07986 10.1449 7.49517 10.1191 7.12016 10.0896L7.08877 10.4883C7.47462 10.5187 8.06784 10.5447 8.85583 10.5653L8.8663 10.1655ZM15.9724 10.2274C12.8081 10.2274 10.438 10.2066 8.8663 10.1655L8.85583 10.5653C10.433 10.6066 12.8074 10.6274 15.9724 10.6274V10.2274ZM16.0108 10.2283C15.9971 10.2275 15.9833 10.2273 15.9695 10.2275L15.9752 10.6274C15.9799 10.6274 15.9846 10.6275 15.9892 10.6277L16.0108 10.2283ZM16.0305 10.2275C16.0167 10.2273 16.0029 10.2275 15.9892 10.2283L16.0108 10.6277C16.0155 10.6275 16.0201 10.6274 16.0248 10.6274L16.0305 10.2275ZM23.1337 10.1655C21.562 10.2066 19.1919 10.2274 16.0277 10.2274V10.6274C19.1927 10.6274 21.567 10.6066 23.1442 10.5653L23.1337 10.1655ZM24.8799 10.0896C24.5048 10.1191 23.9202 10.1449 23.1337 10.1655L23.1442 10.5653C23.9322 10.5447 24.5254 10.5187 24.9112 10.4883L24.8799 10.0896ZM24.8764 10.0899C24.8751 10.0901 24.876 10.09 24.8772 10.0898C24.8786 10.0897 24.8796 10.0896 24.8799 10.0896L24.9112 10.4883C24.9223 10.4875 24.9299 10.4864 24.9343 10.4857L24.8764 10.0899ZM24.8983 10.0874C24.8878 10.0883 24.8805 10.0893 24.8764 10.0899L24.9344 10.4857C24.9357 10.4855 24.9349 10.4856 24.9338 10.4858C24.9325 10.4859 24.9316 10.486 24.9312 10.4861L24.8983 10.0874ZM23.5983 8.28525C23.8133 8.56363 24.223 9.31658 24.7347 10.3739L25.0948 10.1996C24.5875 9.15158 24.1601 8.35828 23.9149 8.04076L23.5983 8.28525ZM22.9699 7.7583C23.1012 7.79329 23.3248 7.93103 23.5983 8.28524L23.9149 8.04077C23.6167 7.65462 23.3257 7.43914 23.0729 7.37178L22.9699 7.7583ZM16.0243 7.40299C19.653 7.42359 22.0028 7.55761 22.9807 7.76086L23.0621 7.36923C22.0379 7.15635 19.6464 7.02354 16.0266 7.003L16.0243 7.40299ZM15.9889 7.40208C16.0016 7.40278 16.0142 7.40308 16.0269 7.40299L16.024 7.003C16.0197 7.00303 16.0154 7.00293 16.0111 7.00269L15.9889 7.40208ZM15.9695 11.4397C15.9833 11.4399 15.9971 11.4396 16.0108 11.4389L15.9892 11.0395C15.9846 11.0397 15.9799 11.0398 15.9752 11.0398L15.9695 11.4397ZM8.83457 11.3773C10.4259 11.419 12.8038 11.4398 15.9724 11.4398V11.0398C12.8046 11.0398 10.4309 11.019 8.84504 10.9775L8.83457 11.3773ZM7.025 11.2981C7.43909 11.3307 8.03951 11.3565 8.83457 11.3773L8.84504 10.9775C8.05149 10.9567 7.45962 10.9311 7.05638 10.8993L7.025 11.2981ZM6.51942 11.2395C6.65564 11.2647 6.81928 11.2819 7.025 11.2981L7.05638 10.8993C6.85342 10.8834 6.70684 10.8674 6.59196 10.8462L6.51942 11.2395ZM6.29475 11.1784C6.38504 11.2143 6.45392 11.2275 6.51942 11.2395L6.59196 10.8462C6.53189 10.8351 6.49499 10.8276 6.44284 10.8068L6.29475 11.1784ZM6.29188 11.1772L6.29482 11.1784L6.44277 10.8068L6.43983 10.8056L6.29188 11.1772ZM6.10247 11.0651C6.18474 11.134 6.24816 11.1598 6.29191 11.1772L6.43981 10.8056C6.42241 10.7987 6.41342 10.7949 6.40305 10.7893C6.39324 10.7839 6.37916 10.7751 6.35938 10.7585L6.10247 11.0651ZM5.87751 10.5608C5.86745 10.8108 6.01388 10.9909 6.10247 11.0651L6.35938 10.7585C6.34734 10.7484 6.32385 10.7238 6.30488 10.6887C6.28663 10.6549 6.27556 10.6172 6.27719 10.5768L5.87751 10.5608ZM5.9341 10.3283C5.89997 10.4013 5.88073 10.4803 5.87751 10.5608L6.27719 10.5768C6.27828 10.5494 6.28483 10.5226 6.29644 10.4977L5.9341 10.3283ZM7.44228 7.54417C7.05483 8.04588 6.57643 8.95583 5.93412 10.3282L6.29641 10.4978C6.94167 9.11906 7.40278 8.24975 7.75886 7.78866L7.44228 7.54417ZM7.60041 7.86642H7.60057V7.46642H7.60041V7.86642ZM8.72922 6.5826C8.22079 6.71428 7.8064 7.07241 7.44211 7.54418L7.75871 7.78865C8.09791 7.34937 8.44398 7.06967 8.8295 6.96983L8.72922 6.5826ZM8.75584 6.57631C8.74679 6.57824 8.7378 6.58037 8.72886 6.5827L8.82986 6.96974C8.83291 6.96894 8.83597 6.96821 8.83905 6.96756L8.75584 6.57631ZM15.9688 6.1907C12.3206 6.2114 9.94971 6.32514 8.75627 6.57622L8.83862 6.96765C9.98484 6.7265 12.3127 6.61145 15.9711 6.59069L15.9688 6.1907ZM16.0149 6.19582L16.0149 6.19582L15.925 6.58557L15.925 6.58557L16.0149 6.19582ZM16.0111 6.19155C15.9962 6.19073 15.9812 6.19045 15.9662 6.19073L15.9737 6.59066C15.9788 6.59057 15.9839 6.59066 15.9889 6.59094L16.0111 6.19155ZM16.0338 6.19073C16.0188 6.19045 16.0038 6.19073 15.9889 6.19155L16.0111 6.59094C16.0161 6.59066 16.0212 6.59057 16.0263 6.59066L16.0338 6.19073ZM15.9908 6.19458L15.9908 6.19458L16.0693 6.58681L16.0693 6.58681L15.9908 6.19458ZM23.2437 6.57622C22.0503 6.32514 19.6794 6.2114 16.0312 6.1907L16.0289 6.59069C19.6873 6.61145 22.0152 6.7265 23.1614 6.96765L23.2437 6.57622ZM23.2711 6.5827C23.2622 6.58037 23.2532 6.57824 23.2442 6.57631L23.161 6.96756C23.164 6.96821 23.1671 6.96894 23.1702 6.96974L23.2711 6.5827ZM24.5579 7.54418C24.1936 7.07242 23.7792 6.71428 23.2708 6.5826L23.1705 6.96983C23.556 7.06967 23.9021 7.34937 24.2413 7.78865L24.5579 7.54418ZM24.3994 7.86642H24.3996V7.46642H24.3994V7.86642ZM26.0659 10.3282C25.4236 8.95583 24.9452 8.04588 24.5577 7.54417L24.2411 7.78866C24.5972 8.24975 25.0583 9.11906 25.7036 10.4978L26.0659 10.3282ZM26.1225 10.5608C26.1193 10.4803 26.1 10.4013 26.0659 10.3283L25.7036 10.4977C25.7152 10.5226 25.7217 10.5494 25.7228 10.5768L26.1225 10.5608ZM25.8975 11.0651C25.9861 10.9909 26.1326 10.8108 26.1225 10.5608L25.7228 10.5768C25.7244 10.6172 25.7134 10.6549 25.6951 10.6887C25.6762 10.7238 25.6527 10.7484 25.6406 10.7585L25.8975 11.0651ZM25.7081 11.1772C25.7519 11.1598 25.8153 11.134 25.8975 11.0651L25.6406 10.7585C25.6208 10.7751 25.6068 10.7839 25.597 10.7893C25.5866 10.7949 25.5776 10.7987 25.5602 10.8056L25.7081 11.1772ZM25.7052 11.1784L25.7082 11.1772L25.5601 10.8056L25.5572 10.8068L25.7052 11.1784ZM25.4806 11.2395C25.5461 11.2275 25.615 11.2143 25.7053 11.1784L25.5572 10.8068C25.505 10.8276 25.4681 10.8351 25.4081 10.8462L25.4806 11.2395ZM24.975 11.2981C25.1807 11.2819 25.3444 11.2647 25.4806 11.2395L25.4081 10.8462C25.2932 10.8674 25.1466 10.8834 24.9436 10.8993L24.975 11.2981ZM23.1654 11.3773C23.9605 11.3565 24.5609 11.3307 24.975 11.2981L24.9436 10.8993C24.5404 10.9311 23.9485 10.9567 23.155 10.9775L23.1654 11.3773ZM16.0277 11.4398C19.1962 11.4398 21.5741 11.419 23.1654 11.3773L23.155 10.9775C21.5691 11.019 19.1954 11.0398 16.0277 11.0398V11.4398ZM15.9892 11.4389C16.0029 11.4397 16.0167 11.4399 16.0305 11.4397L16.0248 11.0398C16.0201 11.0398 16.0155 11.0397 16.0108 11.0395L15.9892 11.4389ZM20.5845 12.1877L20.5789 12.1877L20.5817 12.5877L20.5874 12.5877L20.5845 12.1877ZM21.4036 12.1877H20.586V12.5877H21.4036V12.1877ZM21.4046 12.1877H21.4036V12.5877H21.4046V12.1877ZM25.2745 12.1877H21.4046V12.5877H25.2745V12.1877ZM25.2757 12.1877H25.2745V12.5877H25.2757V12.1877ZM27.1648 12.9246C26.6144 12.4546 25.9661 12.1901 25.2764 12.1877L25.275 12.5877C25.8585 12.5897 26.4175 12.8124 26.905 13.2288L27.1648 12.9246ZM28.5774 14.8843C28.1727 14.0526 27.7117 13.3918 27.1648 12.9246L26.905 13.2288C27.3959 13.6481 27.8273 14.2569 28.2177 15.0593L28.5774 14.8843ZM28.6376 15.1817C28.6431 15.0791 28.6223 14.9768 28.5774 14.8844L28.2177 15.0593C28.233 15.0907 28.24 15.1255 28.2382 15.1604L28.6376 15.1817ZM28.5462 15.471C28.6007 15.3838 28.6321 15.2843 28.6376 15.1817L28.2382 15.1604C28.2363 15.1953 28.2256 15.2292 28.2071 15.2588L28.5462 15.471ZM28.3261 15.6797C28.4159 15.6299 28.4917 15.5581 28.5462 15.471L28.2071 15.2588C28.1885 15.2885 28.1628 15.3129 28.1322 15.3298L28.3261 15.6797ZM28.0324 15.7557C28.1351 15.7557 28.2362 15.7295 28.3261 15.6797L28.1322 15.3298C28.1016 15.3468 28.0672 15.3557 28.0323 15.3557L28.0324 15.7557ZM21.0456 15.7557H28.0323V15.3557H21.0456V15.7557ZM20.7885 15.6984C20.869 15.7361 20.9567 15.7556 21.0455 15.7557L21.0456 15.3557C21.0154 15.3557 20.9856 15.349 20.9582 15.3362L20.7885 15.6984ZM20.58 15.5376C20.6369 15.6058 20.7081 15.6607 20.7885 15.6984L20.9582 15.3362C20.9308 15.3234 20.9066 15.3047 20.8873 15.2815L20.58 15.5376ZM19.9798 13.7705C19.9798 14.3878 20.1877 15.0668 20.58 15.5376L20.8873 15.2815C20.5647 14.8944 20.3798 14.3108 20.3798 13.7705H19.9798ZM19.9798 13.2V13.7705H20.3798V13.2H19.9798ZM16.0277 13.4H20.1798V13H16.0277V13.4ZM15.9892 13.3992C16.0029 13.3999 16.0167 13.4002 16.0305 13.4L16.0248 13.0001C16.0201 13.0001 16.0155 13 16.0108 12.9998L15.9892 13.3992ZM15.9695 13.4C15.9833 13.4002 15.9971 13.3999 16.0108 13.3992L15.9892 12.9998C15.9845 13 15.9799 13.0001 15.9752 13.0001L15.9695 13.4ZM11.8202 13.4H15.9723V13H11.8202V13.4ZM12.0202 13.7705V13.2H11.6202V13.7705H12.0202ZM11.42 15.5376C11.8123 15.0668 12.0202 14.3878 12.0202 13.7705H11.6202C11.6202 14.3108 11.4352 14.8944 11.1127 15.2815L11.42 15.5376ZM11.2114 15.6984C11.2919 15.6607 11.3631 15.6058 11.4199 15.5376L11.1127 15.2815C11.0933 15.3047 11.0691 15.3234 11.0418 15.3362L11.2114 15.6984ZM10.9544 15.7557C11.0433 15.7556 11.131 15.7361 11.2114 15.6984L11.0418 15.3362C11.0144 15.349 10.9846 15.3557 10.9543 15.3557L10.9544 15.7557ZM3.96765 15.7557H10.9544V15.3557H3.96765V15.7557ZM3.67391 15.6797C3.76379 15.7295 3.86486 15.7557 3.96762 15.7557L3.96768 15.3557C3.93273 15.3557 3.89835 15.3468 3.86778 15.3298L3.67391 15.6797ZM3.45379 15.471C3.50829 15.5581 3.58403 15.6299 3.67391 15.6797L3.86778 15.3298C3.83721 15.3129 3.81144 15.2885 3.79291 15.2588L3.45379 15.471ZM3.36238 15.1817C3.36784 15.2843 3.3993 15.3838 3.45379 15.471L3.79291 15.2588C3.77437 15.2292 3.76367 15.1953 3.76181 15.1604L3.36238 15.1817ZM3.42257 14.8844C3.37763 14.9768 3.35692 15.0791 3.36238 15.1817L3.76181 15.1604C3.75996 15.1255 3.767 15.0907 3.78229 15.0593L3.42257 14.8844ZM4.83521 12.9246C4.28826 13.3918 3.82729 14.0526 3.42259 14.8843L3.78227 15.0593C4.17269 14.2569 4.60406 13.6481 5.09499 13.2288L4.83521 12.9246ZM6.72354 12.1877C6.0339 12.1901 5.38556 12.4546 4.83521 12.9246L5.09499 13.2288C5.58251 12.8124 6.14151 12.5897 6.72493 12.5877L6.72354 12.1877ZM6.72424 12.1877H6.72424V12.5877H6.72424V12.1877ZM6.72551 12.1877H6.72424V12.5877H6.72551V12.1877ZM10.5954 12.1877H6.72551V12.5877H10.5954V12.1877ZM10.5964 12.1877H10.5954V12.5877H10.5964V12.1877ZM11.414 12.1877H10.5964V12.5877H11.414V12.1877ZM11.4211 12.1877L11.4154 12.1877L11.4126 12.5877L11.4183 12.5877L11.4211 12.1877ZM15.9723 12.1877H11.4197V12.5877H15.9723V12.1877ZM16.0108 12.1886C15.9971 12.1878 15.9833 12.1876 15.9695 12.1878L15.9752 12.5877C15.9799 12.5876 15.9845 12.5877 15.9892 12.588L16.0108 12.1886ZM16.0305 12.1878C16.0167 12.1876 16.0029 12.1878 15.9892 12.1886L16.0108 12.588C16.0155 12.5877 16.0201 12.5876 16.0248 12.5877L16.0305 12.1878ZM20.5803 12.1877H16.0277V12.5877H20.5803V12.1877ZM10.5872 13.4L10.6011 13.4L10.6022 13L10.5884 13L10.5872 13.4ZM6.72694 13.4H10.5878V13H6.72694V13.4ZM5.62251 13.8466C5.9918 13.5312 6.34132 13.4013 6.72763 13.4L6.72624 13C6.23291 13.0017 5.79418 13.1739 5.36272 13.5424L5.62251 13.8466ZM4.82224 14.8464C5.0869 14.406 5.3571 14.0733 5.62251 13.8466L5.36272 13.5424C5.05479 13.8055 4.75854 14.1758 4.47938 14.6404L4.82224 14.8464ZM10.7286 14.5434H4.65081V14.9434H10.7286V14.5434ZM10.8079 13.7705C10.8079 13.8794 10.778 14.0375 10.7272 14.2073C10.6772 14.3746 10.612 14.5364 10.552 14.6496L10.9053 14.8371C10.9802 14.696 11.0546 14.5087 11.1105 14.3218C11.1656 14.1373 11.2079 13.9362 11.2079 13.7705H10.8079ZM10.8079 13.2V13.7705H11.2079V13.2H10.8079ZM10.6016 13.4H11.0079V13H10.6016V13.4ZM21.1921 13.7705V13.2H20.7921V13.7705H21.1921ZM21.448 14.6496C21.3879 14.5364 21.3227 14.3746 21.2727 14.2073C21.222 14.0375 21.1921 13.8794 21.1921 13.7705H20.7921C20.7921 13.9362 20.8343 14.1373 20.8895 14.3218C20.9454 14.5087 21.0198 14.696 21.0947 14.8371L21.448 14.6496ZM27.3492 14.5434H21.2713V14.9434H27.3492V14.5434ZM26.3775 13.8466C26.6429 14.0733 26.9131 14.406 27.1777 14.8464L27.5206 14.6404C27.2414 14.1758 26.9452 13.8055 26.6372 13.5424L26.3775 13.8466ZM25.2723 13.4C25.6586 13.4013 26.0082 13.5312 26.3775 13.8466L26.6372 13.5424C26.2058 13.1739 25.7671 13.0017 25.2737 13L25.2723 13.4ZM21.4122 13.4H25.273V13H21.4122V13.4ZM21.3989 13.4L21.4128 13.4L21.4116 13L21.3978 13L21.3989 13.4ZM20.9921 13.4H21.3984V13H20.9921V13.4Z" fill="white" mask="url(#path-1-outside-1)"/>
</g>
<path d="M8.55242 24.7549L8.55243 24.7549L8.55178 24.7542C8.48078 24.6839 8.44087 24.5877 8.44087 24.4865C8.44087 24.3864 8.48067 24.29 8.5521 24.2185C8.62257 24.1481 8.71893 24.1081 8.82012 24.1081C8.92019 24.1081 9.01663 24.1478 9.08814 24.2185C9.15883 24.29 9.19857 24.3865 9.19857 24.4865C9.19857 24.5877 9.15861 24.6841 9.08814 24.7546C9.01671 24.826 8.92029 24.8658 8.82012 24.8658C8.71897 24.8658 8.62279 24.8259 8.55242 24.7549ZM7.83639 23.5028C7.5756 23.7636 7.42856 24.118 7.42856 24.4865C7.42856 24.8559 7.57563 25.2095 7.83639 25.4703C8.09714 25.731 8.45072 25.8781 8.82012 25.8781C9.18868 25.8781 9.54308 25.7311 9.80386 25.4703C10.0647 25.2094 10.2109 24.8558 10.2109 24.4865C10.2109 24.1182 10.0648 23.7637 9.80386 23.5028C9.54297 23.2419 9.18852 23.0958 8.82012 23.0958C8.45088 23.0958 8.09726 23.2419 7.83639 23.5028Z" fill="white" stroke="white" stroke-width="0.2"/>
<path d="M11.6391 24.7549L11.6391 24.7549L11.6385 24.7542C11.5674 24.6839 11.5275 24.5877 11.5275 24.4865C11.5275 24.3864 11.5673 24.29 11.6388 24.2185C11.7092 24.1481 11.8056 24.1081 11.9068 24.1081C12.0069 24.1081 12.1033 24.1478 12.1748 24.2185C12.2455 24.29 12.2852 24.3865 12.2852 24.4865C12.2852 24.5877 12.2453 24.6841 12.1748 24.7546C12.1034 24.826 12.007 24.8658 11.9068 24.8658C11.8056 24.8658 11.7095 24.8259 11.6391 24.7549ZM10.9231 23.5028C10.6623 23.7636 10.5152 24.118 10.5152 24.4865C10.5152 24.8559 10.6623 25.2095 10.9231 25.4703C11.1838 25.731 11.5374 25.8781 11.9068 25.8781C12.2753 25.8781 12.6297 25.7311 12.8905 25.4703C13.1514 25.2094 13.2975 24.8558 13.2975 24.4865C13.2975 24.1182 13.1514 23.7637 12.8905 23.5028C12.6296 23.2419 12.2752 23.0958 11.9068 23.0958C11.5376 23.0958 11.1839 23.2419 10.9231 23.5028Z" fill="white" stroke="white" stroke-width="0.2"/>
</svg>
