<svg width="32" height="32" viewBox="0 0 32 32" fill="none" xmlns="http://www.w3.org/2000/svg">
<path d="M4 6.11888C4 4.94893 4.94942 4 6.11888 4H25.8811C27.0511 4 28 4.94941 28 6.11888V25.8811C28 27.0511 27.0506 28 25.8811 28H6.11888C4.94893 28 4 27.0506 4 25.8811V6.11888ZM16 16.7059C16.3898 16.7059 16.7059 16.3898 16.7059 16C16.7059 15.6102 16.3898 15.2941 16 15.2941C15.6102 15.2941 15.2941 15.6102 15.2941 16C15.2941 16.3898 15.6102 16.7059 16 16.7059ZM13.1765 15.2941C13.7612 15.2941 14.2353 14.8201 14.2353 14.2353C14.2353 13.6505 13.7612 13.1765 13.1765 13.1765C12.5917 13.1765 12.1176 13.6505 12.1176 14.2353C12.1176 14.8201 12.5917 15.2941 13.1765 15.2941ZM16 13.8824C16.3898 13.8824 16.7059 13.5663 16.7059 13.1765C16.7059 12.7866 16.3898 12.4706 16 12.4706C15.6102 12.4706 15.2941 12.7866 15.2941 13.1765C15.2941 13.5663 15.6102 13.8824 16 13.8824ZM16 11.0588C16.3898 11.0588 16.7059 10.7428 16.7059 10.3529C16.7059 9.96309 16.3898 9.64706 16 9.64706C15.6102 9.64706 15.2941 9.96309 15.2941 10.3529C15.2941 10.7428 15.6102 11.0588 16 11.0588ZM16 25.1765C16.3898 25.1765 16.7059 24.8604 16.7059 24.4706C16.7059 24.0807 16.3898 23.7647 16 23.7647C15.6102 23.7647 15.2941 24.0807 15.2941 24.4706C15.2941 24.8604 15.6102 25.1765 16 25.1765ZM16 22.3529C16.3898 22.3529 16.7059 22.0369 16.7059 21.6471C16.7059 21.2572 16.3898 20.9412 16 20.9412C15.6102 20.9412 15.2941 21.2572 15.2941 21.6471C15.2941 22.0369 15.6102 22.3529 16 22.3529ZM16 19.5294C16.3898 19.5294 16.7059 19.2134 16.7059 18.8235C16.7059 18.4337 16.3898 18.1176 16 18.1176C15.6102 18.1176 15.2941 18.4337 15.2941 18.8235C15.2941 19.2134 15.6102 19.5294 16 19.5294ZM16 8.23529C16.3898 8.23529 16.7059 7.91926 16.7059 7.52941C16.7059 7.13956 16.3898 6.82353 16 6.82353C15.6102 6.82353 15.2941 7.13956 15.2941 7.52941C15.2941 7.91926 15.6102 8.23529 16 8.23529ZM13.1765 11.7647C13.7612 11.7647 14.2353 11.2907 14.2353 10.7059C14.2353 10.1211 13.7612 9.64706 13.1765 9.64706C12.5917 9.64706 12.1176 10.1211 12.1176 10.7059C12.1176 11.2907 12.5917 11.7647 13.1765 11.7647ZM13.1765 8.23529C13.7612 8.23529 14.2353 7.76124 14.2353 7.17647C14.2353 6.5917 13.7612 6.11765 13.1765 6.11765C12.5917 6.11765 12.1176 6.5917 12.1176 7.17647C12.1176 7.76124 12.5917 8.23529 13.1765 8.23529ZM13.1765 25.8824C13.7612 25.8824 14.2353 25.4083 14.2353 24.8235C14.2353 24.2388 13.7612 23.7647 13.1765 23.7647C12.5917 23.7647 12.1176 24.2388 12.1176 24.8235C12.1176 25.4083 12.5917 25.8824 13.1765 25.8824ZM13.1765 22.3529C13.7612 22.3529 14.2353 21.8789 14.2353 21.2941C14.2353 20.7093 13.7612 20.2353 13.1765 20.2353C12.5917 20.2353 12.1176 20.7093 12.1176 21.2941C12.1176 21.8789 12.5917 22.3529 13.1765 22.3529ZM13.1765 18.8235C13.7612 18.8235 14.2353 18.3495 14.2353 17.7647C14.2353 17.1799 13.7612 16.7059 13.1765 16.7059C12.5917 16.7059 12.1176 17.1799 12.1176 17.7647C12.1176 18.3495 12.5917 18.8235 13.1765 18.8235ZM9.64706 15.6471C10.4268 15.6471 11.0588 15.015 11.0588 14.2353C11.0588 13.4556 10.4268 12.8235 9.64706 12.8235C8.86736 12.8235 8.23529 13.4556 8.23529 14.2353C8.23529 15.015 8.86736 15.6471 9.64706 15.6471ZM9.64706 12.1176C10.4268 12.1176 11.0588 11.4856 11.0588 10.7059C11.0588 9.92619 10.4268 9.29412 9.64706 9.29412C8.86736 9.29412 8.23529 9.92619 8.23529 10.7059C8.23529 11.4856 8.86736 12.1176 9.64706 12.1176ZM9.64706 8.58824C10.4268 8.58824 11.0588 7.95617 11.0588 7.17647C11.0588 6.39677 10.4268 5.76471 9.64706 5.76471C8.86736 5.76471 8.23529 6.39677 8.23529 7.17647C8.23529 7.95617 8.86736 8.58824 9.64706 8.58824ZM9.64706 26.2353C10.4268 26.2353 11.0588 25.6032 11.0588 24.8235C11.0588 24.0438 10.4268 23.4118 9.64706 23.4118C8.86736 23.4118 8.23529 24.0438 8.23529 24.8235C8.23529 25.6032 8.86736 26.2353 9.64706 26.2353ZM9.64706 22.7059C10.4268 22.7059 11.0588 22.0738 11.0588 21.2941C11.0588 20.5144 10.4268 19.8824 9.64706 19.8824C8.86736 19.8824 8.23529 20.5144 8.23529 21.2941C8.23529 22.0738 8.86736 22.7059 9.64706 22.7059ZM9.64706 19.1765C10.4268 19.1765 11.0588 18.5444 11.0588 17.7647C11.0588 16.985 10.4268 16.3529 9.64706 16.3529C8.86736 16.3529 8.23529 16.985 8.23529 17.7647C8.23529 18.5444 8.86736 19.1765 9.64706 19.1765ZM7.15462 26.9412C7.16904 26.8256 7.17647 26.7078 7.17647 26.5882C7.17647 25.7449 6.80676 24.988 6.22058 24.4706C6.80676 23.9532 7.17647 23.1963 7.17647 22.3529C7.17647 21.5096 6.80676 20.7527 6.22058 20.2353C6.80676 19.7179 7.17647 18.961 7.17647 18.1176C7.17647 17.2743 6.80676 16.5174 6.22058 16C6.80676 15.4826 7.17647 14.7257 7.17647 13.8824C7.17647 13.039 6.80676 12.2821 6.22058 11.7647C6.80676 11.2473 7.17647 10.4904 7.17647 9.64706C7.17647 8.80375 6.80676 8.04678 6.22058 7.52941C6.80676 7.01204 7.17647 6.25508 7.17647 5.41176C7.17647 5.29224 7.16904 5.17445 7.15462 5.05882H6.11888C5.53398 5.05882 5.05882 5.53391 5.05882 6.11888V25.8811C5.05882 26.466 5.53391 26.9412 6.11888 26.9412H7.15462Z" fill="white"/>
</svg>
