<svg width="32" height="32" viewBox="0 0 32 32" fill="none" xmlns="http://www.w3.org/2000/svg">
<path d="M31.8613 11.8246L32 11.7435L31.2242 9.1323L31.0901 9.20948L31.8613 11.8246Z" fill="white"/>
<path d="M26.128 16.9525L26.0205 17.0127L26.0781 17.2383L26.1895 17.1747L26.128 16.9525Z" fill="white"/>
<path d="M26.1288 17.3014L26.1223 17.3049L26.1249 17.3082L26.1288 17.3014Z" fill="white"/>
<path d="M12.8566 22.6349L12.8539 22.783L12.986 22.8652L12.9913 22.7175L12.8566 22.6349Z" fill="white"/>
<path d="M23.1003 15.2435L23.1419 15.3756L23.249 15.3154L23.2047 15.1833L23.1003 15.2435Z" fill="white"/>
<path d="M14.2844 23.4957L14.2817 23.647L14.4168 23.7269L14.4191 23.5782L14.2844 23.4957Z" fill="white"/>
<path d="M23.5813 15.5694L23.2956 15.3811L23.1944 15.438L23.5095 15.6489L23.5813 15.5694Z" fill="white"/>
<path d="M23.8601 16.191L23.8495 16.3317L23.9905 16.4245L23.9988 16.2811L23.8601 16.191Z" fill="white"/>
<path d="M30.6301 10.8984L31.7645 11.7777L31.2408 10.0029C31.2375 10.0115 31.2332 10.0195 31.2242 10.0245L5.15381 25.0724L5.26625 25.448L11.5491 21.8188L11.964 21.5786L12.1433 21.4782L12.4747 21.2859L12.5798 21.2247C12.5991 21.214 12.6234 21.22 12.6343 21.2393C12.6453 21.2586 12.639 21.2829 12.6194 21.2939L12.5512 21.3335L12.7115 21.8275C12.7122 21.8291 12.7108 21.8308 12.7112 21.8328C12.7122 21.8381 12.7109 21.8421 12.7102 21.8471C12.7089 21.8528 12.7082 21.8568 12.7049 21.8614C12.7042 21.8627 12.7049 21.8647 12.7035 21.8664L12.6074 21.9755C12.6074 21.9755 12.6067 21.9762 12.6067 21.9765L12.4793 22.1116C12.4717 22.1199 12.461 22.1242 12.4504 22.1242C12.443 22.1242 12.4351 22.1219 12.4284 22.1176L12.0319 21.8554C12.0322 21.8558 12.0315 21.8554 12.0319 21.8554C12.0285 21.8531 12.0259 21.8481 12.0235 21.8451C12.0225 21.8438 12.0202 21.8441 12.0196 21.8428C12.0189 21.8415 12.0196 21.8401 12.0189 21.8388C12.0182 21.8371 12.0166 21.8365 12.0159 21.8348L11.9613 21.6718L11.6473 21.8538L12.6337 22.4519L12.6583 22.4672L12.6676 22.4539C12.6693 22.4516 12.6726 22.4516 12.6746 22.4496C12.6766 22.4476 12.6769 22.4446 12.6792 22.4429L12.7704 22.3864C12.789 22.3747 12.8136 22.3804 12.8253 22.3994C12.8369 22.4183 12.8313 22.4426 12.8123 22.4542L12.7767 22.4762L14.5655 23.5654L14.636 23.5251C14.655 23.5145 14.68 23.5205 14.6906 23.5398C14.7012 23.5591 14.6949 23.5833 14.676 23.5943L14.6128 23.6302L14.7119 23.936C14.7189 23.9566 14.7072 23.9796 14.6863 23.9862C14.6819 23.9872 14.6783 23.9882 14.6743 23.9882C14.6573 23.9882 14.6414 23.9776 14.636 23.9606L14.5319 23.6382L14.499 23.6179L14.4957 23.7956C14.4957 23.7996 14.4927 23.8022 14.4913 23.8056C14.4903 23.8089 14.4917 23.8122 14.49 23.8152C14.489 23.8165 14.487 23.8159 14.4863 23.8172C14.4793 23.8272 14.4687 23.8348 14.4557 23.8348C14.4551 23.8348 14.4544 23.8345 14.4537 23.8345C14.4474 23.8342 14.4411 23.8328 14.4351 23.8292L14.2205 23.7024C14.2189 23.7014 14.2185 23.6991 14.2172 23.6978C14.2129 23.6948 14.2109 23.6908 14.2082 23.6861C14.2059 23.6815 14.2036 23.6778 14.2029 23.6725C14.2026 23.6705 14.2006 23.6692 14.2006 23.6672L14.2052 23.439L13.0695 22.7473L13.0628 22.9353C13.0625 22.9393 13.0595 22.9419 13.0582 22.9453C13.0572 22.9486 13.0585 22.9523 13.0565 22.9549C13.0555 22.9562 13.0535 22.9559 13.0528 22.9569C13.0459 22.9666 13.0352 22.9739 13.0222 22.9739C13.0222 22.9739 13.0216 22.9739 13.0209 22.9739C13.0202 22.9739 13.0199 22.9729 13.0192 22.9729C13.0129 22.9722 13.0066 22.9712 13.0013 22.9676L12.7914 22.8365C12.79 22.8355 12.79 22.8335 12.7884 22.8325C12.784 22.8288 12.782 22.8248 12.7797 22.8202C12.7771 22.8152 12.7751 22.8119 12.7744 22.8065C12.7744 22.8045 12.7724 22.8036 12.7724 22.8016L12.7771 22.5693L12.7102 22.5284L12.7015 22.5411L12.6117 22.7001C12.6047 22.7131 12.5911 22.7207 12.5771 22.7207C12.5705 22.7207 12.5638 22.7191 12.5575 22.7154C12.5382 22.7047 12.5315 22.6805 12.5425 22.6612L12.6147 22.5328L12.6127 22.5311L12.3689 22.6884L14.6723 24.083L15.2515 23.7084L15.169 23.6609L15.1051 23.778C15.1041 23.7803 15.1008 23.7796 15.0991 23.7816C15.0961 23.7856 15.0948 23.7906 15.0905 23.7933L14.9118 23.8981C14.9055 23.9017 14.8989 23.9037 14.8915 23.9037C14.8849 23.9037 14.8786 23.902 14.8722 23.8987C14.8722 23.899 14.8719 23.8987 14.8722 23.8987C14.8716 23.8987 14.8709 23.8981 14.8706 23.8977L14.8223 23.8688C14.8203 23.8834 14.8134 23.8967 14.7984 23.9017C14.7937 23.903 14.7901 23.9037 14.7861 23.9037C14.7691 23.9037 14.7535 23.8931 14.7478 23.8761L14.7265 23.8106L14.6986 23.7923C14.6803 23.7803 14.6753 23.7553 14.6873 23.737C14.6992 23.7181 14.7245 23.7138 14.7425 23.7257L14.7784 23.7493L14.7808 23.7507L14.8759 23.8079L14.9448 23.6795L14.8719 23.396L14.6211 23.0471L12.5275 21.063C12.5116 21.0477 12.5112 21.0224 12.5262 21.0064C12.5419 20.9901 12.5665 20.9895 12.5828 21.0048L14.6786 22.9915C14.6796 22.9928 14.6793 22.9942 14.6803 22.9955C14.681 22.9965 14.6829 22.9965 14.6836 22.9975L14.9201 23.3268L15.0293 23.2653L14.8 22.9473L12.8642 21.1156L12.7029 20.9625C12.6869 20.9476 12.6862 20.9223 12.7012 20.9063C12.7165 20.89 12.7418 20.8893 12.7578 20.9046L12.8978 21.0367L23.0318 15.1873L23.2061 15.0875C23.2061 15.0878 23.2064 15.0875 23.2061 15.0875L23.5384 14.8949L23.6425 14.834C23.6618 14.8223 23.6861 14.829 23.6974 14.848C23.7084 14.8669 23.7021 14.8912 23.6831 14.9025L23.6149 14.9424L23.7746 15.4368C23.7753 15.4385 23.774 15.4401 23.7743 15.4421C23.7753 15.4474 23.774 15.4514 23.7733 15.4564C23.772 15.4621 23.7713 15.4661 23.768 15.4707C23.7673 15.4721 23.768 15.4741 23.7666 15.4757L23.6705 15.5848L23.5437 15.7249C23.5361 15.7332 23.5251 15.7379 23.5145 15.7379C23.5068 15.7379 23.4988 15.7355 23.4922 15.7309L23.0946 15.4647C23.0906 15.4621 23.0883 15.4571 23.086 15.4534C23.085 15.4521 23.0827 15.4524 23.082 15.4511C23.0813 15.4498 23.082 15.4484 23.0817 15.4471C23.0807 15.4458 23.0793 15.4448 23.0787 15.4431L23.0281 15.2811L22.7064 15.4667L23.6921 16.0609C23.6918 16.0609 23.6924 16.0609 23.6921 16.0609L23.7051 16.0692L23.7237 16.0359C23.7241 16.0356 23.7244 16.0349 23.7247 16.0346C23.7267 16.0313 23.7304 16.031 23.733 16.0283C23.735 16.026 23.7357 16.0223 23.739 16.0206L23.8308 15.9684C23.8501 15.9578 23.8744 15.9641 23.8851 15.9837C23.896 16.0027 23.8894 16.027 23.8701 16.0379L23.8368 16.0569L25.6273 17.1527L25.6985 17.1088C25.7174 17.0972 25.7414 17.1028 25.7534 17.1218C25.765 17.1408 25.7594 17.165 25.7407 17.1767L25.6745 17.2176L25.766 17.5157C25.7727 17.5366 25.7607 17.5589 25.7397 17.5653C25.7357 17.5666 25.7321 17.5672 25.7281 17.5672C25.7108 17.5672 25.6952 17.5563 25.6902 17.539L25.594 17.2259L25.5634 17.2073L25.5498 17.3989C25.5494 17.4032 25.5458 17.4056 25.5448 17.4089C25.5438 17.4122 25.5448 17.4159 25.5425 17.4185C25.5418 17.4199 25.5398 17.4195 25.5391 17.4205C25.5321 17.4292 25.5218 17.4362 25.5095 17.4362C25.5085 17.4362 25.5075 17.4358 25.5065 17.4358C25.5045 17.4358 25.5039 17.4342 25.5022 17.4338C25.4965 17.4325 25.4916 17.4322 25.4869 17.4289L25.277 17.2845C25.2753 17.2835 25.2753 17.2811 25.274 17.2798C25.27 17.2762 25.2683 17.2725 25.266 17.2675C25.2637 17.2625 25.2617 17.2589 25.2613 17.2535C25.2613 17.2515 25.2593 17.2502 25.2597 17.2482L25.2763 17.0313L24.0757 16.2961L24.0647 16.494C24.0644 16.498 24.0614 16.5004 24.0601 16.5037C24.0587 16.507 24.0601 16.5107 24.0581 16.5133C24.0574 16.5147 24.0554 16.5143 24.0544 16.5153C24.0471 16.5246 24.0371 16.5316 24.0248 16.5316C24.0238 16.5316 24.0228 16.5316 24.0221 16.5316C24.0208 16.5313 24.0201 16.53 24.0188 16.5296C24.0128 16.529 24.0075 16.5283 24.0025 16.525L23.7843 16.3809C23.7823 16.3796 23.7823 16.3773 23.7809 16.3759C23.7769 16.3726 23.775 16.369 23.773 16.364C23.771 16.359 23.7686 16.3553 23.768 16.35C23.768 16.348 23.766 16.3463 23.7663 16.3443L23.7829 16.1168L23.7726 16.1098L23.7537 16.1437L23.6801 16.2904C23.6732 16.3044 23.6595 16.3124 23.6445 16.3124C23.6386 16.3124 23.6329 16.3111 23.6269 16.3081C23.607 16.2981 23.599 16.2738 23.6089 16.2545L23.6658 16.1404L23.438 16.2578L25.7457 17.6414L26.3076 17.357L26.2145 17.3021L26.1686 17.3876C26.1649 17.3943 26.1596 17.3999 26.1532 17.4036L25.9766 17.512C25.9703 17.5157 25.963 17.518 25.9563 17.518C25.9496 17.518 25.9433 17.5163 25.937 17.513C25.9367 17.5127 25.9367 17.5124 25.9363 17.512C25.936 17.512 25.9353 17.512 25.9347 17.5117L25.8874 17.4824C25.8838 17.4957 25.8768 17.5077 25.8625 17.512C25.8588 17.513 25.8552 17.5137 25.8515 17.5137C25.8339 17.5137 25.8182 17.5024 25.8133 17.4847L25.796 17.4262L25.7793 17.4165C25.76 17.4056 25.7534 17.3813 25.7647 17.362C25.7757 17.3427 25.7999 17.3364 25.8189 17.3474L25.8495 17.365C25.8492 17.365 25.8495 17.3653 25.8495 17.365C25.8498 17.365 25.8505 17.3656 25.8508 17.3656L25.9407 17.4219L26.0095 17.2938L25.9373 17.0107L25.6855 16.6617L23.5923 14.6776C23.5763 14.6627 23.576 14.637 23.591 14.6214C23.6063 14.6051 23.6312 14.6048 23.6475 14.6197L25.7434 16.6065C25.7444 16.6078 25.7437 16.6091 25.7451 16.6101C25.7457 16.6115 25.7477 16.6111 25.7484 16.6125L25.9856 16.9412L26.094 16.8803L25.8651 16.5619L23.9286 14.7302L23.7673 14.5772C23.7513 14.5622 23.7507 14.5369 23.7656 14.5206C23.7809 14.5046 23.8062 14.504 23.8222 14.5193L23.9622 14.6514L30.5389 10.8592L31.2811 10.4267C31.2994 10.4154 31.3243 10.4217 31.3357 10.441C31.3466 10.46 31.3403 10.4843 31.321 10.4956L30.6301 10.8984ZM13.2804 22.2127C13.2807 22.2111 13.2824 22.2101 13.2827 22.2084C13.2831 22.2064 13.2817 22.2051 13.2824 22.2031C13.2837 22.1984 13.2884 22.1961 13.2907 22.1928C13.2934 22.1898 13.2944 22.1868 13.2974 22.1848C13.3027 22.1808 13.3077 22.1798 13.3143 22.1785C13.3176 22.1778 13.32 22.1751 13.3233 22.1751C13.325 22.1755 13.326 22.1771 13.3276 22.1778C13.3293 22.1781 13.331 22.1765 13.3326 22.1771L13.499 22.2297C13.4993 22.2297 13.5 22.23 13.5003 22.2304L13.6217 22.2739C13.6214 22.2736 13.622 22.2739 13.6217 22.2739C13.6267 22.2756 13.6297 22.2813 13.6334 22.2846C13.6373 22.2882 13.6423 22.2909 13.6443 22.2952L13.7894 22.6359C13.7897 22.6369 13.789 22.6379 13.7894 22.6389C13.7897 22.6399 13.7907 22.6402 13.791 22.6409L13.7914 22.6419L13.7994 22.6718C13.8004 22.6751 13.7984 22.6778 13.7984 22.6808C13.7987 22.6865 13.7984 22.6904 13.7967 22.6954C13.7947 22.7008 13.7917 22.7038 13.7884 22.7081C13.7864 22.7104 13.7861 22.7137 13.7834 22.7154L13.7591 22.732L13.5978 22.8498C13.5908 22.8551 13.5821 22.8574 13.5741 22.8574C13.5635 22.8574 13.5532 22.8528 13.5452 22.8448L13.2701 22.5567C13.2687 22.555 13.2684 22.5524 13.2671 22.5507C13.2664 22.5497 13.2651 22.5501 13.2644 22.5491C13.2624 22.5457 13.2638 22.5421 13.2631 22.5384C13.2618 22.5344 13.2591 22.5314 13.2591 22.5274C13.2591 22.5278 13.2591 22.5271 13.2591 22.5274L13.2804 22.2127ZM24.3445 15.825C24.3448 15.823 24.3468 15.822 24.3472 15.82C24.3478 15.818 24.3462 15.8164 24.3468 15.8144C24.3485 15.8101 24.3525 15.8081 24.3548 15.8051C24.3575 15.8021 24.3591 15.7987 24.3625 15.7968C24.3671 15.7934 24.3714 15.7921 24.3774 15.7911C24.3811 15.7904 24.3837 15.7874 24.3871 15.7874C24.3891 15.7878 24.3901 15.7898 24.3921 15.7901C24.3941 15.7904 24.3957 15.7891 24.3977 15.7898L24.5587 15.8463L24.6848 15.8852C24.6855 15.8856 24.6855 15.8862 24.6861 15.8866C24.6915 15.8882 24.6938 15.8929 24.6978 15.8962C24.7018 15.8995 24.7061 15.9022 24.7081 15.9069C24.7088 15.9075 24.7094 15.9075 24.7094 15.9082L24.8625 16.2791C24.8641 16.2831 24.8621 16.2864 24.8625 16.2901C24.8628 16.2958 24.8641 16.3004 24.8625 16.3054C24.8608 16.3107 24.8575 16.3134 24.8545 16.3177C24.8518 16.3207 24.8515 16.3247 24.8478 16.327L24.8379 16.334L24.8272 16.3443C24.8265 16.345 24.8259 16.3447 24.8255 16.345C24.8252 16.3453 24.8252 16.346 24.8249 16.3463C24.8242 16.347 24.8235 16.3467 24.8229 16.347C24.8222 16.3477 24.8222 16.3483 24.8219 16.349L24.6555 16.4624C24.6486 16.4671 24.6406 16.4694 24.6329 16.4694C24.6226 16.4694 24.612 16.4651 24.604 16.4568L24.3335 16.1687C24.3322 16.1674 24.3322 16.1647 24.3309 16.163C24.3302 16.162 24.3285 16.1624 24.3279 16.1614C24.3259 16.1577 24.3272 16.154 24.3265 16.1504C24.3255 16.1464 24.3229 16.1434 24.3229 16.1394C24.3229 16.1397 24.3229 16.1391 24.3229 16.1394L24.3445 15.825Z" fill="white"/>
<path d="M25.3538 17.0906L25.3428 17.235L25.4762 17.3271L25.4866 17.1794L25.3538 17.0906Z" fill="white"/>
<path d="M26.3721 17.4203L25.7969 17.7117L26.1729 18.6695L26.7444 18.3348L26.3721 17.4203Z" fill="white"/>
<path d="M23.3857 16.3233L23.2417 17.0086L26.0741 18.6358L25.7141 17.7192L23.3857 16.3233Z" fill="white"/>
<path d="M12.5166 21.9562L12.2278 21.7649L12.129 21.8238L12.4447 22.032L12.5166 21.9562Z" fill="white"/>
<path d="M31.1806 9.06562L26.6582 5L26.5258 5.07585L31.0482 9.1418L31.1806 9.06562Z" fill="white"/>
<path d="M12.0322 21.6313L12.0761 21.7627L12.1809 21.6995L12.14 21.5707L12.0322 21.6313Z" fill="white"/>
<path d="M15.0622 23.3415L14.9554 23.401L15.0136 23.6263L15.1168 23.567L15.0622 23.3415Z" fill="white"/>
<path d="M12.3216 22.7544L12.1902 23.3831L15.0086 25.0155L14.6424 24.1596L12.3216 22.7544Z" fill="white"/>
<path d="M15.6936 24.7173L15.31 23.7682L14.7239 24.1471L15.1114 25.053L15.6936 24.7173Z" fill="white"/>
<path d="M4.86038 24.3574L4.72199 24.4353L5.49346 27.0464L5.63218 26.9686L5.2047 25.5195L5.06863 25.0647L4.86038 24.3574Z" fill="white"/>
<path d="M4.63982 24.4385L0.126084 20.3798L0 22.8513L5.39632 26.9991L4.63982 24.4385Z" fill="white"/>
<path d="M4.91427 24.2745C4.91626 24.2765 4.91859 24.2765 4.91992 24.2789C4.92059 24.2805 4.91992 24.2822 4.92026 24.2838C4.92092 24.2852 4.92292 24.2855 4.92325 24.2872L5.13117 24.9938L31.1846 9.9552C31.2002 9.94655 31.2169 9.95121 31.2295 9.96219L31.0086 9.21334L26.4946 5.1547L26.4546 5.9498L26.9151 5.68499C26.9344 5.67434 26.9586 5.68033 26.9696 5.69962C26.9806 5.71859 26.9743 5.74287 26.9546 5.75418L26.431 6.05559L0.991366 20.7468L4.91161 24.2685C4.91327 24.2702 4.91294 24.2729 4.91427 24.2745Z" fill="white"/>
<path d="M4.81681 24.2908L0.896898 20.7694L0.294757 20.2215L0.158027 20.301L4.68008 24.3673L4.81681 24.2908Z" fill="white"/>
<path d="M13.4441 22.2969L13.3562 22.269L13.3433 22.4586L13.4351 22.4057L13.4441 22.2969Z" fill="white"/>
<path d="M24.5042 15.9122L24.4203 15.8826L24.4074 16.0702L24.4985 16.0177L24.5042 15.9122Z" fill="white"/>
<path d="M24.6432 15.9561L24.583 15.9371L24.578 16.0259L24.74 16.1909L24.6432 15.9561Z" fill="white"/>
<path d="M24.6389 16.3776L24.74 16.3084L24.7214 16.2861L24.5301 16.0918L24.4263 16.1513L24.6389 16.3776Z" fill="white"/>
<path d="M13.5785 22.7655L13.6746 22.6953L13.5708 22.5885L13.4663 22.4797L13.3622 22.5396L13.5785 22.7655Z" fill="white"/>
<path d="M15.0409 23.732L15.0645 23.6888L15.0183 23.7157L14.9943 23.7593L15.0409 23.732Z" fill="white"/>
<path d="M13.6676 22.5548L13.5778 22.3432L13.5219 22.323L13.5143 22.4148L13.6244 22.5285L13.6676 22.5548Z" fill="white"/>
</svg>
