<svg width="32" height="32" viewBox="0 0 32 32" fill="none" xmlns="http://www.w3.org/2000/svg">
<mask id="path-1-outside-1" maskUnits="userSpaceOnUse" x="4" y="1" width="23" height="30" fill="black">
<rect fill="white" x="4" y="1" width="23" height="30"/>
<path d="M25.0151 22.8167C24.6805 22.7757 24.3098 22.8188 23.9278 22.944L21.7514 23.657H15.9018C15.8517 23.6563 15.8019 23.6655 15.7554 23.6842C15.7088 23.7029 15.6665 23.7307 15.6308 23.7659C15.5951 23.8011 15.5667 23.843 15.5474 23.8893C15.528 23.9356 15.518 23.9852 15.518 24.0353C15.518 24.0855 15.528 24.1351 15.5474 24.1814C15.5667 24.2276 15.5951 24.2696 15.6308 24.3048C15.6665 24.34 15.7088 24.3678 15.7554 24.3865C15.8019 24.4052 15.8517 24.4144 15.9018 24.4137H21.8119C21.8519 24.4137 21.8917 24.4073 21.9297 24.3948L24.1634 23.6632C24.7583 23.4683 25.1541 23.5564 25.3822 23.7597C25.6103 23.963 25.7431 24.3461 25.6177 24.9594L24.9716 28.1181C24.8507 28.7095 24.1968 29.2432 23.5931 29.2432H15.9018C15.8517 29.2425 15.8019 29.2518 15.7554 29.2705C15.7088 29.2892 15.6665 29.3169 15.6308 29.3521C15.5951 29.3873 15.5667 29.4293 15.5474 29.4755C15.528 29.5218 15.518 29.5714 15.518 29.6216C15.518 29.6717 15.528 29.7214 15.5474 29.7676C15.5667 29.8139 15.5951 29.8558 15.6308 29.891C15.6665 29.9263 15.7088 29.954 15.7554 29.9727C15.8019 29.9914 15.8517 30.0007 15.9018 30H23.5931C24.598 30 25.5116 29.2542 25.713 28.2698L26.3591 25.1111C26.5201 24.3235 26.361 23.6182 25.8858 23.1946C25.6482 22.9828 25.3497 22.8577 25.0151 22.8167Z"/>
<path d="M15.9018 7.4649C15.8517 7.46419 15.8019 7.47345 15.7554 7.49215C15.7088 7.51085 15.6665 7.5386 15.6308 7.57381C15.5951 7.60902 15.5667 7.65097 15.5474 7.69723C15.528 7.74349 15.518 7.79313 15.518 7.84328C15.518 7.89342 15.528 7.94306 15.5474 7.98932C15.5667 8.03558 15.5951 8.07753 15.6308 8.11274C15.6665 8.14795 15.7088 8.1757 15.7554 8.1944C15.8019 8.2131 15.8517 8.22236 15.9018 8.22165H21.488C21.9534 8.22165 22.324 8.59218 22.324 9.05763V13.9152C22.324 13.943 22.3271 13.9708 22.3332 13.998L22.9253 16.6397C23.1621 17.6962 23.2039 19.5513 23.0147 20.6174L22.5209 23.3999C22.5034 23.4987 22.5258 23.6005 22.5833 23.6827C22.6408 23.765 22.7286 23.8211 22.8274 23.8386C22.9263 23.8561 23.028 23.8337 23.1103 23.7762C23.1925 23.7187 23.2486 23.6309 23.2661 23.5321L23.7598 20.7496C23.9766 19.5279 23.9351 17.6849 23.6637 16.4741L23.0808 13.8734V9.05763C23.0808 8.18257 22.3631 7.4649 21.488 7.4649H15.9018Z"/>
<path d="M6.40482 22.8167C6.07022 22.8577 5.77172 22.9828 5.5341 23.1946C5.05888 23.6182 4.89976 24.3235 5.06084 25.1111L5.70689 28.2698C5.90826 29.2542 6.8219 30 7.82684 30H15.5181C15.5682 30.0007 15.618 29.9914 15.6645 29.9727C15.7111 29.954 15.7534 29.9263 15.7891 29.891C15.8248 29.8558 15.8532 29.8139 15.8725 29.7676C15.8919 29.7214 15.9019 29.6717 15.9019 29.6216C15.9019 29.5714 15.8919 29.5218 15.8725 29.4755C15.8532 29.4293 15.8248 29.3873 15.7891 29.3521C15.7534 29.3169 15.7111 29.2892 15.6645 29.2705C15.618 29.2518 15.5682 29.2425 15.5181 29.2432H7.82684C7.22312 29.2432 6.56918 28.7095 6.44827 28.1181L5.80222 24.9594C5.67679 24.3461 5.80957 23.963 6.03767 23.7597C6.26578 23.5564 6.66157 23.4683 7.25646 23.6632L9.49022 24.3948C9.52824 24.4073 9.568 24.4137 9.60802 24.4137H15.5181C15.5682 24.4144 15.618 24.4052 15.6645 24.3865C15.7111 24.3678 15.7534 24.34 15.7891 24.3048C15.8248 24.2696 15.8532 24.2276 15.8725 24.1814C15.8919 24.1351 15.9019 24.0855 15.9019 24.0353C15.9019 23.9852 15.8919 23.9356 15.8725 23.8893C15.8532 23.843 15.8248 23.8011 15.7891 23.7659C15.7534 23.7307 15.7111 23.7029 15.6645 23.6842C15.618 23.6655 15.5682 23.6563 15.5181 23.657H9.66847L7.49206 22.944C7.11009 22.8188 6.73941 22.7757 6.40482 22.8167Z"/>
<path d="M9.93186 7.4649C9.05685 7.4649 8.33912 8.18257 8.33912 9.05763V13.8734L7.75619 16.4741C7.48478 17.6849 7.44335 19.5279 7.66011 20.7496L8.15378 23.5321C8.1713 23.6309 8.22736 23.7187 8.30963 23.7762C8.3919 23.8337 8.49364 23.8561 8.59246 23.8386C8.69128 23.8211 8.7791 23.765 8.83659 23.6827C8.89408 23.6005 8.91653 23.4987 8.899 23.3999L8.40519 20.6174C8.21604 19.5513 8.25778 17.6962 8.49461 16.6397L9.08672 13.998C9.09281 13.9708 9.09588 13.943 9.09588 13.9152V9.05763C9.09588 8.59218 9.4665 8.22165 9.93186 8.22165H15.5181C15.5682 8.22236 15.618 8.2131 15.6645 8.1944C15.7111 8.1757 15.7534 8.14795 15.7891 8.11274C15.8248 8.07753 15.8532 8.03558 15.8725 7.98932C15.8919 7.94306 15.9019 7.89342 15.9019 7.84328C15.9019 7.79313 15.8919 7.74349 15.8725 7.69723C15.8532 7.65097 15.8248 7.60902 15.7891 7.57381C15.7534 7.5386 15.7111 7.51085 15.6645 7.49215C15.618 7.47345 15.5682 7.46419 15.5181 7.4649H9.93186Z"/>
<path d="M12.7645 10.4062C12.1575 10.4062 11.6575 10.9063 11.6575 11.5132V13.8748C11.6575 14.4818 12.1576 14.9818 12.7645 14.9818H18.6554C19.2623 14.9818 19.7624 14.4818 19.7624 13.8748V11.5132C19.7624 10.9063 19.2624 10.4062 18.6554 10.4062H12.7645ZM12.7645 11.1629H18.6554C18.8527 11.1629 19.0057 11.3159 19.0057 11.5132V13.8748C19.0057 14.0722 18.8527 14.225 18.6554 14.225H12.7645C12.5672 14.225 12.4142 14.0722 12.4142 13.8748V11.5132C12.4142 11.3159 12.5672 11.1629 12.7645 11.1629Z"/>
<path d="M12.7645 2C12.1576 2 11.6575 2.50004 11.6575 3.10705V5.46866C11.6575 6.07563 12.1576 6.57556 12.7645 6.57556H18.6554C19.2623 6.57556 19.7624 6.07563 19.7624 5.46866V3.10705C19.7624 2.50004 19.2623 2 18.6554 2H12.7645ZM12.7645 2.75676H18.6554C18.8527 2.75676 19.0057 2.90963 19.0057 3.10705V5.46866C19.0057 5.66597 18.8527 5.81881 18.6554 5.81881H12.7645C12.5672 5.81881 12.4142 5.66597 12.4142 5.46866V3.10705C12.4142 2.90963 12.5672 2.75676 12.7645 2.75676Z"/>
<path d="M12.7645 18.5833C12.1576 18.5833 11.6575 19.0832 11.6575 19.6902V23.752C11.6568 23.8021 11.666 23.8519 11.6847 23.8984C11.7034 23.945 11.7312 23.9873 11.7664 24.023C11.8016 24.0587 11.8435 24.0871 11.8898 24.1064C11.9361 24.1258 11.9857 24.1357 12.0358 24.1357C12.086 24.1357 12.1356 24.1258 12.1819 24.1064C12.2282 24.0871 12.2701 24.0587 12.3053 24.023C12.3405 23.9873 12.3683 23.945 12.387 23.8984C12.4057 23.8519 12.4149 23.8021 12.4142 23.752V19.6902C12.4142 19.4929 12.5672 19.34 12.7645 19.34H18.6554C18.8527 19.34 19.0057 19.4929 19.0057 19.6902V23.752C19.005 23.8021 19.0142 23.8519 19.0329 23.8984C19.0516 23.945 19.0794 23.9873 19.1146 24.023C19.1498 24.0587 19.1918 24.0871 19.238 24.1064C19.2843 24.1258 19.3339 24.1357 19.3841 24.1357C19.4342 24.1357 19.4838 24.1258 19.5301 24.1064C19.5764 24.0871 19.6183 24.0587 19.6535 24.023C19.6887 23.9873 19.7165 23.945 19.7352 23.8984C19.7539 23.8519 19.7631 23.8021 19.7624 23.752V19.6902C19.7624 19.0832 19.2623 18.5833 18.6554 18.5833H12.7645Z"/>
<path d="M14.085 6.05633C13.9847 6.05786 13.8891 6.09915 13.8192 6.17113C13.7494 6.2431 13.7109 6.33988 13.7124 6.44018V7.80278C13.7117 7.85292 13.7209 7.9027 13.7396 7.94923C13.7583 7.99576 13.7861 8.03811 13.8213 8.07382C13.8565 8.10952 13.8985 8.13788 13.9447 8.15723C13.991 8.17658 14.0406 8.18655 14.0908 8.18655C14.1409 8.18655 14.1905 8.17658 14.2368 8.15723C14.2831 8.13788 14.325 8.10952 14.3602 8.07382C14.3954 8.03811 14.4232 7.99576 14.4419 7.94923C14.4606 7.9027 14.4698 7.85292 14.4691 7.80278V6.44018C14.4699 6.38954 14.4604 6.33928 14.4414 6.29236C14.4223 6.24544 14.3941 6.20282 14.3582 6.16702C14.3224 6.13123 14.2798 6.10299 14.2328 6.08397C14.1859 6.06496 14.1356 6.05556 14.085 6.05633Z"/>
<path d="M17.3235 6.05633C17.2232 6.05782 17.1276 6.09909 17.0577 6.17107C16.9878 6.24305 16.9493 6.33985 16.9508 6.44018V7.80278C16.9501 7.85292 16.9593 7.9027 16.978 7.94923C16.9967 7.99576 17.0245 8.03811 17.0597 8.07381C17.0949 8.10952 17.1368 8.13787 17.1831 8.15723C17.2294 8.17658 17.279 8.18655 17.3291 8.18655C17.3793 8.18655 17.4289 8.17658 17.4752 8.15723C17.5214 8.13787 17.5634 8.10952 17.5986 8.07381C17.6338 8.03811 17.6616 7.99576 17.6803 7.94923C17.699 7.9027 17.7082 7.85292 17.7075 7.80278V6.44018C17.7083 6.38956 17.6988 6.3393 17.6798 6.29239C17.6607 6.24548 17.6325 6.20287 17.5967 6.16707C17.5609 6.13128 17.5182 6.10304 17.4713 6.08402C17.4244 6.06499 17.3741 6.05558 17.3235 6.05633Z"/>
</mask>
<path d="M25.0151 22.8167C24.6805 22.7757 24.3098 22.8188 23.9278 22.944L21.7514 23.657H15.9018C15.8517 23.6563 15.8019 23.6655 15.7554 23.6842C15.7088 23.7029 15.6665 23.7307 15.6308 23.7659C15.5951 23.8011 15.5667 23.843 15.5474 23.8893C15.528 23.9356 15.518 23.9852 15.518 24.0353C15.518 24.0855 15.528 24.1351 15.5474 24.1814C15.5667 24.2276 15.5951 24.2696 15.6308 24.3048C15.6665 24.34 15.7088 24.3678 15.7554 24.3865C15.8019 24.4052 15.8517 24.4144 15.9018 24.4137H21.8119C21.8519 24.4137 21.8917 24.4073 21.9297 24.3948L24.1634 23.6632C24.7583 23.4683 25.1541 23.5564 25.3822 23.7597C25.6103 23.963 25.7431 24.3461 25.6177 24.9594L24.9716 28.1181C24.8507 28.7095 24.1968 29.2432 23.5931 29.2432H15.9018C15.8517 29.2425 15.8019 29.2518 15.7554 29.2705C15.7088 29.2892 15.6665 29.3169 15.6308 29.3521C15.5951 29.3873 15.5667 29.4293 15.5474 29.4755C15.528 29.5218 15.518 29.5714 15.518 29.6216C15.518 29.6717 15.528 29.7214 15.5474 29.7676C15.5667 29.8139 15.5951 29.8558 15.6308 29.891C15.6665 29.9263 15.7088 29.954 15.7554 29.9727C15.8019 29.9914 15.8517 30.0007 15.9018 30H23.5931C24.598 30 25.5116 29.2542 25.713 28.2698L26.3591 25.1111C26.5201 24.3235 26.361 23.6182 25.8858 23.1946C25.6482 22.9828 25.3497 22.8577 25.0151 22.8167Z" fill="white"/>
<path d="M15.9018 7.4649C15.8517 7.46419 15.8019 7.47345 15.7554 7.49215C15.7088 7.51085 15.6665 7.5386 15.6308 7.57381C15.5951 7.60902 15.5667 7.65097 15.5474 7.69723C15.528 7.74349 15.518 7.79313 15.518 7.84328C15.518 7.89342 15.528 7.94306 15.5474 7.98932C15.5667 8.03558 15.5951 8.07753 15.6308 8.11274C15.6665 8.14795 15.7088 8.1757 15.7554 8.1944C15.8019 8.2131 15.8517 8.22236 15.9018 8.22165H21.488C21.9534 8.22165 22.324 8.59218 22.324 9.05763V13.9152C22.324 13.943 22.3271 13.9708 22.3332 13.998L22.9253 16.6397C23.1621 17.6962 23.2039 19.5513 23.0147 20.6174L22.5209 23.3999C22.5034 23.4987 22.5258 23.6005 22.5833 23.6827C22.6408 23.765 22.7286 23.8211 22.8274 23.8386C22.9263 23.8561 23.028 23.8337 23.1103 23.7762C23.1925 23.7187 23.2486 23.6309 23.2661 23.5321L23.7598 20.7496C23.9766 19.5279 23.9351 17.6849 23.6637 16.4741L23.0808 13.8734V9.05763C23.0808 8.18257 22.3631 7.4649 21.488 7.4649H15.9018Z" fill="white"/>
<path d="M6.40482 22.8167C6.07022 22.8577 5.77172 22.9828 5.5341 23.1946C5.05888 23.6182 4.89976 24.3235 5.06084 25.1111L5.70689 28.2698C5.90826 29.2542 6.8219 30 7.82684 30H15.5181C15.5682 30.0007 15.618 29.9914 15.6645 29.9727C15.7111 29.954 15.7534 29.9263 15.7891 29.891C15.8248 29.8558 15.8532 29.8139 15.8725 29.7676C15.8919 29.7214 15.9019 29.6717 15.9019 29.6216C15.9019 29.5714 15.8919 29.5218 15.8725 29.4755C15.8532 29.4293 15.8248 29.3873 15.7891 29.3521C15.7534 29.3169 15.7111 29.2892 15.6645 29.2705C15.618 29.2518 15.5682 29.2425 15.5181 29.2432H7.82684C7.22312 29.2432 6.56918 28.7095 6.44827 28.1181L5.80222 24.9594C5.67679 24.3461 5.80957 23.963 6.03767 23.7597C6.26578 23.5564 6.66157 23.4683 7.25646 23.6632L9.49022 24.3948C9.52824 24.4073 9.568 24.4137 9.60802 24.4137H15.5181C15.5682 24.4144 15.618 24.4052 15.6645 24.3865C15.7111 24.3678 15.7534 24.34 15.7891 24.3048C15.8248 24.2696 15.8532 24.2276 15.8725 24.1814C15.8919 24.1351 15.9019 24.0855 15.9019 24.0353C15.9019 23.9852 15.8919 23.9356 15.8725 23.8893C15.8532 23.843 15.8248 23.8011 15.7891 23.7659C15.7534 23.7307 15.7111 23.7029 15.6645 23.6842C15.618 23.6655 15.5682 23.6563 15.5181 23.657H9.66847L7.49206 22.944C7.11009 22.8188 6.73941 22.7757 6.40482 22.8167Z" fill="white"/>
<path d="M9.93186 7.4649C9.05685 7.4649 8.33912 8.18257 8.33912 9.05763V13.8734L7.75619 16.4741C7.48478 17.6849 7.44335 19.5279 7.66011 20.7496L8.15378 23.5321C8.1713 23.6309 8.22736 23.7187 8.30963 23.7762C8.3919 23.8337 8.49364 23.8561 8.59246 23.8386C8.69128 23.8211 8.7791 23.765 8.83659 23.6827C8.89408 23.6005 8.91653 23.4987 8.899 23.3999L8.40519 20.6174C8.21604 19.5513 8.25778 17.6962 8.49461 16.6397L9.08672 13.998C9.09281 13.9708 9.09588 13.943 9.09588 13.9152V9.05763C9.09588 8.59218 9.4665 8.22165 9.93186 8.22165H15.5181C15.5682 8.22236 15.618 8.2131 15.6645 8.1944C15.7111 8.1757 15.7534 8.14795 15.7891 8.11274C15.8248 8.07753 15.8532 8.03558 15.8725 7.98932C15.8919 7.94306 15.9019 7.89342 15.9019 7.84328C15.9019 7.79313 15.8919 7.74349 15.8725 7.69723C15.8532 7.65097 15.8248 7.60902 15.7891 7.57381C15.7534 7.5386 15.7111 7.51085 15.6645 7.49215C15.618 7.47345 15.5682 7.46419 15.5181 7.4649H9.93186Z" fill="white"/>
<path d="M12.7645 10.4062C12.1575 10.4062 11.6575 10.9063 11.6575 11.5132V13.8748C11.6575 14.4818 12.1576 14.9818 12.7645 14.9818H18.6554C19.2623 14.9818 19.7624 14.4818 19.7624 13.8748V11.5132C19.7624 10.9063 19.2624 10.4062 18.6554 10.4062H12.7645ZM12.7645 11.1629H18.6554C18.8527 11.1629 19.0057 11.3159 19.0057 11.5132V13.8748C19.0057 14.0722 18.8527 14.225 18.6554 14.225H12.7645C12.5672 14.225 12.4142 14.0722 12.4142 13.8748V11.5132C12.4142 11.3159 12.5672 11.1629 12.7645 11.1629Z" fill="white"/>
<path d="M12.7645 2C12.1576 2 11.6575 2.50004 11.6575 3.10705V5.46866C11.6575 6.07563 12.1576 6.57556 12.7645 6.57556H18.6554C19.2623 6.57556 19.7624 6.07563 19.7624 5.46866V3.10705C19.7624 2.50004 19.2623 2 18.6554 2H12.7645ZM12.7645 2.75676H18.6554C18.8527 2.75676 19.0057 2.90963 19.0057 3.10705V5.46866C19.0057 5.66597 18.8527 5.81881 18.6554 5.81881H12.7645C12.5672 5.81881 12.4142 5.66597 12.4142 5.46866V3.10705C12.4142 2.90963 12.5672 2.75676 12.7645 2.75676Z" fill="white"/>
<path d="M12.7645 18.5833C12.1576 18.5833 11.6575 19.0832 11.6575 19.6902V23.752C11.6568 23.8021 11.666 23.8519 11.6847 23.8984C11.7034 23.945 11.7312 23.9873 11.7664 24.023C11.8016 24.0587 11.8435 24.0871 11.8898 24.1064C11.9361 24.1258 11.9857 24.1357 12.0358 24.1357C12.086 24.1357 12.1356 24.1258 12.1819 24.1064C12.2282 24.0871 12.2701 24.0587 12.3053 24.023C12.3405 23.9873 12.3683 23.945 12.387 23.8984C12.4057 23.8519 12.4149 23.8021 12.4142 23.752V19.6902C12.4142 19.4929 12.5672 19.34 12.7645 19.34H18.6554C18.8527 19.34 19.0057 19.4929 19.0057 19.6902V23.752C19.005 23.8021 19.0142 23.8519 19.0329 23.8984C19.0516 23.945 19.0794 23.9873 19.1146 24.023C19.1498 24.0587 19.1918 24.0871 19.238 24.1064C19.2843 24.1258 19.3339 24.1357 19.3841 24.1357C19.4342 24.1357 19.4838 24.1258 19.5301 24.1064C19.5764 24.0871 19.6183 24.0587 19.6535 24.023C19.6887 23.9873 19.7165 23.945 19.7352 23.8984C19.7539 23.8519 19.7631 23.8021 19.7624 23.752V19.6902C19.7624 19.0832 19.2623 18.5833 18.6554 18.5833H12.7645Z" fill="white"/>
<path d="M14.085 6.05633C13.9847 6.05786 13.8891 6.09915 13.8192 6.17113C13.7494 6.2431 13.7109 6.33988 13.7124 6.44018V7.80278C13.7117 7.85292 13.7209 7.9027 13.7396 7.94923C13.7583 7.99576 13.7861 8.03811 13.8213 8.07382C13.8565 8.10952 13.8985 8.13788 13.9447 8.15723C13.991 8.17658 14.0406 8.18655 14.0908 8.18655C14.1409 8.18655 14.1905 8.17658 14.2368 8.15723C14.2831 8.13788 14.325 8.10952 14.3602 8.07382C14.3954 8.03811 14.4232 7.99576 14.4419 7.94923C14.4606 7.9027 14.4698 7.85292 14.4691 7.80278V6.44018C14.4699 6.38954 14.4604 6.33928 14.4414 6.29236C14.4223 6.24544 14.3941 6.20282 14.3582 6.16702C14.3224 6.13123 14.2798 6.10299 14.2328 6.08397C14.1859 6.06496 14.1356 6.05556 14.085 6.05633Z" fill="white"/>
<path d="M17.3235 6.05633C17.2232 6.05782 17.1276 6.09909 17.0577 6.17107C16.9878 6.24305 16.9493 6.33985 16.9508 6.44018V7.80278C16.9501 7.85292 16.9593 7.9027 16.978 7.94923C16.9967 7.99576 17.0245 8.03811 17.0597 8.07381C17.0949 8.10952 17.1368 8.13787 17.1831 8.15723C17.2294 8.17658 17.279 8.18655 17.3291 8.18655C17.3793 8.18655 17.4289 8.17658 17.4752 8.15723C17.5214 8.13787 17.5634 8.10952 17.5986 8.07381C17.6338 8.03811 17.6616 7.99576 17.6803 7.94923C17.699 7.9027 17.7082 7.85292 17.7075 7.80278V6.44018C17.7083 6.38956 17.6988 6.3393 17.6798 6.29239C17.6607 6.24548 17.6325 6.20287 17.5967 6.16707C17.5609 6.13128 17.5182 6.10304 17.4713 6.08402C17.4244 6.06499 17.3741 6.05558 17.3235 6.05633Z" fill="white"/>
<path d="M25.0151 22.8167C24.6805 22.7757 24.3098 22.8188 23.9278 22.944L21.7514 23.657H15.9018C15.8517 23.6563 15.8019 23.6655 15.7554 23.6842C15.7088 23.7029 15.6665 23.7307 15.6308 23.7659C15.5951 23.8011 15.5667 23.843 15.5474 23.8893C15.528 23.9356 15.518 23.9852 15.518 24.0353C15.518 24.0855 15.528 24.1351 15.5474 24.1814C15.5667 24.2276 15.5951 24.2696 15.6308 24.3048C15.6665 24.34 15.7088 24.3678 15.7554 24.3865C15.8019 24.4052 15.8517 24.4144 15.9018 24.4137H21.8119C21.8519 24.4137 21.8917 24.4073 21.9297 24.3948L24.1634 23.6632C24.7583 23.4683 25.1541 23.5564 25.3822 23.7597C25.6103 23.963 25.7431 24.3461 25.6177 24.9594L24.9716 28.1181C24.8507 28.7095 24.1968 29.2432 23.5931 29.2432H15.9018C15.8517 29.2425 15.8019 29.2518 15.7554 29.2705C15.7088 29.2892 15.6665 29.3169 15.6308 29.3521C15.5951 29.3873 15.5667 29.4293 15.5474 29.4755C15.528 29.5218 15.518 29.5714 15.518 29.6216C15.518 29.6717 15.528 29.7214 15.5474 29.7676C15.5667 29.8139 15.5951 29.8558 15.6308 29.891C15.6665 29.9263 15.7088 29.954 15.7554 29.9727C15.8019 29.9914 15.8517 30.0007 15.9018 30H23.5931C24.598 30 25.5116 29.2542 25.713 28.2698L26.3591 25.1111C26.5201 24.3235 26.361 23.6182 25.8858 23.1946C25.6482 22.9828 25.3497 22.8577 25.0151 22.8167Z" stroke="white" stroke-width="0.4" mask="url(#path-1-outside-1)"/>
<path d="M15.9018 7.4649C15.8517 7.46419 15.8019 7.47345 15.7554 7.49215C15.7088 7.51085 15.6665 7.5386 15.6308 7.57381C15.5951 7.60902 15.5667 7.65097 15.5474 7.69723C15.528 7.74349 15.518 7.79313 15.518 7.84328C15.518 7.89342 15.528 7.94306 15.5474 7.98932C15.5667 8.03558 15.5951 8.07753 15.6308 8.11274C15.6665 8.14795 15.7088 8.1757 15.7554 8.1944C15.8019 8.2131 15.8517 8.22236 15.9018 8.22165H21.488C21.9534 8.22165 22.324 8.59218 22.324 9.05763V13.9152C22.324 13.943 22.3271 13.9708 22.3332 13.998L22.9253 16.6397C23.1621 17.6962 23.2039 19.5513 23.0147 20.6174L22.5209 23.3999C22.5034 23.4987 22.5258 23.6005 22.5833 23.6827C22.6408 23.765 22.7286 23.8211 22.8274 23.8386C22.9263 23.8561 23.028 23.8337 23.1103 23.7762C23.1925 23.7187 23.2486 23.6309 23.2661 23.5321L23.7598 20.7496C23.9766 19.5279 23.9351 17.6849 23.6637 16.4741L23.0808 13.8734V9.05763C23.0808 8.18257 22.3631 7.4649 21.488 7.4649H15.9018Z" stroke="white" stroke-width="0.4" mask="url(#path-1-outside-1)"/>
<path d="M6.40482 22.8167C6.07022 22.8577 5.77172 22.9828 5.5341 23.1946C5.05888 23.6182 4.89976 24.3235 5.06084 25.1111L5.70689 28.2698C5.90826 29.2542 6.8219 30 7.82684 30H15.5181C15.5682 30.0007 15.618 29.9914 15.6645 29.9727C15.7111 29.954 15.7534 29.9263 15.7891 29.891C15.8248 29.8558 15.8532 29.8139 15.8725 29.7676C15.8919 29.7214 15.9019 29.6717 15.9019 29.6216C15.9019 29.5714 15.8919 29.5218 15.8725 29.4755C15.8532 29.4293 15.8248 29.3873 15.7891 29.3521C15.7534 29.3169 15.7111 29.2892 15.6645 29.2705C15.618 29.2518 15.5682 29.2425 15.5181 29.2432H7.82684C7.22312 29.2432 6.56918 28.7095 6.44827 28.1181L5.80222 24.9594C5.67679 24.3461 5.80957 23.963 6.03767 23.7597C6.26578 23.5564 6.66157 23.4683 7.25646 23.6632L9.49022 24.3948C9.52824 24.4073 9.568 24.4137 9.60802 24.4137H15.5181C15.5682 24.4144 15.618 24.4052 15.6645 24.3865C15.7111 24.3678 15.7534 24.34 15.7891 24.3048C15.8248 24.2696 15.8532 24.2276 15.8725 24.1814C15.8919 24.1351 15.9019 24.0855 15.9019 24.0353C15.9019 23.9852 15.8919 23.9356 15.8725 23.8893C15.8532 23.843 15.8248 23.8011 15.7891 23.7659C15.7534 23.7307 15.7111 23.7029 15.6645 23.6842C15.618 23.6655 15.5682 23.6563 15.5181 23.657H9.66847L7.49206 22.944C7.11009 22.8188 6.73941 22.7757 6.40482 22.8167Z" stroke="white" stroke-width="0.4" mask="url(#path-1-outside-1)"/>
<path d="M9.93186 7.4649C9.05685 7.4649 8.33912 8.18257 8.33912 9.05763V13.8734L7.75619 16.4741C7.48478 17.6849 7.44335 19.5279 7.66011 20.7496L8.15378 23.5321C8.1713 23.6309 8.22736 23.7187 8.30963 23.7762C8.3919 23.8337 8.49364 23.8561 8.59246 23.8386C8.69128 23.8211 8.7791 23.765 8.83659 23.6827C8.89408 23.6005 8.91653 23.4987 8.899 23.3999L8.40519 20.6174C8.21604 19.5513 8.25778 17.6962 8.49461 16.6397L9.08672 13.998C9.09281 13.9708 9.09588 13.943 9.09588 13.9152V9.05763C9.09588 8.59218 9.4665 8.22165 9.93186 8.22165H15.5181C15.5682 8.22236 15.618 8.2131 15.6645 8.1944C15.7111 8.1757 15.7534 8.14795 15.7891 8.11274C15.8248 8.07753 15.8532 8.03558 15.8725 7.98932C15.8919 7.94306 15.9019 7.89342 15.9019 7.84328C15.9019 7.79313 15.8919 7.74349 15.8725 7.69723C15.8532 7.65097 15.8248 7.60902 15.7891 7.57381C15.7534 7.5386 15.7111 7.51085 15.6645 7.49215C15.618 7.47345 15.5682 7.46419 15.5181 7.4649H9.93186Z" stroke="white" stroke-width="0.4" mask="url(#path-1-outside-1)"/>
<path d="M12.7645 10.4062C12.1575 10.4062 11.6575 10.9063 11.6575 11.5132V13.8748C11.6575 14.4818 12.1576 14.9818 12.7645 14.9818H18.6554C19.2623 14.9818 19.7624 14.4818 19.7624 13.8748V11.5132C19.7624 10.9063 19.2624 10.4062 18.6554 10.4062H12.7645ZM12.7645 11.1629H18.6554C18.8527 11.1629 19.0057 11.3159 19.0057 11.5132V13.8748C19.0057 14.0722 18.8527 14.225 18.6554 14.225H12.7645C12.5672 14.225 12.4142 14.0722 12.4142 13.8748V11.5132C12.4142 11.3159 12.5672 11.1629 12.7645 11.1629Z" stroke="white" stroke-width="0.4" mask="url(#path-1-outside-1)"/>
<path d="M12.7645 2C12.1576 2 11.6575 2.50004 11.6575 3.10705V5.46866C11.6575 6.07563 12.1576 6.57556 12.7645 6.57556H18.6554C19.2623 6.57556 19.7624 6.07563 19.7624 5.46866V3.10705C19.7624 2.50004 19.2623 2 18.6554 2H12.7645ZM12.7645 2.75676H18.6554C18.8527 2.75676 19.0057 2.90963 19.0057 3.10705V5.46866C19.0057 5.66597 18.8527 5.81881 18.6554 5.81881H12.7645C12.5672 5.81881 12.4142 5.66597 12.4142 5.46866V3.10705C12.4142 2.90963 12.5672 2.75676 12.7645 2.75676Z" stroke="white" stroke-width="0.4" mask="url(#path-1-outside-1)"/>
<path d="M12.7645 18.5833C12.1576 18.5833 11.6575 19.0832 11.6575 19.6902V23.752C11.6568 23.8021 11.666 23.8519 11.6847 23.8984C11.7034 23.945 11.7312 23.9873 11.7664 24.023C11.8016 24.0587 11.8435 24.0871 11.8898 24.1064C11.9361 24.1258 11.9857 24.1357 12.0358 24.1357C12.086 24.1357 12.1356 24.1258 12.1819 24.1064C12.2282 24.0871 12.2701 24.0587 12.3053 24.023C12.3405 23.9873 12.3683 23.945 12.387 23.8984C12.4057 23.8519 12.4149 23.8021 12.4142 23.752V19.6902C12.4142 19.4929 12.5672 19.34 12.7645 19.34H18.6554C18.8527 19.34 19.0057 19.4929 19.0057 19.6902V23.752C19.005 23.8021 19.0142 23.8519 19.0329 23.8984C19.0516 23.945 19.0794 23.9873 19.1146 24.023C19.1498 24.0587 19.1918 24.0871 19.238 24.1064C19.2843 24.1258 19.3339 24.1357 19.3841 24.1357C19.4342 24.1357 19.4838 24.1258 19.5301 24.1064C19.5764 24.0871 19.6183 24.0587 19.6535 24.023C19.6887 23.9873 19.7165 23.945 19.7352 23.8984C19.7539 23.8519 19.7631 23.8021 19.7624 23.752V19.6902C19.7624 19.0832 19.2623 18.5833 18.6554 18.5833H12.7645Z" stroke="white" stroke-width="0.4" mask="url(#path-1-outside-1)"/>
<path d="M14.085 6.05633C13.9847 6.05786 13.8891 6.09915 13.8192 6.17113C13.7494 6.2431 13.7109 6.33988 13.7124 6.44018V7.80278C13.7117 7.85292 13.7209 7.9027 13.7396 7.94923C13.7583 7.99576 13.7861 8.03811 13.8213 8.07382C13.8565 8.10952 13.8985 8.13788 13.9447 8.15723C13.991 8.17658 14.0406 8.18655 14.0908 8.18655C14.1409 8.18655 14.1905 8.17658 14.2368 8.15723C14.2831 8.13788 14.325 8.10952 14.3602 8.07382C14.3954 8.03811 14.4232 7.99576 14.4419 7.94923C14.4606 7.9027 14.4698 7.85292 14.4691 7.80278V6.44018C14.4699 6.38954 14.4604 6.33928 14.4414 6.29236C14.4223 6.24544 14.3941 6.20282 14.3582 6.16702C14.3224 6.13123 14.2798 6.10299 14.2328 6.08397C14.1859 6.06496 14.1356 6.05556 14.085 6.05633Z" stroke="white" stroke-width="0.4" mask="url(#path-1-outside-1)"/>
<path d="M17.3235 6.05633C17.2232 6.05782 17.1276 6.09909 17.0577 6.17107C16.9878 6.24305 16.9493 6.33985 16.9508 6.44018V7.80278C16.9501 7.85292 16.9593 7.9027 16.978 7.94923C16.9967 7.99576 17.0245 8.03811 17.0597 8.07381C17.0949 8.10952 17.1368 8.13787 17.1831 8.15723C17.2294 8.17658 17.279 8.18655 17.3291 8.18655C17.3793 8.18655 17.4289 8.17658 17.4752 8.15723C17.5214 8.13787 17.5634 8.10952 17.5986 8.07381C17.6338 8.03811 17.6616 7.99576 17.6803 7.94923C17.699 7.9027 17.7082 7.85292 17.7075 7.80278V6.44018C17.7083 6.38956 17.6988 6.3393 17.6798 6.29239C17.6607 6.24548 17.6325 6.20287 17.5967 6.16707C17.5609 6.13128 17.5182 6.10304 17.4713 6.08402C17.4244 6.06499 17.3741 6.05558 17.3235 6.05633Z" stroke="white" stroke-width="0.4" mask="url(#path-1-outside-1)"/>
</svg>
