<svg width="32" height="32" viewBox="0 0 32 32" fill="none" xmlns="http://www.w3.org/2000/svg">
<mask id="path-1-outside-1" maskUnits="userSpaceOnUse" x="3.00586" y="3.00537" width="26" height="26" fill="black">
<rect fill="white" x="3.00586" y="3.00537" width="26" height="26"/>
<path fill-rule="evenodd" clip-rule="evenodd" d="M14.9974 4.00541C14.9115 4.00668 14.8296 4.04203 14.7697 4.10369L14.762 4.11191C14.7352 4.1403 14.7137 4.17331 14.6986 4.20938C14.682 4.24902 14.6735 4.29156 14.6735 4.33453C14.6735 4.35271 14.675 4.37082 14.678 4.38866V6.01597C8.76187 6.18803 4.00586 11.0507 4.00586 17.0079C4.00586 23.0736 8.93669 28.0045 15.0024 28.0045C20.9598 28.0045 25.8225 23.2483 25.9944 17.332H27.6151L27.6196 17.332C27.6381 17.3353 27.6569 17.3369 27.6758 17.3369C27.7188 17.3369 27.7613 17.3284 27.801 17.3118C27.8406 17.2952 27.8766 17.2709 27.9067 17.2403C27.9369 17.2097 27.9607 17.1734 27.9767 17.1335C27.9927 17.0937 28.0007 17.051 28.0001 17.008C28.0001 9.85684 22.2033 4.04112 15.0592 4.01041C15.0389 4.00678 15.0182 4.0051 14.9974 4.00541ZM15.3265 6.28017V4.66296C21.888 4.83213 27.178 10.122 27.3474 16.6835H25.7281C25.7105 16.6805 25.6927 16.6791 25.6748 16.6791C25.6569 16.6791 25.6391 16.6805 25.6215 16.6835H22.7686C22.6013 12.6508 19.3592 9.40864 15.3265 9.24136V6.39085C15.3297 6.37262 15.3313 6.3541 15.3313 6.33551C15.3313 6.31692 15.3297 6.2984 15.3265 6.28017ZM22.4608 17.332H25.3456C25.1744 22.8968 20.6088 27.356 15.0024 27.356C9.28769 27.356 4.65435 22.7226 4.65435 17.0079C4.65435 11.4017 9.11338 6.83613 14.678 6.66475V9.54915C14.678 9.63514 14.7122 9.71761 14.773 9.77841C14.8338 9.83922 14.9163 9.87338 15.0023 9.87339C18.9433 9.87339 22.1366 13.0667 22.1366 17.0077C22.1366 17.0937 22.1708 17.1762 22.2316 17.237C22.2924 17.2978 22.3748 17.332 22.4608 17.332ZM19.8744 17.0074C19.8751 17.6585 19.7447 18.3031 19.4911 18.9029C19.246 19.482 18.8913 20.0073 18.4471 20.4515C18.0028 20.8964 17.4769 21.2511 16.8985 21.4963C16.2986 21.7498 15.6534 21.8802 15.0023 21.8795C14.3512 21.8802 13.7066 21.7498 13.1067 21.4963C12.5276 21.2511 12.0023 20.8964 11.5581 20.4515C11.1132 20.0073 10.7585 19.482 10.5134 18.9029C10.2598 18.3031 10.1295 17.6585 10.1301 17.0074C10.1295 16.3563 10.2598 15.7117 10.5134 15.1118C10.7585 14.5327 11.1132 14.0068 11.5581 13.5626C12.0023 13.1184 12.5276 12.7636 13.1067 12.5185C13.7066 12.265 14.3512 12.1346 15.0023 12.1353C15.6534 12.1346 16.2986 12.265 16.8985 12.5185C17.4769 12.7636 18.0028 13.1184 18.4471 13.5626C18.8913 14.0068 19.246 14.5327 19.4911 15.1112C19.7447 15.7111 19.8751 16.3563 19.8744 17.0074ZM19.2259 17.0067V17.0074C19.2266 17.5716 19.1137 18.1306 18.8939 18.6507C18.6812 19.152 18.3738 19.6079 17.9886 19.9931C17.6034 20.3789 17.1475 20.6863 16.6456 20.899C16.1255 21.1182 15.5665 21.2317 15.0023 21.231C14.4381 21.2317 13.8791 21.1182 13.359 20.899C12.8577 20.6863 12.4018 20.3789 12.0166 19.9931C11.6307 19.6079 11.3234 19.152 11.1107 18.6507C10.8915 18.1306 10.778 17.5716 10.7786 17.0074C10.778 16.4426 10.8915 15.8842 11.1107 15.3641C11.3234 14.8622 11.6307 14.4063 12.0166 14.0211C12.4018 13.6359 12.8577 13.3285 13.359 13.1158C13.8791 12.8959 14.4381 12.7831 15.0023 12.7838C15.5665 12.7831 16.1255 12.8959 16.6456 13.1158C17.1475 13.3285 17.6034 13.6359 17.9886 14.0211C18.3738 14.4063 18.6812 14.8622 18.8939 15.3641C19.1137 15.8842 19.2266 16.4426 19.2259 17.0067ZM9.17232 14.5029C8.84354 15.2817 8.67428 16.1189 8.67493 16.9646C8.67428 17.8102 8.84354 18.6474 9.17232 19.4269C9.49138 20.1785 9.95181 20.8614 10.529 21.4379C11.1061 22.0157 11.789 22.4761 12.54 22.7945C13.3194 23.1233 14.1567 23.2926 15.0023 23.2919C15.8479 23.2926 16.6851 23.1233 17.4646 22.7945C18.2162 22.4761 18.8991 22.0157 19.4756 21.4379C20.0534 20.8614 20.5138 20.1785 20.8323 19.4269C21.161 18.6474 21.3303 17.8102 21.3296 16.9646C21.3303 16.1189 21.161 15.2817 20.8323 14.5029C20.5138 13.7513 20.0534 13.0684 19.4756 12.4913C18.8991 11.9141 18.2162 11.4537 17.4646 11.1353C16.6851 10.8058 15.8479 10.6366 15.0023 10.6372C14.1567 10.6366 13.3194 10.8058 12.54 11.1353C11.789 11.4537 11.1061 11.9141 10.529 12.4913C9.95181 13.0684 9.49138 13.7513 9.17232 14.5029ZM9.77024 14.7551C9.47452 15.4542 9.32277 16.2058 9.32342 16.9646C9.32277 17.7233 9.47452 18.4749 9.76959 19.174C10.0556 19.8484 10.4693 20.4619 10.9875 20.9794C11.5056 21.4975 12.1184 21.9113 12.7929 22.1973C13.4919 22.4923 14.2435 22.6441 15.0023 22.6434C15.761 22.6441 16.5126 22.4923 17.2117 22.1973C17.8861 21.9113 18.4996 21.4975 19.0171 20.9794C19.5353 20.4619 19.949 19.8484 20.235 19.174C20.5301 18.4749 20.6818 17.7233 20.6812 16.9646C20.6818 16.2058 20.5301 15.4542 20.235 14.7551C19.949 14.0807 19.5353 13.4679 19.0171 12.9497C18.4996 12.4316 17.8861 12.0179 17.2117 11.7319C16.5126 11.4368 15.761 11.2851 15.0023 11.2857C14.2435 11.2851 13.4919 11.4368 12.7929 11.7319C12.1184 12.0179 11.5056 12.4316 10.9875 12.9497C10.4693 13.4679 10.0556 14.0807 9.77024 14.7551ZM13.1619 17.0079C13.1619 16.5202 13.3564 16.0514 13.7014 15.7064C14.0464 15.3614 14.5146 15.1675 15.0023 15.1675C15.49 15.1675 15.9588 15.3614 16.3038 15.7064C16.6488 16.0514 16.8427 16.5202 16.8427 17.0079C16.8427 17.4956 16.6488 17.9638 16.3038 18.3088C15.9588 18.6538 15.49 18.8483 15.0023 18.8483C14.5146 18.8483 14.0464 18.6538 13.7014 18.3088C13.3564 17.9638 13.1619 17.4956 13.1619 17.0079ZM13.8104 17.0079C13.8104 16.6921 13.9362 16.3886 14.1599 16.1649C14.383 15.9418 14.6865 15.816 15.0023 15.816C15.3181 15.816 15.6216 15.9418 15.8453 16.1649C16.0684 16.3886 16.1942 16.6921 16.1942 17.0079C16.1942 17.3237 16.0684 17.6272 15.8453 17.8503C15.6216 18.074 15.3181 18.1998 15.0023 18.1998C14.6865 18.1998 14.383 18.074 14.1599 17.8503C13.9362 17.6272 13.8104 17.3237 13.8104 17.0079ZM14.4303 13.4034C14.2786 13.5551 14.193 13.7613 14.193 13.976C14.193 14.19 14.2786 14.3962 14.4303 14.548C14.5821 14.6997 14.7877 14.7853 15.0023 14.7853C15.217 14.7853 15.4232 14.6997 15.5749 14.548C15.7267 14.3962 15.8116 14.19 15.8116 13.976C15.8116 13.7613 15.7267 13.5551 15.5749 13.4034C15.4232 13.2516 15.217 13.166 15.0023 13.166C14.7877 13.166 14.5821 13.2516 14.4303 13.4034ZM14.8888 13.8618C14.8583 13.8923 14.8415 13.9332 14.8415 13.976C14.8415 14.0181 14.8583 14.059 14.8888 14.0895C14.9187 14.1193 14.9595 14.1368 15.0023 14.1368C15.0451 14.1368 15.086 14.1193 15.1164 14.0895C15.1463 14.059 15.1631 14.0181 15.1631 13.976C15.1631 13.9332 15.1463 13.8923 15.1164 13.8618C15.086 13.832 15.0451 13.8145 15.0023 13.8145C14.9595 13.8145 14.9187 13.832 14.8888 13.8618ZM14.193 20.0393C14.193 19.8246 14.2786 19.6191 14.4303 19.4673C14.5821 19.3156 14.7877 19.23 15.0023 19.23C15.217 19.23 15.4232 19.3156 15.5749 19.4673C15.7267 19.6191 15.8116 19.8246 15.8116 20.0393C15.8116 20.254 15.7267 20.4602 15.5749 20.6119C15.4232 20.7637 15.217 20.8486 15.0023 20.8486C14.7877 20.8486 14.5821 20.7637 14.4303 20.6119C14.2786 20.4602 14.193 20.254 14.193 20.0393ZM14.8415 20.0393C14.8415 19.9965 14.8583 19.9556 14.8888 19.9258C14.9187 19.8953 14.9595 19.8785 15.0023 19.8785C15.0451 19.8785 15.086 19.8953 15.1164 19.9258C15.1463 19.9556 15.1631 19.9965 15.1631 20.0393C15.1631 20.0821 15.1463 20.123 15.1164 20.1534C15.086 20.1833 15.0451 20.2001 15.0023 20.2001C14.9595 20.2001 14.9187 20.1833 14.8888 20.1534C14.8583 20.123 14.8415 20.0821 14.8415 20.0393ZM18.6067 16.4354C18.4549 16.2837 18.2487 16.1987 18.0341 16.1987C17.8201 16.1987 17.6138 16.2837 17.4621 16.4354C17.3103 16.5872 17.2247 16.7934 17.2247 17.008C17.2247 17.2227 17.3103 17.4283 17.4621 17.58C17.6138 17.7318 17.8201 17.8174 18.0341 17.8174C18.2487 17.8174 18.4549 17.7318 18.6067 17.58C18.7584 17.4283 18.844 17.2227 18.844 17.008C18.844 16.7934 18.7584 16.5872 18.6067 16.4354ZM18.1482 16.8939C18.1177 16.8641 18.0769 16.8472 18.0341 16.8472C17.9919 16.8472 17.951 16.8641 17.9206 16.8939C17.8907 16.9244 17.8732 16.9652 17.8732 17.008C17.8732 17.0509 17.8907 17.0917 17.9206 17.1215C17.951 17.152 17.9919 17.1689 18.0341 17.1689C18.0769 17.1689 18.1177 17.152 18.1482 17.1215C18.178 17.0917 18.1955 17.0509 18.1955 17.008C18.1955 16.9652 18.178 16.9244 18.1482 16.8939ZM11.9706 16.1987C12.1852 16.1987 12.3908 16.2837 12.5425 16.4354C12.6943 16.5872 12.7799 16.7934 12.7799 17.008C12.7799 17.2227 12.6943 17.4283 12.5425 17.58C12.3908 17.7318 12.1852 17.8174 11.9706 17.8174C11.7559 17.8174 11.5497 17.7318 11.398 17.58C11.2462 17.4283 11.1613 17.2227 11.1613 17.008C11.1613 16.7934 11.2462 16.5872 11.398 16.4354C11.5497 16.2837 11.7559 16.1987 11.9706 16.1987ZM11.9706 16.8472C12.0134 16.8472 12.0542 16.8641 12.0841 16.8939C12.1145 16.9244 12.1314 16.9652 12.1314 17.008C12.1314 17.0509 12.1145 17.0917 12.0841 17.1215C12.0542 17.152 12.0134 17.1689 11.9706 17.1689C11.9278 17.1689 11.8869 17.152 11.8564 17.1215C11.8266 17.0917 11.8097 17.0509 11.8097 17.008C11.8097 16.9652 11.8266 16.9244 11.8564 16.8939C11.8869 16.8641 11.9278 16.8472 11.9706 16.8472ZM17.1462 14.0547C16.9316 14.0547 16.726 14.1396 16.5743 14.2914C16.4225 14.4431 16.3369 14.6494 16.3369 14.864C16.3369 15.0787 16.4225 15.2842 16.5743 15.436C16.726 15.5877 16.9316 15.6733 17.1462 15.6733C17.3609 15.6733 17.5671 15.5877 17.7189 15.436C17.8706 15.2842 17.9556 15.0787 17.9556 14.864C17.9556 14.6494 17.8706 14.4431 17.7189 14.2914C17.5671 14.1396 17.3609 14.0547 17.1462 14.0547ZM17.1462 14.7032C17.1034 14.7032 17.0626 14.72 17.0327 14.7505C17.0023 14.7804 16.9854 14.8212 16.9854 14.864C16.9854 14.9068 17.0023 14.9477 17.0327 14.9775C17.0626 15.008 17.1034 15.0248 17.1462 15.0248C17.189 15.0248 17.2299 15.008 17.2597 14.9775C17.2902 14.9477 17.3071 14.9068 17.3071 14.864C17.3071 14.8212 17.2902 14.7804 17.2597 14.7505C17.2299 14.72 17.189 14.7032 17.1462 14.7032ZM12.2864 18.579C12.4382 18.4272 12.6437 18.3423 12.8584 18.3423C13.073 18.3423 13.2793 18.4272 13.431 18.579C13.5828 18.7307 13.6677 18.937 13.6677 19.1516C13.6677 19.3663 13.5828 19.5718 13.431 19.7236C13.2793 19.8753 13.073 19.9609 12.8584 19.9609C12.6437 19.9609 12.4382 19.8753 12.2864 19.7236C12.1347 19.5718 12.0491 19.3663 12.0491 19.1516C12.0491 18.937 12.1347 18.7307 12.2864 18.579ZM12.7449 19.0375C12.7747 19.0076 12.8156 18.9908 12.8584 18.9908C12.9012 18.9908 12.942 19.0076 12.9725 19.0375C13.0024 19.068 13.0192 19.1088 13.0192 19.1516C13.0192 19.1944 13.0024 19.2353 12.9725 19.2651C12.942 19.2956 12.9012 19.3124 12.8584 19.3124C12.8156 19.3124 12.7747 19.2956 12.7449 19.2651C12.7144 19.2353 12.6976 19.1944 12.6976 19.1516C12.6976 19.1088 12.7144 19.068 12.7449 19.0375ZM17.9556 19.1516C17.9556 18.937 17.8706 18.7307 17.7189 18.579C17.5671 18.4272 17.3609 18.3423 17.1462 18.3423C16.9316 18.3423 16.726 18.4272 16.5743 18.579C16.4225 18.7307 16.3369 18.937 16.3369 19.1516C16.3369 19.3663 16.4225 19.5718 16.5743 19.7236C16.726 19.8753 16.9316 19.9609 17.1462 19.9609C17.3609 19.9609 17.5671 19.8753 17.7189 19.7236C17.8706 19.5718 17.9556 19.3663 17.9556 19.1516ZM17.3071 19.1516C17.3071 19.1088 17.2902 19.068 17.2597 19.0375C17.2299 19.0076 17.189 18.9908 17.1462 18.9908C17.1034 18.9908 17.0626 19.0076 17.0327 19.0375C17.0023 19.068 16.9854 19.1088 16.9854 19.1516C16.9854 19.1944 17.0023 19.2353 17.0327 19.2651C17.0626 19.2956 17.1034 19.3124 17.1462 19.3124C17.189 19.3124 17.2299 19.2956 17.2597 19.2651C17.2902 19.2353 17.3071 19.1944 17.3071 19.1516ZM13.431 14.2914C13.5828 14.4431 13.6677 14.6494 13.6677 14.864C13.6677 15.0787 13.5828 15.2842 13.431 15.436C13.2793 15.5877 13.073 15.6733 12.8584 15.6733C12.6437 15.6733 12.4382 15.5877 12.2864 15.436C12.1347 15.2842 12.0491 15.0787 12.0491 14.864C12.0491 14.6494 12.1347 14.4431 12.2864 14.2914C12.4382 14.1396 12.6437 14.0547 12.8584 14.0547C13.073 14.0547 13.2793 14.1396 13.431 14.2914ZM12.9725 14.7505C13.0024 14.7804 13.0192 14.8212 13.0192 14.864C13.0192 14.9068 13.0024 14.9477 12.9725 14.9775C12.942 15.008 12.9012 15.0248 12.8584 15.0248C12.8156 15.0248 12.7747 15.008 12.7449 14.9775C12.7144 14.9477 12.6976 14.9068 12.6976 14.864C12.6976 14.8212 12.7144 14.7804 12.7449 14.7505C12.7747 14.72 12.8156 14.7032 12.8584 14.7032C12.9012 14.7032 12.942 14.72 12.9725 14.7505ZM17.2028 5.68068C17.2643 5.62749 17.3434 5.59931 17.4247 5.6017C17.4463 5.60234 17.4678 5.60514 17.4889 5.61006C22.0747 6.60754 25.6562 10.304 26.4847 14.95C26.4932 14.9923 26.4931 15.0359 26.4845 15.0782C26.4759 15.1205 26.459 15.1607 26.4346 15.1963C26.4103 15.232 26.3791 15.2624 26.3429 15.2859C26.3067 15.3093 26.2661 15.3253 26.2236 15.3329C26.1811 15.3404 26.1375 15.3395 26.0954 15.33C26.0533 15.3205 26.0136 15.3027 25.9784 15.2776C25.9433 15.2526 25.9135 15.2207 25.8908 15.184C25.8681 15.1473 25.853 15.1064 25.8464 15.0638C25.0641 10.6773 21.6802 7.18538 17.3511 6.24374C17.2714 6.2277 17.2007 6.18233 17.1529 6.11662C17.1051 6.05091 17.0837 5.96965 17.0929 5.88892C17.1022 5.80818 17.1414 5.73387 17.2028 5.68068Z"/>
</mask>
<path fill-rule="evenodd" clip-rule="evenodd" d="M14.9974 4.00541C14.9115 4.00668 14.8296 4.04203 14.7697 4.10369L14.762 4.11191C14.7352 4.1403 14.7137 4.17331 14.6986 4.20938C14.682 4.24902 14.6735 4.29156 14.6735 4.33453C14.6735 4.35271 14.675 4.37082 14.678 4.38866V6.01597C8.76187 6.18803 4.00586 11.0507 4.00586 17.0079C4.00586 23.0736 8.93669 28.0045 15.0024 28.0045C20.9598 28.0045 25.8225 23.2483 25.9944 17.332H27.6151L27.6196 17.332C27.6381 17.3353 27.6569 17.3369 27.6758 17.3369C27.7188 17.3369 27.7613 17.3284 27.801 17.3118C27.8406 17.2952 27.8766 17.2709 27.9067 17.2403C27.9369 17.2097 27.9607 17.1734 27.9767 17.1335C27.9927 17.0937 28.0007 17.051 28.0001 17.008C28.0001 9.85684 22.2033 4.04112 15.0592 4.01041C15.0389 4.00678 15.0182 4.0051 14.9974 4.00541ZM15.3265 6.28017V4.66296C21.888 4.83213 27.178 10.122 27.3474 16.6835H25.7281C25.7105 16.6805 25.6927 16.6791 25.6748 16.6791C25.6569 16.6791 25.6391 16.6805 25.6215 16.6835H22.7686C22.6013 12.6508 19.3592 9.40864 15.3265 9.24136V6.39085C15.3297 6.37262 15.3313 6.3541 15.3313 6.33551C15.3313 6.31692 15.3297 6.2984 15.3265 6.28017ZM22.4608 17.332H25.3456C25.1744 22.8968 20.6088 27.356 15.0024 27.356C9.28769 27.356 4.65435 22.7226 4.65435 17.0079C4.65435 11.4017 9.11338 6.83613 14.678 6.66475V9.54915C14.678 9.63514 14.7122 9.71761 14.773 9.77841C14.8338 9.83922 14.9163 9.87338 15.0023 9.87339C18.9433 9.87339 22.1366 13.0667 22.1366 17.0077C22.1366 17.0937 22.1708 17.1762 22.2316 17.237C22.2924 17.2978 22.3748 17.332 22.4608 17.332ZM19.8744 17.0074C19.8751 17.6585 19.7447 18.3031 19.4911 18.9029C19.246 19.482 18.8913 20.0073 18.4471 20.4515C18.0028 20.8964 17.4769 21.2511 16.8985 21.4963C16.2986 21.7498 15.6534 21.8802 15.0023 21.8795C14.3512 21.8802 13.7066 21.7498 13.1067 21.4963C12.5276 21.2511 12.0023 20.8964 11.5581 20.4515C11.1132 20.0073 10.7585 19.482 10.5134 18.9029C10.2598 18.3031 10.1295 17.6585 10.1301 17.0074C10.1295 16.3563 10.2598 15.7117 10.5134 15.1118C10.7585 14.5327 11.1132 14.0068 11.5581 13.5626C12.0023 13.1184 12.5276 12.7636 13.1067 12.5185C13.7066 12.265 14.3512 12.1346 15.0023 12.1353C15.6534 12.1346 16.2986 12.265 16.8985 12.5185C17.4769 12.7636 18.0028 13.1184 18.4471 13.5626C18.8913 14.0068 19.246 14.5327 19.4911 15.1112C19.7447 15.7111 19.8751 16.3563 19.8744 17.0074ZM19.2259 17.0067V17.0074C19.2266 17.5716 19.1137 18.1306 18.8939 18.6507C18.6812 19.152 18.3738 19.6079 17.9886 19.9931C17.6034 20.3789 17.1475 20.6863 16.6456 20.899C16.1255 21.1182 15.5665 21.2317 15.0023 21.231C14.4381 21.2317 13.8791 21.1182 13.359 20.899C12.8577 20.6863 12.4018 20.3789 12.0166 19.9931C11.6307 19.6079 11.3234 19.152 11.1107 18.6507C10.8915 18.1306 10.778 17.5716 10.7786 17.0074C10.778 16.4426 10.8915 15.8842 11.1107 15.3641C11.3234 14.8622 11.6307 14.4063 12.0166 14.0211C12.4018 13.6359 12.8577 13.3285 13.359 13.1158C13.8791 12.8959 14.4381 12.7831 15.0023 12.7838C15.5665 12.7831 16.1255 12.8959 16.6456 13.1158C17.1475 13.3285 17.6034 13.6359 17.9886 14.0211C18.3738 14.4063 18.6812 14.8622 18.8939 15.3641C19.1137 15.8842 19.2266 16.4426 19.2259 17.0067ZM9.17232 14.5029C8.84354 15.2817 8.67428 16.1189 8.67493 16.9646C8.67428 17.8102 8.84354 18.6474 9.17232 19.4269C9.49138 20.1785 9.95181 20.8614 10.529 21.4379C11.1061 22.0157 11.789 22.4761 12.54 22.7945C13.3194 23.1233 14.1567 23.2926 15.0023 23.2919C15.8479 23.2926 16.6851 23.1233 17.4646 22.7945C18.2162 22.4761 18.8991 22.0157 19.4756 21.4379C20.0534 20.8614 20.5138 20.1785 20.8323 19.4269C21.161 18.6474 21.3303 17.8102 21.3296 16.9646C21.3303 16.1189 21.161 15.2817 20.8323 14.5029C20.5138 13.7513 20.0534 13.0684 19.4756 12.4913C18.8991 11.9141 18.2162 11.4537 17.4646 11.1353C16.6851 10.8058 15.8479 10.6366 15.0023 10.6372C14.1567 10.6366 13.3194 10.8058 12.54 11.1353C11.789 11.4537 11.1061 11.9141 10.529 12.4913C9.95181 13.0684 9.49138 13.7513 9.17232 14.5029ZM9.77024 14.7551C9.47452 15.4542 9.32277 16.2058 9.32342 16.9646C9.32277 17.7233 9.47452 18.4749 9.76959 19.174C10.0556 19.8484 10.4693 20.4619 10.9875 20.9794C11.5056 21.4975 12.1184 21.9113 12.7929 22.1973C13.4919 22.4923 14.2435 22.6441 15.0023 22.6434C15.761 22.6441 16.5126 22.4923 17.2117 22.1973C17.8861 21.9113 18.4996 21.4975 19.0171 20.9794C19.5353 20.4619 19.949 19.8484 20.235 19.174C20.5301 18.4749 20.6818 17.7233 20.6812 16.9646C20.6818 16.2058 20.5301 15.4542 20.235 14.7551C19.949 14.0807 19.5353 13.4679 19.0171 12.9497C18.4996 12.4316 17.8861 12.0179 17.2117 11.7319C16.5126 11.4368 15.761 11.2851 15.0023 11.2857C14.2435 11.2851 13.4919 11.4368 12.7929 11.7319C12.1184 12.0179 11.5056 12.4316 10.9875 12.9497C10.4693 13.4679 10.0556 14.0807 9.77024 14.7551ZM13.1619 17.0079C13.1619 16.5202 13.3564 16.0514 13.7014 15.7064C14.0464 15.3614 14.5146 15.1675 15.0023 15.1675C15.49 15.1675 15.9588 15.3614 16.3038 15.7064C16.6488 16.0514 16.8427 16.5202 16.8427 17.0079C16.8427 17.4956 16.6488 17.9638 16.3038 18.3088C15.9588 18.6538 15.49 18.8483 15.0023 18.8483C14.5146 18.8483 14.0464 18.6538 13.7014 18.3088C13.3564 17.9638 13.1619 17.4956 13.1619 17.0079ZM13.8104 17.0079C13.8104 16.6921 13.9362 16.3886 14.1599 16.1649C14.383 15.9418 14.6865 15.816 15.0023 15.816C15.3181 15.816 15.6216 15.9418 15.8453 16.1649C16.0684 16.3886 16.1942 16.6921 16.1942 17.0079C16.1942 17.3237 16.0684 17.6272 15.8453 17.8503C15.6216 18.074 15.3181 18.1998 15.0023 18.1998C14.6865 18.1998 14.383 18.074 14.1599 17.8503C13.9362 17.6272 13.8104 17.3237 13.8104 17.0079ZM14.4303 13.4034C14.2786 13.5551 14.193 13.7613 14.193 13.976C14.193 14.19 14.2786 14.3962 14.4303 14.548C14.5821 14.6997 14.7877 14.7853 15.0023 14.7853C15.217 14.7853 15.4232 14.6997 15.5749 14.548C15.7267 14.3962 15.8116 14.19 15.8116 13.976C15.8116 13.7613 15.7267 13.5551 15.5749 13.4034C15.4232 13.2516 15.217 13.166 15.0023 13.166C14.7877 13.166 14.5821 13.2516 14.4303 13.4034ZM14.8888 13.8618C14.8583 13.8923 14.8415 13.9332 14.8415 13.976C14.8415 14.0181 14.8583 14.059 14.8888 14.0895C14.9187 14.1193 14.9595 14.1368 15.0023 14.1368C15.0451 14.1368 15.086 14.1193 15.1164 14.0895C15.1463 14.059 15.1631 14.0181 15.1631 13.976C15.1631 13.9332 15.1463 13.8923 15.1164 13.8618C15.086 13.832 15.0451 13.8145 15.0023 13.8145C14.9595 13.8145 14.9187 13.832 14.8888 13.8618ZM14.193 20.0393C14.193 19.8246 14.2786 19.6191 14.4303 19.4673C14.5821 19.3156 14.7877 19.23 15.0023 19.23C15.217 19.23 15.4232 19.3156 15.5749 19.4673C15.7267 19.6191 15.8116 19.8246 15.8116 20.0393C15.8116 20.254 15.7267 20.4602 15.5749 20.6119C15.4232 20.7637 15.217 20.8486 15.0023 20.8486C14.7877 20.8486 14.5821 20.7637 14.4303 20.6119C14.2786 20.4602 14.193 20.254 14.193 20.0393ZM14.8415 20.0393C14.8415 19.9965 14.8583 19.9556 14.8888 19.9258C14.9187 19.8953 14.9595 19.8785 15.0023 19.8785C15.0451 19.8785 15.086 19.8953 15.1164 19.9258C15.1463 19.9556 15.1631 19.9965 15.1631 20.0393C15.1631 20.0821 15.1463 20.123 15.1164 20.1534C15.086 20.1833 15.0451 20.2001 15.0023 20.2001C14.9595 20.2001 14.9187 20.1833 14.8888 20.1534C14.8583 20.123 14.8415 20.0821 14.8415 20.0393ZM18.6067 16.4354C18.4549 16.2837 18.2487 16.1987 18.0341 16.1987C17.8201 16.1987 17.6138 16.2837 17.4621 16.4354C17.3103 16.5872 17.2247 16.7934 17.2247 17.008C17.2247 17.2227 17.3103 17.4283 17.4621 17.58C17.6138 17.7318 17.8201 17.8174 18.0341 17.8174C18.2487 17.8174 18.4549 17.7318 18.6067 17.58C18.7584 17.4283 18.844 17.2227 18.844 17.008C18.844 16.7934 18.7584 16.5872 18.6067 16.4354ZM18.1482 16.8939C18.1177 16.8641 18.0769 16.8472 18.0341 16.8472C17.9919 16.8472 17.951 16.8641 17.9206 16.8939C17.8907 16.9244 17.8732 16.9652 17.8732 17.008C17.8732 17.0509 17.8907 17.0917 17.9206 17.1215C17.951 17.152 17.9919 17.1689 18.0341 17.1689C18.0769 17.1689 18.1177 17.152 18.1482 17.1215C18.178 17.0917 18.1955 17.0509 18.1955 17.008C18.1955 16.9652 18.178 16.9244 18.1482 16.8939ZM11.9706 16.1987C12.1852 16.1987 12.3908 16.2837 12.5425 16.4354C12.6943 16.5872 12.7799 16.7934 12.7799 17.008C12.7799 17.2227 12.6943 17.4283 12.5425 17.58C12.3908 17.7318 12.1852 17.8174 11.9706 17.8174C11.7559 17.8174 11.5497 17.7318 11.398 17.58C11.2462 17.4283 11.1613 17.2227 11.1613 17.008C11.1613 16.7934 11.2462 16.5872 11.398 16.4354C11.5497 16.2837 11.7559 16.1987 11.9706 16.1987ZM11.9706 16.8472C12.0134 16.8472 12.0542 16.8641 12.0841 16.8939C12.1145 16.9244 12.1314 16.9652 12.1314 17.008C12.1314 17.0509 12.1145 17.0917 12.0841 17.1215C12.0542 17.152 12.0134 17.1689 11.9706 17.1689C11.9278 17.1689 11.8869 17.152 11.8564 17.1215C11.8266 17.0917 11.8097 17.0509 11.8097 17.008C11.8097 16.9652 11.8266 16.9244 11.8564 16.8939C11.8869 16.8641 11.9278 16.8472 11.9706 16.8472ZM17.1462 14.0547C16.9316 14.0547 16.726 14.1396 16.5743 14.2914C16.4225 14.4431 16.3369 14.6494 16.3369 14.864C16.3369 15.0787 16.4225 15.2842 16.5743 15.436C16.726 15.5877 16.9316 15.6733 17.1462 15.6733C17.3609 15.6733 17.5671 15.5877 17.7189 15.436C17.8706 15.2842 17.9556 15.0787 17.9556 14.864C17.9556 14.6494 17.8706 14.4431 17.7189 14.2914C17.5671 14.1396 17.3609 14.0547 17.1462 14.0547ZM17.1462 14.7032C17.1034 14.7032 17.0626 14.72 17.0327 14.7505C17.0023 14.7804 16.9854 14.8212 16.9854 14.864C16.9854 14.9068 17.0023 14.9477 17.0327 14.9775C17.0626 15.008 17.1034 15.0248 17.1462 15.0248C17.189 15.0248 17.2299 15.008 17.2597 14.9775C17.2902 14.9477 17.3071 14.9068 17.3071 14.864C17.3071 14.8212 17.2902 14.7804 17.2597 14.7505C17.2299 14.72 17.189 14.7032 17.1462 14.7032ZM12.2864 18.579C12.4382 18.4272 12.6437 18.3423 12.8584 18.3423C13.073 18.3423 13.2793 18.4272 13.431 18.579C13.5828 18.7307 13.6677 18.937 13.6677 19.1516C13.6677 19.3663 13.5828 19.5718 13.431 19.7236C13.2793 19.8753 13.073 19.9609 12.8584 19.9609C12.6437 19.9609 12.4382 19.8753 12.2864 19.7236C12.1347 19.5718 12.0491 19.3663 12.0491 19.1516C12.0491 18.937 12.1347 18.7307 12.2864 18.579ZM12.7449 19.0375C12.7747 19.0076 12.8156 18.9908 12.8584 18.9908C12.9012 18.9908 12.942 19.0076 12.9725 19.0375C13.0024 19.068 13.0192 19.1088 13.0192 19.1516C13.0192 19.1944 13.0024 19.2353 12.9725 19.2651C12.942 19.2956 12.9012 19.3124 12.8584 19.3124C12.8156 19.3124 12.7747 19.2956 12.7449 19.2651C12.7144 19.2353 12.6976 19.1944 12.6976 19.1516C12.6976 19.1088 12.7144 19.068 12.7449 19.0375ZM17.9556 19.1516C17.9556 18.937 17.8706 18.7307 17.7189 18.579C17.5671 18.4272 17.3609 18.3423 17.1462 18.3423C16.9316 18.3423 16.726 18.4272 16.5743 18.579C16.4225 18.7307 16.3369 18.937 16.3369 19.1516C16.3369 19.3663 16.4225 19.5718 16.5743 19.7236C16.726 19.8753 16.9316 19.9609 17.1462 19.9609C17.3609 19.9609 17.5671 19.8753 17.7189 19.7236C17.8706 19.5718 17.9556 19.3663 17.9556 19.1516ZM17.3071 19.1516C17.3071 19.1088 17.2902 19.068 17.2597 19.0375C17.2299 19.0076 17.189 18.9908 17.1462 18.9908C17.1034 18.9908 17.0626 19.0076 17.0327 19.0375C17.0023 19.068 16.9854 19.1088 16.9854 19.1516C16.9854 19.1944 17.0023 19.2353 17.0327 19.2651C17.0626 19.2956 17.1034 19.3124 17.1462 19.3124C17.189 19.3124 17.2299 19.2956 17.2597 19.2651C17.2902 19.2353 17.3071 19.1944 17.3071 19.1516ZM13.431 14.2914C13.5828 14.4431 13.6677 14.6494 13.6677 14.864C13.6677 15.0787 13.5828 15.2842 13.431 15.436C13.2793 15.5877 13.073 15.6733 12.8584 15.6733C12.6437 15.6733 12.4382 15.5877 12.2864 15.436C12.1347 15.2842 12.0491 15.0787 12.0491 14.864C12.0491 14.6494 12.1347 14.4431 12.2864 14.2914C12.4382 14.1396 12.6437 14.0547 12.8584 14.0547C13.073 14.0547 13.2793 14.1396 13.431 14.2914ZM12.9725 14.7505C13.0024 14.7804 13.0192 14.8212 13.0192 14.864C13.0192 14.9068 13.0024 14.9477 12.9725 14.9775C12.942 15.008 12.9012 15.0248 12.8584 15.0248C12.8156 15.0248 12.7747 15.008 12.7449 14.9775C12.7144 14.9477 12.6976 14.9068 12.6976 14.864C12.6976 14.8212 12.7144 14.7804 12.7449 14.7505C12.7747 14.72 12.8156 14.7032 12.8584 14.7032C12.9012 14.7032 12.942 14.72 12.9725 14.7505ZM17.2028 5.68068C17.2643 5.62749 17.3434 5.59931 17.4247 5.6017C17.4463 5.60234 17.4678 5.60514 17.4889 5.61006C22.0747 6.60754 25.6562 10.304 26.4847 14.95C26.4932 14.9923 26.4931 15.0359 26.4845 15.0782C26.4759 15.1205 26.459 15.1607 26.4346 15.1963C26.4103 15.232 26.3791 15.2624 26.3429 15.2859C26.3067 15.3093 26.2661 15.3253 26.2236 15.3329C26.1811 15.3404 26.1375 15.3395 26.0954 15.33C26.0533 15.3205 26.0136 15.3027 25.9784 15.2776C25.9433 15.2526 25.9135 15.2207 25.8908 15.184C25.8681 15.1473 25.853 15.1064 25.8464 15.0638C25.0641 10.6773 21.6802 7.18538 17.3511 6.24374C17.2714 6.2277 17.2007 6.18233 17.1529 6.11662C17.1051 6.05091 17.0837 5.96965 17.0929 5.88892C17.1022 5.80818 17.1414 5.73387 17.2028 5.68068Z" fill="white"/>
<path d="M14.7697 4.10369L14.6262 3.96431L14.6238 3.96684L14.7697 4.10369ZM14.9974 4.00541L14.9945 3.80543V3.80543L14.9974 4.00541ZM14.762 4.11191L14.9074 4.24922L14.9078 4.24876L14.762 4.11191ZM14.6986 4.20938L14.5141 4.13218L14.5141 4.13219L14.6986 4.20938ZM14.678 4.38866H14.878V4.37185L14.8752 4.35528L14.678 4.38866ZM14.678 6.01597L14.6838 6.21589L14.878 6.21024V6.01597H14.678ZM25.9944 17.332V17.132H25.8001L25.7944 17.3262L25.9944 17.332ZM27.6151 17.332L27.6165 17.132H27.6151V17.332ZM27.6196 17.332L27.6543 17.135L27.6378 17.1321L27.6211 17.132L27.6196 17.332ZM27.801 17.3118L27.7238 17.1273L27.7238 17.1273L27.801 17.3118ZM27.9067 17.2403L27.7643 17.0999L27.7643 17.0999L27.9067 17.2403ZM27.9767 17.1335L27.7911 17.059L27.7911 17.059L27.9767 17.1335ZM28.0001 17.008H27.8001L27.8001 17.0109L28.0001 17.008ZM15.0592 4.01041L15.0241 4.2073L15.0411 4.21033L15.0583 4.21041L15.0592 4.01041ZM15.3265 4.66296L15.3317 4.46302L15.1265 4.45773V4.66296H15.3265ZM15.3265 6.28017H15.1265V6.29736L15.1294 6.3143L15.3265 6.28017ZM27.3474 16.6835V16.8835H27.5526L27.5473 16.6783L27.3474 16.6835ZM25.7281 16.6835L25.6952 16.8808L25.7115 16.8835H25.7281V16.6835ZM25.6215 16.6835V16.8835H25.6381L25.6544 16.8808L25.6215 16.6835ZM22.7686 16.6835L22.5688 16.6918L22.5767 16.8835H22.7686V16.6835ZM15.3265 9.24136H15.1265V9.43324L15.3182 9.44119L15.3265 9.24136ZM15.3265 6.39085L15.1294 6.35672L15.1265 6.37366V6.39085H15.3265ZM25.3456 17.332L25.5455 17.3381L25.5518 17.132H25.3456V17.332ZM22.4608 17.332L22.4608 17.532H22.4608V17.332ZM14.678 6.66475H14.878V6.45849L14.6719 6.46484L14.678 6.66475ZM14.678 9.54915H14.478V9.54917L14.678 9.54915ZM15.0023 9.87339L15.0022 10.0734H15.0023V9.87339ZM22.1366 17.0077H21.9366V17.0077L22.1366 17.0077ZM19.4911 18.9029L19.6753 18.9809L19.6754 18.9808L19.4911 18.9029ZM19.8744 17.0074L19.6744 17.0072L19.6744 17.0076L19.8744 17.0074ZM18.4471 20.4515L18.3056 20.3101L18.3055 20.3102L18.4471 20.4515ZM16.8985 21.4963L16.9763 21.6805L16.9765 21.6804L16.8985 21.4963ZM15.0023 21.8795L15.0025 21.6795H15.0021L15.0023 21.8795ZM13.1067 21.4963L13.0288 21.6804L13.0288 21.6805L13.1067 21.4963ZM11.5581 20.4515L11.6996 20.3102L11.6994 20.31L11.5581 20.4515ZM10.5134 18.9029L10.3292 18.9808L10.3292 18.9809L10.5134 18.9029ZM10.1301 17.0074L10.3301 17.0076L10.3301 17.0072L10.1301 17.0074ZM10.5134 15.1118L10.3292 15.0339L10.3292 15.034L10.5134 15.1118ZM11.5581 13.5626L11.6994 13.7041L11.6995 13.704L11.5581 13.5626ZM13.1067 12.5185L13.0288 12.3343L13.0288 12.3343L13.1067 12.5185ZM15.0023 12.1353L15.0021 12.3353L15.0025 12.3353L15.0023 12.1353ZM16.8985 12.5185L16.9765 12.3344L16.9763 12.3343L16.8985 12.5185ZM19.4911 15.1112L19.6754 15.0333L19.6753 15.0332L19.4911 15.1112ZM19.2259 17.0074H19.0259V17.0076L19.2259 17.0074ZM19.2259 17.0067L19.0259 17.0065V17.0067H19.2259ZM18.8939 18.6507L19.078 18.7288L19.0781 18.7285L18.8939 18.6507ZM17.9886 19.9931L17.8472 19.8516L17.847 19.8518L17.9886 19.9931ZM16.6456 20.899L16.7232 21.0833L16.7236 21.0832L16.6456 20.899ZM15.0023 21.231L15.0025 21.031H15.002L15.0023 21.231ZM13.359 20.899L13.2809 21.0831L13.2813 21.0833L13.359 20.899ZM12.0166 19.9931L12.1581 19.8518L12.1579 19.8515L12.0166 19.9931ZM11.1107 18.6507L10.9264 18.7283L10.9265 18.7288L11.1107 18.6507ZM10.7786 17.0074L10.9786 17.0076L10.9786 17.0072L10.7786 17.0074ZM11.1107 15.3641L10.9265 15.2861L10.9264 15.2864L11.1107 15.3641ZM12.0166 14.0211L12.1579 14.1626L12.158 14.1625L12.0166 14.0211ZM13.359 13.1158L13.2811 12.9316L13.2809 12.9317L13.359 13.1158ZM15.0023 12.7838L15.002 12.9838L15.0025 12.9838L15.0023 12.7838ZM16.6456 13.1158L16.7236 12.9316L16.7234 12.9316L16.6456 13.1158ZM18.8939 15.3641L19.0781 15.2862L19.078 15.2861L18.8939 15.3641ZM8.67493 16.9646L8.87493 16.9647L8.87493 16.9644L8.67493 16.9646ZM9.17232 14.5029L8.98822 14.4247L8.98807 14.4251L9.17232 14.5029ZM9.17232 19.4269L8.98805 19.5046L8.98822 19.5051L9.17232 19.4269ZM10.529 21.4379L10.6705 21.2965L10.6703 21.2964L10.529 21.4379ZM12.54 22.7945L12.4619 22.9787L12.4622 22.9788L12.54 22.7945ZM15.0023 23.2919L15.0024 23.0919H15.0021L15.0023 23.2919ZM17.4646 22.7945L17.5423 22.9788L17.5426 22.9787L17.4646 22.7945ZM19.4756 21.4379L19.3343 21.2963L19.334 21.2966L19.4756 21.4379ZM20.8323 19.4269L21.0164 19.5049L21.0165 19.5046L20.8323 19.4269ZM21.3296 16.9646L21.1296 16.9644V16.9647L21.3296 16.9646ZM20.8323 14.5029L21.0165 14.4251L21.0164 14.4249L20.8323 14.5029ZM19.4756 12.4913L19.3341 12.6326L19.3343 12.6328L19.4756 12.4913ZM17.4646 11.1353L17.5426 10.9511L17.5425 10.951L17.4646 11.1353ZM15.0023 10.6372L15.0021 10.8372L15.0024 10.8372L15.0023 10.6372ZM12.54 11.1353L12.4621 10.951L12.4619 10.9511L12.54 11.1353ZM10.529 12.4913L10.3876 12.3498L10.529 12.4913ZM9.32342 16.9646L9.52342 16.9647L9.52342 16.9644L9.32342 16.9646ZM9.77024 14.7551L9.58604 14.6772L9.58604 14.6772L9.77024 14.7551ZM9.76959 19.174L9.58533 19.2518L9.58546 19.2521L9.76959 19.174ZM10.9875 20.9794L11.1289 20.838L11.1288 20.8379L10.9875 20.9794ZM12.7929 22.1973L12.7148 22.3814L12.7151 22.3815L12.7929 22.1973ZM15.0023 22.6434L15.0025 22.4434H15.0021L15.0023 22.6434ZM17.2117 22.1973L17.2895 22.3815L17.2898 22.3814L17.2117 22.1973ZM19.0171 20.9794L18.8758 20.8379L18.8756 20.8381L19.0171 20.9794ZM20.235 19.174L20.4191 19.2521L20.4192 19.2518L20.235 19.174ZM20.6812 16.9646L20.4812 16.9644V16.9647L20.6812 16.9646ZM20.235 14.7551L20.4192 14.6774L20.4191 14.6771L20.235 14.7551ZM19.0171 12.9497L18.8756 13.0911L18.8757 13.0912L19.0171 12.9497ZM17.2117 11.7319L17.2898 11.5477L17.2895 11.5476L17.2117 11.7319ZM15.0023 11.2857L15.0021 11.4857L15.0025 11.4857L15.0023 11.2857ZM12.7929 11.7319L12.7151 11.5476L12.7148 11.5477L12.7929 11.7319ZM10.9875 12.9497L10.846 12.8083L10.9875 12.9497ZM13.7014 15.7064L13.8428 15.8478L13.7014 15.7064ZM16.3038 15.7064L16.4452 15.565L16.3038 15.7064ZM13.7014 18.3088L13.8428 18.1674L13.7014 18.3088ZM14.1599 16.1649L14.0185 16.0234L14.1599 16.1649ZM15.8453 16.1649L15.987 16.0236L15.9866 16.0232L15.8453 16.1649ZM15.8453 17.8503L15.9868 17.9917L15.8453 17.8503ZM14.1599 17.8503L14.3015 17.7091L14.3011 17.7087L14.1599 17.8503ZM14.4303 13.4034L14.5718 13.5448V13.5448L14.4303 13.4034ZM15.5749 13.4034L15.4335 13.5448V13.5448L15.5749 13.4034ZM15.1164 14.0895L15.2564 14.2324L15.2594 14.2294L15.1164 14.0895ZM15.1164 13.8618L15.2594 13.7219L15.2563 13.7189L15.1164 13.8618ZM14.4303 19.4673L14.5718 19.6088V19.6087L14.4303 19.4673ZM15.5749 19.4673L15.4335 19.6087V19.6088L15.5749 19.4673ZM15.5749 20.6119L15.4335 20.4705L15.4335 20.4705L15.5749 20.6119ZM14.4303 20.6119L14.5718 20.4705L14.5718 20.4705L14.4303 20.6119ZM14.8888 19.9258L15.0288 20.0688L15.0318 20.0657L14.8888 19.9258ZM15.1164 20.1534L15.2564 20.2964L15.2594 20.2933L15.1164 20.1534ZM14.8888 20.1534L15.0302 20.012L15.0302 20.012L14.8888 20.1534ZM17.4621 16.4354L17.6035 16.5769H17.6035L17.4621 16.4354ZM18.6067 17.58L18.7481 17.7214V17.7214L18.6067 17.58ZM18.1482 16.8939L18.2912 16.754L18.2881 16.751L18.1482 16.8939ZM17.9206 16.8939L17.7806 16.7509L17.7776 16.754L17.9206 16.8939ZM12.5425 16.4354L12.684 16.294H12.684L12.5425 16.4354ZM12.5425 17.58L12.684 17.7214L12.684 17.7214L12.5425 17.58ZM11.398 17.58L11.2565 17.7214L11.2565 17.7214L11.398 17.58ZM12.0841 16.8939L11.9426 17.0353L11.9426 17.0353L12.0841 16.8939ZM12.0841 17.1215L11.9441 16.9786L11.9411 16.9816L12.0841 17.1215ZM11.8564 17.1215L11.715 17.263L11.715 17.263L11.8564 17.1215ZM11.8564 16.8939L11.7165 16.7509L11.7135 16.754L11.8564 16.8939ZM16.5743 15.436L16.4328 15.5774V15.5774L16.5743 15.436ZM17.7189 15.436L17.8603 15.5774V15.5774L17.7189 15.436ZM17.0327 14.7505L17.1727 14.8935L17.1757 14.8904L17.0327 14.7505ZM17.0327 14.9775L17.1757 14.8376L17.1726 14.8346L17.0327 14.9775ZM17.2597 14.9775L17.1198 14.8345L17.1168 14.8376L17.2597 14.9775ZM17.2597 14.7505L17.1168 14.8904L17.1198 14.8935L17.2597 14.7505ZM13.431 19.7236L13.5724 19.865V19.865L13.431 19.7236ZM12.2864 19.7236L12.145 19.865V19.865L12.2864 19.7236ZM12.9725 19.0375L13.1155 18.8975L13.1124 18.8945L12.9725 19.0375ZM12.7449 19.2651L12.8879 19.1252L12.8848 19.1222L12.7449 19.2651ZM16.5743 19.7236L16.4328 19.865V19.865L16.5743 19.7236ZM17.7189 19.7236L17.8603 19.865V19.865L17.7189 19.7236ZM17.2597 19.0375L17.1183 19.1789L17.1183 19.1789L17.2597 19.0375ZM17.0327 19.2651L17.1757 19.1252L17.1726 19.1222L17.0327 19.2651ZM17.2597 19.2651L17.1198 19.1221L17.1168 19.1252L17.2597 19.2651ZM13.431 15.436L13.5724 15.5774V15.5774L13.431 15.436ZM12.2864 15.436L12.145 15.5774V15.5774L12.2864 15.436ZM12.7449 14.9775L12.8879 14.8376L12.8848 14.8346L12.7449 14.9775ZM12.7449 14.7505L12.8848 14.8935L12.8878 14.8904L12.7449 14.7505ZM17.4247 5.6017L17.4188 5.80162L17.4188 5.80162L17.4247 5.6017ZM17.4889 5.61006L17.4434 5.80484L17.4464 5.80549L17.4889 5.61006ZM26.4847 14.95L26.2878 14.9851L26.2886 14.9893L26.4847 14.95ZM26.4845 15.0782L26.2885 15.0384V15.0384L26.4845 15.0782ZM26.4346 15.1963L26.5999 15.309L26.5999 15.309L26.4346 15.1963ZM26.2236 15.3329L26.1885 15.136L26.1885 15.136L26.2236 15.3329ZM25.8908 15.184L25.7207 15.2891L25.7207 15.2891L25.8908 15.184ZM25.8464 15.0638L26.044 15.0328L26.0432 15.0287L25.8464 15.0638ZM17.3511 6.24374L17.3936 6.04829L17.3906 6.04768L17.3511 6.24374ZM17.1529 6.11662L17.3146 5.99896V5.99896L17.1529 6.11662ZM17.0929 5.88892L17.2916 5.91169V5.91169L17.0929 5.88892ZM14.9131 4.24305C14.9361 4.21942 14.9675 4.20587 15.0004 4.20538L14.9945 3.80543C14.8555 3.80749 14.7231 3.86464 14.6262 3.96433L14.9131 4.24305ZM14.9078 4.24876L14.9155 4.24054L14.6238 3.96684L14.6161 3.97507L14.9078 4.24876ZM14.8831 4.28657C14.8889 4.27274 14.8971 4.26009 14.9074 4.24922L14.6165 3.97461C14.5732 4.0205 14.5385 4.07387 14.5141 4.13218L14.8831 4.28657ZM14.8735 4.33453C14.8735 4.31806 14.8767 4.30176 14.8831 4.28657L14.5141 4.13219C14.4873 4.19628 14.4735 4.26506 14.4735 4.33453H14.8735ZM14.8752 4.35528C14.874 4.34844 14.8735 4.3415 14.8735 4.33453H14.4735C14.4735 4.36393 14.4759 4.3932 14.4808 4.42204L14.8752 4.35528ZM14.878 6.01597V4.38866H14.478V6.01597H14.878ZM4.20586 17.0079C4.20586 11.1592 8.87549 6.38481 14.6838 6.21589L14.6722 5.81606C8.64824 5.99125 3.80586 10.9421 3.80586 17.0079H4.20586ZM15.0024 27.8045C9.04715 27.8045 4.20586 22.9632 4.20586 17.0079H3.80586C3.80586 23.1841 8.82623 28.2045 15.0024 28.2045V27.8045ZM25.7944 17.3262C25.6257 23.1346 20.8513 27.8045 15.0024 27.8045V28.2045C21.0683 28.2045 26.0193 23.3619 26.1943 17.3378L25.7944 17.3262ZM27.6151 17.132H25.9944V17.532H27.6151V17.132ZM27.6211 17.132L27.6165 17.132L27.6137 17.532L27.6182 17.532L27.6211 17.132ZM27.6758 17.1369C27.6686 17.1369 27.6614 17.1363 27.6543 17.135L27.585 17.529C27.6149 17.5342 27.6453 17.5369 27.6758 17.5369V17.1369ZM27.7238 17.1273C27.7086 17.1336 27.6923 17.1369 27.6758 17.1369V17.5369C27.7453 17.5369 27.8141 17.5231 27.8782 17.4963L27.7238 17.1273ZM27.7643 17.0999C27.7528 17.1116 27.739 17.1209 27.7238 17.1273L27.8782 17.4963C27.9423 17.4695 28.0004 17.4302 28.0492 17.3807L27.7643 17.0999ZM27.7911 17.059C27.785 17.0742 27.7759 17.0881 27.7643 17.0999L28.0492 17.3807C28.0979 17.3312 28.1364 17.2726 28.1623 17.2081L27.7911 17.059ZM27.8001 17.0109C27.8003 17.0273 27.7973 17.0437 27.7911 17.059L28.1623 17.2081C28.1882 17.1436 28.201 17.0747 28.2001 17.0052L27.8001 17.0109ZM15.0583 4.21041C22.0923 4.24065 27.8001 9.96702 27.8001 17.008H28.2001C28.2001 9.74667 22.3142 3.8416 15.0601 3.81041L15.0583 4.21041ZM15.0004 4.20538C15.0084 4.20527 15.0163 4.20591 15.0241 4.2073L15.0943 3.81352C15.0614 3.80765 15.028 3.80493 14.9945 3.80543L15.0004 4.20538ZM15.1265 4.66296V6.28017H15.5265V4.66296H15.1265ZM27.5473 16.6783C27.3752 10.0104 21.9996 4.63494 15.3317 4.46302L15.3214 4.86289C21.7765 5.02932 26.9808 10.2336 27.1475 16.6886L27.5473 16.6783ZM25.7281 16.8835H27.3474V16.4835H25.7281V16.8835ZM25.6748 16.8791C25.6817 16.8791 25.6885 16.8796 25.6952 16.8808L25.761 16.4862C25.7326 16.4815 25.7037 16.4791 25.6748 16.4791V16.8791ZM25.6544 16.8808C25.6611 16.8796 25.668 16.8791 25.6748 16.8791V16.4791C25.6459 16.4791 25.6171 16.4815 25.5887 16.4862L25.6544 16.8808ZM22.7686 16.8835H25.6215V16.4835H22.7686V16.8835ZM15.3182 9.44119C19.247 9.60416 22.4058 12.763 22.5688 16.6918L22.9684 16.6752C22.7968 12.5385 19.4714 9.21313 15.3348 9.04154L15.3182 9.44119ZM15.1265 6.39085V9.24136H15.5265V6.39085H15.1265ZM15.1313 6.33551C15.1313 6.34263 15.1306 6.34973 15.1294 6.35672L15.5236 6.42498C15.5287 6.3955 15.5313 6.36557 15.5313 6.33551H15.1313ZM15.1294 6.3143C15.1306 6.32129 15.1313 6.32839 15.1313 6.33551H15.5313C15.5313 6.30545 15.5287 6.27552 15.5236 6.24604L15.1294 6.3143ZM25.3456 17.132H22.4608V17.532H25.3456V17.132ZM15.0024 27.556C20.7172 27.556 25.371 23.0106 25.5455 17.3381L25.1457 17.3258C24.9778 22.7829 20.5004 27.156 15.0024 27.156V27.556ZM4.45435 17.0079C4.45435 22.8331 9.17723 27.556 15.0024 27.556V27.156C9.39814 27.156 4.85435 22.6122 4.85435 17.0079H4.45435ZM14.6719 6.46484C8.99955 6.63954 4.45435 11.2933 4.45435 17.0079H4.85435C4.85435 11.5101 9.22721 7.03272 14.6842 6.86465L14.6719 6.46484ZM14.878 9.54915V6.66475H14.478V9.54915H14.878ZM14.9144 9.63699C14.8911 9.61369 14.878 9.58208 14.878 9.54913L14.478 9.54917C14.478 9.6882 14.5333 9.82153 14.6316 9.91983L14.9144 9.63699ZM15.0023 9.67339C14.9693 9.67339 14.9377 9.6603 14.9144 9.63699L14.6316 9.91983C14.7299 10.0181 14.8632 10.0734 15.0022 10.0734L15.0023 9.67339ZM22.3366 17.0077C22.3366 12.9562 19.0537 9.67339 15.0023 9.67339V10.0734C18.8328 10.0734 21.9366 13.1772 21.9366 17.0077H22.3366ZM22.373 17.0956C22.3497 17.0723 22.3366 17.0407 22.3366 17.0077L21.9366 17.0077C21.9366 17.1468 21.9918 17.2801 22.0901 17.3784L22.373 17.0956ZM22.4608 17.132C22.4279 17.132 22.3963 17.1189 22.373 17.0956L22.0901 17.3784C22.1884 17.4767 22.3218 17.5319 22.4608 17.532L22.4608 17.132ZM19.6754 18.9808C19.9394 18.3563 20.0751 17.6851 20.0744 17.0072L19.6744 17.0076C19.675 17.6319 19.55 18.2499 19.3069 18.8251L19.6754 18.9808ZM18.5885 20.593C19.0508 20.1306 19.4201 19.5838 19.6753 18.9809L19.307 18.825C19.0719 19.3803 18.7318 19.884 18.3056 20.3101L18.5885 20.593ZM16.9765 21.6804C17.5787 21.4252 18.1262 21.056 18.5886 20.5929L18.3055 20.3102C17.8795 20.7369 17.3752 21.077 16.8204 21.3121L16.9765 21.6804ZM15.0021 22.0795C15.68 22.0802 16.3518 21.9445 16.9763 21.6805L16.8206 21.312C16.2455 21.5552 15.6268 21.6801 15.0025 21.6795L15.0021 22.0795ZM13.0288 21.6805C13.6534 21.9445 14.3245 22.0802 15.0025 22.0795L15.0021 21.6795C14.3778 21.6801 13.7598 21.5552 13.1846 21.312L13.0288 21.6805ZM11.4166 20.5929C11.879 21.0559 12.4258 21.4252 13.0288 21.6804L13.1847 21.3121C12.6294 21.077 12.1257 20.7369 11.6996 20.3102L11.4166 20.5929ZM10.3292 18.9809C10.5844 19.5838 10.9537 20.1307 11.4168 20.5931L11.6994 20.31C11.2728 19.884 10.9326 19.3802 10.6976 18.825L10.3292 18.9809ZM9.93013 17.0072C9.92945 17.6851 10.0652 18.3563 10.3292 18.9808L10.6976 18.8251C10.4545 18.2499 10.3295 17.6319 10.3301 17.0076L9.93013 17.0072ZM10.3292 15.034C10.0652 15.6585 9.92945 16.3297 9.93013 17.0076L10.3301 17.0072C10.3295 16.3829 10.4545 15.7649 10.6976 15.1897L10.3292 15.034ZM11.4168 13.4211C10.9537 13.8835 10.5844 14.431 10.3292 15.0339L10.6976 15.1898C10.9326 14.6345 11.2728 14.1301 11.6994 13.7041L11.4168 13.4211ZM13.0288 12.3343C12.4258 12.5896 11.879 12.9588 11.4167 13.4212L11.6995 13.704C12.1256 13.2779 12.6294 12.9377 13.1847 12.7027L13.0288 12.3343ZM15.0025 11.9353C14.3245 11.9346 13.6534 12.0703 13.0288 12.3343L13.1846 12.7027C13.7598 12.4596 14.3778 12.3346 15.0021 12.3353L15.0025 11.9353ZM16.9763 12.3343C16.3518 12.0703 15.68 11.9346 15.0021 11.9353L15.0025 12.3353C15.6268 12.3346 16.2455 12.4596 16.8206 12.7027L16.9763 12.3343ZM18.5885 13.4212C18.1261 12.9588 17.5787 12.5895 16.9765 12.3344L16.8204 12.7027C17.3752 12.9377 17.8796 13.278 18.3056 13.704L18.5885 13.4212ZM19.6753 15.0332C19.4201 14.431 19.0509 13.8835 18.5885 13.4212L18.3056 13.704C18.7317 14.1301 19.0719 14.6345 19.307 15.1892L19.6753 15.0332ZM20.0744 17.0076C20.0751 16.3297 19.9394 15.6579 19.6754 15.0333L19.3069 15.1891C19.55 15.7642 19.675 16.3829 19.6744 17.0072L20.0744 17.0076ZM19.4259 17.0074V17.0067H19.0259V17.0074H19.4259ZM19.0781 18.7285C19.3084 18.1837 19.4266 17.5982 19.4259 17.0072L19.0259 17.0076C19.0265 17.545 18.919 18.0774 18.7097 18.5728L19.0781 18.7285ZM18.13 20.1345C18.5334 19.7311 18.8553 19.2537 19.078 18.7288L18.7098 18.5726C18.5071 19.0502 18.2142 19.4846 17.8472 19.8516L18.13 20.1345ZM16.7236 21.0832C17.2492 20.8604 17.7267 20.5385 18.1301 20.1344L17.847 19.8518C17.4801 20.2193 17.0458 20.5122 16.5675 20.7149L16.7236 21.0832ZM15.002 21.431C15.5932 21.4317 16.1787 21.3128 16.7232 21.0833L16.5679 20.7147C16.0723 20.9236 15.5397 21.0317 15.0025 21.031L15.002 21.431ZM13.2813 21.0833C13.8259 21.3128 14.4113 21.4317 15.0025 21.431L15.002 21.031C14.4648 21.0317 13.9323 20.9236 13.4367 20.7147L13.2813 21.0833ZM11.8751 20.1344C12.2785 20.5385 12.7559 20.8604 13.2809 21.0831L13.4371 20.7149C12.9595 20.5122 12.5251 20.2194 12.1581 19.8518L11.8751 20.1344ZM10.9265 18.7288C11.1493 19.2537 11.4712 19.7312 11.8753 20.1346L12.1579 19.8515C11.7903 19.4845 11.4974 19.0502 11.2948 18.5726L10.9265 18.7288ZM10.5786 17.0072C10.5779 17.5983 10.6968 18.1838 10.9264 18.7283L11.295 18.573C11.0861 18.0774 10.978 17.5449 10.9786 17.0076L10.5786 17.0072ZM10.9264 15.2864C10.6969 15.831 10.5779 16.4158 10.5786 17.0076L10.9786 17.0072C10.978 16.4693 11.0861 15.9374 11.295 15.4418L10.9264 15.2864ZM11.8753 13.8795C11.4712 14.283 11.1493 14.7604 10.9265 15.2861L11.2948 15.4421C11.4975 14.9639 11.7903 14.5296 12.1579 14.1626L11.8753 13.8795ZM13.2809 12.9317C12.7559 13.1544 12.2786 13.4763 11.8752 13.8797L12.158 14.1625C12.5251 13.7955 12.9595 13.5026 13.4371 13.2999L13.2809 12.9317ZM15.0025 12.5838C14.4115 12.5831 13.8259 12.7013 13.2811 12.9316L13.4368 13.3C13.9322 13.0906 14.4647 12.9831 15.002 12.9838L15.0025 12.5838ZM16.7234 12.9316C16.1786 12.7013 15.593 12.5831 15.002 12.5838L15.0025 12.9838C15.5399 12.9831 16.0723 13.0906 16.5677 13.3L16.7234 12.9316ZM18.13 13.8797C17.7266 13.4763 17.2492 13.1544 16.7236 12.9316L16.5675 13.2999C17.0458 13.5026 17.4801 13.7955 17.8472 14.1625L18.13 13.8797ZM19.078 15.2861C18.8553 14.7605 18.5334 14.283 18.13 13.8797L17.8472 14.1625C18.2142 14.5295 18.5071 14.9639 18.7097 15.4421L19.078 15.2861ZM19.4259 17.007C19.4266 16.4159 19.3084 15.831 19.0781 15.2862L18.7097 15.442C18.9191 15.9374 19.0265 16.4692 19.0259 17.0065L19.4259 17.007ZM8.87493 16.9644C8.8743 16.1456 9.0382 15.3349 9.35658 14.5807L8.98807 14.4251C8.64888 15.2286 8.47426 16.0923 8.47493 16.9647L8.87493 16.9644ZM9.3566 19.3492C9.03819 18.5943 8.8743 17.7836 8.87493 16.9647L8.47493 16.9644C8.47426 17.8368 8.64888 18.7005 8.98805 19.5046L9.3566 19.3492ZM10.6703 21.2964C10.1114 20.7381 9.66546 20.0768 9.35642 19.3487L8.98822 19.5051C9.3173 20.2803 9.79223 20.9846 10.3876 21.5794L10.6703 21.2964ZM12.618 22.6104C11.8908 22.302 11.2294 21.8561 10.6705 21.2965L10.3875 21.5792C10.9828 22.1753 11.6872 22.6502 12.4619 22.9787L12.618 22.6104ZM15.0021 23.0919C14.1833 23.0926 13.3726 22.9287 12.6177 22.6103L12.4622 22.9788C13.2663 23.318 14.13 23.4926 15.0024 23.4919L15.0021 23.0919ZM17.3869 22.6103C16.632 22.9287 15.8213 23.0926 15.0024 23.0919L15.0021 23.4919C15.8746 23.4926 16.7383 23.318 17.5423 22.9788L17.3869 22.6103ZM19.334 21.2966C18.7758 21.8561 18.1145 22.302 17.3866 22.6104L17.5426 22.9787C18.3179 22.6502 19.0224 22.1753 19.6172 21.5791L19.334 21.2966ZM20.6481 19.3489C20.3397 20.0768 19.8938 20.738 19.3343 21.2963L19.6169 21.5795C20.213 20.9847 20.688 20.2802 21.0164 19.5049L20.6481 19.3489ZM21.1296 16.9647C21.1303 17.7836 20.9664 18.5943 20.648 19.3492L21.0165 19.5046C21.3557 18.7005 21.5303 17.8368 21.5296 16.9644L21.1296 16.9647ZM20.648 14.5807C20.9664 15.3349 21.1303 16.1456 21.1296 16.9644L21.5296 16.9647C21.5303 16.0923 21.3557 15.2286 21.0165 14.4251L20.648 14.5807ZM19.3343 12.6328C19.8938 13.1917 20.3397 13.853 20.6481 14.5809L21.0164 14.4249C20.6879 13.6495 20.213 12.9451 19.6169 12.3498L19.3343 12.6328ZM17.3866 11.3194C18.1145 11.6278 18.7758 12.0737 19.3341 12.6326L19.6171 12.3499C19.0224 11.7545 18.3179 11.2795 17.5426 10.9511L17.3866 11.3194ZM15.0024 10.8372C15.8213 10.8366 16.632 11.0005 17.3868 11.3195L17.5425 10.951C16.7383 10.6112 15.8746 10.4365 15.0021 10.4372L15.0024 10.8372ZM12.6178 11.3195C13.3726 11.0005 14.1833 10.8366 15.0021 10.8372L15.0024 10.4372C14.13 10.4365 13.2663 10.6112 12.4621 10.951L12.6178 11.3195ZM10.6704 12.6327C11.2294 12.0737 11.8907 11.6278 12.618 11.3194L12.4619 10.9511C11.6872 11.2796 10.9829 11.7545 10.3876 12.3498L10.6704 12.6327ZM9.35642 14.581C9.66546 13.853 10.1114 13.1917 10.6704 12.6327L10.3876 12.3498C9.79222 12.9452 9.3173 13.6495 8.98822 14.4247L9.35642 14.581ZM9.52342 16.9644C9.5228 16.2324 9.66919 15.5074 9.95443 14.8331L9.58604 14.6772C9.27985 15.4011 9.12275 16.1792 9.12342 16.9647L9.52342 16.9644ZM9.95385 19.0962C9.66919 18.4218 9.5228 17.6967 9.52342 16.9647L9.12342 16.9644C9.12275 17.7499 9.27985 18.528 9.58533 19.2518L9.95385 19.0962ZM11.1288 20.8379C10.6289 20.3386 10.2297 19.7467 9.95372 19.0959L9.58546 19.2521C9.88148 19.9502 10.3097 20.5852 10.8461 21.1209L11.1288 20.8379ZM12.8709 22.0131C12.2203 21.7372 11.6289 21.338 11.1289 20.838L10.846 21.1208C11.3823 21.6571 12.0166 22.0853 12.7148 22.3814L12.8709 22.0131ZM15.0021 22.4434C14.2701 22.4441 13.545 22.2977 12.8706 22.013L12.7151 22.3815C13.4388 22.687 14.217 22.8441 15.0025 22.8434L15.0021 22.4434ZM17.1339 22.013C16.4595 22.2977 15.7344 22.4441 15.0025 22.4434L15.0021 22.8434C15.7876 22.8441 16.5657 22.687 17.2895 22.3815L17.1339 22.013ZM18.8756 20.8381C18.3763 21.338 17.7844 21.7372 17.1336 22.0131L17.2898 22.3814C17.9879 22.0854 18.6229 21.6571 19.1586 21.1207L18.8756 20.8381ZM20.0509 19.0959C19.7749 19.7467 19.3757 20.3386 18.8758 20.8379L19.1584 21.1209C19.6948 20.5852 20.1231 19.9502 20.4191 19.2521L20.0509 19.0959ZM20.4812 16.9647C20.4818 17.6967 20.3354 18.4218 20.0507 19.0962L20.4192 19.2518C20.7247 18.528 20.8818 17.7499 20.8812 16.9644L20.4812 16.9647ZM20.0507 14.8329C20.3354 15.5073 20.4818 16.2324 20.4812 16.9644L20.8812 16.9647C20.8818 16.1792 20.7247 15.4011 20.4192 14.6774L20.0507 14.8329ZM18.8757 13.0912C19.3757 13.5912 19.7749 14.1825 20.0509 14.8332L20.4191 14.6771C20.1231 13.9789 19.6948 13.3446 19.1585 12.8083L18.8757 13.0912ZM17.1336 11.916C17.7844 12.1919 18.3763 12.5912 18.8756 13.0911L19.1586 12.8084C18.6229 12.272 17.9879 11.8438 17.2898 11.5477L17.1336 11.916ZM15.0025 11.4857C15.7344 11.4851 16.4595 11.6315 17.1339 11.9161L17.2895 11.5476C16.5657 11.2421 15.7876 11.085 15.0021 11.0857L15.0025 11.4857ZM12.8706 11.9161C13.545 11.6315 14.2701 11.4851 15.0021 11.4857L15.0025 11.0857C14.217 11.085 13.4388 11.2421 12.7151 11.5476L12.8706 11.9161ZM11.1289 13.0912C11.6289 12.5911 12.2203 12.1919 12.8709 11.916L12.7148 11.5477C12.0166 11.8438 11.3823 12.2721 10.846 12.8083L11.1289 13.0912ZM9.95443 14.8331C10.2297 14.1825 10.6288 13.5912 11.1289 13.0912L10.846 12.8083C10.3098 13.3446 9.88147 13.9789 9.58604 14.6772L9.95443 14.8331ZM13.56 15.565C13.1776 15.9474 12.9619 16.4671 12.9619 17.0079H13.3619C13.3619 16.5734 13.5353 16.1554 13.8428 15.8478L13.56 15.565ZM15.0023 14.9675C14.4616 14.9675 13.9425 15.1825 13.56 15.565L13.8428 15.8478C14.1503 15.5403 14.5677 15.3675 15.0023 15.3675V14.9675ZM16.4452 15.565C16.0627 15.1824 15.5429 14.9675 15.0023 14.9675V15.3675C15.437 15.3675 15.855 15.5404 16.1624 15.8478L16.4452 15.565ZM17.0427 17.0079C17.0427 16.4673 16.8278 15.9475 16.4452 15.565L16.1624 15.8478C16.4698 16.1552 16.6427 16.5732 16.6427 17.0079H17.0427ZM16.4452 18.4502C16.8277 18.0677 17.0427 17.5486 17.0427 17.0079H16.6427C16.6427 17.4425 16.4699 17.8599 16.1624 18.1674L16.4452 18.4502ZM15.0023 19.0483C15.5431 19.0483 16.0628 18.8326 16.4452 18.4502L16.1624 18.1674C15.8548 18.4749 15.4368 18.6483 15.0023 18.6483V19.0483ZM13.56 18.4502C13.9424 18.8326 14.4614 19.0483 15.0023 19.0483V18.6483C14.5679 18.6483 14.1505 18.475 13.8428 18.1674L13.56 18.4502ZM12.9619 17.0079C12.9619 17.5488 13.1776 18.0678 13.56 18.4502L13.8428 18.1674C13.5352 17.8597 13.3619 17.4423 13.3619 17.0079H12.9619ZM14.0185 16.0234C13.7573 16.2846 13.6104 16.639 13.6104 17.0079H14.0104C14.0104 16.7452 14.115 16.4926 14.3013 16.3063L14.0185 16.0234ZM15.0023 15.616C14.6334 15.616 14.2791 15.7629 14.0185 16.0234L14.3013 16.3063C14.4869 16.1207 14.7395 16.016 15.0023 16.016V15.616ZM15.9866 16.0232C15.7254 15.7629 15.3712 15.616 15.0023 15.616V16.016C15.265 16.016 15.5178 16.1207 15.7041 16.3065L15.9866 16.0232ZM16.3942 17.0079C16.3942 16.639 16.2473 16.2848 15.987 16.0236L15.7037 16.3061C15.8895 16.4924 15.9942 16.7452 15.9942 17.0079H16.3942ZM15.9868 17.9917C16.2473 17.7311 16.3942 17.3768 16.3942 17.0079H15.9942C15.9942 17.2707 15.8895 17.5233 15.7039 17.7089L15.9868 17.9917ZM15.0023 18.3998C15.3712 18.3998 15.7256 18.2529 15.9868 17.9917L15.7039 17.7089C15.5176 17.8952 15.265 17.9998 15.0023 17.9998V18.3998ZM14.0183 17.9915C14.2789 18.2529 14.6334 18.3998 15.0023 18.3998V17.9998C14.7396 17.9998 14.487 17.8951 14.3015 17.7091L14.0183 17.9915ZM13.6104 17.0079C13.6104 17.3768 13.7573 17.7313 14.0187 17.9919L14.3011 17.7087C14.1151 17.5232 14.0104 17.2706 14.0104 17.0079H13.6104ZM14.393 13.976C14.393 13.8145 14.4574 13.6591 14.5718 13.5448L14.2889 13.2619C14.0997 13.4511 13.993 13.7082 13.993 13.976H14.393ZM14.5718 14.4065C14.4574 14.2922 14.393 14.1368 14.393 13.976H13.993C13.993 14.2432 14.0998 14.5003 14.2889 14.6894L14.5718 14.4065ZM15.0023 14.5853C14.841 14.5853 14.6862 14.521 14.5718 14.4065L14.2889 14.6894C14.478 14.8784 14.7343 14.9853 15.0023 14.9853V14.5853ZM15.4335 14.4065C15.3192 14.5209 15.1638 14.5853 15.0023 14.5853V14.9853C15.2701 14.9853 15.5272 14.8786 15.7164 14.6894L15.4335 14.4065ZM15.6116 13.976C15.6116 14.1372 15.5476 14.2924 15.4335 14.4065L15.7164 14.6894C15.9058 14.5 16.0116 14.2428 16.0116 13.976H15.6116ZM15.4335 13.5448C15.5475 13.6588 15.6116 13.8141 15.6116 13.976H16.0116C16.0116 13.7086 15.9058 13.4514 15.7164 13.2619L15.4335 13.5448ZM15.0023 13.366C15.1638 13.366 15.3192 13.4305 15.4335 13.5448L15.7164 13.2619C15.5272 13.0728 15.2701 12.966 15.0023 12.966V13.366ZM14.5718 13.5448C14.6862 13.4303 14.841 13.366 15.0023 13.366V12.966C14.7343 12.966 14.478 13.0729 14.2889 13.2619L14.5718 13.5448ZM15.0415 13.976C15.0415 13.9862 15.0373 13.9962 15.0302 14.0033L14.7474 13.7204C14.6794 13.7884 14.6415 13.8801 14.6415 13.976H15.0415ZM15.0302 13.948C15.037 13.9548 15.0415 13.9647 15.0415 13.976H14.6415C14.6415 14.0716 14.6797 14.1632 14.7474 14.2309L15.0302 13.948ZM15.0023 13.9368C15.014 13.9368 15.0236 13.9414 15.0302 13.948L14.7474 14.2309C14.8137 14.2972 14.905 14.3368 15.0023 14.3368V13.9368ZM14.9766 13.9465C14.9816 13.9416 14.9903 13.9368 15.0023 13.9368V14.3368C15.1 14.3368 15.1904 14.297 15.2563 14.2324L14.9766 13.9465ZM14.9631 13.976C14.9631 13.9649 14.9674 13.9558 14.9735 13.9496L15.2594 14.2294C15.3251 14.1622 15.3631 14.0714 15.3631 13.976H14.9631ZM14.9735 14.0017C14.9671 13.9952 14.9631 13.986 14.9631 13.976H15.3631C15.3631 13.8804 15.3254 13.7894 15.2594 13.722L14.9735 14.0017ZM15.0023 14.0145C14.9903 14.0145 14.9816 14.0097 14.9766 14.0048L15.2563 13.7189C15.1904 13.6543 15.1 13.6145 15.0023 13.6145V14.0145ZM15.0302 14.0033C15.0236 14.0099 15.014 14.0145 15.0023 14.0145V13.6145C14.905 13.6145 14.8137 13.6541 14.7474 13.7204L15.0302 14.0033ZM14.2889 19.3259C14.0999 19.515 13.993 19.7713 13.993 20.0393H14.393C14.393 19.878 14.4573 19.7232 14.5718 19.6088L14.2889 19.3259ZM15.0023 19.03C14.7343 19.03 14.478 19.1368 14.2889 19.3259L14.5718 19.6087C14.6862 19.4943 14.841 19.43 15.0023 19.43V19.03ZM15.7164 19.3259C15.5272 19.1367 15.2701 19.03 15.0023 19.03V19.43C15.1638 19.43 15.3192 19.4944 15.4335 19.6087L15.7164 19.3259ZM16.0116 20.0393C16.0116 19.7717 15.9057 19.5153 15.7164 19.3259L15.4335 19.6088C15.5477 19.7229 15.6116 19.8776 15.6116 20.0393H16.0116ZM15.7164 20.7533C15.9058 20.5639 16.0116 20.3067 16.0116 20.0393H15.6116C15.6116 20.2012 15.5475 20.3565 15.4335 20.4705L15.7164 20.7533ZM15.0023 21.0486C15.2697 21.0486 15.5269 20.9428 15.7164 20.7533L15.4335 20.4705C15.3195 20.5845 15.1642 20.6486 15.0023 20.6486V21.0486ZM14.2889 20.7533C14.4783 20.9427 14.7348 21.0486 15.0023 21.0486V20.6486C14.8406 20.6486 14.6859 20.5846 14.5718 20.4705L14.2889 20.7533ZM13.993 20.0393C13.993 20.3071 14.0997 20.5642 14.2889 20.7533L14.5718 20.4705C14.4574 20.3562 14.393 20.2008 14.393 20.0393H13.993ZM14.7489 19.7829C14.6792 19.8511 14.6415 19.9438 14.6415 20.0393H15.0415C15.0415 20.0492 15.0375 20.0602 15.0287 20.0687L14.7489 19.7829ZM15.0023 19.6785C14.9069 19.6785 14.8141 19.7162 14.7459 19.7859L15.0318 20.0657C15.0232 20.0745 15.0122 20.0785 15.0023 20.0785V19.6785ZM15.2579 19.7844C15.1899 19.7164 15.0982 19.6785 15.0023 19.6785V20.0785C14.9921 20.0785 14.9821 20.0743 14.975 20.0672L15.2579 19.7844ZM15.3631 20.0393C15.3631 19.9441 15.3256 19.8522 15.2579 19.7844L14.975 20.0672C14.9669 20.0591 14.9631 20.0489 14.9631 20.0393H15.3631ZM15.2594 20.2933C15.3254 20.2258 15.3631 20.1349 15.3631 20.0393H14.9631C14.9631 20.0293 14.9671 20.0201 14.9735 20.0135L15.2594 20.2933ZM15.0023 20.4001C15.0979 20.4001 15.1889 20.3624 15.2563 20.2964L14.9766 20.0105C14.9831 20.0041 14.9923 20.0001 15.0023 20.0001V20.4001ZM14.7474 20.2949C14.8152 20.3626 14.9071 20.4001 15.0023 20.4001V20.0001C15.012 20.0001 15.0221 20.0039 15.0302 20.012L14.7474 20.2949ZM14.6415 20.0393C14.6415 20.1351 14.6794 20.2269 14.7474 20.2949L15.0302 20.012C15.0373 20.019 15.0415 20.0291 15.0415 20.0393H14.6415ZM18.0341 16.3987C18.196 16.3987 18.3512 16.4628 18.4653 16.5769L18.7481 16.294C18.5586 16.1045 18.3014 15.9987 18.0341 15.9987V16.3987ZM17.6035 16.5769C17.7176 16.4628 17.8729 16.3987 18.0341 16.3987V15.9987C17.7672 15.9987 17.5101 16.1046 17.3207 16.294L17.6035 16.5769ZM17.4247 17.008C17.4247 16.8466 17.4892 16.6912 17.6035 16.5769L17.3207 16.294C17.1315 16.4832 17.0247 16.7402 17.0247 17.008H17.4247ZM17.6035 17.4386C17.4891 17.3242 17.4247 17.1694 17.4247 17.008H17.0247C17.0247 17.276 17.1316 17.5324 17.3207 17.7214L17.6035 17.4386ZM18.0341 17.6174C17.8733 17.6174 17.7179 17.553 17.6035 17.4386L17.3207 17.7214C17.5098 17.9106 17.7668 18.0174 18.0341 18.0174V17.6174ZM18.4653 17.4386C18.3509 17.5529 18.1956 17.6174 18.0341 17.6174V18.0174C18.3019 18.0174 18.5589 17.9106 18.7481 17.7214L18.4653 17.4386ZM18.644 17.008C18.644 17.1694 18.5797 17.3242 18.4653 17.4386L18.7481 17.7214C18.9372 17.5324 19.044 17.276 19.044 17.008H18.644ZM18.4653 16.5769C18.5796 16.6912 18.644 16.8466 18.644 17.008H19.044C19.044 16.7402 18.9373 16.4832 18.7481 16.294L18.4653 16.5769ZM18.0341 17.0472C18.024 17.0472 18.0148 17.0432 18.0083 17.0368L18.2881 16.751C18.2206 16.6849 18.1297 16.6472 18.0341 16.6472V17.0472ZM18.0605 17.0368C18.0542 17.0429 18.0451 17.0472 18.0341 17.0472V16.6472C17.9387 16.6472 17.8478 16.6852 17.7807 16.751L18.0605 17.0368ZM18.0732 17.008C18.0732 17.0201 18.0684 17.0288 18.0635 17.0338L17.7776 16.754C17.713 16.82 17.6732 16.9104 17.6732 17.008H18.0732ZM18.062 16.9801C18.0686 16.9867 18.0732 16.9963 18.0732 17.008H17.6732C17.6732 17.1054 17.7129 17.1967 17.7791 17.263L18.062 16.9801ZM18.0341 16.9689C18.0454 16.9689 18.0553 16.9734 18.062 16.9801L17.7791 17.263C17.8468 17.3306 17.9384 17.3689 18.0341 17.3689V16.9689ZM18.0068 16.9801C18.0138 16.9731 18.0238 16.9689 18.0341 16.9689V17.3689C18.1299 17.3689 18.2216 17.3309 18.2896 17.263L18.0068 16.9801ZM17.9955 17.008C17.9955 16.9964 18.0001 16.9867 18.0068 16.9801L18.2896 17.263C18.3559 17.1967 18.3955 17.1054 18.3955 17.008H17.9955ZM18.0053 17.0338C18.0003 17.0288 17.9955 17.0201 17.9955 17.008H18.3955C18.3955 16.9104 18.3557 16.82 18.2911 16.754L18.0053 17.0338ZM12.684 16.294C12.4946 16.1047 12.2381 15.9987 11.9706 15.9987V16.3987C12.1323 16.3987 12.287 16.4627 12.4011 16.5769L12.684 16.294ZM12.9799 17.008C12.9799 16.7402 12.8731 16.4832 12.684 16.294L12.4011 16.5769C12.5154 16.6912 12.5799 16.8466 12.5799 17.008H12.9799ZM12.684 17.7214C12.873 17.5324 12.9799 17.276 12.9799 17.008H12.5799C12.5799 17.1694 12.5156 17.3242 12.4011 17.4386L12.684 17.7214ZM11.9706 18.0174C12.2386 18.0174 12.4949 17.9105 12.684 17.7214L12.4011 17.4386C12.2867 17.553 12.1319 17.6174 11.9706 17.6174V18.0174ZM11.2565 17.7214C11.4457 17.9106 11.7028 18.0174 11.9706 18.0174V17.6174C11.8091 17.6174 11.6537 17.5529 11.5394 17.4386L11.2565 17.7214ZM10.9613 17.008C10.9613 17.2756 11.0672 17.5321 11.2565 17.7214L11.5394 17.4386C11.4252 17.3245 11.3613 17.1698 11.3613 17.008H10.9613ZM11.2565 16.294C11.0671 16.4835 10.9613 16.7407 10.9613 17.008H11.3613C11.3613 16.8461 11.4253 16.6909 11.5394 16.5769L11.2565 16.294ZM11.9706 15.9987C11.7032 15.9987 11.446 16.1045 11.2565 16.294L11.5394 16.5769C11.6534 16.4628 11.8087 16.3987 11.9706 16.3987V15.9987ZM12.2255 16.7525C12.1577 16.6847 12.0658 16.6472 11.9706 16.6472V17.0472C11.9609 17.0472 11.9507 17.0434 11.9426 17.0353L12.2255 16.7525ZM12.3314 17.008C12.3314 16.9122 12.2935 16.8205 12.2255 16.7525L11.9426 17.0353C11.9356 17.0283 11.9314 17.0183 11.9314 17.008H12.3314ZM12.224 17.2645C12.2937 17.1962 12.3314 17.1035 12.3314 17.008H11.9314C11.9314 16.9982 11.9354 16.9872 11.9442 16.9786L12.224 17.2645ZM11.9706 17.3689C12.066 17.3689 12.1588 17.3311 12.227 17.2614L11.9411 16.9816C11.9497 16.9729 11.9607 16.9689 11.9706 16.9689V17.3689ZM11.715 17.263C11.783 17.3309 11.8747 17.3689 11.9706 17.3689V16.9689C11.9808 16.9689 11.9908 16.9731 11.9979 16.9801L11.715 17.263ZM11.6097 17.008C11.6097 17.1033 11.6473 17.1952 11.715 17.263L11.9979 16.9801C12.006 16.9882 12.0097 16.9984 12.0097 17.008H11.6097ZM11.7135 16.754C11.6475 16.8215 11.6097 16.9124 11.6097 17.008H12.0097C12.0097 17.0181 12.0058 17.0273 11.9994 17.0338L11.7135 16.754ZM11.9706 16.6472C11.875 16.6472 11.784 16.6849 11.7165 16.751L11.9963 17.0368C11.9898 17.0432 11.9806 17.0472 11.9706 17.0472V16.6472ZM16.7157 14.4328C16.8298 14.3187 16.9845 14.2547 17.1462 14.2547V13.8547C16.8787 13.8547 16.6222 13.9606 16.4328 14.15L16.7157 14.4328ZM16.5369 14.864C16.5369 14.7025 16.6014 14.5471 16.7157 14.4328L16.4328 14.15C16.2437 14.3391 16.1369 14.5962 16.1369 14.864H16.5369ZM16.7157 15.2946C16.6012 15.1801 16.5369 15.0253 16.5369 14.864H16.1369C16.1369 15.132 16.2438 15.3883 16.4328 15.5774L16.7157 15.2946ZM17.1462 15.4733C16.9849 15.4733 16.8301 15.409 16.7157 15.2946L16.4328 15.5774C16.6219 15.7665 16.8783 15.8733 17.1462 15.8733V15.4733ZM17.5774 15.2946C17.4631 15.4089 17.3077 15.4733 17.1462 15.4733V15.8733C17.414 15.8733 17.6711 15.7666 17.8603 15.5774L17.5774 15.2946ZM17.7556 14.864C17.7556 15.0257 17.6916 15.1804 17.5774 15.2946L17.8603 15.5774C18.0496 15.3881 18.1556 15.1316 18.1556 14.864H17.7556ZM17.5774 14.4328C17.6915 14.5468 17.7556 14.7021 17.7556 14.864H18.1556C18.1556 14.5966 18.0497 14.3394 17.8603 14.15L17.5774 14.4328ZM17.1462 14.2547C17.3081 14.2547 17.4634 14.3188 17.5774 14.4328L17.8603 14.15C17.6708 13.9605 17.4136 13.8547 17.1462 13.8547V14.2547ZM17.1757 14.8904C17.1671 14.8992 17.1561 14.9032 17.1462 14.9032V14.5032C17.0508 14.5032 16.9581 14.5409 16.8898 14.6106L17.1757 14.8904ZM17.1854 14.864C17.1854 14.8739 17.1814 14.8849 17.1726 14.8935L16.8929 14.6076C16.8231 14.6758 16.7854 14.7685 16.7854 14.864H17.1854ZM17.1726 14.8346C17.1814 14.8431 17.1854 14.8541 17.1854 14.864H16.7854C16.7854 14.9595 16.8231 15.0522 16.8929 15.1204L17.1726 14.8346ZM17.1462 14.8248C17.1561 14.8248 17.1671 14.8288 17.1757 14.8376L16.8898 15.1174C16.958 15.1871 17.0508 15.2248 17.1462 15.2248V14.8248ZM17.1168 14.8376C17.1254 14.8288 17.1364 14.8248 17.1462 14.8248V15.2248C17.2417 15.2248 17.3344 15.1871 17.4027 15.1174L17.1168 14.8376ZM17.1071 14.864C17.1071 14.8541 17.1111 14.8431 17.1198 14.8346L17.3996 15.1204C17.4693 15.0522 17.5071 14.9595 17.5071 14.864H17.1071ZM17.1198 14.8935C17.1111 14.8849 17.1071 14.8739 17.1071 14.864H17.5071C17.5071 14.7685 17.4693 14.6758 17.3996 14.6076L17.1198 14.8935ZM17.1462 14.9032C17.1364 14.9032 17.1254 14.8992 17.1168 14.8904L17.4027 14.6106C17.3344 14.5409 17.2417 14.5032 17.1462 14.5032V14.9032ZM12.8584 18.1423C12.5908 18.1423 12.3343 18.2482 12.145 18.4376L12.4278 18.7204C12.542 18.6063 12.6967 18.5423 12.8584 18.5423V18.1423ZM13.5724 18.4376C13.383 18.2481 13.1258 18.1423 12.8584 18.1423V18.5423C13.0203 18.5423 13.1756 18.6064 13.2896 18.7204L13.5724 18.4376ZM13.8677 19.1516C13.8677 18.8842 13.7619 18.627 13.5724 18.4376L13.2896 18.7204C13.4036 18.8344 13.4677 18.9897 13.4677 19.1516H13.8677ZM13.5724 19.865C13.7618 19.6757 13.8677 19.4192 13.8677 19.1516H13.4677C13.4677 19.3133 13.4037 19.468 13.2896 19.5822L13.5724 19.865ZM12.8584 20.1609C13.1262 20.1609 13.3833 20.0542 13.5724 19.865L13.2896 19.5822C13.1753 19.6965 13.0199 19.7609 12.8584 19.7609V20.1609ZM12.145 19.865C12.3341 20.0541 12.5904 20.1609 12.8584 20.1609V19.7609C12.6971 19.7609 12.5423 19.6966 12.4278 19.5822L12.145 19.865ZM11.8491 19.1516C11.8491 19.4196 11.9559 19.6759 12.145 19.865L12.4278 19.5822C12.3134 19.4677 12.2491 19.3129 12.2491 19.1516H11.8491ZM12.145 18.4376C11.9558 18.6267 11.8491 18.8838 11.8491 19.1516H12.2491C12.2491 18.9901 12.3135 18.8347 12.4278 18.7204L12.145 18.4376ZM12.8584 18.7908C12.7632 18.7908 12.6712 18.8283 12.6035 18.896L12.8863 19.1789C12.8782 19.187 12.868 19.1908 12.8584 19.1908V18.7908ZM13.1124 18.8945C13.0449 18.8285 12.954 18.7908 12.8584 18.7908V19.1908C12.8484 19.1908 12.8392 19.1868 12.8326 19.1804L13.1124 18.8945ZM13.2192 19.1516C13.2192 19.056 13.1815 18.9651 13.1155 18.8976L12.8296 19.1774C12.8232 19.1708 12.8192 19.1616 12.8192 19.1516H13.2192ZM13.1139 19.4065C13.1817 19.3387 13.2192 19.2468 13.2192 19.1516H12.8192C12.8192 19.142 12.823 19.1318 12.8311 19.1237L13.1139 19.4065ZM12.8584 19.5124C12.9542 19.5124 13.046 19.4745 13.1139 19.4065L12.8311 19.1237C12.8381 19.1166 12.8481 19.1124 12.8584 19.1124V19.5124ZM12.602 19.405C12.6702 19.4747 12.7629 19.5124 12.8584 19.5124V19.1124C12.8683 19.1124 12.8793 19.1164 12.8878 19.1252L12.602 19.405ZM12.4976 19.1516C12.4976 19.2471 12.5353 19.3398 12.605 19.408L12.8848 19.1222C12.8936 19.1307 12.8976 19.1417 12.8976 19.1516H12.4976ZM12.6035 18.896C12.5355 18.964 12.4976 19.0558 12.4976 19.1516H12.8976C12.8976 19.1619 12.8934 19.1719 12.8863 19.1789L12.6035 18.896ZM17.5774 18.7204C17.6915 18.8344 17.7556 18.9897 17.7556 19.1516H18.1556C18.1556 18.8842 18.0497 18.627 17.8603 18.4376L17.5774 18.7204ZM17.1462 18.5423C17.3081 18.5423 17.4634 18.6064 17.5774 18.7204L17.8603 18.4376C17.6708 18.2481 17.4136 18.1423 17.1462 18.1423V18.5423ZM16.7157 18.7204C16.8298 18.6063 16.9845 18.5423 17.1462 18.5423V18.1423C16.8787 18.1423 16.6222 18.2482 16.4328 18.4376L16.7157 18.7204ZM16.5369 19.1516C16.5369 18.9901 16.6014 18.8347 16.7157 18.7204L16.4328 18.4376C16.2437 18.6267 16.1369 18.8838 16.1369 19.1516H16.5369ZM16.7157 19.5822C16.6012 19.4677 16.5369 19.3129 16.5369 19.1516H16.1369C16.1369 19.4196 16.2438 19.6759 16.4328 19.865L16.7157 19.5822ZM17.1462 19.7609C16.9849 19.7609 16.8301 19.6966 16.7157 19.5822L16.4328 19.865C16.6219 20.0541 16.8783 20.1609 17.1462 20.1609V19.7609ZM17.5774 19.5822C17.4631 19.6965 17.3077 19.7609 17.1462 19.7609V20.1609C17.414 20.1609 17.6711 20.0542 17.8603 19.865L17.5774 19.5822ZM17.7556 19.1516C17.7556 19.3133 17.6916 19.468 17.5774 19.5822L17.8603 19.865C18.0496 19.6757 18.1556 19.4192 18.1556 19.1516H17.7556ZM17.1183 19.1789C17.1113 19.1719 17.1071 19.1618 17.1071 19.1516H17.5071C17.5071 19.0558 17.4691 18.964 17.4011 18.896L17.1183 19.1789ZM17.1462 19.1908C17.1366 19.1908 17.1264 19.187 17.1183 19.1789L17.4011 18.8961C17.3334 18.8283 17.2415 18.7908 17.1462 18.7908V19.1908ZM17.1742 19.1789C17.1661 19.187 17.1559 19.1908 17.1462 19.1908V18.7908C17.051 18.7908 16.9591 18.8283 16.8913 18.896L17.1742 19.1789ZM17.1854 19.1516C17.1854 19.1619 17.1812 19.1719 17.1742 19.1789L16.8913 18.896C16.8233 18.964 16.7854 19.0558 16.7854 19.1516H17.1854ZM17.1726 19.1222C17.1814 19.1307 17.1854 19.1417 17.1854 19.1516H16.7854C16.7854 19.2471 16.8231 19.3398 16.8929 19.408L17.1726 19.1222ZM17.1462 19.1124C17.1561 19.1124 17.1671 19.1164 17.1757 19.1252L16.8898 19.405C16.958 19.4747 17.0508 19.5124 17.1462 19.5124V19.1124ZM17.1168 19.1252C17.1254 19.1164 17.1364 19.1124 17.1462 19.1124V19.5124C17.2417 19.5124 17.3344 19.4747 17.4027 19.405L17.1168 19.1252ZM17.1071 19.1516C17.1071 19.1417 17.1111 19.1307 17.1198 19.1222L17.3996 19.408C17.4693 19.3398 17.5071 19.2471 17.5071 19.1516H17.1071ZM13.8677 14.864C13.8677 14.5966 13.7619 14.3394 13.5724 14.15L13.2896 14.4328C13.4036 14.5468 13.4677 14.7021 13.4677 14.864H13.8677ZM13.5724 15.5774C13.7618 15.3881 13.8677 15.1316 13.8677 14.864H13.4677C13.4677 15.0257 13.4037 15.1804 13.2896 15.2946L13.5724 15.5774ZM12.8584 15.8733C13.1262 15.8733 13.3833 15.7666 13.5724 15.5774L13.2896 15.2946C13.1753 15.4089 13.0199 15.4733 12.8584 15.4733V15.8733ZM12.145 15.5774C12.3341 15.7665 12.5904 15.8733 12.8584 15.8733V15.4733C12.6971 15.4733 12.5423 15.409 12.4278 15.2946L12.145 15.5774ZM11.8491 14.864C11.8491 15.132 11.9559 15.3883 12.145 15.5774L12.4278 15.2946C12.3134 15.1801 12.2491 15.0253 12.2491 14.864H11.8491ZM12.145 14.15C11.9558 14.3391 11.8491 14.5962 11.8491 14.864H12.2491C12.2491 14.7025 12.3135 14.5471 12.4278 14.4328L12.145 14.15ZM12.8584 13.8547C12.5908 13.8547 12.3343 13.9606 12.145 14.15L12.4278 14.4328C12.542 14.3187 12.6967 14.2547 12.8584 14.2547V13.8547ZM13.5724 14.15C13.383 13.9605 13.1258 13.8547 12.8584 13.8547V14.2547C13.0203 14.2547 13.1756 14.3188 13.2896 14.4328L13.5724 14.15ZM13.2192 14.864C13.2192 14.7688 13.1817 14.6769 13.1139 14.6091L12.8311 14.8919C12.823 14.8838 12.8192 14.8736 12.8192 14.864H13.2192ZM13.1139 15.1189C13.1817 15.0512 13.2192 14.9592 13.2192 14.864H12.8192C12.8192 14.8544 12.823 14.8442 12.8311 14.8361L13.1139 15.1189ZM12.8584 15.2248C12.9542 15.2248 13.046 15.1869 13.1139 15.1189L12.8311 14.8361C12.8381 14.829 12.8481 14.8248 12.8584 14.8248V15.2248ZM12.602 15.1174C12.6702 15.1871 12.7629 15.2248 12.8584 15.2248V14.8248C12.8683 14.8248 12.8793 14.8288 12.8878 14.8376L12.602 15.1174ZM12.4976 14.864C12.4976 14.9595 12.5353 15.0522 12.605 15.1204L12.8848 14.8346C12.8936 14.8431 12.8976 14.8541 12.8976 14.864H12.4976ZM12.605 14.6076C12.5353 14.6758 12.4976 14.7685 12.4976 14.864H12.8976C12.8976 14.8739 12.8936 14.8849 12.8848 14.8935L12.605 14.6076ZM12.8584 14.5032C12.7629 14.5032 12.6702 14.5409 12.602 14.6106L12.8878 14.8904C12.8793 14.8992 12.8683 14.9032 12.8584 14.9032V14.5032ZM13.1139 14.6091C13.046 14.5411 12.9542 14.5032 12.8584 14.5032V14.9032C12.8481 14.9032 12.8381 14.899 12.8311 14.8919L13.1139 14.6091ZM17.4306 5.40179C17.2992 5.39792 17.1713 5.44348 17.0719 5.52948L17.3338 5.83188C17.3573 5.8115 17.3876 5.8007 17.4188 5.80162L17.4306 5.40179ZM17.5344 5.41531C17.5003 5.40735 17.4655 5.40282 17.4306 5.40179L17.4188 5.80162C17.4271 5.80186 17.4353 5.80293 17.4434 5.80482L17.5344 5.41531ZM26.6816 14.9149C25.8388 10.1888 22.1961 6.42928 17.5314 5.41463L17.4464 5.80549C21.9533 6.78581 25.4736 10.4192 26.2878 14.9851L26.6816 14.9149ZM26.6805 15.1181C26.6944 15.0497 26.6945 14.9792 26.6808 14.9108L26.2886 14.9893C26.2918 15.0055 26.2918 15.0222 26.2885 15.0384L26.6805 15.1181ZM26.5999 15.309C26.6392 15.2514 26.6666 15.1865 26.6805 15.1181L26.2885 15.0384C26.2852 15.0546 26.2787 15.07 26.2694 15.0836L26.5999 15.309ZM26.4515 15.4538C26.5101 15.4159 26.5606 15.3667 26.5999 15.309L26.2694 15.0836C26.2601 15.0973 26.2481 15.109 26.2342 15.118L26.4515 15.4538ZM26.2587 15.5298C26.3274 15.5175 26.393 15.4917 26.4515 15.4538L26.2342 15.118C26.2204 15.127 26.2048 15.1331 26.1885 15.136L26.2587 15.5298ZM26.0515 15.5251C26.1196 15.5404 26.19 15.542 26.2587 15.5298L26.1885 15.136C26.1722 15.1389 26.1555 15.1385 26.1394 15.1349L26.0515 15.5251ZM25.8623 15.4404C25.9191 15.481 25.9834 15.5097 26.0515 15.5251L26.1394 15.1349C26.1233 15.1312 26.108 15.1244 26.0946 15.1148L25.8623 15.4404ZM25.7207 15.2891C25.7573 15.3485 25.8055 15.3999 25.8623 15.4404L26.0946 15.1148C26.0811 15.1052 26.0697 15.093 26.061 15.0789L25.7207 15.2891ZM25.6488 15.0947C25.6595 15.1636 25.684 15.2297 25.7207 15.2891L26.061 15.0789C26.0523 15.0648 26.0465 15.0492 26.0439 15.0328L25.6488 15.0947ZM17.3086 6.43917C21.5588 7.36366 24.8815 10.7925 25.6495 15.0989L26.0432 15.0287C25.2467 10.5621 21.8016 7.00711 17.3936 6.04831L17.3086 6.43917ZM16.9912 6.23428C17.0684 6.34052 17.1828 6.41386 17.3116 6.4398L17.3906 6.04768C17.36 6.04153 17.3329 6.02414 17.3146 5.99896L16.9912 6.23428ZM16.8942 5.86614C16.8793 5.99666 16.9139 6.12805 16.9912 6.23428L17.3146 5.99896C17.2963 5.97377 17.2881 5.94263 17.2916 5.91169L16.8942 5.86614ZM17.0719 5.52948C16.9726 5.61547 16.9092 5.73562 16.8942 5.86614L17.2916 5.91169C17.2952 5.88075 17.3102 5.85227 17.3338 5.83188L17.0719 5.52948Z" fill="white" mask="url(#path-1-outside-1)"/>
</svg>
