<svg width="32" height="32" viewBox="0 0 32 32" fill="none" xmlns="http://www.w3.org/2000/svg">
<path d="M11.5772 3H17.5393C17.0498 3.352 16.5874 3.78204 16.159 4.28059H8.59814C9.51922 3.45498 10.5311 2.99896 11.5772 3V3Z" fill="white"/>
<path d="M23.2871 3C21.4865 3 19.7748 4.31843 18.4829 6.62545C17.1909 8.9324 16.3687 12.1791 16.3687 15.7725C16.3687 19.366 17.1909 22.6147 18.4829 24.9216C19.7748 27.2287 21.4865 28.545 23.2871 28.545C25.0878 28.545 26.7995 27.2287 28.0914 24.9216C29.3833 22.6147 30.2056 19.366 30.2056 15.7725C30.2056 12.1791 29.3833 8.9324 28.0914 6.62545C26.7995 4.31843 25.0878 3 23.2871 3ZM23.8193 8.85405C24.8779 8.85405 25.8931 9.58299 26.6417 10.8805C27.3902 12.1779 27.8107 13.9376 27.8107 15.7725C27.8107 17.6074 27.3902 19.3671 26.6417 20.6645C25.8931 21.962 24.8779 22.691 23.8193 22.691C23.7812 22.6879 23.743 22.6839 23.705 22.6789C25.197 21.2406 26.0636 18.7051 26.0915 15.9018C26.1202 13.0124 25.2579 10.3528 23.7174 8.8586C23.7514 8.8565 23.7853 8.85513 23.8193 8.85454V8.85405ZM22.5096 9.2447C23.9448 10.2715 25.0569 12.9056 25.0271 15.8928C24.9982 18.8003 23.8946 21.3001 22.5055 22.2958C21.7241 21.8236 21.0467 20.9422 20.567 19.7735C20.0873 18.6048 19.829 17.2066 19.8279 15.7723C19.8288 14.3364 20.0875 12.9366 20.568 11.767C21.0485 10.5973 21.7271 9.71585 22.5096 9.2447V9.2447Z" fill="white"/>
<path d="M8.4237 3.04346C7.43534 3.77268 6.5621 4.82511 5.84798 6.09939C4.44338 8.60587 3.59823 12.008 3.59657 15.7619C3.59444 19.5158 4.43743 22.9227 5.83967 25.4328C6.55531 26.7139 7.43141 27.7674 8.4237 28.4991C6.80433 28.2847 5.2812 27.0134 4.10797 24.9132C2.81814 22.6043 1.99844 19.3549 2 15.7619C2.00107 12.1689 2.82456 8.92564 4.11629 6.62115C5.2887 4.52963 6.80802 3.26178 8.4237 3.04346V3.04346Z" fill="white"/>
<path d="M20.1317 3.04346C19.142 3.77405 18.2686 4.82924 17.5539 6.10565C16.1492 8.61398 15.3046 12.0179 15.3046 15.7724C15.3046 19.527 16.1492 22.9329 17.5539 25.4412C18.2684 26.7172 19.1424 27.7691 20.1317 28.4991C18.5124 28.2839 16.9891 27.0133 15.816 24.9132C14.5261 22.6042 13.7064 19.3549 13.708 15.7619C13.7091 12.1689 14.5326 8.92408 15.8243 6.61907C16.9972 4.5261 18.5158 3.25952 20.1317 3.04346V3.04346Z" fill="white"/>
<path d="M7.62147 5.34521H15.3611C15.2008 5.5882 15.0426 5.83718 14.8954 6.09987C14.7303 6.39474 14.5748 6.70218 14.4256 7.02075H6.57373C6.64228 6.88759 6.70602 6.74719 6.77745 6.61967C7.04114 6.14911 7.32577 5.73065 7.62147 5.34534L7.62147 5.34521Z" fill="white"/>
<path d="M6.08087 8.08545H13.9743C13.7704 8.61783 13.594 9.18101 13.4338 9.76111H5.49048C5.66325 9.17156 5.86252 8.61413 6.08087 8.08545Z" fill="white"/>
<path d="M5.20988 10.8257H13.1678C13.0491 11.3688 12.9537 11.9278 12.8747 12.5012H4.9043C4.98796 11.9271 5.08541 11.3647 5.20988 10.8257H5.20988Z" fill="white"/>
<path d="M4.77301 13.5659H12.7517C12.7018 14.1144 12.6704 14.6734 12.6581 15.2415H4.67529C4.68817 14.6725 4.72032 14.1131 4.773 13.5659H4.77301Z" fill="white"/>
<path d="M4.67529 16.3042H12.6581C12.6704 16.8728 12.7017 17.4306 12.7517 17.9797H4.77509C4.7223 17.432 4.68834 16.8735 4.67536 16.3042H4.67529Z" fill="white"/>
<path d="M4.9043 19.0444H12.8726C12.9516 19.6173 13.0492 20.1772 13.1678 20.72H5.20988C5.08545 20.181 4.98797 19.6185 4.9043 19.0444H4.9043Z" fill="white"/>
<path d="M5.49048 21.7847H13.4338C13.594 22.3648 13.7704 22.9279 13.9743 23.4603H6.08087C5.86242 22.9313 5.66328 22.3747 5.49048 21.7847Z" fill="white"/>
<path d="M6.57178 24.5244H14.4257C14.5723 24.8374 14.7253 25.1429 14.8872 25.4329C15.0369 25.7008 15.1959 25.9524 15.3591 26.2001H7.62161C7.32281 25.8107 7.03517 25.3892 6.76927 24.9132C6.70041 24.7901 6.63792 24.6529 6.57178 24.5245L6.57178 24.5244Z" fill="white"/>
<path d="M8.59814 27.2646H16.1611C16.5898 27.7635 17.0494 28.1933 17.5393 28.5452H11.5688C10.5265 28.5452 9.51677 28.0874 8.59814 27.2646V27.2646Z" fill="white"/>
<path d="M23.8197 15.7733C23.8197 16.0529 23.7921 16.3296 23.7387 16.5879C23.6852 16.8462 23.6068 17.0809 23.5079 17.2786C23.4091 17.4763 23.2918 17.6331 23.1626 17.7401C23.0335 17.847 22.8951 17.902 22.7553 17.902C22.6155 17.902 22.4771 17.847 22.348 17.7401C22.2188 17.6331 22.1015 17.4763 22.0027 17.2786C21.9038 17.0809 21.8254 16.8462 21.7719 16.5879C21.7184 16.3296 21.6909 16.0529 21.6909 15.7733C21.6909 15.2087 21.8031 14.6673 22.0027 14.2681C22.2023 13.8689 22.473 13.6445 22.7553 13.6445C23.0376 13.6445 23.3083 13.8689 23.5079 14.2681C23.7075 14.6673 23.8197 15.2087 23.8197 15.7733V15.7733Z" fill="white"/>
</svg>
