<svg width="32" height="32" viewBox="0 0 32 32" fill="none" xmlns="http://www.w3.org/2000/svg">
<mask id="path-1-outside-1" maskUnits="userSpaceOnUse" x="0" y="10.1821" width="32" height="12" fill="black">
<rect fill="white" y="10.1821" width="32" height="12"/>
<path fill-rule="evenodd" clip-rule="evenodd" d="M1.34512 11.1821C1.25417 11.1821 1.16693 11.2181 1.10245 11.2823C1.03797 11.3464 1.00149 11.4334 1.00098 11.5244C0.979264 15.5892 1.31703 18.8283 2.0315 21.259C2.05247 21.3303 2.09596 21.3929 2.15547 21.4375C2.21498 21.482 2.28731 21.5061 2.36165 21.5061H7.86627C7.92292 21.5061 7.9787 21.4921 8.02865 21.4653C8.07859 21.4386 8.12117 21.4 8.1526 21.3528C8.31207 21.1136 8.50698 21.004 8.85672 20.9865C9.22298 20.9682 11.6314 20.9654 15.9317 20.9864C15.942 20.987 15.9522 20.9872 15.9626 20.9869L15.9978 20.9867L16.0374 20.9869C16.0479 20.9872 16.0585 20.987 16.069 20.9864C20.3688 20.9653 22.777 20.9682 23.1432 20.9865C23.4929 21.004 23.6879 21.1135 23.8473 21.3528C23.8788 21.3999 23.9213 21.4386 23.9713 21.4653C24.0212 21.4921 24.077 21.5061 24.1337 21.5061H29.6383C29.7126 21.5061 29.7849 21.482 29.8445 21.4375C29.904 21.3929 29.9475 21.3303 29.9684 21.259C30.6829 18.8283 31.0207 15.5892 30.9989 11.5244C30.9984 11.4334 30.962 11.3464 30.8975 11.2823C30.833 11.2181 30.7458 11.1821 30.6548 11.1821H28.5887C28.5053 11.1821 28.4248 11.2124 28.3621 11.2673C28.2994 11.3222 28.2587 11.398 28.2476 11.4806L28.0772 12.7533C28.0595 12.8854 27.8991 13.0257 27.7659 13.0257H22.6645C22.091 13.0257 21.5418 13.3573 21.2747 13.8649L20.8934 14.589H16.039C16.026 14.5888 16.0129 14.5894 15.9999 14.5907C15.987 14.5894 15.974 14.5888 15.9609 14.589H11.1065L10.7252 13.8649C10.4582 13.3573 9.90893 13.0257 9.33541 13.0257H4.23407C4.10084 13.0257 3.94043 12.8854 3.92274 12.7533L3.75229 11.4806C3.74121 11.398 3.70054 11.3222 3.63782 11.2673C3.5751 11.2124 3.49459 11.1821 3.41125 11.1821H1.34512ZM23.1776 20.2992C22.6831 20.2745 20.3409 20.2772 15.998 20.2986C11.6576 20.2772 9.31663 20.2745 8.82231 20.2992C8.37891 20.3214 7.98872 20.5077 7.71235 20.8178H2.62674C2.00747 18.5823 1.69082 15.5957 1.69126 11.8704H3.11013L3.24053 12.8447C3.30722 13.3428 3.73162 13.7139 4.23407 13.7139H9.33541C9.57928 13.7139 10.0026 13.9696 10.1162 14.1853V14.1855L10.5942 15.0934C10.6234 15.1489 10.6672 15.1953 10.7208 15.2277C10.7745 15.2601 10.836 15.2773 10.8987 15.2773H15.9609C15.974 15.2775 15.987 15.2769 16 15.2756C16.0129 15.2769 16.026 15.2775 16.039 15.2773H21.1013C21.164 15.2773 21.2254 15.2601 21.2791 15.2277C21.3328 15.1953 21.3766 15.1489 21.4057 15.0934L21.8838 14.1855V14.1853C21.9973 13.9696 22.4206 13.7139 22.6645 13.7139H27.7659C28.2683 13.7139 28.6927 13.3428 28.7594 12.8447L28.8898 11.8704H30.3087C30.3091 15.5957 29.9925 18.5823 29.3732 20.8178H24.2876C24.0112 20.5077 23.621 20.3213 23.1776 20.2992ZM24.8125 17.7574C24.9574 17.3326 25.3426 17.0571 25.7914 17.0571H27.5191C27.5739 17.0571 27.6278 17.0702 27.6765 17.0952C27.7252 17.1203 27.7672 17.1565 27.799 17.201C27.8309 17.2456 27.8517 17.297 27.8596 17.3512C27.8676 17.4054 27.8625 17.4606 27.8449 17.5124L27.4334 18.7176C27.4102 18.7855 27.3663 18.8445 27.3079 18.8863C27.2496 18.928 27.1796 18.9505 27.1078 18.9505H24.8861C24.8314 18.9505 24.7775 18.9374 24.7288 18.9124C24.6801 18.8873 24.6382 18.8511 24.6063 18.8065C24.5745 18.762 24.5537 18.7106 24.5458 18.6564C24.5378 18.6023 24.5429 18.547 24.5606 18.4952L24.8125 17.7574ZM27.038 17.7454H25.7914C25.6952 17.7454 25.4949 17.8887 25.4639 17.9796L25.4638 17.9797L25.3672 18.2623H26.8615L27.038 17.7454ZM4.32351 17.0952C4.37219 17.0702 4.42613 17.0571 4.48087 17.0571H6.20865C6.65742 17.0571 7.04263 17.3326 7.18755 17.7574L7.43946 18.4952C7.45713 18.547 7.4622 18.6023 7.45424 18.6564C7.44628 18.7106 7.42552 18.762 7.39368 18.8065C7.36185 18.8511 7.31986 18.8873 7.2712 18.9124C7.22254 18.9374 7.16861 18.9505 7.11388 18.9505H4.89222C4.82043 18.9505 4.75045 18.928 4.69207 18.8863C4.63369 18.8445 4.58983 18.7855 4.56664 18.7176L4.15516 17.5124C4.13748 17.4606 4.13242 17.4054 4.14038 17.3512C4.14835 17.297 4.16912 17.2456 4.20097 17.201C4.23282 17.1565 4.27483 17.1203 4.32351 17.0952ZM6.20865 17.7454H4.96198L5.13848 18.2623H6.63277L6.53625 17.9797L6.53612 17.9796C6.50511 17.8887 6.30485 17.7454 6.20865 17.7454Z"/>
</mask>
<path fill-rule="evenodd" clip-rule="evenodd" d="M1.34512 11.1821C1.25417 11.1821 1.16693 11.2181 1.10245 11.2823C1.03797 11.3464 1.00149 11.4334 1.00098 11.5244C0.979264 15.5892 1.31703 18.8283 2.0315 21.259C2.05247 21.3303 2.09596 21.3929 2.15547 21.4375C2.21498 21.482 2.28731 21.5061 2.36165 21.5061H7.86627C7.92292 21.5061 7.9787 21.4921 8.02865 21.4653C8.07859 21.4386 8.12117 21.4 8.1526 21.3528C8.31207 21.1136 8.50698 21.004 8.85672 20.9865C9.22298 20.9682 11.6314 20.9654 15.9317 20.9864C15.942 20.987 15.9522 20.9872 15.9626 20.9869L15.9978 20.9867L16.0374 20.9869C16.0479 20.9872 16.0585 20.987 16.069 20.9864C20.3688 20.9653 22.777 20.9682 23.1432 20.9865C23.4929 21.004 23.6879 21.1135 23.8473 21.3528C23.8788 21.3999 23.9213 21.4386 23.9713 21.4653C24.0212 21.4921 24.077 21.5061 24.1337 21.5061H29.6383C29.7126 21.5061 29.7849 21.482 29.8445 21.4375C29.904 21.3929 29.9475 21.3303 29.9684 21.259C30.6829 18.8283 31.0207 15.5892 30.9989 11.5244C30.9984 11.4334 30.962 11.3464 30.8975 11.2823C30.833 11.2181 30.7458 11.1821 30.6548 11.1821H28.5887C28.5053 11.1821 28.4248 11.2124 28.3621 11.2673C28.2994 11.3222 28.2587 11.398 28.2476 11.4806L28.0772 12.7533C28.0595 12.8854 27.8991 13.0257 27.7659 13.0257H22.6645C22.091 13.0257 21.5418 13.3573 21.2747 13.8649L20.8934 14.589H16.039C16.026 14.5888 16.0129 14.5894 15.9999 14.5907C15.987 14.5894 15.974 14.5888 15.9609 14.589H11.1065L10.7252 13.8649C10.4582 13.3573 9.90893 13.0257 9.33541 13.0257H4.23407C4.10084 13.0257 3.94043 12.8854 3.92274 12.7533L3.75229 11.4806C3.74121 11.398 3.70054 11.3222 3.63782 11.2673C3.5751 11.2124 3.49459 11.1821 3.41125 11.1821H1.34512ZM23.1776 20.2992C22.6831 20.2745 20.3409 20.2772 15.998 20.2986C11.6576 20.2772 9.31663 20.2745 8.82231 20.2992C8.37891 20.3214 7.98872 20.5077 7.71235 20.8178H2.62674C2.00747 18.5823 1.69082 15.5957 1.69126 11.8704H3.11013L3.24053 12.8447C3.30722 13.3428 3.73162 13.7139 4.23407 13.7139H9.33541C9.57928 13.7139 10.0026 13.9696 10.1162 14.1853V14.1855L10.5942 15.0934C10.6234 15.1489 10.6672 15.1953 10.7208 15.2277C10.7745 15.2601 10.836 15.2773 10.8987 15.2773H15.9609C15.974 15.2775 15.987 15.2769 16 15.2756C16.0129 15.2769 16.026 15.2775 16.039 15.2773H21.1013C21.164 15.2773 21.2254 15.2601 21.2791 15.2277C21.3328 15.1953 21.3766 15.1489 21.4057 15.0934L21.8838 14.1855V14.1853C21.9973 13.9696 22.4206 13.7139 22.6645 13.7139H27.7659C28.2683 13.7139 28.6927 13.3428 28.7594 12.8447L28.8898 11.8704H30.3087C30.3091 15.5957 29.9925 18.5823 29.3732 20.8178H24.2876C24.0112 20.5077 23.621 20.3213 23.1776 20.2992ZM24.8125 17.7574C24.9574 17.3326 25.3426 17.0571 25.7914 17.0571H27.5191C27.5739 17.0571 27.6278 17.0702 27.6765 17.0952C27.7252 17.1203 27.7672 17.1565 27.799 17.201C27.8309 17.2456 27.8517 17.297 27.8596 17.3512C27.8676 17.4054 27.8625 17.4606 27.8449 17.5124L27.4334 18.7176C27.4102 18.7855 27.3663 18.8445 27.3079 18.8863C27.2496 18.928 27.1796 18.9505 27.1078 18.9505H24.8861C24.8314 18.9505 24.7775 18.9374 24.7288 18.9124C24.6801 18.8873 24.6382 18.8511 24.6063 18.8065C24.5745 18.762 24.5537 18.7106 24.5458 18.6564C24.5378 18.6023 24.5429 18.547 24.5606 18.4952L24.8125 17.7574ZM27.038 17.7454H25.7914C25.6952 17.7454 25.4949 17.8887 25.4639 17.9796L25.4638 17.9797L25.3672 18.2623H26.8615L27.038 17.7454ZM4.32351 17.0952C4.37219 17.0702 4.42613 17.0571 4.48087 17.0571H6.20865C6.65742 17.0571 7.04263 17.3326 7.18755 17.7574L7.43946 18.4952C7.45713 18.547 7.4622 18.6023 7.45424 18.6564C7.44628 18.7106 7.42552 18.762 7.39368 18.8065C7.36185 18.8511 7.31986 18.8873 7.2712 18.9124C7.22254 18.9374 7.16861 18.9505 7.11388 18.9505H4.89222C4.82043 18.9505 4.75045 18.928 4.69207 18.8863C4.63369 18.8445 4.58983 18.7855 4.56664 18.7176L4.15516 17.5124C4.13748 17.4606 4.13242 17.4054 4.14038 17.3512C4.14835 17.297 4.16912 17.2456 4.20097 17.201C4.23282 17.1565 4.27483 17.1203 4.32351 17.0952ZM6.20865 17.7454H4.96198L5.13848 18.2623H6.63277L6.53625 17.9797L6.53612 17.9796C6.50511 17.8887 6.30485 17.7454 6.20865 17.7454Z" fill="white"/>
<path d="M1.10245 11.2823L0.749868 10.9277V10.9277L1.10245 11.2823ZM1.34512 11.1821V10.6821H1.34507L1.34512 11.1821ZM1.00098 11.5244L0.500991 11.5216L0.500991 11.5217L1.00098 11.5244ZM2.0315 21.259L1.55179 21.4L1.5518 21.4L2.0315 21.259ZM2.36165 21.5061L2.36159 22.0061H2.36165V21.5061ZM7.86627 21.5061V22.0061H7.86631L7.86627 21.5061ZM8.02865 21.4653L7.79271 21.0245L7.7927 21.0245L8.02865 21.4653ZM8.1526 21.3528L8.56861 21.6302L8.56865 21.6301L8.1526 21.3528ZM8.85672 20.9865L8.83177 20.4871H8.83177L8.85672 20.9865ZM15.9317 20.9864L15.9622 20.4873L15.9482 20.4865L15.9341 20.4864L15.9317 20.9864ZM15.9626 20.9869L15.9601 20.4868L15.9482 20.4871L15.9626 20.9869ZM15.9978 20.9867L16.0003 20.4867L15.9954 20.4867L15.9978 20.9867ZM16.0374 20.9869L16.0517 20.487L16.0398 20.4869L16.0374 20.9869ZM16.069 20.9864L16.0665 20.4864L16.0519 20.4865L16.0374 20.4874L16.069 20.9864ZM23.1432 20.9865L23.1682 20.4871L23.1681 20.4871L23.1432 20.9865ZM23.8473 21.3528L23.4313 21.6301L23.4313 21.6301L23.8473 21.3528ZM23.9713 21.4653L23.7353 21.9062L23.9713 21.4653ZM24.1337 21.5061L24.1336 22.0061H24.1337V21.5061ZM29.6383 21.5061V22.0061H29.6383L29.6383 21.5061ZM29.8445 21.4375L29.5449 21.0371L29.5449 21.0371L29.8445 21.4375ZM29.9684 21.259L30.4481 21.4L30.4481 21.4L29.9684 21.259ZM30.9989 11.5244L31.4989 11.5217V11.5216L30.9989 11.5244ZM30.8975 11.2823L30.5449 11.6368L30.8975 11.2823ZM30.6548 11.1821L30.6549 10.6821H30.6548V11.1821ZM28.5887 11.1821V10.6821H28.5886L28.5887 11.1821ZM28.3621 11.2673L28.0329 10.891L28.0328 10.891L28.3621 11.2673ZM28.2476 11.4806L27.7521 11.4141L27.7521 11.4142L28.2476 11.4806ZM28.0772 12.7533L27.5816 12.6869L27.5816 12.6869L28.0772 12.7533ZM21.2747 13.8649L21.7171 14.0978L21.7172 14.0977L21.2747 13.8649ZM20.8934 14.589V15.089H21.1953L21.3359 14.8219L20.8934 14.589ZM16.039 14.589L16.032 15.089H16.039V14.589ZM15.9999 14.5907L15.9503 15.0882L16 15.0932L16.0497 15.0882L15.9999 14.5907ZM15.9609 14.589V15.0891L15.968 15.089L15.9609 14.589ZM11.1065 14.589L10.664 14.822L10.8047 15.089H11.1065V14.589ZM10.7252 13.8649L10.2828 14.0977L10.2828 14.0978L10.7252 13.8649ZM3.92274 12.7533L4.41832 12.6869L4.41831 12.6869L3.92274 12.7533ZM3.75229 11.4806L4.24786 11.4142L4.24785 11.4141L3.75229 11.4806ZM3.63782 11.2673L3.30855 11.6436L3.30855 11.6436L3.63782 11.2673ZM3.41125 11.1821L3.41135 10.6821H3.41125V11.1821ZM15.998 20.2986L15.9956 20.7986L16.0005 20.7986L15.998 20.2986ZM23.1776 20.2992L23.1527 20.7986L23.1776 20.2992ZM8.82231 20.2992L8.84725 20.7986L8.84726 20.7986L8.82231 20.2992ZM7.71235 20.8178V21.3178H7.93649L8.08562 21.1505L7.71235 20.8178ZM2.62674 20.8178L2.14488 20.9513L2.24641 21.3178H2.62674V20.8178ZM1.69126 11.8704V11.3704H1.19132L1.19126 11.8703L1.69126 11.8704ZM3.11013 11.8704L3.60571 11.8041L3.54768 11.3704H3.11013V11.8704ZM3.24053 12.8447L2.74494 12.911L2.74495 12.9111L3.24053 12.8447ZM10.1162 14.1853H10.6162V14.0618L10.5586 13.9525L10.1162 14.1853ZM10.1162 14.1855H9.61616V14.3091L9.67374 14.4184L10.1162 14.1855ZM10.5942 15.0934L11.0367 14.8606L11.0366 14.8605L10.5942 15.0934ZM10.7208 15.2277L10.4623 15.6557H10.4623L10.7208 15.2277ZM10.8987 15.2773L10.8985 15.7773H10.8987V15.2773ZM15.9609 15.2773L15.968 14.7773H15.9609V15.2773ZM16 15.2756L16.0497 14.7781L16 14.7731L15.9503 14.7781L16 15.2756ZM16.039 15.2773V14.7772L16.032 14.7773L16.039 15.2773ZM21.1013 15.2773V15.7773H21.1014L21.1013 15.2773ZM21.2791 15.2277L21.5376 15.6557L21.5376 15.6557L21.2791 15.2277ZM21.4057 15.0934L20.9633 14.8605L20.9633 14.8606L21.4057 15.0934ZM21.8838 14.1855L22.3262 14.4184L22.3838 14.3091V14.1855H21.8838ZM21.8838 14.1853L21.4413 13.9525L21.3838 14.0618V14.1853H21.8838ZM28.7594 12.8447L29.255 12.9111L29.255 12.911L28.7594 12.8447ZM28.8898 11.8704V11.3704H28.4523L28.3942 11.8041L28.8898 11.8704ZM30.3087 11.8704L30.8087 11.8703L30.8086 11.3704H30.3087V11.8704ZM29.3732 20.8178V21.3178H29.7535L29.855 20.9513L29.3732 20.8178ZM24.2876 20.8178L23.9143 21.1505L24.0634 21.3178H24.2876V20.8178ZM24.8125 17.7574L25.2856 17.9189L25.2857 17.9188L24.8125 17.7574ZM27.5191 17.0571L27.5192 16.5571H27.5191V17.0571ZM27.6765 17.0952L27.4479 17.5399L27.4479 17.5399L27.6765 17.0952ZM27.799 17.201L28.2057 16.9101L28.2057 16.9101L27.799 17.201ZM27.8596 17.3512L27.365 17.424L27.365 17.424L27.8596 17.3512ZM27.8449 17.5124L28.318 17.674L28.3181 17.6739L27.8449 17.5124ZM27.4334 18.7176L26.9602 18.556V18.556L27.4334 18.7176ZM27.1078 18.9505V19.4505H27.108L27.1078 18.9505ZM24.8861 18.9505L24.8859 19.4505H24.8861V18.9505ZM24.7288 18.9124L24.5 19.357L24.5 19.357L24.7288 18.9124ZM24.6063 18.8065L24.1996 19.0974L24.1996 19.0974L24.6063 18.8065ZM24.5458 18.6564L24.0511 18.7291L24.0511 18.7292L24.5458 18.6564ZM24.5606 18.4952L24.0874 18.3337L24.0873 18.3338L24.5606 18.4952ZM25.7914 17.7454L25.7913 18.2454H25.7914V17.7454ZM27.038 17.7454L27.5112 17.907L27.7371 17.2454H27.038V17.7454ZM25.4639 17.9796L25.8193 18.3313L25.9 18.2497L25.9371 18.141L25.4639 17.9796ZM25.4638 17.9797L25.1084 17.628L25.0277 17.7095L24.9906 17.8181L25.4638 17.9797ZM25.3672 18.2623L24.8941 18.1006L24.6681 18.7623H25.3672V18.2623ZM26.8615 18.2623V18.7623H27.2191L27.3347 18.4238L26.8615 18.2623ZM4.48087 17.0571V16.5571H4.48085L4.48087 17.0571ZM4.32351 17.0952L4.55214 17.5399L4.55215 17.5399L4.32351 17.0952ZM7.18755 17.7574L6.71433 17.9188L6.71436 17.9189L7.18755 17.7574ZM7.43946 18.4952L7.91267 18.3338L7.91264 18.3337L7.43946 18.4952ZM7.45424 18.6564L6.95955 18.5837V18.5837L7.45424 18.6564ZM7.2712 18.9124L7.49997 19.357L7.49997 19.357L7.2712 18.9124ZM7.11388 18.9505V19.4505H7.11409L7.11388 18.9505ZM4.89222 18.9505L4.89204 19.4505H4.89222V18.9505ZM4.69207 18.8863L4.40111 19.2929L4.40112 19.2929L4.69207 18.8863ZM4.56664 18.7176L5.03982 18.556L5.03981 18.556L4.56664 18.7176ZM4.15516 17.5124L3.68194 17.6739L3.68198 17.674L4.15516 17.5124ZM4.14038 17.3512L3.64571 17.2784L3.64571 17.2784L4.14038 17.3512ZM4.20097 17.201L3.79431 16.9101L3.79431 16.9101L4.20097 17.201ZM4.96198 17.7454V17.2454H4.26289L4.48881 17.907L4.96198 17.7454ZM5.13848 18.2623L4.66531 18.4238L4.78088 18.7623H5.13848V18.2623ZM6.63277 18.2623V18.7623H7.33192L7.10593 18.1006L6.63277 18.2623ZM6.53625 17.9797L7.00941 17.8181L6.97144 17.7069L6.88796 17.6243L6.53625 17.9797ZM6.53612 17.9796L6.0629 18.141L6.10085 18.2523L6.18441 18.335L6.53612 17.9796ZM1.45503 11.6368C1.42584 11.6658 1.38633 11.6821 1.34516 11.6821L1.34507 10.6821C1.12201 10.6821 0.908028 10.7704 0.749868 10.9277L1.45503 11.6368ZM1.50098 11.5272C1.50075 11.5683 1.48423 11.6078 1.45503 11.6368L0.749868 10.9277C0.591708 11.085 0.502233 11.2985 0.500991 11.5216L1.50098 11.5272ZM2.5112 21.118C1.81633 18.7539 1.47938 15.5698 1.50098 11.527L0.500991 11.5217C0.479154 15.6086 0.817724 18.9026 1.55179 21.4L2.5112 21.118ZM2.45506 21.0371C2.482 21.0573 2.50169 21.0856 2.51119 21.1179L1.5518 21.4C1.60324 21.575 1.70992 21.7285 1.85589 21.8378L2.45506 21.0371ZM2.3617 21.0061C2.39536 21.0061 2.42811 21.017 2.45506 21.0371L1.85589 21.8378C2.00186 21.947 2.17927 22.006 2.36159 22.0061L2.3617 21.0061ZM7.86627 21.0061H2.36165V22.0061H7.86627V21.0061ZM7.7927 21.0245C7.81532 21.0124 7.84058 21.0061 7.86623 21.0061L7.86631 22.0061C8.00526 22.0061 8.14207 21.9717 8.26459 21.9062L7.7927 21.0245ZM7.73658 21.0755C7.75081 21.0541 7.77009 21.0366 7.79271 21.0245L8.26458 21.9062C8.3871 21.8406 8.49153 21.7458 8.56861 21.6302L7.73658 21.0755ZM8.83177 20.4871C8.61133 20.4981 8.39693 20.54 8.19939 20.6446C7.99711 20.7517 7.8508 20.9041 7.73655 21.0755L8.56865 21.6301C8.61387 21.5623 8.64476 21.5403 8.66723 21.5284C8.69445 21.514 8.75237 21.4923 8.88167 21.4859L8.83177 20.4871ZM15.9341 20.4864C11.6455 20.4654 9.21596 20.4679 8.83177 20.4871L8.88167 21.4859C9.23001 21.4685 11.6173 21.4653 15.9292 21.4864L15.9341 20.4864ZM15.9482 20.4871C15.9529 20.487 15.9576 20.4871 15.9622 20.4873L15.9012 21.4855C15.9263 21.487 15.9516 21.4874 15.9769 21.4867L15.9482 20.4871ZM15.9954 20.4867L15.9601 20.4869L15.965 21.4869L16.0003 21.4867L15.9954 20.4867ZM16.0398 20.4869L16.0003 20.4867L15.9954 21.4867L16.0349 21.4869L16.0398 20.4869ZM16.0374 20.4874C16.0422 20.4871 16.0469 20.487 16.0517 20.4871L16.0231 21.4867C16.0489 21.4875 16.0748 21.487 16.1005 21.4854L16.0374 20.4874ZM23.1681 20.4871C22.784 20.4679 20.3547 20.4654 16.0665 20.4864L16.0714 21.4864C20.3829 21.4653 22.7699 21.4685 23.1183 21.4859L23.1681 20.4871ZM24.2634 21.0755C24.1491 20.9041 24.0028 20.7516 23.8005 20.6446C23.603 20.54 23.3886 20.4981 23.1682 20.4871L23.1183 21.4859C23.2476 21.4923 23.3055 21.514 23.3327 21.5284C23.3552 21.5403 23.3861 21.5623 23.4313 21.6301L24.2634 21.0755ZM24.2072 21.0245C24.2299 21.0366 24.2491 21.0541 24.2634 21.0755L23.4313 21.6301C23.5084 21.7458 23.6128 21.8406 23.7353 21.9062L24.2072 21.0245ZM24.1337 21.0061C24.1594 21.0061 24.1846 21.0124 24.2072 21.0245L23.7353 21.9062C23.8578 21.9717 23.9946 22.0061 24.1336 22.0061L24.1337 21.0061ZM29.6383 21.0061H24.1337V22.0061H29.6383V21.0061ZM29.5449 21.0371C29.5718 21.017 29.6046 21.0061 29.6382 21.0061L29.6383 22.0061C29.8207 22.006 29.9981 21.947 30.144 21.8378L29.5449 21.0371ZM29.4887 21.1179C29.4982 21.0857 29.5179 21.0573 29.5449 21.0371L30.144 21.8378C30.29 21.7285 30.3967 21.575 30.4481 21.4L29.4887 21.1179ZM30.499 11.527C30.5206 15.5698 30.1836 18.7539 29.4887 21.118L30.4481 21.4C31.1822 18.9026 31.5208 15.6086 31.4989 11.5217L30.499 11.527ZM30.5449 11.6368C30.5157 11.6077 30.4992 11.5683 30.499 11.5272L31.4989 11.5216C31.4977 11.2985 31.4082 11.085 31.2501 10.9277L30.5449 11.6368ZM30.6548 11.6821C30.6136 11.6821 30.5741 11.6658 30.5449 11.6368L31.2501 10.9277C31.0919 10.7704 30.8779 10.6821 30.6549 10.6821L30.6548 11.6821ZM28.5887 11.6821H30.6548V10.6821H28.5887V11.6821ZM28.6914 11.6436C28.663 11.6684 28.6265 11.6821 28.5888 11.6821L28.5886 10.6821C28.3841 10.6822 28.1867 10.7564 28.0329 10.891L28.6914 11.6436ZM28.7432 11.547C28.7382 11.5844 28.7198 11.6187 28.6914 11.6436L28.0328 10.891C27.879 11.0256 27.7792 11.2115 27.7521 11.4141L28.7432 11.547ZM28.5728 12.8197L28.7432 11.5469L27.7521 11.4142L27.5816 12.6869L28.5728 12.8197ZM27.7659 13.5257C27.9934 13.5257 28.1792 13.4158 28.294 13.3154C28.4089 13.2149 28.5426 13.0453 28.5728 12.8197L27.5816 12.6869C27.5886 12.635 27.6062 12.6022 27.6145 12.5887C27.6235 12.5741 27.6313 12.5665 27.6357 12.5627C27.6401 12.5588 27.6486 12.5522 27.6643 12.5452C27.6787 12.5387 27.7135 12.5257 27.7659 12.5257V13.5257ZM22.6645 13.5257H27.7659V12.5257H22.6645V13.5257ZM21.7172 14.0977C21.8978 13.7544 22.2767 13.5257 22.6645 13.5257V12.5257C21.9053 12.5257 21.1857 12.9601 20.8322 13.6321L21.7172 14.0977ZM21.3359 14.8219L21.7171 14.0978L20.8322 13.632L20.451 14.3561L21.3359 14.8219ZM16.039 15.089H20.8934V14.089H16.039V15.089ZM16.0497 15.0882C16.0438 15.0888 16.0379 15.0891 16.032 15.089L16.0461 14.0891C16.014 14.0886 15.982 14.09 15.9502 14.0932L16.0497 15.0882ZM15.968 15.089C15.962 15.0891 15.9561 15.0888 15.9503 15.0882L16.0496 14.0932C16.0179 14.09 15.9859 14.0886 15.9538 14.0891L15.968 15.089ZM11.1065 15.089H15.9609V14.089H11.1065V15.089ZM10.2828 14.0978L10.664 14.822L11.5489 14.3561L11.1677 13.632L10.2828 14.0978ZM9.33541 13.5257C9.72326 13.5257 10.1021 13.7544 10.2828 14.0977L11.1677 13.6321C10.8142 12.9602 10.0946 12.5257 9.33541 12.5257V13.5257ZM4.23407 13.5257H9.33541V12.5257H4.23407V13.5257ZM3.42716 12.8197C3.45738 13.0453 3.59105 13.2149 3.7059 13.3154C3.82075 13.4158 4.00657 13.5257 4.23407 13.5257V12.5257C4.28644 12.5257 4.32127 12.5387 4.33567 12.5452C4.35132 12.5522 4.35985 12.5588 4.36425 12.5627C4.36866 12.5665 4.3764 12.5741 4.38543 12.5887C4.39375 12.6022 4.41136 12.635 4.41832 12.6869L3.42716 12.8197ZM3.25671 11.5469L3.42716 12.8197L4.41831 12.6869L4.24786 11.4142L3.25671 11.5469ZM3.30855 11.6436C3.28015 11.6187 3.26174 11.5844 3.25672 11.547L4.24785 11.4141C4.22068 11.2115 4.12092 11.0256 3.96708 10.891L3.30855 11.6436ZM3.41114 11.6821C3.3734 11.6821 3.33695 11.6684 3.30855 11.6436L3.96708 10.891C3.81324 10.7564 3.61578 10.6822 3.41135 10.6821L3.41114 11.6821ZM1.34512 11.6821H3.41125V10.6821H1.34512V11.6821ZM16.0005 20.7986C20.3556 20.7771 22.6762 20.7748 23.1527 20.7986L23.2026 19.7998C22.6901 19.7742 20.3262 19.7772 15.9956 19.7986L16.0005 20.7986ZM8.84726 20.7986C9.32359 20.7748 11.6429 20.7771 15.9956 20.7986L16.0005 19.7986C11.6724 19.7772 9.30967 19.7742 8.79735 19.7998L8.84726 20.7986ZM8.08562 21.1505C8.26952 20.9441 8.53246 20.8143 8.84725 20.7986L8.79736 19.7998C8.22537 19.8284 7.70792 20.0713 7.33908 20.4852L8.08562 21.1505ZM2.62674 21.3178H7.71235V20.3178H2.62674V21.3178ZM1.19126 11.8703C1.19081 15.6179 1.5087 18.6548 2.14488 20.9513L3.10859 20.6843C2.50623 18.5099 2.19082 15.5735 2.19126 11.8705L1.19126 11.8703ZM3.11013 11.3704H1.69126V12.3704H3.11013V11.3704ZM3.73611 12.7784L3.60571 11.8041L2.61455 11.9367L2.74494 12.911L3.73611 12.7784ZM4.23407 13.2139C3.98197 13.2139 3.76953 13.028 3.7361 12.7784L2.74495 12.9111C2.84491 13.6576 3.48128 14.2139 4.23407 14.2139V13.2139ZM9.33541 13.2139H4.23407V14.2139H9.33541V13.2139ZM10.5586 13.9525C10.4386 13.7245 10.2115 13.5484 10.0331 13.4407C9.85479 13.333 9.59318 13.2139 9.33541 13.2139V14.2139C9.31734 14.2139 9.32896 14.2111 9.37459 14.2275C9.41534 14.2422 9.46505 14.2658 9.51621 14.2967C9.56736 14.3276 9.61139 14.3606 9.64338 14.3899C9.6792 14.4226 9.6821 14.4342 9.67368 14.4182L10.5586 13.9525ZM10.6162 14.1855V14.1853H9.61616V14.1855H10.6162ZM11.0366 14.8605L10.5586 13.9525L9.67374 14.4184L10.1518 15.3263L11.0366 14.8605ZM10.9793 14.7997C11.0036 14.8144 11.0234 14.8354 11.0367 14.8606L10.1517 15.3262C10.2233 15.4623 10.3307 15.5762 10.4623 15.6557L10.9793 14.7997ZM10.8988 14.7773C10.9272 14.7773 10.955 14.7851 10.9793 14.7997L10.4623 15.6557C10.5939 15.7352 10.7448 15.7773 10.8985 15.7773L10.8988 14.7773ZM15.9609 14.7773H10.8987V15.7773H15.9609V14.7773ZM15.9503 14.7781C15.9561 14.7775 15.962 14.7773 15.968 14.7773L15.9538 15.7772C15.9859 15.7777 16.0179 15.7763 16.0497 15.7731L15.9503 14.7781ZM16.032 14.7773C16.0379 14.7773 16.0438 14.7775 16.0497 14.7781L15.9503 15.7731C15.9821 15.7763 16.0141 15.7777 16.0461 15.7772L16.032 14.7773ZM21.1013 14.7773H16.039V15.7773H21.1013V14.7773ZM21.0206 14.7997C21.0449 14.7851 21.0728 14.7773 21.1011 14.7773L21.1014 15.7773C21.2552 15.7772 21.406 15.7352 21.5376 15.6557L21.0206 14.7997ZM20.9633 14.8606C20.9765 14.8354 20.9963 14.8144 21.0206 14.7997L21.5376 15.6557C21.6692 15.5762 21.7766 15.4623 21.8482 15.3262L20.9633 14.8606ZM21.4413 13.9525L20.9633 14.8605L21.8482 15.3263L22.3262 14.4184L21.4413 13.9525ZM21.3838 14.1853V14.1855H22.3838V14.1853H21.3838ZM22.6645 13.2139C22.4067 13.2139 22.1451 13.333 21.9668 13.4407C21.7885 13.5484 21.5613 13.7244 21.4413 13.9525L22.3263 14.4182C22.3178 14.4342 22.3207 14.4226 22.3566 14.3898C22.3885 14.3606 22.4326 14.3276 22.4837 14.2967C22.5349 14.2658 22.5846 14.2422 22.6253 14.2275C22.671 14.2111 22.6826 14.2139 22.6645 14.2139V13.2139ZM27.7659 13.2139H22.6645V14.2139H27.7659V13.2139ZM28.2638 12.7784C28.2304 13.028 28.018 13.2139 27.7659 13.2139V14.2139C28.5187 14.2139 29.155 13.6576 29.255 12.9111L28.2638 12.7784ZM28.3942 11.8041L28.2638 12.7784L29.255 12.911L29.3854 11.9367L28.3942 11.8041ZM30.3087 11.3704H28.8898V12.3704H30.3087V11.3704ZM29.855 20.9513C30.4912 18.6548 30.8091 15.6179 30.8087 11.8703L29.8087 11.8704C29.8091 15.5735 29.4937 18.5099 28.8913 20.6843L29.855 20.9513ZM24.2876 21.3178H29.3732V20.3178H24.2876V21.3178ZM23.1527 20.7986C23.4675 20.8143 23.7304 20.9441 23.9143 21.1505L24.6608 20.4851C24.292 20.0713 23.7746 19.8284 23.2026 19.7998L23.1527 20.7986ZM25.7914 16.5571C25.1288 16.5571 24.5533 16.9686 24.3392 17.5959L25.2857 17.9188C25.3615 17.6966 25.5564 17.5571 25.7914 17.5571V16.5571ZM27.5191 16.5571H25.7914V17.5571H27.5191V16.5571ZM27.9051 16.6506C27.7857 16.5892 27.6534 16.5571 27.5192 16.5571L27.5191 17.5571C27.4943 17.5571 27.4699 17.5512 27.4479 17.5399L27.9051 16.6506ZM28.2057 16.9101C28.1276 16.8009 28.0245 16.7119 27.9051 16.6506L27.4479 17.5399C27.4258 17.5286 27.4068 17.5121 27.3924 17.492L28.2057 16.9101ZM28.3543 17.2784C28.3348 17.1456 28.2838 17.0193 28.2057 16.9101L27.3924 17.492C27.378 17.4718 27.3686 17.4485 27.365 17.424L28.3543 17.2784ZM28.3181 17.6739C28.3614 17.5468 28.3738 17.4112 28.3543 17.2784L27.365 17.424C27.3613 17.3995 27.3636 17.3744 27.3716 17.351L28.3181 17.6739ZM27.9066 18.8791L28.318 17.674L27.3717 17.3509L26.9602 18.556L27.9066 18.8791ZM27.5989 19.2929C27.7421 19.1904 27.8497 19.0458 27.9066 18.8791L26.9602 18.556C26.9707 18.5252 26.9906 18.4985 27.017 18.4796L27.5989 19.2929ZM27.108 19.4505C27.2841 19.4505 27.4557 19.3953 27.5989 19.2929L27.017 18.4796C27.0434 18.4607 27.0751 18.4505 27.1076 18.4505L27.108 19.4505ZM24.8861 19.4505H27.1078V18.4505H24.8861V19.4505ZM24.5 19.357C24.6194 19.4184 24.7517 19.4505 24.8859 19.4505L24.8863 18.4505C24.9111 18.4505 24.9355 18.4565 24.9576 18.4678L24.5 19.357ZM24.1996 19.0974C24.2777 19.2066 24.3807 19.2956 24.5 19.357L24.9576 18.4678C24.9796 18.4791 24.9986 18.4956 25.013 18.5157L24.1996 19.0974ZM24.0511 18.7292C24.0706 18.862 24.1215 18.9882 24.1996 19.0974L25.013 18.5157C25.0275 18.5359 25.0369 18.5592 25.0405 18.5837L24.0511 18.7292ZM24.0873 18.3338C24.044 18.4608 24.0316 18.5964 24.0511 18.7291L25.0405 18.5837C25.0441 18.6082 25.0418 18.6332 25.0338 18.6567L24.0873 18.3338ZM24.3393 17.5958L24.0874 18.3337L25.0337 18.6568L25.2856 17.9189L24.3393 17.5958ZM25.7914 18.2454H27.038V17.2454H25.7914V18.2454ZM25.9371 18.141C25.922 18.1853 25.9036 18.2141 25.8956 18.2257C25.8865 18.239 25.88 18.246 25.879 18.2471C25.8774 18.2488 25.8825 18.2433 25.8941 18.2351C25.9056 18.2268 25.9124 18.2237 25.9103 18.2246C25.9089 18.2253 25.9002 18.2292 25.8848 18.2335C25.8712 18.2373 25.838 18.2454 25.7913 18.2454L25.7914 17.2454C25.6618 17.2454 25.5542 17.2881 25.4976 17.3138C25.43 17.3444 25.3667 17.3828 25.3123 17.4217C25.2579 17.4606 25.2011 17.5081 25.1503 17.5622C25.1078 17.6074 25.0325 17.6954 24.9907 17.8181L25.9371 18.141ZM25.8192 18.3314L25.8193 18.3313L25.1085 17.6279L25.1084 17.628L25.8192 18.3314ZM25.8404 18.4239L25.9369 18.1413L24.9906 17.8181L24.8941 18.1006L25.8404 18.4239ZM26.8615 17.7623H25.3672V18.7623H26.8615V17.7623ZM26.5649 17.5838L26.3884 18.1007L27.3347 18.4238L27.5112 17.907L26.5649 17.5838ZM4.48085 16.5571C4.34659 16.5571 4.21427 16.5892 4.09487 16.6506L4.55215 17.5399C4.53011 17.5512 4.50568 17.5571 4.48089 17.5571L4.48085 16.5571ZM6.20865 16.5571H4.48087V17.5571H6.20865V16.5571ZM7.66076 17.5959C7.44675 16.9686 6.87125 16.5571 6.20865 16.5571V17.5571C6.44359 17.5571 6.63852 17.6966 6.71433 17.9188L7.66076 17.5959ZM7.91264 18.3337L7.66073 17.5958L6.71436 17.9189L6.96628 18.6568L7.91264 18.3337ZM7.94892 18.7292C7.96844 18.5964 7.95602 18.4608 7.91267 18.3338L6.96625 18.6567C6.95824 18.6332 6.95595 18.6082 6.95955 18.5837L7.94892 18.7292ZM7.8004 19.0974C7.87847 18.9882 7.92939 18.862 7.94892 18.7292L6.95955 18.5837C6.96316 18.5592 6.97256 18.5359 6.98697 18.5157L7.8004 19.0974ZM7.49997 19.357C7.61932 19.2956 7.72232 19.2066 7.8004 19.0974L6.98697 18.5157C7.00139 18.4956 7.0204 18.4791 7.04243 18.4678L7.49997 19.357ZM7.11409 19.4505C7.24833 19.4505 7.38061 19.4184 7.49997 19.357L7.04243 18.4678C7.06446 18.4565 7.08888 18.4505 7.11367 18.4505L7.11409 19.4505ZM4.89222 19.4505H7.11388V18.4505H4.89222V19.4505ZM4.40112 19.2929C4.54431 19.3953 4.71596 19.4505 4.89204 19.4505L4.8924 18.4505C4.9249 18.4505 4.95659 18.4607 4.98302 18.4796L4.40112 19.2929ZM4.09346 18.8791C4.15035 19.0458 4.25792 19.1904 4.40111 19.2929L4.98302 18.4796C5.00945 18.4985 5.02931 18.5252 5.03982 18.556L4.09346 18.8791ZM3.68198 17.674L4.09346 18.8791L5.03981 18.556L4.62833 17.3509L3.68198 17.674ZM3.64571 17.2784C3.62617 17.4112 3.63859 17.5468 3.68194 17.6739L4.62837 17.351C4.63637 17.3744 4.63867 17.3995 4.63506 17.424L3.64571 17.2784ZM3.79431 16.9101C3.7162 17.0193 3.66525 17.1456 3.64571 17.2784L4.63506 17.424C4.63145 17.4485 4.62205 17.4718 4.60763 17.492L3.79431 16.9101ZM4.09487 16.6506C3.97547 16.7119 3.87243 16.8009 3.79431 16.9101L4.60763 17.492C4.5932 17.5121 4.57418 17.5286 4.55214 17.5399L4.09487 16.6506ZM4.96198 18.2454H6.20865V17.2454H4.96198V18.2454ZM5.61166 18.1007L5.43516 17.5838L4.48881 17.907L4.66531 18.4238L5.61166 18.1007ZM6.63277 17.7623H5.13848V18.7623H6.63277V17.7623ZM6.06309 18.1413L6.15961 18.4239L7.10593 18.1006L7.00941 17.8181L6.06309 18.1413ZM6.18441 18.335L6.18455 18.3351L6.88796 17.6243L6.88782 17.6242L6.18441 18.335ZM6.20865 18.2454C6.16198 18.2454 6.12885 18.2373 6.11525 18.2335C6.09981 18.2292 6.09108 18.2253 6.08972 18.2246C6.08761 18.2237 6.09442 18.2268 6.10595 18.2351C6.11748 18.2433 6.12265 18.2488 6.12106 18.2471C6.12003 18.246 6.11348 18.239 6.10442 18.2257C6.09644 18.2141 6.078 18.1853 6.0629 18.141L7.00933 17.8181C6.96747 17.6954 6.89219 17.6074 6.84974 17.5622C6.79887 17.5081 6.74215 17.4606 6.68771 17.4217C6.63328 17.3828 6.57006 17.3444 6.50237 17.3138C6.44583 17.2881 6.33823 17.2454 6.20865 17.2454V18.2454Z" fill="white" mask="url(#path-1-outside-1)"/>
</svg>
