<svg width="32" height="32" viewBox="0 0 32 32" fill="none" xmlns="http://www.w3.org/2000/svg">
<path d="M2.32382 14.6757C1.5926 15.4069 1.5929 16.5934 2.32382 17.3243L14.6753 29.6758C15.4066 30.4071 16.593 30.4068 17.324 29.6758L29.6755 17.3243C30.4067 16.5931 30.4064 15.4066 29.6755 14.6757L17.324 2.32417C16.5927 1.59295 15.4063 1.59325 14.6753 2.32417L2.32382 14.6757ZM16.4408 15.5588C16.6845 15.8025 16.6845 16.1975 16.4408 16.4412C16.1972 16.6848 15.8021 16.6848 15.5585 16.4412C15.3148 16.1975 15.3148 15.8025 15.5585 15.5588C15.8021 15.3152 16.1972 15.3152 16.4408 15.5588ZM13.7937 14.6765C14.1592 15.0419 14.1592 15.6345 13.7937 16C13.4283 16.3655 12.8357 16.3655 12.4702 16C12.1047 15.6345 12.1047 15.0419 12.4702 14.6765C12.8357 14.311 13.4283 14.311 13.7937 14.6765ZM14.6761 17.3235C14.9198 17.5672 14.9198 17.9622 14.6761 18.2059C14.4325 18.4496 14.0374 18.4496 13.7937 18.2059C13.5501 17.9622 13.5501 17.5672 13.7937 17.3235C14.0374 17.0799 14.4325 17.0799 14.6761 17.3235ZM12.9114 19.0883C13.155 19.3319 13.155 19.727 12.9114 19.9706C12.6677 20.2143 12.2727 20.2143 12.029 19.9706C11.7854 19.727 11.7854 19.3319 12.029 19.0883C12.2727 18.8446 12.6677 18.8446 12.9114 19.0883ZM21.735 10.2647C21.9787 10.5083 21.9787 10.9034 21.735 11.147C21.4913 11.3907 21.0963 11.3907 20.8526 11.147C20.609 10.9034 20.609 10.5083 20.8526 10.2647C21.0963 10.021 21.4913 10.021 21.735 10.2647ZM19.9703 12.0294C20.2139 12.273 20.2139 12.6681 19.9703 12.9117C19.7266 13.1554 19.3316 13.1554 19.0879 12.9117C18.8443 12.6681 18.8443 12.273 19.0879 12.0294C19.3316 11.7857 19.7266 11.7857 19.9703 12.0294ZM18.2056 13.7941C18.4492 14.0378 18.4492 14.4328 18.2056 14.6765C17.9619 14.9201 17.5669 14.9201 17.3232 14.6765C17.0795 14.4328 17.0795 14.0378 17.3232 13.7941C17.5669 13.5504 17.9619 13.5504 18.2056 13.7941ZM11.1467 20.853C11.3903 21.0966 11.3903 21.4917 11.1467 21.7353C10.903 21.979 10.508 21.979 10.2643 21.7353C10.0206 21.4917 10.0206 21.0966 10.2643 20.853C10.508 20.6093 10.903 20.6093 11.1467 20.853ZM11.5878 16.8824C11.9533 17.2478 11.9533 17.8404 11.5878 18.2059C11.2224 18.5714 10.6298 18.5714 10.2643 18.2059C9.89882 17.8404 9.89882 17.2478 10.2643 16.8824C10.6298 16.5169 11.2224 16.5169 11.5878 16.8824ZM9.38194 19.0883C9.74743 19.4538 9.74743 20.0463 9.38194 20.4118C9.01646 20.7773 8.42389 20.7773 8.0584 20.4118C7.69292 20.0463 7.69292 19.4538 8.0584 19.0883C8.42389 18.7228 9.01646 18.7228 9.38194 19.0883ZM20.4115 8.05875C20.7769 8.42424 20.7769 9.01681 20.4115 9.38229C20.046 9.74778 19.4534 9.74778 19.0879 9.38229C18.7224 9.01681 18.7224 8.42424 19.0879 8.05875C19.4534 7.69326 20.046 7.69326 20.4115 8.05875ZM18.2056 10.2647C18.571 10.6301 18.571 11.2227 18.2056 11.5882C17.8401 11.9537 17.2475 11.9537 16.882 11.5882C16.5165 11.2227 16.5165 10.6301 16.882 10.2647C17.2475 9.89917 17.8401 9.89917 18.2056 10.2647ZM15.9997 12.4706C16.3651 12.836 16.3651 13.4286 15.9997 13.7941C15.6342 14.1596 15.0416 14.1596 14.6761 13.7941C14.3106 13.4286 14.3106 12.836 14.6761 12.4706C15.0416 12.1051 15.6342 12.1051 15.9997 12.4706ZM11.8084 12.25C12.2958 12.7373 12.2958 13.5274 11.8084 14.0147C11.3211 14.502 10.531 14.502 10.0437 14.0147C9.5564 13.5274 9.5564 12.7373 10.0437 12.25C10.531 11.7627 11.3211 11.7627 11.8084 12.25ZM9.60253 14.4559C10.0898 14.9432 10.0898 15.7333 9.60253 16.2206C9.11522 16.7079 8.32513 16.7079 7.83781 16.2206C7.3505 15.7333 7.3505 14.9432 7.83781 14.4559C8.32513 13.9686 9.11522 13.9686 9.60253 14.4559ZM7.39663 16.6618C7.88395 17.1491 7.88395 17.9392 7.39663 18.4265C6.90932 18.9138 6.11922 18.9138 5.63191 18.4265C5.14459 17.9392 5.14459 17.1491 5.63191 16.6618C6.11922 16.1745 6.90932 16.1745 7.39663 16.6618ZM18.4261 5.63226C18.9135 6.11957 18.9135 6.90966 18.4261 7.39698C17.9388 7.88429 17.1487 7.88429 16.6614 7.39698C16.1741 6.90966 16.1741 6.11957 16.6614 5.63226C17.1487 5.14494 17.9388 5.14494 18.4261 5.63226ZM16.2202 7.83816C16.7076 8.32547 16.7076 9.11557 16.2202 9.60288C15.7329 10.0902 14.9428 10.0902 14.4555 9.60288C13.9682 9.11557 13.9682 8.32547 14.4555 7.83816C14.9428 7.35084 15.7329 7.35084 16.2202 7.83816ZM14.0143 10.0441C14.5017 10.5314 14.5017 11.3215 14.0143 11.8088C13.527 12.2961 12.7369 12.2961 12.2496 11.8088C11.7623 11.3215 11.7623 10.5314 12.2496 10.0441C12.7369 9.55675 13.527 9.55675 14.0143 10.0441ZM17.3095 3.63329C17.2463 3.71456 17.1773 3.79283 17.1026 3.86753C16.5755 4.39461 15.8714 4.63664 15.1816 4.59364C15.2246 5.28337 14.9826 5.98754 14.4555 6.51462C13.9284 7.04169 13.2243 7.28373 12.5345 7.24072C12.5775 7.93045 12.3355 8.63463 11.8084 9.1617C11.2814 9.68878 10.5772 9.93081 9.88746 9.88781C9.93046 10.5775 9.68843 11.2817 9.16135 11.8088C8.63428 12.3359 7.9301 12.5779 7.24038 12.5349C7.28338 13.2246 7.04134 13.9288 6.51427 14.4559C5.98719 14.9829 5.28302 15.225 4.59329 15.182C4.6363 15.8717 4.39426 16.5759 3.86719 17.103C3.79248 17.1777 3.71422 17.2466 3.63294 17.3099L2.98559 16.6625C2.62003 16.297 2.61998 15.7031 2.98559 15.3375L15.3371 2.98594C15.7027 2.62038 16.2966 2.62033 16.6622 2.98594L17.3095 3.63329Z" fill="white"/>
</svg>
