<svg width="32" height="32" viewBox="0 0 32 32" fill="none" xmlns="http://www.w3.org/2000/svg">
<mask id="path-1-outside-1" maskUnits="userSpaceOnUse" x="7" y="1" width="18" height="30" fill="black">
<rect fill="white" x="7" y="1" width="18" height="30"/>
<path d="M10.9267 24.8576C10.326 24.8576 9.78654 25.2554 9.60895 25.8292L8.46121 29.5374C8.44467 29.5908 8.44092 29.6474 8.45026 29.7026C8.45959 29.7577 8.48175 29.8099 8.51496 29.8549C8.54816 29.9 8.59147 29.9366 8.64141 29.9618C8.69134 29.987 8.7465 30.0001 8.80245 30.0001H23.6039C23.6599 30.0001 23.715 29.987 23.765 29.9618C23.8149 29.9366 23.8582 29.9 23.8914 29.8549C23.9246 29.8099 23.9468 29.7577 23.9561 29.7026C23.9654 29.6474 23.9617 29.5908 23.9452 29.5374L22.7974 25.8292C22.6198 25.2554 22.0803 24.8576 21.4796 24.8576H10.9267ZM10.9267 25.5718H21.4796C21.711 25.5718 22.0467 25.8193 22.1151 26.0403L23.1196 29.2858H9.28696L10.2913 26.0403C10.3597 25.8193 10.6953 25.5718 10.9267 25.5718Z"/>
<path d="M20.0404 22.4256L12.3115 23.0169C11.7893 23.0568 11.3546 23.4226 11.2261 23.9301L10.9231 25.127C10.9097 25.1796 10.9086 25.2347 10.9198 25.2879C10.9309 25.3411 10.9541 25.391 10.9875 25.4339C11.0208 25.4768 11.0636 25.5115 11.1124 25.5354C11.1612 25.5593 11.2148 25.5717 11.2692 25.5717H21.1369C21.1893 25.5717 21.241 25.5602 21.2884 25.538C21.3358 25.5158 21.3777 25.4834 21.4112 25.4432C21.4448 25.403 21.469 25.3559 21.4823 25.3053C21.4956 25.2547 21.4976 25.2017 21.4882 25.1503L21.145 23.2769C21.049 22.753 20.5714 22.3851 20.0404 22.4256ZM20.0948 23.1378C20.2426 23.1265 20.4157 23.2599 20.4425 23.4057L20.7084 24.8574H11.7282L11.9186 24.1055C11.9572 23.9531 12.2092 23.741 12.3659 23.7291L20.0948 23.1378Z"/>
<path d="M18.5994 20.0264C18.5353 20.027 18.4704 20.0346 18.4056 20.05L13.8356 21.1354C13.3316 21.2551 12.9494 21.6614 12.8606 22.1718L12.6921 23.1402C12.684 23.1865 12.6852 23.2338 12.6954 23.2796C12.7057 23.3254 12.7249 23.3687 12.7519 23.407C12.7789 23.4454 12.8131 23.4781 12.8528 23.5032C12.8924 23.5283 12.9366 23.5453 12.9828 23.5534C13.029 23.5614 13.0764 23.5603 13.1221 23.55C13.1679 23.5397 13.2112 23.5205 13.2496 23.4935C13.2879 23.4665 13.3206 23.4322 13.3457 23.3926C13.3708 23.353 13.3879 23.3088 13.3959 23.2626L13.5643 22.2943C13.5922 22.1339 13.8424 21.868 14.0007 21.8304L18.5707 20.7449C18.7153 20.7105 18.7847 20.7594 18.801 20.9071L19.0073 22.774C19.0119 22.8211 19.0258 22.8668 19.0482 22.9085C19.0706 22.9502 19.101 22.987 19.1377 23.0168C19.1745 23.0467 19.2167 23.0689 19.2621 23.0822C19.3075 23.0956 19.3551 23.0998 19.4021 23.0946C19.4492 23.0894 19.4947 23.0749 19.5361 23.0519C19.5774 23.029 19.6138 22.9981 19.6432 22.9609C19.6725 22.9238 19.6941 22.8812 19.7069 22.8356C19.7196 22.7901 19.7231 22.7424 19.7173 22.6955L19.511 20.8287C19.511 20.8288 19.511 20.8287 19.511 20.8287C19.4598 20.3659 19.0484 20.0226 18.5994 20.0264Z"/>
<path d="M14.2656 8.95361C14.2097 8.95231 14.1543 8.96415 14.1038 8.98818C14.0533 9.01221 14.0091 9.04776 13.9749 9.09196C13.9407 9.13616 13.9173 9.18779 13.9066 9.24268C13.896 9.29757 13.8984 9.35419 13.9136 9.40799L16.8931 20.5281C16.905 20.5737 16.9258 20.6165 16.9543 20.654C16.9827 20.6915 17.0184 20.723 17.0591 20.7467C17.0998 20.7704 17.1448 20.7858 17.1915 20.792C17.2382 20.7982 17.2856 20.7952 17.3311 20.783C17.3766 20.7708 17.4193 20.7497 17.4566 20.721C17.4939 20.6922 17.5252 20.6564 17.5486 20.6155C17.572 20.5747 17.5871 20.5296 17.5931 20.4828C17.599 20.4361 17.5956 20.3887 17.5831 20.3433L14.6035 9.22314C14.5843 9.14747 14.5409 9.08014 14.4799 9.03147C14.4189 8.98279 14.3436 8.95545 14.2656 8.95361Z"/>
<path d="M11.8827 9.59209C11.8268 9.59081 11.7714 9.60266 11.7209 9.6267C11.6704 9.65074 11.6263 9.68629 11.5921 9.73049C11.5579 9.77469 11.5345 9.82631 11.5238 9.88119C11.5132 9.93607 11.5156 9.99268 11.5308 10.0465L14.5103 21.1664C14.5222 21.212 14.543 21.2548 14.5715 21.2923C14.6 21.3298 14.6356 21.3613 14.6763 21.385C14.717 21.4087 14.762 21.4241 14.8087 21.4303C14.8554 21.4365 14.9028 21.4334 14.9483 21.4213C14.9938 21.4091 15.0365 21.388 15.0738 21.3593C15.1111 21.3305 15.1424 21.2947 15.1658 21.2538C15.1892 21.213 15.2043 21.1679 15.2103 21.1212C15.2162 21.0744 15.2128 21.027 15.2003 20.9816L12.2207 9.86162C12.2016 9.78592 12.1581 9.71858 12.0971 9.6699C12.036 9.62122 11.9607 9.59389 11.8827 9.59209Z"/>
<path fill-rule="evenodd" clip-rule="evenodd" d="M8.14143 7.195C8.04786 6.84643 8.00071 6.48714 8 6.12572C8.00143 5.22643 8.29571 4.35214 8.83857 3.63571C9.39214 2.90429 10.1736 2.37857 11.0593 2.14143C11.4079 2.04786 11.7671 2 12.1286 2C13.0271 2.00071 13.9021 2.295 14.6186 2.83857C15.3493 3.39143 15.8757 4.17286 16.1129 5.05857C16.2064 5.40714 16.2536 5.76714 16.2536 6.12786C16.2529 7.02714 15.9586 7.90143 15.4157 8.61786C14.8621 9.34929 14.0807 9.875 13.195 10.1121C12.8464 10.2057 12.4871 10.2536 12.1257 10.2536C11.2271 10.2529 10.3521 9.95786 9.63571 9.415C8.905 8.86214 8.37857 8.08 8.14143 7.195ZM8.83143 7.01C8.75429 6.72143 8.715 6.42429 8.71429 6.12572C8.71571 5.38214 8.95929 4.65929 9.40786 4.06643C9.86571 3.46214 10.5121 3.02714 11.2443 2.83143C11.5321 2.75357 11.8293 2.71429 12.1279 2.71429C12.8714 2.715 13.595 2.95857 14.1871 3.40786C14.7914 3.865 15.2264 4.51143 15.4229 5.24357C15.5 5.53214 15.5393 5.82929 15.5393 6.12786C15.5386 6.87143 15.295 7.59429 14.8464 8.18714C14.3886 8.79143 13.7421 9.22643 13.01 9.42214C12.7221 9.5 12.425 9.53929 12.1264 9.53929C11.3829 9.53857 10.6593 9.295 10.0671 8.84572C9.46286 8.38857 9.02786 7.74214 8.83143 7.01Z"/>
</mask>
<path d="M10.9267 24.8576C10.326 24.8576 9.78654 25.2554 9.60895 25.8292L8.46121 29.5374C8.44467 29.5908 8.44092 29.6474 8.45026 29.7026C8.45959 29.7577 8.48175 29.8099 8.51496 29.8549C8.54816 29.9 8.59147 29.9366 8.64141 29.9618C8.69134 29.987 8.7465 30.0001 8.80245 30.0001H23.6039C23.6599 30.0001 23.715 29.987 23.765 29.9618C23.8149 29.9366 23.8582 29.9 23.8914 29.8549C23.9246 29.8099 23.9468 29.7577 23.9561 29.7026C23.9654 29.6474 23.9617 29.5908 23.9452 29.5374L22.7974 25.8292C22.6198 25.2554 22.0803 24.8576 21.4796 24.8576H10.9267ZM10.9267 25.5718H21.4796C21.711 25.5718 22.0467 25.8193 22.1151 26.0403L23.1196 29.2858H9.28696L10.2913 26.0403C10.3597 25.8193 10.6953 25.5718 10.9267 25.5718Z" fill="white"/>
<path d="M20.0404 22.4256L12.3115 23.0169C11.7893 23.0568 11.3546 23.4226 11.2261 23.9301L10.9231 25.127C10.9097 25.1796 10.9086 25.2347 10.9198 25.2879C10.9309 25.3411 10.9541 25.391 10.9875 25.4339C11.0208 25.4768 11.0636 25.5115 11.1124 25.5354C11.1612 25.5593 11.2148 25.5717 11.2692 25.5717H21.1369C21.1893 25.5717 21.241 25.5602 21.2884 25.538C21.3358 25.5158 21.3777 25.4834 21.4112 25.4432C21.4448 25.403 21.469 25.3559 21.4823 25.3053C21.4956 25.2547 21.4976 25.2017 21.4882 25.1503L21.145 23.2769C21.049 22.753 20.5714 22.3851 20.0404 22.4256ZM20.0948 23.1378C20.2426 23.1265 20.4157 23.2599 20.4425 23.4057L20.7084 24.8574H11.7282L11.9186 24.1055C11.9572 23.9531 12.2092 23.741 12.3659 23.7291L20.0948 23.1378Z" fill="white"/>
<path d="M18.5994 20.0264C18.5353 20.027 18.4704 20.0346 18.4056 20.05L13.8356 21.1354C13.3316 21.2551 12.9494 21.6614 12.8606 22.1718L12.6921 23.1402C12.684 23.1865 12.6852 23.2338 12.6954 23.2796C12.7057 23.3254 12.7249 23.3687 12.7519 23.407C12.7789 23.4454 12.8131 23.4781 12.8528 23.5032C12.8924 23.5283 12.9366 23.5453 12.9828 23.5534C13.029 23.5614 13.0764 23.5603 13.1221 23.55C13.1679 23.5397 13.2112 23.5205 13.2496 23.4935C13.2879 23.4665 13.3206 23.4322 13.3457 23.3926C13.3708 23.353 13.3879 23.3088 13.3959 23.2626L13.5643 22.2943C13.5922 22.1339 13.8424 21.868 14.0007 21.8304L18.5707 20.7449C18.7153 20.7105 18.7847 20.7594 18.801 20.9071L19.0073 22.774C19.0119 22.8211 19.0258 22.8668 19.0482 22.9085C19.0706 22.9502 19.101 22.987 19.1377 23.0168C19.1745 23.0467 19.2167 23.0689 19.2621 23.0822C19.3075 23.0956 19.3551 23.0998 19.4021 23.0946C19.4492 23.0894 19.4947 23.0749 19.5361 23.0519C19.5774 23.029 19.6138 22.9981 19.6432 22.9609C19.6725 22.9238 19.6941 22.8812 19.7069 22.8356C19.7196 22.7901 19.7231 22.7424 19.7173 22.6955L19.511 20.8287C19.511 20.8288 19.511 20.8287 19.511 20.8287C19.4598 20.3659 19.0484 20.0226 18.5994 20.0264Z" fill="white"/>
<path d="M14.2656 8.95361C14.2097 8.95231 14.1543 8.96415 14.1038 8.98818C14.0533 9.01221 14.0091 9.04776 13.9749 9.09196C13.9407 9.13616 13.9173 9.18779 13.9066 9.24268C13.896 9.29757 13.8984 9.35419 13.9136 9.40799L16.8931 20.5281C16.905 20.5737 16.9258 20.6165 16.9543 20.654C16.9827 20.6915 17.0184 20.723 17.0591 20.7467C17.0998 20.7704 17.1448 20.7858 17.1915 20.792C17.2382 20.7982 17.2856 20.7952 17.3311 20.783C17.3766 20.7708 17.4193 20.7497 17.4566 20.721C17.4939 20.6922 17.5252 20.6564 17.5486 20.6155C17.572 20.5747 17.5871 20.5296 17.5931 20.4828C17.599 20.4361 17.5956 20.3887 17.5831 20.3433L14.6035 9.22314C14.5843 9.14747 14.5409 9.08014 14.4799 9.03147C14.4189 8.98279 14.3436 8.95545 14.2656 8.95361Z" fill="white"/>
<path d="M11.8827 9.59209C11.8268 9.59081 11.7714 9.60266 11.7209 9.6267C11.6704 9.65074 11.6263 9.68629 11.5921 9.73049C11.5579 9.77469 11.5345 9.82631 11.5238 9.88119C11.5132 9.93607 11.5156 9.99268 11.5308 10.0465L14.5103 21.1664C14.5222 21.212 14.543 21.2548 14.5715 21.2923C14.6 21.3298 14.6356 21.3613 14.6763 21.385C14.717 21.4087 14.762 21.4241 14.8087 21.4303C14.8554 21.4365 14.9028 21.4334 14.9483 21.4213C14.9938 21.4091 15.0365 21.388 15.0738 21.3593C15.1111 21.3305 15.1424 21.2947 15.1658 21.2538C15.1892 21.213 15.2043 21.1679 15.2103 21.1212C15.2162 21.0744 15.2128 21.027 15.2003 20.9816L12.2207 9.86162C12.2016 9.78592 12.1581 9.71858 12.0971 9.6699C12.036 9.62122 11.9607 9.59389 11.8827 9.59209Z" fill="white"/>
<path fill-rule="evenodd" clip-rule="evenodd" d="M8.14143 7.195C8.04786 6.84643 8.00071 6.48714 8 6.12572C8.00143 5.22643 8.29571 4.35214 8.83857 3.63571C9.39214 2.90429 10.1736 2.37857 11.0593 2.14143C11.4079 2.04786 11.7671 2 12.1286 2C13.0271 2.00071 13.9021 2.295 14.6186 2.83857C15.3493 3.39143 15.8757 4.17286 16.1129 5.05857C16.2064 5.40714 16.2536 5.76714 16.2536 6.12786C16.2529 7.02714 15.9586 7.90143 15.4157 8.61786C14.8621 9.34929 14.0807 9.875 13.195 10.1121C12.8464 10.2057 12.4871 10.2536 12.1257 10.2536C11.2271 10.2529 10.3521 9.95786 9.63571 9.415C8.905 8.86214 8.37857 8.08 8.14143 7.195ZM8.83143 7.01C8.75429 6.72143 8.715 6.42429 8.71429 6.12572C8.71571 5.38214 8.95929 4.65929 9.40786 4.06643C9.86571 3.46214 10.5121 3.02714 11.2443 2.83143C11.5321 2.75357 11.8293 2.71429 12.1279 2.71429C12.8714 2.715 13.595 2.95857 14.1871 3.40786C14.7914 3.865 15.2264 4.51143 15.4229 5.24357C15.5 5.53214 15.5393 5.82929 15.5393 6.12786C15.5386 6.87143 15.295 7.59429 14.8464 8.18714C14.3886 8.79143 13.7421 9.22643 13.01 9.42214C12.7221 9.5 12.425 9.53929 12.1264 9.53929C11.3829 9.53857 10.6593 9.295 10.0671 8.84572C9.46286 8.38857 9.02786 7.74214 8.83143 7.01Z" fill="white"/>
<path d="M9.60895 25.8292L9.89553 25.9179L9.89554 25.9179L9.60895 25.8292ZM8.46121 29.5374L8.17462 29.4487L8.17461 29.4487L8.46121 29.5374ZM8.80245 30.0001V29.7001H8.80243L8.80245 30.0001ZM23.6039 30.0001L23.6039 29.7001H23.6039V30.0001ZM23.9452 29.5374L24.2318 29.4487L24.2318 29.4487L23.9452 29.5374ZM22.7974 25.8292L22.5108 25.9179L22.5108 25.9179L22.7974 25.8292ZM22.1151 26.0403L22.4017 25.9516L22.1151 26.0403ZM23.1196 29.2858V29.5858H23.5264L23.4061 29.1971L23.1196 29.2858ZM9.28696 29.2858L9.00037 29.1972L8.88009 29.5858H9.28696V29.2858ZM10.2913 26.0403L10.0047 25.9516L10.0047 25.9516L10.2913 26.0403ZM20.0404 22.4256L20.0175 22.1265L20.0175 22.1265L20.0404 22.4256ZM12.3115 23.0169L12.3343 23.316L12.3343 23.316L12.3115 23.0169ZM11.2261 23.9301L10.9353 23.8564L10.9353 23.8565L11.2261 23.9301ZM10.9231 25.127L10.6322 25.0533L10.6322 25.0534L10.9231 25.127ZM11.2692 25.5717L11.2691 25.8717H11.2692V25.5717ZM21.1369 25.5717V25.8717H21.137L21.1369 25.5717ZM21.4882 25.1503L21.7833 25.0963L21.7833 25.0962L21.4882 25.1503ZM21.145 23.2769L21.4401 23.2229L21.4401 23.2229L21.145 23.2769ZM20.0948 23.1378L20.072 22.8387L20.0719 22.8387L20.0948 23.1378ZM20.4425 23.4057L20.7376 23.3516L20.7375 23.3516L20.4425 23.4057ZM20.7084 24.8574V25.1574H21.0683L21.0035 24.8034L20.7084 24.8574ZM11.7282 24.8574L11.4374 24.7838L11.3427 25.1574H11.7282V24.8574ZM11.9186 24.1055L11.6278 24.0318L11.6278 24.0318L11.9186 24.1055ZM12.3659 23.7291L12.3887 24.0282L12.3888 24.0282L12.3659 23.7291ZM18.5994 20.0264L18.5969 19.7264L18.5968 19.7264L18.5994 20.0264ZM18.4056 20.05L18.3363 19.7581L18.3363 19.7581L18.4056 20.05ZM13.8356 21.1354L13.9049 21.4272H13.9049L13.8356 21.1354ZM12.8606 22.1718L12.565 22.1203L12.8606 22.1718ZM12.6921 23.1402L12.3965 23.0888L12.3965 23.0888L12.6921 23.1402ZM13.3959 23.2626L13.1003 23.2112L13.1003 23.2112L13.3959 23.2626ZM13.5643 22.2943L13.2687 22.2428L13.2687 22.2429L13.5643 22.2943ZM14.0007 21.8304L14.07 22.1223L14.07 22.1223L14.0007 21.8304ZM18.5707 20.7449L18.5014 20.453L18.5014 20.453L18.5707 20.7449ZM18.801 20.9071L19.0992 20.8742L19.0992 20.8741L18.801 20.9071ZM19.0073 22.774L19.306 22.7451L19.3055 22.7411L19.0073 22.774ZM19.7173 22.6955L19.4191 22.7284L19.4196 22.7325L19.7173 22.6955ZM14.2656 8.95361L14.2726 8.6537L14.2726 8.65369L14.2656 8.95361ZM13.9136 9.40799L14.2034 9.33034L14.2023 9.32627L13.9136 9.40799ZM16.8931 20.5281L17.1834 20.4524L17.1829 20.4505L16.8931 20.5281ZM17.5831 20.3433L17.2933 20.4209L17.2938 20.4228L17.5831 20.3433ZM14.6035 9.22314L14.3126 9.29668L14.3137 9.30079L14.6035 9.22314ZM11.8827 9.59209L11.8896 9.29217L11.8895 9.29216L11.8827 9.59209ZM11.5308 10.0465L11.8206 9.96882L11.8195 9.96475L11.5308 10.0465ZM14.5103 21.1664L14.8006 21.0907L14.8001 21.0888L14.5103 21.1664ZM15.2003 20.9816L14.9105 21.0592L14.9111 21.0611L15.2003 20.9816ZM12.2207 9.86162L11.9298 9.93516L11.9309 9.93926L12.2207 9.86162ZM8.14143 7.195L8.43121 7.11735L8.43117 7.11722L8.14143 7.195ZM8 6.12572L7.7 6.12524L7.7 6.12631L8 6.12572ZM8.83857 3.63571L9.07768 3.8169L9.07778 3.81676L8.83857 3.63571ZM11.0593 2.14143L11.1369 2.43122L11.1371 2.43117L11.0593 2.14143ZM12.1286 2L12.1288 1.7H12.1286V2ZM14.6186 2.83857L14.4372 3.07757L14.4376 3.07781L14.6186 2.83857ZM16.1129 5.05857L15.8231 5.13616L15.8231 5.13635L16.1129 5.05857ZM16.2536 6.12786L16.5536 6.1281V6.12786H16.2536ZM15.4157 8.61786L15.1766 8.43668L15.1765 8.43681L15.4157 8.61786ZM13.195 10.1121L13.1174 9.82235L13.1172 9.8224L13.195 10.1121ZM12.1257 10.2536L12.1255 10.5536H12.1257V10.2536ZM9.63571 9.415L9.81689 9.17589L9.81672 9.17576L9.63571 9.415ZM8.83143 7.01L8.54161 7.08748L8.54168 7.08774L8.83143 7.01ZM8.71429 6.12572L8.41428 6.12514L8.41429 6.12643L8.71429 6.12572ZM9.40786 4.06643L9.16874 3.88526L9.16862 3.88542L9.40786 4.06643ZM11.2443 2.83143L11.3218 3.12125L11.3226 3.12102L11.2443 2.83143ZM12.1279 2.71429L12.1281 2.41429H12.1279V2.71429ZM14.1871 3.40786L14.0058 3.64685L14.0061 3.64711L14.1871 3.40786ZM15.4229 5.24357L15.7127 5.16609L15.7126 5.16583L15.4229 5.24357ZM15.5393 6.12786L15.8393 6.12815V6.12786H15.5393ZM14.8464 8.18714L15.0855 8.36832L15.0857 8.36816L14.8464 8.18714ZM13.01 9.42214L12.9325 9.13232L12.9317 9.13255L13.01 9.42214ZM12.1264 9.53929L12.1261 9.83929H12.1264V9.53929ZM10.0671 8.84572L10.2485 8.60672L10.2481 8.60646L10.0671 8.84572ZM10.9267 24.5576C10.1945 24.5576 9.53882 25.0411 9.32236 25.7405L9.89554 25.9179C10.0342 25.4697 10.4576 25.1576 10.9267 25.1576V24.5576ZM9.32236 25.7405L8.17462 29.4487L8.74779 29.6261L9.89553 25.9179L9.32236 25.7405ZM8.17461 29.4487C8.14419 29.547 8.13729 29.6511 8.15446 29.7526L8.74605 29.6525C8.74455 29.6437 8.74516 29.6346 8.7478 29.6261L8.17461 29.4487ZM8.15446 29.7526C8.17164 29.8541 8.21242 29.9501 8.2735 30.033L8.75641 29.6769C8.75109 29.6697 8.74754 29.6613 8.74605 29.6525L8.15446 29.7526ZM8.2735 30.033C8.33459 30.1158 8.41429 30.1832 8.50616 30.2296L8.77665 29.694C8.76865 29.69 8.76172 29.6841 8.75641 29.6769L8.2735 30.033ZM8.50616 30.2296C8.59804 30.276 8.69954 30.3001 8.80246 30.3001L8.80243 29.7001C8.79347 29.7001 8.78464 29.698 8.77665 29.694L8.50616 30.2296ZM8.80245 30.3001H23.6039V29.7001H8.80245V30.3001ZM23.6039 30.3001C23.7068 30.3001 23.8083 30.276 23.9002 30.2296L23.6297 29.694C23.6217 29.698 23.6129 29.7001 23.6039 29.7001L23.6039 30.3001ZM23.9002 30.2296C23.9921 30.1832 24.0718 30.1158 24.1329 30.033L23.65 29.6769C23.6446 29.6841 23.6377 29.69 23.6297 29.694L23.9002 30.2296ZM24.1329 30.033C24.194 29.9501 24.2347 29.8541 24.2519 29.7526L23.6603 29.6525C23.6588 29.6613 23.6553 29.6697 23.65 29.6769L24.1329 30.033ZM24.2519 29.7526C24.2691 29.6511 24.2622 29.547 24.2318 29.4487L23.6586 29.6261C23.6612 29.6346 23.6618 29.6437 23.6603 29.6525L24.2519 29.7526ZM24.2318 29.4487L23.084 25.7405L22.5108 25.9179L23.6586 29.6261L24.2318 29.4487ZM23.084 25.7405C22.8675 25.0411 22.2118 24.5576 21.4796 24.5576V25.1576C21.9488 25.1576 22.3721 25.4697 22.5108 25.9179L23.084 25.7405ZM21.4796 24.5576H10.9267V25.1576H21.4796V24.5576ZM10.9267 25.8718H21.4796V25.2718H10.9267V25.8718ZM21.4796 25.8718C21.5045 25.8718 21.5839 25.8935 21.6804 25.9647C21.777 26.0358 21.8211 26.1052 21.8285 26.129L22.4017 25.9516C22.3406 25.7544 22.1827 25.5895 22.0365 25.4817C21.8902 25.3739 21.686 25.2718 21.4796 25.2718V25.8718ZM21.8285 26.129L22.833 29.3745L23.4061 29.1971L22.4017 25.9516L21.8285 26.129ZM23.1196 28.9858H9.28696V29.5858H23.1196V28.9858ZM9.57355 29.3745L10.5779 26.129L10.0047 25.9516L9.00037 29.1972L9.57355 29.3745ZM10.5779 26.129C10.5852 26.1052 10.6294 26.0358 10.7259 25.9647C10.8224 25.8935 10.9018 25.8718 10.9267 25.8718V25.2718C10.7203 25.2718 10.5162 25.3739 10.3699 25.4817C10.2236 25.5896 10.0657 25.7544 10.0047 25.9516L10.5779 26.129ZM20.0175 22.1265L12.2886 22.7178L12.3343 23.316L20.0633 22.7248L20.0175 22.1265ZM12.2886 22.7178C11.638 22.7675 11.0955 23.224 10.9353 23.8564L11.5169 24.0038C11.6138 23.6211 11.9406 23.3461 12.3343 23.316L12.2886 22.7178ZM10.9353 23.8565L10.6322 25.0533L11.2139 25.2006L11.5169 24.0037L10.9353 23.8565ZM10.6322 25.0534C10.6077 25.1503 10.6056 25.2516 10.6262 25.3495L11.2134 25.2263C11.2116 25.2178 11.2118 25.2089 11.2139 25.2005L10.6322 25.0534ZM10.6262 25.3495C10.6467 25.4473 10.6893 25.5392 10.7507 25.6181L11.2242 25.2496C11.2189 25.2428 11.2152 25.2348 11.2134 25.2263L10.6262 25.3495ZM10.7507 25.6181C10.8121 25.6971 10.8907 25.7609 10.9806 25.8049L11.2442 25.2659C11.2364 25.2621 11.2296 25.2565 11.2242 25.2496L10.7507 25.6181ZM10.9806 25.8049C11.0704 25.8488 11.1691 25.8717 11.2691 25.8717L11.2693 25.2717C11.2606 25.2717 11.252 25.2697 11.2442 25.2659L10.9806 25.8049ZM11.2692 25.8717H21.1369V25.2717H11.2692V25.8717ZM21.137 25.8717C21.2333 25.8717 21.3284 25.8505 21.4156 25.8097L21.1611 25.2663C21.1535 25.2699 21.1453 25.2717 21.1369 25.2717L21.137 25.8717ZM21.4156 25.8097C21.5029 25.7688 21.58 25.7093 21.6417 25.6353L21.1808 25.2511C21.1754 25.2576 21.1687 25.2628 21.1611 25.2663L21.4156 25.8097ZM21.6417 25.6353C21.7033 25.5613 21.748 25.4747 21.7725 25.3815L21.1922 25.2291C21.19 25.2372 21.1862 25.2447 21.1808 25.2511L21.6417 25.6353ZM21.7725 25.3815C21.797 25.2884 21.8007 25.191 21.7833 25.0963L21.1931 25.2042C21.1946 25.2125 21.1943 25.221 21.1922 25.2291L21.7725 25.3815ZM21.7833 25.0962L21.4401 23.2229L20.8499 23.331L21.1931 25.2043L21.7833 25.0962ZM21.4401 23.2229C21.3164 22.5479 20.7016 22.0743 20.0175 22.1265L20.0632 22.7248C20.4413 22.6959 20.7816 22.9582 20.8499 23.331L21.4401 23.2229ZM20.1177 23.437C20.106 23.4379 20.1026 23.4354 20.108 23.4374C20.1132 23.4392 20.1217 23.4433 20.131 23.4505C20.1403 23.4577 20.1464 23.4648 20.1495 23.4693C20.1527 23.474 20.1495 23.4713 20.1474 23.4598L20.7375 23.3516C20.7073 23.1865 20.6033 23.057 20.4971 22.9752C20.3909 22.8934 20.2392 22.8259 20.072 22.8387L20.1177 23.437ZM20.1474 23.4597L20.4133 24.9115L21.0035 24.8034L20.7376 23.3516L20.1474 23.4597ZM20.7084 24.5574H11.7282V25.1574H20.7084V24.5574ZM12.019 24.9311L12.2094 24.1791L11.6278 24.0318L11.4374 24.7838L12.019 24.9311ZM12.2094 24.1791C12.2054 24.1948 12.2032 24.1898 12.2217 24.1655C12.2379 24.1442 12.2618 24.1188 12.2911 24.0942C12.3204 24.0695 12.3495 24.0502 12.3732 24.0379C12.4003 24.0239 12.4049 24.027 12.3887 24.0282L12.343 23.4299C12.1697 23.4432 12.0074 23.5487 11.9048 23.6351C11.8021 23.7215 11.6705 23.8633 11.6278 24.0318L12.2094 24.1791ZM12.3888 24.0282L20.1177 23.437L20.0719 22.8387L12.343 23.4299L12.3888 24.0282ZM18.5968 19.7264C18.5106 19.7272 18.4233 19.7375 18.3363 19.7581L18.475 20.3419C18.5175 20.3318 18.56 20.3268 18.6021 20.3264L18.5968 19.7264ZM18.3363 19.7581L13.7663 20.8435L13.9049 21.4272L18.475 20.3419L18.3363 19.7581ZM13.7663 20.8435C13.1455 20.9909 12.6744 21.4919 12.565 22.1203L13.1561 22.2232C13.2244 21.831 13.5177 21.5192 13.9049 21.4272L13.7663 20.8435ZM12.565 22.1203L12.3965 23.0888L12.9876 23.1917L13.1561 22.2232L12.565 22.1203ZM12.3965 23.0888C12.3817 23.1739 12.3838 23.261 12.4027 23.3452L12.9882 23.214C12.9865 23.2066 12.9863 23.1991 12.9876 23.1917L12.3965 23.0888ZM12.4027 23.3452C12.4216 23.4294 12.4568 23.5091 12.5065 23.5797L12.9972 23.2344C12.9929 23.2282 12.9898 23.2213 12.9882 23.214L12.4027 23.3452ZM12.5065 23.5797C12.5562 23.6503 12.6193 23.7104 12.6922 23.7566L13.0134 23.2498C13.007 23.2457 13.0015 23.2405 12.9972 23.2344L12.5065 23.5797ZM12.6922 23.7566C12.7651 23.8028 12.8464 23.8342 12.9314 23.8489L13.0342 23.2578C13.0268 23.2565 13.0197 23.2538 13.0134 23.2498L12.6922 23.7566ZM12.9314 23.8489C13.0164 23.8637 13.1036 23.8616 13.1878 23.8427L13.0565 23.2573C13.0491 23.2589 13.0416 23.2591 13.0342 23.2578L12.9314 23.8489ZM13.1878 23.8427C13.272 23.8238 13.3517 23.7885 13.4222 23.7389L13.0769 23.2482C13.0707 23.2525 13.0638 23.2556 13.0565 23.2573L13.1878 23.8427ZM13.4222 23.7389C13.4928 23.6892 13.5529 23.6261 13.5991 23.5532L13.0923 23.2321C13.0883 23.2384 13.083 23.2439 13.0769 23.2482L13.4222 23.7389ZM13.5991 23.5532C13.6453 23.4803 13.6767 23.399 13.6915 23.3139L13.1003 23.2112C13.099 23.2186 13.0963 23.2257 13.0923 23.2321L13.5991 23.5532ZM13.6914 23.314L13.8598 22.3457L13.2687 22.2429L13.1003 23.2112L13.6914 23.314ZM13.8598 22.3457C13.8575 22.3593 13.8566 22.3502 13.8768 22.3177C13.8946 22.2891 13.9206 22.2553 13.9521 22.2218C13.9836 22.1884 14.0157 22.1604 14.0431 22.1409C14.0744 22.1188 14.0834 22.1191 14.07 22.1223L13.9313 21.5385C13.8387 21.5605 13.7572 21.6081 13.6961 21.6514C13.6312 21.6974 13.5694 21.753 13.5151 21.8107C13.4607 21.8685 13.4091 21.9336 13.3671 22.0011C13.3276 22.0647 13.285 22.149 13.2687 22.2428L13.8598 22.3457ZM14.07 22.1223L18.64 21.0368L18.5014 20.453L13.9313 21.5385L14.07 22.1223ZM18.64 21.0368C18.6573 21.0327 18.6562 21.0351 18.6426 21.0341C18.6265 21.0329 18.5947 21.0266 18.5612 21.003C18.5277 20.9794 18.5111 20.9516 18.5045 20.9367C18.4989 20.9244 18.5009 20.9225 18.5028 20.9401L19.0992 20.8741C19.0878 20.7709 19.0502 20.6135 18.9067 20.5125C18.7632 20.4114 18.6024 20.429 18.5014 20.453L18.64 21.0368ZM18.5028 20.9401L18.7092 22.807L19.3055 22.7411L19.0992 20.8742L18.5028 20.9401ZM18.7088 22.803C18.7172 22.8896 18.7427 22.9737 18.7839 23.0504L19.3125 22.7666C19.3089 22.7599 19.3067 22.7526 19.3059 22.7451L18.7088 22.803ZM18.7839 23.0504C18.825 23.1271 18.881 23.1949 18.9486 23.2497L19.3268 22.7839C19.3209 22.7792 19.3161 22.7733 19.3125 22.7666L18.7839 23.0504ZM18.9486 23.2497C19.0162 23.3046 19.094 23.3455 19.1775 23.3701L19.3467 22.7944C19.3395 22.7923 19.3327 22.7887 19.3268 22.7839L18.9486 23.2497ZM19.1775 23.3701C19.261 23.3946 19.3486 23.4023 19.4351 23.3927L19.3691 22.7964C19.3616 22.7972 19.354 22.7965 19.3467 22.7944L19.1775 23.3701ZM19.4351 23.3927C19.5216 23.3832 19.6054 23.3565 19.6815 23.3143L19.3906 22.7896C19.384 22.7932 19.3767 22.7955 19.3691 22.7964L19.4351 23.3927ZM19.6815 23.3143C19.7577 23.2721 19.8246 23.2152 19.8786 23.1469L19.4077 22.775C19.403 22.7809 19.3972 22.7859 19.3906 22.7896L19.6815 23.3143ZM19.8786 23.1469C19.9325 23.0785 19.9724 23.0002 19.9958 22.9164L19.4179 22.7549C19.4159 22.7622 19.4124 22.769 19.4077 22.775L19.8786 23.1469ZM19.9958 22.9164C20.0192 22.8325 20.0258 22.7449 20.015 22.6585L19.4196 22.7325C19.4205 22.74 19.42 22.7476 19.4179 22.7549L19.9958 22.9164ZM20.0155 22.6625L19.8092 20.7958L19.2128 20.8617L19.4191 22.7284L20.0155 22.6625ZM19.811 20.8288C19.811 20.8288 19.811 20.8288 19.811 20.8288C19.811 20.8288 19.811 20.8288 19.811 20.8288C19.811 20.8288 19.811 20.8289 19.811 20.8289C19.811 20.8289 19.811 20.829 19.811 20.8291C19.811 20.8292 19.811 20.8293 19.811 20.8293C19.811 20.8294 19.811 20.8296 19.811 20.8299C19.811 20.83 19.811 20.8305 19.811 20.8311C19.811 20.8314 19.811 20.8324 19.8109 20.833C19.8109 20.8345 19.8105 20.8453 19.8099 20.8544C19.5065 21.1287 19.2112 20.8403 19.211 20.8351C19.211 20.8338 19.211 20.8321 19.211 20.8315C19.211 20.8307 19.211 20.8301 19.211 20.83C19.211 20.8297 19.211 20.8294 19.211 20.8293C19.211 20.8292 19.211 20.8292 19.211 20.8291C19.211 20.829 19.211 20.829 19.211 20.8289C19.211 20.8289 19.211 20.8288 19.211 20.8288C19.211 20.8288 19.211 20.8288 19.211 20.8288C19.211 20.8288 19.211 20.8288 19.211 20.8287C19.211 20.8287 19.211 20.8287 19.211 20.8287C19.211 20.8287 19.211 20.8287 19.211 20.8287C19.211 20.8287 19.211 20.8287 19.211 20.8287C19.211 20.8286 19.211 20.8286 19.211 20.8286C19.211 20.8286 19.211 20.8285 19.211 20.8285C19.211 20.8285 19.211 20.8284 19.211 20.8283C19.211 20.8283 19.211 20.8282 19.211 20.8281C19.211 20.828 19.211 20.8278 19.211 20.8274C19.211 20.8273 19.211 20.8267 19.211 20.8259C19.211 20.8254 19.211 20.8236 19.211 20.8224C19.2112 20.8171 19.5065 20.5288 19.8099 20.803C19.8105 20.8122 19.8109 20.8229 19.8109 20.8244C19.811 20.8251 19.811 20.826 19.811 20.8264C19.811 20.827 19.811 20.8274 19.811 20.8275C19.811 20.8278 19.811 20.828 19.811 20.8281C19.811 20.8282 19.811 20.8283 19.811 20.8283C19.811 20.8284 19.811 20.8285 19.811 20.8285C19.811 20.8286 19.811 20.8286 19.811 20.8286C19.811 20.8286 19.811 20.8286 19.811 20.8286C19.811 20.8287 19.811 20.8287 19.811 20.8287L19.211 20.8288C19.211 20.8288 19.211 20.8288 19.211 20.8289C19.211 20.8289 19.211 20.8289 19.211 20.8289C19.211 20.8289 19.211 20.829 19.211 20.8292C19.211 20.8292 19.211 20.8293 19.211 20.8294C19.211 20.8294 19.211 20.8297 19.211 20.83C19.211 20.8301 19.211 20.8305 19.211 20.8311C19.211 20.8314 19.211 20.8324 19.211 20.833C19.211 20.8346 19.2114 20.8453 19.2121 20.8545C19.5154 21.1287 19.8108 20.8404 19.8109 20.8351C19.8109 20.8339 19.811 20.8321 19.811 20.8316C19.811 20.8308 19.811 20.8301 19.811 20.8301C19.811 20.8297 19.811 20.8294 19.811 20.8294C19.811 20.8293 19.811 20.8292 19.811 20.8291C19.811 20.8291 19.811 20.829 19.811 20.829C19.811 20.8289 19.811 20.8289 19.811 20.8289C19.811 20.8288 19.811 20.8288 19.811 20.8288C19.811 20.8288 19.811 20.8288 19.811 20.8288C19.811 20.8287 19.811 20.8287 19.811 20.8287C19.811 20.8287 19.811 20.8287 19.811 20.8287C19.811 20.8287 19.811 20.8286 19.811 20.8286C19.811 20.8286 19.811 20.8286 19.811 20.8286C19.811 20.8286 19.811 20.8285 19.811 20.8285C19.811 20.8284 19.811 20.8284 19.811 20.8283C19.811 20.8282 19.811 20.8282 19.811 20.8281C19.811 20.828 19.811 20.8277 19.811 20.8274C19.811 20.8273 19.811 20.8267 19.811 20.8259C19.811 20.8253 19.8109 20.8236 19.8109 20.8223C19.8108 20.8171 19.5154 20.5287 19.2121 20.803C19.2114 20.8122 19.211 20.8229 19.211 20.8244C19.211 20.825 19.211 20.826 19.211 20.8264C19.211 20.8269 19.211 20.8274 19.211 20.8275C19.211 20.8278 19.211 20.828 19.211 20.8281C19.211 20.8282 19.211 20.8282 19.211 20.8283C19.211 20.8284 19.211 20.8285 19.211 20.8285C19.211 20.8285 19.211 20.8286 19.211 20.8286C19.211 20.8286 19.211 20.8287 19.211 20.8287L19.811 20.8288ZM19.8092 20.7957C19.7403 20.1733 19.193 19.7214 18.5969 19.7264L18.602 20.3264C18.9038 20.3238 19.1792 20.5584 19.2128 20.8617L19.8092 20.7957ZM14.2726 8.65369C14.1697 8.6513 14.0677 8.67308 13.9749 8.7173L14.2327 9.25906C14.2408 9.25522 14.2497 9.25332 14.2586 9.25353L14.2726 8.65369ZM13.9749 8.7173C13.882 8.76151 13.8007 8.82691 13.7377 8.90824L14.2121 9.27568C14.2176 9.2686 14.2246 9.26291 14.2327 9.25906L13.9749 8.7173ZM13.7377 8.90824C13.6747 8.98957 13.6317 9.08456 13.6121 9.18555L14.2011 9.29981C14.2028 9.29102 14.2066 9.28275 14.2121 9.27568L13.7377 8.90824ZM13.6121 9.18555C13.5925 9.28655 13.5969 9.39073 13.625 9.48972L14.2023 9.32627C14.1998 9.31766 14.1994 9.30859 14.2011 9.29981L13.6121 9.18555ZM13.6238 9.48564L16.6033 20.6058L17.1829 20.4505L14.2034 9.33035L13.6238 9.48564ZM16.6028 20.6038C16.6247 20.6877 16.6629 20.7664 16.7153 20.8354L17.1932 20.4725C17.1886 20.4665 17.1853 20.4597 17.1834 20.4524L16.6028 20.6038ZM16.7153 20.8354C16.7678 20.9044 16.8333 20.9624 16.9082 21.006L17.21 20.4874C17.2034 20.4836 17.1977 20.4785 17.1932 20.4725L16.7153 20.8354ZM16.9082 21.006C16.9831 21.0496 17.0659 21.0779 17.1518 21.0894L17.2312 20.4946C17.2237 20.4936 17.2165 20.4912 17.21 20.4874L16.9082 21.006ZM17.1518 21.0894C17.2377 21.1008 17.3251 21.0952 17.4088 21.0727L17.2535 20.4932C17.2462 20.4951 17.2386 20.4956 17.2312 20.4946L17.1518 21.0894ZM17.4088 21.0727C17.4925 21.0503 17.5709 21.0116 17.6396 20.9587L17.2736 20.4833C17.2676 20.4879 17.2608 20.4912 17.2535 20.4932L17.4088 21.0727ZM17.6396 20.9587C17.7083 20.9058 17.7658 20.8399 17.8089 20.7647L17.2883 20.4664C17.2846 20.4729 17.2796 20.4787 17.2736 20.4833L17.6396 20.9587ZM17.8089 20.7647C17.852 20.6895 17.8798 20.6065 17.8907 20.5206L17.2954 20.4451C17.2945 20.4526 17.2921 20.4598 17.2883 20.4664L17.8089 20.7647ZM17.8907 20.5206C17.9016 20.4346 17.8954 20.3473 17.8724 20.2637L17.2938 20.4228C17.2958 20.4301 17.2964 20.4377 17.2954 20.4451L17.8907 20.5206ZM17.8729 20.2656L14.8933 9.1455L14.3137 9.30079L17.2933 20.4209L17.8729 20.2656ZM14.8943 9.14961C14.8591 9.01037 14.7793 8.8865 14.667 8.79694L14.2929 9.26599C14.3026 9.27379 14.3096 9.28456 14.3126 9.29668L14.8943 9.14961ZM14.667 8.79694C14.5547 8.70738 14.4162 8.65707 14.2726 8.6537L14.2585 9.25353C14.271 9.25382 14.2831 9.2582 14.2929 9.26599L14.667 8.79694ZM11.8895 9.29216C11.7867 9.28981 11.6848 9.31163 11.5919 9.35586L11.8499 9.89755C11.858 9.8937 11.8669 9.8918 11.8758 9.89201L11.8895 9.29216ZM11.5919 9.35586C11.499 9.40009 11.4179 9.46549 11.3549 9.54682L11.8293 9.91416C11.8348 9.90709 11.8418 9.9014 11.8499 9.89755L11.5919 9.35586ZM11.3549 9.54682C11.2919 9.62814 11.2489 9.72311 11.2293 9.82409L11.8184 9.93829C11.8201 9.9295 11.8238 9.92124 11.8293 9.91416L11.3549 9.54682ZM11.2293 9.82409C11.2098 9.92506 11.2142 10.0292 11.2422 10.1282L11.8195 9.96475C11.817 9.95614 11.8167 9.94707 11.8184 9.93829L11.2293 9.82409ZM11.241 10.1241L14.2205 21.2441L14.8001 21.0888L11.8206 9.96882L11.241 10.1241ZM14.22 21.2422C14.2419 21.3261 14.2802 21.4048 14.3326 21.4738L14.8104 21.1108C14.8058 21.1048 14.8025 21.098 14.8006 21.0907L14.22 21.2422ZM14.3326 21.4738C14.385 21.5428 14.4506 21.6007 14.5255 21.6443L14.8272 21.1257C14.8207 21.1219 14.8149 21.1168 14.8104 21.1108L14.3326 21.4738ZM14.5255 21.6443C14.6004 21.6879 14.6832 21.7162 14.7691 21.7277L14.8484 21.1329C14.8409 21.1319 14.8337 21.1295 14.8272 21.1257L14.5255 21.6443ZM14.7691 21.7277C14.855 21.7391 14.9423 21.7335 15.026 21.711L14.8707 21.1315C14.8634 21.1334 14.8558 21.1339 14.8484 21.1329L14.7691 21.7277ZM15.026 21.711C15.1097 21.6886 15.1881 21.6498 15.2568 21.597L14.8908 21.1215C14.8848 21.1261 14.878 21.1295 14.8707 21.1315L15.026 21.711ZM15.2568 21.597C15.3255 21.5441 15.383 21.4782 15.4261 21.403L14.9055 21.1047C14.9018 21.1112 14.8968 21.1169 14.8908 21.1215L15.2568 21.597ZM15.4261 21.403C15.4692 21.3278 15.497 21.2449 15.5079 21.1589L14.9126 21.0834C14.9117 21.0909 14.9093 21.0981 14.9055 21.1047L15.4261 21.403ZM15.5079 21.1589C15.5188 21.0729 15.5126 20.9857 15.4896 20.9021L14.9111 21.0611C14.913 21.0684 14.9136 21.076 14.9126 21.0834L15.5079 21.1589ZM15.4901 20.9039L12.5105 9.78397L11.9309 9.93926L14.9106 21.0592L15.4901 20.9039ZM12.5115 9.78808C12.4763 9.6488 12.3964 9.5249 12.2841 9.43534L11.9101 9.90446C11.9198 9.91225 11.9268 9.92303 11.9298 9.93515L12.5115 9.78808ZM12.2841 9.43534C12.1718 9.34578 12.0332 9.29548 11.8896 9.29217L11.8757 9.89201C11.8882 9.89229 11.9003 9.89667 11.9101 9.90446L12.2841 9.43534ZM8.43117 7.11722C8.34445 6.79416 8.30066 6.46084 8.3 6.12512L7.7 6.12631C7.70077 6.51345 7.75127 6.89869 7.85169 7.27278L8.43117 7.11722ZM8.3 6.12619C8.30132 5.29207 8.57428 4.48125 9.07768 3.81689L8.59946 3.45453C8.01714 4.22304 7.70153 5.16079 7.7 6.12524L8.3 6.12619ZM9.07778 3.81676C9.59108 3.13855 10.3156 2.6511 11.1369 2.43122L10.9817 1.85164C10.0315 2.10604 9.19321 2.67002 8.59936 3.45467L9.07778 3.81676ZM11.1371 2.43117C11.4605 2.34435 11.7937 2.3 12.1286 2.3V1.7C11.7406 1.7 11.3552 1.75137 10.9815 1.85169L11.1371 2.43117ZM12.1283 2.3C12.9616 2.30066 13.773 2.57357 14.4372 3.07757L14.7999 2.59958C14.0313 2.01643 13.0927 1.70077 12.1288 1.7L12.1283 2.3ZM14.4376 3.07781C15.1151 3.59044 15.6032 4.31502 15.8231 5.13616L16.4027 4.98098C16.1482 4.0307 15.5835 3.19242 14.7996 2.59933L14.4376 3.07781ZM15.8231 5.13635C15.9098 5.45938 15.9536 5.79323 15.9536 6.12786H16.5536C16.5536 5.74106 16.503 5.3549 16.4026 4.98079L15.8231 5.13635ZM15.9536 6.12762C15.9529 6.96157 15.68 7.77232 15.1766 8.43668L15.6548 8.79904C16.2371 8.03054 16.5528 7.09272 16.5536 6.1281L15.9536 6.12762ZM15.1765 8.43681C14.6632 9.11502 13.9387 9.60247 13.1174 9.82235L13.2726 10.4019C14.2228 10.1475 15.0611 9.58355 15.6549 8.7989L15.1765 8.43681ZM13.1172 9.8224C12.7938 9.90923 12.4606 9.95357 12.1257 9.95357V10.5536C12.5136 10.5536 12.8991 10.5022 13.2728 10.4019L13.1172 9.8224ZM12.126 9.95357C11.2929 9.95291 10.4814 9.67937 9.81689 9.17589L9.45453 9.65411C10.2229 10.2363 11.1614 10.5528 12.1255 10.5536L12.126 9.95357ZM9.81672 9.17576C9.13923 8.66317 8.65108 7.93789 8.43121 7.11735L7.85165 7.27265C8.10607 8.22211 8.67077 9.06111 9.45471 9.65424L9.81672 9.17576ZM9.12125 6.93252C9.05082 6.66906 9.01494 6.39772 9.01428 6.125L8.41429 6.12643C8.41506 6.45086 8.45775 6.7738 8.54161 7.08748L9.12125 6.93252ZM9.01429 6.12629C9.01559 5.4479 9.23781 4.78837 9.64709 4.24744L9.16862 3.88542C8.68076 4.5302 8.41584 5.31639 8.41429 6.12514L9.01429 6.12629ZM9.64697 4.2476C10.0646 3.6964 10.6542 3.2997 11.3218 3.12125L11.1668 2.54161C10.3701 2.75459 9.66682 3.22789 9.16874 3.88526L9.64697 4.2476ZM11.3226 3.12102C11.5848 3.05011 11.8556 3.01429 12.1279 3.01429V2.41429C11.803 2.41429 11.4795 2.45703 11.166 2.54183L11.3226 3.12102ZM12.1276 3.01429C12.8058 3.01494 13.4658 3.23713 14.0058 3.64685L14.3685 3.16886C13.7242 2.68001 12.937 2.41506 12.1281 2.41429L12.1276 3.01429ZM14.0061 3.64711C14.5572 4.06395 14.9539 4.65352 15.1331 5.32131L15.7126 5.16583C15.4989 4.36934 15.0257 3.66605 14.3681 3.16861L14.0061 3.64711ZM15.133 5.32105C15.2035 5.58452 15.2393 5.85562 15.2393 6.12786H15.8393C15.8393 5.80295 15.7965 5.47977 15.7127 5.16609L15.133 5.32105ZM15.2393 6.12757C15.2386 6.80576 15.0165 7.46519 14.6072 8.00613L15.0857 8.36816C15.5735 7.72338 15.8385 6.9371 15.8393 6.12815L15.2393 6.12757ZM14.6073 8.00597C14.1897 8.55717 13.6001 8.95387 12.9325 9.13232L13.0875 9.71197C13.8842 9.49899 14.5875 9.02568 15.0855 8.36832L14.6073 8.00597ZM12.9317 9.13255C12.6695 9.20346 12.3987 9.23929 12.1264 9.23929V9.83929C12.4513 9.83929 12.7748 9.79654 13.0883 9.71174L12.9317 9.13255ZM12.1267 9.23929C11.4484 9.23864 10.7885 9.01644 10.2485 8.60672L9.88581 9.08471C10.5301 9.57356 11.3173 9.83851 12.1261 9.83929L12.1267 9.23929ZM10.2481 8.60646C9.69712 8.18962 9.30034 7.60005 9.12118 6.93226L8.54168 7.08774C8.75537 7.88424 9.2286 8.58753 9.88615 9.08497L10.2481 8.60646Z" fill="white" mask="url(#path-1-outside-1)"/>
</svg>
