<svg width="32" height="32" viewBox="0 0 32 32" fill="none" xmlns="http://www.w3.org/2000/svg">
<path d="M14.7568 7.39988C14.7033 7.44047 14.6318 7.50516 14.5732 7.60165C14.4949 7.73062 14.4438 7.90943 14.4781 8.14945C14.6276 9.19617 14.6154 13.2584 7.97788 21.3924C6.44174 21.1608 4.90855 21.7014 3.93288 22.8967C3.16963 23.7877 2.82005 24.9017 2.91535 26.077C3.01088 27.2553 3.58416 28.3047 4.47291 29.0665C5.36447 29.8307 6.51008 30.1801 7.68524 30.0848C8.86349 29.9893 9.9129 29.416 10.6747 28.5273L10.6752 28.5266C11.6805 27.3328 11.972 25.7351 11.4582 24.2562C18.2921 16.2621 22.3261 15.5698 23.3745 15.5393C23.6892 15.5389 23.8681 15.3964 23.9721 15.2925L23.9836 15.281L23.9908 15.2665C23.9996 15.2489 24.0068 15.2369 24.0158 15.222C24.0212 15.213 24.0273 15.2029 24.0348 15.1898C24.053 15.1579 24.0715 15.1208 24.0895 15.0669L24.0946 15.0515V15.0353C24.0946 15.0274 24.0948 15.0182 24.095 15.0079C24.0962 14.9463 24.0982 14.8433 24.0679 14.7298C24.0316 14.5935 23.9502 14.4431 23.7783 14.3052C23.778 14.305 23.7777 14.3047 23.7774 14.3045L15.636 7.46818L15.636 7.46816L15.6342 7.46668C15.3145 7.21091 15.0076 7.24311 14.8608 7.32044H14.8568H14.7568V7.39988ZM4.83196 23.647L4.83265 23.6462C5.4041 22.9544 6.18638 22.5921 7.00256 22.501C7.81607 22.4412 8.66033 22.6822 9.35459 23.225C10.7101 24.3709 10.8901 26.4204 9.74533 27.7761C8.5995 29.133 6.5801 29.3133 5.22412 28.1682C3.86722 27.0224 3.6869 25.003 4.83196 23.647ZM10.1018 22.3233C9.81915 22.0972 9.50981 21.8952 9.17368 21.7408C14.455 15.1853 15.567 11.086 15.665 9.05854L22.1907 14.5164C20.2116 14.9967 16.379 16.7786 10.8577 23.1382C10.6451 22.8344 10.3855 22.5785 10.1062 22.3271L10.1063 22.327L10.1018 22.3233ZM20.8723 8.69203L20.872 8.69182L20.8673 8.69839C20.6827 8.95688 20.7201 9.32204 20.9402 9.54209C21.0588 9.6607 21.213 9.6957 21.3528 9.6957C21.5116 9.6957 21.6634 9.61631 21.773 9.47144L25.1254 5.46718C25.2413 5.34902 25.2757 5.19634 25.2757 5.05789C25.2757 4.89922 25.1964 4.74753 25.0518 4.63796C24.795 4.4201 24.4193 4.45093 24.2265 4.71661L20.8723 8.69203ZM28.0954 7.74745L28.0953 7.7476L24.0858 11.1043L24.0856 11.104L24.0793 11.1103C23.975 11.2146 23.9012 11.3249 23.8655 11.5033L23.8635 11.513V11.5229C23.8635 11.6545 23.8948 11.8398 24.0121 11.9614C24.1284 12.1123 24.3143 12.1824 24.4919 12.1824C24.6108 12.1824 24.7283 12.1413 24.8391 12.032L28.8453 8.67797L28.8455 8.67827L28.8518 8.67201L28.9139 8.60985L28.9142 8.61014L28.9201 8.60315C29.1064 8.37958 29.1064 8.07707 28.9201 7.85349L28.9192 7.85244C28.7021 7.59925 28.3297 7.55227 28.0954 7.74745ZM20.9731 1.99115L20.9735 1.9905L20.9623 1.98491C20.8273 1.9174 20.6772 1.87596 20.5204 1.91518C20.3619 1.9548 20.2506 2.07096 20.1817 2.17429L20.1815 2.17417L20.1782 2.17989L17.5674 6.7177L17.5673 6.71761L17.5647 6.72284C17.4971 6.85787 17.4557 7.00791 17.4949 7.16479C17.5328 7.31629 17.6434 7.42675 17.7312 7.51442L17.7388 7.52206L17.7458 7.52906L17.754 7.53455C17.8726 7.61361 17.9923 7.61355 18.0829 7.61351L18.0892 7.61351C18.2488 7.61351 18.4014 7.53331 18.5111 7.38702L18.5117 7.38744L18.5176 7.37726L21.1905 2.77729L21.1907 2.77739L21.1935 2.77177C21.261 2.63675 21.3025 2.48671 21.2633 2.32983L21.2591 2.31302L21.2494 2.29861C21.1875 2.20574 21.0847 2.0656 20.9731 1.99115Z" fill="white" stroke="white" stroke-width="0.2"/>
</svg>
