<svg width="32" height="32" viewBox="0 0 32 32" fill="none" xmlns="http://www.w3.org/2000/svg">
<path d="M6.5 9.90479L6.27381 10.1786L4.59524 12.1905H0V19.8095H4.59524L6.27381 21.8215L6.5 22.0953H12.9524V9.90479H6.5ZM19.0476 9.90479V11.8095H14.8571V20.1905H19.0476V22.0953H25.5L25.7262 21.8215L27.4048 19.8095H32V12.1905H27.4048L25.7262 10.1786L25.5 9.90479H19.0476ZM7.21429 11.4286H11.4286V20.5715H7.21429L5.53571 18.5595L5.30952 18.2857H1.52381V13.7143H5.30952L5.53571 13.4405L7.21429 11.4286ZM20.5714 11.4286H24.7857L26.4643 13.4405L26.6905 13.7143H30.4762V18.2857H26.6905L26.4643 18.5595L24.7857 20.5715H20.5714V11.4286ZM16.381 13.3334H19.0476V18.6667H16.381V13.3334Z" fill="white"/>
</svg>
