<svg width="32" height="32" viewBox="0 0 32 32" fill="none" xmlns="http://www.w3.org/2000/svg">
<mask id="path-1-outside-1" maskUnits="userSpaceOnUse" x="1" y="1" width="30" height="30" fill="black">
<rect fill="white" x="1" y="1" width="30" height="30"/>
<path fill-rule="evenodd" clip-rule="evenodd" d="M2.95431 28.255C2.73572 28.4736 2.38239 28.4736 2.1638 28.255C1.94521 28.0364 1.94521 27.6826 2.1638 27.4645L3.35012 26.2782L2.95487 25.883C2.73628 25.6644 2.73628 25.311 2.95487 25.0924L25.0924 2.95487C25.2015 2.84586 25.3446 2.79107 25.4877 2.79107C25.6308 2.79107 25.7739 2.84586 25.883 2.95487L26.2782 3.35013L27.4645 2.16381C27.5735 2.05479 27.7167 2 27.8598 2C28.0029 2 28.146 2.05479 28.255 2.16381C28.4736 2.3824 28.4736 2.73572 28.255 2.95431L27.0687 4.14063L27.8598 4.93114L29.0455 3.74538C29.1546 3.63636 29.2977 3.58158 29.4408 3.58158C29.5839 3.58158 29.727 3.63636 29.8361 3.74538C30.0546 3.96397 30.0546 4.3173 29.8361 4.53589L28.6503 5.72165L29.0455 6.1169C29.1507 6.22145 29.2094 6.36345 29.2094 6.51216C29.2094 6.66087 29.1507 6.80231 29.0455 6.90741L6.90741 29.0455C6.80287 29.1507 6.66086 29.2094 6.51216 29.2094C6.36345 29.2094 6.222 29.1507 6.1169 29.0455L5.72165 28.6503L4.53588 29.8361C4.31729 30.0546 3.96397 30.0546 3.74538 29.8361C3.52679 29.6175 3.52679 29.2641 3.74538 29.0455L4.93114 27.8598L4.14063 27.0687L2.95431 28.255ZM26.2788 8.09317L23.9067 5.72165L5.72221 23.9061L8.09373 26.2782L26.2788 8.09317ZM25.883 4.53589L25.4877 4.14063L24.6966 4.93114L27.0687 7.30267L27.8598 6.51216L25.883 4.53589ZM7.30266 27.0693L4.93114 24.6972L4.14063 25.4883L4.53588 25.8835L6.51216 27.8603L7.30266 27.0693ZM20.7435 20.1845C20.8867 20.1845 21.0298 20.2393 21.1388 20.3483L22.7198 21.9293C22.9384 22.1479 22.9384 22.5012 22.7198 22.7198C22.5012 22.9384 22.1479 22.9384 21.9293 22.7198L20.3483 21.1388C20.1297 20.9202 20.1297 20.5669 20.3483 20.3483C20.4573 20.2393 20.6004 20.1845 20.7435 20.1845ZM16.5305 23.7294C16.4522 23.4952 16.2342 23.347 15.9999 23.347C15.9418 23.347 15.882 23.3566 15.8233 23.3761C15.5303 23.474 15.3721 23.7904 15.47 24.0833L16.2605 26.4549C16.3577 26.7472 16.6731 26.9066 16.9677 26.8082C17.2606 26.7103 17.4188 26.3939 17.321 26.101L16.5305 23.7294ZM24.0834 15.4693L26.4549 16.2598C26.7478 16.3576 26.906 16.6746 26.8082 16.9676C26.7109 17.26 26.3951 17.4199 26.101 17.3209L23.7295 16.5304C23.4365 16.4326 23.2783 16.1161 23.3761 15.8232C23.4544 15.5889 23.6724 15.4408 23.9067 15.4408C23.9648 15.4408 24.0246 15.4497 24.0834 15.4693Z"/>
</mask>
<path fill-rule="evenodd" clip-rule="evenodd" d="M2.95431 28.255C2.73572 28.4736 2.38239 28.4736 2.1638 28.255C1.94521 28.0364 1.94521 27.6826 2.1638 27.4645L3.35012 26.2782L2.95487 25.883C2.73628 25.6644 2.73628 25.311 2.95487 25.0924L25.0924 2.95487C25.2015 2.84586 25.3446 2.79107 25.4877 2.79107C25.6308 2.79107 25.7739 2.84586 25.883 2.95487L26.2782 3.35013L27.4645 2.16381C27.5735 2.05479 27.7167 2 27.8598 2C28.0029 2 28.146 2.05479 28.255 2.16381C28.4736 2.3824 28.4736 2.73572 28.255 2.95431L27.0687 4.14063L27.8598 4.93114L29.0455 3.74538C29.1546 3.63636 29.2977 3.58158 29.4408 3.58158C29.5839 3.58158 29.727 3.63636 29.8361 3.74538C30.0546 3.96397 30.0546 4.3173 29.8361 4.53589L28.6503 5.72165L29.0455 6.1169C29.1507 6.22145 29.2094 6.36345 29.2094 6.51216C29.2094 6.66087 29.1507 6.80231 29.0455 6.90741L6.90741 29.0455C6.80287 29.1507 6.66086 29.2094 6.51216 29.2094C6.36345 29.2094 6.222 29.1507 6.1169 29.0455L5.72165 28.6503L4.53588 29.8361C4.31729 30.0546 3.96397 30.0546 3.74538 29.8361C3.52679 29.6175 3.52679 29.2641 3.74538 29.0455L4.93114 27.8598L4.14063 27.0687L2.95431 28.255ZM26.2788 8.09317L23.9067 5.72165L5.72221 23.9061L8.09373 26.2782L26.2788 8.09317ZM25.883 4.53589L25.4877 4.14063L24.6966 4.93114L27.0687 7.30267L27.8598 6.51216L25.883 4.53589ZM7.30266 27.0693L4.93114 24.6972L4.14063 25.4883L4.53588 25.8835L6.51216 27.8603L7.30266 27.0693ZM20.7435 20.1845C20.8867 20.1845 21.0298 20.2393 21.1388 20.3483L22.7198 21.9293C22.9384 22.1479 22.9384 22.5012 22.7198 22.7198C22.5012 22.9384 22.1479 22.9384 21.9293 22.7198L20.3483 21.1388C20.1297 20.9202 20.1297 20.5669 20.3483 20.3483C20.4573 20.2393 20.6004 20.1845 20.7435 20.1845ZM16.5305 23.7294C16.4522 23.4952 16.2342 23.347 15.9999 23.347C15.9418 23.347 15.882 23.3566 15.8233 23.3761C15.5303 23.474 15.3721 23.7904 15.47 24.0833L16.2605 26.4549C16.3577 26.7472 16.6731 26.9066 16.9677 26.8082C17.2606 26.7103 17.4188 26.3939 17.321 26.101L16.5305 23.7294ZM24.0834 15.4693L26.4549 16.2598C26.7478 16.3576 26.906 16.6746 26.8082 16.9676C26.7109 17.26 26.3951 17.4199 26.101 17.3209L23.7295 16.5304C23.4365 16.4326 23.2783 16.1161 23.3761 15.8232C23.4544 15.5889 23.6724 15.4408 23.9067 15.4408C23.9648 15.4408 24.0246 15.4497 24.0834 15.4693Z" fill="white"/>
<path d="M2.1638 28.255L2.02238 28.3965L2.02238 28.3965L2.1638 28.255ZM2.95431 28.255L3.09573 28.3965L3.09573 28.3965L2.95431 28.255ZM2.1638 27.4645L2.30504 27.6061L2.30522 27.606L2.1638 27.4645ZM3.35012 26.2782L3.49155 26.4196L3.63297 26.2782L3.49155 26.1368L3.35012 26.2782ZM2.95487 25.883L2.81345 26.0244L2.81345 26.0244L2.95487 25.883ZM2.95487 25.0924L2.81345 24.951L2.81345 24.951L2.95487 25.0924ZM25.0924 2.95487L25.2339 3.09629L25.2339 3.09629L25.0924 2.95487ZM25.883 2.95487L25.7415 3.09629L25.7415 3.09629L25.883 2.95487ZM26.2782 3.35013L26.1368 3.49155L26.2782 3.63297L26.4196 3.49155L26.2782 3.35013ZM27.4645 2.16381L27.606 2.30523L27.606 2.30523L27.4645 2.16381ZM28.255 2.16381L28.1136 2.30523L28.1136 2.30523L28.255 2.16381ZM28.255 2.95431L28.3965 3.09573L28.3965 3.09573L28.255 2.95431ZM27.0687 4.14063L26.9273 3.99921L26.7858 4.14068L26.9273 4.2821L27.0687 4.14063ZM27.8598 4.93114L27.7184 5.07261L27.8598 5.21394L28.0012 5.07256L27.8598 4.93114ZM29.0455 3.74538L29.187 3.8868L29.187 3.8868L29.0455 3.74538ZM29.8361 3.74538L29.6946 3.8868L29.6946 3.8868L29.8361 3.74538ZM29.8361 4.53589L29.6946 4.39447L29.6946 4.39447L29.8361 4.53589ZM28.6503 5.72165L28.5089 5.58023L28.3675 5.72165L28.5089 5.86307L28.6503 5.72165ZM29.0455 6.1169L28.9041 6.25833L28.9045 6.2587L29.0455 6.1169ZM29.0455 6.90741L28.9041 6.76599L28.9041 6.76599L29.0455 6.90741ZM6.90741 29.0455L6.76599 28.9041L6.76561 28.9045L6.90741 29.0455ZM6.1169 29.0455L5.97548 29.187L5.97548 29.187L6.1169 29.0455ZM5.72165 28.6503L5.86307 28.5089L5.72165 28.3675L5.58023 28.5089L5.72165 28.6503ZM4.53588 29.8361L4.39446 29.6946L4.39446 29.6946L4.53588 29.8361ZM3.74538 29.8361L3.60396 29.9775L3.74538 29.8361ZM3.74538 29.0455L3.8868 29.187L3.8868 29.187L3.74538 29.0455ZM4.93114 27.8598L5.07256 28.0012L5.21393 27.8598L5.07261 27.7184L4.93114 27.8598ZM4.14063 27.0687L4.2821 26.9273L4.14068 26.7858L3.99921 26.9273L4.14063 27.0687ZM23.9067 5.72165L24.0481 5.58021L23.9067 5.43883L23.7653 5.58023L23.9067 5.72165ZM26.2788 8.09317L26.4202 8.23459L26.5616 8.09316L26.4202 7.95173L26.2788 8.09317ZM5.72221 23.9061L5.58078 23.7647L5.43938 23.9061L5.58077 24.0475L5.72221 23.9061ZM8.09373 26.2782L7.95229 26.4196L8.09371 26.5611L8.23515 26.4196L8.09373 26.2782ZM25.4877 4.14063L25.6291 3.99921L25.4878 3.85784L25.3463 3.99916L25.4877 4.14063ZM25.883 4.53589L25.7415 4.67731L25.7416 4.67733L25.883 4.53589ZM24.6966 4.93114L24.5553 4.78967L24.4137 4.93111L24.5552 5.07258L24.6966 4.93114ZM27.0687 7.30267L26.9273 7.4441L27.0687 7.58544L27.2101 7.44414L27.0687 7.30267ZM27.8598 6.51216L28.0012 6.65363L28.1427 6.51219L28.0012 6.37072L27.8598 6.51216ZM4.93114 24.6972L5.07258 24.5558L4.93111 24.4143L4.78967 24.5558L4.93114 24.6972ZM7.30266 27.0693L7.44414 27.2106L7.58544 27.0692L7.4441 26.9279L7.30266 27.0693ZM4.14063 25.4883L3.99916 25.3469L3.85784 25.4883L3.99921 25.6297L4.14063 25.4883ZM4.53588 25.8835L4.67733 25.7421L4.67731 25.7421L4.53588 25.8835ZM6.51216 27.8603L6.37071 28.0017L6.51219 28.1433L6.65363 28.0017L6.51216 27.8603ZM21.1388 20.3483L21.2802 20.2069L21.2802 20.2069L21.1388 20.3483ZM22.7198 21.9293L22.5784 22.0707L22.5784 22.0707L22.7198 21.9293ZM21.9293 22.7198L21.7879 22.8612L21.7879 22.8612L21.9293 22.7198ZM20.3483 21.1388L20.4897 20.9974L20.4897 20.9974L20.3483 21.1388ZM16.5305 23.7294L16.7202 23.6662L16.7202 23.6661L16.5305 23.7294ZM15.8233 23.3761L15.76 23.1864L15.7599 23.1864L15.8233 23.3761ZM15.47 24.0833L15.6597 24.0201L15.6597 24.02L15.47 24.0833ZM16.2605 26.4549L16.4502 26.3917L16.4502 26.3916L16.2605 26.4549ZM16.9677 26.8082L17.031 26.9979L17.031 26.9979L16.9677 26.8082ZM17.321 26.101L17.1313 26.1642L17.1313 26.1643L17.321 26.101ZM26.4549 16.2598L26.5182 16.0701L26.5181 16.0701L26.4549 16.2598ZM24.0834 15.4693L24.0201 15.659L24.0201 15.659L24.0834 15.4693ZM26.8082 16.9676L26.6185 16.9042L26.6184 16.9044L26.8082 16.9676ZM26.101 17.3209L26.1648 17.1313L26.1642 17.1312L26.101 17.3209ZM23.7295 16.5304L23.6661 16.7201L23.6662 16.7201L23.7295 16.5304ZM23.3761 15.8232L23.1865 15.7598L23.1864 15.7598L23.3761 15.8232ZM2.02238 28.3965C2.31908 28.6932 2.79904 28.6932 3.09573 28.3965L2.81289 28.1136C2.6724 28.2541 2.44571 28.2541 2.30522 28.1136L2.02238 28.3965ZM2.02256 27.3229C1.72552 27.6192 1.72578 28.0999 2.02238 28.3965L2.30522 28.1136C2.16464 27.973 2.1649 27.7459 2.30504 27.6061L2.02256 27.3229ZM3.2087 26.1368L2.02238 27.3231L2.30522 27.606L3.49155 26.4196L3.2087 26.1368ZM2.81345 26.0244L3.2087 26.4196L3.49155 26.1368L3.09629 25.7415L2.81345 26.0244ZM2.81345 24.951C2.51675 25.2477 2.51675 25.7277 2.81345 26.0244L3.09629 25.7415C2.9558 25.601 2.9558 25.3744 3.09629 25.2339L2.81345 24.951ZM24.951 2.81345L2.81345 24.951L3.09629 25.2339L25.2339 3.09629L24.951 2.81345ZM25.4877 2.59107C25.2936 2.59107 25.099 2.66551 24.951 2.81345L25.2339 3.09629C25.304 3.0262 25.3956 2.99107 25.4877 2.99107V2.59107ZM26.0244 2.81345C25.8764 2.66551 25.6818 2.59107 25.4877 2.59107V2.99107C25.5798 2.99107 25.6714 3.0262 25.7415 3.09629L26.0244 2.81345ZM26.4196 3.2087L26.0244 2.81345L25.7415 3.09629L26.1368 3.49155L26.4196 3.2087ZM27.3231 2.02238L26.1368 3.2087L26.4196 3.49155L27.606 2.30523L27.3231 2.02238ZM27.8598 1.8C27.6657 1.8 27.4711 1.87444 27.3231 2.02238L27.606 2.30523C27.676 2.23514 27.7677 2.2 27.8598 2.2V1.8ZM28.3965 2.02238C28.2485 1.87444 28.0539 1.8 27.8598 1.8V2.2C27.9519 2.2 28.0435 2.23514 28.1136 2.30523L28.3965 2.02238ZM28.3965 3.09573C28.6932 2.79904 28.6932 2.31908 28.3965 2.02238L28.1136 2.30523C28.2541 2.44571 28.2541 2.67241 28.1136 2.81289L28.3965 3.09573ZM27.2101 4.28205L28.3965 3.09573L28.1136 2.81289L26.9273 3.99921L27.2101 4.28205ZM28.0012 4.78967L27.2101 3.99916L26.9273 4.2821L27.7184 5.07261L28.0012 4.78967ZM28.9041 3.60396L27.7184 4.78972L28.0012 5.07256L29.187 3.8868L28.9041 3.60396ZM29.4408 3.38158C29.2467 3.38158 29.0521 3.45602 28.9041 3.60396L29.187 3.8868C29.2571 3.81671 29.3487 3.78158 29.4408 3.78158V3.38158ZM29.9775 3.60396C29.8295 3.45602 29.6349 3.38158 29.4408 3.38158V3.78158C29.5329 3.78158 29.6245 3.81671 29.6946 3.8868L29.9775 3.60396ZM29.9775 4.67731C30.2742 4.38061 30.2742 3.90066 29.9775 3.60396L29.6946 3.8868C29.8351 4.02729 29.8351 4.25398 29.6946 4.39447L29.9775 4.67731ZM28.7917 5.86307L29.9775 4.67731L29.6946 4.39447L28.5089 5.58023L28.7917 5.86307ZM29.187 5.97548L28.7917 5.58023L28.5089 5.86307L28.9041 6.25832L29.187 5.97548ZM29.4094 6.51216C29.4094 6.31062 29.3297 6.11747 29.1866 5.97511L28.9045 6.2587C28.9716 6.32543 29.0094 6.41627 29.0094 6.51216H29.4094ZM29.187 7.04883C29.3295 6.90629 29.4094 6.714 29.4094 6.51216H29.0094C29.0094 6.60773 28.9718 6.69833 28.9041 6.76599L29.187 7.04883ZM7.04883 29.187L29.187 7.04883L28.9041 6.76599L6.76599 28.9041L7.04883 29.187ZM6.51216 29.4094C6.71369 29.4094 6.90684 29.3297 7.04921 29.1866L6.76561 28.9045C6.69889 28.9716 6.60804 29.0094 6.51216 29.0094V29.4094ZM5.97548 29.187C6.11803 29.3295 6.31031 29.4094 6.51216 29.4094V29.0094C6.41658 29.0094 6.32598 28.9718 6.25832 28.9041L5.97548 29.187ZM5.58023 28.7917L5.97548 29.187L6.25832 28.9041L5.86307 28.5089L5.58023 28.7917ZM4.67731 29.9775L5.86307 28.7917L5.58023 28.5089L4.39446 29.6946L4.67731 29.9775ZM3.60396 29.9775C3.90065 30.2742 4.38061 30.2742 4.67731 29.9775L4.39446 29.6946C4.25398 29.8351 4.02729 29.8351 3.8868 29.6946L3.60396 29.9775ZM3.60396 28.9041C3.30726 29.2008 3.30726 29.6808 3.60396 29.9775L3.8868 29.6946C3.74631 29.5541 3.74631 29.3275 3.8868 29.187L3.60396 28.9041ZM4.78972 27.7184L3.60396 28.9041L3.8868 29.187L5.07256 28.0012L4.78972 27.7184ZM3.99916 27.2101L4.78967 28.0012L5.07261 27.7184L4.2821 26.9273L3.99916 27.2101ZM3.09573 28.3965L4.28205 27.2101L3.99921 26.9273L2.81289 28.1136L3.09573 28.3965ZM23.7653 5.86309L26.1374 8.23461L26.4202 7.95173L24.0481 5.58021L23.7653 5.86309ZM5.86363 24.0476L24.0481 5.86307L23.7653 5.58023L5.58078 23.7647L5.86363 24.0476ZM8.23517 26.1368L5.86364 23.7647L5.58077 24.0475L7.95229 26.4196L8.23517 26.1368ZM26.1373 7.95175L7.95231 26.1368L8.23515 26.4196L26.4202 8.23459L26.1373 7.95175ZM25.3463 4.28205L25.7415 4.67731L26.0244 4.39447L25.6291 3.99921L25.3463 4.28205ZM24.838 5.07261L25.6291 4.2821L25.3463 3.99916L24.5553 4.78967L24.838 5.07261ZM27.2101 7.16123L24.838 4.7897L24.5552 5.07258L26.9273 7.4441L27.2101 7.16123ZM27.7184 6.37069L26.9273 7.16119L27.2101 7.44414L28.0012 6.65363L27.7184 6.37069ZM25.7416 4.67733L27.7184 6.6536L28.0012 6.37072L26.0244 4.39445L25.7416 4.67733ZM4.7897 24.8386L7.16123 27.2107L7.4441 26.9279L5.07258 24.5558L4.7897 24.8386ZM4.2821 25.6296L5.07261 24.8386L4.78967 24.5558L3.99916 25.3469L4.2821 25.6296ZM4.67731 25.7421L4.28205 25.3468L3.99921 25.6297L4.39446 26.0249L4.67731 25.7421ZM6.6536 27.7189L4.67733 25.7421L4.39444 26.0249L6.37071 28.0017L6.6536 27.7189ZM7.16119 26.9279L6.37068 27.719L6.65363 28.0017L7.44414 27.2106L7.16119 26.9279ZM21.2802 20.2069C21.1323 20.0589 20.9377 19.9845 20.7435 19.9845V20.3845C20.8357 20.3845 20.9273 20.4196 20.9974 20.4897L21.2802 20.2069ZM22.8612 21.7879L21.2802 20.2069L20.9974 20.4897L22.5784 22.0707L22.8612 21.7879ZM22.8612 22.8612C23.1579 22.5645 23.1579 22.0846 22.8612 21.7879L22.5784 22.0707C22.7189 22.2112 22.7189 22.4379 22.5784 22.5784L22.8612 22.8612ZM21.7879 22.8612C22.0846 23.1579 22.5645 23.1579 22.8612 22.8612L22.5784 22.5784C22.4379 22.7189 22.2112 22.7189 22.0707 22.5784L21.7879 22.8612ZM20.2069 21.2802L21.7879 22.8612L22.0707 22.5784L20.4897 20.9974L20.2069 21.2802ZM20.2069 20.2069C19.9102 20.5036 19.9102 20.9835 20.2069 21.2802L20.4897 20.9974C20.3492 20.8569 20.3492 20.6302 20.4897 20.4897L20.2069 20.2069ZM20.7435 19.9845C20.5494 19.9845 20.3548 20.0589 20.2069 20.2069L20.4897 20.4897C20.5598 20.4196 20.6514 20.3845 20.7435 20.3845V19.9845ZM15.9999 23.547C16.1507 23.547 16.2906 23.6425 16.3408 23.7928L16.7202 23.6661C16.6139 23.3479 16.3177 23.147 15.9999 23.147V23.547ZM15.8865 23.5659C15.925 23.553 15.9635 23.547 15.9999 23.547V23.147C15.9201 23.147 15.8389 23.1601 15.76 23.1864L15.8865 23.5659ZM15.6597 24.02C15.5969 23.8319 15.6983 23.6287 15.8866 23.5658L15.7599 23.1864C15.3623 23.3192 15.1474 23.7488 15.2803 24.1467L15.6597 24.02ZM16.4502 26.3916L15.6597 24.0201L15.2802 24.1466L16.0707 26.5181L16.4502 26.3916ZM16.9043 26.6185C16.7149 26.6817 16.5128 26.5796 16.4502 26.3917L16.0707 26.518C16.2027 26.9149 16.6312 27.1314 17.031 26.9979L16.9043 26.6185ZM17.1313 26.1643C17.1941 26.3524 17.0926 26.5556 16.9043 26.6185L17.031 26.9979C17.4286 26.8651 17.6436 26.4355 17.5107 26.0376L17.1313 26.1643ZM16.3408 23.7927L17.1313 26.1642L17.5107 26.0377L16.7202 23.6662L16.3408 23.7927ZM26.5181 16.0701L24.1466 15.2796L24.0201 15.659L26.3916 16.4495L26.5181 16.0701ZM26.9979 17.0309C27.1307 16.6332 26.916 16.2029 26.5182 16.0701L26.3915 16.4495C26.5797 16.5123 26.6814 16.716 26.6185 16.9042L26.9979 17.0309ZM26.0372 17.5105C26.4371 17.645 26.866 17.4273 26.998 17.0307L26.6184 16.9044C26.5558 17.0926 26.353 17.1947 26.1648 17.1313L26.0372 17.5105ZM23.6662 16.7201L26.0377 17.5106L26.1642 17.1312L23.7927 16.3407L23.6662 16.7201ZM23.1864 15.7598C23.0536 16.1577 23.2685 16.5873 23.6661 16.7201L23.7928 16.3407C23.6045 16.2778 23.503 16.0746 23.5658 15.8865L23.1864 15.7598ZM23.9067 15.2408C23.5889 15.2408 23.2928 15.4416 23.1865 15.7598L23.5658 15.8866C23.6161 15.7363 23.756 15.6408 23.9067 15.6408V15.2408ZM24.1466 15.2796C24.0665 15.2529 23.9853 15.2408 23.9067 15.2408V15.6408C23.9444 15.6408 23.9828 15.6466 24.0201 15.659L24.1466 15.2796Z" fill="white" mask="url(#path-1-outside-1)"/>
</svg>
