<svg width="32" height="32" viewBox="0 0 32 32" fill="none" xmlns="http://www.w3.org/2000/svg">
<mask id="path-1-outside-1" maskUnits="userSpaceOnUse" x="0.564209" y="4.3877" width="31" height="24" fill="black">
<rect fill="white" x="0.564209" y="4.3877" width="31" height="24"/>
<path fill-rule="evenodd" clip-rule="evenodd" d="M15.9659 5.00005C11.9243 5.06454 9.15595 5.29161 7.57174 5.7216C7.03826 5.8664 6.65002 6.30673 6.25444 6.8474C5.85886 7.38808 5.48028 8.05624 5.13689 8.73156C4.92739 9.14359 4.73097 9.55929 4.5552 9.94775C4.44833 9.93672 4.33997 9.93834 4.22173 9.94062C3.98804 9.94513 3.73089 9.97124 3.47781 10.0112C3.22474 10.0512 2.97765 10.1046 2.76356 10.1699C2.74177 10.1765 2.72046 10.1828 2.69955 10.189L2.69954 10.189L2.69953 10.189L2.69951 10.1891L2.6995 10.1891C2.51503 10.2438 2.36232 10.2891 2.19447 10.4605C1.97759 10.682 1.82424 10.9825 1.6798 11.3014C1.60759 11.4608 1.54628 11.617 1.5056 11.7662C1.48526 11.8409 1.4692 11.9128 1.46372 11.9976L1.46266 12.013C1.45686 12.0956 1.44943 12.2015 1.55002 12.3474C1.60338 12.4248 1.63721 12.4494 1.67206 12.4748C1.67822 12.4792 1.68441 12.4838 1.69075 12.4886C1.73294 12.5207 1.77784 12.5505 1.82957 12.582C1.93303 12.6451 2.06259 12.7136 2.21811 12.7842C2.39203 12.863 2.5977 12.944 2.82813 13.016C2.728 13.1285 2.62467 13.2433 2.52055 13.3587C2.43525 13.4532 2.34974 13.5471 2.26504 13.6402L2.26503 13.6402L2.26502 13.6402L2.26501 13.6402C1.76032 14.1945 1.28421 14.7175 1.05 15.1499C1.01819 15.2086 1.00136 15.2742 1.00098 15.341C0.993184 16.7985 1.0319 18.1492 1.11808 19.3941V20.6064V26.1808C1.11808 27.1107 1.88083 27.8734 2.81059 27.8734H4.77423C5.70399 27.8734 6.46674 27.1107 6.46674 26.1808V25.3006H7.81782C7.84574 25.335 7.87552 25.368 7.9071 25.3996C8.14916 25.6416 8.47733 25.7781 8.82012 25.7781C9.1621 25.7781 9.49108 25.6416 9.73315 25.3996C9.90437 25.2284 10.0224 25.0141 10.0767 24.782C10.3361 24.7717 10.5423 24.7762 10.6372 24.7782C10.6412 24.7783 10.6451 24.7784 10.6487 24.7785C10.703 25.0119 10.8217 25.2275 10.9938 25.3996C11.2358 25.6416 11.564 25.7781 11.9068 25.7781C12.2488 25.7781 12.5778 25.6416 12.8198 25.3996C12.9903 25.2291 13.108 25.0158 13.1627 24.7848C16.2234 24.775 18.5845 24.7701 20.246 24.7701C21.9761 24.7701 22.9839 24.7776 23.1438 24.7856C23.4748 24.8022 23.6436 24.8987 23.7909 25.1197C23.828 25.1754 23.8783 25.221 23.9372 25.2525C23.9962 25.2841 24.062 25.3006 24.1289 25.3006H25.5332V26.1808C25.5332 27.1107 26.296 27.8733 27.2257 27.8733H29.1894C30.1192 27.8733 30.8819 27.1107 30.8819 26.1808V20.6064V19.3943C30.9681 18.1493 31.0068 16.7985 30.999 15.341C30.9986 15.2742 30.9818 15.2086 30.95 15.1499C30.7158 14.7175 30.2397 14.1945 29.735 13.6402L29.735 13.6402C29.6502 13.5471 29.5647 13.4532 29.4794 13.3587C29.3753 13.2433 29.272 13.1285 29.1718 13.016C29.4022 12.944 29.6079 12.863 29.7818 12.7842C29.9373 12.7136 30.0669 12.6451 30.1703 12.582C30.2221 12.5505 30.267 12.5207 30.3092 12.4886C30.3155 12.4838 30.3217 12.4793 30.3278 12.4748L30.3278 12.4748C30.3627 12.4494 30.3965 12.4248 30.4499 12.3474C30.5505 12.2015 30.543 12.0956 30.5372 12.013V12.013L30.5362 11.9976C30.5307 11.9128 30.5146 11.8409 30.4943 11.7662C30.4536 11.617 30.3923 11.4608 30.3201 11.3014C30.1757 10.9825 30.0223 10.682 29.8054 10.4605C29.6376 10.2891 29.4849 10.2438 29.3004 10.1891C29.2795 10.1829 29.2582 10.1765 29.2363 10.1699C29.0223 10.1046 28.7752 10.0512 28.5221 10.0112C28.269 9.97124 28.0119 9.94513 27.7782 9.94062C27.66 9.93834 27.5516 9.93672 27.4448 9.94774C27.269 9.55929 27.0726 9.14359 26.8631 8.73156C26.5197 8.05624 26.1411 7.38808 25.7455 6.8474C25.35 6.30673 24.9617 5.8664 24.4283 5.7216C22.844 5.29161 20.0757 5.06454 16.0341 5.00005C16.0227 4.99987 16.0113 5.00016 16 5.00094C15.9887 5.00016 15.9773 4.99987 15.9659 5.00005ZM10.7268 23.9621C10.7907 23.8186 10.8807 23.6866 10.9938 23.5735C11.2358 23.3315 11.564 23.1958 11.9068 23.1958C12.2488 23.1958 12.5778 23.3315 12.8198 23.5735C12.9357 23.6894 13.0272 23.8252 13.0911 23.9728C16.1857 23.9627 18.5705 23.9578 20.246 23.9578C21.9778 23.9578 22.9156 23.9608 23.1844 23.9743C23.6268 23.9964 24.0248 24.1818 24.3101 24.4883H25.8713C25.8937 24.4845 25.9165 24.4825 25.9394 24.4825C25.9623 24.4825 25.9851 24.4845 26.0075 24.4883H28.8098L28.7062 24.295V24.2948C28.2707 23.4817 27.0094 22.7264 26.0869 22.7264H16.0277C16.0184 22.7265 16.0092 22.7263 16 22.7259C15.9908 22.7263 15.9816 22.7265 15.9723 22.7264H5.91313C4.99063 22.7264 3.7293 23.4817 3.29378 24.2948V24.295L3.19019 24.4883H5.99246C6.01491 24.4845 6.0377 24.4826 6.06059 24.4826C6.08347 24.4826 6.10626 24.4845 6.12871 24.4883H7.52857L7.52856 24.4865C7.52856 24.1446 7.66503 23.8156 7.9071 23.5735C8.14916 23.3315 8.47733 23.1958 8.82012 23.1958C9.1621 23.1958 9.49108 23.3315 9.73315 23.5735C9.84876 23.6891 9.94009 23.8246 10.004 23.9718C10.0312 23.9704 10.0576 23.969 10.0832 23.9677C10.2398 23.9595 10.3671 23.9529 10.4788 23.9518C10.5693 23.9509 10.6496 23.9537 10.7268 23.9621ZM16 21.9147C16.0092 21.9142 16.0184 21.914 16.0277 21.9141L26.0869 21.9141C27.3956 21.9141 28.8008 22.7548 29.4203 23.9079C29.7304 22.6021 29.9479 21.0649 30.0696 19.2983V19.1487C30.069 19.1057 30.0752 19.0634 30.0877 19.0231C30.1563 17.9246 30.1888 16.7399 30.1845 15.4694C30.0031 15.1752 29.4426 14.5305 28.8762 13.903C28.5781 13.5726 28.2816 13.2418 28.0355 12.9416C27.7895 12.6413 27.5946 12.3921 27.4834 12.1204C27.4686 12.0841 27.45 12.0381 27.4279 11.9836L27.4274 11.9822C27.226 11.4847 26.7364 10.2746 26.139 9.09979C25.8072 8.44728 25.4422 7.80843 25.09 7.32701C24.7378 6.84559 24.3741 6.54871 24.2155 6.50567C22.7982 6.12098 20.037 5.87643 16.0211 5.81235C16.014 5.81224 16.007 5.81195 16 5.81147C15.993 5.81195 15.9859 5.81224 15.9789 5.81235C11.963 5.87643 9.20179 6.12098 7.78449 6.50567C7.62588 6.54871 7.26223 6.84559 6.91 7.32701C6.55777 7.80843 6.19277 8.44728 5.86099 9.09979C5.26362 10.2746 4.77397 11.4847 4.57263 11.9822L4.57259 11.9823C4.55029 12.0374 4.53154 12.0838 4.51656 12.1204C4.40542 12.3921 4.21048 12.6413 3.96445 12.9416C3.71842 13.2418 3.42189 13.5726 3.12375 13.903C2.55744 14.5305 1.99685 15.1752 1.8155 15.4694C1.81119 16.7399 1.8437 17.9247 1.91232 19.0231C1.92487 19.0637 1.93098 19.1061 1.93038 19.1487V19.2981C2.05211 21.0648 2.26958 22.6021 2.57966 23.9079C3.19915 22.7548 4.60443 21.9141 5.91313 21.9141L15.9723 21.9141C15.9816 21.914 15.9908 21.9142 16 21.9147ZM2.44254 25.3006H2.41489C2.32714 25.3006 2.24173 25.2722 2.17146 25.2197C2.10119 25.1671 2.04984 25.0932 2.02508 25.009C1.99274 24.899 1.96117 24.7873 1.93038 24.674V26.1808C1.93038 26.6711 2.32044 27.061 2.81059 27.061H4.77423C5.26438 27.061 5.65444 26.6711 5.65444 26.1808V25.3006H2.57516C2.54053 25.3063 2.50523 25.3076 2.47014 25.3042C2.46089 25.3033 2.45169 25.3021 2.44254 25.3006ZM3.60458 10.8135C3.81233 10.7807 4.025 10.7592 4.20161 10.7537C4.03094 11.1544 3.8987 11.4816 3.81828 11.6806L3.81828 11.6806L3.81821 11.6808L3.81813 11.681L3.8177 11.682L3.81759 11.6823L3.81753 11.6825C3.79613 11.7354 3.77844 11.7792 3.76471 11.8128C3.73495 11.8855 3.60051 12.0928 3.41136 12.333C3.07603 12.2555 2.77723 12.1457 2.55366 12.0444C2.45028 11.9975 2.37786 11.9569 2.31219 11.9195C2.33781 11.8392 2.37048 11.7453 2.41976 11.6365C2.52694 11.3998 2.69921 11.1278 2.75893 11.0483C2.75882 11.0524 2.77463 11.0445 2.80183 11.0307C2.8452 11.0088 2.91753 10.9722 3.00043 10.947C3.16437 10.897 3.38264 10.8486 3.60458 10.8135ZM26.3455 25.3006H29.4248C29.4594 25.3063 29.4948 25.3076 29.5299 25.3042L29.5369 25.3035L29.5467 25.3023L29.5575 25.3006H29.5851C29.6729 25.3006 29.7583 25.2722 29.8285 25.2197C29.8988 25.1671 29.9502 25.0932 29.9749 25.009C30.0072 24.899 30.0388 24.7873 30.0696 24.674V26.1808C30.0696 26.6711 29.6795 27.061 29.1894 27.061H27.2257C26.7356 27.061 26.3455 26.6711 26.3455 26.1808V25.3006ZM28.5886 12.333C28.9239 12.2555 29.2227 12.1457 29.4462 12.0444C29.5496 11.9975 29.622 11.9569 29.6877 11.9195C29.6621 11.8392 29.6294 11.7453 29.5801 11.6365C29.473 11.3998 29.3007 11.1278 29.241 11.0483C29.2411 11.0524 29.2253 11.0445 29.1981 11.0307C29.1547 11.0088 29.0824 10.9722 28.9995 10.947C28.8355 10.897 28.6173 10.8486 28.3953 10.8135C28.1876 10.7807 27.975 10.7592 27.7984 10.7537C27.9691 11.1544 28.1013 11.4817 28.1817 11.6806L28.1821 11.6815C28.2036 11.7349 28.2215 11.779 28.2353 11.8128C28.265 11.8855 28.3995 12.0928 28.5886 12.333ZM12.3674 24.3569C12.3454 24.2787 12.3037 24.2065 12.2455 24.1478C12.1554 24.0585 12.0335 24.0081 11.9068 24.0081C11.7793 24.0081 11.6574 24.0585 11.5681 24.1478C11.4779 24.238 11.4275 24.3598 11.4275 24.4865C11.4275 24.6141 11.4779 24.7359 11.5681 24.8253C11.6574 24.9154 11.7793 24.9658 11.9068 24.9658C12.0335 24.9658 12.1554 24.9154 12.2455 24.8253C12.3316 24.7392 12.3815 24.623 12.385 24.5006C12.373 24.4621 12.3668 24.4218 12.3667 24.3813C12.3667 24.3732 12.3669 24.365 12.3674 24.3569ZM8.34087 24.4865C8.34087 24.3598 8.39123 24.238 8.48139 24.1478C8.57075 24.0585 8.69259 24.0081 8.82012 24.0081C8.94684 24.0081 9.06869 24.0585 9.15885 24.1478C9.24821 24.238 9.29857 24.3598 9.29857 24.4865C9.29857 24.6141 9.24821 24.7359 9.15885 24.8253C9.06869 24.9154 8.94684 24.9658 8.82012 24.9658C8.69259 24.9658 8.57075 24.9154 8.48139 24.8253C8.39123 24.7359 8.34087 24.6141 8.34087 24.4865ZM16 7.20239C15.9915 7.20285 15.9831 7.20306 15.9746 7.203C12.3503 7.22356 9.97965 7.35698 8.97863 7.56504C8.78655 7.61621 8.52927 7.79282 8.24343 8.163C8.01334 8.46095 7.59479 9.23408 7.08527 10.2867C7.08965 10.2871 7.09217 10.2875 7.0947 10.2878L7.0947 10.2878C7.09728 10.2882 7.09987 10.2886 7.10446 10.2889C7.48489 10.3189 8.07385 10.3448 8.86107 10.3654C10.4355 10.4066 12.8077 10.4274 15.9724 10.4274C15.9816 10.4273 15.9908 10.4275 16 10.428C16.0092 10.4275 16.0184 10.4273 16.0277 10.4274C19.1923 10.4274 21.5645 10.4066 23.1389 10.3654C23.9262 10.3448 24.5151 10.3189 24.8955 10.2889C24.9002 10.2886 24.9028 10.2882 24.9054 10.2878C24.9079 10.2875 24.9104 10.2871 24.9147 10.2867C24.4052 9.23408 23.9867 8.46095 23.7566 8.163C23.4707 7.79282 23.2135 7.61621 23.0214 7.56504C22.0204 7.35698 19.6497 7.22356 16.0254 7.203C16.0169 7.20306 16.0085 7.20285 16 7.20239ZM16 11.2392C15.9908 11.2397 15.9816 11.2399 15.9724 11.2397C12.8042 11.2397 10.4284 11.219 8.83981 11.1774C8.0455 11.1566 7.44936 11.1309 7.04069 11.0987C6.83635 11.0826 6.68124 11.066 6.55569 11.0429C6.49291 11.0313 6.44001 11.021 6.36879 10.9926L6.36586 10.9914C6.33089 10.9775 6.28976 10.9611 6.23092 10.9118C6.17043 10.8611 6.07065 10.7354 6.07735 10.5688C6.07951 10.5149 6.0924 10.4619 6.11527 10.413C6.75905 9.03745 7.2288 8.14782 7.60057 7.66642H7.60041C7.95215 7.21089 8.33238 6.89197 8.77936 6.77622C8.78535 6.77465 8.79138 6.77322 8.79744 6.77194C9.96727 6.52582 12.3166 6.41143 15.97 6.39069L15.97 6.3907C15.98 6.39051 15.99 6.39069 16 6.39125C16.01 6.39069 16.02 6.39051 16.03 6.3907L16.03 6.39069C19.6834 6.41143 22.0327 6.52582 23.2026 6.77194C23.2086 6.77322 23.2147 6.77465 23.2207 6.77622C23.6676 6.89197 24.0479 7.21089 24.3996 7.66642H24.3994C24.7712 8.14782 25.241 9.03745 25.8847 10.413C25.9076 10.4619 25.9205 10.5149 25.9227 10.5688C25.9294 10.7354 25.8296 10.8611 25.7691 10.9118C25.7102 10.9611 25.6691 10.9775 25.6342 10.9914L25.6312 10.9926C25.56 11.021 25.5071 11.0313 25.4443 11.0429C25.3188 11.066 25.1637 11.0826 24.9593 11.0987C24.5507 11.1309 23.9545 11.1566 23.1602 11.1774C21.5716 11.219 19.1958 11.2397 16.0277 11.2397C16.0184 11.2399 16.0092 11.2397 16 11.2392ZM20.5803 12.3877L20.586 12.3877H21.4036H21.4046H25.2745H25.2757C25.9123 12.3899 26.5159 12.6335 27.0349 13.0767C27.5538 13.52 28 14.1547 28.3975 14.9718C28.4277 15.0337 28.4415 15.1023 28.4379 15.1711C28.4342 15.2398 28.4131 15.3065 28.3766 15.3649C28.3401 15.4233 28.2894 15.4714 28.2291 15.5048C28.1689 15.5381 28.1012 15.5557 28.0323 15.5557H21.0456C20.9861 15.5557 20.9273 15.5426 20.8734 15.5173C20.8195 15.4921 20.7718 15.4553 20.7337 15.4096C20.3762 14.9806 20.1798 14.3493 20.1798 13.7705V13.2H16.0277C16.0184 13.2002 16.0092 13.2 16 13.1995C15.9908 13.2 15.9816 13.2002 15.9723 13.2H11.8202V13.7705C11.8202 14.3493 11.6238 14.9806 11.2663 15.4096C11.2282 15.4553 11.1805 15.4921 11.1266 15.5173C11.0727 15.5426 11.0139 15.5557 10.9544 15.5557H3.96765C3.8988 15.5557 3.83107 15.5381 3.77085 15.5048C3.71062 15.4714 3.65986 15.4233 3.62335 15.3649C3.58683 15.3065 3.56576 15.2398 3.5621 15.1711C3.55844 15.1023 3.57232 15.0337 3.60243 14.9718C3.99999 14.1547 4.44616 13.52 4.9651 13.0767C5.48404 12.6335 6.0877 12.3899 6.72424 12.3877H6.72424H6.72551H10.5954H10.5964H11.414L11.4197 12.3877H15.9723C15.9816 12.3876 15.9908 12.3878 16 12.3883C16.0092 12.3878 16.0184 12.3876 16.0277 12.3877H20.5803ZM10.6016 13.2L10.5878 13.2H6.72694C6.28712 13.2015 5.89299 13.3526 5.49262 13.6945C5.20595 13.9394 4.92272 14.2909 4.65081 14.7434H10.7286C10.8636 14.4891 11.0079 14.0451 11.0079 13.7705V13.2H10.6016ZM20.9921 13.2V13.7705C20.9921 14.0451 21.1364 14.4891 21.2713 14.7434H27.3492C27.0772 14.2909 26.794 13.9394 26.5074 13.6945C26.107 13.3526 25.7129 13.2015 25.273 13.2H21.4122L21.3984 13.2H20.9921Z"/>
</mask>
<path fill-rule="evenodd" clip-rule="evenodd" d="M15.9659 5.00005C11.9243 5.06454 9.15595 5.29161 7.57174 5.7216C7.03826 5.8664 6.65002 6.30673 6.25444 6.8474C5.85886 7.38808 5.48028 8.05624 5.13689 8.73156C4.92739 9.14359 4.73097 9.55929 4.5552 9.94775C4.44833 9.93672 4.33997 9.93834 4.22173 9.94062C3.98804 9.94513 3.73089 9.97124 3.47781 10.0112C3.22474 10.0512 2.97765 10.1046 2.76356 10.1699C2.74177 10.1765 2.72046 10.1828 2.69955 10.189L2.69954 10.189L2.69953 10.189L2.69951 10.1891L2.6995 10.1891C2.51503 10.2438 2.36232 10.2891 2.19447 10.4605C1.97759 10.682 1.82424 10.9825 1.6798 11.3014C1.60759 11.4608 1.54628 11.617 1.5056 11.7662C1.48526 11.8409 1.4692 11.9128 1.46372 11.9976L1.46266 12.013C1.45686 12.0956 1.44943 12.2015 1.55002 12.3474C1.60338 12.4248 1.63721 12.4494 1.67206 12.4748C1.67822 12.4792 1.68441 12.4838 1.69075 12.4886C1.73294 12.5207 1.77784 12.5505 1.82957 12.582C1.93303 12.6451 2.06259 12.7136 2.21811 12.7842C2.39203 12.863 2.5977 12.944 2.82813 13.016C2.728 13.1285 2.62467 13.2433 2.52055 13.3587C2.43525 13.4532 2.34974 13.5471 2.26504 13.6402L2.26503 13.6402L2.26502 13.6402L2.26501 13.6402C1.76032 14.1945 1.28421 14.7175 1.05 15.1499C1.01819 15.2086 1.00136 15.2742 1.00098 15.341C0.993184 16.7985 1.0319 18.1492 1.11808 19.3941V20.6064V26.1808C1.11808 27.1107 1.88083 27.8734 2.81059 27.8734H4.77423C5.70399 27.8734 6.46674 27.1107 6.46674 26.1808V25.3006H7.81782C7.84574 25.335 7.87552 25.368 7.9071 25.3996C8.14916 25.6416 8.47733 25.7781 8.82012 25.7781C9.1621 25.7781 9.49108 25.6416 9.73315 25.3996C9.90437 25.2284 10.0224 25.0141 10.0767 24.782C10.3361 24.7717 10.5423 24.7762 10.6372 24.7782C10.6412 24.7783 10.6451 24.7784 10.6487 24.7785C10.703 25.0119 10.8217 25.2275 10.9938 25.3996C11.2358 25.6416 11.564 25.7781 11.9068 25.7781C12.2488 25.7781 12.5778 25.6416 12.8198 25.3996C12.9903 25.2291 13.108 25.0158 13.1627 24.7848C16.2234 24.775 18.5845 24.7701 20.246 24.7701C21.9761 24.7701 22.9839 24.7776 23.1438 24.7856C23.4748 24.8022 23.6436 24.8987 23.7909 25.1197C23.828 25.1754 23.8783 25.221 23.9372 25.2525C23.9962 25.2841 24.062 25.3006 24.1289 25.3006H25.5332V26.1808C25.5332 27.1107 26.296 27.8733 27.2257 27.8733H29.1894C30.1192 27.8733 30.8819 27.1107 30.8819 26.1808V20.6064V19.3943C30.9681 18.1493 31.0068 16.7985 30.999 15.341C30.9986 15.2742 30.9818 15.2086 30.95 15.1499C30.7158 14.7175 30.2397 14.1945 29.735 13.6402L29.735 13.6402C29.6502 13.5471 29.5647 13.4532 29.4794 13.3587C29.3753 13.2433 29.272 13.1285 29.1718 13.016C29.4022 12.944 29.6079 12.863 29.7818 12.7842C29.9373 12.7136 30.0669 12.6451 30.1703 12.582C30.2221 12.5505 30.267 12.5207 30.3092 12.4886C30.3155 12.4838 30.3217 12.4793 30.3278 12.4748L30.3278 12.4748C30.3627 12.4494 30.3965 12.4248 30.4499 12.3474C30.5505 12.2015 30.543 12.0956 30.5372 12.013V12.013L30.5362 11.9976C30.5307 11.9128 30.5146 11.8409 30.4943 11.7662C30.4536 11.617 30.3923 11.4608 30.3201 11.3014C30.1757 10.9825 30.0223 10.682 29.8054 10.4605C29.6376 10.2891 29.4849 10.2438 29.3004 10.1891C29.2795 10.1829 29.2582 10.1765 29.2363 10.1699C29.0223 10.1046 28.7752 10.0512 28.5221 10.0112C28.269 9.97124 28.0119 9.94513 27.7782 9.94062C27.66 9.93834 27.5516 9.93672 27.4448 9.94774C27.269 9.55929 27.0726 9.14359 26.8631 8.73156C26.5197 8.05624 26.1411 7.38808 25.7455 6.8474C25.35 6.30673 24.9617 5.8664 24.4283 5.7216C22.844 5.29161 20.0757 5.06454 16.0341 5.00005C16.0227 4.99987 16.0113 5.00016 16 5.00094C15.9887 5.00016 15.9773 4.99987 15.9659 5.00005ZM10.7268 23.9621C10.7907 23.8186 10.8807 23.6866 10.9938 23.5735C11.2358 23.3315 11.564 23.1958 11.9068 23.1958C12.2488 23.1958 12.5778 23.3315 12.8198 23.5735C12.9357 23.6894 13.0272 23.8252 13.0911 23.9728C16.1857 23.9627 18.5705 23.9578 20.246 23.9578C21.9778 23.9578 22.9156 23.9608 23.1844 23.9743C23.6268 23.9964 24.0248 24.1818 24.3101 24.4883H25.8713C25.8937 24.4845 25.9165 24.4825 25.9394 24.4825C25.9623 24.4825 25.9851 24.4845 26.0075 24.4883H28.8098L28.7062 24.295V24.2948C28.2707 23.4817 27.0094 22.7264 26.0869 22.7264H16.0277C16.0184 22.7265 16.0092 22.7263 16 22.7259C15.9908 22.7263 15.9816 22.7265 15.9723 22.7264H5.91313C4.99063 22.7264 3.7293 23.4817 3.29378 24.2948V24.295L3.19019 24.4883H5.99246C6.01491 24.4845 6.0377 24.4826 6.06059 24.4826C6.08347 24.4826 6.10626 24.4845 6.12871 24.4883H7.52857L7.52856 24.4865C7.52856 24.1446 7.66503 23.8156 7.9071 23.5735C8.14916 23.3315 8.47733 23.1958 8.82012 23.1958C9.1621 23.1958 9.49108 23.3315 9.73315 23.5735C9.84876 23.6891 9.94009 23.8246 10.004 23.9718C10.0312 23.9704 10.0576 23.969 10.0832 23.9677C10.2398 23.9595 10.3671 23.9529 10.4788 23.9518C10.5693 23.9509 10.6496 23.9537 10.7268 23.9621ZM16 21.9147C16.0092 21.9142 16.0184 21.914 16.0277 21.9141L26.0869 21.9141C27.3956 21.9141 28.8008 22.7548 29.4203 23.9079C29.7304 22.6021 29.9479 21.0649 30.0696 19.2983V19.1487C30.069 19.1057 30.0752 19.0634 30.0877 19.0231C30.1563 17.9246 30.1888 16.7399 30.1845 15.4694C30.0031 15.1752 29.4426 14.5305 28.8762 13.903C28.5781 13.5726 28.2816 13.2418 28.0355 12.9416C27.7895 12.6413 27.5946 12.3921 27.4834 12.1204C27.4686 12.0841 27.45 12.0381 27.4279 11.9836L27.4274 11.9822C27.226 11.4847 26.7364 10.2746 26.139 9.09979C25.8072 8.44728 25.4422 7.80843 25.09 7.32701C24.7378 6.84559 24.3741 6.54871 24.2155 6.50567C22.7982 6.12098 20.037 5.87643 16.0211 5.81235C16.014 5.81224 16.007 5.81195 16 5.81147C15.993 5.81195 15.9859 5.81224 15.9789 5.81235C11.963 5.87643 9.20179 6.12098 7.78449 6.50567C7.62588 6.54871 7.26223 6.84559 6.91 7.32701C6.55777 7.80843 6.19277 8.44728 5.86099 9.09979C5.26362 10.2746 4.77397 11.4847 4.57263 11.9822L4.57259 11.9823C4.55029 12.0374 4.53154 12.0838 4.51656 12.1204C4.40542 12.3921 4.21048 12.6413 3.96445 12.9416C3.71842 13.2418 3.42189 13.5726 3.12375 13.903C2.55744 14.5305 1.99685 15.1752 1.8155 15.4694C1.81119 16.7399 1.8437 17.9247 1.91232 19.0231C1.92487 19.0637 1.93098 19.1061 1.93038 19.1487V19.2981C2.05211 21.0648 2.26958 22.6021 2.57966 23.9079C3.19915 22.7548 4.60443 21.9141 5.91313 21.9141L15.9723 21.9141C15.9816 21.914 15.9908 21.9142 16 21.9147ZM2.44254 25.3006H2.41489C2.32714 25.3006 2.24173 25.2722 2.17146 25.2197C2.10119 25.1671 2.04984 25.0932 2.02508 25.009C1.99274 24.899 1.96117 24.7873 1.93038 24.674V26.1808C1.93038 26.6711 2.32044 27.061 2.81059 27.061H4.77423C5.26438 27.061 5.65444 26.6711 5.65444 26.1808V25.3006H2.57516C2.54053 25.3063 2.50523 25.3076 2.47014 25.3042C2.46089 25.3033 2.45169 25.3021 2.44254 25.3006ZM3.60458 10.8135C3.81233 10.7807 4.025 10.7592 4.20161 10.7537C4.03094 11.1544 3.8987 11.4816 3.81828 11.6806L3.81828 11.6806L3.81821 11.6808L3.81813 11.681L3.8177 11.682L3.81759 11.6823L3.81753 11.6825C3.79613 11.7354 3.77844 11.7792 3.76471 11.8128C3.73495 11.8855 3.60051 12.0928 3.41136 12.333C3.07603 12.2555 2.77723 12.1457 2.55366 12.0444C2.45028 11.9975 2.37786 11.9569 2.31219 11.9195C2.33781 11.8392 2.37048 11.7453 2.41976 11.6365C2.52694 11.3998 2.69921 11.1278 2.75893 11.0483C2.75882 11.0524 2.77463 11.0445 2.80183 11.0307C2.8452 11.0088 2.91753 10.9722 3.00043 10.947C3.16437 10.897 3.38264 10.8486 3.60458 10.8135ZM26.3455 25.3006H29.4248C29.4594 25.3063 29.4948 25.3076 29.5299 25.3042L29.5369 25.3035L29.5467 25.3023L29.5575 25.3006H29.5851C29.6729 25.3006 29.7583 25.2722 29.8285 25.2197C29.8988 25.1671 29.9502 25.0932 29.9749 25.009C30.0072 24.899 30.0388 24.7873 30.0696 24.674V26.1808C30.0696 26.6711 29.6795 27.061 29.1894 27.061H27.2257C26.7356 27.061 26.3455 26.6711 26.3455 26.1808V25.3006ZM28.5886 12.333C28.9239 12.2555 29.2227 12.1457 29.4462 12.0444C29.5496 11.9975 29.622 11.9569 29.6877 11.9195C29.6621 11.8392 29.6294 11.7453 29.5801 11.6365C29.473 11.3998 29.3007 11.1278 29.241 11.0483C29.2411 11.0524 29.2253 11.0445 29.1981 11.0307C29.1547 11.0088 29.0824 10.9722 28.9995 10.947C28.8355 10.897 28.6173 10.8486 28.3953 10.8135C28.1876 10.7807 27.975 10.7592 27.7984 10.7537C27.9691 11.1544 28.1013 11.4817 28.1817 11.6806L28.1821 11.6815C28.2036 11.7349 28.2215 11.779 28.2353 11.8128C28.265 11.8855 28.3995 12.0928 28.5886 12.333ZM12.3674 24.3569C12.3454 24.2787 12.3037 24.2065 12.2455 24.1478C12.1554 24.0585 12.0335 24.0081 11.9068 24.0081C11.7793 24.0081 11.6574 24.0585 11.5681 24.1478C11.4779 24.238 11.4275 24.3598 11.4275 24.4865C11.4275 24.6141 11.4779 24.7359 11.5681 24.8253C11.6574 24.9154 11.7793 24.9658 11.9068 24.9658C12.0335 24.9658 12.1554 24.9154 12.2455 24.8253C12.3316 24.7392 12.3815 24.623 12.385 24.5006C12.373 24.4621 12.3668 24.4218 12.3667 24.3813C12.3667 24.3732 12.3669 24.365 12.3674 24.3569ZM8.34087 24.4865C8.34087 24.3598 8.39123 24.238 8.48139 24.1478C8.57075 24.0585 8.69259 24.0081 8.82012 24.0081C8.94684 24.0081 9.06869 24.0585 9.15885 24.1478C9.24821 24.238 9.29857 24.3598 9.29857 24.4865C9.29857 24.6141 9.24821 24.7359 9.15885 24.8253C9.06869 24.9154 8.94684 24.9658 8.82012 24.9658C8.69259 24.9658 8.57075 24.9154 8.48139 24.8253C8.39123 24.7359 8.34087 24.6141 8.34087 24.4865ZM16 7.20239C15.9915 7.20285 15.9831 7.20306 15.9746 7.203C12.3503 7.22356 9.97965 7.35698 8.97863 7.56504C8.78655 7.61621 8.52927 7.79282 8.24343 8.163C8.01334 8.46095 7.59479 9.23408 7.08527 10.2867C7.08965 10.2871 7.09217 10.2875 7.0947 10.2878L7.0947 10.2878C7.09728 10.2882 7.09987 10.2886 7.10446 10.2889C7.48489 10.3189 8.07385 10.3448 8.86107 10.3654C10.4355 10.4066 12.8077 10.4274 15.9724 10.4274C15.9816 10.4273 15.9908 10.4275 16 10.428C16.0092 10.4275 16.0184 10.4273 16.0277 10.4274C19.1923 10.4274 21.5645 10.4066 23.1389 10.3654C23.9262 10.3448 24.5151 10.3189 24.8955 10.2889C24.9002 10.2886 24.9028 10.2882 24.9054 10.2878C24.9079 10.2875 24.9104 10.2871 24.9147 10.2867C24.4052 9.23408 23.9867 8.46095 23.7566 8.163C23.4707 7.79282 23.2135 7.61621 23.0214 7.56504C22.0204 7.35698 19.6497 7.22356 16.0254 7.203C16.0169 7.20306 16.0085 7.20285 16 7.20239ZM16 11.2392C15.9908 11.2397 15.9816 11.2399 15.9724 11.2397C12.8042 11.2397 10.4284 11.219 8.83981 11.1774C8.0455 11.1566 7.44936 11.1309 7.04069 11.0987C6.83635 11.0826 6.68124 11.066 6.55569 11.0429C6.49291 11.0313 6.44001 11.021 6.36879 10.9926L6.36586 10.9914C6.33089 10.9775 6.28976 10.9611 6.23092 10.9118C6.17043 10.8611 6.07065 10.7354 6.07735 10.5688C6.07951 10.5149 6.0924 10.4619 6.11527 10.413C6.75905 9.03745 7.2288 8.14782 7.60057 7.66642H7.60041C7.95215 7.21089 8.33238 6.89197 8.77936 6.77622C8.78535 6.77465 8.79138 6.77322 8.79744 6.77194C9.96727 6.52582 12.3166 6.41143 15.97 6.39069L15.97 6.3907C15.98 6.39051 15.99 6.39069 16 6.39125C16.01 6.39069 16.02 6.39051 16.03 6.3907L16.03 6.39069C19.6834 6.41143 22.0327 6.52582 23.2026 6.77194C23.2086 6.77322 23.2147 6.77465 23.2207 6.77622C23.6676 6.89197 24.0479 7.21089 24.3996 7.66642H24.3994C24.7712 8.14782 25.241 9.03745 25.8847 10.413C25.9076 10.4619 25.9205 10.5149 25.9227 10.5688C25.9294 10.7354 25.8296 10.8611 25.7691 10.9118C25.7102 10.9611 25.6691 10.9775 25.6342 10.9914L25.6312 10.9926C25.56 11.021 25.5071 11.0313 25.4443 11.0429C25.3188 11.066 25.1637 11.0826 24.9593 11.0987C24.5507 11.1309 23.9545 11.1566 23.1602 11.1774C21.5716 11.219 19.1958 11.2397 16.0277 11.2397C16.0184 11.2399 16.0092 11.2397 16 11.2392ZM20.5803 12.3877L20.586 12.3877H21.4036H21.4046H25.2745H25.2757C25.9123 12.3899 26.5159 12.6335 27.0349 13.0767C27.5538 13.52 28 14.1547 28.3975 14.9718C28.4277 15.0337 28.4415 15.1023 28.4379 15.1711C28.4342 15.2398 28.4131 15.3065 28.3766 15.3649C28.3401 15.4233 28.2894 15.4714 28.2291 15.5048C28.1689 15.5381 28.1012 15.5557 28.0323 15.5557H21.0456C20.9861 15.5557 20.9273 15.5426 20.8734 15.5173C20.8195 15.4921 20.7718 15.4553 20.7337 15.4096C20.3762 14.9806 20.1798 14.3493 20.1798 13.7705V13.2H16.0277C16.0184 13.2002 16.0092 13.2 16 13.1995C15.9908 13.2 15.9816 13.2002 15.9723 13.2H11.8202V13.7705C11.8202 14.3493 11.6238 14.9806 11.2663 15.4096C11.2282 15.4553 11.1805 15.4921 11.1266 15.5173C11.0727 15.5426 11.0139 15.5557 10.9544 15.5557H3.96765C3.8988 15.5557 3.83107 15.5381 3.77085 15.5048C3.71062 15.4714 3.65986 15.4233 3.62335 15.3649C3.58683 15.3065 3.56576 15.2398 3.5621 15.1711C3.55844 15.1023 3.57232 15.0337 3.60243 14.9718C3.99999 14.1547 4.44616 13.52 4.9651 13.0767C5.48404 12.6335 6.0877 12.3899 6.72424 12.3877H6.72424H6.72551H10.5954H10.5964H11.414L11.4197 12.3877H15.9723C15.9816 12.3876 15.9908 12.3878 16 12.3883C16.0092 12.3878 16.0184 12.3876 16.0277 12.3877H20.5803ZM10.6016 13.2L10.5878 13.2H6.72694C6.28712 13.2015 5.89299 13.3526 5.49262 13.6945C5.20595 13.9394 4.92272 14.2909 4.65081 14.7434H10.7286C10.8636 14.4891 11.0079 14.0451 11.0079 13.7705V13.2H10.6016ZM20.9921 13.2V13.7705C20.9921 14.0451 21.1364 14.4891 21.2713 14.7434H27.3492C27.0772 14.2909 26.794 13.9394 26.5074 13.6945C26.107 13.3526 25.7129 13.2015 25.273 13.2H21.4122L21.3984 13.2H20.9921Z" fill="white"/>
<path d="M7.57174 5.7216L7.65032 6.01113L7.65032 6.01113L7.57174 5.7216ZM15.9659 5.00005L15.9707 5.30001L15.9707 5.30001L15.9659 5.00005ZM5.13689 8.73156L4.86948 8.59559L4.86948 8.59559L5.13689 8.73156ZM4.5552 9.94775L4.52441 10.2462L4.73942 10.2683L4.82852 10.0714L4.5552 9.94775ZM4.22173 9.94062L4.21595 9.64068L4.21595 9.64068L4.22173 9.94062ZM3.47781 10.0112L3.431 9.7149L3.431 9.7149L3.47781 10.0112ZM2.76356 10.1699L2.67608 9.88291L2.67608 9.88291L2.76356 10.1699ZM2.69955 10.189L2.61417 9.90127L2.60468 9.90444L2.69955 10.189ZM2.69954 10.189L2.78578 10.4765L2.79441 10.4737L2.69954 10.189ZM2.6995 10.1891L2.78483 10.4767L2.7857 10.4764L2.6995 10.1891ZM2.19447 10.4605L1.98012 10.2506L1.98012 10.2506L2.19447 10.4605ZM1.6798 11.3014L1.95308 11.4251L1.95308 11.4251L1.6798 11.3014ZM1.5056 11.7662L1.79504 11.8451L1.79504 11.8451L1.5056 11.7662ZM1.46372 11.9976L1.76302 12.018L1.76309 12.0169L1.46372 11.9976ZM1.46266 12.013L1.76192 12.034L1.76196 12.0335L1.46266 12.013ZM1.55002 12.3474L1.79702 12.1771L1.79699 12.1771L1.55002 12.3474ZM1.67206 12.4748L1.49551 12.7173L1.49552 12.7173L1.67206 12.4748ZM1.69075 12.4886L1.8725 12.2499L1.8725 12.2499L1.69075 12.4886ZM1.82957 12.582L1.98567 12.3258L1.98567 12.3258L1.82957 12.582ZM2.21811 12.7842L2.34202 12.5109L2.34202 12.5109L2.21811 12.7842ZM2.82813 13.016L3.05221 13.2154L3.36127 12.8682L2.91759 12.7296L2.82813 13.016ZM2.52055 13.3587L2.29784 13.1577L2.29783 13.1577L2.52055 13.3587ZM2.26504 13.6402L2.47908 13.8507L2.48688 13.8421L2.26504 13.6402ZM2.26503 13.6402L2.05113 13.4298L2.04779 13.4333L2.26503 13.6402ZM2.26502 13.6402L2.04778 13.4333L2.03885 13.4427L2.03076 13.4528L2.26502 13.6402ZM2.26501 13.6402L2.48685 13.8421L2.4933 13.8351L2.49928 13.8276L2.26501 13.6402ZM1.05 15.1499L0.786223 15.007L0.786215 15.007L1.05 15.1499ZM1.00098 15.341L0.700984 15.3393L0.700984 15.3394L1.00098 15.341ZM1.11808 19.3941H1.41808V19.3837L1.41737 19.3734L1.11808 19.3941ZM6.46674 25.3006V25.0006H6.16674V25.3006H6.46674ZM7.81782 25.3006L8.05064 25.1114L7.9606 25.0006H7.81782V25.3006ZM7.9071 25.3996L7.69496 25.6117L7.69496 25.6117L7.9071 25.3996ZM9.73315 25.3996L9.94528 25.6117L9.94528 25.6117L9.73315 25.3996ZM10.0767 24.782L10.0649 24.4822L9.83676 24.4912L9.78466 24.7135L10.0767 24.782ZM10.6372 24.7782L10.6307 25.0781L10.6307 25.0781L10.6372 24.7782ZM10.6487 24.7785L10.9409 24.7105L10.8881 24.4835L10.6551 24.4785L10.6487 24.7785ZM10.9938 25.3996L10.7816 25.6117L10.7816 25.6117L10.9938 25.3996ZM12.8198 25.3996L13.032 25.6117L13.032 25.6117L12.8198 25.3996ZM13.1627 24.7848L13.1618 24.4848L12.9253 24.4856L12.8708 24.7157L13.1627 24.7848ZM23.1438 24.7856L23.1288 25.0852L23.1288 25.0852L23.1438 24.7856ZM23.7909 25.1197L23.5413 25.2862L23.5413 25.2862L23.7909 25.1197ZM23.9372 25.2525L24.0788 24.988L24.0788 24.988L23.9372 25.2525ZM24.1289 25.3006L24.1289 25.6006H24.1289V25.3006ZM25.5332 25.3006H25.8332V25.0006H25.5332V25.3006ZM30.8819 19.3943L30.5826 19.3736L30.5819 19.3839V19.3943H30.8819ZM30.999 15.341L31.299 15.3394L31.299 15.3393L30.999 15.341ZM30.95 15.1499L31.2138 15.007L31.2138 15.007L30.95 15.1499ZM29.735 13.6402L29.4963 13.822L29.5043 13.8324L29.5131 13.8421L29.735 13.6402ZM29.735 13.6402L29.9736 13.4583L29.9656 13.4479L29.9568 13.4382L29.735 13.6402ZM29.4794 13.3587L29.2567 13.5597L29.2567 13.5597L29.4794 13.3587ZM29.1718 13.016L29.0824 12.7296L28.6387 12.8682L28.9478 13.2154L29.1718 13.016ZM29.7818 12.7842L29.6579 12.5109L29.6579 12.5109L29.7818 12.7842ZM30.1703 12.582L30.0142 12.3258L30.0142 12.3258L30.1703 12.582ZM30.3092 12.4886L30.4909 12.7273L30.4909 12.7272L30.3092 12.4886ZM30.3278 12.4748L30.5043 12.7174L30.511 12.7125L30.5174 12.7073L30.3278 12.4748ZM30.3278 12.4748L30.1513 12.2322L30.1446 12.2371L30.1383 12.2423L30.3278 12.4748ZM30.4499 12.3474L30.2029 12.1771L30.2029 12.1771L30.4499 12.3474ZM30.5372 12.013H30.2372V12.0235L30.238 12.034L30.5372 12.013ZM30.5372 12.013H30.8372V12.0028L30.8365 11.9925L30.5372 12.013ZM30.5362 11.9976L30.2368 12.0169L30.2369 12.018L30.5362 11.9976ZM30.4943 11.7662L30.7837 11.6873L30.7837 11.6873L30.4943 11.7662ZM30.3201 11.3014L30.5934 11.1776L30.5934 11.1776L30.3201 11.3014ZM29.8054 10.4605L30.0198 10.2506L30.0198 10.2506L29.8054 10.4605ZM29.3004 10.1891L29.3857 9.90145L29.3857 9.90145L29.3004 10.1891ZM29.2363 10.1699L29.3238 9.88291L29.3238 9.88291L29.2363 10.1699ZM28.5221 10.0112L28.5689 9.7149L28.5689 9.7149L28.5221 10.0112ZM27.7782 9.94062L27.7724 10.2406L27.7724 10.2406L27.7782 9.94062ZM27.4448 9.94774L27.1715 10.0714L27.2606 10.2683L27.4756 10.2462L27.4448 9.94774ZM26.8631 8.73156L27.1305 8.59559L26.8631 8.73156ZM24.4283 5.7216L24.3497 6.01113L24.3497 6.01113L24.4283 5.7216ZM16.0341 5.00005L16.0293 5.30001L16.0293 5.30001L16.0341 5.00005ZM16 5.00094L15.9796 5.30024L16 5.30163L16.0203 5.30024L16 5.00094ZM10.7268 23.9621L10.6941 24.2603L10.9118 24.2842L11.0009 24.0841L10.7268 23.9621ZM10.9938 23.5735L11.2059 23.7857L11.2059 23.7857L10.9938 23.5735ZM12.8198 23.5735L12.6077 23.7857L12.6077 23.7857L12.8198 23.5735ZM13.0911 23.9728L12.8158 24.092L12.8943 24.2734L13.092 24.2728L13.0911 23.9728ZM23.1844 23.9743L23.1694 24.2739L23.1694 24.2739L23.1844 23.9743ZM24.3101 24.4883L24.0905 24.6927L24.1794 24.7883H24.3101V24.4883ZM25.8713 24.4883V24.7883H25.8966L25.9216 24.7841L25.8713 24.4883ZM26.0075 24.4883L25.9572 24.7841L25.9822 24.7883H26.0075V24.4883ZM28.8098 24.4883V24.7883H29.3109L29.0742 24.3466L28.8098 24.4883ZM28.7062 24.295H28.4062V24.3703L28.4418 24.4367L28.7062 24.295ZM28.7062 24.2948H29.0062V24.2196L28.9707 24.1532L28.7062 24.2948ZM16.0277 22.7264L16.0277 22.4264L16.0234 22.4264L16.0277 22.7264ZM16 22.7259L16.0162 22.4263L16 22.4254L15.9838 22.4263L16 22.7259ZM15.9723 22.7264L15.9766 22.4264H15.9723V22.7264ZM3.29378 24.2948L3.02932 24.1532L2.99378 24.2196V24.2948H3.29378ZM3.29378 24.295L3.5582 24.4367L3.59378 24.3703V24.295H3.29378ZM3.19019 24.4883L2.92576 24.3466L2.68906 24.7883H3.19019V24.4883ZM5.99246 24.4883V24.7883H6.0178L6.04278 24.7841L5.99246 24.4883ZM6.12871 24.4883L6.07839 24.7841L6.10337 24.7883H6.12871V24.4883ZM7.52857 24.4883V24.7883H7.82877L7.82857 24.4881L7.52857 24.4883ZM7.52856 24.4865L7.22856 24.4865L7.22856 24.4868L7.52856 24.4865ZM7.9071 23.5735L8.11923 23.7857L8.11923 23.7857L7.9071 23.5735ZM9.73315 23.5735L9.52102 23.7857L9.52102 23.7857L9.73315 23.5735ZM10.004 23.9718L9.72877 24.0912L9.81157 24.282L10.0193 24.2714L10.004 23.9718ZM10.0832 23.9677L10.0677 23.6681L10.0677 23.6681L10.0832 23.9677ZM10.4788 23.9518L10.4818 24.2518L10.4818 24.2518L10.4788 23.9518ZM16.0277 21.9141L16.0234 22.2141L16.0277 22.2141L16.0277 21.9141ZM16 21.9147L15.9838 22.2142L16 22.2151L16.0162 22.2142L16 21.9147ZM26.0869 21.9141L26.0869 22.2141H26.0869V21.9141ZM29.4203 23.9079L29.1561 24.0499L29.5298 24.7455L29.7122 23.9772L29.4203 23.9079ZM30.0696 19.2983L30.3689 19.3189L30.3696 19.3086V19.2983H30.0696ZM30.0696 19.1487H30.3696L30.3696 19.1445L30.0696 19.1487ZM30.0877 19.0231L30.3743 19.1117L30.3849 19.0775L30.3871 19.0418L30.0877 19.0231ZM30.1845 15.4694L30.4845 15.4684L30.4842 15.3839L30.4399 15.312L30.1845 15.4694ZM28.8762 13.903L28.6535 14.104L28.6535 14.104L28.8762 13.903ZM28.0355 12.9416L27.8035 13.1317L27.8035 13.1317L28.0355 12.9416ZM27.4834 12.1204L27.7611 12.0068L27.7611 12.0068L27.4834 12.1204ZM27.4279 11.9836L27.706 11.8711L27.7059 11.8708L27.4279 11.9836ZM27.4274 11.9822L27.1493 12.0948L27.1494 12.0951L27.4274 11.9822ZM26.139 9.09979L26.4064 8.96382L26.4064 8.96382L26.139 9.09979ZM25.09 7.32701L24.8479 7.50415L24.8479 7.50415L25.09 7.32701ZM24.2155 6.50567L24.1369 6.79519L24.1369 6.79519L24.2155 6.50567ZM16.0211 5.81235L16.0259 5.51239L16.0259 5.51239L16.0211 5.81235ZM16 5.81147L16.0203 5.51216L16 5.51078L15.9797 5.51216L16 5.81147ZM15.9789 5.81235L15.9741 5.51239L15.9741 5.51239L15.9789 5.81235ZM7.78449 6.50567L7.86307 6.79519L7.86307 6.79519L7.78449 6.50567ZM6.91 7.32701L7.15211 7.50415L7.15211 7.50415L6.91 7.32701ZM5.86099 9.09979L5.59357 8.96382L5.59357 8.96382L5.86099 9.09979ZM4.57263 11.9822L4.85035 12.0957L4.85072 12.0948L4.57263 11.9822ZM4.57259 11.9823L4.29487 11.8689L4.29449 11.8698L4.57259 11.9823ZM4.51656 12.1204L4.23891 12.0068L4.2389 12.0068L4.51656 12.1204ZM3.96445 12.9416L4.1965 13.1317L4.1965 13.1317L3.96445 12.9416ZM3.12375 13.903L2.90103 13.702L2.90103 13.702L3.12375 13.903ZM1.8155 15.4694L1.56012 15.312L1.51579 15.3839L1.5155 15.4684L1.8155 15.4694ZM1.91232 19.0231L1.61291 19.0418L1.61514 19.0775L1.62569 19.1117L1.91232 19.0231ZM1.93038 19.1487L1.63038 19.1445V19.1487H1.93038ZM1.93038 19.2981H1.63038V19.3085L1.63109 19.3188L1.93038 19.2981ZM2.57966 23.9079L2.28778 23.9772L2.47022 24.7455L2.84394 24.0499L2.57966 23.9079ZM5.91313 21.9141L5.91313 22.2141L5.91313 22.2141L5.91313 21.9141ZM15.9723 21.9141L15.9723 22.2141L15.9766 22.2141L15.9723 21.9141ZM2.41489 25.3006L2.41489 25.0006L2.41481 25.0006L2.41489 25.3006ZM2.44254 25.3006L2.49152 25.0046L2.4672 25.0006H2.44254V25.3006ZM2.17146 25.2197L2.35117 24.9794L2.35116 24.9794L2.17146 25.2197ZM2.02508 25.009L1.73726 25.0936L1.73727 25.0936L2.02508 25.009ZM1.93038 24.674L2.21989 24.5953L1.63038 24.674H1.93038ZM5.65444 25.3006H5.95444V25.0006H5.65444V25.3006ZM2.57516 25.3006V25.0006H2.55051L2.52619 25.0046L2.57516 25.3006ZM2.47014 25.3042L2.44153 25.6028L2.44154 25.6028L2.47014 25.3042ZM4.20161 10.7537L4.47762 10.8712L4.66165 10.4392L4.19225 10.4538L4.20161 10.7537ZM3.60458 10.8135L3.65139 11.1099L3.65139 11.1099L3.60458 10.8135ZM3.81828 11.6806L4.08874 11.8104L4.09286 11.8018L4.09643 11.793L3.81828 11.6806ZM3.81828 11.6806L3.54782 11.5508L3.54364 11.5595L3.54003 11.5685L3.81828 11.6806ZM3.81821 11.6808L3.53996 11.5686L3.53984 11.5689L3.81821 11.6808ZM3.81813 11.681L4.09629 11.7934L4.0965 11.7928L3.81813 11.681ZM3.8177 11.682L3.53954 11.5697L3.53947 11.5698L3.8177 11.682ZM3.81759 11.6823L4.09573 11.7948L4.09582 11.7945L3.81759 11.6823ZM3.81753 11.6825L3.53939 11.57L3.53938 11.5701L3.81753 11.6825ZM3.76471 11.8128L3.48705 11.6991L3.48704 11.6992L3.76471 11.8128ZM3.41136 12.333L3.34385 12.6253L3.52929 12.6681L3.64704 12.5186L3.41136 12.333ZM2.55366 12.0444L2.67757 11.7711L2.67757 11.7711L2.55366 12.0444ZM2.31219 11.9195L2.02638 11.8283L1.95255 12.0598L2.16362 12.1801L2.31219 11.9195ZM2.41976 11.6365L2.69304 11.7602L2.69304 11.7602L2.41976 11.6365ZM2.75893 11.0483L3.05882 11.0562L3.08361 10.1166L2.51906 10.8681L2.75893 11.0483ZM2.80183 11.0307L2.66649 10.763L2.66649 10.763L2.80183 11.0307ZM3.00043 10.947L3.08791 11.2339L3.08791 11.2339L3.00043 10.947ZM29.4248 25.3006L29.4738 25.0046L29.4495 25.0006H29.4248V25.3006ZM26.3455 25.3006V25.0006H26.0455V25.3006H26.3455ZM29.5299 25.3042L29.5585 25.6029L29.561 25.6026L29.5299 25.3042ZM29.5369 25.3035L29.5681 25.6019L29.5743 25.6011L29.5369 25.3035ZM29.5467 25.3023L29.5841 25.6L29.5917 25.5989L29.5467 25.3023ZM29.5575 25.3006V25.0006H29.5349L29.5125 25.004L29.5575 25.3006ZM29.5851 25.3006L29.5852 25.0006H29.5851V25.3006ZM29.8285 25.2197L29.6488 24.9794L29.6488 24.9794L29.8285 25.2197ZM29.9749 25.009L30.2627 25.0936L30.2627 25.0936L29.9749 25.009ZM30.0696 24.674H30.3696L29.7801 24.5953L30.0696 24.674ZM29.4462 12.0444L29.3223 11.7711L29.3223 11.7711L29.4462 12.0444ZM28.5886 12.333L28.3529 12.5186L28.4707 12.6681L28.6561 12.6253L28.5886 12.333ZM29.6877 11.9195L29.8363 12.1801L30.0474 12.0598L29.9735 11.8283L29.6877 11.9195ZM29.5801 11.6365L29.8534 11.5127L29.8534 11.5127L29.5801 11.6365ZM29.241 11.0483L29.4808 10.8681L28.9165 10.1169L28.9411 11.0561L29.241 11.0483ZM29.1981 11.0307L29.0627 11.2984L29.0627 11.2984L29.1981 11.0307ZM28.9995 10.947L28.912 11.2339L28.912 11.2339L28.9995 10.947ZM28.3953 10.8135L28.3485 11.1099L28.3485 11.1099L28.3953 10.8135ZM27.7984 10.7537L27.8078 10.4538L27.3383 10.4391L27.5224 10.8712L27.7984 10.7537ZM28.1817 11.6806L28.4602 11.569L28.4599 11.5682L28.1817 11.6806ZM28.1821 11.6815L27.9036 11.7931L27.9039 11.7939L28.1821 11.6815ZM28.2353 11.8128L28.5129 11.6992L28.5129 11.6991L28.2353 11.8128ZM12.2455 24.1478L12.4586 23.9366L12.4567 23.9347L12.2455 24.1478ZM12.3674 24.3569L12.6669 24.3739L12.6697 24.324L12.6562 24.2758L12.3674 24.3569ZM11.5681 24.1478L11.7802 24.36L11.7802 24.36L11.5681 24.1478ZM11.5681 24.8253L11.7812 24.6141L11.7792 24.6122L11.5681 24.8253ZM12.2455 24.8253L12.4577 25.0374L12.4577 25.0374L12.2455 24.8253ZM12.385 24.5006L12.6849 24.5093L12.6864 24.4593L12.6715 24.4115L12.385 24.5006ZM12.3667 24.3813L12.0667 24.3823L12.0667 24.3823L12.3667 24.3813ZM8.48139 24.1478L8.69353 24.36L8.69353 24.36L8.48139 24.1478ZM9.15885 24.1478L9.37195 23.9366L9.37002 23.9347L9.15885 24.1478ZM9.15885 24.8253L9.37098 25.0374L9.37099 25.0374L9.15885 24.8253ZM8.48139 24.8253L8.69449 24.6141L8.69256 24.6122L8.48139 24.8253ZM15.9746 7.203L15.9768 6.90298L15.9729 6.903L15.9746 7.203ZM16 7.20239L16.0166 6.90284L16 6.90193L15.9834 6.90284L16 7.20239ZM8.97863 7.56504L8.91758 7.27132L8.90944 7.27301L8.9014 7.27515L8.97863 7.56504ZM8.24343 8.163L8.48087 8.34637L8.48088 8.34635L8.24343 8.163ZM7.08527 10.2867L6.81524 10.156L6.62447 10.5501L7.06088 10.5857L7.08527 10.2867ZM7.0947 10.2878L7.05134 10.5848L7.06157 10.586L7.0947 10.2878ZM7.0947 10.2878L7.13804 9.99079L7.12783 9.98966L7.0947 10.2878ZM7.10446 10.2889L7.08043 10.588L7.08093 10.588L7.10446 10.2889ZM8.86107 10.3654L8.85322 10.6653L8.85322 10.6653L8.86107 10.3654ZM15.9724 10.4274V10.7275L15.9766 10.7274L15.9724 10.4274ZM16 10.428L15.9838 10.7276L16 10.7284L16.0162 10.7276L16 10.428ZM16.0277 10.4274L16.0234 10.7274H16.0277V10.4274ZM23.1389 10.3654L23.1468 10.6653L23.1468 10.6653L23.1389 10.3654ZM24.8955 10.2889L24.872 9.98987L24.872 9.98987L24.8955 10.2889ZM24.9054 10.2878L24.9488 10.5847L24.9488 10.5847L24.9054 10.2878ZM24.9147 10.2867L24.9394 10.5857L25.3754 10.5498L25.1848 10.156L24.9147 10.2867ZM23.7566 8.163L23.5191 8.34635L23.5191 8.34637L23.7566 8.163ZM23.0214 7.56504L23.0986 7.27515L23.0906 7.27301L23.0824 7.27132L23.0214 7.56504ZM16.0254 7.203L16.0271 6.90298L16.0232 6.903L16.0254 7.203ZM15.9724 11.2397L15.9766 10.9397H15.9724V11.2397ZM16 11.2392L16.0162 10.9396L16 10.9388L15.9838 10.9396L16 11.2392ZM8.83981 11.1774L8.84766 10.8775L8.84766 10.8775L8.83981 11.1774ZM7.04069 11.0987L7.06422 10.7996L7.06422 10.7996L7.04069 11.0987ZM6.55569 11.0429L6.61009 10.7478L6.61009 10.7478L6.55569 11.0429ZM6.36879 10.9926L6.47986 10.7139L6.47975 10.7138L6.36879 10.9926ZM6.36586 10.9914L6.47682 10.7127L6.47678 10.7127L6.36586 10.9914ZM6.23092 10.9118L6.03824 11.1418L6.03824 11.1418L6.23092 10.9118ZM6.07735 10.5688L6.3771 10.5809L6.37711 10.5808L6.07735 10.5688ZM6.11527 10.413L5.84355 10.2858L5.84351 10.2859L6.11527 10.413ZM7.60057 7.66642L7.83801 7.84978L8.2113 7.36642H7.60057V7.66642ZM7.60041 7.66642L7.36296 7.48307L6.98973 7.96642H7.60041V7.66642ZM8.77936 6.77622L8.85457 7.06664L8.85511 7.0665L8.77936 6.77622ZM8.79744 6.77194L8.73568 6.47836L8.73504 6.4785L8.79744 6.77194ZM15.97 6.39069L16.0374 6.09838L16.0033 6.0905L15.9683 6.0907L15.97 6.39069ZM15.97 6.3907L15.9025 6.68301L15.9386 6.69133L15.9756 6.69064L15.97 6.3907ZM16 6.39125L15.9834 6.69079L16 6.69171L16.0166 6.69079L16 6.39125ZM16.03 6.3907L16.0244 6.69064L16.057 6.69125L16.0889 6.68487L16.03 6.3907ZM16.03 6.39069L16.0317 6.0907L16.0012 6.09053L15.9712 6.09652L16.03 6.39069ZM23.2026 6.77194L23.265 6.4785L23.2643 6.47836L23.2026 6.77194ZM23.2207 6.77622L23.1449 7.0665L23.1454 7.06664L23.2207 6.77622ZM24.3996 7.66642V7.96642H25.0103L24.6371 7.48307L24.3996 7.66642ZM24.3994 7.66642V7.36642H23.7887L24.162 7.84978L24.3994 7.66642ZM25.8847 10.413L26.1565 10.2859L26.1565 10.2858L25.8847 10.413ZM25.9227 10.5688L25.6229 10.5808L25.6229 10.5809L25.9227 10.5688ZM25.7691 10.9118L25.9618 11.1418L25.9618 11.1418L25.7691 10.9118ZM25.6342 10.9914L25.5232 10.7127L25.5231 10.7127L25.6342 10.9914ZM25.6312 10.9926L25.5202 10.7139L25.5202 10.7139L25.6312 10.9926ZM24.9593 11.0987L24.9358 10.7996L24.9358 10.7996L24.9593 11.0987ZM23.1602 11.1774L23.1524 10.8775L23.1524 10.8775L23.1602 11.1774ZM16.0277 11.2397V10.9397L16.0234 10.9398L16.0277 11.2397ZM20.586 12.3877L20.586 12.0877L20.5838 12.0877L20.586 12.3877ZM20.5803 12.3877L20.5803 12.6877L20.5824 12.6877L20.5803 12.3877ZM25.2757 12.3877L25.2768 12.0877H25.2757V12.3877ZM27.0349 13.0767L27.2297 12.8486L27.0349 13.0767ZM28.3975 14.9718L28.6673 14.8406L28.6673 14.8406L28.3975 14.9718ZM28.4379 15.1711L28.1383 15.1551L28.1383 15.1551L28.4379 15.1711ZM28.3766 15.3649L28.1223 15.2058L28.1223 15.2058L28.3766 15.3649ZM28.2291 15.5048L28.0837 15.2424L28.0837 15.2424L28.2291 15.5048ZM28.0323 15.5557L28.0323 15.8557L28.0324 15.8557L28.0323 15.5557ZM21.0456 15.5557L21.0455 15.8557H21.0456V15.5557ZM20.8734 15.5173L21.0006 15.2456L21.0006 15.2456L20.8734 15.5173ZM20.7337 15.4096L20.5032 15.6016L20.5032 15.6016L20.7337 15.4096ZM20.1798 13.2H20.4798V12.9H20.1798V13.2ZM16.0277 13.2V12.9L16.0234 12.9001L16.0277 13.2ZM16 13.1995L16.0162 12.8999L16 12.899L15.9838 12.8999L16 13.1995ZM15.9723 13.2L15.9766 12.9H15.9723V13.2ZM11.8202 13.2V12.9H11.5202V13.2H11.8202ZM11.2663 15.4096L11.4967 15.6016L11.4968 15.6016L11.2663 15.4096ZM11.1266 15.5173L11.2539 15.789L11.2539 15.789L11.1266 15.5173ZM10.9544 15.5557L10.9544 15.8557L10.9545 15.8557L10.9544 15.5557ZM3.96765 15.5557L3.9676 15.8557H3.96765V15.5557ZM3.5621 15.1711L3.86167 15.1551L3.86167 15.1551L3.5621 15.1711ZM3.60243 14.9718L3.33267 14.8406L3.33264 14.8406L3.60243 14.9718ZM4.9651 13.0767L4.77026 12.8486L4.77026 12.8486L4.9651 13.0767ZM6.72424 12.3877L6.72424 12.0877L6.7232 12.0877L6.72424 12.3877ZM11.414 12.3877L11.4161 12.0877H11.414V12.3877ZM11.4197 12.3877L11.4176 12.6877H11.4197V12.3877ZM15.9723 12.3877V12.6878L15.9766 12.6877L15.9723 12.3877ZM16 12.3883L15.9838 12.6878L16 12.6887L16.0162 12.6878L16 12.3883ZM16.0277 12.3877L16.0234 12.6877H16.0277V12.3877ZM10.5878 13.2L10.5887 12.9H10.5878V13.2ZM10.6016 13.2L10.6008 13.5H10.6016V13.2ZM6.72694 13.2L6.72694 12.9L6.72589 12.9L6.72694 13.2ZM5.49262 13.6945L5.29778 13.4664L5.29778 13.4664L5.49262 13.6945ZM4.65081 14.7434L4.39367 14.5888L4.12053 15.0434H4.65081V14.7434ZM10.7286 14.7434V15.0434H10.909L10.9936 14.884L10.7286 14.7434ZM11.0079 13.2H11.3079V12.9H11.0079V13.2ZM20.9921 13.2V12.9H20.6921V13.2H20.9921ZM21.2713 14.7434L21.0063 14.884L21.0909 15.0434H21.2713V14.7434ZM27.3492 14.7434V15.0434H27.8794L27.6063 14.5888L27.3492 14.7434ZM26.5074 13.6945L26.7022 13.4664L26.7022 13.4664L26.5074 13.6945ZM25.273 13.2L25.2741 12.9H25.273V13.2ZM21.4122 13.2V12.9L21.4113 12.9L21.4122 13.2ZM21.3984 13.2V13.5L21.3992 13.5L21.3984 13.2ZM7.65032 6.01113C9.19362 5.59224 11.9265 5.36454 15.9707 5.30001L15.9611 4.70009C11.922 4.76454 9.11827 4.99098 7.49315 5.43208L7.65032 6.01113ZM6.49656 7.02455C6.89412 6.48117 7.22836 6.12566 7.65032 6.01113L7.49315 5.43208C6.84816 5.60714 6.40593 6.13229 6.01233 6.67026L6.49656 7.02455ZM5.40431 8.86753C5.74465 8.19819 6.1148 7.54633 6.49656 7.02455L6.01233 6.67026C5.60292 7.22983 5.2159 7.91429 4.86948 8.59559L5.40431 8.86753ZM4.82852 10.0714C5.0029 9.68606 5.19733 9.27459 5.40431 8.86753L4.86948 8.59559C4.65745 9.01259 4.45905 9.43253 4.28188 9.82408L4.82852 10.0714ZM4.22752 10.2406C4.34809 10.2382 4.43856 10.2373 4.52441 10.2462L4.58599 9.64933C4.45809 9.63614 4.33185 9.63844 4.21595 9.64068L4.22752 10.2406ZM3.52463 10.3075C3.76762 10.2692 4.0107 10.2447 4.22752 10.2406L4.21595 9.64068C3.96537 9.64551 3.69415 9.67332 3.431 9.7149L3.52463 10.3075ZM2.85104 10.4568C3.04851 10.3966 3.28143 10.346 3.52463 10.3075L3.431 9.7149C3.16805 9.75644 2.90678 9.81258 2.67608 9.88291L2.85104 10.4568ZM2.78488 10.4766C2.80564 10.4705 2.82801 10.4639 2.85104 10.4568L2.67608 9.88291C2.65553 9.88918 2.63528 9.89519 2.61422 9.90143L2.78488 10.4766ZM2.79441 10.4737L2.79442 10.4736L2.60468 9.90444L2.60467 9.90444L2.79441 10.4737ZM2.78573 10.4764L2.78574 10.4764L2.61334 9.9017L2.61332 9.9017L2.78573 10.4764ZM2.78572 10.4764L2.78573 10.4764L2.61332 9.9017L2.61331 9.90171L2.78572 10.4764ZM2.7857 10.4764L2.78572 10.4764L2.61331 9.90171L2.61329 9.90171L2.7857 10.4764ZM2.40882 10.6704C2.51888 10.558 2.6057 10.5298 2.78483 10.4767L2.61416 9.90145C2.42435 9.95777 2.20576 10.0202 1.98012 10.2506L2.40882 10.6704ZM1.95308 11.4251C2.09722 11.1069 2.23248 10.8505 2.40883 10.6704L1.98012 10.2506C1.72269 10.5135 1.55125 10.858 1.40652 11.1776L1.95308 11.4251ZM1.79504 11.8451C1.82995 11.7171 1.88436 11.5769 1.95308 11.4251L1.40652 11.1776C1.33081 11.3448 1.26262 11.5169 1.21616 11.6873L1.79504 11.8451ZM1.76309 12.0169C1.76673 11.9606 1.77723 11.9105 1.79504 11.8451L1.21616 11.6873C1.19329 11.7712 1.17166 11.865 1.16434 11.9782L1.76309 12.0169ZM1.76196 12.0335L1.76302 12.018L1.16442 11.9771L1.16336 11.9925L1.76196 12.0335ZM1.79699 12.1771C1.76926 12.1368 1.76352 12.1133 1.76162 12.1029C1.75907 12.0888 1.75899 12.0758 1.76192 12.034L1.1634 11.992C1.16053 12.0329 1.15383 12.114 1.17127 12.2101C1.18936 12.3097 1.2302 12.412 1.30306 12.5177L1.79699 12.1771ZM1.8486 12.2322C1.83149 12.2198 1.82998 12.2183 1.82744 12.2158C1.82476 12.2132 1.8152 12.2035 1.79702 12.1771L1.30303 12.5177C1.38102 12.6308 1.44219 12.6785 1.49551 12.7173L1.8486 12.2322ZM1.8725 12.2499C1.86317 12.2428 1.85441 12.2364 1.8486 12.2322L1.49552 12.7173C1.50203 12.7221 1.50565 12.7247 1.509 12.7273L1.8725 12.2499ZM1.98567 12.3258C1.93978 12.2979 1.90406 12.2739 1.8725 12.2499L1.509 12.7273C1.56183 12.7675 1.6159 12.8031 1.67347 12.8382L1.98567 12.3258ZM2.34202 12.5109C2.19563 12.4445 2.07709 12.3815 1.98567 12.3258L1.67347 12.8382C1.78897 12.9086 1.92954 12.9827 2.0942 13.0574L2.34202 12.5109ZM2.91759 12.7296C2.69961 12.6615 2.50543 12.585 2.34202 12.5109L2.0942 13.0574C2.27863 13.141 2.49579 13.2264 2.73866 13.3023L2.91759 12.7296ZM2.74327 13.5597C2.84753 13.4441 2.95139 13.3287 3.05221 13.2154L2.60405 12.8165C2.5046 12.9282 2.40181 13.0425 2.29784 13.1577L2.74327 13.5597ZM2.48688 13.8421C2.57151 13.7492 2.65746 13.6547 2.74327 13.5597L2.29783 13.1577C2.21304 13.2516 2.12798 13.3451 2.0432 13.4382L2.48688 13.8421ZM2.47891 13.8505L2.47892 13.8505L2.05116 13.4298L2.05116 13.4298L2.47891 13.8505ZM2.48226 13.8471L2.48228 13.8471L2.04779 13.4333L2.04778 13.4333L2.48226 13.8471ZM2.49928 13.8276L2.49928 13.8276L2.03076 13.4528L2.03075 13.4528L2.49928 13.8276ZM1.31378 15.2928C1.5264 14.9003 1.97125 14.4085 2.48685 13.8421L2.04318 13.4382C1.5494 13.9806 1.04203 14.5348 0.786223 15.007L1.31378 15.2928ZM1.30097 15.3427C1.30107 15.3253 1.30547 15.3081 1.31379 15.2927L0.786215 15.007C0.730912 15.1091 0.701637 15.2232 0.700984 15.3393L1.30097 15.3427ZM1.41737 19.3734C1.33178 18.137 1.29321 16.7939 1.30098 15.3426L0.700984 15.3394C0.693155 16.803 0.732018 18.1613 0.818798 19.4148L1.41737 19.3734ZM1.41808 20.6064V19.3941H0.818082V20.6064H1.41808ZM1.41808 26.1808V20.6064H0.818082V26.1808H1.41808ZM2.81059 27.5734C2.04651 27.5734 1.41808 26.945 1.41808 26.1808H0.818082C0.818082 27.2764 1.71516 28.1734 2.81059 28.1734V27.5734ZM4.77423 27.5734H2.81059V28.1734H4.77423V27.5734ZM6.16674 26.1808C6.16674 26.945 5.53831 27.5734 4.77423 27.5734V28.1734C5.86967 28.1734 6.76674 27.2763 6.76674 26.1808H6.16674ZM6.16674 25.3006V26.1808H6.76674V25.3006H6.16674ZM7.81782 25.0006H6.46674V25.6006H7.81782V25.0006ZM8.11923 25.1874C8.09496 25.1632 8.07208 25.1378 8.05064 25.1114L7.58501 25.4898C7.6194 25.5321 7.65608 25.5728 7.69496 25.6117L8.11923 25.1874ZM8.82012 25.4781C8.55716 25.4781 8.30522 25.3734 8.11923 25.1874L7.69496 25.6117C7.99311 25.9098 8.39751 26.0781 8.82012 26.0781V25.4781ZM9.52102 25.1874C9.3351 25.3734 9.08238 25.4781 8.82012 25.4781V26.0781C9.24183 26.0781 9.64707 25.9099 9.94528 25.6117L9.52102 25.1874ZM9.78466 24.7135C9.7429 24.8917 9.65236 25.0561 9.52102 25.1874L9.94528 25.6117C10.1564 25.4006 10.3018 25.1364 10.3688 24.8504L9.78466 24.7135ZM10.0886 25.0817C10.3386 25.0719 10.5374 25.0761 10.6307 25.0781L10.6436 24.4783C10.5472 24.4762 10.3337 24.4716 10.0649 24.4822L10.0886 25.0817ZM10.6307 25.0781C10.6348 25.0782 10.6387 25.0783 10.6423 25.0784L10.6551 24.4785C10.6514 24.4784 10.6476 24.4784 10.6436 24.4783L10.6307 25.0781ZM11.2059 25.1874C11.0737 25.0552 10.9826 24.8897 10.9409 24.7105L10.3565 24.8464C10.4234 25.1341 10.5697 25.3998 10.7816 25.6117L11.2059 25.1874ZM11.9068 25.4781C11.6438 25.4781 11.3919 25.3734 11.2059 25.1874L10.7816 25.6117C11.0798 25.9098 11.4842 26.0781 11.9068 26.0781V25.4781ZM12.6077 25.1874C12.4218 25.3734 12.169 25.4781 11.9068 25.4781V26.0781C12.3285 26.0781 12.7337 25.9099 13.032 25.6117L12.6077 25.1874ZM12.8708 24.7157C12.8288 24.8931 12.7385 25.0566 12.6077 25.1874L13.032 25.6117C13.2422 25.4015 13.3873 25.1386 13.4547 24.854L12.8708 24.7157ZM20.246 24.4701C18.5841 24.4701 16.2225 24.475 13.1618 24.4848L13.1637 25.0848C16.2242 25.075 18.585 25.0701 20.246 25.0701V24.4701ZM23.1588 24.486C22.9892 24.4775 21.9706 24.4701 20.246 24.4701V25.0701C21.9817 25.0701 22.9786 25.0777 23.1288 25.0852L23.1588 24.486ZM24.0406 24.9533C23.9477 24.8141 23.8344 24.6941 23.6763 24.6107C23.5217 24.5291 23.349 24.4955 23.1588 24.486L23.1288 25.0852C23.2696 25.0923 23.3468 25.1152 23.3962 25.1413C23.4421 25.1655 23.4868 25.2043 23.5413 25.2862L24.0406 24.9533ZM24.0788 24.988C24.0634 24.9798 24.0503 24.9679 24.0406 24.9533L23.5413 25.2862C23.6058 25.3829 23.6932 25.4622 23.7957 25.517L24.0788 24.988ZM24.1289 25.0006C24.1114 25.0006 24.0942 24.9963 24.0788 24.988L23.7957 25.517C23.8982 25.5719 24.0126 25.6006 24.1289 25.6006L24.1289 25.0006ZM25.5332 25.0006H24.1289V25.6006H25.5332V25.0006ZM25.8332 26.1808V25.3006H25.2332V26.1808H25.8332ZM27.2257 27.5733C26.4617 27.5733 25.8332 26.945 25.8332 26.1808H25.2332C25.2332 27.2763 26.1303 28.1733 27.2257 28.1733V27.5733ZM29.1894 27.5733H27.2257V28.1733H29.1894V27.5733ZM30.5819 26.1808C30.5819 26.945 29.9535 27.5733 29.1894 27.5733V28.1733C30.2848 28.1733 31.1819 27.2764 31.1819 26.1808H30.5819ZM30.5819 20.6064V26.1808H31.1819V20.6064H30.5819ZM30.5819 19.3943V20.6064H31.1819V19.3943H30.5819ZM30.699 15.3426C30.7068 16.7939 30.6682 18.1372 30.5826 19.3736L31.1812 19.415C31.268 18.1614 31.3068 16.8031 31.299 15.3394L30.699 15.3426ZM30.6862 15.2927C30.6945 15.3081 30.6989 15.3253 30.699 15.3427L31.299 15.3393C31.2984 15.2232 31.2691 15.1091 31.2138 15.007L30.6862 15.2927ZM29.5131 13.8421C30.0287 14.4085 30.4736 14.9003 30.6862 15.2928L31.2138 15.007C30.958 14.5348 30.4506 13.9806 29.9568 13.4382L29.5131 13.8421ZM29.4963 13.822L29.4963 13.822L29.9736 13.4584L29.9736 13.4583L29.4963 13.822ZM29.2567 13.5597C29.3425 13.6547 29.4285 13.7492 29.5131 13.8421L29.9568 13.4382C29.872 13.3451 29.7869 13.2516 29.7022 13.1577L29.2567 13.5597ZM28.9478 13.2154C29.0486 13.3287 29.1525 13.4441 29.2567 13.5597L29.7022 13.1577C29.5982 13.0425 29.4954 12.9282 29.3959 12.8165L28.9478 13.2154ZM29.6579 12.5109C29.4945 12.585 29.3003 12.6615 29.0824 12.7296L29.2613 13.3023C29.5042 13.2264 29.7213 13.141 29.9057 13.0574L29.6579 12.5109ZM30.0142 12.3258C29.9228 12.3815 29.8043 12.4445 29.6579 12.5109L29.9057 13.0574C30.0704 12.9827 30.2109 12.9086 30.3264 12.8382L30.0142 12.3258ZM30.1274 12.2499C30.0958 12.2739 30.0601 12.2979 30.0142 12.3258L30.3264 12.8382C30.384 12.8031 30.4381 12.7675 30.4909 12.7273L30.1274 12.2499ZM30.1514 12.2322C30.1455 12.2365 30.1367 12.2428 30.1274 12.2499L30.4909 12.7272C30.4942 12.7247 30.4979 12.7221 30.5043 12.7174L30.1514 12.2322ZM30.1383 12.2423L30.1382 12.2423L30.5174 12.7073L30.5174 12.7073L30.1383 12.2423ZM30.2029 12.1771C30.1847 12.2035 30.1751 12.2132 30.1725 12.2158C30.1699 12.2183 30.1684 12.2198 30.1513 12.2322L30.5044 12.7173C30.5577 12.6785 30.6189 12.6308 30.6969 12.5177L30.2029 12.1771ZM30.238 12.034C30.2409 12.0758 30.2408 12.0889 30.2383 12.1029C30.2364 12.1133 30.2306 12.1369 30.2029 12.1771L30.6968 12.5177C30.7697 12.412 30.8105 12.3097 30.8286 12.2101C30.8461 12.114 30.8394 12.0329 30.8365 11.992L30.238 12.034ZM30.2372 12.013V12.013H30.8372V12.013H30.2372ZM30.2369 12.018L30.2379 12.0335L30.8365 11.9925L30.8355 11.9771L30.2369 12.018ZM30.2049 11.8451C30.2227 11.9105 30.2332 11.9606 30.2368 12.0169L30.8356 11.9782C30.8282 11.865 30.8066 11.7712 30.7837 11.6873L30.2049 11.8451ZM30.0468 11.4251C30.1155 11.5769 30.17 11.7171 30.2049 11.8451L30.7837 11.6873C30.7373 11.5169 30.6691 11.3448 30.5934 11.1776L30.0468 11.4251ZM29.5911 10.6704C29.7674 10.8505 29.9027 11.1069 30.0468 11.4251L30.5934 11.1776C30.4487 10.858 30.2772 10.5135 30.0198 10.2506L29.5911 10.6704ZM29.2151 10.4767C29.3942 10.5298 29.481 10.558 29.5911 10.6704L30.0198 10.2506C29.7941 10.0202 29.5756 9.95777 29.3857 9.90145L29.2151 10.4767ZM29.1489 10.4568C29.1719 10.4639 29.1943 10.4705 29.2151 10.4767L29.3857 9.90145C29.3647 9.8952 29.3444 9.88918 29.3238 9.88291L29.1489 10.4568ZM28.4753 10.3075C28.7185 10.346 28.9514 10.3966 29.1489 10.4568L29.3238 9.88291C29.0931 9.81258 28.8319 9.75644 28.5689 9.7149L28.4753 10.3075ZM27.7724 10.2406C27.9892 10.2447 28.2323 10.2692 28.4753 10.3075L28.5689 9.7149C28.3058 9.67332 28.0345 9.64551 27.784 9.64068L27.7724 10.2406ZM27.4756 10.2462C27.5614 10.2373 27.6518 10.2382 27.7724 10.2406L27.784 9.64068C27.6681 9.63844 27.5419 9.63614 27.414 9.64932L27.4756 10.2462ZM26.5957 8.86754C26.8027 9.27459 26.9971 9.68605 27.1715 10.0714L27.7181 9.82407C27.5409 9.43253 27.3425 9.01259 27.1305 8.59559L26.5957 8.86754ZM25.5034 7.02455C25.8852 7.54633 26.2553 8.19819 26.5957 8.86754L27.1305 8.59559C26.7841 7.91429 26.3971 7.22983 25.9877 6.67026L25.5034 7.02455ZM24.3497 6.01113C24.7716 6.12566 25.1059 6.48117 25.5034 7.02455L25.9877 6.67026C25.5941 6.13229 25.1518 5.60714 24.5068 5.43208L24.3497 6.01113ZM16.0293 5.30001C20.0734 5.36454 22.8064 5.59224 24.3497 6.01113L24.5068 5.43208C22.8817 4.99098 20.078 4.76454 16.0389 4.70009L16.0293 5.30001ZM16.0203 5.30024C16.0233 5.30004 16.0263 5.29997 16.0293 5.30001L16.0389 4.70009C16.0191 4.69977 15.9993 4.70029 15.9796 4.70163L16.0203 5.30024ZM15.9707 5.30001C15.9737 5.29997 15.9767 5.30004 15.9796 5.30024L16.0203 4.70163C16.0006 4.70029 15.9809 4.69977 15.961 4.70009L15.9707 5.30001ZM11.0009 24.0841C11.05 23.9738 11.1191 23.8724 11.2059 23.7857L10.7816 23.3614C10.6423 23.5008 10.5313 23.6635 10.4527 23.8402L11.0009 24.0841ZM11.2059 23.7857C11.3915 23.6 11.6433 23.4958 11.9068 23.4958V22.8958C11.4847 22.8958 11.0801 23.0629 10.7816 23.3614L11.2059 23.7857ZM11.9068 23.4958C12.1695 23.4958 12.4221 23.6001 12.6077 23.7857L13.032 23.3614C12.7334 23.0628 12.328 22.8958 11.9068 22.8958V23.4958ZM12.6077 23.7857C12.6965 23.8745 12.7667 23.9786 12.8158 24.092L13.3664 23.8536C13.2877 23.6718 13.1749 23.5043 13.032 23.3614L12.6077 23.7857ZM13.092 24.2728C16.1866 24.2627 18.5709 24.2578 20.246 24.2578V23.6578C18.57 23.6578 16.1849 23.6627 13.0901 23.6728L13.092 24.2728ZM20.246 24.2578C21.984 24.2578 22.9104 24.2609 23.1694 24.2739L23.1994 23.6746C22.9208 23.6607 21.9716 23.6578 20.246 23.6578V24.2578ZM23.1694 24.2739C23.5361 24.2922 23.86 24.445 24.0905 24.6927L24.5297 24.2839C24.1897 23.9186 23.7175 23.7006 23.1994 23.6746L23.1694 24.2739ZM24.3101 24.7883H25.8713V24.1883H24.3101V24.7883ZM25.9216 24.7841C25.9275 24.7831 25.9334 24.7825 25.9394 24.7825V24.1825C25.8996 24.1825 25.86 24.1859 25.8209 24.1926L25.9216 24.7841ZM25.9394 24.7825C25.9454 24.7825 25.9513 24.7831 25.9572 24.7841L26.0579 24.1926C26.0188 24.1859 25.9792 24.1825 25.9394 24.1825V24.7825ZM26.0075 24.7883H28.8098V24.1883H26.0075V24.7883ZM29.0742 24.3466L28.9706 24.1533L28.4418 24.4367L28.5454 24.63L29.0742 24.3466ZM29.0062 24.295V24.2948H28.4062V24.295H29.0062ZM28.9707 24.1532C28.7189 23.683 28.2468 23.2558 27.7333 22.9483C27.2198 22.6408 26.6202 22.4264 26.0869 22.4264V23.0264C26.476 23.0264 26.9684 23.1896 27.425 23.4631C27.8817 23.7365 28.2581 24.0935 28.4418 24.4365L28.9707 24.1532ZM26.0869 22.4264H16.0277V23.0264H26.0869V22.4264ZM16.0234 22.4264C16.021 22.4265 16.0186 22.4264 16.0162 22.4263L15.9838 23.0254C15.9998 23.0263 16.0158 23.0266 16.0319 23.0264L16.0234 22.4264ZM15.9838 22.4263C15.9814 22.4264 15.979 22.4265 15.9766 22.4264L15.9681 23.0264C15.9842 23.0266 16.0002 23.0263 16.0162 23.0254L15.9838 22.4263ZM15.9723 22.4264H5.91313V23.0264H15.9723V22.4264ZM5.91313 22.4264C5.37977 22.4264 4.78023 22.6408 4.26672 22.9483C3.7532 23.2558 3.28113 23.683 3.02932 24.1532L3.55823 24.4365C3.74195 24.0935 4.1183 23.7365 4.57496 23.4631C5.03161 23.1896 5.524 23.0264 5.91313 23.0264V22.4264ZM2.99378 24.2948V24.295H3.59378V24.2948H2.99378ZM3.02935 24.1533L2.92576 24.3466L3.45461 24.63L3.5582 24.4367L3.02935 24.1533ZM3.19019 24.7883H5.99246V24.1883H3.19019V24.7883ZM6.04278 24.7841C6.04865 24.7831 6.05461 24.7826 6.06059 24.7826V24.1826C6.0208 24.1826 5.98118 24.1859 5.94214 24.1926L6.04278 24.7841ZM6.06059 24.7826C6.06657 24.7826 6.07252 24.7831 6.07839 24.7841L6.17904 24.1926C6.14 24.1859 6.10038 24.1826 6.06059 24.1826V24.7826ZM6.12871 24.7883H7.52857V24.1883H6.12871V24.7883ZM7.82857 24.4881L7.82856 24.4863L7.22856 24.4868L7.22857 24.4885L7.82857 24.4881ZM7.82856 24.4865C7.82856 24.2243 7.93331 23.9716 8.11923 23.7857L7.69496 23.3614C7.39675 23.6596 7.22856 24.0648 7.22856 24.4865H7.82856ZM8.11923 23.7857C8.30488 23.6 8.55667 23.4958 8.82012 23.4958V22.8958C8.39799 22.8958 7.99345 23.0629 7.69496 23.3614L8.11923 23.7857ZM8.82012 23.4958C9.08286 23.4958 9.33544 23.6001 9.52102 23.7857L9.94528 23.3614C9.64673 23.0628 9.24134 22.8958 8.82012 22.8958V23.4958ZM9.52102 23.7857C9.60962 23.8743 9.6797 23.9781 9.72877 24.0912L10.2792 23.8523C10.2005 23.671 10.0879 23.504 9.94528 23.3614L9.52102 23.7857ZM10.0677 23.6681C10.042 23.6694 10.0158 23.6708 9.98865 23.6721L10.0193 24.2714C10.0467 24.27 10.0732 24.2686 10.0988 24.2673L10.0677 23.6681ZM10.4759 23.6518C10.3565 23.653 10.2222 23.66 10.0677 23.6681L10.0988 24.2673C10.2573 24.259 10.3777 24.2528 10.4818 24.2518L10.4759 23.6518ZM10.7595 23.6639C10.6668 23.6538 10.574 23.6509 10.4759 23.6518L10.4818 24.2518C10.5647 24.251 10.6324 24.2536 10.6941 24.2603L10.7595 23.6639ZM16.0319 21.6141C16.0159 21.6139 15.9998 21.6142 15.9838 21.6151L16.0162 22.2142C16.0186 22.2141 16.021 22.214 16.0234 22.2141L16.0319 21.6141ZM26.0869 21.6141L16.0277 21.6141L16.0277 22.2141L26.0869 22.2141L26.0869 21.6141ZM29.6846 23.7659C29.0129 22.5156 27.5061 21.6141 26.0869 21.6141V22.2141C27.285 22.2141 28.5888 22.9941 29.1561 24.0499L29.6846 23.7659ZM29.7703 19.2777C29.6494 21.0325 29.4338 22.5528 29.1284 23.8386L29.7122 23.9772C30.027 22.6515 30.2464 21.0972 30.3689 19.3189L29.7703 19.2777ZM29.7696 19.1487V19.2983H30.3696V19.1487H29.7696ZM29.8011 18.9345C29.7794 19.0045 29.7686 19.0782 29.7696 19.1529L30.3696 19.1445C30.3694 19.1333 30.371 19.1222 30.3743 19.1117L29.8011 18.9345ZM29.8845 15.4704C29.8888 16.7352 29.8564 17.9133 29.7883 19.0044L30.3871 19.0418C30.4562 17.9359 30.4888 16.7445 30.4845 15.4684L29.8845 15.4704ZM28.6535 14.104C28.9358 14.4168 29.215 14.7321 29.4456 15.0048C29.6806 15.2828 29.8519 15.5015 29.9291 15.6268L30.4399 15.312C30.3358 15.1431 30.1361 14.8923 29.9038 14.6175C29.6672 14.3376 29.383 14.0168 29.099 13.702L28.6535 14.104ZM27.8035 13.1317C28.0547 13.4383 28.356 13.7743 28.6535 14.104L29.099 13.702C28.8002 13.371 28.5084 13.0453 28.2676 12.7514L27.8035 13.1317ZM27.2058 12.234C27.3366 12.5538 27.5614 12.8362 27.8035 13.1317L28.2676 12.7514C28.0177 12.4464 27.8526 12.2304 27.7611 12.0068L27.2058 12.234ZM27.1498 12.0961C27.1718 12.1505 27.1906 12.197 27.2058 12.234L27.7611 12.0068C27.7465 11.9711 27.7282 11.9258 27.706 11.8711L27.1498 12.0961ZM27.1494 12.0951L27.15 12.0965L27.7059 11.8708L27.7053 11.8694L27.1494 12.0951ZM25.8716 9.23577C26.4625 10.398 26.948 11.5973 27.1493 12.0948L27.7055 11.8697C27.5041 11.3721 27.0102 10.1513 26.4064 8.96382L25.8716 9.23577ZM24.8479 7.50415C25.1863 7.96671 25.5429 8.58927 25.8716 9.23577L26.4064 8.96382C26.0716 8.30529 25.6981 7.65016 25.3321 7.14987L24.8479 7.50415ZM24.1369 6.79519C24.1301 6.79333 24.1507 6.79903 24.2027 6.83381C24.2499 6.86536 24.3097 6.91198 24.3791 6.97459C24.5175 7.09961 24.6829 7.27868 24.8479 7.50415L25.3321 7.14987C25.1449 6.89392 24.9523 6.68384 24.7812 6.52931C24.6958 6.45214 24.613 6.38638 24.5363 6.33511C24.4645 6.28708 24.3802 6.23952 24.2941 6.21614L24.1369 6.79519ZM16.0163 6.11232C20.0343 6.17642 22.7604 6.42157 24.1369 6.79519L24.2941 6.21614C22.836 5.82038 20.0396 5.57643 16.0259 5.51239L16.0163 6.11232ZM15.9797 6.11078C15.9919 6.11161 16.0041 6.11212 16.0163 6.11232L16.0259 5.51239C16.024 5.51236 16.0222 5.51228 16.0203 5.51216L15.9797 6.11078ZM15.9837 6.11232C15.9959 6.11212 16.0081 6.11161 16.0203 6.11078L15.9797 5.51216C15.9778 5.51228 15.976 5.51236 15.9741 5.51239L15.9837 6.11232ZM7.86307 6.79519C9.23959 6.42157 11.9657 6.17642 15.9837 6.11232L15.9741 5.51239C11.9604 5.57643 9.16398 5.82038 7.7059 6.21614L7.86307 6.79519ZM7.15211 7.50415C7.31708 7.27868 7.4825 7.09961 7.62093 6.97459C7.69025 6.91198 7.75012 6.86536 7.79727 6.83382C7.84927 6.79903 7.86992 6.79333 7.86307 6.79519L7.70591 6.21614C7.61976 6.23952 7.53547 6.28708 7.46367 6.33511C7.38702 6.38638 7.30422 6.45214 7.21878 6.52931C7.04767 6.68384 6.85514 6.89392 6.66788 7.14987L7.15211 7.50415ZM6.1284 9.23577C6.45712 8.58927 6.81369 7.96671 7.15211 7.50415L6.66788 7.14987C6.30184 7.65016 5.92841 8.30529 5.59357 8.96382L6.1284 9.23577ZM4.85072 12.0948C5.05203 11.5973 5.53746 10.398 6.1284 9.23577L5.59357 8.96382C4.98977 10.1513 4.49591 11.3721 4.29453 11.8697L4.85072 12.0948ZM4.8503 12.0958L4.85034 12.0957L4.29491 11.8688L4.29487 11.8689L4.8503 12.0958ZM4.79422 12.234C4.80946 12.1967 4.82847 12.1498 4.85068 12.0949L4.29449 11.8698C4.27212 11.9251 4.25361 11.9708 4.23891 12.0068L4.79422 12.234ZM4.1965 13.1317C4.43862 12.8362 4.66341 12.5538 4.79423 12.234L4.2389 12.0068C4.14744 12.2304 3.98234 12.4464 3.7324 12.7514L4.1965 13.1317ZM3.34647 14.104C3.64403 13.7743 3.94525 13.4383 4.1965 13.1317L3.73241 12.7514C3.49159 13.0453 3.19974 13.371 2.90103 13.702L3.34647 14.104ZM2.07089 15.6268C2.14813 15.5015 2.31942 15.2828 2.55438 15.0048C2.78494 14.7321 3.0642 14.4168 3.34647 14.104L2.90103 13.702C2.61699 14.0168 2.3328 14.3376 2.09615 14.6175C1.8639 14.8923 1.66422 15.1431 1.56012 15.312L2.07089 15.6268ZM2.21174 19.0044C2.14358 17.9134 2.1112 16.7353 2.1155 15.4704L1.5155 15.4684C1.51117 16.7446 1.54382 17.9359 1.61291 19.0418L2.21174 19.0044ZM2.23035 19.1529C2.2314 19.0788 2.22076 19.0051 2.19895 18.9345L1.62569 19.1117C1.62897 19.1223 1.63057 19.1334 1.63041 19.1445L2.23035 19.1529ZM2.23038 19.2981V19.1487H1.63038V19.2981H2.23038ZM2.87155 23.8386C2.5662 22.5527 2.35059 21.0324 2.22967 19.2775L1.63109 19.3188C1.75363 21.0972 1.97295 22.6514 2.28778 23.9772L2.87155 23.8386ZM5.91313 21.6141C4.49389 21.6141 2.98712 22.5156 2.31539 23.7659L2.84394 24.0499C3.41118 22.9941 4.71497 22.2141 5.91313 22.2141V21.6141ZM15.9723 21.6141L5.91313 21.6141L5.91313 22.2141L15.9723 22.2141L15.9723 21.6141ZM16.0162 21.6151C16.0002 21.6142 15.9841 21.6139 15.9681 21.6141L15.9766 22.2141C15.979 22.214 15.9814 22.2141 15.9838 22.2142L16.0162 21.6151ZM2.41489 25.6006H2.44254V25.0006H2.41489V25.6006ZM1.99176 25.4599C2.11393 25.5513 2.26241 25.6007 2.41498 25.6006L2.41481 25.0006C2.39187 25.0006 2.36954 24.9932 2.35117 24.9794L1.99176 25.4599ZM1.73727 25.0936C1.78031 25.24 1.86959 25.3685 1.99176 25.4599L2.35116 24.9794C2.33279 24.9657 2.31937 24.9464 2.3129 24.9244L1.73727 25.0936ZM1.64088 24.7526C1.67219 24.8679 1.70432 24.9815 1.73726 25.0936L2.3129 24.9244C2.28116 24.8164 2.25015 24.7067 2.21989 24.5953L1.64088 24.7526ZM2.23038 26.1808V24.674H1.63038V26.1808H2.23038ZM2.81059 26.761C2.48611 26.761 2.23038 26.5054 2.23038 26.1808H1.63038C1.63038 26.8368 2.15477 27.361 2.81059 27.361V26.761ZM4.77423 26.761H2.81059V27.361H4.77423V26.761ZM5.35444 26.1808C5.35444 26.5054 5.09872 26.761 4.77423 26.761V27.361C5.43004 27.361 5.95444 26.8368 5.95444 26.1808H5.35444ZM5.35444 25.3006V26.1808H5.95444V25.3006H5.35444ZM2.57516 25.6006H5.65444V25.0006H2.57516V25.6006ZM2.44154 25.6028C2.50256 25.6087 2.56393 25.6065 2.62414 25.5966L2.52619 25.0046C2.51714 25.0061 2.50791 25.0065 2.49873 25.0056L2.44154 25.6028ZM2.39357 25.5966C2.40948 25.5992 2.42547 25.6013 2.44153 25.6028L2.49874 25.0056C2.4963 25.0053 2.49389 25.005 2.49152 25.0046L2.39357 25.5966ZM4.19225 10.4538C4.00073 10.4598 3.77533 10.4828 3.55776 10.5172L3.65139 11.1099C3.84932 11.0786 4.04928 11.0586 4.21097 11.0535L4.19225 10.4538ZM4.09643 11.793C4.17673 11.5943 4.3081 11.2692 4.47762 10.8712L3.9256 10.6361C3.75377 11.0395 3.62066 11.3689 3.54013 11.5682L4.09643 11.793ZM4.08874 11.8104L4.08874 11.8104L3.54783 11.5508L3.54782 11.5508L4.08874 11.8104ZM4.09646 11.7929L4.09653 11.7928L3.54003 11.5685L3.53996 11.5686L4.09646 11.7929ZM4.0965 11.7928L4.09659 11.7926L3.53984 11.5689L3.53975 11.5692L4.0965 11.7928ZM4.09586 11.7944L4.09629 11.7934L3.53996 11.5686L3.53954 11.5697L4.09586 11.7944ZM4.09582 11.7945L4.09593 11.7942L3.53947 11.5698L3.53936 11.5701L4.09582 11.7945ZM4.09566 11.7949L4.09572 11.7948L3.53946 11.5699L3.53939 11.57L4.09566 11.7949ZM4.04236 11.9264C4.0564 11.8921 4.07438 11.8476 4.09567 11.7949L3.53938 11.5701C3.51789 11.6232 3.50048 11.6663 3.48705 11.6991L4.04236 11.9264ZM3.64704 12.5186C3.74593 12.393 3.83139 12.275 3.89698 12.1771C3.95719 12.0873 4.01457 11.9943 4.04237 11.9263L3.48704 11.6992C3.4881 11.6966 3.48316 11.708 3.46526 11.7383C3.44914 11.7656 3.42686 11.8009 3.39863 11.843C3.34228 11.927 3.26594 12.0327 3.17567 12.1474L3.64704 12.5186ZM2.42975 12.3176C2.66942 12.4263 2.98708 12.5429 3.34385 12.6253L3.47886 12.0407C3.16498 11.9682 2.88505 11.8652 2.67757 11.7711L2.42975 12.3176ZM2.16362 12.1801C2.23214 12.2192 2.31389 12.265 2.42975 12.3176L2.67757 11.7711C2.58668 11.7299 2.52357 11.6947 2.46077 11.6589L2.16362 12.1801ZM2.14648 11.5127C2.09077 11.6357 2.05409 11.7414 2.02638 11.8283L2.59801 12.0107C2.62152 11.9369 2.65019 11.8548 2.69304 11.7602L2.14648 11.5127ZM2.51906 10.8681C2.44659 10.9646 2.26298 11.2554 2.14648 11.5127L2.69304 11.7602C2.7909 11.5441 2.95184 11.291 2.99879 11.2285L2.51906 10.8681ZM2.66649 10.763C2.649 10.7718 2.64778 10.7723 2.65033 10.7712C2.65195 10.7705 2.65655 10.7685 2.66308 10.7661C2.66819 10.7643 2.68282 10.7591 2.70275 10.7551C2.71092 10.7535 2.77467 10.739 2.85131 10.7636C2.89796 10.7786 2.95908 10.8114 3.00493 10.877C3.05041 10.942 3.06005 11.0095 3.05882 11.0562L2.45903 11.0404C2.45779 11.0876 2.46754 11.1555 2.51325 11.2209C2.55933 11.2868 2.62081 11.3198 2.66794 11.3349C2.74552 11.3598 2.81071 11.3454 2.82076 11.3434C2.85714 11.3361 2.8859 11.323 2.88995 11.3213C2.90717 11.3137 2.92745 11.3034 2.93716 11.2984L2.66649 10.763ZM2.91295 10.66C2.80265 10.6936 2.70967 10.7411 2.66649 10.763L2.93716 11.2984C2.98073 11.2764 3.03241 11.2508 3.08791 11.2339L2.91295 10.66ZM3.55776 10.5172C3.32574 10.5539 3.09335 10.605 2.91295 10.66L3.08791 11.2339C3.23539 11.189 3.43953 11.1433 3.65139 11.1099L3.55776 10.5172ZM29.4248 25.0006H26.3455V25.6006H29.4248V25.0006ZM29.5013 25.0056C29.4921 25.0065 29.4829 25.0061 29.4738 25.0046L29.3758 25.5966C29.436 25.6065 29.4974 25.6087 29.5585 25.6028L29.5013 25.0056ZM29.5057 25.0051L29.4987 25.0058L29.561 25.6026L29.5681 25.6019L29.5057 25.0051ZM29.5093 25.0046L29.4995 25.0058L29.5743 25.6011L29.5841 25.5999L29.5093 25.0046ZM29.5125 25.004L29.5017 25.0056L29.5917 25.5989L29.6025 25.5972L29.5125 25.004ZM29.5851 25.0006H29.5575V25.6006H29.5851V25.0006ZM29.6488 24.9794C29.6305 24.9932 29.6081 25.0006 29.5852 25.0006L29.585 25.6006C29.7376 25.6007 29.8861 25.5513 30.0082 25.4599L29.6488 24.9794ZM29.6871 24.9244C29.6806 24.9464 29.6672 24.9657 29.6488 24.9794L30.0082 25.4599C30.1304 25.3685 30.2197 25.24 30.2627 25.0936L29.6871 24.9244ZM29.7801 24.5953C29.7498 24.7067 29.7188 24.8164 29.6871 24.9244L30.2627 25.0936C30.2957 24.9816 30.3278 24.8679 30.3591 24.7526L29.7801 24.5953ZM30.3696 26.1808V24.674H29.7696V26.1808H30.3696ZM29.1894 27.361C29.8452 27.361 30.3696 26.8368 30.3696 26.1808H29.7696C29.7696 26.5054 29.5139 26.761 29.1894 26.761V27.361ZM27.2257 27.361H29.1894V26.761H27.2257V27.361ZM26.0455 26.1808C26.0455 26.8368 26.5699 27.361 27.2257 27.361V26.761C26.9013 26.761 26.6455 26.5054 26.6455 26.1808H26.0455ZM26.0455 25.3006V26.1808H26.6455V25.3006H26.0455ZM29.3223 11.7711C29.1149 11.8652 28.835 11.9682 28.5211 12.0406L28.6561 12.6253C29.0129 12.5429 29.3305 12.4263 29.5702 12.3176L29.3223 11.7711ZM29.5391 11.6589C29.4763 11.6947 29.4132 11.7299 29.3223 11.7711L29.5701 12.3176C29.686 12.265 29.7678 12.2192 29.8363 12.1801L29.5391 11.6589ZM29.3069 11.7602C29.3497 11.8548 29.3784 11.9369 29.4019 12.0107L29.9735 11.8283C29.9458 11.7414 29.9091 11.6357 29.8534 11.5127L29.3069 11.7602ZM29.0011 11.2285C29.0481 11.291 29.209 11.5441 29.3069 11.7602L29.8534 11.5127C29.7369 11.2554 29.5533 10.9646 29.4808 10.8681L29.0011 11.2285ZM29.0627 11.2984C29.0725 11.3034 29.0927 11.3137 29.11 11.3213C29.114 11.323 29.1428 11.3361 29.1791 11.3434C29.1892 11.3454 29.2544 11.3598 29.3319 11.335C29.379 11.3198 29.4405 11.2868 29.4866 11.2209C29.5323 11.1556 29.5421 11.0877 29.5409 11.0404L28.9411 11.0561C28.9399 11.0094 28.9495 10.9419 28.995 10.8769C29.0409 10.8114 29.102 10.7786 29.1486 10.7636C29.2253 10.7391 29.289 10.7535 29.2972 10.7551C29.3171 10.7591 29.3317 10.7643 29.3368 10.7661C29.3434 10.7685 29.348 10.7705 29.3496 10.7712C29.3521 10.7723 29.3509 10.7718 29.3334 10.763L29.0627 11.2984ZM28.912 11.2339C28.9675 11.2508 29.0192 11.2764 29.0627 11.2984L29.3334 10.763C29.2902 10.7411 29.1973 10.6936 29.087 10.66L28.912 11.2339ZM28.3485 11.1099C28.5604 11.1433 28.7645 11.189 28.912 11.2339L29.087 10.66C28.9066 10.605 28.6742 10.5539 28.4421 10.5172L28.3485 11.1099ZM27.789 11.0535C27.9507 11.0586 28.1506 11.0786 28.3485 11.1099L28.4421 10.5172C28.2246 10.4828 27.9992 10.4598 27.8078 10.4538L27.789 11.0535ZM28.4599 11.5682C28.3794 11.369 28.2462 11.0396 28.0744 10.6361L27.5224 10.8712C27.6919 11.2692 27.8233 11.5943 27.9036 11.793L28.4599 11.5682ZM28.4605 11.5698L28.4602 11.569L27.9033 11.7923L27.9036 11.7931L28.4605 11.5698ZM28.5129 11.6991C28.4994 11.6661 28.4819 11.6227 28.4602 11.5691L27.9039 11.7939C27.9254 11.847 27.9435 11.8918 27.9576 11.9264L28.5129 11.6991ZM28.8243 12.1473C28.734 12.0327 28.6577 11.927 28.6014 11.843C28.5731 11.8009 28.5508 11.7656 28.5347 11.7383C28.5168 11.708 28.5119 11.6966 28.5129 11.6992L27.9576 11.9263C27.9854 11.9943 28.0428 12.0873 28.103 12.1771C28.1686 12.275 28.254 12.393 28.3529 12.5186L28.8243 12.1473ZM12.0324 24.359C12.0545 24.3813 12.0703 24.4086 12.0785 24.4381L12.6562 24.2758C12.6205 24.1488 12.5529 24.0318 12.4586 23.9366L12.0324 24.359ZM11.9068 24.3081C11.954 24.3081 12.0001 24.3269 12.0344 24.3609L12.4567 23.9347C12.3106 23.79 12.113 23.7081 11.9068 23.7081V24.3081ZM11.7802 24.36C11.8129 24.3273 11.8583 24.3081 11.9068 24.3081V23.7081C11.7003 23.7081 11.5019 23.7897 11.3559 23.9357L11.7802 24.36ZM11.7275 24.4865C11.7275 24.4395 11.7462 24.3939 11.7802 24.36L11.3559 23.9357C11.2096 24.082 11.1275 24.2802 11.1275 24.4865H11.7275ZM11.7792 24.6122C11.7465 24.5798 11.7275 24.5349 11.7275 24.4865H11.1275C11.1275 24.6932 11.2092 24.8921 11.3569 25.0384L11.7792 24.6122ZM11.9068 24.6658C11.8584 24.6658 11.8135 24.6468 11.7812 24.6141L11.355 25.0364C11.5013 25.1841 11.7001 25.2658 11.9068 25.2658V24.6658ZM12.0334 24.6131C11.9994 24.6471 11.9539 24.6658 11.9068 24.6658V25.2658C12.1132 25.2658 12.3113 25.1838 12.4577 25.0374L12.0334 24.6131ZM12.0852 24.4919C12.0838 24.5384 12.0649 24.5817 12.0334 24.6131L12.4577 25.0374C12.5983 24.8968 12.6791 24.7076 12.6849 24.5093L12.0852 24.4919ZM12.0667 24.3823C12.0669 24.4528 12.0777 24.5227 12.0986 24.5897L12.6715 24.4115C12.6684 24.4014 12.6667 24.3909 12.6667 24.3803L12.0667 24.3823ZM12.0678 24.3399C12.067 24.354 12.0667 24.3681 12.0667 24.3823L12.6667 24.3803C12.6667 24.3782 12.6667 24.3761 12.6669 24.3739L12.0678 24.3399ZM8.26926 23.9357C8.1229 24.082 8.04087 24.2802 8.04087 24.4865H8.64087C8.64087 24.4395 8.65956 24.3939 8.69353 24.36L8.26926 23.9357ZM8.82012 23.7081C8.61359 23.7081 8.41527 23.7897 8.26926 23.9357L8.69353 24.36C8.72622 24.3273 8.7716 24.3081 8.82012 24.3081V23.7081ZM9.37002 23.9347C9.22397 23.79 9.02636 23.7081 8.82012 23.7081V24.3081C8.86733 24.3081 8.9134 24.3269 8.94768 24.3609L9.37002 23.9347ZM9.59857 24.4865C9.59857 24.2803 9.51668 24.0827 9.37194 23.9366L8.94576 24.359C8.97974 24.3933 8.99857 24.4393 8.99857 24.4865H9.59857ZM9.37099 25.0374C9.51699 24.8914 9.59857 24.6931 9.59857 24.4865H8.99857C8.99857 24.5351 8.97942 24.5804 8.94672 24.6131L9.37099 25.0374ZM8.82012 25.2658C9.0265 25.2658 9.22462 25.1838 9.37098 25.0374L8.94672 24.6131C8.91275 24.6471 8.86718 24.6658 8.82012 24.6658V25.2658ZM8.2683 25.0364C8.41462 25.1841 8.61345 25.2658 8.82012 25.2658V24.6658C8.77174 24.6658 8.72688 24.6468 8.69448 24.6141L8.2683 25.0364ZM8.04087 24.4865C8.04087 24.6932 8.12258 24.8921 8.27022 25.0384L8.69256 24.6122C8.65988 24.5798 8.64087 24.5349 8.64087 24.4865H8.04087ZM15.9724 7.50299C15.9872 7.5031 16.0019 7.50274 16.0166 7.50193L15.9834 6.90284C15.9812 6.90297 15.979 6.90302 15.9768 6.903L15.9724 7.50299ZM9.03968 7.85876C10.006 7.65792 12.3454 7.5236 15.9763 7.50299L15.9729 6.903C12.3553 6.92353 9.95334 7.05603 8.91758 7.27132L9.03968 7.85876ZM8.48088 8.34635C8.74823 8.00013 8.9549 7.88182 9.05586 7.85493L8.9014 7.27515C8.61819 7.3506 8.31032 7.58552 8.00598 7.97965L8.48088 8.34635ZM7.3553 10.4174C7.86819 9.35782 8.27344 8.61496 8.48087 8.34637L8.00599 7.97964C7.75323 8.30694 7.32139 9.11034 6.81524 10.156L7.3553 10.4174ZM7.13803 9.99097C7.13305 9.99024 7.12333 9.98883 7.10965 9.98772L7.06088 10.5857C7.05924 10.5856 7.05695 10.5854 7.05426 10.5851C7.05188 10.5848 7.04997 10.5845 7.05137 10.5847L7.13803 9.99097ZM7.12783 9.98966L7.12783 9.98966L7.06157 10.586L7.06157 10.586L7.12783 9.98966ZM7.1285 9.98991C7.13004 9.99003 7.1323 9.99025 7.13502 9.99058C7.13746 9.99087 7.13942 9.99117 7.13801 9.99096L7.05139 10.5847C7.05662 10.5854 7.06647 10.5869 7.08043 10.588L7.1285 9.98991ZM8.86892 10.0655C8.08286 10.0449 7.50031 10.0192 7.128 9.98987L7.08093 10.588C7.46948 10.6186 8.06484 10.6447 8.85322 10.6653L8.86892 10.0655ZM15.9724 10.1274C12.8083 10.1274 10.4393 10.1066 8.86892 10.0655L8.85322 10.6653C10.4317 10.7066 12.8072 10.7274 15.9724 10.7274V10.1274ZM16.0162 10.1284C16.0002 10.1276 15.9842 10.1273 15.9681 10.1275L15.9766 10.7274C15.979 10.7274 15.9814 10.7274 15.9838 10.7276L16.0162 10.1284ZM16.0319 10.1275C16.0158 10.1273 15.9998 10.1276 15.9838 10.1284L16.0162 10.7276C16.0186 10.7274 16.021 10.7274 16.0234 10.7274L16.0319 10.1275ZM23.1311 10.0655C21.5607 10.1066 19.1917 10.1274 16.0277 10.1274V10.7274C19.1929 10.7274 21.5683 10.7066 23.1468 10.6653L23.1311 10.0655ZM24.872 9.98987C24.4997 10.0192 23.9171 10.0449 23.1311 10.0655L23.1468 10.6653C23.9352 10.6447 24.5305 10.6186 24.9191 10.588L24.872 9.98987ZM24.862 9.99098C24.8605 9.99119 24.8626 9.99087 24.8652 9.99056C24.8681 9.99021 24.8704 9.98999 24.872 9.98987L24.919 10.588C24.9334 10.5869 24.9434 10.5854 24.9488 10.5847L24.862 9.99098ZM24.8901 9.98774C24.8765 9.98886 24.8668 9.99027 24.8619 9.99098L24.9488 10.5847C24.9502 10.5845 24.9484 10.5847 24.946 10.585C24.9434 10.5854 24.9411 10.5856 24.9394 10.5857L24.8901 9.98774ZM23.5191 8.34637C23.7266 8.61496 24.1318 9.35782 24.6447 10.4174L25.1848 10.156C24.6786 9.11034 24.2468 8.30694 23.994 7.97964L23.5191 8.34637ZM22.9442 7.85493C23.0451 7.88182 23.2518 8.00013 23.5191 8.34635L23.994 7.97965C23.6897 7.58552 23.3818 7.3506 23.0986 7.27515L22.9442 7.85493ZM16.0237 7.50299C19.6547 7.5236 21.9941 7.65792 22.9603 7.85876L23.0824 7.27132C22.0467 7.05603 19.6447 6.92353 16.0271 6.903L16.0237 7.50299ZM15.9834 7.50193C15.9981 7.50274 16.0129 7.5031 16.0276 7.50299L16.0232 6.903C16.021 6.90302 16.0188 6.90297 16.0166 6.90284L15.9834 7.50193ZM15.9681 11.5397C15.9842 11.5399 16.0002 11.5396 16.0162 11.5388L15.9838 10.9396C15.9814 10.9398 15.979 10.9398 15.9766 10.9398L15.9681 11.5397ZM8.83196 11.4773C10.4246 11.519 12.8036 11.5397 15.9724 11.5397V10.9397C12.8048 10.9397 10.4322 10.919 8.84766 10.8775L8.83196 11.4773ZM7.01715 11.3978C7.43396 11.4306 8.03652 11.4565 8.83196 11.4773L8.84766 10.8775C8.05448 10.8567 7.46476 10.8312 7.06422 10.7996L7.01715 11.3978ZM6.50128 11.3379C6.64284 11.364 6.81075 11.3815 7.01715 11.3978L7.06422 10.7996C6.86195 10.7837 6.71964 10.768 6.61009 10.7478L6.50128 11.3379ZM6.25772 11.2713C6.35755 11.311 6.43443 11.3256 6.50128 11.3379L6.61009 10.7478C6.55138 10.737 6.52247 10.7309 6.47986 10.7139L6.25772 11.2713ZM6.2549 11.2701L6.25783 11.2713L6.47975 10.7138L6.47682 10.7127L6.2549 11.2701ZM6.03824 11.1418C6.13222 11.2205 6.20679 11.251 6.25494 11.2701L6.47678 10.7127C6.45943 10.7058 6.45546 10.7039 6.4509 10.7015C6.4472 10.6994 6.43857 10.6944 6.42361 10.6819L6.03824 11.1418ZM5.77759 10.5567C5.76585 10.8485 5.9356 11.0557 6.03824 11.1418L6.42361 10.6819C6.42374 10.682 6.42249 10.6809 6.42018 10.6786C6.41792 10.6763 6.41506 10.6732 6.41186 10.6693C6.40534 10.6614 6.39862 10.6518 6.39285 10.6411C6.38131 10.6198 6.37634 10.5998 6.3771 10.5809L5.77759 10.5567ZM5.84351 10.2859C5.80376 10.3709 5.78135 10.463 5.77759 10.5568L6.37711 10.5808C6.37767 10.5667 6.38104 10.5529 6.38702 10.5401L5.84351 10.2859ZM7.36313 7.48305C6.96784 7.99491 6.48512 8.91502 5.84355 10.2858L6.38698 10.5402C7.03298 9.15987 7.48976 8.30072 7.83801 7.84978L7.36313 7.48305ZM7.60041 7.96642H7.60057V7.36642H7.60041V7.96642ZM8.70415 6.4858C8.16499 6.62543 7.73352 7.00318 7.36296 7.48307L7.83786 7.84977C8.17079 7.4186 8.49977 7.15852 8.85457 7.06664L8.70415 6.4858ZM8.73504 6.4785C8.7245 6.48074 8.71402 6.48322 8.70361 6.48594L8.85511 7.0665C8.85669 7.06608 8.85827 7.06571 8.85985 7.06537L8.73504 6.4785ZM15.9683 6.0907C12.3225 6.11139 9.94092 6.2248 8.73568 6.47836L8.85921 7.06551C9.99362 6.82684 12.3107 6.71147 15.9717 6.69069L15.9683 6.0907ZM16.0374 6.09838L16.0374 6.09838L15.9025 6.68301L15.9025 6.68301L16.0374 6.09838ZM16.0166 6.09171C15.9992 6.09074 15.9818 6.09042 15.9644 6.09075L15.9756 6.69064C15.9782 6.69059 15.9808 6.69064 15.9834 6.69079L16.0166 6.09171ZM16.0356 6.09075C16.0182 6.09042 16.0008 6.09074 15.9834 6.09171L16.0166 6.69079C16.0192 6.69064 16.0218 6.69059 16.0244 6.69064L16.0356 6.09075ZM15.9712 6.09652L15.9712 6.09652L16.0889 6.68487L16.0889 6.68487L15.9712 6.09652ZM23.2643 6.47836C22.0591 6.2248 19.6775 6.11139 16.0317 6.0907L16.0283 6.69069C19.6893 6.71147 22.0064 6.82684 23.1408 7.06551L23.2643 6.47836ZM23.2964 6.48594C23.286 6.48323 23.2755 6.48074 23.265 6.4785L23.1402 7.06537C23.1417 7.0657 23.1433 7.06608 23.1449 7.0665L23.2964 6.48594ZM24.6371 7.48307C24.2665 7.00318 23.835 6.62543 23.2959 6.4858L23.1454 7.06664C23.5002 7.15852 23.8292 7.4186 24.1622 7.84977L24.6371 7.48307ZM24.3994 7.96642H24.3996V7.36642H24.3994V7.96642ZM26.1565 10.2858C25.5149 8.91502 25.0322 7.99491 24.6369 7.48305L24.162 7.84978C24.5102 8.30072 24.967 9.15987 25.613 10.5402L26.1565 10.2858ZM26.2224 10.5568C26.2187 10.463 26.1963 10.3709 26.1565 10.2859L25.613 10.5401C25.619 10.5529 25.6223 10.5667 25.6229 10.5808L26.2224 10.5568ZM25.9618 11.1418C26.0644 11.0557 26.2342 10.8485 26.2224 10.5568L25.6229 10.5809C25.6237 10.5998 25.6187 10.6198 25.6072 10.6411C25.6014 10.6518 25.5947 10.6614 25.5881 10.6693C25.585 10.6732 25.5821 10.6763 25.5798 10.6786C25.5775 10.6809 25.5763 10.682 25.5764 10.6819L25.9618 11.1418ZM25.7451 11.2701C25.7932 11.251 25.8678 11.2205 25.9618 11.1418L25.5764 10.6819C25.5614 10.6944 25.5528 10.6994 25.5491 10.7015C25.5446 10.7039 25.5406 10.7058 25.5232 10.7127L25.7451 11.2701ZM25.7422 11.2713L25.7452 11.2701L25.5231 10.7127L25.5202 10.7139L25.7422 11.2713ZM25.4987 11.3379C25.5656 11.3256 25.6425 11.311 25.7423 11.2713L25.5202 10.7139C25.4775 10.7309 25.4486 10.737 25.3899 10.7478L25.4987 11.3379ZM24.9829 11.3978C25.1893 11.3815 25.3572 11.364 25.4987 11.3379L25.3899 10.7478C25.2804 10.768 25.1381 10.7837 24.9358 10.7996L24.9829 11.3978ZM23.1681 11.4773C23.9635 11.4565 24.5661 11.4306 24.9829 11.3978L24.9358 10.7996C24.5353 10.8312 23.9455 10.8567 23.1524 10.8775L23.1681 11.4773ZM16.0277 11.5397C19.1964 11.5397 21.5754 11.519 23.1681 11.4773L23.1524 10.8775C21.5678 10.919 19.1952 10.9397 16.0277 10.9397V11.5397ZM15.9838 11.5388C15.9998 11.5396 16.0158 11.5399 16.0319 11.5397L16.0234 10.9398C16.021 10.9398 16.0186 10.9398 16.0162 10.9396L15.9838 11.5388ZM20.5838 12.0877L20.5781 12.0877L20.5824 12.6877L20.5881 12.6877L20.5838 12.0877ZM21.4036 12.0877H20.586V12.6877H21.4036V12.0877ZM21.4046 12.0877H21.4036V12.6877H21.4046V12.0877ZM25.2745 12.0877H21.4046V12.6877H25.2745V12.0877ZM25.2757 12.0877H25.2745V12.6877H25.2757V12.0877ZM27.2297 12.8486C26.6636 12.3651 25.993 12.0902 25.2768 12.0877L25.2747 12.6877C25.8316 12.6896 26.3682 12.9019 26.84 13.3048L27.2297 12.8486ZM28.6673 14.8406C28.259 14.0015 27.7907 13.3277 27.2297 12.8486L26.84 13.3048C27.317 13.7122 27.7409 14.308 28.1278 15.1031L28.6673 14.8406ZM28.7374 15.187C28.7438 15.0675 28.7197 14.9483 28.6673 14.8406L28.1278 15.103C28.1356 15.1192 28.1393 15.1372 28.1383 15.1551L28.7374 15.187ZM28.631 15.524C28.6944 15.4225 28.7311 15.3065 28.7375 15.187L28.1383 15.1551C28.1373 15.1731 28.1318 15.1905 28.1223 15.2058L28.631 15.524ZM28.3745 15.7672C28.4792 15.7092 28.5675 15.6255 28.631 15.524L28.1223 15.2058C28.1127 15.2211 28.0995 15.2336 28.0837 15.2424L28.3745 15.7672ZM28.0324 15.8557C28.1521 15.8557 28.2698 15.8252 28.3745 15.7672L28.0837 15.2424C28.068 15.2511 28.0503 15.2557 28.0323 15.2557L28.0324 15.8557ZM21.0456 15.8557H28.0323V15.2557H21.0456V15.8557ZM20.7461 15.789C20.8398 15.8329 20.942 15.8556 21.0455 15.8557L21.0457 15.2557C21.0301 15.2557 21.0147 15.2522 21.0006 15.2456L20.7461 15.789ZM20.5032 15.6016C20.5695 15.6811 20.6524 15.7451 20.7461 15.789L21.0006 15.2456C20.9865 15.239 20.9741 15.2294 20.9641 15.2175L20.5032 15.6016ZM19.8798 13.7705C19.8798 14.4071 20.0934 15.1099 20.5032 15.6016L20.9641 15.2175C20.659 14.8513 20.4798 14.2916 20.4798 13.7705H19.8798ZM19.8798 13.2V13.7705H20.4798V13.2H19.8798ZM16.0277 13.5H20.1798V12.9H16.0277V13.5ZM15.9838 13.499C15.9998 13.4999 16.0158 13.5002 16.0319 13.5L16.0234 12.9001C16.021 12.9001 16.0186 12.9001 16.0162 12.8999L15.9838 13.499ZM15.9681 13.5C15.9842 13.5002 16.0002 13.4999 16.0162 13.499L15.9838 12.8999C15.9814 12.9001 15.979 12.9001 15.9766 12.9001L15.9681 13.5ZM11.8202 13.5H15.9723V12.9H11.8202V13.5ZM12.1202 13.7705V13.2H11.5202V13.7705H12.1202ZM11.4968 15.6016C11.9065 15.1099 12.1202 14.4071 12.1202 13.7705H11.5202C11.5202 14.2916 11.341 14.8513 11.0358 15.2175L11.4968 15.6016ZM11.2539 15.789C11.3476 15.7451 11.4305 15.6811 11.4967 15.6016L11.0359 15.2175C11.0259 15.2294 11.0134 15.239 10.9993 15.2456L11.2539 15.789ZM10.9545 15.8557C11.058 15.8556 11.1602 15.8329 11.2539 15.789L10.9993 15.2456C10.9852 15.2522 10.9699 15.2557 10.9543 15.2557L10.9545 15.8557ZM3.96765 15.8557H10.9544V15.2557H3.96765V15.8557ZM3.62545 15.7672C3.73015 15.8252 3.84789 15.8557 3.9676 15.8557L3.9677 15.2557C3.9497 15.2557 3.93199 15.2511 3.91625 15.2424L3.62545 15.7672ZM3.36901 15.524C3.4325 15.6255 3.52074 15.7092 3.62545 15.7672L3.91625 15.2424C3.9005 15.2336 3.88723 15.2211 3.87769 15.2058L3.36901 15.524ZM3.26252 15.187C3.26888 15.3065 3.30553 15.4225 3.36901 15.524L3.87769 15.2058C3.86814 15.1905 3.86263 15.1731 3.86167 15.1551L3.26252 15.187ZM3.33264 14.8406C3.28029 14.9483 3.25616 15.0675 3.26252 15.187L3.86167 15.1551C3.86072 15.1371 3.86435 15.1192 3.87222 15.103L3.33264 14.8406ZM4.77026 12.8486C4.20931 13.3277 3.74093 14.0015 3.33267 14.8406L3.87219 15.1031C4.25904 14.308 4.68301 13.7122 5.15994 13.3048L4.77026 12.8486ZM6.7232 12.0877C6.00699 12.0902 5.33633 12.3651 4.77026 12.8486L5.15994 13.3048C5.63174 12.9019 6.16841 12.6896 6.72528 12.6877L6.7232 12.0877ZM6.72424 12.0877H6.72424V12.6877H6.72424V12.0877ZM6.72551 12.0877H6.72424V12.6877H6.72551V12.0877ZM10.5954 12.0877H6.72551V12.6877H10.5954V12.0877ZM10.5964 12.0877H10.5954V12.6877H10.5964V12.0877ZM11.414 12.0877H10.5964V12.6877H11.414V12.0877ZM11.4218 12.0877L11.4161 12.0877L11.4119 12.6877L11.4176 12.6877L11.4218 12.0877ZM15.9723 12.0877H11.4197V12.6877H15.9723V12.0877ZM16.0162 12.0887C16.0002 12.0879 15.9842 12.0875 15.9681 12.0878L15.9766 12.6877C15.979 12.6877 15.9814 12.6877 15.9838 12.6878L16.0162 12.0887ZM16.0319 12.0878C16.0158 12.0875 15.9998 12.0879 15.9838 12.0887L16.0162 12.6878C16.0186 12.6877 16.021 12.6877 16.0234 12.6877L16.0319 12.0878ZM20.5803 12.0877H16.0277V12.6877H20.5803V12.0877ZM10.5869 13.5L10.6008 13.5L10.6025 12.9L10.5887 12.9L10.5869 13.5ZM6.72694 13.5H10.5878V12.9H6.72694V13.5ZM5.68746 13.9226C6.04121 13.6205 6.36842 13.5012 6.72798 13.5L6.72589 12.9C6.20581 12.9018 5.74477 13.0846 5.29778 13.4664L5.68746 13.9226ZM4.90795 14.8979C5.16899 14.4635 5.43268 14.1402 5.68746 13.9226L5.29778 13.4664C4.97921 13.7385 4.67646 14.1183 4.39367 14.5888L4.90795 14.8979ZM10.7286 14.4434H4.65081V15.0434H10.7286V14.4434ZM10.7079 13.7705C10.7079 13.8652 10.681 14.0126 10.6314 14.1786C10.5829 14.341 10.52 14.4966 10.4636 14.6027L10.9936 14.884C11.0722 14.7359 11.149 14.5423 11.2063 14.3505C11.2625 14.1623 11.3079 13.9504 11.3079 13.7705H10.7079ZM10.7079 13.2V13.7705H11.3079V13.2H10.7079ZM10.6016 13.5H11.0079V12.9H10.6016V13.5ZM21.2921 13.7705V13.2H20.6921V13.7705H21.2921ZM21.5363 14.6027C21.48 14.4966 21.4171 14.341 21.3686 14.1786C21.3189 14.0126 21.2921 13.8652 21.2921 13.7705H20.6921C20.6921 13.9504 20.7374 14.1623 20.7937 14.3505C20.851 14.5423 20.9277 14.7359 21.0063 14.884L21.5363 14.6027ZM27.3492 14.4434H21.2713V15.0434H27.3492V14.4434ZM26.3125 13.9226C26.5673 14.1402 26.831 14.4635 27.092 14.8979L27.6063 14.5888C27.3235 14.1183 27.0208 13.7385 26.7022 13.4664L26.3125 13.9226ZM25.272 13.5C25.6315 13.5012 25.9588 13.6205 26.3125 13.9226L26.7022 13.4664C26.2552 13.0846 25.7942 12.9018 25.2741 12.9L25.272 13.5ZM21.4122 13.5H25.273V12.9H21.4122V13.5ZM21.3992 13.5L21.4131 13.5L21.4113 12.9L21.3975 12.9L21.3992 13.5ZM20.9921 13.5H21.3984V12.9H20.9921V13.5Z" fill="white" mask="url(#path-1-outside-1)"/>
</svg>
