<svg width="32" height="32" viewBox="0 0 32 32" fill="none" xmlns="http://www.w3.org/2000/svg">
<mask id="path-1-outside-1" maskUnits="userSpaceOnUse" x="1" y="4" width="30" height="23" fill="black">
<rect fill="white" x="1" y="4" width="30" height="23"/>
<path d="M16 5.66536C10.4552 5.66536 5.9461 10.1744 5.9461 15.7193C5.9461 21.2641 10.4552 25.7732 16 25.7732C21.5448 25.7732 26.0539 21.2641 26.0539 15.7193C26.0539 13.7472 25.4822 11.9052 24.4983 10.3513H27.2413C27.3414 10.3513 27.4374 10.3115 27.5082 10.2407C27.579 10.17 27.6188 10.074 27.6188 9.97386V6.0428C27.6188 5.9427 27.579 5.8467 27.5082 5.77592C27.4374 5.70514 27.3414 5.66537 27.2413 5.66536H16.0454C16.0445 5.66541 16.0436 5.66546 16.0428 5.66552C16.0281 5.66546 16.0136 5.66536 16 5.66536ZM16 6.42023C16.0151 6.42023 16.0297 6.42031 16.0435 6.42038C16.0441 6.42033 16.0448 6.42028 16.0454 6.42023C16.0458 6.42023 16.0462 6.42023 16.0466 6.42023H26.8639V9.59643H23.7847C23.7149 9.59645 23.6464 9.61587 23.5869 9.65251C23.5274 9.68915 23.4793 9.74158 23.4478 9.80397C23.4163 9.86635 23.4028 9.93624 23.4087 10.0059C23.4147 10.0755 23.4398 10.1421 23.4813 10.1983C24.6238 11.743 25.299 13.651 25.299 15.7193C25.299 20.8555 21.1362 25.0183 16 25.0183C10.8637 25.0183 6.70097 20.8555 6.70097 15.7193C6.70097 10.583 10.8637 6.42023 16 6.42023Z"/>
<path d="M27.2413 5C27.1412 5.00001 27.0452 5.03978 26.9745 5.11056C26.9037 5.18134 26.8639 5.27734 26.8639 5.37743V10.639C26.8639 10.7391 26.9037 10.835 26.9745 10.9058C27.0452 10.9766 27.1412 11.0164 27.2413 11.0164H29.6226C29.7227 11.0164 29.8187 10.9766 29.8894 10.9058C29.9602 10.835 30 10.7391 30 10.639V5.37743C30 5.27734 29.9602 5.18134 29.8894 5.11056C29.8187 5.03978 29.7227 5.00001 29.6226 5H27.2413ZM27.6188 5.75487H29.2451V10.2615H27.6188V5.75487Z"/>
<path d="M4.75868 21.0873C4.65858 21.0873 4.56258 21.1271 4.4918 21.1978C4.42102 21.2686 4.38125 21.3646 4.38124 21.4647V25.3958C4.38125 25.4959 4.42102 25.5919 4.4918 25.6627C4.56258 25.7334 4.65858 25.7732 4.75868 25.7732H15.9546C16.0046 25.7739 16.0543 25.7647 16.1007 25.746C16.1471 25.7274 16.1893 25.6997 16.225 25.6646C16.2606 25.6294 16.2889 25.5876 16.3082 25.5415C16.3275 25.4953 16.3374 25.4458 16.3374 25.3958C16.3374 25.3458 16.3275 25.2962 16.3082 25.2501C16.2889 25.2039 16.2606 25.1621 16.225 25.127C16.1893 25.0919 16.1471 25.0642 16.1007 25.0455C16.0543 25.0269 16.0046 25.0176 15.9546 25.0183H5.13611V21.8421H8.03203C8.08205 21.8429 8.1317 21.8336 8.17811 21.815C8.22453 21.7963 8.26677 21.7686 8.30239 21.7335C8.33801 21.6984 8.36629 21.6565 8.38559 21.6104C8.4049 21.5643 8.41484 21.5147 8.41484 21.4647C8.41484 21.4147 8.4049 21.3652 8.38559 21.319C8.36629 21.2729 8.33801 21.231 8.30239 21.1959C8.26677 21.1608 8.22453 21.1331 8.17811 21.1145C8.1317 21.0958 8.08205 21.0866 8.03203 21.0873H4.75868Z"/>
<path d="M2.37743 20.4219C2.27734 20.4219 2.18134 20.4617 2.11056 20.5324C2.03978 20.6032 2.00001 20.6992 2 20.7993V26.0608C2.00001 26.1609 2.03978 26.2569 2.11056 26.3277C2.18134 26.3985 2.27734 26.4383 2.37743 26.4383H4.75866C4.85876 26.4383 4.95475 26.3985 5.02553 26.3277C5.09631 26.2569 5.13608 26.1609 5.13609 26.0608V20.7993C5.13608 20.6992 5.09631 20.6032 5.02553 20.5324C4.95475 20.4617 4.85876 20.4219 4.75866 20.4219H2.37743ZM2.75487 21.1767H4.38123V25.6834H2.75487V21.1767Z"/>
<path fill-rule="evenodd" clip-rule="evenodd" d="M10.845 15.719C10.8443 15.0298 10.9824 14.3482 11.2504 13.7133C11.5101 13.1011 11.8852 12.544 12.3555 12.0745C12.825 11.6042 13.3821 11.229 13.9943 10.9694C14.6284 10.7014 15.3108 10.5632 16 10.564C16.6892 10.5632 17.3716 10.7014 18.0057 10.9694C18.6179 11.229 19.175 11.6042 19.6445 12.0745C20.1148 12.544 20.49 13.1011 20.7496 13.7133C21.0176 14.3474 21.1558 15.0298 21.155 15.719C21.1558 16.4082 21.0176 17.0906 20.7496 17.7247C20.49 18.3369 20.1148 18.894 19.6445 19.3635C19.175 19.8338 18.6179 20.2089 18.0057 20.4686C17.3716 20.7366 16.6892 20.8747 16 20.874C15.3108 20.8747 14.6284 20.7366 13.9943 20.4686C13.3821 20.2089 12.825 19.8338 12.3555 19.3635C11.8852 18.894 11.5101 18.3369 11.2504 17.7247C10.9824 17.0906 10.8443 16.4082 10.845 15.719ZM11.5999 15.719C11.5991 15.131 11.7169 14.5489 11.9456 14.007C12.1668 13.4846 12.4876 13.009 12.8892 12.6082C13.29 12.2066 13.7656 11.8858 14.288 11.6646C14.83 11.4359 15.412 11.3181 16 11.3189C16.5881 11.3181 17.1701 11.4359 17.7121 11.6646C18.2344 11.8858 18.71 12.2066 19.1108 12.6082C19.5124 13.009 19.8332 13.4846 20.0544 14.007C20.2831 14.5489 20.4009 15.131 20.4001 15.719C20.4009 16.307 20.2831 16.889 20.0544 17.431C19.8332 17.9534 19.5124 18.429 19.1108 18.8298C18.71 19.2314 18.2344 19.5522 17.7121 19.7734C17.1701 20.0021 16.5881 20.1199 16 20.1191C15.412 20.1199 14.83 20.0021 14.288 19.7734C13.7656 19.5522 13.29 19.2314 12.8892 18.8298C12.4876 18.429 12.1668 17.9534 11.9456 17.431C11.7169 16.889 11.5991 16.307 11.5999 15.719Z"/>
<path fill-rule="evenodd" clip-rule="evenodd" d="M13.3248 15.7193C13.3248 15.0098 13.6063 14.3289 14.1083 13.8276C14.6095 13.3256 15.2904 13.0441 16 13.0441C16.7096 13.0441 17.3905 13.3256 17.8917 13.8276C18.3937 14.3289 18.6753 15.0098 18.6753 15.7193C18.6753 16.4289 18.3937 17.1098 17.8917 17.611C17.3905 18.113 16.7096 18.3946 16 18.3946C15.2904 18.3946 14.6095 18.113 14.1083 17.611C13.6063 17.1098 13.3248 16.4289 13.3248 15.7193ZM14.0796 15.7193C14.0796 15.2098 14.2819 14.7214 14.642 14.3613C15.0021 14.0012 15.4905 13.7989 16 13.7989C16.5095 13.7989 16.9979 14.0012 17.358 14.3613C17.7181 14.7214 17.9204 15.2098 17.9204 15.7193C17.9204 16.2289 17.7181 16.7173 17.358 17.0773C16.9979 17.4374 16.5095 17.6397 16 17.6397C15.4905 17.6397 15.0021 17.4374 14.642 17.0773C14.2819 16.7173 14.0796 16.2289 14.0796 15.7193Z"/>
</mask>
<path d="M16 5.66536C10.4552 5.66536 5.9461 10.1744 5.9461 15.7193C5.9461 21.2641 10.4552 25.7732 16 25.7732C21.5448 25.7732 26.0539 21.2641 26.0539 15.7193C26.0539 13.7472 25.4822 11.9052 24.4983 10.3513H27.2413C27.3414 10.3513 27.4374 10.3115 27.5082 10.2407C27.579 10.17 27.6188 10.074 27.6188 9.97386V6.0428C27.6188 5.9427 27.579 5.8467 27.5082 5.77592C27.4374 5.70514 27.3414 5.66537 27.2413 5.66536H16.0454C16.0445 5.66541 16.0436 5.66546 16.0428 5.66552C16.0281 5.66546 16.0136 5.66536 16 5.66536ZM16 6.42023C16.0151 6.42023 16.0297 6.42031 16.0435 6.42038C16.0441 6.42033 16.0448 6.42028 16.0454 6.42023C16.0458 6.42023 16.0462 6.42023 16.0466 6.42023H26.8639V9.59643H23.7847C23.7149 9.59645 23.6464 9.61587 23.5869 9.65251C23.5274 9.68915 23.4793 9.74158 23.4478 9.80397C23.4163 9.86635 23.4028 9.93624 23.4087 10.0059C23.4147 10.0755 23.4398 10.1421 23.4813 10.1983C24.6238 11.743 25.299 13.651 25.299 15.7193C25.299 20.8555 21.1362 25.0183 16 25.0183C10.8637 25.0183 6.70097 20.8555 6.70097 15.7193C6.70097 10.583 10.8637 6.42023 16 6.42023Z" fill="white"/>
<path d="M27.2413 5C27.1412 5.00001 27.0452 5.03978 26.9745 5.11056C26.9037 5.18134 26.8639 5.27734 26.8639 5.37743V10.639C26.8639 10.7391 26.9037 10.835 26.9745 10.9058C27.0452 10.9766 27.1412 11.0164 27.2413 11.0164H29.6226C29.7227 11.0164 29.8187 10.9766 29.8894 10.9058C29.9602 10.835 30 10.7391 30 10.639V5.37743C30 5.27734 29.9602 5.18134 29.8894 5.11056C29.8187 5.03978 29.7227 5.00001 29.6226 5H27.2413ZM27.6188 5.75487H29.2451V10.2615H27.6188V5.75487Z" fill="white"/>
<path d="M4.75868 21.0873C4.65858 21.0873 4.56258 21.1271 4.4918 21.1978C4.42102 21.2686 4.38125 21.3646 4.38124 21.4647V25.3958C4.38125 25.4959 4.42102 25.5919 4.4918 25.6627C4.56258 25.7334 4.65858 25.7732 4.75868 25.7732H15.9546C16.0046 25.7739 16.0543 25.7647 16.1007 25.746C16.1471 25.7274 16.1893 25.6997 16.225 25.6646C16.2606 25.6294 16.2889 25.5876 16.3082 25.5415C16.3275 25.4953 16.3374 25.4458 16.3374 25.3958C16.3374 25.3458 16.3275 25.2962 16.3082 25.2501C16.2889 25.2039 16.2606 25.1621 16.225 25.127C16.1893 25.0919 16.1471 25.0642 16.1007 25.0455C16.0543 25.0269 16.0046 25.0176 15.9546 25.0183H5.13611V21.8421H8.03203C8.08205 21.8429 8.1317 21.8336 8.17811 21.815C8.22453 21.7963 8.26677 21.7686 8.30239 21.7335C8.33801 21.6984 8.36629 21.6565 8.38559 21.6104C8.4049 21.5643 8.41484 21.5147 8.41484 21.4647C8.41484 21.4147 8.4049 21.3652 8.38559 21.319C8.36629 21.2729 8.33801 21.231 8.30239 21.1959C8.26677 21.1608 8.22453 21.1331 8.17811 21.1145C8.1317 21.0958 8.08205 21.0866 8.03203 21.0873H4.75868Z" fill="white"/>
<path d="M2.37743 20.4219C2.27734 20.4219 2.18134 20.4617 2.11056 20.5324C2.03978 20.6032 2.00001 20.6992 2 20.7993V26.0608C2.00001 26.1609 2.03978 26.2569 2.11056 26.3277C2.18134 26.3985 2.27734 26.4383 2.37743 26.4383H4.75866C4.85876 26.4383 4.95475 26.3985 5.02553 26.3277C5.09631 26.2569 5.13608 26.1609 5.13609 26.0608V20.7993C5.13608 20.6992 5.09631 20.6032 5.02553 20.5324C4.95475 20.4617 4.85876 20.4219 4.75866 20.4219H2.37743ZM2.75487 21.1767H4.38123V25.6834H2.75487V21.1767Z" fill="white"/>
<path fill-rule="evenodd" clip-rule="evenodd" d="M10.845 15.719C10.8443 15.0298 10.9824 14.3482 11.2504 13.7133C11.5101 13.1011 11.8852 12.544 12.3555 12.0745C12.825 11.6042 13.3821 11.229 13.9943 10.9694C14.6284 10.7014 15.3108 10.5632 16 10.564C16.6892 10.5632 17.3716 10.7014 18.0057 10.9694C18.6179 11.229 19.175 11.6042 19.6445 12.0745C20.1148 12.544 20.49 13.1011 20.7496 13.7133C21.0176 14.3474 21.1558 15.0298 21.155 15.719C21.1558 16.4082 21.0176 17.0906 20.7496 17.7247C20.49 18.3369 20.1148 18.894 19.6445 19.3635C19.175 19.8338 18.6179 20.2089 18.0057 20.4686C17.3716 20.7366 16.6892 20.8747 16 20.874C15.3108 20.8747 14.6284 20.7366 13.9943 20.4686C13.3821 20.2089 12.825 19.8338 12.3555 19.3635C11.8852 18.894 11.5101 18.3369 11.2504 17.7247C10.9824 17.0906 10.8443 16.4082 10.845 15.719ZM11.5999 15.719C11.5991 15.131 11.7169 14.5489 11.9456 14.007C12.1668 13.4846 12.4876 13.009 12.8892 12.6082C13.29 12.2066 13.7656 11.8858 14.288 11.6646C14.83 11.4359 15.412 11.3181 16 11.3189C16.5881 11.3181 17.1701 11.4359 17.7121 11.6646C18.2344 11.8858 18.71 12.2066 19.1108 12.6082C19.5124 13.009 19.8332 13.4846 20.0544 14.007C20.2831 14.5489 20.4009 15.131 20.4001 15.719C20.4009 16.307 20.2831 16.889 20.0544 17.431C19.8332 17.9534 19.5124 18.429 19.1108 18.8298C18.71 19.2314 18.2344 19.5522 17.7121 19.7734C17.1701 20.0021 16.5881 20.1199 16 20.1191C15.412 20.1199 14.83 20.0021 14.288 19.7734C13.7656 19.5522 13.29 19.2314 12.8892 18.8298C12.4876 18.429 12.1668 17.9534 11.9456 17.431C11.7169 16.889 11.5991 16.307 11.5999 15.719Z" fill="white"/>
<path fill-rule="evenodd" clip-rule="evenodd" d="M13.3248 15.7193C13.3248 15.0098 13.6063 14.3289 14.1083 13.8276C14.6095 13.3256 15.2904 13.0441 16 13.0441C16.7096 13.0441 17.3905 13.3256 17.8917 13.8276C18.3937 14.3289 18.6753 15.0098 18.6753 15.7193C18.6753 16.4289 18.3937 17.1098 17.8917 17.611C17.3905 18.113 16.7096 18.3946 16 18.3946C15.2904 18.3946 14.6095 18.113 14.1083 17.611C13.6063 17.1098 13.3248 16.4289 13.3248 15.7193ZM14.0796 15.7193C14.0796 15.2098 14.2819 14.7214 14.642 14.3613C15.0021 14.0012 15.4905 13.7989 16 13.7989C16.5095 13.7989 16.9979 14.0012 17.358 14.3613C17.7181 14.7214 17.9204 15.2098 17.9204 15.7193C17.9204 16.2289 17.7181 16.7173 17.358 17.0773C16.9979 17.4374 16.5095 17.6397 16 17.6397C15.4905 17.6397 15.0021 17.4374 14.642 17.0773C14.2819 16.7173 14.0796 16.2289 14.0796 15.7193Z" fill="white"/>
<path d="M16 5.66536C10.4552 5.66536 5.9461 10.1744 5.9461 15.7193C5.9461 21.2641 10.4552 25.7732 16 25.7732C21.5448 25.7732 26.0539 21.2641 26.0539 15.7193C26.0539 13.7472 25.4822 11.9052 24.4983 10.3513H27.2413C27.3414 10.3513 27.4374 10.3115 27.5082 10.2407C27.579 10.17 27.6188 10.074 27.6188 9.97386V6.0428C27.6188 5.9427 27.579 5.8467 27.5082 5.77592C27.4374 5.70514 27.3414 5.66537 27.2413 5.66536H16.0454C16.0445 5.66541 16.0436 5.66546 16.0428 5.66552C16.0281 5.66546 16.0136 5.66536 16 5.66536ZM16 6.42023C16.0151 6.42023 16.0297 6.42031 16.0435 6.42038C16.0441 6.42033 16.0448 6.42028 16.0454 6.42023C16.0458 6.42023 16.0462 6.42023 16.0466 6.42023H26.8639V9.59643H23.7847C23.7149 9.59645 23.6464 9.61587 23.5869 9.65251C23.5274 9.68915 23.4793 9.74158 23.4478 9.80397C23.4163 9.86635 23.4028 9.93624 23.4087 10.0059C23.4147 10.0755 23.4398 10.1421 23.4813 10.1983C24.6238 11.743 25.299 13.651 25.299 15.7193C25.299 20.8555 21.1362 25.0183 16 25.0183C10.8637 25.0183 6.70097 20.8555 6.70097 15.7193C6.70097 10.583 10.8637 6.42023 16 6.42023Z" stroke="white" stroke-width="0.4" mask="url(#path-1-outside-1)"/>
<path d="M27.2413 5C27.1412 5.00001 27.0452 5.03978 26.9745 5.11056C26.9037 5.18134 26.8639 5.27734 26.8639 5.37743V10.639C26.8639 10.7391 26.9037 10.835 26.9745 10.9058C27.0452 10.9766 27.1412 11.0164 27.2413 11.0164H29.6226C29.7227 11.0164 29.8187 10.9766 29.8894 10.9058C29.9602 10.835 30 10.7391 30 10.639V5.37743C30 5.27734 29.9602 5.18134 29.8894 5.11056C29.8187 5.03978 29.7227 5.00001 29.6226 5H27.2413ZM27.6188 5.75487H29.2451V10.2615H27.6188V5.75487Z" stroke="white" stroke-width="0.4" mask="url(#path-1-outside-1)"/>
<path d="M4.75868 21.0873C4.65858 21.0873 4.56258 21.1271 4.4918 21.1978C4.42102 21.2686 4.38125 21.3646 4.38124 21.4647V25.3958C4.38125 25.4959 4.42102 25.5919 4.4918 25.6627C4.56258 25.7334 4.65858 25.7732 4.75868 25.7732H15.9546C16.0046 25.7739 16.0543 25.7647 16.1007 25.746C16.1471 25.7274 16.1893 25.6997 16.225 25.6646C16.2606 25.6294 16.2889 25.5876 16.3082 25.5415C16.3275 25.4953 16.3374 25.4458 16.3374 25.3958C16.3374 25.3458 16.3275 25.2962 16.3082 25.2501C16.2889 25.2039 16.2606 25.1621 16.225 25.127C16.1893 25.0919 16.1471 25.0642 16.1007 25.0455C16.0543 25.0269 16.0046 25.0176 15.9546 25.0183H5.13611V21.8421H8.03203C8.08205 21.8429 8.1317 21.8336 8.17811 21.815C8.22453 21.7963 8.26677 21.7686 8.30239 21.7335C8.33801 21.6984 8.36629 21.6565 8.38559 21.6104C8.4049 21.5643 8.41484 21.5147 8.41484 21.4647C8.41484 21.4147 8.4049 21.3652 8.38559 21.319C8.36629 21.2729 8.33801 21.231 8.30239 21.1959C8.26677 21.1608 8.22453 21.1331 8.17811 21.1145C8.1317 21.0958 8.08205 21.0866 8.03203 21.0873H4.75868Z" stroke="white" stroke-width="0.4" mask="url(#path-1-outside-1)"/>
<path d="M2.37743 20.4219C2.27734 20.4219 2.18134 20.4617 2.11056 20.5324C2.03978 20.6032 2.00001 20.6992 2 20.7993V26.0608C2.00001 26.1609 2.03978 26.2569 2.11056 26.3277C2.18134 26.3985 2.27734 26.4383 2.37743 26.4383H4.75866C4.85876 26.4383 4.95475 26.3985 5.02553 26.3277C5.09631 26.2569 5.13608 26.1609 5.13609 26.0608V20.7993C5.13608 20.6992 5.09631 20.6032 5.02553 20.5324C4.95475 20.4617 4.85876 20.4219 4.75866 20.4219H2.37743ZM2.75487 21.1767H4.38123V25.6834H2.75487V21.1767Z" stroke="white" stroke-width="0.4" mask="url(#path-1-outside-1)"/>
<path fill-rule="evenodd" clip-rule="evenodd" d="M10.845 15.719C10.8443 15.0298 10.9824 14.3482 11.2504 13.7133C11.5101 13.1011 11.8852 12.544 12.3555 12.0745C12.825 11.6042 13.3821 11.229 13.9943 10.9694C14.6284 10.7014 15.3108 10.5632 16 10.564C16.6892 10.5632 17.3716 10.7014 18.0057 10.9694C18.6179 11.229 19.175 11.6042 19.6445 12.0745C20.1148 12.544 20.49 13.1011 20.7496 13.7133C21.0176 14.3474 21.1558 15.0298 21.155 15.719C21.1558 16.4082 21.0176 17.0906 20.7496 17.7247C20.49 18.3369 20.1148 18.894 19.6445 19.3635C19.175 19.8338 18.6179 20.2089 18.0057 20.4686C17.3716 20.7366 16.6892 20.8747 16 20.874C15.3108 20.8747 14.6284 20.7366 13.9943 20.4686C13.3821 20.2089 12.825 19.8338 12.3555 19.3635C11.8852 18.894 11.5101 18.3369 11.2504 17.7247C10.9824 17.0906 10.8443 16.4082 10.845 15.719ZM11.5999 15.719C11.5991 15.131 11.7169 14.5489 11.9456 14.007C12.1668 13.4846 12.4876 13.009 12.8892 12.6082C13.29 12.2066 13.7656 11.8858 14.288 11.6646C14.83 11.4359 15.412 11.3181 16 11.3189C16.5881 11.3181 17.1701 11.4359 17.7121 11.6646C18.2344 11.8858 18.71 12.2066 19.1108 12.6082C19.5124 13.009 19.8332 13.4846 20.0544 14.007C20.2831 14.5489 20.4009 15.131 20.4001 15.719C20.4009 16.307 20.2831 16.889 20.0544 17.431C19.8332 17.9534 19.5124 18.429 19.1108 18.8298C18.71 19.2314 18.2344 19.5522 17.7121 19.7734C17.1701 20.0021 16.5881 20.1199 16 20.1191C15.412 20.1199 14.83 20.0021 14.288 19.7734C13.7656 19.5522 13.29 19.2314 12.8892 18.8298C12.4876 18.429 12.1668 17.9534 11.9456 17.431C11.7169 16.889 11.5991 16.307 11.5999 15.719Z" stroke="white" stroke-width="0.4" mask="url(#path-1-outside-1)"/>
<path fill-rule="evenodd" clip-rule="evenodd" d="M13.3248 15.7193C13.3248 15.0098 13.6063 14.3289 14.1083 13.8276C14.6095 13.3256 15.2904 13.0441 16 13.0441C16.7096 13.0441 17.3905 13.3256 17.8917 13.8276C18.3937 14.3289 18.6753 15.0098 18.6753 15.7193C18.6753 16.4289 18.3937 17.1098 17.8917 17.611C17.3905 18.113 16.7096 18.3946 16 18.3946C15.2904 18.3946 14.6095 18.113 14.1083 17.611C13.6063 17.1098 13.3248 16.4289 13.3248 15.7193ZM14.0796 15.7193C14.0796 15.2098 14.2819 14.7214 14.642 14.3613C15.0021 14.0012 15.4905 13.7989 16 13.7989C16.5095 13.7989 16.9979 14.0012 17.358 14.3613C17.7181 14.7214 17.9204 15.2098 17.9204 15.7193C17.9204 16.2289 17.7181 16.7173 17.358 17.0773C16.9979 17.4374 16.5095 17.6397 16 17.6397C15.4905 17.6397 15.0021 17.4374 14.642 17.0773C14.2819 16.7173 14.0796 16.2289 14.0796 15.7193Z" stroke="white" stroke-width="0.4" mask="url(#path-1-outside-1)"/>
</svg>
