<svg width="32" height="32" viewBox="0 0 32 32" fill="none" xmlns="http://www.w3.org/2000/svg">
<path d="M28 6.11887C28 4.94893 27.0506 4 25.8811 4H6.11888C4.94893 4 4 4.94941 4 6.11887V25.8811C4 27.0511 4.94942 28 6.11888 28H25.8811C27.0511 28 28 27.0506 28 25.8811V6.11887ZM16 16.7059C15.6102 16.7059 15.2941 16.3898 15.2941 16C15.2941 15.6102 15.6102 15.2941 16 15.2941C16.3898 15.2941 16.7059 15.6102 16.7059 16C16.7059 16.3898 16.3898 16.7059 16 16.7059ZM18.8235 15.2941C18.2388 15.2941 17.7647 14.8201 17.7647 14.2353C17.7647 13.6505 18.2388 13.1765 18.8235 13.1765C19.4083 13.1765 19.8824 13.6505 19.8824 14.2353C19.8824 14.8201 19.4083 15.2941 18.8235 15.2941ZM16 13.8824C15.6102 13.8824 15.2941 13.5663 15.2941 13.1765C15.2941 12.7866 15.6102 12.4706 16 12.4706C16.3898 12.4706 16.7059 12.7866 16.7059 13.1765C16.7059 13.5663 16.3898 13.8824 16 13.8824ZM16 11.0588C15.6102 11.0588 15.2941 10.7428 15.2941 10.3529C15.2941 9.96309 15.6102 9.64706 16 9.64706C16.3898 9.64706 16.7059 9.96309 16.7059 10.3529C16.7059 10.7428 16.3898 11.0588 16 11.0588ZM16 25.1765C15.6102 25.1765 15.2941 24.8604 15.2941 24.4706C15.2941 24.0807 15.6102 23.7647 16 23.7647C16.3898 23.7647 16.7059 24.0807 16.7059 24.4706C16.7059 24.8604 16.3898 25.1765 16 25.1765ZM16 22.3529C15.6102 22.3529 15.2941 22.0369 15.2941 21.6471C15.2941 21.2572 15.6102 20.9412 16 20.9412C16.3898 20.9412 16.7059 21.2572 16.7059 21.6471C16.7059 22.0369 16.3898 22.3529 16 22.3529ZM16 19.5294C15.6102 19.5294 15.2941 19.2134 15.2941 18.8235C15.2941 18.4337 15.6102 18.1176 16 18.1176C16.3898 18.1176 16.7059 18.4337 16.7059 18.8235C16.7059 19.2134 16.3898 19.5294 16 19.5294ZM16 8.23529C15.6102 8.23529 15.2941 7.91926 15.2941 7.52941C15.2941 7.13956 15.6102 6.82353 16 6.82353C16.3898 6.82353 16.7059 7.13956 16.7059 7.52941C16.7059 7.91926 16.3898 8.23529 16 8.23529ZM18.8235 11.7647C18.2388 11.7647 17.7647 11.2907 17.7647 10.7059C17.7647 10.1211 18.2388 9.64706 18.8235 9.64706C19.4083 9.64706 19.8824 10.1211 19.8824 10.7059C19.8824 11.2907 19.4083 11.7647 18.8235 11.7647ZM18.8235 8.23529C18.2388 8.23529 17.7647 7.76124 17.7647 7.17647C17.7647 6.5917 18.2388 6.11765 18.8235 6.11765C19.4083 6.11765 19.8824 6.5917 19.8824 7.17647C19.8824 7.76124 19.4083 8.23529 18.8235 8.23529ZM18.8235 25.8824C18.2388 25.8824 17.7647 25.4083 17.7647 24.8235C17.7647 24.2388 18.2388 23.7647 18.8235 23.7647C19.4083 23.7647 19.8824 24.2388 19.8824 24.8235C19.8824 25.4083 19.4083 25.8824 18.8235 25.8824ZM18.8235 22.3529C18.2388 22.3529 17.7647 21.8789 17.7647 21.2941C17.7647 20.7093 18.2388 20.2353 18.8235 20.2353C19.4083 20.2353 19.8824 20.7093 19.8824 21.2941C19.8824 21.8789 19.4083 22.3529 18.8235 22.3529ZM18.8235 18.8235C18.2388 18.8235 17.7647 18.3495 17.7647 17.7647C17.7647 17.1799 18.2388 16.7059 18.8235 16.7059C19.4083 16.7059 19.8824 17.1799 19.8824 17.7647C19.8824 18.3495 19.4083 18.8235 18.8235 18.8235ZM22.3529 15.6471C21.5732 15.6471 20.9412 15.015 20.9412 14.2353C20.9412 13.4556 21.5732 12.8235 22.3529 12.8235C23.1326 12.8235 23.7647 13.4556 23.7647 14.2353C23.7647 15.015 23.1326 15.6471 22.3529 15.6471ZM22.3529 12.1176C21.5732 12.1176 20.9412 11.4856 20.9412 10.7059C20.9412 9.92619 21.5732 9.29412 22.3529 9.29412C23.1326 9.29412 23.7647 9.92619 23.7647 10.7059C23.7647 11.4856 23.1326 12.1176 22.3529 12.1176ZM22.3529 8.58824C21.5732 8.58824 20.9412 7.95617 20.9412 7.17647C20.9412 6.39677 21.5732 5.76471 22.3529 5.76471C23.1326 5.76471 23.7647 6.39677 23.7647 7.17647C23.7647 7.95617 23.1326 8.58824 22.3529 8.58824ZM22.3529 26.2353C21.5732 26.2353 20.9412 25.6032 20.9412 24.8235C20.9412 24.0438 21.5732 23.4118 22.3529 23.4118C23.1326 23.4118 23.7647 24.0438 23.7647 24.8235C23.7647 25.6032 23.1326 26.2353 22.3529 26.2353ZM22.3529 22.7059C21.5732 22.7059 20.9412 22.0738 20.9412 21.2941C20.9412 20.5144 21.5732 19.8824 22.3529 19.8824C23.1326 19.8824 23.7647 20.5144 23.7647 21.2941C23.7647 22.0738 23.1326 22.7059 22.3529 22.7059ZM22.3529 19.1765C21.5732 19.1765 20.9412 18.5444 20.9412 17.7647C20.9412 16.985 21.5732 16.3529 22.3529 16.3529C23.1326 16.3529 23.7647 16.985 23.7647 17.7647C23.7647 18.5444 23.1326 19.1765 22.3529 19.1765ZM24.8454 26.9412C24.831 26.8256 24.8235 26.7078 24.8235 26.5882C24.8235 25.7449 25.1932 24.988 25.7794 24.4706C25.1932 23.9532 24.8235 23.1963 24.8235 22.3529C24.8235 21.5096 25.1932 20.7527 25.7794 20.2353C25.1932 19.7179 24.8235 18.961 24.8235 18.1176C24.8235 17.2743 25.1932 16.5174 25.7794 16C25.1932 15.4826 24.8235 14.7257 24.8235 13.8824C24.8235 13.039 25.1932 12.2821 25.7794 11.7647C25.1932 11.2473 24.8235 10.4904 24.8235 9.64706C24.8235 8.80375 25.1932 8.04678 25.7794 7.52941C25.1932 7.01204 24.8235 6.25508 24.8235 5.41176C24.8235 5.29224 24.831 5.17444 24.8454 5.05882H25.8811C26.466 5.05882 26.9412 5.53391 26.9412 6.11887V25.8811C26.9412 26.466 26.4661 26.9412 25.8811 26.9412H24.8454Z" fill="white"/>
</svg>
