<svg width="32" height="32" viewBox="0 0 32 32" fill="none" xmlns="http://www.w3.org/2000/svg">
<path d="M19.7857 27.5294V20.9412C19.7857 20.4864 20.1535 20.1176 20.6071 20.1176H27.1786C27.6322 20.1176 28 20.4864 28 20.9412V27.5294C28 28.8939 26.8967 30 25.5357 30H22.25C20.889 30 19.7857 28.8939 19.7857 27.5294ZM21.4286 21.7647V27.5294C21.4286 27.9842 21.7963 28.3529 22.25 28.3529H25.5357C25.9894 28.3529 26.3571 27.9842 26.3571 27.5294V21.7647H21.4286ZM14.4464 8.42352L16.3104 12.9086C16.4356 13.2097 16.5 13.5326 16.5 13.8588V29.1765C16.5 29.6313 16.1322 30 15.6786 30H5.82143C5.36777 30 5 29.6313 5 29.1765V13.8588C5 13.5326 5.06442 13.2097 5.18956 12.9086L7.05357 8.42352V4.47059C7.05357 3.10612 8.15687 2 9.51786 2H11.9821C13.3431 2 14.4464 3.10612 14.4464 4.47059V8.42352ZM8.42262 9.41176L6.70604 13.5421C6.66433 13.6424 6.64286 13.7501 6.64286 13.8588V28.3529H14.8571V13.8588C14.8571 13.7501 14.8357 13.6424 14.794 13.5421L13.0774 9.41176H8.42262ZM8.69643 7.76471H12.8036V4.47059C12.8036 4.01577 12.4358 3.64706 11.9821 3.64706H9.51786C9.0642 3.64706 8.69643 4.01577 8.69643 4.47059V7.76471ZM10.75 6.52941C10.2963 6.52941 9.92857 6.16071 9.92857 5.70588C9.92857 5.25106 10.2963 4.88235 10.75 4.88235C11.2037 4.88235 11.5714 5.25106 11.5714 5.70588C11.5714 6.16071 11.2037 6.52941 10.75 6.52941Z" fill="white"/>
</svg>
