<svg width="32" height="32" viewBox="0 0 32 32" fill="none" xmlns="http://www.w3.org/2000/svg">
<g opacity="0.2">
<mask id="path-1-outside-1" maskUnits="userSpaceOnUse" x="0" y="9.79736" width="32" height="12" fill="black">
<rect fill="white" y="9.79736" width="32" height="12"/>
<path fill-rule="evenodd" clip-rule="evenodd" d="M4.43735 18.7981C4.43735 18.2294 4.66326 17.6837 5.06506 17.2819C5.46687 16.8801 6.01265 16.6541 6.58133 16.6541C7.1494 16.6541 7.69518 16.8801 8.09699 17.2819C8.4988 17.6837 8.7247 18.2294 8.7247 18.7981C8.7247 19.3662 8.4988 19.912 8.09699 20.3138C7.69518 20.7156 7.1494 20.9415 6.58133 20.9415C6.01265 20.9415 5.46687 20.7156 5.06506 20.3138C4.66326 19.912 4.43735 19.3662 4.43735 18.7981ZM5.03976 18.7981C5.03976 18.3891 5.20241 17.9969 5.49097 17.7078C5.78012 17.4192 6.17229 17.2566 6.58133 17.2566C6.98976 17.2566 7.38193 17.4192 7.67109 17.7078C7.95964 17.9969 8.12229 18.3891 8.12229 18.7981C8.12229 19.2066 7.95964 19.5987 7.67109 19.8879C7.38193 20.1764 6.98976 20.3391 6.58133 20.3391C6.17229 20.3391 5.78012 20.1764 5.49097 19.8879C5.20241 19.5987 5.03976 19.2066 5.03976 18.7981Z"/>
<path fill-rule="evenodd" clip-rule="evenodd" d="M23.5886 18.7981C23.5886 18.2294 23.8145 17.6837 24.2163 17.2819C24.6181 16.8801 25.1639 16.6541 25.7319 16.6541C26.3006 16.6541 26.8464 16.8801 27.2482 17.2819C27.65 17.6837 27.8759 18.2294 27.8759 18.7981C27.8759 19.3662 27.65 19.912 27.2482 20.3138C26.8464 20.7156 26.3006 20.9415 25.7319 20.9415C25.1639 20.9415 24.6181 20.7156 24.2163 20.3138C23.8145 19.912 23.5886 19.3662 23.5886 18.7981ZM24.191 18.7981C24.191 18.3891 24.3536 17.9969 24.6422 17.7078C24.9313 17.4192 25.3235 17.2566 25.7319 17.2566C26.141 17.2566 26.5331 17.4192 26.8223 17.7078C27.1108 17.9969 27.2735 18.3891 27.2735 18.7981C27.2735 19.2066 27.1108 19.5987 26.8223 19.8879C26.5331 20.1764 26.141 20.3391 25.7319 20.3391C25.3235 20.3391 24.9313 20.1764 24.6422 19.8879C24.3536 19.5987 24.191 19.2066 24.191 18.7981Z"/>
<path d="M10.2211 13.4322C10.2141 13.4322 10.2071 13.4326 10.2002 13.4331C7.60184 13.597 5.62554 13.9224 4.24795 14.2418C3.55916 14.4015 3.02018 14.5595 2.62568 14.6963C2.23118 14.8331 2.00317 14.9264 1.84102 15.0443C1.54233 15.2615 1.33232 15.5862 1.2092 15.9802C1.20531 15.9927 1.20224 16.0055 1.20002 16.0184C1.06633 16.7871 1 17.6083 1 18.4818C1 18.9694 1.15528 19.3957 1.48416 19.6673C1.81305 19.939 2.26751 20.0391 2.81029 20.0214L2.8004 20.0215H3.84333C3.92321 20.0215 3.99982 19.9898 4.0563 19.9333C4.11279 19.8768 4.14452 19.8002 4.14453 19.7203V18.8077C4.14453 17.4598 5.23306 16.3713 6.581 16.3713C7.92893 16.3713 9.01758 17.4598 9.01758 18.8077V19.7203C9.01758 19.8002 9.04932 19.8768 9.10581 19.9333C9.16229 19.9898 9.2389 20.0215 9.31878 20.0215H23.0071C23.047 20.0221 23.0867 20.0147 23.1237 19.9998C23.1607 19.9849 23.1945 19.9628 23.2229 19.9348C23.2513 19.9068 23.2739 19.8734 23.2893 19.8366C23.3047 19.7997 23.3126 19.7602 23.3126 19.7203C23.3126 19.6804 23.3047 19.6409 23.2893 19.604C23.2739 19.5672 23.2513 19.5338 23.2229 19.5058C23.1945 19.4778 23.1607 19.4557 23.1237 19.4408C23.0867 19.4259 23.047 19.4185 23.0071 19.4191H9.61999V18.8077C9.61999 17.1337 8.25499 15.7689 6.581 15.7689C4.907 15.7689 3.54212 17.1338 3.54212 18.8077V19.4191H2.8004C2.79715 19.4191 2.79389 19.4191 2.79064 19.4192C2.33394 19.4341 2.0387 19.3441 1.86785 19.2029C1.69699 19.0618 1.60241 18.8525 1.60241 18.4818C1.60241 17.6479 1.66611 16.8701 1.79043 16.1463C1.88441 15.8541 2.01931 15.6595 2.19541 15.5314C2.21253 15.519 2.45348 15.3936 2.82311 15.2654C3.19274 15.1372 3.71308 14.9842 4.38397 14.8287C5.72574 14.5176 7.67058 14.1962 10.238 14.0342C10.3166 14.0301 10.3904 13.9955 10.4437 13.9377C10.497 13.8799 10.5256 13.8035 10.5234 13.7249C10.5212 13.6463 10.4884 13.5717 10.4319 13.517C10.3754 13.4623 10.2997 13.4319 10.2211 13.4322Z"/>
<path d="M18.8816 10.8014C18.452 10.8087 18.0308 10.8254 17.629 10.848C16.8253 10.8933 16.1004 10.9629 15.5437 11.0321C15.2654 11.0666 15.0294 11.101 14.8447 11.1325C14.6601 11.164 14.54 11.1863 14.4351 11.2224C14.2416 11.2892 13.9689 11.4395 13.5708 11.6551C13.1728 11.8706 12.687 12.1413 12.2094 12.4071C11.7318 12.6729 11.2623 12.9338 10.9008 13.1278C10.7201 13.2248 10.566 13.3052 10.4547 13.3597C10.399 13.3869 10.3536 13.4078 10.3251 13.4197C10.2966 13.4316 10.2568 13.429 10.3402 13.423C10.3004 13.4253 10.2614 13.4356 10.2256 13.4531C10.1898 13.4706 10.1578 13.495 10.1315 13.525C10.1052 13.555 10.0851 13.5899 10.0724 13.6277C10.0596 13.6655 10.0546 13.7055 10.0574 13.7452C10.0603 13.785 10.071 13.8238 10.089 13.8594C10.1069 13.895 10.1318 13.9267 10.1621 13.9526C10.1924 13.9786 10.2276 13.9982 10.2655 14.0104C10.3035 14.0227 10.3435 14.0272 10.3832 14.0239C10.4951 14.0159 10.5092 13.9956 10.5568 13.9757C10.6044 13.9559 10.6575 13.9311 10.7195 13.9008C10.8435 13.8401 11.0017 13.7575 11.1858 13.6587C11.554 13.461 12.0246 13.1994 12.5024 12.9335C12.9801 12.6676 13.4649 12.3976 13.8577 12.1849C14.2505 11.9722 14.5888 11.8067 14.6315 11.792C14.6448 11.7874 14.7738 11.7557 14.946 11.7264C15.1182 11.697 15.3468 11.6635 15.618 11.6299C16.1603 11.5625 16.8735 11.4939 17.6627 11.4495C19.2412 11.3607 21.1293 11.3725 22.5541 11.6716C24.4877 12.0776 26.2336 12.7808 27.7989 13.7817C27.8473 13.8127 27.9036 13.8291 27.9611 13.8291H30.0307C30.1124 13.959 30.2078 14.1978 30.2721 14.5513C30.3538 15.0007 30.3976 15.6194 30.3976 16.396C30.3976 17.8297 30.2171 18.7795 29.9921 19.1833L28.7838 19.3692V18.8077C28.7838 17.1337 27.4189 15.7689 25.7449 15.7689C24.0709 15.7689 22.7059 17.1337 22.7059 18.8077V19.7203C22.7054 19.7602 22.7127 19.7998 22.7276 19.8369C22.7425 19.8739 22.7646 19.9076 22.7926 19.936C22.8207 19.9645 22.854 19.987 22.8909 20.0024C22.9277 20.0178 22.9672 20.0258 23.0071 20.0258C23.047 20.0258 23.0866 20.0178 23.1234 20.0024C23.1602 19.987 23.1936 19.9645 23.2216 19.936C23.2497 19.9076 23.2718 19.8739 23.2866 19.8369C23.3015 19.7998 23.3089 19.7602 23.3083 19.7203V18.8077C23.3083 17.4598 24.397 16.3713 25.7449 16.3713C27.0929 16.3713 28.1814 17.4598 28.1814 18.8077V19.7203C28.1814 19.7637 28.1908 19.8066 28.2089 19.8461C28.2271 19.8855 28.2535 19.9206 28.2865 19.9488C28.3194 19.9771 28.3581 19.9979 28.3999 20.0099C28.4416 20.0218 28.4854 20.0245 28.5284 20.018L30.2231 19.7572C30.3014 19.7452 30.3717 19.7028 30.419 19.6393C30.8634 19.0421 31 17.9934 31 16.396C31 15.5973 30.9569 14.9503 30.8648 14.4437C30.7727 13.937 30.645 13.5616 30.3869 13.3116C30.3307 13.2572 30.2556 13.2267 30.1773 13.2267H28.0453C26.4363 12.2113 24.6456 11.4952 22.6779 11.0821C21.5344 10.842 20.1703 10.7795 18.8816 10.8014Z"/>
<path d="M19.6057 11.7482C18.2453 11.7316 16.6422 11.8397 14.7906 12.0693C14.753 12.074 14.7167 12.0858 14.6835 12.1039L11.0983 14.0594C11.0394 14.0916 10.993 14.1425 10.9663 14.2041C10.9397 14.2657 10.9343 14.3344 10.9512 14.3993C10.968 14.4643 11.0061 14.5218 11.0593 14.5627C11.1125 14.6035 11.1778 14.6255 11.2449 14.625L25.508 14.5164C25.5875 14.5158 25.6636 14.4838 25.7196 14.4274C25.7756 14.3709 25.807 14.2947 25.807 14.2152V13.4546C25.807 13.4054 25.7949 13.3569 25.7718 13.3134C25.7487 13.2699 25.7153 13.2328 25.6745 13.2052C24.7756 12.5972 23.4847 12.1784 21.7936 11.9137C21.1509 11.8131 20.422 11.7582 19.6057 11.7482ZM18.7752 12.3568C19.9154 12.331 20.8915 12.3822 21.7004 12.5088C23.2594 12.7528 24.4212 13.1391 25.2046 13.6301V13.9162L12.4407 14.0134L14.9187 12.6617C16.3613 12.4844 17.6497 12.3822 18.7752 12.3568Z"/>
</mask>
<path fill-rule="evenodd" clip-rule="evenodd" d="M4.43735 18.7981C4.43735 18.2294 4.66326 17.6837 5.06506 17.2819C5.46687 16.8801 6.01265 16.6541 6.58133 16.6541C7.1494 16.6541 7.69518 16.8801 8.09699 17.2819C8.4988 17.6837 8.7247 18.2294 8.7247 18.7981C8.7247 19.3662 8.4988 19.912 8.09699 20.3138C7.69518 20.7156 7.1494 20.9415 6.58133 20.9415C6.01265 20.9415 5.46687 20.7156 5.06506 20.3138C4.66326 19.912 4.43735 19.3662 4.43735 18.7981ZM5.03976 18.7981C5.03976 18.3891 5.20241 17.9969 5.49097 17.7078C5.78012 17.4192 6.17229 17.2566 6.58133 17.2566C6.98976 17.2566 7.38193 17.4192 7.67109 17.7078C7.95964 17.9969 8.12229 18.3891 8.12229 18.7981C8.12229 19.2066 7.95964 19.5987 7.67109 19.8879C7.38193 20.1764 6.98976 20.3391 6.58133 20.3391C6.17229 20.3391 5.78012 20.1764 5.49097 19.8879C5.20241 19.5987 5.03976 19.2066 5.03976 18.7981Z" fill="white"/>
<path fill-rule="evenodd" clip-rule="evenodd" d="M23.5886 18.7981C23.5886 18.2294 23.8145 17.6837 24.2163 17.2819C24.6181 16.8801 25.1639 16.6541 25.7319 16.6541C26.3006 16.6541 26.8464 16.8801 27.2482 17.2819C27.65 17.6837 27.8759 18.2294 27.8759 18.7981C27.8759 19.3662 27.65 19.912 27.2482 20.3138C26.8464 20.7156 26.3006 20.9415 25.7319 20.9415C25.1639 20.9415 24.6181 20.7156 24.2163 20.3138C23.8145 19.912 23.5886 19.3662 23.5886 18.7981ZM24.191 18.7981C24.191 18.3891 24.3536 17.9969 24.6422 17.7078C24.9313 17.4192 25.3235 17.2566 25.7319 17.2566C26.141 17.2566 26.5331 17.4192 26.8223 17.7078C27.1108 17.9969 27.2735 18.3891 27.2735 18.7981C27.2735 19.2066 27.1108 19.5987 26.8223 19.8879C26.5331 20.1764 26.141 20.3391 25.7319 20.3391C25.3235 20.3391 24.9313 20.1764 24.6422 19.8879C24.3536 19.5987 24.191 19.2066 24.191 18.7981Z" fill="white"/>
<path d="M10.2211 13.4322C10.2141 13.4322 10.2071 13.4326 10.2002 13.4331C7.60184 13.597 5.62554 13.9224 4.24795 14.2418C3.55916 14.4015 3.02018 14.5595 2.62568 14.6963C2.23118 14.8331 2.00317 14.9264 1.84102 15.0443C1.54233 15.2615 1.33232 15.5862 1.2092 15.9802C1.20531 15.9927 1.20224 16.0055 1.20002 16.0184C1.06633 16.7871 1 17.6083 1 18.4818C1 18.9694 1.15528 19.3957 1.48416 19.6673C1.81305 19.939 2.26751 20.0391 2.81029 20.0214L2.8004 20.0215H3.84333C3.92321 20.0215 3.99982 19.9898 4.0563 19.9333C4.11279 19.8768 4.14452 19.8002 4.14453 19.7203V18.8077C4.14453 17.4598 5.23306 16.3713 6.581 16.3713C7.92893 16.3713 9.01758 17.4598 9.01758 18.8077V19.7203C9.01758 19.8002 9.04932 19.8768 9.10581 19.9333C9.16229 19.9898 9.2389 20.0215 9.31878 20.0215H23.0071C23.047 20.0221 23.0867 20.0147 23.1237 19.9998C23.1607 19.9849 23.1945 19.9628 23.2229 19.9348C23.2513 19.9068 23.2739 19.8734 23.2893 19.8366C23.3047 19.7997 23.3126 19.7602 23.3126 19.7203C23.3126 19.6804 23.3047 19.6409 23.2893 19.604C23.2739 19.5672 23.2513 19.5338 23.2229 19.5058C23.1945 19.4778 23.1607 19.4557 23.1237 19.4408C23.0867 19.4259 23.047 19.4185 23.0071 19.4191H9.61999V18.8077C9.61999 17.1337 8.25499 15.7689 6.581 15.7689C4.907 15.7689 3.54212 17.1338 3.54212 18.8077V19.4191H2.8004C2.79715 19.4191 2.79389 19.4191 2.79064 19.4192C2.33394 19.4341 2.0387 19.3441 1.86785 19.2029C1.69699 19.0618 1.60241 18.8525 1.60241 18.4818C1.60241 17.6479 1.66611 16.8701 1.79043 16.1463C1.88441 15.8541 2.01931 15.6595 2.19541 15.5314C2.21253 15.519 2.45348 15.3936 2.82311 15.2654C3.19274 15.1372 3.71308 14.9842 4.38397 14.8287C5.72574 14.5176 7.67058 14.1962 10.238 14.0342C10.3166 14.0301 10.3904 13.9955 10.4437 13.9377C10.497 13.8799 10.5256 13.8035 10.5234 13.7249C10.5212 13.6463 10.4884 13.5717 10.4319 13.517C10.3754 13.4623 10.2997 13.4319 10.2211 13.4322Z" fill="white"/>
<path d="M18.8816 10.8014C18.452 10.8087 18.0308 10.8254 17.629 10.848C16.8253 10.8933 16.1004 10.9629 15.5437 11.0321C15.2654 11.0666 15.0294 11.101 14.8447 11.1325C14.6601 11.164 14.54 11.1863 14.4351 11.2224C14.2416 11.2892 13.9689 11.4395 13.5708 11.6551C13.1728 11.8706 12.687 12.1413 12.2094 12.4071C11.7318 12.6729 11.2623 12.9338 10.9008 13.1278C10.7201 13.2248 10.566 13.3052 10.4547 13.3597C10.399 13.3869 10.3536 13.4078 10.3251 13.4197C10.2966 13.4316 10.2568 13.429 10.3402 13.423C10.3004 13.4253 10.2614 13.4356 10.2256 13.4531C10.1898 13.4706 10.1578 13.495 10.1315 13.525C10.1052 13.555 10.0851 13.5899 10.0724 13.6277C10.0596 13.6655 10.0546 13.7055 10.0574 13.7452C10.0603 13.785 10.071 13.8238 10.089 13.8594C10.1069 13.895 10.1318 13.9267 10.1621 13.9526C10.1924 13.9786 10.2276 13.9982 10.2655 14.0104C10.3035 14.0227 10.3435 14.0272 10.3832 14.0239C10.4951 14.0159 10.5092 13.9956 10.5568 13.9757C10.6044 13.9559 10.6575 13.9311 10.7195 13.9008C10.8435 13.8401 11.0017 13.7575 11.1858 13.6587C11.554 13.461 12.0246 13.1994 12.5024 12.9335C12.9801 12.6676 13.4649 12.3976 13.8577 12.1849C14.2505 11.9722 14.5888 11.8067 14.6315 11.792C14.6448 11.7874 14.7738 11.7557 14.946 11.7264C15.1182 11.697 15.3468 11.6635 15.618 11.6299C16.1603 11.5625 16.8735 11.4939 17.6627 11.4495C19.2412 11.3607 21.1293 11.3725 22.5541 11.6716C24.4877 12.0776 26.2336 12.7808 27.7989 13.7817C27.8473 13.8127 27.9036 13.8291 27.9611 13.8291H30.0307C30.1124 13.959 30.2078 14.1978 30.2721 14.5513C30.3538 15.0007 30.3976 15.6194 30.3976 16.396C30.3976 17.8297 30.2171 18.7795 29.9921 19.1833L28.7838 19.3692V18.8077C28.7838 17.1337 27.4189 15.7689 25.7449 15.7689C24.0709 15.7689 22.7059 17.1337 22.7059 18.8077V19.7203C22.7054 19.7602 22.7127 19.7998 22.7276 19.8369C22.7425 19.8739 22.7646 19.9076 22.7926 19.936C22.8207 19.9645 22.854 19.987 22.8909 20.0024C22.9277 20.0178 22.9672 20.0258 23.0071 20.0258C23.047 20.0258 23.0866 20.0178 23.1234 20.0024C23.1602 19.987 23.1936 19.9645 23.2216 19.936C23.2497 19.9076 23.2718 19.8739 23.2866 19.8369C23.3015 19.7998 23.3089 19.7602 23.3083 19.7203V18.8077C23.3083 17.4598 24.397 16.3713 25.7449 16.3713C27.0929 16.3713 28.1814 17.4598 28.1814 18.8077V19.7203C28.1814 19.7637 28.1908 19.8066 28.2089 19.8461C28.2271 19.8855 28.2535 19.9206 28.2865 19.9488C28.3194 19.9771 28.3581 19.9979 28.3999 20.0099C28.4416 20.0218 28.4854 20.0245 28.5284 20.018L30.2231 19.7572C30.3014 19.7452 30.3717 19.7028 30.419 19.6393C30.8634 19.0421 31 17.9934 31 16.396C31 15.5973 30.9569 14.9503 30.8648 14.4437C30.7727 13.937 30.645 13.5616 30.3869 13.3116C30.3307 13.2572 30.2556 13.2267 30.1773 13.2267H28.0453C26.4363 12.2113 24.6456 11.4952 22.6779 11.0821C21.5344 10.842 20.1703 10.7795 18.8816 10.8014Z" fill="white"/>
<path d="M19.6057 11.7482C18.2453 11.7316 16.6422 11.8397 14.7906 12.0693C14.753 12.074 14.7167 12.0858 14.6835 12.1039L11.0983 14.0594C11.0394 14.0916 10.993 14.1425 10.9663 14.2041C10.9397 14.2657 10.9343 14.3344 10.9512 14.3993C10.968 14.4643 11.0061 14.5218 11.0593 14.5627C11.1125 14.6035 11.1778 14.6255 11.2449 14.625L25.508 14.5164C25.5875 14.5158 25.6636 14.4838 25.7196 14.4274C25.7756 14.3709 25.807 14.2947 25.807 14.2152V13.4546C25.807 13.4054 25.7949 13.3569 25.7718 13.3134C25.7487 13.2699 25.7153 13.2328 25.6745 13.2052C24.7756 12.5972 23.4847 12.1784 21.7936 11.9137C21.1509 11.8131 20.422 11.7582 19.6057 11.7482ZM18.7752 12.3568C19.9154 12.331 20.8915 12.3822 21.7004 12.5088C23.2594 12.7528 24.4212 13.1391 25.2046 13.6301V13.9162L12.4407 14.0134L14.9187 12.6617C16.3613 12.4844 17.6497 12.3822 18.7752 12.3568Z" fill="white"/>
<path fill-rule="evenodd" clip-rule="evenodd" d="M4.43735 18.7981C4.43735 18.2294 4.66326 17.6837 5.06506 17.2819C5.46687 16.8801 6.01265 16.6541 6.58133 16.6541C7.1494 16.6541 7.69518 16.8801 8.09699 17.2819C8.4988 17.6837 8.7247 18.2294 8.7247 18.7981C8.7247 19.3662 8.4988 19.912 8.09699 20.3138C7.69518 20.7156 7.1494 20.9415 6.58133 20.9415C6.01265 20.9415 5.46687 20.7156 5.06506 20.3138C4.66326 19.912 4.43735 19.3662 4.43735 18.7981ZM5.03976 18.7981C5.03976 18.3891 5.20241 17.9969 5.49097 17.7078C5.78012 17.4192 6.17229 17.2566 6.58133 17.2566C6.98976 17.2566 7.38193 17.4192 7.67109 17.7078C7.95964 17.9969 8.12229 18.3891 8.12229 18.7981C8.12229 19.2066 7.95964 19.5987 7.67109 19.8879C7.38193 20.1764 6.98976 20.3391 6.58133 20.3391C6.17229 20.3391 5.78012 20.1764 5.49097 19.8879C5.20241 19.5987 5.03976 19.2066 5.03976 18.7981Z" stroke="white" stroke-width="0.4" mask="url(#path-1-outside-1)"/>
<path fill-rule="evenodd" clip-rule="evenodd" d="M23.5886 18.7981C23.5886 18.2294 23.8145 17.6837 24.2163 17.2819C24.6181 16.8801 25.1639 16.6541 25.7319 16.6541C26.3006 16.6541 26.8464 16.8801 27.2482 17.2819C27.65 17.6837 27.8759 18.2294 27.8759 18.7981C27.8759 19.3662 27.65 19.912 27.2482 20.3138C26.8464 20.7156 26.3006 20.9415 25.7319 20.9415C25.1639 20.9415 24.6181 20.7156 24.2163 20.3138C23.8145 19.912 23.5886 19.3662 23.5886 18.7981ZM24.191 18.7981C24.191 18.3891 24.3536 17.9969 24.6422 17.7078C24.9313 17.4192 25.3235 17.2566 25.7319 17.2566C26.141 17.2566 26.5331 17.4192 26.8223 17.7078C27.1108 17.9969 27.2735 18.3891 27.2735 18.7981C27.2735 19.2066 27.1108 19.5987 26.8223 19.8879C26.5331 20.1764 26.141 20.3391 25.7319 20.3391C25.3235 20.3391 24.9313 20.1764 24.6422 19.8879C24.3536 19.5987 24.191 19.2066 24.191 18.7981Z" stroke="white" stroke-width="0.4" mask="url(#path-1-outside-1)"/>
<path d="M10.2211 13.4322C10.2141 13.4322 10.2071 13.4326 10.2002 13.4331C7.60184 13.597 5.62554 13.9224 4.24795 14.2418C3.55916 14.4015 3.02018 14.5595 2.62568 14.6963C2.23118 14.8331 2.00317 14.9264 1.84102 15.0443C1.54233 15.2615 1.33232 15.5862 1.2092 15.9802C1.20531 15.9927 1.20224 16.0055 1.20002 16.0184C1.06633 16.7871 1 17.6083 1 18.4818C1 18.9694 1.15528 19.3957 1.48416 19.6673C1.81305 19.939 2.26751 20.0391 2.81029 20.0214L2.8004 20.0215H3.84333C3.92321 20.0215 3.99982 19.9898 4.0563 19.9333C4.11279 19.8768 4.14452 19.8002 4.14453 19.7203V18.8077C4.14453 17.4598 5.23306 16.3713 6.581 16.3713C7.92893 16.3713 9.01758 17.4598 9.01758 18.8077V19.7203C9.01758 19.8002 9.04932 19.8768 9.10581 19.9333C9.16229 19.9898 9.2389 20.0215 9.31878 20.0215H23.0071C23.047 20.0221 23.0867 20.0147 23.1237 19.9998C23.1607 19.9849 23.1945 19.9628 23.2229 19.9348C23.2513 19.9068 23.2739 19.8734 23.2893 19.8366C23.3047 19.7997 23.3126 19.7602 23.3126 19.7203C23.3126 19.6804 23.3047 19.6409 23.2893 19.604C23.2739 19.5672 23.2513 19.5338 23.2229 19.5058C23.1945 19.4778 23.1607 19.4557 23.1237 19.4408C23.0867 19.4259 23.047 19.4185 23.0071 19.4191H9.61999V18.8077C9.61999 17.1337 8.25499 15.7689 6.581 15.7689C4.907 15.7689 3.54212 17.1338 3.54212 18.8077V19.4191H2.8004C2.79715 19.4191 2.79389 19.4191 2.79064 19.4192C2.33394 19.4341 2.0387 19.3441 1.86785 19.2029C1.69699 19.0618 1.60241 18.8525 1.60241 18.4818C1.60241 17.6479 1.66611 16.8701 1.79043 16.1463C1.88441 15.8541 2.01931 15.6595 2.19541 15.5314C2.21253 15.519 2.45348 15.3936 2.82311 15.2654C3.19274 15.1372 3.71308 14.9842 4.38397 14.8287C5.72574 14.5176 7.67058 14.1962 10.238 14.0342C10.3166 14.0301 10.3904 13.9955 10.4437 13.9377C10.497 13.8799 10.5256 13.8035 10.5234 13.7249C10.5212 13.6463 10.4884 13.5717 10.4319 13.517C10.3754 13.4623 10.2997 13.4319 10.2211 13.4322Z" stroke="white" stroke-width="0.4" mask="url(#path-1-outside-1)"/>
<path d="M18.8816 10.8014C18.452 10.8087 18.0308 10.8254 17.629 10.848C16.8253 10.8933 16.1004 10.9629 15.5437 11.0321C15.2654 11.0666 15.0294 11.101 14.8447 11.1325C14.6601 11.164 14.54 11.1863 14.4351 11.2224C14.2416 11.2892 13.9689 11.4395 13.5708 11.6551C13.1728 11.8706 12.687 12.1413 12.2094 12.4071C11.7318 12.6729 11.2623 12.9338 10.9008 13.1278C10.7201 13.2248 10.566 13.3052 10.4547 13.3597C10.399 13.3869 10.3536 13.4078 10.3251 13.4197C10.2966 13.4316 10.2568 13.429 10.3402 13.423C10.3004 13.4253 10.2614 13.4356 10.2256 13.4531C10.1898 13.4706 10.1578 13.495 10.1315 13.525C10.1052 13.555 10.0851 13.5899 10.0724 13.6277C10.0596 13.6655 10.0546 13.7055 10.0574 13.7452C10.0603 13.785 10.071 13.8238 10.089 13.8594C10.1069 13.895 10.1318 13.9267 10.1621 13.9526C10.1924 13.9786 10.2276 13.9982 10.2655 14.0104C10.3035 14.0227 10.3435 14.0272 10.3832 14.0239C10.4951 14.0159 10.5092 13.9956 10.5568 13.9757C10.6044 13.9559 10.6575 13.9311 10.7195 13.9008C10.8435 13.8401 11.0017 13.7575 11.1858 13.6587C11.554 13.461 12.0246 13.1994 12.5024 12.9335C12.9801 12.6676 13.4649 12.3976 13.8577 12.1849C14.2505 11.9722 14.5888 11.8067 14.6315 11.792C14.6448 11.7874 14.7738 11.7557 14.946 11.7264C15.1182 11.697 15.3468 11.6635 15.618 11.6299C16.1603 11.5625 16.8735 11.4939 17.6627 11.4495C19.2412 11.3607 21.1293 11.3725 22.5541 11.6716C24.4877 12.0776 26.2336 12.7808 27.7989 13.7817C27.8473 13.8127 27.9036 13.8291 27.9611 13.8291H30.0307C30.1124 13.959 30.2078 14.1978 30.2721 14.5513C30.3538 15.0007 30.3976 15.6194 30.3976 16.396C30.3976 17.8297 30.2171 18.7795 29.9921 19.1833L28.7838 19.3692V18.8077C28.7838 17.1337 27.4189 15.7689 25.7449 15.7689C24.0709 15.7689 22.7059 17.1337 22.7059 18.8077V19.7203C22.7054 19.7602 22.7127 19.7998 22.7276 19.8369C22.7425 19.8739 22.7646 19.9076 22.7926 19.936C22.8207 19.9645 22.854 19.987 22.8909 20.0024C22.9277 20.0178 22.9672 20.0258 23.0071 20.0258C23.047 20.0258 23.0866 20.0178 23.1234 20.0024C23.1602 19.987 23.1936 19.9645 23.2216 19.936C23.2497 19.9076 23.2718 19.8739 23.2866 19.8369C23.3015 19.7998 23.3089 19.7602 23.3083 19.7203V18.8077C23.3083 17.4598 24.397 16.3713 25.7449 16.3713C27.0929 16.3713 28.1814 17.4598 28.1814 18.8077V19.7203C28.1814 19.7637 28.1908 19.8066 28.2089 19.8461C28.2271 19.8855 28.2535 19.9206 28.2865 19.9488C28.3194 19.9771 28.3581 19.9979 28.3999 20.0099C28.4416 20.0218 28.4854 20.0245 28.5284 20.018L30.2231 19.7572C30.3014 19.7452 30.3717 19.7028 30.419 19.6393C30.8634 19.0421 31 17.9934 31 16.396C31 15.5973 30.9569 14.9503 30.8648 14.4437C30.7727 13.937 30.645 13.5616 30.3869 13.3116C30.3307 13.2572 30.2556 13.2267 30.1773 13.2267H28.0453C26.4363 12.2113 24.6456 11.4952 22.6779 11.0821C21.5344 10.842 20.1703 10.7795 18.8816 10.8014Z" stroke="white" stroke-width="0.4" mask="url(#path-1-outside-1)"/>
<path d="M19.6057 11.7482C18.2453 11.7316 16.6422 11.8397 14.7906 12.0693C14.753 12.074 14.7167 12.0858 14.6835 12.1039L11.0983 14.0594C11.0394 14.0916 10.993 14.1425 10.9663 14.2041C10.9397 14.2657 10.9343 14.3344 10.9512 14.3993C10.968 14.4643 11.0061 14.5218 11.0593 14.5627C11.1125 14.6035 11.1778 14.6255 11.2449 14.625L25.508 14.5164C25.5875 14.5158 25.6636 14.4838 25.7196 14.4274C25.7756 14.3709 25.807 14.2947 25.807 14.2152V13.4546C25.807 13.4054 25.7949 13.3569 25.7718 13.3134C25.7487 13.2699 25.7153 13.2328 25.6745 13.2052C24.7756 12.5972 23.4847 12.1784 21.7936 11.9137C21.1509 11.8131 20.422 11.7582 19.6057 11.7482ZM18.7752 12.3568C19.9154 12.331 20.8915 12.3822 21.7004 12.5088C23.2594 12.7528 24.4212 13.1391 25.2046 13.6301V13.9162L12.4407 14.0134L14.9187 12.6617C16.3613 12.4844 17.6497 12.3822 18.7752 12.3568Z" stroke="white" stroke-width="0.4" mask="url(#path-1-outside-1)"/>
</g>
<path d="M1.99991 16C2.39991 14.4 8.16658 14 10.9999 14V19H9.49994C9.49994 18.5 8.99994 16 6.49994 16C4.49994 16 3.66661 18 3.49994 19L2.99994 19.5L1.99991 19C1.83325 18.6667 1.59991 17.6 1.99991 16Z" fill="white" stroke="white" stroke-linecap="round" stroke-linejoin="round"/>
</svg>
