<svg width="32" height="32" viewBox="0 0 32 32" fill="none" xmlns="http://www.w3.org/2000/svg">
<path d="M5.39807 5.44409C5.33281 5.52181 5.29143 5.62418 5.29143 5.73371V21.9886H7.98128L13.3637 11.294C13.3637 11.294 13.3637 11.294 13.3637 11.294C13.6177 10.7891 14.3246 10.7651 14.6168 11.2359L14.6167 11.2358L14.4894 11.3151L14.6169 11.2361L5.39807 5.44409ZM5.39807 5.44409L5.42022 5.42247C5.50248 5.34216 5.61235 5.294 5.73114 5.294H26.2666C26.5102 5.294 26.7063 5.48817 26.7063 5.73371V21.9886H24.903L22.3265 16.0436L5.39807 5.44409ZM4.40193 4.40222L4.358 4.44615V4.45051C4.04459 4.78572 3.85 5.23932 3.85 5.73371V26.2691C3.85 27.3057 4.6943 28.15 5.73086 28.15H26.2663C27.2966 28.15 28.15 27.309 28.15 26.2691V5.73371C28.15 4.69973 27.3003 3.85 26.2663 3.85H5.73086C5.21374 3.85 4.74126 4.0629 4.40193 4.40222ZM19.1127 18.4499L19.0159 18.5782L19.1009 18.7146L19.1977 18.5863L19.1127 18.4499ZM5.29143 22.1386H5.14143V21.9886L5.29143 22.1386ZM21.477 17.7034L23.3341 21.9886H9.59118L14.0736 13.086L18.4432 20.1039L18.4438 20.1048C18.6563 20.4404 19.0984 20.5431 19.4373 20.3343L19.4606 20.3199L19.4774 20.2981L21.477 17.7034ZM23.9837 12.4895L24.0277 12.4455V12.4419C24.0477 12.4209 24.0741 12.3925 24.1049 12.3573C24.1777 12.2739 24.2744 12.1523 24.3711 11.9941C24.5646 11.6775 24.7586 11.2132 24.7586 10.617C24.7586 9.15635 23.5745 7.97244 22.1114 7.97244C20.6535 7.97244 19.4669 9.15635 19.4669 10.617C19.4669 12.9589 22.3152 14.1549 23.9837 12.4895ZM22.9644 9.76639C23.4167 10.2213 23.4323 10.9479 23.0126 11.4191L22.9645 11.4672C22.4933 11.9385 21.7295 11.936 21.2607 11.4699C20.9757 11.1848 20.8767 10.8708 20.8958 10.5786C20.9153 10.2825 21.0572 9.99713 21.2743 9.77971C21.4914 9.56229 21.7763 9.42012 22.0723 9.40061C22.3643 9.38136 22.6785 9.48053 22.9644 9.76639ZM5.29143 26.2691V23.4326H26.706V26.2689C26.706 26.5058 26.5105 26.7086 26.2663 26.7086H5.73086C5.49056 26.7086 5.29143 26.5094 5.29143 26.2691Z" fill="white" stroke="white" stroke-width="0.3"/>
</svg>
