<svg width="32" height="32" viewBox="0 0 32 32" fill="none" xmlns="http://www.w3.org/2000/svg">
<path d="M14.866 18.0711C15.5508 18.0711 16.106 17.5159 16.106 16.8311C16.106 16.1462 15.5508 15.591 14.866 15.591C14.1811 15.591 13.6259 16.1462 13.6259 16.8311C13.6259 17.5159 14.1811 18.0711 14.866 18.0711Z" stroke="white" stroke-width="0.4"/>
<path d="M8.77784 18.0711C9.46269 18.0711 10.0179 17.5159 10.0179 16.8311C10.0179 16.1462 9.46269 15.591 8.77784 15.591C8.09298 15.591 7.53779 16.1462 7.53779 16.8311C7.53779 17.5159 8.09298 18.0711 8.77784 18.0711Z" stroke="white" stroke-width="0.4"/>
<path d="M13.3071 5.17891H13.1071V5.37891V7.59651V7.79651H13.3071H17.1176H17.3176V7.59651V5.37891V5.17891H17.1176H13.3071Z" stroke="white" stroke-width="0.4"/>
<path d="M20.9542 18.0711C21.6393 18.0711 22.1949 17.516 22.1949 16.8311C22.1949 16.1461 21.6393 15.591 20.9542 15.591C20.2692 15.591 19.7136 16.1461 19.7136 16.8311C19.7136 17.516 20.2692 18.0711 20.9542 18.0711Z" stroke="white" stroke-width="0.4"/>
<path d="M2.54834 14.7258H2.34834V14.9258V18.7366V18.9366H2.54834H4.76656H4.96656V18.7366V14.9258V14.7258H4.76656H2.54834Z" stroke="white" stroke-width="0.4"/>
<path d="M24.6184 11.1894V10.9894H24.4184H22.2011C22.1598 10.9894 22.1267 10.956 22.1267 10.9153V8.14453V7.94453H21.9267H17.3917H13.033H8.91325H8.71325V8.14453V10.915C8.71325 10.956 8.68022 10.9891 8.63916 10.9891H5.31494H5.11494V11.1891V14.6511V19.0107V22.8184V23.0184H5.31494H10.9918C11.0203 23.0184 11.0464 23.0349 11.0586 23.06L13.2659 27.6109L13.3206 27.7236H13.4458H21.9267H22.1267V27.5236V23.506V23.306H21.9267H16.1805C16.139 23.306 16.1061 23.2728 16.1061 23.2319C16.1061 23.191 16.139 23.1578 16.1805 23.1578H22.2011H24.4184H24.6184V22.9578V21.5018V12.5757V11.1894ZM22.3424 16.8308V16.8308C22.3427 17.5964 21.7198 18.2193 20.9542 18.2193C20.1881 18.2193 19.5647 17.596 19.5647 16.8308C19.5647 16.0659 20.1881 15.4425 20.9542 15.4425C21.7198 15.4425 22.3424 16.0654 22.3424 16.8308ZM8.77792 18.2193C8.01231 18.2193 7.38939 17.5961 7.38939 16.8308C7.38939 16.0657 8.01229 15.4425 8.77792 15.4425C9.54329 15.4425 10.1665 16.0655 10.1665 16.8308C10.1665 17.5964 9.54327 18.2193 8.77792 18.2193ZM14.8661 18.2193C14.1007 18.2193 13.4775 17.5961 13.4775 16.8308C13.4775 16.0658 14.1007 15.4425 14.8661 15.4425C15.6317 15.4425 16.2546 16.0655 16.2546 16.8308C16.2546 17.5964 15.6317 18.2193 14.8661 18.2193Z" stroke="white" stroke-width="0.4"/>
<path d="M24.9668 12.65H24.7668V12.85V21.2276V21.4276H24.9668H27.1828C27.2239 21.4276 27.2569 21.4603 27.2569 21.502V22.6288V22.8288H27.4569H28.7418H28.8915L28.9337 22.6853L29.6433 20.2732L29.6515 20.2456V20.2168V13.8608V13.832L29.6433 13.8043L28.9337 11.3923L28.8915 11.2487H28.7418H27.4569V11.4487H27.2569V12.5759C27.2569 12.6169 27.2239 12.65 27.1828 12.65H24.9668Z" stroke="white" stroke-width="0.4"/>
<mask id="path-8-outside-1" maskUnits="userSpaceOnUse" x="1" y="3.83008" width="30" height="25" fill="black">
<rect fill="white" x="1" y="3.83008" width="30" height="25"/>
<path d="M29.9885 13.7437L29.2098 11.0971C29.1752 10.9804 29.0682 10.9002 28.9469 10.9002H27.1826C27.0311 10.9002 26.9085 11.0227 26.9085 11.1743V12.3014H24.9665V10.9151C24.9665 10.7636 24.844 10.6407 24.6924 10.6407H22.4755V7.87026C22.4755 7.71874 22.3529 7.59586 22.2014 7.59586H17.666V5.37826H21.0767C21.2282 5.37826 21.3508 5.25568 21.3508 5.10417C21.3508 4.95266 21.2282 4.83008 21.0767 4.83008H17.3916H13.0329H9.34782C9.19631 4.83008 9.07373 4.95266 9.07373 5.10417C9.07373 5.25568 9.19631 5.37826 9.34782 5.37826H12.7588V7.59586H8.63911C8.4876 7.59586 8.36471 7.71843 8.36471 7.87026V10.6407H5.0408C4.88929 10.6407 4.76671 10.7633 4.76671 10.9151V14.3771H2.54849V10.9671C2.54849 10.8155 2.42591 10.6927 2.27409 10.6927C2.12258 10.6927 2 10.8152 2 10.9671V14.6515V19.0111V22.6956C2 22.8471 2.12258 22.9697 2.27409 22.9697C2.4256 22.9697 2.54849 22.8471 2.54849 22.6956V19.2852H4.76671V23.0929C4.76671 23.2444 4.88929 23.3673 5.0408 23.3673H10.8203L13.0276 27.9179C13.0734 28.0125 13.1692 28.0726 13.2744 28.0726H22.2011C22.3526 28.0726 22.4752 27.95 22.4752 27.7985V23.5061H24.6921C24.844 23.5061 24.9662 23.3835 24.9662 23.232V21.776H26.9082V22.9028C26.9082 23.0543 27.0308 23.1772 27.1823 23.1772H28.9466C29.0679 23.1772 29.1749 23.0973 29.2095 22.9803L29.9882 20.334C29.9963 20.3085 30 20.2827 30 20.2565V13.8212C30 13.7947 29.9963 13.7689 29.9885 13.7437ZM13.307 5.37857H17.1175V7.59617H13.307V5.37857ZM2.54849 18.7367V14.9256H4.76671V18.7364H2.54849V18.7367ZM24.4184 22.9576H22.2011H16.1804C16.0286 22.9576 15.906 23.0802 15.906 23.2317C15.906 23.3832 16.0286 23.5058 16.1804 23.5058H21.9267V27.5238H13.4461L11.2388 22.9728C11.193 22.8783 11.0969 22.8185 10.992 22.8185H5.31489V19.0108V14.6515V11.1895H8.63911C8.79062 11.1895 8.9132 11.0669 8.9132 10.9154V8.14466H13.0329H17.3916H21.9267V10.9151C21.9267 11.0666 22.0496 11.1892 22.2011 11.1892H24.4184V12.5755V21.5016V22.9576ZM29.4515 20.2167L28.7419 22.6287H27.457V21.5019C27.457 21.3504 27.3344 21.2275 27.1829 21.2275H24.9668V12.8499H27.1829C27.3347 12.8499 27.457 12.7273 27.457 12.5758V11.4487H28.7419L29.4515 13.8607V20.2167Z"/>
</mask>
<path d="M29.9885 13.7437L29.2098 11.0971C29.1752 10.9804 29.0682 10.9002 28.9469 10.9002H27.1826C27.0311 10.9002 26.9085 11.0227 26.9085 11.1743V12.3014H24.9665V10.9151C24.9665 10.7636 24.844 10.6407 24.6924 10.6407H22.4755V7.87026C22.4755 7.71874 22.3529 7.59586 22.2014 7.59586H17.666V5.37826H21.0767C21.2282 5.37826 21.3508 5.25568 21.3508 5.10417C21.3508 4.95266 21.2282 4.83008 21.0767 4.83008H17.3916H13.0329H9.34782C9.19631 4.83008 9.07373 4.95266 9.07373 5.10417C9.07373 5.25568 9.19631 5.37826 9.34782 5.37826H12.7588V7.59586H8.63911C8.4876 7.59586 8.36471 7.71843 8.36471 7.87026V10.6407H5.0408C4.88929 10.6407 4.76671 10.7633 4.76671 10.9151V14.3771H2.54849V10.9671C2.54849 10.8155 2.42591 10.6927 2.27409 10.6927C2.12258 10.6927 2 10.8152 2 10.9671V14.6515V19.0111V22.6956C2 22.8471 2.12258 22.9697 2.27409 22.9697C2.4256 22.9697 2.54849 22.8471 2.54849 22.6956V19.2852H4.76671V23.0929C4.76671 23.2444 4.88929 23.3673 5.0408 23.3673H10.8203L13.0276 27.9179C13.0734 28.0125 13.1692 28.0726 13.2744 28.0726H22.2011C22.3526 28.0726 22.4752 27.95 22.4752 27.7985V23.5061H24.6921C24.844 23.5061 24.9662 23.3835 24.9662 23.232V21.776H26.9082V22.9028C26.9082 23.0543 27.0308 23.1772 27.1823 23.1772H28.9466C29.0679 23.1772 29.1749 23.0973 29.2095 22.9803L29.9882 20.334C29.9963 20.3085 30 20.2827 30 20.2565V13.8212C30 13.7947 29.9963 13.7689 29.9885 13.7437ZM13.307 5.37857H17.1175V7.59617H13.307V5.37857ZM2.54849 18.7367V14.9256H4.76671V18.7364H2.54849V18.7367ZM24.4184 22.9576H22.2011H16.1804C16.0286 22.9576 15.906 23.0802 15.906 23.2317C15.906 23.3832 16.0286 23.5058 16.1804 23.5058H21.9267V27.5238H13.4461L11.2388 22.9728C11.193 22.8783 11.0969 22.8185 10.992 22.8185H5.31489V19.0108V14.6515V11.1895H8.63911C8.79062 11.1895 8.9132 11.0669 8.9132 10.9154V8.14466H13.0329H17.3916H21.9267V10.9151C21.9267 11.0666 22.0496 11.1892 22.2011 11.1892H24.4184V12.5755V21.5016V22.9576ZM29.4515 20.2167L28.7419 22.6287H27.457V21.5019C27.457 21.3504 27.3344 21.2275 27.1829 21.2275H24.9668V12.8499H27.1829C27.3347 12.8499 27.457 12.7273 27.457 12.5758V11.4487H28.7419L29.4515 13.8607V20.2167Z" fill="white"/>
<path d="M29.9885 13.7437L29.2098 11.0971C29.1752 10.9804 29.0682 10.9002 28.9469 10.9002H27.1826C27.0311 10.9002 26.9085 11.0227 26.9085 11.1743V12.3014H24.9665V10.9151C24.9665 10.7636 24.844 10.6407 24.6924 10.6407H22.4755V7.87026C22.4755 7.71874 22.3529 7.59586 22.2014 7.59586H17.666V5.37826H21.0767C21.2282 5.37826 21.3508 5.25568 21.3508 5.10417C21.3508 4.95266 21.2282 4.83008 21.0767 4.83008H17.3916H13.0329H9.34782C9.19631 4.83008 9.07373 4.95266 9.07373 5.10417C9.07373 5.25568 9.19631 5.37826 9.34782 5.37826H12.7588V7.59586H8.63911C8.4876 7.59586 8.36471 7.71843 8.36471 7.87026V10.6407H5.0408C4.88929 10.6407 4.76671 10.7633 4.76671 10.9151V14.3771H2.54849V10.9671C2.54849 10.8155 2.42591 10.6927 2.27409 10.6927C2.12258 10.6927 2 10.8152 2 10.9671V14.6515V19.0111V22.6956C2 22.8471 2.12258 22.9697 2.27409 22.9697C2.4256 22.9697 2.54849 22.8471 2.54849 22.6956V19.2852H4.76671V23.0929C4.76671 23.2444 4.88929 23.3673 5.0408 23.3673H10.8203L13.0276 27.9179C13.0734 28.0125 13.1692 28.0726 13.2744 28.0726H22.2011C22.3526 28.0726 22.4752 27.95 22.4752 27.7985V23.5061H24.6921C24.844 23.5061 24.9662 23.3835 24.9662 23.232V21.776H26.9082V22.9028C26.9082 23.0543 27.0308 23.1772 27.1823 23.1772H28.9466C29.0679 23.1772 29.1749 23.0973 29.2095 22.9803L29.9882 20.334C29.9963 20.3085 30 20.2827 30 20.2565V13.8212C30 13.7947 29.9963 13.7689 29.9885 13.7437ZM13.307 5.37857H17.1175V7.59617H13.307V5.37857ZM2.54849 18.7367V14.9256H4.76671V18.7364H2.54849V18.7367ZM24.4184 22.9576H22.2011H16.1804C16.0286 22.9576 15.906 23.0802 15.906 23.2317C15.906 23.3832 16.0286 23.5058 16.1804 23.5058H21.9267V27.5238H13.4461L11.2388 22.9728C11.193 22.8783 11.0969 22.8185 10.992 22.8185H5.31489V19.0108V14.6515V11.1895H8.63911C8.79062 11.1895 8.9132 11.0669 8.9132 10.9154V8.14466H13.0329H17.3916H21.9267V10.9151C21.9267 11.0666 22.0496 11.1892 22.2011 11.1892H24.4184V12.5755V21.5016V22.9576ZM29.4515 20.2167L28.7419 22.6287H27.457V21.5019C27.457 21.3504 27.3344 21.2275 27.1829 21.2275H24.9668V12.8499H27.1829C27.3347 12.8499 27.457 12.7273 27.457 12.5758V11.4487H28.7419L29.4515 13.8607V20.2167Z" stroke="white" stroke-width="0.8" mask="url(#path-8-outside-1)"/>
<path d="M8.77799 15.0427C7.79147 15.0427 6.98945 15.8446 6.98945 16.8309C6.98945 17.8171 7.79141 18.6194 8.77799 18.6194C9.76422 18.6194 10.5665 17.8171 10.5665 16.8309C10.5665 15.8449 9.7642 15.0427 8.77799 15.0427ZM8.77799 17.6709C8.31475 17.6709 7.93794 17.2941 7.93794 16.8309C7.93794 16.368 8.31472 15.9912 8.77799 15.9912C9.24095 15.9912 9.61803 16.3683 9.61803 16.8309C9.61803 17.2941 9.24122 17.6709 8.77799 17.6709Z" fill="white" stroke="white" stroke-width="0.4"/>
<path d="M14.8659 15.0427C13.8797 15.0427 13.0773 15.8446 13.0773 16.8309C13.0773 17.8171 13.8796 18.6194 14.8659 18.6194C15.8524 18.6194 16.6544 17.8171 16.6544 16.8309C16.6544 15.845 15.8524 15.0427 14.8659 15.0427ZM14.8659 17.6709C14.4029 17.6709 14.0258 17.2941 14.0258 16.8309C14.0258 16.3681 14.4029 15.9912 14.8659 15.9912C15.3291 15.9912 15.7059 16.3683 15.7059 16.8309C15.7059 17.2941 15.3291 17.6709 14.8659 17.6709Z" fill="white" stroke="white" stroke-width="0.4"/>
<path d="M19.1647 16.8309C19.1647 15.8445 19.9675 15.0427 20.9542 15.0427C21.9407 15.0427 22.7427 15.8449 22.7424 16.8309H19.1647ZM19.1647 16.8309C19.1647 17.8172 19.9675 18.6194 20.9542 18.6194M19.1647 16.8309L20.9542 18.6194M20.9542 18.6194C21.9408 18.6194 22.7424 17.8171 22.7424 16.831L20.9542 18.6194ZM21.7943 16.8309V16.831C21.7945 17.2941 21.4175 17.6709 20.9542 17.6709C20.4905 17.6709 20.1132 17.2939 20.1132 16.8309C20.1132 16.3682 20.4907 15.9912 20.9542 15.9912C21.4172 15.9912 21.7943 16.3683 21.7943 16.8309Z" fill="white" stroke="white" stroke-width="0.4"/>
</svg>
