<svg width="32" height="32" viewBox="0 0 32 32" fill="none" xmlns="http://www.w3.org/2000/svg">
<path d="M6.11887 4C4.94893 4 4 4.94942 4 6.11888L4 25.8811C4 27.0511 4.94941 28 6.11888 28L25.8811 28C27.0511 28 28 27.0506 28 25.8811L28 6.11888C28 4.94893 27.0506 4 25.8811 4L6.11887 4ZM16.7059 16C16.7059 16.3898 16.3898 16.7059 16 16.7059C15.6102 16.7059 15.2941 16.3898 15.2941 16C15.2941 15.6102 15.6102 15.2941 16 15.2941C16.3898 15.2941 16.7059 15.6102 16.7059 16ZM15.2941 13.1765C15.2941 13.7612 14.8201 14.2353 14.2353 14.2353C13.6505 14.2353 13.1765 13.7612 13.1765 13.1765C13.1765 12.5917 13.6505 12.1176 14.2353 12.1176C14.8201 12.1176 15.2941 12.5917 15.2941 13.1765ZM13.8824 16C13.8824 16.3898 13.5663 16.7059 13.1765 16.7059C12.7866 16.7059 12.4706 16.3898 12.4706 16C12.4706 15.6102 12.7866 15.2941 13.1765 15.2941C13.5663 15.2941 13.8824 15.6102 13.8824 16ZM11.0588 16C11.0588 16.3898 10.7428 16.7059 10.3529 16.7059C9.96309 16.7059 9.64706 16.3898 9.64706 16C9.64706 15.6102 9.96309 15.2941 10.3529 15.2941C10.7428 15.2941 11.0588 15.6102 11.0588 16ZM25.1765 16C25.1765 16.3898 24.8604 16.7059 24.4706 16.7059C24.0807 16.7059 23.7647 16.3898 23.7647 16C23.7647 15.6102 24.0807 15.2941 24.4706 15.2941C24.8604 15.2941 25.1765 15.6102 25.1765 16ZM22.3529 16C22.3529 16.3898 22.0369 16.7059 21.6471 16.7059C21.2572 16.7059 20.9412 16.3898 20.9412 16C20.9412 15.6102 21.2572 15.2941 21.6471 15.2941C22.0369 15.2941 22.3529 15.6102 22.3529 16ZM19.5294 16C19.5294 16.3898 19.2134 16.7059 18.8235 16.7059C18.4337 16.7059 18.1176 16.3898 18.1176 16C18.1176 15.6102 18.4337 15.2941 18.8235 15.2941C19.2134 15.2941 19.5294 15.6102 19.5294 16ZM8.23529 16C8.23529 16.3898 7.91926 16.7059 7.52941 16.7059C7.13956 16.7059 6.82353 16.3898 6.82353 16C6.82353 15.6102 7.13956 15.2941 7.52941 15.2941C7.91926 15.2941 8.23529 15.6102 8.23529 16ZM11.7647 13.1765C11.7647 13.7612 11.2907 14.2353 10.7059 14.2353C10.1211 14.2353 9.64706 13.7612 9.64706 13.1765C9.64706 12.5917 10.1211 12.1176 10.7059 12.1176C11.2907 12.1176 11.7647 12.5917 11.7647 13.1765ZM8.23529 13.1765C8.23529 13.7612 7.76124 14.2353 7.17647 14.2353C6.5917 14.2353 6.11765 13.7612 6.11765 13.1765C6.11765 12.5917 6.5917 12.1176 7.17647 12.1176C7.76124 12.1176 8.23529 12.5917 8.23529 13.1765ZM25.8824 13.1765C25.8824 13.7612 25.4083 14.2353 24.8235 14.2353C24.2388 14.2353 23.7647 13.7612 23.7647 13.1765C23.7647 12.5917 24.2388 12.1176 24.8235 12.1176C25.4083 12.1176 25.8824 12.5917 25.8824 13.1765ZM22.3529 13.1765C22.3529 13.7612 21.8789 14.2353 21.2941 14.2353C20.7093 14.2353 20.2353 13.7612 20.2353 13.1765C20.2353 12.5917 20.7093 12.1176 21.2941 12.1176C21.8789 12.1176 22.3529 12.5917 22.3529 13.1765ZM18.8235 13.1765C18.8235 13.7612 18.3495 14.2353 17.7647 14.2353C17.1799 14.2353 16.7059 13.7612 16.7059 13.1765C16.7059 12.5917 17.1799 12.1176 17.7647 12.1176C18.3495 12.1176 18.8235 12.5917 18.8235 13.1765ZM15.6471 9.64706C15.6471 10.4268 15.015 11.0588 14.2353 11.0588C13.4556 11.0588 12.8235 10.4268 12.8235 9.64706C12.8235 8.86736 13.4556 8.23529 14.2353 8.23529C15.015 8.23529 15.6471 8.86736 15.6471 9.64706ZM12.1176 9.64706C12.1176 10.4268 11.4856 11.0588 10.7059 11.0588C9.92619 11.0588 9.29412 10.4268 9.29412 9.64706C9.29412 8.86736 9.92619 8.23529 10.7059 8.23529C11.4856 8.23529 12.1176 8.86736 12.1176 9.64706ZM8.58824 9.64706C8.58824 10.4268 7.95617 11.0588 7.17647 11.0588C6.39677 11.0588 5.76471 10.4268 5.76471 9.64706C5.76471 8.86736 6.39677 8.23529 7.17647 8.23529C7.95617 8.23529 8.58824 8.86736 8.58824 9.64706ZM26.2353 9.64706C26.2353 10.4268 25.6032 11.0588 24.8235 11.0588C24.0438 11.0588 23.4118 10.4268 23.4118 9.64706C23.4118 8.86736 24.0438 8.23529 24.8235 8.23529C25.6032 8.23529 26.2353 8.86736 26.2353 9.64706ZM22.7059 9.64706C22.7059 10.4268 22.0738 11.0588 21.2941 11.0588C20.5144 11.0588 19.8824 10.4268 19.8824 9.64706C19.8824 8.86736 20.5144 8.23529 21.2941 8.23529C22.0738 8.23529 22.7059 8.86736 22.7059 9.64706ZM19.1765 9.64706C19.1765 10.4268 18.5444 11.0588 17.7647 11.0588C16.985 11.0588 16.3529 10.4268 16.3529 9.64706C16.3529 8.86736 16.985 8.23529 17.7647 8.23529C18.5444 8.23529 19.1765 8.86736 19.1765 9.64706ZM26.9412 7.15462C26.8256 7.16904 26.7078 7.17647 26.5882 7.17647C25.7449 7.17647 24.988 6.80676 24.4706 6.22058C23.9532 6.80676 23.1963 7.17647 22.3529 7.17647C21.5096 7.17647 20.7527 6.80676 20.2353 6.22058C19.7179 6.80676 18.961 7.17647 18.1176 7.17647C17.2743 7.17647 16.5174 6.80676 16 6.22058C15.4826 6.80676 14.7257 7.17647 13.8824 7.17647C13.039 7.17647 12.2821 6.80676 11.7647 6.22058C11.2473 6.80676 10.4904 7.17647 9.64706 7.17647C8.80375 7.17647 8.04678 6.80676 7.52941 6.22058C7.01204 6.80676 6.25508 7.17647 5.41176 7.17647C5.29224 7.17647 5.17445 7.16904 5.05882 7.15462L5.05882 6.11888C5.05882 5.53398 5.53391 5.05882 6.11888 5.05882L25.8811 5.05882C26.466 5.05882 26.9412 5.53391 26.9412 6.11888L26.9412 7.15462Z" fill="white"/>
</svg>
