<svg width="32" height="32" viewBox="0 0 32 32" fill="none" xmlns="http://www.w3.org/2000/svg">
<g clip-path="url(#clip0)">
<circle cx="16" cy="16" r="15.3" stroke="white" stroke-width="1.4"/>
<mask id="path-2-outside-1" maskUnits="userSpaceOnUse" x="-1.99917" y="-1.69525" width="35.3553" height="35.3553" fill="black">
<rect fill="white" x="-1.99917" y="-1.69525" width="35.3553" height="35.3553"/>
<path d="M8.59917 8.55583C8.29003 8.86498 8.00407 9.18868 7.74137 9.52489C7.70527 9.57111 7.68379 9.62704 7.67972 9.68547C7.67564 9.7439 7.68916 9.80216 7.71852 9.85274L10.0636 13.8928C10.4247 14.5149 10.2712 15.4759 9.73366 15.957L6.19197 19.1271C6.14867 19.1658 6.1178 19.2165 6.10327 19.2727C6.08874 19.3289 6.0912 19.3881 6.11034 19.4428C6.38694 20.2333 6.76144 20.9971 7.23362 21.7148C7.26607 21.7641 7.31271 21.8024 7.3674 21.8247C7.4221 21.8469 7.4823 21.8521 7.54011 21.8396L12.2086 20.8252C12.9129 20.6722 13.7789 21.1125 14.0688 21.7709L16.0339 26.2343C16.0574 26.2878 16.0964 26.3329 16.1458 26.3639C16.1952 26.3949 16.2528 26.4105 16.3112 26.4085C17.1331 26.381 17.9526 26.2574 18.7515 26.0375C18.8086 26.0218 18.8597 25.9891 18.898 25.9439C18.9363 25.8987 18.96 25.843 18.9661 25.7841L19.4708 20.9071C19.545 20.1904 20.2338 19.5017 20.9504 19.4275L25.8274 18.9228C25.8863 18.9167 25.942 18.8929 25.9873 18.8546C26.0325 18.8163 26.0651 18.7653 26.0808 18.7082C26.3007 17.9092 26.4243 17.0897 26.4518 16.2679C26.4538 16.2095 26.4383 16.1519 26.4072 16.1024C26.3762 16.053 26.3311 16.014 26.2777 15.9905L21.8142 14.0255C21.1558 13.7356 20.7156 12.8695 20.8685 12.1652L21.8829 7.49677C21.8955 7.43896 21.8903 7.37876 21.868 7.32407C21.8457 7.26937 21.8074 7.22274 21.7581 7.19028C21.0404 6.7181 20.2766 6.3436 19.4862 6.067C19.4315 6.04786 19.3723 6.0454 19.316 6.05993C19.2598 6.07447 19.2091 6.10533 19.1704 6.14863L16.0003 9.69033C15.5192 10.2278 14.5582 10.3814 13.9361 10.0203L9.89608 7.67518C9.8455 7.64582 9.78724 7.63231 9.7288 7.63638C9.67037 7.64046 9.61445 7.66193 9.56823 7.69804C9.23201 7.96073 8.90831 8.24669 8.59917 8.55583ZM9.01316 8.96982C9.25814 8.72485 9.51464 8.49905 9.77755 8.28516L13.6406 10.5277C14.5311 11.0446 15.748 10.8501 16.4367 10.0806L19.4716 6.68994C20.0922 6.92092 20.6934 7.21645 21.2659 7.5766L20.2955 12.0424C20.0765 13.0506 20.6339 14.1472 21.5765 14.5622L25.8534 16.4452C25.8192 17.0899 25.7223 17.7314 25.5626 18.3609L20.8919 18.8442C19.8659 18.9504 18.9937 19.8226 18.8875 20.8485L18.4043 25.5193C17.7748 25.6789 17.1332 25.7758 16.4885 25.8101L14.6055 21.5332C14.1905 20.5906 13.094 20.0331 12.0858 20.2521L7.61993 21.2225C7.25978 20.6501 6.96425 20.0489 6.73327 19.4283L10.124 16.3934C10.8934 15.7046 11.088 14.4878 10.571 13.5973L8.32849 9.73422C8.54239 9.4713 8.76818 9.2148 9.01316 8.96982Z"/>
<path fill-rule="evenodd" clip-rule="evenodd" d="M24.3056 7.65151C24.8661 8.21122 25.3681 8.827 25.8041 9.48807C26.2277 10.1301 26.5861 10.8133 26.874 11.5264C27.4391 12.9278 27.7283 14.4262 27.7251 15.9388C27.7236 17.4514 27.4298 18.9507 26.8604 20.3538C26.5703 21.0679 26.2098 21.7522 25.7842 22.3955C25.3462 23.0579 24.8423 23.6752 24.28 24.2367C23.7186 24.7989 23.1012 25.3028 22.4388 25.7409C21.7955 26.1664 21.1112 26.527 20.3972 26.8171C18.994 27.3865 17.4947 27.6803 15.9821 27.6818C14.4696 27.6849 12.9711 27.3957 11.5697 26.8307C10.8566 26.5428 10.1734 26.1844 9.53142 25.7608C8.87034 25.3248 8.25456 24.8228 7.69485 24.2622C7.13431 23.7025 6.63272 23.0871 6.19631 22.4257C5.77272 21.7836 5.41429 21.1005 5.12639 20.3873C4.56134 18.9859 4.27217 17.4875 4.27533 15.9749C4.27683 14.4624 4.57062 12.963 5.13999 11.5599C5.43009 10.8459 5.79063 10.1616 6.2162 9.51825C6.65424 8.85583 7.15813 8.2385 7.7204 7.67706C8.28185 7.11479 8.89918 6.61089 9.5616 6.17285C10.2049 5.74728 10.8892 5.38675 11.6032 5.09665C13.0064 4.52728 14.5057 4.23348 16.0183 4.23198C17.5308 4.22882 19.0293 4.518 20.4307 5.08305C21.1438 5.37095 21.827 5.72938 22.469 6.15297C23.1301 6.58897 23.7459 7.09096 24.3056 7.65151ZM23.8903 8.06677C24.4231 8.59875 24.8999 9.18347 25.3148 9.81182C25.7164 10.422 26.0567 11.0703 26.3301 11.7474C26.8675 13.0788 27.1419 14.5026 27.1388 15.9397C27.1374 17.3768 26.8587 18.8015 26.3172 20.1345C26.0417 20.8124 25.6994 21.4619 25.2959 22.0732C24.879 22.7029 24.4005 23.2891 23.866 23.8227C23.3324 24.3571 22.7462 24.8357 22.1166 25.2525C21.5052 25.6561 20.8558 25.9983 20.1779 26.2738C18.8448 26.8153 17.4202 27.0941 15.983 27.0955C14.5459 27.0985 13.1221 26.8241 11.7907 26.2868C11.1137 26.0133 10.4653 25.6731 9.85517 25.2714C9.22681 24.8565 8.64209 24.3798 8.11012 23.847C7.57731 23.315 7.10056 22.7303 6.68566 22.1019C6.28399 21.4918 5.94375 20.8434 5.67031 20.1663C5.13293 18.835 4.85857 17.4111 4.86161 15.974C4.863 14.5369 5.14175 13.1122 5.68323 11.7792C5.95876 11.1013 6.301 10.4519 6.70455 9.8405C7.12139 9.21086 7.59995 8.62467 8.1344 8.09105C8.66802 7.5566 9.25421 7.07805 9.88384 6.66121C10.4952 6.25766 11.1446 5.91542 11.8226 5.63989C13.1556 5.09841 14.5803 4.81965 16.0174 4.81827C17.4545 4.81523 18.8783 5.08959 20.2097 5.62697C20.8868 5.90041 21.5351 6.24065 22.1453 6.64231C22.7736 7.05722 23.3583 7.53397 23.8903 8.06677Z"/>
<path fill-rule="evenodd" clip-rule="evenodd" d="M23.4045 8.53277C24.3931 9.51972 25.1733 10.6969 25.6979 11.9922C26.2022 13.2432 26.4605 14.5804 26.4576 15.9313C26.4564 17.2813 26.1943 18.6197 25.6857 19.8727C25.1571 21.1696 24.3738 22.3488 23.3821 23.3388C22.3921 24.3304 21.2129 25.1138 19.916 25.6424C18.663 26.151 17.3246 26.413 15.9746 26.4143C14.6237 26.4172 13.2865 26.1589 12.0355 25.6545C10.7402 25.13 9.56347 24.3502 8.57652 23.3616C7.58749 22.3742 6.80815 21.1979 6.28356 19.9025C5.77882 18.6512 5.52049 17.314 5.5234 15.9631C5.52465 14.6131 5.78668 13.2747 6.2957 12.0221C6.82387 10.7248 7.60751 9.54583 8.59917 8.55583C9.58917 7.56418 10.7681 6.78053 12.0654 6.25237C13.318 5.74335 14.6564 5.48132 16.0064 5.48007C17.3573 5.47716 18.6945 5.73548 19.9459 6.24023C21.2412 6.76481 22.4171 7.54374 23.4045 8.53277ZM22.9892 8.94804C23.9224 9.87951 24.6587 10.9904 25.1539 12.2132C25.6302 13.3946 25.8737 14.6572 25.8713 15.9322C25.8702 17.2067 25.6224 18.4705 25.1425 19.6533C24.6435 20.8777 23.9041 21.9904 22.9681 22.9248C22.0338 23.8608 20.921 24.6001 19.6967 25.0992C18.5138 25.579 17.2501 25.8269 15.9755 25.828C14.7005 25.8304 13.4379 25.5869 12.2566 25.1106C11.0337 24.6154 9.92326 23.8794 8.99179 22.9463C8.05824 22.0144 7.32232 20.9039 6.82707 19.6811C6.35082 18.4998 6.10731 17.2372 6.10969 15.9622C6.11082 14.6876 6.35864 13.4239 6.83894 12.2414C7.33756 11.0167 8.07715 9.90418 9.01316 8.96982C9.94752 8.03381 11.06 7.29422 12.2848 6.79561C13.4672 6.31531 14.731 6.06749 16.0055 6.06635C17.2805 6.06397 18.5431 6.30749 19.7245 6.78373C20.9473 7.27899 22.0578 8.0149 22.9892 8.94804Z"/>
</mask>
<path d="M8.59917 8.55583C8.29003 8.86498 8.00407 9.18868 7.74137 9.52489C7.70527 9.57111 7.68379 9.62704 7.67972 9.68547C7.67564 9.7439 7.68916 9.80216 7.71852 9.85274L10.0636 13.8928C10.4247 14.5149 10.2712 15.4759 9.73366 15.957L6.19197 19.1271C6.14867 19.1658 6.1178 19.2165 6.10327 19.2727C6.08874 19.3289 6.0912 19.3881 6.11034 19.4428C6.38694 20.2333 6.76144 20.9971 7.23362 21.7148C7.26607 21.7641 7.31271 21.8024 7.3674 21.8247C7.4221 21.8469 7.4823 21.8521 7.54011 21.8396L12.2086 20.8252C12.9129 20.6722 13.7789 21.1125 14.0688 21.7709L16.0339 26.2343C16.0574 26.2878 16.0964 26.3329 16.1458 26.3639C16.1952 26.3949 16.2528 26.4105 16.3112 26.4085C17.1331 26.381 17.9526 26.2574 18.7515 26.0375C18.8086 26.0218 18.8597 25.9891 18.898 25.9439C18.9363 25.8987 18.96 25.843 18.9661 25.7841L19.4708 20.9071C19.545 20.1904 20.2338 19.5017 20.9504 19.4275L25.8274 18.9228C25.8863 18.9167 25.942 18.8929 25.9873 18.8546C26.0325 18.8163 26.0651 18.7653 26.0808 18.7082C26.3007 17.9092 26.4243 17.0897 26.4518 16.2679C26.4538 16.2095 26.4383 16.1519 26.4072 16.1024C26.3762 16.053 26.3311 16.014 26.2777 15.9905L21.8142 14.0255C21.1558 13.7356 20.7156 12.8695 20.8685 12.1652L21.8829 7.49677C21.8955 7.43896 21.8903 7.37876 21.868 7.32407C21.8457 7.26937 21.8074 7.22274 21.7581 7.19028C21.0404 6.7181 20.2766 6.3436 19.4862 6.067C19.4315 6.04786 19.3723 6.0454 19.316 6.05993C19.2598 6.07447 19.2091 6.10533 19.1704 6.14863L16.0003 9.69033C15.5192 10.2278 14.5582 10.3814 13.9361 10.0203L9.89608 7.67518C9.8455 7.64582 9.78724 7.63231 9.7288 7.63638C9.67037 7.64046 9.61445 7.66193 9.56823 7.69804C9.23201 7.96073 8.90831 8.24669 8.59917 8.55583ZM9.01316 8.96982C9.25814 8.72485 9.51464 8.49905 9.77755 8.28516L13.6406 10.5277C14.5311 11.0446 15.748 10.8501 16.4367 10.0806L19.4716 6.68994C20.0922 6.92092 20.6934 7.21645 21.2659 7.5766L20.2955 12.0424C20.0765 13.0506 20.6339 14.1472 21.5765 14.5622L25.8534 16.4452C25.8192 17.0899 25.7223 17.7314 25.5626 18.3609L20.8919 18.8442C19.8659 18.9504 18.9937 19.8226 18.8875 20.8485L18.4043 25.5193C17.7748 25.6789 17.1332 25.7758 16.4885 25.8101L14.6055 21.5332C14.1905 20.5906 13.094 20.0331 12.0858 20.2521L7.61993 21.2225C7.25978 20.6501 6.96425 20.0489 6.73327 19.4283L10.124 16.3934C10.8934 15.7046 11.088 14.4878 10.571 13.5973L8.32849 9.73422C8.54239 9.4713 8.76818 9.2148 9.01316 8.96982Z" fill="white"/>
<path fill-rule="evenodd" clip-rule="evenodd" d="M24.3056 7.65151C24.8661 8.21122 25.3681 8.827 25.8041 9.48807C26.2277 10.1301 26.5861 10.8133 26.874 11.5264C27.4391 12.9278 27.7283 14.4262 27.7251 15.9388C27.7236 17.4514 27.4298 18.9507 26.8604 20.3538C26.5703 21.0679 26.2098 21.7522 25.7842 22.3955C25.3462 23.0579 24.8423 23.6752 24.28 24.2367C23.7186 24.7989 23.1012 25.3028 22.4388 25.7409C21.7955 26.1664 21.1112 26.527 20.3972 26.8171C18.994 27.3865 17.4947 27.6803 15.9821 27.6818C14.4696 27.6849 12.9711 27.3957 11.5697 26.8307C10.8566 26.5428 10.1734 26.1844 9.53142 25.7608C8.87034 25.3248 8.25456 24.8228 7.69485 24.2622C7.13431 23.7025 6.63272 23.0871 6.19631 22.4257C5.77272 21.7836 5.41429 21.1005 5.12639 20.3873C4.56134 18.9859 4.27217 17.4875 4.27533 15.9749C4.27683 14.4624 4.57062 12.963 5.13999 11.5599C5.43009 10.8459 5.79063 10.1616 6.2162 9.51825C6.65424 8.85583 7.15813 8.2385 7.7204 7.67706C8.28185 7.11479 8.89918 6.61089 9.5616 6.17285C10.2049 5.74728 10.8892 5.38675 11.6032 5.09665C13.0064 4.52728 14.5057 4.23348 16.0183 4.23198C17.5308 4.22882 19.0293 4.518 20.4307 5.08305C21.1438 5.37095 21.827 5.72938 22.469 6.15297C23.1301 6.58897 23.7459 7.09096 24.3056 7.65151ZM23.8903 8.06677C24.4231 8.59875 24.8999 9.18347 25.3148 9.81182C25.7164 10.422 26.0567 11.0703 26.3301 11.7474C26.8675 13.0788 27.1419 14.5026 27.1388 15.9397C27.1374 17.3768 26.8587 18.8015 26.3172 20.1345C26.0417 20.8124 25.6994 21.4619 25.2959 22.0732C24.879 22.7029 24.4005 23.2891 23.866 23.8227C23.3324 24.3571 22.7462 24.8357 22.1166 25.2525C21.5052 25.6561 20.8558 25.9983 20.1779 26.2738C18.8448 26.8153 17.4202 27.0941 15.983 27.0955C14.5459 27.0985 13.1221 26.8241 11.7907 26.2868C11.1137 26.0133 10.4653 25.6731 9.85517 25.2714C9.22681 24.8565 8.64209 24.3798 8.11012 23.847C7.57731 23.315 7.10056 22.7303 6.68566 22.1019C6.28399 21.4918 5.94375 20.8434 5.67031 20.1663C5.13293 18.835 4.85857 17.4111 4.86161 15.974C4.863 14.5369 5.14175 13.1122 5.68323 11.7792C5.95876 11.1013 6.301 10.4519 6.70455 9.8405C7.12139 9.21086 7.59995 8.62467 8.1344 8.09105C8.66802 7.5566 9.25421 7.07805 9.88384 6.66121C10.4952 6.25766 11.1446 5.91542 11.8226 5.63989C13.1556 5.09841 14.5803 4.81965 16.0174 4.81827C17.4545 4.81523 18.8783 5.08959 20.2097 5.62697C20.8868 5.90041 21.5351 6.24065 22.1453 6.64231C22.7736 7.05722 23.3583 7.53397 23.8903 8.06677Z" fill="white"/>
<path fill-rule="evenodd" clip-rule="evenodd" d="M23.4045 8.53277C24.3931 9.51972 25.1733 10.6969 25.6979 11.9922C26.2022 13.2432 26.4605 14.5804 26.4576 15.9313C26.4564 17.2813 26.1943 18.6197 25.6857 19.8727C25.1571 21.1696 24.3738 22.3488 23.3821 23.3388C22.3921 24.3304 21.2129 25.1138 19.916 25.6424C18.663 26.151 17.3246 26.413 15.9746 26.4143C14.6237 26.4172 13.2865 26.1589 12.0355 25.6545C10.7402 25.13 9.56347 24.3502 8.57652 23.3616C7.58749 22.3742 6.80815 21.1979 6.28356 19.9025C5.77882 18.6512 5.52049 17.314 5.5234 15.9631C5.52465 14.6131 5.78668 13.2747 6.2957 12.0221C6.82387 10.7248 7.60751 9.54583 8.59917 8.55583C9.58917 7.56418 10.7681 6.78053 12.0654 6.25237C13.318 5.74335 14.6564 5.48132 16.0064 5.48007C17.3573 5.47716 18.6945 5.73548 19.9459 6.24023C21.2412 6.76481 22.4171 7.54374 23.4045 8.53277ZM22.9892 8.94804C23.9224 9.87951 24.6587 10.9904 25.1539 12.2132C25.6302 13.3946 25.8737 14.6572 25.8713 15.9322C25.8702 17.2067 25.6224 18.4705 25.1425 19.6533C24.6435 20.8777 23.9041 21.9904 22.9681 22.9248C22.0338 23.8608 20.921 24.6001 19.6967 25.0992C18.5138 25.579 17.2501 25.8269 15.9755 25.828C14.7005 25.8304 13.4379 25.5869 12.2566 25.1106C11.0337 24.6154 9.92326 23.8794 8.99179 22.9463C8.05824 22.0144 7.32232 20.9039 6.82707 19.6811C6.35082 18.4998 6.10731 17.2372 6.10969 15.9622C6.11082 14.6876 6.35864 13.4239 6.83894 12.2414C7.33756 11.0167 8.07715 9.90418 9.01316 8.96982C9.94752 8.03381 11.06 7.29422 12.2848 6.79561C13.4672 6.31531 14.731 6.06749 16.0055 6.06635C17.2805 6.06397 18.5431 6.30749 19.7245 6.78373C20.9473 7.27899 22.0578 8.0149 22.9892 8.94804Z" fill="white"/>
<path d="M7.74137 9.52489L7.58377 9.40175L7.58377 9.40176L7.74137 9.52489ZM7.71852 9.85274L7.54554 9.95314L7.54554 9.95314L7.71852 9.85274ZM10.0636 13.8928L9.89063 13.9932L9.89064 13.9932L10.0636 13.8928ZM9.73366 15.957L9.86705 16.106L9.86705 16.106L9.73366 15.957ZM6.19197 19.1271L6.32535 19.2761L6.32535 19.2761L6.19197 19.1271ZM6.11034 19.4428L5.92155 19.5089L5.92156 19.5089L6.11034 19.4428ZM7.23362 21.7148L7.06654 21.8247L7.06655 21.8247L7.23362 21.7148ZM7.54011 21.8396L7.58256 22.035L7.58257 22.035L7.54011 21.8396ZM12.2086 20.8252L12.1661 20.6298L12.1661 20.6298L12.2086 20.8252ZM14.0688 21.7709L14.2519 21.6903L14.2519 21.6903L14.0688 21.7709ZM16.0339 26.2343L15.8508 26.3149L15.8508 26.315L16.0339 26.2343ZM16.3112 26.4085L16.3045 26.2086L16.3045 26.2086L16.3112 26.4085ZM18.7515 26.0375L18.8046 26.2303L18.8046 26.2303L18.7515 26.0375ZM18.9661 25.7841L18.7672 25.7635L18.7672 25.7635L18.9661 25.7841ZM19.4708 20.9071L19.6698 20.9277L19.6698 20.9277L19.4708 20.9071ZM20.9504 19.4275L20.971 19.6265L20.971 19.6265L20.9504 19.4275ZM25.8274 18.9228L25.8069 18.7238L25.8068 18.7238L25.8274 18.9228ZM26.0808 18.7082L26.2737 18.7613L26.2737 18.7612L26.0808 18.7082ZM26.4518 16.2679L26.252 16.2612L26.252 16.2612L26.4518 16.2679ZM26.2777 15.9905L26.3583 15.8075L26.3583 15.8075L26.2777 15.9905ZM21.8142 14.0255L21.7336 14.2085L21.7336 14.2085L21.8142 14.0255ZM20.8685 12.1652L20.6731 12.1228L20.6731 12.1228L20.8685 12.1652ZM21.8829 7.49677L22.0784 7.53923L22.0784 7.53923L21.8829 7.49677ZM21.7581 7.19028L21.8681 7.02322L21.868 7.0232L21.7581 7.19028ZM19.4862 6.067L19.5522 5.87822L19.5522 5.87822L19.4862 6.067ZM19.1704 6.14863L19.3194 6.28202L19.3194 6.28201L19.1704 6.14863ZM16.0003 9.69033L16.1493 9.82371L16.1493 9.82371L16.0003 9.69033ZM13.9361 10.0203L14.0366 9.8473L14.0365 9.8473L13.9361 10.0203ZM9.89608 7.67518L9.99648 7.50221L9.99648 7.50221L9.89608 7.67518ZM9.56823 7.69804L9.4451 7.54043L9.44509 7.54044L9.56823 7.69804ZM9.77755 8.28516L9.87796 8.11219L9.75849 8.04284L9.65134 8.13001L9.77755 8.28516ZM13.6406 10.5277L13.741 10.3547L13.741 10.3547L13.6406 10.5277ZM16.4367 10.0806L16.5857 10.214L16.5857 10.214L16.4367 10.0806ZM19.4716 6.68994L19.5414 6.5025L19.4136 6.45492L19.3226 6.55655L19.4716 6.68994ZM21.2659 7.5766L21.4613 7.61906L21.4911 7.482L21.3724 7.40731L21.2659 7.5766ZM20.2955 12.0424L20.1001 11.9999L20.1001 11.9999L20.2955 12.0424ZM21.5765 14.5622L21.4959 14.7452L21.4959 14.7452L21.5765 14.5622ZM25.8534 16.4452L26.0532 16.4558L26.0605 16.3178L25.934 16.2621L25.8534 16.4452ZM25.5626 18.3609L25.5832 18.5599L25.7221 18.5455L25.7565 18.4101L25.5626 18.3609ZM20.8919 18.8442L20.8713 18.6453L20.8919 18.8442ZM18.8875 20.8485L18.6886 20.8279L18.6886 20.8279L18.8875 20.8485ZM18.4043 25.5193L18.4534 25.7131L18.5888 25.6788L18.6032 25.5398L18.4043 25.5193ZM16.4885 25.8101L16.3055 25.8907L16.3611 26.0172L16.4991 26.0098L16.4885 25.8101ZM14.6055 21.5332L14.7886 21.4526L14.7886 21.4526L14.6055 21.5332ZM12.0858 20.2521L12.0434 20.0567L12.0433 20.0567L12.0858 20.2521ZM7.61993 21.2225L7.45065 21.329L7.52534 21.4478L7.6624 21.418L7.61993 21.2225ZM6.73327 19.4283L6.59988 19.2793L6.49826 19.3702L6.54583 19.4981L6.73327 19.4283ZM10.124 16.3934L10.2574 16.5424L10.2574 16.5424L10.124 16.3934ZM10.571 13.5973L10.398 13.6977L10.398 13.6977L10.571 13.5973ZM8.32849 9.73422L8.17335 9.608L8.08617 9.71515L8.15553 9.83462L8.32849 9.73422ZM24.3056 7.65151L24.164 7.79282L24.1643 7.79303L24.3056 7.65151ZM25.8041 9.48807L25.6372 9.59819L25.6372 9.59822L25.8041 9.48807ZM26.874 11.5264L27.0595 11.4516L27.0595 11.4515L26.874 11.5264ZM27.7251 15.9388L27.5251 15.9384V15.9386L27.7251 15.9388ZM26.8604 20.3538L27.0457 20.4291L27.0457 20.4291L26.8604 20.3538ZM25.7842 22.3955L25.6174 22.2851L25.6174 22.2852L25.7842 22.3955ZM24.28 24.2367L24.1387 24.0951L24.1385 24.0954L24.28 24.2367ZM22.4388 25.7409L22.3285 25.5741L22.3285 25.5741L22.4388 25.7409ZM20.3972 26.8171L20.4724 27.0024L20.4725 27.0024L20.3972 26.8171ZM15.9821 27.6818L15.9819 27.4818L15.9817 27.4818L15.9821 27.6818ZM11.5697 26.8307L11.4949 27.0161L11.4949 27.0162L11.5697 26.8307ZM9.53142 25.7608L9.64156 25.5938L9.64153 25.5938L9.53142 25.7608ZM7.69485 24.2622L7.83638 24.1209L7.83617 24.1207L7.69485 24.2622ZM6.19631 22.4257L6.36325 22.3155L6.36325 22.3155L6.19631 22.4257ZM5.12639 20.3873L4.9409 20.4621L4.94094 20.4622L5.12639 20.3873ZM4.27533 15.9749L4.47533 15.9754L4.47533 15.9751L4.27533 15.9749ZM5.13999 11.5599L4.9547 11.4846L4.95467 11.4847L5.13999 11.5599ZM6.2162 9.51825L6.383 9.6286L6.38302 9.62857L6.2162 9.51825ZM7.7204 7.67706L7.86172 7.81859L7.86193 7.81838L7.7204 7.67706ZM9.5616 6.17285L9.67191 6.33968L9.67194 6.33966L9.5616 6.17285ZM11.6032 5.09665L11.528 4.91133L11.5279 4.91136L11.6032 5.09665ZM16.0183 4.23198L16.0185 4.43198L16.0187 4.43198L16.0183 4.23198ZM20.4307 5.08305L20.5056 4.89759L20.5055 4.89756L20.4307 5.08305ZM22.469 6.15297L22.3589 6.31991L22.3589 6.31993L22.469 6.15297ZM23.8903 8.06677L23.7488 8.20809L23.749 8.20831L23.8903 8.06677ZM25.3148 9.81182L25.4818 9.70185L25.4817 9.70162L25.3148 9.81182ZM26.3301 11.7474L26.5156 11.6725L26.5156 11.6725L26.3301 11.7474ZM27.1388 15.9397L26.9388 15.9393V15.9395L27.1388 15.9397ZM26.3172 20.1345L26.5025 20.2098L26.5025 20.2098L26.3172 20.1345ZM25.2959 22.0732L25.4626 22.1836L25.4628 22.1834L25.2959 22.0732ZM23.866 23.8227L23.7247 23.6812L23.7245 23.6814L23.866 23.8227ZM22.1166 25.2525L22.2268 25.4194L22.227 25.4193L22.1166 25.2525ZM20.1779 26.2738L20.2531 26.4591L20.2532 26.4591L20.1779 26.2738ZM15.983 27.0955L15.9829 26.8955L15.9826 26.8955L15.983 27.0955ZM11.7907 26.2868L11.7159 26.4722L11.7159 26.4722L11.7907 26.2868ZM9.85517 25.2714L9.74496 25.4383L9.74519 25.4385L9.85517 25.2714ZM8.11012 23.847L8.25165 23.7056L8.25143 23.7054L8.11012 23.847ZM6.68566 22.1019L6.51861 22.2119L6.51876 22.2121L6.68566 22.1019ZM5.67031 20.1663L5.48485 20.2412L5.48486 20.2412L5.67031 20.1663ZM4.86161 15.974L5.06161 15.9745L5.06161 15.9742L4.86161 15.974ZM5.68323 11.7792L5.49795 11.7039L5.49794 11.7039L5.68323 11.7792ZM6.70455 9.8405L6.53778 9.73009L6.53763 9.73032L6.70455 9.8405ZM8.1344 8.09105L8.27571 8.23258L8.27593 8.23236L8.1344 8.09105ZM9.88384 6.66121L9.77366 6.49429L9.77344 6.49444L9.88384 6.66121ZM11.8226 5.63989L11.7473 5.45459L11.7473 5.45461L11.8226 5.63989ZM16.0174 4.81827L16.0176 5.01827L16.0178 5.01827L16.0174 4.81827ZM20.2097 5.62697L20.2846 5.44152L20.2845 5.44151L20.2097 5.62697ZM22.1453 6.64231L22.2555 6.47541L22.2552 6.47526L22.1453 6.64231ZM23.4045 8.53277L23.263 8.67407L23.2632 8.67431L23.4045 8.53277ZM25.6979 11.9922L25.8834 11.9174L25.8832 11.9171L25.6979 11.9922ZM26.4576 15.9313L26.2576 15.9308V15.9311L26.4576 15.9313ZM25.6857 19.8727L25.8709 19.9481L25.871 19.9479L25.6857 19.8727ZM23.3821 23.3388L23.2408 23.1972L23.2406 23.1975L23.3821 23.3388ZM19.916 25.6424L19.9912 25.8277L19.9915 25.8276L19.916 25.6424ZM15.9746 26.4143L15.9744 26.2143L15.9742 26.2143L15.9746 26.4143ZM12.0355 25.6545L11.9605 25.8399L11.9608 25.84L12.0355 25.6545ZM8.57652 23.3616L8.71806 23.2203L8.71782 23.22L8.57652 23.3616ZM6.28356 19.9025L6.09808 19.9774L6.09819 19.9776L6.28356 19.9025ZM5.5234 15.9631L5.7234 15.9635V15.9633L5.5234 15.9631ZM6.2957 12.0221L6.11047 11.9467L6.11042 11.9468L6.2957 12.0221ZM12.0654 6.25237L11.9901 6.06709L11.99 6.06713L12.0654 6.25237ZM16.0064 5.48007L16.0066 5.68007H16.0069L16.0064 5.48007ZM19.9459 6.24023L20.021 6.05485L20.0207 6.05475L19.9459 6.24023ZM22.9892 8.94804L22.8477 9.08933L22.8479 9.08959L22.9892 8.94804ZM25.1539 12.2132L25.3394 12.1384L25.3393 12.1381L25.1539 12.2132ZM25.8713 15.9322L25.6713 15.9318V15.932L25.8713 15.9322ZM25.1425 19.6533L25.3277 19.7288L25.3278 19.7285L25.1425 19.6533ZM22.9681 22.9248L22.8268 22.7832L22.8266 22.7835L22.9681 22.9248ZM19.6967 25.0992L19.7718 25.2845L19.7721 25.2844L19.6967 25.0992ZM15.9755 25.828L15.9753 25.628L15.9751 25.628L15.9755 25.828ZM12.2566 25.1106L12.1815 25.296L12.1818 25.2961L12.2566 25.1106ZM8.99179 22.9463L9.13333 22.805L9.13308 22.8048L8.99179 22.9463ZM6.82707 19.6811L6.64157 19.7559L6.64169 19.7562L6.82707 19.6811ZM6.10969 15.9622L6.30969 15.9626L6.30969 15.9624L6.10969 15.9622ZM6.83894 12.2414L6.65371 12.166L6.65365 12.1662L6.83894 12.2414ZM12.2848 6.79561L12.2095 6.61031L12.2094 6.61037L12.2848 6.79561ZM16.0055 6.06635L16.0057 6.26635L16.0059 6.26635L16.0055 6.06635ZM19.7245 6.78373L19.7995 6.59836L19.7992 6.59824L19.7245 6.78373ZM8.45775 8.41441C8.14284 8.72932 7.85149 9.05912 7.58377 9.40175L7.89897 9.64803C8.15665 9.31823 8.43721 9.00064 8.74059 8.69725L8.45775 8.41441ZM7.58377 9.40176C7.52315 9.47935 7.48705 9.5733 7.4802 9.67156L7.87923 9.69938C7.88053 9.68077 7.88738 9.66286 7.89898 9.64802L7.58377 9.40176ZM7.4802 9.67156C7.47335 9.76983 7.49607 9.86791 7.54554 9.95314L7.89149 9.75234C7.88224 9.73641 7.87794 9.71798 7.87923 9.69938L7.4802 9.67156ZM7.54554 9.95314L9.89063 13.9932L10.2366 13.7924L7.89149 9.75234L7.54554 9.95314ZM9.89064 13.9932C10.0435 14.2566 10.0929 14.6037 10.0381 14.9462C9.98339 15.2886 9.82816 15.604 9.60027 15.808L9.86705 16.106C10.1767 15.8289 10.367 15.4232 10.4331 15.0093C10.4993 14.5955 10.4448 14.1511 10.2366 13.7924L9.89064 13.9932ZM9.60028 15.808L6.05858 18.978L6.32535 19.2761L9.86705 16.106L9.60028 15.808ZM6.05859 18.978C5.9859 19.0431 5.93405 19.1282 5.90963 19.2227L6.29691 19.3228C6.30155 19.3048 6.31144 19.2885 6.32535 19.2761L6.05859 18.978ZM5.90963 19.2227C5.88521 19.3171 5.88932 19.4167 5.92155 19.5089L6.29912 19.3768C6.29308 19.3595 6.29226 19.3407 6.29691 19.3228L5.90963 19.2227ZM5.92156 19.5089C6.20349 20.3146 6.58522 21.0931 7.06654 21.8247L7.4007 21.6048C6.93765 20.901 6.57038 20.152 6.29911 19.3768L5.92156 19.5089ZM7.06655 21.8247C7.12125 21.9078 7.19984 21.9724 7.29197 22.0099L7.44283 21.6394C7.42558 21.6324 7.4109 21.6203 7.40069 21.6048L7.06655 21.8247ZM7.29197 22.0099C7.3841 22.0474 7.4854 22.0561 7.58256 22.035L7.49765 21.6441C7.4792 21.6481 7.46009 21.6465 7.44283 21.6394L7.29197 22.0099ZM7.58257 22.035L12.2511 21.0206L12.1661 20.6298L7.49764 21.6441L7.58257 22.035ZM12.251 21.0207C12.5495 20.9558 12.895 21.0153 13.2035 21.1721C13.5119 21.3289 13.7631 21.5728 13.8858 21.8515L14.2519 21.6903C14.0847 21.3106 13.7579 21.0052 13.3847 20.8155C13.0116 20.6258 12.572 20.5416 12.1661 20.6298L12.251 21.0207ZM13.8858 21.8515L15.8508 26.3149L16.2169 26.1538L14.2519 21.6903L13.8858 21.8515ZM15.8508 26.315C15.8905 26.4049 15.9561 26.481 16.0394 26.5333L16.2521 26.1945C16.2366 26.1848 16.2243 26.1706 16.2169 26.1537L15.8508 26.315ZM16.0394 26.5333C16.1227 26.5856 16.2197 26.6117 16.3179 26.6084L16.3045 26.2086C16.2859 26.2092 16.2677 26.2043 16.2521 26.1945L16.0394 26.5333ZM16.3179 26.6084C17.1553 26.5803 17.9904 26.4544 18.8046 26.2303L18.6985 25.8447C17.9147 26.0603 17.1108 26.1816 16.3045 26.2086L16.3179 26.6084ZM18.8046 26.2303C18.9006 26.2039 18.9863 26.1491 19.0506 26.0732L18.7453 25.8147C18.733 25.8292 18.7166 25.8397 18.6984 25.8447L18.8046 26.2303ZM19.0506 26.0732C19.1149 25.9972 19.1548 25.9037 19.165 25.8047L18.7672 25.7635C18.7652 25.7823 18.7576 25.8001 18.7453 25.8147L19.0506 26.0732ZM19.165 25.8047L19.6698 20.9277L19.2719 20.8865L18.7672 25.7635L19.165 25.8047ZM19.6698 20.9277C19.7012 20.624 19.8656 20.3133 20.1111 20.0678C20.3567 19.8222 20.6673 19.6579 20.971 19.6265L20.9298 19.2286C20.5168 19.2713 20.1248 19.4884 19.8283 19.7849C19.5318 20.0815 19.3146 20.4735 19.2719 20.8865L19.6698 20.9277ZM20.971 19.6265L25.848 19.1217L25.8068 18.7238L20.9298 19.2286L20.971 19.6265ZM25.848 19.1217C25.947 19.1115 26.0406 19.0715 26.1165 19.0073L25.858 18.702C25.8435 18.7143 25.8256 18.7219 25.8069 18.7238L25.848 19.1217ZM26.1165 19.0073C26.1924 18.943 26.2472 18.8572 26.2737 18.7613L25.888 18.6551C25.883 18.6733 25.8725 18.6897 25.858 18.702L26.1165 19.0073ZM26.2737 18.7612C26.4977 17.9471 26.6237 17.112 26.6517 16.2746L26.252 16.2612C26.2249 17.0675 26.1037 17.8714 25.888 18.6551L26.2737 18.7612ZM26.6517 16.2746C26.655 16.1763 26.6289 16.0793 26.5766 15.9961L26.2379 16.2088C26.2476 16.2244 26.2526 16.2426 26.252 16.2612L26.6517 16.2746ZM26.5766 15.9961C26.5243 15.9128 26.4483 15.8471 26.3583 15.8075L26.1971 16.1736C26.2139 16.181 26.2281 16.1932 26.2379 16.2088L26.5766 15.9961ZM26.3583 15.8075L21.8948 13.8424L21.7336 14.2085L26.1971 16.1736L26.3583 15.8075ZM21.8948 13.8424C21.6161 13.7197 21.3722 13.4686 21.2154 13.1601C21.0586 12.8517 20.9992 12.5061 21.064 12.2077L20.6731 12.1228C20.5849 12.5287 20.6691 12.9683 20.8588 13.3414C21.0485 13.7145 21.3539 14.0413 21.7336 14.2085L21.8948 13.8424ZM21.064 12.2077L22.0784 7.53923L21.6875 7.4543L20.6731 12.1228L21.064 12.2077ZM22.0784 7.53923C22.0995 7.44207 22.0907 7.34077 22.0532 7.24864L21.6828 7.39949C21.6898 7.41675 21.6915 7.43586 21.6875 7.45431L22.0784 7.53923ZM22.0532 7.24864C22.0157 7.1565 21.9512 7.07791 21.8681 7.02322L21.6482 7.35735C21.6637 7.36756 21.6757 7.38224 21.6828 7.39949L22.0532 7.24864ZM21.868 7.0232C21.1364 6.54188 20.3579 6.16015 19.5522 5.87822L19.4201 6.25578C20.1954 6.52705 20.9443 6.89432 21.6482 7.35737L21.868 7.0232ZM19.5522 5.87822C19.4601 5.84598 19.3605 5.84188 19.266 5.8663L19.3661 6.25357C19.3841 6.24893 19.4029 6.24974 19.4201 6.25578L19.5522 5.87822ZM19.266 5.8663C19.1715 5.89072 19.0864 5.94256 19.0214 6.01525L19.3194 6.28201C19.3319 6.2681 19.3481 6.25821 19.3661 6.25357L19.266 5.8663ZM19.0214 6.01524L15.8513 9.55694L16.1493 9.82371L19.3194 6.28202L19.0214 6.01524ZM15.8513 9.55694C15.6473 9.78483 15.332 9.94006 14.9895 9.99479C14.647 10.0495 14.2999 10.0002 14.0366 9.8473L13.8357 10.1932C14.1945 10.4015 14.6389 10.4559 15.0527 10.3898C15.4665 10.3236 15.8722 10.1333 16.1493 9.82371L15.8513 9.55694ZM14.0365 9.8473L9.99648 7.50221L9.79567 7.84815L13.8357 10.1932L14.0365 9.8473ZM9.99648 7.50221C9.91125 7.45273 9.81316 7.43002 9.7149 7.43687L9.74271 7.8359C9.76131 7.8346 9.77975 7.83891 9.79568 7.84815L9.99648 7.50221ZM9.7149 7.43687C9.61664 7.44372 9.52269 7.47981 9.4451 7.54043L9.69136 7.85564C9.7062 7.84404 9.72411 7.83719 9.74271 7.8359L9.7149 7.43687ZM9.44509 7.54044C9.10246 7.80815 8.77265 8.09951 8.45775 8.41441L8.74059 8.69725C9.04397 8.39387 9.36157 8.11332 9.69137 7.85563L9.44509 7.54044ZM9.15458 9.11124C9.39368 8.87215 9.64486 8.65093 9.90377 8.4403L9.65134 8.13001C9.38441 8.34717 9.12259 8.57755 8.87174 8.8284L9.15458 9.11124ZM9.67714 8.45812L13.5402 10.7006L13.741 10.3547L9.87796 8.11219L9.67714 8.45812ZM13.5402 10.7006C14.5131 11.2654 15.834 11.0538 16.5857 10.214L16.2877 9.94725C15.6619 10.6463 14.5492 10.8239 13.741 10.3547L13.5402 10.7006ZM16.5857 10.214L19.6206 6.82332L19.3226 6.55655L16.2877 9.94725L16.5857 10.214ZM19.4019 6.87737C20.0097 7.10362 20.5986 7.39309 21.1594 7.74588L21.3724 7.40731C20.7882 7.0398 20.1747 6.73821 19.5414 6.5025L19.4019 6.87737ZM21.0704 7.53413L20.1001 11.9999L20.491 12.0849L21.4613 7.61906L21.0704 7.53413ZM20.1001 11.9999C19.861 13.1008 20.4661 14.2918 21.4959 14.7452L21.6571 14.3792C20.8018 14.0026 20.2921 13.0004 20.491 12.0848L20.1001 11.9999ZM21.4959 14.7452L25.7729 16.6282L25.934 16.2621L21.6571 14.3792L21.4959 14.7452ZM25.6537 16.4345C25.6201 17.0663 25.5252 17.695 25.3687 18.3117L25.7565 18.4101C25.9194 17.7679 26.0182 17.1134 26.0532 16.4558L25.6537 16.4345ZM25.542 18.162L20.8713 18.6453L20.9124 19.0431L25.5832 18.5599L25.542 18.162ZM20.8713 18.6453C19.7512 18.7612 18.8045 19.7079 18.6886 20.8279L19.0865 20.8691C19.1829 19.9374 19.9807 19.1396 20.9124 19.0431L20.8713 18.6453ZM18.6886 20.8279L18.2053 25.4987L18.6032 25.5398L19.0865 20.8691L18.6886 20.8279ZM18.3551 25.3254C17.7383 25.4819 17.1096 25.5768 16.4779 25.6104L16.4991 26.0098C17.1567 25.9749 17.8112 25.876 18.4534 25.7131L18.3551 25.3254ZM16.6715 25.7295L14.7886 21.4526L14.4225 21.6138L16.3055 25.8907L16.6715 25.7295ZM14.7886 21.4526C14.3352 20.4227 13.1442 19.8176 12.0434 20.0567L12.1283 20.4476C13.0438 20.2487 14.0459 20.7584 14.4225 21.6138L14.7886 21.4526ZM12.0433 20.0567L7.57746 21.0271L7.6624 21.418L12.1283 20.4476L12.0433 20.0567ZM7.78922 21.116C7.43643 20.5553 7.14696 19.9664 6.92071 19.3585L6.54583 19.4981C6.78154 20.1314 7.08313 20.7449 7.45065 21.329L7.78922 21.116ZM6.86666 19.5773L10.2574 16.5424L9.99058 16.2443L6.59988 19.2793L6.86666 19.5773ZM10.2574 16.5424C11.0972 15.7907 11.3087 14.4697 10.744 13.4968L10.398 13.6977C10.8672 14.5058 10.6897 15.6186 9.99058 16.2443L10.2574 16.5424ZM10.744 13.4968L8.50146 9.63381L8.15553 9.83462L10.398 13.6977L10.744 13.4968ZM8.48364 9.86043C8.69427 9.60153 8.91549 9.35034 9.15458 9.11124L8.87174 8.8284C8.62088 9.07926 8.39051 9.34107 8.17335 9.608L8.48364 9.86043ZM24.1643 7.79303C24.7152 8.34311 25.2086 8.94835 25.6372 9.59819L25.9711 9.37796C25.5277 8.70564 25.0171 8.07933 24.4469 7.50998L24.1643 7.79303ZM25.6372 9.59822C26.0534 10.2291 26.4056 10.9004 26.6886 11.6013L27.0595 11.4515C26.7666 10.7261 26.402 10.0311 25.971 9.37793L25.6372 9.59822ZM26.6885 11.6012C27.244 12.9787 27.5282 14.4516 27.5251 15.9384L27.9251 15.9392C27.9283 14.4009 27.6342 12.8769 27.0595 11.4516L26.6885 11.6012ZM27.5251 15.9386C27.5236 17.4254 27.2348 18.8993 26.6751 20.2786L27.0457 20.4291C27.6248 19.0021 27.9236 17.4773 27.9251 15.939L27.5251 15.9386ZM26.6751 20.2786C26.39 20.9803 26.0357 21.6529 25.6174 22.2851L25.951 22.5058C26.3839 21.8514 26.7506 21.1554 27.0457 20.4291L26.6751 20.2786ZM25.6174 22.2852C25.1867 22.9364 24.6914 23.5433 24.1387 24.0951L24.4213 24.3782C24.9932 23.8072 25.5056 23.1794 25.951 22.5058L25.6174 22.2852ZM24.1385 24.0954C23.5866 24.648 22.9798 25.1434 22.3285 25.5741L22.5491 25.9077C23.2227 25.4623 23.8505 24.9499 24.4215 24.378L24.1385 24.0954ZM22.3285 25.5741C21.6962 25.9923 21.0237 26.3467 20.3219 26.6318L20.4725 27.0024C21.1987 26.7073 21.8948 26.3406 22.5492 25.9077L22.3285 25.5741ZM20.322 26.6318C18.9426 27.1915 17.4688 27.4803 15.9819 27.4818L15.9823 27.8818C17.5207 27.8802 19.0455 27.5814 20.4724 27.0024L20.322 26.6318ZM15.9817 27.4818C14.4949 27.4849 13.022 27.2006 11.6445 26.6452L11.4949 27.0162C12.9203 27.5909 14.4442 27.885 15.9826 27.8818L15.9817 27.4818ZM11.6446 26.6452C10.9438 26.3623 10.2724 26.0101 9.64156 25.5938L9.42127 25.9277C10.0744 26.3586 10.7694 26.7233 11.4949 27.0161L11.6446 26.6452ZM9.64153 25.5938C8.9917 25.1652 8.38646 24.6718 7.83638 24.1209L7.55332 24.4035C8.12267 24.9737 8.74899 25.4843 9.4213 25.9277L9.64153 25.5938ZM7.83617 24.1207C7.28528 23.5706 6.79227 22.9658 6.36325 22.3155L6.02937 22.5358C6.47318 23.2085 6.98333 23.8344 7.55353 24.4038L7.83617 24.1207ZM6.36325 22.3155C5.94701 21.6846 5.59478 21.0133 5.31185 20.3125L4.94094 20.4622C5.2338 21.1877 5.59843 21.8826 6.02937 22.5358L6.36325 22.3155ZM5.31188 20.3125C4.75647 18.9351 4.47222 17.4622 4.47533 15.9754L4.07533 15.9745C4.07211 17.5128 4.36621 19.0368 4.9409 20.4621L5.31188 20.3125ZM4.47533 15.9751C4.4768 14.4883 4.76559 13.0145 5.32532 11.6351L4.95467 11.4847C4.37565 12.9116 4.07685 14.4364 4.07533 15.9747L4.47533 15.9751ZM5.32529 11.6352C5.61041 10.9334 5.96476 10.2609 6.383 9.6286L6.04939 9.40791C5.6165 10.0623 5.24978 10.7583 4.9547 11.4846L5.32529 11.6352ZM6.38302 9.62857C6.81368 8.97732 7.30904 8.37046 7.86172 7.81859L7.57909 7.53554C7.00723 8.10655 6.4948 8.73435 6.04937 9.40794L6.38302 9.62857ZM7.86193 7.81838C8.4138 7.2657 9.02066 6.77033 9.67191 6.33968L9.45128 6.00603C8.77769 6.45146 8.1499 6.96388 7.57888 7.53574L7.86193 7.81838ZM9.67194 6.33966C10.3042 5.92141 10.9767 5.56706 11.6785 5.28194L11.5279 4.91136C10.8017 5.20643 10.1057 5.57316 9.45125 6.00605L9.67194 6.33966ZM11.6784 5.28198C13.0578 4.72225 14.5317 4.43346 16.0185 4.43198L16.0181 4.03198C14.4797 4.03351 12.955 4.33231 11.528 4.91133L11.6784 5.28198ZM16.0187 4.43198C17.5055 4.42888 18.9784 4.71313 20.3559 5.26854L20.5055 4.89756C19.0802 4.32287 17.5562 4.02877 16.0179 4.03198L16.0187 4.43198ZM20.3558 5.26851C21.0566 5.55143 21.728 5.90367 22.3589 6.31991L22.5791 5.98603C21.926 5.55509 21.231 5.19046 20.5056 4.89759L20.3558 5.26851ZM22.3589 6.31993C23.0087 6.74851 23.614 7.24193 24.164 7.79282L24.4471 7.51019C23.8777 6.94 23.2514 6.42942 22.5791 5.98601L22.3589 6.31993ZM23.749 8.20831C24.2722 8.73065 24.7403 9.30486 25.1479 9.92203L25.4817 9.70162C25.0594 9.06208 24.5741 8.46685 24.0316 7.92524L23.749 8.20831ZM25.1477 9.9218C25.5421 10.5209 25.8762 11.1575 26.1447 11.8223L26.5156 11.6725C26.2371 10.9831 25.8907 10.323 25.4818 9.70185L25.1477 9.9218ZM26.1446 11.8223C26.6723 13.1296 26.9418 14.5279 26.9388 15.9393L27.3388 15.9401C27.3419 14.4773 27.0626 13.0279 26.5156 11.6725L26.1446 11.8223ZM26.9388 15.9395C26.9374 17.3509 26.6637 18.7501 26.1319 20.0593L26.5025 20.2098C27.0537 18.8529 27.3374 17.4027 27.3388 15.9399L26.9388 15.9395ZM26.1319 20.0592C25.8614 20.7249 25.5253 21.3626 25.129 21.9631L25.4628 22.1834C25.8736 21.5611 26.222 20.9 26.5025 20.2098L26.1319 20.0592ZM25.1291 21.9628C24.7196 22.5814 24.2496 23.1571 23.7247 23.6812L24.0073 23.9642C24.5514 23.421 25.0384 22.8244 25.4626 22.1836L25.1291 21.9628ZM23.7245 23.6814C23.2004 24.2062 22.6247 24.6763 22.0062 25.0858L22.227 25.4193C22.8677 24.9951 23.4644 24.508 24.0076 23.964L23.7245 23.6814ZM22.0064 25.0856C21.406 25.4819 20.7682 25.818 20.1026 26.0886L20.2532 26.4591C20.9433 26.1786 21.6044 25.8302 22.2268 25.4194L22.0064 25.0856ZM20.1026 26.0885C18.7934 26.6203 17.3942 26.8941 15.9829 26.8955L15.9832 27.2955C17.4461 27.2941 18.8962 27.0103 20.2531 26.4591L20.1026 26.0885ZM15.9826 26.8955C14.5712 26.8985 13.173 26.629 11.8656 26.1013L11.7159 26.4722C13.0712 27.0193 14.5206 27.2986 15.9835 27.2955L15.9826 26.8955ZM11.8656 26.1013C11.2009 25.8328 10.5642 25.4988 9.96514 25.1044L9.74519 25.4385C10.3663 25.8474 11.0265 26.1938 11.7159 26.4722L11.8656 26.1013ZM9.96537 25.1045C9.3482 24.697 8.77399 24.2288 8.25165 23.7056L7.96859 23.9883C8.51019 24.5307 9.10543 25.016 9.74496 25.4383L9.96537 25.1045ZM8.25143 23.7054C7.72827 23.1831 7.26007 22.6089 6.85255 21.9917L6.51876 22.2121C6.94105 22.8517 7.42635 23.4469 7.96881 23.9885L8.25143 23.7054ZM6.85271 21.9919C6.4583 21.3928 6.12423 20.7562 5.85576 20.0914L5.48486 20.2412C5.76327 20.9306 6.10968 21.5907 6.51861 22.2119L6.85271 21.9919ZM5.85577 20.0915C5.32807 18.7841 5.05862 17.3858 5.06161 15.9745L4.66161 15.9736C4.65851 17.4364 4.93779 18.8858 5.48485 20.2412L5.85577 20.0915ZM5.06161 15.9742C5.06297 14.5628 5.33674 13.1637 5.86853 11.8545L5.49794 11.7039C4.94676 13.0608 4.66302 14.511 4.66161 15.9738L5.06161 15.9742ZM5.86852 11.8545C6.13907 11.1888 6.47515 10.5511 6.87147 9.95067L6.53763 9.73032C6.12686 10.3526 5.77846 11.0137 5.49795 11.7039L5.86852 11.8545ZM6.87131 9.9509C7.2808 9.33238 7.75084 8.75663 8.27571 8.23258L7.99308 7.94952C7.44905 8.49271 6.96198 9.08935 6.53778 9.73009L6.87131 9.9509ZM8.27593 8.23236C8.79997 7.7075 9.37572 7.23746 9.99425 6.82797L9.77344 6.49444C9.13269 6.91864 8.53606 7.4057 7.99286 7.94974L8.27593 8.23236ZM9.99402 6.82812C10.5944 6.43181 11.2322 6.09573 11.8979 5.82517L11.7473 5.45461C11.0571 5.73511 10.396 6.08351 9.77366 6.49429L9.99402 6.82812ZM11.8978 5.82519C13.207 5.29339 14.6062 5.01963 16.0176 5.01827L16.0172 4.61827C14.5543 4.61968 13.1042 4.90342 11.7473 5.45459L11.8978 5.82519ZM16.0178 5.01827C17.4292 5.01528 18.8274 5.28473 20.1348 5.81243L20.2845 5.44151C18.9292 4.89445 17.4798 4.61517 16.017 4.61827L16.0178 5.01827ZM20.1348 5.81242C20.7996 6.08089 21.4362 6.41496 22.0353 6.80936L22.2552 6.47526C21.6341 6.06634 20.974 5.71993 20.2846 5.44152L20.1348 5.81242ZM22.0351 6.80921C22.6522 7.21673 23.2264 7.68493 23.7488 8.20809L24.0318 7.92546C23.4902 7.38301 22.895 6.8977 22.2555 6.47541L22.0351 6.80921ZM23.2632 8.67431C24.2328 9.64226 24.998 10.7968 25.5125 12.0673L25.8832 11.9171C25.3486 10.597 24.5534 9.39718 23.5458 8.39123L23.2632 8.67431ZM25.5124 12.067C26.0071 13.2941 26.2605 14.6058 26.2576 15.9308L26.6576 15.9317C26.6606 14.555 26.3973 13.1923 25.8834 11.9174L25.5124 12.067ZM26.2576 15.9311C26.2564 17.2553 25.9994 18.5683 25.5004 19.7974L25.871 19.9479C26.3893 18.6711 26.6563 17.3072 26.6576 15.9314L26.2576 15.9311ZM25.5005 19.7972C24.982 21.0694 24.2135 22.2261 23.2408 23.1972L23.5234 23.4803C24.534 22.4714 25.3323 21.2698 25.8709 19.9481L25.5005 19.7972ZM23.2406 23.1975C22.2694 24.1702 21.1127 24.9387 19.8405 25.4572L19.9915 25.8276C21.3131 25.289 22.5148 24.4906 23.5236 23.4801L23.2406 23.1975ZM19.8408 25.4571C18.6116 25.956 17.2987 26.2131 15.9744 26.2143L15.9748 26.6143C17.3506 26.613 18.7144 26.346 19.9912 25.8277L19.8408 25.4571ZM15.9742 26.2143C14.6491 26.2171 13.3374 25.9637 12.1103 25.469L11.9608 25.84C13.2356 26.354 14.5984 26.6172 15.975 26.6143L15.9742 26.2143ZM12.1106 25.4692C10.8401 24.9546 9.686 24.1898 8.71806 23.2203L8.43498 23.5029C9.44094 24.5105 10.6403 25.3053 11.9605 25.8399L12.1106 25.4692ZM8.71782 23.22C7.74784 22.2517 6.98346 21.098 6.46894 19.8275L6.09819 19.9776C6.63283 21.2978 7.42715 22.4967 8.43522 23.5031L8.71782 23.22ZM6.46904 19.8277C5.97394 18.6002 5.72054 17.2886 5.7234 15.9635L5.3234 15.9627C5.32043 17.3393 5.5837 18.7021 6.09808 19.9774L6.46904 19.8277ZM5.7234 15.9633C5.72463 14.639 5.98166 13.3261 6.48099 12.0974L6.11042 11.9468C5.59171 13.2232 5.32467 14.5871 5.3234 15.9629L5.7234 15.9633ZM6.48094 12.0975C6.99901 10.825 7.76771 9.66851 8.74047 8.69737L8.45787 8.41429C7.44732 9.42315 6.64872 10.6245 6.11047 11.9467L6.48094 12.0975ZM8.74071 8.69714C9.71185 7.72437 10.8683 6.95568 12.1409 6.43761L11.99 6.06713C10.6679 6.60539 9.46649 7.40398 8.45763 8.41453L8.74071 8.69714ZM12.1407 6.43766C13.3694 5.93833 14.6823 5.68129 16.0066 5.68007L16.0062 5.28007C14.6305 5.28134 13.2665 5.54837 11.9901 6.06709L12.1407 6.43766ZM16.0069 5.68007C17.3319 5.67721 18.6436 5.9306 19.8711 6.42571L20.0207 6.05475C18.7454 5.54036 17.3827 5.2771 16.006 5.28007L16.0069 5.68007ZM19.8708 6.4256C21.1413 6.94013 22.2946 7.7041 23.263 8.67407L23.546 8.39147C22.5397 7.38339 21.3411 6.58949 20.021 6.05485L19.8708 6.4256ZM22.8479 9.08959C23.762 10.0021 24.4834 11.0903 24.9686 12.2883L25.3393 12.1381C24.834 10.8905 24.0827 9.75697 23.1305 8.80649L22.8479 9.08959ZM24.9685 12.288C25.4351 13.4455 25.6737 14.6825 25.6713 15.9318L26.0713 15.9325C26.0738 14.6318 25.8253 13.3437 25.3394 12.1384L24.9685 12.288ZM25.6713 15.932C25.6702 17.1807 25.4274 18.419 24.9572 19.5781L25.3278 19.7285C25.8173 18.5219 26.0702 17.2327 26.0713 15.9323L25.6713 15.932ZM24.9573 19.5778C24.4683 20.7775 23.7439 21.8678 22.8268 22.7832L23.1094 23.0663C24.0643 22.1131 24.8186 20.9779 25.3277 19.7288L24.9573 19.5778ZM22.8266 22.7835C21.9111 23.7006 20.8208 24.425 19.6212 24.9139L19.7721 25.2844C21.0212 24.7753 22.1564 24.021 23.1097 23.0661L22.8266 22.7835ZM19.6215 24.9138C18.4624 25.3841 17.2241 25.6269 15.9753 25.628L15.9757 26.028C17.276 26.0268 18.5653 25.774 19.7718 25.2845L19.6215 24.9138ZM15.9751 25.628C14.7259 25.6303 13.4888 25.3917 12.3313 24.9251L12.1818 25.2961C13.3871 25.782 14.6752 26.0304 15.9759 26.028L15.9751 25.628ZM12.3316 24.9252C11.1337 24.44 10.0458 23.7191 9.13333 22.805L8.85024 23.0876C9.80072 24.0398 10.9338 24.7907 12.1815 25.296L12.3316 24.9252ZM9.13308 22.8048C8.21857 21.8919 7.49763 20.804 7.01244 19.6061L6.64169 19.7562C7.14701 21.0039 7.8979 22.137 8.85049 23.0879L9.13308 22.8048ZM7.01256 19.6064C6.54596 18.4489 6.30735 17.2118 6.30969 15.9626L5.90969 15.9618C5.90726 17.2625 6.15569 18.5506 6.64157 19.7559L7.01256 19.6064ZM6.30969 15.9624C6.3108 14.7136 6.55361 13.4753 7.02424 12.3167L6.65365 12.1662C6.16368 13.3724 5.91084 14.6616 5.90969 15.962L6.30969 15.9624ZM7.02418 12.3169C7.5127 11.1169 8.23734 10.0269 9.15446 9.11137L8.87186 8.82828C7.91696 9.78149 7.16241 10.9165 6.65371 12.166L7.02418 12.3169ZM9.15471 9.11112C10.0702 8.194 11.1602 7.46937 12.3602 6.98085L12.2094 6.61037C10.9598 7.11908 9.82483 7.87362 8.87161 8.82853L9.15471 9.11112ZM12.36 6.98091C13.5187 6.51027 14.7569 6.26746 16.0057 6.26635L16.0053 5.86635C14.705 5.86751 13.4157 6.12035 12.2095 6.61032L12.36 6.98091ZM16.0059 6.26635C17.2552 6.26402 18.4922 6.50262 19.6497 6.96923L19.7992 6.59824C18.594 6.11235 17.3059 5.86393 16.0052 5.86635L16.0059 6.26635ZM19.6494 6.96911C20.8473 7.4543 21.9352 8.17524 22.8477 9.08933L23.1308 8.80674C22.1803 7.85456 21.0472 7.10368 19.7995 6.59836L19.6494 6.96911Z" fill="white" mask="url(#path-2-outside-1)"/>
</g>
<defs>
<clipPath id="clip0">
<rect width="32" height="32" fill="white"/>
</clipPath>
</defs>
</svg>
