<svg width="32" height="32" viewBox="0 0 32 32" fill="none" xmlns="http://www.w3.org/2000/svg">
<g clip-path="url(#clip0)">
<path d="M30.5874 14.5874C31.3674 15.3674 31.367 16.633 30.5874 17.4126L17.4125 30.5875C16.6325 31.3675 15.3669 31.3672 14.5873 30.5875L1.41231 17.4126C0.632343 16.6326 0.632667 15.367 1.41231 14.5874L14.5873 1.41246C15.3672 0.632486 16.6328 0.632807 17.4125 1.41245L30.5874 14.5874ZM15.5293 15.5294C15.2694 15.7893 15.2694 16.2107 15.5293 16.4706C15.7892 16.7305 16.2105 16.7305 16.4705 16.4706C16.7304 16.2107 16.7304 15.7893 16.4705 15.5294C16.2105 15.2695 15.7892 15.2695 15.5293 15.5294ZM18.3528 14.5882C17.963 14.9781 17.963 15.6101 18.3528 16C18.7427 16.3899 19.3747 16.3899 19.7646 16C20.1544 15.6101 20.1544 14.9781 19.7646 14.5882C19.3747 14.1984 18.7427 14.1984 18.3528 14.5882ZM17.4116 17.4118C17.1517 17.6717 17.1517 18.0931 17.4116 18.353C17.6715 18.6129 18.0929 18.6129 18.3528 18.353C18.6127 18.0931 18.6127 17.6717 18.3528 17.4118C18.0929 17.1519 17.6715 17.1519 17.4116 17.4118ZM19.294 19.2941C19.0341 19.554 19.0341 19.9754 19.294 20.2353C19.5539 20.4952 19.9753 20.4952 20.2352 20.2353C20.4951 19.9754 20.4951 19.554 20.2352 19.2941C19.9753 19.0342 19.5539 19.0342 19.294 19.2941ZM9.88216 9.8823C9.62226 10.1422 9.62226 10.5636 9.88216 10.8235C10.1421 11.0834 10.5634 11.0834 10.8233 10.8235C11.0832 10.5636 11.0832 10.1422 10.8233 9.8823C10.5634 9.6224 10.1421 9.6224 9.88216 9.8823ZM11.7645 11.7647C11.5046 12.0246 11.5046 12.446 11.7645 12.7059C12.0244 12.9658 12.4458 12.9658 12.7057 12.7059C12.9656 12.446 12.9656 12.0246 12.7057 11.7647C12.4458 11.5048 12.0244 11.5048 11.7645 11.7647ZM13.6469 13.647C13.387 13.9069 13.387 14.3283 13.6469 14.5882C13.9068 14.8481 14.3282 14.8481 14.5881 14.5882C14.848 14.3283 14.848 13.9069 14.5881 13.647C14.3282 13.3871 13.9068 13.3871 13.6469 13.647ZM21.1764 21.1765C20.9165 21.4364 20.9165 21.8578 21.1764 22.1177C21.4363 22.3776 21.8577 22.3776 22.1176 22.1177C22.3775 21.8578 22.3775 21.4364 22.1176 21.1765C21.8577 20.9166 21.4363 20.9166 21.1764 21.1765ZM20.7058 16.9412C20.3159 17.331 20.3159 17.9631 20.7058 18.353C21.0956 18.7428 21.7277 18.7428 22.1176 18.353C22.5074 17.9631 22.5074 17.331 22.1176 16.9412C21.7277 16.5513 21.0956 16.5513 20.7058 16.9412ZM23.0587 19.2941C22.6689 19.684 22.6689 20.3161 23.0587 20.7059C23.4486 21.0958 24.0807 21.0958 24.4705 20.7059C24.8604 20.3161 24.8604 19.684 24.4705 19.2941C24.0807 18.9043 23.4486 18.9043 23.0587 19.2941ZM11.2939 7.52934C10.9041 7.91919 10.9041 8.55126 11.2939 8.94111C11.6838 9.33097 12.3159 9.33097 12.7057 8.94111C13.0956 8.55126 13.0956 7.91919 12.7057 7.52934C12.3159 7.13949 11.6838 7.13949 11.2939 7.52934ZM13.6469 9.8823C13.257 10.2722 13.257 10.9042 13.6469 11.2941C14.0367 11.6839 14.6688 11.6839 15.0587 11.2941C15.4485 10.9042 15.4485 10.2722 15.0587 9.8823C14.6688 9.49245 14.0367 9.49245 13.6469 9.8823ZM15.9999 12.2353C15.61 12.6251 15.61 13.2572 15.9999 13.647C16.3897 14.0369 17.0218 14.0369 17.4116 13.647C17.8015 13.2572 17.8015 12.6251 17.4116 12.2353C17.0218 11.8454 16.3897 11.8454 15.9999 12.2353ZM20.4705 12C19.9507 12.5198 19.9507 13.3625 20.4705 13.8823C20.9903 14.4021 21.8331 14.4021 22.3529 13.8823C22.8727 13.3625 22.8727 12.5198 22.3529 12C21.8331 11.4802 20.9903 11.4802 20.4705 12ZM22.8234 14.3529C22.3036 14.8727 22.3036 15.7155 22.8234 16.2353C23.3433 16.7551 24.186 16.7551 24.7058 16.2353C25.2256 15.7155 25.2256 14.8727 24.7058 14.3529C24.186 13.8331 23.3433 13.8331 22.8234 14.3529ZM25.1764 16.7059C24.6566 17.2257 24.6566 18.0685 25.1764 18.5883C25.6962 19.1081 26.539 19.1081 27.0588 18.5883C27.5786 18.0685 27.5786 17.2257 27.0588 16.7059C26.539 16.1861 25.6962 16.1861 25.1764 16.7059ZM13.4116 4.94108C12.8918 5.46088 12.8918 6.30365 13.4116 6.82345C13.9314 7.34325 14.7742 7.34325 15.294 6.82345C15.8138 6.30365 15.8138 5.46088 15.294 4.94108C14.7742 4.42128 13.9314 4.42128 13.4116 4.94108ZM15.7646 7.29404C15.2448 7.81384 15.2448 8.65661 15.7646 9.17641C16.2844 9.69621 17.1271 9.69621 17.6469 9.17641C18.1667 8.65661 18.1667 7.81384 17.6469 7.29404C17.1271 6.77424 16.2844 6.77424 15.7646 7.29404ZM18.1175 9.647C17.5977 10.1668 17.5977 11.0096 18.1175 11.5294C18.6373 12.0492 19.4801 12.0492 19.9999 11.5294C20.5197 11.0096 20.5197 10.1668 19.9999 9.647C19.4801 9.1272 18.6373 9.1272 18.1175 9.647ZM14.6026 2.80885C14.6701 2.89554 14.7437 2.97902 14.8234 3.05871C15.3856 3.62092 16.1367 3.87909 16.8724 3.83322C16.8265 4.56893 17.0847 5.32005 17.6469 5.88226C18.2091 6.44448 18.9603 6.70265 19.696 6.65678C19.6501 7.39248 19.9083 8.1436 20.4705 8.70582C21.0327 9.26803 21.7838 9.5262 22.5195 9.48033C22.4737 10.216 22.7318 10.9672 23.294 11.5294C23.8563 12.0916 24.6074 12.3498 25.3431 12.3039C25.2972 13.0396 25.5554 13.7907 26.1176 14.3529C26.6798 14.9151 27.4309 15.1733 28.1666 15.1274C28.1208 15.8631 28.3789 16.6143 28.9411 17.1765C29.0208 17.2562 29.1043 17.3297 29.191 17.3972L29.8815 16.7067C30.2714 16.3168 30.2715 15.6833 29.8815 15.2933L16.7066 2.11834C16.3166 1.72841 15.6831 1.72836 15.2931 2.11834L14.6026 2.80885Z" fill="white"/>
</g>
<defs>
<clipPath id="clip0">
<rect width="32" height="32" fill="white"/>
</clipPath>
</defs>
</svg>
