<svg width="32" height="32" viewBox="0 0 32 32" fill="none" xmlns="http://www.w3.org/2000/svg">
<mask id="path-1-outside-1" maskUnits="userSpaceOnUse" x="1" y="9" width="30" height="13" fill="black">
<rect fill="white" x="1" y="9" width="30" height="13"/>
<path d="M29.6804 10C29.6591 10.0003 29.6379 10.0027 29.6171 10.0073C21.0595 11.8703 11.6394 13.6863 2.32399 13.4417C2.26749 13.4402 2.21163 13.454 2.16224 13.4814C2.11285 13.5089 2.07174 13.5491 2.04321 13.5979C2.01467 13.6467 1.99975 13.7023 2 13.7588C2.00026 13.8153 2.01568 13.8707 2.04466 13.9192L4.8538 18.623C5.32323 19.409 6.31662 19.9729 7.23216 19.9729H20.3429C20.6743 19.9729 21.2841 20.2254 21.5185 20.4598L21.7527 20.694C22.1579 21.0992 22.8017 21.3658 23.3748 21.3658H25.3414C25.956 21.3658 26.5246 20.954 26.7162 20.37L29.9843 10.4142C29.9999 10.3664 30.004 10.3157 29.9961 10.2661C29.9882 10.2165 29.9685 10.1695 29.9388 10.129C29.9091 10.0885 29.8702 10.0556 29.8252 10.0332C29.7803 10.0108 29.7306 9.99941 29.6804 10ZM29.213 10.739L26.1164 20.1731C26.026 20.4485 25.6312 20.7344 25.3414 20.7344H23.3748C23.0434 20.7344 22.4334 20.4818 22.1991 20.2475L21.9649 20.0133C21.5597 19.6082 20.916 19.3414 20.3429 19.3414H7.23216C6.61003 19.3414 5.71492 18.8334 5.39594 18.2993L2.87613 14.0802C11.9023 14.2376 20.9593 12.5259 29.213 10.739Z"/>
<path d="M15.6878 12.7538C15.6167 12.7522 15.5471 12.7746 15.4903 12.8176C14.7969 13.3259 14.2613 14.0643 13.9677 14.9303C13.9538 14.9697 13.9478 15.0115 13.9502 15.0532C13.9525 15.0949 13.9631 15.1358 13.9814 15.1734C13.9997 15.2109 14.0252 15.2445 14.0566 15.2722C14.0879 15.2998 14.1244 15.321 14.164 15.3344C14.2036 15.3478 14.2455 15.3532 14.2872 15.3504C14.3289 15.3475 14.3696 15.3364 14.4069 15.3176C14.4443 15.2989 14.4776 15.2729 14.5048 15.2412C14.5321 15.2095 14.5528 15.1728 14.5657 15.133C14.8193 14.385 15.2807 13.7541 15.8636 13.3268C15.9176 13.2883 15.9582 13.2338 15.9795 13.171C16.0009 13.1082 16.0019 13.0403 15.9824 12.9769C15.963 12.9135 15.9241 12.8578 15.8712 12.8177C15.8183 12.7777 15.7541 12.7553 15.6878 12.7538Z"/>
<path d="M25.3324 11.1841C25.265 11.1863 25.2001 11.21 25.1471 11.2517C25.0942 11.2934 25.056 11.351 25.0381 11.416C23.7343 15.9069 22.309 18.5701 20.9953 19.3892C20.9594 19.4107 20.9281 19.4392 20.9033 19.473C20.8785 19.5068 20.8607 19.5452 20.8509 19.5859C20.8411 19.6267 20.8394 19.669 20.8461 19.7103C20.8528 19.7517 20.8677 19.7913 20.8899 19.8269C20.912 19.8625 20.9411 19.8933 20.9753 19.9175C21.0094 19.9417 21.0481 19.9589 21.089 19.9681C21.1299 19.9772 21.1722 19.9781 21.2135 19.9707C21.2547 19.9633 21.2941 19.9478 21.3293 19.925C22.9655 18.9049 24.3262 16.1328 25.6445 11.5919C25.6592 11.5439 25.6622 11.4931 25.6533 11.4437C25.6444 11.3942 25.6238 11.3477 25.5933 11.3078C25.5628 11.2679 25.5232 11.2359 25.4778 11.2144C25.4324 11.1929 25.3826 11.1825 25.3324 11.1841Z"/>
<path d="M5.45502 18.3172C5.41318 18.3166 5.37164 18.3243 5.33282 18.3399C5.294 18.3555 5.25866 18.3787 5.22887 18.4081C5.19907 18.4375 5.17542 18.4725 5.15927 18.5111C5.14312 18.5497 5.1348 18.5911 5.1348 18.6329C5.1348 18.6748 5.14312 18.7162 5.15927 18.7548C5.17542 18.7934 5.19907 18.8284 5.22887 18.8578C5.25866 18.8871 5.294 18.9103 5.33282 18.9259C5.37164 18.9415 5.41318 18.9492 5.45502 18.9486H22.0502C22.092 18.9492 22.1335 18.9415 22.1723 18.9259C22.2112 18.9103 22.2465 18.8871 22.2763 18.8578C22.3061 18.8284 22.3298 18.7934 22.3459 18.7548C22.362 18.7162 22.3704 18.6748 22.3704 18.6329C22.3704 18.5911 22.362 18.5497 22.3459 18.5111C22.3298 18.4725 22.3061 18.4375 22.2763 18.4081C22.2465 18.3787 22.2112 18.3555 22.1723 18.3399C22.1335 18.3243 22.092 18.3166 22.0502 18.3172H5.45502Z"/>
<path d="M13.148 13.1259C13.0852 13.1259 13.0238 13.1446 12.9717 13.1797C12.9196 13.2148 12.8792 13.2647 12.8555 13.3229C12.8319 13.3811 12.8262 13.445 12.8391 13.5065C12.852 13.568 12.883 13.6242 12.928 13.668C13.6095 14.3497 14.0455 15.3464 14.0455 16.4614C14.0455 17.1206 13.8933 17.7381 13.6279 18.274C13.6086 18.3113 13.597 18.352 13.5936 18.3938C13.5903 18.4356 13.5953 18.4776 13.6084 18.5175C13.6214 18.5573 13.6423 18.5941 13.6697 18.6258C13.6972 18.6575 13.7307 18.6834 13.7683 18.702C13.8058 18.7206 13.8467 18.7316 13.8886 18.7342C13.9304 18.7368 13.9724 18.7311 14.012 18.7173C14.0516 18.7036 14.088 18.6821 14.1193 18.6541C14.1505 18.6261 14.1758 18.5921 14.1937 18.5542C14.5023 17.9313 14.6769 17.2177 14.6769 16.4614C14.6769 15.1821 14.1782 14.0254 13.3746 13.2216C13.3451 13.1913 13.3099 13.1672 13.271 13.1508C13.2321 13.1343 13.1903 13.1259 13.148 13.1259Z"/>
<path d="M13.148 13.1259C13.0852 13.1259 13.0238 13.1446 12.9717 13.1797C12.9196 13.2148 12.8792 13.2647 12.8555 13.3229C12.8319 13.3811 12.8262 13.445 12.8391 13.5065C12.852 13.568 12.883 13.6242 12.928 13.668C13.6095 14.3497 14.0455 15.3464 14.0455 16.4614C14.0455 17.1206 13.8933 17.7381 13.6279 18.274C13.6086 18.3113 13.597 18.352 13.5936 18.3938C13.5903 18.4356 13.5953 18.4776 13.6084 18.5175C13.6214 18.5573 13.6423 18.5941 13.6697 18.6258C13.6972 18.6575 13.7307 18.6834 13.7683 18.702C13.8058 18.7206 13.8467 18.7316 13.8886 18.7342C13.9304 18.7368 13.9724 18.7311 14.012 18.7173C14.0516 18.7036 14.088 18.6821 14.1193 18.6541C14.1505 18.6261 14.1758 18.5921 14.1937 18.5542C14.5023 17.9313 14.6769 17.2177 14.6769 16.4614C14.6769 15.1821 14.1782 14.0254 13.3746 13.2216C13.3451 13.1913 13.3099 13.1672 13.271 13.1508C13.2321 13.1343 13.1903 13.1259 13.148 13.1259Z"/>
<path d="M7.91823 13.5547C7.86695 13.5534 7.81612 13.5646 7.77013 13.5873C7.72415 13.61 7.68439 13.6436 7.65431 13.6852C7.08918 14.4428 6.75267 15.4108 6.75267 16.4614C6.75267 17.2517 6.9432 17.9953 7.27804 18.6376C7.29685 18.675 7.32291 18.7083 7.35469 18.7355C7.38647 18.7627 7.42335 18.7833 7.46317 18.7962C7.50299 18.809 7.54497 18.8138 7.58667 18.8103C7.62836 18.8068 7.66894 18.795 7.70605 18.7756C7.74315 18.7563 7.77604 18.7298 7.8028 18.6976C7.82956 18.6654 7.84966 18.6283 7.86194 18.5883C7.87421 18.5483 7.87841 18.5062 7.87429 18.4646C7.87017 18.4229 7.85782 18.3825 7.83794 18.3457C7.55006 17.7935 7.3841 17.1502 7.3841 16.4614C7.3841 15.5457 7.67764 14.71 8.16044 14.0627C8.19593 14.0165 8.21794 13.9614 8.22405 13.9034C8.23016 13.8455 8.22012 13.787 8.19505 13.7344C8.16998 13.6819 8.13085 13.6372 8.08199 13.6055C8.03314 13.5738 7.97646 13.5562 7.91823 13.5547Z"/>
<path d="M18.8205 12.2959C18.7468 12.2981 18.6763 12.3259 18.6211 12.3746C18.5658 12.4233 18.5293 12.4898 18.5179 12.5626C18.5065 12.6353 18.5209 12.7098 18.5586 12.773C18.5962 12.8363 18.6549 12.8844 18.7243 12.9091C20.036 13.3963 21.0105 14.7943 21.0105 16.4614C21.0105 17.1615 20.839 17.8146 20.5424 18.3728C20.5222 18.4095 20.5095 18.4498 20.505 18.4914C20.5005 18.533 20.5044 18.5751 20.5163 18.6153C20.5283 18.6554 20.5481 18.6927 20.5746 18.7251C20.6011 18.7575 20.6338 18.7843 20.6707 18.8039C20.7077 18.8236 20.7482 18.8357 20.7899 18.8395C20.8316 18.8434 20.8736 18.8389 20.9135 18.8264C20.9535 18.8138 20.9905 18.7935 21.0225 18.7665C21.0545 18.7395 21.0808 18.7064 21.0999 18.6692C21.445 18.0197 21.6419 17.2646 21.6419 16.4614C21.6419 14.5486 20.5273 12.9052 18.9442 12.3171C18.9048 12.3018 18.8627 12.2946 18.8205 12.2959Z"/>
<path d="M14.3151 17.6854C14.263 17.6838 14.2114 17.6952 14.1648 17.7184C14.1181 17.7417 14.078 17.7761 14.0479 17.8186C14.0178 17.8612 13.9987 17.9105 13.9923 17.9622C13.9859 18.0139 13.9924 18.0664 14.0112 18.1149C14.0753 18.2878 14.1491 18.4552 14.232 18.6164C14.2506 18.6538 14.2765 18.6872 14.3081 18.7146C14.3397 18.7419 14.3765 18.7628 14.4162 18.7758C14.456 18.7888 14.4979 18.7939 14.5396 18.7906C14.5813 18.7873 14.6219 18.7757 14.6591 18.7566C14.6963 18.7374 14.7293 18.7111 14.7563 18.6791C14.7832 18.6471 14.8035 18.6101 14.816 18.5702C14.8285 18.5302 14.8329 18.4882 14.8291 18.4466C14.8252 18.4049 14.8131 18.3645 14.7935 18.3276C14.7222 18.1889 14.6585 18.0447 14.6032 17.8954C14.5819 17.8355 14.543 17.7833 14.4916 17.7458C14.4402 17.7084 14.3787 17.6873 14.3151 17.6854Z"/>
<path d="M10.6676 13.1922C10.6257 13.1916 10.5842 13.1994 10.5454 13.215C10.5065 13.2306 10.4712 13.2537 10.4414 13.2831C10.4116 13.3125 10.388 13.3475 10.3718 13.3861C10.3557 13.4247 10.3473 13.4661 10.3473 13.5079C10.3473 13.5498 10.3557 13.5912 10.3718 13.6298C10.388 13.6684 10.4116 13.7034 10.4414 13.7328C10.4712 13.7622 10.5065 13.7853 10.5454 13.8009C10.5842 13.8165 10.6257 13.8243 10.6676 13.8237C11.7258 13.8237 12.6534 14.9252 12.6534 16.3635C12.6534 17.1141 12.3948 17.7845 11.9999 18.2428C11.9722 18.2742 11.951 18.3107 11.9376 18.3502C11.9241 18.3898 11.9186 18.4317 11.9215 18.4734C11.9243 18.5151 11.9354 18.5558 11.9541 18.5932C11.9728 18.6305 11.9987 18.6638 12.0304 18.6911C12.0621 18.7184 12.0988 18.7391 12.1386 18.7521C12.1783 18.765 12.2202 18.77 12.2619 18.7666C12.3035 18.7633 12.3441 18.7517 12.3812 18.7325C12.4184 18.7133 12.4514 18.687 12.4782 18.655C12.9816 18.0709 13.2848 17.2579 13.2848 16.3635C13.2848 14.6497 12.1498 13.1922 10.6676 13.1922Z"/>
<path d="M10.6676 13.1922C9.18529 13.1922 8.05019 14.6497 8.05019 16.3635C8.05019 17.2461 8.34563 18.0495 8.83714 18.6319C8.86368 18.6643 8.89637 18.691 8.93333 18.7106C8.97028 18.7302 9.01076 18.7422 9.05242 18.7461C9.09407 18.7499 9.13607 18.7454 9.17597 18.7328C9.21587 18.7203 9.25287 18.6999 9.28484 18.6729C9.31681 18.646 9.3431 18.6129 9.36218 18.5757C9.38126 18.5385 9.39276 18.4978 9.39601 18.4561C9.39925 18.4144 9.39418 18.3725 9.38108 18.3328C9.36799 18.293 9.34713 18.2563 9.31972 18.2247C8.9334 17.7669 8.68162 17.1042 8.68162 16.3635C8.68162 14.9252 9.60932 13.8237 10.6676 13.8237C10.7094 13.8243 10.7509 13.8165 10.7898 13.8009C10.8286 13.7853 10.8639 13.7622 10.8937 13.7328C10.9235 13.7034 10.9472 13.6684 10.9633 13.6298C10.9795 13.5912 10.9878 13.5498 10.9878 13.5079C10.9878 13.4661 10.9795 13.4247 10.9633 13.3861C10.9472 13.3475 10.9235 13.3125 10.8937 13.2831C10.8639 13.2537 10.8286 13.2306 10.7898 13.215C10.7509 13.1994 10.7094 13.1916 10.6676 13.1922Z"/>
<path d="M17.526 13.3185C16.0438 13.3185 14.9088 14.776 14.9088 16.4897C14.9082 16.5316 14.9159 16.5731 14.9315 16.6119C14.9471 16.6508 14.9703 16.6861 14.9997 16.7159C15.029 16.7457 15.064 16.7693 15.1026 16.7855C15.1412 16.8016 15.1827 16.81 15.2245 16.81C15.2663 16.81 15.3078 16.8016 15.3464 16.7855C15.385 16.7693 15.42 16.7457 15.4493 16.7159C15.4787 16.6861 15.5019 16.6508 15.5175 16.6119C15.5331 16.5731 15.5408 16.5316 15.5402 16.4897C15.5402 15.0515 16.4678 13.9499 17.526 13.9499C18.5843 13.9499 19.5118 15.0515 19.5118 16.4897C19.5118 17.2089 19.2748 17.8544 18.9074 18.3103C18.8805 18.3425 18.8603 18.3797 18.848 18.4198C18.8356 18.4598 18.8314 18.502 18.8355 18.5437C18.8396 18.5854 18.852 18.6259 18.8719 18.6628C18.8918 18.6997 18.9189 18.7323 18.9516 18.7586C18.9842 18.7849 19.0218 18.8044 19.0621 18.8161C19.1023 18.8277 19.1445 18.8312 19.1862 18.8264C19.2278 18.8215 19.2681 18.8084 19.3046 18.7879C19.3412 18.7673 19.3733 18.7397 19.399 18.7065C19.8648 18.1286 20.1433 17.3466 20.1433 16.4897C20.1433 14.776 19.0083 13.3185 17.526 13.3185Z"/>
<path d="M15.2197 16.1696C15.136 16.1709 15.0563 16.2053 14.998 16.2653C14.9397 16.3254 14.9076 16.4061 14.9088 16.4897C14.9088 17.3466 15.1872 18.1286 15.6531 18.7066C15.6788 18.7397 15.7109 18.7673 15.7474 18.7879C15.7839 18.8084 15.8242 18.8215 15.8659 18.8264C15.9075 18.8312 15.9497 18.8277 15.99 18.8161C16.0303 18.8044 16.0678 18.7849 16.1005 18.7586C16.1331 18.7323 16.1602 18.6997 16.1801 18.6628C16.2001 18.6259 16.2124 18.5854 16.2166 18.5437C16.2207 18.502 16.2164 18.4598 16.2041 18.4198C16.1917 18.3797 16.1715 18.3425 16.1446 18.3103C15.7772 17.8544 15.5402 17.2089 15.5402 16.4897C15.5408 16.4475 15.5329 16.4056 15.517 16.3664C15.5011 16.3273 15.4775 16.2918 15.4476 16.2619C15.4177 16.2321 15.3822 16.2085 15.343 16.1926C15.3039 16.1768 15.2619 16.169 15.2197 16.1696Z"/>
</mask>
<path d="M29.6804 10C29.6591 10.0003 29.6379 10.0027 29.6171 10.0073C21.0595 11.8703 11.6394 13.6863 2.32399 13.4417C2.26749 13.4402 2.21163 13.454 2.16224 13.4814C2.11285 13.5089 2.07174 13.5491 2.04321 13.5979C2.01467 13.6467 1.99975 13.7023 2 13.7588C2.00026 13.8153 2.01568 13.8707 2.04466 13.9192L4.8538 18.623C5.32323 19.409 6.31662 19.9729 7.23216 19.9729H20.3429C20.6743 19.9729 21.2841 20.2254 21.5185 20.4598L21.7527 20.694C22.1579 21.0992 22.8017 21.3658 23.3748 21.3658H25.3414C25.956 21.3658 26.5246 20.954 26.7162 20.37L29.9843 10.4142C29.9999 10.3664 30.004 10.3157 29.9961 10.2661C29.9882 10.2165 29.9685 10.1695 29.9388 10.129C29.9091 10.0885 29.8702 10.0556 29.8252 10.0332C29.7803 10.0108 29.7306 9.99941 29.6804 10ZM29.213 10.739L26.1164 20.1731C26.026 20.4485 25.6312 20.7344 25.3414 20.7344H23.3748C23.0434 20.7344 22.4334 20.4818 22.1991 20.2475L21.9649 20.0133C21.5597 19.6082 20.916 19.3414 20.3429 19.3414H7.23216C6.61003 19.3414 5.71492 18.8334 5.39594 18.2993L2.87613 14.0802C11.9023 14.2376 20.9593 12.5259 29.213 10.739Z" fill="white"/>
<path d="M15.6878 12.7538C15.6167 12.7522 15.5471 12.7746 15.4903 12.8176C14.7969 13.3259 14.2613 14.0643 13.9677 14.9303C13.9538 14.9697 13.9478 15.0115 13.9502 15.0532C13.9525 15.0949 13.9631 15.1358 13.9814 15.1734C13.9997 15.2109 14.0252 15.2445 14.0566 15.2722C14.0879 15.2998 14.1244 15.321 14.164 15.3344C14.2036 15.3478 14.2455 15.3532 14.2872 15.3504C14.3289 15.3475 14.3696 15.3364 14.4069 15.3176C14.4443 15.2989 14.4776 15.2729 14.5048 15.2412C14.5321 15.2095 14.5528 15.1728 14.5657 15.133C14.8193 14.385 15.2807 13.7541 15.8636 13.3268C15.9176 13.2883 15.9582 13.2338 15.9795 13.171C16.0009 13.1082 16.0019 13.0403 15.9824 12.9769C15.963 12.9135 15.9241 12.8578 15.8712 12.8177C15.8183 12.7777 15.7541 12.7553 15.6878 12.7538Z" fill="white"/>
<path d="M25.3324 11.1841C25.265 11.1863 25.2001 11.21 25.1471 11.2517C25.0942 11.2934 25.056 11.351 25.0381 11.416C23.7343 15.9069 22.309 18.5701 20.9953 19.3892C20.9594 19.4107 20.9281 19.4392 20.9033 19.473C20.8785 19.5068 20.8607 19.5452 20.8509 19.5859C20.8411 19.6267 20.8394 19.669 20.8461 19.7103C20.8528 19.7517 20.8677 19.7913 20.8899 19.8269C20.912 19.8625 20.9411 19.8933 20.9753 19.9175C21.0094 19.9417 21.0481 19.9589 21.089 19.9681C21.1299 19.9772 21.1722 19.9781 21.2135 19.9707C21.2547 19.9633 21.2941 19.9478 21.3293 19.925C22.9655 18.9049 24.3262 16.1328 25.6445 11.5919C25.6592 11.5439 25.6622 11.4931 25.6533 11.4437C25.6444 11.3942 25.6238 11.3477 25.5933 11.3078C25.5628 11.2679 25.5232 11.2359 25.4778 11.2144C25.4324 11.1929 25.3826 11.1825 25.3324 11.1841Z" fill="white"/>
<path d="M5.45502 18.3172C5.41318 18.3166 5.37164 18.3243 5.33282 18.3399C5.294 18.3555 5.25866 18.3787 5.22887 18.4081C5.19907 18.4375 5.17542 18.4725 5.15927 18.5111C5.14312 18.5497 5.1348 18.5911 5.1348 18.6329C5.1348 18.6748 5.14312 18.7162 5.15927 18.7548C5.17542 18.7934 5.19907 18.8284 5.22887 18.8578C5.25866 18.8871 5.294 18.9103 5.33282 18.9259C5.37164 18.9415 5.41318 18.9492 5.45502 18.9486H22.0502C22.092 18.9492 22.1335 18.9415 22.1723 18.9259C22.2112 18.9103 22.2465 18.8871 22.2763 18.8578C22.3061 18.8284 22.3298 18.7934 22.3459 18.7548C22.362 18.7162 22.3704 18.6748 22.3704 18.6329C22.3704 18.5911 22.362 18.5497 22.3459 18.5111C22.3298 18.4725 22.3061 18.4375 22.2763 18.4081C22.2465 18.3787 22.2112 18.3555 22.1723 18.3399C22.1335 18.3243 22.092 18.3166 22.0502 18.3172H5.45502Z" fill="white"/>
<path d="M13.148 13.1259C13.0852 13.1259 13.0238 13.1446 12.9717 13.1797C12.9196 13.2148 12.8792 13.2647 12.8555 13.3229C12.8319 13.3811 12.8262 13.445 12.8391 13.5065C12.852 13.568 12.883 13.6242 12.928 13.668C13.6095 14.3497 14.0455 15.3464 14.0455 16.4614C14.0455 17.1206 13.8933 17.7381 13.6279 18.274C13.6086 18.3113 13.597 18.352 13.5936 18.3938C13.5903 18.4356 13.5953 18.4776 13.6084 18.5175C13.6214 18.5573 13.6423 18.5941 13.6697 18.6258C13.6972 18.6575 13.7307 18.6834 13.7683 18.702C13.8058 18.7206 13.8467 18.7316 13.8886 18.7342C13.9304 18.7368 13.9724 18.7311 14.012 18.7173C14.0516 18.7036 14.088 18.6821 14.1193 18.6541C14.1505 18.6261 14.1758 18.5921 14.1937 18.5542C14.5023 17.9313 14.6769 17.2177 14.6769 16.4614C14.6769 15.1821 14.1782 14.0254 13.3746 13.2216C13.3451 13.1913 13.3099 13.1672 13.271 13.1508C13.2321 13.1343 13.1903 13.1259 13.148 13.1259Z" fill="white"/>
<path d="M13.148 13.1259C13.0852 13.1259 13.0238 13.1446 12.9717 13.1797C12.9196 13.2148 12.8792 13.2647 12.8555 13.3229C12.8319 13.3811 12.8262 13.445 12.8391 13.5065C12.852 13.568 12.883 13.6242 12.928 13.668C13.6095 14.3497 14.0455 15.3464 14.0455 16.4614C14.0455 17.1206 13.8933 17.7381 13.6279 18.274C13.6086 18.3113 13.597 18.352 13.5936 18.3938C13.5903 18.4356 13.5953 18.4776 13.6084 18.5175C13.6214 18.5573 13.6423 18.5941 13.6697 18.6258C13.6972 18.6575 13.7307 18.6834 13.7683 18.702C13.8058 18.7206 13.8467 18.7316 13.8886 18.7342C13.9304 18.7368 13.9724 18.7311 14.012 18.7173C14.0516 18.7036 14.088 18.6821 14.1193 18.6541C14.1505 18.6261 14.1758 18.5921 14.1937 18.5542C14.5023 17.9313 14.6769 17.2177 14.6769 16.4614C14.6769 15.1821 14.1782 14.0254 13.3746 13.2216C13.3451 13.1913 13.3099 13.1672 13.271 13.1508C13.2321 13.1343 13.1903 13.1259 13.148 13.1259Z" fill="white"/>
<path d="M7.91823 13.5547C7.86695 13.5534 7.81612 13.5646 7.77013 13.5873C7.72415 13.61 7.68439 13.6436 7.65431 13.6852C7.08918 14.4428 6.75267 15.4108 6.75267 16.4614C6.75267 17.2517 6.9432 17.9953 7.27804 18.6376C7.29685 18.675 7.32291 18.7083 7.35469 18.7355C7.38647 18.7627 7.42335 18.7833 7.46317 18.7962C7.50299 18.809 7.54497 18.8138 7.58667 18.8103C7.62836 18.8068 7.66894 18.795 7.70605 18.7756C7.74315 18.7563 7.77604 18.7298 7.8028 18.6976C7.82956 18.6654 7.84966 18.6283 7.86194 18.5883C7.87421 18.5483 7.87841 18.5062 7.87429 18.4646C7.87017 18.4229 7.85782 18.3825 7.83794 18.3457C7.55006 17.7935 7.3841 17.1502 7.3841 16.4614C7.3841 15.5457 7.67764 14.71 8.16044 14.0627C8.19593 14.0165 8.21794 13.9614 8.22405 13.9034C8.23016 13.8455 8.22012 13.787 8.19505 13.7344C8.16998 13.6819 8.13085 13.6372 8.08199 13.6055C8.03314 13.5738 7.97646 13.5562 7.91823 13.5547Z" fill="white"/>
<path d="M18.8205 12.2959C18.7468 12.2981 18.6763 12.3259 18.6211 12.3746C18.5658 12.4233 18.5293 12.4898 18.5179 12.5626C18.5065 12.6353 18.5209 12.7098 18.5586 12.773C18.5962 12.8363 18.6549 12.8844 18.7243 12.9091C20.036 13.3963 21.0105 14.7943 21.0105 16.4614C21.0105 17.1615 20.839 17.8146 20.5424 18.3728C20.5222 18.4095 20.5095 18.4498 20.505 18.4914C20.5005 18.533 20.5044 18.5751 20.5163 18.6153C20.5283 18.6554 20.5481 18.6927 20.5746 18.7251C20.6011 18.7575 20.6338 18.7843 20.6707 18.8039C20.7077 18.8236 20.7482 18.8357 20.7899 18.8395C20.8316 18.8434 20.8736 18.8389 20.9135 18.8264C20.9535 18.8138 20.9905 18.7935 21.0225 18.7665C21.0545 18.7395 21.0808 18.7064 21.0999 18.6692C21.445 18.0197 21.6419 17.2646 21.6419 16.4614C21.6419 14.5486 20.5273 12.9052 18.9442 12.3171C18.9048 12.3018 18.8627 12.2946 18.8205 12.2959Z" fill="white"/>
<path d="M14.3151 17.6854C14.263 17.6838 14.2114 17.6952 14.1648 17.7184C14.1181 17.7417 14.078 17.7761 14.0479 17.8186C14.0178 17.8612 13.9987 17.9105 13.9923 17.9622C13.9859 18.0139 13.9924 18.0664 14.0112 18.1149C14.0753 18.2878 14.1491 18.4552 14.232 18.6164C14.2506 18.6538 14.2765 18.6872 14.3081 18.7146C14.3397 18.7419 14.3765 18.7628 14.4162 18.7758C14.456 18.7888 14.4979 18.7939 14.5396 18.7906C14.5813 18.7873 14.6219 18.7757 14.6591 18.7566C14.6963 18.7374 14.7293 18.7111 14.7563 18.6791C14.7832 18.6471 14.8035 18.6101 14.816 18.5702C14.8285 18.5302 14.8329 18.4882 14.8291 18.4466C14.8252 18.4049 14.8131 18.3645 14.7935 18.3276C14.7222 18.1889 14.6585 18.0447 14.6032 17.8954C14.5819 17.8355 14.543 17.7833 14.4916 17.7458C14.4402 17.7084 14.3787 17.6873 14.3151 17.6854Z" fill="white"/>
<path d="M10.6676 13.1922C10.6257 13.1916 10.5842 13.1994 10.5454 13.215C10.5065 13.2306 10.4712 13.2537 10.4414 13.2831C10.4116 13.3125 10.388 13.3475 10.3718 13.3861C10.3557 13.4247 10.3473 13.4661 10.3473 13.5079C10.3473 13.5498 10.3557 13.5912 10.3718 13.6298C10.388 13.6684 10.4116 13.7034 10.4414 13.7328C10.4712 13.7622 10.5065 13.7853 10.5454 13.8009C10.5842 13.8165 10.6257 13.8243 10.6676 13.8237C11.7258 13.8237 12.6534 14.9252 12.6534 16.3635C12.6534 17.1141 12.3948 17.7845 11.9999 18.2428C11.9722 18.2742 11.951 18.3107 11.9376 18.3502C11.9241 18.3898 11.9186 18.4317 11.9215 18.4734C11.9243 18.5151 11.9354 18.5558 11.9541 18.5932C11.9728 18.6305 11.9987 18.6638 12.0304 18.6911C12.0621 18.7184 12.0988 18.7391 12.1386 18.7521C12.1783 18.765 12.2202 18.77 12.2619 18.7666C12.3035 18.7633 12.3441 18.7517 12.3812 18.7325C12.4184 18.7133 12.4514 18.687 12.4782 18.655C12.9816 18.0709 13.2848 17.2579 13.2848 16.3635C13.2848 14.6497 12.1498 13.1922 10.6676 13.1922Z" fill="white"/>
<path d="M10.6676 13.1922C9.18529 13.1922 8.05019 14.6497 8.05019 16.3635C8.05019 17.2461 8.34563 18.0495 8.83714 18.6319C8.86368 18.6643 8.89637 18.691 8.93333 18.7106C8.97028 18.7302 9.01076 18.7422 9.05242 18.7461C9.09407 18.7499 9.13607 18.7454 9.17597 18.7328C9.21587 18.7203 9.25287 18.6999 9.28484 18.6729C9.31681 18.646 9.3431 18.6129 9.36218 18.5757C9.38126 18.5385 9.39276 18.4978 9.39601 18.4561C9.39925 18.4144 9.39418 18.3725 9.38108 18.3328C9.36799 18.293 9.34713 18.2563 9.31972 18.2247C8.9334 17.7669 8.68162 17.1042 8.68162 16.3635C8.68162 14.9252 9.60932 13.8237 10.6676 13.8237C10.7094 13.8243 10.7509 13.8165 10.7898 13.8009C10.8286 13.7853 10.8639 13.7622 10.8937 13.7328C10.9235 13.7034 10.9472 13.6684 10.9633 13.6298C10.9795 13.5912 10.9878 13.5498 10.9878 13.5079C10.9878 13.4661 10.9795 13.4247 10.9633 13.3861C10.9472 13.3475 10.9235 13.3125 10.8937 13.2831C10.8639 13.2537 10.8286 13.2306 10.7898 13.215C10.7509 13.1994 10.7094 13.1916 10.6676 13.1922Z" fill="white"/>
<path d="M17.526 13.3185C16.0438 13.3185 14.9088 14.776 14.9088 16.4897C14.9082 16.5316 14.9159 16.5731 14.9315 16.6119C14.9471 16.6508 14.9703 16.6861 14.9997 16.7159C15.029 16.7457 15.064 16.7693 15.1026 16.7855C15.1412 16.8016 15.1827 16.81 15.2245 16.81C15.2663 16.81 15.3078 16.8016 15.3464 16.7855C15.385 16.7693 15.42 16.7457 15.4493 16.7159C15.4787 16.6861 15.5019 16.6508 15.5175 16.6119C15.5331 16.5731 15.5408 16.5316 15.5402 16.4897C15.5402 15.0515 16.4678 13.9499 17.526 13.9499C18.5843 13.9499 19.5118 15.0515 19.5118 16.4897C19.5118 17.2089 19.2748 17.8544 18.9074 18.3103C18.8805 18.3425 18.8603 18.3797 18.848 18.4198C18.8356 18.4598 18.8314 18.502 18.8355 18.5437C18.8396 18.5854 18.852 18.6259 18.8719 18.6628C18.8918 18.6997 18.9189 18.7323 18.9516 18.7586C18.9842 18.7849 19.0218 18.8044 19.0621 18.8161C19.1023 18.8277 19.1445 18.8312 19.1862 18.8264C19.2278 18.8215 19.2681 18.8084 19.3046 18.7879C19.3412 18.7673 19.3733 18.7397 19.399 18.7065C19.8648 18.1286 20.1433 17.3466 20.1433 16.4897C20.1433 14.776 19.0083 13.3185 17.526 13.3185Z" fill="white"/>
<path d="M15.2197 16.1696C15.136 16.1709 15.0563 16.2053 14.998 16.2653C14.9397 16.3254 14.9076 16.4061 14.9088 16.4897C14.9088 17.3466 15.1872 18.1286 15.6531 18.7066C15.6788 18.7397 15.7109 18.7673 15.7474 18.7879C15.7839 18.8084 15.8242 18.8215 15.8659 18.8264C15.9075 18.8312 15.9497 18.8277 15.99 18.8161C16.0303 18.8044 16.0678 18.7849 16.1005 18.7586C16.1331 18.7323 16.1602 18.6997 16.1801 18.6628C16.2001 18.6259 16.2124 18.5854 16.2166 18.5437C16.2207 18.502 16.2164 18.4598 16.2041 18.4198C16.1917 18.3797 16.1715 18.3425 16.1446 18.3103C15.7772 17.8544 15.5402 17.2089 15.5402 16.4897C15.5408 16.4475 15.5329 16.4056 15.517 16.3664C15.5011 16.3273 15.4775 16.2918 15.4476 16.2619C15.4177 16.2321 15.3822 16.2085 15.343 16.1926C15.3039 16.1768 15.2619 16.169 15.2197 16.1696Z" fill="white"/>
<path d="M13.148 13.1259L13.1481 13.2259L13.1481 13.2259L13.148 13.1259ZM12.928 13.668L12.9987 13.5973L12.9977 13.5963L12.928 13.668ZM13.6279 18.274L13.7167 18.32L13.7175 18.3184L13.6279 18.274ZM14.1937 18.5542L14.1041 18.5098L14.1034 18.5114L14.1937 18.5542ZM13.3746 13.2216L13.3029 13.2913L13.3039 13.2923L13.3746 13.2216ZM13.148 13.0259C13.0653 13.0259 12.9845 13.0506 12.9159 13.0968L13.0276 13.2627C13.0632 13.2387 13.1051 13.2259 13.1481 13.2259L13.148 13.0259ZM12.9159 13.0968C12.8472 13.143 12.794 13.2086 12.7629 13.2853L12.9482 13.3605C12.9643 13.3207 12.992 13.2867 13.0276 13.2627L12.9159 13.0968ZM12.7629 13.2853C12.7318 13.3619 12.7242 13.4461 12.7412 13.5271L12.937 13.486C12.9281 13.444 12.9321 13.4003 12.9482 13.3605L12.7629 13.2853ZM12.7412 13.5271C12.7582 13.608 12.799 13.6821 12.8583 13.7397L12.9977 13.5963C12.9669 13.5664 12.9458 13.528 12.937 13.486L12.7412 13.5271ZM12.8573 13.7387C13.5197 14.4013 13.9455 15.3724 13.9455 16.4614H14.1455C14.1455 15.3204 13.6994 14.2981 12.9987 13.5973L12.8573 13.7387ZM13.9455 16.4614C13.9455 17.1052 13.7969 17.7075 13.5383 18.2297L13.7175 18.3184C13.9898 17.7688 14.1455 17.136 14.1455 16.4614H13.9455ZM13.5391 18.2281C13.5137 18.2772 13.4984 18.3308 13.494 18.3858L13.6933 18.4018C13.6956 18.3732 13.7036 18.3454 13.7167 18.32L13.5391 18.2281ZM13.494 18.3858C13.4895 18.4408 13.4961 18.4962 13.5133 18.5486L13.7034 18.4863C13.6944 18.4591 13.691 18.4303 13.6933 18.4018L13.494 18.3858ZM13.5133 18.5486C13.5305 18.6011 13.558 18.6496 13.5942 18.6913L13.7453 18.5603C13.7266 18.5387 13.7123 18.5135 13.7034 18.4863L13.5133 18.5486ZM13.5942 18.6913C13.6303 18.733 13.6744 18.7671 13.7239 18.7916L13.8126 18.6124C13.787 18.5997 13.7641 18.582 13.7453 18.5603L13.5942 18.6913ZM13.7239 18.7916C13.7734 18.8161 13.8272 18.8305 13.8823 18.834L13.8948 18.6344C13.8663 18.6326 13.8383 18.6251 13.8126 18.6124L13.7239 18.7916ZM13.8823 18.834C13.9374 18.8374 13.9926 18.8299 14.0448 18.8118L13.9792 18.6229C13.9521 18.6323 13.9234 18.6362 13.8948 18.6344L13.8823 18.834ZM14.0448 18.8118C14.0969 18.7937 14.1449 18.7654 14.186 18.7285L14.0525 18.5796C14.0311 18.5988 14.0062 18.6135 13.9792 18.6229L14.0448 18.8118ZM14.186 18.7285C14.2271 18.6916 14.2605 18.6469 14.2841 18.5971L14.1034 18.5114C14.0911 18.5373 14.0738 18.5605 14.0525 18.5796L14.186 18.7285ZM14.2833 18.5986C14.5987 17.962 14.7769 17.2332 14.7769 16.4614H14.5769C14.5769 17.2023 14.4058 17.9007 14.1041 18.5099L14.2833 18.5986ZM14.7769 16.4614C14.7769 15.1561 14.2681 13.9738 13.4453 13.1509L13.3039 13.2923C14.0883 14.077 14.5769 15.2081 14.5769 16.4614H14.7769ZM13.4463 13.1519C13.4075 13.112 13.3612 13.0803 13.3099 13.0586L13.2321 13.2429C13.2587 13.2541 13.2828 13.2706 13.3029 13.2913L13.4463 13.1519ZM13.3099 13.0586C13.2587 13.037 13.2036 13.0259 13.148 13.0259L13.1481 13.2259C13.1769 13.2259 13.2055 13.2317 13.2321 13.2429L13.3099 13.0586ZM29.6804 10L29.678 9.80004L29.6777 9.80004L29.6804 10ZM29.6171 10.0073L29.6597 10.2027L29.6599 10.2027L29.6171 10.0073ZM2.32399 13.4417L2.32924 13.2418L2.32921 13.2418L2.32399 13.4417ZM2.04466 13.9192L1.87294 14.0218L1.87295 14.0218L2.04466 13.9192ZM4.8538 18.623L4.68209 18.7256L4.68209 18.7256L4.8538 18.623ZM21.5185 20.4598L21.6599 20.3183L21.6599 20.3183L21.5185 20.4598ZM21.7527 20.694L21.6113 20.8354L21.6113 20.8354L21.7527 20.694ZM26.7162 20.37L26.5262 20.3076L26.5262 20.3076L26.7162 20.37ZM29.9843 10.4142L30.1743 10.4765L30.1743 10.4765L29.9843 10.4142ZM29.213 10.739L29.403 10.8014L29.5119 10.4697L29.1707 10.5435L29.213 10.739ZM26.1164 20.1731L25.9263 20.1108L25.9263 20.1108L26.1164 20.1731ZM22.1991 20.2475L22.0577 20.3889L22.0577 20.3889L22.1991 20.2475ZM21.9649 20.0133L22.1064 19.8719L22.1063 19.8719L21.9649 20.0133ZM5.39594 18.2993L5.22424 18.4019L5.22424 18.4019L5.39594 18.2993ZM2.87613 14.0802L2.87961 13.8802L2.52 13.8739L2.70442 14.1827L2.87613 14.0802ZM15.6878 12.7538L15.6924 12.5538L15.6924 12.5538L15.6878 12.7538ZM15.4903 12.8176L15.6085 12.9789L15.6108 12.9771L15.4903 12.8176ZM13.9677 14.9303L14.1563 14.9968L14.1571 14.9945L13.9677 14.9303ZM14.5657 15.133L14.3763 15.0688L14.3755 15.0712L14.5657 15.133ZM15.8636 13.3268L15.7476 13.1638L15.7453 13.1655L15.8636 13.3268ZM25.3324 11.1841L25.3259 10.9842L25.3259 10.9842L25.3324 11.1841ZM25.0381 11.416L25.2302 11.4717L25.231 11.469L25.0381 11.416ZM20.9953 19.3892L21.0983 19.5607L21.1011 19.5589L20.9953 19.3892ZM21.3293 19.925L21.2235 19.7553L21.2207 19.7571L21.3293 19.925ZM25.6445 11.5919L25.4532 11.5335L25.4524 11.5362L25.6445 11.5919ZM5.45502 18.3172L5.45219 18.5172H5.45502V18.3172ZM5.1348 18.6329L5.3348 18.6329L5.1348 18.6329ZM5.45502 18.9486L5.45502 18.7486L5.45219 18.7487L5.45502 18.9486ZM22.0502 18.9486L22.053 18.7486H22.0502V18.9486ZM22.3704 18.6329L22.1704 18.6329L22.3704 18.6329ZM22.0502 18.3172V18.5172L22.053 18.5172L22.0502 18.3172ZM7.91823 13.5547L7.92342 13.3548L7.9234 13.3548L7.91823 13.5547ZM7.65431 13.6852L7.81464 13.8048L7.81631 13.8025L7.65431 13.6852ZM7.27804 18.6376L7.4567 18.5477L7.45539 18.5452L7.27804 18.6376ZM7.83794 18.3457L7.66058 18.4382L7.66194 18.4407L7.83794 18.3457ZM8.16044 14.0627L8.00182 13.9408L8.00013 13.9431L8.16044 14.0627ZM18.8205 12.2959L18.8264 12.4958L18.8265 12.4958L18.8205 12.2959ZM18.7243 12.9091L18.7939 12.7216L18.7911 12.7206L18.7243 12.9091ZM20.5424 18.3728L20.7176 18.4693L20.719 18.4667L20.5424 18.3728ZM21.0999 18.6692L20.9233 18.5753L20.9219 18.5779L21.0999 18.6692ZM18.9442 12.3171L18.8718 12.5036L18.8745 12.5046L18.9442 12.3171ZM14.3151 17.6854L14.3211 17.4855L14.321 17.4855L14.3151 17.6854ZM14.0112 18.1149L14.1987 18.0454L14.1977 18.0428L14.0112 18.1149ZM14.232 18.6164L14.4111 18.5273L14.4098 18.5249L14.232 18.6164ZM14.7935 18.3276L14.6156 18.419L14.6169 18.4214L14.7935 18.3276ZM14.6032 17.8954L14.4147 17.9623L14.4157 17.965L14.6032 17.8954ZM10.6676 13.8237V13.6237V13.8237ZM11.9999 18.2428L12.1498 18.3753L12.1514 18.3734L11.9999 18.2428ZM12.4782 18.655L12.3267 18.5244L12.3251 18.5264L12.4782 18.655ZM8.83714 18.6319L8.99175 18.505L8.98999 18.503L8.83714 18.6319ZM9.31972 18.2247L9.16685 18.3537L9.16864 18.3558L9.31972 18.2247ZM15.2245 16.81L15.2245 16.61L15.2245 16.81ZM15.5402 16.4897H15.3402H15.5402ZM18.9074 18.3103L19.0609 18.4385L19.0631 18.4358L18.9074 18.3103ZM19.399 18.7065L19.2433 18.581L19.2411 18.5838L19.399 18.7065ZM15.2197 16.1696L15.2166 15.9696L15.2166 15.9696L15.2197 16.1696ZM15.6531 18.7066L15.811 18.5838L15.8088 18.581L15.6531 18.7066ZM16.1446 18.3103L15.9889 18.4358L15.9912 18.4385L16.1446 18.3103ZM29.6777 9.80004C29.6429 9.80051 29.6083 9.80449 29.5744 9.81193L29.6599 10.2027C29.6675 10.201 29.6753 10.2001 29.6831 10.2L29.6777 9.80004ZM29.5746 9.81188C21.0176 11.6748 11.6182 13.4857 2.32924 13.2418L2.31874 13.6416C11.6605 13.8869 21.1015 12.0659 29.6597 10.2027L29.5746 9.81188ZM2.32921 13.2418C2.23692 13.2394 2.14568 13.2618 2.06501 13.3067L2.25948 13.6562C2.27758 13.6461 2.29806 13.6411 2.31877 13.6416L2.32921 13.2418ZM2.06501 13.3067C1.98433 13.3515 1.91719 13.4173 1.87057 13.4969L2.21584 13.6989C2.2263 13.681 2.24137 13.6663 2.25948 13.6562L2.06501 13.3067ZM1.87057 13.4969C1.82396 13.5766 1.79959 13.6674 1.80001 13.7597L2.2 13.7579C2.19991 13.7372 2.20538 13.7168 2.21584 13.6989L1.87057 13.4969ZM1.80001 13.7597C1.80042 13.852 1.82561 13.9425 1.87294 14.0218L2.21637 13.8167C2.20575 13.7989 2.20009 13.7786 2.2 13.7579L1.80001 13.7597ZM1.87295 14.0218L4.68209 18.7256L5.02551 18.5205L2.21637 13.8167L1.87295 14.0218ZM4.68209 18.7256C5.18762 19.572 6.24622 20.1729 7.23216 20.1729V19.7729C6.38702 19.7729 5.45884 19.2461 5.02551 18.5205L4.68209 18.7256ZM7.23216 20.1729H20.3429V19.7729H7.23216V20.1729ZM20.3429 20.1729C20.4699 20.1729 20.6766 20.2246 20.8906 20.3132C21.1045 20.4018 21.2873 20.5114 21.3771 20.6012L21.6599 20.3183C21.5153 20.1738 21.276 20.0399 21.0436 19.9436C20.8112 19.8474 20.5473 19.7729 20.3429 19.7729V20.1729ZM21.3771 20.6012L21.6113 20.8354L21.8941 20.5525L21.6599 20.3183L21.3771 20.6012ZM21.6113 20.8354C22.054 21.2781 22.7487 21.5658 23.3748 21.5658V21.1658C22.8548 21.1658 22.2618 20.9202 21.8941 20.5525L21.6113 20.8354ZM23.3748 21.5658H25.3414V21.1658H23.3748V21.5658ZM25.3414 21.5658C26.0424 21.5658 26.6877 21.0984 26.9063 20.4323L26.5262 20.3076C26.3615 20.8095 25.8695 21.1658 25.3414 21.1658V21.5658ZM26.9063 20.4324L30.1743 10.4765L29.7942 10.3518L26.5262 20.3076L26.9063 20.4324ZM30.1743 10.4765C30.1999 10.3985 30.2065 10.3156 30.1936 10.2346L29.7986 10.2975C29.8015 10.3157 29.8 10.3343 29.7942 10.3518L30.1743 10.4765ZM30.1936 10.2346C30.1807 10.1536 30.1486 10.0768 30.1001 10.0106L29.7776 10.2473C29.7885 10.2621 29.7957 10.2793 29.7986 10.2975L30.1936 10.2346ZM30.1001 10.0106C30.0515 9.94449 29.9879 9.89088 29.9145 9.85425L29.7359 10.2122C29.7524 10.2204 29.7667 10.2324 29.7776 10.2473L30.1001 10.0106ZM29.9145 9.85425C29.8411 9.81762 29.76 9.79904 29.678 9.80004L29.6828 10.2C29.7013 10.1998 29.7195 10.204 29.7359 10.2122L29.9145 9.85425ZM29.023 10.6766L25.9263 20.1108L26.3064 20.2355L29.403 10.8014L29.023 10.6766ZM25.9263 20.1108C25.8991 20.1937 25.8136 20.3029 25.6864 20.3951C25.5592 20.4872 25.4287 20.5344 25.3414 20.5344V20.9344C25.5439 20.9344 25.7558 20.8387 25.921 20.719C26.0862 20.5994 26.2433 20.4279 26.3064 20.2355L25.9263 20.1108ZM25.3414 20.5344H23.3748V20.9344H25.3414V20.5344ZM23.3748 20.5344C23.2478 20.5344 23.0411 20.4827 22.8271 20.394C22.6131 20.3054 22.4303 20.1959 22.3406 20.1061L22.0577 20.3889C22.2023 20.5335 22.4416 20.6674 22.674 20.7636C22.9065 20.8599 23.1704 20.9344 23.3748 20.9344V20.5344ZM22.3406 20.1061L22.1064 19.8719L21.8235 20.1547L22.0577 20.3889L22.3406 20.1061ZM22.1063 19.8719C21.6636 19.4292 20.9691 19.1414 20.3429 19.1414V19.5414C20.8629 19.5414 21.4558 19.7871 21.8235 20.1547L22.1063 19.8719ZM20.3429 19.1414H7.23216V19.5414H20.3429V19.1414ZM7.23216 19.1414C6.968 19.1414 6.6233 19.0307 6.29909 18.8467C5.97488 18.6627 5.70309 18.4235 5.56765 18.1968L5.22424 18.4019C5.40777 18.7092 5.74303 18.9911 6.10165 19.1946C6.46028 19.3981 6.8742 19.5414 7.23216 19.5414V19.1414ZM5.56765 18.1968L3.04783 13.9776L2.70442 14.1827L5.22424 18.4019L5.56765 18.1968ZM2.87264 14.2801C11.9237 14.438 21.0003 12.7217 29.2553 10.9345L29.1707 10.5435C20.9183 12.3302 11.8808 14.0372 2.87961 13.8802L2.87264 14.2801ZM15.6924 12.5538C15.5762 12.5512 15.4624 12.5879 15.3697 12.658L15.6108 12.9771C15.6317 12.9614 15.6572 12.9531 15.6833 12.9537L15.6924 12.5538ZM15.372 12.6563C14.6439 13.1901 14.0845 13.9631 13.7783 14.866L14.1571 14.9945C14.4382 14.1655 14.9499 13.4617 15.6085 12.9788L15.372 12.6563ZM13.7791 14.8637C13.7563 14.9281 13.7466 14.9963 13.7505 15.0645L14.1498 15.0419C14.149 15.0266 14.1512 15.0113 14.1563 14.9968L13.7791 14.8637ZM13.7505 15.0645C13.7543 15.1326 13.7717 15.1994 13.8015 15.2608L14.1613 15.086C14.1546 15.0722 14.1507 15.0572 14.1498 15.0419L13.7505 15.0645ZM13.8015 15.2608C13.8314 15.3222 13.8731 15.377 13.9243 15.4222L14.1889 15.1222C14.1774 15.112 14.168 15.0997 14.1613 15.086L13.8015 15.2608ZM13.9243 15.4222C13.9755 15.4673 14.0352 15.5019 14.0998 15.5238L14.2282 15.145C14.2137 15.1401 14.2003 15.1323 14.1889 15.1222L13.9243 15.4222ZM14.0998 15.5238C14.1645 15.5457 14.2328 15.5546 14.3009 15.5499L14.2734 15.1508C14.2581 15.1519 14.2428 15.1499 14.2282 15.145L14.0998 15.5238ZM14.3009 15.5499C14.369 15.5452 14.4355 15.527 14.4966 15.4964L14.3173 15.1388C14.3036 15.1457 14.2887 15.1498 14.2734 15.1508L14.3009 15.5499ZM14.4966 15.4964C14.5576 15.4658 14.6119 15.4234 14.6565 15.3716L14.3532 15.1108C14.3432 15.1225 14.331 15.132 14.3173 15.1388L14.4966 15.4964ZM14.6565 15.3716C14.701 15.3199 14.7348 15.2598 14.7559 15.1949L14.3755 15.0712C14.3707 15.0857 14.3632 15.0992 14.3532 15.1108L14.6565 15.3716ZM14.7551 15.1972C14.9962 14.4862 15.4337 13.8899 15.9818 13.4881L15.7453 13.1655C15.1277 13.6183 14.6425 14.2839 14.3763 15.0688L14.7551 15.1972ZM15.9795 13.4898C16.0678 13.427 16.1341 13.3379 16.1689 13.2354L15.7902 13.1067C15.7824 13.1297 15.7675 13.1497 15.7477 13.1638L15.9795 13.4898ZM16.1689 13.2354C16.2038 13.1328 16.2054 13.0218 16.1737 12.9182L15.7912 13.0355C15.7984 13.0588 15.798 13.0837 15.7902 13.1067L16.1689 13.2354ZM16.1737 12.9182C16.1419 12.8146 16.0783 12.7237 15.9919 12.6583L15.7505 12.9772C15.7698 12.9919 15.7841 13.0123 15.7912 13.0355L16.1737 12.9182ZM15.9919 12.6583C15.9055 12.5929 15.8007 12.5563 15.6924 12.5538L15.6832 12.9537C15.7075 12.9543 15.7311 12.9625 15.7505 12.9772L15.9919 12.6583ZM25.3259 10.9842C25.2159 10.9878 25.1099 11.0264 25.0234 11.0946L25.2709 11.4088C25.2903 11.3935 25.3141 11.3848 25.3388 11.384L25.3259 10.9842ZM25.0234 11.0946C24.9369 11.1627 24.8745 11.2568 24.8453 11.3629L25.231 11.469C25.2375 11.4452 25.2515 11.4241 25.2709 11.4088L25.0234 11.0946ZM24.8461 11.3602C24.1963 13.5983 23.5182 15.3738 22.8426 16.6881C22.1636 18.0088 21.4993 18.8393 20.8895 19.2195L21.1011 19.5589C21.8051 19.12 22.5103 18.2093 23.1983 16.871C23.8896 15.5262 24.5761 13.7245 25.2302 11.4717L24.8461 11.3602ZM20.8924 19.2177C20.8337 19.2529 20.7826 19.2995 20.7421 19.3547L21.0645 19.5914C21.0736 19.579 21.0851 19.5686 21.0983 19.5607L20.8924 19.2177ZM20.7421 19.3547C20.7016 19.4098 20.6725 19.4725 20.6564 19.5391L21.0453 19.6328C21.0489 19.6178 21.0554 19.6038 21.0645 19.5914L20.7421 19.3547ZM20.6564 19.5391C20.6404 19.6056 20.6378 19.6747 20.6487 19.7423L21.0436 19.6784C21.0411 19.6632 21.0417 19.6477 21.0453 19.6328L20.6564 19.5391ZM20.6487 19.7423C20.6596 19.8099 20.6839 19.8746 20.7201 19.9327L21.0596 19.7211C21.0515 19.7081 21.046 19.6936 21.0436 19.6784L20.6487 19.7423ZM20.7201 19.9327C20.7563 19.9908 20.8037 20.0411 20.8596 20.0807L21.0909 19.7543C21.0784 19.7455 21.0677 19.7342 21.0596 19.7211L20.7201 19.9327ZM20.8596 20.0807C20.9155 20.1203 20.9786 20.1483 21.0454 20.1633L21.1326 19.7729C21.1176 19.7695 21.1034 19.7632 21.0909 19.7543L20.8596 20.0807ZM21.0454 20.1633C21.1122 20.1782 21.1814 20.1796 21.2487 20.1676L21.1782 19.7738C21.1631 19.7765 21.1476 19.7762 21.1326 19.7729L21.0454 20.1633ZM21.2487 20.1676C21.3161 20.1555 21.3804 20.1301 21.4379 20.093L21.2207 19.7571C21.2078 19.7654 21.1934 19.7711 21.1782 19.7738L21.2487 20.1676ZM21.4351 20.0947C22.2983 19.5566 23.0681 18.5709 23.7842 17.1698C24.5019 15.7655 25.1758 13.9237 25.8366 11.6477L25.4524 11.5362C24.7949 13.801 24.1293 15.6157 23.428 16.9877C22.7252 18.3629 21.9965 19.2734 21.2235 19.7553L21.4351 20.0947ZM25.8358 11.6504C25.8598 11.5719 25.8647 11.4889 25.8501 11.4082L25.4565 11.4792C25.4597 11.4973 25.4586 11.5159 25.4532 11.5335L25.8358 11.6504ZM25.8501 11.4082C25.8356 11.3275 25.802 11.2514 25.7521 11.1862L25.4345 11.4293C25.4457 11.444 25.4532 11.461 25.4565 11.4792L25.8501 11.4082ZM25.7521 11.1862C25.7023 11.1211 25.6376 11.0688 25.5635 11.0337L25.3921 11.3951C25.4088 11.403 25.4233 11.4147 25.4345 11.4293L25.7521 11.1862ZM25.5635 11.0337C25.4893 10.9985 25.4079 10.9816 25.3259 10.9842L25.3388 11.384C25.3572 11.3834 25.3755 11.3872 25.3921 11.3951L25.5635 11.0337ZM5.45785 18.1172C5.38951 18.1163 5.32166 18.1289 5.25825 18.1544L5.40739 18.5255C5.42163 18.5198 5.43685 18.517 5.45219 18.5172L5.45785 18.1172ZM5.25825 18.1544C5.19483 18.1799 5.13712 18.2177 5.08845 18.2657L5.36929 18.5505C5.38021 18.5397 5.39316 18.5312 5.40739 18.5255L5.25825 18.1544ZM5.08845 18.2657C5.03979 18.3136 5.00114 18.3708 4.97476 18.4339L5.34377 18.5883C5.34969 18.5741 5.35836 18.5613 5.36929 18.5505L5.08845 18.2657ZM4.97476 18.4339C4.94839 18.4969 4.9348 18.5646 4.9348 18.6329L5.3348 18.6329C5.3348 18.6176 5.33785 18.6024 5.34377 18.5883L4.97476 18.4339ZM4.9348 18.6329C4.9348 18.7013 4.94839 18.7689 4.97476 18.832L5.34377 18.6776C5.33785 18.6634 5.3348 18.6483 5.3348 18.6329L4.9348 18.6329ZM4.97476 18.832C5.00114 18.895 5.03979 18.9522 5.08845 19.0002L5.36929 18.7153C5.35836 18.7046 5.34969 18.6917 5.34377 18.6776L4.97476 18.832ZM5.08845 19.0002C5.13712 19.0482 5.19483 19.086 5.25825 19.1115L5.40739 18.7403C5.39316 18.7346 5.38021 18.7261 5.36929 18.7153L5.08845 19.0002ZM5.25825 19.1115C5.32166 19.137 5.38951 19.1496 5.45785 19.1486L5.45219 18.7487C5.43685 18.7489 5.42163 18.746 5.40739 18.7403L5.25825 19.1115ZM5.45502 19.1486H22.0502V18.7486H5.45502V19.1486ZM22.0473 19.1486C22.1157 19.1496 22.1835 19.137 22.2469 19.1115L22.0978 18.7403C22.0835 18.746 22.0683 18.7489 22.053 18.7487L22.0473 19.1486ZM22.2469 19.1115C22.3103 19.086 22.3681 19.0482 22.4167 19.0002L22.1359 18.7153C22.125 18.7261 22.112 18.7346 22.0978 18.7403L22.2469 19.1115ZM22.4167 19.0002C22.4654 18.9522 22.504 18.895 22.5304 18.832L22.1614 18.6776C22.1555 18.6917 22.1468 18.7046 22.1359 18.7153L22.4167 19.0002ZM22.5304 18.832C22.5568 18.7689 22.5704 18.7013 22.5704 18.6329L22.1704 18.6329C22.1704 18.6483 22.1673 18.6634 22.1614 18.6776L22.5304 18.832ZM22.5704 18.6329C22.5704 18.5646 22.5568 18.4969 22.5304 18.4339L22.1614 18.5883C22.1673 18.6024 22.1704 18.6176 22.1704 18.6329L22.5704 18.6329ZM22.5304 18.4339C22.504 18.3708 22.4654 18.3136 22.4167 18.2657L22.1359 18.5505C22.1468 18.5613 22.1555 18.5741 22.1614 18.5883L22.5304 18.4339ZM22.4167 18.2657C22.3681 18.2177 22.3103 18.1799 22.2469 18.1544L22.0978 18.5255C22.112 18.5312 22.125 18.5397 22.1359 18.5505L22.4167 18.2657ZM22.2469 18.1544C22.1835 18.1289 22.1157 18.1163 22.0473 18.1172L22.053 18.5172C22.0683 18.517 22.0835 18.5198 22.0978 18.5255L22.2469 18.1544ZM22.0502 18.1172H5.45502V18.5172H22.0502V18.1172ZM7.9234 13.3548C7.83964 13.3526 7.75661 13.3709 7.68149 13.408L7.85877 13.7666C7.87563 13.7582 7.89426 13.7541 7.91306 13.7546L7.9234 13.3548ZM7.68149 13.408C7.60638 13.4451 7.54145 13.5 7.49231 13.5679L7.81631 13.8025C7.82734 13.7872 7.84191 13.7749 7.85877 13.7666L7.68149 13.408ZM7.49399 13.5656C6.90292 14.358 6.55267 15.368 6.55267 16.4614H6.95267C6.95267 15.4536 7.27544 14.5276 7.81463 13.8048L7.49399 13.5656ZM6.55267 16.4614C6.55267 17.2839 6.751 18.0593 7.10069 18.7301L7.45539 18.5452C7.13541 17.9314 6.95267 17.2194 6.95267 16.4614H6.55267ZM7.09939 18.7275C7.13012 18.7886 7.17268 18.8429 7.2246 18.8874L7.48478 18.5836C7.47313 18.5736 7.46358 18.5614 7.45668 18.5477L7.09939 18.7275ZM7.2246 18.8874C7.27651 18.9318 7.33674 18.9655 7.40179 18.9865L7.52455 18.6058C7.50995 18.6011 7.49643 18.5936 7.48478 18.5836L7.2246 18.8874ZM7.40179 18.9865C7.46683 19.0075 7.5354 19.0153 7.60351 19.0096L7.56982 18.611C7.55454 18.6123 7.53915 18.6105 7.52455 18.6058L7.40179 18.9865ZM7.60351 19.0096C7.67162 19.0038 7.7379 18.9846 7.79851 18.953L7.61358 18.5983C7.59998 18.6054 7.5851 18.6097 7.56982 18.611L7.60351 19.0096ZM7.79851 18.953C7.85911 18.9214 7.91283 18.8781 7.95655 18.8255L7.64905 18.5697C7.63924 18.5815 7.62719 18.5912 7.61358 18.5983L7.79851 18.953ZM7.95655 18.8255C8.00026 18.773 8.0331 18.7123 8.05314 18.6469L7.67073 18.5296C7.66623 18.5443 7.65886 18.5579 7.64905 18.5697L7.95655 18.8255ZM8.05314 18.6469C8.07319 18.5816 8.08005 18.5129 8.07332 18.4449L7.67526 18.4843C7.67677 18.4995 7.67523 18.5149 7.67073 18.5296L8.05314 18.6469ZM8.07332 18.4449C8.06659 18.3769 8.04641 18.3109 8.01395 18.2507L7.66194 18.4407C7.66922 18.4542 7.67375 18.469 7.67526 18.4843L8.07332 18.4449ZM8.01529 18.2533C7.74226 17.7295 7.5841 17.118 7.5841 16.4614H7.1841C7.1841 17.1824 7.35785 17.8574 7.6606 18.4382L8.01529 18.2533ZM7.5841 16.4614C7.5841 15.5885 7.86389 14.7948 8.32076 14.1823L8.00013 13.9431C7.4914 14.6252 7.1841 15.5029 7.1841 16.4614H7.5841ZM8.31905 14.1845C8.37701 14.1091 8.41297 14.019 8.42295 13.9244L8.02515 13.8825C8.02291 13.9037 8.01484 13.9239 8.00183 13.9409L8.31905 14.1845ZM8.42295 13.9244C8.43292 13.8298 8.41653 13.7343 8.37558 13.6484L8.01452 13.8205C8.02371 13.8398 8.02739 13.8612 8.02515 13.8825L8.42295 13.9244ZM8.37558 13.6484C8.33462 13.5625 8.27071 13.4896 8.19091 13.4378L7.97308 13.7733C7.99099 13.7849 8.00533 13.8012 8.01452 13.8205L8.37558 13.6484ZM8.19091 13.4378C8.11111 13.386 8.01853 13.3572 7.92342 13.3548L7.91304 13.7546C7.93439 13.7552 7.95517 13.7616 7.97308 13.7733L8.19091 13.4378ZM18.8145 12.096C18.6943 12.0995 18.5791 12.145 18.4888 12.2246L18.7533 12.5247C18.7736 12.5068 18.7994 12.4966 18.8264 12.4958L18.8145 12.096ZM18.4888 12.2246C18.3986 12.3041 18.339 12.4127 18.3203 12.5316L18.7155 12.5935C18.7197 12.5669 18.7331 12.5425 18.7533 12.5247L18.4888 12.2246ZM18.3203 12.5316C18.3017 12.6504 18.3252 12.772 18.3867 12.8754L18.7304 12.6707C18.7166 12.6475 18.7113 12.6202 18.7155 12.5935L18.3203 12.5316ZM18.3867 12.8754C18.4483 12.9787 18.544 13.0573 18.6574 13.0975L18.7911 12.7206C18.7657 12.7115 18.7442 12.6939 18.7304 12.6707L18.3867 12.8754ZM18.6546 13.0965C19.8805 13.5519 20.8105 14.8696 20.8105 16.4614H21.2105C21.2105 14.719 20.1915 13.2407 18.7939 12.7216L18.6546 13.0965ZM20.8105 16.4614C20.8105 17.1287 20.647 17.7496 20.3657 18.279L20.719 18.4667C21.0309 17.8796 21.2105 17.1942 21.2105 16.4614H20.8105ZM20.3672 18.2763C20.3342 18.3362 20.3134 18.4021 20.3061 18.4701L20.7038 18.5128C20.7055 18.4975 20.7101 18.4827 20.7175 18.4693L20.3672 18.2763ZM20.3061 18.4701C20.2988 18.538 20.3051 18.6068 20.3246 18.6723L20.708 18.5582C20.7036 18.5435 20.7022 18.528 20.7038 18.5128L20.3061 18.4701ZM20.3246 18.6723C20.3442 18.7379 20.3765 18.7989 20.4198 18.8518L20.7294 18.5984C20.7196 18.5866 20.7124 18.5729 20.708 18.5582L20.3246 18.6723ZM20.4198 18.8518C20.4631 18.9047 20.5165 18.9485 20.5769 18.9806L20.7646 18.6273C20.7511 18.6201 20.7391 18.6103 20.7294 18.5984L20.4198 18.8518ZM20.5769 18.9806C20.6372 19.0126 20.7034 19.0324 20.7715 19.0387L20.8083 18.6404C20.793 18.639 20.7782 18.6345 20.7646 18.6273L20.5769 18.9806ZM20.7715 19.0387C20.8396 19.045 20.9082 19.0377 20.9735 19.0172L20.8536 18.6356C20.839 18.6402 20.8236 18.6418 20.8083 18.6404L20.7715 19.0387ZM20.9735 19.0172C21.0387 18.9967 21.0992 18.9635 21.1515 18.9194L20.8936 18.6136C20.8818 18.6235 20.8683 18.631 20.8536 18.6356L20.9735 19.0172ZM21.1515 18.9194C21.2037 18.8753 21.2467 18.8212 21.2779 18.7604L20.9219 18.5779C20.9149 18.5916 20.9053 18.6037 20.8936 18.6136L21.1515 18.9194ZM21.2765 18.763C21.6369 18.0847 21.8419 17.2974 21.8419 16.4614H21.4419C21.4419 17.2318 21.253 17.9547 20.9233 18.5753L21.2765 18.763ZM21.8419 16.4614C21.8419 14.4733 20.6828 12.7496 19.0138 12.1296L18.8745 12.5046C20.3718 13.0607 21.4419 14.6239 21.4419 16.4614H21.8419ZM19.0165 12.1306C18.9521 12.1057 18.8834 12.0939 18.8144 12.096L18.8265 12.4958C18.842 12.4953 18.8574 12.498 18.8719 12.5036L19.0165 12.1306ZM14.321 17.4855C14.236 17.4829 14.1516 17.5015 14.0755 17.5395L14.254 17.8974C14.2711 17.8889 14.29 17.8847 14.3091 17.8853L14.321 17.4855ZM14.0755 17.5395C13.9993 17.5774 13.9338 17.6337 13.8846 17.7031L14.2112 17.9341C14.2222 17.9186 14.2369 17.9059 14.254 17.8974L14.0755 17.5395ZM13.8846 17.7031C13.8355 17.7726 13.8043 17.8531 13.7938 17.9376L14.1908 17.9868C14.1932 17.9678 14.2002 17.9497 14.2112 17.9341L13.8846 17.7031ZM13.7938 17.9376C13.7834 18.022 13.794 18.1078 13.8247 18.1871L14.1977 18.0428C14.1908 18.025 14.1885 18.0057 14.1908 17.9868L13.7938 17.9376ZM13.8237 18.1845C13.8906 18.3648 13.9675 18.5395 14.0541 18.7079L14.4098 18.5249C14.3306 18.3709 14.2601 18.2109 14.1987 18.0454L13.8237 18.1845ZM14.0529 18.7054C14.0833 18.7666 14.1256 18.8211 14.1772 18.8658L14.4389 18.5633C14.4274 18.5533 14.4179 18.5411 14.411 18.5273L14.0529 18.7054ZM14.1772 18.8658C14.2289 18.9105 14.2889 18.9445 14.3539 18.9658L14.4786 18.5858C14.464 18.581 14.4505 18.5734 14.4389 18.5633L14.1772 18.8658ZM14.3539 18.9658C14.4188 18.9871 14.4873 18.9953 14.5554 18.9899L14.5238 18.5912C14.5085 18.5924 14.4931 18.5905 14.4786 18.5858L14.3539 18.9658ZM14.5554 18.9899C14.6235 18.9845 14.6898 18.9657 14.7506 18.9344L14.5676 18.5787C14.554 18.5857 14.5391 18.59 14.5238 18.5912L14.5554 18.9899ZM14.7506 18.9344C14.8113 18.9032 14.8653 18.8602 14.9093 18.8079L14.6032 18.5503C14.5934 18.5621 14.5813 18.5717 14.5676 18.5787L14.7506 18.9344ZM14.9093 18.8079C14.9533 18.7556 14.9864 18.6951 15.0069 18.6299L14.6251 18.5104C14.6206 18.525 14.6131 18.5386 14.6032 18.5503L14.9093 18.8079ZM15.0069 18.6299C15.0273 18.5647 15.0345 18.4961 15.0282 18.4281L14.6299 18.4651C14.6313 18.4804 14.6297 18.4958 14.6251 18.5104L15.0069 18.6299ZM15.0282 18.4281C15.0219 18.3601 15.0021 18.294 14.9701 18.2337L14.6169 18.4214C14.6241 18.435 14.6285 18.4498 14.6299 18.4651L15.0282 18.4281ZM14.9713 18.2361C14.9037 18.1046 14.8433 17.9677 14.7907 17.8259L14.4157 17.965C14.4738 18.1217 14.5406 18.2732 14.6156 18.419L14.9713 18.2361ZM14.7917 17.8285C14.7569 17.7306 14.6934 17.6455 14.6094 17.5842L14.3738 17.9075C14.3926 17.9212 14.4069 17.9403 14.4147 17.9623L14.7917 17.8285ZM14.6094 17.5842C14.5255 17.523 14.425 17.4886 14.3211 17.4855L14.3091 17.8853C14.3324 17.886 14.3549 17.8937 14.3738 17.9075L14.6094 17.5842ZM10.6704 12.9922C10.6021 12.9913 10.5342 13.0039 10.4708 13.0294L10.6199 13.4005C10.6342 13.3948 10.6494 13.392 10.6647 13.3922L10.6704 12.9922ZM10.4708 13.0294C10.4074 13.0549 10.3497 13.0927 10.301 13.1407L10.5818 13.4255C10.5927 13.4148 10.6057 13.4063 10.6199 13.4005L10.4708 13.0294ZM10.301 13.1407C10.2523 13.1887 10.2137 13.2458 10.1873 13.3089L10.5563 13.4633C10.5622 13.4491 10.5709 13.4363 10.5818 13.4255L10.301 13.1407ZM10.1873 13.3089C10.1609 13.3719 10.1473 13.4396 10.1473 13.5079H10.5473C10.5473 13.4926 10.5504 13.4774 10.5563 13.4633L10.1873 13.3089ZM10.1473 13.5079C10.1473 13.5763 10.1609 13.6439 10.1873 13.707L10.5563 13.5526C10.5504 13.5385 10.5473 13.5233 10.5473 13.5079H10.1473ZM10.1873 13.707C10.2137 13.77 10.2523 13.8272 10.301 13.8752L10.5818 13.5904C10.5709 13.5796 10.5622 13.5668 10.5563 13.5526L10.1873 13.707ZM10.301 13.8752C10.3497 13.9232 10.4074 13.961 10.4708 13.9865L10.6199 13.6153C10.6057 13.6096 10.5927 13.6011 10.5818 13.5904L10.301 13.8752ZM10.4708 13.9865C10.5342 14.012 10.6021 14.0246 10.6704 14.0236L10.6647 13.6237C10.6494 13.6239 10.6342 13.6211 10.6199 13.6153L10.4708 13.9865ZM10.6676 14.0237C11.576 14.0237 12.4534 14.9917 12.4534 16.3635H12.8534C12.8534 14.8587 11.8756 13.6237 10.6676 13.6237V14.0237ZM12.4534 16.3635C12.4534 17.0697 12.2098 17.6928 11.8483 18.1123L12.1514 18.3734C12.5798 17.8762 12.8534 17.1585 12.8534 16.3635H12.4534ZM11.85 18.1104C11.8048 18.1616 11.7702 18.2212 11.7482 18.2858L12.1269 18.4146C12.1318 18.4001 12.1396 18.3867 12.1497 18.3753L11.85 18.1104ZM11.7482 18.2858C11.7262 18.3505 11.7173 18.4188 11.7219 18.4869L12.121 18.4598C12.12 18.4445 12.122 18.4291 12.1269 18.4146L11.7482 18.2858ZM11.7219 18.4869C11.7266 18.5551 11.7447 18.6216 11.7752 18.6826L12.133 18.5037C12.1261 18.49 12.122 18.475 12.121 18.4598L11.7219 18.4869ZM11.7752 18.6826C11.8058 18.7437 11.8481 18.7981 11.8998 18.8426L12.1609 18.5396C12.1493 18.5296 12.1398 18.5174 12.133 18.5037L11.7752 18.6826ZM11.8998 18.8426C11.9516 18.8872 12.0116 18.921 12.0765 18.9422L12.2006 18.5619C12.186 18.5572 12.1725 18.5496 12.1609 18.5396L11.8998 18.8426ZM12.0765 18.9422C12.1414 18.9634 12.2099 18.9715 12.2779 18.966L12.2458 18.5673C12.2305 18.5685 12.2152 18.5667 12.2006 18.5619L12.0765 18.9422ZM12.2779 18.966C12.346 18.9605 12.4123 18.9415 12.4729 18.9103L12.2896 18.5548C12.2759 18.5618 12.2611 18.566 12.2458 18.5673L12.2779 18.966ZM12.4729 18.9103C12.5336 18.879 12.5875 18.8359 12.6314 18.7836L12.3251 18.5264C12.3153 18.5381 12.3032 18.5477 12.2896 18.5548L12.4729 18.9103ZM12.6298 18.7856C13.1666 18.1625 13.4848 17.3022 13.4848 16.3635H13.0848C13.0848 17.2135 12.7965 17.9792 12.3267 18.5244L12.6298 18.7856ZM13.4848 16.3635C13.4848 14.5805 12.2975 12.9922 10.6676 12.9922V13.3922C12.0022 13.3922 13.0848 14.7189 13.0848 16.3635H13.4848ZM10.6676 12.9922C9.03766 12.9922 7.85019 14.5805 7.85019 16.3635H8.25019C8.25019 14.7189 9.33291 13.3922 10.6676 13.3922V12.9922ZM7.85019 16.3635C7.85019 17.29 8.16023 18.1399 8.68429 18.7609L8.98999 18.503C8.53104 17.9591 8.25019 17.2023 8.25019 16.3635H7.85019ZM8.68254 18.7588C8.72589 18.8116 8.77929 18.8553 8.83966 18.8873L9.027 18.5339C9.01345 18.5267 9.00146 18.5169 8.99174 18.5051L8.68254 18.7588ZM8.83966 18.8873C8.90002 18.9193 8.96614 18.939 9.03418 18.9452L9.07066 18.5469C9.05539 18.5455 9.04055 18.5411 9.027 18.5339L8.83966 18.8873ZM9.03418 18.9452C9.10222 18.9515 9.17082 18.9441 9.23599 18.9236L9.11595 18.542C9.10132 18.5466 9.08592 18.5483 9.07066 18.5469L9.03418 18.9452ZM9.23599 18.9236C9.30116 18.9031 9.36161 18.8698 9.41382 18.8258L9.15586 18.5201C9.14414 18.53 9.13058 18.5374 9.11595 18.542L9.23599 18.9236ZM9.41382 18.8258C9.46604 18.7817 9.50898 18.7277 9.54015 18.6669L9.18421 18.4844C9.17722 18.4981 9.16758 18.5102 9.15586 18.5201L9.41382 18.8258ZM9.54015 18.6669C9.57132 18.6061 9.5901 18.5397 9.5954 18.4716L9.19661 18.4406C9.19542 18.4559 9.19121 18.4708 9.18421 18.4844L9.54015 18.6669ZM9.5954 18.4716C9.6007 18.4035 9.59242 18.335 9.57103 18.2701L9.19114 18.3954C9.19594 18.4099 9.1978 18.4253 9.19661 18.4406L9.5954 18.4716ZM9.57103 18.2701C9.54963 18.2052 9.51556 18.1453 9.47079 18.0937L9.16864 18.3558C9.17869 18.3674 9.18634 18.3808 9.19114 18.3954L9.57103 18.2701ZM9.47257 18.0957C9.11877 17.6765 8.88162 17.0603 8.88162 16.3635H8.48162C8.48162 17.1481 8.74803 17.8574 9.16687 18.3537L9.47257 18.0957ZM8.88162 16.3635C8.88162 14.9917 9.75908 14.0237 10.6676 14.0237V13.6237C9.45955 13.6237 8.48162 14.8587 8.48162 16.3635H8.88162ZM10.6647 14.0236C10.7331 14.0246 10.8009 14.012 10.8643 13.9865L10.7152 13.6153C10.7009 13.6211 10.6857 13.6239 10.6704 13.6237L10.6647 14.0236ZM10.8643 13.9865C10.9277 13.961 10.9855 13.9232 11.0341 13.8752L10.7533 13.5904C10.7424 13.6011 10.7294 13.6096 10.7152 13.6153L10.8643 13.9865ZM11.0341 13.8752C11.0828 13.8272 11.1214 13.77 11.1478 13.707L10.7788 13.5526C10.7729 13.5668 10.7642 13.5796 10.7533 13.5904L11.0341 13.8752ZM11.1478 13.707C11.1742 13.6439 11.1878 13.5763 11.1878 13.5079H10.7878C10.7878 13.5233 10.7847 13.5385 10.7788 13.5526L11.1478 13.707ZM11.1878 13.5079C11.1878 13.4396 11.1742 13.3719 11.1478 13.3089L10.7788 13.4633C10.7847 13.4774 10.7878 13.4926 10.7878 13.5079H11.1878ZM11.1478 13.3089C11.1214 13.2458 11.0828 13.1887 11.0341 13.1407L10.7533 13.4255C10.7642 13.4363 10.7729 13.4491 10.7788 13.4633L11.1478 13.3089ZM11.0341 13.1407C10.9855 13.0927 10.9277 13.0549 10.8643 13.0294L10.7152 13.4005C10.7294 13.4063 10.7424 13.4148 10.7533 13.4255L11.0341 13.1407ZM10.8643 13.0294C10.8009 13.0039 10.7331 12.9913 10.6647 12.9922L10.6704 13.3922C10.6857 13.392 10.7009 13.3948 10.7152 13.4005L10.8643 13.0294ZM17.526 13.1185C15.8961 13.1185 14.7088 14.7068 14.7088 16.4897H15.1088C15.1088 14.8452 16.1914 13.5185 17.526 13.5185V13.1185ZM14.7088 16.4869C14.7078 16.5553 14.7205 16.6231 14.7459 16.6865L15.1171 16.5374C15.1114 16.5231 15.1085 16.5079 15.1088 16.4926L14.7088 16.4869ZM14.7459 16.6865C14.7714 16.7499 14.8093 16.8076 14.8572 16.8563L15.1421 16.5755C15.1313 16.5646 15.1228 16.5516 15.1171 16.5374L14.7459 16.6865ZM14.8572 16.8563C14.9052 16.905 14.9624 16.9436 15.0254 16.97L15.1798 16.601C15.1657 16.5951 15.1528 16.5864 15.1421 16.5755L14.8572 16.8563ZM15.0254 16.97C15.0885 16.9964 15.1562 17.01 15.2245 17.01L15.2245 16.61C15.2092 16.61 15.194 16.6069 15.1798 16.601L15.0254 16.97ZM15.2245 17.01C15.2928 17.01 15.3605 16.9964 15.4235 16.97L15.2692 16.601C15.255 16.6069 15.2398 16.61 15.2245 16.61L15.2245 17.01ZM15.4235 16.97C15.4866 16.9436 15.5438 16.905 15.5918 16.8563L15.3069 16.5755C15.2962 16.5864 15.2833 16.5951 15.2692 16.601L15.4235 16.97ZM15.5918 16.8563C15.6397 16.8076 15.6776 16.7499 15.7031 16.6865L15.3319 16.5374C15.3262 16.5516 15.3177 16.5646 15.3069 16.5755L15.5918 16.8563ZM15.7031 16.6865C15.7285 16.6231 15.7412 16.5553 15.7402 16.4869L15.3402 16.4926C15.3404 16.5079 15.3376 16.5231 15.3319 16.5374L15.7031 16.6865ZM15.7402 16.4897C15.7402 15.118 16.6176 14.1499 17.526 14.1499V13.7499C16.318 13.7499 15.3402 14.985 15.3402 16.4897H15.7402ZM17.526 14.1499C18.4345 14.1499 19.3118 15.118 19.3118 16.4897H19.7118C19.7118 14.985 18.734 13.7499 17.526 13.7499V14.1499ZM19.3118 16.4897C19.3118 17.1662 19.0887 17.7667 18.7517 18.1848L19.0631 18.4358C19.461 17.9421 19.7118 17.2516 19.7118 16.4897H19.3118ZM18.7539 18.1821C18.71 18.2346 18.677 18.2954 18.6568 18.3609L19.0391 18.4787C19.0436 18.464 19.051 18.4503 19.0609 18.4385L18.7539 18.1821ZM18.6568 18.3609C18.6367 18.4263 18.6297 18.4951 18.6365 18.5633L19.0345 18.5241C19.033 18.5088 19.0346 18.4933 19.0391 18.4787L18.6568 18.3609ZM18.6365 18.5633C18.6432 18.6315 18.6634 18.6976 18.696 18.7579L19.0479 18.5677C19.0406 18.5542 19.036 18.5394 19.0345 18.5241L18.6365 18.5633ZM18.696 18.7579C18.7285 18.8181 18.7727 18.8713 18.8261 18.9143L19.0771 18.6029C19.0651 18.5932 19.0552 18.5813 19.0479 18.5677L18.696 18.7579ZM18.8261 18.9143C18.8794 18.9573 18.9407 18.9892 19.0065 19.0082L19.1176 18.6239C19.1028 18.6197 19.089 18.6125 19.0771 18.6029L18.8261 18.9143ZM19.0065 19.0082C19.0723 19.0272 19.1412 19.0329 19.2093 19.025L19.1631 18.6277C19.1478 18.6295 19.1324 18.6282 19.1176 18.6239L19.0065 19.0082ZM19.2093 19.025C19.2773 19.0171 19.3431 18.9957 19.4028 18.9621L19.2065 18.6136C19.1931 18.6211 19.1784 18.6259 19.1631 18.6277L19.2093 19.025ZM19.4028 18.9621C19.4625 18.9285 19.5148 18.8834 19.5569 18.8293L19.2411 18.5838C19.2317 18.5959 19.2199 18.6061 19.2065 18.6136L19.4028 18.9621ZM19.5547 18.8321C20.051 18.2163 20.3433 17.3893 20.3433 16.4897H19.9433C19.9433 17.304 19.6786 18.041 19.2433 18.581L19.5547 18.8321ZM20.3433 16.4897C20.3433 14.7068 19.1559 13.1185 17.526 13.1185V13.5185C18.8607 13.5185 19.9433 14.8452 19.9433 16.4897H20.3433ZM15.2166 15.9696C15.08 15.9717 14.9497 16.0279 14.8545 16.126L15.1415 16.4047C15.1628 16.3827 15.1921 16.37 15.2227 16.3696L15.2166 15.9696ZM14.8545 16.126C14.7593 16.2241 14.7069 16.3559 14.7088 16.4926L15.1088 16.4869C15.1083 16.4563 15.1201 16.4267 15.1415 16.4047L14.8545 16.126ZM14.7088 16.4897C14.7088 17.3893 15.001 18.2163 15.4973 18.8321L15.8088 18.581C15.3735 18.041 15.1088 17.304 15.1088 16.4897H14.7088ZM15.4952 18.8293C15.5372 18.8834 15.5896 18.9285 15.6493 18.9621L15.8455 18.6136C15.8321 18.6061 15.8204 18.5959 15.8109 18.5838L15.4952 18.8293ZM15.6493 18.9621C15.709 18.9957 15.7747 19.0171 15.8428 19.025L15.889 18.6277C15.8737 18.6259 15.8589 18.6211 15.8455 18.6136L15.6493 18.9621ZM15.8428 19.025C15.9108 19.033 15.9797 19.0272 16.0455 19.0082L15.9345 18.6239C15.9197 18.6282 15.9042 18.6295 15.889 18.6277L15.8428 19.025ZM16.0455 19.0082C16.1113 18.9892 16.1727 18.9573 16.226 18.9143L15.975 18.6029C15.963 18.6125 15.9492 18.6197 15.9345 18.6239L16.0455 19.0082ZM16.226 18.9143C16.2793 18.8713 16.3235 18.8181 16.3561 18.7579L16.0042 18.5678C15.9969 18.5813 15.9869 18.5932 15.975 18.6029L16.226 18.9143ZM16.3561 18.7579C16.3886 18.6976 16.4089 18.6315 16.4156 18.5633L16.0175 18.5241C16.016 18.5394 16.0115 18.5542 16.0042 18.5678L16.3561 18.7579ZM16.4156 18.5633C16.4223 18.4951 16.4154 18.4263 16.3952 18.3609L16.0129 18.4787C16.0175 18.4934 16.019 18.5088 16.0175 18.5241L16.4156 18.5633ZM16.3952 18.3609C16.375 18.2954 16.342 18.2346 16.2981 18.1821L15.9912 18.4385C16.001 18.4503 16.0084 18.464 16.0129 18.4787L16.3952 18.3609ZM16.3004 18.1848C15.9634 17.7667 15.7402 17.1662 15.7402 16.4897H15.3402C15.3402 17.2516 15.591 17.9421 15.9889 18.4358L16.3004 18.1848ZM15.7402 16.4926C15.7412 16.4236 15.7283 16.3551 15.7023 16.2912L15.3317 16.4417C15.3376 16.4561 15.3404 16.4715 15.3402 16.4869L15.7402 16.4926ZM15.7023 16.2912C15.6763 16.2272 15.6378 16.1692 15.589 16.1204L15.3063 16.4034C15.3172 16.4144 15.3259 16.4274 15.3317 16.4417L15.7023 16.2912ZM15.589 16.1204C15.5402 16.0716 15.482 16.0332 15.4181 16.0073L15.2679 16.378C15.2823 16.3838 15.2953 16.3925 15.3063 16.4034L15.589 16.1204ZM15.4181 16.0073C15.3541 15.9814 15.2856 15.9686 15.2166 15.9696L15.2227 16.3696C15.2382 16.3693 15.2536 16.3722 15.2679 16.378L15.4181 16.0073Z" fill="white" mask="url(#path-1-outside-1)"/>
</svg>
