<svg width="32" height="32" viewBox="0 0 32 32" fill="none" xmlns="http://www.w3.org/2000/svg">
<g opacity="0.2">
<mask id="path-1-inside-1" fill="white">
<path d="M16.1712 1.00035C16.1234 0.998237 16.0757 1.0057 16.0308 1.02231C15.9859 1.03892 15.9448 1.06433 15.9099 1.09705C15.875 1.12977 15.847 1.16914 15.8275 1.21285C15.808 1.25656 15.7975 1.30372 15.7965 1.35156C15.7955 1.3994 15.8041 1.44695 15.8218 1.49142C15.8394 1.53589 15.8658 1.57638 15.8994 1.61051C15.9329 1.64463 15.9729 1.67171 16.0171 1.69014C16.0612 1.70857 16.1086 1.71799 16.1565 1.71784C17.9611 1.75492 19.3473 1.83106 20.3022 1.94299C20.7796 1.99895 21.1499 2.06465 21.3997 2.13308C21.6495 2.20152 21.7665 2.30782 21.7299 2.25799C21.6848 2.19665 21.7666 2.35332 21.8106 2.558C21.8547 2.76268 21.9007 3.04293 21.9453 3.36942C22.0347 4.02239 22.1196 4.8627 22.1912 5.71002C22.2629 6.55735 22.3214 7.41277 22.3593 8.10012C22.3972 8.78746 22.4113 9.33742 22.4042 9.4594C22.3848 9.79199 22.2752 10.7346 22.1757 11.7313C22.0761 12.728 21.9844 13.785 22.0035 14.466C22.0222 15.1321 22.1733 17.6863 22.2017 20.7306C22.2295 23.6971 22.1343 27.1072 21.6986 29.5744C20.4612 30.0328 18.6118 30.2822 16.1638 30.2822C16.1162 30.2815 16.069 30.2903 16.0249 30.308C15.9807 30.3258 15.9406 30.3521 15.9067 30.3855C15.8728 30.4189 15.8459 30.4587 15.8276 30.5026C15.8092 30.5464 15.7998 30.5935 15.7998 30.6411C15.7998 30.6886 15.8092 30.7357 15.8276 30.7796C15.8459 30.8235 15.8728 30.8633 15.9067 30.8967C15.9406 30.9301 15.9807 30.9564 16.0249 30.9741C16.069 30.9919 16.1162 31.0006 16.1638 31C18.7811 31 20.767 30.7378 22.1544 30.1728C22.21 30.1502 22.259 30.114 22.297 30.0675C22.335 30.0209 22.3607 29.9656 22.3718 29.9066C22.8568 27.3249 22.9481 23.7883 22.9194 20.7239C22.8907 17.6595 22.738 15.0522 22.721 14.4458C22.7044 13.8543 22.7912 12.7916 22.8899 11.8027C22.9887 10.8138 23.0973 9.90494 23.1208 9.50117C23.1352 9.25501 23.1143 8.75584 23.076 8.06058C23.0376 7.36533 22.9788 6.50458 22.9065 5.6496C22.8342 4.79462 22.7488 3.94641 22.6565 3.27212C22.6104 2.93498 22.5628 2.64194 22.5123 2.40701C22.4617 2.17209 22.4479 2.02287 22.3082 1.8328C22.1307 1.5914 21.898 1.52537 21.5894 1.44083C21.2808 1.35628 20.8842 1.28841 20.3857 1.22998C19.3888 1.11313 17.9883 1.03768 16.1712 1.00035Z"/>
<path d="M16.1638 9.19444C16.1162 9.19377 16.069 9.20255 16.0249 9.22029C15.9807 9.23802 15.9406 9.26435 15.9067 9.29774C15.8728 9.33113 15.846 9.37092 15.8276 9.4148C15.8092 9.45868 15.7998 9.50576 15.7998 9.55333C15.7998 9.60089 15.8092 9.64797 15.8276 9.69185C15.846 9.73573 15.8728 9.77552 15.9067 9.80891C15.9406 9.8423 15.9807 9.86863 16.0249 9.88636C16.069 9.9041 16.1162 9.91288 16.1638 9.91221C16.5461 9.91221 17.3006 9.97338 17.7823 10.0458C18.7739 10.1948 19.5293 10.413 20.066 10.6722C19.8504 11.8187 19.5067 12.8536 19.0371 13.7809C18.074 13.5695 17.1156 13.4579 16.1638 13.4579C16.1162 13.4572 16.069 13.466 16.0249 13.4837C15.9807 13.5015 15.9406 13.5278 15.9067 13.5612C15.8728 13.5946 15.846 13.6344 15.8276 13.6782C15.8092 13.7221 15.7998 13.7692 15.7998 13.8168C15.7998 13.8643 15.8092 13.9114 15.8276 13.9553C15.846 13.9992 15.8728 14.039 15.9067 14.0724C15.9406 14.1058 15.9807 14.1321 16.0249 14.1498C16.069 14.1675 16.1162 14.1763 16.1638 14.1757C17.1508 14.1757 18.1468 14.2962 19.1537 14.5386C19.2307 14.5572 19.3117 14.5497 19.384 14.5175C19.4563 14.4852 19.5159 14.43 19.5536 14.3603C20.1649 13.228 20.5886 11.9497 20.8275 10.5311C20.8396 10.4589 20.8294 10.3848 20.7982 10.3185C20.767 10.2523 20.7162 10.1972 20.6528 10.1606C19.988 9.7774 19.0723 9.51386 17.889 9.33603C17.3606 9.25658 16.6167 9.19444 16.1638 9.19444Z"/>
<path d="M21.2626 12.6563C21.1964 12.657 21.1317 12.676 21.0756 12.7113C21.0196 12.7465 20.9743 12.7966 20.945 12.8559C20.5709 13.6124 20.2745 14.2425 20.0547 14.749C20.037 14.7899 20.027 14.8338 20.0253 14.8784C19.9236 17.5945 19.8819 19.1349 19.9113 19.646C19.9511 20.336 20.1162 21.8257 21.1477 23.2487C21.1927 23.3108 21.2563 23.3568 21.3294 23.38C21.4024 23.4033 21.481 23.4025 21.5536 23.3779C21.6262 23.3533 21.689 23.306 21.7328 23.2431C21.7766 23.1802 21.7991 23.105 21.797 23.0283L21.5846 15.221L21.6254 13.0217C21.6263 12.9737 21.6175 12.926 21.5997 12.8815C21.5818 12.8369 21.5551 12.7964 21.5213 12.7623C21.4875 12.7282 21.4471 12.7013 21.4027 12.6831C21.3583 12.6649 21.3106 12.6557 21.2626 12.6563ZM20.8765 14.6873L20.8667 15.2145C20.8666 15.2199 20.8667 15.2254 20.8669 15.2309L21.0385 21.5432C20.7307 20.7419 20.6519 20.0222 20.6278 19.6046C20.6066 19.237 20.6413 17.6351 20.7403 14.9773C20.7741 14.8997 20.8388 14.7713 20.8765 14.6873Z"/>
<path d="M19.6232 23.774C19.5996 23.7735 19.5759 23.7752 19.5526 23.7794C18.5622 23.9524 17.4344 24.0279 16.1709 24.0028C16.1234 24.0012 16.076 24.009 16.0315 24.0259C15.9871 24.0428 15.9464 24.0683 15.9119 24.101C15.8773 24.1337 15.8497 24.173 15.8304 24.2165C15.8112 24.26 15.8008 24.3069 15.7999 24.3544C15.799 24.402 15.8075 24.4493 15.825 24.4935C15.8425 24.5377 15.8686 24.578 15.9018 24.6121C15.935 24.6462 15.9746 24.6733 16.0184 24.6919C16.0622 24.7105 16.1092 24.7202 16.1568 24.7204C17.3207 24.7435 18.3764 24.6793 19.3367 24.5355C19.6132 25.7185 19.7951 26.9776 19.8806 28.3139C19.0479 28.5176 17.814 28.6352 16.1638 28.6352C16.1162 28.6346 16.069 28.6434 16.0249 28.6611C15.9807 28.6788 15.9406 28.7051 15.9067 28.7385C15.8728 28.7719 15.846 28.8117 15.8276 28.8556C15.8092 28.8995 15.7998 28.9466 15.7998 28.9941C15.7998 29.0417 15.8092 29.0888 15.8276 29.1326C15.846 29.1765 15.8728 29.2163 15.9067 29.2497C15.9406 29.2831 15.9807 29.3094 16.0249 29.3272C16.069 29.3449 16.1162 29.3537 16.1638 29.353C18.0261 29.353 19.4123 29.2241 20.3647 28.9373C20.4417 28.9142 20.5086 28.8659 20.5549 28.8001C20.6011 28.7344 20.6239 28.6551 20.6197 28.5748C20.5348 26.9656 20.3162 25.4557 19.9625 24.0456C19.9434 23.9694 19.8999 23.9017 19.8386 23.8526C19.7774 23.8036 19.7017 23.776 19.6232 23.774Z"/>
<path d="M22.6564 5.118C22.6088 5.11733 22.5616 5.12612 22.5175 5.14385C22.4733 5.16158 22.4332 5.18791 22.3993 5.2213C22.3654 5.2547 22.3385 5.29449 22.3202 5.33836C22.3018 5.38224 22.2924 5.42933 22.2924 5.47689C22.2924 5.52445 22.3018 5.57154 22.3202 5.61541C22.3385 5.65929 22.3654 5.69908 22.3993 5.73247C22.4332 5.76586 22.4733 5.79219 22.5175 5.80993C22.5616 5.82766 22.6088 5.83645 22.6564 5.83577H22.7551V7.86979C22.6672 7.88693 22.5888 7.93634 22.5355 8.00829C22.4821 8.08025 22.4576 8.16956 22.4667 8.25867C22.4759 8.34778 22.518 8.43026 22.5848 8.48989C22.6517 8.54953 22.7384 8.58202 22.828 8.58097C23.1935 8.58097 23.4728 8.26673 23.4728 7.91633V5.78264C23.4728 5.41962 23.1712 5.118 22.8082 5.118H22.6564Z"/>
<path d="M22.5909 22.8472C22.5015 22.8464 22.4149 22.879 22.3483 22.9386C22.2816 22.9982 22.2395 23.0806 22.2304 23.1695C22.2213 23.2585 22.2457 23.3477 22.2989 23.4196C22.3521 23.4915 22.4303 23.541 22.518 23.5583V25.599C22.4301 25.6162 22.3518 25.6656 22.2984 25.7375C22.2451 25.8095 22.2205 25.8988 22.2297 25.9879C22.2388 26.077 22.2809 26.1595 22.3478 26.2191C22.4146 26.2788 22.5013 26.3113 22.5909 26.3102C22.9564 26.3102 23.2358 25.9961 23.2358 25.6457V23.512C23.2358 23.1616 22.9565 22.8472 22.5909 22.8472Z"/>
<path d="M20.2922 1.24093C20.2086 1.23717 20.1263 1.26274 20.0596 1.31322C19.9928 1.3637 19.9458 1.43592 19.9267 1.5174C19.9075 1.59887 19.9175 1.68447 19.9548 1.75939C19.992 1.83432 20.0543 1.89386 20.1309 1.92772C20.1025 1.91468 20.1658 1.95195 20.2347 2.08669C20.2712 2.1578 20.3128 2.30626 20.3528 2.42006C20.3342 2.42257 20.3123 2.43022 20.2976 2.43086C20.334 2.42927 20.2465 2.42736 20.1384 2.41235C20.0304 2.39734 19.8788 2.37311 19.6869 2.34016C19.3462 2.28165 18.8299 2.18487 18.2356 2.07099V1.78823C18.2363 1.74067 18.2275 1.69346 18.2098 1.64933C18.1921 1.60519 18.1657 1.56503 18.1323 1.53116C18.099 1.49729 18.0592 1.4704 18.0153 1.45204C17.9714 1.43369 17.9243 1.42423 17.8768 1.42423C17.8292 1.42423 17.7821 1.43369 17.7382 1.45204C17.6944 1.4704 17.6546 1.49729 17.6212 1.53116C17.5878 1.56503 17.5615 1.60519 17.5437 1.64933C17.526 1.69346 17.5172 1.74067 17.5179 1.78823V2.25941C17.5179 2.51049 17.6694 2.69407 17.916 2.74166C18.6239 2.87829 19.1727 2.98012 19.5653 3.04755C19.7617 3.08127 19.9186 3.10645 20.0396 3.12326C20.1606 3.14006 20.2225 3.15255 20.3288 3.14793C20.4786 3.14141 20.6197 3.11098 20.7477 3.0683C20.8117 3.04696 20.8709 3.02393 20.935 2.98643C20.9991 2.94893 21.1241 2.92903 21.1603 2.67619C21.1671 2.6282 21.1642 2.57932 21.1516 2.5325C21.0677 2.21981 20.9793 1.966 20.8736 1.75949C20.7678 1.55298 20.6488 1.37588 20.4306 1.27556C20.3873 1.25487 20.3402 1.2431 20.2922 1.24093Z"/>
<path d="M23.39 11.7568C23.3203 11.7532 23.2468 11.758 23.1595 11.7802C22.9171 11.8419 22.6638 11.9751 22.3373 12.1771C22.2961 12.2014 22.2601 12.2336 22.2315 12.2719C22.203 12.3102 22.1823 12.3539 22.1708 12.4003C22.1593 12.4467 22.1573 12.495 22.1647 12.5422C22.1721 12.5895 22.1889 12.6347 22.214 12.6754C22.2392 12.7161 22.2722 12.7513 22.3112 12.779C22.3502 12.8067 22.3943 12.8264 22.441 12.8368C22.4876 12.8472 22.5359 12.8482 22.583 12.8397C22.63 12.8313 22.6749 12.8134 22.715 12.7874C23.0123 12.6033 23.2402 12.5003 23.3364 12.4759C23.2889 12.488 23.377 12.4755 23.4769 12.4925C23.5768 12.5096 23.7042 12.5414 23.8268 12.5802C23.9495 12.6189 24.0691 12.6652 24.1539 12.7056C24.195 12.7253 24.2282 12.7521 24.2457 12.7656C24.256 12.7898 24.3301 12.9431 24.3708 13.0868C24.3781 13.1128 24.3792 13.1271 24.3849 13.1513C24.2839 13.183 24.1548 13.2174 23.9998 13.2395C23.6615 13.2877 23.244 13.2766 22.892 13.1144C22.8491 13.0937 22.8025 13.0817 22.7548 13.0792C22.7072 13.0767 22.6596 13.0837 22.6147 13.0998C22.5698 13.1159 22.5285 13.1408 22.4934 13.173C22.4582 13.2052 22.4298 13.2441 22.4099 13.2874C22.3899 13.3307 22.3788 13.3776 22.3772 13.4253C22.3755 13.4729 22.3834 13.5204 22.4003 13.565C22.4173 13.6096 22.4429 13.6504 22.4758 13.6849C22.5087 13.7195 22.5481 13.7472 22.5918 13.7663C23.1204 14.0098 23.6717 14.0113 24.101 13.9501C24.3157 13.9195 24.501 13.8725 24.6454 13.8248C24.7176 13.8009 24.7791 13.7771 24.8334 13.7522C24.8876 13.7272 24.9149 13.7387 25.0177 13.6291C25.127 13.5126 25.1254 13.4235 25.1307 13.3607C25.1361 13.298 25.1322 13.2483 25.1262 13.1977C25.1144 13.0966 25.0909 12.9955 25.0615 12.8914C25.0026 12.6832 24.9458 12.4957 24.816 12.3161C24.6931 12.1458 24.5898 12.1183 24.4631 12.0578C24.3365 11.9974 24.1922 11.9429 24.043 11.8958C23.8938 11.8486 23.7412 11.8094 23.5973 11.7849C23.5254 11.7726 23.4597 11.7605 23.39 11.7568Z"/>
<path d="M15.962 1.00035C14.1449 1.03768 12.7444 1.11313 11.7475 1.22998C11.2491 1.28841 10.8524 1.35628 10.5439 1.44083C10.2353 1.52537 10.0026 1.5914 9.8251 1.8328C9.68534 2.02287 9.67154 2.17209 9.62099 2.40701C9.57043 2.64194 9.52286 2.93498 9.47673 3.27212C9.38447 3.94641 9.29905 4.79462 9.22677 5.6496C9.1545 6.50458 9.09561 7.36533 9.05728 8.06058C9.01896 8.75584 8.99807 9.25501 9.01242 9.50117C9.03596 9.90494 9.14453 10.8138 9.24331 11.8027C9.3421 12.7916 9.42886 13.8543 9.41224 14.4458C9.39521 15.0522 9.24255 17.6595 9.21387 20.7239C9.1852 23.7883 9.2765 27.3249 9.76146 29.9066C9.77253 29.9656 9.79824 30.0209 9.83623 30.0675C9.87422 30.114 9.92327 30.1502 9.97889 30.1728C11.3662 30.7378 13.3522 31 15.9695 31C16.017 31.0006 16.0642 30.9919 16.1084 30.9741C16.1525 30.9564 16.1927 30.9301 16.2265 30.8967C16.2604 30.8633 16.2873 30.8235 16.3057 30.7796C16.324 30.7357 16.3335 30.6886 16.3335 30.6411C16.3335 30.5935 16.324 30.5464 16.3057 30.5026C16.2873 30.4587 16.2604 30.4189 16.2265 30.3855C16.1927 30.3521 16.1525 30.3258 16.1084 30.308C16.0642 30.2903 16.017 30.2815 15.9695 30.2822C13.5215 30.2822 11.672 30.0328 10.4346 29.5744C9.99895 27.1072 9.90374 23.6971 9.93151 20.7306C9.96 17.6863 10.111 15.1321 10.1297 14.466C10.1489 13.785 10.0572 12.728 9.95758 11.7313C9.85801 10.7346 9.74846 9.79199 9.72907 9.4594C9.72196 9.33742 9.73604 8.78746 9.77393 8.10012C9.81182 7.41277 9.87039 6.55735 9.94202 5.71002C10.0136 4.8627 10.0986 4.02239 10.1879 3.36942C10.2326 3.04293 10.2786 2.76268 10.3226 2.558C10.3667 2.35332 10.4485 2.19665 10.4034 2.25799C10.3668 2.30782 10.4838 2.20152 10.7335 2.13308C10.9833 2.06465 11.3537 1.99895 11.8311 1.94299C12.7859 1.83106 14.1721 1.75492 15.9768 1.71784C16.0246 1.71799 16.072 1.70857 16.1162 1.69014C16.1603 1.67171 16.2003 1.64463 16.2339 1.61051C16.2674 1.57638 16.2938 1.53589 16.3115 1.49142C16.3291 1.44695 16.3377 1.3994 16.3367 1.35156C16.3358 1.30372 16.3252 1.25656 16.3058 1.21285C16.2863 1.16914 16.2583 1.12977 16.2234 1.09705C16.1884 1.06433 16.1473 1.03892 16.1025 1.02231C16.0576 1.0057 16.0098 0.998237 15.962 1.00035Z"/>
<path d="M15.9695 9.19444C15.5166 9.19444 14.7727 9.25658 14.2443 9.33603C13.061 9.51386 12.1452 9.7774 11.4805 10.1606C11.417 10.1972 11.3663 10.2523 11.3351 10.3185C11.3039 10.3848 11.2936 10.4589 11.3058 10.5311C11.5446 11.9497 11.9683 13.228 12.5797 14.3603C12.6173 14.43 12.677 14.4852 12.7493 14.5175C12.8216 14.5497 12.9025 14.5572 12.9795 14.5386C13.9864 14.2962 14.9824 14.1757 15.9695 14.1757C16.017 14.1763 16.0643 14.1675 16.1084 14.1498C16.1525 14.1321 16.1927 14.1058 16.2266 14.0724C16.2604 14.039 16.2873 13.9992 16.3057 13.9553C16.324 13.9114 16.3335 13.8643 16.3335 13.8168C16.3335 13.7692 16.324 13.7221 16.3057 13.6782C16.2873 13.6344 16.2604 13.5946 16.2266 13.5612C16.1927 13.5278 16.1525 13.5015 16.1084 13.4837C16.0643 13.466 16.017 13.4572 15.9695 13.4579C15.0177 13.4579 14.0592 13.5695 13.0962 13.7809C12.6266 12.8536 12.2829 11.8187 12.0673 10.6722C12.6039 10.413 13.3594 10.1948 14.351 10.0458C14.8327 9.97338 15.5872 9.91221 15.9695 9.91221C16.017 9.91288 16.0643 9.9041 16.1084 9.88636C16.1525 9.86863 16.1927 9.8423 16.2266 9.80891C16.2604 9.77552 16.2873 9.73573 16.3057 9.69185C16.324 9.64797 16.3335 9.60089 16.3335 9.55333C16.3335 9.50576 16.324 9.45868 16.3057 9.4148C16.2873 9.37092 16.2604 9.33113 16.2266 9.29774C16.1927 9.26435 16.1525 9.23802 16.1084 9.22029C16.0643 9.20255 16.017 9.19377 15.9695 9.19444Z"/>
<path d="M10.8706 12.6563C10.8226 12.6557 10.775 12.6649 10.7306 12.6831C10.6861 12.7013 10.6458 12.7282 10.612 12.7623C10.5781 12.7964 10.5515 12.8369 10.5336 12.8815C10.5157 12.926 10.5069 12.9737 10.5078 13.0217L10.5486 15.221L10.3362 23.0283C10.3342 23.105 10.3567 23.1802 10.4005 23.2431C10.4443 23.306 10.5071 23.3533 10.5797 23.3779C10.6523 23.4025 10.7308 23.4033 10.8039 23.38C10.8769 23.3568 10.9406 23.3108 10.9856 23.2487C12.0171 21.8257 12.1822 20.336 12.2219 19.646C12.2514 19.1349 12.2097 17.5944 12.108 14.8784C12.1063 14.8338 12.0963 14.7899 12.0785 14.749C11.8588 14.2425 11.5624 13.6124 11.1883 12.8559C11.1589 12.7966 11.1137 12.7465 11.0576 12.7113C11.0016 12.676 10.9368 12.657 10.8706 12.6563ZM11.2567 14.6873C11.2944 14.7713 11.3591 14.8997 11.393 14.9773C11.492 17.6351 11.5266 19.237 11.5054 19.6046C11.4814 20.0222 11.4026 20.7419 11.0948 21.5432L11.2664 15.2309C11.2666 15.2254 11.2666 15.2199 11.2665 15.2145L11.2567 14.6873Z"/>
<path d="M12.5092 23.774C12.4309 23.7762 12.3554 23.8039 12.2943 23.8529C12.2332 23.9019 12.1898 23.9696 12.1708 24.0456C11.8171 25.4557 11.5985 26.9656 11.5136 28.5748C11.5093 28.6551 11.5322 28.7344 11.5784 28.8002C11.6246 28.8659 11.6916 28.9142 11.7686 28.9374C12.721 29.2241 14.1071 29.353 15.9695 29.353C16.017 29.3537 16.0643 29.3449 16.1084 29.3272C16.1525 29.3094 16.1927 29.2831 16.2266 29.2497C16.2604 29.2163 16.2873 29.1765 16.3057 29.1327C16.324 29.0888 16.3335 29.0417 16.3335 28.9941C16.3335 28.9466 16.324 28.8995 16.3057 28.8556C16.2873 28.8117 16.2604 28.7719 16.2266 28.7386C16.1927 28.7052 16.1525 28.6788 16.1084 28.6611C16.0643 28.6434 16.017 28.6346 15.9695 28.6353C14.3193 28.6353 13.0854 28.5177 12.2526 28.3139C12.3382 26.9776 12.52 25.7185 12.7966 24.5355C13.7569 24.6793 14.8126 24.7435 15.9765 24.7205C16.0241 24.7202 16.0711 24.7105 16.1149 24.6919C16.1586 24.6733 16.1983 24.6462 16.2315 24.6121C16.2647 24.5781 16.2908 24.5378 16.3083 24.4935C16.3258 24.4493 16.3343 24.402 16.3334 24.3545C16.3324 24.3069 16.3221 24.26 16.3028 24.2165C16.2836 24.173 16.2559 24.1337 16.2214 24.101C16.1869 24.0683 16.1462 24.0428 16.1017 24.0259C16.0573 24.0091 16.0099 24.0012 15.9623 24.0028C14.6989 24.0279 13.5711 23.9524 12.5807 23.7794C12.5571 23.7752 12.5331 23.7734 12.5092 23.774Z"/>
<path d="M9.32505 5.118C8.96202 5.118 8.66041 5.41962 8.66041 5.78264V7.91633C8.66041 8.26673 8.93974 8.58097 9.30528 8.58097C9.3946 8.58164 9.48095 8.54899 9.54748 8.48939C9.61401 8.42979 9.65592 8.34752 9.66503 8.25867C9.67414 8.16982 9.6498 8.08076 9.59675 8.0089C9.54371 7.93704 9.46577 7.88754 9.37818 7.87007V5.83577H9.47687C9.52443 5.83645 9.57165 5.82766 9.61578 5.80993C9.65991 5.79219 9.70007 5.76586 9.73394 5.73247C9.76781 5.69908 9.7947 5.65929 9.81306 5.61541C9.83142 5.57154 9.84087 5.52445 9.84087 5.47689C9.84087 5.42933 9.83142 5.38224 9.81306 5.33836C9.7947 5.29449 9.76781 5.2547 9.73394 5.2213C9.70007 5.18791 9.65991 5.16158 9.61578 5.14385C9.57165 5.12612 9.52443 5.11733 9.47687 5.118H9.32505Z"/>
<path d="M9.54234 22.8472C9.1768 22.8472 8.89747 23.1616 8.89747 23.512V25.6457C8.89747 25.9961 9.17691 26.3102 9.54234 26.3102C9.63166 26.3109 9.71802 26.2782 9.78454 26.2186C9.85107 26.159 9.89298 26.0768 9.90209 25.9879C9.91121 25.899 9.88686 25.81 9.83381 25.7381C9.78077 25.6663 9.70283 25.6168 9.61524 25.5993V23.5586C9.70333 23.5416 9.78187 23.4922 9.83539 23.4202C9.8889 23.3482 9.91351 23.2588 9.90436 23.1695C9.89522 23.0803 9.85298 22.9977 9.78597 22.938C9.71896 22.8784 9.63205 22.846 9.54234 22.8472Z"/>
<path d="M11.8661 1.24064C11.8097 1.23925 11.7536 1.25121 11.7027 1.27555C11.4844 1.37587 11.3654 1.55297 11.2597 1.75948C11.1539 1.966 11.0655 2.2198 10.9817 2.53249C10.9691 2.57931 10.9661 2.62819 10.973 2.67618C11.0091 2.92902 11.1341 2.94892 11.1983 2.98642C11.2624 3.02392 11.3215 3.04695 11.3856 3.06829C11.5136 3.11098 11.6546 3.1414 11.8044 3.14792C11.9107 3.15254 11.9727 3.14005 12.0937 3.12325C12.2146 3.10644 12.3716 3.08126 12.5679 3.04754C12.9605 2.98012 13.5093 2.87827 14.2171 2.74165C14.4638 2.6941 14.6154 2.51053 14.6154 2.2594V1.78822C14.6161 1.74066 14.6073 1.69345 14.5895 1.64932C14.5718 1.60518 14.5455 1.56502 14.5121 1.53115C14.4787 1.49728 14.4389 1.47039 14.395 1.45203C14.3512 1.43368 14.3041 1.42422 14.2565 1.42422C14.2089 1.42422 14.1619 1.43368 14.118 1.45203C14.0741 1.47039 14.0343 1.49728 14.0009 1.53115C13.9675 1.56502 13.9412 1.60518 13.9235 1.64932C13.9057 1.69345 13.8969 1.74066 13.8976 1.78822V2.07098C13.3034 2.18486 12.787 2.28164 12.4464 2.34015C12.2545 2.3731 12.1029 2.39734 11.9948 2.41234C11.8868 2.42735 11.7993 2.42926 11.8357 2.43085C11.821 2.43021 11.799 2.42256 11.7805 2.42006C11.8205 2.30625 11.8621 2.15779 11.8985 2.08668C11.9675 1.95195 12.0308 1.91467 12.0024 1.92771C12.077 1.89473 12.1381 1.83734 12.1757 1.76498C12.2133 1.69262 12.2252 1.60962 12.2093 1.52963C12.1934 1.44964 12.1508 1.37744 12.0884 1.32491C12.0261 1.27238 11.9476 1.24266 11.8661 1.24064Z"/>
<path d="M8.74326 11.7568C8.6736 11.7605 8.60785 11.7726 8.53592 11.7849C8.39206 11.8094 8.23949 11.8486 8.09026 11.8958C7.94103 11.9429 7.79677 11.9974 7.67011 12.0578C7.54345 12.1183 7.44012 12.1458 7.31725 12.316C7.18747 12.4957 7.1307 12.6832 7.07178 12.8914C7.04231 12.9955 7.01887 13.0966 7.00701 13.1977C7.00108 13.2483 6.99719 13.298 7.00253 13.3607C7.00787 13.4235 7.00631 13.5126 7.11552 13.6291C7.21835 13.7387 7.24562 13.7272 7.29987 13.7522C7.35412 13.7771 7.41567 13.8009 7.48786 13.8248C7.63225 13.8725 7.81753 13.9195 8.03222 13.9501C8.46159 14.0113 9.01287 14.0098 9.5415 13.7663C9.58518 13.7472 9.62461 13.7195 9.65747 13.6849C9.69034 13.6504 9.71599 13.6096 9.73292 13.565C9.74986 13.5204 9.75774 13.4729 9.7561 13.4253C9.75446 13.3776 9.74334 13.3307 9.72339 13.2874C9.70343 13.2441 9.67504 13.2052 9.63988 13.173C9.60472 13.1408 9.56349 13.1159 9.5186 13.0998C9.47371 13.0836 9.42606 13.0767 9.37843 13.0792C9.3308 13.0817 9.28416 13.0937 9.24122 13.1144C8.88922 13.2766 8.47179 13.2877 8.13344 13.2395C7.97843 13.2174 7.84938 13.183 7.74834 13.1513C7.75409 13.1271 7.75513 13.1128 7.76249 13.0868C7.80317 12.9431 7.87727 12.7898 7.88754 12.7656C7.90505 12.7521 7.93821 12.7253 7.97937 12.7056C8.0642 12.6651 8.18376 12.6189 8.30643 12.5802C8.4291 12.5414 8.55647 12.5096 8.65634 12.4925C8.75622 12.4755 8.84436 12.488 8.79681 12.4759C8.89304 12.5003 9.12094 12.6033 9.41828 12.7874C9.45836 12.8134 9.50324 12.8313 9.5503 12.8397C9.59736 12.8482 9.64564 12.8472 9.69231 12.8368C9.73897 12.8264 9.78308 12.8067 9.82205 12.779C9.86101 12.7513 9.89405 12.7161 9.91921 12.6754C9.94438 12.6347 9.96116 12.5895 9.96858 12.5422C9.97601 12.495 9.97391 12.4467 9.96243 12.4003C9.95095 12.3539 9.93031 12.3102 9.90172 12.2719C9.87313 12.2336 9.83717 12.2014 9.79595 12.1771C9.46949 11.9751 9.2162 11.8419 8.97373 11.7802C8.88647 11.758 8.81292 11.7532 8.74326 11.7568Z"/>
</mask>
<path d="M16.1712 1.00035C16.1234 0.998237 16.0757 1.0057 16.0308 1.02231C15.9859 1.03892 15.9448 1.06433 15.9099 1.09705C15.875 1.12977 15.847 1.16914 15.8275 1.21285C15.808 1.25656 15.7975 1.30372 15.7965 1.35156C15.7955 1.3994 15.8041 1.44695 15.8218 1.49142C15.8394 1.53589 15.8658 1.57638 15.8994 1.61051C15.9329 1.64463 15.9729 1.67171 16.0171 1.69014C16.0612 1.70857 16.1086 1.71799 16.1565 1.71784C17.9611 1.75492 19.3473 1.83106 20.3022 1.94299C20.7796 1.99895 21.1499 2.06465 21.3997 2.13308C21.6495 2.20152 21.7665 2.30782 21.7299 2.25799C21.6848 2.19665 21.7666 2.35332 21.8106 2.558C21.8547 2.76268 21.9007 3.04293 21.9453 3.36942C22.0347 4.02239 22.1196 4.8627 22.1912 5.71002C22.2629 6.55735 22.3214 7.41277 22.3593 8.10012C22.3972 8.78746 22.4113 9.33742 22.4042 9.4594C22.3848 9.79199 22.2752 10.7346 22.1757 11.7313C22.0761 12.728 21.9844 13.785 22.0035 14.466C22.0222 15.1321 22.1733 17.6863 22.2017 20.7306C22.2295 23.6971 22.1343 27.1072 21.6986 29.5744C20.4612 30.0328 18.6118 30.2822 16.1638 30.2822C16.1162 30.2815 16.069 30.2903 16.0249 30.308C15.9807 30.3258 15.9406 30.3521 15.9067 30.3855C15.8728 30.4189 15.8459 30.4587 15.8276 30.5026C15.8092 30.5464 15.7998 30.5935 15.7998 30.6411C15.7998 30.6886 15.8092 30.7357 15.8276 30.7796C15.8459 30.8235 15.8728 30.8633 15.9067 30.8967C15.9406 30.9301 15.9807 30.9564 16.0249 30.9741C16.069 30.9919 16.1162 31.0006 16.1638 31C18.7811 31 20.767 30.7378 22.1544 30.1728C22.21 30.1502 22.259 30.114 22.297 30.0675C22.335 30.0209 22.3607 29.9656 22.3718 29.9066C22.8568 27.3249 22.9481 23.7883 22.9194 20.7239C22.8907 17.6595 22.738 15.0522 22.721 14.4458C22.7044 13.8543 22.7912 12.7916 22.8899 11.8027C22.9887 10.8138 23.0973 9.90494 23.1208 9.50117C23.1352 9.25501 23.1143 8.75584 23.076 8.06058C23.0376 7.36533 22.9788 6.50458 22.9065 5.6496C22.8342 4.79462 22.7488 3.94641 22.6565 3.27212C22.6104 2.93498 22.5628 2.64194 22.5123 2.40701C22.4617 2.17209 22.4479 2.02287 22.3082 1.8328C22.1307 1.5914 21.898 1.52537 21.5894 1.44083C21.2808 1.35628 20.8842 1.28841 20.3857 1.22998C19.3888 1.11313 17.9883 1.03768 16.1712 1.00035Z" fill="white"/>
<path d="M16.1638 9.19444C16.1162 9.19377 16.069 9.20255 16.0249 9.22029C15.9807 9.23802 15.9406 9.26435 15.9067 9.29774C15.8728 9.33113 15.846 9.37092 15.8276 9.4148C15.8092 9.45868 15.7998 9.50576 15.7998 9.55333C15.7998 9.60089 15.8092 9.64797 15.8276 9.69185C15.846 9.73573 15.8728 9.77552 15.9067 9.80891C15.9406 9.8423 15.9807 9.86863 16.0249 9.88636C16.069 9.9041 16.1162 9.91288 16.1638 9.91221C16.5461 9.91221 17.3006 9.97338 17.7823 10.0458C18.7739 10.1948 19.5293 10.413 20.066 10.6722C19.8504 11.8187 19.5067 12.8536 19.0371 13.7809C18.074 13.5695 17.1156 13.4579 16.1638 13.4579C16.1162 13.4572 16.069 13.466 16.0249 13.4837C15.9807 13.5015 15.9406 13.5278 15.9067 13.5612C15.8728 13.5946 15.846 13.6344 15.8276 13.6782C15.8092 13.7221 15.7998 13.7692 15.7998 13.8168C15.7998 13.8643 15.8092 13.9114 15.8276 13.9553C15.846 13.9992 15.8728 14.039 15.9067 14.0724C15.9406 14.1058 15.9807 14.1321 16.0249 14.1498C16.069 14.1675 16.1162 14.1763 16.1638 14.1757C17.1508 14.1757 18.1468 14.2962 19.1537 14.5386C19.2307 14.5572 19.3117 14.5497 19.384 14.5175C19.4563 14.4852 19.5159 14.43 19.5536 14.3603C20.1649 13.228 20.5886 11.9497 20.8275 10.5311C20.8396 10.4589 20.8294 10.3848 20.7982 10.3185C20.767 10.2523 20.7162 10.1972 20.6528 10.1606C19.988 9.7774 19.0723 9.51386 17.889 9.33603C17.3606 9.25658 16.6167 9.19444 16.1638 9.19444Z" fill="white"/>
<path d="M21.2626 12.6563C21.1964 12.657 21.1317 12.676 21.0756 12.7113C21.0196 12.7465 20.9743 12.7966 20.945 12.8559C20.5709 13.6124 20.2745 14.2425 20.0547 14.749C20.037 14.7899 20.027 14.8338 20.0253 14.8784C19.9236 17.5945 19.8819 19.1349 19.9113 19.646C19.9511 20.336 20.1162 21.8257 21.1477 23.2487C21.1927 23.3108 21.2563 23.3568 21.3294 23.38C21.4024 23.4033 21.481 23.4025 21.5536 23.3779C21.6262 23.3533 21.689 23.306 21.7328 23.2431C21.7766 23.1802 21.7991 23.105 21.797 23.0283L21.5846 15.221L21.6254 13.0217C21.6263 12.9737 21.6175 12.926 21.5997 12.8815C21.5818 12.8369 21.5551 12.7964 21.5213 12.7623C21.4875 12.7282 21.4471 12.7013 21.4027 12.6831C21.3583 12.6649 21.3106 12.6557 21.2626 12.6563ZM20.8765 14.6873L20.8667 15.2145C20.8666 15.2199 20.8667 15.2254 20.8669 15.2309L21.0385 21.5432C20.7307 20.7419 20.6519 20.0222 20.6278 19.6046C20.6066 19.237 20.6413 17.6351 20.7403 14.9773C20.7741 14.8997 20.8388 14.7713 20.8765 14.6873Z" fill="white"/>
<path d="M19.6232 23.774C19.5996 23.7735 19.5759 23.7752 19.5526 23.7794C18.5622 23.9524 17.4344 24.0279 16.1709 24.0028C16.1234 24.0012 16.076 24.009 16.0315 24.0259C15.9871 24.0428 15.9464 24.0683 15.9119 24.101C15.8773 24.1337 15.8497 24.173 15.8304 24.2165C15.8112 24.26 15.8008 24.3069 15.7999 24.3544C15.799 24.402 15.8075 24.4493 15.825 24.4935C15.8425 24.5377 15.8686 24.578 15.9018 24.6121C15.935 24.6462 15.9746 24.6733 16.0184 24.6919C16.0622 24.7105 16.1092 24.7202 16.1568 24.7204C17.3207 24.7435 18.3764 24.6793 19.3367 24.5355C19.6132 25.7185 19.7951 26.9776 19.8806 28.3139C19.0479 28.5176 17.814 28.6352 16.1638 28.6352C16.1162 28.6346 16.069 28.6434 16.0249 28.6611C15.9807 28.6788 15.9406 28.7051 15.9067 28.7385C15.8728 28.7719 15.846 28.8117 15.8276 28.8556C15.8092 28.8995 15.7998 28.9466 15.7998 28.9941C15.7998 29.0417 15.8092 29.0888 15.8276 29.1326C15.846 29.1765 15.8728 29.2163 15.9067 29.2497C15.9406 29.2831 15.9807 29.3094 16.0249 29.3272C16.069 29.3449 16.1162 29.3537 16.1638 29.353C18.0261 29.353 19.4123 29.2241 20.3647 28.9373C20.4417 28.9142 20.5086 28.8659 20.5549 28.8001C20.6011 28.7344 20.6239 28.6551 20.6197 28.5748C20.5348 26.9656 20.3162 25.4557 19.9625 24.0456C19.9434 23.9694 19.8999 23.9017 19.8386 23.8526C19.7774 23.8036 19.7017 23.776 19.6232 23.774Z" fill="white"/>
<path d="M22.6564 5.118C22.6088 5.11733 22.5616 5.12612 22.5175 5.14385C22.4733 5.16158 22.4332 5.18791 22.3993 5.2213C22.3654 5.2547 22.3385 5.29449 22.3202 5.33836C22.3018 5.38224 22.2924 5.42933 22.2924 5.47689C22.2924 5.52445 22.3018 5.57154 22.3202 5.61541C22.3385 5.65929 22.3654 5.69908 22.3993 5.73247C22.4332 5.76586 22.4733 5.79219 22.5175 5.80993C22.5616 5.82766 22.6088 5.83645 22.6564 5.83577H22.7551V7.86979C22.6672 7.88693 22.5888 7.93634 22.5355 8.00829C22.4821 8.08025 22.4576 8.16956 22.4667 8.25867C22.4759 8.34778 22.518 8.43026 22.5848 8.48989C22.6517 8.54953 22.7384 8.58202 22.828 8.58097C23.1935 8.58097 23.4728 8.26673 23.4728 7.91633V5.78264C23.4728 5.41962 23.1712 5.118 22.8082 5.118H22.6564Z" fill="white"/>
<path d="M22.5909 22.8472C22.5015 22.8464 22.4149 22.879 22.3483 22.9386C22.2816 22.9982 22.2395 23.0806 22.2304 23.1695C22.2213 23.2585 22.2457 23.3477 22.2989 23.4196C22.3521 23.4915 22.4303 23.541 22.518 23.5583V25.599C22.4301 25.6162 22.3518 25.6656 22.2984 25.7375C22.2451 25.8095 22.2205 25.8988 22.2297 25.9879C22.2388 26.077 22.2809 26.1595 22.3478 26.2191C22.4146 26.2788 22.5013 26.3113 22.5909 26.3102C22.9564 26.3102 23.2358 25.9961 23.2358 25.6457V23.512C23.2358 23.1616 22.9565 22.8472 22.5909 22.8472Z" fill="white"/>
<path d="M20.2922 1.24093C20.2086 1.23717 20.1263 1.26274 20.0596 1.31322C19.9928 1.3637 19.9458 1.43592 19.9267 1.5174C19.9075 1.59887 19.9175 1.68447 19.9548 1.75939C19.992 1.83432 20.0543 1.89386 20.1309 1.92772C20.1025 1.91468 20.1658 1.95195 20.2347 2.08669C20.2712 2.1578 20.3128 2.30626 20.3528 2.42006C20.3342 2.42257 20.3123 2.43022 20.2976 2.43086C20.334 2.42927 20.2465 2.42736 20.1384 2.41235C20.0304 2.39734 19.8788 2.37311 19.6869 2.34016C19.3462 2.28165 18.8299 2.18487 18.2356 2.07099V1.78823C18.2363 1.74067 18.2275 1.69346 18.2098 1.64933C18.1921 1.60519 18.1657 1.56503 18.1323 1.53116C18.099 1.49729 18.0592 1.4704 18.0153 1.45204C17.9714 1.43369 17.9243 1.42423 17.8768 1.42423C17.8292 1.42423 17.7821 1.43369 17.7382 1.45204C17.6944 1.4704 17.6546 1.49729 17.6212 1.53116C17.5878 1.56503 17.5615 1.60519 17.5437 1.64933C17.526 1.69346 17.5172 1.74067 17.5179 1.78823V2.25941C17.5179 2.51049 17.6694 2.69407 17.916 2.74166C18.6239 2.87829 19.1727 2.98012 19.5653 3.04755C19.7617 3.08127 19.9186 3.10645 20.0396 3.12326C20.1606 3.14006 20.2225 3.15255 20.3288 3.14793C20.4786 3.14141 20.6197 3.11098 20.7477 3.0683C20.8117 3.04696 20.8709 3.02393 20.935 2.98643C20.9991 2.94893 21.1241 2.92903 21.1603 2.67619C21.1671 2.6282 21.1642 2.57932 21.1516 2.5325C21.0677 2.21981 20.9793 1.966 20.8736 1.75949C20.7678 1.55298 20.6488 1.37588 20.4306 1.27556C20.3873 1.25487 20.3402 1.2431 20.2922 1.24093Z" fill="white"/>
<path d="M23.39 11.7568C23.3203 11.7532 23.2468 11.758 23.1595 11.7802C22.9171 11.8419 22.6638 11.9751 22.3373 12.1771C22.2961 12.2014 22.2601 12.2336 22.2315 12.2719C22.203 12.3102 22.1823 12.3539 22.1708 12.4003C22.1593 12.4467 22.1573 12.495 22.1647 12.5422C22.1721 12.5895 22.1889 12.6347 22.214 12.6754C22.2392 12.7161 22.2722 12.7513 22.3112 12.779C22.3502 12.8067 22.3943 12.8264 22.441 12.8368C22.4876 12.8472 22.5359 12.8482 22.583 12.8397C22.63 12.8313 22.6749 12.8134 22.715 12.7874C23.0123 12.6033 23.2402 12.5003 23.3364 12.4759C23.2889 12.488 23.377 12.4755 23.4769 12.4925C23.5768 12.5096 23.7042 12.5414 23.8268 12.5802C23.9495 12.6189 24.0691 12.6652 24.1539 12.7056C24.195 12.7253 24.2282 12.7521 24.2457 12.7656C24.256 12.7898 24.3301 12.9431 24.3708 13.0868C24.3781 13.1128 24.3792 13.1271 24.3849 13.1513C24.2839 13.183 24.1548 13.2174 23.9998 13.2395C23.6615 13.2877 23.244 13.2766 22.892 13.1144C22.8491 13.0937 22.8025 13.0817 22.7548 13.0792C22.7072 13.0767 22.6596 13.0837 22.6147 13.0998C22.5698 13.1159 22.5285 13.1408 22.4934 13.173C22.4582 13.2052 22.4298 13.2441 22.4099 13.2874C22.3899 13.3307 22.3788 13.3776 22.3772 13.4253C22.3755 13.4729 22.3834 13.5204 22.4003 13.565C22.4173 13.6096 22.4429 13.6504 22.4758 13.6849C22.5087 13.7195 22.5481 13.7472 22.5918 13.7663C23.1204 14.0098 23.6717 14.0113 24.101 13.9501C24.3157 13.9195 24.501 13.8725 24.6454 13.8248C24.7176 13.8009 24.7791 13.7771 24.8334 13.7522C24.8876 13.7272 24.9149 13.7387 25.0177 13.6291C25.127 13.5126 25.1254 13.4235 25.1307 13.3607C25.1361 13.298 25.1322 13.2483 25.1262 13.1977C25.1144 13.0966 25.0909 12.9955 25.0615 12.8914C25.0026 12.6832 24.9458 12.4957 24.816 12.3161C24.6931 12.1458 24.5898 12.1183 24.4631 12.0578C24.3365 11.9974 24.1922 11.9429 24.043 11.8958C23.8938 11.8486 23.7412 11.8094 23.5973 11.7849C23.5254 11.7726 23.4597 11.7605 23.39 11.7568Z" fill="white"/>
<path d="M15.962 1.00035C14.1449 1.03768 12.7444 1.11313 11.7475 1.22998C11.2491 1.28841 10.8524 1.35628 10.5439 1.44083C10.2353 1.52537 10.0026 1.5914 9.8251 1.8328C9.68534 2.02287 9.67154 2.17209 9.62099 2.40701C9.57043 2.64194 9.52286 2.93498 9.47673 3.27212C9.38447 3.94641 9.29905 4.79462 9.22677 5.6496C9.1545 6.50458 9.09561 7.36533 9.05728 8.06058C9.01896 8.75584 8.99807 9.25501 9.01242 9.50117C9.03596 9.90494 9.14453 10.8138 9.24331 11.8027C9.3421 12.7916 9.42886 13.8543 9.41224 14.4458C9.39521 15.0522 9.24255 17.6595 9.21387 20.7239C9.1852 23.7883 9.2765 27.3249 9.76146 29.9066C9.77253 29.9656 9.79824 30.0209 9.83623 30.0675C9.87422 30.114 9.92327 30.1502 9.97889 30.1728C11.3662 30.7378 13.3522 31 15.9695 31C16.017 31.0006 16.0642 30.9919 16.1084 30.9741C16.1525 30.9564 16.1927 30.9301 16.2265 30.8967C16.2604 30.8633 16.2873 30.8235 16.3057 30.7796C16.324 30.7357 16.3335 30.6886 16.3335 30.6411C16.3335 30.5935 16.324 30.5464 16.3057 30.5026C16.2873 30.4587 16.2604 30.4189 16.2265 30.3855C16.1927 30.3521 16.1525 30.3258 16.1084 30.308C16.0642 30.2903 16.017 30.2815 15.9695 30.2822C13.5215 30.2822 11.672 30.0328 10.4346 29.5744C9.99895 27.1072 9.90374 23.6971 9.93151 20.7306C9.96 17.6863 10.111 15.1321 10.1297 14.466C10.1489 13.785 10.0572 12.728 9.95758 11.7313C9.85801 10.7346 9.74846 9.79199 9.72907 9.4594C9.72196 9.33742 9.73604 8.78746 9.77393 8.10012C9.81182 7.41277 9.87039 6.55735 9.94202 5.71002C10.0136 4.8627 10.0986 4.02239 10.1879 3.36942C10.2326 3.04293 10.2786 2.76268 10.3226 2.558C10.3667 2.35332 10.4485 2.19665 10.4034 2.25799C10.3668 2.30782 10.4838 2.20152 10.7335 2.13308C10.9833 2.06465 11.3537 1.99895 11.8311 1.94299C12.7859 1.83106 14.1721 1.75492 15.9768 1.71784C16.0246 1.71799 16.072 1.70857 16.1162 1.69014C16.1603 1.67171 16.2003 1.64463 16.2339 1.61051C16.2674 1.57638 16.2938 1.53589 16.3115 1.49142C16.3291 1.44695 16.3377 1.3994 16.3367 1.35156C16.3358 1.30372 16.3252 1.25656 16.3058 1.21285C16.2863 1.16914 16.2583 1.12977 16.2234 1.09705C16.1884 1.06433 16.1473 1.03892 16.1025 1.02231C16.0576 1.0057 16.0098 0.998237 15.962 1.00035Z" fill="white"/>
<path d="M15.9695 9.19444C15.5166 9.19444 14.7727 9.25658 14.2443 9.33603C13.061 9.51386 12.1452 9.7774 11.4805 10.1606C11.417 10.1972 11.3663 10.2523 11.3351 10.3185C11.3039 10.3848 11.2936 10.4589 11.3058 10.5311C11.5446 11.9497 11.9683 13.228 12.5797 14.3603C12.6173 14.43 12.677 14.4852 12.7493 14.5175C12.8216 14.5497 12.9025 14.5572 12.9795 14.5386C13.9864 14.2962 14.9824 14.1757 15.9695 14.1757C16.017 14.1763 16.0643 14.1675 16.1084 14.1498C16.1525 14.1321 16.1927 14.1058 16.2266 14.0724C16.2604 14.039 16.2873 13.9992 16.3057 13.9553C16.324 13.9114 16.3335 13.8643 16.3335 13.8168C16.3335 13.7692 16.324 13.7221 16.3057 13.6782C16.2873 13.6344 16.2604 13.5946 16.2266 13.5612C16.1927 13.5278 16.1525 13.5015 16.1084 13.4837C16.0643 13.466 16.017 13.4572 15.9695 13.4579C15.0177 13.4579 14.0592 13.5695 13.0962 13.7809C12.6266 12.8536 12.2829 11.8187 12.0673 10.6722C12.6039 10.413 13.3594 10.1948 14.351 10.0458C14.8327 9.97338 15.5872 9.91221 15.9695 9.91221C16.017 9.91288 16.0643 9.9041 16.1084 9.88636C16.1525 9.86863 16.1927 9.8423 16.2266 9.80891C16.2604 9.77552 16.2873 9.73573 16.3057 9.69185C16.324 9.64797 16.3335 9.60089 16.3335 9.55333C16.3335 9.50576 16.324 9.45868 16.3057 9.4148C16.2873 9.37092 16.2604 9.33113 16.2266 9.29774C16.1927 9.26435 16.1525 9.23802 16.1084 9.22029C16.0643 9.20255 16.017 9.19377 15.9695 9.19444Z" fill="white"/>
<path d="M10.8706 12.6563C10.8226 12.6557 10.775 12.6649 10.7306 12.6831C10.6861 12.7013 10.6458 12.7282 10.612 12.7623C10.5781 12.7964 10.5515 12.8369 10.5336 12.8815C10.5157 12.926 10.5069 12.9737 10.5078 13.0217L10.5486 15.221L10.3362 23.0283C10.3342 23.105 10.3567 23.1802 10.4005 23.2431C10.4443 23.306 10.5071 23.3533 10.5797 23.3779C10.6523 23.4025 10.7308 23.4033 10.8039 23.38C10.8769 23.3568 10.9406 23.3108 10.9856 23.2487C12.0171 21.8257 12.1822 20.336 12.2219 19.646C12.2514 19.1349 12.2097 17.5944 12.108 14.8784C12.1063 14.8338 12.0963 14.7899 12.0785 14.749C11.8588 14.2425 11.5624 13.6124 11.1883 12.8559C11.1589 12.7966 11.1137 12.7465 11.0576 12.7113C11.0016 12.676 10.9368 12.657 10.8706 12.6563ZM11.2567 14.6873C11.2944 14.7713 11.3591 14.8997 11.393 14.9773C11.492 17.6351 11.5266 19.237 11.5054 19.6046C11.4814 20.0222 11.4026 20.7419 11.0948 21.5432L11.2664 15.2309C11.2666 15.2254 11.2666 15.2199 11.2665 15.2145L11.2567 14.6873Z" fill="white"/>
<path d="M12.5092 23.774C12.4309 23.7762 12.3554 23.8039 12.2943 23.8529C12.2332 23.9019 12.1898 23.9696 12.1708 24.0456C11.8171 25.4557 11.5985 26.9656 11.5136 28.5748C11.5093 28.6551 11.5322 28.7344 11.5784 28.8002C11.6246 28.8659 11.6916 28.9142 11.7686 28.9374C12.721 29.2241 14.1071 29.353 15.9695 29.353C16.017 29.3537 16.0643 29.3449 16.1084 29.3272C16.1525 29.3094 16.1927 29.2831 16.2266 29.2497C16.2604 29.2163 16.2873 29.1765 16.3057 29.1327C16.324 29.0888 16.3335 29.0417 16.3335 28.9941C16.3335 28.9466 16.324 28.8995 16.3057 28.8556C16.2873 28.8117 16.2604 28.7719 16.2266 28.7386C16.1927 28.7052 16.1525 28.6788 16.1084 28.6611C16.0643 28.6434 16.017 28.6346 15.9695 28.6353C14.3193 28.6353 13.0854 28.5177 12.2526 28.3139C12.3382 26.9776 12.52 25.7185 12.7966 24.5355C13.7569 24.6793 14.8126 24.7435 15.9765 24.7205C16.0241 24.7202 16.0711 24.7105 16.1149 24.6919C16.1586 24.6733 16.1983 24.6462 16.2315 24.6121C16.2647 24.5781 16.2908 24.5378 16.3083 24.4935C16.3258 24.4493 16.3343 24.402 16.3334 24.3545C16.3324 24.3069 16.3221 24.26 16.3028 24.2165C16.2836 24.173 16.2559 24.1337 16.2214 24.101C16.1869 24.0683 16.1462 24.0428 16.1017 24.0259C16.0573 24.0091 16.0099 24.0012 15.9623 24.0028C14.6989 24.0279 13.5711 23.9524 12.5807 23.7794C12.5571 23.7752 12.5331 23.7734 12.5092 23.774Z" fill="white"/>
<path d="M9.32505 5.118C8.96202 5.118 8.66041 5.41962 8.66041 5.78264V7.91633C8.66041 8.26673 8.93974 8.58097 9.30528 8.58097C9.3946 8.58164 9.48095 8.54899 9.54748 8.48939C9.61401 8.42979 9.65592 8.34752 9.66503 8.25867C9.67414 8.16982 9.6498 8.08076 9.59675 8.0089C9.54371 7.93704 9.46577 7.88754 9.37818 7.87007V5.83577H9.47687C9.52443 5.83645 9.57165 5.82766 9.61578 5.80993C9.65991 5.79219 9.70007 5.76586 9.73394 5.73247C9.76781 5.69908 9.7947 5.65929 9.81306 5.61541C9.83142 5.57154 9.84087 5.52445 9.84087 5.47689C9.84087 5.42933 9.83142 5.38224 9.81306 5.33836C9.7947 5.29449 9.76781 5.2547 9.73394 5.2213C9.70007 5.18791 9.65991 5.16158 9.61578 5.14385C9.57165 5.12612 9.52443 5.11733 9.47687 5.118H9.32505Z" fill="white"/>
<path d="M9.54234 22.8472C9.1768 22.8472 8.89747 23.1616 8.89747 23.512V25.6457C8.89747 25.9961 9.17691 26.3102 9.54234 26.3102C9.63166 26.3109 9.71802 26.2782 9.78454 26.2186C9.85107 26.159 9.89298 26.0768 9.90209 25.9879C9.91121 25.899 9.88686 25.81 9.83381 25.7381C9.78077 25.6663 9.70283 25.6168 9.61524 25.5993V23.5586C9.70333 23.5416 9.78187 23.4922 9.83539 23.4202C9.8889 23.3482 9.91351 23.2588 9.90436 23.1695C9.89522 23.0803 9.85298 22.9977 9.78597 22.938C9.71896 22.8784 9.63205 22.846 9.54234 22.8472Z" fill="white"/>
<path d="M11.8661 1.24064C11.8097 1.23925 11.7536 1.25121 11.7027 1.27555C11.4844 1.37587 11.3654 1.55297 11.2597 1.75948C11.1539 1.966 11.0655 2.2198 10.9817 2.53249C10.9691 2.57931 10.9661 2.62819 10.973 2.67618C11.0091 2.92902 11.1341 2.94892 11.1983 2.98642C11.2624 3.02392 11.3215 3.04695 11.3856 3.06829C11.5136 3.11098 11.6546 3.1414 11.8044 3.14792C11.9107 3.15254 11.9727 3.14005 12.0937 3.12325C12.2146 3.10644 12.3716 3.08126 12.5679 3.04754C12.9605 2.98012 13.5093 2.87827 14.2171 2.74165C14.4638 2.6941 14.6154 2.51053 14.6154 2.2594V1.78822C14.6161 1.74066 14.6073 1.69345 14.5895 1.64932C14.5718 1.60518 14.5455 1.56502 14.5121 1.53115C14.4787 1.49728 14.4389 1.47039 14.395 1.45203C14.3512 1.43368 14.3041 1.42422 14.2565 1.42422C14.2089 1.42422 14.1619 1.43368 14.118 1.45203C14.0741 1.47039 14.0343 1.49728 14.0009 1.53115C13.9675 1.56502 13.9412 1.60518 13.9235 1.64932C13.9057 1.69345 13.8969 1.74066 13.8976 1.78822V2.07098C13.3034 2.18486 12.787 2.28164 12.4464 2.34015C12.2545 2.3731 12.1029 2.39734 11.9948 2.41234C11.8868 2.42735 11.7993 2.42926 11.8357 2.43085C11.821 2.43021 11.799 2.42256 11.7805 2.42006C11.8205 2.30625 11.8621 2.15779 11.8985 2.08668C11.9675 1.95195 12.0308 1.91467 12.0024 1.92771C12.077 1.89473 12.1381 1.83734 12.1757 1.76498C12.2133 1.69262 12.2252 1.60962 12.2093 1.52963C12.1934 1.44964 12.1508 1.37744 12.0884 1.32491C12.0261 1.27238 11.9476 1.24266 11.8661 1.24064Z" fill="white"/>
<path d="M8.74326 11.7568C8.6736 11.7605 8.60785 11.7726 8.53592 11.7849C8.39206 11.8094 8.23949 11.8486 8.09026 11.8958C7.94103 11.9429 7.79677 11.9974 7.67011 12.0578C7.54345 12.1183 7.44012 12.1458 7.31725 12.316C7.18747 12.4957 7.1307 12.6832 7.07178 12.8914C7.04231 12.9955 7.01887 13.0966 7.00701 13.1977C7.00108 13.2483 6.99719 13.298 7.00253 13.3607C7.00787 13.4235 7.00631 13.5126 7.11552 13.6291C7.21835 13.7387 7.24562 13.7272 7.29987 13.7522C7.35412 13.7771 7.41567 13.8009 7.48786 13.8248C7.63225 13.8725 7.81753 13.9195 8.03222 13.9501C8.46159 14.0113 9.01287 14.0098 9.5415 13.7663C9.58518 13.7472 9.62461 13.7195 9.65747 13.6849C9.69034 13.6504 9.71599 13.6096 9.73292 13.565C9.74986 13.5204 9.75774 13.4729 9.7561 13.4253C9.75446 13.3776 9.74334 13.3307 9.72339 13.2874C9.70343 13.2441 9.67504 13.2052 9.63988 13.173C9.60472 13.1408 9.56349 13.1159 9.5186 13.0998C9.47371 13.0836 9.42606 13.0767 9.37843 13.0792C9.3308 13.0817 9.28416 13.0937 9.24122 13.1144C8.88922 13.2766 8.47179 13.2877 8.13344 13.2395C7.97843 13.2174 7.84938 13.183 7.74834 13.1513C7.75409 13.1271 7.75513 13.1128 7.76249 13.0868C7.80317 12.9431 7.87727 12.7898 7.88754 12.7656C7.90505 12.7521 7.93821 12.7253 7.97937 12.7056C8.0642 12.6651 8.18376 12.6189 8.30643 12.5802C8.4291 12.5414 8.55647 12.5096 8.65634 12.4925C8.75622 12.4755 8.84436 12.488 8.79681 12.4759C8.89304 12.5003 9.12094 12.6033 9.41828 12.7874C9.45836 12.8134 9.50324 12.8313 9.5503 12.8397C9.59736 12.8482 9.64564 12.8472 9.69231 12.8368C9.73897 12.8264 9.78308 12.8067 9.82205 12.779C9.86101 12.7513 9.89405 12.7161 9.91921 12.6754C9.94438 12.6347 9.96116 12.5895 9.96858 12.5422C9.97601 12.495 9.97391 12.4467 9.96243 12.4003C9.95095 12.3539 9.93031 12.3102 9.90172 12.2719C9.87313 12.2336 9.83717 12.2014 9.79595 12.1771C9.46949 11.9751 9.2162 11.8419 8.97373 11.7802C8.88647 11.758 8.81292 11.7532 8.74326 11.7568Z" fill="white"/>
<path d="M16.1712 1.00035C16.1234 0.998237 16.0757 1.0057 16.0308 1.02231C15.9859 1.03892 15.9448 1.06433 15.9099 1.09705C15.875 1.12977 15.847 1.16914 15.8275 1.21285C15.808 1.25656 15.7975 1.30372 15.7965 1.35156C15.7955 1.3994 15.8041 1.44695 15.8218 1.49142C15.8394 1.53589 15.8658 1.57638 15.8994 1.61051C15.9329 1.64463 15.9729 1.67171 16.0171 1.69014C16.0612 1.70857 16.1086 1.71799 16.1565 1.71784C17.9611 1.75492 19.3473 1.83106 20.3022 1.94299C20.7796 1.99895 21.1499 2.06465 21.3997 2.13308C21.6495 2.20152 21.7665 2.30782 21.7299 2.25799C21.6848 2.19665 21.7666 2.35332 21.8106 2.558C21.8547 2.76268 21.9007 3.04293 21.9453 3.36942C22.0347 4.02239 22.1196 4.8627 22.1912 5.71002C22.2629 6.55735 22.3214 7.41277 22.3593 8.10012C22.3972 8.78746 22.4113 9.33742 22.4042 9.4594C22.3848 9.79199 22.2752 10.7346 22.1757 11.7313C22.0761 12.728 21.9844 13.785 22.0035 14.466C22.0222 15.1321 22.1733 17.6863 22.2017 20.7306C22.2295 23.6971 22.1343 27.1072 21.6986 29.5744C20.4612 30.0328 18.6118 30.2822 16.1638 30.2822C16.1162 30.2815 16.069 30.2903 16.0249 30.308C15.9807 30.3258 15.9406 30.3521 15.9067 30.3855C15.8728 30.4189 15.8459 30.4587 15.8276 30.5026C15.8092 30.5464 15.7998 30.5935 15.7998 30.6411C15.7998 30.6886 15.8092 30.7357 15.8276 30.7796C15.8459 30.8235 15.8728 30.8633 15.9067 30.8967C15.9406 30.9301 15.9807 30.9564 16.0249 30.9741C16.069 30.9919 16.1162 31.0006 16.1638 31C18.7811 31 20.767 30.7378 22.1544 30.1728C22.21 30.1502 22.259 30.114 22.297 30.0675C22.335 30.0209 22.3607 29.9656 22.3718 29.9066C22.8568 27.3249 22.9481 23.7883 22.9194 20.7239C22.8907 17.6595 22.738 15.0522 22.721 14.4458C22.7044 13.8543 22.7912 12.7916 22.8899 11.8027C22.9887 10.8138 23.0973 9.90494 23.1208 9.50117C23.1352 9.25501 23.1143 8.75584 23.076 8.06058C23.0376 7.36533 22.9788 6.50458 22.9065 5.6496C22.8342 4.79462 22.7488 3.94641 22.6565 3.27212C22.6104 2.93498 22.5628 2.64194 22.5123 2.40701C22.4617 2.17209 22.4479 2.02287 22.3082 1.8328C22.1307 1.5914 21.898 1.52537 21.5894 1.44083C21.2808 1.35628 20.8842 1.28841 20.3857 1.22998C19.3888 1.11313 17.9883 1.03768 16.1712 1.00035Z" stroke="white" stroke-width="0.4" mask="url(#path-1-inside-1)"/>
<path d="M16.1638 9.19444C16.1162 9.19377 16.069 9.20255 16.0249 9.22029C15.9807 9.23802 15.9406 9.26435 15.9067 9.29774C15.8728 9.33113 15.846 9.37092 15.8276 9.4148C15.8092 9.45868 15.7998 9.50576 15.7998 9.55333C15.7998 9.60089 15.8092 9.64797 15.8276 9.69185C15.846 9.73573 15.8728 9.77552 15.9067 9.80891C15.9406 9.8423 15.9807 9.86863 16.0249 9.88636C16.069 9.9041 16.1162 9.91288 16.1638 9.91221C16.5461 9.91221 17.3006 9.97338 17.7823 10.0458C18.7739 10.1948 19.5293 10.413 20.066 10.6722C19.8504 11.8187 19.5067 12.8536 19.0371 13.7809C18.074 13.5695 17.1156 13.4579 16.1638 13.4579C16.1162 13.4572 16.069 13.466 16.0249 13.4837C15.9807 13.5015 15.9406 13.5278 15.9067 13.5612C15.8728 13.5946 15.846 13.6344 15.8276 13.6782C15.8092 13.7221 15.7998 13.7692 15.7998 13.8168C15.7998 13.8643 15.8092 13.9114 15.8276 13.9553C15.846 13.9992 15.8728 14.039 15.9067 14.0724C15.9406 14.1058 15.9807 14.1321 16.0249 14.1498C16.069 14.1675 16.1162 14.1763 16.1638 14.1757C17.1508 14.1757 18.1468 14.2962 19.1537 14.5386C19.2307 14.5572 19.3117 14.5497 19.384 14.5175C19.4563 14.4852 19.5159 14.43 19.5536 14.3603C20.1649 13.228 20.5886 11.9497 20.8275 10.5311C20.8396 10.4589 20.8294 10.3848 20.7982 10.3185C20.767 10.2523 20.7162 10.1972 20.6528 10.1606C19.988 9.7774 19.0723 9.51386 17.889 9.33603C17.3606 9.25658 16.6167 9.19444 16.1638 9.19444Z" stroke="white" stroke-width="0.4" mask="url(#path-1-inside-1)"/>
<path d="M21.2626 12.6563C21.1964 12.657 21.1317 12.676 21.0756 12.7113C21.0196 12.7465 20.9743 12.7966 20.945 12.8559C20.5709 13.6124 20.2745 14.2425 20.0547 14.749C20.037 14.7899 20.027 14.8338 20.0253 14.8784C19.9236 17.5945 19.8819 19.1349 19.9113 19.646C19.9511 20.336 20.1162 21.8257 21.1477 23.2487C21.1927 23.3108 21.2563 23.3568 21.3294 23.38C21.4024 23.4033 21.481 23.4025 21.5536 23.3779C21.6262 23.3533 21.689 23.306 21.7328 23.2431C21.7766 23.1802 21.7991 23.105 21.797 23.0283L21.5846 15.221L21.6254 13.0217C21.6263 12.9737 21.6175 12.926 21.5997 12.8815C21.5818 12.8369 21.5551 12.7964 21.5213 12.7623C21.4875 12.7282 21.4471 12.7013 21.4027 12.6831C21.3583 12.6649 21.3106 12.6557 21.2626 12.6563ZM20.8765 14.6873L20.8667 15.2145C20.8666 15.2199 20.8667 15.2254 20.8669 15.2309L21.0385 21.5432C20.7307 20.7419 20.6519 20.0222 20.6278 19.6046C20.6066 19.237 20.6413 17.6351 20.7403 14.9773C20.7741 14.8997 20.8388 14.7713 20.8765 14.6873Z" stroke="white" stroke-width="0.4" mask="url(#path-1-inside-1)"/>
<path d="M19.6232 23.774C19.5996 23.7735 19.5759 23.7752 19.5526 23.7794C18.5622 23.9524 17.4344 24.0279 16.1709 24.0028C16.1234 24.0012 16.076 24.009 16.0315 24.0259C15.9871 24.0428 15.9464 24.0683 15.9119 24.101C15.8773 24.1337 15.8497 24.173 15.8304 24.2165C15.8112 24.26 15.8008 24.3069 15.7999 24.3544C15.799 24.402 15.8075 24.4493 15.825 24.4935C15.8425 24.5377 15.8686 24.578 15.9018 24.6121C15.935 24.6462 15.9746 24.6733 16.0184 24.6919C16.0622 24.7105 16.1092 24.7202 16.1568 24.7204C17.3207 24.7435 18.3764 24.6793 19.3367 24.5355C19.6132 25.7185 19.7951 26.9776 19.8806 28.3139C19.0479 28.5176 17.814 28.6352 16.1638 28.6352C16.1162 28.6346 16.069 28.6434 16.0249 28.6611C15.9807 28.6788 15.9406 28.7051 15.9067 28.7385C15.8728 28.7719 15.846 28.8117 15.8276 28.8556C15.8092 28.8995 15.7998 28.9466 15.7998 28.9941C15.7998 29.0417 15.8092 29.0888 15.8276 29.1326C15.846 29.1765 15.8728 29.2163 15.9067 29.2497C15.9406 29.2831 15.9807 29.3094 16.0249 29.3272C16.069 29.3449 16.1162 29.3537 16.1638 29.353C18.0261 29.353 19.4123 29.2241 20.3647 28.9373C20.4417 28.9142 20.5086 28.8659 20.5549 28.8001C20.6011 28.7344 20.6239 28.6551 20.6197 28.5748C20.5348 26.9656 20.3162 25.4557 19.9625 24.0456C19.9434 23.9694 19.8999 23.9017 19.8386 23.8526C19.7774 23.8036 19.7017 23.776 19.6232 23.774Z" stroke="white" stroke-width="0.4" mask="url(#path-1-inside-1)"/>
<path d="M22.6564 5.118C22.6088 5.11733 22.5616 5.12612 22.5175 5.14385C22.4733 5.16158 22.4332 5.18791 22.3993 5.2213C22.3654 5.2547 22.3385 5.29449 22.3202 5.33836C22.3018 5.38224 22.2924 5.42933 22.2924 5.47689C22.2924 5.52445 22.3018 5.57154 22.3202 5.61541C22.3385 5.65929 22.3654 5.69908 22.3993 5.73247C22.4332 5.76586 22.4733 5.79219 22.5175 5.80993C22.5616 5.82766 22.6088 5.83645 22.6564 5.83577H22.7551V7.86979C22.6672 7.88693 22.5888 7.93634 22.5355 8.00829C22.4821 8.08025 22.4576 8.16956 22.4667 8.25867C22.4759 8.34778 22.518 8.43026 22.5848 8.48989C22.6517 8.54953 22.7384 8.58202 22.828 8.58097C23.1935 8.58097 23.4728 8.26673 23.4728 7.91633V5.78264C23.4728 5.41962 23.1712 5.118 22.8082 5.118H22.6564Z" stroke="white" stroke-width="0.4" mask="url(#path-1-inside-1)"/>
<path d="M22.5909 22.8472C22.5015 22.8464 22.4149 22.879 22.3483 22.9386C22.2816 22.9982 22.2395 23.0806 22.2304 23.1695C22.2213 23.2585 22.2457 23.3477 22.2989 23.4196C22.3521 23.4915 22.4303 23.541 22.518 23.5583V25.599C22.4301 25.6162 22.3518 25.6656 22.2984 25.7375C22.2451 25.8095 22.2205 25.8988 22.2297 25.9879C22.2388 26.077 22.2809 26.1595 22.3478 26.2191C22.4146 26.2788 22.5013 26.3113 22.5909 26.3102C22.9564 26.3102 23.2358 25.9961 23.2358 25.6457V23.512C23.2358 23.1616 22.9565 22.8472 22.5909 22.8472Z" stroke="white" stroke-width="0.4" mask="url(#path-1-inside-1)"/>
<path d="M20.2922 1.24093C20.2086 1.23717 20.1263 1.26274 20.0596 1.31322C19.9928 1.3637 19.9458 1.43592 19.9267 1.5174C19.9075 1.59887 19.9175 1.68447 19.9548 1.75939C19.992 1.83432 20.0543 1.89386 20.1309 1.92772C20.1025 1.91468 20.1658 1.95195 20.2347 2.08669C20.2712 2.1578 20.3128 2.30626 20.3528 2.42006C20.3342 2.42257 20.3123 2.43022 20.2976 2.43086C20.334 2.42927 20.2465 2.42736 20.1384 2.41235C20.0304 2.39734 19.8788 2.37311 19.6869 2.34016C19.3462 2.28165 18.8299 2.18487 18.2356 2.07099V1.78823C18.2363 1.74067 18.2275 1.69346 18.2098 1.64933C18.1921 1.60519 18.1657 1.56503 18.1323 1.53116C18.099 1.49729 18.0592 1.4704 18.0153 1.45204C17.9714 1.43369 17.9243 1.42423 17.8768 1.42423C17.8292 1.42423 17.7821 1.43369 17.7382 1.45204C17.6944 1.4704 17.6546 1.49729 17.6212 1.53116C17.5878 1.56503 17.5615 1.60519 17.5437 1.64933C17.526 1.69346 17.5172 1.74067 17.5179 1.78823V2.25941C17.5179 2.51049 17.6694 2.69407 17.916 2.74166C18.6239 2.87829 19.1727 2.98012 19.5653 3.04755C19.7617 3.08127 19.9186 3.10645 20.0396 3.12326C20.1606 3.14006 20.2225 3.15255 20.3288 3.14793C20.4786 3.14141 20.6197 3.11098 20.7477 3.0683C20.8117 3.04696 20.8709 3.02393 20.935 2.98643C20.9991 2.94893 21.1241 2.92903 21.1603 2.67619C21.1671 2.6282 21.1642 2.57932 21.1516 2.5325C21.0677 2.21981 20.9793 1.966 20.8736 1.75949C20.7678 1.55298 20.6488 1.37588 20.4306 1.27556C20.3873 1.25487 20.3402 1.2431 20.2922 1.24093Z" stroke="white" stroke-width="0.4" mask="url(#path-1-inside-1)"/>
<path d="M23.39 11.7568C23.3203 11.7532 23.2468 11.758 23.1595 11.7802C22.9171 11.8419 22.6638 11.9751 22.3373 12.1771C22.2961 12.2014 22.2601 12.2336 22.2315 12.2719C22.203 12.3102 22.1823 12.3539 22.1708 12.4003C22.1593 12.4467 22.1573 12.495 22.1647 12.5422C22.1721 12.5895 22.1889 12.6347 22.214 12.6754C22.2392 12.7161 22.2722 12.7513 22.3112 12.779C22.3502 12.8067 22.3943 12.8264 22.441 12.8368C22.4876 12.8472 22.5359 12.8482 22.583 12.8397C22.63 12.8313 22.6749 12.8134 22.715 12.7874C23.0123 12.6033 23.2402 12.5003 23.3364 12.4759C23.2889 12.488 23.377 12.4755 23.4769 12.4925C23.5768 12.5096 23.7042 12.5414 23.8268 12.5802C23.9495 12.6189 24.0691 12.6652 24.1539 12.7056C24.195 12.7253 24.2282 12.7521 24.2457 12.7656C24.256 12.7898 24.3301 12.9431 24.3708 13.0868C24.3781 13.1128 24.3792 13.1271 24.3849 13.1513C24.2839 13.183 24.1548 13.2174 23.9998 13.2395C23.6615 13.2877 23.244 13.2766 22.892 13.1144C22.8491 13.0937 22.8025 13.0817 22.7548 13.0792C22.7072 13.0767 22.6596 13.0837 22.6147 13.0998C22.5698 13.1159 22.5285 13.1408 22.4934 13.173C22.4582 13.2052 22.4298 13.2441 22.4099 13.2874C22.3899 13.3307 22.3788 13.3776 22.3772 13.4253C22.3755 13.4729 22.3834 13.5204 22.4003 13.565C22.4173 13.6096 22.4429 13.6504 22.4758 13.6849C22.5087 13.7195 22.5481 13.7472 22.5918 13.7663C23.1204 14.0098 23.6717 14.0113 24.101 13.9501C24.3157 13.9195 24.501 13.8725 24.6454 13.8248C24.7176 13.8009 24.7791 13.7771 24.8334 13.7522C24.8876 13.7272 24.9149 13.7387 25.0177 13.6291C25.127 13.5126 25.1254 13.4235 25.1307 13.3607C25.1361 13.298 25.1322 13.2483 25.1262 13.1977C25.1144 13.0966 25.0909 12.9955 25.0615 12.8914C25.0026 12.6832 24.9458 12.4957 24.816 12.3161C24.6931 12.1458 24.5898 12.1183 24.4631 12.0578C24.3365 11.9974 24.1922 11.9429 24.043 11.8958C23.8938 11.8486 23.7412 11.8094 23.5973 11.7849C23.5254 11.7726 23.4597 11.7605 23.39 11.7568Z" stroke="white" stroke-width="0.4" mask="url(#path-1-inside-1)"/>
<path d="M15.962 1.00035C14.1449 1.03768 12.7444 1.11313 11.7475 1.22998C11.2491 1.28841 10.8524 1.35628 10.5439 1.44083C10.2353 1.52537 10.0026 1.5914 9.8251 1.8328C9.68534 2.02287 9.67154 2.17209 9.62099 2.40701C9.57043 2.64194 9.52286 2.93498 9.47673 3.27212C9.38447 3.94641 9.29905 4.79462 9.22677 5.6496C9.1545 6.50458 9.09561 7.36533 9.05728 8.06058C9.01896 8.75584 8.99807 9.25501 9.01242 9.50117C9.03596 9.90494 9.14453 10.8138 9.24331 11.8027C9.3421 12.7916 9.42886 13.8543 9.41224 14.4458C9.39521 15.0522 9.24255 17.6595 9.21387 20.7239C9.1852 23.7883 9.2765 27.3249 9.76146 29.9066C9.77253 29.9656 9.79824 30.0209 9.83623 30.0675C9.87422 30.114 9.92327 30.1502 9.97889 30.1728C11.3662 30.7378 13.3522 31 15.9695 31C16.017 31.0006 16.0642 30.9919 16.1084 30.9741C16.1525 30.9564 16.1927 30.9301 16.2265 30.8967C16.2604 30.8633 16.2873 30.8235 16.3057 30.7796C16.324 30.7357 16.3335 30.6886 16.3335 30.6411C16.3335 30.5935 16.324 30.5464 16.3057 30.5026C16.2873 30.4587 16.2604 30.4189 16.2265 30.3855C16.1927 30.3521 16.1525 30.3258 16.1084 30.308C16.0642 30.2903 16.017 30.2815 15.9695 30.2822C13.5215 30.2822 11.672 30.0328 10.4346 29.5744C9.99895 27.1072 9.90374 23.6971 9.93151 20.7306C9.96 17.6863 10.111 15.1321 10.1297 14.466C10.1489 13.785 10.0572 12.728 9.95758 11.7313C9.85801 10.7346 9.74846 9.79199 9.72907 9.4594C9.72196 9.33742 9.73604 8.78746 9.77393 8.10012C9.81182 7.41277 9.87039 6.55735 9.94202 5.71002C10.0136 4.8627 10.0986 4.02239 10.1879 3.36942C10.2326 3.04293 10.2786 2.76268 10.3226 2.558C10.3667 2.35332 10.4485 2.19665 10.4034 2.25799C10.3668 2.30782 10.4838 2.20152 10.7335 2.13308C10.9833 2.06465 11.3537 1.99895 11.8311 1.94299C12.7859 1.83106 14.1721 1.75492 15.9768 1.71784C16.0246 1.71799 16.072 1.70857 16.1162 1.69014C16.1603 1.67171 16.2003 1.64463 16.2339 1.61051C16.2674 1.57638 16.2938 1.53589 16.3115 1.49142C16.3291 1.44695 16.3377 1.3994 16.3367 1.35156C16.3358 1.30372 16.3252 1.25656 16.3058 1.21285C16.2863 1.16914 16.2583 1.12977 16.2234 1.09705C16.1884 1.06433 16.1473 1.03892 16.1025 1.02231C16.0576 1.0057 16.0098 0.998237 15.962 1.00035Z" stroke="white" stroke-width="0.4" mask="url(#path-1-inside-1)"/>
<path d="M15.9695 9.19444C15.5166 9.19444 14.7727 9.25658 14.2443 9.33603C13.061 9.51386 12.1452 9.7774 11.4805 10.1606C11.417 10.1972 11.3663 10.2523 11.3351 10.3185C11.3039 10.3848 11.2936 10.4589 11.3058 10.5311C11.5446 11.9497 11.9683 13.228 12.5797 14.3603C12.6173 14.43 12.677 14.4852 12.7493 14.5175C12.8216 14.5497 12.9025 14.5572 12.9795 14.5386C13.9864 14.2962 14.9824 14.1757 15.9695 14.1757C16.017 14.1763 16.0643 14.1675 16.1084 14.1498C16.1525 14.1321 16.1927 14.1058 16.2266 14.0724C16.2604 14.039 16.2873 13.9992 16.3057 13.9553C16.324 13.9114 16.3335 13.8643 16.3335 13.8168C16.3335 13.7692 16.324 13.7221 16.3057 13.6782C16.2873 13.6344 16.2604 13.5946 16.2266 13.5612C16.1927 13.5278 16.1525 13.5015 16.1084 13.4837C16.0643 13.466 16.017 13.4572 15.9695 13.4579C15.0177 13.4579 14.0592 13.5695 13.0962 13.7809C12.6266 12.8536 12.2829 11.8187 12.0673 10.6722C12.6039 10.413 13.3594 10.1948 14.351 10.0458C14.8327 9.97338 15.5872 9.91221 15.9695 9.91221C16.017 9.91288 16.0643 9.9041 16.1084 9.88636C16.1525 9.86863 16.1927 9.8423 16.2266 9.80891C16.2604 9.77552 16.2873 9.73573 16.3057 9.69185C16.324 9.64797 16.3335 9.60089 16.3335 9.55333C16.3335 9.50576 16.324 9.45868 16.3057 9.4148C16.2873 9.37092 16.2604 9.33113 16.2266 9.29774C16.1927 9.26435 16.1525 9.23802 16.1084 9.22029C16.0643 9.20255 16.017 9.19377 15.9695 9.19444Z" stroke="white" stroke-width="0.4" mask="url(#path-1-inside-1)"/>
<path d="M10.8706 12.6563C10.8226 12.6557 10.775 12.6649 10.7306 12.6831C10.6861 12.7013 10.6458 12.7282 10.612 12.7623C10.5781 12.7964 10.5515 12.8369 10.5336 12.8815C10.5157 12.926 10.5069 12.9737 10.5078 13.0217L10.5486 15.221L10.3362 23.0283C10.3342 23.105 10.3567 23.1802 10.4005 23.2431C10.4443 23.306 10.5071 23.3533 10.5797 23.3779C10.6523 23.4025 10.7308 23.4033 10.8039 23.38C10.8769 23.3568 10.9406 23.3108 10.9856 23.2487C12.0171 21.8257 12.1822 20.336 12.2219 19.646C12.2514 19.1349 12.2097 17.5944 12.108 14.8784C12.1063 14.8338 12.0963 14.7899 12.0785 14.749C11.8588 14.2425 11.5624 13.6124 11.1883 12.8559C11.1589 12.7966 11.1137 12.7465 11.0576 12.7113C11.0016 12.676 10.9368 12.657 10.8706 12.6563ZM11.2567 14.6873C11.2944 14.7713 11.3591 14.8997 11.393 14.9773C11.492 17.6351 11.5266 19.237 11.5054 19.6046C11.4814 20.0222 11.4026 20.7419 11.0948 21.5432L11.2664 15.2309C11.2666 15.2254 11.2666 15.2199 11.2665 15.2145L11.2567 14.6873Z" stroke="white" stroke-width="0.4" mask="url(#path-1-inside-1)"/>
<path d="M12.5092 23.774C12.4309 23.7762 12.3554 23.8039 12.2943 23.8529C12.2332 23.9019 12.1898 23.9696 12.1708 24.0456C11.8171 25.4557 11.5985 26.9656 11.5136 28.5748C11.5093 28.6551 11.5322 28.7344 11.5784 28.8002C11.6246 28.8659 11.6916 28.9142 11.7686 28.9374C12.721 29.2241 14.1071 29.353 15.9695 29.353C16.017 29.3537 16.0643 29.3449 16.1084 29.3272C16.1525 29.3094 16.1927 29.2831 16.2266 29.2497C16.2604 29.2163 16.2873 29.1765 16.3057 29.1327C16.324 29.0888 16.3335 29.0417 16.3335 28.9941C16.3335 28.9466 16.324 28.8995 16.3057 28.8556C16.2873 28.8117 16.2604 28.7719 16.2266 28.7386C16.1927 28.7052 16.1525 28.6788 16.1084 28.6611C16.0643 28.6434 16.017 28.6346 15.9695 28.6353C14.3193 28.6353 13.0854 28.5177 12.2526 28.3139C12.3382 26.9776 12.52 25.7185 12.7966 24.5355C13.7569 24.6793 14.8126 24.7435 15.9765 24.7205C16.0241 24.7202 16.0711 24.7105 16.1149 24.6919C16.1586 24.6733 16.1983 24.6462 16.2315 24.6121C16.2647 24.5781 16.2908 24.5378 16.3083 24.4935C16.3258 24.4493 16.3343 24.402 16.3334 24.3545C16.3324 24.3069 16.3221 24.26 16.3028 24.2165C16.2836 24.173 16.2559 24.1337 16.2214 24.101C16.1869 24.0683 16.1462 24.0428 16.1017 24.0259C16.0573 24.0091 16.0099 24.0012 15.9623 24.0028C14.6989 24.0279 13.5711 23.9524 12.5807 23.7794C12.5571 23.7752 12.5331 23.7734 12.5092 23.774Z" stroke="white" stroke-width="0.4" mask="url(#path-1-inside-1)"/>
<path d="M9.32505 5.118C8.96202 5.118 8.66041 5.41962 8.66041 5.78264V7.91633C8.66041 8.26673 8.93974 8.58097 9.30528 8.58097C9.3946 8.58164 9.48095 8.54899 9.54748 8.48939C9.61401 8.42979 9.65592 8.34752 9.66503 8.25867C9.67414 8.16982 9.6498 8.08076 9.59675 8.0089C9.54371 7.93704 9.46577 7.88754 9.37818 7.87007V5.83577H9.47687C9.52443 5.83645 9.57165 5.82766 9.61578 5.80993C9.65991 5.79219 9.70007 5.76586 9.73394 5.73247C9.76781 5.69908 9.7947 5.65929 9.81306 5.61541C9.83142 5.57154 9.84087 5.52445 9.84087 5.47689C9.84087 5.42933 9.83142 5.38224 9.81306 5.33836C9.7947 5.29449 9.76781 5.2547 9.73394 5.2213C9.70007 5.18791 9.65991 5.16158 9.61578 5.14385C9.57165 5.12612 9.52443 5.11733 9.47687 5.118H9.32505Z" stroke="white" stroke-width="0.4" mask="url(#path-1-inside-1)"/>
<path d="M9.54234 22.8472C9.1768 22.8472 8.89747 23.1616 8.89747 23.512V25.6457C8.89747 25.9961 9.17691 26.3102 9.54234 26.3102C9.63166 26.3109 9.71802 26.2782 9.78454 26.2186C9.85107 26.159 9.89298 26.0768 9.90209 25.9879C9.91121 25.899 9.88686 25.81 9.83381 25.7381C9.78077 25.6663 9.70283 25.6168 9.61524 25.5993V23.5586C9.70333 23.5416 9.78187 23.4922 9.83539 23.4202C9.8889 23.3482 9.91351 23.2588 9.90436 23.1695C9.89522 23.0803 9.85298 22.9977 9.78597 22.938C9.71896 22.8784 9.63205 22.846 9.54234 22.8472Z" stroke="white" stroke-width="0.4" mask="url(#path-1-inside-1)"/>
<path d="M11.8661 1.24064C11.8097 1.23925 11.7536 1.25121 11.7027 1.27555C11.4844 1.37587 11.3654 1.55297 11.2597 1.75948C11.1539 1.966 11.0655 2.2198 10.9817 2.53249C10.9691 2.57931 10.9661 2.62819 10.973 2.67618C11.0091 2.92902 11.1341 2.94892 11.1983 2.98642C11.2624 3.02392 11.3215 3.04695 11.3856 3.06829C11.5136 3.11098 11.6546 3.1414 11.8044 3.14792C11.9107 3.15254 11.9727 3.14005 12.0937 3.12325C12.2146 3.10644 12.3716 3.08126 12.5679 3.04754C12.9605 2.98012 13.5093 2.87827 14.2171 2.74165C14.4638 2.6941 14.6154 2.51053 14.6154 2.2594V1.78822C14.6161 1.74066 14.6073 1.69345 14.5895 1.64932C14.5718 1.60518 14.5455 1.56502 14.5121 1.53115C14.4787 1.49728 14.4389 1.47039 14.395 1.45203C14.3512 1.43368 14.3041 1.42422 14.2565 1.42422C14.2089 1.42422 14.1619 1.43368 14.118 1.45203C14.0741 1.47039 14.0343 1.49728 14.0009 1.53115C13.9675 1.56502 13.9412 1.60518 13.9235 1.64932C13.9057 1.69345 13.8969 1.74066 13.8976 1.78822V2.07098C13.3034 2.18486 12.787 2.28164 12.4464 2.34015C12.2545 2.3731 12.1029 2.39734 11.9948 2.41234C11.8868 2.42735 11.7993 2.42926 11.8357 2.43085C11.821 2.43021 11.799 2.42256 11.7805 2.42006C11.8205 2.30625 11.8621 2.15779 11.8985 2.08668C11.9675 1.95195 12.0308 1.91467 12.0024 1.92771C12.077 1.89473 12.1381 1.83734 12.1757 1.76498C12.2133 1.69262 12.2252 1.60962 12.2093 1.52963C12.1934 1.44964 12.1508 1.37744 12.0884 1.32491C12.0261 1.27238 11.9476 1.24266 11.8661 1.24064Z" stroke="white" stroke-width="0.4" mask="url(#path-1-inside-1)"/>
<path d="M8.74326 11.7568C8.6736 11.7605 8.60785 11.7726 8.53592 11.7849C8.39206 11.8094 8.23949 11.8486 8.09026 11.8958C7.94103 11.9429 7.79677 11.9974 7.67011 12.0578C7.54345 12.1183 7.44012 12.1458 7.31725 12.316C7.18747 12.4957 7.1307 12.6832 7.07178 12.8914C7.04231 12.9955 7.01887 13.0966 7.00701 13.1977C7.00108 13.2483 6.99719 13.298 7.00253 13.3607C7.00787 13.4235 7.00631 13.5126 7.11552 13.6291C7.21835 13.7387 7.24562 13.7272 7.29987 13.7522C7.35412 13.7771 7.41567 13.8009 7.48786 13.8248C7.63225 13.8725 7.81753 13.9195 8.03222 13.9501C8.46159 14.0113 9.01287 14.0098 9.5415 13.7663C9.58518 13.7472 9.62461 13.7195 9.65747 13.6849C9.69034 13.6504 9.71599 13.6096 9.73292 13.565C9.74986 13.5204 9.75774 13.4729 9.7561 13.4253C9.75446 13.3776 9.74334 13.3307 9.72339 13.2874C9.70343 13.2441 9.67504 13.2052 9.63988 13.173C9.60472 13.1408 9.56349 13.1159 9.5186 13.0998C9.47371 13.0836 9.42606 13.0767 9.37843 13.0792C9.3308 13.0817 9.28416 13.0937 9.24122 13.1144C8.88922 13.2766 8.47179 13.2877 8.13344 13.2395C7.97843 13.2174 7.84938 13.183 7.74834 13.1513C7.75409 13.1271 7.75513 13.1128 7.76249 13.0868C7.80317 12.9431 7.87727 12.7898 7.88754 12.7656C7.90505 12.7521 7.93821 12.7253 7.97937 12.7056C8.0642 12.6651 8.18376 12.6189 8.30643 12.5802C8.4291 12.5414 8.55647 12.5096 8.65634 12.4925C8.75622 12.4755 8.84436 12.488 8.79681 12.4759C8.89304 12.5003 9.12094 12.6033 9.41828 12.7874C9.45836 12.8134 9.50324 12.8313 9.5503 12.8397C9.59736 12.8482 9.64564 12.8472 9.69231 12.8368C9.73897 12.8264 9.78308 12.8067 9.82205 12.779C9.86101 12.7513 9.89405 12.7161 9.91921 12.6754C9.94438 12.6347 9.96116 12.5895 9.96858 12.5422C9.97601 12.495 9.97391 12.4467 9.96243 12.4003C9.95095 12.3539 9.93031 12.3102 9.90172 12.2719C9.87313 12.2336 9.83717 12.2014 9.79595 12.1771C9.46949 11.9751 9.2162 11.8419 8.97373 11.7802C8.88647 11.758 8.81292 11.7532 8.74326 11.7568Z" stroke="white" stroke-width="0.4" mask="url(#path-1-inside-1)"/>
</g>
<path d="M12 21C12 23 12.6667 23.8333 13 24C16 25 18 24.5 19.5 24C19.9 23.6 20 21.8333 20 21V15C19.5 14.6667 18 14 16 14C14 14 12.5 14.6667 12 15V21Z" fill="white" stroke="white"/>
</svg>
