<svg width="32" height="32" viewBox="0 0 32 32" fill="none" xmlns="http://www.w3.org/2000/svg">
<circle opacity="0.2" cx="16" cy="16" r="15.3" stroke="white" stroke-width="1.4"/>
<mask id="path-2-outside-1" maskUnits="userSpaceOnUse" x="2.06693" y="2.47209" width="27.502" height="27.502" fill="black">
<rect fill="white" x="2.06693" y="2.47209" width="27.502" height="27.502"/>
<path d="M5.59219 17.0629C5.6384 17.4977 5.71049 17.9235 5.80694 18.3391C5.8202 18.3963 5.85021 18.4481 5.89311 18.488C5.936 18.5279 5.98981 18.554 6.0476 18.5629L10.664 19.2776C11.3748 19.3876 12.0258 20.111 12.0623 20.8314L12.3025 25.5786C12.3055 25.6366 12.3255 25.6925 12.3601 25.7391C12.3947 25.7857 12.4423 25.821 12.4969 25.8405C13.2856 26.1221 14.115 26.3107 14.9701 26.3945C15.0288 26.4002 15.0879 26.388 15.1396 26.3595C15.1913 26.3309 15.2332 26.2874 15.2597 26.2345L17.4045 21.9656C17.728 21.3216 18.6147 20.9245 19.3091 21.1128L24.016 22.3892C24.0723 22.4044 24.1319 22.4025 24.1871 22.3835C24.2423 22.3646 24.2905 22.3296 24.3257 22.2829C24.8208 21.6263 25.2396 20.9111 25.5707 20.1515C25.5943 20.0972 25.601 20.037 25.5899 19.9788C25.5788 19.9205 25.5504 19.8671 25.5084 19.8253L22.0319 16.3679C21.521 15.8598 21.4181 14.8912 21.8108 14.2872L24.483 10.1763C24.5152 10.1266 24.5317 10.0684 24.5304 10.0091C24.529 9.94987 24.5098 9.89242 24.4753 9.8443C23.992 9.17121 23.4322 8.56006 22.8102 8.02216C22.766 7.98393 22.7114 7.95981 22.6534 7.9529C22.5955 7.94598 22.5368 7.95659 22.485 7.98335L18.1515 10.2205C17.5122 10.5505 16.5619 10.3487 16.1102 9.7871L13.1161 6.06429C13.0791 6.01819 13.029 5.9844 12.9724 5.96736C12.9159 5.95031 12.8555 5.9508 12.7993 5.96877C11.981 6.23033 11.2097 6.5891 10.4978 7.03014C10.4485 7.06068 10.4094 7.10519 10.3854 7.15805C10.3614 7.21091 10.3535 7.26974 10.3629 7.32709L11.1257 12.0187C11.2415 12.7307 10.757 13.5747 10.0852 13.8317L5.72216 15.5007C5.66753 15.5216 5.62041 15.5584 5.58686 15.6064C5.55331 15.6544 5.53487 15.7114 5.53391 15.77C5.52697 16.1967 5.54599 16.6282 5.59219 17.0629ZM6.17438 17.001C6.13777 16.6565 6.12332 16.3151 6.12216 15.9762L10.2942 14.3805C11.2559 14.0126 11.8693 12.9438 11.7036 11.9245L10.9732 7.43294C11.5429 7.09535 12.1506 6.81342 12.7905 6.59444L15.6545 10.1556C16.3012 10.9595 17.5044 11.2151 18.4196 10.7427L22.572 8.59907C23.052 9.03087 23.4901 9.5094 23.8795 10.0292L21.3202 13.9662C20.7581 14.8309 20.8885 16.0575 21.6198 16.7848L24.9493 20.0959C24.6779 20.686 24.3501 21.2459 23.9717 21.7689L19.4615 20.5459C18.4674 20.2764 17.3447 20.779 16.8815 21.7009L14.8299 25.7846C14.1583 25.705 13.5049 25.5571 12.877 25.3468L12.647 20.8021C12.5948 19.7707 11.7705 18.8547 10.7529 18.6972L6.33873 18.014C6.26863 17.6824 6.211 17.3455 6.17438 17.001Z"/>
<path fill-rule="evenodd" clip-rule="evenodd" d="M14.759 4.277C15.5466 4.1927 16.3411 4.18918 17.1293 4.26546C17.8949 4.33942 18.6516 4.48993 19.3872 4.71412C20.8324 5.15525 22.1797 5.87196 23.3543 6.82494C24.53 7.77664 25.5116 8.94738 26.2453 10.2721C26.6184 10.9464 26.9241 11.6569 27.1571 12.3922C27.3971 13.1492 27.5607 13.9291 27.6441 14.7193C27.7286 15.5094 27.7327 16.3063 27.6571 17.0968C27.5839 17.8647 27.4343 18.6235 27.2113 19.3613C26.7724 20.8105 26.0587 22.1615 25.1094 23.339C24.1613 24.5176 22.9947 25.5014 21.6745 26.2365C21.0024 26.6103 20.2943 26.9164 19.5613 27.1497C18.8067 27.3899 18.0293 27.5534 17.2415 27.6366C16.4539 27.7209 15.66 27.7243 14.8712 27.6481C14.1056 27.5741 13.3489 27.4236 12.6133 27.1994C11.1681 26.7583 9.82073 26.0416 8.64613 25.0886C7.47049 24.1369 6.48882 22.9662 5.75515 21.6415C5.38204 20.9672 5.07632 20.2567 4.84333 19.5214C4.60332 18.7643 4.43977 17.9844 4.35638 17.1942C4.27183 16.4042 4.2678 15.6073 4.34334 14.8167C4.41658 14.0489 4.56615 13.29 4.78919 12.5523C5.22806 11.103 5.94174 9.75211 6.89109 8.57458C7.83916 7.39601 9.00575 6.41214 10.326 5.67711C10.9981 5.30331 11.7062 4.99713 12.4391 4.76391C13.1937 4.52367 13.9712 4.36013 14.759 4.277ZM14.821 4.86099C15.5697 4.78084 16.3241 4.77744 17.0736 4.84956C17.8006 4.92054 18.5188 5.06332 19.2173 5.27611C20.5906 5.69475 21.8706 6.37609 22.9866 7.28157C24.1036 8.18575 25.0367 9.29788 25.7333 10.5568C26.0875 11.1971 26.3776 11.8715 26.5996 12.5696C26.8274 13.2895 26.9826 14.0301 27.0619 14.7812C27.1423 15.5321 27.1462 16.2889 27.0747 17.0406C27.0044 17.7698 26.8626 18.49 26.6509 19.1905C26.2344 20.5677 25.5559 21.8511 24.6539 22.9698C23.7531 24.0897 22.645 25.0248 21.3903 25.7227C20.7521 26.0776 20.08 26.3681 19.3841 26.5903C18.6665 26.8184 17.9282 26.9736 17.1794 27.0526C16.4308 27.1327 15.6764 27.1361 14.9269 27.064C14.1998 26.993 13.4817 26.8502 12.7832 26.6375C11.4098 26.2188 10.1298 25.5375 9.01386 24.632C7.89685 23.7278 6.9638 22.6157 6.26715 21.3568C5.91295 20.7164 5.62285 20.0421 5.40088 19.344C5.17306 18.6241 5.01781 17.8834 4.93858 17.1324C4.85818 16.3814 4.8543 15.6247 4.92572 14.873C4.99601 14.1438 5.1379 13.4236 5.3496 12.7231C5.76609 11.3459 6.44456 10.0625 7.34658 8.94372C8.24732 7.82392 9.3555 6.88878 10.6102 6.19084C11.2484 5.83599 11.9205 5.54545 12.6163 5.32326C13.334 5.09522 14.0723 4.93998 14.821 4.86099Z"/>
<path fill-rule="evenodd" clip-rule="evenodd" d="M14.8782 5.53173C16.2672 5.38293 17.6732 5.51581 19.0104 5.92176C20.3005 6.31559 21.503 6.95497 22.5519 7.80614C23.6013 8.6555 24.4778 9.70041 25.1328 10.8834C25.8095 12.1096 26.2344 13.46 26.3813 14.8535C26.5306 16.2468 26.399 17.6563 25.9951 18.9974C25.6033 20.2916 24.9661 21.4974 24.1187 22.5484C23.272 23.601 22.2308 24.4788 21.0523 25.135C19.8303 25.8129 18.4842 26.2383 17.095 26.3848C15.7054 26.5336 14.3006 26.4006 12.9633 25.9947C11.6727 25.6009 10.4702 24.9615 9.42124 24.1103C8.37187 23.261 7.49542 22.2161 6.84098 21.033C6.1637 19.8069 5.73911 18.4564 5.59219 17.0629C5.44294 15.6696 5.57422 14.2601 5.97866 12.919C6.36983 11.6248 7.00709 10.4191 7.8545 9.36812C8.70114 8.31549 9.74241 7.43766 10.9214 6.78142C12.1435 6.10348 13.4884 5.67825 14.8782 5.53173ZM14.9403 6.11572C16.2513 5.97521 17.5781 6.10055 18.8405 6.48374C20.0588 6.85568 21.1939 7.45969 22.1842 8.26276C23.175 9.06461 24.0023 10.0516 24.6208 11.1682C25.2596 12.3257 25.6605 13.6001 25.7992 14.9154C25.9401 16.2304 25.8159 17.5606 25.4347 18.8266C25.0647 20.0483 24.4633 21.1871 23.6632 22.1792C22.8638 23.1725 21.881 24.0016 20.7681 24.6213C19.6144 25.2612 18.3441 25.6626 17.0329 25.8008C15.7213 25.9413 14.3951 25.8159 13.1327 25.4327C11.9144 25.0608 10.7793 24.4568 9.78897 23.6537C8.79823 22.8519 7.97092 21.8649 7.35297 20.7482C6.71361 19.5907 6.31299 18.3163 6.17438 17.001C6.03345 15.686 6.15727 14.3559 6.53907 13.0898C6.90851 11.8682 7.50991 10.7294 8.30999 9.73725C9.10936 8.74398 10.0922 7.91488 11.2051 7.2952C12.3588 6.65524 13.6291 6.25389 14.9403 6.11572Z"/>
</mask>
<path d="M5.59219 17.0629C5.6384 17.4977 5.71049 17.9235 5.80694 18.3391C5.8202 18.3963 5.85021 18.4481 5.89311 18.488C5.936 18.5279 5.98981 18.554 6.0476 18.5629L10.664 19.2776C11.3748 19.3876 12.0258 20.111 12.0623 20.8314L12.3025 25.5786C12.3055 25.6366 12.3255 25.6925 12.3601 25.7391C12.3947 25.7857 12.4423 25.821 12.4969 25.8405C13.2856 26.1221 14.115 26.3107 14.9701 26.3945C15.0288 26.4002 15.0879 26.388 15.1396 26.3595C15.1913 26.3309 15.2332 26.2874 15.2597 26.2345L17.4045 21.9656C17.728 21.3216 18.6147 20.9245 19.3091 21.1128L24.016 22.3892C24.0723 22.4044 24.1319 22.4025 24.1871 22.3835C24.2423 22.3646 24.2905 22.3296 24.3257 22.2829C24.8208 21.6263 25.2396 20.9111 25.5707 20.1515C25.5943 20.0972 25.601 20.037 25.5899 19.9788C25.5788 19.9205 25.5504 19.8671 25.5084 19.8253L22.0319 16.3679C21.521 15.8598 21.4181 14.8912 21.8108 14.2872L24.483 10.1763C24.5152 10.1266 24.5317 10.0684 24.5304 10.0091C24.529 9.94987 24.5098 9.89242 24.4753 9.8443C23.992 9.17121 23.4322 8.56006 22.8102 8.02216C22.766 7.98393 22.7114 7.95981 22.6534 7.9529C22.5955 7.94598 22.5368 7.95659 22.485 7.98335L18.1515 10.2205C17.5122 10.5505 16.5619 10.3487 16.1102 9.7871L13.1161 6.06429C13.0791 6.01819 13.029 5.9844 12.9724 5.96736C12.9159 5.95031 12.8555 5.9508 12.7993 5.96877C11.981 6.23033 11.2097 6.5891 10.4978 7.03014C10.4485 7.06068 10.4094 7.10519 10.3854 7.15805C10.3614 7.21091 10.3535 7.26974 10.3629 7.32709L11.1257 12.0187C11.2415 12.7307 10.757 13.5747 10.0852 13.8317L5.72216 15.5007C5.66753 15.5216 5.62041 15.5584 5.58686 15.6064C5.55331 15.6544 5.53487 15.7114 5.53391 15.77C5.52697 16.1967 5.54599 16.6282 5.59219 17.0629ZM6.17438 17.001C6.13777 16.6565 6.12332 16.3151 6.12216 15.9762L10.2942 14.3805C11.2559 14.0126 11.8693 12.9438 11.7036 11.9245L10.9732 7.43294C11.5429 7.09535 12.1506 6.81342 12.7905 6.59444L15.6545 10.1556C16.3012 10.9595 17.5044 11.2151 18.4196 10.7427L22.572 8.59907C23.052 9.03087 23.4901 9.5094 23.8795 10.0292L21.3202 13.9662C20.7581 14.8309 20.8885 16.0575 21.6198 16.7848L24.9493 20.0959C24.6779 20.686 24.3501 21.2459 23.9717 21.7689L19.4615 20.5459C18.4674 20.2764 17.3447 20.779 16.8815 21.7009L14.8299 25.7846C14.1583 25.705 13.5049 25.5571 12.877 25.3468L12.647 20.8021C12.5948 19.7707 11.7705 18.8547 10.7529 18.6972L6.33873 18.014C6.26863 17.6824 6.211 17.3455 6.17438 17.001Z" fill="white"/>
<path fill-rule="evenodd" clip-rule="evenodd" d="M14.759 4.277C15.5466 4.1927 16.3411 4.18918 17.1293 4.26546C17.8949 4.33942 18.6516 4.48993 19.3872 4.71412C20.8324 5.15525 22.1797 5.87196 23.3543 6.82494C24.53 7.77664 25.5116 8.94738 26.2453 10.2721C26.6184 10.9464 26.9241 11.6569 27.1571 12.3922C27.3971 13.1492 27.5607 13.9291 27.6441 14.7193C27.7286 15.5094 27.7327 16.3063 27.6571 17.0968C27.5839 17.8647 27.4343 18.6235 27.2113 19.3613C26.7724 20.8105 26.0587 22.1615 25.1094 23.339C24.1613 24.5176 22.9947 25.5014 21.6745 26.2365C21.0024 26.6103 20.2943 26.9164 19.5613 27.1497C18.8067 27.3899 18.0293 27.5534 17.2415 27.6366C16.4539 27.7209 15.66 27.7243 14.8712 27.6481C14.1056 27.5741 13.3489 27.4236 12.6133 27.1994C11.1681 26.7583 9.82073 26.0416 8.64613 25.0886C7.47049 24.1369 6.48882 22.9662 5.75515 21.6415C5.38204 20.9672 5.07632 20.2567 4.84333 19.5214C4.60332 18.7643 4.43977 17.9844 4.35638 17.1942C4.27183 16.4042 4.2678 15.6073 4.34334 14.8167C4.41658 14.0489 4.56615 13.29 4.78919 12.5523C5.22806 11.103 5.94174 9.75211 6.89109 8.57458C7.83916 7.39601 9.00575 6.41214 10.326 5.67711C10.9981 5.30331 11.7062 4.99713 12.4391 4.76391C13.1937 4.52367 13.9712 4.36013 14.759 4.277ZM14.821 4.86099C15.5697 4.78084 16.3241 4.77744 17.0736 4.84956C17.8006 4.92054 18.5188 5.06332 19.2173 5.27611C20.5906 5.69475 21.8706 6.37609 22.9866 7.28157C24.1036 8.18575 25.0367 9.29788 25.7333 10.5568C26.0875 11.1971 26.3776 11.8715 26.5996 12.5696C26.8274 13.2895 26.9826 14.0301 27.0619 14.7812C27.1423 15.5321 27.1462 16.2889 27.0747 17.0406C27.0044 17.7698 26.8626 18.49 26.6509 19.1905C26.2344 20.5677 25.5559 21.8511 24.6539 22.9698C23.7531 24.0897 22.645 25.0248 21.3903 25.7227C20.7521 26.0776 20.08 26.3681 19.3841 26.5903C18.6665 26.8184 17.9282 26.9736 17.1794 27.0526C16.4308 27.1327 15.6764 27.1361 14.9269 27.064C14.1998 26.993 13.4817 26.8502 12.7832 26.6375C11.4098 26.2188 10.1298 25.5375 9.01386 24.632C7.89685 23.7278 6.9638 22.6157 6.26715 21.3568C5.91295 20.7164 5.62285 20.0421 5.40088 19.344C5.17306 18.6241 5.01781 17.8834 4.93858 17.1324C4.85818 16.3814 4.8543 15.6247 4.92572 14.873C4.99601 14.1438 5.1379 13.4236 5.3496 12.7231C5.76609 11.3459 6.44456 10.0625 7.34658 8.94372C8.24732 7.82392 9.3555 6.88878 10.6102 6.19084C11.2484 5.83599 11.9205 5.54545 12.6163 5.32326C13.334 5.09522 14.0723 4.93998 14.821 4.86099Z" fill="white"/>
<path fill-rule="evenodd" clip-rule="evenodd" d="M14.8782 5.53173C16.2672 5.38293 17.6732 5.51581 19.0104 5.92176C20.3005 6.31559 21.503 6.95497 22.5519 7.80614C23.6013 8.6555 24.4778 9.70041 25.1328 10.8834C25.8095 12.1096 26.2344 13.46 26.3813 14.8535C26.5306 16.2468 26.399 17.6563 25.9951 18.9974C25.6033 20.2916 24.9661 21.4974 24.1187 22.5484C23.272 23.601 22.2308 24.4788 21.0523 25.135C19.8303 25.8129 18.4842 26.2383 17.095 26.3848C15.7054 26.5336 14.3006 26.4006 12.9633 25.9947C11.6727 25.6009 10.4702 24.9615 9.42124 24.1103C8.37187 23.261 7.49542 22.2161 6.84098 21.033C6.1637 19.8069 5.73911 18.4564 5.59219 17.0629C5.44294 15.6696 5.57422 14.2601 5.97866 12.919C6.36983 11.6248 7.00709 10.4191 7.8545 9.36812C8.70114 8.31549 9.74241 7.43766 10.9214 6.78142C12.1435 6.10348 13.4884 5.67825 14.8782 5.53173ZM14.9403 6.11572C16.2513 5.97521 17.5781 6.10055 18.8405 6.48374C20.0588 6.85568 21.1939 7.45969 22.1842 8.26276C23.175 9.06461 24.0023 10.0516 24.6208 11.1682C25.2596 12.3257 25.6605 13.6001 25.7992 14.9154C25.9401 16.2304 25.8159 17.5606 25.4347 18.8266C25.0647 20.0483 24.4633 21.1871 23.6632 22.1792C22.8638 23.1725 21.881 24.0016 20.7681 24.6213C19.6144 25.2612 18.3441 25.6626 17.0329 25.8008C15.7213 25.9413 14.3951 25.8159 13.1327 25.4327C11.9144 25.0608 10.7793 24.4568 9.78897 23.6537C8.79823 22.8519 7.97092 21.8649 7.35297 20.7482C6.71361 19.5907 6.31299 18.3163 6.17438 17.001C6.03345 15.686 6.15727 14.3559 6.53907 13.0898C6.90851 11.8682 7.50991 10.7294 8.30999 9.73725C9.10936 8.74398 10.0922 7.91488 11.2051 7.2952C12.3588 6.65524 13.6291 6.25389 14.9403 6.11572Z" fill="white"/>
<path d="M5.80694 18.3391L5.61212 18.3844L5.61212 18.3844L5.80694 18.3391ZM6.0476 18.5629L6.017 18.7606L6.01701 18.7606L6.0476 18.5629ZM10.664 19.2776L10.6334 19.4753L10.6334 19.4753L10.664 19.2776ZM12.0623 20.8314L12.262 20.8213L12.262 20.8213L12.0623 20.8314ZM12.3025 25.5786L12.5023 25.5685L12.5023 25.5685L12.3025 25.5786ZM12.4969 25.8405L12.4296 26.0289L12.4296 26.0289L12.4969 25.8405ZM14.9701 26.3945L14.9506 26.5935L14.9506 26.5935L14.9701 26.3945ZM15.2597 26.2345L15.4385 26.3243L15.4385 26.3243L15.2597 26.2345ZM17.4045 21.9656L17.2257 21.8758L17.2257 21.8758L17.4045 21.9656ZM19.3091 21.1128L19.3614 20.9198L19.3614 20.9198L19.3091 21.1128ZM24.016 22.3892L23.9636 22.5822L23.9636 22.5822L24.016 22.3892ZM24.3257 22.2829L24.166 22.1625L24.166 22.1625L24.3257 22.2829ZM25.5707 20.1515L25.754 20.2314L25.754 20.2313L25.5707 20.1515ZM25.5084 19.8253L25.3674 19.9671L25.3674 19.9671L25.5084 19.8253ZM22.0319 16.3679L22.1729 16.2261L22.1729 16.2261L22.0319 16.3679ZM21.8108 14.2872L21.9784 14.3962L21.9784 14.3962L21.8108 14.2872ZM24.483 10.1763L24.3153 10.0673L24.3153 10.0673L24.483 10.1763ZM24.4753 9.8443L24.6378 9.7277L24.6377 9.72765L24.4753 9.8443ZM22.8102 8.02216L22.6793 8.17343L22.6793 8.17344L22.8102 8.02216ZM22.485 7.98335L22.3933 7.80562L22.3932 7.80564L22.485 7.98335ZM18.1515 10.2205L18.2432 10.3982L18.2432 10.3982L18.1515 10.2205ZM16.1102 9.7871L15.9543 9.91244L15.9543 9.91245L16.1102 9.7871ZM13.1161 6.06429L13.272 5.93895L13.272 5.93894L13.1161 6.06429ZM12.7993 5.96877L12.7384 5.77825L12.7384 5.77826L12.7993 5.96877ZM10.4978 7.03014L10.3925 6.86013L10.3925 6.86014L10.4978 7.03014ZM10.3629 7.32709L10.5603 7.29499L10.5603 7.29499L10.3629 7.32709ZM11.1257 12.0187L11.3231 11.9866L11.3231 11.9866L11.1257 12.0187ZM10.0852 13.8317L10.0138 13.6449L10.0137 13.6449L10.0852 13.8317ZM5.72216 15.5007L5.6507 15.3139L5.6507 15.3139L5.72216 15.5007ZM5.53391 15.77L5.33394 15.7668L5.33393 15.7668L5.53391 15.77ZM6.12216 15.9762L6.05071 15.7894L5.92169 15.8387L5.92216 15.9769L6.12216 15.9762ZM10.2942 14.3805L10.2227 14.1937L10.2227 14.1937L10.2942 14.3805ZM11.7036 11.9245L11.901 11.8924L11.901 11.8924L11.7036 11.9245ZM10.9732 7.43294L10.8713 7.26088L10.7539 7.33042L10.7758 7.46504L10.9732 7.43294ZM12.7905 6.59444L12.9463 6.46909L12.8584 6.3598L12.7257 6.40521L12.7905 6.59444ZM15.6545 10.1556L15.4987 10.281L15.4987 10.281L15.6545 10.1556ZM18.4196 10.7427L18.5114 10.9204L18.5114 10.9204L18.4196 10.7427ZM22.572 8.59907L22.7058 8.45038L22.6031 8.35796L22.4803 8.42135L22.572 8.59907ZM23.8795 10.0292L24.0472 10.1382L24.1233 10.0211L24.0396 9.90931L23.8795 10.0292ZM21.3202 13.9662L21.1525 13.8572L21.1525 13.8572L21.3202 13.9662ZM21.6198 16.7848L21.4788 16.9266L21.4788 16.9266L21.6198 16.7848ZM24.9493 20.0959L25.131 20.1795L25.1894 20.0526L25.0903 19.9541L24.9493 20.0959ZM23.9717 21.7689L23.9193 21.962L24.0527 21.9981L24.1337 21.8862L23.9717 21.7689ZM19.4615 20.5459L19.5138 20.3529L19.5138 20.3529L19.4615 20.5459ZM16.8815 21.7009L16.7028 21.6111L16.7028 21.6111L16.8815 21.7009ZM14.8299 25.7846L14.8064 25.9832L14.9457 25.9998L15.0086 25.8744L14.8299 25.7846ZM12.877 25.3468L12.6773 25.3569L12.6842 25.4931L12.8135 25.5365L12.877 25.3468ZM12.647 20.8021L12.8468 20.792L12.8468 20.792L12.647 20.8021ZM10.7529 18.6972L10.7223 18.8948L10.7223 18.8948L10.7529 18.6972ZM6.33873 18.014L6.14305 18.0553L6.17162 18.1905L6.30814 18.2116L6.33873 18.014ZM14.759 4.277L14.7799 4.4759L14.7802 4.47587L14.759 4.277ZM17.1293 4.26546L17.11 4.46453L17.1101 4.46454L17.1293 4.26546ZM19.3872 4.71412L19.4456 4.52284L19.4455 4.52281L19.3872 4.71412ZM23.3543 6.82494L23.2283 6.98026L23.2285 6.98039L23.3543 6.82494ZM26.2453 10.2721L26.4203 10.1752L26.4203 10.1752L26.2453 10.2721ZM27.1571 12.3922L26.9665 12.4526L26.9665 12.4526L27.1571 12.3922ZM27.6441 14.7193L27.4452 14.7403L27.4452 14.7406L27.6441 14.7193ZM27.6571 17.0968L27.458 17.0778L27.458 17.0778L27.6571 17.0968ZM27.2113 19.3613L27.4027 19.4192L27.4027 19.4191L27.2113 19.3613ZM25.1094 23.339L24.9537 23.2135L24.9535 23.2136L25.1094 23.339ZM21.6745 26.2365L21.7717 26.4112L21.7718 26.4112L21.6745 26.2365ZM19.5613 27.1497L19.5007 26.9591L19.5006 26.9591L19.5613 27.1497ZM17.2415 27.6366L17.2205 27.4377L17.2202 27.4377L17.2415 27.6366ZM14.8712 27.6481L14.8904 27.449L14.8904 27.449L14.8712 27.6481ZM12.6133 27.1994L12.5549 27.3907L12.555 27.3908L12.6133 27.1994ZM8.64613 25.0886L8.77214 24.9333L8.77197 24.9332L8.64613 25.0886ZM5.75515 21.6415L5.58015 21.7383L5.5802 21.7384L5.75515 21.6415ZM4.84333 19.5214L5.03399 19.461L5.03398 19.4609L4.84333 19.5214ZM4.35638 17.1942L4.55528 17.1732L4.55525 17.173L4.35638 17.1942ZM4.34334 14.8167L4.54244 14.8358L4.54244 14.8357L4.34334 14.8167ZM4.78919 12.5523L4.59778 12.4943L4.59775 12.4944L4.78919 12.5523ZM6.89109 8.57458L7.04679 8.70011L7.04693 8.69994L6.89109 8.57458ZM10.326 5.67711L10.2287 5.50233L10.2287 5.50237L10.326 5.67711ZM12.4391 4.76391L12.4998 4.9545L12.4998 4.95448L12.4391 4.76391ZM14.821 4.86099L14.842 5.05989L14.8423 5.05986L14.821 4.86099ZM17.0736 4.84956L17.093 4.65051L17.0928 4.65048L17.0736 4.84956ZM19.2173 5.27611L19.2756 5.0848L19.2756 5.08479L19.2173 5.27611ZM22.9866 7.28157L22.8606 7.43688L22.8608 7.43702L22.9866 7.28157ZM25.7333 10.5568L25.9083 10.46L25.9083 10.46L25.7333 10.5568ZM26.5996 12.5696L26.7903 12.5092L26.7902 12.509L26.5996 12.5696ZM27.0619 14.7812L26.863 14.8022L26.863 14.8025L27.0619 14.7812ZM27.0747 17.0406L27.2738 17.0598L27.2738 17.0595L27.0747 17.0406ZM26.6509 19.1905L26.8423 19.2484L26.8423 19.2483L26.6509 19.1905ZM24.6539 22.9698L24.4982 22.8443L24.498 22.8445L24.6539 22.9698ZM21.3903 25.7227L21.4875 25.8975L21.4875 25.8975L21.3903 25.7227ZM19.3841 26.5903L19.4447 26.7809L19.4449 26.7808L19.3841 26.5903ZM17.1794 27.0526L17.1585 26.8537L17.1581 26.8537L17.1794 27.0526ZM14.9269 27.064L14.9074 27.2631L14.9077 27.2631L14.9269 27.064ZM12.7832 26.6375L12.7248 26.8288L12.7249 26.8288L12.7832 26.6375ZM9.01386 24.632L9.13988 24.4767L9.1397 24.4765L9.01386 24.632ZM6.26715 21.3568L6.09214 21.4536L6.09215 21.4536L6.26715 21.3568ZM5.40088 19.344L5.2102 19.4043L5.21029 19.4046L5.40088 19.344ZM4.93858 17.1324L5.13747 17.1114L5.13744 17.1111L4.93858 17.1324ZM4.92572 14.873L4.72665 14.8538L4.72662 14.8541L4.92572 14.873ZM5.3496 12.7231L5.15816 12.6652L5.15815 12.6652L5.3496 12.7231ZM7.34658 8.94372L7.50228 9.06925L7.50242 9.06907L7.34658 8.94372ZM10.6102 6.19084L10.513 6.01604L10.513 6.01606L10.6102 6.19084ZM12.6163 5.32326L12.5558 5.13265L12.5555 5.13274L12.6163 5.32326ZM14.8782 5.53173L14.8992 5.73063L14.8995 5.73059L14.8782 5.53173ZM19.0104 5.92176L19.0688 5.73047L19.0685 5.73038L19.0104 5.92176ZM22.5519 7.80614L22.4259 7.96144L22.4261 7.9616L22.5519 7.80614ZM25.1328 10.8834L25.3079 10.7868L25.3078 10.7866L25.1328 10.8834ZM26.3813 14.8535L26.1824 14.8745L26.1825 14.8748L26.3813 14.8535ZM25.9951 18.9974L26.1865 19.0553L26.1866 19.055L25.9951 18.9974ZM24.1187 22.5484L23.963 22.4228L23.9628 22.423L24.1187 22.5484ZM21.0523 25.135L21.1493 25.3099L21.1496 25.3097L21.0523 25.135ZM17.095 26.3848L17.074 26.1859L17.0737 26.1859L17.095 26.3848ZM12.9633 25.9947L12.905 26.186L12.9052 26.186L12.9633 25.9947ZM9.42124 24.1103L9.54726 23.955L9.54706 23.9549L9.42124 24.1103ZM6.84098 21.033L6.66591 21.1297L6.66597 21.1298L6.84098 21.033ZM5.97866 12.919L5.78722 12.8612L5.78718 12.8613L5.97866 12.919ZM7.8545 9.36812L8.01019 9.49366L8.01034 9.49347L7.8545 9.36812ZM10.9214 6.78142L10.8244 6.60653L10.8242 6.60666L10.9214 6.78142ZM14.9403 6.11572L14.9612 6.31462L14.9616 6.31458L14.9403 6.11572ZM18.8405 6.48374L18.8989 6.29246L18.8986 6.29236L18.8405 6.48374ZM22.1842 8.26276L22.0582 8.4181L22.0584 8.41823L22.1842 8.26276ZM24.6208 11.1682L24.7959 11.0715L24.7957 11.0713L24.6208 11.1682ZM25.7992 14.9154L25.6003 14.9364L25.6003 14.9367L25.7992 14.9154ZM25.4347 18.8266L25.6261 18.8846L25.6262 18.8843L25.4347 18.8266ZM23.6632 22.1792L23.5075 22.0537L23.5074 22.0538L23.6632 22.1792ZM20.7681 24.6213L20.8651 24.7962L20.8654 24.796L20.7681 24.6213ZM17.0329 25.8008L17.0119 25.6019L17.0116 25.6019L17.0329 25.8008ZM13.1327 25.4327L13.0743 25.624L13.0746 25.6241L13.1327 25.4327ZM9.78897 23.6537L9.91494 23.4984L9.91479 23.4983L9.78897 23.6537ZM7.35297 20.7482L7.1779 20.8449L7.17798 20.8451L7.35297 20.7482ZM6.53907 13.0898L6.34763 13.0319L6.34758 13.0321L6.53907 13.0898ZM8.30999 9.73725L8.46568 9.8628L8.4658 9.86265L8.30999 9.73725ZM11.2051 7.2952L11.1081 7.12031L11.1078 7.12047L11.2051 7.2952ZM5.39331 17.084C5.44038 17.5269 5.51383 17.9608 5.61212 18.3844L6.00176 18.2939C5.90716 17.8862 5.83641 17.4684 5.79107 17.0418L5.39331 17.084ZM5.61212 18.3844C5.63438 18.4803 5.68478 18.5674 5.75691 18.6345L6.0293 18.3416C6.01564 18.3289 6.00602 18.3123 6.00176 18.2939L5.61212 18.3844ZM5.75691 18.6345C5.82904 18.7015 5.91962 18.7455 6.017 18.7606L6.07821 18.3653C6.06 18.3625 6.04296 18.3542 6.0293 18.3416L5.75691 18.6345ZM6.01701 18.7606L10.6334 19.4753L10.6946 19.08L6.0782 18.3653L6.01701 18.7606ZM10.6334 19.4753C10.9343 19.5218 11.2353 19.7016 11.4674 19.9594C11.6993 20.2172 11.8471 20.5361 11.8625 20.8416L12.262 20.8213C12.241 20.4063 12.045 20.0033 11.7647 19.6918C11.4844 19.3803 11.1045 19.1434 10.6946 19.08L10.6334 19.4753ZM11.8625 20.8416L12.1028 25.5887L12.5023 25.5685L12.262 20.8213L11.8625 20.8416ZM12.1028 25.5887C12.1077 25.6861 12.1413 25.7799 12.1995 25.8583L12.5207 25.6199C12.5097 25.605 12.5032 25.5871 12.5023 25.5685L12.1028 25.5887ZM12.1995 25.8583C12.2576 25.9366 12.3377 25.996 12.4296 26.0289L12.5642 25.6522C12.5469 25.646 12.5318 25.6348 12.5207 25.6199L12.1995 25.8583ZM12.4296 26.0289C13.2335 26.3159 14.079 26.5082 14.9506 26.5935L14.9895 26.1954C14.1511 26.1133 13.3376 25.9283 12.5641 25.6522L12.4296 26.0289ZM14.9506 26.5935C15.0496 26.6032 15.1492 26.5826 15.2363 26.5345L15.0429 26.1844C15.0266 26.1934 15.008 26.1972 14.9895 26.1954L14.9506 26.5935ZM15.2363 26.5345C15.3234 26.4865 15.3938 26.4131 15.4385 26.3243L15.081 26.1447C15.0726 26.1616 15.0592 26.1754 15.0429 26.1844L15.2363 26.5345ZM15.4385 26.3243L17.5832 22.0553L17.2257 21.8758L15.081 26.1447L15.4385 26.3243ZM17.5832 22.0553C17.7203 21.7825 17.9837 21.551 18.2995 21.4096C18.6153 21.2682 18.9628 21.2261 19.2567 21.3058L19.3614 20.9198C18.961 20.8112 18.518 20.8735 18.136 21.0445C17.754 21.2156 17.4122 21.5046 17.2257 21.8758L17.5832 22.0553ZM19.2567 21.3058L23.9636 22.5822L24.0683 22.1961L19.3614 20.9198L19.2567 21.3058ZM23.9636 22.5822C24.0586 22.6079 24.159 22.6046 24.252 22.5727L24.1222 22.1944C24.1048 22.2003 24.086 22.201 24.0683 22.1961L23.9636 22.5822ZM24.252 22.5727C24.345 22.5408 24.4263 22.4818 24.4854 22.4033L24.166 22.1625C24.1548 22.1773 24.1395 22.1884 24.1222 22.1944L24.252 22.5727ZM24.4854 22.4033C24.9899 21.7342 25.4166 21.0055 25.754 20.2314L25.3873 20.0716C25.0626 20.8167 24.6517 21.5183 24.166 22.1625L24.4854 22.4033ZM25.754 20.2313C25.7938 20.1401 25.805 20.039 25.7864 19.9413L25.3935 20.0163C25.397 20.035 25.3949 20.0543 25.3873 20.0716L25.754 20.2313ZM25.7864 19.9413C25.7677 19.8435 25.72 19.7537 25.6494 19.6835L25.3674 19.9671C25.3808 19.9804 25.3899 19.9976 25.3935 20.0163L25.7864 19.9413ZM25.6494 19.6835L22.1729 16.2261L21.8908 16.5097L25.3674 19.9671L25.6494 19.6835ZM22.1729 16.2261C21.9564 16.0108 21.8181 15.6877 21.7814 15.3424C21.7447 14.9971 21.8121 14.6521 21.9784 14.3962L21.6431 14.1782C21.4168 14.5263 21.3393 14.9677 21.3836 15.3847C21.4279 15.8017 21.5965 16.2169 21.8909 16.5097L22.1729 16.2261ZM21.9784 14.3962L24.6506 10.2853L24.3153 10.0673L21.6431 14.1782L21.9784 14.3962ZM24.6506 10.2853C24.7049 10.2018 24.7326 10.104 24.7303 10.0045L24.3304 10.0138C24.3309 10.0328 24.3256 10.0514 24.3153 10.0673L24.6506 10.2853ZM24.7303 10.0045C24.728 9.90504 24.6958 9.80855 24.6378 9.7277L24.3128 9.9609C24.3238 9.97629 24.33 9.99471 24.3304 10.0138L24.7303 10.0045ZM24.6377 9.72765C24.1452 9.04172 23.5748 8.41897 22.941 7.87088L22.6793 8.17344C23.2896 8.70115 23.8387 9.3007 24.3128 9.96095L24.6377 9.72765ZM22.941 7.87089C22.8667 7.80659 22.7748 7.76596 22.6771 7.75431L22.6298 8.15149C22.648 8.15366 22.6653 8.16127 22.6793 8.17343L22.941 7.87089ZM22.6771 7.75431C22.5795 7.74266 22.4806 7.76053 22.3933 7.80562L22.5767 8.16108C22.593 8.15265 22.6115 8.14931 22.6298 8.15149L22.6771 7.75431ZM22.3932 7.80564L18.0598 10.0428L18.2432 10.3982L22.5767 8.16107L22.3932 7.80564ZM18.0598 10.0428C17.7892 10.1825 17.4405 10.2144 17.102 10.1425C16.7636 10.0706 16.4574 9.89971 16.266 9.66175L15.9543 9.91245C16.2146 10.2361 16.6095 10.4469 17.019 10.5338C17.4284 10.6207 17.8746 10.5885 18.2432 10.3982L18.0598 10.0428ZM16.266 9.66176L13.272 5.93895L12.9603 6.18963L15.9543 9.91244L16.266 9.66176ZM13.272 5.93894C13.2097 5.86146 13.1254 5.80458 13.0302 5.77587L12.9147 6.15884C12.9325 6.16422 12.9485 6.17492 12.9603 6.18964L13.272 5.93894ZM13.0302 5.77587C12.9349 5.74715 12.8332 5.74798 12.7384 5.77825L12.8602 6.15928C12.8779 6.15363 12.8969 6.15347 12.9147 6.15884L13.0302 5.77587ZM12.7384 5.77826C11.9043 6.04489 11.1181 6.41059 10.3925 6.86013L10.6031 7.20016C11.3013 6.7676 12.0577 6.41578 12.8602 6.15927L12.7384 5.77826ZM10.3925 6.86014C10.3095 6.91156 10.2437 6.98647 10.2033 7.0753L10.5675 7.2408C10.5751 7.22391 10.5876 7.20979 10.6032 7.20015L10.3925 6.86014ZM10.2033 7.0753C10.1629 7.16412 10.1498 7.26292 10.1654 7.3592L10.5603 7.29499C10.5573 7.27656 10.5598 7.25769 10.5675 7.2408L10.2033 7.0753ZM10.1654 7.35919L10.9283 12.0508L11.3231 11.9866L10.5603 7.29499L10.1654 7.35919ZM10.9283 12.0508C10.9774 12.3527 10.9 12.6955 10.7273 12.9963C10.5547 13.2971 10.2982 13.5361 10.0138 13.6449L10.1566 14.0185C10.5441 13.8703 10.8657 13.5588 11.0743 13.1954C11.2829 12.8319 11.3898 12.3967 11.3231 11.9866L10.9283 12.0508ZM10.0137 13.6449L5.6507 15.3139L5.79361 15.6875L10.1567 14.0185L10.0137 13.6449ZM5.6507 15.3139C5.55866 15.3491 5.47934 15.4111 5.42292 15.4918L5.7508 15.721C5.76148 15.7057 5.77641 15.694 5.79362 15.6875L5.6507 15.3139ZM5.42292 15.4918C5.3665 15.5726 5.33554 15.6683 5.33394 15.7668L5.73388 15.7733C5.73419 15.7545 5.74011 15.7362 5.7508 15.721L5.42292 15.4918ZM5.33393 15.7668C5.32687 16.2016 5.34625 16.6412 5.39331 17.084L5.79107 17.0418C5.74573 16.6151 5.72708 16.1918 5.73388 15.7733L5.33393 15.7668ZM6.37326 16.9799C6.33753 16.6437 6.3233 16.3093 6.32216 15.9755L5.92216 15.9769C5.92334 16.321 5.93801 16.6694 5.9755 17.0222L6.37326 16.9799ZM6.19361 16.163L10.3656 14.5673L10.2227 14.1937L6.05071 15.7894L6.19361 16.163ZM10.3656 14.5673C11.4163 14.1654 12.0818 13.0049 11.901 11.8924L11.5061 11.9566C11.6567 12.8827 11.0955 13.8598 10.2227 14.1937L10.3656 14.5673ZM11.901 11.8924L11.1706 7.40084L10.7758 7.46504L11.5061 11.9566L11.901 11.8924ZM11.0752 7.605C11.6332 7.27433 12.2284 6.99817 12.8552 6.78366L12.7257 6.40521C12.0727 6.62867 11.4526 6.91638 10.8713 7.26088L11.0752 7.605ZM12.6346 6.71978L15.4987 10.281L15.8104 10.0303L12.9463 6.46909L12.6346 6.71978ZM15.4987 10.281C16.2047 11.1588 17.5115 11.4366 18.5114 10.9204L18.3279 10.565C17.4974 10.9937 16.3976 10.7603 15.8104 10.0303L15.4987 10.281ZM18.5114 10.9204L22.6638 8.77678L22.4803 8.42135L18.3279 10.565L18.5114 10.9204ZM22.4383 8.74775C22.9086 9.17089 23.3379 9.63979 23.7194 10.1491L24.0396 9.90931C23.6424 9.37901 23.1954 8.89085 22.7058 8.45038L22.4383 8.74775ZM23.7118 9.9202L21.1525 13.8572L21.4879 14.0752L24.0472 10.1382L23.7118 9.9202ZM21.1525 13.8572C20.5388 14.8013 20.6803 16.1326 21.4788 16.9266L21.7608 16.643C21.0966 15.9825 20.9774 14.8605 21.4879 14.0752L21.1525 13.8572ZM21.4788 16.9266L24.8083 20.2378L25.0903 19.9541L21.7608 16.643L21.4788 16.9266ZM24.7676 20.0124C24.5017 20.5905 24.1805 21.1391 23.8096 21.6517L24.1337 21.8862C24.5198 21.3527 24.8542 20.7814 25.131 20.1795L24.7676 20.0124ZM24.024 21.5759L19.5138 20.3529L19.4091 20.739L23.9193 21.962L24.024 21.5759ZM19.5138 20.3529C18.4278 20.0584 17.2086 20.6045 16.7028 21.6111L17.0602 21.7907C17.4809 20.9536 18.5071 20.4944 19.4091 20.739L19.5138 20.3529ZM16.7028 21.6111L14.6512 25.6949L15.0086 25.8744L17.0602 21.7907L16.7028 21.6111ZM14.8535 25.586C14.1956 25.5081 13.5556 25.3632 12.9405 25.1572L12.8135 25.5365C13.4543 25.7511 14.121 25.902 14.8064 25.9832L14.8535 25.586ZM13.0768 25.3367L12.8468 20.792L12.4473 20.8122L12.6773 25.3569L13.0768 25.3367ZM12.8468 20.792C12.7898 19.6663 11.8952 18.6716 10.7835 18.4995L10.7223 18.8948C11.6458 19.0378 12.3998 19.8751 12.4473 20.8122L12.8468 20.792ZM10.7835 18.4995L6.36932 17.8163L6.30814 18.2116L10.7223 18.8948L10.7835 18.4995ZM6.5344 17.9726C6.46537 17.6461 6.409 17.3161 6.37326 16.9799L5.9755 17.0222C6.013 17.3749 6.07188 17.7187 6.14305 18.0553L6.5344 17.9726ZM14.7802 4.47587C15.5543 4.39302 16.3352 4.38955 17.11 4.46453L17.1485 4.06639C16.3469 3.98882 15.5389 3.99239 14.7377 4.07814L14.7802 4.47587ZM17.1101 4.46454C17.8624 4.53721 18.6059 4.68511 19.3289 4.90544L19.4455 4.52281C18.6972 4.29474 17.9274 4.14163 17.1485 4.06639L17.1101 4.46454ZM19.3288 4.90541C20.7494 5.33902 22.0737 6.0435 23.2283 6.98026L23.4803 6.66963C22.2857 5.70041 20.9154 4.97149 19.4456 4.52284L19.3288 4.90541ZM23.2285 6.98039C24.3841 7.91588 25.3491 9.06673 26.0703 10.369L26.4203 10.1752C25.6742 8.82803 24.6758 7.6374 23.4802 6.66949L23.2285 6.98039ZM26.0703 10.3689C26.437 11.0317 26.7375 11.7299 26.9665 12.4526L27.3478 12.3318C27.1108 11.5838 26.7998 10.8612 26.4203 10.1752L26.0703 10.3689ZM26.9665 12.4526C27.2024 13.1969 27.3632 13.9636 27.4452 14.7403L27.843 14.6983C27.7582 13.8947 27.5918 13.1015 27.3478 12.3318L26.9665 12.4526ZM27.4452 14.7406C27.5283 15.5172 27.5323 16.3006 27.458 17.0778L27.8562 17.1158C27.933 16.312 27.9289 15.5016 27.8429 14.698L27.4452 14.7406ZM27.458 17.0778C27.386 17.8325 27.239 18.5783 27.0198 19.3034L27.4027 19.4191C27.6296 18.6688 27.7817 17.8969 27.8562 17.1158L27.458 17.0778ZM27.0198 19.3033C26.5884 20.728 25.8869 22.056 24.9537 23.2135L25.2651 23.4645C26.2306 22.2669 26.9564 20.8931 27.4027 19.4192L27.0198 19.3033ZM24.9535 23.2136C24.0216 24.3721 22.8749 25.3392 21.5772 26.0617L21.7718 26.4112C23.1145 25.6636 24.301 24.663 25.2652 23.4643L24.9535 23.2136ZM21.5773 26.0617C20.9168 26.429 20.2209 26.7299 19.5007 26.9591L19.622 27.3402C20.3676 27.103 21.088 26.7915 21.7717 26.4112L21.5773 26.0617ZM19.5006 26.9591C18.7589 27.1952 17.9947 27.356 17.2205 27.4377L17.2625 27.8355C18.0638 27.7509 18.8546 27.5846 19.622 27.3402L19.5006 26.9591ZM17.2202 27.4377C16.4461 27.5205 15.6658 27.524 14.8904 27.449L14.8519 27.8472C15.6541 27.9247 16.4616 27.9212 17.2628 27.8354L17.2202 27.4377ZM14.8904 27.449C14.1381 27.3764 13.3945 27.2285 12.6716 27.0081L12.555 27.3908C13.3033 27.6188 14.0731 27.7719 14.8519 27.8472L14.8904 27.449ZM12.6716 27.0082C11.2511 26.5746 9.92674 25.8701 8.77214 24.9333L8.52012 25.2439C9.71473 26.2132 11.085 26.9421 12.5549 27.3907L12.6716 27.0082ZM8.77197 24.9332C7.61635 23.9977 6.65135 22.8468 5.93011 21.5446L5.5802 21.7384C6.3263 23.0855 7.32463 24.2762 8.52029 25.2441L8.77197 24.9332ZM5.93015 21.5447C5.56343 20.8819 5.26297 20.1836 5.03399 19.461L4.65267 19.5818C4.88967 20.3297 5.20064 21.0524 5.58015 21.7383L5.93015 21.5447ZM5.03398 19.4609C4.79802 18.7167 4.63725 17.95 4.55528 17.1732L4.15749 17.2152C4.2423 18.0189 4.40863 18.812 4.65268 19.5818L5.03398 19.4609ZM4.55525 17.173C4.47214 16.3964 4.46817 15.613 4.54244 14.8358L4.14425 14.7977C4.06744 15.6016 4.07152 16.412 4.15752 17.2155L4.55525 17.173ZM4.54244 14.8357C4.61442 14.0811 4.76141 13.3353 4.98063 12.6102L4.59775 12.4944C4.37088 13.2448 4.21875 14.0167 4.14425 14.7978L4.54244 14.8357ZM4.98061 12.6103C5.41204 11.1856 6.1136 9.85759 7.04679 8.70011L6.73539 8.44905C5.76987 9.64664 5.04408 11.0205 4.59778 12.4943L4.98061 12.6103ZM7.04693 8.69994C7.97885 7.54144 9.12556 6.57434 10.4232 5.85186L10.2287 5.50237C8.88594 6.24993 7.69948 7.25057 6.73526 8.44922L7.04693 8.69994ZM10.4232 5.8519C11.0837 5.48454 11.7795 5.18367 12.4998 4.9545L12.3785 4.57333C11.6328 4.81059 10.9124 5.12207 10.2287 5.50233L10.4232 5.8519ZM12.4998 4.95448C13.2416 4.71833 14.0057 4.5576 14.7799 4.4759L14.738 4.07811C13.9366 4.16267 13.1459 4.32901 12.3785 4.57334L12.4998 4.95448ZM14.8423 5.05986C15.5774 4.98115 16.3183 4.9778 17.0544 5.04864L17.0928 4.65048C16.3299 4.57707 15.5619 4.58053 14.7997 4.66213L14.8423 5.05986ZM17.0542 5.04862C17.7681 5.11831 18.4732 5.25851 19.159 5.46743L19.2756 5.08479C18.5644 4.86813 17.8332 4.72276 17.093 4.65051L17.0542 5.04862ZM19.159 5.46742C20.5076 5.87852 21.7646 6.54761 22.8606 7.43688L23.1126 7.12626C21.9767 6.20458 20.6737 5.51099 19.2756 5.0848L19.159 5.46742ZM22.8608 7.43702C23.9578 8.32502 24.8741 9.41725 25.5583 10.6536L25.9083 10.46C25.1992 9.17851 24.2494 8.04648 23.1124 7.12611L22.8608 7.43702ZM25.5583 10.6536C25.9061 11.2824 26.191 11.9446 26.409 12.6302L26.7902 12.509C26.5642 11.7984 26.2689 11.1119 25.9083 10.46L25.5583 10.6536ZM26.4089 12.6299C26.6327 13.3371 26.7852 14.0646 26.863 14.8022L27.2608 14.7602C27.1801 13.9957 27.0221 13.2419 26.7903 12.5092L26.4089 12.6299ZM26.863 14.8025C26.942 15.54 26.9458 16.2832 26.8756 17.0217L27.2738 17.0595C27.3465 16.2945 27.3426 15.5243 27.2607 14.7599L26.863 14.8025ZM26.8757 17.0214C26.8066 17.7375 26.6673 18.4448 26.4594 19.1326L26.8423 19.2483C27.0578 18.5352 27.2023 17.802 27.2738 17.0598L26.8757 17.0214ZM26.4594 19.1326C26.0504 20.4852 25.3841 21.7456 24.4982 22.8443L24.8096 23.0954C25.7277 21.9566 26.4183 20.6502 26.8423 19.2484L26.4594 19.1326ZM24.498 22.8445C23.6134 23.9442 22.5251 24.8626 21.2931 25.548L21.4875 25.8975C22.7648 25.187 23.8928 24.2351 24.8097 23.0952L24.498 22.8445ZM21.2931 25.5479C20.6665 25.8963 20.0066 26.1816 19.3233 26.3998L19.4449 26.7808C20.1534 26.5546 20.8377 26.2588 21.4875 25.8975L21.2931 25.5479ZM19.3235 26.3997C18.6187 26.6237 17.8937 26.7761 17.1585 26.8537L17.2004 27.2515C17.9627 27.1711 18.7143 27.013 19.4447 26.7809L19.3235 26.3997ZM17.1581 26.8537C16.4231 26.9324 15.6822 26.9358 14.946 26.8649L14.9077 27.2631C15.6705 27.3365 16.4385 27.333 17.2007 27.2514L17.1581 26.8537ZM14.9463 26.865C14.2324 26.7953 13.5273 26.6551 12.8414 26.4461L12.7249 26.8288C13.4361 27.0454 14.1673 27.1908 14.9074 27.2631L14.9463 26.865ZM12.8415 26.4462C11.4929 26.035 10.2359 25.366 9.13988 24.4767L8.88785 24.7873C10.0238 25.709 11.3268 26.4026 12.7248 26.8288L12.8415 26.4462ZM9.1397 24.4765C8.04268 23.5886 7.12633 22.4963 6.44214 21.2599L6.09215 21.4536C6.80127 22.7351 7.75102 23.8671 8.88803 24.7875L9.1397 24.4765ZM6.44216 21.26C6.09436 20.6312 5.80947 19.969 5.59148 19.2834L5.21029 19.4046C5.43623 20.1152 5.73154 20.8017 6.09214 21.4536L6.44216 21.26ZM5.59156 19.2837C5.36776 18.5764 5.21528 17.849 5.13747 17.1114L4.73968 17.1533C4.82033 17.9179 4.97836 18.6717 5.2102 19.4043L5.59156 19.2837ZM5.13744 17.1111C5.05849 16.3736 5.05466 15.6304 5.12483 14.8919L4.72662 14.8541C4.65394 15.619 4.65787 16.3892 4.73971 17.1537L5.13744 17.1111ZM5.1248 14.8922C5.19383 14.1761 5.33317 13.4688 5.54105 12.7809L5.15815 12.6652C4.94263 13.3784 4.79819 14.1116 4.72665 14.8538L5.1248 14.8922ZM5.54103 12.781C5.95008 11.4284 6.6164 10.168 7.50228 9.06925L7.19089 8.81818C6.27271 9.95697 5.58211 11.2633 5.15816 12.6652L5.54103 12.781ZM7.50242 9.06907C8.38703 7.96932 9.47533 7.05098 10.7074 6.36561L10.513 6.01606C9.23567 6.72657 8.10761 7.67851 7.19074 8.81836L7.50242 9.06907ZM10.7074 6.36563C11.334 6.01723 11.9939 5.73196 12.6772 5.51378L12.5555 5.13274C11.8471 5.35894 11.1628 5.65474 10.513 6.01604L10.7074 6.36563ZM12.6769 5.51387C13.3818 5.28988 14.1068 5.13744 14.842 5.05989L14.8 4.6621C14.0377 4.74251 13.2862 4.90055 12.5558 5.13265L12.6769 5.51387ZM14.8995 5.73059C16.2618 5.58466 17.6407 5.71498 18.9523 6.11313L19.0685 5.73038C17.7056 5.31665 16.2726 5.18121 14.8569 5.33287L14.8995 5.73059ZM18.952 6.11304C20.2174 6.49936 21.397 7.12652 22.4259 7.96144L22.678 7.65084C21.609 6.78341 20.3835 6.13183 19.0688 5.73047L18.952 6.11304ZM22.4261 7.9616C23.4555 8.79475 24.3152 9.81977 24.9578 10.9803L25.3078 10.7866C24.6403 9.58106 23.7472 8.51625 22.6778 7.65068L22.4261 7.9616ZM24.9577 10.9801C25.6215 12.1829 26.0383 13.5076 26.1824 14.8745L26.5802 14.8326C26.4305 13.4125 25.9975 12.0363 25.3079 10.7868L24.9577 10.9801ZM26.1825 14.8748C26.3289 16.2415 26.1998 17.6242 25.8036 18.9397L26.1866 19.055C26.5982 17.6885 26.7323 16.2521 26.5802 14.8322L26.1825 14.8748ZM25.8037 18.9394C25.4194 20.2091 24.7942 21.3919 23.963 22.4228L24.2744 22.6739C25.138 21.6029 25.7873 20.3742 26.1865 19.0553L25.8037 18.9394ZM23.9628 22.423C23.1324 23.4555 22.111 24.3166 20.955 24.9603L21.1496 25.3097C22.3506 24.641 23.4117 23.7464 24.2745 22.6737L23.9628 22.423ZM20.9553 24.9601C19.7567 25.625 18.4365 26.0422 17.074 26.1859L17.1159 26.5836C18.5319 26.4344 19.9038 26.0008 21.1493 25.3099L20.9553 24.9601ZM17.0737 26.1859C15.7109 26.3319 14.333 26.2014 13.0214 25.8033L12.9052 26.186C14.2681 26.5998 15.6999 26.7353 17.1163 26.5836L17.0737 26.1859ZM13.0217 25.8034C11.7557 25.4171 10.5762 24.79 9.54726 23.955L9.29522 24.2656C10.3642 25.1331 11.5897 25.7847 12.905 26.186L13.0217 25.8034ZM9.54706 23.9549C8.51771 23.1217 7.65797 22.0967 7.01598 20.9362L6.66597 21.1298C7.33288 22.3354 8.22602 23.4002 9.29541 24.2658L9.54706 23.9549ZM7.01604 20.9363C6.35171 19.7336 5.93521 18.4089 5.79109 17.0419L5.39329 17.0839C5.54301 18.5039 5.97569 19.8801 6.66591 21.1297L7.01604 20.9363ZM5.79105 17.0416C5.64465 15.6749 5.77343 14.2923 6.17014 12.9768L5.78718 12.8613C5.37501 14.228 5.24124 15.6644 5.39333 17.0842L5.79105 17.0416ZM6.17011 12.9769C6.55383 11.7074 7.17894 10.5246 8.01019 9.49366L7.69881 9.24258C6.83523 10.3136 6.18584 11.5423 5.78722 12.8612L6.17011 12.9769ZM8.01034 9.49347C8.84082 8.46094 9.86219 7.59988 11.0187 6.95617L10.8242 6.60666C9.62263 7.27543 8.56147 8.17004 7.69865 9.24277L8.01034 9.49347ZM11.0185 6.95631C12.2171 6.29137 13.5361 5.87433 14.8992 5.73063L14.8572 5.33283C13.4407 5.48218 12.0699 5.91559 10.8244 6.60653L11.0185 6.95631ZM14.9616 6.31458C16.2458 6.17694 17.5457 6.29972 18.7824 6.67512L18.8986 6.29236C17.6105 5.90139 16.2567 5.77349 14.919 5.91686L14.9616 6.31458ZM18.7821 6.67503C19.9757 7.03943 21.0879 7.63123 22.0582 8.4181L22.3102 8.10742C21.2999 7.28815 20.1418 6.67192 18.8989 6.29246L18.7821 6.67503ZM22.0584 8.41823C23.0291 9.20384 23.8397 10.1709 24.4458 11.2651L24.7957 11.0713C24.1648 9.93222 23.3208 8.92538 22.31 8.1073L22.0584 8.41823ZM24.4457 11.2648C25.0716 12.399 25.4644 13.6477 25.6003 14.9364L25.998 14.8944C25.8566 13.5526 25.4476 12.2525 24.7959 11.0715L24.4457 11.2648ZM25.6003 14.9367C25.7384 16.2252 25.6167 17.5285 25.2432 18.7689L25.6262 18.8843C26.0151 17.5927 26.1418 16.2357 25.998 14.8941L25.6003 14.9367ZM25.2433 18.7686C24.8807 19.9658 24.2914 21.0816 23.5075 22.0537L23.8189 22.3048C24.6352 21.2925 25.2487 20.1308 25.6261 18.8846L25.2433 18.7686ZM23.5074 22.0538C22.7241 23.0271 21.7611 23.8394 20.6708 24.4465L20.8654 24.796C22.0008 24.1638 23.0035 23.3179 23.819 22.3046L23.5074 22.0538ZM20.6711 24.4464C19.5408 25.0733 18.2964 25.4665 17.0119 25.6019L17.0539 25.9997C18.3918 25.8587 19.688 25.4491 20.8651 24.7962L20.6711 24.4464ZM17.0116 25.6019C15.7268 25.7396 14.4275 25.6168 13.1907 25.2414L13.0746 25.6241C14.3626 26.0151 15.7159 26.1431 17.0542 25.9996L17.0116 25.6019ZM13.1911 25.2415C11.9975 24.877 10.8852 24.2853 9.91494 23.4984L9.66299 23.8091C10.6733 24.6283 11.8314 25.2446 13.0743 25.624L13.1911 25.2415ZM9.91479 23.4983C8.9441 22.7126 8.13348 21.7456 7.52796 20.6514L7.17798 20.8451C7.80837 21.9842 8.65235 22.9911 9.66315 23.8092L9.91479 23.4983ZM7.52804 20.6515C6.90162 19.5175 6.50909 18.2688 6.37328 16.9801L5.97549 17.022C6.11689 18.3638 6.52559 19.664 7.1779 20.8449L7.52804 20.6515ZM6.37325 16.9797C6.23516 15.6912 6.35648 14.388 6.73055 13.1476L6.34758 13.0321C5.95805 14.3237 5.83175 15.6808 5.97552 17.0223L6.37325 16.9797ZM6.7305 13.1477C7.09251 11.9507 7.68179 10.8349 8.46568 9.8628L8.1543 9.61171C7.33803 10.624 6.72451 11.7857 6.34763 13.0319L6.7305 13.1477ZM8.4658 9.86265C9.24905 8.88941 10.212 8.07707 11.3024 7.46994L11.1078 7.12047C9.9724 7.75269 8.96968 8.59855 8.15418 9.61186L8.4658 9.86265ZM11.3021 7.4701C12.4323 6.84314 13.6768 6.44997 14.9612 6.31462L14.9193 5.91682C13.5813 6.05781 12.2852 6.46735 11.1081 7.12031L11.3021 7.4701Z" fill="white" mask="url(#path-2-outside-1)"/>
<rect opacity="0.2" x="13" y="13" width="6" height="6" rx="3" fill="white"/>
</svg>
