<svg width="32" height="32" viewBox="0 0 32 32" fill="none" xmlns="http://www.w3.org/2000/svg">
<path d="M9.1415 13.0792C9.82192 12.4941 10.5712 12.0015 11.3756 11.606L11.3756 11.606L11.3768 11.6054L11.4644 11.5616C11.5303 11.5296 11.594 11.5011 11.6607 11.4712C11.6948 11.456 11.7296 11.4404 11.766 11.4238L11.8127 11.4046L11.8128 11.4048L11.8217 11.4006C11.8609 11.3822 11.8999 11.3658 11.9473 11.3459C11.9547 11.3428 11.9623 11.3396 11.9701 11.3363C11.9933 11.3267 12.0161 11.3178 12.0404 11.3082L12.041 11.308C12.0639 11.2989 12.0883 11.2893 12.1136 11.2789L12.1663 11.2595L12.1663 11.2596L12.1696 11.2583C12.2757 11.217 12.3783 11.1771 12.4831 11.1402L12.5723 11.1115L12.5723 11.1115L12.5757 11.1103C13.4225 10.82 14.2995 10.6417 15.1954 10.5734V11.8019C15.1954 12.1576 15.4829 12.4452 15.8387 12.4452H16.1785C16.5343 12.4452 16.8218 12.1576 16.8218 11.8019V10.5734C17.7177 10.6417 18.5944 10.82 19.4383 11.1103L19.4383 11.1103L19.4401 11.1109L19.536 11.1428C19.5363 11.1429 19.5366 11.143 19.5368 11.1431C19.5972 11.1638 19.652 11.1849 19.7121 11.2081C19.7537 11.2241 19.7977 11.241 19.848 11.2595L19.8488 11.2598L19.9119 11.2828C19.9122 11.2829 19.9125 11.283 19.9128 11.2831C19.9563 11.2995 20.0032 11.3187 20.0538 11.3396C20.0777 11.3494 20.1012 11.3594 20.1257 11.3698C20.1491 11.3797 20.1736 11.3901 20.199 11.4006L20.2496 11.4231C20.2759 11.4347 20.3013 11.4459 20.3261 11.4568C20.4072 11.4923 20.4815 11.5249 20.5556 11.563L20.5577 11.564L20.6404 11.6054L20.6416 11.606C21.4463 12.0016 22.1957 12.4944 22.8787 13.0821L22.01 13.9509C21.8902 14.0707 21.8214 14.2337 21.8214 14.4056C21.8214 14.5774 21.8902 14.7404 22.01 14.8603L22.2494 15.0996L22.2506 15.1008C22.5003 15.3463 22.9073 15.3547 23.1593 15.0991C23.1595 15.0989 23.1597 15.0987 23.16 15.0984L24.0272 14.2312C25.4916 15.9379 26.3666 18.0466 26.5391 20.2848H25.3048C24.9491 20.2848 24.6615 20.5724 24.6615 20.9281V21.268C24.6615 21.6238 24.9491 21.9113 25.3048 21.9113H27.3854C27.607 21.9113 27.8018 21.7985 27.9176 21.6288C28.0874 21.5129 28.2001 21.3182 28.2001 21.0966L28.2001 21.0962C28.1941 17.8733 26.9468 14.8383 24.6805 12.541C24.6714 12.5294 24.6468 12.4988 24.6203 12.4748C23.669 11.5243 22.5738 10.7446 21.3622 10.1537C21.3619 10.1535 21.3616 10.1534 21.3613 10.1533L21.2508 10.098L21.2508 10.0979L21.247 10.0961C21.1325 10.0419 21.0185 9.99091 20.886 9.932C20.8486 9.91488 20.8108 9.8987 20.7756 9.88362L20.7747 9.8832C20.738 9.86752 20.7041 9.85297 20.6713 9.83793L20.6714 9.83771L20.6623 9.83405L20.6614 9.83372C20.6037 9.81062 20.5443 9.78686 20.4818 9.76302L20.4492 9.74942L20.4492 9.74934L20.4434 9.74714C20.4173 9.73717 20.391 9.7271 20.3646 9.717C20.2679 9.67995 20.1697 9.64235 20.0701 9.60679L20.0701 9.60674L20.0661 9.6054L19.9796 9.57659C19.9792 9.57646 19.9789 9.57634 19.9785 9.57621C17.4184 8.69007 14.6036 8.69022 12.0437 9.57356L12.0424 9.57403L11.9419 9.60949L11.9419 9.60948L11.9398 9.61027L11.9383 9.61079C11.8181 9.65477 11.6946 9.69995 11.5736 9.74834L11.5736 9.74832L11.571 9.74942L11.5397 9.76248C11.4864 9.78198 11.434 9.80363 11.3853 9.82379C11.3714 9.82952 11.3578 9.83514 11.3446 9.84055C11.3011 9.85837 11.2547 9.87867 11.2121 9.89731C11.1902 9.9069 11.1693 9.91605 11.1504 9.92419L11.1159 9.93857L11.1158 9.93854L11.1129 9.93984L11.1111 9.94061C10.997 9.99036 10.8785 10.042 10.7594 10.1L10.7594 10.1L10.7576 10.1009L10.658 10.1507C9.44149 10.7426 8.34183 11.5268 7.38939 12.4823L7.53103 12.6235M9.1415 13.0792L11.1928 10.1232C11.0775 10.1734 10.9623 10.2237 10.847 10.2798L10.7465 10.3301C9.54957 10.9123 8.4679 11.6836 7.53103 12.6235M9.1415 13.0792L10.0102 13.9479C10.13 14.0677 10.1988 14.2307 10.1988 14.4026C10.1988 14.5745 10.13 14.7375 10.0102 14.8573L9.77199 15.0955C9.77178 15.0957 9.77157 15.0959 9.77136 15.0961C9.52086 15.3502 9.11299 15.3483 8.8614 15.0967L7.99292 14.2282M9.1415 13.0792L7.99292 14.2282M7.53103 12.6235C7.5133 12.6412 7.49853 12.6589 7.4867 12.6766M7.53103 12.6235L7.38961 12.482C7.36924 12.5024 7.35007 12.5243 7.33283 12.5478M7.4867 12.6766L7.34473 12.5358C7.34076 12.5398 7.33679 12.5438 7.33283 12.5478M7.4867 12.6766L7.32029 12.5657C7.32434 12.5596 7.32853 12.5537 7.33283 12.5478M7.4867 12.6766C5.24947 14.9316 4.02002 17.9225 4.02002 21.0936C4.02002 21.2591 4.11164 21.4039 4.24759 21.4808L7.33283 12.5478M7.33283 12.5478C5.06592 14.8389 3.82002 17.8754 3.82002 21.0936C3.82002 21.3152 3.9328 21.51 4.10252 21.6259C4.21839 21.7956 4.41313 21.9084 4.63474 21.9084H6.71534C7.0711 21.9084 7.35865 21.6208 7.35865 21.265V20.9252C7.35865 20.5694 7.0711 20.2819 6.71534 20.2819H5.48083M7.33283 12.5478L5.48083 20.2819M5.48083 20.2819C5.65094 18.0464 6.52837 15.9352 7.99292 14.2282M5.48083 20.2819L7.99292 14.2282M21.7077 15.2157L21.7064 15.2145C21.4567 14.9691 21.0498 14.9607 20.7978 15.2162C20.7976 15.2164 20.7973 15.2167 20.7971 15.2169L16.7592 19.2548C16.523 19.1561 16.2678 19.1026 16.0071 19.1026C14.9096 19.1026 14.0162 19.996 14.0162 21.0936C14.0162 22.1911 14.9096 23.0846 16.0071 23.0846C17.1047 23.0846 17.9981 22.1911 17.9981 21.0936C17.9981 20.8647 17.9596 20.6418 17.8824 20.4292L21.947 16.3645C22.0669 16.2447 22.1357 16.0817 22.1357 15.9098C22.1357 15.7379 22.0669 15.5749 21.947 15.4551L21.7077 15.2157ZM16.0071 21.461C15.8036 21.461 15.6397 21.2957 15.6397 21.0965C15.6397 20.8974 15.8036 20.7321 16.0071 20.7321C16.207 20.7321 16.3716 20.8967 16.3716 21.0965C16.3716 21.2971 16.2093 21.461 16.0071 21.461Z" fill="white" stroke="white" stroke-width="0.4"/>
</svg>
