<svg width="32" height="32" viewBox="0 0 32 32" fill="none" xmlns="http://www.w3.org/2000/svg">
<mask id="path-1-outside-1" maskUnits="userSpaceOnUse" x="3" y="8" width="13" height="16" fill="black">
<rect fill="white" x="3" y="8" width="13" height="16"/>
<path d="M14.2786 19.4083C14.1067 19.3878 13.9164 19.4094 13.7202 19.472L12.6025 19.8285H9.59852C9.57277 19.8281 9.54721 19.8328 9.52331 19.8421C9.49942 19.8515 9.47767 19.8653 9.45934 19.8829C9.441 19.9005 9.42644 19.9215 9.4165 19.9446C9.40656 19.9678 9.40144 19.9926 9.40144 20.0177C9.40144 20.0427 9.40656 20.0676 9.4165 20.0907C9.42644 20.1138 9.441 20.1348 9.45934 20.1524C9.47767 20.17 9.49942 20.1839 9.52331 20.1932C9.54721 20.2026 9.57277 20.2072 9.59852 20.2069H12.6336C12.6541 20.2068 12.6746 20.2036 12.6941 20.1974L13.8412 19.8316C14.1467 19.7341 14.35 19.7782 14.4671 19.8798C14.5843 19.9815 14.6524 20.173 14.588 20.4797L14.2563 22.0591C14.1942 22.3547 13.8583 22.6216 13.5483 22.6216H9.59852C9.57277 22.6212 9.54721 22.6259 9.52331 22.6352C9.49942 22.6446 9.47767 22.6585 9.45934 22.6761C9.441 22.6937 9.42644 22.7146 9.4165 22.7378C9.40656 22.7609 9.40144 22.7857 9.40144 22.8108C9.40144 22.8359 9.40656 22.8607 9.4165 22.8838C9.42644 22.9069 9.441 22.9279 9.45934 22.9455C9.47767 22.9631 9.49942 22.977 9.52331 22.9864C9.54721 22.9957 9.57277 23.0003 9.59852 23H13.5483C14.0644 23 14.5336 22.6271 14.637 22.1349L14.9688 20.5555C15.0515 20.1617 14.9698 19.8091 14.7257 19.5973C14.6037 19.4914 14.4504 19.4289 14.2786 19.4083Z"/>
<path d="M9.59852 11.7324C9.57277 11.7321 9.54721 11.7367 9.52331 11.7461C9.49942 11.7554 9.47767 11.7693 9.45934 11.7869C9.441 11.8045 9.42644 11.8255 9.4165 11.8486C9.40656 11.8717 9.40144 11.8966 9.40144 11.9216C9.40144 11.9467 9.40656 11.9715 9.4165 11.9947C9.42644 12.0178 9.441 12.0388 9.45934 12.0564C9.47767 12.074 9.49942 12.0879 9.52331 12.0972C9.54721 12.1065 9.57277 12.1112 9.59852 12.1108H12.4673C12.7063 12.1108 12.8966 12.2961 12.8966 12.5288V14.9576C12.8966 14.9715 12.8982 14.9854 12.9013 14.999L13.2054 16.3198C13.327 16.8481 13.3484 17.7756 13.2513 18.3087L12.9977 19.7C12.9887 19.7494 13.0002 19.8002 13.0298 19.8414C13.0593 19.8825 13.1044 19.9105 13.1551 19.9193C13.2059 19.9281 13.2581 19.9168 13.3004 19.8881C13.3426 19.8593 13.3714 19.8154 13.3804 19.766L13.6339 18.3748C13.7452 17.764 13.724 16.8424 13.5846 16.2371L13.2852 14.9367V12.5288C13.2852 12.0913 12.9166 11.7324 12.4673 11.7324H9.59852Z"/>
<path d="M4.72143 19.4083C4.5496 19.4289 4.39631 19.4914 4.27428 19.5973C4.03024 19.8091 3.94852 20.1617 4.03124 20.5555L4.36302 22.1349C4.46643 22.6271 4.93562 23 5.4517 23H9.40148C9.42723 23.0003 9.45279 22.9957 9.47668 22.9864C9.50058 22.977 9.52233 22.9631 9.54066 22.9455C9.559 22.9279 9.57356 22.9069 9.5835 22.8838C9.59344 22.8607 9.59856 22.8359 9.59856 22.8108C9.59856 22.7857 9.59344 22.7609 9.5835 22.7378C9.57356 22.7146 9.559 22.6937 9.54066 22.6761C9.52233 22.6585 9.50058 22.6446 9.47668 22.6352C9.45279 22.6259 9.42723 22.6212 9.40148 22.6216H5.4517C5.14166 22.6216 4.80584 22.3547 4.74375 22.0591L4.41197 20.4797C4.34756 20.173 4.41575 19.9815 4.53289 19.8798C4.65003 19.7782 4.85328 19.7341 5.15879 19.8316L6.30591 20.1974C6.32544 20.2036 6.34586 20.2068 6.36641 20.2069H9.40148C9.42723 20.2072 9.45279 20.2026 9.47668 20.1932C9.50058 20.1839 9.52233 20.17 9.54066 20.1524C9.559 20.1348 9.57356 20.1138 9.5835 20.0907C9.59344 20.0676 9.59856 20.0427 9.59856 20.0177C9.59856 19.9926 9.59344 19.9678 9.5835 19.9446C9.57356 19.9215 9.559 19.9005 9.54066 19.8829C9.52233 19.8653 9.50058 19.8515 9.47668 19.8421C9.45279 19.8328 9.42723 19.8281 9.40148 19.8285H6.39745L5.27978 19.472C5.08362 19.4094 4.89326 19.3878 4.72143 19.4083Z"/>
<path d="M6.53271 11.7324C6.08336 11.7324 5.71478 12.0913 5.71478 12.5288V14.9367L5.41541 16.2371C5.27604 16.8424 5.25476 17.764 5.36608 18.3748L5.61959 19.766C5.62859 19.8154 5.65738 19.8593 5.69963 19.8881C5.74188 19.9168 5.79413 19.9281 5.84488 19.9193C5.89563 19.9105 5.94072 19.8825 5.97024 19.8414C5.99977 19.8002 6.0113 19.7494 6.0023 19.7L5.74871 18.3087C5.65157 17.7756 5.673 16.8481 5.79463 16.3198L6.0987 14.999C6.10182 14.9854 6.1034 14.9715 6.1034 14.9576V12.5288C6.1034 12.2961 6.29373 12.1108 6.53271 12.1108H9.40148C9.42723 12.1112 9.45279 12.1065 9.47668 12.0972C9.50058 12.0879 9.52233 12.074 9.54066 12.0564C9.559 12.0388 9.57356 12.0178 9.5835 11.9947C9.59344 11.9715 9.59856 11.9467 9.59856 11.9216C9.59856 11.8966 9.59344 11.8717 9.5835 11.8486C9.57356 11.8255 9.559 11.8045 9.54066 11.7869C9.52233 11.7693 9.50058 11.7554 9.47668 11.7461C9.45279 11.7367 9.42723 11.7321 9.40148 11.7324H6.53271Z"/>
<path d="M7.9874 13.2031C7.67569 13.2031 7.41888 13.4531 7.41888 13.7566V14.9374C7.41888 15.2409 7.67572 15.4909 7.9874 15.4909H11.0126C11.3243 15.4909 11.5811 15.2409 11.5811 14.9374V13.7566C11.5811 13.4531 11.3243 13.2031 11.0126 13.2031H7.9874ZM7.9874 13.5815H11.0126C11.1139 13.5815 11.1925 13.658 11.1925 13.7566V14.9374C11.1925 15.0361 11.114 15.1125 11.0126 15.1125H7.9874C7.88605 15.1125 7.80751 15.0361 7.80751 14.9374V13.7566C7.80751 13.658 7.88607 13.5815 7.9874 13.5815Z"/>
<path d="M7.9874 9C7.67572 9 7.41888 9.25002 7.41888 9.55353V10.7343C7.41888 11.0378 7.67572 11.2878 7.9874 11.2878H11.0126C11.3243 11.2878 11.5811 11.0378 11.5811 10.7343V9.55353C11.5811 9.25002 11.3243 9 11.0126 9H7.9874ZM7.9874 9.37838H11.0126C11.114 9.37838 11.1925 9.45481 11.1925 9.55353V10.7343C11.1925 10.833 11.114 10.9094 11.0126 10.9094H7.9874C7.88605 10.9094 7.80751 10.833 7.80751 10.7343V9.55353C7.80751 9.45481 7.88605 9.37838 7.9874 9.37838Z"/>
<path d="M7.9874 17.2916C7.67572 17.2916 7.41888 17.5416 7.41888 17.8451V19.876C7.41852 19.9011 7.42328 19.926 7.43288 19.9492C7.44248 19.9725 7.45673 19.9937 7.47481 20.0115C7.49289 20.0294 7.51444 20.0435 7.53819 20.0532C7.56195 20.0629 7.58744 20.0679 7.6132 20.0679C7.63895 20.0679 7.66444 20.0629 7.6882 20.0532C7.71195 20.0435 7.7335 20.0294 7.75158 20.0115C7.76966 19.9937 7.78391 19.9725 7.79351 19.9492C7.80312 19.926 7.80787 19.9011 7.80751 19.876V17.8451C7.80751 17.7464 7.88605 17.67 7.9874 17.67H11.0126C11.114 17.67 11.1925 17.7464 11.1925 17.8451V19.876C11.1921 19.9011 11.1969 19.926 11.2065 19.9492C11.2161 19.9725 11.2303 19.9937 11.2484 20.0115C11.2665 20.0294 11.288 20.0435 11.3118 20.0532C11.3356 20.0629 11.3611 20.0679 11.3868 20.0679C11.4126 20.0679 11.4381 20.0629 11.4618 20.0532C11.4856 20.0435 11.5071 20.0294 11.5252 20.0115C11.5433 19.9937 11.5575 19.9725 11.5671 19.9492C11.5767 19.926 11.5815 19.9011 11.5811 19.876V17.8451C11.5811 17.5416 11.3243 17.2916 11.0126 17.2916H7.9874Z"/>
<path d="M8.66552 11.0282C8.61401 11.0289 8.56492 11.0496 8.52904 11.0856C8.49316 11.1216 8.47342 11.1699 8.47417 11.2201V11.9014C8.4738 11.9265 8.47856 11.9514 8.48816 11.9746C8.49776 11.9979 8.51202 12.0191 8.5301 12.0369C8.54818 12.0548 8.56972 12.0689 8.59348 12.0786C8.61723 12.0883 8.64273 12.0933 8.66848 12.0933C8.69423 12.0933 8.71972 12.0883 8.74348 12.0786C8.76724 12.0689 8.78878 12.0548 8.80686 12.0369C8.82494 12.0191 8.8392 11.9979 8.8488 11.9746C8.8584 11.9514 8.86316 11.9265 8.86279 11.9014V11.2201C8.86317 11.1948 8.85832 11.1696 8.84854 11.1462C8.83876 11.1227 8.82424 11.1014 8.80584 11.0835C8.78744 11.0656 8.76555 11.0515 8.74144 11.042C8.71734 11.0325 8.69152 11.0278 8.66552 11.0282Z"/>
<path d="M10.3286 11.0282C10.2771 11.0289 10.228 11.0495 10.1921 11.0855C10.1562 11.1215 10.1365 11.1699 10.1372 11.2201V11.9014C10.1368 11.9265 10.1416 11.9514 10.1512 11.9746C10.1608 11.9979 10.1751 12.0191 10.1931 12.0369C10.2112 12.0548 10.2328 12.0689 10.2565 12.0786C10.2803 12.0883 10.3058 12.0933 10.3315 12.0933C10.3573 12.0933 10.3828 12.0883 10.4065 12.0786C10.4303 12.0689 10.4518 12.0548 10.4699 12.0369C10.488 12.0191 10.5022 11.9979 10.5118 11.9746C10.5214 11.9514 10.5262 11.9265 10.5258 11.9014V11.2201C10.5262 11.1948 10.5214 11.1697 10.5116 11.1462C10.5018 11.1227 10.4873 11.1014 10.4689 11.0835C10.4505 11.0656 10.4286 11.0515 10.4045 11.042C10.3804 11.0325 10.3546 11.0278 10.3286 11.0282Z"/>
</mask>
<path d="M14.2786 19.4083C14.1067 19.3878 13.9164 19.4094 13.7202 19.472L12.6025 19.8285H9.59852C9.57277 19.8281 9.54721 19.8328 9.52331 19.8421C9.49942 19.8515 9.47767 19.8653 9.45934 19.8829C9.441 19.9005 9.42644 19.9215 9.4165 19.9446C9.40656 19.9678 9.40144 19.9926 9.40144 20.0177C9.40144 20.0427 9.40656 20.0676 9.4165 20.0907C9.42644 20.1138 9.441 20.1348 9.45934 20.1524C9.47767 20.17 9.49942 20.1839 9.52331 20.1932C9.54721 20.2026 9.57277 20.2072 9.59852 20.2069H12.6336C12.6541 20.2068 12.6746 20.2036 12.6941 20.1974L13.8412 19.8316C14.1467 19.7341 14.35 19.7782 14.4671 19.8798C14.5843 19.9815 14.6524 20.173 14.588 20.4797L14.2563 22.0591C14.1942 22.3547 13.8583 22.6216 13.5483 22.6216H9.59852C9.57277 22.6212 9.54721 22.6259 9.52331 22.6352C9.49942 22.6446 9.47767 22.6585 9.45934 22.6761C9.441 22.6937 9.42644 22.7146 9.4165 22.7378C9.40656 22.7609 9.40144 22.7857 9.40144 22.8108C9.40144 22.8359 9.40656 22.8607 9.4165 22.8838C9.42644 22.9069 9.441 22.9279 9.45934 22.9455C9.47767 22.9631 9.49942 22.977 9.52331 22.9864C9.54721 22.9957 9.57277 23.0003 9.59852 23H13.5483C14.0644 23 14.5336 22.6271 14.637 22.1349L14.9688 20.5555C15.0515 20.1617 14.9698 19.8091 14.7257 19.5973C14.6037 19.4914 14.4504 19.4289 14.2786 19.4083Z" fill="white"/>
<path d="M9.59852 11.7324C9.57277 11.7321 9.54721 11.7367 9.52331 11.7461C9.49942 11.7554 9.47767 11.7693 9.45934 11.7869C9.441 11.8045 9.42644 11.8255 9.4165 11.8486C9.40656 11.8717 9.40144 11.8966 9.40144 11.9216C9.40144 11.9467 9.40656 11.9715 9.4165 11.9947C9.42644 12.0178 9.441 12.0388 9.45934 12.0564C9.47767 12.074 9.49942 12.0879 9.52331 12.0972C9.54721 12.1065 9.57277 12.1112 9.59852 12.1108H12.4673C12.7063 12.1108 12.8966 12.2961 12.8966 12.5288V14.9576C12.8966 14.9715 12.8982 14.9854 12.9013 14.999L13.2054 16.3198C13.327 16.8481 13.3484 17.7756 13.2513 18.3087L12.9977 19.7C12.9887 19.7494 13.0002 19.8002 13.0298 19.8414C13.0593 19.8825 13.1044 19.9105 13.1551 19.9193C13.2059 19.9281 13.2581 19.9168 13.3004 19.8881C13.3426 19.8593 13.3714 19.8154 13.3804 19.766L13.6339 18.3748C13.7452 17.764 13.724 16.8424 13.5846 16.2371L13.2852 14.9367V12.5288C13.2852 12.0913 12.9166 11.7324 12.4673 11.7324H9.59852Z" fill="white"/>
<path d="M4.72143 19.4083C4.5496 19.4289 4.39631 19.4914 4.27428 19.5973C4.03024 19.8091 3.94852 20.1617 4.03124 20.5555L4.36302 22.1349C4.46643 22.6271 4.93562 23 5.4517 23H9.40148C9.42723 23.0003 9.45279 22.9957 9.47668 22.9864C9.50058 22.977 9.52233 22.9631 9.54066 22.9455C9.559 22.9279 9.57356 22.9069 9.5835 22.8838C9.59344 22.8607 9.59856 22.8359 9.59856 22.8108C9.59856 22.7857 9.59344 22.7609 9.5835 22.7378C9.57356 22.7146 9.559 22.6937 9.54066 22.6761C9.52233 22.6585 9.50058 22.6446 9.47668 22.6352C9.45279 22.6259 9.42723 22.6212 9.40148 22.6216H5.4517C5.14166 22.6216 4.80584 22.3547 4.74375 22.0591L4.41197 20.4797C4.34756 20.173 4.41575 19.9815 4.53289 19.8798C4.65003 19.7782 4.85328 19.7341 5.15879 19.8316L6.30591 20.1974C6.32544 20.2036 6.34586 20.2068 6.36641 20.2069H9.40148C9.42723 20.2072 9.45279 20.2026 9.47668 20.1932C9.50058 20.1839 9.52233 20.17 9.54066 20.1524C9.559 20.1348 9.57356 20.1138 9.5835 20.0907C9.59344 20.0676 9.59856 20.0427 9.59856 20.0177C9.59856 19.9926 9.59344 19.9678 9.5835 19.9446C9.57356 19.9215 9.559 19.9005 9.54066 19.8829C9.52233 19.8653 9.50058 19.8515 9.47668 19.8421C9.45279 19.8328 9.42723 19.8281 9.40148 19.8285H6.39745L5.27978 19.472C5.08362 19.4094 4.89326 19.3878 4.72143 19.4083Z" fill="white"/>
<path d="M6.53271 11.7324C6.08336 11.7324 5.71478 12.0913 5.71478 12.5288V14.9367L5.41541 16.2371C5.27604 16.8424 5.25476 17.764 5.36608 18.3748L5.61959 19.766C5.62859 19.8154 5.65738 19.8593 5.69963 19.8881C5.74188 19.9168 5.79413 19.9281 5.84488 19.9193C5.89563 19.9105 5.94072 19.8825 5.97024 19.8414C5.99977 19.8002 6.0113 19.7494 6.0023 19.7L5.74871 18.3087C5.65157 17.7756 5.673 16.8481 5.79463 16.3198L6.0987 14.999C6.10182 14.9854 6.1034 14.9715 6.1034 14.9576V12.5288C6.1034 12.2961 6.29373 12.1108 6.53271 12.1108H9.40148C9.42723 12.1112 9.45279 12.1065 9.47668 12.0972C9.50058 12.0879 9.52233 12.074 9.54066 12.0564C9.559 12.0388 9.57356 12.0178 9.5835 11.9947C9.59344 11.9715 9.59856 11.9467 9.59856 11.9216C9.59856 11.8966 9.59344 11.8717 9.5835 11.8486C9.57356 11.8255 9.559 11.8045 9.54066 11.7869C9.52233 11.7693 9.50058 11.7554 9.47668 11.7461C9.45279 11.7367 9.42723 11.7321 9.40148 11.7324H6.53271Z" fill="white"/>
<path d="M7.9874 13.2031C7.67569 13.2031 7.41888 13.4531 7.41888 13.7566V14.9374C7.41888 15.2409 7.67572 15.4909 7.9874 15.4909H11.0126C11.3243 15.4909 11.5811 15.2409 11.5811 14.9374V13.7566C11.5811 13.4531 11.3243 13.2031 11.0126 13.2031H7.9874ZM7.9874 13.5815H11.0126C11.1139 13.5815 11.1925 13.658 11.1925 13.7566V14.9374C11.1925 15.0361 11.114 15.1125 11.0126 15.1125H7.9874C7.88605 15.1125 7.80751 15.0361 7.80751 14.9374V13.7566C7.80751 13.658 7.88607 13.5815 7.9874 13.5815Z" fill="white"/>
<path d="M7.9874 9C7.67572 9 7.41888 9.25002 7.41888 9.55353V10.7343C7.41888 11.0378 7.67572 11.2878 7.9874 11.2878H11.0126C11.3243 11.2878 11.5811 11.0378 11.5811 10.7343V9.55353C11.5811 9.25002 11.3243 9 11.0126 9H7.9874ZM7.9874 9.37838H11.0126C11.114 9.37838 11.1925 9.45481 11.1925 9.55353V10.7343C11.1925 10.833 11.114 10.9094 11.0126 10.9094H7.9874C7.88605 10.9094 7.80751 10.833 7.80751 10.7343V9.55353C7.80751 9.45481 7.88605 9.37838 7.9874 9.37838Z" fill="white"/>
<path d="M7.9874 17.2916C7.67572 17.2916 7.41888 17.5416 7.41888 17.8451V19.876C7.41852 19.9011 7.42328 19.926 7.43288 19.9492C7.44248 19.9725 7.45673 19.9937 7.47481 20.0115C7.49289 20.0294 7.51444 20.0435 7.53819 20.0532C7.56195 20.0629 7.58744 20.0679 7.6132 20.0679C7.63895 20.0679 7.66444 20.0629 7.6882 20.0532C7.71195 20.0435 7.7335 20.0294 7.75158 20.0115C7.76966 19.9937 7.78391 19.9725 7.79351 19.9492C7.80312 19.926 7.80787 19.9011 7.80751 19.876V17.8451C7.80751 17.7464 7.88605 17.67 7.9874 17.67H11.0126C11.114 17.67 11.1925 17.7464 11.1925 17.8451V19.876C11.1921 19.9011 11.1969 19.926 11.2065 19.9492C11.2161 19.9725 11.2303 19.9937 11.2484 20.0115C11.2665 20.0294 11.288 20.0435 11.3118 20.0532C11.3356 20.0629 11.3611 20.0679 11.3868 20.0679C11.4126 20.0679 11.4381 20.0629 11.4618 20.0532C11.4856 20.0435 11.5071 20.0294 11.5252 20.0115C11.5433 19.9937 11.5575 19.9725 11.5671 19.9492C11.5767 19.926 11.5815 19.9011 11.5811 19.876V17.8451C11.5811 17.5416 11.3243 17.2916 11.0126 17.2916H7.9874Z" fill="white"/>
<path d="M8.66552 11.0282C8.61401 11.0289 8.56492 11.0496 8.52904 11.0856C8.49316 11.1216 8.47342 11.1699 8.47417 11.2201V11.9014C8.4738 11.9265 8.47856 11.9514 8.48816 11.9746C8.49776 11.9979 8.51202 12.0191 8.5301 12.0369C8.54818 12.0548 8.56972 12.0689 8.59348 12.0786C8.61723 12.0883 8.64273 12.0933 8.66848 12.0933C8.69423 12.0933 8.71972 12.0883 8.74348 12.0786C8.76724 12.0689 8.78878 12.0548 8.80686 12.0369C8.82494 12.0191 8.8392 11.9979 8.8488 11.9746C8.8584 11.9514 8.86316 11.9265 8.86279 11.9014V11.2201C8.86317 11.1948 8.85832 11.1696 8.84854 11.1462C8.83876 11.1227 8.82424 11.1014 8.80584 11.0835C8.78744 11.0656 8.76555 11.0515 8.74144 11.042C8.71734 11.0325 8.69152 11.0278 8.66552 11.0282Z" fill="white"/>
<path d="M10.3286 11.0282C10.2771 11.0289 10.228 11.0495 10.1921 11.0855C10.1562 11.1215 10.1365 11.1699 10.1372 11.2201V11.9014C10.1368 11.9265 10.1416 11.9514 10.1512 11.9746C10.1608 11.9979 10.1751 12.0191 10.1931 12.0369C10.2112 12.0548 10.2328 12.0689 10.2565 12.0786C10.2803 12.0883 10.3058 12.0933 10.3315 12.0933C10.3573 12.0933 10.3828 12.0883 10.4065 12.0786C10.4303 12.0689 10.4518 12.0548 10.4699 12.0369C10.488 12.0191 10.5022 11.9979 10.5118 11.9746C10.5214 11.9514 10.5262 11.9265 10.5258 11.9014V11.2201C10.5262 11.1948 10.5214 11.1697 10.5116 11.1462C10.5018 11.1227 10.4873 11.1014 10.4689 11.0835C10.4505 11.0656 10.4286 11.0515 10.4045 11.042C10.3804 11.0325 10.3546 11.0278 10.3286 11.0282Z" fill="white"/>
<path d="M14.2786 19.4083C14.1067 19.3878 13.9164 19.4094 13.7202 19.472L12.6025 19.8285H9.59852C9.57277 19.8281 9.54721 19.8328 9.52331 19.8421C9.49942 19.8515 9.47767 19.8653 9.45934 19.8829C9.441 19.9005 9.42644 19.9215 9.4165 19.9446C9.40656 19.9678 9.40144 19.9926 9.40144 20.0177C9.40144 20.0427 9.40656 20.0676 9.4165 20.0907C9.42644 20.1138 9.441 20.1348 9.45934 20.1524C9.47767 20.17 9.49942 20.1839 9.52331 20.1932C9.54721 20.2026 9.57277 20.2072 9.59852 20.2069H12.6336C12.6541 20.2068 12.6746 20.2036 12.6941 20.1974L13.8412 19.8316C14.1467 19.7341 14.35 19.7782 14.4671 19.8798C14.5843 19.9815 14.6524 20.173 14.588 20.4797L14.2563 22.0591C14.1942 22.3547 13.8583 22.6216 13.5483 22.6216H9.59852C9.57277 22.6212 9.54721 22.6259 9.52331 22.6352C9.49942 22.6446 9.47767 22.6585 9.45934 22.6761C9.441 22.6937 9.42644 22.7146 9.4165 22.7378C9.40656 22.7609 9.40144 22.7857 9.40144 22.8108C9.40144 22.8359 9.40656 22.8607 9.4165 22.8838C9.42644 22.9069 9.441 22.9279 9.45934 22.9455C9.47767 22.9631 9.49942 22.977 9.52331 22.9864C9.54721 22.9957 9.57277 23.0003 9.59852 23H13.5483C14.0644 23 14.5336 22.6271 14.637 22.1349L14.9688 20.5555C15.0515 20.1617 14.9698 19.8091 14.7257 19.5973C14.6037 19.4914 14.4504 19.4289 14.2786 19.4083Z" stroke="white" stroke-width="0.8" mask="url(#path-1-outside-1)"/>
<path d="M9.59852 11.7324C9.57277 11.7321 9.54721 11.7367 9.52331 11.7461C9.49942 11.7554 9.47767 11.7693 9.45934 11.7869C9.441 11.8045 9.42644 11.8255 9.4165 11.8486C9.40656 11.8717 9.40144 11.8966 9.40144 11.9216C9.40144 11.9467 9.40656 11.9715 9.4165 11.9947C9.42644 12.0178 9.441 12.0388 9.45934 12.0564C9.47767 12.074 9.49942 12.0879 9.52331 12.0972C9.54721 12.1065 9.57277 12.1112 9.59852 12.1108H12.4673C12.7063 12.1108 12.8966 12.2961 12.8966 12.5288V14.9576C12.8966 14.9715 12.8982 14.9854 12.9013 14.999L13.2054 16.3198C13.327 16.8481 13.3484 17.7756 13.2513 18.3087L12.9977 19.7C12.9887 19.7494 13.0002 19.8002 13.0298 19.8414C13.0593 19.8825 13.1044 19.9105 13.1551 19.9193C13.2059 19.9281 13.2581 19.9168 13.3004 19.8881C13.3426 19.8593 13.3714 19.8154 13.3804 19.766L13.6339 18.3748C13.7452 17.764 13.724 16.8424 13.5846 16.2371L13.2852 14.9367V12.5288C13.2852 12.0913 12.9166 11.7324 12.4673 11.7324H9.59852Z" stroke="white" stroke-width="0.8" mask="url(#path-1-outside-1)"/>
<path d="M4.72143 19.4083C4.5496 19.4289 4.39631 19.4914 4.27428 19.5973C4.03024 19.8091 3.94852 20.1617 4.03124 20.5555L4.36302 22.1349C4.46643 22.6271 4.93562 23 5.4517 23H9.40148C9.42723 23.0003 9.45279 22.9957 9.47668 22.9864C9.50058 22.977 9.52233 22.9631 9.54066 22.9455C9.559 22.9279 9.57356 22.9069 9.5835 22.8838C9.59344 22.8607 9.59856 22.8359 9.59856 22.8108C9.59856 22.7857 9.59344 22.7609 9.5835 22.7378C9.57356 22.7146 9.559 22.6937 9.54066 22.6761C9.52233 22.6585 9.50058 22.6446 9.47668 22.6352C9.45279 22.6259 9.42723 22.6212 9.40148 22.6216H5.4517C5.14166 22.6216 4.80584 22.3547 4.74375 22.0591L4.41197 20.4797C4.34756 20.173 4.41575 19.9815 4.53289 19.8798C4.65003 19.7782 4.85328 19.7341 5.15879 19.8316L6.30591 20.1974C6.32544 20.2036 6.34586 20.2068 6.36641 20.2069H9.40148C9.42723 20.2072 9.45279 20.2026 9.47668 20.1932C9.50058 20.1839 9.52233 20.17 9.54066 20.1524C9.559 20.1348 9.57356 20.1138 9.5835 20.0907C9.59344 20.0676 9.59856 20.0427 9.59856 20.0177C9.59856 19.9926 9.59344 19.9678 9.5835 19.9446C9.57356 19.9215 9.559 19.9005 9.54066 19.8829C9.52233 19.8653 9.50058 19.8515 9.47668 19.8421C9.45279 19.8328 9.42723 19.8281 9.40148 19.8285H6.39745L5.27978 19.472C5.08362 19.4094 4.89326 19.3878 4.72143 19.4083Z" stroke="white" stroke-width="0.8" mask="url(#path-1-outside-1)"/>
<path d="M6.53271 11.7324C6.08336 11.7324 5.71478 12.0913 5.71478 12.5288V14.9367L5.41541 16.2371C5.27604 16.8424 5.25476 17.764 5.36608 18.3748L5.61959 19.766C5.62859 19.8154 5.65738 19.8593 5.69963 19.8881C5.74188 19.9168 5.79413 19.9281 5.84488 19.9193C5.89563 19.9105 5.94072 19.8825 5.97024 19.8414C5.99977 19.8002 6.0113 19.7494 6.0023 19.7L5.74871 18.3087C5.65157 17.7756 5.673 16.8481 5.79463 16.3198L6.0987 14.999C6.10182 14.9854 6.1034 14.9715 6.1034 14.9576V12.5288C6.1034 12.2961 6.29373 12.1108 6.53271 12.1108H9.40148C9.42723 12.1112 9.45279 12.1065 9.47668 12.0972C9.50058 12.0879 9.52233 12.074 9.54066 12.0564C9.559 12.0388 9.57356 12.0178 9.5835 11.9947C9.59344 11.9715 9.59856 11.9467 9.59856 11.9216C9.59856 11.8966 9.59344 11.8717 9.5835 11.8486C9.57356 11.8255 9.559 11.8045 9.54066 11.7869C9.52233 11.7693 9.50058 11.7554 9.47668 11.7461C9.45279 11.7367 9.42723 11.7321 9.40148 11.7324H6.53271Z" stroke="white" stroke-width="0.8" mask="url(#path-1-outside-1)"/>
<path d="M7.9874 13.2031C7.67569 13.2031 7.41888 13.4531 7.41888 13.7566V14.9374C7.41888 15.2409 7.67572 15.4909 7.9874 15.4909H11.0126C11.3243 15.4909 11.5811 15.2409 11.5811 14.9374V13.7566C11.5811 13.4531 11.3243 13.2031 11.0126 13.2031H7.9874ZM7.9874 13.5815H11.0126C11.1139 13.5815 11.1925 13.658 11.1925 13.7566V14.9374C11.1925 15.0361 11.114 15.1125 11.0126 15.1125H7.9874C7.88605 15.1125 7.80751 15.0361 7.80751 14.9374V13.7566C7.80751 13.658 7.88607 13.5815 7.9874 13.5815Z" stroke="white" stroke-width="0.8" mask="url(#path-1-outside-1)"/>
<path d="M7.9874 9C7.67572 9 7.41888 9.25002 7.41888 9.55353V10.7343C7.41888 11.0378 7.67572 11.2878 7.9874 11.2878H11.0126C11.3243 11.2878 11.5811 11.0378 11.5811 10.7343V9.55353C11.5811 9.25002 11.3243 9 11.0126 9H7.9874ZM7.9874 9.37838H11.0126C11.114 9.37838 11.1925 9.45481 11.1925 9.55353V10.7343C11.1925 10.833 11.114 10.9094 11.0126 10.9094H7.9874C7.88605 10.9094 7.80751 10.833 7.80751 10.7343V9.55353C7.80751 9.45481 7.88605 9.37838 7.9874 9.37838Z" stroke="white" stroke-width="0.8" mask="url(#path-1-outside-1)"/>
<path d="M7.9874 17.2916C7.67572 17.2916 7.41888 17.5416 7.41888 17.8451V19.876C7.41852 19.9011 7.42328 19.926 7.43288 19.9492C7.44248 19.9725 7.45673 19.9937 7.47481 20.0115C7.49289 20.0294 7.51444 20.0435 7.53819 20.0532C7.56195 20.0629 7.58744 20.0679 7.6132 20.0679C7.63895 20.0679 7.66444 20.0629 7.6882 20.0532C7.71195 20.0435 7.7335 20.0294 7.75158 20.0115C7.76966 19.9937 7.78391 19.9725 7.79351 19.9492C7.80312 19.926 7.80787 19.9011 7.80751 19.876V17.8451C7.80751 17.7464 7.88605 17.67 7.9874 17.67H11.0126C11.114 17.67 11.1925 17.7464 11.1925 17.8451V19.876C11.1921 19.9011 11.1969 19.926 11.2065 19.9492C11.2161 19.9725 11.2303 19.9937 11.2484 20.0115C11.2665 20.0294 11.288 20.0435 11.3118 20.0532C11.3356 20.0629 11.3611 20.0679 11.3868 20.0679C11.4126 20.0679 11.4381 20.0629 11.4618 20.0532C11.4856 20.0435 11.5071 20.0294 11.5252 20.0115C11.5433 19.9937 11.5575 19.9725 11.5671 19.9492C11.5767 19.926 11.5815 19.9011 11.5811 19.876V17.8451C11.5811 17.5416 11.3243 17.2916 11.0126 17.2916H7.9874Z" stroke="white" stroke-width="0.8" mask="url(#path-1-outside-1)"/>
<path d="M8.66552 11.0282C8.61401 11.0289 8.56492 11.0496 8.52904 11.0856C8.49316 11.1216 8.47342 11.1699 8.47417 11.2201V11.9014C8.4738 11.9265 8.47856 11.9514 8.48816 11.9746C8.49776 11.9979 8.51202 12.0191 8.5301 12.0369C8.54818 12.0548 8.56972 12.0689 8.59348 12.0786C8.61723 12.0883 8.64273 12.0933 8.66848 12.0933C8.69423 12.0933 8.71972 12.0883 8.74348 12.0786C8.76724 12.0689 8.78878 12.0548 8.80686 12.0369C8.82494 12.0191 8.8392 11.9979 8.8488 11.9746C8.8584 11.9514 8.86316 11.9265 8.86279 11.9014V11.2201C8.86317 11.1948 8.85832 11.1696 8.84854 11.1462C8.83876 11.1227 8.82424 11.1014 8.80584 11.0835C8.78744 11.0656 8.76555 11.0515 8.74144 11.042C8.71734 11.0325 8.69152 11.0278 8.66552 11.0282Z" stroke="white" stroke-width="0.8" mask="url(#path-1-outside-1)"/>
<path d="M10.3286 11.0282C10.2771 11.0289 10.228 11.0495 10.1921 11.0855C10.1562 11.1215 10.1365 11.1699 10.1372 11.2201V11.9014C10.1368 11.9265 10.1416 11.9514 10.1512 11.9746C10.1608 11.9979 10.1751 12.0191 10.1931 12.0369C10.2112 12.0548 10.2328 12.0689 10.2565 12.0786C10.2803 12.0883 10.3058 12.0933 10.3315 12.0933C10.3573 12.0933 10.3828 12.0883 10.4065 12.0786C10.4303 12.0689 10.4518 12.0548 10.4699 12.0369C10.488 12.0191 10.5022 11.9979 10.5118 11.9746C10.5214 11.9514 10.5262 11.9265 10.5258 11.9014V11.2201C10.5262 11.1948 10.5214 11.1697 10.5116 11.1462C10.5018 11.1227 10.4873 11.1014 10.4689 11.0835C10.4505 11.0656 10.4286 11.0515 10.4045 11.042C10.3804 11.0325 10.3546 11.0278 10.3286 11.0282Z" stroke="white" stroke-width="0.8" mask="url(#path-1-outside-1)"/>
<mask id="path-2-outside-2" maskUnits="userSpaceOnUse" x="17" y="8" width="13" height="16" fill="black">
<rect fill="white" x="17" y="8" width="13" height="16"/>
<path d="M28.2786 19.4083C28.1067 19.3878 27.9164 19.4094 27.7202 19.472L26.6025 19.8285H23.5985C23.5728 19.8281 23.5472 19.8328 23.5233 19.8421C23.4994 19.8515 23.4777 19.8653 23.4593 19.8829C23.441 19.9005 23.4264 19.9215 23.4165 19.9446C23.4066 19.9678 23.4014 19.9926 23.4014 20.0177C23.4014 20.0427 23.4066 20.0676 23.4165 20.0907C23.4264 20.1138 23.441 20.1348 23.4593 20.1524C23.4777 20.17 23.4994 20.1839 23.5233 20.1932C23.5472 20.2026 23.5728 20.2072 23.5985 20.2069H26.6336C26.6541 20.2068 26.6746 20.2036 26.6941 20.1974L27.8412 19.8316C28.1467 19.7341 28.35 19.7782 28.4671 19.8798C28.5843 19.9815 28.6524 20.173 28.588 20.4797L28.2563 22.0591C28.1942 22.3547 27.8583 22.6216 27.5483 22.6216H23.5985C23.5728 22.6212 23.5472 22.6259 23.5233 22.6352C23.4994 22.6446 23.4777 22.6585 23.4593 22.6761C23.441 22.6937 23.4264 22.7146 23.4165 22.7378C23.4066 22.7609 23.4014 22.7857 23.4014 22.8108C23.4014 22.8359 23.4066 22.8607 23.4165 22.8838C23.4264 22.9069 23.441 22.9279 23.4593 22.9455C23.4777 22.9631 23.4994 22.977 23.5233 22.9864C23.5472 22.9957 23.5728 23.0003 23.5985 23H27.5483C28.0644 23 28.5336 22.6271 28.637 22.1349L28.9688 20.5555C29.0515 20.1617 28.9698 19.8091 28.7257 19.5973C28.6037 19.4914 28.4504 19.4289 28.2786 19.4083Z"/>
<path d="M23.5985 11.7324C23.5728 11.7321 23.5472 11.7367 23.5233 11.7461C23.4994 11.7554 23.4777 11.7693 23.4593 11.7869C23.441 11.8045 23.4264 11.8255 23.4165 11.8486C23.4066 11.8717 23.4014 11.8966 23.4014 11.9216C23.4014 11.9467 23.4066 11.9715 23.4165 11.9947C23.4264 12.0178 23.441 12.0388 23.4593 12.0564C23.4777 12.074 23.4994 12.0879 23.5233 12.0972C23.5472 12.1065 23.5728 12.1112 23.5985 12.1108H26.4673C26.7063 12.1108 26.8966 12.2961 26.8966 12.5288V14.9576C26.8966 14.9715 26.8982 14.9854 26.9013 14.999L27.2054 16.3198C27.327 16.8481 27.3484 17.7756 27.2513 18.3087L26.9977 19.7C26.9887 19.7494 27.0002 19.8002 27.0298 19.8414C27.0593 19.8825 27.1044 19.9105 27.1551 19.9193C27.2059 19.9281 27.2581 19.9168 27.3004 19.8881C27.3426 19.8593 27.3714 19.8154 27.3804 19.766L27.6339 18.3748C27.7452 17.764 27.724 16.8424 27.5846 16.2371L27.2852 14.9367V12.5288C27.2852 12.0913 26.9166 11.7324 26.4673 11.7324H23.5985Z"/>
<path d="M18.7214 19.4083C18.5496 19.4289 18.3963 19.4914 18.2743 19.5973C18.0302 19.8091 17.9485 20.1617 18.0312 20.5555L18.363 22.1349C18.4664 22.6271 18.9356 23 19.4517 23H23.4015C23.4272 23.0003 23.4528 22.9957 23.4767 22.9864C23.5006 22.977 23.5223 22.9631 23.5407 22.9455C23.559 22.9279 23.5736 22.9069 23.5835 22.8838C23.5934 22.8607 23.5986 22.8359 23.5986 22.8108C23.5986 22.7857 23.5934 22.7609 23.5835 22.7378C23.5736 22.7146 23.559 22.6937 23.5407 22.6761C23.5223 22.6585 23.5006 22.6446 23.4767 22.6352C23.4528 22.6259 23.4272 22.6212 23.4015 22.6216H19.4517C19.1417 22.6216 18.8058 22.3547 18.7437 22.0591L18.412 20.4797C18.3476 20.173 18.4157 19.9815 18.5329 19.8798C18.65 19.7782 18.8533 19.7341 19.1588 19.8316L20.3059 20.1974C20.3254 20.2036 20.3459 20.2068 20.3664 20.2069H23.4015C23.4272 20.2072 23.4528 20.2026 23.4767 20.1932C23.5006 20.1839 23.5223 20.17 23.5407 20.1524C23.559 20.1348 23.5736 20.1138 23.5835 20.0907C23.5934 20.0676 23.5986 20.0427 23.5986 20.0177C23.5986 19.9926 23.5934 19.9678 23.5835 19.9446C23.5736 19.9215 23.559 19.9005 23.5407 19.8829C23.5223 19.8653 23.5006 19.8515 23.4767 19.8421C23.4528 19.8328 23.4272 19.8281 23.4015 19.8285H20.3975L19.2798 19.472C19.0836 19.4094 18.8933 19.3878 18.7214 19.4083Z"/>
<path d="M20.5327 11.7324C20.0834 11.7324 19.7148 12.0913 19.7148 12.5288V14.9367L19.4154 16.2371C19.276 16.8424 19.2548 17.764 19.3661 18.3748L19.6196 19.766C19.6286 19.8154 19.6574 19.8593 19.6996 19.8881C19.7419 19.9168 19.7941 19.9281 19.8449 19.9193C19.8956 19.9105 19.9407 19.8825 19.9702 19.8414C19.9998 19.8002 20.0113 19.7494 20.0023 19.7L19.7487 18.3087C19.6516 17.7756 19.673 16.8481 19.7946 16.3198L20.0987 14.999C20.1018 14.9854 20.1034 14.9715 20.1034 14.9576V12.5288C20.1034 12.2961 20.2937 12.1108 20.5327 12.1108H23.4015C23.4272 12.1112 23.4528 12.1065 23.4767 12.0972C23.5006 12.0879 23.5223 12.074 23.5407 12.0564C23.559 12.0388 23.5736 12.0178 23.5835 11.9947C23.5934 11.9715 23.5986 11.9467 23.5986 11.9216C23.5986 11.8966 23.5934 11.8717 23.5835 11.8486C23.5736 11.8255 23.559 11.8045 23.5407 11.7869C23.5223 11.7693 23.5006 11.7554 23.4767 11.7461C23.4528 11.7367 23.4272 11.7321 23.4015 11.7324H20.5327Z"/>
<path d="M21.9874 13.2031C21.6757 13.2031 21.4189 13.4531 21.4189 13.7566V14.9374C21.4189 15.2409 21.6757 15.4909 21.9874 15.4909H25.0126C25.3243 15.4909 25.5811 15.2409 25.5811 14.9374V13.7566C25.5811 13.4531 25.3243 13.2031 25.0126 13.2031H21.9874ZM21.9874 13.5815H25.0126C25.1139 13.5815 25.1925 13.658 25.1925 13.7566V14.9374C25.1925 15.0361 25.114 15.1125 25.0126 15.1125H21.9874C21.886 15.1125 21.8075 15.0361 21.8075 14.9374V13.7566C21.8075 13.658 21.8861 13.5815 21.9874 13.5815Z"/>
<path d="M21.9874 9C21.6757 9 21.4189 9.25002 21.4189 9.55353V10.7343C21.4189 11.0378 21.6757 11.2878 21.9874 11.2878H25.0126C25.3243 11.2878 25.5811 11.0378 25.5811 10.7343V9.55353C25.5811 9.25002 25.3243 9 25.0126 9H21.9874ZM21.9874 9.37838H25.0126C25.114 9.37838 25.1925 9.45481 25.1925 9.55353V10.7343C25.1925 10.833 25.114 10.9094 25.0126 10.9094H21.9874C21.886 10.9094 21.8075 10.833 21.8075 10.7343V9.55353C21.8075 9.45481 21.886 9.37838 21.9874 9.37838Z"/>
<path d="M21.9874 17.2916C21.6757 17.2916 21.4189 17.5416 21.4189 17.8451V19.876C21.4185 19.9011 21.4233 19.926 21.4329 19.9492C21.4425 19.9725 21.4567 19.9937 21.4748 20.0115C21.4929 20.0294 21.5144 20.0435 21.5382 20.0532C21.562 20.0629 21.5874 20.0679 21.6132 20.0679C21.6389 20.0679 21.6644 20.0629 21.6882 20.0532C21.712 20.0435 21.7335 20.0294 21.7516 20.0115C21.7697 19.9937 21.7839 19.9725 21.7935 19.9492C21.8031 19.926 21.8079 19.9011 21.8075 19.876V17.8451C21.8075 17.7464 21.886 17.67 21.9874 17.67H25.0126C25.114 17.67 25.1925 17.7464 25.1925 17.8451V19.876C25.1921 19.9011 25.1969 19.926 25.2065 19.9492C25.2161 19.9725 25.2303 19.9937 25.2484 20.0115C25.2665 20.0294 25.288 20.0435 25.3118 20.0532C25.3356 20.0629 25.3611 20.0679 25.3868 20.0679C25.4126 20.0679 25.4381 20.0629 25.4618 20.0532C25.4856 20.0435 25.5071 20.0294 25.5252 20.0115C25.5433 19.9937 25.5575 19.9725 25.5671 19.9492C25.5767 19.926 25.5815 19.9011 25.5811 19.876V17.8451C25.5811 17.5416 25.3243 17.2916 25.0126 17.2916H21.9874Z"/>
<path d="M22.6655 11.0282C22.614 11.0289 22.5649 11.0496 22.529 11.0856C22.4932 11.1216 22.4734 11.1699 22.4742 11.2201V11.9014C22.4738 11.9265 22.4786 11.9514 22.4882 11.9746C22.4978 11.9979 22.512 12.0191 22.5301 12.0369C22.5482 12.0548 22.5697 12.0689 22.5935 12.0786C22.6172 12.0883 22.6427 12.0933 22.6685 12.0933C22.6942 12.0933 22.7197 12.0883 22.7435 12.0786C22.7672 12.0689 22.7888 12.0548 22.8069 12.0369C22.8249 12.0191 22.8392 11.9979 22.8488 11.9746C22.8584 11.9514 22.8632 11.9265 22.8628 11.9014V11.2201C22.8632 11.1948 22.8583 11.1696 22.8485 11.1462C22.8388 11.1227 22.8242 11.1014 22.8058 11.0835C22.7874 11.0656 22.7655 11.0515 22.7414 11.042C22.7173 11.0325 22.6915 11.0278 22.6655 11.0282Z"/>
<path d="M24.3286 11.0282C24.2771 11.0289 24.228 11.0495 24.1921 11.0855C24.1562 11.1215 24.1365 11.1699 24.1372 11.2201V11.9014C24.1368 11.9265 24.1416 11.9514 24.1512 11.9746C24.1608 11.9979 24.1751 12.0191 24.1931 12.0369C24.2112 12.0548 24.2328 12.0689 24.2565 12.0786C24.2803 12.0883 24.3058 12.0933 24.3315 12.0933C24.3573 12.0933 24.3828 12.0883 24.4065 12.0786C24.4303 12.0689 24.4518 12.0548 24.4699 12.0369C24.488 12.0191 24.5022 11.9979 24.5118 11.9746C24.5214 11.9514 24.5262 11.9265 24.5258 11.9014V11.2201C24.5262 11.1948 24.5214 11.1697 24.5116 11.1462C24.5018 11.1227 24.4873 11.1014 24.4689 11.0835C24.4505 11.0656 24.4286 11.0515 24.4045 11.042C24.3804 11.0325 24.3546 11.0278 24.3286 11.0282Z"/>
</mask>
<path d="M28.2786 19.4083C28.1067 19.3878 27.9164 19.4094 27.7202 19.472L26.6025 19.8285H23.5985C23.5728 19.8281 23.5472 19.8328 23.5233 19.8421C23.4994 19.8515 23.4777 19.8653 23.4593 19.8829C23.441 19.9005 23.4264 19.9215 23.4165 19.9446C23.4066 19.9678 23.4014 19.9926 23.4014 20.0177C23.4014 20.0427 23.4066 20.0676 23.4165 20.0907C23.4264 20.1138 23.441 20.1348 23.4593 20.1524C23.4777 20.17 23.4994 20.1839 23.5233 20.1932C23.5472 20.2026 23.5728 20.2072 23.5985 20.2069H26.6336C26.6541 20.2068 26.6746 20.2036 26.6941 20.1974L27.8412 19.8316C28.1467 19.7341 28.35 19.7782 28.4671 19.8798C28.5843 19.9815 28.6524 20.173 28.588 20.4797L28.2563 22.0591C28.1942 22.3547 27.8583 22.6216 27.5483 22.6216H23.5985C23.5728 22.6212 23.5472 22.6259 23.5233 22.6352C23.4994 22.6446 23.4777 22.6585 23.4593 22.6761C23.441 22.6937 23.4264 22.7146 23.4165 22.7378C23.4066 22.7609 23.4014 22.7857 23.4014 22.8108C23.4014 22.8359 23.4066 22.8607 23.4165 22.8838C23.4264 22.9069 23.441 22.9279 23.4593 22.9455C23.4777 22.9631 23.4994 22.977 23.5233 22.9864C23.5472 22.9957 23.5728 23.0003 23.5985 23H27.5483C28.0644 23 28.5336 22.6271 28.637 22.1349L28.9688 20.5555C29.0515 20.1617 28.9698 19.8091 28.7257 19.5973C28.6037 19.4914 28.4504 19.4289 28.2786 19.4083Z" fill="white"/>
<path d="M23.5985 11.7324C23.5728 11.7321 23.5472 11.7367 23.5233 11.7461C23.4994 11.7554 23.4777 11.7693 23.4593 11.7869C23.441 11.8045 23.4264 11.8255 23.4165 11.8486C23.4066 11.8717 23.4014 11.8966 23.4014 11.9216C23.4014 11.9467 23.4066 11.9715 23.4165 11.9947C23.4264 12.0178 23.441 12.0388 23.4593 12.0564C23.4777 12.074 23.4994 12.0879 23.5233 12.0972C23.5472 12.1065 23.5728 12.1112 23.5985 12.1108H26.4673C26.7063 12.1108 26.8966 12.2961 26.8966 12.5288V14.9576C26.8966 14.9715 26.8982 14.9854 26.9013 14.999L27.2054 16.3198C27.327 16.8481 27.3484 17.7756 27.2513 18.3087L26.9977 19.7C26.9887 19.7494 27.0002 19.8002 27.0298 19.8414C27.0593 19.8825 27.1044 19.9105 27.1551 19.9193C27.2059 19.9281 27.2581 19.9168 27.3004 19.8881C27.3426 19.8593 27.3714 19.8154 27.3804 19.766L27.6339 18.3748C27.7452 17.764 27.724 16.8424 27.5846 16.2371L27.2852 14.9367V12.5288C27.2852 12.0913 26.9166 11.7324 26.4673 11.7324H23.5985Z" fill="white"/>
<path d="M18.7214 19.4083C18.5496 19.4289 18.3963 19.4914 18.2743 19.5973C18.0302 19.8091 17.9485 20.1617 18.0312 20.5555L18.363 22.1349C18.4664 22.6271 18.9356 23 19.4517 23H23.4015C23.4272 23.0003 23.4528 22.9957 23.4767 22.9864C23.5006 22.977 23.5223 22.9631 23.5407 22.9455C23.559 22.9279 23.5736 22.9069 23.5835 22.8838C23.5934 22.8607 23.5986 22.8359 23.5986 22.8108C23.5986 22.7857 23.5934 22.7609 23.5835 22.7378C23.5736 22.7146 23.559 22.6937 23.5407 22.6761C23.5223 22.6585 23.5006 22.6446 23.4767 22.6352C23.4528 22.6259 23.4272 22.6212 23.4015 22.6216H19.4517C19.1417 22.6216 18.8058 22.3547 18.7437 22.0591L18.412 20.4797C18.3476 20.173 18.4157 19.9815 18.5329 19.8798C18.65 19.7782 18.8533 19.7341 19.1588 19.8316L20.3059 20.1974C20.3254 20.2036 20.3459 20.2068 20.3664 20.2069H23.4015C23.4272 20.2072 23.4528 20.2026 23.4767 20.1932C23.5006 20.1839 23.5223 20.17 23.5407 20.1524C23.559 20.1348 23.5736 20.1138 23.5835 20.0907C23.5934 20.0676 23.5986 20.0427 23.5986 20.0177C23.5986 19.9926 23.5934 19.9678 23.5835 19.9446C23.5736 19.9215 23.559 19.9005 23.5407 19.8829C23.5223 19.8653 23.5006 19.8515 23.4767 19.8421C23.4528 19.8328 23.4272 19.8281 23.4015 19.8285H20.3975L19.2798 19.472C19.0836 19.4094 18.8933 19.3878 18.7214 19.4083Z" fill="white"/>
<path d="M20.5327 11.7324C20.0834 11.7324 19.7148 12.0913 19.7148 12.5288V14.9367L19.4154 16.2371C19.276 16.8424 19.2548 17.764 19.3661 18.3748L19.6196 19.766C19.6286 19.8154 19.6574 19.8593 19.6996 19.8881C19.7419 19.9168 19.7941 19.9281 19.8449 19.9193C19.8956 19.9105 19.9407 19.8825 19.9702 19.8414C19.9998 19.8002 20.0113 19.7494 20.0023 19.7L19.7487 18.3087C19.6516 17.7756 19.673 16.8481 19.7946 16.3198L20.0987 14.999C20.1018 14.9854 20.1034 14.9715 20.1034 14.9576V12.5288C20.1034 12.2961 20.2937 12.1108 20.5327 12.1108H23.4015C23.4272 12.1112 23.4528 12.1065 23.4767 12.0972C23.5006 12.0879 23.5223 12.074 23.5407 12.0564C23.559 12.0388 23.5736 12.0178 23.5835 11.9947C23.5934 11.9715 23.5986 11.9467 23.5986 11.9216C23.5986 11.8966 23.5934 11.8717 23.5835 11.8486C23.5736 11.8255 23.559 11.8045 23.5407 11.7869C23.5223 11.7693 23.5006 11.7554 23.4767 11.7461C23.4528 11.7367 23.4272 11.7321 23.4015 11.7324H20.5327Z" fill="white"/>
<path d="M21.9874 13.2031C21.6757 13.2031 21.4189 13.4531 21.4189 13.7566V14.9374C21.4189 15.2409 21.6757 15.4909 21.9874 15.4909H25.0126C25.3243 15.4909 25.5811 15.2409 25.5811 14.9374V13.7566C25.5811 13.4531 25.3243 13.2031 25.0126 13.2031H21.9874ZM21.9874 13.5815H25.0126C25.1139 13.5815 25.1925 13.658 25.1925 13.7566V14.9374C25.1925 15.0361 25.114 15.1125 25.0126 15.1125H21.9874C21.886 15.1125 21.8075 15.0361 21.8075 14.9374V13.7566C21.8075 13.658 21.8861 13.5815 21.9874 13.5815Z" fill="white"/>
<path d="M21.9874 9C21.6757 9 21.4189 9.25002 21.4189 9.55353V10.7343C21.4189 11.0378 21.6757 11.2878 21.9874 11.2878H25.0126C25.3243 11.2878 25.5811 11.0378 25.5811 10.7343V9.55353C25.5811 9.25002 25.3243 9 25.0126 9H21.9874ZM21.9874 9.37838H25.0126C25.114 9.37838 25.1925 9.45481 25.1925 9.55353V10.7343C25.1925 10.833 25.114 10.9094 25.0126 10.9094H21.9874C21.886 10.9094 21.8075 10.833 21.8075 10.7343V9.55353C21.8075 9.45481 21.886 9.37838 21.9874 9.37838Z" fill="white"/>
<path d="M21.9874 17.2916C21.6757 17.2916 21.4189 17.5416 21.4189 17.8451V19.876C21.4185 19.9011 21.4233 19.926 21.4329 19.9492C21.4425 19.9725 21.4567 19.9937 21.4748 20.0115C21.4929 20.0294 21.5144 20.0435 21.5382 20.0532C21.562 20.0629 21.5874 20.0679 21.6132 20.0679C21.6389 20.0679 21.6644 20.0629 21.6882 20.0532C21.712 20.0435 21.7335 20.0294 21.7516 20.0115C21.7697 19.9937 21.7839 19.9725 21.7935 19.9492C21.8031 19.926 21.8079 19.9011 21.8075 19.876V17.8451C21.8075 17.7464 21.886 17.67 21.9874 17.67H25.0126C25.114 17.67 25.1925 17.7464 25.1925 17.8451V19.876C25.1921 19.9011 25.1969 19.926 25.2065 19.9492C25.2161 19.9725 25.2303 19.9937 25.2484 20.0115C25.2665 20.0294 25.288 20.0435 25.3118 20.0532C25.3356 20.0629 25.3611 20.0679 25.3868 20.0679C25.4126 20.0679 25.4381 20.0629 25.4618 20.0532C25.4856 20.0435 25.5071 20.0294 25.5252 20.0115C25.5433 19.9937 25.5575 19.9725 25.5671 19.9492C25.5767 19.926 25.5815 19.9011 25.5811 19.876V17.8451C25.5811 17.5416 25.3243 17.2916 25.0126 17.2916H21.9874Z" fill="white"/>
<path d="M22.6655 11.0282C22.614 11.0289 22.5649 11.0496 22.529 11.0856C22.4932 11.1216 22.4734 11.1699 22.4742 11.2201V11.9014C22.4738 11.9265 22.4786 11.9514 22.4882 11.9746C22.4978 11.9979 22.512 12.0191 22.5301 12.0369C22.5482 12.0548 22.5697 12.0689 22.5935 12.0786C22.6172 12.0883 22.6427 12.0933 22.6685 12.0933C22.6942 12.0933 22.7197 12.0883 22.7435 12.0786C22.7672 12.0689 22.7888 12.0548 22.8069 12.0369C22.8249 12.0191 22.8392 11.9979 22.8488 11.9746C22.8584 11.9514 22.8632 11.9265 22.8628 11.9014V11.2201C22.8632 11.1948 22.8583 11.1696 22.8485 11.1462C22.8388 11.1227 22.8242 11.1014 22.8058 11.0835C22.7874 11.0656 22.7655 11.0515 22.7414 11.042C22.7173 11.0325 22.6915 11.0278 22.6655 11.0282Z" fill="white"/>
<path d="M24.3286 11.0282C24.2771 11.0289 24.228 11.0495 24.1921 11.0855C24.1562 11.1215 24.1365 11.1699 24.1372 11.2201V11.9014C24.1368 11.9265 24.1416 11.9514 24.1512 11.9746C24.1608 11.9979 24.1751 12.0191 24.1931 12.0369C24.2112 12.0548 24.2328 12.0689 24.2565 12.0786C24.2803 12.0883 24.3058 12.0933 24.3315 12.0933C24.3573 12.0933 24.3828 12.0883 24.4065 12.0786C24.4303 12.0689 24.4518 12.0548 24.4699 12.0369C24.488 12.0191 24.5022 11.9979 24.5118 11.9746C24.5214 11.9514 24.5262 11.9265 24.5258 11.9014V11.2201C24.5262 11.1948 24.5214 11.1697 24.5116 11.1462C24.5018 11.1227 24.4873 11.1014 24.4689 11.0835C24.4505 11.0656 24.4286 11.0515 24.4045 11.042C24.3804 11.0325 24.3546 11.0278 24.3286 11.0282Z" fill="white"/>
<path d="M28.2786 19.4083C28.1067 19.3878 27.9164 19.4094 27.7202 19.472L26.6025 19.8285H23.5985C23.5728 19.8281 23.5472 19.8328 23.5233 19.8421C23.4994 19.8515 23.4777 19.8653 23.4593 19.8829C23.441 19.9005 23.4264 19.9215 23.4165 19.9446C23.4066 19.9678 23.4014 19.9926 23.4014 20.0177C23.4014 20.0427 23.4066 20.0676 23.4165 20.0907C23.4264 20.1138 23.441 20.1348 23.4593 20.1524C23.4777 20.17 23.4994 20.1839 23.5233 20.1932C23.5472 20.2026 23.5728 20.2072 23.5985 20.2069H26.6336C26.6541 20.2068 26.6746 20.2036 26.6941 20.1974L27.8412 19.8316C28.1467 19.7341 28.35 19.7782 28.4671 19.8798C28.5843 19.9815 28.6524 20.173 28.588 20.4797L28.2563 22.0591C28.1942 22.3547 27.8583 22.6216 27.5483 22.6216H23.5985C23.5728 22.6212 23.5472 22.6259 23.5233 22.6352C23.4994 22.6446 23.4777 22.6585 23.4593 22.6761C23.441 22.6937 23.4264 22.7146 23.4165 22.7378C23.4066 22.7609 23.4014 22.7857 23.4014 22.8108C23.4014 22.8359 23.4066 22.8607 23.4165 22.8838C23.4264 22.9069 23.441 22.9279 23.4593 22.9455C23.4777 22.9631 23.4994 22.977 23.5233 22.9864C23.5472 22.9957 23.5728 23.0003 23.5985 23H27.5483C28.0644 23 28.5336 22.6271 28.637 22.1349L28.9688 20.5555C29.0515 20.1617 28.9698 19.8091 28.7257 19.5973C28.6037 19.4914 28.4504 19.4289 28.2786 19.4083Z" stroke="white" stroke-width="0.8" mask="url(#path-2-outside-2)"/>
<path d="M23.5985 11.7324C23.5728 11.7321 23.5472 11.7367 23.5233 11.7461C23.4994 11.7554 23.4777 11.7693 23.4593 11.7869C23.441 11.8045 23.4264 11.8255 23.4165 11.8486C23.4066 11.8717 23.4014 11.8966 23.4014 11.9216C23.4014 11.9467 23.4066 11.9715 23.4165 11.9947C23.4264 12.0178 23.441 12.0388 23.4593 12.0564C23.4777 12.074 23.4994 12.0879 23.5233 12.0972C23.5472 12.1065 23.5728 12.1112 23.5985 12.1108H26.4673C26.7063 12.1108 26.8966 12.2961 26.8966 12.5288V14.9576C26.8966 14.9715 26.8982 14.9854 26.9013 14.999L27.2054 16.3198C27.327 16.8481 27.3484 17.7756 27.2513 18.3087L26.9977 19.7C26.9887 19.7494 27.0002 19.8002 27.0298 19.8414C27.0593 19.8825 27.1044 19.9105 27.1551 19.9193C27.2059 19.9281 27.2581 19.9168 27.3004 19.8881C27.3426 19.8593 27.3714 19.8154 27.3804 19.766L27.6339 18.3748C27.7452 17.764 27.724 16.8424 27.5846 16.2371L27.2852 14.9367V12.5288C27.2852 12.0913 26.9166 11.7324 26.4673 11.7324H23.5985Z" stroke="white" stroke-width="0.8" mask="url(#path-2-outside-2)"/>
<path d="M18.7214 19.4083C18.5496 19.4289 18.3963 19.4914 18.2743 19.5973C18.0302 19.8091 17.9485 20.1617 18.0312 20.5555L18.363 22.1349C18.4664 22.6271 18.9356 23 19.4517 23H23.4015C23.4272 23.0003 23.4528 22.9957 23.4767 22.9864C23.5006 22.977 23.5223 22.9631 23.5407 22.9455C23.559 22.9279 23.5736 22.9069 23.5835 22.8838C23.5934 22.8607 23.5986 22.8359 23.5986 22.8108C23.5986 22.7857 23.5934 22.7609 23.5835 22.7378C23.5736 22.7146 23.559 22.6937 23.5407 22.6761C23.5223 22.6585 23.5006 22.6446 23.4767 22.6352C23.4528 22.6259 23.4272 22.6212 23.4015 22.6216H19.4517C19.1417 22.6216 18.8058 22.3547 18.7437 22.0591L18.412 20.4797C18.3476 20.173 18.4157 19.9815 18.5329 19.8798C18.65 19.7782 18.8533 19.7341 19.1588 19.8316L20.3059 20.1974C20.3254 20.2036 20.3459 20.2068 20.3664 20.2069H23.4015C23.4272 20.2072 23.4528 20.2026 23.4767 20.1932C23.5006 20.1839 23.5223 20.17 23.5407 20.1524C23.559 20.1348 23.5736 20.1138 23.5835 20.0907C23.5934 20.0676 23.5986 20.0427 23.5986 20.0177C23.5986 19.9926 23.5934 19.9678 23.5835 19.9446C23.5736 19.9215 23.559 19.9005 23.5407 19.8829C23.5223 19.8653 23.5006 19.8515 23.4767 19.8421C23.4528 19.8328 23.4272 19.8281 23.4015 19.8285H20.3975L19.2798 19.472C19.0836 19.4094 18.8933 19.3878 18.7214 19.4083Z" stroke="white" stroke-width="0.8" mask="url(#path-2-outside-2)"/>
<path d="M20.5327 11.7324C20.0834 11.7324 19.7148 12.0913 19.7148 12.5288V14.9367L19.4154 16.2371C19.276 16.8424 19.2548 17.764 19.3661 18.3748L19.6196 19.766C19.6286 19.8154 19.6574 19.8593 19.6996 19.8881C19.7419 19.9168 19.7941 19.9281 19.8449 19.9193C19.8956 19.9105 19.9407 19.8825 19.9702 19.8414C19.9998 19.8002 20.0113 19.7494 20.0023 19.7L19.7487 18.3087C19.6516 17.7756 19.673 16.8481 19.7946 16.3198L20.0987 14.999C20.1018 14.9854 20.1034 14.9715 20.1034 14.9576V12.5288C20.1034 12.2961 20.2937 12.1108 20.5327 12.1108H23.4015C23.4272 12.1112 23.4528 12.1065 23.4767 12.0972C23.5006 12.0879 23.5223 12.074 23.5407 12.0564C23.559 12.0388 23.5736 12.0178 23.5835 11.9947C23.5934 11.9715 23.5986 11.9467 23.5986 11.9216C23.5986 11.8966 23.5934 11.8717 23.5835 11.8486C23.5736 11.8255 23.559 11.8045 23.5407 11.7869C23.5223 11.7693 23.5006 11.7554 23.4767 11.7461C23.4528 11.7367 23.4272 11.7321 23.4015 11.7324H20.5327Z" stroke="white" stroke-width="0.8" mask="url(#path-2-outside-2)"/>
<path d="M21.9874 13.2031C21.6757 13.2031 21.4189 13.4531 21.4189 13.7566V14.9374C21.4189 15.2409 21.6757 15.4909 21.9874 15.4909H25.0126C25.3243 15.4909 25.5811 15.2409 25.5811 14.9374V13.7566C25.5811 13.4531 25.3243 13.2031 25.0126 13.2031H21.9874ZM21.9874 13.5815H25.0126C25.1139 13.5815 25.1925 13.658 25.1925 13.7566V14.9374C25.1925 15.0361 25.114 15.1125 25.0126 15.1125H21.9874C21.886 15.1125 21.8075 15.0361 21.8075 14.9374V13.7566C21.8075 13.658 21.8861 13.5815 21.9874 13.5815Z" stroke="white" stroke-width="0.8" mask="url(#path-2-outside-2)"/>
<path d="M21.9874 9C21.6757 9 21.4189 9.25002 21.4189 9.55353V10.7343C21.4189 11.0378 21.6757 11.2878 21.9874 11.2878H25.0126C25.3243 11.2878 25.5811 11.0378 25.5811 10.7343V9.55353C25.5811 9.25002 25.3243 9 25.0126 9H21.9874ZM21.9874 9.37838H25.0126C25.114 9.37838 25.1925 9.45481 25.1925 9.55353V10.7343C25.1925 10.833 25.114 10.9094 25.0126 10.9094H21.9874C21.886 10.9094 21.8075 10.833 21.8075 10.7343V9.55353C21.8075 9.45481 21.886 9.37838 21.9874 9.37838Z" stroke="white" stroke-width="0.8" mask="url(#path-2-outside-2)"/>
<path d="M21.9874 17.2916C21.6757 17.2916 21.4189 17.5416 21.4189 17.8451V19.876C21.4185 19.9011 21.4233 19.926 21.4329 19.9492C21.4425 19.9725 21.4567 19.9937 21.4748 20.0115C21.4929 20.0294 21.5144 20.0435 21.5382 20.0532C21.562 20.0629 21.5874 20.0679 21.6132 20.0679C21.6389 20.0679 21.6644 20.0629 21.6882 20.0532C21.712 20.0435 21.7335 20.0294 21.7516 20.0115C21.7697 19.9937 21.7839 19.9725 21.7935 19.9492C21.8031 19.926 21.8079 19.9011 21.8075 19.876V17.8451C21.8075 17.7464 21.886 17.67 21.9874 17.67H25.0126C25.114 17.67 25.1925 17.7464 25.1925 17.8451V19.876C25.1921 19.9011 25.1969 19.926 25.2065 19.9492C25.2161 19.9725 25.2303 19.9937 25.2484 20.0115C25.2665 20.0294 25.288 20.0435 25.3118 20.0532C25.3356 20.0629 25.3611 20.0679 25.3868 20.0679C25.4126 20.0679 25.4381 20.0629 25.4618 20.0532C25.4856 20.0435 25.5071 20.0294 25.5252 20.0115C25.5433 19.9937 25.5575 19.9725 25.5671 19.9492C25.5767 19.926 25.5815 19.9011 25.5811 19.876V17.8451C25.5811 17.5416 25.3243 17.2916 25.0126 17.2916H21.9874Z" stroke="white" stroke-width="0.8" mask="url(#path-2-outside-2)"/>
<path d="M22.6655 11.0282C22.614 11.0289 22.5649 11.0496 22.529 11.0856C22.4932 11.1216 22.4734 11.1699 22.4742 11.2201V11.9014C22.4738 11.9265 22.4786 11.9514 22.4882 11.9746C22.4978 11.9979 22.512 12.0191 22.5301 12.0369C22.5482 12.0548 22.5697 12.0689 22.5935 12.0786C22.6172 12.0883 22.6427 12.0933 22.6685 12.0933C22.6942 12.0933 22.7197 12.0883 22.7435 12.0786C22.7672 12.0689 22.7888 12.0548 22.8069 12.0369C22.8249 12.0191 22.8392 11.9979 22.8488 11.9746C22.8584 11.9514 22.8632 11.9265 22.8628 11.9014V11.2201C22.8632 11.1948 22.8583 11.1696 22.8485 11.1462C22.8388 11.1227 22.8242 11.1014 22.8058 11.0835C22.7874 11.0656 22.7655 11.0515 22.7414 11.042C22.7173 11.0325 22.6915 11.0278 22.6655 11.0282Z" stroke="white" stroke-width="0.8" mask="url(#path-2-outside-2)"/>
<path d="M24.3286 11.0282C24.2771 11.0289 24.228 11.0495 24.1921 11.0855C24.1562 11.1215 24.1365 11.1699 24.1372 11.2201V11.9014C24.1368 11.9265 24.1416 11.9514 24.1512 11.9746C24.1608 11.9979 24.1751 12.0191 24.1931 12.0369C24.2112 12.0548 24.2328 12.0689 24.2565 12.0786C24.2803 12.0883 24.3058 12.0933 24.3315 12.0933C24.3573 12.0933 24.3828 12.0883 24.4065 12.0786C24.4303 12.0689 24.4518 12.0548 24.4699 12.0369C24.488 12.0191 24.5022 11.9979 24.5118 11.9746C24.5214 11.9514 24.5262 11.9265 24.5258 11.9014V11.2201C24.5262 11.1948 24.5214 11.1697 24.5116 11.1462C24.5018 11.1227 24.4873 11.1014 24.4689 11.0835C24.4505 11.0656 24.4286 11.0515 24.4045 11.042C24.3804 11.0325 24.3546 11.0278 24.3286 11.0282Z" stroke="white" stroke-width="0.8" mask="url(#path-2-outside-2)"/>
</svg>
