<svg width="32" height="32" viewBox="0 0 32 32" fill="none" xmlns="http://www.w3.org/2000/svg">
<path d="M25.9322 5.0773L25.9316 5.07776C24.3302 6.37997 22.7444 6.98262 21.1615 6.95835C19.5791 6.93408 17.9857 6.28302 16.3689 5.05115C16.1549 4.84612 15.8407 4.85387 15.6066 5.04894C13.9889 6.28222 12.3946 6.93407 10.8076 6.95835C9.22153 6.98262 7.62893 6.3803 6.0135 5.0788C5.66223 4.77161 5.10582 5.01079 5.07067 5.45821L5.17037 5.46604L5.07069 5.45797C4.69536 10.0947 4.85957 14.4006 6.37259 17.9751C7.88819 21.5557 10.7526 24.3917 15.7522 26.0947L15.7679 26.1H15.7844H16.2171H16.2337L16.2494 26.0946C21.2345 24.3917 24.0989 21.5556 25.6181 17.9752C27.1347 14.4008 27.3061 10.0951 26.9308 5.45835C26.913 5.21608 26.7525 5.0445 26.5551 4.97305C26.3587 4.90196 26.1198 4.927 25.9322 5.0773ZM16.5767 24.7536V6.60993C18.1102 7.58399 19.6559 8.09414 21.2026 8.10454C22.7525 8.11496 24.2954 7.62341 25.8198 6.6071C26.0763 10.6311 25.8672 14.3557 24.5506 17.4771C23.2313 20.6048 20.7961 23.1359 16.5767 24.7536ZM7.44372 17.4771C6.12711 14.3558 5.91102 10.6313 6.15348 6.60748C7.67819 7.6236 9.22774 8.11495 10.7809 8.10454C12.3305 8.09414 13.8758 7.5844 15.396 6.61081V24.7534C11.1911 23.1358 8.76302 20.6048 7.44372 17.4771Z" fill="white" stroke="white" stroke-width="0.2"/>
</svg>
