<svg width="32" height="32" viewBox="0 0 32 32" fill="none" xmlns="http://www.w3.org/2000/svg">
<mask id="path-1-outside-1" maskUnits="userSpaceOnUse" x="10" y="1" width="12" height="30" fill="black">
<rect fill="white" x="10" y="1" width="12" height="30"/>
<path fill-rule="evenodd" clip-rule="evenodd" d="M12.3329 2H20.0609C20.3961 2 20.7167 2.13322 20.9538 2.36964C21.1903 2.60606 21.3235 2.92739 21.3235 3.26189V7.55553C21.3235 7.89077 21.1903 8.21136 20.9538 8.44852C20.7167 8.68494 20.3961 8.81815 20.0609 8.81815H12.3329C11.9977 8.81815 11.6771 8.68494 11.4399 8.44852C11.2035 8.21136 11.0703 7.89077 11.0703 7.55553V3.26189C11.0703 2.92739 11.2035 2.60606 11.4399 2.36964C11.6771 2.13322 11.9977 2 12.3329 2ZM12.3329 2.73195H20.0609C20.2014 2.73195 20.3368 2.78831 20.4364 2.88713C20.5352 2.98667 20.5915 3.12135 20.5915 3.26189V7.55553C20.5915 7.69607 20.5352 7.83148 20.4364 7.93102C20.3368 8.02984 20.2014 8.0862 20.0609 8.0862H12.3329C12.1924 8.0862 12.0569 8.02984 11.9574 7.93102C11.8586 7.83148 11.8022 7.69607 11.8022 7.55553V3.26189C11.8022 3.12135 11.8586 2.98667 11.9574 2.88713C12.0569 2.78831 12.1924 2.73195 12.3329 2.73195ZM14.2257 5.40871C14.2257 4.8861 14.4336 4.38471 14.8025 4.01507C15.1721 3.64543 15.6743 3.43756 16.1969 3.43756C16.7195 3.43756 17.2216 3.64543 17.5912 4.01507C17.9602 4.38471 18.168 4.8861 18.168 5.40871C18.168 5.93133 17.9602 6.43345 17.5912 6.80308C17.2216 7.17272 16.7195 7.3806 16.1969 7.3806C15.6743 7.3806 15.1721 7.17272 14.8025 6.80308C14.4336 6.43345 14.2257 5.93133 14.2257 5.40871ZM14.9577 5.40871C14.9577 5.0808 15.088 4.76459 15.3207 4.53256C15.5528 4.30053 15.8682 4.16951 16.1969 4.16951C16.5255 4.16951 16.841 4.30053 17.073 4.53256C17.3058 4.76459 17.4361 5.0808 17.4361 5.40871C17.4361 5.73736 17.3058 6.05283 17.073 6.28559C16.841 6.51762 16.5255 6.64864 16.1969 6.64864C15.8682 6.64864 15.5528 6.51762 15.3207 6.28559C15.088 6.05283 14.9577 5.73736 14.9577 5.40871Z"/>
<path d="M13.4112 8.11085C13.3141 8.11086 13.221 8.14942 13.1524 8.21806C13.0838 8.28669 13.0452 8.37977 13.0452 8.47683V11.4866C13.0445 11.5351 13.0535 11.5832 13.0715 11.6282C13.0896 11.6732 13.1165 11.7142 13.1505 11.7487C13.1846 11.7832 13.2252 11.8107 13.2699 11.8294C13.3146 11.8481 13.3627 11.8578 13.4112 11.8578C13.4597 11.8578 13.5077 11.8481 13.5524 11.8294C13.5972 11.8107 13.6377 11.7832 13.6718 11.7487C13.7058 11.7142 13.7327 11.6732 13.7508 11.6282C13.7689 11.5832 13.7778 11.5351 13.7771 11.4866V8.84281H18.6166V9.81679C18.6159 9.86529 18.6249 9.91344 18.643 9.95844C18.6611 10.0034 18.6879 10.0444 18.722 10.0789C18.756 10.1135 18.7966 10.1409 18.8413 10.1596C18.8861 10.1783 18.9341 10.188 18.9826 10.188C19.0311 10.188 19.0791 10.1783 19.1239 10.1596C19.1686 10.1409 19.2092 10.1135 19.2432 10.0789C19.2773 10.0444 19.3041 10.0034 19.3222 9.95844C19.3403 9.91344 19.3493 9.86529 19.3486 9.81679V8.47683C19.3486 8.37977 19.31 8.28669 19.2414 8.21806C19.1727 8.14942 19.0797 8.11086 18.9826 8.11085H13.4112Z"/>
<path d="M13.4057 12.9013C13.3087 12.9027 13.2162 12.9426 13.1486 13.0122C13.081 13.0818 13.0438 13.1754 13.0452 13.2724V14.3076C13.0445 14.3561 13.0535 14.4042 13.0715 14.4492C13.0896 14.4942 13.1165 14.5352 13.1505 14.5697C13.1846 14.6043 13.2252 14.6317 13.2699 14.6504C13.3146 14.6691 13.3627 14.6788 13.4112 14.6788C13.4597 14.6788 13.5077 14.6691 13.5524 14.6504C13.5972 14.6317 13.6377 14.6043 13.6718 14.5697C13.7058 14.5352 13.7327 14.4942 13.7508 14.4492C13.7689 14.4042 13.7778 14.3561 13.7771 14.3076V13.2724C13.7778 13.2235 13.7687 13.1749 13.7503 13.1295C13.7318 13.0842 13.7045 13.043 13.6699 13.0084C13.6352 12.9738 13.594 12.9465 13.5487 12.9281C13.5033 12.9097 13.4547 12.9006 13.4057 12.9013Z"/>
<path d="M15.3152 22.8504C15.2182 22.8504 15.1251 22.889 15.0565 22.9576C14.9878 23.0263 14.9493 23.1194 14.9493 23.2164V24.5547C13.9909 25.0205 13.3274 25.9979 13.3274 27.1305C13.3274 28.7103 14.617 30 16.1969 30C17.7767 30 19.0664 28.7103 19.0664 27.1305C19.0664 25.9979 18.4028 25.0205 17.4445 24.5547V23.2164C17.4445 23.1194 17.4059 23.0263 17.3373 22.9576C17.2687 22.889 17.1756 22.8504 17.0785 22.8504H15.3152ZM15.6812 23.5824H16.7125V24.7867C16.7125 24.8611 16.7352 24.9337 16.7775 24.9949C16.8198 25.0561 16.8798 25.103 16.9494 25.1292C17.7573 25.4336 18.3344 26.2125 18.3344 27.1305C18.3344 28.3141 17.3806 29.268 16.1969 29.268C15.0132 29.268 14.0593 28.3141 14.0593 27.1305C14.0593 26.2125 14.6365 25.4336 15.4443 25.1292C15.514 25.103 15.5739 25.0561 15.6162 24.9949C15.6586 24.9337 15.6812 24.8611 15.6812 24.7867V23.5824Z"/>
<path fill-rule="evenodd" clip-rule="evenodd" d="M14.9496 27.1302C14.9496 26.7993 15.0806 26.4824 15.3149 26.2482C15.5484 26.0147 15.866 25.8829 16.1969 25.8829C16.5277 25.8829 16.8454 26.0147 17.0789 26.2482C17.3131 26.4824 17.4441 26.7993 17.4441 27.1302C17.4441 27.461 17.3131 27.7787 17.0789 28.0129C16.8454 28.2464 16.5277 28.3782 16.1969 28.3782C15.866 28.3782 15.5484 28.2464 15.3149 28.0129C15.0806 27.7787 14.9496 27.461 14.9496 27.1302ZM15.6816 27.1302C15.6816 26.994 15.7357 26.8623 15.8324 26.7657C15.929 26.6691 16.06 26.6149 16.1969 26.6149C16.3338 26.6149 16.4648 26.6691 16.5614 26.7657C16.658 26.8623 16.7122 26.994 16.7122 27.1302C16.7122 27.2671 16.658 27.3981 16.5614 27.4947C16.4648 27.5913 16.3338 27.6462 16.1969 27.6462C16.06 27.6462 15.929 27.5913 15.8324 27.4947C15.7357 27.3981 15.6816 27.2671 15.6816 27.1302Z"/>
<path d="M20.8351 9.15188C20.7297 9.13599 20.6207 9.14374 20.519 9.17347L11.6696 11.7572C11.6697 11.7572 11.6696 11.7572 11.6696 11.7572C11.2631 11.876 11 12.2265 11 12.6503V13.1086C11 13.3204 11.0927 13.5363 11.2655 13.6658C11.4382 13.7954 11.6714 13.8238 11.8748 13.7645L20.7241 11.1806C21.1308 11.0619 21.3937 10.7113 21.3937 10.2876V9.82922C21.3937 9.61737 21.301 9.40149 21.1283 9.27197C21.0419 9.20721 20.9404 9.16777 20.8351 9.15188ZM20.6618 9.89413V10.2876C20.6618 10.331 20.5606 10.4658 20.519 10.478L11.732 13.0437V12.6503C11.732 12.6068 11.8331 12.4719 11.8748 12.4597L20.6618 9.89413Z"/>
<path d="M20.8351 11.9729C20.7298 11.957 20.6206 11.9647 20.519 11.9943L11.6696 14.5781C11.6697 14.5781 11.6696 14.5781 11.6696 14.5781C11.2631 14.6969 11 15.0474 11 15.4711V15.9295C11 16.1413 11.0927 16.3572 11.2655 16.4867C11.4382 16.6163 11.6714 16.6448 11.8748 16.5854L20.7241 14.0016C20.7241 14.0016 20.7242 14.0016 20.7241 14.0016C21.1307 13.8828 21.3937 13.5323 21.3937 13.1086V12.6502C21.3937 12.4384 21.301 12.2225 21.1283 12.093C21.0419 12.0282 20.9404 11.9888 20.8351 11.9729ZM20.6618 12.7152V13.1086C20.6618 13.152 20.5607 13.287 20.519 13.2991L11.732 15.8646V15.4711C11.732 15.4277 11.8331 15.2929 11.8748 15.2807L20.6618 12.7152Z"/>
<path d="M20.8351 14.7938C20.7298 14.7779 20.6206 14.7855 20.519 14.8152L11.6696 17.3991C11.263 17.5178 11 17.8684 11 18.2922V18.7505C11 18.9623 11.0927 19.1782 11.2655 19.3077C11.4382 19.4373 11.6714 19.4658 11.8748 19.4064L20.7241 16.8227C21.1309 16.7039 21.3937 16.3532 21.3937 15.9295V15.4711C21.3937 15.2593 21.301 15.0435 21.1283 14.914C21.0419 14.8493 20.9404 14.8097 20.8351 14.7938ZM20.6618 15.536V15.9295C20.6618 15.9729 20.5605 16.1079 20.519 16.12L11.732 18.6856V18.2922C11.732 18.2487 11.8332 18.1139 11.8748 18.1017L20.6618 15.536Z"/>
<path d="M20.8351 17.6147C20.7298 17.5988 20.6206 17.6066 20.519 17.6363L11.6696 20.2201C11.263 20.3388 11 20.6893 11 21.113V21.5715C11 21.7834 11.0928 21.9991 11.2655 22.1286C11.4382 22.2581 11.6714 22.2868 11.8748 22.2274L20.7241 19.6436C21.1309 19.5248 21.3937 19.1742 21.3937 18.7505V18.2922C21.3937 18.0803 21.301 17.8644 21.1283 17.7349C21.0419 17.6701 20.9404 17.6306 20.8351 17.6147ZM20.6618 18.3571V18.7505C20.6618 18.7938 20.5605 18.9288 20.519 18.9409L11.732 21.5066V21.113C11.732 21.0696 11.8332 20.9348 11.8748 20.9226L20.6618 18.3571Z"/>
<path d="M18.977 11.1382C18.88 11.1397 18.7876 11.1796 18.72 11.2492C18.6524 11.3187 18.6152 11.4123 18.6166 11.5093V12.6378C18.6159 12.6863 18.6249 12.7345 18.643 12.7795C18.6611 12.8245 18.6879 12.8654 18.722 12.9C18.756 12.9345 18.7966 12.9619 18.8413 12.9807C18.8861 12.9994 18.9341 13.009 18.9826 13.009C19.0311 13.009 19.0791 12.9994 19.1239 12.9807C19.1686 12.9619 19.2092 12.9345 19.2432 12.9C19.2773 12.8654 19.3041 12.8245 19.3222 12.7795C19.3403 12.7345 19.3493 12.6863 19.3486 12.6378V11.5093C19.3493 11.4603 19.3401 11.4117 19.3217 11.3664C19.3032 11.321 19.2759 11.2798 19.2413 11.2452C19.2066 11.2106 19.1654 11.1833 19.12 11.1649C19.0746 11.1465 19.026 11.1374 18.977 11.1382Z"/>
<path d="M13.4057 15.7928C13.3087 15.7942 13.2162 15.8341 13.1486 15.9037C13.081 15.9733 13.0438 16.0669 13.0452 16.1639V17.1991C13.0445 17.2476 13.0535 17.2957 13.0715 17.3407C13.0896 17.3857 13.1165 17.4267 13.1505 17.4612C13.1846 17.4958 13.2252 17.5232 13.2699 17.5419C13.3146 17.5606 13.3627 17.5703 13.4112 17.5703C13.4597 17.5703 13.5077 17.5606 13.5524 17.5419C13.5972 17.5232 13.6377 17.4958 13.6718 17.4612C13.7058 17.4267 13.7327 17.3857 13.7508 17.3407C13.7689 17.2957 13.7778 17.2476 13.7771 17.1991V16.1639C13.7778 16.115 13.7687 16.0664 13.7503 16.021C13.7318 15.9757 13.7045 15.9345 13.6699 15.8999C13.6352 15.8653 13.594 15.838 13.5486 15.8196C13.5033 15.8012 13.4547 15.7921 13.4057 15.7928Z"/>
<path d="M18.977 14.0297C18.88 14.0312 18.7876 14.0711 18.72 14.1407C18.6524 14.2102 18.6152 14.3038 18.6166 14.4008V15.5292C18.6159 15.5777 18.6249 15.6258 18.643 15.6708C18.6611 15.7158 18.6879 15.7568 18.722 15.7913C18.756 15.8259 18.7966 15.8533 18.8413 15.872C18.8861 15.8907 18.9341 15.9004 18.9826 15.9004C19.0311 15.9004 19.0791 15.8907 19.1239 15.872C19.1686 15.8533 19.2092 15.8259 19.2432 15.7913C19.2773 15.7568 19.3041 15.7158 19.3222 15.6708C19.3403 15.6258 19.3493 15.5777 19.3486 15.5292V14.4008C19.3493 14.3518 19.3401 14.3032 19.3217 14.2579C19.3032 14.2125 19.2759 14.1713 19.2413 14.1367C19.2066 14.1021 19.1654 14.0748 19.12 14.0564C19.0746 14.038 19.026 14.0289 18.977 14.0297Z"/>
<path d="M13.4057 18.5432C13.3087 18.5446 13.2162 18.5845 13.1486 18.6541C13.081 18.7237 13.0438 18.8173 13.0452 18.9143V19.9494C13.0445 19.9979 13.0535 20.046 13.0715 20.091C13.0896 20.136 13.1165 20.177 13.1505 20.2115C13.1846 20.246 13.2252 20.2735 13.2699 20.2922C13.3146 20.3109 13.3627 20.3205 13.4112 20.3205C13.4597 20.3205 13.5077 20.3109 13.5524 20.2922C13.5972 20.2735 13.6377 20.246 13.6718 20.2115C13.7058 20.177 13.7327 20.136 13.7508 20.091C13.7689 20.046 13.7778 19.9979 13.7771 19.9494V18.9143C13.7778 18.8654 13.7687 18.8168 13.7503 18.7714C13.7318 18.7261 13.7045 18.6849 13.6699 18.6503C13.6352 18.6157 13.594 18.5884 13.5486 18.57C13.5033 18.5516 13.4547 18.5425 13.4057 18.5432Z"/>
<path d="M18.977 16.7802C18.88 16.7817 18.7876 16.8216 18.72 16.8912C18.6524 16.9608 18.6152 17.0544 18.6166 17.1514V18.2797C18.6159 18.3282 18.6249 18.3764 18.643 18.4214C18.6611 18.4664 18.6879 18.5073 18.722 18.5419C18.756 18.5764 18.7966 18.6038 18.8413 18.6226C18.8861 18.6413 18.9341 18.6509 18.9826 18.6509C19.0311 18.6509 19.0791 18.6413 19.1239 18.6226C19.1686 18.6038 19.2092 18.5764 19.2432 18.5419C19.2773 18.5073 19.3041 18.4664 19.3222 18.4214C19.3403 18.3764 19.3493 18.3282 19.3486 18.2797V17.1514C19.3493 17.1024 19.3401 17.0538 19.3217 17.0084C19.3032 16.9631 19.2759 16.9218 19.2413 16.8872C19.2066 16.8526 19.1654 16.8253 19.12 16.807C19.0746 16.7886 19.026 16.7795 18.977 16.7802Z"/>
<path d="M18.977 19.7193C18.88 19.7208 18.7876 19.7607 18.72 19.8303C18.6524 19.8999 18.6152 19.9935 18.6166 20.0905V22.7933C18.6166 22.8288 18.595 22.8504 18.5594 22.8504H13.8343C13.7988 22.8504 13.7771 22.8288 13.7771 22.7933V21.642C13.7778 21.5935 13.7689 21.5454 13.7508 21.5004C13.7327 21.4554 13.7058 21.4144 13.6718 21.3799C13.6377 21.3453 13.5972 21.3179 13.5524 21.2992C13.5077 21.2805 13.4597 21.2708 13.4112 21.2708C13.3627 21.2708 13.3146 21.2805 13.2699 21.2992C13.2252 21.3179 13.1846 21.3453 13.1505 21.3799C13.1165 21.4144 13.0896 21.4554 13.0715 21.5004C13.0535 21.5454 13.0445 21.5935 13.0452 21.642V22.7933C13.0452 23.2249 13.4027 23.5824 13.8343 23.5824H18.5594C18.991 23.5824 19.3486 23.2249 19.3486 22.7933V20.0905C19.3493 20.0415 19.3401 19.9929 19.3217 19.9475C19.3032 19.9022 19.2759 19.861 19.2413 19.8263C19.2066 19.7917 19.1654 19.7644 19.12 19.7461C19.0746 19.7277 19.026 19.7186 18.977 19.7193Z"/>
</mask>
<path fill-rule="evenodd" clip-rule="evenodd" d="M12.3329 2H20.0609C20.3961 2 20.7167 2.13322 20.9538 2.36964C21.1903 2.60606 21.3235 2.92739 21.3235 3.26189V7.55553C21.3235 7.89077 21.1903 8.21136 20.9538 8.44852C20.7167 8.68494 20.3961 8.81815 20.0609 8.81815H12.3329C11.9977 8.81815 11.6771 8.68494 11.4399 8.44852C11.2035 8.21136 11.0703 7.89077 11.0703 7.55553V3.26189C11.0703 2.92739 11.2035 2.60606 11.4399 2.36964C11.6771 2.13322 11.9977 2 12.3329 2ZM12.3329 2.73195H20.0609C20.2014 2.73195 20.3368 2.78831 20.4364 2.88713C20.5352 2.98667 20.5915 3.12135 20.5915 3.26189V7.55553C20.5915 7.69607 20.5352 7.83148 20.4364 7.93102C20.3368 8.02984 20.2014 8.0862 20.0609 8.0862H12.3329C12.1924 8.0862 12.0569 8.02984 11.9574 7.93102C11.8586 7.83148 11.8022 7.69607 11.8022 7.55553V3.26189C11.8022 3.12135 11.8586 2.98667 11.9574 2.88713C12.0569 2.78831 12.1924 2.73195 12.3329 2.73195ZM14.2257 5.40871C14.2257 4.8861 14.4336 4.38471 14.8025 4.01507C15.1721 3.64543 15.6743 3.43756 16.1969 3.43756C16.7195 3.43756 17.2216 3.64543 17.5912 4.01507C17.9602 4.38471 18.168 4.8861 18.168 5.40871C18.168 5.93133 17.9602 6.43345 17.5912 6.80308C17.2216 7.17272 16.7195 7.3806 16.1969 7.3806C15.6743 7.3806 15.1721 7.17272 14.8025 6.80308C14.4336 6.43345 14.2257 5.93133 14.2257 5.40871ZM14.9577 5.40871C14.9577 5.0808 15.088 4.76459 15.3207 4.53256C15.5528 4.30053 15.8682 4.16951 16.1969 4.16951C16.5255 4.16951 16.841 4.30053 17.073 4.53256C17.3058 4.76459 17.4361 5.0808 17.4361 5.40871C17.4361 5.73736 17.3058 6.05283 17.073 6.28559C16.841 6.51762 16.5255 6.64864 16.1969 6.64864C15.8682 6.64864 15.5528 6.51762 15.3207 6.28559C15.088 6.05283 14.9577 5.73736 14.9577 5.40871Z" fill="white"/>
<path d="M13.4112 8.11085C13.3141 8.11086 13.221 8.14942 13.1524 8.21806C13.0838 8.28669 13.0452 8.37977 13.0452 8.47683V11.4866C13.0445 11.5351 13.0535 11.5832 13.0715 11.6282C13.0896 11.6732 13.1165 11.7142 13.1505 11.7487C13.1846 11.7832 13.2252 11.8107 13.2699 11.8294C13.3146 11.8481 13.3627 11.8578 13.4112 11.8578C13.4597 11.8578 13.5077 11.8481 13.5524 11.8294C13.5972 11.8107 13.6377 11.7832 13.6718 11.7487C13.7058 11.7142 13.7327 11.6732 13.7508 11.6282C13.7689 11.5832 13.7778 11.5351 13.7771 11.4866V8.84281H18.6166V9.81679C18.6159 9.86529 18.6249 9.91344 18.643 9.95844C18.6611 10.0034 18.6879 10.0444 18.722 10.0789C18.756 10.1135 18.7966 10.1409 18.8413 10.1596C18.8861 10.1783 18.9341 10.188 18.9826 10.188C19.0311 10.188 19.0791 10.1783 19.1239 10.1596C19.1686 10.1409 19.2092 10.1135 19.2432 10.0789C19.2773 10.0444 19.3041 10.0034 19.3222 9.95844C19.3403 9.91344 19.3493 9.86529 19.3486 9.81679V8.47683C19.3486 8.37977 19.31 8.28669 19.2414 8.21806C19.1727 8.14942 19.0797 8.11086 18.9826 8.11085H13.4112Z" fill="white"/>
<path d="M13.4057 12.9013C13.3087 12.9027 13.2162 12.9426 13.1486 13.0122C13.081 13.0818 13.0438 13.1754 13.0452 13.2724V14.3076C13.0445 14.3561 13.0535 14.4042 13.0715 14.4492C13.0896 14.4942 13.1165 14.5352 13.1505 14.5697C13.1846 14.6043 13.2252 14.6317 13.2699 14.6504C13.3146 14.6691 13.3627 14.6788 13.4112 14.6788C13.4597 14.6788 13.5077 14.6691 13.5524 14.6504C13.5972 14.6317 13.6377 14.6043 13.6718 14.5697C13.7058 14.5352 13.7327 14.4942 13.7508 14.4492C13.7689 14.4042 13.7778 14.3561 13.7771 14.3076V13.2724C13.7778 13.2235 13.7687 13.1749 13.7503 13.1295C13.7318 13.0842 13.7045 13.043 13.6699 13.0084C13.6352 12.9738 13.594 12.9465 13.5487 12.9281C13.5033 12.9097 13.4547 12.9006 13.4057 12.9013Z" fill="white"/>
<path d="M15.3152 22.8504C15.2182 22.8504 15.1251 22.889 15.0565 22.9576C14.9878 23.0263 14.9493 23.1194 14.9493 23.2164V24.5547C13.9909 25.0205 13.3274 25.9979 13.3274 27.1305C13.3274 28.7103 14.617 30 16.1969 30C17.7767 30 19.0664 28.7103 19.0664 27.1305C19.0664 25.9979 18.4028 25.0205 17.4445 24.5547V23.2164C17.4445 23.1194 17.4059 23.0263 17.3373 22.9576C17.2687 22.889 17.1756 22.8504 17.0785 22.8504H15.3152ZM15.6812 23.5824H16.7125V24.7867C16.7125 24.8611 16.7352 24.9337 16.7775 24.9949C16.8198 25.0561 16.8798 25.103 16.9494 25.1292C17.7573 25.4336 18.3344 26.2125 18.3344 27.1305C18.3344 28.3141 17.3806 29.268 16.1969 29.268C15.0132 29.268 14.0593 28.3141 14.0593 27.1305C14.0593 26.2125 14.6365 25.4336 15.4443 25.1292C15.514 25.103 15.5739 25.0561 15.6162 24.9949C15.6586 24.9337 15.6812 24.8611 15.6812 24.7867V23.5824Z" fill="white"/>
<path fill-rule="evenodd" clip-rule="evenodd" d="M14.9496 27.1302C14.9496 26.7993 15.0806 26.4824 15.3149 26.2482C15.5484 26.0147 15.866 25.8829 16.1969 25.8829C16.5277 25.8829 16.8454 26.0147 17.0789 26.2482C17.3131 26.4824 17.4441 26.7993 17.4441 27.1302C17.4441 27.461 17.3131 27.7787 17.0789 28.0129C16.8454 28.2464 16.5277 28.3782 16.1969 28.3782C15.866 28.3782 15.5484 28.2464 15.3149 28.0129C15.0806 27.7787 14.9496 27.461 14.9496 27.1302ZM15.6816 27.1302C15.6816 26.994 15.7357 26.8623 15.8324 26.7657C15.929 26.6691 16.06 26.6149 16.1969 26.6149C16.3338 26.6149 16.4648 26.6691 16.5614 26.7657C16.658 26.8623 16.7122 26.994 16.7122 27.1302C16.7122 27.2671 16.658 27.3981 16.5614 27.4947C16.4648 27.5913 16.3338 27.6462 16.1969 27.6462C16.06 27.6462 15.929 27.5913 15.8324 27.4947C15.7357 27.3981 15.6816 27.2671 15.6816 27.1302Z" fill="white"/>
<path d="M20.8351 9.15188C20.7297 9.13599 20.6207 9.14374 20.519 9.17347L11.6696 11.7572C11.6697 11.7572 11.6696 11.7572 11.6696 11.7572C11.2631 11.876 11 12.2265 11 12.6503V13.1086C11 13.3204 11.0927 13.5363 11.2655 13.6658C11.4382 13.7954 11.6714 13.8238 11.8748 13.7645L20.7241 11.1806C21.1308 11.0619 21.3937 10.7113 21.3937 10.2876V9.82922C21.3937 9.61737 21.301 9.40149 21.1283 9.27197C21.0419 9.20721 20.9404 9.16777 20.8351 9.15188ZM20.6618 9.89413V10.2876C20.6618 10.331 20.5606 10.4658 20.519 10.478L11.732 13.0437V12.6503C11.732 12.6068 11.8331 12.4719 11.8748 12.4597L20.6618 9.89413Z" fill="white"/>
<path d="M20.8351 11.9729C20.7298 11.957 20.6206 11.9647 20.519 11.9943L11.6696 14.5781C11.6697 14.5781 11.6696 14.5781 11.6696 14.5781C11.2631 14.6969 11 15.0474 11 15.4711V15.9295C11 16.1413 11.0927 16.3572 11.2655 16.4867C11.4382 16.6163 11.6714 16.6448 11.8748 16.5854L20.7241 14.0016C20.7241 14.0016 20.7242 14.0016 20.7241 14.0016C21.1307 13.8828 21.3937 13.5323 21.3937 13.1086V12.6502C21.3937 12.4384 21.301 12.2225 21.1283 12.093C21.0419 12.0282 20.9404 11.9888 20.8351 11.9729ZM20.6618 12.7152V13.1086C20.6618 13.152 20.5607 13.287 20.519 13.2991L11.732 15.8646V15.4711C11.732 15.4277 11.8331 15.2929 11.8748 15.2807L20.6618 12.7152Z" fill="white"/>
<path d="M20.8351 14.7938C20.7298 14.7779 20.6206 14.7855 20.519 14.8152L11.6696 17.3991C11.263 17.5178 11 17.8684 11 18.2922V18.7505C11 18.9623 11.0927 19.1782 11.2655 19.3077C11.4382 19.4373 11.6714 19.4658 11.8748 19.4064L20.7241 16.8227C21.1309 16.7039 21.3937 16.3532 21.3937 15.9295V15.4711C21.3937 15.2593 21.301 15.0435 21.1283 14.914C21.0419 14.8493 20.9404 14.8097 20.8351 14.7938ZM20.6618 15.536V15.9295C20.6618 15.9729 20.5605 16.1079 20.519 16.12L11.732 18.6856V18.2922C11.732 18.2487 11.8332 18.1139 11.8748 18.1017L20.6618 15.536Z" fill="white"/>
<path d="M20.8351 17.6147C20.7298 17.5988 20.6206 17.6066 20.519 17.6363L11.6696 20.2201C11.263 20.3388 11 20.6893 11 21.113V21.5715C11 21.7834 11.0928 21.9991 11.2655 22.1286C11.4382 22.2581 11.6714 22.2868 11.8748 22.2274L20.7241 19.6436C21.1309 19.5248 21.3937 19.1742 21.3937 18.7505V18.2922C21.3937 18.0803 21.301 17.8644 21.1283 17.7349C21.0419 17.6701 20.9404 17.6306 20.8351 17.6147ZM20.6618 18.3571V18.7505C20.6618 18.7938 20.5605 18.9288 20.519 18.9409L11.732 21.5066V21.113C11.732 21.0696 11.8332 20.9348 11.8748 20.9226L20.6618 18.3571Z" fill="white"/>
<path d="M18.977 11.1382C18.88 11.1397 18.7876 11.1796 18.72 11.2492C18.6524 11.3187 18.6152 11.4123 18.6166 11.5093V12.6378C18.6159 12.6863 18.6249 12.7345 18.643 12.7795C18.6611 12.8245 18.6879 12.8654 18.722 12.9C18.756 12.9345 18.7966 12.9619 18.8413 12.9807C18.8861 12.9994 18.9341 13.009 18.9826 13.009C19.0311 13.009 19.0791 12.9994 19.1239 12.9807C19.1686 12.9619 19.2092 12.9345 19.2432 12.9C19.2773 12.8654 19.3041 12.8245 19.3222 12.7795C19.3403 12.7345 19.3493 12.6863 19.3486 12.6378V11.5093C19.3493 11.4603 19.3401 11.4117 19.3217 11.3664C19.3032 11.321 19.2759 11.2798 19.2413 11.2452C19.2066 11.2106 19.1654 11.1833 19.12 11.1649C19.0746 11.1465 19.026 11.1374 18.977 11.1382Z" fill="white"/>
<path d="M13.4057 15.7928C13.3087 15.7942 13.2162 15.8341 13.1486 15.9037C13.081 15.9733 13.0438 16.0669 13.0452 16.1639V17.1991C13.0445 17.2476 13.0535 17.2957 13.0715 17.3407C13.0896 17.3857 13.1165 17.4267 13.1505 17.4612C13.1846 17.4958 13.2252 17.5232 13.2699 17.5419C13.3146 17.5606 13.3627 17.5703 13.4112 17.5703C13.4597 17.5703 13.5077 17.5606 13.5524 17.5419C13.5972 17.5232 13.6377 17.4958 13.6718 17.4612C13.7058 17.4267 13.7327 17.3857 13.7508 17.3407C13.7689 17.2957 13.7778 17.2476 13.7771 17.1991V16.1639C13.7778 16.115 13.7687 16.0664 13.7503 16.021C13.7318 15.9757 13.7045 15.9345 13.6699 15.8999C13.6352 15.8653 13.594 15.838 13.5486 15.8196C13.5033 15.8012 13.4547 15.7921 13.4057 15.7928Z" fill="white"/>
<path d="M18.977 14.0297C18.88 14.0312 18.7876 14.0711 18.72 14.1407C18.6524 14.2102 18.6152 14.3038 18.6166 14.4008V15.5292C18.6159 15.5777 18.6249 15.6258 18.643 15.6708C18.6611 15.7158 18.6879 15.7568 18.722 15.7913C18.756 15.8259 18.7966 15.8533 18.8413 15.872C18.8861 15.8907 18.9341 15.9004 18.9826 15.9004C19.0311 15.9004 19.0791 15.8907 19.1239 15.872C19.1686 15.8533 19.2092 15.8259 19.2432 15.7913C19.2773 15.7568 19.3041 15.7158 19.3222 15.6708C19.3403 15.6258 19.3493 15.5777 19.3486 15.5292V14.4008C19.3493 14.3518 19.3401 14.3032 19.3217 14.2579C19.3032 14.2125 19.2759 14.1713 19.2413 14.1367C19.2066 14.1021 19.1654 14.0748 19.12 14.0564C19.0746 14.038 19.026 14.0289 18.977 14.0297Z" fill="white"/>
<path d="M13.4057 18.5432C13.3087 18.5446 13.2162 18.5845 13.1486 18.6541C13.081 18.7237 13.0438 18.8173 13.0452 18.9143V19.9494C13.0445 19.9979 13.0535 20.046 13.0715 20.091C13.0896 20.136 13.1165 20.177 13.1505 20.2115C13.1846 20.246 13.2252 20.2735 13.2699 20.2922C13.3146 20.3109 13.3627 20.3205 13.4112 20.3205C13.4597 20.3205 13.5077 20.3109 13.5524 20.2922C13.5972 20.2735 13.6377 20.246 13.6718 20.2115C13.7058 20.177 13.7327 20.136 13.7508 20.091C13.7689 20.046 13.7778 19.9979 13.7771 19.9494V18.9143C13.7778 18.8654 13.7687 18.8168 13.7503 18.7714C13.7318 18.7261 13.7045 18.6849 13.6699 18.6503C13.6352 18.6157 13.594 18.5884 13.5486 18.57C13.5033 18.5516 13.4547 18.5425 13.4057 18.5432Z" fill="white"/>
<path d="M18.977 16.7802C18.88 16.7817 18.7876 16.8216 18.72 16.8912C18.6524 16.9608 18.6152 17.0544 18.6166 17.1514V18.2797C18.6159 18.3282 18.6249 18.3764 18.643 18.4214C18.6611 18.4664 18.6879 18.5073 18.722 18.5419C18.756 18.5764 18.7966 18.6038 18.8413 18.6226C18.8861 18.6413 18.9341 18.6509 18.9826 18.6509C19.0311 18.6509 19.0791 18.6413 19.1239 18.6226C19.1686 18.6038 19.2092 18.5764 19.2432 18.5419C19.2773 18.5073 19.3041 18.4664 19.3222 18.4214C19.3403 18.3764 19.3493 18.3282 19.3486 18.2797V17.1514C19.3493 17.1024 19.3401 17.0538 19.3217 17.0084C19.3032 16.9631 19.2759 16.9218 19.2413 16.8872C19.2066 16.8526 19.1654 16.8253 19.12 16.807C19.0746 16.7886 19.026 16.7795 18.977 16.7802Z" fill="white"/>
<path d="M18.977 19.7193C18.88 19.7208 18.7876 19.7607 18.72 19.8303C18.6524 19.8999 18.6152 19.9935 18.6166 20.0905V22.7933C18.6166 22.8288 18.595 22.8504 18.5594 22.8504H13.8343C13.7988 22.8504 13.7771 22.8288 13.7771 22.7933V21.642C13.7778 21.5935 13.7689 21.5454 13.7508 21.5004C13.7327 21.4554 13.7058 21.4144 13.6718 21.3799C13.6377 21.3453 13.5972 21.3179 13.5524 21.2992C13.5077 21.2805 13.4597 21.2708 13.4112 21.2708C13.3627 21.2708 13.3146 21.2805 13.2699 21.2992C13.2252 21.3179 13.1846 21.3453 13.1505 21.3799C13.1165 21.4144 13.0896 21.4554 13.0715 21.5004C13.0535 21.5454 13.0445 21.5935 13.0452 21.642V22.7933C13.0452 23.2249 13.4027 23.5824 13.8343 23.5824H18.5594C18.991 23.5824 19.3486 23.2249 19.3486 22.7933V20.0905C19.3493 20.0415 19.3401 19.9929 19.3217 19.9475C19.3032 19.9022 19.2759 19.861 19.2413 19.8263C19.2066 19.7917 19.1654 19.7644 19.12 19.7461C19.0746 19.7277 19.026 19.7186 18.977 19.7193Z" fill="white"/>
<path d="M20.9538 2.36964L21.0953 2.22822L21.095 2.228L20.9538 2.36964ZM20.9538 8.44852L21.095 8.59016L21.0955 8.58972L20.9538 8.44852ZM11.4399 8.44852L11.2983 8.58972L11.2987 8.59016L11.4399 8.44852ZM11.4399 2.36964L11.2987 2.228L11.2985 2.22822L11.4399 2.36964ZM20.4364 2.88713L20.5783 2.74623L20.5773 2.74519L20.4364 2.88713ZM20.4364 7.93102L20.5773 8.07297L20.5783 8.07192L20.4364 7.93102ZM11.9574 7.93102L11.8155 8.07193L11.8165 8.07297L11.9574 7.93102ZM11.9574 2.88713L11.8165 2.74518L11.8155 2.74623L11.9574 2.88713ZM14.8025 4.01507L14.6611 3.87365L14.6609 3.87379L14.8025 4.01507ZM17.5912 4.01507L17.7328 3.87379L17.7327 3.87365L17.5912 4.01507ZM17.5912 6.80308L17.7327 6.94451L17.7328 6.94437L17.5912 6.80308ZM14.8025 6.80308L14.6609 6.94437L14.6611 6.94451L14.8025 6.80308ZM15.3207 4.53256L15.4619 4.67421L15.4621 4.67398L15.3207 4.53256ZM17.073 4.53256L16.9316 4.67398L16.9318 4.67421L17.073 4.53256ZM13.4112 8.11085V7.91085H13.4111L13.4112 8.11085ZM13.0452 8.47683L12.8452 8.47681V8.47683H13.0452ZM13.0452 11.4866L13.2452 11.4894V11.4866H13.0452ZM13.7771 11.4866H13.5771L13.5772 11.4894L13.7771 11.4866ZM13.7771 8.84281V8.64281H13.5771V8.84281H13.7771ZM18.6166 8.84281H18.8166V8.64281H18.6166V8.84281ZM18.6166 9.81679L18.8166 9.81962V9.81679H18.6166ZM19.3486 9.81679H19.1485L19.1486 9.81962L19.3486 9.81679ZM19.3486 8.47683H19.5486V8.47681L19.3486 8.47683ZM18.9826 8.11085L18.9826 7.91085H18.9826V8.11085ZM13.4057 12.9013L13.4028 12.7013H13.4028L13.4057 12.9013ZM13.0452 13.2724H13.2452L13.2452 13.2696L13.0452 13.2724ZM13.0452 14.3076L13.2452 14.3104V14.3076H13.0452ZM13.7771 14.3076H13.5771L13.5772 14.3104L13.7771 14.3076ZM13.7771 13.2724L13.5771 13.2696V13.2724H13.7771ZM15.3152 22.8504V22.6504H15.3152L15.3152 22.8504ZM14.9493 23.2164L14.7493 23.2164V23.2164H14.9493ZM14.9493 24.5547L15.0367 24.7345L15.1493 24.6798V24.5547H14.9493ZM13.3274 27.1305H13.5274H13.3274ZM17.4445 24.5547H17.2445V24.6798L17.3571 24.7345L17.4445 24.5547ZM17.4445 23.2164H17.6445V23.2164L17.4445 23.2164ZM17.0785 22.8504L17.0785 22.6504H17.0785V22.8504ZM15.6812 23.5824V23.3824H15.4812V23.5824H15.6812ZM16.7125 23.5824H16.9125V23.3824H16.7125V23.5824ZM16.7125 24.7867L16.9125 24.7867V24.7867H16.7125ZM16.9494 25.1292L16.8789 25.3164L16.8789 25.3164L16.9494 25.1292ZM18.3344 27.1305H18.1344H18.3344ZM14.0593 27.1305H14.2593H14.0593ZM15.4443 25.1292L15.5149 25.3164L15.5149 25.3164L15.4443 25.1292ZM15.6812 24.7867H15.4812V24.7867L15.6812 24.7867ZM15.3149 26.2482L15.1734 26.1068L15.3149 26.2482ZM17.0789 26.2482L17.2203 26.1068L17.0789 26.2482ZM17.0789 28.0129L17.2203 28.1543L17.0789 28.0129ZM15.3149 28.0129L15.1734 28.1543L15.3149 28.0129ZM20.8351 9.15188L20.8649 8.95412H20.8649L20.8351 9.15188ZM20.519 9.17347L20.575 9.36545L20.5751 9.36544L20.519 9.17347ZM11.2655 13.6658L11.1455 13.8259H11.1455L11.2655 13.6658ZM11.8748 13.7645L11.9308 13.9565H11.9308L11.8748 13.7645ZM20.7241 11.1806L20.6681 10.9886H20.6681L20.7241 11.1806ZM21.1283 9.27197L21.0083 9.43199L21.1283 9.27197ZM20.6618 9.89413H20.8618V9.62738L20.6057 9.70214L20.6618 9.89413ZM20.519 10.478L20.4629 10.286L20.4629 10.286L20.519 10.478ZM11.732 13.0437H11.532V13.3104L11.788 13.2357L11.732 13.0437ZM11.8748 12.4597L11.8187 12.2677L11.8187 12.2677L11.8748 12.4597ZM20.8351 11.9729L20.8649 11.7751L20.8351 11.9729ZM20.519 11.9943L20.575 12.1863H20.575L20.519 11.9943ZM11.2655 16.4867L11.1455 16.6467H11.1455L11.2655 16.4867ZM11.8748 16.5854L11.8187 16.3934L11.8187 16.3934L11.8748 16.5854ZM21.1283 12.093L21.2482 11.933L21.2482 11.933L21.1283 12.093ZM20.6618 12.7152H20.8618V12.4484L20.6057 12.5232L20.6618 12.7152ZM20.519 13.2991L20.575 13.4911L20.5751 13.4911L20.519 13.2991ZM11.732 15.8646H11.532V16.1313L11.788 16.0565L11.732 15.8646ZM11.8748 15.2807L11.8187 15.0887L11.8187 15.0887L11.8748 15.2807ZM20.8351 14.7938L20.8649 14.596L20.8351 14.7938ZM20.519 14.8152L20.4629 14.6232L20.4629 14.6232L20.519 14.8152ZM11.6696 17.3991L11.7257 17.5911H11.7257L11.6696 17.3991ZM11.2655 19.3077L11.3855 19.1477H11.3855L11.2655 19.3077ZM11.8748 19.4064L11.8187 19.2144L11.8187 19.2144L11.8748 19.4064ZM20.7241 16.8227L20.7802 17.0147L20.7241 16.8227ZM21.1283 14.914L21.2482 14.754H21.2482L21.1283 14.914ZM20.6618 15.536H20.8618V15.2693L20.6057 15.3441L20.6618 15.536ZM20.519 16.12L20.4629 15.928L20.4629 15.928L20.519 16.12ZM11.732 18.6856H11.532V18.9523L11.788 18.8776L11.732 18.6856ZM11.8748 18.1017L11.9308 18.2937H11.9308L11.8748 18.1017ZM20.8351 17.6147L20.8649 17.4169L20.8351 17.6147ZM20.519 17.6363L20.4629 17.4443H20.4629L20.519 17.6363ZM11.6696 20.2201L11.7257 20.4121H11.7257L11.6696 20.2201ZM11.2655 22.1286L11.1455 22.2886H11.1455L11.2655 22.1286ZM11.8748 22.2274L11.9308 22.4194H11.9308L11.8748 22.2274ZM20.7241 19.6436L20.6681 19.4516H20.6681L20.7241 19.6436ZM21.1283 17.7349L21.2482 17.5749H21.2482L21.1283 17.7349ZM20.6618 18.3571H20.8618V18.0903L20.6057 18.1651L20.6618 18.3571ZM20.519 18.9409L20.4629 18.7489H20.4629L20.519 18.9409ZM11.732 21.5066H11.532V21.7734L11.788 21.6986L11.732 21.5066ZM11.8748 20.9226L11.8187 20.7306H11.8187L11.8748 20.9226ZM18.977 11.1382L18.974 10.9382L18.977 11.1382ZM18.6166 11.5093H18.8166L18.8166 11.5065L18.6166 11.5093ZM18.6166 12.6378L18.8166 12.6407V12.6378H18.6166ZM19.3486 12.6378H19.1485L19.1486 12.6407L19.3486 12.6378ZM19.3486 11.5093L19.1486 11.5065V11.5093H19.3486ZM13.4057 15.7928L13.4028 15.5928H13.4028L13.4057 15.7928ZM13.0452 16.1639H13.2452L13.2452 16.1611L13.0452 16.1639ZM13.0452 17.1991L13.2452 17.2019V17.1991H13.0452ZM13.4112 17.5703V17.3703V17.5703ZM13.7771 17.1991H13.5771L13.5772 17.2019L13.7771 17.1991ZM13.7771 16.1639L13.5771 16.1611V16.1639H13.7771ZM18.977 14.0297L18.974 13.8297L18.977 14.0297ZM18.6166 14.4008H18.8166L18.8166 14.398L18.6166 14.4008ZM18.6166 15.5292L18.8166 15.532V15.5292H18.6166ZM19.3486 15.5292H19.1485L19.1486 15.532L19.3486 15.5292ZM19.3486 14.4008L19.1486 14.398V14.4008H19.3486ZM13.4057 18.5432L13.4028 18.3432H13.4028L13.4057 18.5432ZM13.0452 18.9143H13.2452L13.2452 18.9115L13.0452 18.9143ZM13.0452 19.9494L13.2452 19.9522V19.9494H13.0452ZM13.4112 20.3205V20.1205V20.3205ZM13.7771 19.9494H13.5771L13.5772 19.9522L13.7771 19.9494ZM13.7771 18.9143L13.5771 18.9115V18.9143H13.7771ZM18.977 16.7802L18.974 16.5803L18.977 16.7802ZM18.6166 17.1514H18.8166L18.8166 17.1485L18.6166 17.1514ZM18.6166 18.2797L18.8166 18.2826V18.2797H18.6166ZM18.9826 18.6509V18.4509V18.6509ZM19.3486 18.2797H19.1485L19.1486 18.2826L19.3486 18.2797ZM19.3486 17.1514L19.1486 17.1485V17.1514H19.3486ZM18.977 19.7193L18.974 19.5194L18.977 19.7193ZM18.6166 20.0905H18.8166L18.8166 20.0876L18.6166 20.0905ZM13.7771 21.642L13.5771 21.6392V21.642H13.7771ZM13.4112 21.2708V21.4708V21.2708ZM13.0452 21.642H13.2452L13.2452 21.6392L13.0452 21.642ZM19.3486 20.0905L19.1486 20.0876V20.0905H19.3486ZM12.3329 2.2H20.0609V1.8H12.3329V2.2ZM20.0609 2.2C20.3429 2.2 20.6128 2.31205 20.8126 2.51128L21.095 2.228C20.8206 1.95438 20.4493 1.8 20.0609 1.8V2.2ZM20.8124 2.51106C21.0114 2.71 21.1235 2.98046 21.1235 3.26189H21.5235C21.5235 2.87431 21.3692 2.50212 21.0953 2.22822L20.8124 2.51106ZM21.1235 3.26189V7.55553H21.5235V3.26189H21.1235ZM21.1235 7.55553C21.1235 7.83757 21.0114 8.10747 20.8122 8.30731L21.0955 8.58972C21.3691 8.31526 21.5235 7.94396 21.5235 7.55553H21.1235ZM20.8126 8.30688C20.6128 8.50611 20.3429 8.61815 20.0609 8.61815V9.01815C20.4493 9.01815 20.8206 8.86377 21.095 8.59016L20.8126 8.30688ZM20.0609 8.61815H12.3329V9.01815H20.0609V8.61815ZM12.3329 8.61815C12.0508 8.61815 11.781 8.50611 11.5811 8.30688L11.2987 8.59016C11.5732 8.86377 11.9445 9.01815 12.3329 9.01815V8.61815ZM11.5815 8.30731C11.3823 8.10747 11.2703 7.83757 11.2703 7.55553H10.8703C10.8703 7.94396 11.0247 8.31526 11.2983 8.58972L11.5815 8.30731ZM11.2703 7.55553V3.26189H10.8703V7.55553H11.2703ZM11.2703 3.26189C11.2703 2.98046 11.3824 2.71 11.5813 2.51106L11.2985 2.22822C11.0246 2.50212 10.8703 2.87431 10.8703 3.26189H11.2703ZM11.5811 2.51128C11.781 2.31205 12.0508 2.2 12.3329 2.2V1.8C11.9445 1.8 11.5732 1.95438 11.2987 2.228L11.5811 2.51128ZM12.3329 2.93195H20.0609V2.53195H12.3329V2.93195ZM20.0609 2.93195C20.1481 2.93195 20.233 2.9671 20.2955 3.02907L20.5773 2.74519C20.4406 2.60953 20.2547 2.53195 20.0609 2.53195V2.93195ZM20.2944 3.02803C20.3566 3.09067 20.3915 3.17492 20.3915 3.26189H20.7915C20.7915 3.06779 20.7137 2.88268 20.5783 2.74623L20.2944 3.02803ZM20.3915 3.26189V7.55553H20.7915V3.26189H20.3915ZM20.3915 7.55553C20.3915 7.64279 20.3564 7.7277 20.2944 7.79013L20.5783 8.07192C20.714 7.93526 20.7915 7.74934 20.7915 7.55553H20.3915ZM20.2955 7.78908C20.233 7.85105 20.1481 7.8862 20.0609 7.8862V8.2862C20.2547 8.2862 20.4406 8.20862 20.5773 8.07297L20.2955 7.78908ZM20.0609 7.8862H12.3329V8.2862H20.0609V7.8862ZM12.3329 7.8862C12.2456 7.8862 12.1607 7.85105 12.0983 7.78908L11.8165 8.07297C11.9532 8.20862 12.1391 8.2862 12.3329 8.2862V7.8862ZM12.0993 7.79013C12.0374 7.7277 12.0022 7.64279 12.0022 7.55553H11.6022C11.6022 7.74934 11.6798 7.93526 11.8155 8.07192L12.0993 7.79013ZM12.0022 7.55553V3.26189H11.6022V7.55553H12.0022ZM12.0022 3.26189C12.0022 3.17492 12.0372 3.09067 12.0993 3.02803L11.8155 2.74623C11.68 2.88268 11.6022 3.06779 11.6022 3.26189H12.0022ZM12.0983 3.02907C12.1607 2.9671 12.2456 2.93195 12.3329 2.93195V2.53195C12.1391 2.53195 11.9532 2.60953 11.8165 2.74519L12.0983 3.02907ZM14.4257 5.40871C14.4257 4.93917 14.6125 4.48857 14.9441 4.15635L14.6609 3.87379C14.2547 4.28085 14.0257 4.83302 14.0257 5.40871H14.4257ZM14.9439 4.15649C15.276 3.82438 15.7273 3.63756 16.1969 3.63756V3.23756C15.6212 3.23756 15.0682 3.46649 14.6611 3.87365L14.9439 4.15649ZM16.1969 3.63756C16.6665 3.63756 17.1177 3.82438 17.4498 4.15649L17.7327 3.87365C17.3255 3.46649 16.7725 3.23756 16.1969 3.23756V3.63756ZM17.4497 4.15635C17.7812 4.48857 17.968 4.93917 17.968 5.40871H18.368C18.368 4.83302 18.1391 4.28085 17.7328 3.87379L17.4497 4.15635ZM17.968 5.40871C17.968 5.87833 17.7812 6.32964 17.4497 6.6618L17.7328 6.94437C18.1391 6.53725 18.368 5.98433 18.368 5.40871H17.968ZM17.4498 6.66166C17.1177 6.99378 16.6665 7.1806 16.1969 7.1806V7.5806C16.7725 7.5806 17.3255 7.35166 17.7327 6.94451L17.4498 6.66166ZM16.1969 7.1806C15.7273 7.1806 15.276 6.99378 14.9439 6.66166L14.6611 6.94451C15.0682 7.35166 15.6212 7.5806 16.1969 7.5806V7.1806ZM14.9441 6.6618C14.6126 6.32964 14.4257 5.87833 14.4257 5.40871H14.0257C14.0257 5.98433 14.2546 6.53725 14.6609 6.94437L14.9441 6.6618ZM15.1577 5.40871C15.1577 5.13361 15.267 4.86847 15.4619 4.67421L15.1795 4.39092C14.9089 4.66071 14.7577 5.02798 14.7577 5.40871H15.1577ZM15.4621 4.67398C15.6567 4.47939 15.9214 4.36951 16.1969 4.36951V3.96951C15.8151 3.96951 15.4488 4.12167 15.1793 4.39114L15.4621 4.67398ZM16.1969 4.36951C16.4724 4.36951 16.737 4.47939 16.9316 4.67398L17.2144 4.39114C16.945 4.12167 16.5787 3.96951 16.1969 3.96951V4.36951ZM16.9318 4.67421C17.1267 4.86847 17.2361 5.13361 17.2361 5.40871H17.6361C17.6361 5.02799 17.4849 4.66071 17.2142 4.39092L16.9318 4.67421ZM17.2361 5.40871C17.2361 5.68443 17.1268 5.949 16.9316 6.14417L17.2144 6.42701C17.4848 6.15666 17.6361 5.79029 17.6361 5.40871H17.2361ZM16.9316 6.14417C16.737 6.33876 16.4724 6.44864 16.1969 6.44864V6.84864C16.5787 6.84864 16.945 6.69648 17.2144 6.42701L16.9316 6.14417ZM16.1969 6.44864C15.9214 6.44864 15.6567 6.33876 15.4621 6.14417L15.1793 6.42701C15.4488 6.69648 15.8151 6.84864 16.1969 6.84864V6.44864ZM15.4621 6.14417C15.267 5.949 15.1577 5.68443 15.1577 5.40871H14.7577C14.7577 5.79029 14.909 6.15666 15.1793 6.42701L15.4621 6.14417ZM13.4111 7.91085C13.261 7.91087 13.1171 7.9705 13.011 8.07663L13.2938 8.35948C13.3249 8.32835 13.3672 8.31086 13.4112 8.31085L13.4111 7.91085ZM13.011 8.07663C12.9048 8.18277 12.8452 8.32671 12.8452 8.47681L13.2452 8.47685C13.2452 8.43283 13.2627 8.39061 13.2938 8.35948L13.011 8.07663ZM12.8452 8.47683V11.4866H13.2452V8.47683H12.8452ZM12.8452 11.4837C12.8441 11.5587 12.858 11.6332 12.886 11.7028L13.2571 11.5536C13.2489 11.5332 13.2449 11.5114 13.2452 11.4894L12.8452 11.4837ZM12.886 11.7028C12.9139 11.7724 12.9555 11.8357 13.0081 11.8891L13.2929 11.6083C13.2775 11.5926 13.2653 11.574 13.2571 11.5536L12.886 11.7028ZM13.0081 11.8891C13.0608 11.9425 13.1235 11.985 13.1927 12.0139L13.3471 11.6449C13.3268 11.6364 13.3084 11.624 13.2929 11.6083L13.0081 11.8891ZM13.1927 12.0139C13.2619 12.0428 13.3362 12.0578 13.4112 12.0578V11.6578C13.3892 11.6578 13.3674 11.6534 13.3471 11.6449L13.1927 12.0139ZM13.4112 12.0578C13.4862 12.0578 13.5604 12.0428 13.6296 12.0139L13.4752 11.6449C13.4549 11.6534 13.4332 11.6578 13.4112 11.6578V12.0578ZM13.6296 12.0139C13.6988 11.985 13.7616 11.9425 13.8142 11.8891L13.5294 11.6083C13.5139 11.624 13.4955 11.6364 13.4752 11.6449L13.6296 12.0139ZM13.8142 11.8891C13.8669 11.8357 13.9084 11.7724 13.9364 11.7028L13.5652 11.5536C13.557 11.5741 13.5448 11.5926 13.5294 11.6083L13.8142 11.8891ZM13.9364 11.7028C13.9643 11.6332 13.9782 11.5587 13.9771 11.4837L13.5772 11.4894C13.5775 11.5114 13.5734 11.5332 13.5652 11.5536L13.9364 11.7028ZM13.9771 11.4866V8.84281H13.5771V11.4866H13.9771ZM13.7771 9.04281H18.6166V8.64281H13.7771V9.04281ZM18.4166 8.84281V9.81679H18.8166V8.84281H18.4166ZM18.4166 9.81396C18.4156 9.88896 18.4294 9.96342 18.4574 10.033L18.8285 9.88387C18.8203 9.86345 18.8163 9.84162 18.8166 9.81962L18.4166 9.81396ZM18.4574 10.033C18.4854 10.1026 18.5269 10.166 18.5795 10.2194L18.8644 9.93852C18.8489 9.92286 18.8368 9.90428 18.8285 9.88387L18.4574 10.033ZM18.5795 10.2194C18.6322 10.2728 18.6949 10.3152 18.7641 10.3441L18.9185 9.97512C18.8982 9.96663 18.8798 9.95419 18.8644 9.93852L18.5795 10.2194ZM18.7641 10.3441C18.8333 10.3731 18.9076 10.388 18.9826 10.388V9.98798C18.9606 9.98798 18.9388 9.98361 18.9185 9.97512L18.7641 10.3441ZM18.9826 10.388C19.0576 10.388 19.1319 10.3731 19.201 10.3441L19.0467 9.97512C19.0264 9.98361 19.0046 9.98798 18.9826 9.98798V10.388ZM19.201 10.3441C19.2702 10.3152 19.333 10.2728 19.3856 10.2194L19.1008 9.93852C19.0854 9.95419 19.067 9.96663 19.0467 9.97512L19.201 10.3441ZM19.3856 10.2194C19.4383 10.166 19.4798 10.1026 19.5078 10.033L19.1366 9.88387C19.1284 9.90428 19.1163 9.92286 19.1008 9.93852L19.3856 10.2194ZM19.5078 10.033C19.5358 9.96342 19.5496 9.88896 19.5485 9.81396L19.1486 9.81962C19.1489 9.84162 19.1448 9.86345 19.1366 9.88387L19.5078 10.033ZM19.5486 9.81679V8.47683H19.1486V9.81679H19.5486ZM19.5486 8.47681C19.5486 8.32671 19.4889 8.18277 19.3828 8.07663L19.0999 8.35948C19.1311 8.39061 19.1486 8.43283 19.1486 8.47685L19.5486 8.47681ZM19.3828 8.07663C19.2767 7.9705 19.1327 7.91087 18.9826 7.91085L18.9826 8.31085C19.0266 8.31086 19.0688 8.32835 19.0999 8.35948L19.3828 8.07663ZM18.9826 7.91085H13.4112V8.31085H18.9826V7.91085ZM13.4028 12.7013C13.2527 12.7035 13.1097 12.7652 13.0052 12.8729L13.2921 13.1516C13.3228 13.12 13.3647 13.1019 13.4087 13.1013L13.4028 12.7013ZM13.0052 12.8729C12.9006 12.9805 12.8431 13.1252 12.8452 13.2752L13.2452 13.2696C13.2445 13.2256 13.2614 13.1832 13.2921 13.1516L13.0052 12.8729ZM12.8452 13.2724V14.3076H13.2452V13.2724H12.8452ZM12.8452 14.3048C12.8441 14.3798 12.858 14.4542 12.886 14.5238L13.2571 14.3747C13.2489 14.3543 13.2449 14.3324 13.2452 14.3104L12.8452 14.3048ZM12.886 14.5238C12.9139 14.5934 12.9554 14.6568 13.0081 14.7102L13.2929 14.4293C13.2775 14.4137 13.2653 14.3951 13.2571 14.3747L12.886 14.5238ZM13.0081 14.7102C13.0608 14.7636 13.1235 14.806 13.1927 14.8349L13.3471 14.4659C13.3268 14.4574 13.3084 14.445 13.2929 14.4293L13.0081 14.7102ZM13.1927 14.8349C13.2619 14.8639 13.3362 14.8788 13.4112 14.8788V14.4788C13.3892 14.4788 13.3674 14.4744 13.3471 14.4659L13.1927 14.8349ZM13.4112 14.8788C13.4862 14.8788 13.5604 14.8639 13.6296 14.8349L13.4752 14.4659C13.4549 14.4744 13.4332 14.4788 13.4112 14.4788V14.8788ZM13.6296 14.8349C13.6988 14.806 13.7616 14.7636 13.8142 14.7102L13.5294 14.4293C13.5139 14.445 13.4955 14.4574 13.4752 14.4659L13.6296 14.8349ZM13.8142 14.7102C13.8669 14.6567 13.9084 14.5934 13.9364 14.5238L13.5652 14.3747C13.557 14.3951 13.5448 14.4137 13.5294 14.4293L13.8142 14.7102ZM13.9364 14.5238C13.9643 14.4542 13.9782 14.3798 13.9771 14.3048L13.5772 14.3104C13.5775 14.3324 13.5734 14.3543 13.5652 14.3747L13.9364 14.5238ZM13.9771 14.3076V13.2724H13.5771V14.3076H13.9771ZM13.9771 13.2752C13.9782 13.1995 13.9641 13.1244 13.9356 13.0542L13.565 13.2048C13.5733 13.2254 13.5775 13.2474 13.5772 13.2696L13.9771 13.2752ZM13.9356 13.0542C13.9071 12.9841 13.8648 12.9204 13.8112 12.8669L13.5285 13.1498C13.5442 13.1655 13.5566 13.1842 13.565 13.2048L13.9356 13.0542ZM13.8112 12.8669C13.7577 12.8134 13.6939 12.7711 13.6238 12.7427L13.4735 13.1134C13.4941 13.1218 13.5128 13.1341 13.5285 13.1498L13.8112 12.8669ZM13.6238 12.7427C13.5536 12.7143 13.4785 12.7002 13.4028 12.7013L13.4087 13.1013C13.4309 13.1009 13.4529 13.1051 13.4735 13.1134L13.6238 12.7427ZM15.3152 22.6504C15.1651 22.6505 15.0212 22.7101 14.915 22.8162L15.1979 23.0991C15.229 23.0679 15.2712 23.0504 15.3153 23.0504L15.3152 22.6504ZM14.915 22.8162C14.8089 22.9224 14.7493 23.0663 14.7493 23.2164L15.1493 23.2164C15.1493 23.1724 15.1668 23.1302 15.1979 23.0991L14.915 22.8162ZM14.7493 23.2164V24.5547H15.1493V23.2164H14.7493ZM14.8618 24.3748C13.8382 24.8724 13.1274 25.9175 13.1274 27.1305H13.5274C13.5274 26.0783 14.1437 25.1686 15.0367 24.7345L14.8618 24.3748ZM13.1274 27.1305C13.1274 28.8208 14.5065 30.2 16.1969 30.2V29.8C14.7275 29.8 13.5274 28.5999 13.5274 27.1305H13.1274ZM16.1969 30.2C17.8872 30.2 19.2664 28.8208 19.2664 27.1305H18.8664C18.8664 28.5999 17.6663 29.8 16.1969 29.8V30.2ZM19.2664 27.1305C19.2664 25.9175 18.5556 24.8724 17.5319 24.3748L17.3571 24.7345C18.2501 25.1686 18.8664 26.0783 18.8664 27.1305H19.2664ZM17.6445 24.5547V23.2164H17.2445V24.5547H17.6445ZM17.6445 23.2164C17.6445 23.0663 17.5848 22.9224 17.4787 22.8162L17.1959 23.0991C17.227 23.1302 17.2445 23.1724 17.2445 23.2164L17.6445 23.2164ZM17.4787 22.8162C17.3726 22.7101 17.2286 22.6505 17.0785 22.6504L17.0785 23.0504C17.1225 23.0504 17.1647 23.0679 17.1959 23.0991L17.4787 22.8162ZM17.0785 22.6504H15.3152V23.0504H17.0785V22.6504ZM15.6812 23.7824H16.7125V23.3824H15.6812V23.7824ZM16.5125 23.5824V24.7867H16.9125V23.5824H16.5125ZM16.5125 24.7867C16.5125 24.9017 16.5476 25.014 16.613 25.1087L16.942 24.8812C16.9228 24.8534 16.9125 24.8205 16.9125 24.7867L16.5125 24.7867ZM16.613 25.1087C16.6785 25.2033 16.7712 25.2758 16.8789 25.3164L17.02 24.9421C16.9884 24.9302 16.9612 24.9089 16.942 24.8812L16.613 25.1087ZM16.8789 25.3164C17.6117 25.5925 18.1344 26.2988 18.1344 27.1305H18.5344C18.5344 26.1263 17.9029 25.2748 17.0199 24.9421L16.8789 25.3164ZM18.1344 27.1305C18.1344 28.2037 17.2701 29.068 16.1969 29.068V29.468C17.491 29.468 18.5344 28.4246 18.5344 27.1305H18.1344ZM16.1969 29.068C15.1236 29.068 14.2593 28.2037 14.2593 27.1305H13.8593C13.8593 28.4246 14.9027 29.468 16.1969 29.468V29.068ZM14.2593 27.1305C14.2593 26.2988 14.782 25.5925 15.5149 25.3164L15.3738 24.9421C14.4909 25.2748 13.8593 26.1263 13.8593 27.1305H14.2593ZM15.5149 25.3164C15.6226 25.2758 15.7153 25.2033 15.7807 25.1087L15.4517 24.8812C15.4326 24.9089 15.4054 24.9302 15.3738 24.9421L15.5149 25.3164ZM15.7807 25.1087C15.8462 25.0141 15.8812 24.9017 15.8812 24.7867L15.4812 24.7867C15.4812 24.8205 15.4709 24.8534 15.4517 24.8812L15.7807 25.1087ZM15.8812 24.7867V23.5824H15.4812V24.7867H15.8812ZM15.1496 27.1302C15.1496 26.8523 15.2596 26.5863 15.4563 26.3896L15.1734 26.1068C14.9017 26.3785 14.7496 26.7464 14.7496 27.1302H15.1496ZM15.4563 26.3896C15.6523 26.1936 15.9191 26.0829 16.1969 26.0829V25.6829C15.813 25.6829 15.4444 25.8358 15.1734 26.1068L15.4563 26.3896ZM16.1969 26.0829C16.4747 26.0829 16.7415 26.1936 16.9375 26.3896L17.2203 26.1068C16.9493 25.8358 16.5808 25.6829 16.1969 25.6829V26.0829ZM16.9375 26.3896C17.1341 26.5863 17.2441 26.8523 17.2441 27.1302H17.6441C17.6441 26.7464 17.4921 26.3785 17.2203 26.1068L16.9375 26.3896ZM17.2441 27.1302C17.2441 27.4082 17.134 27.6749 16.9375 27.8715L17.2203 28.1543C17.4922 27.8825 17.6441 27.5139 17.6441 27.1302H17.2441ZM16.9375 27.8715C16.7415 28.0675 16.4747 28.1782 16.1969 28.1782V28.5782C16.5808 28.5782 16.9493 28.4253 17.2203 28.1543L16.9375 27.8715ZM16.1969 28.1782C15.9191 28.1782 15.6523 28.0675 15.4563 27.8715L15.1734 28.1543C15.4444 28.4253 15.813 28.5782 16.1969 28.5782V28.1782ZM15.4563 27.8715C15.2597 27.6749 15.1496 27.4082 15.1496 27.1302H14.7496C14.7496 27.5139 14.9016 27.8825 15.1734 28.1543L15.4563 27.8715ZM15.8816 27.1302C15.8816 27.0468 15.9149 26.966 15.9738 26.9071L15.6909 26.6243C15.5566 26.7586 15.4816 26.9413 15.4816 27.1302H15.8816ZM15.9738 26.9071C16.0328 26.8481 16.1129 26.8149 16.1969 26.8149V26.4149C16.0071 26.4149 15.8252 26.49 15.6909 26.6243L15.9738 26.9071ZM16.1969 26.8149C16.2809 26.8149 16.361 26.8481 16.42 26.9071L16.7028 26.6243C16.5686 26.49 16.3866 26.4149 16.1969 26.4149V26.8149ZM16.42 26.9071C16.4789 26.966 16.5122 27.0468 16.5122 27.1302H16.9122C16.9122 26.9413 16.8372 26.7586 16.7028 26.6243L16.42 26.9071ZM16.5122 27.1302C16.5122 27.2142 16.479 27.2943 16.42 27.3533L16.7028 27.6361C16.837 27.5019 16.9122 27.32 16.9122 27.1302H16.5122ZM16.42 27.3533C16.3605 27.4128 16.2801 27.4462 16.1969 27.4462V27.8462C16.3874 27.8462 16.5691 27.7698 16.7028 27.6361L16.42 27.3533ZM16.1969 27.4462C16.1136 27.4462 16.0333 27.4128 15.9738 27.3533L15.6909 27.6361C15.8247 27.7698 16.0064 27.8462 16.1969 27.8462V27.4462ZM15.9738 27.3533C15.9148 27.2943 15.8816 27.2142 15.8816 27.1302H15.4816C15.4816 27.32 15.5567 27.5019 15.6909 27.6361L15.9738 27.3533ZM20.8649 8.95412C20.7304 8.93384 20.592 8.94375 20.4629 8.9815L20.5751 9.36544C20.6493 9.34374 20.7291 9.33815 20.8052 9.34964L20.8649 8.95412ZM20.4629 8.98148L11.6136 11.5652L11.7257 11.9492L20.575 9.36545L20.4629 8.98148ZM11.6697 11.5572C11.6697 11.5572 11.6697 11.5572 11.6697 11.5572C11.6697 11.5572 11.6697 11.5572 11.6697 11.5572C11.6697 11.5572 11.6697 11.5572 11.6697 11.5572C11.6697 11.5572 11.6697 11.5572 11.6697 11.5572C11.6697 11.5572 11.6698 11.5572 11.6699 11.5572C11.6699 11.5572 11.67 11.5572 11.67 11.5572C11.6701 11.5572 11.6702 11.5572 11.6704 11.5572C11.6705 11.5572 11.6708 11.5572 11.6712 11.5572C11.6714 11.5572 11.6721 11.5572 11.6725 11.5572C11.6735 11.5572 11.6806 11.5575 11.6868 11.5579C11.8696 11.7601 11.6774 11.957 11.6739 11.9571C11.673 11.9572 11.6719 11.9572 11.6715 11.9572C11.671 11.9572 11.6705 11.9572 11.6705 11.9572C11.6703 11.9572 11.6701 11.9572 11.67 11.9572C11.67 11.9572 11.6699 11.9572 11.6699 11.9572C11.6698 11.9572 11.6698 11.9572 11.6698 11.9572C11.6697 11.9572 11.6697 11.9572 11.6697 11.9572C11.6697 11.9572 11.6697 11.9572 11.6697 11.9572C11.6697 11.9572 11.6696 11.9572 11.6696 11.9572C11.6696 11.9572 11.6696 11.9572 11.6696 11.9572C11.6696 11.9572 11.6696 11.9572 11.6696 11.9572C11.6696 11.9572 11.6696 11.9572 11.6696 11.9572C11.6696 11.9572 11.6696 11.9572 11.6696 11.9572C11.6695 11.9572 11.6695 11.9572 11.6695 11.9572C11.6695 11.9572 11.6694 11.9572 11.6694 11.9572C11.6693 11.9572 11.6693 11.9572 11.6692 11.9572C11.6692 11.9572 11.669 11.9572 11.6688 11.9572C11.6687 11.9572 11.6683 11.9572 11.6678 11.9572C11.6674 11.9572 11.6662 11.9572 11.6654 11.9571C11.6619 11.957 11.4697 11.7601 11.6525 11.5579C11.6586 11.5575 11.6658 11.5572 11.6668 11.5572C11.6672 11.5572 11.6678 11.5572 11.6681 11.5572C11.6685 11.5572 11.6687 11.5572 11.6688 11.5572C11.669 11.5572 11.6692 11.5572 11.6692 11.5572C11.6693 11.5572 11.6693 11.5572 11.6693 11.5572C11.6694 11.5572 11.6695 11.5572 11.6695 11.5572C11.6695 11.5572 11.6695 11.5572 11.6695 11.5572C11.6696 11.5572 11.6696 11.5572 11.6696 11.5572C11.6696 11.5572 11.6696 11.5572 11.6696 11.5572C11.6696 11.5572 11.6696 11.5572 11.6696 11.5572L11.6697 11.9572C11.6697 11.9572 11.6697 11.9572 11.6697 11.9572C11.6697 11.9572 11.6697 11.9572 11.6698 11.9572C11.6698 11.9572 11.6698 11.9572 11.6699 11.9572C11.67 11.9572 11.67 11.9572 11.6701 11.9572C11.6701 11.9572 11.6703 11.9572 11.6705 11.9572C11.6705 11.9572 11.6708 11.9572 11.6712 11.9572C11.6714 11.9572 11.6721 11.9572 11.6725 11.9572C11.6735 11.9571 11.6807 11.9569 11.6868 11.9564C11.8696 11.7542 11.6774 11.5573 11.6739 11.5572C11.6731 11.5572 11.6719 11.5572 11.6715 11.5572C11.671 11.5572 11.6706 11.5572 11.6705 11.5572C11.6703 11.5572 11.6701 11.5572 11.6701 11.5572C11.67 11.5572 11.6699 11.5572 11.6699 11.5572C11.6699 11.5572 11.6698 11.5572 11.6698 11.5572C11.6698 11.5572 11.6697 11.5572 11.6697 11.5572C11.6697 11.5572 11.6697 11.5572 11.6697 11.5572C11.6697 11.5572 11.6697 11.5572 11.6697 11.5572C11.6696 11.5572 11.6696 11.5572 11.6696 11.5572C11.6696 11.5572 11.6696 11.5572 11.6696 11.5572C11.6696 11.5572 11.6696 11.5572 11.6696 11.5572C11.6696 11.5572 11.6695 11.5572 11.6695 11.5572C11.6695 11.5572 11.6695 11.5572 11.6695 11.5572C11.6694 11.5572 11.6694 11.5572 11.6693 11.5572C11.6693 11.5572 11.6693 11.5572 11.6692 11.5572C11.6692 11.5572 11.669 11.5572 11.6687 11.5572C11.6687 11.5572 11.6683 11.5572 11.6677 11.5572C11.6674 11.5572 11.6662 11.5572 11.6654 11.5572C11.6619 11.5573 11.4696 11.7542 11.6525 11.9564C11.6586 11.9569 11.6657 11.9571 11.6668 11.9572C11.6672 11.9572 11.6678 11.9572 11.668 11.9572C11.6684 11.9572 11.6687 11.9572 11.6688 11.9572C11.669 11.9572 11.6691 11.9572 11.6692 11.9572C11.6692 11.9572 11.6693 11.9572 11.6693 11.9572C11.6694 11.9572 11.6695 11.9572 11.6695 11.9572C11.6695 11.9572 11.6695 11.9572 11.6695 11.9572C11.6696 11.9572 11.6696 11.9572 11.6696 11.9572L11.6697 11.5572ZM11.6135 11.5652C11.1218 11.7089 10.8 12.1376 10.8 12.6503H11.2C11.2 12.3155 11.4044 12.0431 11.7257 11.9491L11.6135 11.5652ZM10.8 12.6503V13.1086H11.2V12.6503H10.8ZM10.8 13.1086C10.8 13.3742 10.9155 13.6534 11.1455 13.8259L11.3855 13.5058C11.27 13.4192 11.2 13.2666 11.2 13.1086H10.8ZM11.1455 13.8259C11.3755 13.9983 11.6759 14.0309 11.9308 13.9565L11.8187 13.5725C11.667 13.6168 11.5009 13.5924 11.3855 13.5058L11.1455 13.8259ZM11.9308 13.9565L20.7802 11.3726L20.6681 10.9886L11.8187 13.5725L11.9308 13.9565ZM20.7802 11.3726C21.2721 11.229 21.5937 10.8002 21.5937 10.2876H21.1937C21.1937 10.6224 20.9894 10.8948 20.6681 10.9886L20.7802 11.3726ZM21.5937 10.2876V9.82922H21.1937V10.2876H21.5937ZM21.5937 9.82922C21.5937 9.56357 21.4783 9.28442 21.2482 9.11195L21.0083 9.43199C21.1238 9.51856 21.1937 9.67116 21.1937 9.82922H21.5937ZM21.2482 9.11195C21.1327 9.02534 20.9995 8.97441 20.8649 8.95412L20.8052 9.34964C20.8813 9.36112 20.9511 9.38907 21.0083 9.43199L21.2482 9.11195ZM20.4618 9.89413V10.2876H20.8618V9.89413H20.4618ZM20.4618 10.2876C20.4618 10.2793 20.4624 10.2723 20.4631 10.2669C20.4638 10.2614 20.4646 10.2568 20.4654 10.2532C20.467 10.2464 20.4686 10.2417 20.4693 10.2396C20.4701 10.2373 20.4706 10.2363 20.4705 10.2366C20.4704 10.2368 20.4699 10.2378 20.469 10.2395C20.4671 10.2431 20.4641 10.2482 20.46 10.2546C20.4559 10.2609 20.4511 10.2676 20.446 10.2745C20.4409 10.2813 20.4357 10.2877 20.4308 10.2934C20.4258 10.2992 20.4218 10.3035 20.4189 10.3064C20.4175 10.3077 20.4167 10.3084 20.4165 10.3086C20.4162 10.3088 20.4171 10.3081 20.419 10.3066C20.4208 10.3053 20.4249 10.3025 20.431 10.2991C20.4342 10.2974 20.4383 10.2952 20.4434 10.293C20.4485 10.2908 20.455 10.2883 20.4629 10.286L20.575 10.67C20.6128 10.6589 20.6408 10.64 20.6551 10.6295C20.672 10.6172 20.6867 10.6039 20.6988 10.5921C20.7231 10.5683 20.7462 10.5408 20.766 10.5145C20.7857 10.4882 20.8056 10.4583 20.8216 10.4283C20.8296 10.4134 20.8383 10.3955 20.8454 10.3758C20.8514 10.3591 20.8618 10.3269 20.8618 10.2876H20.4618ZM20.4629 10.286L11.6759 12.8517L11.788 13.2357L20.575 10.67L20.4629 10.286ZM11.932 13.0437V12.6503H11.532V13.0437H11.932ZM11.932 12.6503C11.932 12.6585 11.9314 12.6655 11.9307 12.6709C11.93 12.6764 11.9291 12.681 11.9283 12.6845C11.9268 12.6913 11.9252 12.696 11.9245 12.6981C11.9236 12.7004 11.9231 12.7014 11.9233 12.7011C11.9234 12.7009 11.9239 12.6999 11.9248 12.6982C11.9267 12.6946 11.9297 12.6895 11.9338 12.6831C11.9379 12.6768 11.9427 12.67 11.9478 12.6632C11.9529 12.6564 11.9581 12.6499 11.963 12.6442C11.9679 12.6384 11.972 12.6341 11.9749 12.6313C11.9763 12.6299 11.9771 12.6292 11.9773 12.629C11.9775 12.6288 11.9767 12.6296 11.9747 12.631C11.9729 12.6323 11.9689 12.6352 11.9627 12.6386C11.9596 12.6403 11.9554 12.6424 11.9504 12.6446C11.9453 12.6468 11.9388 12.6493 11.9309 12.6517L11.8187 12.2677C11.7809 12.2787 11.7529 12.2977 11.7386 12.3082C11.7217 12.3205 11.7069 12.3338 11.6948 12.3457C11.6706 12.3695 11.6474 12.397 11.6277 12.4233C11.6079 12.4497 11.5881 12.4796 11.572 12.5096C11.5641 12.5245 11.5554 12.5424 11.5483 12.5621C11.5423 12.5787 11.532 12.611 11.532 12.6503H11.932ZM11.9308 12.6517L20.7178 10.0861L20.6057 9.70214L11.8187 12.2677L11.9308 12.6517ZM20.8649 11.7751C20.7306 11.7549 20.5922 11.7646 20.4629 11.8024L20.575 12.1863C20.6491 12.1647 20.7289 12.1592 20.8052 12.1707L20.8649 11.7751ZM20.4629 11.8024L11.6136 14.3861L11.7257 14.77L20.575 12.1863L20.4629 11.8024ZM11.6697 14.3781C11.6697 14.3781 11.6697 14.3781 11.6697 14.3781C11.6697 14.3781 11.6697 14.3781 11.6697 14.3781C11.6697 14.3781 11.6697 14.3781 11.6697 14.3781C11.6697 14.3781 11.6697 14.3781 11.6697 14.3781C11.6697 14.3781 11.6698 14.3781 11.6699 14.3781C11.6699 14.3781 11.67 14.3781 11.67 14.3781C11.6701 14.3781 11.6702 14.3781 11.6704 14.3781C11.6705 14.3781 11.6708 14.3781 11.6712 14.3781C11.6714 14.3781 11.6721 14.3781 11.6725 14.3781C11.6735 14.3781 11.6806 14.3784 11.6868 14.3788C11.8696 14.581 11.6774 14.7779 11.6739 14.778C11.673 14.778 11.6719 14.778 11.6715 14.7781C11.671 14.7781 11.6705 14.7781 11.6705 14.7781C11.6703 14.7781 11.6701 14.7781 11.67 14.7781C11.67 14.7781 11.6699 14.7781 11.6699 14.7781C11.6698 14.7781 11.6698 14.7781 11.6698 14.7781C11.6697 14.7781 11.6697 14.7781 11.6697 14.7781C11.6697 14.7781 11.6697 14.7781 11.6697 14.7781C11.6697 14.7781 11.6696 14.7781 11.6696 14.7781C11.6696 14.7781 11.6696 14.7781 11.6696 14.7781C11.6696 14.7781 11.6696 14.7781 11.6696 14.7781C11.6696 14.7781 11.6696 14.7781 11.6696 14.7781C11.6696 14.7781 11.6696 14.7781 11.6696 14.7781C11.6695 14.7781 11.6695 14.7781 11.6695 14.7781C11.6695 14.7781 11.6694 14.7781 11.6694 14.7781C11.6693 14.7781 11.6693 14.7781 11.6692 14.7781C11.6692 14.7781 11.669 14.7781 11.6688 14.7781C11.6687 14.7781 11.6683 14.7781 11.6678 14.7781C11.6674 14.778 11.6662 14.778 11.6654 14.778C11.6619 14.7779 11.4697 14.581 11.6525 14.3788C11.6586 14.3784 11.6658 14.3781 11.6668 14.3781C11.6672 14.3781 11.6678 14.3781 11.6681 14.3781C11.6685 14.3781 11.6687 14.3781 11.6688 14.3781C11.669 14.3781 11.6692 14.3781 11.6692 14.3781C11.6693 14.3781 11.6693 14.3781 11.6693 14.3781C11.6694 14.3781 11.6695 14.3781 11.6695 14.3781C11.6695 14.3781 11.6695 14.3781 11.6695 14.3781C11.6696 14.3781 11.6696 14.3781 11.6696 14.3781C11.6696 14.3781 11.6696 14.3781 11.6696 14.3781C11.6696 14.3781 11.6696 14.3781 11.6696 14.3781L11.6697 14.7781C11.6697 14.7781 11.6697 14.7781 11.6697 14.7781C11.6697 14.7781 11.6697 14.7781 11.6698 14.7781C11.6698 14.7781 11.6698 14.7781 11.6699 14.7781C11.67 14.7781 11.67 14.7781 11.6701 14.7781C11.6701 14.7781 11.6703 14.7781 11.6705 14.7781C11.6705 14.7781 11.6708 14.7781 11.6712 14.7781C11.6714 14.7781 11.6721 14.778 11.6725 14.778C11.6735 14.778 11.6807 14.7778 11.6868 14.7773C11.8696 14.5751 11.6774 14.3782 11.6739 14.3781C11.6731 14.3781 11.6719 14.3781 11.6715 14.3781C11.671 14.3781 11.6706 14.3781 11.6705 14.3781C11.6703 14.3781 11.6701 14.3781 11.6701 14.3781C11.67 14.3781 11.6699 14.3781 11.6699 14.3781C11.6699 14.3781 11.6698 14.3781 11.6698 14.3781C11.6698 14.3781 11.6697 14.3781 11.6697 14.3781C11.6697 14.3781 11.6697 14.3781 11.6697 14.3781C11.6697 14.3781 11.6697 14.3781 11.6697 14.3781C11.6696 14.3781 11.6696 14.3781 11.6696 14.3781C11.6696 14.3781 11.6696 14.3781 11.6696 14.3781C11.6696 14.3781 11.6696 14.3781 11.6696 14.3781C11.6696 14.3781 11.6695 14.3781 11.6695 14.3781C11.6695 14.3781 11.6695 14.3781 11.6695 14.3781C11.6694 14.3781 11.6694 14.3781 11.6693 14.3781C11.6693 14.3781 11.6693 14.3781 11.6692 14.3781C11.6692 14.3781 11.669 14.3781 11.6687 14.3781C11.6687 14.3781 11.6683 14.3781 11.6677 14.3781C11.6674 14.3781 11.6662 14.3781 11.6654 14.3781C11.6619 14.3782 11.4696 14.5751 11.6525 14.7773C11.6586 14.7778 11.6657 14.778 11.6668 14.778C11.6672 14.778 11.6678 14.7781 11.668 14.7781C11.6684 14.7781 11.6687 14.7781 11.6688 14.7781C11.669 14.7781 11.6691 14.7781 11.6692 14.7781C11.6692 14.7781 11.6693 14.7781 11.6693 14.7781C11.6694 14.7781 11.6695 14.7781 11.6695 14.7781C11.6695 14.7781 11.6695 14.7781 11.6695 14.7781C11.6696 14.7781 11.6696 14.7781 11.6696 14.7781L11.6697 14.3781ZM11.6135 14.3861C11.1218 14.5298 10.8 14.9585 10.8 15.4711H11.2C11.2 15.1364 11.4044 14.864 11.7257 14.77L11.6135 14.3861ZM10.8 15.4711V15.9295H11.2V15.4711H10.8ZM10.8 15.9295C10.8 16.1951 10.9155 16.4742 11.1455 16.6467L11.3855 16.3267C11.27 16.2401 11.2 16.0875 11.2 15.9295H10.8ZM11.1455 16.6467C11.3755 16.8192 11.6758 16.8519 11.9309 16.7773L11.8187 16.3934C11.667 16.4377 11.501 16.4133 11.3855 16.3267L11.1455 16.6467ZM11.9308 16.7773L20.7802 14.1936L20.6681 13.8097L11.8187 16.3934L11.9308 16.7773ZM20.7241 14.2016C20.7241 14.2016 20.7241 14.2016 20.7241 14.2016C20.7241 14.2016 20.7241 14.2016 20.7241 14.2016C20.7241 14.2016 20.7241 14.2016 20.7241 14.2016C20.724 14.2016 20.724 14.2016 20.724 14.2016C20.724 14.2016 20.7239 14.2016 20.7238 14.2016C20.7238 14.2016 20.7238 14.2016 20.7237 14.2016C20.7237 14.2016 20.7235 14.2016 20.7233 14.2016C20.7232 14.2016 20.723 14.2016 20.7226 14.2016C20.7223 14.2016 20.7217 14.2016 20.7213 14.2016C20.7203 14.2016 20.7131 14.2013 20.707 14.2009C20.5242 13.9987 20.7164 13.8018 20.7199 13.8017C20.7207 13.8017 20.7219 13.8017 20.7223 13.8017C20.7228 13.8017 20.7232 13.8016 20.7233 13.8016C20.7235 13.8016 20.7237 13.8016 20.7237 13.8016C20.7238 13.8016 20.7238 13.8016 20.7239 13.8016C20.7239 13.8016 20.724 13.8016 20.724 13.8016C20.724 13.8016 20.724 13.8016 20.7241 13.8016C20.7241 13.8016 20.7241 13.8016 20.7241 13.8016C20.7241 13.8016 20.7241 13.8016 20.7241 13.8016C20.7241 13.8016 20.7241 13.8016 20.7241 13.8016C20.7241 13.8016 20.7241 13.8016 20.7241 13.8016C20.7241 13.8016 20.7242 13.8016 20.7242 13.8016C20.7242 13.8016 20.7242 13.8016 20.7242 13.8016C20.7242 13.8016 20.7242 13.8016 20.7243 13.8016C20.7243 13.8016 20.7243 13.8016 20.7244 13.8016C20.7244 13.8016 20.7245 13.8016 20.7245 13.8016C20.7246 13.8016 20.7248 13.8016 20.725 13.8016C20.7251 13.8016 20.7255 13.8017 20.726 13.8017C20.7264 13.8017 20.7275 13.8017 20.7284 13.8017C20.7319 13.8018 20.9241 13.9987 20.7413 14.2009C20.7351 14.2013 20.728 14.2016 20.727 14.2016C20.7266 14.2016 20.7259 14.2016 20.7257 14.2016C20.7253 14.2016 20.725 14.2016 20.7249 14.2016C20.7247 14.2016 20.7246 14.2016 20.7245 14.2016C20.7245 14.2016 20.7244 14.2016 20.7244 14.2016C20.7243 14.2016 20.7242 14.2016 20.7242 14.2016C20.7242 14.2016 20.7242 14.2016 20.7242 14.2016C20.7242 14.2016 20.7242 14.2016 20.7242 14.2016C20.7242 14.2016 20.7242 14.2016 20.7242 14.2016C20.7242 14.2016 20.7242 14.2016 20.7242 14.2016L20.7241 13.8016C20.7241 13.8016 20.7241 13.8016 20.724 13.8016C20.724 13.8016 20.724 13.8016 20.724 13.8016C20.724 13.8016 20.7239 13.8016 20.7238 13.8016C20.7238 13.8016 20.7237 13.8016 20.7237 13.8016C20.7237 13.8016 20.7235 13.8016 20.7233 13.8016C20.7232 13.8016 20.7229 13.8017 20.7225 13.8017C20.7223 13.8017 20.7217 13.8017 20.7213 13.8017C20.7202 13.8017 20.7131 13.802 20.707 13.8024C20.5241 14.0046 20.7164 14.2015 20.7199 14.2016C20.7207 14.2016 20.7219 14.2016 20.7222 14.2016C20.7228 14.2016 20.7232 14.2016 20.7232 14.2016C20.7235 14.2016 20.7237 14.2016 20.7237 14.2016C20.7238 14.2016 20.7238 14.2016 20.7238 14.2016C20.7239 14.2016 20.7239 14.2016 20.724 14.2016C20.724 14.2016 20.724 14.2016 20.724 14.2016C20.724 14.2016 20.7241 14.2016 20.7241 14.2016C20.7241 14.2016 20.7241 14.2016 20.7241 14.2016C20.7241 14.2016 20.7241 14.2016 20.7241 14.2016C20.7241 14.2016 20.7241 14.2016 20.7242 14.2016C20.7242 14.2016 20.7242 14.2016 20.7242 14.2016C20.7242 14.2016 20.7242 14.2016 20.7242 14.2016C20.7242 14.2016 20.7243 14.2016 20.7243 14.2016C20.7243 14.2016 20.7244 14.2016 20.7244 14.2016C20.7244 14.2016 20.7245 14.2016 20.7246 14.2016C20.7246 14.2016 20.7248 14.2016 20.725 14.2016C20.7251 14.2016 20.7255 14.2016 20.726 14.2016C20.7264 14.2016 20.7276 14.2016 20.7284 14.2016C20.7319 14.2015 20.9241 14.0046 20.7413 13.8024C20.7352 13.802 20.728 13.8017 20.727 13.8017C20.7266 13.8017 20.7259 13.8017 20.7257 13.8017C20.7253 13.8017 20.725 13.8016 20.725 13.8016C20.7248 13.8016 20.7246 13.8016 20.7246 13.8016C20.7245 13.8016 20.7245 13.8016 20.7244 13.8016C20.7243 13.8016 20.7243 13.8016 20.7243 13.8016C20.7242 13.8016 20.7242 13.8016 20.7242 13.8016C20.7242 13.8016 20.7242 13.8016 20.7242 13.8016L20.7241 14.2016ZM20.7802 14.1936C21.272 14.0499 21.5937 13.6212 21.5937 13.1086H21.1937C21.1937 13.4434 20.9894 13.7157 20.668 13.8097L20.7802 14.1936ZM21.5937 13.1086V12.6502H21.1937V13.1086H21.5937ZM21.5937 12.6502C21.5937 12.3846 21.4783 12.1054 21.2482 11.933L21.0083 12.253C21.1238 12.3396 21.1937 12.4922 21.1937 12.6502H21.5937ZM21.2482 11.933C21.1327 11.8464 20.9994 11.7954 20.8649 11.7751L20.8052 12.1707C20.8813 12.1821 20.9511 12.2101 21.0083 12.253L21.2482 11.933ZM20.4618 12.7152V13.1086H20.8618V12.7152H20.4618ZM20.4618 13.1086C20.4618 13.1004 20.4624 13.0934 20.4631 13.0879C20.4638 13.0824 20.4646 13.0778 20.4654 13.0743C20.4669 13.0675 20.4685 13.0628 20.4693 13.0607C20.4701 13.0584 20.4706 13.0574 20.4705 13.0577C20.4704 13.0579 20.4699 13.0589 20.469 13.0606C20.4671 13.0642 20.4641 13.0693 20.4599 13.0757C20.4558 13.082 20.4511 13.0888 20.446 13.0956C20.4409 13.1025 20.4357 13.1089 20.4308 13.1146C20.4258 13.1204 20.4217 13.1247 20.4189 13.1275C20.4175 13.1289 20.4166 13.1296 20.4165 13.1298C20.4162 13.13 20.4171 13.1292 20.419 13.1278C20.4208 13.1265 20.4249 13.1236 20.431 13.1203C20.4342 13.1185 20.4383 13.1164 20.4434 13.1142C20.4484 13.112 20.455 13.1095 20.4629 13.1072L20.5751 13.4911C20.6128 13.4801 20.6408 13.4611 20.6552 13.4507C20.672 13.4383 20.6868 13.425 20.6989 13.4131C20.7232 13.3893 20.7463 13.3618 20.7661 13.3355C20.7858 13.3092 20.8057 13.2792 20.8217 13.2493C20.8297 13.2343 20.8383 13.2164 20.8454 13.1968C20.8515 13.1801 20.8618 13.1479 20.8618 13.1086H20.4618ZM20.4629 13.1072L11.6759 15.6726L11.788 16.0565L20.575 13.4911L20.4629 13.1072ZM11.932 15.8646V15.4711H11.532V15.8646H11.932ZM11.932 15.4711C11.932 15.4794 11.9314 15.4863 11.9307 15.4918C11.93 15.4973 11.9291 15.5019 11.9283 15.5054C11.9268 15.5122 11.9252 15.5169 11.9244 15.519C11.9236 15.5213 11.9231 15.5224 11.9233 15.5221C11.9234 15.5218 11.9238 15.5209 11.9247 15.5191C11.9267 15.5156 11.9296 15.5105 11.9338 15.5041C11.9379 15.4978 11.9426 15.491 11.9477 15.4842C11.9528 15.4774 11.958 15.471 11.9629 15.4653C11.9679 15.4595 11.9719 15.4552 11.9748 15.4524C11.9762 15.451 11.977 15.4503 11.9772 15.4501C11.9775 15.4499 11.9766 15.4507 11.9747 15.4521C11.9729 15.4534 11.9688 15.4562 11.9627 15.4596C11.9595 15.4613 11.9554 15.4635 11.9503 15.4657C11.9453 15.4679 11.9388 15.4704 11.9309 15.4727L11.8187 15.0887C11.781 15.0998 11.753 15.1187 11.7386 15.1291C11.7218 15.1415 11.707 15.1548 11.6949 15.1666C11.6706 15.1904 11.6475 15.2179 11.6277 15.2442C11.608 15.2705 11.5881 15.3005 11.5721 15.3304C11.5641 15.3453 11.5554 15.3633 11.5483 15.3829C11.5423 15.3996 11.532 15.4318 11.532 15.4711H11.932ZM11.9308 15.4727L20.7178 12.9071L20.6057 12.5232L11.8187 15.0887L11.9308 15.4727ZM20.8649 14.596C20.7306 14.5758 20.5922 14.5855 20.4629 14.6232L20.575 15.0072C20.6491 14.9856 20.7289 14.98 20.8052 14.9915L20.8649 14.596ZM20.4629 14.6232L11.6136 17.2071L11.7257 17.5911L20.575 15.0072L20.4629 14.6232ZM11.6136 17.2071C11.1216 17.3507 10.8 17.7795 10.8 18.2922H11.2C11.2 17.9573 11.4043 17.6849 11.7257 17.5911L11.6136 17.2071ZM10.8 18.2922V18.7505H11.2V18.2922H10.8ZM10.8 18.7505C10.8 19.0161 10.9155 19.2953 11.1455 19.4678L11.3855 19.1477C11.27 19.0612 11.2 18.9085 11.2 18.7505H10.8ZM11.1455 19.4678C11.3755 19.6402 11.6758 19.6729 11.9309 19.5984L11.8187 19.2144C11.667 19.2587 11.501 19.2343 11.3855 19.1477L11.1455 19.4678ZM11.9308 19.5984L20.7802 17.0147L20.6681 16.6307L11.8187 19.2144L11.9308 19.5984ZM20.7802 17.0147C21.2722 16.871 21.5937 16.442 21.5937 15.9295H21.1937C21.1937 16.2643 20.9895 16.5369 20.6681 16.6307L20.7802 17.0147ZM21.5937 15.9295V15.4711H21.1937V15.9295H21.5937ZM21.5937 15.4711C21.5937 15.2054 21.4783 14.9264 21.2482 14.754L21.0083 15.074C21.1238 15.1606 21.1937 15.3131 21.1937 15.4711H21.5937ZM21.2482 14.754C21.1329 14.6675 20.9996 14.6164 20.8649 14.596L20.8052 14.9915C20.8811 15.003 20.9509 15.031 21.0083 15.074L21.2482 14.754ZM20.4618 15.536V15.9295H20.8618V15.536H20.4618ZM20.4618 15.9295C20.4618 15.9212 20.4624 15.9142 20.4631 15.9088C20.4638 15.9033 20.4646 15.8987 20.4654 15.8951C20.467 15.8883 20.4686 15.8836 20.4693 15.8815C20.4701 15.8792 20.4706 15.8782 20.4705 15.8785C20.4704 15.8787 20.4699 15.8797 20.469 15.8815C20.4671 15.885 20.4641 15.8902 20.4599 15.8966C20.4558 15.9029 20.4511 15.9097 20.4459 15.9165C20.4408 15.9233 20.4356 15.9298 20.4307 15.9355C20.4257 15.9413 20.4217 15.9456 20.4188 15.9485C20.4174 15.9498 20.4165 15.9506 20.4163 15.9507C20.4161 15.951 20.4169 15.9502 20.4189 15.9488C20.4207 15.9474 20.4248 15.9446 20.4309 15.9412C20.4341 15.9394 20.4382 15.9373 20.4433 15.9351C20.4484 15.9329 20.455 15.9304 20.4629 15.928L20.575 16.312C20.6129 16.301 20.6409 16.2819 20.6552 16.2715C20.672 16.2592 20.6868 16.2458 20.6989 16.234C20.7231 16.2102 20.7462 16.1828 20.766 16.1564C20.7857 16.1301 20.8056 16.1002 20.8216 16.0702C20.8296 16.0553 20.8383 16.0374 20.8454 16.0177C20.8514 16.0011 20.8618 15.9688 20.8618 15.9295H20.4618ZM20.4629 15.928L11.6759 18.4936L11.788 18.8776L20.575 16.312L20.4629 15.928ZM11.932 18.6856V18.2922H11.532V18.6856H11.932ZM11.932 18.2922C11.932 18.3004 11.9314 18.3074 11.9307 18.3129C11.93 18.3183 11.9291 18.3229 11.9283 18.3265C11.9268 18.3333 11.9252 18.338 11.9244 18.3401C11.9236 18.3424 11.9231 18.3434 11.9232 18.3431C11.9234 18.3429 11.9238 18.3419 11.9247 18.3402C11.9266 18.3366 11.9296 18.3315 11.9338 18.3251C11.9379 18.3188 11.9426 18.3121 11.9477 18.3052C11.9529 18.2984 11.958 18.292 11.9629 18.2863C11.9679 18.2805 11.972 18.2762 11.9749 18.2734C11.9763 18.272 11.9771 18.2713 11.9773 18.2711C11.9775 18.2709 11.9767 18.2716 11.9747 18.2731C11.973 18.2744 11.9689 18.2772 11.9627 18.2806C11.9596 18.2824 11.9554 18.2845 11.9503 18.2867C11.9453 18.2889 11.9387 18.2914 11.9308 18.2937L11.8187 17.9097C11.781 17.9208 11.7529 17.9397 11.7386 17.9502C11.7218 17.9625 11.707 17.9758 11.6949 17.9877C11.6707 18.0114 11.6475 18.0389 11.6278 18.0652C11.608 18.0915 11.5881 18.1214 11.5721 18.1514C11.5641 18.1663 11.5555 18.1843 11.5483 18.2039C11.5423 18.2206 11.532 18.2528 11.532 18.2922H11.932ZM11.9308 18.2937L20.7179 15.728L20.6057 15.3441L11.8187 17.9098L11.9308 18.2937ZM20.8649 17.4169C20.7304 17.3966 20.592 17.4066 20.4629 17.4443L20.575 17.8282C20.6493 17.8065 20.7291 17.8009 20.8052 17.8124L20.8649 17.4169ZM20.4629 17.4443L11.6136 20.0281L11.7257 20.4121L20.575 17.8282L20.4629 17.4443ZM11.6136 20.0281C11.1217 20.1717 10.8 20.6004 10.8 21.113H11.2C11.2 20.7782 11.4043 20.5059 11.7257 20.4121L11.6136 20.0281ZM10.8 21.113V21.5715H11.2V21.113H10.8ZM10.8 21.5715C10.8 21.8372 10.9155 22.1162 11.1455 22.2886L11.3855 21.9686C11.27 21.882 11.2 21.7295 11.2 21.5715H10.8ZM11.1455 22.2886C11.3754 22.4611 11.6757 22.4939 11.9308 22.4194L11.8187 22.0354C11.6671 22.0797 11.501 22.0552 11.3855 21.9686L11.1455 22.2886ZM11.9308 22.4194L20.7802 19.8355L20.6681 19.4516L11.8187 22.0354L11.9308 22.4194ZM20.7802 19.8355C21.2722 19.6919 21.5937 19.2631 21.5937 18.7505H21.1937C21.1937 19.0853 20.9895 19.3577 20.6681 19.4516L20.7802 19.8355ZM21.5937 18.7505V18.2922H21.1937V18.7505H21.5937ZM21.5937 18.2922C21.5937 18.0265 21.4783 17.7473 21.2482 17.5749L21.0083 17.8949C21.1238 17.9815 21.1937 18.1341 21.1937 18.2922H21.5937ZM21.2482 17.5749C21.1329 17.4884 20.9996 17.4372 20.8649 17.4169L20.8052 17.8124C20.8811 17.8239 20.9509 17.8519 21.0083 17.8949L21.2482 17.5749ZM20.4618 18.3571V18.7505H20.8618V18.3571H20.4618ZM20.4618 18.7505C20.4618 18.7422 20.4624 18.7352 20.4631 18.7297C20.4638 18.7242 20.4647 18.7196 20.4655 18.716C20.467 18.7092 20.4686 18.7045 20.4694 18.7024C20.4702 18.7001 20.4707 18.6991 20.4705 18.6994C20.4704 18.6996 20.47 18.7006 20.469 18.7023C20.4671 18.7059 20.4641 18.711 20.4599 18.7174C20.4558 18.7237 20.4511 18.7305 20.446 18.7374C20.4408 18.7442 20.4356 18.7507 20.4307 18.7564C20.4258 18.7622 20.4217 18.7665 20.4188 18.7693C20.4174 18.7707 20.4166 18.7714 20.4164 18.7716C20.4161 18.7718 20.417 18.7711 20.4189 18.7696C20.4207 18.7683 20.4248 18.7655 20.4309 18.7621C20.4341 18.7603 20.4382 18.7582 20.4433 18.756C20.4484 18.7538 20.455 18.7512 20.4629 18.7489L20.575 19.1329C20.6128 19.1218 20.6409 19.1028 20.6552 19.0924C20.672 19.0801 20.6868 19.0667 20.6988 19.0549C20.7231 19.0312 20.7462 19.0037 20.7659 18.9774C20.7857 18.9511 20.8056 18.9212 20.8216 18.8913C20.8296 18.8764 20.8383 18.8584 20.8454 18.8388C20.8514 18.8222 20.8618 18.7899 20.8618 18.7505H20.4618ZM20.4629 18.7489L11.6759 21.3146L11.788 21.6986L20.575 19.1329L20.4629 18.7489ZM11.932 21.5066V21.113H11.532V21.5066H11.932ZM11.932 21.113C11.932 21.1213 11.9314 21.1283 11.9307 21.1337C11.93 21.1392 11.9291 21.1438 11.9283 21.1473C11.9268 21.1542 11.9252 21.1589 11.9244 21.161C11.9236 21.1633 11.9231 21.1643 11.9232 21.164C11.9234 21.1638 11.9238 21.1628 11.9247 21.1611C11.9266 21.1575 11.9296 21.1524 11.9338 21.146C11.9379 21.1397 11.9426 21.133 11.9477 21.1261C11.9529 21.1193 11.958 21.1129 11.9629 21.1072C11.9679 21.1014 11.972 21.0971 11.9749 21.0942C11.9763 21.0929 11.9771 21.0921 11.9773 21.092C11.9775 21.0918 11.9767 21.0925 11.9747 21.0939C11.973 21.0953 11.9689 21.0981 11.9627 21.1015C11.9596 21.1032 11.9554 21.1054 11.9503 21.1076C11.9453 21.1098 11.9387 21.1123 11.9308 21.1146L11.8187 20.7306C11.781 20.7417 11.7529 20.7606 11.7386 20.7711C11.7218 20.7834 11.707 20.7967 11.6949 20.8085C11.6707 20.8323 11.6475 20.8598 11.6278 20.8861C11.608 20.9124 11.5881 20.9423 11.5721 20.9723C11.5641 20.9872 11.5555 21.0051 11.5483 21.0248C11.5423 21.0415 11.532 21.0737 11.532 21.113H11.932ZM11.9308 21.1146L20.7178 18.549L20.6057 18.1651L11.8187 20.7306L11.9308 21.1146ZM18.974 10.9382C18.824 10.9405 18.681 11.0022 18.5765 11.1098L18.8635 11.3885C18.8941 11.3569 18.9361 11.3388 18.9801 11.3382L18.974 10.9382ZM18.5765 11.1098C18.472 11.2174 18.4145 11.3621 18.4166 11.5121L18.8166 11.5065C18.816 11.4625 18.8328 11.4201 18.8635 11.3885L18.5765 11.1098ZM18.4166 11.5093V12.6378H18.8166V11.5093H18.4166ZM18.4166 12.635C18.4156 12.71 18.4294 12.7845 18.4574 12.854L18.8285 12.7049C18.8203 12.6845 18.8163 12.6626 18.8166 12.6407L18.4166 12.635ZM18.4574 12.854C18.4854 12.9236 18.5269 12.987 18.5795 13.0404L18.8644 12.7596C18.8489 12.7439 18.8368 12.7253 18.8285 12.7049L18.4574 12.854ZM18.5795 13.0404C18.6322 13.0938 18.6949 13.1362 18.7641 13.1652L18.9185 12.7962C18.8982 12.7877 18.8798 12.7752 18.8644 12.7596L18.5795 13.0404ZM18.7641 13.1652C18.8333 13.1941 18.9076 13.209 18.9826 13.209V12.809C18.9606 12.809 18.9388 12.8046 18.9185 12.7962L18.7641 13.1652ZM18.9826 13.209C19.0576 13.209 19.1318 13.1941 19.201 13.1652L19.0467 12.7962C19.0264 12.8046 19.0046 12.809 18.9826 12.809V13.209ZM19.201 13.1652C19.2702 13.1362 19.333 13.0938 19.3856 13.0404L19.1008 12.7596C19.0854 12.7752 19.067 12.7877 19.0467 12.7962L19.201 13.1652ZM19.3856 13.0404C19.4383 12.987 19.4798 12.9236 19.5078 12.854L19.1366 12.7049C19.1284 12.7253 19.1163 12.7439 19.1008 12.7596L19.3856 13.0404ZM19.5078 12.854C19.5358 12.7845 19.5496 12.71 19.5485 12.635L19.1486 12.6407C19.1489 12.6627 19.1448 12.6845 19.1366 12.7049L19.5078 12.854ZM19.5486 12.6378V11.5093H19.1486V12.6378H19.5486ZM19.5485 11.5121C19.5496 11.4364 19.5355 11.3612 19.507 11.2911L19.1364 11.4417C19.1448 11.4622 19.1489 11.4843 19.1486 11.5065L19.5485 11.5121ZM19.507 11.2911C19.4785 11.2209 19.4362 11.1572 19.3826 11.1037L19.0999 11.3867C19.1156 11.4024 19.128 11.4211 19.1364 11.4417L19.507 11.2911ZM19.3826 11.1037C19.329 11.0502 19.2652 11.0079 19.1951 10.9795L19.0449 11.3503C19.0655 11.3586 19.0842 11.371 19.0999 11.3867L19.3826 11.1037ZM19.1951 10.9795C19.1249 10.9511 19.0497 10.937 18.974 10.9382L18.9801 11.3382C19.0023 11.3378 19.0243 11.3419 19.0449 11.3503L19.1951 10.9795ZM13.4028 15.5928C13.2527 15.5951 13.1097 15.6568 13.0052 15.7644L13.2921 16.0431C13.3228 16.0115 13.3647 15.9934 13.4087 15.9928L13.4028 15.5928ZM13.0052 15.7644C12.9006 15.872 12.8431 16.0167 12.8452 16.1667L13.2452 16.1611C13.2445 16.1171 13.2614 16.0747 13.2921 16.0431L13.0052 15.7644ZM12.8452 16.1639V17.1991H13.2452V16.1639H12.8452ZM12.8452 17.1963C12.8441 17.2713 12.858 17.3457 12.886 17.4153L13.2571 17.2662C13.2489 17.2458 13.2449 17.2239 13.2452 17.2019L12.8452 17.1963ZM12.886 17.4153C12.9139 17.4849 12.9554 17.5483 13.0081 17.6017L13.2929 17.3208C13.2775 17.3052 13.2653 17.2866 13.2571 17.2662L12.886 17.4153ZM13.0081 17.6017C13.0608 17.6551 13.1235 17.6975 13.1927 17.7264L13.3471 17.3574C13.3268 17.3489 13.3084 17.3365 13.2929 17.3208L13.0081 17.6017ZM13.1927 17.7264C13.2619 17.7554 13.3362 17.7703 13.4112 17.7703V17.3703C13.3892 17.3703 13.3674 17.3659 13.3471 17.3574L13.1927 17.7264ZM13.4112 17.7703C13.4862 17.7703 13.5604 17.7554 13.6296 17.7264L13.4752 17.3574C13.4549 17.3659 13.4332 17.3703 13.4112 17.3703V17.7703ZM13.6296 17.7264C13.6988 17.6975 13.7616 17.6551 13.8142 17.6017L13.5294 17.3208C13.5139 17.3365 13.4955 17.3489 13.4752 17.3574L13.6296 17.7264ZM13.8142 17.6017C13.8669 17.5483 13.9084 17.4849 13.9364 17.4153L13.5652 17.2662C13.557 17.2866 13.5448 17.3052 13.5294 17.3208L13.8142 17.6017ZM13.9364 17.4153C13.9643 17.3457 13.9782 17.2713 13.9771 17.1963L13.5772 17.2019C13.5775 17.2239 13.5734 17.2458 13.5652 17.2662L13.9364 17.4153ZM13.9771 17.1991V16.1639H13.5771V17.1991H13.9771ZM13.9771 16.1667C13.9782 16.091 13.9641 16.0159 13.9356 15.9458L13.565 16.0963C13.5733 16.1169 13.5775 16.1389 13.5772 16.1611L13.9771 16.1667ZM13.9356 15.9458C13.9071 15.8756 13.8648 15.8119 13.8112 15.7584L13.5285 16.0413C13.5442 16.057 13.5566 16.0757 13.565 16.0963L13.9356 15.9458ZM13.8112 15.7584C13.7577 15.7049 13.6939 15.6627 13.6238 15.6342L13.4735 16.0049C13.4941 16.0133 13.5128 16.0256 13.5285 16.0413L13.8112 15.7584ZM13.6238 15.6342C13.5536 15.6058 13.4785 15.5917 13.4028 15.5928L13.4087 15.9928C13.4309 15.9925 13.4529 15.9966 13.4735 16.0049L13.6238 15.6342ZM18.974 13.8297C18.824 13.832 18.681 13.8937 18.5765 14.0013L18.8635 14.28C18.8941 14.2484 18.9361 14.2303 18.9801 14.2297L18.974 13.8297ZM18.5765 14.0013C18.472 14.1089 18.4145 14.2536 18.4166 14.4036L18.8166 14.398C18.816 14.354 18.8328 14.3116 18.8635 14.28L18.5765 14.0013ZM18.4166 14.4008V15.5292H18.8166V14.4008H18.4166ZM18.4166 15.5264C18.4156 15.6014 18.4294 15.6758 18.4574 15.7454L18.8285 15.5963C18.8203 15.5759 18.8163 15.554 18.8166 15.532L18.4166 15.5264ZM18.4574 15.7454C18.4854 15.815 18.5269 15.8783 18.5795 15.9318L18.8644 15.6509C18.8489 15.6353 18.8368 15.6167 18.8285 15.5963L18.4574 15.7454ZM18.5795 15.9318C18.6322 15.9852 18.6949 16.0276 18.7641 16.0565L18.9185 15.6875C18.8982 15.679 18.8798 15.6666 18.8644 15.6509L18.5795 15.9318ZM18.7641 16.0565C18.8333 16.0855 18.9076 16.1004 18.9826 16.1004V15.7004C18.9606 15.7004 18.9388 15.696 18.9185 15.6875L18.7641 16.0565ZM18.9826 16.1004C19.0576 16.1004 19.1318 16.0855 19.201 16.0565L19.0467 15.6875C19.0264 15.696 19.0046 15.7004 18.9826 15.7004V16.1004ZM19.201 16.0565C19.2702 16.0276 19.333 15.9852 19.3856 15.9318L19.1008 15.6509C19.0854 15.6666 19.067 15.679 19.0467 15.6875L19.201 16.0565ZM19.3856 15.9318C19.4383 15.8783 19.4798 15.815 19.5078 15.7454L19.1366 15.5963C19.1284 15.6167 19.1163 15.6353 19.1008 15.6509L19.3856 15.9318ZM19.5078 15.7454C19.5358 15.6758 19.5496 15.6014 19.5485 15.5264L19.1486 15.532C19.1489 15.554 19.1448 15.5759 19.1366 15.5963L19.5078 15.7454ZM19.5486 15.5292V14.4008H19.1486V15.5292H19.5486ZM19.5485 14.4036C19.5496 14.3279 19.5355 14.2527 19.507 14.1826L19.1364 14.3332C19.1448 14.3537 19.1489 14.3758 19.1486 14.398L19.5485 14.4036ZM19.507 14.1826C19.4785 14.1124 19.4362 14.0487 19.3826 13.9952L19.0999 14.2782C19.1156 14.2939 19.128 14.3126 19.1364 14.3332L19.507 14.1826ZM19.3826 13.9952C19.329 13.9417 19.2652 13.8995 19.1951 13.871L19.0449 14.2418C19.0655 14.2501 19.0842 14.2625 19.0999 14.2782L19.3826 13.9952ZM19.1951 13.871C19.1249 13.8426 19.0497 13.8286 18.974 13.8297L18.9801 14.2297C19.0023 14.2293 19.0243 14.2334 19.0449 14.2418L19.1951 13.871ZM13.4028 18.3432C13.2527 18.3455 13.1097 18.4072 13.0052 18.5148L13.2921 18.7935C13.3228 18.7619 13.3647 18.7438 13.4087 18.7432L13.4028 18.3432ZM13.0052 18.5148C12.9006 18.6224 12.8431 18.7671 12.8452 18.9171L13.2452 18.9115C13.2445 18.8675 13.2614 18.8251 13.2921 18.7935L13.0052 18.5148ZM12.8452 18.9143V19.9494H13.2452V18.9143H12.8452ZM12.8452 19.9465C12.8441 20.0215 12.858 20.096 12.886 20.1656L13.2571 20.0164C13.2489 19.996 13.2449 19.9742 13.2452 19.9522L12.8452 19.9465ZM12.886 20.1656C12.9139 20.2352 12.9555 20.2985 13.0081 20.3519L13.2929 20.0711C13.2775 20.0554 13.2653 20.0368 13.2571 20.0164L12.886 20.1656ZM13.0081 20.3519C13.0608 20.4053 13.1235 20.4477 13.1927 20.4767L13.3471 20.1077C13.3268 20.0992 13.3084 20.0868 13.2929 20.0711L13.0081 20.3519ZM13.1927 20.4767C13.2619 20.5056 13.3362 20.5205 13.4112 20.5205V20.1205C13.3892 20.1205 13.3674 20.1162 13.3471 20.1077L13.1927 20.4767ZM13.4112 20.5205C13.4862 20.5205 13.5604 20.5056 13.6296 20.4767L13.4752 20.1077C13.4549 20.1162 13.4332 20.1205 13.4112 20.1205V20.5205ZM13.6296 20.4767C13.6988 20.4477 13.7616 20.4053 13.8142 20.3519L13.5294 20.0711C13.5139 20.0868 13.4955 20.0992 13.4752 20.1077L13.6296 20.4767ZM13.8142 20.3519C13.8669 20.2985 13.9084 20.2352 13.9364 20.1656L13.5652 20.0164C13.557 20.0368 13.5448 20.0554 13.5294 20.0711L13.8142 20.3519ZM13.9364 20.1656C13.9643 20.096 13.9782 20.0215 13.9771 19.9465L13.5772 19.9522C13.5775 19.9742 13.5734 19.996 13.5652 20.0164L13.9364 20.1656ZM13.9771 19.9494V18.9143H13.5771V19.9494H13.9771ZM13.9771 18.9171C13.9782 18.8414 13.9641 18.7663 13.9356 18.6962L13.565 18.8467C13.5733 18.8673 13.5775 18.8893 13.5772 18.9115L13.9771 18.9171ZM13.9356 18.6962C13.9071 18.626 13.8648 18.5623 13.8112 18.5088L13.5285 18.7917C13.5442 18.8074 13.5566 18.8261 13.565 18.8467L13.9356 18.6962ZM13.8112 18.5088C13.7577 18.4553 13.6939 18.4131 13.6238 18.3846L13.4735 18.7553C13.4941 18.7637 13.5128 18.7761 13.5285 18.7917L13.8112 18.5088ZM13.6238 18.3846C13.5536 18.3562 13.4785 18.3421 13.4028 18.3432L13.4087 18.7432C13.4309 18.7429 13.4529 18.747 13.4735 18.7553L13.6238 18.3846ZM18.974 16.5803C18.824 16.5825 18.681 16.6443 18.5765 16.7519L18.8635 17.0305C18.8941 16.999 18.9361 16.9809 18.9801 16.9802L18.974 16.5803ZM18.5765 16.7519C18.472 16.8595 18.4145 17.0042 18.4166 17.1542L18.8166 17.1485C18.816 17.1045 18.8328 17.0621 18.8635 17.0305L18.5765 16.7519ZM18.4166 17.1514V18.2797H18.8166V17.1514H18.4166ZM18.4166 18.2769C18.4156 18.3519 18.4294 18.4264 18.4574 18.496L18.8285 18.3468C18.8203 18.3264 18.8163 18.3046 18.8166 18.2826L18.4166 18.2769ZM18.4574 18.496C18.4854 18.5656 18.5269 18.6289 18.5795 18.6823L18.8644 18.4015C18.8489 18.3858 18.8368 18.3672 18.8285 18.3468L18.4574 18.496ZM18.5795 18.6823C18.6322 18.7357 18.6949 18.7781 18.7641 18.8071L18.9185 18.4381C18.8982 18.4296 18.8798 18.4171 18.8644 18.4015L18.5795 18.6823ZM18.7641 18.8071C18.8333 18.836 18.9076 18.8509 18.9826 18.8509V18.4509C18.9606 18.4509 18.9388 18.4466 18.9185 18.4381L18.7641 18.8071ZM18.9826 18.8509C19.0576 18.8509 19.1318 18.836 19.201 18.8071L19.0467 18.4381C19.0264 18.4466 19.0046 18.4509 18.9826 18.4509V18.8509ZM19.201 18.8071C19.2702 18.7781 19.333 18.7357 19.3856 18.6823L19.1008 18.4015C19.0854 18.4171 19.067 18.4296 19.0467 18.4381L19.201 18.8071ZM19.3856 18.6823C19.4383 18.6289 19.4798 18.5656 19.5078 18.496L19.1366 18.3468C19.1284 18.3672 19.1163 18.3858 19.1008 18.4015L19.3856 18.6823ZM19.5078 18.496C19.5358 18.4264 19.5496 18.3519 19.5485 18.2769L19.1486 18.2826C19.1489 18.3046 19.1448 18.3264 19.1366 18.3468L19.5078 18.496ZM19.5486 18.2797V17.1514H19.1486V18.2797H19.5486ZM19.5485 17.1542C19.5496 17.0784 19.5355 17.0033 19.507 16.9331L19.1364 17.0837C19.1448 17.1043 19.1489 17.1263 19.1486 17.1485L19.5485 17.1542ZM19.507 16.9331C19.4785 16.863 19.4362 16.7993 19.3826 16.7457L19.0999 17.0287C19.1156 17.0444 19.128 17.0631 19.1364 17.0837L19.507 16.9331ZM19.3826 16.7457C19.329 16.6922 19.2652 16.65 19.1951 16.6216L19.0449 16.9923C19.0655 17.0007 19.0842 17.013 19.0999 17.0287L19.3826 16.7457ZM19.1951 16.6216C19.1249 16.5932 19.0497 16.5791 18.974 16.5803L18.9801 16.9802C19.0023 16.9799 19.0243 16.984 19.0449 16.9923L19.1951 16.6216ZM18.974 19.5194C18.824 19.5216 18.681 19.5834 18.5765 19.691L18.8635 19.9697C18.8941 19.9381 18.9361 19.92 18.9801 19.9193L18.974 19.5194ZM18.5765 19.691C18.472 19.7986 18.4145 19.9433 18.4166 20.0933L18.8166 20.0876C18.816 20.0437 18.8328 20.0012 18.8635 19.9697L18.5765 19.691ZM18.4166 20.0905V22.7933H18.8166V20.0905H18.4166ZM18.4166 22.7933C18.4166 22.7701 18.4245 22.7292 18.4599 22.6938C18.4954 22.6583 18.5363 22.6504 18.5594 22.6504V23.0504C18.6181 23.0504 18.6876 23.0318 18.7428 22.9766C18.7979 22.9214 18.8166 22.8519 18.8166 22.7933H18.4166ZM18.5594 22.6504H13.8343V23.0504H18.5594V22.6504ZM13.8343 22.6504C13.8574 22.6504 13.8984 22.6583 13.9338 22.6938C13.9693 22.7292 13.9771 22.7701 13.9771 22.7933H13.5771C13.5771 22.8519 13.5958 22.9214 13.651 22.9766C13.7062 23.0318 13.7757 23.0504 13.8343 23.0504V22.6504ZM13.9771 22.7933V21.642H13.5771V22.7933H13.9771ZM13.9771 21.6448C13.9782 21.5698 13.9643 21.4954 13.9364 21.4258L13.5652 21.5749C13.5734 21.5953 13.5775 21.6172 13.5772 21.6392L13.9771 21.6448ZM13.9364 21.4258C13.9084 21.3562 13.8669 21.2928 13.8142 21.2394L13.5294 21.5203C13.5448 21.5359 13.557 21.5545 13.5652 21.5749L13.9364 21.4258ZM13.8142 21.2394C13.7616 21.186 13.6988 21.1436 13.6296 21.1147L13.4752 21.4837C13.4955 21.4922 13.5139 21.5046 13.5294 21.5203L13.8142 21.2394ZM13.6296 21.1147C13.5604 21.0857 13.4862 21.0708 13.4112 21.0708V21.4708C13.4332 21.4708 13.4549 21.4752 13.4752 21.4837L13.6296 21.1147ZM13.4112 21.0708C13.3362 21.0708 13.2619 21.0857 13.1927 21.1147L13.3471 21.4837C13.3674 21.4752 13.3892 21.4708 13.4112 21.4708V21.0708ZM13.1927 21.1147C13.1235 21.1436 13.0608 21.186 13.0081 21.2394L13.2929 21.5203C13.3084 21.5046 13.3268 21.4922 13.3471 21.4837L13.1927 21.1147ZM13.0081 21.2394C12.9554 21.2928 12.9139 21.3562 12.886 21.4258L13.2571 21.5749C13.2653 21.5545 13.2775 21.5359 13.2929 21.5203L13.0081 21.2394ZM12.886 21.4258C12.858 21.4954 12.8441 21.5698 12.8452 21.6448L13.2452 21.6392C13.2449 21.6172 13.2489 21.5953 13.2571 21.5749L12.886 21.4258ZM12.8452 21.642V22.7933H13.2452V21.642H12.8452ZM12.8452 22.7933C12.8452 23.3353 13.2923 23.7824 13.8343 23.7824V23.3824C13.5132 23.3824 13.2452 23.1144 13.2452 22.7933H12.8452ZM13.8343 23.7824H18.5594V23.3824H13.8343V23.7824ZM18.5594 23.7824C19.1015 23.7824 19.5486 23.3353 19.5486 22.7933H19.1486C19.1486 23.1144 18.8806 23.3824 18.5594 23.3824V23.7824ZM19.5486 22.7933V20.0905H19.1486V22.7933H19.5486ZM19.5485 20.0933C19.5496 20.0176 19.5355 19.9424 19.507 19.8722L19.1364 20.0228C19.1448 20.0434 19.1489 20.0654 19.1486 20.0876L19.5485 20.0933ZM19.507 19.8722C19.4785 19.8021 19.4362 19.7384 19.3826 19.6848L19.0999 19.9679C19.1156 19.9835 19.128 20.0022 19.1364 20.0228L19.507 19.8722ZM19.3826 19.6848C19.329 19.6313 19.2652 19.5891 19.1951 19.5607L19.0449 19.9314C19.0655 19.9398 19.0842 19.9522 19.0999 19.9679L19.3826 19.6848ZM19.1951 19.5607C19.1249 19.5323 19.0497 19.5182 18.974 19.5194L18.9801 19.9193C19.0023 19.919 19.0243 19.9231 19.0449 19.9314L19.1951 19.5607Z" fill="white" mask="url(#path-1-outside-1)"/>
</svg>
