<svg width="32" height="32" viewBox="0 0 32 32" fill="none" xmlns="http://www.w3.org/2000/svg">
<g opacity="0.2">
<mask id="path-1-outside-1" maskUnits="userSpaceOnUse" x="0" y="9.79736" width="32" height="12" fill="black">
<rect fill="white" y="9.79736" width="32" height="12"/>
<path fill-rule="evenodd" clip-rule="evenodd" d="M27.5626 18.7981C27.5626 18.2294 27.3367 17.6837 26.9349 17.2819C26.5331 16.8801 25.9873 16.6541 25.4187 16.6541C24.8506 16.6541 24.3048 16.8801 23.903 17.2819C23.5012 17.6837 23.2753 18.2294 23.2753 18.7981C23.2753 19.3662 23.5012 19.912 23.903 20.3138C24.3048 20.7156 24.8506 20.9415 25.4187 20.9415C25.9873 20.9415 26.5331 20.7156 26.9349 20.3138C27.3367 19.912 27.5626 19.3662 27.5626 18.7981ZM26.9602 18.7981C26.9602 18.3891 26.7976 17.9969 26.509 17.7078C26.2199 17.4192 25.8277 17.2566 25.4187 17.2566C25.0102 17.2566 24.6181 17.4192 24.3289 17.7078C24.0404 17.9969 23.8777 18.3891 23.8777 18.7981C23.8777 19.2066 24.0404 19.5987 24.3289 19.8879C24.6181 20.1764 25.0102 20.3391 25.4187 20.3391C25.8277 20.3391 26.2199 20.1764 26.509 19.8879C26.7976 19.5987 26.9602 19.2066 26.9602 18.7981Z"/>
<path fill-rule="evenodd" clip-rule="evenodd" d="M8.41145 18.7981C8.41145 18.2294 8.18555 17.6837 7.78374 17.2819C7.38193 16.8801 6.83615 16.6541 6.26808 16.6541C5.6994 16.6541 5.15362 16.8801 4.75181 17.2819C4.35 17.6837 4.1241 18.2294 4.1241 18.7981C4.1241 19.3662 4.35 19.912 4.75181 20.3138C5.15362 20.7156 5.6994 20.9415 6.26808 20.9415C6.83615 20.9415 7.38193 20.7156 7.78374 20.3138C8.18555 19.912 8.41145 19.3662 8.41145 18.7981ZM7.80904 18.7981C7.80904 18.3891 7.64639 17.9969 7.35784 17.7078C7.06868 17.4192 6.67651 17.2566 6.26808 17.2566C5.85904 17.2566 5.46687 17.4192 5.17772 17.7078C4.88916 17.9969 4.72651 18.3891 4.72651 18.7981C4.72651 19.2066 4.88916 19.5987 5.17772 19.8879C5.46687 20.1764 5.85904 20.3391 6.26808 20.3391C6.67651 20.3391 7.06868 20.1764 7.35784 19.8879C7.64639 19.5987 7.80904 19.2066 7.80904 18.7981Z"/>
<path d="M21.7789 13.4322C21.7859 13.4322 21.7929 13.4326 21.7998 13.4331C24.3982 13.597 26.3745 13.9224 27.752 14.2418C28.4408 14.4015 28.9798 14.5595 29.3743 14.6963C29.7688 14.8331 29.9968 14.9264 30.159 15.0443C30.4577 15.2615 30.6677 15.5862 30.7908 15.9802C30.7947 15.9927 30.7978 16.0055 30.8 16.0184C30.9337 16.7871 31 17.6083 31 18.4818C31 18.9694 30.8447 19.3957 30.5158 19.6673C30.187 19.939 29.7325 20.0391 29.1897 20.0214L29.1996 20.0215H28.1567C28.0768 20.0215 28.0002 19.9898 27.9437 19.9333C27.8872 19.8768 27.8555 19.8002 27.8555 19.7203V18.8077C27.8555 17.4598 26.7669 16.3713 25.419 16.3713C24.0711 16.3713 22.9824 17.4598 22.9824 18.8077V19.7203C22.9824 19.8002 22.9507 19.8768 22.8942 19.9333C22.8377 19.9898 22.7611 20.0215 22.6812 20.0215H8.99287C8.95296 20.0221 8.91333 20.0147 8.8763 19.9998C8.83926 19.9849 8.80555 19.9628 8.77712 19.9348C8.7487 19.9068 8.72613 19.8734 8.71072 19.8366C8.69531 19.7997 8.68738 19.7602 8.68738 19.7203C8.68738 19.6804 8.69531 19.6409 8.71072 19.604C8.72613 19.5672 8.7487 19.5338 8.77712 19.5058C8.80555 19.4778 8.83926 19.4557 8.8763 19.4408C8.91333 19.4259 8.95296 19.4185 8.99287 19.4191H22.38V18.8077C22.38 17.1337 23.745 15.7689 25.419 15.7689C27.093 15.7689 28.4579 17.1338 28.4579 18.8077V19.4191H29.1996C29.2029 19.4191 29.2061 19.4191 29.2094 19.4192C29.6661 19.4341 29.9613 19.3441 30.1322 19.2029C30.303 19.0618 30.3976 18.8525 30.3976 18.4818C30.3976 17.6479 30.3339 16.8701 30.2096 16.1463C30.1156 15.8541 29.9807 15.6595 29.8046 15.5314C29.7875 15.519 29.5465 15.3936 29.1769 15.2654C28.8073 15.1372 28.2869 14.9842 27.616 14.8287C26.2743 14.5176 24.3294 14.1962 21.762 14.0342C21.6834 14.0301 21.6096 13.9955 21.5563 13.9377C21.503 13.8799 21.4744 13.8035 21.4766 13.7249C21.4788 13.6463 21.5116 13.5717 21.5681 13.517C21.6246 13.4623 21.7003 13.4319 21.7789 13.4322Z"/>
<path d="M13.1184 10.8014C13.548 10.8087 13.9692 10.8254 14.371 10.848C15.1747 10.8933 15.8996 10.9629 16.4563 11.0321C16.7346 11.0666 16.9707 11.101 17.1553 11.1325C17.3399 11.164 17.46 11.1863 17.5649 11.2224C17.7584 11.2892 18.0311 11.4395 18.4292 11.6551C18.8272 11.8706 19.313 12.1413 19.7906 12.4071C20.2682 12.6729 20.7377 12.9338 21.0992 13.1278C21.2799 13.2248 21.434 13.3052 21.5453 13.3597C21.601 13.3869 21.6464 13.4078 21.6749 13.4197C21.7034 13.4316 21.7432 13.429 21.6598 13.423C21.6996 13.4253 21.7386 13.4356 21.7744 13.4531C21.8102 13.4706 21.8422 13.495 21.8685 13.525C21.8948 13.555 21.9149 13.5899 21.9276 13.6277C21.9404 13.6655 21.9454 13.7055 21.9426 13.7452C21.9397 13.785 21.929 13.8238 21.911 13.8594C21.8931 13.895 21.8682 13.9267 21.8379 13.9526C21.8076 13.9786 21.7724 13.9982 21.7345 14.0104C21.6965 14.0227 21.6565 14.0272 21.6168 14.0239C21.5049 14.0159 21.4908 13.9956 21.4432 13.9757C21.3956 13.9559 21.3425 13.9311 21.2805 13.9008C21.1565 13.8401 20.9983 13.7575 20.8142 13.6587C20.446 13.461 19.9754 13.1994 19.4976 12.9335C19.0199 12.6676 18.5351 12.3976 18.1423 12.1849C17.7495 11.9722 17.4112 11.8067 17.3685 11.792C17.3552 11.7874 17.2262 11.7557 17.054 11.7264C16.8818 11.697 16.6532 11.6635 16.382 11.6299C15.8397 11.5625 15.1265 11.4939 14.3373 11.4495C12.7588 11.3607 10.8707 11.3725 9.44585 11.6716C7.51234 12.0776 5.76636 12.7808 4.20112 13.7817C4.15267 13.8127 4.09637 13.8291 4.03887 13.8291H1.96927C1.88762 13.959 1.79222 14.1978 1.72795 14.5513C1.64625 15.0007 1.60241 15.6194 1.60241 16.396C1.60241 17.8297 1.78288 18.7795 2.00786 19.1833L3.21621 19.3692V18.8077C3.21621 17.1337 4.58109 15.7689 6.25508 15.7689C7.92908 15.7689 9.29408 17.1337 9.29408 18.8077V19.7203C9.29464 19.7602 9.28727 19.7998 9.27238 19.8369C9.2575 19.8739 9.2354 19.9076 9.20738 19.936C9.17935 19.9645 9.14596 19.987 9.10913 20.0024C9.07231 20.0178 9.03279 20.0258 8.99287 20.0258C8.95295 20.0258 8.91343 20.0178 8.87661 20.0024C8.83979 19.987 8.80639 19.9645 8.77836 19.936C8.75034 19.9076 8.72824 19.8739 8.71336 19.8369C8.69847 19.7998 8.6911 19.7602 8.69167 19.7203V18.8077C8.69167 17.4598 7.60301 16.3713 6.25508 16.3713C4.90715 16.3713 3.81862 17.4598 3.81862 18.8077V19.7203C3.81861 19.7637 3.80921 19.8066 3.79107 19.8461C3.77293 19.8855 3.74648 19.9206 3.71353 19.9488C3.68057 19.9771 3.64189 19.9979 3.60015 20.0099C3.5584 20.0218 3.51456 20.0245 3.47164 20.018L1.7769 19.7572C1.69864 19.7452 1.62827 19.7028 1.581 19.6393C1.13656 19.0421 1 17.9934 1 16.396C1 15.5973 1.04307 14.9503 1.13519 14.4437C1.22731 13.937 1.35501 13.5616 1.61312 13.3116C1.6693 13.2572 1.74445 13.2267 1.82267 13.2267H3.95475C5.56367 12.2113 7.35442 11.4952 9.32208 11.0821C10.4656 10.842 11.8297 10.7795 13.1184 10.8014Z"/>
<path d="M12.3943 11.7482C13.7547 11.7316 15.3578 11.8397 17.2094 12.0693C17.247 12.074 17.2833 12.0858 17.3165 12.1039L20.9017 14.0594C20.9606 14.0916 21.007 14.1425 21.0337 14.2041C21.0603 14.2657 21.0657 14.3344 21.0488 14.3993C21.032 14.4643 20.994 14.5218 20.9407 14.5627C20.8875 14.6035 20.8222 14.6255 20.7551 14.625L6.49196 14.5164C6.41246 14.5158 6.33643 14.4838 6.28043 14.4274C6.22442 14.3709 6.19299 14.2947 6.19299 14.2152V13.4546C6.193 13.4054 6.20509 13.3569 6.22818 13.3134C6.25128 13.2699 6.28468 13.2328 6.32547 13.2052C7.22441 12.5972 8.51525 12.1784 10.2064 11.9137C10.8491 11.8131 11.578 11.7582 12.3943 11.7482ZM13.2248 12.3568C12.0846 12.331 11.1085 12.3822 10.2996 12.5088C8.74062 12.7528 7.57882 13.1391 6.7954 13.6301V13.9162L19.5593 14.0134L17.0813 12.6617C15.6387 12.4844 14.3503 12.3822 13.2248 12.3568Z"/>
</mask>
<path fill-rule="evenodd" clip-rule="evenodd" d="M27.5626 18.7981C27.5626 18.2294 27.3367 17.6837 26.9349 17.2819C26.5331 16.8801 25.9873 16.6541 25.4187 16.6541C24.8506 16.6541 24.3048 16.8801 23.903 17.2819C23.5012 17.6837 23.2753 18.2294 23.2753 18.7981C23.2753 19.3662 23.5012 19.912 23.903 20.3138C24.3048 20.7156 24.8506 20.9415 25.4187 20.9415C25.9873 20.9415 26.5331 20.7156 26.9349 20.3138C27.3367 19.912 27.5626 19.3662 27.5626 18.7981ZM26.9602 18.7981C26.9602 18.3891 26.7976 17.9969 26.509 17.7078C26.2199 17.4192 25.8277 17.2566 25.4187 17.2566C25.0102 17.2566 24.6181 17.4192 24.3289 17.7078C24.0404 17.9969 23.8777 18.3891 23.8777 18.7981C23.8777 19.2066 24.0404 19.5987 24.3289 19.8879C24.6181 20.1764 25.0102 20.3391 25.4187 20.3391C25.8277 20.3391 26.2199 20.1764 26.509 19.8879C26.7976 19.5987 26.9602 19.2066 26.9602 18.7981Z" fill="white"/>
<path fill-rule="evenodd" clip-rule="evenodd" d="M8.41145 18.7981C8.41145 18.2294 8.18555 17.6837 7.78374 17.2819C7.38193 16.8801 6.83615 16.6541 6.26808 16.6541C5.6994 16.6541 5.15362 16.8801 4.75181 17.2819C4.35 17.6837 4.1241 18.2294 4.1241 18.7981C4.1241 19.3662 4.35 19.912 4.75181 20.3138C5.15362 20.7156 5.6994 20.9415 6.26808 20.9415C6.83615 20.9415 7.38193 20.7156 7.78374 20.3138C8.18555 19.912 8.41145 19.3662 8.41145 18.7981ZM7.80904 18.7981C7.80904 18.3891 7.64639 17.9969 7.35784 17.7078C7.06868 17.4192 6.67651 17.2566 6.26808 17.2566C5.85904 17.2566 5.46687 17.4192 5.17772 17.7078C4.88916 17.9969 4.72651 18.3891 4.72651 18.7981C4.72651 19.2066 4.88916 19.5987 5.17772 19.8879C5.46687 20.1764 5.85904 20.3391 6.26808 20.3391C6.67651 20.3391 7.06868 20.1764 7.35784 19.8879C7.64639 19.5987 7.80904 19.2066 7.80904 18.7981Z" fill="white"/>
<path d="M21.7789 13.4322C21.7859 13.4322 21.7929 13.4326 21.7998 13.4331C24.3982 13.597 26.3745 13.9224 27.752 14.2418C28.4408 14.4015 28.9798 14.5595 29.3743 14.6963C29.7688 14.8331 29.9968 14.9264 30.159 15.0443C30.4577 15.2615 30.6677 15.5862 30.7908 15.9802C30.7947 15.9927 30.7978 16.0055 30.8 16.0184C30.9337 16.7871 31 17.6083 31 18.4818C31 18.9694 30.8447 19.3957 30.5158 19.6673C30.187 19.939 29.7325 20.0391 29.1897 20.0214L29.1996 20.0215H28.1567C28.0768 20.0215 28.0002 19.9898 27.9437 19.9333C27.8872 19.8768 27.8555 19.8002 27.8555 19.7203V18.8077C27.8555 17.4598 26.7669 16.3713 25.419 16.3713C24.0711 16.3713 22.9824 17.4598 22.9824 18.8077V19.7203C22.9824 19.8002 22.9507 19.8768 22.8942 19.9333C22.8377 19.9898 22.7611 20.0215 22.6812 20.0215H8.99287C8.95296 20.0221 8.91333 20.0147 8.8763 19.9998C8.83926 19.9849 8.80555 19.9628 8.77712 19.9348C8.7487 19.9068 8.72613 19.8734 8.71072 19.8366C8.69531 19.7997 8.68738 19.7602 8.68738 19.7203C8.68738 19.6804 8.69531 19.6409 8.71072 19.604C8.72613 19.5672 8.7487 19.5338 8.77712 19.5058C8.80555 19.4778 8.83926 19.4557 8.8763 19.4408C8.91333 19.4259 8.95296 19.4185 8.99287 19.4191H22.38V18.8077C22.38 17.1337 23.745 15.7689 25.419 15.7689C27.093 15.7689 28.4579 17.1338 28.4579 18.8077V19.4191H29.1996C29.2029 19.4191 29.2061 19.4191 29.2094 19.4192C29.6661 19.4341 29.9613 19.3441 30.1322 19.2029C30.303 19.0618 30.3976 18.8525 30.3976 18.4818C30.3976 17.6479 30.3339 16.8701 30.2096 16.1463C30.1156 15.8541 29.9807 15.6595 29.8046 15.5314C29.7875 15.519 29.5465 15.3936 29.1769 15.2654C28.8073 15.1372 28.2869 14.9842 27.616 14.8287C26.2743 14.5176 24.3294 14.1962 21.762 14.0342C21.6834 14.0301 21.6096 13.9955 21.5563 13.9377C21.503 13.8799 21.4744 13.8035 21.4766 13.7249C21.4788 13.6463 21.5116 13.5717 21.5681 13.517C21.6246 13.4623 21.7003 13.4319 21.7789 13.4322Z" fill="white"/>
<path d="M13.1184 10.8014C13.548 10.8087 13.9692 10.8254 14.371 10.848C15.1747 10.8933 15.8996 10.9629 16.4563 11.0321C16.7346 11.0666 16.9707 11.101 17.1553 11.1325C17.3399 11.164 17.46 11.1863 17.5649 11.2224C17.7584 11.2892 18.0311 11.4395 18.4292 11.6551C18.8272 11.8706 19.313 12.1413 19.7906 12.4071C20.2682 12.6729 20.7377 12.9338 21.0992 13.1278C21.2799 13.2248 21.434 13.3052 21.5453 13.3597C21.601 13.3869 21.6464 13.4078 21.6749 13.4197C21.7034 13.4316 21.7432 13.429 21.6598 13.423C21.6996 13.4253 21.7386 13.4356 21.7744 13.4531C21.8102 13.4706 21.8422 13.495 21.8685 13.525C21.8948 13.555 21.9149 13.5899 21.9276 13.6277C21.9404 13.6655 21.9454 13.7055 21.9426 13.7452C21.9397 13.785 21.929 13.8238 21.911 13.8594C21.8931 13.895 21.8682 13.9267 21.8379 13.9526C21.8076 13.9786 21.7724 13.9982 21.7345 14.0104C21.6965 14.0227 21.6565 14.0272 21.6168 14.0239C21.5049 14.0159 21.4908 13.9956 21.4432 13.9757C21.3956 13.9559 21.3425 13.9311 21.2805 13.9008C21.1565 13.8401 20.9983 13.7575 20.8142 13.6587C20.446 13.461 19.9754 13.1994 19.4976 12.9335C19.0199 12.6676 18.5351 12.3976 18.1423 12.1849C17.7495 11.9722 17.4112 11.8067 17.3685 11.792C17.3552 11.7874 17.2262 11.7557 17.054 11.7264C16.8818 11.697 16.6532 11.6635 16.382 11.6299C15.8397 11.5625 15.1265 11.4939 14.3373 11.4495C12.7588 11.3607 10.8707 11.3725 9.44585 11.6716C7.51234 12.0776 5.76636 12.7808 4.20112 13.7817C4.15267 13.8127 4.09637 13.8291 4.03887 13.8291H1.96927C1.88762 13.959 1.79222 14.1978 1.72795 14.5513C1.64625 15.0007 1.60241 15.6194 1.60241 16.396C1.60241 17.8297 1.78288 18.7795 2.00786 19.1833L3.21621 19.3692V18.8077C3.21621 17.1337 4.58109 15.7689 6.25508 15.7689C7.92908 15.7689 9.29408 17.1337 9.29408 18.8077V19.7203C9.29464 19.7602 9.28727 19.7998 9.27238 19.8369C9.2575 19.8739 9.2354 19.9076 9.20738 19.936C9.17935 19.9645 9.14596 19.987 9.10913 20.0024C9.07231 20.0178 9.03279 20.0258 8.99287 20.0258C8.95295 20.0258 8.91343 20.0178 8.87661 20.0024C8.83979 19.987 8.80639 19.9645 8.77836 19.936C8.75034 19.9076 8.72824 19.8739 8.71336 19.8369C8.69847 19.7998 8.6911 19.7602 8.69167 19.7203V18.8077C8.69167 17.4598 7.60301 16.3713 6.25508 16.3713C4.90715 16.3713 3.81862 17.4598 3.81862 18.8077V19.7203C3.81861 19.7637 3.80921 19.8066 3.79107 19.8461C3.77293 19.8855 3.74648 19.9206 3.71353 19.9488C3.68057 19.9771 3.64189 19.9979 3.60015 20.0099C3.5584 20.0218 3.51456 20.0245 3.47164 20.018L1.7769 19.7572C1.69864 19.7452 1.62827 19.7028 1.581 19.6393C1.13656 19.0421 1 17.9934 1 16.396C1 15.5973 1.04307 14.9503 1.13519 14.4437C1.22731 13.937 1.35501 13.5616 1.61312 13.3116C1.6693 13.2572 1.74445 13.2267 1.82267 13.2267H3.95475C5.56367 12.2113 7.35442 11.4952 9.32208 11.0821C10.4656 10.842 11.8297 10.7795 13.1184 10.8014Z" fill="white"/>
<path d="M12.3943 11.7482C13.7547 11.7316 15.3578 11.8397 17.2094 12.0693C17.247 12.074 17.2833 12.0858 17.3165 12.1039L20.9017 14.0594C20.9606 14.0916 21.007 14.1425 21.0337 14.2041C21.0603 14.2657 21.0657 14.3344 21.0488 14.3993C21.032 14.4643 20.994 14.5218 20.9407 14.5627C20.8875 14.6035 20.8222 14.6255 20.7551 14.625L6.49196 14.5164C6.41246 14.5158 6.33643 14.4838 6.28043 14.4274C6.22442 14.3709 6.19299 14.2947 6.19299 14.2152V13.4546C6.193 13.4054 6.20509 13.3569 6.22818 13.3134C6.25128 13.2699 6.28468 13.2328 6.32547 13.2052C7.22441 12.5972 8.51525 12.1784 10.2064 11.9137C10.8491 11.8131 11.578 11.7582 12.3943 11.7482ZM13.2248 12.3568C12.0846 12.331 11.1085 12.3822 10.2996 12.5088C8.74062 12.7528 7.57882 13.1391 6.7954 13.6301V13.9162L19.5593 14.0134L17.0813 12.6617C15.6387 12.4844 14.3503 12.3822 13.2248 12.3568Z" fill="white"/>
<path fill-rule="evenodd" clip-rule="evenodd" d="M27.5626 18.7981C27.5626 18.2294 27.3367 17.6837 26.9349 17.2819C26.5331 16.8801 25.9873 16.6541 25.4187 16.6541C24.8506 16.6541 24.3048 16.8801 23.903 17.2819C23.5012 17.6837 23.2753 18.2294 23.2753 18.7981C23.2753 19.3662 23.5012 19.912 23.903 20.3138C24.3048 20.7156 24.8506 20.9415 25.4187 20.9415C25.9873 20.9415 26.5331 20.7156 26.9349 20.3138C27.3367 19.912 27.5626 19.3662 27.5626 18.7981ZM26.9602 18.7981C26.9602 18.3891 26.7976 17.9969 26.509 17.7078C26.2199 17.4192 25.8277 17.2566 25.4187 17.2566C25.0102 17.2566 24.6181 17.4192 24.3289 17.7078C24.0404 17.9969 23.8777 18.3891 23.8777 18.7981C23.8777 19.2066 24.0404 19.5987 24.3289 19.8879C24.6181 20.1764 25.0102 20.3391 25.4187 20.3391C25.8277 20.3391 26.2199 20.1764 26.509 19.8879C26.7976 19.5987 26.9602 19.2066 26.9602 18.7981Z" stroke="white" stroke-width="0.4" mask="url(#path-1-outside-1)"/>
<path fill-rule="evenodd" clip-rule="evenodd" d="M8.41145 18.7981C8.41145 18.2294 8.18555 17.6837 7.78374 17.2819C7.38193 16.8801 6.83615 16.6541 6.26808 16.6541C5.6994 16.6541 5.15362 16.8801 4.75181 17.2819C4.35 17.6837 4.1241 18.2294 4.1241 18.7981C4.1241 19.3662 4.35 19.912 4.75181 20.3138C5.15362 20.7156 5.6994 20.9415 6.26808 20.9415C6.83615 20.9415 7.38193 20.7156 7.78374 20.3138C8.18555 19.912 8.41145 19.3662 8.41145 18.7981ZM7.80904 18.7981C7.80904 18.3891 7.64639 17.9969 7.35784 17.7078C7.06868 17.4192 6.67651 17.2566 6.26808 17.2566C5.85904 17.2566 5.46687 17.4192 5.17772 17.7078C4.88916 17.9969 4.72651 18.3891 4.72651 18.7981C4.72651 19.2066 4.88916 19.5987 5.17772 19.8879C5.46687 20.1764 5.85904 20.3391 6.26808 20.3391C6.67651 20.3391 7.06868 20.1764 7.35784 19.8879C7.64639 19.5987 7.80904 19.2066 7.80904 18.7981Z" stroke="white" stroke-width="0.4" mask="url(#path-1-outside-1)"/>
<path d="M21.7789 13.4322C21.7859 13.4322 21.7929 13.4326 21.7998 13.4331C24.3982 13.597 26.3745 13.9224 27.752 14.2418C28.4408 14.4015 28.9798 14.5595 29.3743 14.6963C29.7688 14.8331 29.9968 14.9264 30.159 15.0443C30.4577 15.2615 30.6677 15.5862 30.7908 15.9802C30.7947 15.9927 30.7978 16.0055 30.8 16.0184C30.9337 16.7871 31 17.6083 31 18.4818C31 18.9694 30.8447 19.3957 30.5158 19.6673C30.187 19.939 29.7325 20.0391 29.1897 20.0214L29.1996 20.0215H28.1567C28.0768 20.0215 28.0002 19.9898 27.9437 19.9333C27.8872 19.8768 27.8555 19.8002 27.8555 19.7203V18.8077C27.8555 17.4598 26.7669 16.3713 25.419 16.3713C24.0711 16.3713 22.9824 17.4598 22.9824 18.8077V19.7203C22.9824 19.8002 22.9507 19.8768 22.8942 19.9333C22.8377 19.9898 22.7611 20.0215 22.6812 20.0215H8.99287C8.95296 20.0221 8.91333 20.0147 8.8763 19.9998C8.83926 19.9849 8.80555 19.9628 8.77712 19.9348C8.7487 19.9068 8.72613 19.8734 8.71072 19.8366C8.69531 19.7997 8.68738 19.7602 8.68738 19.7203C8.68738 19.6804 8.69531 19.6409 8.71072 19.604C8.72613 19.5672 8.7487 19.5338 8.77712 19.5058C8.80555 19.4778 8.83926 19.4557 8.8763 19.4408C8.91333 19.4259 8.95296 19.4185 8.99287 19.4191H22.38V18.8077C22.38 17.1337 23.745 15.7689 25.419 15.7689C27.093 15.7689 28.4579 17.1338 28.4579 18.8077V19.4191H29.1996C29.2029 19.4191 29.2061 19.4191 29.2094 19.4192C29.6661 19.4341 29.9613 19.3441 30.1322 19.2029C30.303 19.0618 30.3976 18.8525 30.3976 18.4818C30.3976 17.6479 30.3339 16.8701 30.2096 16.1463C30.1156 15.8541 29.9807 15.6595 29.8046 15.5314C29.7875 15.519 29.5465 15.3936 29.1769 15.2654C28.8073 15.1372 28.2869 14.9842 27.616 14.8287C26.2743 14.5176 24.3294 14.1962 21.762 14.0342C21.6834 14.0301 21.6096 13.9955 21.5563 13.9377C21.503 13.8799 21.4744 13.8035 21.4766 13.7249C21.4788 13.6463 21.5116 13.5717 21.5681 13.517C21.6246 13.4623 21.7003 13.4319 21.7789 13.4322Z" stroke="white" stroke-width="0.4" mask="url(#path-1-outside-1)"/>
<path d="M13.1184 10.8014C13.548 10.8087 13.9692 10.8254 14.371 10.848C15.1747 10.8933 15.8996 10.9629 16.4563 11.0321C16.7346 11.0666 16.9707 11.101 17.1553 11.1325C17.3399 11.164 17.46 11.1863 17.5649 11.2224C17.7584 11.2892 18.0311 11.4395 18.4292 11.6551C18.8272 11.8706 19.313 12.1413 19.7906 12.4071C20.2682 12.6729 20.7377 12.9338 21.0992 13.1278C21.2799 13.2248 21.434 13.3052 21.5453 13.3597C21.601 13.3869 21.6464 13.4078 21.6749 13.4197C21.7034 13.4316 21.7432 13.429 21.6598 13.423C21.6996 13.4253 21.7386 13.4356 21.7744 13.4531C21.8102 13.4706 21.8422 13.495 21.8685 13.525C21.8948 13.555 21.9149 13.5899 21.9276 13.6277C21.9404 13.6655 21.9454 13.7055 21.9426 13.7452C21.9397 13.785 21.929 13.8238 21.911 13.8594C21.8931 13.895 21.8682 13.9267 21.8379 13.9526C21.8076 13.9786 21.7724 13.9982 21.7345 14.0104C21.6965 14.0227 21.6565 14.0272 21.6168 14.0239C21.5049 14.0159 21.4908 13.9956 21.4432 13.9757C21.3956 13.9559 21.3425 13.9311 21.2805 13.9008C21.1565 13.8401 20.9983 13.7575 20.8142 13.6587C20.446 13.461 19.9754 13.1994 19.4976 12.9335C19.0199 12.6676 18.5351 12.3976 18.1423 12.1849C17.7495 11.9722 17.4112 11.8067 17.3685 11.792C17.3552 11.7874 17.2262 11.7557 17.054 11.7264C16.8818 11.697 16.6532 11.6635 16.382 11.6299C15.8397 11.5625 15.1265 11.4939 14.3373 11.4495C12.7588 11.3607 10.8707 11.3725 9.44585 11.6716C7.51234 12.0776 5.76636 12.7808 4.20112 13.7817C4.15267 13.8127 4.09637 13.8291 4.03887 13.8291H1.96927C1.88762 13.959 1.79222 14.1978 1.72795 14.5513C1.64625 15.0007 1.60241 15.6194 1.60241 16.396C1.60241 17.8297 1.78288 18.7795 2.00786 19.1833L3.21621 19.3692V18.8077C3.21621 17.1337 4.58109 15.7689 6.25508 15.7689C7.92908 15.7689 9.29408 17.1337 9.29408 18.8077V19.7203C9.29464 19.7602 9.28727 19.7998 9.27238 19.8369C9.2575 19.8739 9.2354 19.9076 9.20738 19.936C9.17935 19.9645 9.14596 19.987 9.10913 20.0024C9.07231 20.0178 9.03279 20.0258 8.99287 20.0258C8.95295 20.0258 8.91343 20.0178 8.87661 20.0024C8.83979 19.987 8.80639 19.9645 8.77836 19.936C8.75034 19.9076 8.72824 19.8739 8.71336 19.8369C8.69847 19.7998 8.6911 19.7602 8.69167 19.7203V18.8077C8.69167 17.4598 7.60301 16.3713 6.25508 16.3713C4.90715 16.3713 3.81862 17.4598 3.81862 18.8077V19.7203C3.81861 19.7637 3.80921 19.8066 3.79107 19.8461C3.77293 19.8855 3.74648 19.9206 3.71353 19.9488C3.68057 19.9771 3.64189 19.9979 3.60015 20.0099C3.5584 20.0218 3.51456 20.0245 3.47164 20.018L1.7769 19.7572C1.69864 19.7452 1.62827 19.7028 1.581 19.6393C1.13656 19.0421 1 17.9934 1 16.396C1 15.5973 1.04307 14.9503 1.13519 14.4437C1.22731 13.937 1.35501 13.5616 1.61312 13.3116C1.6693 13.2572 1.74445 13.2267 1.82267 13.2267H3.95475C5.56367 12.2113 7.35442 11.4952 9.32208 11.0821C10.4656 10.842 11.8297 10.7795 13.1184 10.8014Z" stroke="white" stroke-width="0.4" mask="url(#path-1-outside-1)"/>
<path d="M12.3943 11.7482C13.7547 11.7316 15.3578 11.8397 17.2094 12.0693C17.247 12.074 17.2833 12.0858 17.3165 12.1039L20.9017 14.0594C20.9606 14.0916 21.007 14.1425 21.0337 14.2041C21.0603 14.2657 21.0657 14.3344 21.0488 14.3993C21.032 14.4643 20.994 14.5218 20.9407 14.5627C20.8875 14.6035 20.8222 14.6255 20.7551 14.625L6.49196 14.5164C6.41246 14.5158 6.33643 14.4838 6.28043 14.4274C6.22442 14.3709 6.19299 14.2947 6.19299 14.2152V13.4546C6.193 13.4054 6.20509 13.3569 6.22818 13.3134C6.25128 13.2699 6.28468 13.2328 6.32547 13.2052C7.22441 12.5972 8.51525 12.1784 10.2064 11.9137C10.8491 11.8131 11.578 11.7582 12.3943 11.7482ZM13.2248 12.3568C12.0846 12.331 11.1085 12.3822 10.2996 12.5088C8.74062 12.7528 7.57882 13.1391 6.7954 13.6301V13.9162L19.5593 14.0134L17.0813 12.6617C15.6387 12.4844 14.3503 12.3822 13.2248 12.3568Z" stroke="white" stroke-width="0.4" mask="url(#path-1-outside-1)"/>
</g>
<path d="M30.0001 16C29.6001 14.4 23.8334 14 21.0001 14V19H22.5001C22.5001 18.5 23.0001 16 25.5001 16C27.5001 16 28.3334 18 28.5001 19L29.0001 19.5L30.0001 19C30.1668 18.6667 30.4001 17.6 30.0001 16Z" fill="white" stroke="white" stroke-linecap="round" stroke-linejoin="round"/>
</svg>
