<svg width="32" height="32" viewBox="0 0 32 32" fill="none" xmlns="http://www.w3.org/2000/svg">
<mask id="path-1-outside-1" maskUnits="userSpaceOnUse" x="0" y="4" width="32" height="25" fill="black">
<rect fill="white" y="4" width="32" height="25"/>
<path fill-rule="evenodd" clip-rule="evenodd" d="M7.52851 24.4866C7.52851 24.1446 7.66497 23.8156 7.90704 23.5735C8.1491 23.3315 8.47727 23.1958 8.82006 23.1958C9.16204 23.1958 9.49103 23.3315 9.73309 23.5735C9.97516 23.8156 10.1108 24.1446 10.1108 24.4866C10.1108 24.8294 9.97516 25.1575 9.73309 25.3996C9.49103 25.6417 9.16204 25.7781 8.82006 25.7781C8.47727 25.7781 8.1491 25.6417 7.90704 25.3996C7.66497 25.1575 7.52851 24.8294 7.52851 24.4866ZM8.34081 24.4866C8.34081 24.3599 8.39117 24.238 8.48134 24.1478C8.57069 24.0585 8.69253 24.0081 8.82006 24.0081C8.94678 24.0081 9.06863 24.0585 9.15879 24.1478C9.24815 24.238 9.29851 24.3599 9.29851 24.4866C9.29851 24.6141 9.24815 24.736 9.15879 24.8253C9.06863 24.9155 8.94678 24.9658 8.82006 24.9658C8.69253 24.9658 8.57069 24.9155 8.48134 24.8253C8.39117 24.736 8.34081 24.6141 8.34081 24.4866Z"/>
<path fill-rule="evenodd" clip-rule="evenodd" d="M10.6153 24.4866C10.6153 24.1446 10.7517 23.8156 10.9938 23.5735C11.2358 23.3315 11.564 23.1958 11.9068 23.1958C12.2488 23.1958 12.5778 23.3315 12.8198 23.5735C13.0619 23.8156 13.1976 24.1446 13.1976 24.4866C13.1976 24.8294 13.0619 25.1575 12.8198 25.3996C12.5778 25.6417 12.2488 25.7781 11.9068 25.7781C11.564 25.7781 11.2358 25.6417 10.9938 25.3996C10.7517 25.1575 10.6153 24.8294 10.6153 24.4866ZM11.4276 24.4866C11.4276 24.3599 11.4779 24.238 11.5681 24.1478C11.6574 24.0585 11.7793 24.0081 11.9068 24.0081C12.0335 24.0081 12.1554 24.0585 12.2455 24.1478C12.3349 24.238 12.3853 24.3599 12.3853 24.4866C12.3853 24.6141 12.3349 24.736 12.2455 24.8253C12.1554 24.9155 12.0335 24.9658 11.9068 24.9658C11.7793 24.9658 11.6574 24.9155 11.5681 24.8253C11.4779 24.736 11.4276 24.6141 11.4276 24.4866Z"/>
<path d="M16.0341 5.00005C15.9808 4.99919 15.9278 5.00885 15.8782 5.02846C15.8286 5.04808 15.7833 5.07728 15.745 5.11439C15.7067 5.1515 15.676 5.1958 15.6548 5.24475C15.6336 5.29371 15.6223 5.34636 15.6214 5.3997C15.6206 5.45304 15.6302 5.50603 15.6498 5.55563C15.6695 5.60524 15.6987 5.65049 15.7358 5.68881C15.7729 5.72713 15.8172 5.75777 15.8662 5.77896C15.9151 5.80016 15.9678 5.81151 16.0211 5.81235C20.037 5.87643 22.7982 6.12098 24.2155 6.50567C24.3741 6.54872 24.7378 6.84559 25.09 7.32701C25.4422 7.80844 25.8072 8.44728 26.139 9.0998C26.8026 10.4048 27.3332 11.7533 27.4834 12.1204C27.5946 12.3921 27.7895 12.6413 28.0355 12.9416C28.2816 13.2418 28.5781 13.5726 28.8762 13.903C29.4426 14.5305 30.0031 15.1752 30.1845 15.4694C30.1973 19.2327 29.8869 22.2434 29.2722 24.4883H24.3101C24.0248 24.1818 23.6268 23.9964 23.1844 23.9743C22.9156 23.9608 21.9778 23.9578 20.246 23.9578C18.5142 23.9578 16.0249 23.9631 12.7771 23.9738C12.7233 23.9732 12.6699 23.9834 12.6201 24.0036C12.5702 24.0239 12.5249 24.0538 12.4867 24.0917C12.4485 24.1296 12.4182 24.1748 12.3976 24.2245C12.377 24.2742 12.3665 24.3275 12.3667 24.3813C12.3669 24.4351 12.3778 24.4884 12.3987 24.5379C12.4196 24.5875 12.4502 24.6324 12.4886 24.6701C12.5271 24.7078 12.5726 24.7374 12.6226 24.7573C12.6726 24.7772 12.726 24.787 12.7798 24.7861C16.0271 24.7754 18.5159 24.7701 20.246 24.7701C21.9761 24.7701 22.9839 24.7776 23.1438 24.7856C23.4748 24.8022 23.6436 24.8987 23.791 25.1197C23.828 25.1754 23.8783 25.221 23.9372 25.2525C23.9962 25.2841 24.062 25.3006 24.1289 25.3006H29.5851C29.6729 25.3006 29.7583 25.2722 29.8285 25.2197C29.8988 25.1671 29.9502 25.0932 29.9749 25.009C30.686 22.5899 31.0206 19.3741 30.999 15.341C30.9986 15.2742 30.9818 15.2086 30.95 15.1499C30.6765 14.645 30.073 14.0164 29.4794 13.3587C29.1826 13.0298 28.8923 12.7054 28.664 12.4267C28.4357 12.1481 28.2689 11.8948 28.2353 11.8128C28.096 11.4723 27.5499 10.0822 26.8631 8.73156C26.5197 8.05624 26.1411 7.38808 25.7456 6.8474C25.35 6.30673 24.9617 5.8664 24.4283 5.72161C22.8441 5.29161 20.0757 5.06454 16.0341 5.00005Z"/>
<path d="M16.03 6.39046C15.9762 6.38946 15.9228 6.39915 15.8728 6.41897C15.8228 6.43878 15.7772 6.46833 15.7387 6.5059C15.7002 6.54346 15.6696 6.5883 15.6486 6.63781C15.6275 6.68731 15.6165 6.7405 15.6162 6.79428C15.6159 6.84807 15.6263 6.90138 15.6468 6.95112C15.6672 7.00086 15.6974 7.04604 15.7354 7.08404C15.7735 7.12204 15.8187 7.1521 15.8685 7.17248C15.9183 7.19286 15.9716 7.20316 16.0254 7.20276C19.6496 7.22333 22.0203 7.35675 23.0213 7.56481C23.2134 7.61598 23.4707 7.79259 23.7565 8.16277C23.9866 8.46072 24.4052 9.23385 24.9147 10.2865C24.9058 10.2872 24.9046 10.288 24.8955 10.2887C24.5151 10.3187 23.9261 10.3446 23.1389 10.3652C21.5645 10.4064 19.1922 10.4272 16.0276 10.4272C15.9738 10.4265 15.9204 10.4364 15.8704 10.4565C15.8205 10.4765 15.775 10.5063 15.7367 10.5441C15.6984 10.5819 15.6679 10.6269 15.6471 10.6766C15.6264 10.7263 15.6157 10.7795 15.6157 10.8334C15.6157 10.8872 15.6264 10.9405 15.6471 10.9901C15.6679 11.0398 15.6984 11.0848 15.7367 11.1226C15.775 11.1604 15.8205 11.1902 15.8704 11.2103C15.9204 11.2303 15.9738 11.2403 16.0276 11.2395C19.1958 11.2395 21.5715 11.2188 23.1602 11.1772C23.9545 11.1564 24.5506 11.1306 24.9593 11.0985C25.1636 11.0824 25.3187 11.0658 25.4443 11.0426C25.5071 11.0311 25.5599 11.0207 25.6312 10.9923C25.6668 10.9781 25.7085 10.9623 25.769 10.9116C25.8295 10.8609 25.9293 10.7351 25.9226 10.5686C25.9205 10.5146 25.9076 10.4617 25.8847 10.4128C25.2409 9.03721 24.7712 8.14758 24.3994 7.66619C24.0476 7.21066 23.6676 6.89174 23.2206 6.77598C23.2146 6.77442 23.2086 6.77299 23.2025 6.7717C22.0327 6.52559 19.6833 6.4112 16.03 6.39046Z"/>
<path d="M27.7782 9.94047C27.5445 9.93596 27.3494 9.93404 27.1281 10.0273C27.0778 10.0472 27.032 10.0769 26.9934 10.1148C26.9548 10.1526 26.9241 10.1978 26.9032 10.2477C26.8822 10.2975 26.8715 10.351 26.8715 10.4051C26.8715 10.4592 26.8824 10.5127 26.9033 10.5625C26.9243 10.6124 26.9551 10.6575 26.9937 10.6953C27.0324 10.7331 27.0782 10.7628 27.1285 10.7827C27.1788 10.8025 27.2325 10.8122 27.2866 10.811C27.3406 10.8098 27.3939 10.7978 27.4433 10.7758C27.4256 10.7832 27.5795 10.7491 27.7627 10.7526C27.9459 10.7561 28.1734 10.7783 28.3954 10.8134C28.6173 10.8484 28.8356 10.8968 28.9995 10.9468C29.1635 10.9968 29.2861 11.0909 29.2251 11.0287C29.2601 11.0644 29.4606 11.3723 29.5802 11.6363C29.6295 11.7451 29.6621 11.839 29.6878 11.9193C29.6221 11.9568 29.5497 11.9973 29.4463 12.0442C29.1882 12.1613 28.8297 12.2895 28.4306 12.3663C28.3777 12.3758 28.3272 12.3957 28.2821 12.4249C28.2369 12.4541 28.198 12.4919 28.1676 12.5362C28.1372 12.5806 28.1159 12.6305 28.1049 12.6831C28.0939 12.7357 28.0935 12.79 28.1037 12.8428C28.1138 12.8955 28.1343 12.9458 28.164 12.9906C28.1938 13.0354 28.2321 13.0738 28.2767 13.1037C28.3214 13.1336 28.3716 13.1543 28.4243 13.1646C28.4771 13.175 28.5313 13.1748 28.584 13.164C29.0582 13.0728 29.4708 12.9251 29.7818 12.784C29.9374 12.7135 30.0669 12.6449 30.1704 12.5819C30.2221 12.5504 30.267 12.5206 30.3092 12.4884C30.3514 12.4563 30.3871 12.4383 30.4499 12.3472C30.5569 12.1921 30.5417 12.0822 30.5362 11.9974C30.5308 11.9126 30.5147 11.8407 30.4943 11.7661C30.4537 11.6168 30.3924 11.4607 30.3201 11.3012C30.1757 10.9823 30.0224 10.6819 29.8055 10.4604C29.6186 10.2695 29.4505 10.235 29.2364 10.1697C29.0223 10.1045 28.7752 10.0511 28.5221 10.0111C28.2691 9.97109 28.0119 9.94498 27.7782 9.94047Z"/>
<path d="M30.4698 18.7368C30.3621 18.7384 30.2595 18.7827 30.1844 18.8599C30.1094 18.9372 30.0681 19.041 30.0696 19.1487V26.1808C30.0696 26.671 29.6796 27.061 29.1894 27.061H27.2258C26.7356 27.061 26.3456 26.6711 26.3456 26.1808V24.8944C26.3463 24.8406 26.3364 24.7872 26.3163 24.7373C26.2963 24.6873 26.2665 24.6418 26.2287 24.6035C26.1909 24.5652 26.1459 24.5348 26.0962 24.514C26.0465 24.4932 25.9933 24.4825 25.9394 24.4825C25.8856 24.4825 25.8323 24.4932 25.7827 24.514C25.733 24.5348 25.688 24.5652 25.6502 24.6035C25.6124 24.6418 25.5826 24.6873 25.5625 24.7373C25.5425 24.7872 25.5325 24.8406 25.5333 24.8944V26.1808C25.5333 27.1106 26.296 27.8733 27.2258 27.8733H29.1894C30.1192 27.8733 30.8819 27.1106 30.8819 26.1808V19.1487C30.8827 19.0944 30.8726 19.0404 30.8521 18.9901C30.8317 18.9398 30.8013 18.894 30.7629 18.8556C30.7245 18.8172 30.6787 18.7869 30.6284 18.7665C30.578 18.7461 30.5241 18.736 30.4698 18.7368Z"/>
<path d="M20.586 12.3879C20.4783 12.3879 20.375 12.4307 20.2988 12.5068C20.2227 12.583 20.1799 12.6863 20.1799 12.794V13.7707C20.1799 14.3495 20.3763 14.9807 20.7337 15.4097C20.7718 15.4554 20.8195 15.4922 20.8734 15.5175C20.9273 15.5427 20.9861 15.5558 21.0456 15.5558H28.0324C28.1012 15.5558 28.1689 15.5383 28.2292 15.5049C28.2894 15.4716 28.3402 15.4234 28.3767 15.3651C28.4132 15.3067 28.4343 15.24 28.4379 15.1712C28.4416 15.1025 28.4277 15.0339 28.3976 14.972C28 14.1549 27.5539 13.5201 27.0349 13.0769C26.516 12.6337 25.9123 12.3901 25.2758 12.3879H25.2745H20.586ZM20.9922 13.2002H25.2731C25.7129 13.2017 26.107 13.3527 26.5074 13.6947C26.7941 13.9395 27.0773 14.291 27.3492 14.7435H21.2714C21.1364 14.4892 20.9922 14.0452 20.9922 13.7707V13.2002Z"/>
<path d="M16.0276 21.914C15.9738 21.9132 15.9204 21.9232 15.8704 21.9432C15.8205 21.9633 15.775 21.9931 15.7367 22.0309C15.6984 22.0687 15.6679 22.1137 15.6471 22.1634C15.6264 22.213 15.6157 22.2663 15.6157 22.3201C15.6157 22.374 15.6264 22.4273 15.6471 22.4769C15.6679 22.5266 15.6984 22.5716 15.7367 22.6094C15.775 22.6472 15.8205 22.677 15.8704 22.697C15.9204 22.7171 15.9738 22.7271 16.0276 22.7263H26.0868C27.0093 22.7263 28.2706 23.4815 28.7062 24.2947L29.1303 25.0863C29.155 25.1341 29.189 25.1765 29.2302 25.2111C29.2715 25.2457 29.3193 25.2717 29.3707 25.2877C29.4221 25.3037 29.4762 25.3092 29.5298 25.3041C29.5834 25.299 29.6355 25.2832 29.6829 25.2578C29.7304 25.2324 29.7723 25.1978 29.8063 25.156C29.8403 25.1142 29.8656 25.0661 29.8808 25.0144C29.896 24.9627 29.9008 24.9086 29.8948 24.8551C29.8889 24.8015 29.8724 24.7497 29.8463 24.7026L29.4222 23.9113C28.8037 22.7564 27.3968 21.914 26.0868 21.914L16.0276 21.914Z"/>
<path d="M16.0276 12.3879C15.9738 12.3871 15.9204 12.397 15.8704 12.4171C15.8205 12.4372 15.775 12.467 15.7367 12.5048C15.6984 12.5426 15.6679 12.5876 15.6471 12.6372C15.6264 12.6869 15.6157 12.7402 15.6157 12.794C15.6157 12.8478 15.6264 12.9011 15.6471 12.9508C15.6679 13.0004 15.6984 13.0455 15.7367 13.0833C15.775 13.121 15.8205 13.1508 15.8704 13.1709C15.9204 13.191 15.9738 13.2009 16.0276 13.2002H21.3983C21.4521 13.2009 21.5056 13.191 21.5555 13.1709C21.6055 13.1508 21.6509 13.121 21.6892 13.0833C21.7276 13.0455 21.758 13.0004 21.7788 12.9508C21.7996 12.9011 21.8103 12.8478 21.8103 12.794C21.8103 12.7402 21.7996 12.6869 21.7788 12.6372C21.758 12.5876 21.7276 12.5426 21.6892 12.5048C21.6509 12.467 21.6055 12.4372 21.5555 12.4171C21.5056 12.397 21.4521 12.3871 21.3983 12.3879H16.0276Z"/>
<path d="M15.9659 5.00005C11.9243 5.06454 9.15595 5.29161 7.57174 5.72161C7.03826 5.8664 6.65002 6.30673 6.25444 6.8474C5.85886 7.38808 5.48028 8.05624 5.13689 8.73156C4.45013 10.0822 3.904 11.4723 3.76471 11.8128C3.73114 11.8948 3.56433 12.1481 3.33603 12.4267C3.10773 12.7054 2.81735 13.0298 2.52055 13.3587C1.92696 14.0164 1.32352 14.645 1.05 15.1499C1.01819 15.2086 1.00136 15.2742 1.00098 15.341C0.979407 19.3741 1.31398 22.5899 2.02508 25.009C2.04984 25.0932 2.10119 25.1671 2.17146 25.2197C2.24173 25.2722 2.32714 25.3006 2.41489 25.3006H7.87111C7.92493 25.3014 7.97837 25.2914 8.02831 25.2714C8.07825 25.2513 8.12371 25.2215 8.16204 25.1837C8.20037 25.1459 8.2308 25.1009 8.25158 25.0512C8.27235 25.0016 8.28305 24.9483 8.28305 24.8945C8.28305 24.8406 8.27235 24.7873 8.25158 24.7377C8.2308 24.688 8.20037 24.643 8.16204 24.6052C8.12371 24.5674 8.07825 24.5376 8.02831 24.5176C7.97837 24.4975 7.92493 24.4875 7.87111 24.4883H2.72775C2.11308 22.2434 1.80272 19.2327 1.8155 15.4694C1.99685 15.1752 2.55744 14.5305 3.12375 13.903C3.42189 13.5726 3.71842 13.2418 3.96445 12.9416C4.21048 12.6413 4.40542 12.3921 4.51656 12.1204C4.66677 11.7533 5.19742 10.4048 5.86099 9.0998C6.19277 8.44728 6.55777 7.80844 6.91 7.32701C7.26223 6.84559 7.62588 6.54872 7.78449 6.50567C9.20179 6.12098 11.963 5.87643 15.9789 5.81235C16.0322 5.81151 16.0849 5.80016 16.1338 5.77896C16.1828 5.75777 16.2271 5.72713 16.2642 5.68881C16.3013 5.65049 16.3305 5.60524 16.3502 5.55563C16.3698 5.50603 16.3794 5.45304 16.3786 5.3997C16.3777 5.34636 16.3664 5.29371 16.3452 5.24475C16.324 5.1958 16.2933 5.1515 16.255 5.11439C16.2167 5.07728 16.1714 5.04808 16.1218 5.02846C16.0722 5.00885 16.0192 4.99919 15.9659 5.00005Z"/>
<path d="M15.97 6.39046C12.3167 6.41119 9.96732 6.52559 8.79749 6.7717C8.79143 6.77299 8.7854 6.77442 8.7794 6.77598C8.33243 6.89174 7.9522 7.21066 7.60046 7.66618C7.22869 8.14758 6.7591 9.03721 6.11531 10.4128C6.09245 10.4617 6.07955 10.5146 6.07739 10.5686C6.07069 10.7351 6.17048 10.8609 6.23097 10.9116C6.29146 10.9623 6.33323 10.9781 6.36884 10.9923C6.44006 11.0207 6.49295 11.0311 6.55573 11.0426C6.68129 11.0658 6.8364 11.0824 7.04073 11.0985C7.4494 11.1306 8.04555 11.1564 8.83985 11.1772C10.4285 11.2188 12.8043 11.2395 15.9724 11.2395C16.0262 11.2403 16.0797 11.2303 16.1296 11.2103C16.1795 11.1902 16.225 11.1604 16.2633 11.1226C16.3017 11.0848 16.3321 11.0398 16.3529 10.9901C16.3736 10.9405 16.3843 10.8872 16.3843 10.8334C16.3843 10.7795 16.3736 10.7263 16.3529 10.6766C16.3321 10.6269 16.3017 10.5819 16.2633 10.5441C16.225 10.5063 16.1795 10.4765 16.1296 10.4565C16.0797 10.4364 16.0262 10.4265 15.9724 10.4272C12.8078 10.4272 10.4355 10.4064 8.86111 10.3652C8.07389 10.3446 7.48494 10.3187 7.10451 10.2887C7.09541 10.288 7.09418 10.2872 7.08531 10.2865C7.59484 9.23385 8.01338 8.46072 8.24348 8.16277C8.52932 7.79259 8.78659 7.61598 8.97867 7.56481C9.9797 7.35675 12.3504 7.22333 15.9746 7.20276C16.0284 7.20316 16.0817 7.19286 16.1315 7.17248C16.1813 7.1521 16.2265 7.12204 16.2646 7.08404C16.3026 7.04604 16.3328 7.00086 16.3532 6.95112C16.3737 6.90138 16.3841 6.84807 16.3838 6.79428C16.3835 6.7405 16.3725 6.68731 16.3515 6.63781C16.3304 6.5883 16.2998 6.54346 16.2613 6.5059C16.2228 6.46833 16.1772 6.43878 16.1272 6.41897C16.0772 6.39915 16.0238 6.38946 15.97 6.39046Z"/>
<path d="M4.22178 9.94047C3.98808 9.94498 3.73093 9.97109 3.47786 10.0111C3.22479 10.0511 2.9777 10.1045 2.76361 10.1697C2.54952 10.235 2.38141 10.2695 2.19452 10.4604C1.97763 10.6819 1.82428 10.9823 1.67985 11.3012C1.60763 11.4607 1.54633 11.6168 1.50565 11.7661C1.48531 11.8407 1.46924 11.9126 1.46377 11.9974C1.45829 12.0822 1.44309 12.1921 1.55007 12.3472C1.61286 12.4383 1.6486 12.4563 1.6908 12.4884C1.73299 12.5206 1.77789 12.5504 1.82962 12.5819C1.93308 12.6449 2.06264 12.7135 2.21816 12.784C2.5292 12.9251 2.94182 13.0728 3.41599 13.164C3.46864 13.1748 3.52292 13.175 3.57566 13.1646C3.62841 13.1543 3.67857 13.1336 3.72325 13.1037C3.76793 13.0738 3.80624 13.0354 3.83595 12.9906C3.86566 12.9458 3.88618 12.8955 3.89634 12.8428C3.90649 12.79 3.90606 12.7357 3.89508 12.6831C3.88411 12.6305 3.8628 12.5805 3.83239 12.5362C3.80198 12.4919 3.76307 12.4541 3.71793 12.4249C3.67279 12.3957 3.6223 12.3758 3.5694 12.3663C3.17027 12.2895 2.81184 12.1613 2.55371 12.0442C2.45033 11.9973 2.3779 11.9568 2.31224 11.9193C2.33786 11.839 2.37053 11.7451 2.41981 11.6363C2.53935 11.3723 2.73986 11.0644 2.77487 11.0287C2.71393 11.0909 2.83653 10.9968 3.00048 10.9468C3.16442 10.8968 3.38268 10.8484 3.60462 10.8134C3.82657 10.7783 4.05413 10.7561 4.23733 10.7526C4.42053 10.7491 4.57435 10.7832 4.5567 10.7758C4.60607 10.7978 4.65935 10.8098 4.71341 10.811C4.76746 10.8122 4.82121 10.8025 4.87151 10.7827C4.9218 10.7628 4.96761 10.7331 5.00628 10.6953C5.04494 10.6575 5.07566 10.6124 5.09665 10.5625C5.11763 10.5127 5.12846 10.4592 5.12849 10.4051C5.12852 10.351 5.11776 10.2975 5.09683 10.2477C5.0759 10.1978 5.04523 10.1526 5.00661 10.1148C4.96799 10.0769 4.92221 10.0472 4.87194 10.0273C4.6506 9.93404 4.45548 9.93597 4.22178 9.94047Z"/>
<path d="M1.51803 18.7368C1.4104 18.7385 1.30781 18.7828 1.23282 18.86C1.15783 18.9372 1.11655 19.0411 1.11807 19.1487V26.1808C1.11807 27.1107 1.88082 27.8733 2.81057 27.8733H4.77422C5.70397 27.8733 6.46672 27.1106 6.46672 26.1808V24.8945C6.46748 24.8406 6.45754 24.7872 6.43747 24.7373C6.4174 24.6873 6.38761 24.6419 6.34982 24.6035C6.31203 24.5652 6.267 24.5348 6.21734 24.514C6.16769 24.4932 6.1144 24.4825 6.06057 24.4825C6.00675 24.4825 5.95346 24.4932 5.9038 24.514C5.85415 24.5348 5.80912 24.5652 5.77133 24.6035C5.73354 24.6419 5.70374 24.6873 5.68367 24.7373C5.6636 24.7872 5.65366 24.8406 5.65442 24.8945V26.1808C5.65442 26.6711 5.26436 27.061 4.77422 27.061H2.81057C2.32043 27.061 1.93037 26.671 1.93037 26.1808V19.1487C1.93113 19.0943 1.92099 19.0404 1.90053 18.9901C1.88007 18.9397 1.84972 18.894 1.81127 18.8556C1.77282 18.8172 1.72706 18.7869 1.67669 18.7665C1.62632 18.7461 1.57237 18.736 1.51803 18.7368Z"/>
<path d="M6.72421 12.3879C6.08768 12.3901 5.48401 12.6337 4.96507 13.0769C4.44614 13.5201 3.99996 14.1549 3.6024 14.972C3.57229 15.0339 3.55841 15.1025 3.56207 15.1712C3.56573 15.24 3.58681 15.3067 3.62332 15.3651C3.65984 15.4234 3.71059 15.4716 3.77082 15.5049C3.83105 15.5383 3.89877 15.5558 3.96762 15.5558H10.9544C11.0139 15.5558 11.0727 15.5427 11.1266 15.5175C11.1805 15.4922 11.2282 15.4554 11.2663 15.4097C11.6237 14.9807 11.8201 14.3495 11.8201 13.7707V12.794C11.8201 12.6863 11.7773 12.583 11.7012 12.5068C11.625 12.4307 11.5217 12.3879 11.414 12.3879H6.72548H6.72421ZM6.72691 13.2002H11.0078V13.7707C11.0078 14.0452 10.8636 14.4892 10.7286 14.7435H4.65078C4.9227 14.291 5.20592 13.9395 5.49259 13.6947C5.89296 13.3527 6.28709 13.2017 6.72691 13.2002Z"/>
<path d="M5.91318 21.914C4.60315 21.914 3.19635 22.7564 2.57783 23.9113L2.15375 24.7026C2.12762 24.7497 2.11111 24.8015 2.10518 24.8551C2.09926 24.9086 2.10403 24.9627 2.11923 25.0144C2.13443 25.0661 2.15974 25.1142 2.19371 25.156C2.22767 25.1978 2.26961 25.2324 2.31707 25.2578C2.36454 25.2832 2.41659 25.299 2.47019 25.3041C2.52379 25.3092 2.57788 25.3037 2.62931 25.2877C2.68074 25.2717 2.72848 25.2457 2.76976 25.2111C2.81104 25.1765 2.84503 25.1341 2.86975 25.0863L3.29383 24.2949C3.72936 23.4817 4.99069 22.7263 5.91318 22.7263H15.9724C16.0262 22.7271 16.0796 22.7171 16.1296 22.697C16.1795 22.677 16.225 22.6472 16.2633 22.6094C16.3017 22.5716 16.3321 22.5266 16.3529 22.4769C16.3736 22.4273 16.3843 22.374 16.3843 22.3201C16.3843 22.2663 16.3736 22.213 16.3529 22.1634C16.3321 22.1137 16.3017 22.0687 16.2633 22.0309C16.225 21.9931 16.1795 21.9633 16.1296 21.9432C16.0796 21.9232 16.0262 21.9132 15.9724 21.914L5.91318 21.914Z"/>
<path d="M10.6017 12.3879C10.5479 12.3871 10.4944 12.397 10.4445 12.4171C10.3945 12.4372 10.3491 12.467 10.3108 12.5048C10.2724 12.5426 10.242 12.5876 10.2212 12.6372C10.2005 12.6869 10.1898 12.7402 10.1898 12.794C10.1898 12.8478 10.2005 12.9011 10.2212 12.9508C10.242 13.0004 10.2724 13.0455 10.3108 13.0833C10.3491 13.121 10.3945 13.1508 10.4445 13.1709C10.4944 13.191 10.5479 13.2009 10.6017 13.2002H15.9724C16.0262 13.2009 16.0797 13.191 16.1296 13.1709C16.1795 13.1508 16.225 13.121 16.2633 13.0833C16.3017 13.0455 16.3321 13.0004 16.3529 12.9508C16.3736 12.9011 16.3843 12.8478 16.3843 12.794C16.3843 12.7402 16.3736 12.6869 16.3529 12.6372C16.3321 12.5876 16.3017 12.5426 16.2633 12.5048C16.225 12.467 16.1795 12.4372 16.1296 12.4171C16.0797 12.397 16.0262 12.3871 15.9724 12.3879H10.6017Z"/>
<path d="M10.4789 23.9517C10.3377 23.9531 10.1714 23.9633 9.9528 23.9743C9.89928 23.9766 9.84676 23.9895 9.79825 24.0122C9.74973 24.0349 9.70619 24.067 9.67013 24.1066C9.63406 24.1462 9.60619 24.1925 9.58811 24.243C9.57003 24.2934 9.5621 24.3469 9.56477 24.4004C9.56745 24.4539 9.58069 24.5063 9.60371 24.5547C9.62674 24.603 9.6591 24.6464 9.69894 24.6822C9.73878 24.718 9.78531 24.7456 9.83585 24.7633C9.88638 24.7811 9.93993 24.7886 9.99341 24.7856C10.4138 24.7646 10.7198 24.7835 10.6923 24.7778C10.7449 24.7895 10.7993 24.7905 10.8523 24.7809C10.9054 24.7713 10.9559 24.7513 11.0011 24.722C11.0463 24.6926 11.0853 24.6546 11.1156 24.6101C11.146 24.5655 11.1672 24.5154 11.178 24.4626C11.1888 24.4098 11.189 24.3554 11.1785 24.3026C11.1681 24.2497 11.1472 24.1994 11.1172 24.1547C11.0871 24.11 11.0485 24.0717 11.0035 24.042C10.9585 24.0124 10.908 23.992 10.8551 23.982C10.7364 23.9578 10.6201 23.9503 10.4789 23.9517Z"/>
</mask>
<path fill-rule="evenodd" clip-rule="evenodd" d="M7.52851 24.4866C7.52851 24.1446 7.66497 23.8156 7.90704 23.5735C8.1491 23.3315 8.47727 23.1958 8.82006 23.1958C9.16204 23.1958 9.49103 23.3315 9.73309 23.5735C9.97516 23.8156 10.1108 24.1446 10.1108 24.4866C10.1108 24.8294 9.97516 25.1575 9.73309 25.3996C9.49103 25.6417 9.16204 25.7781 8.82006 25.7781C8.47727 25.7781 8.1491 25.6417 7.90704 25.3996C7.66497 25.1575 7.52851 24.8294 7.52851 24.4866ZM8.34081 24.4866C8.34081 24.3599 8.39117 24.238 8.48134 24.1478C8.57069 24.0585 8.69253 24.0081 8.82006 24.0081C8.94678 24.0081 9.06863 24.0585 9.15879 24.1478C9.24815 24.238 9.29851 24.3599 9.29851 24.4866C9.29851 24.6141 9.24815 24.736 9.15879 24.8253C9.06863 24.9155 8.94678 24.9658 8.82006 24.9658C8.69253 24.9658 8.57069 24.9155 8.48134 24.8253C8.39117 24.736 8.34081 24.6141 8.34081 24.4866Z" fill="white"/>
<path fill-rule="evenodd" clip-rule="evenodd" d="M10.6153 24.4866C10.6153 24.1446 10.7517 23.8156 10.9938 23.5735C11.2358 23.3315 11.564 23.1958 11.9068 23.1958C12.2488 23.1958 12.5778 23.3315 12.8198 23.5735C13.0619 23.8156 13.1976 24.1446 13.1976 24.4866C13.1976 24.8294 13.0619 25.1575 12.8198 25.3996C12.5778 25.6417 12.2488 25.7781 11.9068 25.7781C11.564 25.7781 11.2358 25.6417 10.9938 25.3996C10.7517 25.1575 10.6153 24.8294 10.6153 24.4866ZM11.4276 24.4866C11.4276 24.3599 11.4779 24.238 11.5681 24.1478C11.6574 24.0585 11.7793 24.0081 11.9068 24.0081C12.0335 24.0081 12.1554 24.0585 12.2455 24.1478C12.3349 24.238 12.3853 24.3599 12.3853 24.4866C12.3853 24.6141 12.3349 24.736 12.2455 24.8253C12.1554 24.9155 12.0335 24.9658 11.9068 24.9658C11.7793 24.9658 11.6574 24.9155 11.5681 24.8253C11.4779 24.736 11.4276 24.6141 11.4276 24.4866Z" fill="white"/>
<path d="M16.0341 5.00005C15.9808 4.99919 15.9278 5.00885 15.8782 5.02846C15.8286 5.04808 15.7833 5.07728 15.745 5.11439C15.7067 5.1515 15.676 5.1958 15.6548 5.24475C15.6336 5.29371 15.6223 5.34636 15.6214 5.3997C15.6206 5.45304 15.6302 5.50603 15.6498 5.55563C15.6695 5.60524 15.6987 5.65049 15.7358 5.68881C15.7729 5.72713 15.8172 5.75777 15.8662 5.77896C15.9151 5.80016 15.9678 5.81151 16.0211 5.81235C20.037 5.87643 22.7982 6.12098 24.2155 6.50567C24.3741 6.54872 24.7378 6.84559 25.09 7.32701C25.4422 7.80844 25.8072 8.44728 26.139 9.0998C26.8026 10.4048 27.3332 11.7533 27.4834 12.1204C27.5946 12.3921 27.7895 12.6413 28.0355 12.9416C28.2816 13.2418 28.5781 13.5726 28.8762 13.903C29.4426 14.5305 30.0031 15.1752 30.1845 15.4694C30.1973 19.2327 29.8869 22.2434 29.2722 24.4883H24.3101C24.0248 24.1818 23.6268 23.9964 23.1844 23.9743C22.9156 23.9608 21.9778 23.9578 20.246 23.9578C18.5142 23.9578 16.0249 23.9631 12.7771 23.9738C12.7233 23.9732 12.6699 23.9834 12.6201 24.0036C12.5702 24.0239 12.5249 24.0538 12.4867 24.0917C12.4485 24.1296 12.4182 24.1748 12.3976 24.2245C12.377 24.2742 12.3665 24.3275 12.3667 24.3813C12.3669 24.4351 12.3778 24.4884 12.3987 24.5379C12.4196 24.5875 12.4502 24.6324 12.4886 24.6701C12.5271 24.7078 12.5726 24.7374 12.6226 24.7573C12.6726 24.7772 12.726 24.787 12.7798 24.7861C16.0271 24.7754 18.5159 24.7701 20.246 24.7701C21.9761 24.7701 22.9839 24.7776 23.1438 24.7856C23.4748 24.8022 23.6436 24.8987 23.791 25.1197C23.828 25.1754 23.8783 25.221 23.9372 25.2525C23.9962 25.2841 24.062 25.3006 24.1289 25.3006H29.5851C29.6729 25.3006 29.7583 25.2722 29.8285 25.2197C29.8988 25.1671 29.9502 25.0932 29.9749 25.009C30.686 22.5899 31.0206 19.3741 30.999 15.341C30.9986 15.2742 30.9818 15.2086 30.95 15.1499C30.6765 14.645 30.073 14.0164 29.4794 13.3587C29.1826 13.0298 28.8923 12.7054 28.664 12.4267C28.4357 12.1481 28.2689 11.8948 28.2353 11.8128C28.096 11.4723 27.5499 10.0822 26.8631 8.73156C26.5197 8.05624 26.1411 7.38808 25.7456 6.8474C25.35 6.30673 24.9617 5.8664 24.4283 5.72161C22.8441 5.29161 20.0757 5.06454 16.0341 5.00005Z" fill="white"/>
<path d="M16.03 6.39046C15.9762 6.38946 15.9228 6.39915 15.8728 6.41897C15.8228 6.43878 15.7772 6.46833 15.7387 6.5059C15.7002 6.54346 15.6696 6.5883 15.6486 6.63781C15.6275 6.68731 15.6165 6.7405 15.6162 6.79428C15.6159 6.84807 15.6263 6.90138 15.6468 6.95112C15.6672 7.00086 15.6974 7.04604 15.7354 7.08404C15.7735 7.12204 15.8187 7.1521 15.8685 7.17248C15.9183 7.19286 15.9716 7.20316 16.0254 7.20276C19.6496 7.22333 22.0203 7.35675 23.0213 7.56481C23.2134 7.61598 23.4707 7.79259 23.7565 8.16277C23.9866 8.46072 24.4052 9.23385 24.9147 10.2865C24.9058 10.2872 24.9046 10.288 24.8955 10.2887C24.5151 10.3187 23.9261 10.3446 23.1389 10.3652C21.5645 10.4064 19.1922 10.4272 16.0276 10.4272C15.9738 10.4265 15.9204 10.4364 15.8704 10.4565C15.8205 10.4765 15.775 10.5063 15.7367 10.5441C15.6984 10.5819 15.6679 10.6269 15.6471 10.6766C15.6264 10.7263 15.6157 10.7795 15.6157 10.8334C15.6157 10.8872 15.6264 10.9405 15.6471 10.9901C15.6679 11.0398 15.6984 11.0848 15.7367 11.1226C15.775 11.1604 15.8205 11.1902 15.8704 11.2103C15.9204 11.2303 15.9738 11.2403 16.0276 11.2395C19.1958 11.2395 21.5715 11.2188 23.1602 11.1772C23.9545 11.1564 24.5506 11.1306 24.9593 11.0985C25.1636 11.0824 25.3187 11.0658 25.4443 11.0426C25.5071 11.0311 25.5599 11.0207 25.6312 10.9923C25.6668 10.9781 25.7085 10.9623 25.769 10.9116C25.8295 10.8609 25.9293 10.7351 25.9226 10.5686C25.9205 10.5146 25.9076 10.4617 25.8847 10.4128C25.2409 9.03721 24.7712 8.14758 24.3994 7.66619C24.0476 7.21066 23.6676 6.89174 23.2206 6.77598C23.2146 6.77442 23.2086 6.77299 23.2025 6.7717C22.0327 6.52559 19.6833 6.4112 16.03 6.39046Z" fill="white"/>
<path d="M27.7782 9.94047C27.5445 9.93596 27.3494 9.93404 27.1281 10.0273C27.0778 10.0472 27.032 10.0769 26.9934 10.1148C26.9548 10.1526 26.9241 10.1978 26.9032 10.2477C26.8822 10.2975 26.8715 10.351 26.8715 10.4051C26.8715 10.4592 26.8824 10.5127 26.9033 10.5625C26.9243 10.6124 26.9551 10.6575 26.9937 10.6953C27.0324 10.7331 27.0782 10.7628 27.1285 10.7827C27.1788 10.8025 27.2325 10.8122 27.2866 10.811C27.3406 10.8098 27.3939 10.7978 27.4433 10.7758C27.4256 10.7832 27.5795 10.7491 27.7627 10.7526C27.9459 10.7561 28.1734 10.7783 28.3954 10.8134C28.6173 10.8484 28.8356 10.8968 28.9995 10.9468C29.1635 10.9968 29.2861 11.0909 29.2251 11.0287C29.2601 11.0644 29.4606 11.3723 29.5802 11.6363C29.6295 11.7451 29.6621 11.839 29.6878 11.9193C29.6221 11.9568 29.5497 11.9973 29.4463 12.0442C29.1882 12.1613 28.8297 12.2895 28.4306 12.3663C28.3777 12.3758 28.3272 12.3957 28.2821 12.4249C28.2369 12.4541 28.198 12.4919 28.1676 12.5362C28.1372 12.5806 28.1159 12.6305 28.1049 12.6831C28.0939 12.7357 28.0935 12.79 28.1037 12.8428C28.1138 12.8955 28.1343 12.9458 28.164 12.9906C28.1938 13.0354 28.2321 13.0738 28.2767 13.1037C28.3214 13.1336 28.3716 13.1543 28.4243 13.1646C28.4771 13.175 28.5313 13.1748 28.584 13.164C29.0582 13.0728 29.4708 12.9251 29.7818 12.784C29.9374 12.7135 30.0669 12.6449 30.1704 12.5819C30.2221 12.5504 30.267 12.5206 30.3092 12.4884C30.3514 12.4563 30.3871 12.4383 30.4499 12.3472C30.5569 12.1921 30.5417 12.0822 30.5362 11.9974C30.5308 11.9126 30.5147 11.8407 30.4943 11.7661C30.4537 11.6168 30.3924 11.4607 30.3201 11.3012C30.1757 10.9823 30.0224 10.6819 29.8055 10.4604C29.6186 10.2695 29.4505 10.235 29.2364 10.1697C29.0223 10.1045 28.7752 10.0511 28.5221 10.0111C28.2691 9.97109 28.0119 9.94498 27.7782 9.94047Z" fill="white"/>
<path d="M30.4698 18.7368C30.3621 18.7384 30.2595 18.7827 30.1844 18.8599C30.1094 18.9372 30.0681 19.041 30.0696 19.1487V26.1808C30.0696 26.671 29.6796 27.061 29.1894 27.061H27.2258C26.7356 27.061 26.3456 26.6711 26.3456 26.1808V24.8944C26.3463 24.8406 26.3364 24.7872 26.3163 24.7373C26.2963 24.6873 26.2665 24.6418 26.2287 24.6035C26.1909 24.5652 26.1459 24.5348 26.0962 24.514C26.0465 24.4932 25.9933 24.4825 25.9394 24.4825C25.8856 24.4825 25.8323 24.4932 25.7827 24.514C25.733 24.5348 25.688 24.5652 25.6502 24.6035C25.6124 24.6418 25.5826 24.6873 25.5625 24.7373C25.5425 24.7872 25.5325 24.8406 25.5333 24.8944V26.1808C25.5333 27.1106 26.296 27.8733 27.2258 27.8733H29.1894C30.1192 27.8733 30.8819 27.1106 30.8819 26.1808V19.1487C30.8827 19.0944 30.8726 19.0404 30.8521 18.9901C30.8317 18.9398 30.8013 18.894 30.7629 18.8556C30.7245 18.8172 30.6787 18.7869 30.6284 18.7665C30.578 18.7461 30.5241 18.736 30.4698 18.7368Z" fill="white"/>
<path d="M20.586 12.3879C20.4783 12.3879 20.375 12.4307 20.2988 12.5068C20.2227 12.583 20.1799 12.6863 20.1799 12.794V13.7707C20.1799 14.3495 20.3763 14.9807 20.7337 15.4097C20.7718 15.4554 20.8195 15.4922 20.8734 15.5175C20.9273 15.5427 20.9861 15.5558 21.0456 15.5558H28.0324C28.1012 15.5558 28.1689 15.5383 28.2292 15.5049C28.2894 15.4716 28.3402 15.4234 28.3767 15.3651C28.4132 15.3067 28.4343 15.24 28.4379 15.1712C28.4416 15.1025 28.4277 15.0339 28.3976 14.972C28 14.1549 27.5539 13.5201 27.0349 13.0769C26.516 12.6337 25.9123 12.3901 25.2758 12.3879H25.2745H20.586ZM20.9922 13.2002H25.2731C25.7129 13.2017 26.107 13.3527 26.5074 13.6947C26.7941 13.9395 27.0773 14.291 27.3492 14.7435H21.2714C21.1364 14.4892 20.9922 14.0452 20.9922 13.7707V13.2002Z" fill="white"/>
<path d="M16.0276 21.914C15.9738 21.9132 15.9204 21.9232 15.8704 21.9432C15.8205 21.9633 15.775 21.9931 15.7367 22.0309C15.6984 22.0687 15.6679 22.1137 15.6471 22.1634C15.6264 22.213 15.6157 22.2663 15.6157 22.3201C15.6157 22.374 15.6264 22.4273 15.6471 22.4769C15.6679 22.5266 15.6984 22.5716 15.7367 22.6094C15.775 22.6472 15.8205 22.677 15.8704 22.697C15.9204 22.7171 15.9738 22.7271 16.0276 22.7263H26.0868C27.0093 22.7263 28.2706 23.4815 28.7062 24.2947L29.1303 25.0863C29.155 25.1341 29.189 25.1765 29.2302 25.2111C29.2715 25.2457 29.3193 25.2717 29.3707 25.2877C29.4221 25.3037 29.4762 25.3092 29.5298 25.3041C29.5834 25.299 29.6355 25.2832 29.6829 25.2578C29.7304 25.2324 29.7723 25.1978 29.8063 25.156C29.8403 25.1142 29.8656 25.0661 29.8808 25.0144C29.896 24.9627 29.9008 24.9086 29.8948 24.8551C29.8889 24.8015 29.8724 24.7497 29.8463 24.7026L29.4222 23.9113C28.8037 22.7564 27.3968 21.914 26.0868 21.914L16.0276 21.914Z" fill="white"/>
<path d="M16.0276 12.3879C15.9738 12.3871 15.9204 12.397 15.8704 12.4171C15.8205 12.4372 15.775 12.467 15.7367 12.5048C15.6984 12.5426 15.6679 12.5876 15.6471 12.6372C15.6264 12.6869 15.6157 12.7402 15.6157 12.794C15.6157 12.8478 15.6264 12.9011 15.6471 12.9508C15.6679 13.0004 15.6984 13.0455 15.7367 13.0833C15.775 13.121 15.8205 13.1508 15.8704 13.1709C15.9204 13.191 15.9738 13.2009 16.0276 13.2002H21.3983C21.4521 13.2009 21.5056 13.191 21.5555 13.1709C21.6055 13.1508 21.6509 13.121 21.6892 13.0833C21.7276 13.0455 21.758 13.0004 21.7788 12.9508C21.7996 12.9011 21.8103 12.8478 21.8103 12.794C21.8103 12.7402 21.7996 12.6869 21.7788 12.6372C21.758 12.5876 21.7276 12.5426 21.6892 12.5048C21.6509 12.467 21.6055 12.4372 21.5555 12.4171C21.5056 12.397 21.4521 12.3871 21.3983 12.3879H16.0276Z" fill="white"/>
<path d="M15.9659 5.00005C11.9243 5.06454 9.15595 5.29161 7.57174 5.72161C7.03826 5.8664 6.65002 6.30673 6.25444 6.8474C5.85886 7.38808 5.48028 8.05624 5.13689 8.73156C4.45013 10.0822 3.904 11.4723 3.76471 11.8128C3.73114 11.8948 3.56433 12.1481 3.33603 12.4267C3.10773 12.7054 2.81735 13.0298 2.52055 13.3587C1.92696 14.0164 1.32352 14.645 1.05 15.1499C1.01819 15.2086 1.00136 15.2742 1.00098 15.341C0.979407 19.3741 1.31398 22.5899 2.02508 25.009C2.04984 25.0932 2.10119 25.1671 2.17146 25.2197C2.24173 25.2722 2.32714 25.3006 2.41489 25.3006H7.87111C7.92493 25.3014 7.97837 25.2914 8.02831 25.2714C8.07825 25.2513 8.12371 25.2215 8.16204 25.1837C8.20037 25.1459 8.2308 25.1009 8.25158 25.0512C8.27235 25.0016 8.28305 24.9483 8.28305 24.8945C8.28305 24.8406 8.27235 24.7873 8.25158 24.7377C8.2308 24.688 8.20037 24.643 8.16204 24.6052C8.12371 24.5674 8.07825 24.5376 8.02831 24.5176C7.97837 24.4975 7.92493 24.4875 7.87111 24.4883H2.72775C2.11308 22.2434 1.80272 19.2327 1.8155 15.4694C1.99685 15.1752 2.55744 14.5305 3.12375 13.903C3.42189 13.5726 3.71842 13.2418 3.96445 12.9416C4.21048 12.6413 4.40542 12.3921 4.51656 12.1204C4.66677 11.7533 5.19742 10.4048 5.86099 9.0998C6.19277 8.44728 6.55777 7.80844 6.91 7.32701C7.26223 6.84559 7.62588 6.54872 7.78449 6.50567C9.20179 6.12098 11.963 5.87643 15.9789 5.81235C16.0322 5.81151 16.0849 5.80016 16.1338 5.77896C16.1828 5.75777 16.2271 5.72713 16.2642 5.68881C16.3013 5.65049 16.3305 5.60524 16.3502 5.55563C16.3698 5.50603 16.3794 5.45304 16.3786 5.3997C16.3777 5.34636 16.3664 5.29371 16.3452 5.24475C16.324 5.1958 16.2933 5.1515 16.255 5.11439C16.2167 5.07728 16.1714 5.04808 16.1218 5.02846C16.0722 5.00885 16.0192 4.99919 15.9659 5.00005Z" fill="white"/>
<path d="M15.97 6.39046C12.3167 6.41119 9.96732 6.52559 8.79749 6.7717C8.79143 6.77299 8.7854 6.77442 8.7794 6.77598C8.33243 6.89174 7.9522 7.21066 7.60046 7.66618C7.22869 8.14758 6.7591 9.03721 6.11531 10.4128C6.09245 10.4617 6.07955 10.5146 6.07739 10.5686C6.07069 10.7351 6.17048 10.8609 6.23097 10.9116C6.29146 10.9623 6.33323 10.9781 6.36884 10.9923C6.44006 11.0207 6.49295 11.0311 6.55573 11.0426C6.68129 11.0658 6.8364 11.0824 7.04073 11.0985C7.4494 11.1306 8.04555 11.1564 8.83985 11.1772C10.4285 11.2188 12.8043 11.2395 15.9724 11.2395C16.0262 11.2403 16.0797 11.2303 16.1296 11.2103C16.1795 11.1902 16.225 11.1604 16.2633 11.1226C16.3017 11.0848 16.3321 11.0398 16.3529 10.9901C16.3736 10.9405 16.3843 10.8872 16.3843 10.8334C16.3843 10.7795 16.3736 10.7263 16.3529 10.6766C16.3321 10.6269 16.3017 10.5819 16.2633 10.5441C16.225 10.5063 16.1795 10.4765 16.1296 10.4565C16.0797 10.4364 16.0262 10.4265 15.9724 10.4272C12.8078 10.4272 10.4355 10.4064 8.86111 10.3652C8.07389 10.3446 7.48494 10.3187 7.10451 10.2887C7.09541 10.288 7.09418 10.2872 7.08531 10.2865C7.59484 9.23385 8.01338 8.46072 8.24348 8.16277C8.52932 7.79259 8.78659 7.61598 8.97867 7.56481C9.9797 7.35675 12.3504 7.22333 15.9746 7.20276C16.0284 7.20316 16.0817 7.19286 16.1315 7.17248C16.1813 7.1521 16.2265 7.12204 16.2646 7.08404C16.3026 7.04604 16.3328 7.00086 16.3532 6.95112C16.3737 6.90138 16.3841 6.84807 16.3838 6.79428C16.3835 6.7405 16.3725 6.68731 16.3515 6.63781C16.3304 6.5883 16.2998 6.54346 16.2613 6.5059C16.2228 6.46833 16.1772 6.43878 16.1272 6.41897C16.0772 6.39915 16.0238 6.38946 15.97 6.39046Z" fill="white"/>
<path d="M4.22178 9.94047C3.98808 9.94498 3.73093 9.97109 3.47786 10.0111C3.22479 10.0511 2.9777 10.1045 2.76361 10.1697C2.54952 10.235 2.38141 10.2695 2.19452 10.4604C1.97763 10.6819 1.82428 10.9823 1.67985 11.3012C1.60763 11.4607 1.54633 11.6168 1.50565 11.7661C1.48531 11.8407 1.46924 11.9126 1.46377 11.9974C1.45829 12.0822 1.44309 12.1921 1.55007 12.3472C1.61286 12.4383 1.6486 12.4563 1.6908 12.4884C1.73299 12.5206 1.77789 12.5504 1.82962 12.5819C1.93308 12.6449 2.06264 12.7135 2.21816 12.784C2.5292 12.9251 2.94182 13.0728 3.41599 13.164C3.46864 13.1748 3.52292 13.175 3.57566 13.1646C3.62841 13.1543 3.67857 13.1336 3.72325 13.1037C3.76793 13.0738 3.80624 13.0354 3.83595 12.9906C3.86566 12.9458 3.88618 12.8955 3.89634 12.8428C3.90649 12.79 3.90606 12.7357 3.89508 12.6831C3.88411 12.6305 3.8628 12.5805 3.83239 12.5362C3.80198 12.4919 3.76307 12.4541 3.71793 12.4249C3.67279 12.3957 3.6223 12.3758 3.5694 12.3663C3.17027 12.2895 2.81184 12.1613 2.55371 12.0442C2.45033 11.9973 2.3779 11.9568 2.31224 11.9193C2.33786 11.839 2.37053 11.7451 2.41981 11.6363C2.53935 11.3723 2.73986 11.0644 2.77487 11.0287C2.71393 11.0909 2.83653 10.9968 3.00048 10.9468C3.16442 10.8968 3.38268 10.8484 3.60462 10.8134C3.82657 10.7783 4.05413 10.7561 4.23733 10.7526C4.42053 10.7491 4.57435 10.7832 4.5567 10.7758C4.60607 10.7978 4.65935 10.8098 4.71341 10.811C4.76746 10.8122 4.82121 10.8025 4.87151 10.7827C4.9218 10.7628 4.96761 10.7331 5.00628 10.6953C5.04494 10.6575 5.07566 10.6124 5.09665 10.5625C5.11763 10.5127 5.12846 10.4592 5.12849 10.4051C5.12852 10.351 5.11776 10.2975 5.09683 10.2477C5.0759 10.1978 5.04523 10.1526 5.00661 10.1148C4.96799 10.0769 4.92221 10.0472 4.87194 10.0273C4.6506 9.93404 4.45548 9.93597 4.22178 9.94047Z" fill="white"/>
<path d="M1.51803 18.7368C1.4104 18.7385 1.30781 18.7828 1.23282 18.86C1.15783 18.9372 1.11655 19.0411 1.11807 19.1487V26.1808C1.11807 27.1107 1.88082 27.8733 2.81057 27.8733H4.77422C5.70397 27.8733 6.46672 27.1106 6.46672 26.1808V24.8945C6.46748 24.8406 6.45754 24.7872 6.43747 24.7373C6.4174 24.6873 6.38761 24.6419 6.34982 24.6035C6.31203 24.5652 6.267 24.5348 6.21734 24.514C6.16769 24.4932 6.1144 24.4825 6.06057 24.4825C6.00675 24.4825 5.95346 24.4932 5.9038 24.514C5.85415 24.5348 5.80912 24.5652 5.77133 24.6035C5.73354 24.6419 5.70374 24.6873 5.68367 24.7373C5.6636 24.7872 5.65366 24.8406 5.65442 24.8945V26.1808C5.65442 26.6711 5.26436 27.061 4.77422 27.061H2.81057C2.32043 27.061 1.93037 26.671 1.93037 26.1808V19.1487C1.93113 19.0943 1.92099 19.0404 1.90053 18.9901C1.88007 18.9397 1.84972 18.894 1.81127 18.8556C1.77282 18.8172 1.72706 18.7869 1.67669 18.7665C1.62632 18.7461 1.57237 18.736 1.51803 18.7368Z" fill="white"/>
<path d="M6.72421 12.3879C6.08768 12.3901 5.48401 12.6337 4.96507 13.0769C4.44614 13.5201 3.99996 14.1549 3.6024 14.972C3.57229 15.0339 3.55841 15.1025 3.56207 15.1712C3.56573 15.24 3.58681 15.3067 3.62332 15.3651C3.65984 15.4234 3.71059 15.4716 3.77082 15.5049C3.83105 15.5383 3.89877 15.5558 3.96762 15.5558H10.9544C11.0139 15.5558 11.0727 15.5427 11.1266 15.5175C11.1805 15.4922 11.2282 15.4554 11.2663 15.4097C11.6237 14.9807 11.8201 14.3495 11.8201 13.7707V12.794C11.8201 12.6863 11.7773 12.583 11.7012 12.5068C11.625 12.4307 11.5217 12.3879 11.414 12.3879H6.72548H6.72421ZM6.72691 13.2002H11.0078V13.7707C11.0078 14.0452 10.8636 14.4892 10.7286 14.7435H4.65078C4.9227 14.291 5.20592 13.9395 5.49259 13.6947C5.89296 13.3527 6.28709 13.2017 6.72691 13.2002Z" fill="white"/>
<path d="M5.91318 21.914C4.60315 21.914 3.19635 22.7564 2.57783 23.9113L2.15375 24.7026C2.12762 24.7497 2.11111 24.8015 2.10518 24.8551C2.09926 24.9086 2.10403 24.9627 2.11923 25.0144C2.13443 25.0661 2.15974 25.1142 2.19371 25.156C2.22767 25.1978 2.26961 25.2324 2.31707 25.2578C2.36454 25.2832 2.41659 25.299 2.47019 25.3041C2.52379 25.3092 2.57788 25.3037 2.62931 25.2877C2.68074 25.2717 2.72848 25.2457 2.76976 25.2111C2.81104 25.1765 2.84503 25.1341 2.86975 25.0863L3.29383 24.2949C3.72936 23.4817 4.99069 22.7263 5.91318 22.7263H15.9724C16.0262 22.7271 16.0796 22.7171 16.1296 22.697C16.1795 22.677 16.225 22.6472 16.2633 22.6094C16.3017 22.5716 16.3321 22.5266 16.3529 22.4769C16.3736 22.4273 16.3843 22.374 16.3843 22.3201C16.3843 22.2663 16.3736 22.213 16.3529 22.1634C16.3321 22.1137 16.3017 22.0687 16.2633 22.0309C16.225 21.9931 16.1795 21.9633 16.1296 21.9432C16.0796 21.9232 16.0262 21.9132 15.9724 21.914L5.91318 21.914Z" fill="white"/>
<path d="M10.6017 12.3879C10.5479 12.3871 10.4944 12.397 10.4445 12.4171C10.3945 12.4372 10.3491 12.467 10.3108 12.5048C10.2724 12.5426 10.242 12.5876 10.2212 12.6372C10.2005 12.6869 10.1898 12.7402 10.1898 12.794C10.1898 12.8478 10.2005 12.9011 10.2212 12.9508C10.242 13.0004 10.2724 13.0455 10.3108 13.0833C10.3491 13.121 10.3945 13.1508 10.4445 13.1709C10.4944 13.191 10.5479 13.2009 10.6017 13.2002H15.9724C16.0262 13.2009 16.0797 13.191 16.1296 13.1709C16.1795 13.1508 16.225 13.121 16.2633 13.0833C16.3017 13.0455 16.3321 13.0004 16.3529 12.9508C16.3736 12.9011 16.3843 12.8478 16.3843 12.794C16.3843 12.7402 16.3736 12.6869 16.3529 12.6372C16.3321 12.5876 16.3017 12.5426 16.2633 12.5048C16.225 12.467 16.1795 12.4372 16.1296 12.4171C16.0797 12.397 16.0262 12.3871 15.9724 12.3879H10.6017Z" fill="white"/>
<path d="M10.4789 23.9517C10.3377 23.9531 10.1714 23.9633 9.9528 23.9743C9.89928 23.9766 9.84676 23.9895 9.79825 24.0122C9.74973 24.0349 9.70619 24.067 9.67013 24.1066C9.63406 24.1462 9.60619 24.1925 9.58811 24.243C9.57003 24.2934 9.5621 24.3469 9.56477 24.4004C9.56745 24.4539 9.58069 24.5063 9.60371 24.5547C9.62674 24.603 9.6591 24.6464 9.69894 24.6822C9.73878 24.718 9.78531 24.7456 9.83585 24.7633C9.88638 24.7811 9.93993 24.7886 9.99341 24.7856C10.4138 24.7646 10.7198 24.7835 10.6923 24.7778C10.7449 24.7895 10.7993 24.7905 10.8523 24.7809C10.9054 24.7713 10.9559 24.7513 11.0011 24.722C11.0463 24.6926 11.0853 24.6546 11.1156 24.6101C11.146 24.5655 11.1672 24.5154 11.178 24.4626C11.1888 24.4098 11.189 24.3554 11.1785 24.3026C11.1681 24.2497 11.1472 24.1994 11.1172 24.1547C11.0871 24.11 11.0485 24.0717 11.0035 24.042C10.9585 24.0124 10.908 23.992 10.8551 23.982C10.7364 23.9578 10.6201 23.9503 10.4789 23.9517Z" fill="white"/>
<path fill-rule="evenodd" clip-rule="evenodd" d="M7.52851 24.4866C7.52851 24.1446 7.66497 23.8156 7.90704 23.5735C8.1491 23.3315 8.47727 23.1958 8.82006 23.1958C9.16204 23.1958 9.49103 23.3315 9.73309 23.5735C9.97516 23.8156 10.1108 24.1446 10.1108 24.4866C10.1108 24.8294 9.97516 25.1575 9.73309 25.3996C9.49103 25.6417 9.16204 25.7781 8.82006 25.7781C8.47727 25.7781 8.1491 25.6417 7.90704 25.3996C7.66497 25.1575 7.52851 24.8294 7.52851 24.4866ZM8.34081 24.4866C8.34081 24.3599 8.39117 24.238 8.48134 24.1478C8.57069 24.0585 8.69253 24.0081 8.82006 24.0081C8.94678 24.0081 9.06863 24.0585 9.15879 24.1478C9.24815 24.238 9.29851 24.3599 9.29851 24.4866C9.29851 24.6141 9.24815 24.736 9.15879 24.8253C9.06863 24.9155 8.94678 24.9658 8.82006 24.9658C8.69253 24.9658 8.57069 24.9155 8.48134 24.8253C8.39117 24.736 8.34081 24.6141 8.34081 24.4866Z" stroke="white" stroke-width="0.4" mask="url(#path-1-outside-1)"/>
<path fill-rule="evenodd" clip-rule="evenodd" d="M10.6153 24.4866C10.6153 24.1446 10.7517 23.8156 10.9938 23.5735C11.2358 23.3315 11.564 23.1958 11.9068 23.1958C12.2488 23.1958 12.5778 23.3315 12.8198 23.5735C13.0619 23.8156 13.1976 24.1446 13.1976 24.4866C13.1976 24.8294 13.0619 25.1575 12.8198 25.3996C12.5778 25.6417 12.2488 25.7781 11.9068 25.7781C11.564 25.7781 11.2358 25.6417 10.9938 25.3996C10.7517 25.1575 10.6153 24.8294 10.6153 24.4866ZM11.4276 24.4866C11.4276 24.3599 11.4779 24.238 11.5681 24.1478C11.6574 24.0585 11.7793 24.0081 11.9068 24.0081C12.0335 24.0081 12.1554 24.0585 12.2455 24.1478C12.3349 24.238 12.3853 24.3599 12.3853 24.4866C12.3853 24.6141 12.3349 24.736 12.2455 24.8253C12.1554 24.9155 12.0335 24.9658 11.9068 24.9658C11.7793 24.9658 11.6574 24.9155 11.5681 24.8253C11.4779 24.736 11.4276 24.6141 11.4276 24.4866Z" stroke="white" stroke-width="0.4" mask="url(#path-1-outside-1)"/>
<path d="M16.0341 5.00005C15.9808 4.99919 15.9278 5.00885 15.8782 5.02846C15.8286 5.04808 15.7833 5.07728 15.745 5.11439C15.7067 5.1515 15.676 5.1958 15.6548 5.24475C15.6336 5.29371 15.6223 5.34636 15.6214 5.3997C15.6206 5.45304 15.6302 5.50603 15.6498 5.55563C15.6695 5.60524 15.6987 5.65049 15.7358 5.68881C15.7729 5.72713 15.8172 5.75777 15.8662 5.77896C15.9151 5.80016 15.9678 5.81151 16.0211 5.81235C20.037 5.87643 22.7982 6.12098 24.2155 6.50567C24.3741 6.54872 24.7378 6.84559 25.09 7.32701C25.4422 7.80844 25.8072 8.44728 26.139 9.0998C26.8026 10.4048 27.3332 11.7533 27.4834 12.1204C27.5946 12.3921 27.7895 12.6413 28.0355 12.9416C28.2816 13.2418 28.5781 13.5726 28.8762 13.903C29.4426 14.5305 30.0031 15.1752 30.1845 15.4694C30.1973 19.2327 29.8869 22.2434 29.2722 24.4883H24.3101C24.0248 24.1818 23.6268 23.9964 23.1844 23.9743C22.9156 23.9608 21.9778 23.9578 20.246 23.9578C18.5142 23.9578 16.0249 23.9631 12.7771 23.9738C12.7233 23.9732 12.6699 23.9834 12.6201 24.0036C12.5702 24.0239 12.5249 24.0538 12.4867 24.0917C12.4485 24.1296 12.4182 24.1748 12.3976 24.2245C12.377 24.2742 12.3665 24.3275 12.3667 24.3813C12.3669 24.4351 12.3778 24.4884 12.3987 24.5379C12.4196 24.5875 12.4502 24.6324 12.4886 24.6701C12.5271 24.7078 12.5726 24.7374 12.6226 24.7573C12.6726 24.7772 12.726 24.787 12.7798 24.7861C16.0271 24.7754 18.5159 24.7701 20.246 24.7701C21.9761 24.7701 22.9839 24.7776 23.1438 24.7856C23.4748 24.8022 23.6436 24.8987 23.791 25.1197C23.828 25.1754 23.8783 25.221 23.9372 25.2525C23.9962 25.2841 24.062 25.3006 24.1289 25.3006H29.5851C29.6729 25.3006 29.7583 25.2722 29.8285 25.2197C29.8988 25.1671 29.9502 25.0932 29.9749 25.009C30.686 22.5899 31.0206 19.3741 30.999 15.341C30.9986 15.2742 30.9818 15.2086 30.95 15.1499C30.6765 14.645 30.073 14.0164 29.4794 13.3587C29.1826 13.0298 28.8923 12.7054 28.664 12.4267C28.4357 12.1481 28.2689 11.8948 28.2353 11.8128C28.096 11.4723 27.5499 10.0822 26.8631 8.73156C26.5197 8.05624 26.1411 7.38808 25.7456 6.8474C25.35 6.30673 24.9617 5.8664 24.4283 5.72161C22.8441 5.29161 20.0757 5.06454 16.0341 5.00005Z" stroke="white" stroke-width="0.4" mask="url(#path-1-outside-1)"/>
<path d="M16.03 6.39046C15.9762 6.38946 15.9228 6.39915 15.8728 6.41897C15.8228 6.43878 15.7772 6.46833 15.7387 6.5059C15.7002 6.54346 15.6696 6.5883 15.6486 6.63781C15.6275 6.68731 15.6165 6.7405 15.6162 6.79428C15.6159 6.84807 15.6263 6.90138 15.6468 6.95112C15.6672 7.00086 15.6974 7.04604 15.7354 7.08404C15.7735 7.12204 15.8187 7.1521 15.8685 7.17248C15.9183 7.19286 15.9716 7.20316 16.0254 7.20276C19.6496 7.22333 22.0203 7.35675 23.0213 7.56481C23.2134 7.61598 23.4707 7.79259 23.7565 8.16277C23.9866 8.46072 24.4052 9.23385 24.9147 10.2865C24.9058 10.2872 24.9046 10.288 24.8955 10.2887C24.5151 10.3187 23.9261 10.3446 23.1389 10.3652C21.5645 10.4064 19.1922 10.4272 16.0276 10.4272C15.9738 10.4265 15.9204 10.4364 15.8704 10.4565C15.8205 10.4765 15.775 10.5063 15.7367 10.5441C15.6984 10.5819 15.6679 10.6269 15.6471 10.6766C15.6264 10.7263 15.6157 10.7795 15.6157 10.8334C15.6157 10.8872 15.6264 10.9405 15.6471 10.9901C15.6679 11.0398 15.6984 11.0848 15.7367 11.1226C15.775 11.1604 15.8205 11.1902 15.8704 11.2103C15.9204 11.2303 15.9738 11.2403 16.0276 11.2395C19.1958 11.2395 21.5715 11.2188 23.1602 11.1772C23.9545 11.1564 24.5506 11.1306 24.9593 11.0985C25.1636 11.0824 25.3187 11.0658 25.4443 11.0426C25.5071 11.0311 25.5599 11.0207 25.6312 10.9923C25.6668 10.9781 25.7085 10.9623 25.769 10.9116C25.8295 10.8609 25.9293 10.7351 25.9226 10.5686C25.9205 10.5146 25.9076 10.4617 25.8847 10.4128C25.2409 9.03721 24.7712 8.14758 24.3994 7.66619C24.0476 7.21066 23.6676 6.89174 23.2206 6.77598C23.2146 6.77442 23.2086 6.77299 23.2025 6.7717C22.0327 6.52559 19.6833 6.4112 16.03 6.39046Z" stroke="white" stroke-width="0.4" mask="url(#path-1-outside-1)"/>
<path d="M27.7782 9.94047C27.5445 9.93596 27.3494 9.93404 27.1281 10.0273C27.0778 10.0472 27.032 10.0769 26.9934 10.1148C26.9548 10.1526 26.9241 10.1978 26.9032 10.2477C26.8822 10.2975 26.8715 10.351 26.8715 10.4051C26.8715 10.4592 26.8824 10.5127 26.9033 10.5625C26.9243 10.6124 26.9551 10.6575 26.9937 10.6953C27.0324 10.7331 27.0782 10.7628 27.1285 10.7827C27.1788 10.8025 27.2325 10.8122 27.2866 10.811C27.3406 10.8098 27.3939 10.7978 27.4433 10.7758C27.4256 10.7832 27.5795 10.7491 27.7627 10.7526C27.9459 10.7561 28.1734 10.7783 28.3954 10.8134C28.6173 10.8484 28.8356 10.8968 28.9995 10.9468C29.1635 10.9968 29.2861 11.0909 29.2251 11.0287C29.2601 11.0644 29.4606 11.3723 29.5802 11.6363C29.6295 11.7451 29.6621 11.839 29.6878 11.9193C29.6221 11.9568 29.5497 11.9973 29.4463 12.0442C29.1882 12.1613 28.8297 12.2895 28.4306 12.3663C28.3777 12.3758 28.3272 12.3957 28.2821 12.4249C28.2369 12.4541 28.198 12.4919 28.1676 12.5362C28.1372 12.5806 28.1159 12.6305 28.1049 12.6831C28.0939 12.7357 28.0935 12.79 28.1037 12.8428C28.1138 12.8955 28.1343 12.9458 28.164 12.9906C28.1938 13.0354 28.2321 13.0738 28.2767 13.1037C28.3214 13.1336 28.3716 13.1543 28.4243 13.1646C28.4771 13.175 28.5313 13.1748 28.584 13.164C29.0582 13.0728 29.4708 12.9251 29.7818 12.784C29.9374 12.7135 30.0669 12.6449 30.1704 12.5819C30.2221 12.5504 30.267 12.5206 30.3092 12.4884C30.3514 12.4563 30.3871 12.4383 30.4499 12.3472C30.5569 12.1921 30.5417 12.0822 30.5362 11.9974C30.5308 11.9126 30.5147 11.8407 30.4943 11.7661C30.4537 11.6168 30.3924 11.4607 30.3201 11.3012C30.1757 10.9823 30.0224 10.6819 29.8055 10.4604C29.6186 10.2695 29.4505 10.235 29.2364 10.1697C29.0223 10.1045 28.7752 10.0511 28.5221 10.0111C28.2691 9.97109 28.0119 9.94498 27.7782 9.94047Z" stroke="white" stroke-width="0.4" mask="url(#path-1-outside-1)"/>
<path d="M30.4698 18.7368C30.3621 18.7384 30.2595 18.7827 30.1844 18.8599C30.1094 18.9372 30.0681 19.041 30.0696 19.1487V26.1808C30.0696 26.671 29.6796 27.061 29.1894 27.061H27.2258C26.7356 27.061 26.3456 26.6711 26.3456 26.1808V24.8944C26.3463 24.8406 26.3364 24.7872 26.3163 24.7373C26.2963 24.6873 26.2665 24.6418 26.2287 24.6035C26.1909 24.5652 26.1459 24.5348 26.0962 24.514C26.0465 24.4932 25.9933 24.4825 25.9394 24.4825C25.8856 24.4825 25.8323 24.4932 25.7827 24.514C25.733 24.5348 25.688 24.5652 25.6502 24.6035C25.6124 24.6418 25.5826 24.6873 25.5625 24.7373C25.5425 24.7872 25.5325 24.8406 25.5333 24.8944V26.1808C25.5333 27.1106 26.296 27.8733 27.2258 27.8733H29.1894C30.1192 27.8733 30.8819 27.1106 30.8819 26.1808V19.1487C30.8827 19.0944 30.8726 19.0404 30.8521 18.9901C30.8317 18.9398 30.8013 18.894 30.7629 18.8556C30.7245 18.8172 30.6787 18.7869 30.6284 18.7665C30.578 18.7461 30.5241 18.736 30.4698 18.7368Z" stroke="white" stroke-width="0.4" mask="url(#path-1-outside-1)"/>
<path d="M20.586 12.3879C20.4783 12.3879 20.375 12.4307 20.2988 12.5068C20.2227 12.583 20.1799 12.6863 20.1799 12.794V13.7707C20.1799 14.3495 20.3763 14.9807 20.7337 15.4097C20.7718 15.4554 20.8195 15.4922 20.8734 15.5175C20.9273 15.5427 20.9861 15.5558 21.0456 15.5558H28.0324C28.1012 15.5558 28.1689 15.5383 28.2292 15.5049C28.2894 15.4716 28.3402 15.4234 28.3767 15.3651C28.4132 15.3067 28.4343 15.24 28.4379 15.1712C28.4416 15.1025 28.4277 15.0339 28.3976 14.972C28 14.1549 27.5539 13.5201 27.0349 13.0769C26.516 12.6337 25.9123 12.3901 25.2758 12.3879H25.2745H20.586ZM20.9922 13.2002H25.2731C25.7129 13.2017 26.107 13.3527 26.5074 13.6947C26.7941 13.9395 27.0773 14.291 27.3492 14.7435H21.2714C21.1364 14.4892 20.9922 14.0452 20.9922 13.7707V13.2002Z" stroke="white" stroke-width="0.4" mask="url(#path-1-outside-1)"/>
<path d="M16.0276 21.914C15.9738 21.9132 15.9204 21.9232 15.8704 21.9432C15.8205 21.9633 15.775 21.9931 15.7367 22.0309C15.6984 22.0687 15.6679 22.1137 15.6471 22.1634C15.6264 22.213 15.6157 22.2663 15.6157 22.3201C15.6157 22.374 15.6264 22.4273 15.6471 22.4769C15.6679 22.5266 15.6984 22.5716 15.7367 22.6094C15.775 22.6472 15.8205 22.677 15.8704 22.697C15.9204 22.7171 15.9738 22.7271 16.0276 22.7263H26.0868C27.0093 22.7263 28.2706 23.4815 28.7062 24.2947L29.1303 25.0863C29.155 25.1341 29.189 25.1765 29.2302 25.2111C29.2715 25.2457 29.3193 25.2717 29.3707 25.2877C29.4221 25.3037 29.4762 25.3092 29.5298 25.3041C29.5834 25.299 29.6355 25.2832 29.6829 25.2578C29.7304 25.2324 29.7723 25.1978 29.8063 25.156C29.8403 25.1142 29.8656 25.0661 29.8808 25.0144C29.896 24.9627 29.9008 24.9086 29.8948 24.8551C29.8889 24.8015 29.8724 24.7497 29.8463 24.7026L29.4222 23.9113C28.8037 22.7564 27.3968 21.914 26.0868 21.914L16.0276 21.914Z" stroke="white" stroke-width="0.4" mask="url(#path-1-outside-1)"/>
<path d="M16.0276 12.3879C15.9738 12.3871 15.9204 12.397 15.8704 12.4171C15.8205 12.4372 15.775 12.467 15.7367 12.5048C15.6984 12.5426 15.6679 12.5876 15.6471 12.6372C15.6264 12.6869 15.6157 12.7402 15.6157 12.794C15.6157 12.8478 15.6264 12.9011 15.6471 12.9508C15.6679 13.0004 15.6984 13.0455 15.7367 13.0833C15.775 13.121 15.8205 13.1508 15.8704 13.1709C15.9204 13.191 15.9738 13.2009 16.0276 13.2002H21.3983C21.4521 13.2009 21.5056 13.191 21.5555 13.1709C21.6055 13.1508 21.6509 13.121 21.6892 13.0833C21.7276 13.0455 21.758 13.0004 21.7788 12.9508C21.7996 12.9011 21.8103 12.8478 21.8103 12.794C21.8103 12.7402 21.7996 12.6869 21.7788 12.6372C21.758 12.5876 21.7276 12.5426 21.6892 12.5048C21.6509 12.467 21.6055 12.4372 21.5555 12.4171C21.5056 12.397 21.4521 12.3871 21.3983 12.3879H16.0276Z" stroke="white" stroke-width="0.4" mask="url(#path-1-outside-1)"/>
<path d="M15.9659 5.00005C11.9243 5.06454 9.15595 5.29161 7.57174 5.72161C7.03826 5.8664 6.65002 6.30673 6.25444 6.8474C5.85886 7.38808 5.48028 8.05624 5.13689 8.73156C4.45013 10.0822 3.904 11.4723 3.76471 11.8128C3.73114 11.8948 3.56433 12.1481 3.33603 12.4267C3.10773 12.7054 2.81735 13.0298 2.52055 13.3587C1.92696 14.0164 1.32352 14.645 1.05 15.1499C1.01819 15.2086 1.00136 15.2742 1.00098 15.341C0.979407 19.3741 1.31398 22.5899 2.02508 25.009C2.04984 25.0932 2.10119 25.1671 2.17146 25.2197C2.24173 25.2722 2.32714 25.3006 2.41489 25.3006H7.87111C7.92493 25.3014 7.97837 25.2914 8.02831 25.2714C8.07825 25.2513 8.12371 25.2215 8.16204 25.1837C8.20037 25.1459 8.2308 25.1009 8.25158 25.0512C8.27235 25.0016 8.28305 24.9483 8.28305 24.8945C8.28305 24.8406 8.27235 24.7873 8.25158 24.7377C8.2308 24.688 8.20037 24.643 8.16204 24.6052C8.12371 24.5674 8.07825 24.5376 8.02831 24.5176C7.97837 24.4975 7.92493 24.4875 7.87111 24.4883H2.72775C2.11308 22.2434 1.80272 19.2327 1.8155 15.4694C1.99685 15.1752 2.55744 14.5305 3.12375 13.903C3.42189 13.5726 3.71842 13.2418 3.96445 12.9416C4.21048 12.6413 4.40542 12.3921 4.51656 12.1204C4.66677 11.7533 5.19742 10.4048 5.86099 9.0998C6.19277 8.44728 6.55777 7.80844 6.91 7.32701C7.26223 6.84559 7.62588 6.54872 7.78449 6.50567C9.20179 6.12098 11.963 5.87643 15.9789 5.81235C16.0322 5.81151 16.0849 5.80016 16.1338 5.77896C16.1828 5.75777 16.2271 5.72713 16.2642 5.68881C16.3013 5.65049 16.3305 5.60524 16.3502 5.55563C16.3698 5.50603 16.3794 5.45304 16.3786 5.3997C16.3777 5.34636 16.3664 5.29371 16.3452 5.24475C16.324 5.1958 16.2933 5.1515 16.255 5.11439C16.2167 5.07728 16.1714 5.04808 16.1218 5.02846C16.0722 5.00885 16.0192 4.99919 15.9659 5.00005Z" stroke="white" stroke-width="0.4" mask="url(#path-1-outside-1)"/>
<path d="M15.97 6.39046C12.3167 6.41119 9.96732 6.52559 8.79749 6.7717C8.79143 6.77299 8.7854 6.77442 8.7794 6.77598C8.33243 6.89174 7.9522 7.21066 7.60046 7.66618C7.22869 8.14758 6.7591 9.03721 6.11531 10.4128C6.09245 10.4617 6.07955 10.5146 6.07739 10.5686C6.07069 10.7351 6.17048 10.8609 6.23097 10.9116C6.29146 10.9623 6.33323 10.9781 6.36884 10.9923C6.44006 11.0207 6.49295 11.0311 6.55573 11.0426C6.68129 11.0658 6.8364 11.0824 7.04073 11.0985C7.4494 11.1306 8.04555 11.1564 8.83985 11.1772C10.4285 11.2188 12.8043 11.2395 15.9724 11.2395C16.0262 11.2403 16.0797 11.2303 16.1296 11.2103C16.1795 11.1902 16.225 11.1604 16.2633 11.1226C16.3017 11.0848 16.3321 11.0398 16.3529 10.9901C16.3736 10.9405 16.3843 10.8872 16.3843 10.8334C16.3843 10.7795 16.3736 10.7263 16.3529 10.6766C16.3321 10.6269 16.3017 10.5819 16.2633 10.5441C16.225 10.5063 16.1795 10.4765 16.1296 10.4565C16.0797 10.4364 16.0262 10.4265 15.9724 10.4272C12.8078 10.4272 10.4355 10.4064 8.86111 10.3652C8.07389 10.3446 7.48494 10.3187 7.10451 10.2887C7.09541 10.288 7.09418 10.2872 7.08531 10.2865C7.59484 9.23385 8.01338 8.46072 8.24348 8.16277C8.52932 7.79259 8.78659 7.61598 8.97867 7.56481C9.9797 7.35675 12.3504 7.22333 15.9746 7.20276C16.0284 7.20316 16.0817 7.19286 16.1315 7.17248C16.1813 7.1521 16.2265 7.12204 16.2646 7.08404C16.3026 7.04604 16.3328 7.00086 16.3532 6.95112C16.3737 6.90138 16.3841 6.84807 16.3838 6.79428C16.3835 6.7405 16.3725 6.68731 16.3515 6.63781C16.3304 6.5883 16.2998 6.54346 16.2613 6.5059C16.2228 6.46833 16.1772 6.43878 16.1272 6.41897C16.0772 6.39915 16.0238 6.38946 15.97 6.39046Z" stroke="white" stroke-width="0.4" mask="url(#path-1-outside-1)"/>
<path d="M4.22178 9.94047C3.98808 9.94498 3.73093 9.97109 3.47786 10.0111C3.22479 10.0511 2.9777 10.1045 2.76361 10.1697C2.54952 10.235 2.38141 10.2695 2.19452 10.4604C1.97763 10.6819 1.82428 10.9823 1.67985 11.3012C1.60763 11.4607 1.54633 11.6168 1.50565 11.7661C1.48531 11.8407 1.46924 11.9126 1.46377 11.9974C1.45829 12.0822 1.44309 12.1921 1.55007 12.3472C1.61286 12.4383 1.6486 12.4563 1.6908 12.4884C1.73299 12.5206 1.77789 12.5504 1.82962 12.5819C1.93308 12.6449 2.06264 12.7135 2.21816 12.784C2.5292 12.9251 2.94182 13.0728 3.41599 13.164C3.46864 13.1748 3.52292 13.175 3.57566 13.1646C3.62841 13.1543 3.67857 13.1336 3.72325 13.1037C3.76793 13.0738 3.80624 13.0354 3.83595 12.9906C3.86566 12.9458 3.88618 12.8955 3.89634 12.8428C3.90649 12.79 3.90606 12.7357 3.89508 12.6831C3.88411 12.6305 3.8628 12.5805 3.83239 12.5362C3.80198 12.4919 3.76307 12.4541 3.71793 12.4249C3.67279 12.3957 3.6223 12.3758 3.5694 12.3663C3.17027 12.2895 2.81184 12.1613 2.55371 12.0442C2.45033 11.9973 2.3779 11.9568 2.31224 11.9193C2.33786 11.839 2.37053 11.7451 2.41981 11.6363C2.53935 11.3723 2.73986 11.0644 2.77487 11.0287C2.71393 11.0909 2.83653 10.9968 3.00048 10.9468C3.16442 10.8968 3.38268 10.8484 3.60462 10.8134C3.82657 10.7783 4.05413 10.7561 4.23733 10.7526C4.42053 10.7491 4.57435 10.7832 4.5567 10.7758C4.60607 10.7978 4.65935 10.8098 4.71341 10.811C4.76746 10.8122 4.82121 10.8025 4.87151 10.7827C4.9218 10.7628 4.96761 10.7331 5.00628 10.6953C5.04494 10.6575 5.07566 10.6124 5.09665 10.5625C5.11763 10.5127 5.12846 10.4592 5.12849 10.4051C5.12852 10.351 5.11776 10.2975 5.09683 10.2477C5.0759 10.1978 5.04523 10.1526 5.00661 10.1148C4.96799 10.0769 4.92221 10.0472 4.87194 10.0273C4.6506 9.93404 4.45548 9.93597 4.22178 9.94047Z" stroke="white" stroke-width="0.4" mask="url(#path-1-outside-1)"/>
<path d="M1.51803 18.7368C1.4104 18.7385 1.30781 18.7828 1.23282 18.86C1.15783 18.9372 1.11655 19.0411 1.11807 19.1487V26.1808C1.11807 27.1107 1.88082 27.8733 2.81057 27.8733H4.77422C5.70397 27.8733 6.46672 27.1106 6.46672 26.1808V24.8945C6.46748 24.8406 6.45754 24.7872 6.43747 24.7373C6.4174 24.6873 6.38761 24.6419 6.34982 24.6035C6.31203 24.5652 6.267 24.5348 6.21734 24.514C6.16769 24.4932 6.1144 24.4825 6.06057 24.4825C6.00675 24.4825 5.95346 24.4932 5.9038 24.514C5.85415 24.5348 5.80912 24.5652 5.77133 24.6035C5.73354 24.6419 5.70374 24.6873 5.68367 24.7373C5.6636 24.7872 5.65366 24.8406 5.65442 24.8945V26.1808C5.65442 26.6711 5.26436 27.061 4.77422 27.061H2.81057C2.32043 27.061 1.93037 26.671 1.93037 26.1808V19.1487C1.93113 19.0943 1.92099 19.0404 1.90053 18.9901C1.88007 18.9397 1.84972 18.894 1.81127 18.8556C1.77282 18.8172 1.72706 18.7869 1.67669 18.7665C1.62632 18.7461 1.57237 18.736 1.51803 18.7368Z" stroke="white" stroke-width="0.4" mask="url(#path-1-outside-1)"/>
<path d="M6.72421 12.3879C6.08768 12.3901 5.48401 12.6337 4.96507 13.0769C4.44614 13.5201 3.99996 14.1549 3.6024 14.972C3.57229 15.0339 3.55841 15.1025 3.56207 15.1712C3.56573 15.24 3.58681 15.3067 3.62332 15.3651C3.65984 15.4234 3.71059 15.4716 3.77082 15.5049C3.83105 15.5383 3.89877 15.5558 3.96762 15.5558H10.9544C11.0139 15.5558 11.0727 15.5427 11.1266 15.5175C11.1805 15.4922 11.2282 15.4554 11.2663 15.4097C11.6237 14.9807 11.8201 14.3495 11.8201 13.7707V12.794C11.8201 12.6863 11.7773 12.583 11.7012 12.5068C11.625 12.4307 11.5217 12.3879 11.414 12.3879H6.72548H6.72421ZM6.72691 13.2002H11.0078V13.7707C11.0078 14.0452 10.8636 14.4892 10.7286 14.7435H4.65078C4.9227 14.291 5.20592 13.9395 5.49259 13.6947C5.89296 13.3527 6.28709 13.2017 6.72691 13.2002Z" stroke="white" stroke-width="0.4" mask="url(#path-1-outside-1)"/>
<path d="M5.91318 21.914C4.60315 21.914 3.19635 22.7564 2.57783 23.9113L2.15375 24.7026C2.12762 24.7497 2.11111 24.8015 2.10518 24.8551C2.09926 24.9086 2.10403 24.9627 2.11923 25.0144C2.13443 25.0661 2.15974 25.1142 2.19371 25.156C2.22767 25.1978 2.26961 25.2324 2.31707 25.2578C2.36454 25.2832 2.41659 25.299 2.47019 25.3041C2.52379 25.3092 2.57788 25.3037 2.62931 25.2877C2.68074 25.2717 2.72848 25.2457 2.76976 25.2111C2.81104 25.1765 2.84503 25.1341 2.86975 25.0863L3.29383 24.2949C3.72936 23.4817 4.99069 22.7263 5.91318 22.7263H15.9724C16.0262 22.7271 16.0796 22.7171 16.1296 22.697C16.1795 22.677 16.225 22.6472 16.2633 22.6094C16.3017 22.5716 16.3321 22.5266 16.3529 22.4769C16.3736 22.4273 16.3843 22.374 16.3843 22.3201C16.3843 22.2663 16.3736 22.213 16.3529 22.1634C16.3321 22.1137 16.3017 22.0687 16.2633 22.0309C16.225 21.9931 16.1795 21.9633 16.1296 21.9432C16.0796 21.9232 16.0262 21.9132 15.9724 21.914L5.91318 21.914Z" stroke="white" stroke-width="0.4" mask="url(#path-1-outside-1)"/>
<path d="M10.6017 12.3879C10.5479 12.3871 10.4944 12.397 10.4445 12.4171C10.3945 12.4372 10.3491 12.467 10.3108 12.5048C10.2724 12.5426 10.242 12.5876 10.2212 12.6372C10.2005 12.6869 10.1898 12.7402 10.1898 12.794C10.1898 12.8478 10.2005 12.9011 10.2212 12.9508C10.242 13.0004 10.2724 13.0455 10.3108 13.0833C10.3491 13.121 10.3945 13.1508 10.4445 13.1709C10.4944 13.191 10.5479 13.2009 10.6017 13.2002H15.9724C16.0262 13.2009 16.0797 13.191 16.1296 13.1709C16.1795 13.1508 16.225 13.121 16.2633 13.0833C16.3017 13.0455 16.3321 13.0004 16.3529 12.9508C16.3736 12.9011 16.3843 12.8478 16.3843 12.794C16.3843 12.7402 16.3736 12.6869 16.3529 12.6372C16.3321 12.5876 16.3017 12.5426 16.2633 12.5048C16.225 12.467 16.1795 12.4372 16.1296 12.4171C16.0797 12.397 16.0262 12.3871 15.9724 12.3879H10.6017Z" stroke="white" stroke-width="0.4" mask="url(#path-1-outside-1)"/>
<path d="M10.4789 23.9517C10.3377 23.9531 10.1714 23.9633 9.9528 23.9743C9.89928 23.9766 9.84676 23.9895 9.79825 24.0122C9.74973 24.0349 9.70619 24.067 9.67013 24.1066C9.63406 24.1462 9.60619 24.1925 9.58811 24.243C9.57003 24.2934 9.5621 24.3469 9.56477 24.4004C9.56745 24.4539 9.58069 24.5063 9.60371 24.5547C9.62674 24.603 9.6591 24.6464 9.69894 24.6822C9.73878 24.718 9.78531 24.7456 9.83585 24.7633C9.88638 24.7811 9.93993 24.7886 9.99341 24.7856C10.4138 24.7646 10.7198 24.7835 10.6923 24.7778C10.7449 24.7895 10.7993 24.7905 10.8523 24.7809C10.9054 24.7713 10.9559 24.7513 11.0011 24.722C11.0463 24.6926 11.0853 24.6546 11.1156 24.6101C11.146 24.5655 11.1672 24.5154 11.178 24.4626C11.1888 24.4098 11.189 24.3554 11.1785 24.3026C11.1681 24.2497 11.1472 24.1994 11.1172 24.1547C11.0871 24.11 11.0485 24.0717 11.0035 24.042C10.9585 24.0124 10.908 23.992 10.8551 23.982C10.7364 23.9578 10.6201 23.9503 10.4789 23.9517Z" stroke="white" stroke-width="0.4" mask="url(#path-1-outside-1)"/>
</svg>
