<svg width="32" height="32" viewBox="0 0 32 32" fill="none" xmlns="http://www.w3.org/2000/svg">
<mask id="path-1-outside-1" maskUnits="userSpaceOnUse" x="1" y="1" width="30" height="30" fill="black">
<rect fill="white" x="1" y="1" width="30" height="30"/>
<path d="M16 3.48131C15.4789 3.48131 14.965 3.51312 14.4603 3.57508C14.3909 3.5836 14.3256 3.61264 14.273 3.65846C14.2203 3.70427 14.1826 3.76476 14.1647 3.83214L12.7361 9.21373C12.5162 10.0424 11.5768 10.7229 10.7183 10.6754L5.0614 10.3622C4.99225 10.3583 4.92351 10.3751 4.86388 10.4102C4.80426 10.4453 4.75643 10.4973 4.72644 10.5595C4.29336 11.4589 3.96528 12.4182 3.75834 13.4211C3.74413 13.49 3.75115 13.5616 3.77847 13.6265C3.8058 13.6914 3.85216 13.7465 3.91146 13.7846L8.70113 16.8644C9.42367 17.3291 9.78257 18.43 9.47195 19.2293L7.36621 24.6474C7.34102 24.7123 7.33584 24.7832 7.35133 24.851C7.36682 24.9188 7.40228 24.9804 7.45316 25.028C8.16907 25.6975 8.96396 26.284 9.82263 26.7721C9.88401 26.8069 9.95453 26.8224 10.0249 26.8166C10.0953 26.8108 10.1623 26.7838 10.2171 26.7393L14.753 23.0543C15.4195 22.5128 16.5805 22.5128 17.247 23.0543L21.7829 26.7393C21.8377 26.7838 21.9047 26.8108 21.9751 26.8166C22.0455 26.8224 22.116 26.8069 22.1774 26.7721C23.036 26.284 23.8309 25.6975 24.5468 25.028C24.5977 24.9804 24.6332 24.9188 24.6487 24.851C24.6642 24.7832 24.659 24.7123 24.6338 24.6474L22.528 19.2293C22.2174 18.43 22.5763 17.3291 23.2989 16.8644L28.0885 13.7846C28.1478 13.7465 28.1942 13.6914 28.2215 13.6265C28.2488 13.5616 28.2559 13.49 28.2417 13.4211C28.0347 12.4182 27.7066 11.4589 27.2735 10.5595C27.2436 10.4973 27.1957 10.4453 27.1361 10.4102C27.0765 10.3751 27.0077 10.3583 26.9386 10.3622L21.2817 10.6754C20.4232 10.7229 19.4838 10.0424 19.2639 9.21373L17.8353 3.83214C17.8174 3.76476 17.7797 3.70427 17.727 3.65846C17.6743 3.61264 17.6091 3.5836 17.5397 3.57508C17.0349 3.51312 16.5211 3.48131 16 3.48131ZM16 4.17915C16.4129 4.17915 16.8194 4.20503 17.2213 4.24635L18.5871 9.39228C18.902 10.5786 20.0915 11.4402 21.3205 11.3721L26.7362 11.0723C27.0646 11.79 27.3222 12.5458 27.5012 13.3318L22.9195 16.2779C22.9195 16.2779 22.9194 16.2779 22.9195 16.2779C21.8851 16.9431 21.4307 18.3371 21.8753 19.4813L23.893 24.6731C23.3208 25.1875 22.6984 25.6466 22.0333 26.0426L17.6893 22.5133C16.7351 21.7381 15.2648 21.7381 14.3107 22.5133L9.96673 26.0426C9.30159 25.6466 8.67921 25.1875 8.10695 24.6731L10.1246 19.4813C10.5693 18.3371 10.115 16.9431 9.08066 16.2779C9.0807 16.2779 9.08061 16.2779 9.08066 16.2779L4.4988 13.3318C4.67775 12.5458 4.93537 11.79 5.26374 11.0723L10.6794 11.3721C11.9085 11.4402 13.098 10.5786 13.4129 9.39228L14.7787 4.24635C15.1806 4.20503 15.587 4.17915 16 4.17915Z"/>
<path fill-rule="evenodd" clip-rule="evenodd" d="M30 15.9569C30.0007 16.9011 29.9048 17.8432 29.7151 18.7678C29.531 19.666 29.2573 20.5439 28.8989 21.3876C28.194 23.0449 27.1748 24.5516 25.8973 25.8238C24.6212 27.0973 23.1099 28.1134 21.4474 28.8161C20.6011 29.1734 19.7205 29.4463 18.8196 29.6298C17.8921 29.8189 16.9471 29.9145 16 29.9138C15.0529 29.9145 14.1079 29.8189 13.1804 29.6298C12.2795 29.4463 11.3989 29.1734 10.5526 28.8161C8.8901 28.1134 7.3788 27.0973 6.1027 25.8238C4.8252 24.5516 3.806 23.0449 3.1011 21.3876C2.7427 20.5439 2.469 19.666 2.2849 18.7678C2.0952 17.8432 1.9993 16.9011 2 15.9569C1.9993 15.0127 2.0952 14.0713 2.2849 13.146C2.469 12.2479 2.7427 11.37 3.1011 10.5263C3.806 8.8689 4.8252 7.36225 6.1027 6.09008C7.3788 4.81651 8.8901 3.80045 10.5526 3.09772C11.3989 2.74042 12.2795 2.46756 13.1804 2.28403C14.1079 2.09491 15.0529 1.99931 16 2C16.9471 1.99931 17.8921 2.09491 18.8196 2.28403C19.7205 2.46756 20.6011 2.74042 21.4474 3.09772C23.1099 3.80045 24.6212 4.81651 25.8973 6.09008C27.1748 7.36225 28.194 8.8689 28.8989 10.5263C29.2573 11.37 29.531 12.2479 29.7151 13.146C29.9048 14.0706 30.0007 15.0127 30 15.9569ZM29.3 15.9569C29.3007 16.8544 29.2097 17.749 29.0298 18.6283C28.8541 19.481 28.5944 20.3143 28.2542 21.1154C27.585 22.6904 26.6162 24.1217 25.4024 25.3304C24.19 26.5405 22.7543 27.5063 21.1744 28.1734C20.3708 28.5126 19.535 28.7715 18.6796 28.9466C17.7976 29.126 16.9002 29.2167 16 29.216C15.0998 29.2167 14.2024 29.126 13.3204 28.9466C12.465 28.7715 11.6292 28.5126 10.8256 28.1734C9.2457 27.5063 7.81 26.5405 6.5976 25.3304C5.3838 24.1217 4.415 22.6904 3.7458 21.1154C3.4056 20.3143 3.1459 19.481 2.9702 18.6283C2.7903 17.749 2.6993 16.8544 2.7 15.9569C2.6993 15.0595 2.7903 14.1649 2.9702 13.2856C3.1459 12.4328 3.4056 11.5996 3.7458 10.7984C4.415 9.22341 5.3838 7.79213 6.5976 6.58346C7.81 5.37339 9.2457 4.40757 10.8256 3.74043C11.6292 3.40128 12.465 3.14238 13.3204 2.96722C14.2024 2.78787 15.0998 2.69715 16 2.69785C16.9002 2.69715 17.7976 2.78787 18.6796 2.96722C19.535 3.14238 20.3708 3.40128 21.1744 3.74043C22.7543 4.40757 24.19 5.37339 25.4024 6.58346C26.6162 7.79213 27.585 9.22341 28.2542 10.7984C28.5944 11.5996 28.8541 12.4328 29.0298 13.2856C29.2097 14.1649 29.3007 15.0595 29.3 15.9569Z"/>
<path fill-rule="evenodd" clip-rule="evenodd" d="M28.4978 15.9402C28.4992 17.6053 28.1646 19.255 27.515 20.7889C26.8857 22.2683 25.9764 23.613 24.8354 24.7491C23.6965 25.8859 22.3476 26.7931 20.8629 27.4205C19.3243 28.0681 17.6702 28.4017 16 28.4003C14.3298 28.4017 12.6757 28.0681 11.1371 27.4205C9.65239 26.7931 8.30349 25.8859 7.16459 24.7491C6.02359 23.613 5.11429 22.2683 4.48499 20.7889C3.83539 19.255 3.50079 17.606 3.50219 15.9409C3.50079 14.2752 3.83539 12.6269 4.48499 11.093C5.11429 9.61286 6.02359 8.26811 7.16459 7.13201C8.30349 5.99522 9.65239 5.08802 11.1371 4.46136C12.6757 3.81306 14.3298 3.47991 16 3.48131C17.6702 3.47991 19.3243 3.81306 20.8629 4.46136C22.3476 5.08802 23.6965 5.99522 24.8354 7.13201C25.9764 8.26811 26.8857 9.61286 27.515 11.093C28.1646 12.6269 28.4992 14.2745 28.4978 15.9402ZM27.7978 15.9402C27.7992 17.5118 27.4835 19.0687 26.8703 20.5167C26.276 21.9138 25.4171 23.1832 24.3405 24.2558C23.2653 25.3291 21.9913 26.1853 20.5899 26.7778C19.1374 27.3891 17.5764 27.7038 16 27.7024C14.4236 27.7038 12.8626 27.3891 11.4101 26.7778C10.0087 26.1853 8.73469 25.3291 7.65949 24.2558C6.58289 23.1832 5.72399 21.9138 5.12969 20.5167C4.51649 19.0687 4.20079 17.5125 4.20219 15.9409C4.20079 14.3687 4.51649 12.8125 5.12969 11.3645C5.72399 9.96736 6.58289 8.69798 7.65949 7.62539C8.73469 6.5521 10.0087 5.69585 11.4101 5.10407C12.8626 4.49206 14.4236 4.17776 16 4.17915C17.5764 4.17776 19.1374 4.49206 20.5899 5.10407C21.9913 5.69585 23.2653 6.5521 24.3405 7.62539C25.4171 8.69798 26.276 9.96736 26.8703 11.3645C27.4835 12.8125 27.7992 14.3687 27.7978 15.9402Z"/>
<path fill-rule="evenodd" clip-rule="evenodd" d="M13.7726 15.957C13.7726 15.368 14.0071 14.8027 14.425 14.3868C14.8422 13.9702 15.4092 13.7364 16 13.7364C16.5908 13.7364 17.1578 13.9702 17.575 14.3868C17.9929 14.8027 18.2274 15.368 18.2274 15.957C18.2274 16.546 17.9929 17.1112 17.575 17.5271C17.1578 17.9438 16.5908 18.1775 16 18.1775C15.4092 18.1775 14.8422 17.9438 14.425 17.5271C14.0071 17.1112 13.7726 16.546 13.7726 15.957ZM14.4726 15.957C14.4726 15.5529 14.6336 15.1656 14.9199 14.8802C15.2062 14.5948 15.5947 14.4343 16 14.4343C16.4053 14.4343 16.7938 14.5948 17.0801 14.8802C17.3664 15.1656 17.5274 15.5529 17.5274 15.957C17.5274 16.361 17.3664 16.7483 17.0801 17.0338C16.7938 17.3192 16.4053 17.4797 16 17.4797C15.5947 17.4797 15.2062 17.3192 14.9199 17.0338C14.6336 16.7483 14.4726 16.361 14.4726 15.957Z"/>
<path fill-rule="evenodd" clip-rule="evenodd" d="M15.0788 11.4482C15.0788 11.2046 15.1754 10.9708 15.3483 10.7985C15.5212 10.6261 15.7557 10.5291 16 10.5291C16.2443 10.5291 16.4788 10.6261 16.6517 10.7985C16.8246 10.9708 16.9212 11.2046 16.9212 11.4482C16.9212 11.6917 16.8246 11.9255 16.6517 12.0979C16.4788 12.2695 16.2443 12.3665 16 12.3665C15.7557 12.3665 15.5212 12.2695 15.3483 12.0979C15.1754 11.9255 15.0788 11.6917 15.0788 11.4482ZM15.7788 11.4482C15.7788 11.3895 15.8019 11.333 15.8432 11.2918C15.8852 11.2507 15.9412 11.2269 16 11.2269C16.0588 11.2269 16.1148 11.2507 16.1568 11.2918C16.1981 11.333 16.2212 11.3895 16.2212 11.4482C16.2212 11.5068 16.1981 11.5626 16.1568 11.6045C16.1148 11.6456 16.0588 11.6687 16 11.6687C15.9412 11.6687 15.8852 11.6456 15.8432 11.6045C15.8019 11.5626 15.7788 11.5068 15.7788 11.4482Z"/>
<path fill-rule="evenodd" clip-rule="evenodd" d="M15.0788 20.4009C15.0788 20.1573 15.1754 19.9236 15.3483 19.7512C15.5212 19.5788 15.7557 19.4818 16 19.4818C16.2443 19.4818 16.4788 19.5788 16.6517 19.7512C16.8246 19.9236 16.9212 20.1573 16.9212 20.4009C16.9212 20.6444 16.8246 20.8782 16.6517 21.0506C16.4788 21.2223 16.2443 21.3193 16 21.3193C15.7557 21.3193 15.5212 21.2223 15.3483 21.0506C15.1754 20.8782 15.0788 20.6444 15.0788 20.4009ZM15.7788 20.4009C15.7788 20.3423 15.8019 20.2857 15.8432 20.2446C15.8852 20.2034 15.9412 20.1797 16 20.1797C16.0588 20.1797 16.1148 20.2034 16.1568 20.2446C16.1981 20.2857 16.2212 20.3423 16.2212 20.4009C16.2212 20.4595 16.1981 20.5153 16.1568 20.5572C16.1148 20.5984 16.0588 20.6214 16 20.6214C15.9412 20.6214 15.8852 20.5984 15.8432 20.5572C15.8019 20.5153 15.7788 20.4595 15.7788 20.4009Z"/>
<path fill-rule="evenodd" clip-rule="evenodd" d="M19.5315 13.0121C19.6645 12.9416 19.8129 12.9047 19.9634 12.9047C20.3043 12.904 20.6179 13.0917 20.7782 13.3917C20.8489 13.5243 20.886 13.6716 20.886 13.8223C20.886 14.1615 20.6977 14.4741 20.3974 14.6339C20.2644 14.7044 20.116 14.7414 19.9655 14.7414C19.6253 14.7421 19.311 14.5544 19.1507 14.2543C19.08 14.1217 19.0429 13.9738 19.0429 13.8237C19.0429 13.4846 19.2312 13.1712 19.5315 13.0121ZM19.8605 13.6276C19.8927 13.6109 19.9284 13.6025 19.9641 13.6025C20.046 13.6018 20.1216 13.6472 20.1601 13.7197C20.1769 13.7511 20.186 13.7867 20.186 13.8223C20.186 13.904 20.1405 13.9793 20.0684 14.0177C20.0362 14.0352 20.0012 14.0435 19.9648 14.0435C19.8829 14.0435 19.8073 13.9989 19.7688 13.9263C19.752 13.8949 19.7429 13.8593 19.7429 13.8237C19.7429 13.7414 19.7884 13.666 19.8605 13.6276Z"/>
<path fill-rule="evenodd" clip-rule="evenodd" d="M11.6026 17.2152C11.7356 17.1441 11.884 17.1071 12.0345 17.1071C12.3747 17.1071 12.689 17.2948 12.8493 17.5942C12.92 17.7268 12.9571 17.8747 12.9571 18.0247C12.9571 18.3646 12.7688 18.6772 12.4685 18.837C12.3355 18.9075 12.1871 18.9445 12.0366 18.9445C11.6957 18.9445 11.3821 18.7568 11.2218 18.4574C11.1511 18.3248 11.114 18.1769 11.114 18.0268C11.114 17.6877 11.3023 17.3743 11.6026 17.2152ZM11.9316 17.8307C11.9638 17.814 11.9988 17.8049 12.0352 17.8049C12.1171 17.8049 12.1927 17.8503 12.2312 17.9229C12.248 17.9543 12.2571 17.9898 12.2571 18.0254C12.2571 18.1071 12.2116 18.1825 12.1395 18.2208C12.1073 18.2376 12.0716 18.2467 12.0359 18.2467C11.954 18.2467 11.8784 18.2013 11.8399 18.1294C11.8231 18.098 11.814 18.0624 11.814 18.0261C11.814 17.9445 11.8595 17.8691 11.9316 17.8307Z"/>
<path fill-rule="evenodd" clip-rule="evenodd" d="M12.8493 14.2543C12.689 14.5544 12.3747 14.7421 12.0345 14.7414C11.884 14.7414 11.7356 14.7044 11.6026 14.6339C11.3023 14.4741 11.114 14.1615 11.114 13.8223C11.114 13.6716 11.1511 13.5243 11.2218 13.3917C11.3821 13.0917 11.6957 12.904 12.0366 12.9047C12.1871 12.9047 12.3355 12.9416 12.4685 13.0121C12.7688 13.1712 12.9571 13.4846 12.9571 13.8237C12.9571 13.9738 12.92 14.1217 12.8493 14.2543ZM12.2312 13.9263C12.1927 13.9989 12.1171 14.0435 12.0352 14.0435C11.9988 14.0435 11.9638 14.0352 11.9316 14.0177C11.8595 13.9793 11.814 13.904 11.814 13.8223C11.814 13.7867 11.8231 13.7511 11.8399 13.7197C11.8784 13.6472 11.954 13.6018 12.0359 13.6025C12.0716 13.6025 12.1073 13.6109 12.1395 13.6276C12.2116 13.666 12.2571 13.7414 12.2571 13.8237C12.2571 13.8593 12.248 13.8949 12.2312 13.9263Z"/>
<path fill-rule="evenodd" clip-rule="evenodd" d="M20.7782 18.4574C20.6179 18.7568 20.3043 18.9445 19.9634 18.9445C19.8129 18.9445 19.6645 18.9075 19.5315 18.837C19.2312 18.6772 19.0429 18.3646 19.0429 18.0247C19.0429 17.8747 19.08 17.7268 19.1507 17.5942C19.311 17.2948 19.6253 17.1071 19.9655 17.1071C20.116 17.1071 20.2644 17.1441 20.3974 17.2152C20.6977 17.3743 20.886 17.6877 20.886 18.0268C20.886 18.1769 20.8489 18.3248 20.7782 18.4574ZM20.1601 18.1294C20.1216 18.2013 20.046 18.2467 19.9641 18.2467C19.9284 18.2467 19.8927 18.2376 19.8605 18.2208C19.7884 18.1825 19.7429 18.1071 19.7429 18.0254C19.7429 17.9898 19.752 17.9543 19.7688 17.9229C19.8073 17.8503 19.8829 17.8049 19.9648 17.8049C20.0012 17.8049 20.0362 17.814 20.0684 17.8307C20.1405 17.8691 20.186 17.9445 20.186 18.0261C20.186 18.0624 20.1769 18.098 20.1601 18.1294Z"/>
</mask>
<path d="M16 3.48131C15.4789 3.48131 14.965 3.51312 14.4603 3.57508C14.3909 3.5836 14.3256 3.61264 14.273 3.65846C14.2203 3.70427 14.1826 3.76476 14.1647 3.83214L12.7361 9.21373C12.5162 10.0424 11.5768 10.7229 10.7183 10.6754L5.0614 10.3622C4.99225 10.3583 4.92351 10.3751 4.86388 10.4102C4.80426 10.4453 4.75643 10.4973 4.72644 10.5595C4.29336 11.4589 3.96528 12.4182 3.75834 13.4211C3.74413 13.49 3.75115 13.5616 3.77847 13.6265C3.8058 13.6914 3.85216 13.7465 3.91146 13.7846L8.70113 16.8644C9.42367 17.3291 9.78257 18.43 9.47195 19.2293L7.36621 24.6474C7.34102 24.7123 7.33584 24.7832 7.35133 24.851C7.36682 24.9188 7.40228 24.9804 7.45316 25.028C8.16907 25.6975 8.96396 26.284 9.82263 26.7721C9.88401 26.8069 9.95453 26.8224 10.0249 26.8166C10.0953 26.8108 10.1623 26.7838 10.2171 26.7393L14.753 23.0543C15.4195 22.5128 16.5805 22.5128 17.247 23.0543L21.7829 26.7393C21.8377 26.7838 21.9047 26.8108 21.9751 26.8166C22.0455 26.8224 22.116 26.8069 22.1774 26.7721C23.036 26.284 23.8309 25.6975 24.5468 25.028C24.5977 24.9804 24.6332 24.9188 24.6487 24.851C24.6642 24.7832 24.659 24.7123 24.6338 24.6474L22.528 19.2293C22.2174 18.43 22.5763 17.3291 23.2989 16.8644L28.0885 13.7846C28.1478 13.7465 28.1942 13.6914 28.2215 13.6265C28.2488 13.5616 28.2559 13.49 28.2417 13.4211C28.0347 12.4182 27.7066 11.4589 27.2735 10.5595C27.2436 10.4973 27.1957 10.4453 27.1361 10.4102C27.0765 10.3751 27.0077 10.3583 26.9386 10.3622L21.2817 10.6754C20.4232 10.7229 19.4838 10.0424 19.2639 9.21373L17.8353 3.83214C17.8174 3.76476 17.7797 3.70427 17.727 3.65846C17.6743 3.61264 17.6091 3.5836 17.5397 3.57508C17.0349 3.51312 16.5211 3.48131 16 3.48131ZM16 4.17915C16.4129 4.17915 16.8194 4.20503 17.2213 4.24635L18.5871 9.39228C18.902 10.5786 20.0915 11.4402 21.3205 11.3721L26.7362 11.0723C27.0646 11.79 27.3222 12.5458 27.5012 13.3318L22.9195 16.2779C22.9195 16.2779 22.9194 16.2779 22.9195 16.2779C21.8851 16.9431 21.4307 18.3371 21.8753 19.4813L23.893 24.6731C23.3208 25.1875 22.6984 25.6466 22.0333 26.0426L17.6893 22.5133C16.7351 21.7381 15.2648 21.7381 14.3107 22.5133L9.96673 26.0426C9.30159 25.6466 8.67921 25.1875 8.10695 24.6731L10.1246 19.4813C10.5693 18.3371 10.115 16.9431 9.08066 16.2779C9.0807 16.2779 9.08061 16.2779 9.08066 16.2779L4.4988 13.3318C4.67775 12.5458 4.93537 11.79 5.26374 11.0723L10.6794 11.3721C11.9085 11.4402 13.098 10.5786 13.4129 9.39228L14.7787 4.24635C15.1806 4.20503 15.587 4.17915 16 4.17915Z" fill="white"/>
<path fill-rule="evenodd" clip-rule="evenodd" d="M30 15.9569C30.0007 16.9011 29.9048 17.8432 29.7151 18.7678C29.531 19.666 29.2573 20.5439 28.8989 21.3876C28.194 23.0449 27.1748 24.5516 25.8973 25.8238C24.6212 27.0973 23.1099 28.1134 21.4474 28.8161C20.6011 29.1734 19.7205 29.4463 18.8196 29.6298C17.8921 29.8189 16.9471 29.9145 16 29.9138C15.0529 29.9145 14.1079 29.8189 13.1804 29.6298C12.2795 29.4463 11.3989 29.1734 10.5526 28.8161C8.8901 28.1134 7.3788 27.0973 6.1027 25.8238C4.8252 24.5516 3.806 23.0449 3.1011 21.3876C2.7427 20.5439 2.469 19.666 2.2849 18.7678C2.0952 17.8432 1.9993 16.9011 2 15.9569C1.9993 15.0127 2.0952 14.0713 2.2849 13.146C2.469 12.2479 2.7427 11.37 3.1011 10.5263C3.806 8.8689 4.8252 7.36225 6.1027 6.09008C7.3788 4.81651 8.8901 3.80045 10.5526 3.09772C11.3989 2.74042 12.2795 2.46756 13.1804 2.28403C14.1079 2.09491 15.0529 1.99931 16 2C16.9471 1.99931 17.8921 2.09491 18.8196 2.28403C19.7205 2.46756 20.6011 2.74042 21.4474 3.09772C23.1099 3.80045 24.6212 4.81651 25.8973 6.09008C27.1748 7.36225 28.194 8.8689 28.8989 10.5263C29.2573 11.37 29.531 12.2479 29.7151 13.146C29.9048 14.0706 30.0007 15.0127 30 15.9569ZM29.3 15.9569C29.3007 16.8544 29.2097 17.749 29.0298 18.6283C28.8541 19.481 28.5944 20.3143 28.2542 21.1154C27.585 22.6904 26.6162 24.1217 25.4024 25.3304C24.19 26.5405 22.7543 27.5063 21.1744 28.1734C20.3708 28.5126 19.535 28.7715 18.6796 28.9466C17.7976 29.126 16.9002 29.2167 16 29.216C15.0998 29.2167 14.2024 29.126 13.3204 28.9466C12.465 28.7715 11.6292 28.5126 10.8256 28.1734C9.2457 27.5063 7.81 26.5405 6.5976 25.3304C5.3838 24.1217 4.415 22.6904 3.7458 21.1154C3.4056 20.3143 3.1459 19.481 2.9702 18.6283C2.7903 17.749 2.6993 16.8544 2.7 15.9569C2.6993 15.0595 2.7903 14.1649 2.9702 13.2856C3.1459 12.4328 3.4056 11.5996 3.7458 10.7984C4.415 9.22341 5.3838 7.79213 6.5976 6.58346C7.81 5.37339 9.2457 4.40757 10.8256 3.74043C11.6292 3.40128 12.465 3.14238 13.3204 2.96722C14.2024 2.78787 15.0998 2.69715 16 2.69785C16.9002 2.69715 17.7976 2.78787 18.6796 2.96722C19.535 3.14238 20.3708 3.40128 21.1744 3.74043C22.7543 4.40757 24.19 5.37339 25.4024 6.58346C26.6162 7.79213 27.585 9.22341 28.2542 10.7984C28.5944 11.5996 28.8541 12.4328 29.0298 13.2856C29.2097 14.1649 29.3007 15.0595 29.3 15.9569Z" fill="white"/>
<path fill-rule="evenodd" clip-rule="evenodd" d="M28.4978 15.9402C28.4992 17.6053 28.1646 19.255 27.515 20.7889C26.8857 22.2683 25.9764 23.613 24.8354 24.7491C23.6965 25.8859 22.3476 26.7931 20.8629 27.4205C19.3243 28.0681 17.6702 28.4017 16 28.4003C14.3298 28.4017 12.6757 28.0681 11.1371 27.4205C9.65239 26.7931 8.30349 25.8859 7.16459 24.7491C6.02359 23.613 5.11429 22.2683 4.48499 20.7889C3.83539 19.255 3.50079 17.606 3.50219 15.9409C3.50079 14.2752 3.83539 12.6269 4.48499 11.093C5.11429 9.61286 6.02359 8.26811 7.16459 7.13201C8.30349 5.99522 9.65239 5.08802 11.1371 4.46136C12.6757 3.81306 14.3298 3.47991 16 3.48131C17.6702 3.47991 19.3243 3.81306 20.8629 4.46136C22.3476 5.08802 23.6965 5.99522 24.8354 7.13201C25.9764 8.26811 26.8857 9.61286 27.515 11.093C28.1646 12.6269 28.4992 14.2745 28.4978 15.9402ZM27.7978 15.9402C27.7992 17.5118 27.4835 19.0687 26.8703 20.5167C26.276 21.9138 25.4171 23.1832 24.3405 24.2558C23.2653 25.3291 21.9913 26.1853 20.5899 26.7778C19.1374 27.3891 17.5764 27.7038 16 27.7024C14.4236 27.7038 12.8626 27.3891 11.4101 26.7778C10.0087 26.1853 8.73469 25.3291 7.65949 24.2558C6.58289 23.1832 5.72399 21.9138 5.12969 20.5167C4.51649 19.0687 4.20079 17.5125 4.20219 15.9409C4.20079 14.3687 4.51649 12.8125 5.12969 11.3645C5.72399 9.96736 6.58289 8.69798 7.65949 7.62539C8.73469 6.5521 10.0087 5.69585 11.4101 5.10407C12.8626 4.49206 14.4236 4.17776 16 4.17915C17.5764 4.17776 19.1374 4.49206 20.5899 5.10407C21.9913 5.69585 23.2653 6.5521 24.3405 7.62539C25.4171 8.69798 26.276 9.96736 26.8703 11.3645C27.4835 12.8125 27.7992 14.3687 27.7978 15.9402Z" fill="white"/>
<path fill-rule="evenodd" clip-rule="evenodd" d="M13.7726 15.957C13.7726 15.368 14.0071 14.8027 14.425 14.3868C14.8422 13.9702 15.4092 13.7364 16 13.7364C16.5908 13.7364 17.1578 13.9702 17.575 14.3868C17.9929 14.8027 18.2274 15.368 18.2274 15.957C18.2274 16.546 17.9929 17.1112 17.575 17.5271C17.1578 17.9438 16.5908 18.1775 16 18.1775C15.4092 18.1775 14.8422 17.9438 14.425 17.5271C14.0071 17.1112 13.7726 16.546 13.7726 15.957ZM14.4726 15.957C14.4726 15.5529 14.6336 15.1656 14.9199 14.8802C15.2062 14.5948 15.5947 14.4343 16 14.4343C16.4053 14.4343 16.7938 14.5948 17.0801 14.8802C17.3664 15.1656 17.5274 15.5529 17.5274 15.957C17.5274 16.361 17.3664 16.7483 17.0801 17.0338C16.7938 17.3192 16.4053 17.4797 16 17.4797C15.5947 17.4797 15.2062 17.3192 14.9199 17.0338C14.6336 16.7483 14.4726 16.361 14.4726 15.957Z" fill="white"/>
<path fill-rule="evenodd" clip-rule="evenodd" d="M15.0788 11.4482C15.0788 11.2046 15.1754 10.9708 15.3483 10.7985C15.5212 10.6261 15.7557 10.5291 16 10.5291C16.2443 10.5291 16.4788 10.6261 16.6517 10.7985C16.8246 10.9708 16.9212 11.2046 16.9212 11.4482C16.9212 11.6917 16.8246 11.9255 16.6517 12.0979C16.4788 12.2695 16.2443 12.3665 16 12.3665C15.7557 12.3665 15.5212 12.2695 15.3483 12.0979C15.1754 11.9255 15.0788 11.6917 15.0788 11.4482ZM15.7788 11.4482C15.7788 11.3895 15.8019 11.333 15.8432 11.2918C15.8852 11.2507 15.9412 11.2269 16 11.2269C16.0588 11.2269 16.1148 11.2507 16.1568 11.2918C16.1981 11.333 16.2212 11.3895 16.2212 11.4482C16.2212 11.5068 16.1981 11.5626 16.1568 11.6045C16.1148 11.6456 16.0588 11.6687 16 11.6687C15.9412 11.6687 15.8852 11.6456 15.8432 11.6045C15.8019 11.5626 15.7788 11.5068 15.7788 11.4482Z" fill="white"/>
<path fill-rule="evenodd" clip-rule="evenodd" d="M15.0788 20.4009C15.0788 20.1573 15.1754 19.9236 15.3483 19.7512C15.5212 19.5788 15.7557 19.4818 16 19.4818C16.2443 19.4818 16.4788 19.5788 16.6517 19.7512C16.8246 19.9236 16.9212 20.1573 16.9212 20.4009C16.9212 20.6444 16.8246 20.8782 16.6517 21.0506C16.4788 21.2223 16.2443 21.3193 16 21.3193C15.7557 21.3193 15.5212 21.2223 15.3483 21.0506C15.1754 20.8782 15.0788 20.6444 15.0788 20.4009ZM15.7788 20.4009C15.7788 20.3423 15.8019 20.2857 15.8432 20.2446C15.8852 20.2034 15.9412 20.1797 16 20.1797C16.0588 20.1797 16.1148 20.2034 16.1568 20.2446C16.1981 20.2857 16.2212 20.3423 16.2212 20.4009C16.2212 20.4595 16.1981 20.5153 16.1568 20.5572C16.1148 20.5984 16.0588 20.6214 16 20.6214C15.9412 20.6214 15.8852 20.5984 15.8432 20.5572C15.8019 20.5153 15.7788 20.4595 15.7788 20.4009Z" fill="white"/>
<path fill-rule="evenodd" clip-rule="evenodd" d="M19.5315 13.0121C19.6645 12.9416 19.8129 12.9047 19.9634 12.9047C20.3043 12.904 20.6179 13.0917 20.7782 13.3917C20.8489 13.5243 20.886 13.6716 20.886 13.8223C20.886 14.1615 20.6977 14.4741 20.3974 14.6339C20.2644 14.7044 20.116 14.7414 19.9655 14.7414C19.6253 14.7421 19.311 14.5544 19.1507 14.2543C19.08 14.1217 19.0429 13.9738 19.0429 13.8237C19.0429 13.4846 19.2312 13.1712 19.5315 13.0121ZM19.8605 13.6276C19.8927 13.6109 19.9284 13.6025 19.9641 13.6025C20.046 13.6018 20.1216 13.6472 20.1601 13.7197C20.1769 13.7511 20.186 13.7867 20.186 13.8223C20.186 13.904 20.1405 13.9793 20.0684 14.0177C20.0362 14.0352 20.0012 14.0435 19.9648 14.0435C19.8829 14.0435 19.8073 13.9989 19.7688 13.9263C19.752 13.8949 19.7429 13.8593 19.7429 13.8237C19.7429 13.7414 19.7884 13.666 19.8605 13.6276Z" fill="white"/>
<path fill-rule="evenodd" clip-rule="evenodd" d="M11.6026 17.2152C11.7356 17.1441 11.884 17.1071 12.0345 17.1071C12.3747 17.1071 12.689 17.2948 12.8493 17.5942C12.92 17.7268 12.9571 17.8747 12.9571 18.0247C12.9571 18.3646 12.7688 18.6772 12.4685 18.837C12.3355 18.9075 12.1871 18.9445 12.0366 18.9445C11.6957 18.9445 11.3821 18.7568 11.2218 18.4574C11.1511 18.3248 11.114 18.1769 11.114 18.0268C11.114 17.6877 11.3023 17.3743 11.6026 17.2152ZM11.9316 17.8307C11.9638 17.814 11.9988 17.8049 12.0352 17.8049C12.1171 17.8049 12.1927 17.8503 12.2312 17.9229C12.248 17.9543 12.2571 17.9898 12.2571 18.0254C12.2571 18.1071 12.2116 18.1825 12.1395 18.2208C12.1073 18.2376 12.0716 18.2467 12.0359 18.2467C11.954 18.2467 11.8784 18.2013 11.8399 18.1294C11.8231 18.098 11.814 18.0624 11.814 18.0261C11.814 17.9445 11.8595 17.8691 11.9316 17.8307Z" fill="white"/>
<path fill-rule="evenodd" clip-rule="evenodd" d="M12.8493 14.2543C12.689 14.5544 12.3747 14.7421 12.0345 14.7414C11.884 14.7414 11.7356 14.7044 11.6026 14.6339C11.3023 14.4741 11.114 14.1615 11.114 13.8223C11.114 13.6716 11.1511 13.5243 11.2218 13.3917C11.3821 13.0917 11.6957 12.904 12.0366 12.9047C12.1871 12.9047 12.3355 12.9416 12.4685 13.0121C12.7688 13.1712 12.9571 13.4846 12.9571 13.8237C12.9571 13.9738 12.92 14.1217 12.8493 14.2543ZM12.2312 13.9263C12.1927 13.9989 12.1171 14.0435 12.0352 14.0435C11.9988 14.0435 11.9638 14.0352 11.9316 14.0177C11.8595 13.9793 11.814 13.904 11.814 13.8223C11.814 13.7867 11.8231 13.7511 11.8399 13.7197C11.8784 13.6472 11.954 13.6018 12.0359 13.6025C12.0716 13.6025 12.1073 13.6109 12.1395 13.6276C12.2116 13.666 12.2571 13.7414 12.2571 13.8237C12.2571 13.8593 12.248 13.8949 12.2312 13.9263Z" fill="white"/>
<path fill-rule="evenodd" clip-rule="evenodd" d="M20.7782 18.4574C20.6179 18.7568 20.3043 18.9445 19.9634 18.9445C19.8129 18.9445 19.6645 18.9075 19.5315 18.837C19.2312 18.6772 19.0429 18.3646 19.0429 18.0247C19.0429 17.8747 19.08 17.7268 19.1507 17.5942C19.311 17.2948 19.6253 17.1071 19.9655 17.1071C20.116 17.1071 20.2644 17.1441 20.3974 17.2152C20.6977 17.3743 20.886 17.6877 20.886 18.0268C20.886 18.1769 20.8489 18.3248 20.7782 18.4574ZM20.1601 18.1294C20.1216 18.2013 20.046 18.2467 19.9641 18.2467C19.9284 18.2467 19.8927 18.2376 19.8605 18.2208C19.7884 18.1825 19.7429 18.1071 19.7429 18.0254C19.7429 17.9898 19.752 17.9543 19.7688 17.9229C19.8073 17.8503 19.8829 17.8049 19.9648 17.8049C20.0012 17.8049 20.0362 17.814 20.0684 17.8307C20.1405 17.8691 20.186 17.9445 20.186 18.0261C20.186 18.0624 20.1769 18.098 20.1601 18.1294Z" fill="white"/>
<path d="M14.4603 3.57508L14.4359 3.37657L14.4359 3.37657L14.4603 3.57508ZM14.1647 3.83214L13.9714 3.78082L13.9714 3.78082L14.1647 3.83214ZM12.7361 9.21373L12.5428 9.16242L12.5428 9.16242L12.7361 9.21373ZM10.7183 10.6754L10.7072 10.8751L10.7072 10.8751L10.7183 10.6754ZM5.0614 10.3622L5.05034 10.5619H5.05035L5.0614 10.3622ZM4.72644 10.5595L4.54626 10.4727L4.54625 10.4728L4.72644 10.5595ZM3.75834 13.4211L3.56246 13.3807L3.56246 13.3807L3.75834 13.4211ZM3.91146 13.7846L3.80329 13.9528L3.80329 13.9528L3.91146 13.7846ZM8.70113 16.8644L8.80931 16.6962L8.8093 16.6962L8.70113 16.8644ZM9.47195 19.2293L9.65837 19.3018L9.65837 19.3018L9.47195 19.2293ZM7.36621 24.6474L7.17979 24.575L7.17978 24.575L7.36621 24.6474ZM7.45316 25.028L7.58977 24.8819L7.58976 24.8819L7.45316 25.028ZM9.82263 26.7721L9.7238 26.9459L9.72386 26.946L9.82263 26.7721ZM10.2171 26.7393L10.091 26.5841L10.0909 26.5841L10.2171 26.7393ZM14.753 23.0543L14.8791 23.2095L14.8791 23.2095L14.753 23.0543ZM17.247 23.0543L17.1209 23.2095L17.1209 23.2095L17.247 23.0543ZM21.7829 26.7393L21.909 26.5841L21.909 26.5841L21.7829 26.7393ZM22.1774 26.7721L22.2761 26.946L22.2762 26.9459L22.1774 26.7721ZM24.5468 25.028L24.4102 24.8819L24.4102 24.8819L24.5468 25.028ZM24.6338 24.6474L24.8202 24.575L24.8202 24.575L24.6338 24.6474ZM22.528 19.2293L22.3416 19.3018V19.3018L22.528 19.2293ZM23.2989 16.8644L23.1907 16.6962L23.1907 16.6962L23.2989 16.8644ZM28.0885 13.7846L28.1967 13.9528L28.1967 13.9528L28.0885 13.7846ZM28.2417 13.4211L28.4375 13.3807L28.4375 13.3807L28.2417 13.4211ZM27.2735 10.5595L27.4537 10.4728L27.4537 10.4727L27.2735 10.5595ZM26.9386 10.3622L26.9496 10.5619H26.9496L26.9386 10.3622ZM21.2817 10.6754L21.2928 10.8751L21.2928 10.8751L21.2817 10.6754ZM19.2639 9.21373L19.4572 9.16242L19.4572 9.16242L19.2639 9.21373ZM17.8353 3.83214L18.0286 3.78082L18.0286 3.78082L17.8353 3.83214ZM17.5397 3.57508L17.5641 3.37657L17.5641 3.37657L17.5397 3.57508ZM17.2213 4.24635L17.4146 4.19504L17.3792 4.06152L17.2418 4.0474L17.2213 4.24635ZM18.5871 9.39228L18.7804 9.34097V9.34097L18.5871 9.39228ZM21.3205 11.3721L21.3316 11.5718L21.3316 11.5718L21.3205 11.3721ZM26.7362 11.0723L26.9181 10.9891L26.8614 10.8651L26.7252 10.8726L26.7362 11.0723ZM27.5012 13.3318L27.6094 13.5001L27.7273 13.4242L27.6962 13.2874L27.5012 13.3318ZM21.8753 19.4813L21.6889 19.5538V19.5538L21.8753 19.4813ZM23.893 24.6731L24.0267 24.8218L24.1295 24.7294L24.0795 24.6006L23.893 24.6731ZM22.0333 26.0426L21.9071 26.1978L22.0155 26.2859L22.1356 26.2144L22.0333 26.0426ZM17.6893 22.5133L17.8154 22.3581H17.8154L17.6893 22.5133ZM14.3107 22.5133L14.1846 22.3581H14.1846L14.3107 22.5133ZM9.96673 26.0426L9.86442 26.2144L9.98444 26.2859L10.0928 26.1978L9.96673 26.0426ZM8.10695 24.6731L7.92053 24.6006L7.87048 24.7294L7.97323 24.8218L8.10695 24.6731ZM10.1246 19.4813L10.3111 19.5538L10.3111 19.5538L10.1246 19.4813ZM4.4988 13.3318L4.30379 13.2874L4.27265 13.4242L4.39063 13.5001L4.4988 13.3318ZM5.26374 11.0723L5.2748 10.8726L5.13862 10.8651L5.08187 10.9891L5.26374 11.0723ZM10.6794 11.3721L10.6684 11.5718L10.6684 11.5718L10.6794 11.3721ZM13.4129 9.39228L13.2196 9.34097V9.34097L13.4129 9.39228ZM14.7787 4.24635L14.7582 4.0474L14.6208 4.06152L14.5854 4.19504L14.7787 4.24635ZM30 15.9569L29.8 15.9568V15.9571L30 15.9569ZM29.7151 18.7678L29.5192 18.7277L29.5192 18.7277L29.7151 18.7678ZM28.8989 21.3876L29.0829 21.4658L29.083 21.4658L28.8989 21.3876ZM25.8973 25.8238L25.7562 25.6821L25.756 25.6822L25.8973 25.8238ZM21.4474 28.8161L21.5252 29.0004L21.5253 29.0003L21.4474 28.8161ZM18.8196 29.6298L18.7797 29.4338L18.7796 29.4339L18.8196 29.6298ZM16 29.9138L16.0001 29.7138H15.9999L16 29.9138ZM13.1804 29.6298L13.2204 29.4339L13.2203 29.4338L13.1804 29.6298ZM10.5526 28.8161L10.4747 29.0003L10.4748 29.0004L10.5526 28.8161ZM6.1027 25.8238L6.24398 25.6822L6.24383 25.6821L6.1027 25.8238ZM3.1011 21.3876L2.91702 21.4658L2.91706 21.4658L3.1011 21.3876ZM2.2849 18.7678L2.48083 18.7277L2.48082 18.7277L2.2849 18.7678ZM2 15.9569L2.2 15.9571L2.2 15.9568L2 15.9569ZM2.2849 13.146L2.48083 13.1862L2.48083 13.1862L2.2849 13.146ZM3.1011 10.5263L2.91706 10.448L2.91702 10.4481L3.1011 10.5263ZM6.1027 6.09008L6.24383 6.2318L6.24398 6.23164L6.1027 6.09008ZM10.5526 3.09772L10.4748 2.91346L10.4747 2.9135L10.5526 3.09772ZM13.1804 2.28403L13.2203 2.48L13.2204 2.47999L13.1804 2.28403ZM16 2L15.9999 2.2L16.0001 2.2L16 2ZM18.8196 2.28403L18.7796 2.47999L18.7797 2.48L18.8196 2.28403ZM21.4474 3.09772L21.5253 2.9135L21.5252 2.91346L21.4474 3.09772ZM25.8973 6.09008L25.756 6.23164L25.7562 6.2318L25.8973 6.09008ZM28.8989 10.5263L29.083 10.4481L29.0829 10.448L28.8989 10.5263ZM29.7151 13.146L29.5192 13.1862L29.5192 13.1862L29.7151 13.146ZM29.3 15.9569L29.1 15.9568V15.9571L29.3 15.9569ZM29.0298 18.6283L29.2257 18.6686L29.2257 18.6684L29.0298 18.6283ZM28.2542 21.1154L28.4383 21.1936L28.4383 21.1936L28.2542 21.1154ZM25.4024 25.3304L25.2613 25.1887L25.2611 25.1888L25.4024 25.3304ZM21.1744 28.1734L21.2522 28.3577L21.2522 28.3577L21.1744 28.1734ZM18.6796 28.9466L18.7195 29.1426L18.7197 29.1426L18.6796 28.9466ZM16 29.216L16.0002 29.016H15.9998L16 29.216ZM13.3204 28.9466L13.2803 29.1426L13.2805 29.1426L13.3204 28.9466ZM10.8256 28.1734L10.7478 28.3577L10.7478 28.3577L10.8256 28.1734ZM6.5976 25.3304L6.73889 25.1888L6.73872 25.1887L6.5976 25.3304ZM3.7458 21.1154L3.56171 21.1936L3.56173 21.1936L3.7458 21.1154ZM2.9702 18.6283L2.77426 18.6684L2.77432 18.6686L2.9702 18.6283ZM2.7 15.9569L2.9 15.9571L2.9 15.9568L2.7 15.9569ZM2.9702 13.2856L2.77432 13.2452L2.77426 13.2455L2.9702 13.2856ZM3.7458 10.7984L3.56173 10.7202L3.56171 10.7203L3.7458 10.7984ZM6.5976 6.58346L6.73872 6.72518L6.73889 6.72501L6.5976 6.58346ZM10.8256 3.74043L10.7478 3.55617L10.7478 3.55618L10.8256 3.74043ZM13.3204 2.96722L13.2805 2.77123L13.2803 2.77128L13.3204 2.96722ZM16 2.69785L15.9998 2.89785L16.0002 2.89785L16 2.69785ZM18.6796 2.96722L18.7197 2.77128L18.7195 2.77123L18.6796 2.96722ZM21.1744 3.74043L21.2522 3.55618L21.2522 3.55617L21.1744 3.74043ZM25.4024 6.58346L25.2611 6.72501L25.2613 6.72518L25.4024 6.58346ZM28.2542 10.7984L28.4383 10.7203L28.4383 10.7202L28.2542 10.7984ZM29.0298 13.2856L29.2257 13.2455L29.2257 13.2452L29.0298 13.2856ZM28.4978 15.9402L28.2978 15.9401V15.9404L28.4978 15.9402ZM27.515 20.7889L27.699 20.8671L27.6992 20.8669L27.515 20.7889ZM24.8354 24.7491L24.6943 24.6074L24.6941 24.6076L24.8354 24.7491ZM20.8629 27.4205L20.9405 27.6048L20.9407 27.6047L20.8629 27.4205ZM16 28.4003L16.0002 28.2003H15.9998L16 28.4003ZM11.1371 27.4205L11.0592 27.6047L11.0595 27.6048L11.1371 27.4205ZM7.16459 24.7491L7.30588 24.6076L7.30571 24.6074L7.16459 24.7491ZM4.48499 20.7889L4.30083 20.8669L4.30095 20.8671L4.48499 20.7889ZM3.50219 15.9409L3.70219 15.9411L3.70219 15.9408L3.50219 15.9409ZM4.48499 11.093L4.30094 11.0147L4.30083 11.015L4.48499 11.093ZM7.16459 7.13201L7.30571 7.27374L7.30588 7.27357L7.16459 7.13201ZM11.1371 4.46136L11.0594 4.27705L11.0593 4.2771L11.1371 4.46136ZM20.8629 4.46136L20.9407 4.2771L20.9405 4.27705L20.8629 4.46136ZM24.8354 7.13201L24.6941 7.27357L24.6943 7.27374L24.8354 7.13201ZM27.515 11.093L27.6992 11.015L27.699 11.0147L27.515 11.093ZM27.7978 15.9402L27.5978 15.94V15.9404L27.7978 15.9402ZM26.8703 20.5167L27.0543 20.595L27.0545 20.5947L26.8703 20.5167ZM24.3405 24.2558L24.1993 24.1141L24.1992 24.1142L24.3405 24.2558ZM20.5899 26.7778L20.6675 26.9621L20.6678 26.962L20.5899 26.7778ZM16 27.7024L16.0002 27.5024H15.9998L16 27.7024ZM11.4101 26.7778L11.3322 26.962L11.3325 26.9621L11.4101 26.7778ZM7.65949 24.2558L7.80079 24.1142L7.80065 24.1141L7.65949 24.2558ZM5.12969 20.5167L4.94553 20.5947L4.94565 20.595L5.12969 20.5167ZM4.20219 15.9409L4.40219 15.9411L4.40219 15.9407L4.20219 15.9409ZM5.12969 11.3645L4.94565 11.2862L4.94553 11.2865L5.12969 11.3645ZM7.65949 7.62539L7.80065 7.76708L7.80079 7.76694L7.65949 7.62539ZM11.4101 5.10407L11.3324 4.91977L11.3323 4.91983L11.4101 5.10407ZM20.5899 5.10407L20.6677 4.91983L20.6675 4.91977L20.5899 5.10407ZM24.3405 7.62539L24.1992 7.76694L24.1993 7.76708L24.3405 7.62539ZM26.8703 11.3645L27.0545 11.2865L27.0543 11.2862L26.8703 11.3645ZM14.425 14.3868L14.5661 14.5286L14.5663 14.5284L14.425 14.3868ZM17.575 14.3868L17.4337 14.5284L17.4339 14.5286L17.575 14.3868ZM17.575 17.5271L17.4339 17.3854L17.4337 17.3856L17.575 17.5271ZM14.425 17.5271L14.5663 17.3856L14.5661 17.3854L14.425 17.5271ZM16.6517 12.0979L16.7926 12.2398L16.7929 12.2395L16.6517 12.0979ZM15.3483 12.0979L15.2071 12.2395L15.2074 12.2398L15.3483 12.0979ZM15.8432 11.2918L15.7032 11.149L15.702 11.1502L15.8432 11.2918ZM16.1568 11.2918L16.298 11.1502L16.2968 11.149L16.1568 11.2918ZM16.1568 11.6045L16.2968 11.7473L16.2992 11.7449L16.1568 11.6045ZM15.8432 11.6045L15.7008 11.7449L15.7032 11.7473L15.8432 11.6045ZM16.6517 21.0506L16.7926 21.1925L16.7929 21.1922L16.6517 21.0506ZM15.3483 21.0506L15.2071 21.1922L15.2074 21.1925L15.3483 21.0506ZM15.8432 20.2446L15.7032 20.1017L15.702 20.1029L15.8432 20.2446ZM16.1568 20.2446L16.298 20.1029L16.2968 20.1017L16.1568 20.2446ZM16.1568 20.5572L16.2968 20.7L16.2992 20.6977L16.1568 20.5572ZM15.8432 20.5572L15.7008 20.6977L15.7032 20.7L15.8432 20.5572ZM19.5315 13.0121L19.6251 13.1888L19.6251 13.1888L19.5315 13.0121ZM19.9634 12.9047V13.1047L19.9638 13.1047L19.9634 12.9047ZM20.7782 13.3917L20.9547 13.2976L20.9546 13.2975L20.7782 13.3917ZM20.3974 14.6339L20.491 14.8106L20.4913 14.8105L20.3974 14.6339ZM19.9655 14.7414V14.5414L19.9651 14.5414L19.9655 14.7414ZM19.1507 14.2543L18.9742 14.3484L18.9743 14.3485L19.1507 14.2543ZM19.8605 13.6276L19.7682 13.4502L19.7665 13.4511L19.8605 13.6276ZM19.9641 13.6025V13.8025L19.9658 13.8025L19.9641 13.6025ZM20.1601 13.7197L19.9834 13.8135L19.9837 13.8141L20.1601 13.7197ZM20.0684 14.0177L19.9744 13.8412L19.9731 13.8419L20.0684 14.0177ZM19.7688 13.9263L19.9455 13.8326L19.9451 13.832L19.7688 13.9263ZM11.6026 17.2152L11.6962 17.392L11.697 17.3916L11.6026 17.2152ZM12.8493 17.5942L13.0258 17.5001L13.0256 17.4998L12.8493 17.5942ZM12.4685 18.837L12.5621 19.0138L12.5625 19.0136L12.4685 18.837ZM11.2218 18.4574L11.0453 18.5515L11.0455 18.5518L11.2218 18.4574ZM11.9316 17.8307L11.8393 17.6533L11.8376 17.6542L11.9316 17.8307ZM12.2312 17.9229L12.0545 18.0166L12.0548 18.0172L12.2312 17.9229ZM12.1395 18.2208L12.2318 18.3983L12.2335 18.3974L12.1395 18.2208ZM11.8399 18.1294L11.6635 18.2238L11.6636 18.2239L11.8399 18.1294ZM12.8493 14.2543L13.0257 14.3485L13.0258 14.3484L12.8493 14.2543ZM12.0345 14.7414L12.0349 14.5414H12.0345V14.7414ZM11.6026 14.6339L11.5086 14.8105L11.5089 14.8106L11.6026 14.6339ZM11.2218 13.3917L11.0454 13.2975L11.0453 13.2976L11.2218 13.3917ZM12.0366 12.9047L12.0362 13.1047H12.0366V12.9047ZM12.4685 13.0121L12.3748 13.1888L12.3749 13.1888L12.4685 13.0121ZM12.2312 13.9263L12.0548 13.832L12.0545 13.8326L12.2312 13.9263ZM11.9316 14.0177L12.0269 13.8419L12.0256 13.8412L11.9316 14.0177ZM11.8399 13.7197L12.0162 13.8141L12.0166 13.8135L11.8399 13.7197ZM12.0359 13.6025L12.0342 13.8025H12.0359V13.6025ZM12.1395 13.6276L12.2335 13.4511L12.2318 13.4502L12.1395 13.6276ZM20.7782 18.4574L20.9545 18.5518L20.9547 18.5515L20.7782 18.4574ZM19.5315 18.837L19.4375 19.0136L19.4378 19.0138L19.5315 18.837ZM19.1507 17.5942L18.9744 17.4998L18.9742 17.5001L19.1507 17.5942ZM20.3974 17.2152L20.303 17.3916L20.3038 17.392L20.3974 17.2152ZM20.1601 18.1294L20.3364 18.2239L20.3364 18.2238L20.1601 18.1294ZM19.8605 18.2208L19.7665 18.3974L19.7682 18.3983L19.8605 18.2208ZM19.7688 17.9229L19.9451 18.0172L19.9455 18.0166L19.7688 17.9229ZM20.0684 17.8307L20.1624 17.6542L20.1607 17.6533L20.0684 17.8307ZM16 3.28131C15.4707 3.28131 14.9488 3.31362 14.4359 3.37657L14.4846 3.77359C14.9813 3.71262 15.487 3.68131 16 3.68131V3.28131ZM14.4359 3.37657C14.327 3.38995 14.2245 3.43553 14.1417 3.50754L14.4042 3.80937C14.4268 3.78975 14.4548 3.77726 14.4846 3.77359L14.4359 3.37657ZM14.1417 3.50754C14.0589 3.57956 13.9995 3.67472 13.9714 3.78082L14.358 3.88346C14.3656 3.8548 14.3817 3.82898 14.4042 3.80937L14.1417 3.50754ZM13.9714 3.78082L12.5428 9.16242L12.9294 9.26504L14.358 3.88345L13.9714 3.78082ZM12.5428 9.16242C12.447 9.52345 12.1897 9.86458 11.8493 10.1112C11.509 10.3577 11.1038 10.4964 10.7293 10.4757L10.7072 10.8751C11.1912 10.9019 11.6851 10.7241 12.084 10.4351C12.4829 10.1462 12.8053 9.73269 12.9294 9.26504L12.5428 9.16242ZM10.7293 10.4757L5.07246 10.1625L5.05035 10.5619L10.7072 10.8751L10.7293 10.4757ZM5.07247 10.1625C4.96394 10.1565 4.85602 10.1827 4.76236 10.2379L4.96541 10.5825C4.991 10.5674 5.02056 10.5602 5.05034 10.5619L5.07247 10.1625ZM4.76236 10.2379C4.66869 10.2931 4.59345 10.3748 4.54626 10.4727L4.90663 10.6463C4.9194 10.6198 4.93983 10.5976 4.96541 10.5825L4.76236 10.2379ZM4.54625 10.4728C4.10616 11.3866 3.77277 12.3615 3.56246 13.3807L3.95421 13.4615C4.1578 12.4749 4.48055 11.5311 4.90664 10.6463L4.54625 10.4728ZM3.56246 13.3807C3.54008 13.4893 3.55114 13.602 3.59416 13.7041L3.96279 13.5489C3.95115 13.5212 3.94818 13.4908 3.95422 13.4615L3.56246 13.3807ZM3.59416 13.7041C3.63718 13.8063 3.71011 13.8929 3.80329 13.9528L4.01964 13.6164C3.9942 13.6 3.97442 13.5765 3.96279 13.5489L3.59416 13.7041ZM3.80329 13.9528L8.59296 17.0326L8.8093 16.6962L4.01963 13.6164L3.80329 13.9528ZM8.59295 17.0326C8.90798 17.2352 9.15385 17.5846 9.28382 17.9834C9.4138 18.3821 9.42085 18.8087 9.28553 19.1569L9.65837 19.3018C9.83367 18.8507 9.81658 18.3271 9.66413 17.8594C9.51167 17.3917 9.21681 16.9583 8.80931 16.6962L8.59295 17.0326ZM9.28553 19.1569L7.17979 24.575L7.55262 24.7199L9.65837 19.3018L9.28553 19.1569ZM7.17978 24.575C7.14012 24.6771 7.13196 24.7887 7.15635 24.8955L7.5463 24.8064C7.53972 24.7776 7.54192 24.7475 7.55264 24.7199L7.17978 24.575ZM7.15635 24.8955C7.18075 25.0023 7.23658 25.0993 7.31657 25.1741L7.58976 24.8819C7.56799 24.8615 7.55289 24.8352 7.5463 24.8064L7.15635 24.8955ZM7.31656 25.1741C8.04384 25.8542 8.85139 26.45 9.7238 26.9459L9.92146 26.5982C9.07653 26.1179 8.29431 25.5408 7.58977 24.8819L7.31656 25.1741ZM9.72386 26.946C9.82027 27.0007 9.93098 27.0251 10.0415 27.0159L10.0084 26.6173C9.97809 26.6198 9.94776 26.6131 9.92141 26.5981L9.72386 26.946ZM10.0415 27.0159C10.1519 27.0068 10.2571 26.9645 10.3432 26.8946L10.0909 26.5841C10.0675 26.6032 10.0387 26.6148 10.0084 26.6173L10.0415 27.0159ZM10.3432 26.8946L14.8791 23.2095L14.6269 22.899L10.091 26.5841L10.3432 26.8946ZM14.8791 23.2095C15.1697 22.9734 15.5791 22.8481 16 22.8481C16.4208 22.8481 16.8303 22.9734 17.1209 23.2095L17.3731 22.899C16.9972 22.5936 16.4929 22.4481 16 22.4481C15.5071 22.4481 15.0028 22.5936 14.6269 22.899L14.8791 23.2095ZM17.1209 23.2095L21.6568 26.8946L21.909 26.5841L17.3731 22.899L17.1209 23.2095ZM21.6568 26.8946C21.7429 26.9645 21.848 27.0068 21.9585 27.0159L21.9916 26.6173C21.9613 26.6148 21.9325 26.6032 21.909 26.5841L21.6568 26.8946ZM21.9585 27.0159C22.069 27.0251 22.1797 27.0007 22.2761 26.946L22.0786 26.5981C22.0522 26.6131 22.0219 26.6198 21.9916 26.6173L21.9585 27.0159ZM22.2762 26.9459C23.1486 26.45 23.9561 25.8542 24.6834 25.1741L24.4102 24.8819C23.7057 25.5408 22.9235 26.1179 22.0785 26.5982L22.2762 26.9459ZM24.6834 25.1741C24.7634 25.0993 24.8192 25.0023 24.8436 24.8955L24.4537 24.8064C24.4471 24.8352 24.432 24.8615 24.4102 24.8819L24.6834 25.1741ZM24.8436 24.8955C24.868 24.7887 24.8599 24.6771 24.8202 24.575L24.4474 24.7199C24.4581 24.7475 24.4603 24.7776 24.4537 24.8064L24.8436 24.8955ZM24.8202 24.575L22.7145 19.1569L22.3416 19.3018L24.4474 24.7199L24.8202 24.575ZM22.7145 19.1569C22.5791 18.8087 22.5862 18.3821 22.7162 17.9834C22.8461 17.5846 23.092 17.2352 23.407 17.0326L23.1907 16.6962C22.7832 16.9583 22.4883 17.3917 22.3359 17.8594C22.1834 18.3271 22.1663 18.8507 22.3416 19.3018L22.7145 19.1569ZM23.407 17.0326L28.1967 13.9528L27.9804 13.6164L23.1907 16.6962L23.407 17.0326ZM28.1967 13.9528C28.2899 13.8929 28.3628 13.8063 28.4058 13.7041L28.0372 13.5489C28.0256 13.5765 28.0058 13.6 27.9803 13.6164L28.1967 13.9528ZM28.4058 13.7041C28.4489 13.602 28.4599 13.4893 28.4375 13.3807L28.0458 13.4615C28.0518 13.4908 28.0488 13.5212 28.0372 13.5489L28.4058 13.7041ZM28.4375 13.3807C28.2272 12.3615 27.8938 11.3866 27.4537 10.4728L27.0934 10.6463C27.5194 11.5311 27.8422 12.4749 28.0458 13.4615L28.4375 13.3807ZM27.4537 10.4727C27.4065 10.3748 27.3313 10.2931 27.2376 10.2379L27.0346 10.5825C27.0602 10.5976 27.0806 10.6198 27.0934 10.6463L27.4537 10.4727ZM27.2376 10.2379C27.144 10.1827 27.0361 10.1565 26.9275 10.1625L26.9496 10.5619C26.9794 10.5602 27.009 10.5674 27.0346 10.5825L27.2376 10.2379ZM26.9275 10.1625L21.2707 10.4757L21.2928 10.8751L26.9496 10.5619L26.9275 10.1625ZM21.2707 10.4757C20.8962 10.4964 20.491 10.3577 20.1507 10.1112C19.8102 9.86458 19.553 9.52345 19.4572 9.16242L19.0706 9.26504C19.1947 9.73269 19.5171 10.1462 19.916 10.4351C20.3149 10.7241 20.8087 10.9019 21.2928 10.8751L21.2707 10.4757ZM19.4572 9.16242L18.0286 3.78082L17.642 3.88345L19.0706 9.26504L19.4572 9.16242ZM18.0286 3.78082C18.0004 3.67472 17.9411 3.57956 17.8583 3.50754L17.5958 3.80937C17.6183 3.82898 17.6344 3.8548 17.642 3.88346L18.0286 3.78082ZM17.8583 3.50754C17.7755 3.43553 17.673 3.38995 17.5641 3.37657L17.5153 3.77359C17.5452 3.77726 17.5732 3.78975 17.5958 3.80937L17.8583 3.50754ZM17.5641 3.37657C17.0512 3.31362 16.5293 3.28131 16 3.28131V3.68131C16.513 3.68131 17.0187 3.71262 17.5154 3.77359L17.5641 3.37657ZM16 4.37915C16.4046 4.37915 16.8041 4.40451 17.2008 4.4453L17.2418 4.0474C16.8347 4.00555 16.4213 3.97915 16 3.97915V4.37915ZM17.028 4.29766L18.3938 9.44359L18.7804 9.34097L17.4146 4.19504L17.028 4.29766ZM18.3938 9.44359C18.7331 10.7219 20.0083 11.6451 21.3316 11.5718L21.3095 11.1725C20.1748 11.2353 19.0709 10.4352 18.7804 9.34097L18.3938 9.44359ZM21.3316 11.5718L26.7473 11.272L26.7252 10.8726L21.3095 11.1725L21.3316 11.5718ZM26.5544 11.1555C26.8771 11.8609 27.1303 12.6037 27.3062 13.3762L27.6962 13.2874C27.5142 12.4879 27.2521 11.7191 26.9181 10.9891L26.5544 11.1555ZM27.393 13.1636L22.8113 16.1097L23.0276 16.4461L27.6094 13.5001L27.393 13.1636ZM22.9195 16.0779C22.9195 16.0779 22.9195 16.0779 22.9195 16.0779C22.9195 16.0779 22.9195 16.0779 22.9195 16.0779C22.9195 16.0779 22.9196 16.0779 22.9196 16.0779C22.9196 16.0779 22.9197 16.0779 22.9197 16.0779C22.9198 16.0779 22.9198 16.0779 22.9199 16.0779C22.9199 16.0779 22.9201 16.0779 22.9203 16.0779C22.9203 16.0779 22.9206 16.0779 22.921 16.0779C22.9212 16.0779 22.9219 16.0779 22.9223 16.0779C22.9233 16.078 22.9305 16.0782 22.9366 16.0787C23.1194 16.2809 22.9272 16.4778 22.9237 16.4779C22.9229 16.4779 22.9217 16.4779 22.9213 16.4779C22.9208 16.4779 22.9204 16.4779 22.9203 16.4779C22.9201 16.4779 22.9199 16.4779 22.9199 16.4779C22.9198 16.4779 22.9198 16.4779 22.9197 16.4779C22.9197 16.4779 22.9196 16.4779 22.9196 16.4779C22.9196 16.4779 22.9195 16.4779 22.9195 16.4779C22.9195 16.4779 22.9195 16.4779 22.9195 16.4779C22.9195 16.4779 22.9195 16.4779 22.9195 16.4779C22.9195 16.4779 22.9195 16.4779 22.9195 16.4779C22.9195 16.4779 22.9195 16.4779 22.9194 16.4779C22.9194 16.4779 22.9194 16.4779 22.9194 16.4779C22.9194 16.4779 22.9194 16.4779 22.9194 16.4779C22.9194 16.4779 22.9194 16.4779 22.9193 16.4779C22.9193 16.4779 22.9193 16.4779 22.9192 16.4779C22.9192 16.4779 22.9191 16.4779 22.9191 16.4779C22.919 16.4779 22.9188 16.4779 22.9186 16.4779C22.9185 16.4779 22.9181 16.4779 22.9176 16.4779C22.9172 16.4779 22.9161 16.4779 22.9152 16.4779C22.9118 16.4778 22.7195 16.2809 22.9024 16.0787C22.9085 16.0782 22.9156 16.078 22.9166 16.0779C22.917 16.0779 22.9177 16.0779 22.9179 16.0779C22.9183 16.0779 22.9186 16.0779 22.9187 16.0779C22.9189 16.0779 22.919 16.0779 22.9191 16.0779C22.9191 16.0779 22.9192 16.0779 22.9192 16.0779C22.9193 16.0779 22.9193 16.0779 22.9193 16.0779C22.9194 16.0779 22.9194 16.0779 22.9194 16.0779C22.9194 16.0779 22.9194 16.0779 22.9194 16.0779C22.9194 16.0779 22.9194 16.0779 22.9194 16.0779L22.9195 16.4779C22.9195 16.4779 22.9195 16.4779 22.9196 16.4779C22.9196 16.4779 22.9196 16.4779 22.9196 16.4779C22.9196 16.4779 22.9197 16.4779 22.9198 16.4779C22.9198 16.4779 22.9198 16.4779 22.9199 16.4779C22.9199 16.4779 22.9201 16.4779 22.9203 16.4779C22.9204 16.4779 22.9207 16.4779 22.921 16.4779C22.9213 16.4779 22.9219 16.4779 22.9223 16.4779C22.9233 16.4779 22.9305 16.4776 22.9366 16.4772C23.1195 16.275 22.9272 16.0781 22.9237 16.078C22.9229 16.078 22.9217 16.0779 22.9214 16.0779C22.9208 16.0779 22.9204 16.0779 22.9204 16.0779C22.9201 16.0779 22.9199 16.0779 22.9199 16.0779C22.9198 16.0779 22.9198 16.0779 22.9198 16.0779C22.9197 16.0779 22.9197 16.0779 22.9196 16.0779C22.9196 16.0779 22.9196 16.0779 22.9196 16.0779C22.9195 16.0779 22.9195 16.0779 22.9195 16.0779C22.9195 16.0779 22.9195 16.0779 22.9195 16.0779C22.9195 16.0779 22.9195 16.0779 22.9195 16.0779C22.9195 16.0779 22.9194 16.0779 22.9194 16.0779C22.9194 16.0779 22.9194 16.0779 22.9194 16.0779C22.9194 16.0779 22.9194 16.0779 22.9194 16.0779C22.9194 16.0779 22.9193 16.0779 22.9193 16.0779C22.9193 16.0779 22.9192 16.0779 22.9192 16.0779C22.9191 16.0779 22.9191 16.0779 22.919 16.0779C22.919 16.0779 22.9188 16.0779 22.9186 16.0779C22.9185 16.0779 22.9181 16.0779 22.9176 16.0779C22.9172 16.0779 22.916 16.078 22.9152 16.078C22.9117 16.0781 22.7195 16.275 22.9023 16.4772C22.9084 16.4776 22.9156 16.4779 22.9166 16.4779C22.917 16.4779 22.9177 16.4779 22.9179 16.4779C22.9183 16.4779 22.9186 16.4779 22.9186 16.4779C22.9188 16.4779 22.919 16.4779 22.919 16.4779C22.9191 16.4779 22.9191 16.4779 22.9192 16.4779C22.9192 16.4779 22.9193 16.4779 22.9193 16.4779C22.9193 16.4779 22.9194 16.4779 22.9194 16.4779C22.9194 16.4779 22.9194 16.4779 22.9194 16.4779L22.9195 16.0779ZM22.8113 16.1097C21.6972 16.8261 21.2097 18.3207 21.6889 19.5538L22.0618 19.4089C21.6516 18.3535 22.0731 17.06 23.0276 16.4461L22.8113 16.1097ZM21.6889 19.5538L23.7066 24.7455L24.0795 24.6006L22.0618 19.4089L21.6889 19.5538ZM23.7593 24.5243C23.1967 25.0301 22.5848 25.4815 21.9309 25.8707L22.1356 26.2144C22.812 25.8118 23.4449 25.3449 24.0267 24.8218L23.7593 24.5243ZM22.1594 25.8874L17.8154 22.3581L17.5632 22.6685L21.9071 26.1978L22.1594 25.8874ZM17.8154 22.3581C16.7878 21.5232 15.2122 21.5232 14.1846 22.3581L14.4368 22.6685C15.3175 21.953 16.6825 21.953 17.5632 22.6685L17.8154 22.3581ZM14.1846 22.3581L9.84062 25.8874L10.0928 26.1978L14.4368 22.6685L14.1846 22.3581ZM10.069 25.8707C9.41516 25.4815 8.80329 25.0301 8.24066 24.5243L7.97323 24.8218C8.55512 25.3449 9.18802 25.8118 9.86442 26.2144L10.069 25.8707ZM8.29336 24.7455L10.3111 19.5538L9.93822 19.4089L7.92053 24.6006L8.29336 24.7455ZM10.3111 19.5538C10.7903 18.3207 10.3029 16.8262 9.18884 16.1097L8.97248 16.4461C9.92704 17.06 10.3484 18.3535 9.93822 19.4089L10.3111 19.5538ZM9.0807 16.0779C9.0807 16.0779 9.0807 16.0779 9.0807 16.0779C9.08071 16.0779 9.08072 16.0779 9.08073 16.0779C9.08074 16.0779 9.08075 16.0779 9.08077 16.0779C9.08078 16.0779 9.08085 16.0779 9.08093 16.0779C9.08096 16.0779 9.08101 16.0779 9.08107 16.0779C9.0811 16.0779 9.08126 16.0779 9.08146 16.0779C9.08153 16.0779 9.08183 16.0779 9.0822 16.0779C9.08243 16.0779 9.08308 16.0779 9.08349 16.0779C9.08451 16.078 9.09164 16.0782 9.09775 16.0787C9.28062 16.2809 9.08837 16.4778 9.08487 16.4779C9.08406 16.4779 9.08288 16.4779 9.08252 16.4779C9.08199 16.4779 9.08158 16.4779 9.08153 16.4779C9.08129 16.4779 9.0811 16.4779 9.08107 16.4779C9.081 16.4779 9.08095 16.4779 9.08092 16.4779C9.08086 16.4779 9.08082 16.4779 9.0808 16.4779C9.08076 16.4779 9.08073 16.4779 9.08073 16.4779C9.08071 16.4779 9.0807 16.4779 9.0807 16.4779C9.08069 16.4779 9.08068 16.4779 9.08067 16.4779C9.08066 16.4779 9.08066 16.4779 9.08066 16.4779C9.08065 16.4779 9.08065 16.4779 9.08064 16.4779C9.08064 16.4779 9.08063 16.4779 9.08062 16.4779C9.08061 16.4779 9.0806 16.4779 9.08059 16.4779C9.08058 16.4779 9.08055 16.4779 9.08051 16.4779C9.08049 16.4779 9.08045 16.4779 9.08039 16.4779C9.08037 16.4779 9.08031 16.4779 9.08025 16.4779C9.08022 16.4779 9.08003 16.4779 9.07979 16.4779C9.07973 16.4779 9.07932 16.4779 9.07879 16.4779C9.07843 16.4779 9.07725 16.4779 9.07644 16.4779C9.07294 16.4778 8.88069 16.2809 9.06357 16.0787C9.06967 16.0782 9.0768 16.078 9.07782 16.0779C9.07824 16.0779 9.07888 16.0779 9.07911 16.0779C9.07949 16.0779 9.07978 16.0779 9.07985 16.0779C9.08005 16.0779 9.08021 16.0779 9.08024 16.0779C9.08031 16.0779 9.08035 16.0779 9.08038 16.0779C9.08047 16.0779 9.08054 16.0779 9.08054 16.0779C9.08056 16.0779 9.08057 16.0779 9.08058 16.0779C9.0806 16.0779 9.08061 16.0779 9.08061 16.0779C9.08061 16.0779 9.08062 16.0779 9.08062 16.0779L9.0807 16.4779C9.0807 16.4779 9.08073 16.4779 9.08076 16.4779C9.08076 16.4779 9.08078 16.4779 9.0808 16.4779C9.0808 16.4779 9.08087 16.4779 9.08096 16.4779C9.08099 16.4779 9.08103 16.4779 9.0811 16.4779C9.08113 16.4779 9.08129 16.4779 9.08149 16.4779C9.08156 16.4779 9.08185 16.4779 9.08223 16.4779C9.08246 16.4779 9.0831 16.4779 9.08352 16.4779C9.08454 16.4779 9.09167 16.4776 9.09777 16.4772C9.28065 16.275 9.0884 16.0781 9.0849 16.078C9.08409 16.078 9.08291 16.0779 9.08255 16.0779C9.08202 16.0779 9.08161 16.0779 9.08155 16.0779C9.08131 16.0779 9.08112 16.0779 9.08109 16.0779C9.08103 16.0779 9.08097 16.0779 9.08095 16.0779C9.08089 16.0779 9.08085 16.0779 9.08083 16.0779C9.08079 16.0779 9.08076 16.0779 9.08075 16.0779C9.08074 16.0779 9.08073 16.0779 9.08072 16.0779C9.08071 16.0779 9.0807 16.0779 9.08069 16.0779C9.08068 16.0779 9.08067 16.0779 9.08066 16.0779C9.08065 16.0779 9.08064 16.0779 9.08062 16.0779C9.08062 16.0779 9.08061 16.0779 9.08059 16.0779C9.08059 16.0779 9.08058 16.0779 9.08056 16.0779C9.08055 16.0779 9.08052 16.0779 9.08048 16.0779C9.08047 16.0779 9.08042 16.0779 9.08037 16.0779C9.08034 16.0779 9.08029 16.0779 9.08022 16.0779C9.08019 16.0779 9.08 16.0779 9.07976 16.0779C9.07971 16.0779 9.07929 16.0779 9.07877 16.0779C9.0784 16.0779 9.07723 16.078 9.07641 16.078C9.07292 16.0781 8.88066 16.275 9.06354 16.4772C9.06964 16.4776 9.07677 16.4779 9.07779 16.4779C9.07821 16.4779 9.07886 16.4779 9.07908 16.4779C9.07946 16.4779 9.07975 16.4779 9.07982 16.4779C9.08002 16.4779 9.08018 16.4779 9.08022 16.4779C9.08028 16.4779 9.08033 16.4779 9.08035 16.4779C9.08044 16.4779 9.08051 16.4779 9.08051 16.4779C9.08053 16.4779 9.08055 16.4779 9.08056 16.4779C9.08059 16.4779 9.08061 16.4779 9.08062 16.4779L9.0807 16.0779ZM9.18882 16.1097L4.60697 13.1636L4.39063 13.5001L8.97249 16.4461L9.18882 16.1097ZM4.69381 13.3762C4.86969 12.6037 5.12288 11.8609 5.44561 11.1555L5.08187 10.9891C4.74786 11.7191 4.48581 12.4879 4.30379 13.2874L4.69381 13.3762ZM5.25268 11.272L10.6684 11.5718L10.6905 11.1725L5.2748 10.8726L5.25268 11.272ZM10.6684 11.5718C11.9917 11.6451 13.2669 10.7219 13.6062 9.44359L13.2196 9.34097C12.9291 10.4352 11.8252 11.2353 10.6905 11.1725L10.6684 11.5718ZM13.6062 9.44359L14.972 4.29766L14.5854 4.19504L13.2196 9.34097L13.6062 9.44359ZM14.7991 4.4453C15.1959 4.40451 15.5954 4.37915 16 4.37915V3.97915C15.5787 3.97915 15.1652 4.00555 14.7582 4.0474L14.7991 4.4453ZM29.8 15.9571C29.8007 16.8876 29.7062 17.8162 29.5192 18.7277L29.911 18.808C30.1034 17.8702 30.2007 16.9146 30.2 15.9568L29.8 15.9571ZM29.5192 18.7277C29.3377 19.6127 29.068 20.4779 28.7148 21.3094L29.083 21.4658C29.4466 20.6098 29.7242 19.7192 29.911 18.808L29.5192 18.7277ZM28.7148 21.3093C28.02 22.9429 27.0154 24.4281 25.7562 25.6821L26.0384 25.9655C27.3342 24.6751 28.368 23.1469 29.0829 21.4658L28.7148 21.3093ZM25.756 25.6822C24.4982 26.9376 23.0084 27.9392 21.3695 28.6319L21.5253 29.0003C23.2114 28.2876 24.7442 27.2571 26.0386 25.9653L25.756 25.6822ZM21.3696 28.6319C20.5355 28.984 19.6676 29.253 18.7797 29.4338L18.8595 29.8258C19.7734 29.6396 20.6667 29.3628 21.5252 29.0004L21.3696 28.6319ZM18.7796 29.4339C17.8653 29.6203 16.9337 29.7145 16.0001 29.7138L15.9999 30.1138C16.9605 30.1146 17.9189 30.0176 18.8596 29.8258L18.7796 29.4339ZM15.9999 29.7138C15.0663 29.7145 14.1347 29.6203 13.2204 29.4339L13.1404 29.8258C14.0811 30.0176 15.0395 30.1146 16.0001 30.1138L15.9999 29.7138ZM13.2203 29.4338C12.3324 29.253 11.4645 28.984 10.6304 28.6319L10.4748 29.0004C11.3333 29.3628 12.2266 29.6396 13.1405 29.8258L13.2203 29.4338ZM10.6305 28.6319C8.99161 27.9392 7.50185 26.9376 6.24398 25.6822L5.96142 25.9653C7.25576 27.2571 8.7886 28.2876 10.4747 29.0003L10.6305 28.6319ZM6.24383 25.6821C4.98458 24.4281 3.97996 22.9429 3.28515 21.3093L2.91706 21.4658C3.63205 23.1469 4.66582 24.6751 5.96158 25.9655L6.24383 25.6821ZM3.28518 21.3094C2.93197 20.4779 2.66225 19.6127 2.48083 18.7277L2.08898 18.808C2.27576 19.7192 2.55343 20.6098 2.91702 21.4658L3.28518 21.3094ZM2.48082 18.7277C2.29383 17.8162 2.19931 16.8876 2.2 15.9571L1.8 15.9568C1.79929 16.9146 1.89658 17.8702 2.08898 18.808L2.48082 18.7277ZM2.2 15.9568C2.19931 15.0262 2.29383 14.0984 2.48083 13.1862L2.08898 13.1058C1.89658 14.0443 1.79929 14.9992 1.8 15.9571L2.2 15.9568ZM2.48083 13.1862C2.66225 12.3011 2.93197 11.436 3.28518 10.6045L2.91702 10.4481C2.55343 11.304 2.27576 12.1946 2.08898 13.1058L2.48083 13.1862ZM3.28515 10.6046C3.97996 8.9709 4.98458 7.48579 6.24383 6.2318L5.96158 5.94836C4.66582 7.23872 3.63205 8.7669 2.91706 10.448L3.28515 10.6046ZM6.24398 6.23164C7.50185 4.97627 8.99161 3.97467 10.6305 3.28193L10.4747 2.9135C8.7886 3.62622 7.25576 4.65675 5.96142 5.94852L6.24398 6.23164ZM10.6304 3.28197C11.4645 2.92981 12.3324 2.66089 13.2203 2.48L13.1405 2.08805C12.2266 2.27424 11.3333 2.55103 10.4748 2.91346L10.6304 3.28197ZM13.2204 2.47999C14.1347 2.29355 15.0663 2.19932 15.9999 2.2L16.0001 1.8C15.0395 1.7993 14.0811 1.89627 13.1404 2.08806L13.2204 2.47999ZM16.0001 2.2C16.9337 2.19932 17.8653 2.29355 18.7796 2.47999L18.8596 2.08806C17.9189 1.89627 16.9605 1.7993 15.9999 1.8L16.0001 2.2ZM18.7797 2.48C19.6676 2.66089 20.5355 2.92981 21.3696 3.28197L21.5252 2.91346C20.6667 2.55103 19.7734 2.27424 18.8595 2.08805L18.7797 2.48ZM21.3695 3.28193C23.0084 3.97467 24.4982 4.97627 25.756 6.23164L26.0386 5.94852C24.7442 4.65675 23.2114 3.62622 21.5253 2.9135L21.3695 3.28193ZM25.7562 6.2318C27.0154 7.48579 28.02 8.9709 28.7148 10.6046L29.0829 10.448C28.368 8.7669 27.3342 7.23872 26.0384 5.94836L25.7562 6.2318ZM28.7148 10.6045C29.068 11.436 29.3377 12.3011 29.5192 13.1862L29.911 13.1058C29.7242 12.1946 29.4466 11.304 29.083 10.4481L28.7148 10.6045ZM29.5192 13.1862C29.7062 14.0976 29.8007 15.0262 29.8 15.9568L30.2 15.9571C30.2007 14.9993 30.1034 14.0436 29.911 13.1058L29.5192 13.1862ZM29.1 15.9571C29.1007 16.8409 29.0111 17.722 28.8339 18.5882L29.2257 18.6684C29.4083 17.776 29.5007 16.8678 29.5 15.9568L29.1 15.9571ZM28.8339 18.5879C28.6609 19.4278 28.4051 20.2483 28.0701 21.0372L28.4383 21.1936C28.7837 20.3802 29.0473 19.5343 29.2257 18.6686L28.8339 18.5879ZM28.0701 21.0372C27.411 22.5884 26.4568 23.9982 25.2613 25.1887L25.5435 25.4721C26.7756 24.2453 27.759 22.7925 28.4383 21.1936L28.0701 21.0372ZM25.2611 25.1888C24.0669 26.3807 22.6528 27.332 21.0966 27.9892L21.2522 28.3577C22.8558 27.6805 24.3131 26.7002 25.5437 25.4719L25.2611 25.1888ZM21.0966 27.9892C20.3052 28.3232 19.482 28.5782 18.6395 28.7507L18.7197 29.1426C19.588 28.9648 20.4364 28.702 21.2522 28.3577L21.0966 27.9892ZM18.6397 28.7506C17.7708 28.9273 16.8868 29.0167 16.0002 29.016L15.9998 29.416C16.9136 29.4167 17.8244 29.3246 18.7195 29.1426L18.6397 28.7506ZM15.9998 29.016C15.1132 29.0167 14.2292 28.9273 13.3603 28.7506L13.2805 29.1426C14.1756 29.3246 15.0864 29.4167 16.0002 29.416L15.9998 29.016ZM13.3605 28.7507C12.518 28.5782 11.6948 28.3232 10.9034 27.9892L10.7478 28.3577C11.5636 28.702 12.412 28.9648 13.2803 29.1426L13.3605 28.7507ZM10.9034 27.9892C9.34722 27.332 7.93308 26.3807 6.73889 25.1888L6.45632 25.4719C7.68693 26.7002 9.14418 27.6805 10.7478 28.3577L10.9034 27.9892ZM6.73872 25.1887C5.54316 23.9982 4.58896 22.5884 3.92988 21.0372L3.56173 21.1936C4.24104 22.7925 5.22445 24.2453 6.45648 25.4721L6.73872 25.1887ZM3.92989 21.0372C3.59488 20.2483 3.33913 19.4278 3.16609 18.5879L2.77432 18.6686C2.95268 19.5343 3.21633 20.3802 3.56171 21.1936L3.92989 21.0372ZM3.16614 18.5882C2.98893 17.722 2.89931 16.8409 2.9 15.9571L2.5 15.9568C2.49929 16.8678 2.59168 17.776 2.77426 18.6684L3.16614 18.5882ZM2.9 15.9568C2.89931 15.073 2.98893 14.1918 3.16614 13.3257L2.77426 13.2455C2.59168 14.1379 2.49929 15.046 2.5 15.9571L2.9 15.9568ZM3.16609 13.3259C3.33913 12.4861 3.59488 11.6655 3.92989 10.8766L3.56171 10.7203C3.21633 11.5336 2.95268 12.3795 2.77432 13.2452L3.16609 13.3259ZM3.92988 10.8767C4.58896 9.32542 5.54316 7.91569 6.73872 6.72518L6.45648 6.44174C5.22445 7.66856 4.24104 9.12139 3.56173 10.7202L3.92988 10.8767ZM6.73889 6.72501C7.93308 5.53312 9.34722 4.5818 10.9034 3.92468L10.7478 3.55618C9.14418 4.23334 7.68693 5.21366 6.45632 6.4419L6.73889 6.72501ZM10.9034 3.92469C11.6948 3.59068 12.518 3.33568 13.3605 3.16315L13.2803 2.77128C12.412 2.94908 11.5636 3.21188 10.7478 3.55617L10.9034 3.92469ZM13.3603 3.16321C14.2292 2.98652 15.1132 2.89716 15.9998 2.89785L16.0002 2.49785C15.0864 2.49714 14.1756 2.58923 13.2805 2.77123L13.3603 3.16321ZM16.0002 2.89785C16.8868 2.89716 17.7708 2.98652 18.6397 3.16321L18.7195 2.77123C17.8244 2.58923 16.9136 2.49714 15.9998 2.49785L16.0002 2.89785ZM18.6395 3.16315C19.482 3.33568 20.3052 3.59068 21.0966 3.92469L21.2522 3.55617C20.4364 3.21188 19.588 2.94908 18.7197 2.77128L18.6395 3.16315ZM21.0966 3.92468C22.6528 4.5818 24.0669 5.53312 25.2611 6.72501L25.5437 6.4419C24.3131 5.21366 22.8558 4.23334 21.2522 3.55618L21.0966 3.92468ZM25.2613 6.72518C26.4568 7.91569 27.411 9.32542 28.0701 10.8767L28.4383 10.7202C27.759 9.12139 26.7756 7.66856 25.5435 6.44174L25.2613 6.72518ZM28.0701 10.8766C28.4051 11.6655 28.6609 12.4861 28.8339 13.3259L29.2257 13.2452C29.0473 12.3795 28.7837 11.5336 28.4383 10.7203L28.0701 10.8766ZM28.8339 13.3257C29.0111 14.1918 29.1007 15.073 29.1 15.9568L29.5 15.9571C29.5007 15.046 29.4083 14.1379 29.2257 13.2455L28.8339 13.3257ZM28.2978 15.9404C28.2992 17.5786 27.97 19.2017 27.3308 20.7109L27.6992 20.8669C28.3592 19.3083 28.6992 17.632 28.6978 15.9401L28.2978 15.9404ZM27.3309 20.7106C26.7117 22.1663 25.817 23.4895 24.6943 24.6074L24.9765 24.8909C26.1358 23.7366 27.0597 22.3703 27.699 20.8671L27.3309 20.7106ZM24.6941 24.6076C23.5734 25.7262 22.2461 26.6189 20.785 27.2363L20.9407 27.6047C22.4491 26.9674 23.8196 26.0457 24.9767 24.8907L24.6941 24.6076ZM20.7853 27.2362C19.2713 27.8734 17.6436 28.2016 16.0002 28.2003L15.9998 28.6003C17.6968 28.6017 19.3773 28.2628 20.9405 27.6048L20.7853 27.2362ZM15.9998 28.2003C14.3564 28.2016 12.7287 27.8734 11.2147 27.2362L11.0595 27.6048C12.6227 28.2628 14.3032 28.6017 16.0002 28.6003L15.9998 28.2003ZM11.2149 27.2363C9.75391 26.6189 8.42655 25.7262 7.30588 24.6076L7.0233 24.8907C8.18043 26.0457 9.55088 26.9674 11.0592 27.6047L11.2149 27.2363ZM7.30571 24.6074C6.18299 23.4895 5.28826 22.1663 4.66904 20.7106L4.30095 20.8671C4.94033 22.3703 5.8642 23.7366 7.02348 24.8909L7.30571 24.6074ZM4.66916 20.7109C4.03001 19.2017 3.70082 17.5793 3.70219 15.9411L3.30219 15.9408C3.30077 17.6327 3.64078 19.3083 4.30083 20.8669L4.66916 20.7109ZM3.70219 15.9408C3.70082 14.3019 4.03001 12.6802 4.66916 11.171L4.30083 11.015C3.64078 12.5735 3.30077 14.2484 3.30219 15.9411L3.70219 15.9408ZM4.66905 11.1712C5.28827 9.71482 6.18299 8.39163 7.30571 7.27374L7.02348 6.99029C5.8642 8.14458 4.94032 9.51089 4.30094 11.0147L4.66905 11.1712ZM7.30588 7.27357C8.42656 6.15497 9.75389 5.26227 11.2149 4.64562L11.0593 4.2771C9.5509 4.91378 8.18043 5.83548 7.0233 6.99046L7.30588 7.27357ZM11.2148 4.64566C12.7287 4.00776 14.3563 3.67993 15.9998 3.68131L16.0002 3.28131C14.3033 3.27989 12.6227 3.61836 11.0594 4.27705L11.2148 4.64566ZM16.0002 3.68131C17.6437 3.67993 19.2713 4.00776 20.7852 4.64566L20.9405 4.27705C19.3773 3.61836 17.6967 3.27989 15.9998 3.28131L16.0002 3.68131ZM20.7851 4.64562C22.2461 5.26227 23.5734 6.15497 24.6941 7.27357L24.9767 6.99046C23.8196 5.83548 22.4491 4.91378 20.9407 4.2771L20.7851 4.64562ZM24.6943 7.27374C25.817 8.39163 26.7117 9.71482 27.3309 11.1712L27.699 11.0147C27.0597 9.51089 26.1358 8.14458 24.9765 6.99029L24.6943 7.27374ZM27.3308 11.171C27.97 12.6802 28.2992 14.3012 28.2978 15.9401L28.6978 15.9404C28.6992 14.2477 28.3592 12.5735 27.6992 11.015L27.3308 11.171ZM27.5978 15.9404C27.5992 17.4851 27.2889 19.0154 26.6861 20.4387L27.0545 20.5947C27.6781 19.122 27.9992 17.5385 27.9978 15.94L27.5978 15.9404ZM26.6863 20.4384C26.102 21.8118 25.2577 23.0596 24.1993 24.1141L24.4816 24.3974C25.5765 23.3067 26.4499 22.0158 27.0543 20.595L26.6863 20.4384ZM24.1992 24.1142C23.1423 25.1693 21.8898 26.0111 20.512 26.5936L20.6678 26.962C22.0928 26.3595 23.3883 25.4888 24.4818 24.3973L24.1992 24.1142ZM20.5123 26.5934C19.0844 27.1944 17.5498 27.5038 16.0002 27.5024L15.9998 27.9024C17.6029 27.9038 19.1904 27.5838 20.6675 26.9621L20.5123 26.5934ZM15.9998 27.5024C14.4501 27.5038 12.9156 27.1944 11.4877 26.5934L11.3325 26.9621C12.8096 27.5838 14.397 27.9038 16.0002 27.9024L15.9998 27.5024ZM11.488 26.5936C10.1102 26.0111 8.85773 25.1693 7.80079 24.1142L7.5182 24.3973C8.61166 25.4888 9.90721 26.3595 11.3322 26.962L11.488 26.5936ZM7.80065 24.1141C6.74227 23.0596 5.89794 21.8118 5.31373 20.4384L4.94565 20.595C5.55005 22.0158 6.42352 23.3067 7.51834 24.3974L7.80065 24.1141ZM5.31386 20.4387C4.71111 19.0154 4.40082 17.4857 4.40219 15.9411L4.00219 15.9407C4.00077 17.5392 4.32187 19.122 4.94553 20.5947L5.31386 20.4387ZM4.40219 15.9407C4.40082 14.3954 4.71112 12.8658 5.31386 11.4424L4.94553 11.2865C4.32187 12.7592 4.00077 14.342 4.00219 15.9411L4.40219 15.9407ZM5.31373 11.4427C5.89794 10.0694 6.74227 8.82151 7.80065 7.76708L7.51834 7.48371C6.42352 8.57445 5.55005 9.86535 4.94565 11.2862L5.31373 11.4427ZM7.80079 7.76694C8.85773 6.71188 10.1102 5.8701 11.4879 5.28832L11.3323 4.91983C9.90723 5.52159 8.61166 6.39233 7.5182 7.48384L7.80079 7.76694ZM11.4877 5.28838C12.9156 4.68676 14.4501 4.37778 15.9998 4.37915L16.0002 3.97915C14.3971 3.97773 12.8096 4.29736 11.3324 4.91977L11.4877 5.28838ZM16.0002 4.37915C17.5499 4.37778 19.0844 4.68676 20.5122 5.28838L20.6675 4.91977C19.1904 4.29736 17.6029 3.97773 15.9998 3.97915L16.0002 4.37915ZM20.5121 5.28832C21.8898 5.8701 23.1423 6.71188 24.1992 7.76694L24.4818 7.48384C23.3883 6.39233 22.0928 5.52159 20.6677 4.91983L20.5121 5.28832ZM24.1993 7.76708C25.2577 8.82151 26.102 10.0694 26.6863 11.4427L27.0543 11.2862C26.4499 9.86535 25.5765 8.57445 24.4816 7.48371L24.1993 7.76708ZM26.6861 11.4424C27.2889 12.8658 27.5992 14.3954 27.5978 15.94L27.9978 15.9404C27.9992 14.342 27.6781 12.7592 27.0545 11.2865L26.6861 11.4424ZM13.9726 15.957C13.9726 15.4211 14.1859 14.9069 14.5661 14.5286L14.2839 14.2451C13.8283 14.6986 13.5726 15.3149 13.5726 15.957H13.9726ZM14.5663 14.5284C14.9458 14.1494 15.4619 13.9364 16 13.9364V13.5364C15.3565 13.5364 14.7386 13.7911 14.2837 14.2453L14.5663 14.5284ZM16 13.9364C16.5381 13.9364 17.0542 14.1494 17.4337 14.5284L17.7163 14.2453C17.2614 13.7911 16.6435 13.5364 16 13.5364V13.9364ZM17.4339 14.5286C17.8141 14.9069 18.0274 15.4211 18.0274 15.957H18.4274C18.4274 15.3149 18.1717 14.6986 17.7161 14.2451L17.4339 14.5286ZM18.0274 15.957C18.0274 16.4928 17.8141 17.007 17.4339 17.3854L17.7161 17.6689C18.1717 17.2154 18.4274 16.5991 18.4274 15.957H18.0274ZM17.4337 17.3856C17.0542 17.7646 16.5381 17.9775 16 17.9775V18.3775C16.6435 18.3775 17.2614 18.1229 17.7163 17.6687L17.4337 17.3856ZM16 17.9775C15.4619 17.9775 14.9458 17.7646 14.5663 17.3856L14.2837 17.6687C14.7386 18.1229 15.3565 18.3775 16 18.3775V17.9775ZM14.5661 17.3854C14.1859 17.007 13.9726 16.4928 13.9726 15.957H13.5726C13.5726 16.5991 13.8283 17.2154 14.2839 17.6689L14.5661 17.3854ZM14.6726 15.957C14.6726 15.6062 14.8124 15.2698 15.0611 15.0218L14.7787 14.7386C14.4548 15.0615 14.2726 15.4997 14.2726 15.957H14.6726ZM15.0611 15.0218C15.3098 14.7739 15.6475 14.6343 16 14.6343V14.2343C15.5419 14.2343 15.1026 14.4157 14.7787 14.7386L15.0611 15.0218ZM16 14.6343C16.3525 14.6343 16.6902 14.7739 16.9389 15.0218L17.2213 14.7386C16.8974 14.4157 16.4581 14.2343 16 14.2343V14.6343ZM16.9389 15.0218C17.1876 15.2698 17.3274 15.6062 17.3274 15.957H17.7274C17.7274 15.4997 17.5452 15.0615 17.2213 14.7386L16.9389 15.0218ZM17.3274 15.957C17.3274 16.3078 17.1876 16.6442 16.9389 16.8921L17.2213 17.1754C17.5452 16.8525 17.7274 16.4143 17.7274 15.957H17.3274ZM16.9389 16.8921C16.6902 17.1401 16.3525 17.2797 16 17.2797V17.6797C16.4581 17.6797 16.8974 17.4983 17.2213 17.1754L16.9389 16.8921ZM16 17.2797C15.6475 17.2797 15.3098 17.1401 15.0611 16.8921L14.7787 17.1754C15.1026 17.4983 15.5419 17.6797 16 17.6797V17.2797ZM15.0611 16.8921C14.8124 16.6442 14.6726 16.3078 14.6726 15.957H14.2726C14.2726 16.4143 14.4548 16.8525 14.7787 17.1754L15.0611 16.8921ZM15.2788 11.4482C15.2788 11.2576 15.3544 11.0748 15.4895 10.9401L15.2071 10.6568C14.9964 10.8668 14.8788 11.1516 14.8788 11.4482H15.2788ZM15.4895 10.9401C15.6249 10.8051 15.8087 10.7291 16 10.7291V10.3291C15.7027 10.3291 15.4175 10.4471 15.2071 10.6568L15.4895 10.9401ZM16 10.7291C16.1913 10.7291 16.3751 10.8051 16.5105 10.9401L16.7929 10.6568C16.5825 10.4471 16.2973 10.3291 16 10.3291V10.7291ZM16.5105 10.9401C16.6456 11.0748 16.7212 11.2576 16.7212 11.4482H17.1212C17.1212 11.1516 17.0036 10.8668 16.7929 10.6568L16.5105 10.9401ZM16.7212 11.4482C16.7212 11.6387 16.6456 11.8215 16.5105 11.9562L16.7929 12.2395C17.0036 12.0295 17.1212 11.7447 17.1212 11.4482H16.7212ZM16.5108 11.9559C16.3753 12.0905 16.1914 12.1665 16 12.1665V12.5665C16.2972 12.5665 16.5823 12.4486 16.7926 12.2398L16.5108 11.9559ZM16 12.1665C15.8086 12.1665 15.6247 12.0905 15.4892 11.9559L15.2074 12.2398C15.4177 12.4486 15.7028 12.5665 16 12.5665V12.1665ZM15.4895 11.9562C15.3544 11.8215 15.2788 11.6387 15.2788 11.4482H14.8788C14.8788 11.7447 14.9964 12.0295 15.2071 12.2395L15.4895 11.9562ZM15.9788 11.4482C15.9788 11.4417 15.9814 11.4364 15.9844 11.4335L15.702 11.1502C15.6224 11.2296 15.5788 11.3374 15.5788 11.4482H15.9788ZM15.9832 11.4347C15.9893 11.4287 15.9955 11.4269 16 11.4269V11.0269C15.8869 11.0269 15.7811 11.0726 15.7032 11.149L15.9832 11.4347ZM16 11.4269C16.0045 11.4269 16.0107 11.4287 16.0168 11.4347L16.2968 11.149C16.2189 11.0726 16.1131 11.0269 16 11.0269V11.4269ZM16.0156 11.4335C16.0186 11.4364 16.0212 11.4417 16.0212 11.4482H16.4212C16.4212 11.3374 16.3776 11.2296 16.298 11.1502L16.0156 11.4335ZM16.0212 11.4482C16.0212 11.4537 16.0192 11.4592 16.0144 11.464L16.2992 11.7449C16.377 11.666 16.4212 11.5599 16.4212 11.4482H16.0212ZM16.0168 11.4617C16.0119 11.4664 16.0061 11.4687 16 11.4687V11.8687C16.1115 11.8687 16.2177 11.8249 16.2968 11.7473L16.0168 11.4617ZM16 11.4687C15.9939 11.4687 15.9881 11.4664 15.9832 11.4617L15.7032 11.7473C15.7823 11.8249 15.8885 11.8687 16 11.8687V11.4687ZM15.9856 11.464C15.9808 11.4592 15.9788 11.4537 15.9788 11.4482H15.5788C15.5788 11.5599 15.623 11.666 15.7008 11.7449L15.9856 11.464ZM15.2788 20.4009C15.2788 20.2103 15.3544 20.0275 15.4895 19.8928L15.2071 19.6096C14.9964 19.8196 14.8788 20.1044 14.8788 20.4009H15.2788ZM15.4895 19.8928C15.6249 19.7578 15.8087 19.6818 16 19.6818V19.2818C15.7027 19.2818 15.4175 19.3998 15.2071 19.6096L15.4895 19.8928ZM16 19.6818C16.1913 19.6818 16.3751 19.7578 16.5105 19.8928L16.7929 19.6096C16.5825 19.3998 16.2973 19.2818 16 19.2818V19.6818ZM16.5105 19.8928C16.6456 20.0275 16.7212 20.2103 16.7212 20.4009H17.1212C17.1212 20.1044 17.0036 19.8196 16.7929 19.6096L16.5105 19.8928ZM16.7212 20.4009C16.7212 20.5915 16.6456 20.7742 16.5105 20.9089L16.7929 21.1922C17.0036 20.9822 17.1212 20.6974 17.1212 20.4009H16.7212ZM16.5108 20.9087C16.3753 21.0432 16.1914 21.1193 16 21.1193V21.5193C16.2972 21.5193 16.5823 21.4013 16.7926 21.1925L16.5108 20.9087ZM16 21.1193C15.8086 21.1193 15.6247 21.0432 15.4892 20.9087L15.2074 21.1925C15.4177 21.4013 15.7028 21.5193 16 21.5193V21.1193ZM15.4895 20.9089C15.3544 20.7742 15.2788 20.5915 15.2788 20.4009H14.8788C14.8788 20.6974 14.9964 20.9822 15.2071 21.1922L15.4895 20.9089ZM15.9788 20.4009C15.9788 20.3944 15.9814 20.3892 15.9844 20.3862L15.702 20.1029C15.6224 20.1823 15.5788 20.2901 15.5788 20.4009H15.9788ZM15.9832 20.3874C15.9892 20.3815 15.9955 20.3797 16 20.3797V19.9797C15.8869 19.9797 15.7811 20.0253 15.7032 20.1017L15.9832 20.3874ZM16 20.3797C16.0045 20.3797 16.0107 20.3815 16.0168 20.3874L16.2968 20.1017C16.2189 20.0253 16.1131 19.9797 16 19.9797V20.3797ZM16.0156 20.3862C16.0186 20.3892 16.0212 20.3944 16.0212 20.4009H16.4212C16.4212 20.2901 16.3776 20.1823 16.298 20.1029L16.0156 20.3862ZM16.0212 20.4009C16.0212 20.4064 16.0192 20.4119 16.0144 20.4168L16.2992 20.6977C16.377 20.6188 16.4212 20.5126 16.4212 20.4009H16.0212ZM16.0168 20.4144C16.0119 20.4192 16.0061 20.4214 16 20.4214V20.8214C16.1115 20.8214 16.2177 20.7776 16.2968 20.7L16.0168 20.4144ZM16 20.4214C15.9939 20.4214 15.9881 20.4192 15.9832 20.4144L15.7032 20.7C15.7823 20.7776 15.8885 20.8214 16 20.8214V20.4214ZM15.9856 20.4168C15.9808 20.4119 15.9788 20.4064 15.9788 20.4009H15.5788C15.5788 20.5126 15.623 20.6188 15.7008 20.6977L15.9856 20.4168ZM19.6251 13.1888C19.7294 13.1336 19.8456 13.1047 19.9634 13.1047V12.7047C19.7802 12.7047 19.5996 12.7497 19.4378 12.8354L19.6251 13.1888ZM19.9638 13.1047C20.2308 13.1041 20.4763 13.2512 20.6018 13.486L20.9546 13.2975C20.7594 12.9322 20.3778 12.7038 19.963 12.7047L19.9638 13.1047ZM20.6017 13.4859C20.6571 13.5897 20.686 13.7046 20.686 13.8223H21.086C21.086 13.6386 21.0407 13.459 20.9547 13.2976L20.6017 13.4859ZM20.686 13.8223C20.686 14.0872 20.5388 14.3321 20.3034 14.4574L20.4913 14.8105C20.8566 14.6161 21.086 14.2357 21.086 13.8223H20.686ZM20.3037 14.4572C20.1995 14.5124 20.0833 14.5414 19.9655 14.5414V14.9414C20.1487 14.9414 20.3293 14.8964 20.491 14.8106L20.3037 14.4572ZM19.9651 14.5414C19.6987 14.5419 19.4525 14.3948 19.3271 14.16L18.9743 14.3485C19.1695 14.7139 19.5519 14.9422 19.9659 14.9414L19.9651 14.5414ZM19.3272 14.1602C19.2719 14.0564 19.2429 13.9408 19.2429 13.8237H18.8429C18.8429 14.0067 18.8881 14.187 18.9742 14.3484L19.3272 14.1602ZM19.2429 13.8237C19.2429 13.5586 19.3903 13.3133 19.6251 13.1888L19.4379 12.8354C19.0721 13.0292 18.8429 13.4105 18.8429 13.8237H19.2429ZM19.9528 13.8051C19.9556 13.8036 19.9595 13.8025 19.9641 13.8025V13.4025C19.8973 13.4025 19.8298 13.4181 19.7682 13.4502L19.9528 13.8051ZM19.9658 13.8025C19.9724 13.8024 19.9796 13.8062 19.9834 13.8135L20.3368 13.626C20.2636 13.4881 20.1196 13.4012 19.9624 13.4025L19.9658 13.8025ZM19.9837 13.8141C19.9853 13.8171 19.986 13.8203 19.986 13.8223H20.386C20.386 13.7531 20.3684 13.6852 20.3364 13.6254L19.9837 13.8141ZM19.986 13.8223C19.986 13.8296 19.9816 13.8373 19.9744 13.8412L20.1624 14.1943C20.2994 14.1213 20.386 13.9783 20.386 13.8223H19.986ZM19.9731 13.8419C19.972 13.8424 19.9712 13.8428 19.9703 13.843C19.9693 13.8432 19.9676 13.8435 19.9648 13.8435V14.2435C20.0327 14.2435 20.1007 14.2277 20.1637 14.1936L19.9731 13.8419ZM19.9648 13.8435C19.9557 13.8435 19.9487 13.8387 19.9455 13.8326L19.5921 14.02C19.6659 14.1591 19.8101 14.2435 19.9648 14.2435V13.8435ZM19.9451 13.832C19.9436 13.829 19.9429 13.8257 19.9429 13.8237H19.5429C19.5429 13.8929 19.5604 13.9608 19.5924 14.0206L19.9451 13.832ZM19.9429 13.8237C19.9429 13.8154 19.9476 13.8078 19.9545 13.8042L19.7665 13.4511C19.6292 13.5242 19.5429 13.6674 19.5429 13.8237H19.9429ZM11.697 17.3916C11.8008 17.336 11.9168 17.3071 12.0345 17.3071V16.9071C11.8512 16.9071 11.6704 16.9521 11.5082 17.0389L11.697 17.3916ZM12.0345 17.3071C12.3012 17.3071 12.5476 17.4545 12.673 17.6886L13.0256 17.4998C12.8304 17.1351 12.4482 16.9071 12.0345 16.9071V17.3071ZM12.6728 17.6883C12.7281 17.792 12.7571 17.9077 12.7571 18.0247H13.1571C13.1571 17.8417 13.1119 17.6615 13.0258 17.5001L12.6728 17.6883ZM12.7571 18.0247C12.7571 18.2904 12.6098 18.5353 12.3745 18.6605L12.5625 19.0136C12.9278 18.8192 13.1571 18.4388 13.1571 18.0247H12.7571ZM12.3748 18.6603C12.2706 18.7155 12.1544 18.7445 12.0366 18.7445V19.1445C12.2198 19.1445 12.4004 19.0995 12.5621 19.0138L12.3748 18.6603ZM12.0366 18.7445C11.7692 18.7445 11.5235 18.5972 11.3981 18.363L11.0455 18.5518C11.2407 18.9164 11.6221 19.1445 12.0366 19.1445V18.7445ZM11.3983 18.3633C11.343 18.2596 11.314 18.1439 11.314 18.0268H10.914C10.914 18.2098 10.9592 18.3901 11.0453 18.5515L11.3983 18.3633ZM11.314 18.0268C11.314 17.7617 11.4614 17.5164 11.6962 17.392L11.509 17.0385C11.1432 17.2323 10.914 17.6137 10.914 18.0268H11.314ZM12.0239 18.0082C12.0293 18.0054 12.0328 18.0049 12.0352 18.0049V17.6049C11.9648 17.6049 11.8983 17.6226 11.8393 17.6533L12.0239 18.0082ZM12.0352 18.0049C12.0431 18.0049 12.0507 18.0095 12.0545 18.0166L12.4079 17.8291C12.3347 17.6911 12.1911 17.6049 12.0352 17.6049V18.0049ZM12.0548 18.0172C12.0564 18.0202 12.0571 18.0234 12.0571 18.0254H12.4571C12.4571 17.9563 12.4396 17.8883 12.4075 17.8285L12.0548 18.0172ZM12.0571 18.0254C12.0571 18.0327 12.0527 18.0404 12.0455 18.0443L12.2335 18.3974C12.3705 18.3245 12.4571 18.1814 12.4571 18.0254H12.0571ZM12.0472 18.0434C12.0421 18.046 12.0379 18.0467 12.0359 18.0467V18.4467C12.1052 18.4467 12.1725 18.4291 12.2318 18.3983L12.0472 18.0434ZM12.0359 18.0467C12.0277 18.0467 12.0199 18.0418 12.0162 18.035L11.6636 18.2239C11.7369 18.3608 11.8803 18.4467 12.0359 18.4467V18.0467ZM12.0162 18.0351C12.0148 18.0324 12.014 18.0292 12.014 18.0261H11.614C11.614 18.0957 11.6314 18.1636 11.6635 18.2238L12.0162 18.0351ZM12.014 18.0261C12.014 18.0188 12.0184 18.0111 12.0256 18.0073L11.8376 17.6542C11.7006 17.7271 11.614 17.8701 11.614 18.0261H12.014ZM12.6729 14.16C12.5475 14.3948 12.3013 14.5419 12.0349 14.5414L12.0341 14.9414C12.4481 14.9422 12.8305 14.7139 13.0257 14.3485L12.6729 14.16ZM12.0345 14.5414C11.9167 14.5414 11.8005 14.5124 11.6962 14.4572L11.5089 14.8106C11.6707 14.8964 11.8513 14.9414 12.0345 14.9414V14.5414ZM11.6966 14.4574C11.4612 14.3321 11.314 14.0872 11.314 13.8223H10.914C10.914 14.2357 11.1434 14.6161 11.5086 14.8105L11.6966 14.4574ZM11.314 13.8223C11.314 13.7046 11.3429 13.5897 11.3983 13.4859L11.0453 13.2976C10.9593 13.459 10.914 13.6386 10.914 13.8223H11.314ZM11.3982 13.486C11.5236 13.2512 11.7692 13.1041 12.0362 13.1047L12.037 12.7047C11.6222 12.7038 11.2406 12.9322 11.0454 13.2975L11.3982 13.486ZM12.0366 13.1047C12.1544 13.1047 12.2706 13.1336 12.3748 13.1888L12.5621 12.8354C12.4004 12.7497 12.2198 12.7047 12.0366 12.7047V13.1047ZM12.3749 13.1888C12.6097 13.3133 12.7571 13.5586 12.7571 13.8237H13.1571C13.1571 13.4105 12.9279 13.0292 12.5621 12.8354L12.3749 13.1888ZM12.7571 13.8237C12.7571 13.9408 12.7281 14.0564 12.6728 14.1602L13.0258 14.3484C13.1119 14.187 13.1571 14.0067 13.1571 13.8237H12.7571ZM12.0545 13.8326C12.0513 13.8387 12.0443 13.8435 12.0352 13.8435V14.2435C12.1899 14.2435 12.3341 14.1591 12.4079 14.02L12.0545 13.8326ZM12.0352 13.8435C12.0324 13.8435 12.0307 13.8432 12.0297 13.843C12.0288 13.8428 12.0279 13.8424 12.0269 13.8419L11.8363 14.1936C11.8993 14.2277 11.9673 14.2435 12.0352 14.2435V13.8435ZM12.0256 13.8412C12.0184 13.8373 12.014 13.8296 12.014 13.8223H11.614C11.614 13.9783 11.7006 14.1213 11.8376 14.1943L12.0256 13.8412ZM12.014 13.8223C12.014 13.8203 12.0147 13.8171 12.0162 13.8141L11.6635 13.6254C11.6315 13.6852 11.614 13.7531 11.614 13.8223H12.014ZM12.0166 13.8135C12.0204 13.8062 12.0276 13.8024 12.0342 13.8025L12.0376 13.4025C11.8804 13.4012 11.7364 13.4881 11.6632 13.626L12.0166 13.8135ZM12.0359 13.8025C12.0405 13.8025 12.0444 13.8036 12.0472 13.8051L12.2318 13.4502C12.1702 13.4181 12.1027 13.4025 12.0359 13.4025V13.8025ZM12.0455 13.8042C12.0524 13.8078 12.0571 13.8154 12.0571 13.8237H12.4571C12.4571 13.6674 12.3708 13.5242 12.2335 13.4511L12.0455 13.8042ZM12.0571 13.8237C12.0571 13.8257 12.0564 13.829 12.0548 13.832L12.4075 14.0206C12.4396 13.9608 12.4571 13.8929 12.4571 13.8237H12.0571ZM20.6019 18.363C20.4765 18.5972 20.2307 18.7445 19.9634 18.7445V19.1445C20.3778 19.1445 20.7593 18.9164 20.9545 18.5518L20.6019 18.363ZM19.9634 18.7445C19.8456 18.7445 19.7294 18.7155 19.6251 18.6603L19.4378 19.0138C19.5996 19.0995 19.7802 19.1445 19.9634 19.1445V18.7445ZM19.6254 18.6605C19.3902 18.5353 19.2429 18.2904 19.2429 18.0247H18.8429C18.8429 18.4388 19.0722 18.8192 19.4375 19.0136L19.6254 18.6605ZM19.2429 18.0247C19.2429 17.9077 19.2719 17.792 19.3272 17.6883L18.9742 17.5001C18.8881 17.6615 18.8429 17.8417 18.8429 18.0247H19.2429ZM19.327 17.6886C19.4524 17.4545 19.6988 17.3071 19.9655 17.3071V16.9071C19.5518 16.9071 19.1696 17.1351 18.9744 17.4998L19.327 17.6886ZM19.9655 17.3071C20.0832 17.3071 20.1992 17.336 20.303 17.3916L20.4918 17.0389C20.3296 16.9521 20.1488 16.9071 19.9655 16.9071V17.3071ZM20.3038 17.392C20.5386 17.5164 20.686 17.7617 20.686 18.0268H21.086C21.086 17.6137 20.8568 17.2323 20.491 17.0385L20.3038 17.392ZM20.686 18.0268C20.686 18.1439 20.657 18.2596 20.6017 18.3633L20.9547 18.5515C21.0408 18.3901 21.086 18.2098 21.086 18.0268H20.686ZM19.9838 18.035C19.9801 18.0418 19.9723 18.0467 19.9641 18.0467V18.4467C20.1197 18.4467 20.2631 18.3608 20.3364 18.2239L19.9838 18.035ZM19.9641 18.0467C19.962 18.0467 19.9579 18.046 19.9528 18.0434L19.7682 18.3983C19.8275 18.4291 19.8947 18.4467 19.9641 18.4467V18.0467ZM19.9545 18.0443C19.9473 18.0404 19.9429 18.0327 19.9429 18.0254H19.5429C19.5429 18.1814 19.6295 18.3245 19.7665 18.3974L19.9545 18.0443ZM19.9429 18.0254C19.9429 18.0234 19.9436 18.0202 19.9451 18.0172L19.5924 17.8285C19.5604 17.8883 19.5429 17.9563 19.5429 18.0254H19.9429ZM19.9455 18.0166C19.9493 18.0095 19.9569 18.0049 19.9648 18.0049V17.6049C19.8089 17.6049 19.6653 17.6911 19.5921 17.8291L19.9455 18.0166ZM19.9648 18.0049C19.9672 18.0049 19.9707 18.0054 19.9761 18.0082L20.1607 17.6533C20.1017 17.6226 20.0352 17.6049 19.9648 17.6049V18.0049ZM19.9744 18.0073C19.9816 18.0111 19.986 18.0188 19.986 18.0261H20.386C20.386 17.8701 20.2993 17.7271 20.1624 17.6542L19.9744 18.0073ZM19.986 18.0261C19.986 18.0292 19.9852 18.0324 19.9837 18.0351L20.3364 18.2238C20.3686 18.1636 20.386 18.0957 20.386 18.0261H19.986Z" fill="white" mask="url(#path-1-outside-1)"/>
</svg>
