<svg width="32" height="32" viewBox="0 0 32 32" fill="none" xmlns="http://www.w3.org/2000/svg">
<mask id="path-1-outside-1" maskUnits="userSpaceOnUse" x="1" y="1" width="30" height="30" fill="black">
<rect fill="white" x="1" y="1" width="30" height="30"/>
<path fill-rule="evenodd" clip-rule="evenodd" d="M29.0457 3.74496C29.2643 3.52637 29.6176 3.52637 29.8362 3.74496C30.0548 3.96355 30.0548 4.31744 29.8362 4.53547L28.6499 5.72179L29.0451 6.11704C29.2637 6.33563 29.2637 6.68896 29.0451 6.90755L6.90755 29.0451C6.79853 29.1541 6.65542 29.2089 6.5123 29.2089C6.36918 29.2089 6.22606 29.1541 6.11704 29.0451L5.72179 28.6499L4.53547 29.8362C4.42645 29.9452 4.28333 30 4.14021 30C3.9971 30 3.85398 29.9452 3.74496 29.8362C3.52637 29.6176 3.52637 29.2643 3.74496 29.0457L4.93128 27.8594L4.14021 27.0689L2.95445 28.2546C2.84544 28.3636 2.70232 28.4184 2.5592 28.4184C2.41608 28.4184 2.27296 28.3636 2.16394 28.2546C1.94535 28.036 1.94535 27.6827 2.16394 27.4641L3.34971 26.2783L2.95445 25.8831C2.84935 25.7786 2.79065 25.6366 2.79065 25.4878C2.79065 25.3391 2.84935 25.1977 2.95445 25.0926L25.0926 2.95445C25.1971 2.84935 25.3391 2.79065 25.4878 2.79065C25.6366 2.79065 25.778 2.84935 25.8831 2.95445L26.2784 3.34971L27.4641 2.16394C27.6827 1.94535 28.036 1.94535 28.2546 2.16394C28.4732 2.38254 28.4732 2.73586 28.2546 2.95445L27.0689 4.14021L27.8594 4.93128L29.0457 3.74496ZM5.72123 23.9068L8.09331 26.2783L26.2778 8.09387L23.9063 5.72179L5.72123 23.9068ZM6.11704 27.4641L6.5123 27.8594L7.30336 27.0689L4.93128 24.6973L4.14021 25.4878L6.11704 27.4641ZM24.6973 4.93072L27.0689 7.3028L27.8594 6.51174L27.4641 6.11648L25.4878 4.13965L24.6973 4.93072ZM11.2565 11.8155C11.1133 11.8155 10.9702 11.7607 10.8612 11.6517L9.28019 10.0707C9.0616 9.85211 9.0616 9.49879 9.28019 9.28019C9.49879 9.0616 9.85211 9.0616 10.0707 9.28019L11.6517 10.8612C11.8703 11.0798 11.8703 11.4331 11.6517 11.6517C11.5427 11.7607 11.3996 11.8155 11.2565 11.8155ZM15.4695 8.27056C15.5478 8.5048 15.7658 8.65295 16.0001 8.65295C16.0582 8.65295 16.118 8.64345 16.1767 8.62388C16.4697 8.52605 16.6279 8.20962 16.53 7.91667L15.7395 5.54515C15.6423 5.25276 15.3269 5.09343 15.0323 5.19182C14.7394 5.28966 14.5812 5.60609 14.679 5.89903L15.4695 8.27056ZM7.91665 16.5307L5.54512 15.7402C5.25218 15.6424 5.09397 15.3254 5.1918 15.0324C5.28908 14.74 5.60494 14.5801 5.89901 14.6791L8.27053 15.4696C8.56348 15.5674 8.72169 15.8839 8.62386 16.1768C8.54559 16.4111 8.32756 16.5592 8.09331 16.5592C8.03517 16.5592 7.97535 16.5503 7.91665 16.5307Z"/>
</mask>
<path fill-rule="evenodd" clip-rule="evenodd" d="M29.0457 3.74496C29.2643 3.52637 29.6176 3.52637 29.8362 3.74496C30.0548 3.96355 30.0548 4.31744 29.8362 4.53547L28.6499 5.72179L29.0451 6.11704C29.2637 6.33563 29.2637 6.68896 29.0451 6.90755L6.90755 29.0451C6.79853 29.1541 6.65542 29.2089 6.5123 29.2089C6.36918 29.2089 6.22606 29.1541 6.11704 29.0451L5.72179 28.6499L4.53547 29.8362C4.42645 29.9452 4.28333 30 4.14021 30C3.9971 30 3.85398 29.9452 3.74496 29.8362C3.52637 29.6176 3.52637 29.2643 3.74496 29.0457L4.93128 27.8594L4.14021 27.0689L2.95445 28.2546C2.84544 28.3636 2.70232 28.4184 2.5592 28.4184C2.41608 28.4184 2.27296 28.3636 2.16394 28.2546C1.94535 28.036 1.94535 27.6827 2.16394 27.4641L3.34971 26.2783L2.95445 25.8831C2.84935 25.7786 2.79065 25.6366 2.79065 25.4878C2.79065 25.3391 2.84935 25.1977 2.95445 25.0926L25.0926 2.95445C25.1971 2.84935 25.3391 2.79065 25.4878 2.79065C25.6366 2.79065 25.778 2.84935 25.8831 2.95445L26.2784 3.34971L27.4641 2.16394C27.6827 1.94535 28.036 1.94535 28.2546 2.16394C28.4732 2.38254 28.4732 2.73586 28.2546 2.95445L27.0689 4.14021L27.8594 4.93128L29.0457 3.74496ZM5.72123 23.9068L8.09331 26.2783L26.2778 8.09387L23.9063 5.72179L5.72123 23.9068ZM6.11704 27.4641L6.5123 27.8594L7.30336 27.0689L4.93128 24.6973L4.14021 25.4878L6.11704 27.4641ZM24.6973 4.93072L27.0689 7.3028L27.8594 6.51174L27.4641 6.11648L25.4878 4.13965L24.6973 4.93072ZM11.2565 11.8155C11.1133 11.8155 10.9702 11.7607 10.8612 11.6517L9.28019 10.0707C9.0616 9.85211 9.0616 9.49879 9.28019 9.28019C9.49879 9.0616 9.85211 9.0616 10.0707 9.28019L11.6517 10.8612C11.8703 11.0798 11.8703 11.4331 11.6517 11.6517C11.5427 11.7607 11.3996 11.8155 11.2565 11.8155ZM15.4695 8.27056C15.5478 8.5048 15.7658 8.65295 16.0001 8.65295C16.0582 8.65295 16.118 8.64345 16.1767 8.62388C16.4697 8.52605 16.6279 8.20962 16.53 7.91667L15.7395 5.54515C15.6423 5.25276 15.3269 5.09343 15.0323 5.19182C14.7394 5.28966 14.5812 5.60609 14.679 5.89903L15.4695 8.27056ZM7.91665 16.5307L5.54512 15.7402C5.25218 15.6424 5.09397 15.3254 5.1918 15.0324C5.28908 14.74 5.60494 14.5801 5.89901 14.6791L8.27053 15.4696C8.56348 15.5674 8.72169 15.8839 8.62386 16.1768C8.54559 16.4111 8.32756 16.5592 8.09331 16.5592C8.03517 16.5592 7.97535 16.5503 7.91665 16.5307Z" fill="white"/>
<path d="M29.8362 3.74496L29.9776 3.60354L29.9776 3.60354L29.8362 3.74496ZM29.0457 3.74496L28.9043 3.60354L28.9043 3.60354L29.0457 3.74496ZM29.8362 4.53547L29.695 4.39387L29.6948 4.39405L29.8362 4.53547ZM28.6499 5.72179L28.5085 5.58037L28.367 5.72179L28.5085 5.86321L28.6499 5.72179ZM29.0451 6.11704L29.1866 5.97562L29.1866 5.97562L29.0451 6.11704ZM29.0451 6.90755L29.1866 7.04897L29.1866 7.04897L29.0451 6.90755ZM6.90755 29.0451L6.76613 28.9037L6.76613 28.9037L6.90755 29.0451ZM6.11704 29.0451L6.25846 28.9037L6.25846 28.9037L6.11704 29.0451ZM5.72179 28.6499L5.86321 28.5085L5.72179 28.367L5.58037 28.5085L5.72179 28.6499ZM4.53547 29.8362L4.39405 29.6948L4.39405 29.6948L4.53547 29.8362ZM3.74496 29.8362L3.88638 29.6948L3.88638 29.6948L3.74496 29.8362ZM3.74496 29.0457L3.60354 28.9043L3.60354 28.9043L3.74496 29.0457ZM4.93128 27.8594L5.0727 28.0008L5.21417 27.8593L5.07265 27.7179L4.93128 27.8594ZM4.14021 27.0689L4.28159 26.9274L4.14016 26.7861L3.99879 26.9274L4.14021 27.0689ZM2.95445 28.2546L2.81303 28.1132L2.81303 28.1132L2.95445 28.2546ZM2.16394 28.2546L2.30537 28.1132L2.30537 28.1132L2.16394 28.2546ZM2.16394 27.4641L2.30537 27.6055L2.30537 27.6055L2.16394 27.4641ZM3.34971 26.2783L3.49113 26.4198L3.63255 26.2783L3.49113 26.1369L3.34971 26.2783ZM2.95445 25.8831L3.09587 25.7417L3.0955 25.7413L2.95445 25.8831ZM2.95445 25.0926L3.09587 25.234L3.09587 25.234L2.95445 25.0926ZM25.0926 2.95445L25.234 3.09587L25.2344 3.0955L25.0926 2.95445ZM25.8831 2.95445L26.0245 2.81303L26.0245 2.81303L25.8831 2.95445ZM26.2784 3.34971L26.1369 3.49113L26.2784 3.63255L26.4198 3.49113L26.2784 3.34971ZM27.4641 2.16394L27.6055 2.30537L27.6055 2.30537L27.4641 2.16394ZM28.2546 2.16394L28.396 2.02252L28.2546 2.16394ZM28.2546 2.95445L28.1132 2.81303L28.1132 2.81303L28.2546 2.95445ZM27.0689 4.14021L26.9274 3.99879L26.7861 4.14016L26.9274 4.28159L27.0689 4.14021ZM27.8594 4.93128L27.7179 5.07265L27.8593 5.21417L28.0008 5.0727L27.8594 4.93128ZM8.09331 26.2783L7.95191 26.4198L8.09333 26.5612L8.23473 26.4198L8.09331 26.2783ZM5.72123 23.9068L5.57981 23.7654L5.43837 23.9068L5.57983 24.0483L5.72123 23.9068ZM26.2778 8.09387L26.4192 8.23529L26.5606 8.09389L26.4192 7.95247L26.2778 8.09387ZM23.9063 5.72179L24.0477 5.58038L23.9063 5.43893L23.7648 5.58037L23.9063 5.72179ZM6.5123 27.8594L6.37088 28.0008L6.51225 28.1422L6.65367 28.0008L6.5123 27.8594ZM6.11704 27.4641L6.25846 27.3227L6.25844 27.3227L6.11704 27.4641ZM7.30336 27.0689L7.44474 27.2103L7.58627 27.0689L7.44477 26.9274L7.30336 27.0689ZM4.93128 24.6973L5.07269 24.5559L4.93131 24.4146L4.78991 24.5559L4.93128 24.6973ZM4.14021 25.4878L3.99884 25.3464L3.8573 25.4878L3.99881 25.6293L4.14021 25.4878ZM27.0689 7.3028L26.9274 7.44421L27.0689 7.58571L27.2103 7.44418L27.0689 7.3028ZM24.6973 4.93072L24.5559 4.78935L24.4146 4.93075L24.5559 5.07213L24.6973 4.93072ZM27.8594 6.51174L28.0008 6.65311L28.1422 6.51169L28.0008 6.37032L27.8594 6.51174ZM27.4641 6.11648L27.3227 6.25789L27.3227 6.25791L27.4641 6.11648ZM25.4878 4.13965L25.6293 3.99825L25.4878 3.85674L25.3464 3.99828L25.4878 4.13965ZM10.8612 11.6517L10.7198 11.7931L10.7198 11.7931L10.8612 11.6517ZM9.28019 10.0707L9.42162 9.92928L9.42162 9.92928L9.28019 10.0707ZM10.0707 9.28019L10.2121 9.13877L10.2121 9.13877L10.0707 9.28019ZM11.6517 10.8612L11.5103 11.0026L11.5103 11.0026L11.6517 10.8612ZM15.4695 8.27056L15.2798 8.3338L15.2798 8.33394L15.4695 8.27056ZM16.1767 8.62388L16.24 8.81362L16.2401 8.81358L16.1767 8.62388ZM16.53 7.91667L16.3403 7.97992L16.3403 7.98003L16.53 7.91667ZM15.7395 5.54515L15.5498 5.60829L15.5498 5.60839L15.7395 5.54515ZM15.0323 5.19182L14.969 5.00212L14.969 5.00212L15.0323 5.19182ZM14.679 5.89903L14.8687 5.83579L14.8687 5.83568L14.679 5.89903ZM5.54512 15.7402L5.48177 15.9299L5.48188 15.9299L5.54512 15.7402ZM7.91665 16.5307L7.9799 16.341L7.97989 16.341L7.91665 16.5307ZM5.1918 15.0324L5.3815 15.0958L5.38157 15.0956L5.1918 15.0324ZM5.89901 14.6791L5.83522 14.8687L5.83576 14.8688L5.89901 14.6791ZM8.27053 15.4696L8.33389 15.2799L8.33378 15.2799L8.27053 15.4696ZM8.62386 16.1768L8.81355 16.2402L8.81356 16.2402L8.62386 16.1768ZM29.9776 3.60354C29.6809 3.30684 29.201 3.30684 28.9043 3.60354L29.1871 3.88638C29.3276 3.74589 29.5543 3.74589 29.6948 3.88638L29.9776 3.60354ZM29.9774 4.67707C30.2745 4.38079 30.2742 3.90013 29.9776 3.60354L29.6948 3.88638C29.8354 4.02697 29.8351 4.25408 29.695 4.39387L29.9774 4.67707ZM28.7913 5.86321L29.9776 4.67689L29.6948 4.39405L28.5085 5.58037L28.7913 5.86321ZM29.1866 5.97562L28.7913 5.58037L28.5085 5.86321L28.9037 6.25846L29.1866 5.97562ZM29.1866 7.04897C29.4832 6.75228 29.4832 6.27232 29.1866 5.97562L28.9037 6.25846C29.0442 6.39895 29.0442 6.62564 28.9037 6.76613L29.1866 7.04897ZM7.04897 29.1865L29.1866 7.04897L28.9037 6.76613L6.76613 28.9037L7.04897 29.1865ZM6.5123 29.4089C6.70642 29.4089 6.90103 29.3345 7.04897 29.1865L6.76613 28.9037C6.69604 28.9738 6.60441 29.0089 6.5123 29.0089V29.4089ZM5.97562 29.1865C6.12356 29.3345 6.31818 29.4089 6.5123 29.4089V29.0089C6.42018 29.0089 6.32855 28.9738 6.25846 28.9037L5.97562 29.1865ZM5.58037 28.7913L5.97562 29.1865L6.25846 28.9037L5.86321 28.5085L5.58037 28.7913ZM4.67689 29.9776L5.86321 28.7913L5.58037 28.5085L4.39405 29.6948L4.67689 29.9776ZM4.14021 30.2C4.33433 30.2 4.52895 30.1256 4.67689 29.9776L4.39405 29.6948C4.32396 29.7649 4.23233 29.8 4.14021 29.8V30.2ZM3.60354 29.9776C3.75148 30.1256 3.94609 30.2 4.14021 30.2V29.8C4.0481 29.8 3.95647 29.7649 3.88638 29.6948L3.60354 29.9776ZM3.60354 28.9043C3.30684 29.201 3.30684 29.6809 3.60354 29.9776L3.88638 29.6948C3.74589 29.5543 3.74589 29.3276 3.88638 29.1871L3.60354 28.9043ZM4.78986 27.7179L3.60354 28.9043L3.88638 29.1871L5.0727 28.0008L4.78986 27.7179ZM3.99884 27.2103L4.78991 28.0008L5.07265 27.7179L4.28159 26.9274L3.99884 27.2103ZM3.09587 28.396L4.28164 27.2103L3.99879 26.9274L2.81303 28.1132L3.09587 28.396ZM2.5592 28.6184C2.75332 28.6184 2.94793 28.544 3.09587 28.396L2.81303 28.1132C2.74294 28.1833 2.65131 28.2184 2.5592 28.2184V28.6184ZM2.02252 28.396C2.17046 28.544 2.36508 28.6184 2.5592 28.6184V28.2184C2.46708 28.2184 2.37546 28.1833 2.30537 28.1132L2.02252 28.396ZM2.02252 27.3227C1.72583 27.6194 1.72583 28.0993 2.02252 28.396L2.30537 28.1132C2.16488 27.9727 2.16488 27.746 2.30537 27.6055L2.02252 27.3227ZM3.20828 26.1369L2.02252 27.3227L2.30537 27.6055L3.49113 26.4198L3.20828 26.1369ZM2.81303 26.0245L3.20828 26.4198L3.49113 26.1369L3.09587 25.7417L2.81303 26.0245ZM2.59065 25.4878C2.59065 25.6894 2.67028 25.8825 2.81341 26.0249L3.0955 25.7413C3.02841 25.6746 2.99065 25.5837 2.99065 25.4878H2.59065ZM2.81303 24.9512C2.67048 25.0937 2.59065 25.286 2.59065 25.4878H2.99065C2.99065 25.3923 3.02821 25.3017 3.09587 25.234L2.81303 24.9512ZM24.9512 2.81303L2.81303 24.9512L3.09587 25.234L25.234 3.09587L24.9512 2.81303ZM25.4878 2.59065C25.2863 2.59065 25.0932 2.67028 24.9508 2.81341L25.2344 3.0955C25.3011 3.02841 25.392 2.99065 25.4878 2.99065V2.59065ZM26.0245 2.81303C25.882 2.67048 25.6897 2.59065 25.4878 2.59065V2.99065C25.5834 2.99065 25.674 3.02821 25.7417 3.09587L26.0245 2.81303ZM26.4198 3.20828L26.0245 2.81303L25.7417 3.09587L26.1369 3.49113L26.4198 3.20828ZM27.3227 2.02252L26.1369 3.20828L26.4198 3.49113L27.6055 2.30537L27.3227 2.02252ZM28.396 2.02252C28.0993 1.72583 27.6194 1.72583 27.3227 2.02252L27.6055 2.30537C27.746 2.16488 27.9727 2.16488 28.1132 2.30537L28.396 2.02252ZM28.396 3.09587C28.6927 2.79918 28.6927 2.31922 28.396 2.02252L28.1132 2.30537C28.2537 2.44585 28.2537 2.67254 28.1132 2.81303L28.396 3.09587ZM27.2103 4.28163L28.396 3.09587L28.1132 2.81303L26.9274 3.99879L27.2103 4.28163ZM28.0008 4.78991L27.2103 3.99884L26.9274 4.28159L27.7179 5.07265L28.0008 4.78991ZM28.9043 3.60354L27.7179 4.78986L28.0008 5.0727L29.1871 3.88638L28.9043 3.60354ZM8.23472 26.1369L5.86263 23.7654L5.57983 24.0483L7.95191 26.4198L8.23472 26.1369ZM26.1364 7.95245L7.95189 26.1369L8.23473 26.4198L26.4192 8.23529L26.1364 7.95245ZM23.7648 5.86319L26.1364 8.23528L26.4192 7.95247L24.0477 5.58038L23.7648 5.86319ZM5.86265 24.0482L24.0477 5.86321L23.7648 5.58037L5.57981 23.7654L5.86265 24.0482ZM6.65372 27.7179L6.25846 27.3227L5.97562 27.6055L6.37088 28.0008L6.65372 27.7179ZM7.16199 26.9274L6.37093 27.7179L6.65367 28.0008L7.44474 27.2103L7.16199 26.9274ZM4.78988 24.8388L7.16196 27.2103L7.44477 26.9274L5.07269 24.5559L4.78988 24.8388ZM4.28159 25.6293L5.07265 24.8388L4.78991 24.5559L3.99884 25.3464L4.28159 25.6293ZM6.25844 27.3227L4.28162 25.3464L3.99881 25.6293L5.97564 27.6056L6.25844 27.3227ZM27.2103 7.1614L24.8388 4.78932L24.5559 5.07213L26.9274 7.44421L27.2103 7.1614ZM27.7179 6.37037L26.9274 7.16143L27.2103 7.44418L28.0008 6.65311L27.7179 6.37037ZM27.3227 6.25791L27.7179 6.65316L28.0008 6.37032L27.6055 5.97506L27.3227 6.25791ZM25.3464 4.28106L27.3227 6.25789L27.6056 5.97508L25.6293 3.99825L25.3464 4.28106ZM24.8388 5.07209L25.6293 4.28103L25.3464 3.99828L24.5559 4.78935L24.8388 5.07209ZM10.7198 11.7931C10.8677 11.9411 11.0623 12.0155 11.2565 12.0155V11.6155C11.1643 11.6155 11.0727 11.5804 11.0026 11.5103L10.7198 11.7931ZM9.13877 10.2121L10.7198 11.7931L11.0026 11.5103L9.42162 9.92928L9.13877 10.2121ZM9.13877 9.13877C8.84208 9.43547 8.84208 9.91543 9.13877 10.2121L9.42162 9.92928C9.28113 9.78879 9.28113 9.5621 9.42162 9.42162L9.13877 9.13877ZM10.2121 9.13877C9.91543 8.84208 9.43547 8.84208 9.13877 9.13877L9.42162 9.42162C9.5621 9.28113 9.78879 9.28113 9.92928 9.42162L10.2121 9.13877ZM11.7931 10.7198L10.2121 9.13877L9.92928 9.42162L11.5103 11.0026L11.7931 10.7198ZM11.7931 11.7931C12.0898 11.4964 12.0898 11.0165 11.7931 10.7198L11.5103 11.0026C11.6508 11.1431 11.6508 11.3698 11.5103 11.5103L11.7931 11.7931ZM11.2565 12.0155C11.4506 12.0155 11.6452 11.9411 11.7931 11.7931L11.5103 11.5103C11.4402 11.5804 11.3486 11.6155 11.2565 11.6155V12.0155ZM16.0001 8.45295C15.8493 8.45295 15.7094 8.35747 15.6592 8.20718L15.2798 8.33394C15.3861 8.65214 15.6823 8.85295 16.0001 8.85295V8.45295ZM16.1135 8.43414C16.075 8.44698 16.0365 8.45295 16.0001 8.45295V8.85295C16.0799 8.85295 16.1611 8.83991 16.24 8.81362L16.1135 8.43414ZM16.3403 7.98003C16.4031 8.16808 16.3017 8.37129 16.1134 8.43418L16.2401 8.81358C16.6377 8.6808 16.8526 8.25116 16.7197 7.85332L16.3403 7.98003ZM15.5498 5.60839L16.3403 7.97992L16.7198 7.85343L15.9293 5.4819L15.5498 5.60839ZM15.0957 5.38153C15.2851 5.31828 15.4872 5.4204 15.5498 5.60829L15.9293 5.48201C15.7973 5.08512 15.3688 4.86858 14.969 5.00212L15.0957 5.38153ZM14.8687 5.83568C14.8059 5.64763 14.9074 5.44441 15.0957 5.38153L14.969 5.00212C14.5714 5.13491 14.3564 5.56455 14.4893 5.96239L14.8687 5.83568ZM15.6592 8.20731L14.8687 5.83579L14.4893 5.96228L15.2798 8.3338L15.6592 8.20731ZM5.48188 15.9299L7.8534 16.7204L7.97989 16.341L5.60837 15.5505L5.48188 15.9299ZM5.0021 14.9691C4.86929 15.3668 5.08403 15.7971 5.48177 15.9299L5.60848 15.5505C5.42033 15.4877 5.31865 15.284 5.3815 15.0958L5.0021 14.9691ZM5.96279 14.4895C5.56291 14.355 5.13397 14.5727 5.00203 14.9693L5.38157 15.0956C5.44419 14.9074 5.64698 14.8053 5.83522 14.8687L5.96279 14.4895ZM8.33378 15.2799L5.96225 14.4894L5.83576 14.8688L8.20729 15.6593L8.33378 15.2799ZM8.81356 16.2402C8.94642 15.8423 8.73147 15.4127 8.33389 15.2799L8.20718 15.6593C8.39548 15.7222 8.49696 15.9254 8.43416 16.1135L8.81356 16.2402ZM8.09331 16.7592C8.41108 16.7592 8.70723 16.5584 8.81355 16.2402L8.43417 16.1134C8.38395 16.2637 8.24403 16.3592 8.09331 16.3592V16.7592ZM7.8534 16.7204C7.93346 16.7471 8.01471 16.7592 8.09331 16.7592V16.3592C8.05563 16.3592 8.01724 16.3534 7.9799 16.341L7.8534 16.7204Z" fill="white" mask="url(#path-1-outside-1)"/>
</svg>
