<svg width="33" height="33" viewBox="0 0 33 33" fill="none" xmlns="http://www.w3.org/2000/svg">
<path fill-rule="evenodd" clip-rule="evenodd" d="M16.5 31.625C8.14669 31.625 1.375 24.8533 1.375 16.5C1.375 8.14669 8.14669 1.375 16.5 1.375C24.8533 1.375 31.625 8.14669 31.625 16.5C31.625 24.8533 24.8533 31.625 16.5 31.625ZM26.6743 23.5464C28.0618 21.5467 28.875 19.1183 28.875 16.5C28.875 9.66548 23.3345 4.125 16.5 4.125C9.66548 4.125 4.125 9.66548 4.125 16.5C4.125 19.1183 4.93815 21.5467 6.32569 23.5464C7.87318 21.5023 11.5096 20.625 16.5 20.625C21.4904 20.625 25.1268 21.5023 26.6743 23.5464ZM24.7014 25.7672C24.299 24.3201 21.4079 23.375 16.5 23.375C11.5921 23.375 8.70101 24.3201 8.29856 25.7672C10.482 27.701 13.3539 28.875 16.5 28.875C19.6461 28.875 22.518 27.701 24.7014 25.7672ZM16.5 8.25C13.1713 8.25 11 10.6642 11 13.75C11 18.4626 13.4212 20.625 16.5 20.625C19.5499 20.625 22 18.5345 22 14.025C22 10.8922 19.8195 8.25 16.5 8.25ZM13.75 13.75C13.75 16.8702 14.875 17.875 16.5 17.875C18.1193 17.875 19.25 16.9103 19.25 14.025C19.25 12.3068 18.1715 11 16.5 11C14.7589 11 13.75 12.1218 13.75 13.75Z" fill="white"/>
</svg>
