<svg width="105" height="26" viewBox="0 0 105 26" fill="none" xmlns="http://www.w3.org/2000/svg">
<rect width="26" height="26" rx="2" fill="url(#paint0_radial_60_60005)"/>
<path d="M12.0489 5.92705C12.3483 5.00574 13.6517 5.00574 13.9511 5.92705L15.0206 9.21885C15.1545 9.63087 15.5385 9.90983 15.9717 9.90983H19.4329C20.4016 9.90983 20.8044 11.1494 20.0207 11.7188L17.2205 13.7533C16.87 14.0079 16.7234 14.4593 16.8572 14.8713L17.9268 18.1631C18.2261 19.0844 17.1717 19.8506 16.388 19.2812L13.5878 17.2467C13.2373 16.9921 12.7627 16.9921 12.4122 17.2467L9.61204 19.2812C8.82833 19.8506 7.77385 19.0844 8.0732 18.1631L9.14277 14.8713C9.27665 14.4593 9.12999 14.0079 8.7795 13.7533L5.97933 11.7188C5.19562 11.1494 5.59839 9.90983 6.56712 9.90983H10.0283C10.4615 9.90983 10.8455 9.63087 10.9794 9.21885L12.0489 5.92705Z" fill="white"/>
<rect x="31" width="74" height="26" rx="1" fill="url(#paint1_radial_60_60005)" fill-opacity="0.25"/>
<path d="M43.752 18L40.14 8.2H41.204L44.256 16.698L47.308 8.2H48.372L44.76 18H43.752ZM49.6376 8.2H50.6176V18H49.6376V8.2ZM56.3641 8.2C57.2415 8.2 57.9741 8.494 58.5621 9.082C59.1501 9.67 59.4441 10.4027 59.4441 11.28C59.4441 12.1573 59.1501 12.89 58.5621 13.478C57.9741 14.066 57.2415 14.36 56.3641 14.36H53.8441V18H52.8641V8.2H56.3641ZM56.3641 13.436C56.9708 13.436 57.4701 13.2353 57.8621 12.834C58.2635 12.4233 58.4641 11.9053 58.4641 11.28C58.4641 10.6547 58.2635 10.1413 57.8621 9.74C57.4701 9.32933 56.9708 9.124 56.3641 9.124H53.8441V13.436H56.3641ZM69.2 18.168C67.716 18.168 66.4886 17.678 65.518 16.698C64.5473 15.718 64.062 14.5187 64.062 13.1C64.062 11.6813 64.5473 10.482 65.518 9.502C66.4886 8.522 67.716 8.032 69.2 8.032C70.1053 8.032 70.936 8.25133 71.692 8.69C72.448 9.11933 73.0313 9.70267 73.442 10.44L72.574 10.944C72.266 10.3467 71.8086 9.87067 71.202 9.516C70.5953 9.16133 69.928 8.984 69.2 8.984C67.9773 8.984 66.9786 9.38067 66.204 10.174C65.4293 10.9673 65.042 11.9427 65.042 13.1C65.042 14.2573 65.4293 15.2327 66.204 16.026C66.9786 16.8193 67.9773 17.216 69.2 17.216C69.928 17.216 70.5953 17.0387 71.202 16.684C71.8086 16.3293 72.266 15.8533 72.574 15.256L73.442 15.746C73.0406 16.4833 72.4573 17.0713 71.692 17.51C70.936 17.9487 70.1053 18.168 69.2 18.168ZM78.1896 10.832C79.0389 10.832 79.7063 11.0933 80.1916 11.616C80.6863 12.1293 80.9336 12.8247 80.9336 13.702V18H80.0096V13.702C80.0096 13.0767 79.8416 12.5913 79.5056 12.246C79.1789 11.9007 78.7123 11.728 78.1056 11.728C77.4336 11.728 76.8876 11.9427 76.4676 12.372C76.0476 12.792 75.8376 13.4453 75.8376 14.332V18H74.9136V8.2H75.8376V12.092C76.3603 11.252 77.1443 10.832 78.1896 10.832ZM88.7402 11H89.6642V18H88.7402V16.628C88.0962 17.6547 87.1536 18.168 85.9122 18.168C84.9136 18.168 84.0596 17.8133 83.3502 17.104C82.6502 16.3947 82.3002 15.5267 82.3002 14.5C82.3002 13.4733 82.6502 12.6053 83.3502 11.896C84.0596 11.1867 84.9136 10.832 85.9122 10.832C87.1536 10.832 88.0962 11.3453 88.7402 12.372V11ZM84.0222 16.474C84.5542 17.006 85.2076 17.272 85.9822 17.272C86.7569 17.272 87.4102 17.006 87.9422 16.474C88.4742 15.9327 88.7402 15.2747 88.7402 14.5C88.7402 13.7253 88.4742 13.072 87.9422 12.54C87.4102 11.9987 86.7569 11.728 85.9822 11.728C85.2076 11.728 84.5542 11.9987 84.0222 12.54C83.4902 13.072 83.2242 13.7253 83.2242 14.5C83.2242 15.2747 83.4902 15.9327 84.0222 16.474ZM95.3306 11.896H93.3146V16.138C93.3146 16.5207 93.3893 16.796 93.5386 16.964C93.688 17.1227 93.912 17.2067 94.2106 17.216C94.5093 17.216 94.8826 17.2067 95.3306 17.188V18C94.3506 18.1493 93.6133 18.0793 93.1186 17.79C92.6333 17.5007 92.3906 16.95 92.3906 16.138V11.896H90.9206V11H92.3906V9.32L93.3146 9.04V11H95.3306V11.896Z" fill="white"/>
<defs>
<radialGradient id="paint0_radial_60_60005" cx="0" cy="0" r="1" gradientUnits="userSpaceOnUse" gradientTransform="translate(13 13) rotate(90) scale(25)">
<stop stop-color="#DF9B5F"/>
<stop offset="1" stop-color="#DF9B5F" stop-opacity="0"/>
</radialGradient>
<radialGradient id="paint1_radial_60_60005" cx="0" cy="0" r="1" gradientUnits="userSpaceOnUse" gradientTransform="translate(68 13) rotate(90) scale(25 71.1538)">
<stop stop-color="white"/>
<stop offset="1" stop-color="white" stop-opacity="0"/>
</radialGradient>
</defs>
</svg>
