<svg width="20" height="20" viewBox="0 0 20 20" fill="none" xmlns="http://www.w3.org/2000/svg">
<path d="M10 3C9.14252 3 8.43478 3.70334 8.43478 4.55556C8.43478 4.92531 8.56851 5.26544 8.7894 5.53385L6.44769 9.25868L3.7269 8.0434C3.73492 7.98415 3.73913 7.92237 3.73913 7.86111C3.73913 7.11629 3.11901 6.5 2.36957 6.5C1.62012 6.5 1 7.11629 1 7.86111C1 8.37317 1.29475 8.82609 1.72147 9.05816L3.93478 14.1927V16.4167C3.93482 16.7221 4.21441 17 4.52174 17H15.4783C15.7856 17 16.0652 16.7221 16.0652 16.4167V14.1927L18.2785 9.05816C18.7052 8.82609 19 8.37317 19 7.86111C19 7.11629 18.3799 6.5 17.6304 6.5C16.881 6.5 16.2609 7.11629 16.2609 7.86111C16.2609 7.92237 16.2651 7.98415 16.2731 8.0434L13.5523 9.25868L11.2106 5.53385C11.4316 5.26544 11.5652 4.9253 11.5652 4.55556C11.5652 3.70335 10.8575 3 10 3ZM10 4.16667C10.223 4.16667 10.3913 4.33388 10.3913 4.55556C10.3913 4.77723 10.223 4.94444 10 4.94444C9.77698 4.94444 9.6087 4.77722 9.6087 4.55556C9.6087 4.33389 9.77698 4.16667 10 4.16667ZM9.81046 6.09896C9.87293 6.10666 9.93563 6.11111 10 6.11111C10.0644 6.11111 10.1271 6.10666 10.1895 6.09896L12.8308 10.3038C12.9788 10.5389 13.3091 10.6401 13.5645 10.5286L16.9273 9.0217C16.9519 9.03656 16.9752 9.05698 17.0007 9.07031L15.0931 13.5H4.90693L2.99932 9.07031C3.02479 9.05697 3.04814 9.03655 3.07269 9.0217L6.43546 10.5286C6.69089 10.6401 7.02124 10.5389 7.16916 10.3038L9.81046 6.09896ZM2.36957 7.66667C2.48455 7.66667 2.56522 7.74683 2.56522 7.86111C2.56522 7.9754 2.48455 8.05556 2.36957 8.05556C2.25458 8.05556 2.17391 7.9754 2.17391 7.86111C2.17391 7.74683 2.25458 7.66667 2.36957 7.66667ZM17.6304 7.66667C17.7454 7.66667 17.8261 7.74683 17.8261 7.86111C17.8261 7.9754 17.7454 8.05556 17.6304 8.05556C17.5154 8.05556 17.4348 7.9754 17.4348 7.86111C17.4348 7.74683 17.5154 7.66667 17.6304 7.66667ZM5.1087 14.6667H14.8913V15.8333H5.1087V14.6667Z" fill="#F2C94C"/>
</svg>
