<svg width="24" height="24" viewBox="0 0 24 24" fill="none" xmlns="http://www.w3.org/2000/svg">
<g id="volume-high">
<path id="icon" fill-rule="evenodd" clip-rule="evenodd" d="M8 8.61803L12 6.61803V17.382L8 15.382V8.61803ZM6.76393 7L14 3.38197V20.618L6.76393 17H3C1.89543 17 1 16.1046 1 15V9C1 7.89543 1.89543 7 3 7H6.76393ZM6 9H3V15H6V9ZM19.6791 3.45672C21.7136 5.48074 23 8.5681 23 12C23 15.4319 21.7136 18.5193 19.6791 20.5433L18.1031 19.2825C19.8488 17.6536 21 15.0122 21 12C21 8.98783 19.8488 6.34636 18.1031 4.71748L19.6791 3.45672ZM19 12C19 9.58933 18.0649 7.41238 16.5748 5.9402L14.9973 7.20218C16.2072 8.29171 17 10.0257 17 12C17 13.9743 16.2072 15.7083 14.9973 16.7978L16.5748 18.0598C18.0649 16.5876 19 14.4107 19 12Z" fill="white"/>
</g>
</svg>
