<svg width="43" height="173" viewBox="0 0 43 173" fill="none" xmlns="http://www.w3.org/2000/svg">
<path opacity="0.4" d="M29 65.2L31.6 54.4C32.5 50.8 33.3 47.2 34.1 43.6C34.9 40 35.8 36.4 36.5 32.8L38.8 21.9C39.5 18.3 40.3 14.6 41 11C41.7 7.4 42.5 3.7 43 0L36.8 21.4C34.8 28.5 32.8 35.7 30.9 42.8C28.9 49.9 27.1 57.1 25.2 64.3L23.1 72.5H20.3L11 87.3L7.8 72.5H1.2L6.4 95.2H12.7L20.5 82.8L19.7 85.8L14.4 107.4C12.7 114.6 10.9 121.8 9.3 129C6 143.5 2.8 157.9 0 172.5C4.5 158.3 8.5 144.1 12.4 129.8C14.4 122.7 16.2 115.5 18.2 108.3L18.7 106.4C19.6 106.9 20.7 107.3 21.9 107.6C23.6 108.1 25.4 108.3 27.3 108.3C29.5 108.3 31.4 108 33.1 107.3C34.8 106.6 36 105.7 36.9 104.5C37.8 103.3 38.2 101.9 38.2 100.3C38.2 99 37.9 98 37.2 97.1C36.5 96.3 35.7 95.7 34.7 95.3C33.7 94.9 32.5 94.5 31 94.2C29.7 93.9 28.7 93.5 28.1 93.2C27.5 92.9 27.2 92.5 27.2 91.9C27.2 91.3 27.6 90.7 28.3 90.3C29 89.9 30 89.7 31.3 89.7C32.4 89.7 33.5 89.8 34.6 90.1C35.7 90.4 36.7 90.8 37.5 91.4L39.8 86.6C38.8 86 37.6 85.5 36.2 85.2C34.8 84.9 33.3 84.7 31.7 84.7C29.5 84.7 27.6 85 25.9 85.7C25.1 86 24.4 86.4 23.8 86.9V86.8L29 65.2ZM21.7 96C22.4 96.8 23.2 97.4 24.2 97.8C25.2 98.2 26.4 98.6 27.9 99C29.2 99.3 30.2 99.7 30.8 100C31.4 100.3 31.7 100.7 31.7 101.3C31.7 101.9 31.4 102.4 30.7 102.8C30 103.2 29.1 103.3 27.8 103.3C26.5 103.3 25.2 103.1 23.9 102.7C22.6 102.3 21.4 101.8 20.2 101L19.8 101.8L21.4 95.5C21.5 95.8 21.6 95.9 21.7 96Z" fill="url(#paint0_linear)"/>
<defs>
<linearGradient id="paint0_linear" x1="21.5" y1="0" x2="21.5" y2="172.5" gradientUnits="userSpaceOnUse">
<stop stop-color="white"/>
<stop offset="1" stop-color="white" stop-opacity="0"/>
</linearGradient>
</defs>
</svg>
