<svg width="30" height="30" viewBox="0 0 30 30" fill="none" xmlns="http://www.w3.org/2000/svg">
<path d="M23.8672 8.57422H5.50781C3.98687 8.57422 2.75391 9.80718 2.75391 11.3281V22.3438C2.75391 23.8647 3.98687 25.0977 5.50781 25.0977H23.8672C25.3881 25.0977 26.6211 23.8647 26.6211 22.3438V11.3281C26.6211 9.80718 25.3881 8.57422 23.8672 8.57422Z" stroke="white" stroke-width="2.9375" stroke-linejoin="round"/>
<path d="M23.601 8.57427V6.85308C23.6008 6.43093 23.5075 6.01402 23.3277 5.63208C23.1479 5.25015 22.886 4.91261 22.5607 4.64354C22.2354 4.37448 21.8548 4.18052 21.4459 4.07552C21.037 3.97051 20.61 3.95704 20.1953 4.03606L5.08555 6.61498C4.42938 6.74003 3.83743 7.09013 3.41177 7.60492C2.98612 8.11971 2.75345 8.7669 2.75391 9.43487V12.2461" stroke="white" stroke-width="2.9375" stroke-linejoin="round"/>
<path d="M21.1133 18.6719C20.7502 18.6719 20.3952 18.5642 20.0933 18.3625C19.7914 18.1607 19.5561 17.874 19.4171 17.5385C19.2781 17.203 19.2418 16.8339 19.3126 16.4778C19.3835 16.1216 19.5583 15.7945 19.8151 15.5377C20.0718 15.281 20.399 15.1061 20.7551 15.0353C21.1112 14.9644 21.4804 15.0008 21.8159 15.1398C22.1513 15.2787 22.4381 15.514 22.6398 15.8159C22.8415 16.1179 22.9492 16.4728 22.9492 16.8359C22.9492 17.3229 22.7558 17.7898 22.4115 18.1341C22.0672 18.4784 21.6002 18.6719 21.1133 18.6719Z" fill="white"/>
</svg>
