<svg width="26" height="26" viewBox="0 0 26 26" fill="none" xmlns="http://www.w3.org/2000/svg">
<path d="M2.41211 5.28127H21.9375V2.61627C21.9375 2.49604 21.9108 2.37731 21.8594 2.26864C21.808 2.15997 21.7331 2.06407 21.6401 1.98785C21.5471 1.91164 21.4384 1.857 21.3217 1.82789C21.2051 1.79878 21.0834 1.79592 20.9655 1.81951L2.27805 4.89076C2.13889 4.91846 2.00942 4.98212 1.90251 5.0754C1.7956 5.16868 1.71498 5.28833 1.66867 5.42244C1.90535 5.32887 2.15761 5.28097 2.41211 5.28127ZM23.5371 6.50002H2.41211C2.19662 6.50002 1.98996 6.58562 1.83759 6.73799C1.68521 6.89037 1.59961 7.09703 1.59961 7.31252V21.9375C1.59961 22.153 1.68521 22.3597 1.83759 22.512C1.98996 22.6644 2.19662 22.75 2.41211 22.75H23.5371C23.7526 22.75 23.9593 22.6644 24.1116 22.512C24.264 22.3597 24.3496 22.153 24.3496 21.9375V7.31252C24.3496 7.09703 24.264 6.89037 24.1116 6.73799C23.9593 6.58562 23.7526 6.50002 23.5371 6.50002ZM18.6875 16.25C18.3661 16.25 18.0519 16.1547 17.7847 15.9762C17.5175 15.7976 17.3092 15.5438 17.1862 15.2469C17.0632 14.95 17.031 14.6232 17.0937 14.308C17.1564 13.9928 17.3112 13.7032 17.5385 13.476C17.7657 13.2487 18.0553 13.0939 18.3705 13.0312C18.6857 12.9685 19.0124 13.0007 19.3094 13.1237C19.6063 13.2467 19.8601 13.455 20.0386 13.7222C20.2172 13.9894 20.3125 14.3036 20.3125 14.625C20.3125 15.056 20.1413 15.4693 19.8365 15.7741C19.5318 16.0788 19.1185 16.25 18.6875 16.25Z" fill="#F04E27"/>
<path d="M1.59082 13.1777V5.89062C1.59082 5.26449 1.88129 4.95219 2.37387 4.875C4.16137 4.59418 7.8877 4.44336 7.8877 4.44336C7.8877 4.44336 7.46469 5.25586 6.49984 5.25586V6.5C7.4393 6.5 8.09082 7.69336 8.09082 7.69336L4.30762 11.9844L1.59082 13.1777Z" fill="#F04E27"/>
</svg>
