<svg width="22" height="20" viewBox="0 0 22 20" fill="none" xmlns="http://www.w3.org/2000/svg">
<path d="M1.22656 3.87509H19.25V1.41509C19.25 1.30412 19.2254 1.19452 19.1779 1.09421C19.1304 0.993898 19.0613 0.905372 18.9755 0.835017C18.8896 0.764661 18.7893 0.714229 18.6816 0.687357C18.5739 0.660486 18.4616 0.657844 18.3528 0.679624L1.10281 3.51462C0.974364 3.54019 0.85485 3.59895 0.756163 3.68506C0.657477 3.77116 0.583058 3.88161 0.540313 4.0054C0.758783 3.91903 0.991637 3.87481 1.22656 3.87509ZM20.7266 5.00009H1.22656C1.02765 5.00009 0.836885 5.07911 0.696232 5.21976C0.55558 5.36041 0.476563 5.55118 0.476562 5.75009V19.2501C0.476563 19.449 0.55558 19.6398 0.696232 19.7804C0.836885 19.9211 1.02765 20.0001 1.22656 20.0001H20.7266C20.9255 20.0001 21.1162 19.9211 21.2569 19.7804C21.3975 19.6398 21.4766 19.449 21.4766 19.2501V5.75009C21.4766 5.55118 21.3975 5.36041 21.2569 5.21976C21.1162 5.07911 20.9255 5.00009 20.7266 5.00009ZM16.25 14.0001C15.9533 14.0001 15.6633 13.9121 15.4166 13.7473C15.17 13.5825 14.9777 13.3482 14.8642 13.0741C14.7506 12.8 14.7209 12.4984 14.7788 12.2075C14.8367 11.9165 14.9796 11.6492 15.1893 11.4394C15.3991 11.2297 15.6664 11.0868 15.9574 11.0289C16.2483 10.971 16.5499 11.0007 16.824 11.1143C17.0981 11.2278 17.3324 11.4201 17.4972 11.6667C17.662 11.9134 17.75 12.2034 17.75 12.5001C17.75 12.8979 17.592 13.2794 17.3107 13.5608C17.0294 13.8421 16.6478 14.0001 16.25 14.0001Z" fill="white"/>
</svg>
