<svg width="30" height="30" viewBox="0 0 30 30" fill="none" xmlns="http://www.w3.org/2000/svg">
<g clip-path="url(#clip0_2694_3516)">
<path d="M4.375 3.12498V28.125C4.375 28.47 4.65502 28.75 5.00002 28.75H5.62498V29.375C5.62498 29.72 5.905 30.0001 6.25 30.0001C6.595 30.0001 6.87502 29.72 6.87502 29.375V28.75H14.375V0H7.49998C5.7775 0 4.375 1.4025 4.375 3.12498ZM11.875 13.125C11.875 12.78 12.155 12.5 12.5 12.5C12.845 12.5 13.125 12.78 13.125 13.125V14.375C13.125 14.72 12.845 15 12.5 15C12.155 15 11.8749 14.72 11.8749 14.375V13.125H11.875Z" fill="white"/>
<path d="M25.625 11.25H15.625V18.75H25.625V11.25Z" fill="white"/>
<path d="M15.625 28.75H23.125V29.3751C23.125 29.7201 23.405 30.0001 23.75 30.0001C24.095 30.0001 24.375 29.7201 24.375 29.3751V28.75H25.0001C25.3451 28.75 25.6251 28.47 25.6251 28.125V20H15.625V28.75Z" fill="white"/>
<path d="M22.5 0H15.625V10H25.625V3.12498C25.625 1.4025 24.2225 0 22.5 0Z" fill="white"/>
</g>
<defs>
<clipPath id="clip0_2694_3516">
<rect width="30" height="30" fill="white"/>
</clipPath>
</defs>
</svg>
