<svg width="28" height="28" viewBox="0 0 28 28" fill="none" xmlns="http://www.w3.org/2000/svg">
<path d="M14.0004 19.5984C14.0004 18.8252 14.6272 18.1984 15.4004 18.1984H25.2004C25.9736 18.1984 26.6004 18.8252 26.6004 19.5984V25.1984C26.6004 25.9716 25.9736 26.5984 25.2004 26.5984H15.4004C14.6272 26.5984 14.0004 25.9716 14.0004 25.1984V19.5984Z" fill="white"/>
<path d="M14.0004 2.79844C14.0004 2.02524 14.6272 1.39844 15.4004 1.39844H25.2004C25.9736 1.39844 26.6004 2.02524 26.6004 2.79844V13.9984C26.6004 14.7716 25.9736 15.3984 25.2004 15.3984H15.4004C14.6272 15.3984 14.0004 14.7716 14.0004 13.9984V2.79844Z" fill="white"/>
<path d="M1.40039 13.9984C1.40039 13.2252 2.02719 12.5984 2.80039 12.5984H9.80039C10.5736 12.5984 11.2004 13.2252 11.2004 13.9984V25.1984C11.2004 25.9716 10.5736 26.5984 9.80039 26.5984H2.80039C2.02719 26.5984 1.40039 25.9716 1.40039 25.1984V13.9984Z" fill="white"/>
<path d="M1.40039 2.79844C1.40039 2.02524 2.02719 1.39844 2.80039 1.39844H9.80039C10.5736 1.39844 11.2004 2.02524 11.2004 2.79844V8.39844C11.2004 9.17164 10.5736 9.79844 9.80039 9.79844H2.80039C2.02719 9.79844 1.40039 9.17164 1.40039 8.39844V2.79844Z" fill="white"/>
</svg>
