<svg width="20" height="20" viewBox="0 0 20 20" fill="none" xmlns="http://www.w3.org/2000/svg">
<g clip-path="url(#clip0_2805_3695)">
<path d="M7.50586 0V1.66838H9.17424V2.50255C9.75816 2.41915 10.2587 2.41915 10.8426 2.50255V1.66838H12.511V0H7.50586Z" fill="white"/>
<path d="M15.6811 5.50885L16.265 4.92494L16.9324 5.5923L18.1003 4.42443L15.5977 1.92188L14.4298 3.08975L15.0972 3.75707L14.3464 4.50783C10.3423 2.08869 5.17039 3.33996 2.83468 7.34404C0.498983 11.3481 1.75022 16.3532 5.6709 18.7724C9.59157 21.1915 14.7635 19.9402 17.0992 15.9362C19.1847 12.516 18.6008 8.17825 15.6811 5.50885ZM10.0086 17.4377C6.75532 17.4377 4.16937 14.8517 4.16937 11.5984C4.16937 8.3451 6.75532 5.75911 10.0086 5.75911V11.5984H15.8479C15.848 14.8517 13.262 17.4377 10.0086 17.4377Z" fill="white"/>
</g>
<defs>
<clipPath id="clip0_2805_3695">
<rect width="20" height="20" fill="white"/>
</clipPath>
</defs>
</svg>
