<svg width="94" height="158" viewBox="0 0 94 158" fill="none" xmlns="http://www.w3.org/2000/svg">
<g opacity="0.1" clip-path="url(#clip0_2048_6856)">
<path d="M88.2514 12.2392V-0.484375H70.0206V12.2392C58.5095 13.6842 47.5129 17.869 37.9535 24.4424L27.4822 13.9483L14.5687 26.8618L24.288 36.5811C12.6216 49.8523 6.19511 66.9225 6.21293 84.5925C6.21293 124.803 38.9258 157.516 79.136 157.516C119.346 157.516 152.059 124.803 152.059 84.5925C152.059 47.4701 124.174 16.7361 88.2514 12.2392ZM79.136 102.823C74.8364 102.822 70.6755 101.301 67.3886 98.5294C64.1016 95.7576 61.9001 91.9133 61.173 87.6756C60.4459 83.4379 61.24 79.0795 63.4149 75.3705C65.5899 71.6616 69.0058 68.8407 73.0591 67.4062V32.9387H85.2129V67.4062C89.2662 68.8407 92.6821 71.6616 94.8571 75.3705C97.0321 79.0795 97.8261 83.4379 97.099 87.6756C96.3719 91.9133 94.1704 95.7576 90.8834 98.5294C87.5965 101.301 83.4356 102.822 79.136 102.823Z" fill="white"/>
</g>
<defs>
<clipPath id="clip0_2048_6856">
<rect width="94" height="158" fill="white"/>
</clipPath>
</defs>
</svg>
