<svg version="1.2" xmlns="http://www.w3.org/2000/svg" viewBox="0 0 60 60" width="60" height="60">
	<title>watch-svg</title>
	<style>
		.s0 { fill: #ffffff } 
	</style>
	<g id="Layer" style="opacity: .2">
		<path id="Layer" fill-rule="evenodd" class="s0" d="m34.8 8l0.5 4.5c-1.6-0.9-3.5-1.5-5.5-1.5-2 0-3.8 0.6-5.4 1.5l0.5-4.5zm4.9 13.7h0.7q0.1 0 0.2 0 0.2 0.1 0.3 0.2 0.1 0.1 0.1 0.2 0.1 0.1 0.1 0.2 0 0.2-0.1 0.3 0 0.1-0.1 0.2-0.1 0.1-0.3 0.2-0.1 0-0.2 0h-0.7c-0.5 5.1-4.7 9-9.8 9-5.4 0-9.8-4.5-9.8-10 0-5.5 4.4-10 9.8-10 5.3 0 9.7 4.3 9.8 9.7zm-10.3-6.8q-0.2 0.2-0.2 0.4v6.7q0 0.3 0.2 0.5 0.2 0.2 0.5 0.2h4.3q0.1 0 0.2-0.1 0.1 0 0.2-0.1 0.1-0.1 0.2-0.2 0-0.2 0-0.3 0-0.1 0-0.2-0.1-0.2-0.2-0.3-0.1-0.1-0.2-0.1-0.1-0.1-0.2-0.1h-3.6v-6q0-0.1-0.1-0.2-0.1-0.2-0.2-0.3-0.1-0.1-0.2-0.1-0.1 0-0.3 0-0.2 0-0.4 0.2zm0.5 18.1c2 0 3.9-0.5 5.5-1.5l-0.6 4.5h-9.8l-0.6-4.5c1.6 1 3.5 1.5 5.5 1.5z"/>
		<path id="Layer" class="s0" d="m30 14.3c0.2 0 0.4-0.1 0.4-0.4 0-0.2-0.2-0.3-0.4-0.3-0.2 0-0.4 0.1-0.4 0.3 0 0.3 0.2 0.4 0.4 0.4z"/>
	</g>
</svg>