<svg width="136" height="26" viewBox="0 0 136 26" fill="none" xmlns="http://www.w3.org/2000/svg">
<rect width="26" height="26" rx="2" fill="url(#paint0_radial_60_59935)"/>
<path d="M19.0099 9.58919C18.4439 8.59363 17.6388 7.75103 16.6643 7.14044C15.5674 6.45313 14.3003 6.08984 13 6.08984C11.6997 6.08984 10.4326 6.45313 9.33569 7.14041C8.36116 7.751 7.55606 8.59362 6.99009 9.58916H5V16.4107H6.99012C7.55606 17.4063 8.36122 18.2489 9.33575 18.8595C10.4326 19.5468 11.6997 19.91 13 19.91C14.3003 19.91 15.5674 19.5468 16.6643 18.8595C17.6389 18.2489 18.444 17.4063 19.0099 16.4107H21V9.58916H19.0099V9.58919ZM13.5218 7.15725C13.5592 7.16059 13.5967 7.16366 13.6341 7.16769C14.1347 7.97325 14.5347 8.7845 14.8293 9.58919H13.5218V7.15725ZM12.3659 7.16766C12.4033 7.16366 12.4408 7.16059 12.4783 7.15725V9.58916H11.1708C11.4653 8.78441 11.8653 7.97322 12.3659 7.16766ZM12.1923 12.7232V13.2286H11.3671V13.5869H12.3619V14.1307H10.7433V11.8596H12.3331V12.4033H11.3671V12.7232L12.1923 12.7232ZM9.88975 8.02466C10.2331 7.80956 10.5962 7.63213 10.9731 7.49353C10.5999 8.19112 10.2967 8.89191 10.066 9.58919H8.22697C8.67219 8.96703 9.23594 8.43431 9.88975 8.02466ZM10.3531 11.8596V14.1307H9.85731L8.95525 13.0143V14.1307H8.33147V11.8596H8.81769L9.72934 13.0143V11.8596H10.3531ZM9.88975 17.9753C9.23597 17.5656 8.67222 17.0329 8.22697 16.4107H10.0658C10.2967 17.1081 10.6001 17.8089 10.9732 18.5064C10.5963 18.3678 10.2331 18.1904 9.88975 17.9753ZM12.4783 18.8426C12.4408 18.8393 12.4033 18.8362 12.3659 18.8322C11.8654 18.0267 11.4655 17.2156 11.1709 16.4107H12.4783V18.8426ZM13.634 18.8322C13.5967 18.8362 13.5592 18.8393 13.5218 18.8427V16.4107H14.8291C14.5345 17.2155 14.1346 18.0267 13.634 18.8322ZM14.473 14.1307L14.1499 13.3182L13.83 14.1307H13.3118L12.4226 11.8596H13.0975L13.5901 13.4174L13.7468 12.944L13.3789 11.8596H13.9515L14.1499 12.5601L14.3514 11.8596H14.924L14.5498 12.944L14.7129 13.4174L15.2023 11.8596H15.8804L14.9912 14.1307H14.473ZM16.4914 13.2447C16.0916 13.1103 15.9156 12.9408 15.9156 12.6081C15.9156 12.1059 16.3154 11.8404 16.7633 11.8404C17.0927 11.8404 17.4094 11.9844 17.6141 12.0867L17.3454 12.6017C17.3454 12.6017 17.016 12.3938 16.7441 12.3938C16.6353 12.3938 16.5618 12.4258 16.5618 12.5058C16.5618 12.6241 16.7217 12.6497 16.984 12.7328C17.403 12.864 17.6686 13.0111 17.6686 13.4366C17.6686 13.9836 17.2272 14.1595 16.8049 14.1595C16.4754 14.1595 16.0884 14.0539 15.8165 13.894L16.0852 13.347C16.0852 13.347 16.4658 13.5965 16.8145 13.5965C16.9488 13.5965 16.9968 13.5581 16.9968 13.4973C16.9967 13.3662 16.7633 13.3374 16.4914 13.2447ZM16.1102 17.9753C15.7669 18.1904 15.4037 18.3678 15.0268 18.5064C15.3999 17.8089 15.7033 17.1081 15.9342 16.4107H17.773C17.3278 17.0329 16.764 17.5656 16.1102 17.9753ZM15.934 9.58919C15.7032 8.89194 15.4 8.19112 15.0269 7.49353C15.4038 7.63213 15.7669 7.80956 16.1103 8.02466C16.7641 8.43431 17.3278 8.96703 17.773 9.58919H15.934Z" fill="white"/>
<rect x="31" width="105" height="26" rx="1" fill="url(#paint1_radial_60_59935)" fill-opacity="0.25"/>
<path d="M43.762 18L40.92 8.2H41.956L44.378 16.67L46.926 8.2H48.074L50.622 16.67L53.044 8.2H54.08L51.238 18H50.062L47.5 9.488L44.938 18H43.762ZM57.88 10.832C58.916 10.832 59.7513 11.2007 60.386 11.938C61.03 12.666 61.352 13.5293 61.352 14.528C61.352 14.6307 61.3427 14.7753 61.324 14.962H55.178C55.2713 15.6713 55.57 16.236 56.074 16.656C56.5873 17.0667 57.2173 17.272 57.964 17.272C58.496 17.272 58.9533 17.1647 59.336 16.95C59.728 16.726 60.022 16.4367 60.218 16.082L61.03 16.558C60.722 17.0527 60.302 17.4447 59.77 17.734C59.238 18.0233 58.6313 18.168 57.95 18.168C56.8487 18.168 55.9527 17.8227 55.262 17.132C54.5713 16.4413 54.226 15.564 54.226 14.5C54.226 13.4547 54.5667 12.582 55.248 11.882C55.9293 11.182 56.8067 10.832 57.88 10.832ZM57.88 11.728C57.152 11.728 56.5407 11.9473 56.046 12.386C55.5607 12.8153 55.2713 13.3753 55.178 14.066H60.4C60.3067 13.3287 60.022 12.7547 59.546 12.344C59.07 11.9333 58.5147 11.728 57.88 11.728ZM68.8418 11H69.7658V18H68.8418V16.628C68.1978 17.6547 67.2551 18.168 66.0138 18.168C65.0151 18.168 64.1611 17.8133 63.4518 17.104C62.7518 16.3947 62.4018 15.5267 62.4018 14.5C62.4018 13.4733 62.7518 12.6053 63.4518 11.896C64.1611 11.1867 65.0151 10.832 66.0138 10.832C67.2551 10.832 68.1978 11.3453 68.8418 12.372V11ZM64.1238 16.474C64.6558 17.006 65.3091 17.272 66.0838 17.272C66.8585 17.272 67.5118 17.006 68.0438 16.474C68.5758 15.9327 68.8418 15.2747 68.8418 14.5C68.8418 13.7253 68.5758 13.072 68.0438 12.54C67.5118 11.9987 66.8585 11.728 66.0838 11.728C65.3091 11.728 64.6558 11.9987 64.1238 12.54C63.5918 13.072 63.3258 13.7253 63.3258 14.5C63.3258 15.2747 63.5918 15.9327 64.1238 16.474ZM72.7302 17.104H76.7622V18H71.4422V17.384L75.3342 11.896H71.5822V11H76.6222V11.616L72.7302 17.104ZM81.1085 10.832C82.1445 10.832 82.9799 11.2007 83.6145 11.938C84.2585 12.666 84.5805 13.5293 84.5805 14.528C84.5805 14.6307 84.5712 14.7753 84.5525 14.962H78.4065C78.4999 15.6713 78.7985 16.236 79.3025 16.656C79.8159 17.0667 80.4459 17.272 81.1925 17.272C81.7245 17.272 82.1819 17.1647 82.5645 16.95C82.9565 16.726 83.2505 16.4367 83.4465 16.082L84.2585 16.558C83.9505 17.0527 83.5305 17.4447 82.9985 17.734C82.4665 18.0233 81.8599 18.168 81.1785 18.168C80.0772 18.168 79.1812 17.8227 78.4905 17.132C77.7999 16.4413 77.4545 15.564 77.4545 14.5C77.4545 13.4547 77.7952 12.582 78.4765 11.882C79.1579 11.182 80.0352 10.832 81.1085 10.832ZM81.1085 11.728C80.3805 11.728 79.7692 11.9473 79.2745 12.386C78.7892 12.8153 78.4999 13.3753 78.4065 14.066H83.6285C83.5352 13.3287 83.2505 12.7547 82.7745 12.344C82.2985 11.9333 81.7432 11.728 81.1085 11.728ZM86.0503 18V7.78H86.9743V18H86.0503ZM98.8751 8.2H99.8551V18H99.0151L93.5551 10.02V18H92.5751V8.2H93.4151L98.8751 16.18V8.2ZM105.185 10.832C106.221 10.832 107.056 11.2007 107.691 11.938C108.335 12.666 108.657 13.5293 108.657 14.528C108.657 14.6307 108.647 14.7753 108.629 14.962H102.483C102.576 15.6713 102.875 16.236 103.379 16.656C103.892 17.0667 104.522 17.272 105.269 17.272C105.801 17.272 106.258 17.1647 106.641 16.95C107.033 16.726 107.327 16.4367 107.523 16.082L108.335 16.558C108.027 17.0527 107.607 17.4447 107.075 17.734C106.543 18.0233 105.936 18.168 105.255 18.168C104.153 18.168 103.257 17.8227 102.567 17.132C101.876 16.4413 101.531 15.564 101.531 14.5C101.531 13.4547 101.871 12.582 102.553 11.882C103.234 11.182 104.111 10.832 105.185 10.832ZM105.185 11.728C104.457 11.728 103.845 11.9473 103.351 12.386C102.865 12.8153 102.576 13.3753 102.483 14.066H107.705C107.611 13.3287 107.327 12.7547 106.851 12.344C106.375 11.9333 105.819 11.728 105.185 11.728ZM118.281 11H119.233L117.077 18H116.069L114.263 12.358L112.457 18H111.449L109.293 11H110.245L111.967 16.81L113.801 11H114.725L116.559 16.81L118.281 11ZM120.931 12.834C120.931 13.1513 121.071 13.4033 121.351 13.59C121.631 13.7767 121.971 13.9213 122.373 14.024C122.774 14.1267 123.175 14.2433 123.577 14.374C123.978 14.4953 124.319 14.7053 124.599 15.004C124.879 15.2933 125.019 15.676 125.019 16.152C125.019 16.7493 124.781 17.2347 124.305 17.608C123.838 17.9813 123.231 18.168 122.485 18.168C121.813 18.168 121.239 18.0187 120.763 17.72C120.296 17.4213 119.969 17.034 119.783 16.558L120.567 16.096C120.697 16.46 120.931 16.7493 121.267 16.964C121.612 17.1693 122.018 17.272 122.485 17.272C122.942 17.272 123.325 17.1833 123.633 17.006C123.941 16.8193 124.095 16.5347 124.095 16.152C124.095 15.8347 123.955 15.5827 123.675 15.396C123.395 15.2093 123.054 15.0647 122.653 14.962C122.251 14.8593 121.85 14.7473 121.449 14.626C121.047 14.4953 120.707 14.2853 120.427 13.996C120.147 13.6973 120.007 13.31 120.007 12.834C120.007 12.2647 120.231 11.7887 120.679 11.406C121.136 11.0233 121.71 10.832 122.401 10.832C122.97 10.832 123.469 10.9627 123.899 11.224C124.328 11.476 124.645 11.8213 124.851 12.26L124.081 12.708C123.81 12.0547 123.25 11.728 122.401 11.728C121.999 11.728 121.654 11.826 121.365 12.022C121.075 12.2087 120.931 12.4793 120.931 12.834Z" fill="white"/>
<defs>
<radialGradient id="paint0_radial_60_59935" cx="0" cy="0" r="1" gradientUnits="userSpaceOnUse" gradientTransform="translate(13 13) rotate(90) scale(25)">
<stop stop-color="#DF5F61"/>
<stop offset="1" stop-color="#DF5F61" stop-opacity="0"/>
</radialGradient>
<radialGradient id="paint1_radial_60_59935" cx="0" cy="0" r="1" gradientUnits="userSpaceOnUse" gradientTransform="translate(83.5 13) rotate(90) scale(25 100.962)">
<stop stop-color="white"/>
<stop offset="1" stop-color="white" stop-opacity="0"/>
</radialGradient>
</defs>
</svg>
