<svg width="360" height="264" viewBox="0 0 360 264" fill="none" xmlns="http://www.w3.org/2000/svg">
<path d="M94.6997 13.24H95.8997V17.144H94.0597V15H87.2597V17.144H85.4197V13.24H86.4597C87.1104 12.3867 87.4357 11.1013 87.4357 9.384V3.8L94.6997 3.8V13.24ZM88.4757 13.24H92.8597V5.528H89.2757V9.416C89.2757 11.08 89.009 12.3547 88.4757 13.24ZM108.307 13.528C107.187 14.648 105.816 15.208 104.195 15.208C102.573 15.208 101.197 14.648 100.067 13.528C98.9466 12.3973 98.3866 11.0213 98.3866 9.4C98.3866 7.77867 98.9466 6.408 100.067 5.288C101.197 4.15733 102.573 3.592 104.195 3.592C105.816 3.592 107.187 4.15733 108.307 5.288C109.437 6.408 110.003 7.77867 110.003 9.4C110.003 11.0213 109.437 12.3973 108.307 13.528ZM101.363 12.28C102.131 13.0373 103.075 13.416 104.195 13.416C105.315 13.416 106.253 13.0373 107.011 12.28C107.779 11.512 108.163 10.552 108.163 9.4C108.163 8.248 107.779 7.29333 107.011 6.536C106.253 5.768 105.315 5.384 104.195 5.384C103.075 5.384 102.131 5.768 101.363 6.536C100.605 7.29333 100.227 8.248 100.227 9.4C100.227 10.552 100.605 11.512 101.363 12.28ZM117.521 8.12C118.556 8.12 119.414 8.44533 120.097 9.096C120.78 9.74667 121.121 10.568 121.121 11.56C121.121 12.552 120.78 13.3733 120.097 14.024C119.414 14.6747 118.556 15 117.521 15L113.281 15V3.8H120.161V5.56H115.121V8.12L117.521 8.12ZM117.521 13.272C118.022 13.272 118.438 13.1173 118.769 12.808C119.11 12.488 119.281 12.072 119.281 11.56C119.281 11.048 119.11 10.6373 118.769 10.328C118.438 10.008 118.022 9.848 117.521 9.848L115.121 9.848V13.272L117.521 13.272ZM128.368 3.8C129.424 3.8 130.304 4.152 131.008 4.856C131.723 5.56 132.08 6.43467 132.08 7.48C132.08 8.51467 131.723 9.38933 131.008 10.104C130.304 10.808 129.424 11.16 128.368 11.16H126.08V15H124.24V3.8L128.368 3.8ZM128.368 9.432C128.912 9.432 129.36 9.25067 129.712 8.888C130.064 8.51467 130.24 8.04533 130.24 7.48C130.24 6.91467 130.064 6.45067 129.712 6.088C129.36 5.71467 128.912 5.528 128.368 5.528H126.08V9.432H128.368ZM144.544 13.528C143.424 14.648 142.053 15.208 140.432 15.208C138.811 15.208 137.435 14.648 136.304 13.528C135.184 12.3973 134.624 11.0213 134.624 9.4C134.624 7.77867 135.184 6.408 136.304 5.288C137.435 4.15733 138.811 3.592 140.432 3.592C142.053 3.592 143.424 4.15733 144.544 5.288C145.675 6.408 146.24 7.77867 146.24 9.4C146.24 11.0213 145.675 12.3973 144.544 13.528ZM137.6 12.28C138.368 13.0373 139.312 13.416 140.432 13.416C141.552 13.416 142.491 13.0373 143.248 12.28C144.016 11.512 144.4 10.552 144.4 9.4C144.4 8.248 144.016 7.29333 143.248 6.536C142.491 5.768 141.552 5.384 140.432 5.384C139.312 5.384 138.368 5.768 137.6 6.536C136.843 7.29333 136.464 8.248 136.464 9.4C136.464 10.552 136.843 11.512 137.6 12.28ZM163.358 3.8V15H161.518V5.56H156.958V15H155.118V3.8L163.358 3.8ZM176.563 13.528C175.443 14.648 174.072 15.208 172.451 15.208C170.829 15.208 169.453 14.648 168.323 13.528C167.203 12.3973 166.643 11.0213 166.643 9.4C166.643 7.77867 167.203 6.408 168.323 5.288C169.453 4.15733 170.829 3.592 172.451 3.592C174.072 3.592 175.443 4.15733 176.563 5.288C177.693 6.408 178.259 7.77867 178.259 9.4C178.259 11.0213 177.693 12.3973 176.563 13.528ZM169.619 12.28C170.387 13.0373 171.331 13.416 172.451 13.416C173.571 13.416 174.509 13.0373 175.267 12.28C176.035 11.512 176.419 10.552 176.419 9.4C176.419 8.248 176.035 7.29333 175.267 6.536C174.509 5.768 173.571 5.384 172.451 5.384C171.331 5.384 170.387 5.768 169.619 6.536C168.861 7.29333 168.483 8.248 168.483 9.4C168.483 10.552 168.861 11.512 169.619 12.28ZM193.4 15H191.336L187.48 9.752V15H185.64V9.752L181.784 15L179.704 15L183.896 9.272L179.864 3.8H181.944L185.64 8.888V3.8H187.48V8.888L191.176 3.8H193.24L189.224 9.272L193.4 15ZM203.886 15L203.102 12.744H198.334L197.55 15H195.55L199.614 3.8H201.822L205.87 15H203.886ZM198.942 11.016H202.494L200.718 5.96L198.942 11.016ZM207.841 15V13.304C208.545 13.4 209.067 13.2293 209.409 12.792C209.761 12.3547 209.937 11.5173 209.937 10.28V3.8H217.441V15H215.601V5.56H211.777V10.248C211.777 11.2293 211.67 12.056 211.457 12.728C211.254 13.4 210.961 13.9067 210.577 14.248C210.193 14.5787 209.777 14.8027 209.329 14.92C208.891 15.0267 208.395 15.0533 207.841 15ZM230.635 13.528C229.515 14.648 228.144 15.208 226.523 15.208C224.901 15.208 223.525 14.648 222.395 13.528C221.275 12.3973 220.715 11.0213 220.715 9.4C220.715 7.77867 221.275 6.408 222.395 5.288C223.525 4.15733 224.901 3.592 226.523 3.592C228.144 3.592 229.515 4.15733 230.635 5.288C231.765 6.408 232.331 7.77867 232.331 9.4C232.331 11.0213 231.765 12.3973 230.635 13.528ZM223.691 12.28C224.459 13.0373 225.403 13.416 226.523 13.416C227.643 13.416 228.581 13.0373 229.339 12.28C230.107 11.512 230.491 10.552 230.491 9.4C230.491 8.248 230.107 7.29333 229.339 6.536C228.581 5.768 227.643 5.384 226.523 5.384C225.403 5.384 224.459 5.768 223.691 6.536C222.933 7.29333 222.555 8.248 222.555 9.4C222.555 10.552 222.933 11.512 223.691 12.28ZM242.201 9.192C242.692 9.448 243.076 9.8 243.353 10.248C243.63 10.696 243.769 11.2133 243.769 11.8C243.769 12.7173 243.444 13.48 242.793 14.088C242.142 14.696 241.348 15 240.409 15H235.609V3.8L240.057 3.8C240.974 3.8 241.748 4.09867 242.377 4.696C243.017 5.28267 243.337 6.01867 243.337 6.904C243.337 7.87467 242.958 8.63733 242.201 9.192ZM240.057 5.528H237.449V8.472H240.057C240.462 8.472 240.804 8.33333 241.081 8.056C241.358 7.768 241.497 7.416 241.497 7C241.497 6.584 241.358 6.23733 241.081 5.96C240.804 5.672 240.462 5.528 240.057 5.528ZM240.409 13.272C240.836 13.272 241.193 13.1227 241.481 12.824C241.78 12.5147 241.929 12.1413 241.929 11.704C241.929 11.2667 241.78 10.8987 241.481 10.6C241.193 10.2907 240.836 10.136 240.409 10.136H237.449V13.272H240.409ZM254.271 15L253.487 12.744H248.719L247.935 15H245.935L249.999 3.8H252.207L256.255 15H254.271ZM249.327 11.016H252.879L251.103 5.96L249.327 11.016ZM265.542 3.8V5.56H262.39V15H260.55V5.56H257.382V3.8H265.542ZM272.631 7.64C273.687 7.64 274.567 7.99733 275.271 8.712C275.985 9.416 276.343 10.2853 276.343 11.32C276.343 12.3653 275.985 13.24 275.271 13.944C274.567 14.648 273.687 15 272.631 15H268.503V3.8L270.343 3.8V7.64H272.631ZM272.631 13.272C273.175 13.272 273.623 13.0907 273.975 12.728C274.327 12.3547 274.503 11.8853 274.503 11.32C274.503 10.7547 274.327 10.2907 273.975 9.928C273.623 9.55467 273.175 9.368 272.631 9.368H270.343V13.272H272.631Z" fill="white"/>
<path d="M37.0121 67.138C41.2547 69.8513 43.3761 73.7487 43.3761 78.83C43.3761 83.3193 41.7727 86.97 38.5661 89.782C35.3594 92.594 31.3881 94 26.6521 94H4.89605L4.89605 42.2H25.1721C29.8094 42.2 33.6821 43.5813 36.7901 46.344C39.9474 49.0573 41.5261 52.6093 41.5261 57C41.5261 61.144 40.0214 64.5233 37.0121 67.138ZM25.1721 53.3H16.7361V62.476H25.1721C26.5041 62.476 27.5894 62.0567 28.4281 61.218C29.2667 60.33 29.6861 59.22 29.6861 57.888C29.6861 56.556 29.2667 55.4707 28.4281 54.632C27.5894 53.744 26.5041 53.3 25.1721 53.3ZM26.6521 82.9C28.1321 82.9 29.3161 82.456 30.2041 81.568C31.0921 80.6307 31.5361 79.422 31.5361 77.942C31.5361 76.462 31.0921 75.278 30.2041 74.39C29.3161 73.4527 28.1321 72.984 26.6521 72.984H16.7361V82.9H26.6521ZM109.651 94H96.1832L79.6071 70.024V94H67.7671V42.2H79.6071V64.696L95.4431 42.2H108.911L91.4472 67.434L109.651 94ZM148.465 94L145.875 85.86H126.635L124.045 94H111.095L128.707 42.2H143.803L161.415 94H148.465ZM130.187 74.76H142.323L136.255 55.742L130.187 74.76ZM194.322 67.212C199.008 69.8267 201.352 73.872 201.352 79.348C201.352 84.084 199.551 87.8827 195.95 90.744C192.348 93.6053 187.76 95.036 182.186 95.036C172.467 95.036 165.906 90.9413 162.502 82.752L172.714 76.906C174.292 81.5927 177.45 83.936 182.186 83.936C187.07 83.936 189.512 82.1107 189.512 78.46C189.512 74.8093 187.045 72.984 182.112 72.984H175.526V62.476H180.632C185.318 62.476 187.662 60.774 187.662 57.37C187.662 53.966 185.664 52.264 181.668 52.264C177.82 52.264 175.082 54.2373 173.454 58.184L163.316 52.338C167.065 44.8887 173.182 41.164 181.668 41.164C186.897 41.164 191.164 42.57 194.47 45.382C197.824 48.1447 199.502 51.8447 199.502 56.482C199.502 60.9713 197.775 64.548 194.322 67.212ZM236.1 94V65.88L216.12 94H207.24V42.2H219.08V70.32L239.06 42.2H247.94V94H236.1ZM284.934 42.2H296.774V94H284.934V73.428H268.654V94H256.814V42.2H268.654V62.032H284.934V42.2ZM349.474 87.266C344.244 92.446 337.88 95.036 330.382 95.036C322.883 95.036 316.519 92.446 311.29 87.266C306.06 82.086 303.446 75.6973 303.446 68.1C303.446 60.5027 306.06 54.114 311.29 48.934C316.519 43.754 322.883 41.164 330.382 41.164C337.88 41.164 344.244 43.754 349.474 48.934C354.703 54.114 357.318 60.5027 357.318 68.1C357.318 75.6973 354.703 82.086 349.474 87.266ZM319.578 79.2C322.488 82.0613 326.09 83.492 330.382 83.492C334.674 83.492 338.25 82.0613 341.112 79.2C344.022 76.3387 345.478 72.6387 345.478 68.1C345.478 63.5613 344.022 59.8613 341.112 57C338.25 54.1387 334.674 52.708 330.382 52.708C326.09 52.708 322.488 54.1387 319.578 57C316.716 59.8613 315.286 63.5613 315.286 68.1C315.286 72.6387 316.716 76.3387 319.578 79.2Z" fill="white"/>
<g clip-path="url(#clip0)">
<path d="M98.7912 164.36C96.6067 158.868 92.8015 154.761 88.4994 151.089C82.0468 145.513 74.1435 141.886 65.7101 140.63C57.3702 139.375 49.1501 140.313 41.1027 142.745C34.3794 144.728 27.972 147.657 22.0729 151.445C19.0709 153.394 15.5405 152.689 13.8281 149.823C12.1158 146.957 13.1235 143.577 16.3861 141.829C25.6597 136.866 35.4547 133.468 45.9121 132.005C58.4343 130.243 70.5336 131.448 81.8508 137.373C90.7755 142.047 98.2451 148.427 103.343 157.282C104.095 158.598 104.753 159.965 105.313 161.374C105.63 162.171 105.866 162.432 106.821 162.195C114.883 160.366 122.93 158.473 131.034 156.908C136.351 155.879 141.755 155.227 147.146 154.656C153.781 153.951 160.436 153.344 167.096 152.999C172.835 152.703 178.6 152.647 184.343 152.812C193.078 153.047 201.806 153.433 210.525 153.968C217.184 154.374 223.826 155.082 230.467 155.71C233.335 155.978 235.287 158.279 234.9 160.768C234.442 163.708 232.106 165.089 228.963 164.645C223.132 163.782 217.279 163.055 211.42 162.372C205.842 161.737 200.258 160.962 194.656 160.74C184.755 160.32 174.844 160.126 164.936 160.102C159.904 160.102 154.859 160.514 149.845 160.997C144.148 161.561 138.433 162.16 132.813 163.168C124.91 164.578 117.081 166.415 109.206 168.008C107.631 168.329 107.064 168.97 107.159 170.683C107.635 179.323 104.263 186.676 99.0343 193.242C89.2182 205.558 76.6573 213.63 61.2424 217.113C56.9333 218.086 52.5925 218.523 48.2059 217.441C39.5383 215.326 35.874 208.769 38.3404 200.169C39.9752 194.451 43.858 190.62 48.4314 187.317C57.2152 180.972 66.9996 176.475 76.9321 172.351C83.6442 169.566 90.5852 167.338 97.4241 164.864C97.8646 164.709 98.2909 164.546 98.7912 164.36ZM100.074 170.613C96.9238 171.67 93.8831 172.594 90.8812 173.655C78.2287 178.117 65.9109 183.267 55.4782 191.984C51.8138 195.04 48.0262 198.096 47.17 203.316C46.7014 206.172 47.399 207.698 50.2213 208.135C52.6277 208.505 55.154 208.759 57.5499 208.456C65.4247 207.458 72.9366 205.156 79.7825 201.053C87.9779 196.119 94.7851 189.855 98.5375 180.8C99.938 177.599 100.468 174.084 100.074 170.613Z" fill="white"/>
<path d="M165.27 193.252C167.659 192.455 168.73 190.661 169.974 189.05C171.736 186.777 173.321 184.366 175.259 182.265C179.237 177.944 186.449 177.411 190.057 182.684C190.85 183.851 191.685 183.742 192.682 182.942C194.465 181.514 196.206 180.034 198.108 178.765C203.006 175.483 208.368 175.462 212.294 178.641C214.918 180.756 215.62 183.879 216.426 186.942C216.842 188.75 217.388 190.526 218.061 192.254C218.766 193.936 219.615 194.116 221.07 193.037C223.752 191.045 226.331 188.923 229.009 186.928C231.996 184.701 235.273 183.051 239.022 182.593C242.958 182.099 246.312 183.255 248.81 186.438C249.17 186.896 249.632 187.262 250.159 187.509C250.686 187.756 251.263 187.877 251.845 187.862C252.426 187.846 252.996 187.695 253.509 187.421C254.022 187.146 254.464 186.755 254.8 186.28C255.79 184.905 256.604 183.372 257.742 182.138C262.079 177.439 269.291 178.183 272.783 183.573C274.499 186.223 274.975 189.195 275.221 192.24C275.373 194.147 275.926 194.736 277.638 193.982C279.911 192.974 282.021 191.592 284.15 190.295C284.527 190.066 284.766 189.47 284.89 188.997C286.415 183.09 291.489 180.77 296.21 181.052C296.971 181.098 297.736 181.052 298.557 181.052C299.342 178.497 300.051 175.874 300.949 173.319C302.27 169.533 304.071 165.984 307.203 163.319C309.236 161.592 311.512 160.555 314.292 161.292C317.389 162.11 318.992 164.637 318.397 167.817C316.716 176.724 313.052 184.785 308.133 192.332C307.922 192.656 307.728 192.991 307.175 193.901C308.87 193.703 310.159 193.788 311.255 193.365C312.878 192.717 314.428 191.898 315.878 190.922C320.553 187.855 325.218 188.102 329.908 190.795C331.67 191.81 333.396 192.931 335.133 194.013C337.54 195.508 339.844 195.568 342.367 194.035C343.269 193.485 344.833 193.569 345.911 193.946C346.521 194.165 347.053 195.578 346.996 196.414C346.94 197.186 346.204 198.116 345.506 198.603C341.951 201.07 338.057 201.652 334.062 199.879C331.84 198.844 329.702 197.638 327.667 196.273C324.605 194.295 321.741 193.978 318.651 196.326C316.252 198.215 313.397 199.436 310.374 199.865C308.176 200.157 306.114 199.865 304.328 198.723C303.067 197.901 302.186 198.162 300.998 198.723C295.893 201.084 290.953 200.982 286.503 197.581C283.899 198.582 281.433 199.808 278.822 200.478C273.026 201.969 268.897 199.131 268.453 193.608C268.237 191.465 267.685 189.369 266.818 187.397C265.828 185.071 264.042 185.057 262.59 187.122C261.649 188.462 260.779 189.858 259.771 191.13C257.823 193.552 255.191 194.482 252.147 194.302C251.351 194.214 250.546 194.323 249.802 194.62C249.058 194.917 248.399 195.393 247.883 196.005C243.909 200.217 234.931 199.752 232.592 193.132C232.452 192.804 232.289 192.487 232.102 192.184C229.544 194.175 227.102 196.181 224.548 198.032C222.726 199.35 220.672 200.214 218.329 199.882C215.51 199.48 213.601 197.722 212.501 195.3C211.349 192.78 210.634 190.058 209.736 187.425C209.658 187.203 209.655 186.964 209.591 186.72C208.291 182.099 205.958 181.2 202.009 183.918C200.321 185.078 198.802 186.474 197.182 187.736C192.453 191.408 188.134 190.968 184.357 186.326C183.384 185.131 182.373 185.025 181.376 185.917C180.165 187.007 179.065 188.215 178.092 189.523C175.844 192.512 174.044 195.91 170.763 197.954C167.317 200.097 163.745 201.151 159.957 198.564C159.605 198.317 158.749 198.515 158.266 198.772C155.799 200.08 153.227 200.887 150.398 200.823C146.17 200.721 143.415 198.536 142.382 194.391C142.286 194.097 142.168 193.811 142.03 193.534C137.027 195.91 132.119 198.363 127.105 200.584C123.914 202.045 120.459 202.836 116.951 202.91C110.298 202.984 105.045 196.544 108.142 189.66C110.024 185.455 113.149 182.339 116.528 179.413C118.045 178.123 119.641 176.929 121.305 175.836C122.983 174.711 125.016 175.039 125.981 176.431C127.038 177.94 126.517 179.202 124.836 180.792C121.742 183.724 118.762 186.784 115.869 189.91C115.122 190.721 114.763 191.962 114.431 193.083C113.952 194.676 115.118 196.315 116.764 196.156C118.878 195.959 121.143 195.772 123.043 194.912C129.156 192.145 135.121 189.061 141.156 186.121C145.078 184.211 148.908 182.008 153.389 181.634C154.612 181.553 155.838 181.553 157.061 181.634C158.682 181.722 160.232 181.916 161.817 181.074C164.361 179.731 167.215 181.475 167.018 184.348C166.842 186.932 166.049 189.473 165.531 192.036C165.447 192.367 165.38 192.684 165.27 193.252ZM155.937 188C153.055 188.271 150.694 188.705 149.242 190.735C148.675 191.514 148.569 192.924 148.83 193.908C148.985 194.482 150.31 195.162 151.032 195.085C153.499 194.813 155.817 193.894 157.272 191.712C157.776 190.954 158.283 189.731 157.998 189.05C157.713 188.37 156.402 188.211 155.937 188ZM298.25 187.147C294.41 186.819 292.239 187.996 291.256 190.813C290.833 192.018 291.133 192.868 292.313 193.333C294.85 194.32 297.045 193.516 299.054 192.195C298.786 190.432 298.525 188.842 298.25 187.147ZM241.016 193.583C242.838 193.566 244.6 191.962 244.54 190.379C244.48 188.797 242.753 187.355 241.016 187.401C239.156 187.45 237.528 188.973 237.546 190.647C237.563 192.321 239.1 193.604 241.016 193.583ZM311.407 169.227L310.797 169.015C307.626 173.263 306.121 178.159 305.195 183.284L305.73 183.495L311.407 169.227Z" fill="white"/>
<path d="M96 242.607V241H278.54C278.575 241.479 278.607 241.969 278.653 242.607H96Z" fill="white"/>
<path d="M59.9844 152.093C59.3431 154.448 58.6244 157.821 57.4934 161.046C55.2912 167.306 52.8601 173.485 50.51 179.693C49.9815 181.103 48.9914 181.839 47.42 181.808C45.9789 181.762 45.1227 181 44.7175 179.724C44.5608 179.175 44.5427 178.595 44.6647 178.036C46.1938 170.909 47.8146 163.817 49.2909 156.697C49.675 154.821 49.6432 152.858 49.7666 150.93C49.8301 149.605 50.4024 148.356 51.3641 147.443C52.3258 146.53 53.6026 146.024 54.9283 146.03C57.6907 146.066 59.9527 148.325 59.9844 152.093Z" fill="white"/>
<path d="M193.454 225.389C191.188 227.708 190.586 229.971 194.138 231.903L193.556 232.378L189.402 231.233C187.158 232.798 184.575 232.794 183.06 230.88C181.651 229.118 182.003 227.507 184.272 225.279C183.155 222.357 183.342 221.018 184.998 220.091C186.509 219.241 188.676 219.65 189.578 220.954C190.537 222.329 190.047 223.88 187.961 225.812L189.645 227.222C190.445 225.97 191.125 224.437 193.454 225.389ZM188.359 229.21C187.862 228.656 187.394 228.17 186.967 227.648C186.375 226.925 185.787 226.509 185.019 227.433C184.314 228.286 184.293 229.178 185.107 229.883C186.312 230.93 187.309 230.278 188.359 229.21ZM186.629 224.529C187.207 223.654 187.721 223.186 187.785 222.664C187.82 222.354 187.147 221.959 186.791 221.606C186.439 221.987 185.868 222.34 185.808 222.763C185.748 223.186 186.203 223.668 186.629 224.529Z" fill="white"/>
<path d="M145.92 227.955V219.915L147.946 219.827V231.984C146.357 232.633 145.48 231.882 144.659 230.627C143.189 228.325 141.547 226.138 139.747 224.085V232.076H137.58V220.021C139.07 219.538 140.068 219.883 140.931 221.268C142.382 223.598 144.035 225.801 145.603 228.057L145.92 227.955Z" fill="white"/>
<path d="M203.482 263.514H201.339V251.596C202.685 250.987 203.693 251.244 204.556 252.576C206.082 254.927 207.727 257.197 209.64 259.947V251.431L211.684 251.314V263.461C210.225 263.94 209.288 263.496 208.467 262.185C206.986 259.833 205.318 257.603 203.482 255.516V263.514Z" fill="white"/>
<path d="M257.524 219.474C259.252 219.483 260.907 220.179 262.122 221.409C263.338 222.638 264.016 224.301 264.007 226.03C263.997 227.76 263.302 229.414 262.073 230.631C260.844 231.847 259.182 232.525 257.453 232.516C253.838 232.516 251.086 229.664 251.111 225.981C251.136 222.297 253.961 219.446 257.524 219.474ZM261.516 226.139C261.547 223.496 259.867 221.596 257.481 221.582C255.244 221.582 253.401 223.538 253.384 225.963C253.366 228.388 255.071 230.334 257.383 230.39C259.694 230.447 261.487 228.656 261.519 226.143L261.516 226.139Z" fill="white"/>
<path d="M135.294 263.887C131.488 263.887 129.029 261.374 129.032 257.493C129.036 253.612 131.524 251.12 135.375 251.131C139.127 251.131 141.717 253.767 141.717 257.536C141.717 261.304 139.042 263.887 135.294 263.887ZM135.346 261.772C137.728 261.772 139.458 260.01 139.49 257.543C139.522 255.075 137.774 253.253 135.399 253.228C134.829 253.218 134.263 253.326 133.737 253.544C133.21 253.762 132.733 254.086 132.337 254.495C131.94 254.905 131.632 255.392 131.432 255.926C131.231 256.46 131.143 257.029 131.171 257.599C131.206 260.077 132.919 261.772 135.346 261.772Z" fill="white"/>
<path d="M244.987 257.476C244.987 261.3 242.461 263.873 238.691 263.877C234.921 263.88 232.268 261.237 232.254 257.532C232.24 253.827 234.946 251.131 238.638 251.113C242.464 251.099 244.984 253.62 244.987 257.476ZM238.645 261.783C241.073 261.783 242.771 260.084 242.817 257.588C242.863 255.093 241.055 253.2 238.628 253.214C236.2 253.228 234.621 254.945 234.621 257.543C234.621 260.14 236.214 261.772 238.649 261.772L238.645 261.783Z" fill="white"/>
<path d="M167.074 226.001C167.074 229.734 164.372 232.508 160.732 232.505C157.093 232.501 154.39 229.731 154.39 225.998C154.39 222.265 157.11 219.491 160.732 219.48C164.354 219.47 167.074 222.258 167.074 226.001ZM164.96 225.952C164.918 223.636 162.945 221.585 160.76 221.585C158.47 221.585 156.532 223.735 156.635 226.15C156.737 228.564 158.601 230.457 160.863 230.379C163.125 230.302 164.989 228.247 164.946 225.952H164.96Z" fill="white"/>
<path d="M210.729 227.13V232.065H208.767V219.851C210.363 219.851 211.938 219.71 213.484 219.89C215.186 220.088 216.656 220.803 216.944 222.798C217.205 224.684 216.307 225.918 214.45 226.792C215.465 228.498 216.462 230.172 217.494 231.917C215.877 232.467 214.76 232.241 214.076 230.592C213.641 229.633 213.099 228.726 212.463 227.888C212.146 227.44 211.628 227.141 211.198 226.771L210.729 227.13ZM210.814 225.223C212.223 224.786 213.41 224.483 214.52 224.021C214.661 223.961 214.591 222.71 214.39 222.636C213.216 222.261 212.022 221.951 210.814 221.705V225.223Z" fill="white"/>
<path d="M192.341 143.252H190.368V138.155H185.033V143.21H182.75V131.127H184.942V135.797H190.262V131.102L192.341 131V143.252Z" fill="white"/>
<path d="M272.406 232.061L270.292 232.171V219.749C272.078 219.858 273.865 219.915 275.641 220.102C277.142 220.257 278.142 221.141 278.361 222.65C278.597 224.275 278.16 225.678 276.539 226.464C276.345 226.559 276.159 226.675 275.894 226.816C276.951 228.579 277.945 230.26 278.963 231.977C277.201 232.477 276.113 232.016 275.44 230.45C274.984 229.502 274.441 228.598 273.819 227.75C273.523 227.4 273.188 227.083 272.822 226.806L272.396 227L272.406 232.061ZM272.48 221.543V225.188C273.787 224.768 274.897 224.483 275.944 224.025C276.102 223.954 276.106 222.876 275.944 222.795C274.904 222.322 273.805 222.001 272.48 221.543Z" fill="white"/>
<path d="M225.637 221.853V224.761H230.89C231.398 226.302 231.098 227.021 229.481 226.876C228.265 226.781 227.036 226.876 225.693 226.876V229.989H231.641C231.694 230.694 231.736 231.303 231.785 232.04H223.547V219.911H231.412C231.458 220.521 231.5 221.074 231.556 221.853H225.637Z" fill="white"/>
<path d="M207.424 131.103C207.886 132.646 207.4 133.249 205.846 133.126C204.514 133.024 203.168 133.105 201.717 133.105V135.903H206.952C207.439 137.458 207.097 138.152 205.49 138.018C204.278 137.93 203.052 138.001 201.717 138.001V141.145H207.664C207.72 141.85 207.763 142.46 207.819 143.196H199.595V131.103H207.424Z" fill="white"/>
<path d="M109.157 231.967C107.342 232.534 106.447 231.967 105.986 230.349C105.863 229.908 105.059 229.517 104.499 229.376C103.84 229.21 103.09 229.397 102.403 229.323C101.025 229.178 100.042 229.474 99.7212 231.039C99.3865 232.679 98.104 232.097 96.8708 232.097C98.5937 228.146 100.236 224.307 101.944 220.504C102.385 219.52 103.879 219.492 104.302 220.461C105.947 224.233 107.511 228.047 109.157 231.967ZM104.735 227.173C104.175 225.816 103.678 224.628 103.058 223.102C102.438 224.642 101.955 225.84 101.416 227.173H104.735Z" fill="white"/>
<path d="M195.822 263.404C194.208 263.923 193.151 263.665 192.792 261.995C192.587 261.025 191.964 260.683 190.991 260.8C190.406 260.872 189.814 260.872 189.229 260.8C187.767 260.613 186.781 260.969 186.411 262.597C186.058 264.085 184.843 263.609 183.61 263.528C185.318 259.601 186.953 255.773 188.666 251.97C189.103 251.008 190.537 250.912 190.931 251.818C192.612 255.643 194.194 259.513 195.822 263.404ZM191.396 258.6C190.836 257.232 190.357 256.069 189.761 254.621L188.112 258.6H191.396Z" fill="white"/>
<path d="M92.1707 221.878L90.7261 222.999C87.9391 221.237 86.1915 221.29 84.7081 223.133C83.2988 224.86 83.4362 227.687 84.9653 229.245C86.6037 230.912 88.5733 230.771 91.089 228.727L92.449 229.915C90.6873 232.322 88.3161 233.059 85.596 232.129C83.0345 231.254 81.4455 228.84 81.4701 225.854C81.4948 223.034 83.2318 220.602 85.6982 219.844C88.3548 219.044 90.6486 219.728 92.1707 221.878Z" fill="white"/>
<path d="M250.515 261.864L251.661 260.834C252.954 261.187 253.993 261.638 255.054 261.688C255.533 261.709 256.361 260.983 256.463 260.489C256.548 260.048 255.949 259.284 255.455 258.97C254.684 258.476 253.739 258.265 252.883 257.912C251.171 257.179 250.611 255.833 250.903 254.06C251.196 252.287 252.393 251.448 254.014 251.24C255.776 250.997 257.538 251.028 258.718 252.928L257.15 254.338C256.836 254.056 256.607 253.672 256.329 253.633C255.503 253.472 254.656 253.443 253.82 253.549C253.5 253.609 252.989 254.585 253.116 254.751C253.556 255.373 254.135 255.885 254.807 256.245C256.29 256.975 258.137 257.169 258.683 259.132C259.229 261.095 258.45 262.756 256.59 263.58C254.331 264.536 251.833 263.887 250.515 261.864Z" fill="white"/>
<path d="M122.447 220.955L120.749 222.777L120.643 222.312C119.586 222.149 118.529 221.864 117.455 221.885C117.081 221.885 116.464 222.625 116.433 223.062C116.401 223.5 116.88 224.12 117.303 224.381C117.927 224.776 118.712 224.927 119.417 225.184C121.105 225.801 122.236 226.89 122.215 228.79C122.215 230.518 120.907 231.868 118.899 232.382C116.986 232.872 115.076 232.128 113.808 230.302L115.418 228.991C116.475 230.084 117.557 230.969 119.096 230.01C120.217 229.305 120.213 228.184 119.04 227.571C118.351 227.26 117.645 226.987 116.926 226.753C114.583 225.84 113.773 224.501 114.241 222.329C114.594 220.634 116.771 219.182 118.765 219.538C119.903 219.742 120.971 220.366 122.447 220.955Z" fill="white"/>
<path d="M131.15 167.306C133.733 167.306 135.431 168.941 135.403 171.37C135.375 173.552 133.444 175.378 131.136 175.399C128.828 175.42 126.732 173.481 126.721 171.282C126.711 169.082 128.641 167.306 131.15 167.306Z" fill="white"/>
<path d="M178.663 252.858L177.402 254.039C176.288 253.725 175.439 253.302 174.583 253.312C174.065 253.312 173.219 253.929 173.135 254.37C173.05 254.811 173.558 255.656 174.04 255.974C174.745 256.439 175.675 256.548 176.471 256.901C178.275 257.708 179.026 259.153 178.677 261C178.399 262.445 176.757 263.757 175.104 263.866C173.212 263.989 171.465 263.771 170.298 261.85L171.493 260.877C172.944 261.229 174.009 261.652 175.073 261.663C175.541 261.663 176.249 260.88 176.401 260.33C176.496 259.978 175.858 259.241 175.386 258.973C174.537 258.49 173.529 258.3 172.652 257.863C171.218 257.158 170.432 255.96 170.623 254.317C170.752 253.505 171.146 252.758 171.742 252.192C172.338 251.626 173.103 251.271 173.92 251.183C175.724 250.997 177.444 251.078 178.663 252.858Z" fill="white"/>
<path d="M147.079 261.821L148.411 260.785C149.524 261.155 150.465 261.698 151.406 261.694C152.026 261.694 152.65 260.912 153.273 260.478C152.836 259.943 152.495 259.262 151.945 258.906C151.24 258.441 150.331 258.275 149.546 257.909C148.016 257.204 147.185 255.984 147.432 254.275C147.569 253.465 147.97 252.724 148.573 252.167C149.176 251.61 149.947 251.269 150.765 251.197C152.509 251.011 154.172 251.113 155.465 252.896L154.246 253.954C152.97 253.697 151.966 253.376 150.958 253.355C150.581 253.355 149.947 254.003 149.88 254.43C149.874 254.702 149.932 254.972 150.05 255.217C150.168 255.462 150.343 255.675 150.56 255.84C151.342 256.312 152.29 256.506 153.139 256.872C155.053 257.701 155.817 259.135 155.433 261.081C155.148 262.526 153.509 263.788 151.818 263.901C149.933 263.989 148.203 263.767 147.079 261.821Z" fill="white"/>
<path d="M238.688 228.991C239.745 230.169 240.847 230.972 242.373 230.013C243.504 229.308 243.472 228.205 242.285 227.588C241.595 227.277 240.89 227.003 240.171 226.767C237.789 225.836 236.898 224.3 237.532 222.185C238.078 220.362 240.492 219.065 242.535 219.633C243.504 219.904 244.388 220.475 245.685 221.085L243.846 222.382C242.891 222.185 241.88 221.829 240.869 221.839C240.456 221.839 239.766 222.622 239.73 223.087C239.695 223.552 240.259 224.197 240.728 224.472C241.513 224.938 242.447 225.149 243.303 225.505C244.772 226.111 245.445 227.268 245.417 228.819C245.389 230.369 244.526 231.462 243.145 232.083C242.098 232.596 240.897 232.7 239.777 232.374C238.657 232.048 237.699 231.316 237.091 230.32L238.688 228.991Z" fill="white"/>
<path d="M287.296 221.942H283.441V219.922H293.064C293.11 220.528 293.152 221.082 293.208 221.861H289.35V232.083H287.296V221.942Z" fill="white"/>
<path d="M173.254 143.281H171.01V133.302C169.773 133.187 168.543 133.007 167.325 132.763C167.141 132.717 167.17 131.808 167.081 131.148H176.838V133.073H173.254V143.281Z" fill="white"/>
<path d="M223.442 263.535H221.356V253.408H217.677C217.244 251.959 217.364 251.184 219.066 251.24C221.743 251.332 224.425 251.265 227.226 251.265C227.261 252.019 227.289 252.576 227.324 253.345H223.449L223.442 263.535Z" fill="white"/>
<path d="M116.76 263.478V251.416L118.744 251.328V261.6H123.987V263.478H116.76Z" fill="white"/>
<path d="M130.611 232.1H128.592V219.936H130.611V232.1Z" fill="white"/>
</g>
<defs>
<clipPath id="clip0">
<rect width="334" height="133" fill="white" transform="translate(13 131)"/>
</clipPath>
</defs>
</svg>
