<svg width="1949" height="1964" viewBox="0 0 1949 1964" fill="none" xmlns="http://www.w3.org/2000/svg">
<path d="M739.153 532.727C667.997 401.211 596.841 269.696 525.627 138.064H471.78C560.42 270.044 649.002 401.85 737.526 533.656C738.049 533.366 738.63 533.017 739.153 532.727ZM271.614 1032.71C271.556 1031.78 271.556 1030.79 271.498 1029.86C255.176 1031.25 238.795 1033 222.531 1033.87C208.358 1034.62 110.27 1029.1 96.0965 1029.86V1037C122.816 1033.93 233.451 1037.18 260.113 1034.1C263.947 1033.69 267.781 1033.17 271.614 1032.71ZM683.738 699.502C515.868 545.274 457.317 507.864 289.389 353.578V423.46C457.085 554.685 515.345 569.033 682.925 700.2C683.215 699.967 683.448 699.735 683.738 699.502ZM764.943 445.418C724.689 342.947 626.132 102.47 585.878 0H545.449C598.773 102.645 710.284 343.354 763.549 445.94L764.943 445.418ZM409.454 606.21C332.954 554.743 299.031 549.398 222.531 497.873V526.511C298.683 568.858 332.315 565.025 408.408 607.372C408.756 607.023 409.105 606.617 409.454 606.21ZM314.947 971.944C306.466 970.55 297.927 970.259 289.389 969.969C252.91 968.749 132.517 961.197 96.0965 959.977V970.549C126.127 969.504 240.015 974.79 270.046 973.744C284.974 973.222 299.96 972.525 314.947 971.944ZM429.087 808.828C429.261 808.537 429.377 808.188 429.551 807.898C346.372 780.944 263.192 753.991 180.07 727.037V748.066C239.55 762.588 299.031 777.111 358.512 791.633C381.979 797.442 405.562 803.135 429.087 808.828ZM393.364 730.174C322.266 698.922 195.617 647.628 124.519 616.318V636.765C195.385 661.57 321.743 706.415 392.608 731.219C392.841 730.871 393.073 730.522 393.364 730.174ZM830.29 138.064H813.968C827.967 190.81 841.966 243.556 855.965 296.243C856.72 295.023 856.836 293.919 856.662 292.932C850.737 258.252 844.696 223.573 838.829 188.835C835.983 171.931 833.137 154.969 830.29 138.064ZM194.069 90.3782C355.724 257.212 543.808 471.442 705.172 637.927C705.579 637.521 705.985 637.172 706.392 636.765C570.411 470.629 407.711 256.747 271.614 90.3782H194.069ZM1522.97 678.764C1632.93 621.778 1742.95 564.792 1852.9 507.806V475.915C1742.54 543.299 1632.23 610.683 1521.93 678.009C1522.28 678.242 1522.62 678.532 1522.97 678.764ZM1515.48 925.827C1605.28 919.321 1695.02 912.757 1784.83 906.251V887.14C1695.02 899.803 1605.28 912.467 1515.48 925.188C1515.48 925.363 1515.48 925.595 1515.48 925.827ZM1739.81 634.674C1777.51 618.99 1815.21 603.306 1852.9 587.563V576.991C1815.03 595.87 1777.16 614.807 1739.34 633.745C1739.52 634.093 1739.63 634.384 1739.81 634.674ZM1907.04 48.7278C1753.87 209.869 1514.49 460.172 1361.49 621.139C1361.84 621.372 1362.19 621.604 1362.54 621.836C1525.93 474.521 1775.71 237.868 1939.28 90.3782V48.7278H1907.04ZM619.378 1350.05C473 1484.41 435.883 1499.78 289.389 1634.2V1691.94H300.89C444.131 1538.46 477.821 1504.28 620.83 1351.04C620.366 1350.69 619.843 1350.4 619.378 1350.05ZM1399.13 477.193C1496.66 364.15 1594.19 251.107 1691.77 138.064H1647.86C1564.39 250.933 1480.98 363.685 1397.62 476.379C1398.09 476.612 1398.61 476.902 1399.13 477.193ZM1678.64 498.918C1736.73 461.567 1794.82 424.215 1852.9 386.805V364.615C1794.47 409.054 1736.09 453.492 1677.66 497.873C1678 498.221 1678.3 498.57 1678.64 498.918ZM1509.73 188.835H1484.75C1441.19 263.422 1432.07 287.239 1388.56 361.827C1389.02 362.001 1389.49 362.175 1390.01 362.407C1441.36 287.646 1458.38 263.597 1509.73 188.835ZM1354.17 48.7278C1313.22 160.493 1249.68 361.42 1208.72 473.068C1209.25 473.184 1209.71 473.301 1210.23 473.417C1262.11 361.652 1336.69 160.551 1388.56 48.7278H1354.17ZM1224.29 138.064C1210.82 197.2 1197.4 256.335 1183.92 315.471C1184.44 315.529 1184.97 315.587 1185.49 315.645C1204.89 256.452 1224.23 197.2 1243.63 138.006H1224.29V138.064ZM226.83 1261.41C222.357 1261.93 218.233 1263.26 214.167 1264.6C202.782 1268.43 191.397 1272.21 180.012 1276.04V1280.75C180.593 1280.52 181.115 1280.28 181.696 1280.05C196.741 1273.84 211.785 1267.62 226.83 1261.41ZM1359.4 1575.09C1401.16 1653.74 1442.99 1732.4 1484.75 1811.05H1515.48C1463.9 1732.17 1412.32 1653.34 1360.74 1574.51C1360.33 1574.68 1359.87 1574.92 1359.4 1575.09ZM180.012 1202.5V1204.77C186.285 1202.79 192.5 1200.82 198.774 1198.78C192.442 1199.77 186.227 1201.05 180.012 1202.5ZM1219.47 1466.17C1263.21 1581.13 1334.19 1849.04 1377.93 1964H1420.62C1363.06 1848.75 1278.37 1580.67 1220.86 1465.59C1220.46 1465.77 1219.93 1466 1219.47 1466.17ZM1599.47 1312.41C1683.93 1364.86 1768.39 1417.26 1852.9 1469.72V1443.69C1768.68 1399.54 1684.51 1355.39 1600.34 1311.3C1600.05 1311.65 1599.76 1312 1599.47 1312.41ZM1095.22 1589.85C1102.83 1663.56 1115.53 1819.84 1123.14 1893.62H1145.04C1130.46 1819.78 1110.79 1663.44 1096.27 1589.67C1095.92 1589.73 1095.57 1589.79 1095.22 1589.85ZM1797.66 1063.96C1816.08 1066.8 1834.49 1069.65 1852.9 1072.5V1066.98C1834.61 1065.53 1816.31 1064.07 1798.01 1062.68C1797.9 1063.03 1797.78 1063.49 1797.66 1063.96ZM1789.41 741.385C1810.56 735.867 1831.76 730.348 1852.9 724.83V719.718C1831.59 726.63 1810.27 733.601 1788.95 740.514C1789.12 740.746 1789.3 741.037 1789.41 741.385ZM1679.63 1270.7C1737.37 1299.28 1873.61 1341.98 1931.4 1370.56V1351.04C1873.96 1328.56 1737.95 1291.9 1680.5 1269.42C1680.21 1269.83 1679.92 1270.23 1679.63 1270.7ZM1764.9 1144.76C1794.24 1152.6 1919.67 1164.33 1949 1172.17V1163.98C1919.84 1158.46 1794.58 1149.12 1765.42 1143.6C1765.25 1143.95 1765.08 1144.35 1764.9 1144.76ZM1419.58 1317.69C1563.98 1448.51 1804.48 1663.81 1949 1794.81V1729.92C1804.83 1620.25 1564.62 1426.26 1420.62 1316.76C1420.28 1317.06 1419.93 1317.35 1419.58 1317.69ZM460.395 1291.21C366.992 1342.21 273.473 1393.27 180.012 1444.27V1471.75C273.705 1411.86 367.399 1351.97 461.034 1292.13C460.86 1291.84 460.628 1291.55 460.395 1291.21ZM481.713 1219.12C381.165 1263.21 196.702 1337.09 96.0965 1381.24V1406.34C196.877 1354.17 381.572 1272.27 482.294 1220.16C482.12 1219.75 481.887 1219.46 481.713 1219.12ZM437.974 1423.19C352.006 1487.08 86.0261 1646.48 0 1710.38V1744.07C86.4327 1669.25 352.819 1499.05 439.194 1424.29C438.787 1423.88 438.381 1423.53 437.974 1423.19ZM405.387 1078.54C403.819 1078.07 402.251 1078.07 400.741 1078.31C346.894 1085.97 293.048 1093.64 239.202 1101.37C219.453 1104.16 84.658 1123.04 64.9667 1125.82V1143.6C97.1466 1136.69 244.372 1113.68 276.552 1106.71C319.536 1097.36 362.462 1087.95 405.387 1078.54ZM663.814 1439.28C567.333 1563.12 470.851 1687.03 374.311 1811.05H417.121C499.836 1687.26 582.493 1563.59 665.15 1439.92C664.686 1439.68 664.279 1439.51 663.814 1439.28ZM719.229 1811.05H741.941C761.4 1740.18 780.801 1669.31 800.26 1598.5C799.911 1598.38 799.563 1598.21 799.156 1598.09C772.494 1669.08 745.891 1740.07 719.229 1811.05ZM935.079 1811.05H958.023C960.056 1726.18 962.089 1641.31 964.122 1556.5C963.773 1556.5 963.425 1556.5 963.134 1556.5C953.841 1641.31 944.489 1726.18 935.079 1811.05ZM1023.6 353.578C1027.61 314.251 1030.75 274.982 1033.88 235.655C1036.44 203.125 1041.43 81.2581 1043.99 48.7278H1023.6C1024.36 120.643 1022.79 281.779 1023.6 353.578ZM603.753 1763.67H627.22C659.981 1689.55 667.764 1662.86 700.525 1588.8C700.06 1588.68 699.596 1588.51 699.131 1588.39C659.051 1662.63 643.891 1689.44 603.753 1763.67Z" fill="white"/>
</svg>
