<svg width="36" height="45" viewBox="0 0 36 45" fill="none" xmlns="http://www.w3.org/2000/svg">
<path d="M8.18182 0C7.74784 4.25312e-05 7.33165 0.16938 7.02478 0.470768C6.71791 0.772157 6.5455 1.18092 6.54545 1.60714V3.21429H1.63636C1.20239 3.21433 0.786196 3.38367 0.479328 3.68505C0.172459 3.98644 4.33478e-05 4.3952 0 4.82143V8.03572C0 14.0181 3.03218 19.2901 7.66086 22.4874C8.79182 24.8237 10.7138 26.7132 13.0909 27.8268V32.1429H6.54545C6.11148 32.1429 5.69529 32.3122 5.38842 32.6136C5.08155 32.915 4.90913 33.3238 4.90909 33.75V43.3929C4.90913 43.8191 5.08155 44.2278 5.38842 44.5292C5.69529 44.8306 6.11148 45 6.54545 45H29.4545C29.8885 45 30.3047 44.8306 30.6116 44.5292C30.9184 44.2278 31.0909 43.8191 31.0909 43.3929V33.75C31.0909 33.3238 30.9184 32.915 30.6116 32.6136C30.3047 32.3122 29.8885 32.1429 29.4545 32.1429H22.9091V27.8268C25.2875 26.7126 27.2116 24.8223 28.3423 22.4843C32.9699 19.288 36 14.0167 36 8.03572V4.82143C36 4.3952 35.8275 3.98644 35.5207 3.68505C35.2138 3.38367 34.7976 3.21433 34.3636 3.21429H29.4545V1.60714C29.4545 1.18092 29.2821 0.772157 28.9752 0.470768C28.6683 0.16938 28.2522 4.25738e-05 27.8182 0H8.18182ZM3.27273 6.42857H6.54545V17.1167C4.50789 14.6411 3.27273 11.4979 3.27273 8.03572V6.42857ZM29.4545 6.42857H32.7273V8.03572C32.7273 11.5062 31.4985 14.6644 29.4545 17.145V6.42857ZM8.18182 35.3571H27.8182V41.7857H8.18182V35.3571Z" fill="white"/>
</svg>
