<svg width="118" height="80" viewBox="0 0 118 80" fill="none" xmlns="http://www.w3.org/2000/svg">
<path d="M40.9749 57.5069C40.9653 57.4452 40.8988 57.424 40.7755 57.4432C40.7447 57.448 40.7365 57.4967 40.7509 57.5892C40.644 57.5111 40.5645 57.5077 40.5125 57.579C40.4672 57.4913 40.473 57.4273 40.5299 57.3868C40.423 57.3088 40.3671 57.2543 40.3623 57.2235C40.3623 57.2235 40.4109 57.2317 40.5082 57.2481C40.6412 57.2905 40.7384 57.3069 40.8001 57.2973L40.9749 57.5069ZM50.0724 15.0212L49.9337 15.0428L49.8688 14.6267L50.0075 14.605L50.0724 15.0212ZM50.1445 15.4836L50.0058 15.5052L49.9698 15.274L50.1085 15.2524L50.1445 15.4836ZM48.6868 14.3374L48.6232 14.5368L48.5235 14.505L48.5872 14.3056L48.6868 14.3374ZM47.0642 14.259L46.9254 14.2806L46.8894 14.0494L47.0281 14.0278L47.0642 14.259ZM49.484 16.1077C49.4329 16.5893 49.4193 16.9072 49.4434 17.0613C49.4289 16.9689 49.3789 16.8504 49.2932 16.7058C49.2075 16.5613 49.1598 16.4582 49.1502 16.3966C49.1454 16.3658 49.144 16.2555 49.1459 16.0657C49.1431 15.8451 49.1321 15.6731 49.1128 15.5498C49.1128 15.5498 49.1509 15.5913 49.2269 15.6741C49.2982 15.7262 49.3363 15.7676 49.3411 15.7984C49.3151 15.834 49.2914 15.8851 49.2702 15.9516C49.275 15.9824 49.262 16.0002 49.2312 16.005C49.5231 16.0542 49.6074 16.0884 49.484 16.1077ZM50.3118 17.1627L50.2193 17.1771L50.176 16.8997L50.2685 16.8853L50.3118 17.1627ZM48.2487 15.7794L48.1706 15.8863L48.0637 15.8082L48.1418 15.7013L48.2487 15.7794ZM50.3173 18.1091L50.2248 18.1236L50.0819 17.8143L50.2206 17.7927L50.3173 18.1091ZM47.4023 14.301C47.4311 14.4859 47.446 14.7836 47.4469 15.194C47.4786 15.5995 47.5112 15.9102 47.5449 16.126L47.7338 17.9438C47.7097 17.7897 47.6645 17.702 47.598 17.6808C47.4795 17.7309 47.4193 17.8508 47.4173 18.0405C47.4365 18.1639 47.4558 18.2872 47.475 18.4105C47.4702 18.3796 47.4403 18.2896 47.3855 18.1402C47.3306 17.9909 47.2984 17.8854 47.2887 17.8238L47.3668 17.7169C47.3263 17.66 47.2811 17.5723 47.231 17.4538C47.3229 16.0185 47.3251 14.8182 47.2377 13.853C47.3282 14.0283 47.383 14.1777 47.4023 14.301ZM49.6627 18.1639L49.524 18.1855L49.4879 17.9543L49.6267 17.9327L49.6627 18.1639ZM50.2724 18.7319L50.1337 18.7536L50.0543 18.2449L50.193 18.2233L50.2724 18.7319ZM45.0296 14.5764L44.9876 14.9145L44.8489 14.9361L44.8909 14.598L45.0296 14.5764ZM49.5673 18.463C49.5577 18.4013 49.535 18.3575 49.4994 18.3315C49.4782 18.3979 49.4666 18.5261 49.4646 18.7158C49.4579 18.8748 49.4463 19.0029 49.4299 19.1002C49.3673 18.6994 49.3304 18.0579 49.3191 17.1755C49.4356 17.3152 49.4669 17.5155 49.4128 17.7766C49.3801 17.9712 49.4315 18.2 49.5673 18.463ZM47.012 14.8355C47.0409 15.0205 47.0797 15.9775 47.1284 17.7067C47.0195 17.8184 46.9438 17.9407 46.9014 18.0737L46.8293 17.6112C46.7456 17.277 46.7973 16.4952 46.9845 15.2661L47.012 14.8355ZM46.6345 16.3628L46.5709 16.5621L46.4712 16.5303L46.5348 16.3309L46.6345 16.3628ZM50.3301 19.1018C50.226 19.2444 50.1918 19.3287 50.2274 19.3547C50.1205 19.2766 50.0671 19.2376 50.0671 19.2376C50.0671 19.2376 50.0955 19.2174 50.1523 19.1769C50.24 19.1317 50.2993 19.1067 50.3301 19.1018ZM45.0496 15.6153L44.9108 15.637L44.8676 15.3595L45.0063 15.3379L45.0496 15.6153ZM49.7001 19.0107L49.6611 19.0641L49.5542 18.9861L49.586 18.8864L49.7001 19.0107ZM46.6893 17.0173L46.5794 17.2239L46.4797 17.1921L46.5433 16.9927L46.6893 17.0173ZM48.1873 18.7256L48.0486 18.7473L47.9981 18.4236L48.1368 18.402L48.1873 18.7256ZM45.8641 17.1934L45.7717 17.2079L45.7356 16.9766L45.8281 16.9622L45.8641 17.1934ZM50.2576 20.1552L50.2763 20.5786L50.1375 20.6002L50.1651 20.1696L50.2576 20.1552ZM50.1477 20.3618L50.0552 20.3762L49.9411 20.2519L50.0264 20.1913L50.1477 20.3618ZM48.1988 19.1028L48.06 19.1244L48.024 18.8932L48.1627 18.8716L48.1988 19.1028ZM48.1814 19.295L48.1496 19.3947L48.0354 19.2704L48.0745 19.2169L48.1814 19.295ZM45.9245 18.7945L45.6152 18.9374C45.6316 18.8402 45.6514 18.6634 45.6746 18.4072C45.7286 18.1461 45.7638 17.9669 45.7802 17.8696C45.7898 17.9313 45.8379 18.2396 45.9245 18.7945ZM47.4271 19.3179C47.3895 19.4817 47.3283 19.6965 47.2434 19.9623L47.2001 19.6849C47.1953 19.654 47.271 19.5317 47.4271 19.3179ZM45.4909 19.0516C45.5101 19.1749 45.4581 19.2461 45.3348 19.2654L45.1498 19.2942C45.2231 19.1565 45.3368 19.0756 45.4909 19.0516ZM45.9287 19.1254C45.8246 19.2679 45.8048 19.4447 45.8693 19.6556L45.3174 19.4576C45.5968 19.2245 45.8006 19.1138 45.9287 19.1254ZM46.5961 20.0633L46.4255 20.1846L46.4039 20.0459L46.5354 19.978L46.5961 20.0633ZM47.1051 18.4682C47.1003 18.4374 47.0612 18.4908 46.988 18.6285C46.9976 18.6902 47.0323 18.8111 47.0919 18.9913C47.0744 19.6887 46.9509 20.7184 46.7213 22.0805C46.7878 22.1017 46.8012 22.2891 46.7616 22.6426C46.6191 22.5385 46.517 22.4913 46.4553 22.5009C46.494 21.737 46.647 20.5922 46.9142 19.0664C46.9402 19.0307 46.9152 18.9715 46.8391 18.8886C46.9287 18.6536 46.9543 18.4128 46.9159 18.1661C46.9207 18.197 46.9433 18.2408 46.9837 18.2976C47.055 18.3497 47.0954 18.4065 47.1051 18.4682ZM45.3997 19.6815C45.3477 19.7528 45.3289 19.8347 45.3433 19.9272C45.3433 19.9272 45.26 19.7981 45.0934 19.5399C45.0934 19.5399 45.1955 19.5871 45.3997 19.6815ZM45.8129 19.9013C45.811 20.0911 45.7618 20.3829 45.6653 20.7769C45.4804 20.8058 45.3523 20.7942 45.281 20.7421C45.4111 20.5639 45.4709 20.2388 45.4604 19.7668C45.5837 19.7476 45.7012 19.7924 45.8129 19.9013ZM46.2419 20.8291C46.1398 20.7818 46.0733 20.7606 46.0425 20.7654C46.0377 20.7346 46.0589 20.6681 46.1061 20.566C46.1774 20.6181 46.2226 20.7057 46.2419 20.8291ZM45.989 20.7264L45.947 21.0645L45.8473 21.0327L45.8965 20.7408L45.989 20.7264ZM47.1909 22.0546C47.0656 22.2636 47.0184 22.3657 47.0492 22.3609C47.0348 22.2684 47.0098 22.2092 46.9741 22.1832C46.9029 22.1311 46.9751 22.0883 47.1909 22.0546ZM44.9153 21.1307L44.8228 21.1452L44.7795 20.8677L44.872 20.8533L44.9153 21.1307ZM46.0408 21.6656C45.9608 21.9623 45.9564 22.1367 46.0277 22.1887C45.8832 22.2744 45.7955 22.3197 45.7647 22.3245C45.755 22.2628 45.756 22.1679 45.7676 22.0398C45.7792 21.9117 45.7754 21.786 45.7562 21.6627C45.9103 21.6386 46.0052 21.6396 46.0408 21.6656ZM44.791 21.2449L44.7057 21.3055L44.5988 21.2275L44.6841 21.1668L44.791 21.2449ZM47.2181 23.1398C47.0948 23.159 47.0153 23.1556 46.9797 23.1296C46.9228 23.1701 46.9325 23.2317 47.0085 23.3146C46.9777 23.3194 46.9113 23.2982 46.8092 23.251C46.8516 23.118 46.9306 22.9162 47.0463 22.6456C47.0607 22.738 47.0289 22.8377 46.9508 22.9447C46.9508 22.9447 47.0399 23.0097 47.2181 23.1398ZM49.9715 26.2153L49.9223 26.5072L49.8226 26.4754L49.8328 26.237L49.9715 26.2153ZM44.6418 23.0207C44.5705 22.9687 44.4934 22.9807 44.4106 23.0568C44.4009 22.9951 44.441 22.8468 44.5306 22.6117C44.5883 22.9817 44.6254 23.118 44.6418 23.0207ZM45.8466 24.0642L45.6905 24.2781L45.5908 24.2462L45.7469 24.0324L45.8466 24.0642ZM45.4924 24.83C45.6041 24.9389 45.6152 25.1108 45.5255 25.3459C45.4543 25.2938 45.3878 25.2726 45.3261 25.2822C45.4822 25.0684 45.5377 24.9177 45.4924 24.83ZM45.4908 25.7302L45.3983 25.7446L45.2625 25.4816L45.3478 25.4209L45.4908 25.7302ZM45.4416 26.0221C45.43 26.1502 45.39 26.2985 45.3215 26.4671L45.271 26.1434L45.4416 26.0221ZM45.252 27.2358C45.2712 27.3591 45.2288 27.492 45.1247 27.6346C45.1199 27.6038 45.0949 27.5445 45.0496 27.4568C45.0044 27.3692 44.9793 27.3099 44.9745 27.2791C45.0766 27.3263 45.1691 27.3119 45.252 27.2358ZM45.0827 27.9727C45.0924 28.0344 45.0081 28.0001 44.8299 27.87C44.9128 27.794 44.9696 27.7535 45.0004 27.7487C45.0313 27.7439 45.0669 27.7699 45.1073 27.8268C45.117 27.8884 45.1088 27.9371 45.0827 27.9727ZM43.3141 27.8697L43.2289 27.9304L43.1219 27.8523L43.1538 27.7526L43.3141 27.8697ZM48.6694 33.0497C48.6886 33.173 48.6592 33.2881 48.5812 33.395L48.4424 33.4167C48.4492 33.2577 48.5249 33.1354 48.6694 33.0497ZM46.2521 32.4321L46.1134 32.4538L46.0845 32.2688L46.2232 32.2472L46.2521 32.4321ZM46.2419 32.6706C46.2756 32.8864 46.213 32.9909 46.054 32.9841C46.0492 32.9532 46.0684 33.0766 46.1117 33.354C46.1425 33.3492 46.1045 33.3078 45.9976 33.2297C45.9464 33.7114 45.808 34.4434 45.5824 35.426C45.676 34.8114 45.7523 33.8837 45.8113 32.643C46.0676 32.6662 46.2111 32.6754 46.2419 32.6706ZM28.555 22.8305L28.4163 22.8521L28.3874 22.6671L28.5261 22.6455L28.555 22.8305ZM29.0501 24.79L28.9577 24.8044L28.9288 24.6194L29.0213 24.605L29.0501 24.79ZM48.7214 39.1518L48.6361 39.2125L48.5292 39.1344L48.561 39.0348L48.7214 39.1518ZM27.4432 25.4196C27.4172 25.4552 27.3675 25.5419 27.2943 25.6796C27.2423 25.7509 27.1806 25.7605 27.1093 25.7085C27.2915 25.459 27.3363 25.3415 27.2438 25.3559C27.3151 25.408 27.3815 25.4292 27.4432 25.4196ZM29.6026 28.6351L29.4639 28.6568L29.4206 28.3793L29.5594 28.3577L29.6026 28.6351ZM16.4036 19.3264L16.3112 19.3408L16.2534 18.9709C16.3864 19.0133 16.4364 19.1318 16.4036 19.3264ZM22.6147 28.778L22.3835 28.814L22.3691 28.7216L22.6003 28.6855L22.6147 28.778ZM32.3766 36.3967L32.2379 36.4184L32.1946 36.1409L32.3333 36.1193L32.3766 36.3967ZM22.6301 31.0018C22.6301 31.0018 22.5839 31.009 22.4914 31.0234C22.4037 31.0687 22.3445 31.0937 22.3136 31.0985C22.2828 31.1033 22.2294 31.0643 22.1533 30.9814C22.108 30.8938 22.0676 30.8369 22.0319 30.8109C22.2333 30.6848 22.3956 30.6121 22.5189 30.5928C22.543 30.747 22.58 30.8833 22.6301 31.0018ZM22.0001 30.9106L21.766 31.2313L21.7053 31.1461L21.9004 30.8788L22.0001 30.9106ZM22.8711 32.2431C22.7266 32.3288 22.5937 32.2863 22.4723 32.1158C22.4723 32.1158 22.5504 32.0089 22.7065 31.7951C22.6949 31.9232 22.7498 32.0725 22.8711 32.2431ZM39.277 45.4092L39.1383 45.4308L39.0734 45.0147L39.2121 44.993L39.277 45.4092ZM39.0285 45.6374L38.933 45.9365L38.8333 45.9047L38.8825 45.6128L39.0285 45.6374ZM36.6981 44.059L36.6345 44.2584L36.5348 44.2265L36.5984 44.0272L36.6981 44.059ZM50.2445 20.6783C50.2309 20.9962 50.1879 21.4292 50.1155 21.9773C50.2176 22.0245 50.2783 22.1098 50.2975 22.2331C50.336 22.4797 50.2252 22.7812 49.965 23.1376C50.0315 23.1588 50.0801 23.167 50.1109 23.1622C50.1157 23.193 50.1172 23.3033 50.1152 23.4931C50.1132 23.6828 50.0842 24.0031 50.0283 24.4539C49.9675 24.8739 49.9491 25.161 49.9731 25.3151C49.9924 25.4384 49.9726 25.6152 49.9138 25.8454C49.8501 26.0448 49.7783 26.2928 49.6983 26.5895C49.7339 26.6155 49.798 26.6213 49.8905 26.6069C49.8249 26.9961 49.7443 27.5928 49.6487 28.3972C49.7296 28.5108 49.7547 28.5701 49.7238 28.5749C49.6862 28.7387 49.6298 28.9843 49.5546 29.3118C49.5642 29.3735 49.581 29.4814 49.6051 29.6355C49.5915 29.9534 49.5534 30.4172 49.4906 31.027C49.453 31.1907 49.3928 31.3106 49.3099 31.3867C49.2839 31.4224 49.3243 31.4792 49.4312 31.5573C49.384 31.6594 49.2823 31.8173 49.1262 32.0311C49.1407 32.1236 49.1941 32.1626 49.2866 32.1482C49.2971 32.6202 49.2062 33.9607 49.014 36.1695L48.8753 36.1911C48.856 36.0678 48.8286 35.9932 48.793 35.9671C48.8478 36.1165 48.8863 36.3631 48.9084 36.707C48.9488 36.7638 48.9999 36.7875 49.0615 36.7778C48.9787 36.8539 48.8414 36.9859 48.6496 37.1737C48.6496 37.1737 48.7719 37.2493 49.0166 37.4006C48.9906 37.4362 48.9539 37.5051 48.9067 37.6072C48.8547 37.6785 48.8157 37.7319 48.7896 37.7676C48.7752 37.6751 48.6943 37.5614 48.547 37.4265C48.4737 37.5642 48.4491 37.7102 48.4732 37.8643C48.4924 37.9876 48.5945 38.0348 48.7795 38.006C48.6562 38.0252 48.5791 38.0372 48.5483 38.0421C48.3806 38.384 48.2991 38.5704 48.3039 38.6012C48.3232 38.7245 48.3911 38.856 48.5076 38.9957C48.5692 38.9861 48.6463 38.9741 48.7388 38.9597C48.6876 39.4413 48.6393 40.1435 48.5938 41.0664C48.5369 41.1068 48.4849 41.1781 48.4377 41.2802C48.4125 41.7262 48.3406 42.4795 48.2218 43.5401C48.1514 43.8984 48.054 44.3873 47.9296 45.0067C47.8776 45.0779 47.8303 45.18 47.7879 45.313C47.7455 45.4459 47.7103 45.625 47.6823 45.8505C47.6852 46.0711 47.5411 46.3619 47.2501 46.7231C47.3165 46.7443 47.3652 46.7525 47.396 46.7477L47.4393 47.0252C47.3044 47.1725 47.1805 47.4918 47.0677 47.9831C46.9693 48.5668 46.8989 48.9252 46.8565 49.0581C46.5943 49.6042 46.2083 50.4697 45.6984 51.6544C45.578 51.8943 45.4127 52.2516 45.2026 52.7265C45.243 52.7833 45.2526 52.845 45.2314 52.9114C45.0753 53.1252 44.8566 53.4436 44.5752 53.8664C44.5135 53.876 44.4389 53.9035 44.3512 53.9487C44.0621 54.1201 43.6989 54.5241 43.2614 55.1608C43.2354 55.1964 43.1785 55.2369 43.0909 55.2821C42.9984 55.2965 42.9213 55.3086 42.8596 55.3182C42.8384 55.3846 42.8813 55.4569 42.9882 55.535C42.6635 55.6803 42.2088 56.0039 41.6239 56.5057L41.3566 56.3105C41.2574 56.4839 41.0844 56.5898 40.8378 56.6283C40.7762 56.6379 40.7121 56.6321 40.6456 56.6109C40.5792 56.5897 40.546 56.5791 40.546 56.5791C40.546 56.5791 40.5604 56.6716 40.5892 56.8565C40.5989 56.9182 40.542 56.9586 40.4187 56.9779C40.0488 57.0356 39.7343 56.9425 39.4752 56.6988C39.3759 56.8721 39.2647 56.9684 39.1413 56.9877C38.9564 57.0165 38.7772 56.9813 38.6038 56.8821C38.3024 56.7712 38.0957 56.6613 37.984 56.5525C37.9079 56.4696 37.8237 56.4354 37.7312 56.4498C37.6695 56.4594 37.6565 56.4773 37.6922 56.5033C37.6922 56.5033 37.6613 56.5081 37.5997 56.5177C37.4147 56.5466 37.2225 56.5292 37.0231 56.4655C36.6147 56.2766 36.0176 55.9909 35.2316 55.6082C35.2268 55.5774 35.1863 55.5206 35.1103 55.4377C33.9371 54.7997 32.9615 53.9099 32.1834 52.7682L32.0837 52.7363L32.0056 52.8433C32.2127 53.1583 32.3793 53.4165 32.5054 53.6179C32.6075 53.6651 32.7322 53.7562 32.8796 53.8911C33.0462 54.1493 33.4098 54.4557 33.9703 54.8103L33.8605 55.0169C34.2024 55.1846 34.6276 55.4814 35.1362 55.9073C35.2999 55.9449 35.5147 56.0062 35.7806 56.091C35.9587 56.2211 36.2617 56.4422 36.6893 56.7545L36.7542 57.1706L36.4768 57.2139C36.5452 57.0453 36.4571 56.8854 36.2125 56.7341C35.9678 56.5828 35.7232 56.4315 35.4785 56.2802C35.4785 56.2802 35.4669 56.4083 35.4438 56.6646C35.3773 56.6434 35.3248 56.5094 35.2863 56.2628C35.322 56.2888 35.2011 56.3235 34.9236 56.3668C34.6462 56.4101 34.1771 56.1359 33.5164 55.5443C33.4355 55.4306 33.3036 55.2933 33.1206 55.1324C33.111 55.0707 33.0836 54.996 33.0383 54.9084C32.8697 54.8399 32.6309 54.6246 32.3217 54.2623C32.0482 53.926 31.6544 53.3243 31.1402 52.4572C31.0429 52.4408 30.8825 52.3238 30.6591 52.106C30.5194 52.2225 30.438 52.4089 30.4148 52.6651C30.3503 52.4542 30.2299 52.1887 30.0537 51.8689C29.8775 51.549 29.6026 51.1025 29.229 50.5292C29.0788 50.1737 28.8713 49.6535 28.6066 48.9685C28.4872 48.6082 28.2927 48.0701 28.0232 47.3543C27.923 47.1173 27.8219 46.9752 27.7198 46.928C27.6302 47.163 27.5241 47.4953 27.4017 47.9249C27.4325 47.9201 27.4552 47.964 27.4696 48.0564C27.4628 48.2154 27.4286 48.2997 27.3669 48.3093C27.3717 48.3401 27.4016 48.4302 27.4565 48.5795C27.5373 48.6932 27.5826 48.7809 27.5922 48.8425C27.6403 49.1508 27.5545 49.5115 27.3348 49.9248C27.3135 49.9912 27.3328 50.1145 27.3925 50.2947C26.9923 51.7781 26.5831 52.8998 26.1649 53.6597C26.056 53.7714 25.9365 53.9164 25.8064 54.0946C25.7072 54.2679 25.5867 54.5078 25.445 54.8141C25.0644 55.4103 24.7589 55.679 24.5287 55.6201C24.5335 55.651 24.2565 55.8994 23.6977 56.3656C23.5271 56.4869 23.2501 56.7354 22.8666 57.111C22.7742 57.1254 22.6094 57.1827 22.3724 57.2828C22.1711 57.4089 21.9957 57.4994 21.8464 57.5543C21.8204 57.59 21.7659 57.6458 21.6831 57.7219C20.2062 58.1733 19.5603 58.3846 19.7452 58.3558C19.6836 58.3654 19.6479 58.3394 19.6383 58.2777C19.6335 58.2469 19.6003 58.2363 19.5386 58.2459C19.477 58.2555 19.4355 58.2936 19.4143 58.36C19.4287 58.4525 19.4051 58.5036 19.3435 58.5132C19.2818 58.5228 19.2308 58.4992 19.1903 58.4423C19.1807 58.3807 19.1451 58.3547 19.0834 58.3643C19.0218 58.3739 18.9187 58.4216 18.7742 58.5073C18.6296 58.593 18.5266 58.6406 18.4649 58.6502C18.4033 58.6599 18.3676 58.6338 18.358 58.5722C18.3484 58.5105 18.3127 58.4845 18.2511 58.4941C18.2203 58.4989 18.1788 58.537 18.1268 58.6083L17.9202 58.4984C17.8633 58.5388 17.7887 58.5663 17.6962 58.5807C17.6345 58.5903 17.504 58.5633 17.3046 58.4997C17.1052 58.4361 16.9747 58.4091 16.9131 58.4187C16.8822 58.4235 16.8692 58.4413 16.874 58.4721C16.8788 58.503 16.8504 58.5232 16.7888 58.5328C16.7579 58.5376 16.6761 58.5188 16.5431 58.4764C16.415 58.4648 16.3201 58.4638 16.2585 58.4734C16.3201 58.4638 15.957 58.3626 15.1691 58.1697C13.7569 57.8216 12.7253 57.3826 12.0742 56.8526C12.0646 56.791 12.0218 56.7187 11.9457 56.6359C11.9004 56.5482 11.7521 56.5082 11.5007 56.5158C11.1751 56.2508 10.9849 56.0437 10.9301 55.8943C10.8752 55.745 10.8155 55.5649 10.751 55.3539C10.6441 55.2758 10.4707 55.1766 10.2309 55.0561C10.2165 54.9636 10.151 54.8475 10.0345 54.7078C10.0345 54.7078 10.0378 54.6283 10.0446 54.4694C9.99457 54.3509 9.90788 54.3013 9.78457 54.3205C9.77014 54.228 9.80196 54.1283 9.88001 54.0214L9.84394 53.7902C9.8035 53.7334 9.69079 53.7194 9.50583 53.7482C9.45096 53.5989 9.46933 53.3118 9.56094 52.887L9.47438 52.3322C9.09594 51.7281 8.5519 50.7709 7.84225 49.4606C7.60352 48.74 7.19098 47.7149 6.60464 46.3854C6.37837 45.9471 6.25703 45.7765 6.24063 45.8738C6.26665 45.8382 6.24402 45.7943 6.17275 45.7423C5.94537 45.9041 5.84611 46.0775 5.87496 46.2624C5.89901 46.4166 5.94087 46.5837 6.00056 46.7639C5.91486 46.6193 5.76029 46.4382 5.53685 46.2204C5.53204 46.1896 5.6231 46.0649 5.81004 45.8463C5.7744 45.8202 5.67952 45.8193 5.52538 45.8433C5.49653 45.6583 5.43543 45.3679 5.34208 44.9719C5.17832 44.9343 5.0724 44.7614 5.02431 44.4531C5.00704 44.14 4.94496 43.9445 4.83805 43.8664L4.78755 43.5427C4.81357 43.5071 4.99132 43.432 5.3208 43.3175L5.2703 42.9938C5.29151 42.9273 5.25587 42.9013 5.16339 42.9157C5.10174 42.9253 5.01647 42.986 4.90759 43.0977C4.82473 43.1738 4.76788 43.2142 4.73705 43.2191L4.6577 42.7104C4.75018 42.696 4.80943 42.6709 4.83545 42.6353C4.77577 42.4552 4.78015 42.2808 4.84858 42.1122C4.94303 41.908 4.98064 41.7443 4.9614 41.621C4.85252 41.7327 4.78267 41.791 4.75184 41.7958C4.56121 41.3834 4.47988 41.0645 4.50787 40.8391C4.5387 40.8343 4.58734 40.8425 4.65381 40.8637C4.72027 40.8849 4.73809 40.898 4.70726 40.9028L4.59018 41.0631C4.64025 41.1816 4.72595 41.3261 4.84728 41.4967L5.0106 41.3291C5.03946 41.5141 5.05389 41.6065 5.05389 41.6065C5.14156 41.5613 5.28947 41.3961 5.49761 41.111C5.33607 39.8731 5.18261 39.0919 5.03722 38.7672C4.88506 38.6015 4.68764 38.3481 4.44497 38.007C4.32647 38.0571 4.29126 38.2362 4.33936 38.5445C4.30853 38.5493 4.24447 38.5435 4.14718 38.5271C4.08072 38.5059 4.03207 38.4977 4.00124 38.5025L3.92911 38.0401C3.95512 38.0045 4.00716 37.9332 4.08521 37.8263C4.0804 37.7955 4.04477 37.7694 3.9783 37.7482C4.02072 37.6153 4.0333 37.3923 4.01603 37.0792C4.17695 36.8962 4.32967 36.7619 4.47418 36.6762C4.47813 36.2966 4.45322 35.7321 4.39945 34.9827C4.46591 35.0039 4.58343 35.0487 4.75199 35.1171C4.75199 35.1171 4.74478 35.0709 4.73035 34.9784C4.74675 34.8811 4.74391 34.6605 4.72184 34.3166C4.73059 33.9679 4.72294 33.7165 4.6989 33.5623C4.44747 33.57 4.3926 33.4206 4.53428 33.1143C4.62195 33.0691 4.66338 33.0311 4.65857 33.0002C4.66141 33.2208 4.68305 33.3595 4.72349 33.4164C4.77553 33.3451 4.79433 33.2632 4.77991 33.1708C4.79631 33.0735 4.8161 32.8967 4.83928 32.6405C4.88848 32.3486 4.90827 32.1718 4.89865 32.1102C4.86979 31.9252 4.71905 31.8698 4.44641 31.9439C4.46565 32.0672 4.53692 32.1192 4.66023 32.1L4.71073 32.4237C4.71073 32.4237 4.65727 32.3847 4.55036 32.3066L4.37983 32.428C4.3654 32.3355 4.36158 32.2098 4.36836 32.0508C4.3395 31.8659 4.32027 31.7425 4.31065 31.6809C4.22408 31.126 4.05749 30.8678 3.81087 30.9063C3.71839 30.9207 3.66155 30.9611 3.64034 31.0276C3.61432 31.0632 3.60131 31.0811 3.60131 31.0811L3.38749 30.9249C3.54163 30.9009 3.756 30.7569 4.03061 30.4931C4.06908 30.7397 4.12876 30.9198 4.20965 31.0335C4.34455 30.8862 4.37976 30.707 4.31526 30.496C4.3509 30.522 4.40916 30.5919 4.49006 30.7056C4.59696 30.7836 4.66583 30.8203 4.69666 30.8154C4.78914 30.801 4.83298 30.7784 4.82817 30.7476C4.859 30.7428 4.88982 30.7379 4.92065 30.7331C4.93027 30.7948 4.99334 30.8955 5.10987 31.0352C5.28521 30.9447 5.39267 30.7226 5.43225 30.3691C5.49785 29.98 5.57208 29.7473 5.65495 29.6713C5.65692 29.4815 5.55001 29.4034 5.33422 29.4371C5.27256 29.4467 5.20512 29.5204 5.13187 29.6581C5.05382 29.765 4.98396 29.8233 4.92231 29.8329C4.86065 29.8425 4.81201 29.8343 4.77637 29.8083C4.74074 29.7823 4.7075 29.7717 4.67668 29.7765C4.63426 29.9094 4.55282 30.0958 4.43234 30.3357C4.34184 30.1603 4.2147 30.0538 4.05095 30.0162C4.21668 29.8641 4.38 29.6965 4.54091 29.5135C4.69702 29.2997 4.73222 29.1205 4.64652 28.976C4.72741 29.0897 4.74665 29.213 4.70423 29.3459C4.81114 29.424 4.92625 29.4534 5.04956 29.4341C5.2037 29.4101 5.31979 29.3446 5.39784 29.2377C5.4595 29.2281 5.55099 29.3085 5.67233 29.4791C5.76678 29.2749 5.89065 28.9556 6.04392 28.5212C6.17006 28.7225 6.24275 28.8849 6.26199 29.0082C5.93929 28.9638 5.81401 29.1728 5.88615 29.6352C5.85532 29.64 5.79848 29.6804 5.71561 29.7565C5.83214 29.8962 5.98289 29.9517 6.16785 29.9228C6.32199 29.8988 6.41206 29.8689 6.43808 29.8333C6.42846 29.7716 6.33456 29.6758 6.15638 29.5457L6.10588 29.222C6.18875 29.1459 6.24559 29.1055 6.27642 29.1006L6.3197 29.3781C6.35053 29.3733 6.38376 29.3839 6.4194 29.4099C6.48586 29.4311 6.54992 29.4369 6.61157 29.4273C6.58075 29.4321 6.6858 29.1947 6.92675 28.715C7.03563 28.6033 7.18594 28.4535 7.37768 28.2657C7.3016 28.1829 7.17589 28.1867 7.00054 28.2772C6.98131 28.1539 7.04876 28.0802 7.20289 28.0562C7.44951 28.0177 7.91617 28.2764 8.60288 28.8324C8.63174 29.0174 8.68322 29.2462 8.75733 29.5188C8.83822 29.6325 8.95234 29.7568 9.0997 29.8917C9.23657 29.5546 9.2029 29.3388 8.9987 29.2443C9.12879 29.0662 9.19143 28.9617 9.18662 28.9308C9.17701 28.8692 9.02965 28.7343 8.74456 28.5261C8.91509 28.4048 8.91368 28.2945 8.7403 28.1952C8.81158 28.2473 8.9363 28.3383 9.11449 28.4684C9.022 28.4829 8.95794 28.4771 8.92231 28.451C8.89629 28.4867 8.88569 28.5199 8.8905 28.5507C8.95696 28.5719 9.05425 28.5883 9.18237 28.5999C9.21319 28.5951 9.42701 28.7512 9.82382 29.0683C9.85662 28.8737 9.90002 28.6459 9.95403 28.3848C9.96846 28.4773 9.9983 28.5674 10.0436 28.655C10.4432 29.1927 10.6242 29.5434 10.5866 29.7071C10.734 29.842 10.8731 30.0256 11.0041 30.2577C10.8913 30.749 11.0198 30.9658 11.3897 30.9081C11.4514 30.8985 11.5675 30.833 11.738 30.7116C11.9394 30.5855 12.1017 30.5128 12.225 30.4936C12.2346 30.5552 12.2255 30.6987 12.1975 30.9242C12.1647 31.1187 12.1531 31.2469 12.1627 31.3085C12.2108 31.6168 12.4765 32.2069 12.9599 33.0788C12.9367 33.335 12.9155 33.4015 12.8963 33.2782C12.9984 33.3254 13.1395 33.3192 13.3196 33.2595L13.3629 33.5369C13.3629 33.5369 13.2941 33.5003 13.1563 33.4271C13.1611 33.4579 13.3174 34.4598 13.6252 36.4327C13.5944 36.4375 13.6324 36.479 13.7393 36.557C13.7557 36.4597 13.8088 36.2936 13.8984 36.0585C13.934 36.0846 14.0029 36.1212 14.105 36.1684C14.103 36.3582 13.9874 36.6288 13.758 36.9804C13.7676 37.042 13.8187 37.0657 13.9112 37.0512C13.9304 37.1745 13.9342 37.3003 13.9226 37.4284C13.9419 37.5517 13.9317 37.7901 13.8921 38.1436L14.325 40.9181C14.3606 40.9441 14.3962 40.9701 14.4319 40.9961C14.5521 41.7668 14.8153 42.8467 15.2215 44.2359C15.2215 44.2359 15.5475 44.7061 16.1994 45.6464C16.4825 46.0444 16.7893 46.3912 17.1196 46.687C17.2313 46.7959 17.3989 46.9592 17.6223 47.177C17.7437 47.3475 17.8019 47.4174 17.7971 47.3866C17.8164 47.5099 17.7219 47.7141 17.5138 47.9992L17.5426 48.1841C17.5783 48.2101 17.6269 48.2183 17.6886 48.2087C17.7502 48.1991 17.9704 47.9911 18.3491 47.5847C18.3114 47.7484 18.2242 47.9989 18.0873 48.336L18.2129 48.8374C18.5087 48.5071 18.6822 48.1011 18.7334 47.6194C18.8471 47.5385 18.9608 47.4576 19.0745 47.3768C19.1834 47.265 19.2031 47.0883 19.1338 46.8465L19.6425 46.7671C19.5924 46.6486 19.5684 46.4945 19.5704 46.3047C19.7448 45.8038 19.9733 45.0419 20.2558 44.0189C20.385 43.4304 20.5625 42.6448 20.7881 41.6623C20.8469 41.4321 20.9236 41.2149 21.018 41.0107C20.9728 40.923 20.969 40.7973 21.0066 40.6335C21.1338 40.2348 21.3637 39.5831 21.6963 38.6787C21.6971 39.089 21.5857 39.6906 21.3621 40.4834C21.1056 41.4707 20.9634 42.0771 20.9354 42.3025C20.9093 42.3381 20.9296 42.3665 20.996 42.3877C21.0384 42.2548 21.1685 42.0766 21.3863 41.8532L21.2259 41.7361L22.7936 35.9971C22.5682 35.9691 22.4299 36.1959 22.3788 36.6776C22.3816 36.8982 22.2732 37.2151 22.0534 37.6283C22.1759 37.1987 22.2699 36.7893 22.3355 36.4001C22.3683 36.2055 22.4093 35.9623 22.4585 35.6704C22.6118 35.236 22.6908 35.0342 22.6956 35.065C22.686 35.0034 22.5835 34.751 22.388 34.3078C22.1878 33.8338 22.0828 33.566 22.0732 33.5043L22.0083 33.0882C22.12 33.197 22.3088 33.2939 22.5746 33.3787C22.5466 33.6041 22.5341 33.8272 22.5369 34.0478C22.5185 34.3348 22.5878 34.5766 22.7448 34.7732C22.8229 34.6663 22.8547 34.5666 22.8402 34.4741C22.8711 34.4693 22.9115 34.5261 22.9616 34.6446C23.0068 34.7323 23.0473 34.7891 23.0829 34.8152C23.2062 34.7959 23.2631 34.7555 23.2535 34.6938C23.1861 34.2622 23.0523 33.8095 22.8521 33.3355C22.7143 33.2622 22.5636 33.2068 22.3998 33.1692C22.2313 33.1007 22.135 32.9895 22.1109 32.8353C22.0676 32.5579 22.1385 32.4047 22.3234 32.3759C22.3851 32.3663 22.4516 32.3875 22.5228 32.4395C22.6201 32.4559 22.6996 32.4593 22.7613 32.4497C23.0695 32.4016 23.2044 32.2542 23.166 32.0076C23.1563 31.946 23.1183 31.9045 23.0518 31.8833C23.0114 31.8265 22.9912 31.798 22.9912 31.798C22.919 31.3356 22.908 31.1637 22.9581 31.2822C22.9581 31.2822 22.92 31.2408 22.8439 31.1579C22.7678 31.075 22.725 31.0028 22.7154 30.9411L22.5927 30.155L22.8341 29.8805C22.8437 29.9422 22.8379 30.0062 22.8167 30.0727C22.8264 30.1344 22.8928 30.1556 23.0161 30.1363C23.0758 30.3165 23.0868 30.4884 23.0492 30.6522L23.2631 30.8083C23.213 30.6898 23.1817 30.4894 23.1693 30.2072C23.1308 29.9606 23.2046 29.5228 23.3907 28.8938C23.4099 29.0171 23.4552 29.1047 23.5264 29.1568C23.5236 28.9362 23.5217 28.6207 23.5209 28.2103C23.6037 28.1342 23.7112 27.9122 23.8433 27.5443C23.8433 27.5443 23.8625 27.6676 23.901 27.9142C23.901 27.9142 24.134 28.1936 24.6001 28.7524C24.6618 28.7428 24.7268 28.6537 24.7953 28.4852C24.7548 28.4283 24.6267 28.4167 24.4109 28.4504C24.752 28.2077 24.9992 27.8692 25.1524 27.4348C25.2016 27.1429 25.2662 26.8486 25.3463 26.5519C25.4532 26.63 25.4984 26.7177 25.482 26.8149C25.4993 27.128 25.4481 27.6097 25.3285 28.2599C25.3882 28.44 25.4315 28.7175 25.4584 29.0922L25.7821 29.0417C26.0009 28.2181 26.0959 27.7139 26.0671 27.5289L26.031 27.2977C26.057 27.2621 26.1424 26.6961 26.2872 25.5999C26.4105 25.5807 26.5954 25.5518 26.8421 25.5134C26.9046 25.9141 26.9266 26.258 26.9083 26.5451C27.0123 26.4025 27.1506 26.1757 27.3231 25.8646L27.3664 26.142C27.3664 26.142 27.3428 26.1931 27.2956 26.2952C27.31 26.3877 27.3317 26.5264 27.3605 26.7114C27.3574 27.5013 27.3463 27.8346 27.327 27.7113C27.3655 27.9579 27.4917 28.1592 27.7055 28.3154C28.0666 28.6064 28.2651 28.7649 28.3007 28.7909L28.5838 23.0154C28.441 23.9219 28.4177 24.6834 28.5139 25.2999C28.5428 25.4849 28.6829 25.5735 28.9344 25.5659C28.9912 25.5254 29.0292 25.5669 29.0485 25.6902C29.0581 25.7518 29.0441 25.8645 29.0065 26.0283C28.9641 26.1612 28.9323 26.2609 28.9111 26.3274C28.9524 26.7946 29.0029 27.1183 29.0625 27.2984C29.0037 27.5286 28.9863 27.7208 29.0104 27.8749L29.0825 28.3374C28.8667 28.371 28.7743 28.3854 28.8051 28.3806C29.0429 28.6909 29.1907 29.031 29.2484 29.4009C29.2629 29.4934 29.2575 29.7626 29.2324 30.2086C29.2044 30.434 29.264 30.6142 29.4114 30.7491C29.4462 30.3647 29.4515 30.0955 29.4275 29.9413C29.4034 29.7872 29.3876 29.5844 29.38 29.333C29.4031 29.0768 29.4051 28.887 29.3859 28.7637C29.488 28.8109 29.5534 28.927 29.5823 29.112C29.6179 29.138 29.6536 29.164 29.6892 29.19C29.72 29.1852 29.7533 29.1958 29.7889 29.2218C29.7841 29.191 29.8275 28.9632 29.9191 28.5384C29.8815 28.7022 29.9162 28.8231 30.0231 28.9011C30.0259 29.1217 29.9863 29.4752 29.9043 29.9617C29.7779 30.7708 29.773 31.2453 29.8895 31.385C29.7807 31.4967 29.7455 31.6759 29.7839 31.9225C29.8032 32.0458 29.8768 32.1132 30.005 32.1248C30.1715 32.383 30.4108 32.8036 30.7228 33.3865C30.7324 33.4481 31.0751 34.5314 31.7508 36.6364C31.8626 36.7453 32.0219 36.9573 32.229 37.2723C32.2598 37.2675 32.2039 37.2131 32.0614 37.109C32.0354 37.1447 32.0094 37.1803 31.9834 37.2159C31.9525 37.2207 31.9217 37.2255 31.8909 37.2304C32.1095 37.4173 32.2631 37.6933 32.3516 38.0584C32.5807 38.7174 32.7131 39.0599 32.7487 39.0859C32.7796 39.0811 32.8663 39.1307 33.0088 39.2348C33.0377 39.4198 33.1864 39.665 33.4551 39.9704C33.5244 40.2122 33.7194 40.4502 34.0402 40.6843C34.045 40.7152 34.0238 40.7816 33.9765 40.8837C33.9553 40.9502 33.9447 40.9834 33.9447 40.9834C34.1161 41.2725 34.34 41.6954 34.6163 42.2523C34.678 42.2426 34.7623 42.2769 34.8692 42.3549C35.0242 42.7412 35.0993 42.919 35.0945 42.8882C35.211 43.0279 35.3155 43.0905 35.408 43.0761C35.6006 43.2987 35.7648 43.5414 35.9005 43.8045C35.8861 43.712 35.9025 43.6147 35.9497 43.5126C36.0267 44.0058 36.0329 44.147 35.9684 43.936C36.0445 44.0188 36.1384 44.1147 36.2501 44.2236C36.3927 44.3277 36.5578 44.4756 36.7456 44.6673C36.7196 44.7029 36.7138 44.767 36.7282 44.8595C36.8544 45.0609 37.034 45.3012 37.2671 45.5807C37.4809 45.7368 37.8016 45.9709 38.2292 46.2831C38.1848 46.6058 38.1723 46.8288 38.1915 46.9522C38.4401 46.7239 38.6328 46.4412 38.7697 46.1041C38.917 46.239 38.9897 46.4013 38.9878 46.5911C38.9878 46.5911 39.021 46.6017 39.0875 46.6229C39.1183 46.6181 39.1799 46.6085 39.2724 46.5941C39.4574 46.5652 39.6101 46.4309 39.7306 46.191C40.0419 45.353 40.2612 44.7346 40.3885 44.3358C40.4713 44.2598 40.6135 44.1586 40.8148 44.0325C40.8024 43.7502 40.7509 43.5214 40.6604 43.3461L40.9841 43.2956C40.9436 43.2388 40.9422 43.1285 40.9798 42.9647C41.0482 42.7961 41.1783 42.618 41.3701 42.4302C41.2632 42.3521 41.2203 42.2798 41.2415 42.2134C41.4256 41.7742 41.6247 41.1273 41.8387 40.2729C41.8764 40.1092 41.8793 39.8245 41.8476 39.419C41.8428 39.3881 41.9315 39.248 42.1136 38.9985C42.0635 38.88 42.0347 38.6951 42.027 38.4437C42.1003 38.3059 42.1769 38.0887 42.2569 37.792C42.2521 37.7612 42.2401 37.6841 42.2209 37.5608L42.1704 37.2371L42.2773 37.3152L43.2035 31.1078L43.296 31.0934C43.3693 30.9557 43.3298 30.8039 43.1776 30.6382L43.3626 30.6094C43.4455 30.5333 43.4855 30.3849 43.4826 30.1643C43.5106 29.9389 43.4712 29.7872 43.3643 29.7091C43.4876 29.6899 43.5882 29.6268 43.6663 29.5199C43.7647 28.9362 43.9099 28.0451 44.1019 26.8468L42.9237 35.0829C42.9285 35.1137 42.9487 35.1421 42.9844 35.1681C43.0152 35.1633 43.0566 35.1253 43.1087 35.054C43.2119 34.5011 43.3489 33.6587 43.5196 32.5269C43.4339 32.3823 43.3911 32.3101 43.3911 32.3101C43.6445 32.1127 43.7896 31.7269 43.8263 31.1528C43.8939 30.5738 43.9749 30.1823 44.0693 29.9781C44.0597 29.9164 44.0299 29.8263 43.9798 29.7078C44.0194 29.3543 44.1216 28.8963 44.2865 28.3337L44.4252 28.3121L44.5033 28.2052C44.327 27.8853 44.2413 27.7408 44.2462 27.7716C44.2413 27.7408 44.2601 27.6589 44.3026 27.526C44.345 27.3931 44.3768 27.2934 44.398 27.2269C44.4144 27.1296 44.4746 27.0097 44.5787 26.8672C44.5286 26.7487 44.5046 26.5945 44.5066 26.4048C44.5105 26.0252 44.6648 25.4959 44.9693 24.8169C44.9337 24.7908 44.8827 24.7672 44.8162 24.746C44.7449 24.694 44.6939 24.6704 44.663 24.6752C44.609 24.9362 44.502 25.3634 44.342 25.9568C44.3083 25.741 44.3397 25.4361 44.4361 25.0421C44.5277 24.6173 44.5639 24.3433 44.5447 24.22C44.5302 24.1275 44.5028 24.0528 44.4624 23.996C44.5712 23.8843 44.7239 23.7499 44.9205 23.593C44.9061 23.5005 44.8834 23.4566 44.8526 23.4615C44.7698 23.5375 44.7129 23.578 44.6821 23.5828C44.6628 23.4595 44.7303 23.3858 44.8844 23.3618C44.9105 23.3261 44.87 23.2693 44.7631 23.1912C44.8199 23.1508 44.859 23.0973 44.8802 23.0309C44.9014 22.9644 44.9428 22.9264 45.0045 22.9167C45.1085 22.7742 45.1365 22.5488 45.0884 22.2405C45.0712 21.9274 45.0838 21.7044 45.1262 21.5715C45.0905 21.5455 45.0265 21.5397 44.934 21.5541C44.8723 21.5637 44.8391 21.5531 44.8343 21.5223C45.1117 21.479 45.2351 21.4598 45.2042 21.4646C45.2678 21.2652 45.2924 21.1193 45.278 21.0268C45.2992 20.9603 45.4095 20.9589 45.6089 21.0225L45.6738 21.4387L45.4354 21.4285L45.3574 21.5354C45.3622 21.5663 45.418 21.6207 45.5249 21.6988C45.5298 21.7296 45.5018 21.955 45.441 22.375L45.2806 22.2579C45.1862 22.4621 45.2507 22.6731 45.4741 22.8908C45.5666 22.8764 45.4775 22.8114 45.2068 22.6957C45.1384 22.8643 45.1624 23.0184 45.279 23.1581C45.3262 23.056 45.3652 23.0026 45.396 22.9977C45.2996 23.3917 45.2562 23.6195 45.2658 23.6812C45.1329 23.6388 45.0664 23.6176 45.0664 23.6176C45.0404 23.6532 45.0346 23.7173 45.0491 23.8097C45.0587 23.8714 45.0351 23.9224 44.9782 23.9629C45.0138 23.9889 45.0519 24.0303 45.0923 24.0872C45.1328 24.144 45.1708 24.1855 45.2065 24.2115C45.2277 24.145 45.2359 24.0964 45.2311 24.0655C45.2223 24.4143 45.1307 24.8391 44.9562 25.3399L44.8391 25.5003C44.8199 25.377 44.8603 25.4338 44.9605 25.6708C44.9325 25.8962 44.7747 27.0103 44.4872 29.0129C44.5941 29.091 44.6784 29.1252 44.74 29.1156C44.8017 29.106 44.8455 29.0833 44.8715 29.0477C44.8927 28.9812 44.9033 28.948 44.9033 28.948C44.9062 29.1686 44.8796 29.5043 44.8236 29.9551C44.9093 30.0996 44.9546 30.1873 44.9594 30.2181C44.7665 31.0061 44.6671 31.6847 44.6612 32.254C44.7826 32.4246 44.822 32.5763 44.7796 32.7092C44.6128 33.4615 44.5366 33.8839 44.551 33.9764C44.5558 34.0072 44.5654 34.0689 44.5799 34.1614C44.6251 34.249 44.655 34.3391 44.6694 34.4316C44.5673 34.3844 44.7166 34.3295 45.1174 34.267C45.1029 34.1745 45.0707 34.069 45.0206 33.9505C44.9658 33.8012 44.9335 33.6957 44.9239 33.634C44.9095 33.5416 44.9457 33.2675 45.0325 32.8119C45.1501 32.3514 45.2349 32.0856 45.287 32.0143C45.287 32.0143 45.2691 32.0013 45.2335 31.9753C45.2471 31.6574 45.3088 31.1425 45.4188 30.4307C45.4661 30.3286 45.5369 30.1754 45.6314 29.9712C45.6265 29.9404 45.6039 29.8966 45.5635 29.8397C45.7159 28.9949 45.9421 27.7123 46.2421 25.9919C46.2325 25.9303 46.2613 26.1152 46.3286 26.5468C46.4279 26.3734 46.5055 26.0613 46.5615 25.6105C46.5259 25.5845 46.4488 25.5965 46.3303 25.6466C46.2426 25.6919 46.194 25.6837 46.1844 25.622C46.2036 25.7453 46.2272 25.6943 46.2552 25.4688C46.314 25.2386 46.317 24.954 46.2641 24.6149L46.3277 24.4155C46.3749 24.3134 46.4746 24.3452 46.6268 24.5109C46.6288 24.3212 46.5585 24.1742 46.4159 24.0702C46.6068 23.472 46.6368 23.0568 46.5058 22.8246C46.4654 22.7678 46.5376 22.7249 46.7226 22.6961L46.7659 22.9735C46.8092 23.251 46.7421 23.5298 46.5648 23.8101L46.6081 24.0875C46.6437 24.1136 46.677 24.1242 46.7078 24.1194C46.7598 24.0481 46.8331 23.9103 46.9275 23.7061L46.9708 23.9836C46.9092 23.9932 46.8701 24.0467 46.8537 24.144C46.8634 24.2056 46.8778 24.2981 46.897 24.4214L46.9114 24.5139C46.8806 24.5187 46.8522 24.5389 46.8262 24.5745C46.8002 24.6102 46.7563 24.6328 46.6947 24.6424C46.7255 24.6376 46.6875 24.5962 46.5806 24.5181C46.595 24.6106 46.555 24.759 46.4605 24.9632C46.4913 24.9583 46.5246 24.969 46.5602 24.995C46.591 24.9902 46.6243 25.0008 46.6599 25.0268C46.7688 24.9151 46.8965 24.7215 47.043 24.446C47.0554 24.7283 47.0819 24.8978 47.1223 24.9546C47.1387 24.8574 47.1787 24.709 47.2423 24.5096C47.2019 24.4528 47.1899 24.3757 47.2063 24.2784C47.2631 24.238 47.333 24.1797 47.4158 24.1036C47.5663 23.4486 47.7505 22.5041 47.9685 21.2702C47.9512 20.9571 47.9562 20.4827 47.9833 19.8469C48.0613 19.74 48.1784 19.5796 48.3345 19.3658C48.244 19.1905 48.2542 18.952 48.365 18.6505C48.3891 18.8047 48.4189 18.8948 48.4546 18.9208C48.4902 18.9468 48.5186 18.9266 48.5398 18.8601C48.5833 18.127 48.6356 17.0453 48.6967 15.6147C48.7207 15.7689 48.7909 16.4211 48.9072 17.5713C48.912 17.6021 48.8884 17.6532 48.8363 17.7244C49.0598 17.9422 49.0554 18.1166 48.8232 18.2475L48.9675 19.1723C49.0744 19.2504 49.1587 19.2846 49.2203 19.275C49.3128 19.2605 49.3923 19.2639 49.4587 19.2851C49.5252 19.3064 49.5584 19.317 49.5584 19.317C49.4351 19.3362 49.3759 19.3612 49.3807 19.3921C49.4519 19.4441 49.5492 19.4605 49.6725 19.4413C49.687 19.5337 49.647 19.6821 49.5525 19.8863C49.6082 20.446 49.5048 22.0094 49.2422 24.5766C49.1938 25.2788 49.0987 26.2883 48.9568 27.6052C48.8623 27.8094 48.8199 27.9423 48.8295 28.0039C48.8872 28.3739 48.9161 28.5588 48.9161 28.5588C48.8621 28.8199 48.8201 29.158 48.7901 29.5732C48.8306 29.63 48.8474 29.7379 48.8406 29.8968C48.7134 30.2956 48.617 30.6896 48.5514 31.0788C48.6062 31.2281 48.6755 31.4699 48.7593 31.8042C48.7381 31.8706 48.6908 31.9727 48.6176 32.1105L48.8314 32.2666C48.9403 32.1549 48.9697 32.0398 48.9196 31.9213C48.86 31.7411 48.8407 31.6178 48.8619 31.5513C48.9872 31.3423 49.086 30.9638 49.1584 30.4157C49.2568 29.8319 49.3378 29.4404 49.4014 29.241C49.3658 29.2149 49.3432 29.1711 49.3336 29.1095C49.35 29.0122 49.3746 28.8662 49.4074 28.6716C49.4334 28.636 49.457 28.585 49.4782 28.5185C49.5254 28.4164 49.5801 27.35 49.6422 25.3194C49.6538 25.1913 49.689 25.0121 49.7479 24.7819C49.7286 24.6586 49.7388 24.4201 49.7784 24.0666C49.8131 23.6823 49.8233 23.4439 49.8089 23.3514C49.8224 23.0335 49.8428 22.5566 49.8699 21.9209C49.922 21.8496 49.9846 21.7451 50.0578 21.6074C49.9769 21.4937 50.0218 21.3762 50.1923 21.2548C50.0546 21.1816 49.9713 21.0525 49.9424 20.8675C49.9424 20.8675 49.9862 20.8449 50.0739 20.7996C50.1616 20.7544 50.2184 20.7139 50.2445 20.6783ZM11.559 30.1712L11.4202 30.1928L11.3697 29.8691L11.5085 29.8475L11.559 30.1712ZM40.2422 57.6685C40.1662 57.5857 40.0366 57.4638 39.8536 57.3029C40.0078 57.2788 40.0824 57.2514 40.0776 57.2205C40.0824 57.2514 40.1075 57.3106 40.1527 57.3983C40.2028 57.5168 40.2326 57.6069 40.2422 57.6685ZM32.0302 52.6973C31.8829 52.5624 31.6951 52.3707 31.4668 52.1221C31.3118 51.7358 30.9382 51.1625 30.346 50.4023C30.4452 50.2289 30.517 49.9809 30.5614 49.6582C30.7665 50.163 31.1406 50.9415 31.6836 51.9935C31.9003 52.3702 31.999 52.4969 31.9797 52.3736L32.0302 52.6973ZM3.497 32.2341C3.48738 32.1725 3.46377 32.2235 3.42616 32.3873C3.4666 32.4441 3.49885 32.5496 3.5229 32.7037C3.47086 32.775 3.38319 32.8203 3.25988 32.8395C3.21462 32.7518 3.18478 32.6618 3.17036 32.5693C3.15593 32.4768 3.15211 32.3511 3.15889 32.1921C3.19169 31.9976 3.20328 31.8694 3.19366 31.8078C3.17923 31.7153 3.13878 31.6585 3.07232 31.6372C3.11955 31.5351 3.21061 31.4104 3.34551 31.2631L3.497 32.2341ZM38.004 57.5914C37.8807 57.6106 37.7632 57.5658 37.6515 57.4569L37.6154 57.2257C37.7175 57.273 37.847 57.3949 38.004 57.5914ZM37.3727 56.8847L37.2701 57.1375L37.1704 57.1057L37.234 56.9063L37.3727 56.8847ZM27.3089 49.4551C27.2973 49.5833 27.2573 49.7316 27.1888 49.9002L27.1455 49.6227L27.3089 49.4551ZM37.3134 57.415C37.3962 57.3389 37.3298 57.3177 37.114 57.3513L36.9897 57.4655C36.9897 57.4655 36.9536 57.2342 36.8815 56.7718C36.9392 57.1418 37.0831 57.3561 37.3134 57.415ZM3.73931 34.091C3.8202 34.2046 3.81583 34.379 3.72618 34.614C3.58364 34.51 3.50275 34.3963 3.48351 34.273L3.53992 34.0273L3.73931 34.091ZM4.76533 39.7569C4.57162 40.1345 4.47716 40.3387 4.48197 40.3695C4.4964 40.462 4.55707 40.5473 4.66398 40.6253L4.34029 40.6758L4.26094 40.1672C4.35342 40.1527 4.41267 40.1277 4.43869 40.0921C4.45509 39.9948 4.42765 39.9201 4.35638 39.8681C4.35638 39.8681 4.41804 39.8585 4.54134 39.8392C4.62902 39.794 4.70368 39.7665 4.76533 39.7569ZM6.31962 47.8982L6.13466 47.9271L5.9976 47.0485C6.08527 47.0033 6.14452 46.9782 6.17535 46.9734L6.31962 47.8982ZM7.93011 50.6311L7.774 50.8449C7.54095 50.5655 7.24581 50.0905 6.88858 49.4199C6.88377 49.3891 6.86453 49.2658 6.83087 49.05C6.77316 48.6801 6.871 48.3964 7.1244 48.199C7.10122 48.4552 7.20277 48.8025 7.42904 49.2409C7.40302 49.2765 7.36159 49.3146 7.30475 49.355C7.27873 49.3906 7.2503 49.4109 7.21948 49.4157C7.23391 49.5082 7.25894 49.5674 7.29457 49.5934L7.45789 49.4258C7.47713 49.5491 7.53441 49.7139 7.62973 49.9201C7.56326 49.8989 7.53965 49.9499 7.55889 50.0732C7.57813 50.1965 7.70187 50.3825 7.93011 50.6311ZM8.34462 51.4663L8.2059 51.488L8.00946 51.1397L8.09473 51.079L8.34462 51.4663ZM49.5092 19.6088C49.5709 19.5992 49.5237 19.7013 49.3675 19.9151C49.2606 19.8371 49.1918 19.8005 49.1609 19.8053L49.2259 20.2214C49.4108 20.1926 49.5009 20.1627 49.4961 20.1319C49.4913 20.1011 49.4947 20.0216 49.5063 19.8935C49.513 19.7345 49.514 19.6397 49.5092 19.6088ZM49.4974 20.7475L49.3544 20.4382L49.2157 20.4598L49.3587 20.7691L49.4974 20.7475ZM48.9887 20.8268L48.8428 20.8022L48.7792 21.0016L48.9251 21.0262L48.9887 20.8268ZM49.4308 21.2315L49.2921 21.2532L49.2573 21.6375L49.396 21.6159L49.4308 21.2315ZM49.4249 21.8008L49.3036 21.6303L49.2183 21.691L49.3324 21.8153L49.4249 21.8008ZM48.873 21.6027L48.8585 21.5103C48.8421 21.6075 48.8123 21.5175 48.769 21.24L48.7805 21.6172L48.873 21.6027ZM48.4211 19.9207C48.291 20.0989 48.224 20.3777 48.22 20.7573C48.1717 21.4595 48.1499 21.8261 48.1548 21.8569C48.0284 22.666 47.8696 23.8749 47.6785 25.4836C47.6813 25.7042 47.7068 25.9687 47.7549 26.2769C47.8089 26.0159 47.9797 24.884 48.2672 22.8814C48.3905 22.8622 48.4724 22.881 48.5128 22.9378C48.2894 22.72 48.2929 22.1353 48.5234 21.1836C48.509 21.0911 48.4589 20.9726 48.3732 20.8281C48.4532 20.5314 48.4692 20.229 48.4211 19.9207ZM47.183 25.0399L47.0443 25.0616L47.0023 25.3997L47.141 25.378L47.183 25.0399ZM46.6888 25.2117L46.5818 25.1337L46.3795 25.3547L46.4402 25.44L46.6888 25.2117ZM45.1428 24.4109L45.1068 24.1797L44.968 24.2013L45.0041 24.4325L45.1428 24.4109ZM44.9103 23.8314L44.8178 23.8458L44.6876 24.5292L44.7873 24.5611L44.9103 23.8314ZM47.1626 25.5167C46.9276 25.4271 46.7865 25.4333 46.7393 25.5354C46.8317 25.521 46.8972 25.6371 46.9357 25.8837C46.7343 26.0099 46.6433 26.1346 46.6625 26.2579C46.7858 26.2387 46.8653 26.2421 46.9009 26.2681C46.7564 26.3538 46.6547 26.5117 46.5959 26.7419C46.6884 26.7275 46.7679 26.7309 46.8343 26.7521C46.6126 27.3551 46.5446 27.7288 46.6303 27.8734C46.5059 28.4927 46.4065 29.1714 46.3322 29.9093C46.2849 30.0114 46.2329 30.0826 46.1761 30.1231C46.2213 30.2107 46.2536 30.3162 46.2728 30.4395C46.1996 30.5773 46.1311 30.7458 46.0675 30.9452C46.0491 31.2323 46.0144 31.6166 45.9632 32.0983C46.0248 32.0887 46.1091 32.1229 46.216 32.2009L47.1626 25.5167ZM44.9988 28.6489L44.678 28.4148L44.6462 28.5145L44.9135 28.7096L44.9988 28.6489ZM44.7125 29.5462C44.6932 29.4229 44.6407 29.289 44.555 29.1444C44.5338 29.2109 44.4302 29.5586 44.2441 30.1876C44.2798 30.2137 44.3308 30.2373 44.3973 30.2585C44.4946 30.2749 44.561 30.2961 44.5967 30.3221C44.6739 29.8048 44.7125 29.5462 44.7125 29.5462ZM44.3074 31.504L44.2149 31.5184L44.1585 31.7641L44.2582 31.7959L44.3074 31.504ZM44.3231 32.2121C44.2943 32.0271 44.249 31.9394 44.1874 31.949C44.1257 31.9587 44.1045 32.0251 44.1237 32.1484C44.1546 32.1436 44.221 32.1648 44.3231 32.2121ZM44.8077 35.9257C44.7452 35.525 44.726 35.4017 44.75 35.5558C44.7645 35.6483 44.7245 35.7966 44.63 36.0008C44.7225 35.9864 44.7817 35.9614 44.8077 35.9257ZM45.4853 36.6253L45.4564 36.4403L45.3177 36.4619L45.3465 36.6469L45.4853 36.6253ZM44.5864 37.2392C44.4543 37.6071 44.3835 37.7603 44.3738 37.6986C44.3883 37.7911 44.4263 37.8325 44.488 37.8229C44.5824 37.6187 44.6152 37.4241 44.5864 37.2392ZM42.76 36.7662C42.65 37.4781 42.5806 37.7415 42.5518 37.5566C42.5518 37.5566 42.6124 37.6418 42.7338 37.8124C42.8851 37.5677 42.8938 37.219 42.76 36.7662ZM28.3512 29.1146L28.3007 28.7909L28.162 28.8125L28.2125 29.1362L28.3512 29.1146ZM27.6953 28.5538C27.6857 28.4921 27.6476 28.4507 27.5812 28.4295C27.5407 28.3726 27.5181 28.3288 27.5133 28.298C27.3784 28.4453 27.323 28.5961 27.347 28.7502C27.3663 28.8735 27.4626 28.9848 27.6359 29.0841C27.6311 29.0532 27.6345 28.9738 27.6461 28.8456C27.6885 28.7127 27.7049 28.6154 27.6953 28.5538ZM28.3381 29.6376C28.314 29.4835 28.2153 29.3568 28.0419 29.2575C28.0756 29.4733 28.0356 29.6217 27.9219 29.7026L27.7153 29.5927L27.8091 30.1938C27.8707 30.1842 27.9194 30.1924 27.955 30.2184C27.8982 30.2589 27.8341 30.2531 27.7628 30.201C27.7676 30.2319 27.7927 30.2911 27.8379 30.3788C27.914 30.4617 27.9544 30.5185 27.9593 30.5493C28.231 30.0648 28.3573 29.761 28.3381 29.6376ZM27.5867 29.3759C27.5675 29.2526 27.4654 29.2054 27.2804 29.2342C27.3093 29.4192 27.3415 29.5247 27.3772 29.5507C27.3463 29.5555 27.3049 29.5936 27.2529 29.6648C27.2317 29.7313 27.2259 29.7954 27.2355 29.857C27.2355 29.857 27.3424 29.9351 27.5562 30.0912C27.5418 29.9987 27.538 29.873 27.5448 29.714C27.5824 29.5503 27.5964 29.4376 27.5867 29.3759ZM24.2938 28.6108C24.2226 28.5587 24.1489 28.4913 24.0728 28.4084C24.0276 28.3207 23.9895 28.2793 23.9587 28.2841C23.9143 28.6068 23.8921 28.7682 23.8921 28.7682C24.0298 28.8414 24.1637 28.7889 24.2938 28.6108ZM32.1296 35.7248L32.0936 35.4936L31.9549 35.5152L31.9909 35.7464L32.1296 35.7248ZM23.3348 32.7865L23.2843 32.4628L23.1456 32.4844L23.1961 32.8081L23.3348 32.7865ZM22.036 37.8204L21.9364 37.7886L21.7875 38.0487L21.8944 38.1267L22.036 37.8204ZM7.66068 29.1689L7.24451 29.2338L7.20253 29.5719C7.32387 29.7425 7.44378 29.8027 7.56228 29.7526C7.57387 29.6245 7.60667 29.4299 7.66068 29.1689ZM7.98826 30.9651C7.98345 30.9342 7.91218 30.8822 7.77444 30.809C7.74842 30.8446 7.72722 30.9111 7.71082 31.0083C7.74164 31.0035 7.83413 30.9891 7.98826 30.9651ZM5.81235 30.073L5.71266 30.0412L5.61722 30.3403L5.71691 30.3721L5.81235 30.073ZM4.56169 39.3624L4.51119 39.0387C4.41871 39.0531 4.30742 39.1494 4.17733 39.3276C4.42679 39.5098 4.50527 39.608 4.41279 39.6225C4.434 39.556 4.48363 39.4693 4.56169 39.3624ZM5.71402 42.4982C5.67839 42.4722 5.61192 42.451 5.51463 42.4346C5.51944 42.4655 5.51605 42.5449 5.50446 42.673C5.49287 42.8012 5.49189 42.896 5.5015 42.9577C5.56513 42.7583 5.63597 42.6052 5.71402 42.4982ZM5.92323 43.8392C5.78068 43.7352 5.69399 43.6855 5.66317 43.6903C5.57068 43.7048 5.49602 43.7322 5.43918 43.7726C5.38233 43.8131 5.35391 43.8333 5.35391 43.8333L5.41883 44.2495C5.69344 43.9856 5.86157 43.8488 5.92323 43.8392ZM5.98815 44.2554L5.77433 44.0993C5.571 44.4152 5.47414 44.604 5.48376 44.6656C5.49338 44.7273 5.53623 44.7996 5.61231 44.8824C5.61909 44.7235 5.74437 44.5145 5.98815 44.2554ZM6.118 45.0877L5.70183 45.1527L5.80283 45.8C5.9069 45.6575 6.01195 45.42 6.118 45.0877ZM8.68699 51.8392L8.59451 51.8537L8.53088 52.053L8.63058 52.0849L8.68699 51.8392ZM9.15069 52.3826L9.051 52.3508L8.95556 52.6499L9.05525 52.6817L9.15069 52.3826ZM54.8762 42.1704C54.5207 42.3206 54.2664 42.6129 54.1131 43.0473C53.6603 43.1811 53.3871 43.5553 53.2935 44.1699L52.9236 44.2276C52.6741 44.0454 52.5278 43.8157 52.4845 43.5382C52.7455 43.5922 52.9349 43.389 53.0525 42.9286C53.0525 42.9286 53.0621 42.9902 53.0814 43.1135C53.1266 43.2012 53.2109 43.2354 53.3342 43.2162C53.6117 43.1729 53.8154 43.0622 53.9455 42.884C54.1749 42.5324 54.3854 42.2628 54.5772 42.075C54.7149 42.1482 54.8146 42.18 54.8762 42.1704ZM63.4478 11.7978L63.3091 11.8194L63.1343 11.6098L63.2658 11.542L63.4478 11.7978ZM54.7144 17.7547L54.3445 17.8124L54.3157 17.6275L54.6856 17.5698L54.7144 17.7547ZM55.4436 26.0721L55.3062 26.7093L55.1602 26.6847L55.3049 26.0938L55.4436 26.0721ZM64.5293 15.0868C64.5186 15.6253 64.5959 16.3237 64.7614 17.182C64.6854 17.0992 64.6165 17.0625 64.5548 17.0722C64.5837 17.2571 64.6313 17.3602 64.6978 17.3814C64.7026 17.4122 64.6366 17.5962 64.4997 17.9334C64.3937 18.2657 64.3907 18.5503 64.4908 18.7873L64.1672 18.8378C64.1604 18.9968 64.1998 19.1485 64.2855 19.293C64.3712 19.4375 64.4141 19.5098 64.4141 19.5098C64.4814 19.9414 64.3354 20.422 63.9759 20.9518C63.9547 21.0182 63.9682 21.2056 64.0162 21.5139C64.0904 21.7865 64.0373 21.9527 63.8572 22.0123C63.8784 21.9459 63.9391 22.0311 64.0392 22.2681C64.0285 22.8066 64.0052 23.5681 63.9693 24.5526C63.9798 25.0246 63.9902 25.4967 64.0007 25.9687C63.9428 26.6093 63.7491 26.9869 63.4196 27.1014C63.3605 28.3421 63.3381 29.514 63.3523 30.617C63.2838 30.7856 63.2346 31.0774 63.2047 31.4926C63.2401 32.5292 63.2932 34.084 63.364 36.157C63.2656 36.7408 63.1618 37.5937 63.0527 38.716C63.0487 39.0955 63.1339 39.5401 63.3081 40.0497C63.1664 40.356 63.0932 40.4938 63.0884 40.463C63.1076 40.5863 63.1327 40.6455 63.1635 40.6407C63.1943 40.6359 63.2276 40.6465 63.2632 40.6725C63.3113 40.9808 63.4321 41.4514 63.6255 42.0843C63.664 42.331 63.768 42.6937 63.9374 43.1725C64.0347 43.1889 64.1748 43.2775 64.3578 43.4384C64.351 43.5974 64.3409 43.8358 64.3273 44.1537C64.6489 44.7982 65.1467 45.7626 65.8207 47.0469C66.0179 48.3108 66.4593 49.5208 67.1449 50.677C66.7577 50.4216 66.4678 50.1826 66.2752 49.96C66.28 49.9909 66.2434 50.0597 66.1653 50.1666C66.1769 50.0385 66.214 50.1748 66.2765 50.5756C65.8797 50.2586 65.5045 50.0803 65.151 50.0407C65.0989 50.112 65.0777 50.1784 65.0873 50.2401C65.0922 50.2709 64.9294 50.1384 64.599 49.8426C64.5278 49.7906 64.4373 49.6152 64.3275 49.3166C64.2514 49.2337 64.1315 49.1735 63.9678 49.1359C63.9678 49.1359 63.8132 48.9547 63.5041 48.5924C63.3114 48.3699 63.2494 48.1743 63.3178 48.0057C63.1752 47.9017 63.0886 47.852 63.0577 47.8568C63.0586 48.2672 63.1688 48.7711 63.3883 49.3684C63.758 50.3212 63.9452 50.813 63.95 50.8438L63.6768 51.218C63.3301 51.0195 63.0243 50.5777 62.7596 49.8927C62.4996 49.2386 62.1477 48.804 61.7036 48.5891C61.6776 48.6248 61.6718 48.6888 61.6862 48.7813C61.7007 48.8738 61.6925 48.9224 61.6616 48.9272L61.4983 49.0948C62.0569 49.6392 62.3675 50.1118 62.43 50.5125C62.3307 50.6859 62.2931 50.8497 62.3172 51.0038C62.2671 50.8853 62.0971 50.7066 61.8072 50.4676C61.7272 50.7643 61.7527 51.0287 61.8836 51.2609C62.029 51.5856 62.1065 51.7787 62.1161 51.8404C62.1257 51.9021 62.0573 52.0706 61.9108 52.3461C61.7643 52.6216 61.6829 52.8079 61.6665 52.9052C61.4999 52.647 61.1219 52.2481 60.5325 51.7085C60.5333 52.1189 60.6132 52.3275 60.7722 52.3343C60.3782 52.2378 60.1644 52.0817 60.1307 51.8659C60.1548 52.0201 60.1982 51.7923 60.2609 51.1825C60.2773 51.0852 60.2379 50.9335 60.1426 50.7273C60.0385 50.8698 59.894 50.9555 59.709 50.9844C59.7282 51.1077 59.7595 51.3081 59.8028 51.5855C59.8509 51.8938 59.8869 52.125 59.911 52.2791C59.7973 52.36 59.6942 52.4077 59.6017 52.4221C59.2935 52.4702 58.8712 51.8888 58.3349 50.6777C57.8034 49.4976 57.3219 48.9411 56.8903 49.0085C56.767 49.0277 56.6794 49.073 56.6273 49.1442C56.6697 49.0113 56.6861 48.914 56.6765 48.8524C56.8307 48.8283 57.0561 48.8563 57.3527 48.9363C57.3788 48.9007 57.3773 48.7904 57.3485 48.6054C57.3918 48.8829 57.1381 48.3698 56.5874 47.0664C56.1051 45.5943 55.7828 44.0341 55.6203 42.3859C55.555 41.7645 55.5069 41.4562 55.4761 41.4611L55.6712 41.1938C55.5142 40.9972 55.4189 40.7911 55.3852 40.5753C55.2427 40.4712 55.1098 40.4288 54.9865 40.448C54.9913 40.4788 54.9903 40.5737 54.9835 40.7327C54.9767 40.8916 54.9271 40.9783 54.8346 40.9927C54.773 41.0024 54.7397 40.9917 54.7349 40.9609C54.7609 40.9253 54.7277 40.9147 54.6352 40.9291C54.5736 40.9387 54.5476 40.9744 54.5572 41.036C54.5939 40.4619 54.751 40.1532 55.0284 40.1099C55.1209 40.0955 55.1874 40.1167 55.2278 40.1735C55.2635 40.1995 55.2967 40.2102 55.3275 40.2053C55.4056 40.0984 55.3931 39.8162 55.2902 39.3586C55.2325 38.9887 55.3553 38.7642 55.6588 38.6853C55.6896 38.6805 55.7739 38.7147 55.9116 38.788C55.874 38.9517 55.7357 39.1786 55.4968 39.4685C55.5372 39.5253 55.6706 39.7729 55.8969 40.2113C55.9393 40.0783 56.0149 39.956 56.1238 39.8443C56.145 39.7778 56.1268 39.5596 56.069 39.1897C56.0979 39.3747 55.9761 38.999 55.7037 38.0625C55.7298 38.0269 55.7071 37.9831 55.6359 37.931C55.5886 38.0331 55.487 38.1911 55.3309 38.4049C55.4177 37.9493 55.3802 37.6078 55.2184 37.3804C55.1355 37.4565 55.0541 37.6429 54.9741 37.9396C55.0368 37.3298 55.0466 36.8862 55.0033 36.6087C55.0321 36.7937 55.0335 36.904 55.0075 36.9396L55.2748 37.1348C55.3432 36.9662 55.3448 36.5713 55.2794 35.9499C55.3671 35.9046 55.4784 35.8083 55.6133 35.661C55.5932 35.1273 55.5606 34.3114 55.5156 33.2132C55.3657 31.8472 55.38 30.2187 55.5587 28.3278C55.7238 26.7547 55.8889 25.1817 56.054 23.6086C55.9827 23.5566 55.831 23.596 55.5988 23.727C55.3926 23.8223 55.2635 23.9056 55.2115 23.9769C55.1258 23.8324 54.8835 23.6965 54.4847 23.5692C54.4992 23.6617 54.5286 23.5466 54.573 23.2239C54.5277 23.1362 54.5725 23.0187 54.7074 22.8714C54.5745 22.8289 54.457 22.7841 54.3549 22.7369C54.1507 22.6424 53.9609 22.6405 53.7856 22.731L53.3796 22.5575C53.37 22.4958 53.3604 22.4342 53.3507 22.3725L52.6571 22.4807C52.6523 22.4499 52.7019 22.3632 52.806 22.2207C52.8176 22.0926 52.6905 21.9861 52.4246 21.9012C52.2425 22.1507 52.1514 22.2754 52.1514 22.2754C52.0898 22.285 52.0079 22.2662 51.9058 22.219C51.8017 22.3616 51.7665 22.5407 51.8002 22.7565C51.6692 22.5243 51.6712 22.3346 51.8061 22.1872C51.7657 22.1304 51.7146 22.1067 51.653 22.1164C52.0837 21.6387 52.2181 21.2861 52.0564 21.0587C52.0708 21.1512 52.1979 21.2577 52.4377 21.3782C53.0746 20.8052 53.3777 20.521 53.3468 20.5259C53.8709 20.4441 54.2813 20.4432 54.5779 20.5233C54.7909 20.269 54.8805 20.034 54.8469 19.8182C54.8373 19.7565 54.6543 19.5956 54.2979 19.3354C54.137 19.5184 53.9264 19.7881 53.6663 20.1445C53.5189 20.0096 53.399 19.9493 53.3065 19.9638C53.3577 19.4821 53.4613 19.1344 53.6174 18.9206C53.6434 18.8849 53.6825 18.8315 53.7345 18.7602C53.6228 18.6513 53.5621 18.5661 53.5525 18.5044C53.6238 18.5564 53.7841 18.6735 54.0336 18.8556C54.287 18.6582 54.5832 18.5331 54.9223 18.4802L55.1535 18.4441C55.222 18.2755 55.275 18.1094 55.3126 17.9456C55.3666 17.6846 55.332 17.5637 55.2087 17.5829C55.2038 17.5521 55.2333 17.437 55.2969 17.2376C55.3913 17.0334 55.4289 16.8696 55.4097 16.7463C55.3857 16.5922 55.338 16.4891 55.2667 16.4371C55.2359 16.4419 55.1993 16.5107 55.1569 16.6437C55.1096 16.7458 55.0908 16.8276 55.1004 16.8893C54.9579 16.7852 54.8818 16.7024 54.8722 16.6407C54.8385 16.4249 54.9696 16.1518 55.2654 15.8215C55.3011 15.8475 55.2977 15.927 55.2553 16.0599C55.2437 16.188 55.2581 16.2805 55.2985 16.3374C55.4691 16.216 55.682 15.9618 55.9374 15.5746L55.6065 15.5788L55.6498 15.8563C55.6402 15.7946 55.6185 15.6559 55.5849 15.4401C55.582 15.2195 55.5758 15.0784 55.5662 15.0167C55.5325 14.8009 55.3033 14.6472 54.8785 14.5556C54.9922 14.4747 55.1603 14.338 55.3829 14.1454C55.4069 14.2995 55.4902 14.4286 55.6328 14.5327C55.734 14.1695 55.985 13.9567 56.3857 13.8942C56.4474 13.8846 56.6005 13.9554 56.8452 14.1067C56.9184 13.969 57.0567 13.7421 57.2601 13.4262C57.4942 13.1055 57.7654 12.9211 58.0737 12.873C58.1662 12.8586 58.2148 12.8668 58.2196 12.8976C58.2244 12.9284 58.2731 12.9366 58.3656 12.9222C58.4889 12.9029 58.6036 12.7272 58.7096 12.3949C58.7404 12.39 58.8045 12.3958 58.9018 12.4122C58.9991 12.4286 59.094 12.4296 59.1864 12.4152C59.1248 12.4248 59.37 12.276 59.922 11.9689C59.9076 11.8764 59.7925 11.847 59.5767 11.8807C59.6287 11.8094 59.6047 11.6552 59.5046 11.4182C59.4353 11.1764 59.3163 11.0213 59.1478 10.9529C59.0437 11.0954 58.9917 11.1667 58.9917 11.1667C58.93 11.1763 58.8481 11.1575 58.746 11.1103C58.72 11.1459 58.6834 11.2148 58.6362 11.3169C58.6198 11.4142 58.5986 11.4806 58.5725 11.5163C58.7864 11.6724 58.9053 11.8275 58.9293 11.9816C58.782 11.8467 58.5682 11.6906 58.2879 11.5133C58.2243 11.7127 58.0421 11.9622 57.7415 12.2617C58.043 12.3725 58.253 12.4029 58.3715 12.3529C58.2174 12.3769 58.1547 12.4814 58.1836 12.6664C58.0362 12.5315 57.9163 12.4713 57.8238 12.4857C57.7313 12.5001 57.6567 12.5275 57.5998 12.568C57.543 12.6084 57.4991 12.6311 57.4683 12.6359L57.6635 12.3686C57.6442 12.2453 57.5267 12.2005 57.3109 12.2341C57.3369 12.1985 57.3605 12.1474 57.3818 12.081C57.3982 11.9837 57.4348 11.9148 57.4916 11.8744C57.4252 11.8532 57.3457 11.8498 57.2532 11.8642C57.0991 11.8883 57.0292 11.9465 57.0436 12.039C57.0533 12.1007 57.0933 11.9523 57.1637 11.594C58.3843 11.1194 59.0409 10.8748 59.1333 10.8604C59.38 10.8219 59.7619 10.8413 60.2792 10.9185C60.7917 10.9648 61.0883 11.0449 61.1692 11.1585C61.2733 11.016 61.2387 10.8951 61.0653 10.7958C61.7675 10.8442 62.4013 11.0611 62.9667 11.4465L62.6791 11.7282C62.7023 11.472 62.5477 11.2909 62.2154 11.1848C62.1894 11.2204 62.1884 11.3153 62.2124 11.4695C62.2317 11.5928 62.3602 11.8096 62.5981 12.1198C62.8311 12.3992 63.0093 12.5293 63.1326 12.5101C63.2251 12.4956 63.2998 12.4682 63.3566 12.4278C63.4135 12.3873 63.4573 12.3647 63.4881 12.3599C63.4765 12.488 63.5516 12.6657 63.7134 12.8931C63.8752 13.1205 64.0534 13.2506 64.248 13.2834L64.5293 15.0868ZM68.2851 37.9471L68.1001 37.9759L68.0424 37.606L68.2274 37.5771L68.2851 37.9471ZM64.9926 35.6661L64.8971 35.9652L64.7512 35.9406L64.8466 35.6415L64.9926 35.6661ZM63.8306 36.4158L63.6457 36.4446L63.588 36.0747L63.7729 36.0458L63.8306 36.4158ZM55.0808 32.8547C54.9793 34.2284 54.9723 35.3979 55.0597 36.3631L54.8344 35.8299C54.8104 35.6757 54.8174 34.5063 54.8555 32.3215C54.9576 32.3687 55.0327 32.5465 55.0808 32.8547ZM61.3601 40.922C61.1251 40.8324 60.8886 40.6325 60.6508 40.3222L61.0669 40.2573C61.0766 40.3189 61.1242 40.422 61.2099 40.5665C61.2956 40.7111 61.3457 40.8296 61.3601 40.922ZM55.3135 38.5971L55.1285 38.6259L55.0852 38.3485L55.2702 38.3196L55.3135 38.5971ZM54.3998 40.6343C54.2929 40.5562 54.185 40.5731 54.0761 40.6848L53.7554 40.4506L54.2424 40.2325C54.2568 40.325 54.3093 40.4589 54.3998 40.6343ZM52.8416 42.4878L52.5642 42.5311L52.5353 42.3461L52.8128 42.3028L52.8416 42.4878ZM61.9566 11.6515L61.8773 11.1428L61.6923 11.1717L61.7717 11.6803L61.9566 11.6515ZM60.2716 12.388L59.9971 12.1466C59.8574 12.2632 59.6797 12.3383 59.4639 12.3719C59.4831 12.4952 59.564 12.6089 59.7066 12.713C60.0148 12.6649 60.169 12.6408 60.169 12.6408C60.1593 12.5792 60.1936 12.4949 60.2716 12.388ZM56.2744 20.1639L56.1603 20.0396L55.9261 20.3603L56.0793 20.4311L56.2744 20.1639ZM56.3305 21.434C56.2004 21.6122 55.934 21.8274 55.5313 22.0797L55.589 22.4496C55.7123 22.4304 55.7811 22.467 55.7956 22.5595C55.6395 22.7733 55.5734 22.9573 55.5975 23.1114L55.7926 22.8442C56.0777 23.0523 56.2082 23.0793 56.1842 22.9252C56.1485 22.8992 56.1973 22.4021 56.3305 21.434ZM55.4994 22.1794C55.4378 22.189 55.3323 22.2213 55.183 22.2762C55.0336 22.331 54.959 22.3585 54.959 22.3585L55.0383 22.8671L55.4083 22.8094C55.4883 22.5127 55.5187 22.3027 55.4994 22.1794ZM60.7363 26.9043C60.5503 27.5333 60.3923 29.6578 60.2623 33.2779C60.2343 33.5033 60.1326 33.6613 59.9573 33.7518C60.0535 34.3683 60.0986 34.9612 60.0927 35.5306C60.0667 35.5662 60.134 35.9978 60.2947 36.8253C60.3861 37.411 60.3407 37.8286 60.1586 38.0781C60.0989 37.8979 59.9679 37.6657 59.7657 37.3815C59.6828 37.4576 59.6332 37.5443 59.6168 37.6415C59.6918 38.3246 59.8337 39.234 60.0424 40.3697C60.2438 40.2436 60.4331 40.0404 60.6104 39.7601L60.8777 39.9552C60.8104 39.5237 60.7315 39.2202 60.641 39.0449C60.7623 39.2154 60.7781 39.4182 60.6885 39.6532C60.5652 39.6724 60.4833 39.6536 60.4429 39.5968L60.2625 38.4408C60.3097 38.3387 60.421 38.2424 60.5964 38.1519C60.6294 36.9468 60.6446 35.7287 60.642 34.4975C60.618 34.3434 60.5761 34.1763 60.5164 33.9961C60.5136 33.7755 60.523 32.6215 60.5447 30.534C60.6151 30.1756 60.6591 29.6478 60.6766 28.9503C60.6921 28.4427 60.712 27.7606 60.7363 26.9043ZM59.3719 34.5536C59.2158 34.7674 59.1782 34.9312 59.2591 35.0449C59.2995 35.1017 59.3578 35.1716 59.4339 35.2544C59.4686 34.8701 59.448 34.6365 59.3719 34.5536ZM60.0389 37.0073C59.648 36.121 59.4526 35.6778 59.4526 35.6778C59.3513 36.0409 59.3127 36.2996 59.3368 36.4537C59.3752 36.7003 59.5274 36.8661 59.7933 36.9509C59.7672 36.9865 59.7687 37.0968 59.7975 37.2818L60.0389 37.0073ZM60.2494 38.9638L60.1107 38.9855L60.0674 38.708L60.2061 38.6864L60.2494 38.9638ZM93.4169 5.41724L93.3532 5.61663L93.2535 5.58481L93.3172 5.38542L93.4169 5.41724ZM95.7811 16.3215L95.7247 16.5672L95.625 16.5353L95.6886 16.336L95.7811 16.3215ZM98.0846 33.8192C98.2079 33.8 98.2271 33.9233 98.1423 34.1891C98.1327 34.1275 98.0566 34.0446 97.914 33.9405C97.9661 33.8693 98.0229 33.8288 98.0846 33.8192ZM87.5481 26.7002L87.5452 26.9849L87.3992 26.9603L87.4556 26.7146L87.5481 26.7002ZM87.5884 27.2623L87.4828 27.7998L87.3831 27.768L87.496 27.2767L87.5884 27.2623ZM100.127 37.1951C100.156 37.3801 100.062 37.4894 99.8465 37.5231C99.7541 37.5375 99.5296 37.4146 99.1733 37.1544C98.8169 36.8943 98.6339 36.7333 98.6243 36.6717L98.4367 35.4694C98.6409 35.5639 98.8764 35.8587 99.1431 36.3539C99.405 36.8183 99.733 37.0987 100.127 37.1951ZM81.7671 25.4706L81.6818 25.5313L81.4145 25.3361L81.4464 25.2365L81.7671 25.4706ZM99.5654 40.8825C99.5318 40.6668 99.4638 41.0405 99.3614 42.0038C99.3662 42.0346 99.2964 42.0929 99.1518 42.1786C99.0382 42.2595 98.9081 42.4377 98.7616 42.7131C98.7808 42.8364 98.7788 43.0262 98.7557 43.2824C98.7084 43.3845 98.5832 43.5936 98.3798 43.9095C98.1813 44.2562 98.1047 44.4734 98.1499 44.5611C98.0266 44.5803 97.6899 44.6486 97.1398 44.766C97.0261 44.8469 97.0122 44.9596 97.0979 45.1042C97.2288 45.3363 97.2943 45.4524 97.2943 45.4524C97.2875 45.6114 97.2773 45.8498 97.2638 46.1677L97.3707 46.2457L97.0008 46.3035C96.9391 46.3131 96.8014 46.2398 96.5875 46.0837L96.3924 46.351C96.2855 46.2729 96.1406 46.1535 95.9576 45.9925C95.9528 45.9617 95.9764 45.9107 96.0284 45.8394C96.0476 45.9627 96.1189 46.0147 96.2422 45.9955C96.247 46.0263 96.2062 45.7643 96.1196 45.2094C96.1196 45.2094 96.0864 45.1988 96.0199 45.1776C95.9534 45.1564 95.9048 45.1482 95.874 45.153C95.8576 45.2503 95.8199 45.414 95.7611 45.6443C95.7679 45.4853 95.6788 45.4203 95.4939 45.4491C95.6904 45.2921 95.8051 45.1164 95.8379 44.9218C95.8639 44.8861 95.8437 44.8577 95.7772 44.8365C95.7772 44.8365 95.7512 44.8722 95.6992 44.9434C95.678 45.0099 95.6211 45.0503 95.5286 45.0648C95.467 45.0744 95.4516 45.0768 95.4824 45.072C95.4776 45.0411 95.4443 45.0305 95.3827 45.0402C95.321 45.0498 95.2608 45.1697 95.202 45.3999C95.174 45.6253 95.1364 45.7891 95.0892 45.8912C94.9987 45.7158 94.8831 45.4812 94.7425 45.1874L94.5576 45.2163C94.5103 45.3184 94.5156 45.5544 94.5733 45.9243C94.5068 45.9031 94.4129 45.8072 94.2916 45.6367C94.3012 45.6983 94.2588 45.8313 94.1643 46.0355C94.0006 45.9978 93.7247 45.6462 93.3366 44.9804C93.1797 44.7839 92.9442 44.4891 92.6303 44.0959C92.6418 43.9678 92.6308 43.7959 92.5971 43.5801C92.5211 43.4972 92.4224 43.3705 92.301 43.2C92.1768 42.8089 91.9646 42.2578 91.6642 41.5468C91.4764 41.355 91.2101 41.065 90.8653 40.6767C90.794 40.6247 90.6635 40.5977 90.4738 40.5957C90.4333 40.5389 90.375 40.469 90.299 40.3862C90.2229 40.3033 89.3796 39.7559 87.7692 38.7441C87.6739 38.5379 87.5111 38.4054 87.2809 38.3466C86.3996 37.7578 85.6667 37.209 85.0821 36.7002C84.8258 36.6771 84.4661 36.4964 84.0028 36.1581C83.5655 35.7843 83.2448 35.5501 83.0406 35.4556C82.8364 35.3612 82.6486 35.1694 82.4772 34.8804C82.4464 34.8852 82.3823 34.8794 82.285 34.863C82.0924 34.6405 81.8454 34.4737 81.5439 34.3629C81.0999 34.148 80.8778 34.0405 80.8778 34.0405C80.0842 33.4065 78.8654 32.4756 77.2213 31.248L77.0363 31.2768C77.0083 31.5022 76.9943 31.6149 76.9943 31.6149C77.004 31.6766 77.2442 32.0022 77.7151 32.5919C77.746 32.5871 77.8052 32.5621 77.8929 32.5168C77.9758 32.4407 78.048 32.3979 78.1097 32.3882L77.9926 32.5486C78.7197 33.1614 79.8365 34.0451 81.3428 35.1995C81.5923 35.3816 81.8475 35.4997 82.1086 35.5537C82.2203 35.6626 82.4924 35.8885 82.9248 36.2316C83.1743 36.4137 83.5234 36.6276 83.9723 36.8734C84.0676 37.0795 84.3065 37.2949 84.6888 37.5194C85.0664 37.7132 85.3004 37.8977 85.391 38.073C85.0134 37.8793 84.3069 37.5001 83.2715 36.9353C83.0837 36.7436 82.814 36.5331 82.4624 36.3037C82.2987 36.2661 82.0685 36.2073 81.7718 36.1273C80.2875 35.3168 79.0927 34.54 78.1874 33.7971C78.04 33.6622 77.7679 33.4362 77.3711 33.1192C77.4096 33.3658 77.4365 33.7406 77.4518 34.2434C77.4931 34.7106 77.5137 34.9443 77.5137 34.9443C77.5137 34.9443 77.7361 35.7622 78.1807 37.398C78.3069 37.5993 78.4547 37.9394 78.6241 38.4182C78.729 38.686 78.9573 38.9346 79.3088 39.164C79.3088 39.164 79.1787 39.3422 78.9186 39.6985C78.6575 39.6445 78.4187 39.4292 78.202 39.0525C77.9805 38.6449 77.7793 38.2658 77.5983 37.9151C77.5723 37.9508 77.5202 38.022 77.4422 38.1289C77.5749 39.1819 77.6604 39.8317 77.6989 40.0783C77.7374 40.3249 77.7358 40.7198 77.6943 41.2631C77.7135 41.3864 77.7934 41.595 77.934 41.8889L78.2081 43.646C78.0848 43.6653 77.9461 43.6869 77.792 43.7109C77.6687 43.7302 77.5916 43.7422 77.5608 43.747C77.5916 43.7422 77.5179 43.6747 77.3397 43.5447C77.2145 43.7537 76.9885 44.0257 76.6619 44.3609C76.7023 44.4177 76.7418 44.5695 76.7802 44.8161C76.6617 44.8662 76.4946 44.908 76.2788 44.9417C76.2316 45.0438 76.1169 45.2196 75.9348 45.469C75.7642 45.5904 75.5557 45.6703 75.309 45.7087C75.2474 45.7184 74.9531 45.6537 74.4262 45.5149C74.3433 45.591 74.3043 45.6444 74.3091 45.6753C74.3284 45.7986 74.5152 46.0852 74.8696 46.5352C74.9909 46.7057 75.1286 46.7789 75.2828 46.7549C75.2876 46.7857 75.2274 46.9056 75.1021 47.1146C75.2831 47.4653 75.2329 47.8521 74.9515 48.2749C74.9515 48.2749 74.9399 48.403 74.9168 48.6593L74.5931 48.7098C74.4457 48.5749 74.1524 48.4154 73.7132 48.2313C73.6891 48.0771 73.6367 47.9432 73.5558 47.8295L73.5486 47.7833C73.5534 47.8141 73.5924 47.7607 73.6657 47.6229C73.6464 47.4996 73.6354 47.3277 73.6325 47.1071C73.6325 47.1071 73.7887 46.8932 74.1009 46.4656C73.9631 46.3924 73.8977 46.2763 73.9044 46.1173C73.6926 45.7714 73.486 45.6616 73.2846 45.7877C73.3039 45.911 73.3751 45.9631 73.4984 45.9438C73.2778 45.9467 73.1738 46.0892 73.1862 46.3715C73.2295 46.6489 73.1433 46.8045 72.9275 46.8381C72.7897 46.7649 72.6616 46.7533 72.5431 46.8034C72.2648 46.4363 72.0872 46.0061 72.0102 45.5129L71.9742 45.2817C71.846 45.2701 71.6905 45.1838 71.5075 45.0229C71.5287 44.9565 71.5249 44.8307 71.496 44.6458C71.4508 44.5581 71.1613 44.5243 70.6276 44.5444C70.6084 44.4211 70.6152 44.2622 70.648 44.0676C70.676 43.8422 70.6851 43.6986 70.6755 43.637C70.6851 43.6986 70.429 43.1702 69.9072 42.0517C69.8667 41.9948 69.8003 41.9736 69.7078 41.9881L68.3004 36.0027L67.8026 32.8121C67.7738 32.6271 67.8181 32.3044 67.9358 31.844C67.931 31.8131 67.8953 31.7871 67.8289 31.7659C67.7884 31.7091 67.7634 31.6498 67.7538 31.5882C67.7442 31.5265 67.7669 31.0651 67.822 30.2039C67.7479 29.9313 67.7697 29.5647 67.8873 29.1043C67.8825 29.0735 67.78 28.8211 67.5797 28.3471C67.6317 28.2758 67.7194 28.2305 67.8427 28.2113C67.8583 27.7036 67.909 27.0168 67.9949 26.1508C67.9805 26.0583 67.9613 25.935 67.9372 25.7809C67.9528 25.2732 67.9933 24.8248 68.0589 24.4356C68.1013 24.3027 68.177 24.1804 68.2859 24.0687C68.2647 24.1351 68.23 24.0142 68.1819 23.706L68.4594 23.6627C68.4786 23.786 68.4564 23.9473 68.3928 24.1467C68.6258 24.4261 68.752 24.6275 68.7712 24.7508C68.7808 24.8125 68.749 24.9122 68.6758 25.0499C68.6025 25.1876 68.5707 25.2873 68.5803 25.349C68.59 25.4106 68.6126 25.4545 68.6482 25.4805C68.9392 25.1193 69.1363 24.6623 69.2395 24.1094C69.2599 23.6325 69.298 23.1687 69.354 22.7179C69.6691 22.5108 69.8218 22.3765 69.8122 22.3148C69.9355 22.2956 70.1084 22.1897 70.331 21.9971C70.3406 22.0587 70.4037 22.1594 70.5202 22.2991C70.5983 22.1922 70.6681 22.1339 70.7298 22.1243C70.9764 22.0859 71.2114 22.1755 71.4349 22.3933C71.4657 22.3885 71.4965 22.3836 71.5273 22.3788C71.8973 22.3211 72.1203 22.3337 72.1963 22.4166C72.2888 22.4021 72.3457 22.3617 72.3669 22.2952C72.4189 22.224 72.4604 22.1859 72.4912 22.1811C72.6646 22.2804 72.7667 22.3276 72.7975 22.3228C72.8023 22.3536 72.7965 22.4177 72.7801 22.515C72.7589 22.5814 72.7555 22.6609 72.7699 22.7534C72.794 22.9075 72.8488 23.0568 72.9345 23.2014C73.0126 23.0944 73.1003 23.0492 73.1976 23.0656L73.3219 22.9515C73.3122 22.8898 73.2872 22.8306 73.2468 22.7737C73.2015 22.686 73.1741 22.6114 73.1644 22.5497C73.1644 22.5497 73.2401 22.4274 73.3914 22.1828C72.4371 20.7212 71.9551 19.9596 71.9455 19.8979C71.9311 19.8054 72.0019 19.6523 72.158 19.4385C71.9654 19.2159 71.7848 19.0704 71.6163 19.002C71.571 18.9143 71.4959 18.7365 71.391 18.4687L71.2277 18.6363C71.1468 18.5226 71.023 18.3367 70.8565 18.0784C70.8873 18.0736 70.974 18.1233 71.1165 18.2273C71.1165 18.2273 71.1719 18.0766 71.2828 17.7751C71.3464 17.5757 71.4553 17.464 71.6094 17.44C71.7019 17.4255 71.9634 17.6847 72.3939 18.2175C72.9052 18.864 73.1941 19.1979 73.2606 19.2191C73.5313 19.3348 73.9088 19.5285 74.3933 19.8002C74.5031 20.0989 74.7766 20.4352 75.2138 20.809C75.2591 20.8967 75.8769 21.4161 77.0673 22.3671C77.2812 22.5233 77.4724 22.6355 77.6409 22.704C77.6766 22.73 77.9438 22.9251 78.4427 23.2894C78.8039 23.5804 79.0746 23.696 79.2547 23.6363C79.7584 24.0314 79.9795 24.2338 79.9178 24.2434C79.9795 24.2338 80.0079 24.2136 80.0031 24.1827C79.9723 24.1875 79.9877 24.1851 80.0493 24.1755C80.3576 24.1274 80.6653 24.3794 80.9725 24.9315C80.9917 25.0548 81.0466 25.2041 81.1371 25.3794C81.636 25.7437 82.1277 26.0617 82.6122 26.3335C82.7259 26.2526 82.7115 26.1601 82.5689 26.056C83.7141 26.9194 85.3187 27.9953 87.3828 29.2838C87.3828 29.2838 87.3896 29.1248 87.4031 28.8069C87.46 28.7665 87.5298 28.7082 87.6127 28.6321C87.6031 28.5705 87.6064 28.491 87.6228 28.3937C87.6344 28.2656 87.6378 28.1861 87.633 28.1553C87.6975 28.3663 87.7991 28.7136 87.9377 29.1972L88.2613 29.1467C88.299 28.983 88.2899 28.6212 88.2341 28.0615C88.2149 27.9382 88.1562 27.6632 88.0581 27.2364C87.9599 26.8096 87.8916 26.473 87.8531 26.2263C87.8791 26.1907 87.9027 26.1396 87.924 26.0732C87.8306 25.6772 87.7662 24.961 87.7308 23.9245C87.6567 23.6518 87.574 23.2227 87.4826 22.6369C87.4221 22.0464 87.4256 21.4617 87.4931 20.8828C87.4575 20.8567 87.4373 20.8283 87.4325 20.7975C87.4307 19.9767 87.4638 18.7717 87.5316 17.1822C87.5788 17.0801 87.6106 16.9804 87.627 16.8831C87.6386 16.755 87.6382 16.5498 87.6257 16.2676C87.7298 16.125 87.8373 15.903 87.9481 15.6015L87.9842 15.8327C88.0198 15.8587 88.0685 15.8669 88.1301 15.8573C88.2226 15.8429 88.3007 15.736 88.3643 15.5366C88.3717 16.7985 88.3682 17.3833 88.3538 17.2908C88.3874 17.5066 88.4649 17.6997 88.5863 17.8703C88.5902 17.4907 88.6091 16.9036 88.643 16.1089C88.7587 15.8382 88.8503 15.4134 88.9179 14.8345C88.8698 14.5262 88.8179 14.0922 88.7621 13.5325C88.8422 13.2358 88.9362 12.8264 89.0442 12.3044C89.0317 12.0221 89.0617 11.6069 89.1341 11.0588C89.1629 11.2438 89.2346 11.501 89.3492 11.8305C89.5053 11.6167 89.6055 11.3484 89.6499 11.0257C89.8312 10.3659 90.1161 9.35832 90.5046 8.00303C90.521 7.90574 90.6169 7.81184 90.7923 7.72133C90.85 8.09126 90.821 8.41155 90.7053 8.68222C90.8999 8.71501 91.0338 8.66255 91.1071 8.52481C91.1215 8.61729 91.1455 8.77143 91.1792 8.98722C91.182 9.20782 91.1931 9.37977 91.2123 9.50308L91.3973 9.47422C91.4465 9.18235 91.5535 8.75515 91.7184 8.19261C91.7136 8.16179 91.847 7.90413 92.1188 7.41965C92.2961 7.13937 92.4918 6.57203 92.7059 5.71762C92.7983 5.70319 92.8932 5.70418 92.9905 5.72058C93.0878 5.73698 93.1365 5.74518 93.1365 5.74518L93.187 6.06886C92.8227 6.56777 92.653 7.09948 92.6779 7.66398C92.5855 7.67841 92.5464 7.73187 92.5609 7.82435C92.5368 7.67021 92.5749 7.71164 92.675 7.94864C92.673 8.13841 92.6947 8.27714 92.7399 8.36481C92.7804 8.42165 92.9051 8.51271 93.1141 8.638C93.1497 8.66401 93.182 8.7695 93.2108 8.95447C93.2205 9.01612 93.1737 9.32341 93.0704 9.87632C92.9933 10.3936 92.9595 10.6831 92.9691 10.7447C92.9739 10.7756 93.0298 10.83 93.1367 10.908C93.2436 10.9861 93.3018 11.056 93.3115 11.1176C93.3163 11.1484 93.2951 11.2149 93.2478 11.317C93.2006 11.4191 93.1818 11.501 93.1914 11.5626C93.2559 11.7736 93.3242 12.1103 93.3964 12.5727C93.38 12.67 93.3294 12.8516 93.2445 13.1174C93.2185 13.1531 93.2671 13.1613 93.3905 13.142C93.4521 13.1324 93.5572 12.895 93.7056 12.4297C93.722 12.3324 93.7702 12.1355 93.8503 11.8388C93.8667 11.7415 93.807 11.5613 93.6712 11.2983C93.8986 11.1365 94.0085 10.9299 94.0008 10.6785C94.0048 10.299 94.0434 10.0403 94.1166 9.90258C94.2187 9.94981 94.2938 10.1276 94.3419 10.4358C94.4208 10.7393 94.5552 10.892 94.7449 10.894C94.6457 11.0674 94.6119 11.3568 94.6436 11.7624C94.6753 12.1679 94.5798 12.467 94.3573 12.6596C94.3621 12.6905 94.4309 12.7271 94.5639 12.7695C94.7353 13.0585 94.8402 13.3264 94.8787 13.573C94.8883 13.6346 94.8174 13.7878 94.6661 14.0324C94.747 14.1461 94.7513 14.477 94.6789 15.0251C94.7675 15.3902 94.8088 15.8575 94.8029 16.4268C94.8173 16.5193 94.849 16.9248 94.8979 17.6435C94.8411 17.6839 94.7606 17.7754 94.6566 17.9179C94.6922 17.944 94.8179 17.9401 95.0337 17.9065C95.0433 17.9681 95.0293 18.0808 94.9917 18.2446C94.9801 18.3727 94.9637 18.47 94.9425 18.5365C94.8973 18.4488 94.8915 18.5128 94.9251 18.7286C94.9684 19.0061 95.0825 19.1304 95.2675 19.1015C95.3291 19.0919 95.3754 19.0847 95.4062 19.0799C95.4631 19.0394 95.4915 19.0192 95.4915 19.0192C95.4443 19.1213 95.4697 19.3857 95.5679 19.8125C95.644 19.8954 95.7519 19.8785 95.8916 19.762C95.9821 19.9374 96.0538 20.1946 96.1067 20.5337C96.1163 20.5953 96.1336 20.9084 96.1585 21.4729C96.1834 22.0374 96.2079 22.3968 96.2319 22.5509C96.254 22.8948 96.2997 23.1877 96.369 23.4295C96.3121 23.4699 96.2447 23.5436 96.1666 23.6505C96.2023 23.6765 96.2509 23.6847 96.3126 23.6751C96.3222 23.7367 96.2904 23.8364 96.2171 23.9742C96.5475 24.27 96.5864 24.7218 96.3338 25.3296C96.4051 25.3816 96.4788 25.4491 96.5549 25.5319C96.6358 25.6456 96.6574 25.7843 96.6198 25.9481C96.6246 25.9789 96.6626 26.0204 96.7339 26.0724L97.5937 32.1906C97.5889 32.1598 97.4295 31.9478 97.1155 31.5547C97.0635 31.626 97.0663 31.8466 97.124 32.2165C97.1096 32.124 97.2973 32.821 97.6871 34.3075C97.6399 34.4096 97.6725 34.7203 97.7851 35.2395C97.8236 35.4861 97.9227 35.818 98.0825 36.2352C98.1875 36.503 98.1855 36.6928 98.0766 36.8045C98.3105 37.4943 98.4063 37.9056 98.3639 38.0386C98.5449 38.3892 98.7986 38.9023 99.125 39.5776C99.1943 39.8194 99.2935 40.1513 99.4224 40.5733C99.4273 40.6041 99.4499 40.6479 99.4903 40.7048C99.5308 40.7616 99.5558 40.8209 99.5654 40.8825ZM70.2618 21.25L70.1838 21.3569L70.0769 21.2789L70.1087 21.1792L70.2618 21.25ZM97.3749 46.5766L97.3431 46.6763L97.1293 46.5202L97.1611 46.4205L97.3749 46.5766ZM96.2838 47.1732C96.253 47.178 96.1938 47.203 96.1061 47.2482C96.0136 47.2627 95.952 47.2723 95.9211 47.2771L95.8851 47.0459C95.9159 47.0411 95.9751 47.0161 96.0628 46.9708C96.1505 46.9255 96.2097 46.9005 96.2406 46.8957L96.2838 47.1732ZM93.6731 45.9226L93.6095 46.122L93.5098 46.0902L93.5734 45.8908L93.6731 45.9226ZM71.3323 46.3291L71.2399 46.3436L71.211 46.1586L71.3035 46.1442L71.3323 46.3291ZM91.4887 14.0071C91.4694 13.8838 91.4324 13.7475 91.3775 13.5982C91.2542 13.6174 91.2046 13.7041 91.2286 13.8582C91.2478 13.9815 91.3345 14.0312 91.4887 14.0071ZM95.5547 20.3356C95.5191 20.3096 95.4454 20.2421 95.3337 20.1332C95.3125 20.1997 95.2677 20.3172 95.1993 20.4858C95.1308 20.6543 95.099 20.754 95.1038 20.7849C95.1182 20.8773 95.1457 20.952 95.1861 21.0089C95.2526 21.0301 95.2858 21.0407 95.2858 21.0407C95.253 21.2353 95.2298 21.4915 95.2163 21.8094C95.2711 21.9587 95.287 22.1615 95.2638 22.4177C95.3591 22.6239 95.3938 22.7448 95.3678 22.7804C95.4458 22.6735 95.5311 22.6129 95.6236 22.5984C95.6236 22.5984 95.6337 22.36 95.6541 21.8832C95.63 21.729 95.5477 21.5051 95.4072 21.2112C95.4592 21.1399 95.5064 21.0378 95.5488 20.9049C95.4988 20.7864 95.5007 20.5966 95.5547 20.3356ZM88.2124 16.0813L88.0737 16.1029L88.0852 16.4801L88.1777 16.4657L88.2124 16.0813ZM95.7318 23.292C95.6981 23.0762 95.558 22.9876 95.3114 23.0261C95.3643 23.3652 95.3493 23.5728 95.2664 23.6488L95.4802 23.8049C95.6624 23.5555 95.7462 23.3845 95.7318 23.292ZM88.5298 18.1159L88.3911 18.1375L88.4098 18.5609L88.5023 18.5465L88.5298 18.1159ZM87.8415 32.5278C87.7722 32.286 87.6446 31.9744 87.4588 31.5929C87.454 31.562 87.3851 31.5254 87.2522 31.483C87.1193 31.4406 87.0562 31.3399 87.063 31.1809L86.8924 31.3023C86.5689 30.8475 86.3146 30.6346 86.1297 30.6634C86.068 30.673 86.0242 30.6957 85.9981 30.7313C85.9721 30.7669 85.9591 30.7848 85.9591 30.7848C85.8185 30.4909 85.4121 30.1122 84.7398 29.6487C83.5474 28.8874 82.8265 28.4157 82.5771 28.2336C82.5154 28.2432 82.4335 28.2244 82.3314 28.1772C82.3362 28.208 82.2866 28.2947 82.1825 28.4372C82.665 28.8988 83.4148 29.5554 84.4319 30.4073C84.8855 30.6838 86.0221 31.3907 87.8415 32.5278ZM82.1753 28.391C82.1465 28.206 81.9418 27.9064 81.5614 27.4921C81.2956 27.4072 80.8573 27.1283 80.2467 26.6551C80.0281 26.4682 79.7252 26.247 79.338 25.9917C79.1694 25.9232 78.3878 25.3663 76.9932 24.3207C76.8911 24.2735 76.7379 24.2027 76.5337 24.1082C76.4104 24.1274 76.3632 24.2295 76.3921 24.4145C76.4113 24.5378 76.6882 24.7946 77.2227 25.1849C77.7573 25.5751 78.5283 26.1654 79.5357 26.9555C79.7871 26.9479 80.1088 27.0871 80.5008 27.3733C80.7455 27.5246 80.9901 27.6759 81.2348 27.8272C81.6172 28.0518 81.8228 28.2565 81.8516 28.4415L82.1753 28.391ZM85.4026 31.7715C85.1127 31.5326 84.8228 31.2936 84.5329 31.0546C84.2738 30.8108 84.1607 30.5917 84.1935 30.3971C83.9969 30.5541 83.9082 30.6942 83.9275 30.8175C84.7876 31.4728 85.2793 31.7908 85.4026 31.7715ZM97.0181 46.1113L96.9532 45.6951L96.7394 45.539C96.7134 45.5746 96.6768 45.6435 96.6295 45.7456C96.5823 45.8477 96.5433 45.9012 96.5124 45.906C96.655 46.01 96.7311 46.0929 96.7407 46.1546L97.0181 46.1113ZM75.6606 43.7119C75.4873 43.6126 75.2773 43.5822 75.0307 43.6207C75.1116 43.7344 75.2103 43.8611 75.3268 44.0008L75.6042 43.9575C75.5994 43.9267 75.6076 43.878 75.6288 43.8116C75.65 43.7451 75.6606 43.7119 75.6606 43.7119ZM73.1098 45.5782L72.6648 45.4581C72.6985 45.6739 72.7307 45.7794 72.7615 45.7746C72.8704 45.6629 72.9865 45.5974 73.1098 45.5782ZM109.257 40.1285L109.186 40.2817L109.14 40.2889L109.164 40.1429L109.257 40.1285ZM106.174 42.8356C106.051 42.8549 105.971 42.8515 105.935 42.8255L105.899 42.5943C106.032 42.6367 106.124 42.7171 106.174 42.8356ZM106.343 5.05845L106.311 5.15815L105.966 5.06992L105.952 4.97744L106.343 5.05845ZM106.626 5.96162C106.657 5.95681 106.472 5.98567 106.071 6.04819C106 5.99615 105.942 5.9263 105.897 5.83863C105.989 5.8242 106.071 5.843 106.142 5.89504C106.163 5.82858 106.228 5.73949 106.337 5.62777C106.347 5.68942 106.339 5.73807 106.313 5.7737C106.353 5.83055 106.458 5.89319 106.626 5.96162ZM106.045 5.57857L106.014 5.67826L105.715 5.58282L105.7 5.49034L106.045 5.57857ZM107.924 6.99075C107.795 6.56879 107.742 6.43487 107.766 6.58901C107.95 7.1603 108.005 7.51481 107.932 7.65255C107.986 7.3915 107.983 7.1709 107.924 6.99075ZM102.823 7.69179L102.73 7.70622L102.694 7.47501L102.787 7.46059L102.823 7.69179ZM101.696 13.22C101.77 13.4926 101.715 13.8485 101.531 14.2878C101.45 14.1741 101.439 14.0021 101.498 13.7719C101.587 13.5369 101.594 13.3779 101.518 13.2951C101.641 13.2758 101.701 13.2508 101.696 13.22ZM111.005 22.1882C110.856 22.2431 110.755 22.3062 110.703 22.3774C110.698 22.3466 110.706 22.298 110.728 22.2315L111.005 22.1882ZM108.104 8.14677C108.085 8.02346 108.036 8.22044 107.959 8.73773C107.928 8.74253 107.824 8.67989 107.646 8.5498C107.594 8.62108 107.573 8.68754 107.582 8.74919C107.587 8.78002 107.592 8.81085 107.597 8.84168C107.627 8.83687 107.707 8.84026 107.835 8.85185C107.712 8.87108 107.567 8.95678 107.401 9.10895C107.53 9.12054 107.676 9.14514 107.839 9.18274C107.562 9.22603 107.435 9.32474 107.459 9.47887C107.495 9.50489 107.546 9.52851 107.612 9.54971L107.663 9.8734C107.298 9.96194 107.219 10.1637 107.426 10.4788C107.409 10.5761 107.377 10.6758 107.33 10.7779L107.366 11.0091C107.371 11.0399 107.404 11.0505 107.466 11.0409C107.466 11.0409 107.454 10.9638 107.43 10.8097C107.435 10.8405 107.457 10.8843 107.498 10.9412C107.524 10.9056 107.53 10.8415 107.515 10.749C107.586 10.801 107.627 10.8579 107.637 10.9195C107.656 11.0429 107.608 11.2398 107.492 11.5105C107.599 11.5886 107.652 11.6276 107.652 11.6276C107.714 11.618 107.758 11.5953 107.784 11.5597C107.676 12.0818 107.655 12.5586 107.723 12.9902C107.761 13.2368 107.892 13.469 108.116 13.6868C108.038 13.7937 107.951 13.9492 107.857 14.1534C107.797 14.9838 107.809 15.7713 107.894 16.516C107.849 16.8387 107.831 17.4258 107.837 18.2774C107.882 18.365 107.924 18.5322 107.963 18.7788C107.952 19.3173 107.949 20.1072 107.953 21.1486C108.069 21.8884 108.227 23.0006 108.427 24.4851C108.478 25.014 108.491 25.4065 108.468 25.6628C108.468 25.6628 108.479 25.6295 108.5 25.5631C108.479 25.6295 108.458 25.696 108.436 25.7624C108.436 25.7624 108.485 26.0707 108.581 26.6873C108.629 26.9955 108.653 27.1497 108.653 27.1497C108.627 27.1853 108.647 27.2137 108.714 27.2349C108.681 27.4295 108.629 27.706 108.559 28.0643C108.532 27.6896 108.486 27.3967 108.422 27.1857C108.21 27.8504 108.184 28.2964 108.346 28.5238C108.304 28.6567 108.305 28.767 108.35 28.8547C108.386 28.8807 108.444 28.9505 108.525 29.0642C108.433 29.0786 108.373 29.1986 108.345 29.424C108.309 29.398 108.26 29.3898 108.199 29.3994C108.163 29.3734 108.143 29.3449 108.138 29.3141C108.063 29.6416 107.979 29.8126 107.886 29.827C107.825 29.8366 107.794 29.8414 107.794 29.8414C107.82 29.8058 107.802 29.7928 107.74 29.8024C107.679 29.812 107.615 30.0114 107.55 30.4006C107.554 30.4314 107.592 30.4728 107.664 30.5249C108.223 30.4691 108.537 30.6571 108.604 31.0886C108.609 31.1195 108.593 31.4219 108.556 31.9961C108.262 32.1366 108.054 32.2165 107.931 32.2358C107.931 32.2358 107.767 32.1982 107.439 32.123C107.37 31.8812 107.227 31.5719 107.01 31.1952C107.053 31.0623 107.029 30.9081 106.938 30.7328C106.912 30.7684 106.889 30.8195 106.867 30.8859C106.823 31.2086 106.82 31.4933 106.859 31.7399L106.887 31.9249C106.897 31.9865 106.856 32.0246 106.763 32.039C106.578 32.0678 106.446 31.9305 106.367 31.6271C106.288 31.3236 106.156 31.1863 105.971 31.2152C105.941 31.22 105.845 31.3139 105.684 31.4969C105.719 31.5229 105.768 31.5311 105.83 31.5215C105.811 31.8085 105.745 31.9925 105.632 32.0734L105.447 32.1023C105.361 31.9577 105.249 31.8489 105.112 31.7756C105.102 31.714 105.062 31.6571 104.99 31.6051C104.95 31.5482 104.751 31.3897 104.395 31.1295L104.612 31.001C104.571 30.9441 104.511 30.8589 104.43 30.7452C104.399 30.75 104.373 30.7856 104.352 30.8521C104.326 30.8877 104.315 30.921 104.32 30.9518C104.31 30.8901 104.327 30.7928 104.369 30.6599C104.324 30.5722 104.228 30.461 104.08 30.3261C104.08 30.3261 104.109 30.3058 104.165 30.2654C103.702 29.9272 103.336 29.6053 103.068 29.2999C103.068 29.2999 103.057 29.3331 103.036 29.3996L102.851 29.4284C102.755 29.2223 102.734 29.0836 102.786 29.0123C102.838 28.941 102.866 28.9208 102.871 28.9516C102.847 28.7975 102.766 28.6838 102.628 28.6105C102.491 28.5373 102.415 28.4544 102.4 28.362C102.348 28.4332 102.296 28.5045 102.244 28.5758C102.329 28.3099 102.349 28.1332 102.303 28.0455C102.334 28.0407 102.385 28.0643 102.457 28.1163C102.356 27.8793 102.363 27.5152 102.476 27.0239C102.44 26.9979 102.384 26.9435 102.308 26.8606C102.277 26.8654 102.267 26.8986 102.276 26.9603C102.286 27.022 102.278 27.0706 102.252 27.1062C102.199 26.7671 102.18 26.6438 102.194 26.7363C102.105 26.3712 101.929 25.8462 101.664 25.1612C101.628 25.1352 101.575 25.0961 101.504 25.0441C101.499 25.0133 101.52 24.9468 101.567 24.8447C101.172 22.917 101.003 22.1381 101.061 22.5081C101.061 22.5081 101.035 22.0384 100.983 21.0992C100.931 20.16 100.88 19.4259 100.829 18.897C100.871 18.7641 100.855 18.5613 100.781 18.2887C100.781 18.2887 100.794 18.2709 100.82 18.2352C100.765 18.0859 100.705 18.0006 100.638 17.9794C100.664 17.9438 100.706 17.9058 100.763 17.8653C100.789 17.8297 100.768 17.8013 100.702 17.78C100.723 17.7136 100.742 17.6317 100.758 17.5344C100.706 16.1848 100.709 14.1792 100.767 11.5176C100.934 9.75475 101.215 7.91104 101.609 5.98644C101.638 6.1714 101.6 6.43004 101.494 6.76236C101.574 6.87605 101.659 6.91027 101.746 6.86501C101.683 7.0644 101.618 7.35868 101.553 7.74784C101.591 7.99446 101.534 8.33497 101.38 8.76939C101.518 8.84264 101.584 8.95873 101.577 9.11768C101.532 9.44037 101.51 9.60172 101.51 9.60172C101.562 9.53045 101.609 9.42835 101.652 9.29543C101.725 9.15769 101.775 9.071 101.801 9.03536L102.452 5.61817C102.403 6.32041 102.362 6.65853 102.326 6.63251C102.352 6.59687 102.41 6.46154 102.499 6.22651C102.443 6.67733 102.319 7.29671 102.126 8.08465C102.095 8.08946 102.1 8.12029 102.141 8.17714L102.258 8.01677C102.154 8.15932 102.09 8.35871 102.067 8.61494C102.027 8.96847 101.994 9.16305 101.968 9.19869C102.004 9.22471 102.024 9.25313 102.029 9.28395C102.065 9.30997 102.085 9.33839 102.09 9.36922C102.116 9.33359 102.153 9.16983 102.203 8.87796C102.203 8.87796 102.271 8.91458 102.409 8.98783C102.4 8.92617 102.418 8.8443 102.466 8.7422C102.508 8.60927 102.54 8.50957 102.561 8.44311C102.559 8.63288 102.578 8.75619 102.619 8.81304C102.645 8.7774 102.653 8.72875 102.643 8.6671C102.664 8.60064 102.706 8.5626 102.768 8.55298C102.737 8.55779 102.803 8.57899 102.967 8.6166C103.024 8.57616 103.012 8.49909 102.931 8.3854C102.89 8.32855 102.851 8.17682 102.813 7.93021C103.054 7.86091 103.132 7.754 103.047 7.60948C103.113 7.63069 103.193 7.63408 103.285 7.61965C103.311 7.58401 103.34 7.56379 103.37 7.55898C103.401 7.55417 103.43 7.53395 103.456 7.49832C103.42 7.4723 103.397 7.42846 103.388 7.36681C103.383 7.33598 103.378 7.30515 103.373 7.27433C103.378 7.30515 103.432 7.34418 103.534 7.3914C103.534 7.3914 103.526 7.34516 103.512 7.25268C103.502 7.19103 103.413 7.12598 103.245 7.05755C103.313 6.88898 103.325 6.76087 103.28 6.6732C103.284 6.70402 103.318 6.71463 103.379 6.70501C103.4 6.63855 103.399 6.52825 103.375 6.37411C103.406 6.3693 103.434 6.34908 103.46 6.31344C103.517 6.273 103.559 6.23496 103.585 6.19932C103.737 6.36504 103.879 6.46912 104.012 6.51153C104.038 6.4759 104.039 6.38101 104.015 6.22688C104.238 6.03427 104.314 5.81706 104.245 5.57525C104.359 5.49436 104.469 5.49294 104.576 5.57099C104.628 5.49972 104.706 5.39281 104.81 5.25027L105.041 5.2142C105.041 5.2142 104.974 5.28787 104.839 5.43523C104.905 5.45644 104.974 5.49306 105.046 5.5451C105.112 5.56631 105.204 5.64676 105.32 5.78647C105.351 5.78166 105.379 5.76144 105.405 5.7258C105.391 5.63332 105.333 5.56347 105.231 5.51624L105.491 5.66514L105.615 5.55101L105.583 5.65071C105.619 5.67673 105.703 5.71094 105.836 5.75336C105.867 5.74855 105.79 5.76057 105.605 5.78943C105.593 5.91755 105.587 5.98161 105.587 5.98161C105.592 6.01243 105.635 6.08469 105.716 6.19838C105.792 6.28124 105.832 6.33809 105.837 6.36892C105.842 6.39974 105.88 6.44117 105.951 6.49321C105.977 6.45758 105.983 6.39352 105.969 6.30103C105.923 6.21336 105.911 6.13629 105.933 6.06983C106.052 6.43014 106.228 6.54481 106.46 6.41386C106.455 6.38303 106.346 6.28956 106.132 6.13346C106.163 6.12865 106.289 6.12482 106.509 6.12199C106.697 6.31373 106.837 6.40239 106.93 6.38796C107.053 6.36872 107.132 6.37211 107.168 6.39813C107.163 6.36731 107.115 6.35911 107.022 6.37353C106.991 6.37834 106.981 6.41157 106.99 6.47323C106.964 6.50887 106.936 6.52909 106.905 6.5339C106.936 6.52909 106.898 6.48766 106.791 6.4096L106.713 6.51651C106.737 6.67065 106.78 6.74291 106.841 6.73329C106.934 6.71886 107.016 6.73766 107.087 6.7897C107.108 6.72324 107.145 6.65437 107.197 6.5831C107.237 6.63994 107.294 6.89957 107.366 7.36197C107.385 7.48528 107.429 7.66784 107.499 7.90965C107.568 8.15146 107.612 8.33401 107.631 8.45732L107.738 8.53537C107.79 8.4641 107.796 8.40004 107.756 8.3432C107.834 8.23629 107.884 8.05472 107.908 7.79848L107.968 7.88375C108.028 8.0639 108.073 8.15158 108.104 8.14677ZM108.452 27.9863L108.395 28.2319L108.296 28.2001L108.359 28.0007L108.452 27.9863ZM112.705 31.8699L112.673 31.9696L112.474 31.906L112.459 31.8135L112.705 31.8699ZM102.533 27.3939L102.441 27.4083L102.419 27.2696L102.512 27.2551L102.533 27.3939ZM105.946 30.7455C105.825 30.9854 105.746 31.1872 105.708 31.3509C105.708 31.3509 105.604 31.2883 105.395 31.163C105.431 31.189 105.495 31.1948 105.587 31.1804C105.511 31.0975 105.468 31.0253 105.459 30.9636C105.468 31.0253 105.526 30.8899 105.632 30.5576C105.663 30.5528 105.767 30.6155 105.946 30.7455ZM101.88 28.0642L101.824 28.3098L101.724 28.278L101.788 28.0786L101.88 28.0642ZM102.138 29.1133L102.046 29.1277L102.024 28.989L102.117 28.9746L102.138 29.1133ZM104.787 31.2106L104.694 31.225L104.626 31.0935L104.665 31.04L104.787 31.2106ZM107.138 7.11338L107.038 7.08157L106.967 7.23472L107.067 7.26653L107.138 7.11338ZM105.374 5.8255C105.25 5.84473 105.155 5.84375 105.089 5.82254C105.072 5.91983 105.043 6.03494 105.001 6.16787C105.114 6.08698 105.239 5.97285 105.374 5.8255ZM107.808 7.76667L107.762 7.77388L107.698 7.97327L107.798 8.00509L107.808 7.76667ZM103.236 7.91152L103.136 7.87971L103.065 8.03286L103.165 8.06467L103.236 7.91152ZM102.347 9.80277L102.254 9.8172L102.227 10.2478L102.365 10.2262L102.347 9.80277ZM101.78 9.5122L101.688 9.52663L101.59 10.1104L101.643 10.1494L101.78 9.5122ZM101.652 12.9425L101.595 12.5726C101.439 12.7864 101.373 12.9704 101.397 13.1245C101.406 13.1862 101.444 13.2276 101.511 13.2488C101.563 13.1775 101.61 13.0754 101.652 12.9425ZM108.523 26.3173L108.416 26.2393L108.377 26.2927L108.484 26.3708L108.523 26.3173ZM108.379 29.0396L108.258 28.8691L108.173 28.9298L108.287 29.054L108.379 29.0396ZM101.782 25.6164L101.693 25.3461L101.6 25.3606L101.69 25.6308L101.782 25.6164ZM105.447 30.5865L105.404 30.309C105.337 30.2878 105.255 30.269 105.158 30.2526C105.187 30.4376 105.188 30.5479 105.162 30.5835C105.167 30.6144 105.262 30.6153 105.447 30.5865ZM103.193 29.8013L103.157 29.5701C103.084 29.7079 102.956 29.9015 102.774 30.1509C102.971 29.9939 103.11 29.8774 103.193 29.8013ZM102.609 29.7029C102.396 29.5468 102.258 29.4736 102.196 29.4832C102.374 29.6133 102.527 29.779 102.653 29.9804C102.65 29.7598 102.635 29.6673 102.609 29.7029ZM107.241 35.7064C107.164 35.6236 107.053 35.5147 106.905 35.3798C106.92 35.4723 106.914 35.5363 106.888 35.572C106.852 35.5459 106.804 35.5377 106.742 35.5474C106.818 35.6302 106.943 35.7213 107.116 35.8206C107.142 35.7849 107.184 35.7469 107.241 35.7064ZM109.766 38.5334L109.527 38.5232L109.542 38.6157L109.734 38.6331L109.766 38.5334ZM104.685 35.1105C104.582 35.0633 104.519 34.9626 104.495 34.8085C104.453 34.9414 104.446 35.1003 104.475 35.2853C104.532 35.2448 104.602 35.1866 104.685 35.1105ZM109.274 38.4206C109.279 38.4514 109.236 38.3791 109.146 38.2038C109.023 38.223 108.94 38.2991 108.897 38.432L109.058 38.5491C109.119 38.5395 109.15 38.5347 109.15 38.5347C109.176 38.4991 109.218 38.461 109.274 38.4206ZM106.07 37.3101C105.841 37.0615 105.648 36.9338 105.489 36.927C105.359 37.1052 105.299 37.2251 105.308 37.2868C105.332 37.4409 105.413 37.5546 105.551 37.6278C105.577 37.5922 105.601 37.5411 105.622 37.4747C105.643 37.4082 105.669 37.3726 105.7 37.3678C105.771 37.4198 105.791 37.4482 105.76 37.453C105.915 37.429 106.018 37.3813 106.07 37.3101ZM110.507 37.5178C110.339 37.4493 110.069 37.444 109.699 37.5017C109.771 37.5537 109.734 37.6226 109.59 37.7083C109.445 37.794 109.404 37.832 109.465 37.8224C109.28 37.8512 109.201 37.8479 109.227 37.8122C109.251 37.9664 109.232 38.0482 109.17 38.0579C109.002 37.9894 108.91 37.909 108.896 37.8165C109.014 37.356 109.103 37.121 109.165 37.1114C109.257 37.097 109.337 37.1004 109.403 37.1216C109.261 37.0175 109.082 36.9823 108.866 37.016C108.804 37.0256 108.733 36.9735 108.652 36.8599C108.566 36.7153 108.506 36.6301 108.47 36.604C108.292 36.474 108.042 36.2918 107.722 36.0577C107.66 36.0673 107.578 36.0485 107.476 36.0013C107.421 35.8519 107.405 35.6492 107.428 35.3929C107.445 35.2956 107.323 35.1251 107.064 34.8813C107.079 34.9738 107.078 35.0687 107.061 35.166L106.923 35.1876C106.735 34.9959 106.595 34.9072 106.502 34.9216C106.476 34.9573 106.435 34.9953 106.378 35.0358C106.551 35.135 106.65 35.2617 106.674 35.4159C106.693 35.5392 106.58 35.6201 106.333 35.6585C106.302 35.6633 106.284 35.6503 106.28 35.6195C106.301 35.553 106.281 35.5246 106.219 35.5342C106.188 35.539 106.103 35.5997 105.963 35.7162C105.849 35.7971 105.762 35.8424 105.7 35.852C105.638 35.8616 105.534 35.799 105.387 35.6641C105.27 35.5244 105.181 35.4593 105.119 35.469C105.089 35.4738 105.063 35.5094 105.041 35.5759C105.046 35.6067 105.033 35.6245 105.002 35.6293C104.879 35.6486 104.702 35.6288 104.472 35.5699C104.48 35.8214 104.401 36.2284 104.236 36.7909C104.048 36.5991 103.908 36.5105 103.816 36.5249C103.877 36.5153 103.834 36.5379 103.684 36.5928C103.647 36.7565 103.606 36.9998 103.561 37.3225C103.517 37.6452 103.491 37.886 103.484 38.0449C103.356 38.0333 103.292 38.0276 103.292 38.0276C103.323 38.0227 103.258 38.1118 103.097 38.2948C103.142 38.3825 103.229 38.7322 103.356 39.3439C103.299 39.3844 103.244 39.4402 103.192 39.5115C103.171 39.578 103.162 39.7215 103.165 39.9421C103.139 39.9777 103.069 40.036 102.955 40.1169C102.977 40.4608 102.983 40.6019 102.974 40.5403C103.027 40.8794 103.072 40.967 103.11 40.8033C103.094 41.311 103.089 41.5802 103.093 41.611C103.378 41.4088 103.504 41.3101 103.474 41.3149C103.504 41.3101 103.555 41.3337 103.627 41.3857C103.632 41.4166 103.621 41.4498 103.595 41.4854C103.59 41.4546 103.541 41.4464 103.449 41.4608C103.603 41.4368 103.768 41.5847 103.945 41.9046C103.793 42.1492 103.72 42.2869 103.725 42.3178C103.744 42.4411 103.838 42.5369 104.006 42.6054C104.175 42.6738 104.326 42.7292 104.459 42.7717C104.708 42.9538 105.1 43.24 105.635 43.6303C105.69 43.7796 105.735 43.8672 105.77 43.8933C105.756 43.8008 105.763 43.6418 105.791 43.4164C105.822 43.4116 105.852 43.4068 105.883 43.402C105.94 43.3616 105.984 43.3389 106.015 43.3341C106.138 43.3149 106.291 43.3857 106.474 43.5466C106.38 43.7508 106.426 43.9488 106.614 44.1406C106.671 44.1001 106.726 44.0443 106.778 43.973C106.865 43.9277 106.922 43.8873 106.948 43.8516C106.984 43.8777 107.002 43.8907 107.002 43.8907C107.032 43.8859 107.066 43.8965 107.101 43.9225C107.044 43.9629 106.992 44.0342 106.945 44.1363C107.145 44.1999 107.249 44.2626 107.259 44.3242C107.225 44.1084 107.285 43.9885 107.439 43.9645C107.563 43.9452 107.66 43.9616 107.731 44.0137L107.934 43.7926C107.653 43.6153 107.491 43.4828 107.445 43.3952L107.523 43.2882C107.59 43.3095 107.72 43.3365 107.915 43.3693C108.114 43.4329 108.263 43.4729 108.36 43.4893C108.315 43.4016 108.249 43.2855 108.164 43.141C108.296 43.1834 108.39 43.2793 108.445 43.4286C108.536 43.604 108.581 43.6916 108.581 43.6916C108.567 43.5992 108.54 43.4296 108.502 43.183C108.573 43.235 108.66 43.2847 108.762 43.3319C108.733 43.1469 108.755 42.9856 108.828 42.8478C109.026 43.1012 109.234 43.3214 109.452 43.5083C109.474 43.4419 109.503 43.3268 109.541 43.163C109.583 43.0301 109.599 42.9328 109.59 42.8711C109.585 42.8403 109.468 42.7006 109.24 42.452C109.043 42.1986 108.942 42.0565 108.937 42.0257C108.908 41.8407 109.012 41.493 109.248 40.9825C109.248 40.9825 109.333 40.7166 109.502 40.1849C109.488 40.0924 109.484 39.9667 109.491 39.8078C109.691 39.2713 109.847 38.8523 109.958 38.5508C109.984 38.5151 110.033 38.4285 110.107 38.2907C110.206 38.1173 110.339 37.8597 110.507 37.5178ZM103.379 40.0982L103.272 40.0202L103.233 40.0736L103.339 40.1517L103.379 40.0982ZM103.487 40.7918C103.524 40.6281 103.461 40.5274 103.298 40.4898L103.188 40.6964C103.259 40.7484 103.359 40.7802 103.487 40.7918ZM103.605 41.247C103.595 41.1854 103.568 41.1107 103.523 41.023C103.508 40.9305 103.499 40.8689 103.494 40.8381C103.406 40.8833 103.293 40.9642 103.153 41.0807C103.184 41.0759 103.334 41.1314 103.605 41.247Z" fill="white"/>
</svg>
