<svg width="427" height="48" viewBox="0 0 427 48" fill="none" xmlns="http://www.w3.org/2000/svg">
<rect width="427" height="48" rx="8" fill="white" fill-opacity="0.1"/>
<g opacity="0.8">
<path d="M28 14.625C22.8306 14.625 18.625 18.8306 18.625 24C18.625 29.1694 22.8306 33.375 28 33.375C33.1694 33.375 37.375 29.1694 37.375 24C37.375 18.8306 33.1694 14.625 28 14.625ZM28 18.4688C28.241 18.4688 28.4767 18.5402 28.6771 18.6741C28.8775 18.8081 29.0337 18.9984 29.126 19.2211C29.2182 19.4438 29.2424 19.6889 29.1953 19.9253C29.1483 20.1617 29.0322 20.3788 28.8618 20.5493C28.6913 20.7197 28.4742 20.8358 28.2378 20.8828C28.0014 20.9299 27.7563 20.9057 27.5336 20.8135C27.3109 20.7212 27.1206 20.565 26.9866 20.3646C26.8527 20.1642 26.7812 19.9285 26.7812 19.6875C26.7812 19.3643 26.9097 19.0543 27.1382 18.8257C27.3668 18.5972 27.6768 18.4688 28 18.4688V18.4688ZM30.25 29.0625H26.125C25.9261 29.0625 25.7353 28.9835 25.5947 28.8428C25.454 28.7022 25.375 28.5114 25.375 28.3125C25.375 28.1136 25.454 27.9228 25.5947 27.7822C25.7353 27.6415 25.9261 27.5625 26.125 27.5625H27.4375V23.4375H26.6875C26.4886 23.4375 26.2978 23.3585 26.1572 23.2178C26.0165 23.0772 25.9375 22.8864 25.9375 22.6875C25.9375 22.4886 26.0165 22.2978 26.1572 22.1572C26.2978 22.0165 26.4886 21.9375 26.6875 21.9375H28.1875C28.3864 21.9375 28.5772 22.0165 28.7178 22.1572C28.8585 22.2978 28.9375 22.4886 28.9375 22.6875V27.5625H30.25C30.4489 27.5625 30.6397 27.6415 30.7803 27.7822C30.921 27.9228 31 28.1136 31 28.3125C31 28.5114 30.921 28.7022 30.7803 28.8428C30.6397 28.9835 30.4489 29.0625 30.25 29.0625Z" fill="white"/>
</g>
<path d="M58.128 18.3H59.6V29.5H58.128V24.46H52.688V29.5H51.2V18.3H52.688V23.052H58.128V18.3ZM68.4769 21.5H69.8689V29.5H68.4769V28.124C67.7835 29.18 66.7755 29.708 65.4529 29.708C64.3329 29.708 63.3782 29.3027 62.5889 28.492C61.7995 27.6707 61.4049 26.6733 61.4049 25.5C61.4049 24.3267 61.7995 23.3347 62.5889 22.524C63.3782 21.7027 64.3329 21.292 65.4529 21.292C66.7755 21.292 67.7835 21.82 68.4769 22.876V21.5ZM65.6289 28.364C66.4395 28.364 67.1169 28.092 67.6609 27.548C68.2049 26.9933 68.4769 26.3107 68.4769 25.5C68.4769 24.6893 68.2049 24.012 67.6609 23.468C67.1169 22.9133 66.4395 22.636 65.6289 22.636C64.8289 22.636 64.1569 22.9133 63.6129 23.468C63.0689 24.012 62.7969 24.6893 62.7969 25.5C62.7969 26.3107 63.0689 26.9933 63.6129 27.548C64.1569 28.092 64.8289 28.364 65.6289 28.364ZM81.8179 29.5H80.1859L77.1939 25.708V29.5H75.8179V25.708L72.8259 29.5H71.2099L74.5539 25.372L71.3699 21.5H72.9859L75.8179 25.036V21.5H77.1939V25.036L80.0259 21.5H81.6579L78.4579 25.372L81.8179 29.5ZM88.9578 21.5H90.0778V29.5H88.7018V23.884L84.2698 29.5H83.1497V21.5H84.5258V27.116L88.9578 21.5ZM100.197 21.5V29.5H98.8366V23.692L96.2926 27.788H96.1166L93.5726 23.692V29.5H92.1966V21.5H93.6846L96.1966 25.548L98.7086 21.5H100.197ZM108.946 21.5H110.338V29.5H108.946V28.124C108.252 29.18 107.244 29.708 105.922 29.708C104.802 29.708 103.847 29.3027 103.058 28.492C102.268 27.6707 101.874 26.6733 101.874 25.5C101.874 24.3267 102.268 23.3347 103.058 22.524C103.847 21.7027 104.802 21.292 105.922 21.292C107.244 21.292 108.252 21.82 108.946 22.876V21.5ZM106.098 28.364C106.908 28.364 107.586 28.092 108.13 27.548C108.674 26.9933 108.946 26.3107 108.946 25.5C108.946 24.6893 108.674 24.012 108.13 23.468C107.586 22.9133 106.908 22.636 106.098 22.636C105.298 22.636 104.626 22.9133 104.082 23.468C103.538 24.012 103.266 24.6893 103.266 25.5C103.266 26.3107 103.538 26.9933 104.082 27.548C104.626 28.092 105.298 28.364 106.098 28.364ZM113.759 20.3V19.084H118.079V20.3H113.759ZM118.255 21.5H119.375V29.5H117.999V23.884L113.567 29.5H112.447V21.5H113.823V27.116L118.255 21.5ZM131.03 21.5H132.422V29.5H131.03V26.156H126.886V29.5H125.493V21.5H126.886V24.828H131.03V21.5ZM141.164 21.5H142.556V29.5H141.164V28.124C140.471 29.18 139.463 29.708 138.14 29.708C137.02 29.708 136.066 29.3027 135.276 28.492C134.487 27.6707 134.092 26.6733 134.092 25.5C134.092 24.3267 134.487 23.3347 135.276 22.524C136.066 21.7027 137.02 21.292 138.14 21.292C139.463 21.292 140.471 21.82 141.164 22.876V21.5ZM138.316 28.364C139.127 28.364 139.804 28.092 140.348 27.548C140.892 26.9933 141.164 26.3107 141.164 25.5C141.164 24.6893 140.892 24.012 140.348 23.468C139.804 22.9133 139.127 22.636 138.316 22.636C137.516 22.636 136.844 22.9133 136.3 23.468C135.756 24.012 135.484 24.6893 135.484 25.5C135.484 26.3107 135.756 26.9933 136.3 27.548C136.844 28.092 137.516 28.364 138.316 28.364ZM154.473 21.5H155.593V29.5H154.217V23.884L149.785 29.5H148.665V21.5H150.041V27.116L154.473 21.5ZM163.248 21.5H164.64V29.5H163.248V26.156H159.104V29.5H157.712V21.5H159.104V24.828H163.248V21.5ZM173.639 28.172H174.743V31.644H173.367V29.5H167.367V31.644H165.991V28.172H166.967C167.479 27.468 167.735 26.4813 167.735 25.212V21.5H173.639V28.172ZM168.551 28.172H172.263V22.796H169.111V25.212C169.111 26.4067 168.924 27.3933 168.551 28.172ZM182.052 21.5H183.172V29.5H181.796V23.884L177.364 29.5H176.243V21.5H177.62V27.116L182.052 21.5ZM192.058 29.5H190.33L186.682 25.708V29.5H185.29V21.5H186.682V25.036L190.138 21.5H191.93L188.106 25.372L192.058 29.5ZM199.243 21.5H200.635V29.5H199.243V28.124C198.549 29.18 197.541 29.708 196.219 29.708C195.099 29.708 194.144 29.3027 193.355 28.492C192.565 27.6707 192.171 26.6733 192.171 25.5C192.171 24.3267 192.565 23.3347 193.355 22.524C194.144 21.7027 195.099 21.292 196.219 21.292C197.541 21.292 198.549 21.82 199.243 22.876V21.5ZM196.395 28.364C197.205 28.364 197.883 28.092 198.427 27.548C198.971 26.9933 199.243 26.3107 199.243 25.5C199.243 24.6893 198.971 24.012 198.427 23.468C197.883 22.9133 197.205 22.636 196.395 22.636C195.595 22.636 194.923 22.9133 194.379 23.468C193.835 24.012 193.562 24.6893 193.562 25.5C193.562 26.3107 193.835 26.9933 194.379 27.548C194.923 28.092 195.595 28.364 196.395 28.364ZM208.696 21.5V22.844H205.976V29.5H204.584V22.844H201.848V21.5H208.696ZM216.355 28.492C215.534 29.3027 214.536 29.708 213.363 29.708C212.19 29.708 211.192 29.3027 210.371 28.492C209.56 27.6813 209.155 26.684 209.155 25.5C209.155 24.316 209.56 23.3187 210.371 22.508C211.192 21.6973 212.19 21.292 213.363 21.292C214.536 21.292 215.534 21.6973 216.355 22.508C217.176 23.3187 217.587 24.316 217.587 25.5C217.587 26.684 217.176 27.6813 216.355 28.492ZM213.363 28.348C214.163 28.348 214.835 28.076 215.379 27.532C215.923 26.988 216.195 26.3107 216.195 25.5C216.195 24.6893 215.923 24.012 215.379 23.468C214.835 22.924 214.163 22.652 213.363 22.652C212.574 22.652 211.907 22.924 211.363 23.468C210.819 24.012 210.547 24.6893 210.547 25.5C210.547 26.3107 210.819 26.988 211.363 27.532C211.907 28.076 212.574 28.348 213.363 28.348ZM223.644 21.292C224.764 21.292 225.719 21.7027 226.508 22.524C227.297 23.3347 227.692 24.3267 227.692 25.5C227.692 26.6733 227.297 27.6707 226.508 28.492C225.719 29.3027 224.764 29.708 223.644 29.708C222.321 29.708 221.313 29.18 220.62 28.124V32.7H219.228V21.5H220.62V22.876C221.313 21.82 222.321 21.292 223.644 21.292ZM223.468 28.364C224.268 28.364 224.94 28.092 225.484 27.548C226.028 26.9933 226.3 26.3107 226.3 25.5C226.3 24.6893 226.028 24.012 225.484 23.468C224.94 22.9133 224.268 22.636 223.468 22.636C222.657 22.636 221.98 22.9133 221.436 23.468C220.892 24.012 220.62 24.6893 220.62 25.5C220.62 26.3107 220.892 26.9933 221.436 27.548C221.98 28.092 222.657 28.364 223.468 28.364ZM232.729 24.38C233.529 24.38 234.19 24.62 234.713 25.1C235.246 25.5693 235.513 26.1827 235.513 26.94C235.513 27.6973 235.246 28.316 234.713 28.796C234.19 29.2653 233.529 29.5 232.729 29.5H229.353V21.5H230.745V24.38H232.729ZM236.553 21.5H237.945V29.5H236.553V21.5ZM232.729 28.204C233.124 28.204 233.454 28.092 233.721 27.868C233.998 27.6333 234.137 27.324 234.137 26.94C234.137 26.556 233.998 26.2467 233.721 26.012C233.454 25.7773 233.124 25.66 232.729 25.66H230.745V28.204H232.729ZM249.88 21.5H251V29.5H249.624V23.884L245.192 29.5H244.072V21.5H245.448V27.116L249.88 21.5ZM262.703 21.5H264.191L260.927 29.996C260.585 30.9027 260.105 31.5907 259.487 32.06C258.868 32.54 258.164 32.7533 257.375 32.7V31.404C258.356 31.4787 259.076 30.9453 259.535 29.804L259.663 29.516L256.191 21.5H257.663L260.399 27.772L262.703 21.5ZM271.733 28.172H272.837V31.644H271.461V29.5H265.461V31.644H264.085V28.172H265.061C265.573 27.468 265.829 26.4813 265.829 25.212V21.5H271.733V28.172ZM266.645 28.172H270.357V22.796H267.205V25.212C267.205 26.4067 267.018 27.3933 266.645 28.172ZM275.001 26.14C275.139 26.8547 275.465 27.4093 275.977 27.804C276.499 28.1987 277.139 28.396 277.897 28.396C278.953 28.396 279.721 28.0067 280.201 27.228L281.385 27.9C280.606 29.1053 279.433 29.708 277.865 29.708C276.595 29.708 275.561 29.3133 274.761 28.524C273.971 27.724 273.577 26.716 273.577 25.5C273.577 24.2947 273.966 23.292 274.745 22.492C275.523 21.692 276.531 21.292 277.769 21.292C278.942 21.292 279.897 21.708 280.633 22.54C281.379 23.3613 281.753 24.3533 281.753 25.516C281.753 25.7187 281.737 25.9267 281.705 26.14H275.001ZM277.769 22.604C277.022 22.604 276.403 22.8173 275.913 23.244C275.422 23.66 275.118 24.22 275.001 24.924H280.345C280.227 24.1667 279.929 23.5907 279.449 23.196C278.969 22.8013 278.409 22.604 277.769 22.604ZM287.769 21.292C288.889 21.292 289.844 21.7027 290.633 22.524C291.422 23.3347 291.817 24.3267 291.817 25.5C291.817 26.6733 291.422 27.6707 290.633 28.492C289.844 29.3027 288.889 29.708 287.769 29.708C286.446 29.708 285.438 29.18 284.745 28.124V32.7H283.353V21.5H284.745V22.876C285.438 21.82 286.446 21.292 287.769 21.292ZM287.593 28.364C288.393 28.364 289.065 28.092 289.609 27.548C290.153 26.9933 290.425 26.3107 290.425 25.5C290.425 24.6893 290.153 24.012 289.609 23.468C289.065 22.9133 288.393 22.636 287.593 22.636C286.782 22.636 286.105 22.9133 285.561 23.468C285.017 24.012 284.745 24.6893 284.745 25.5C284.745 26.3107 285.017 26.9933 285.561 27.548C286.105 28.092 286.782 28.364 287.593 28.364ZM302.677 29.5H301.045L298.053 25.708V29.5H296.677V25.708L293.685 29.5H292.069L295.413 25.372L292.229 21.5H293.845L296.677 25.036V21.5H298.053V25.036L300.885 21.5H302.517L299.317 25.372L302.677 29.5ZM309.817 21.5H310.937V29.5H309.561V23.884L305.129 29.5H304.009V21.5H305.385V27.116L309.817 21.5ZM318.384 25.388C319.205 25.7293 319.616 26.348 319.616 27.244C319.616 27.9053 319.392 28.4493 318.944 28.876C318.507 29.292 317.877 29.5 317.056 29.5H313.056V21.5H316.736C317.536 21.5 318.155 21.7027 318.592 22.108C319.029 22.5027 319.248 23.0253 319.248 23.676C319.248 24.444 318.96 25.0147 318.384 25.388ZM316.672 22.748H314.416V24.844H316.672C317.483 24.844 317.888 24.4867 317.888 23.772C317.888 23.0893 317.483 22.748 316.672 22.748ZM316.976 28.236C317.381 28.236 317.691 28.14 317.904 27.948C318.128 27.756 318.24 27.484 318.24 27.132C318.24 26.8013 318.128 26.5453 317.904 26.364C317.691 26.172 317.381 26.076 316.976 26.076H314.416V28.236H316.976ZM327.743 21.5H329.135V29.5H327.743V28.124C327.049 29.18 326.041 29.708 324.719 29.708C323.599 29.708 322.644 29.3027 321.855 28.492C321.065 27.6707 320.671 26.6733 320.671 25.5C320.671 24.3267 321.065 23.3347 321.855 22.524C322.644 21.7027 323.599 21.292 324.719 21.292C326.041 21.292 327.049 21.82 327.743 22.876V21.5ZM324.895 28.364C325.705 28.364 326.383 28.092 326.927 27.548C327.471 26.9933 327.743 26.3107 327.743 25.5C327.743 24.6893 327.471 24.012 326.927 23.468C326.383 22.9133 325.705 22.636 324.895 22.636C324.095 22.636 323.423 22.9133 322.879 23.468C322.335 24.012 322.062 24.6893 322.062 25.5C322.062 26.3107 322.335 26.9933 322.879 27.548C323.423 28.092 324.095 28.364 324.895 28.364ZM332.556 20.3V19.084H336.876V20.3H332.556ZM337.052 21.5H338.172V29.5H336.796V23.884L332.364 29.5H331.243V21.5H332.62V27.116L337.052 21.5ZM347.714 22.38C348.792 22.38 349.698 22.7053 350.434 23.356C351.17 23.996 351.538 24.892 351.538 26.044C351.538 27.196 351.149 28.0973 350.37 28.748C349.602 29.3987 348.658 29.724 347.538 29.724C346.632 29.724 345.832 29.5213 345.138 29.116C344.445 28.7107 343.944 28.1133 343.634 27.324L345.522 26.22C345.8 27.116 346.472 27.564 347.538 27.564C348.104 27.564 348.541 27.4307 348.85 27.164C349.17 26.8867 349.33 26.5133 349.33 26.044C349.33 25.5853 349.176 25.2173 348.866 24.94C348.557 24.6627 348.136 24.524 347.602 24.524H344.21L344.658 18.3H351.01V20.364H346.706L346.562 22.38H347.714ZM360.752 29.724C359.547 29.724 358.539 29.3187 357.728 28.508C356.928 27.6973 356.528 26.6947 356.528 25.5C356.528 24.3053 356.928 23.3027 357.728 22.492C358.539 21.6813 359.547 21.276 360.752 21.276C361.531 21.276 362.24 21.4627 362.88 21.836C363.52 22.2093 364.005 22.7107 364.336 23.34L362.56 24.38C362.4 24.0493 362.155 23.788 361.824 23.596C361.504 23.404 361.141 23.308 360.736 23.308C360.117 23.308 359.605 23.516 359.2 23.932C358.795 24.3373 358.592 24.86 358.592 25.5C358.592 26.1293 358.795 26.652 359.2 27.068C359.605 27.4733 360.117 27.676 360.736 27.676C361.152 27.676 361.52 27.5853 361.84 27.404C362.171 27.212 362.416 26.9507 362.576 26.62L364.368 27.644C364.016 28.2733 363.52 28.78 362.88 29.164C362.24 29.5373 361.531 29.724 360.752 29.724ZM367.079 26.348C367.356 27.3507 368.108 27.852 369.335 27.852C370.124 27.852 370.721 27.5853 371.127 27.052L372.791 28.012C372.001 29.1533 370.839 29.724 369.303 29.724C367.98 29.724 366.919 29.324 366.119 28.524C365.319 27.724 364.919 26.716 364.919 25.5C364.919 24.2947 365.313 23.292 366.103 22.492C366.892 21.6813 367.905 21.276 369.143 21.276C370.316 21.276 371.281 21.6813 372.039 22.492C372.807 23.3027 373.191 24.3053 373.191 25.5C373.191 25.7667 373.164 26.0493 373.111 26.348H367.079ZM367.047 24.748H371.127C371.009 24.204 370.764 23.7987 370.391 23.532C370.028 23.2653 369.612 23.132 369.143 23.132C368.588 23.132 368.129 23.276 367.767 23.564C367.404 23.8413 367.164 24.236 367.047 24.748ZM382.008 29.5H379.608L376.696 25.868V29.5H374.632V21.5H376.696V25.02L379.448 21.5H381.911L378.696 25.452L382.008 29.5ZM388.176 21.5H390.384L387.472 29.5C386.661 31.7507 385.253 32.8173 383.248 32.7V30.78C383.792 30.7907 384.218 30.6893 384.528 30.476C384.848 30.2627 385.104 29.9053 385.296 29.404L382.064 21.5H384.256L386.4 26.876L388.176 21.5ZM396.614 21.5H398.678V29.5H396.614V26.46H393.43V29.5H391.366V21.5H393.43V24.524H396.614V21.5ZM407.769 27.564H408.825V31.644H406.809V29.5H401.849V31.644H399.833V27.564H400.809C401.268 26.8813 401.497 25.9373 401.497 24.732V21.5H407.769V27.564ZM403.017 27.564H405.753V23.356H403.513V24.732C403.513 25.8627 403.348 26.8067 403.017 27.564Z" fill="white"/>
</svg>
