<svg width="34" height="44" viewBox="0 0 34 44" fill="none" xmlns="http://www.w3.org/2000/svg">
<path d="M33.8768 42.1938C31.8255 37.9391 28.1331 34.5967 23.6575 32.9116V30.2209C25.858 30.0999 30.0073 29.5413 32.4409 27.0554C32.7486 26.7389 32.8698 26.2827 32.7579 25.8544C32.646 25.4262 32.3103 25.091 31.8814 24.97C31.8441 24.9606 28.6366 23.862 29.28 17.3077C29.5597 14.5146 29.5131 12.0008 29.1494 9.84088C28.7298 7.36437 27.8907 5.41854 26.6692 4.05925C25.3452 2.59755 23.6202 1.85273 21.5409 1.85273C21.457 1.85273 21.373 1.85273 21.2985 1.85273C20.5059 1.16377 18.7716 0 16.1142 0C14.8741 0 13.578 0.251375 12.254 0.763436L12.198 0.782057C11.1537 1.17308 9.21429 1.90859 7.57323 4.08718C5.66177 6.61955 4.748 10.3716 4.85989 15.2315C4.97178 20.1007 4.1699 22.4841 3.47991 23.6293C2.91113 24.5696 2.37033 24.7558 2.23047 24.7931C1.75493 24.7558 1.37264 24.9979 1.13021 25.4075C0.878458 25.8265 0.9717 26.3572 1.25143 26.7668C1.36332 26.9344 2.01601 27.8096 3.5918 28.6568C5.39137 29.6251 7.6385 30.1744 10.2959 30.2861V32.8464C5.87623 34.5222 2.20249 37.8925 0.123198 42.2031C-0.0632861 42.5942 -0.0353135 43.0504 0.188467 43.4135C0.421572 43.7766 0.822513 44 1.25143 44H32.7486C33.1775 44 33.5877 43.7766 33.8115 43.4135C34.0353 43.041 34.0633 42.5849 33.8768 42.1938ZM3.39599 41.4769C5.41002 38.3859 8.43106 36.0491 11.9276 34.9226C12.4498 34.755 12.8041 34.2708 12.8041 33.7308V29.0478C12.8041 28.7127 12.6736 28.3868 12.4311 28.154C12.1887 27.9213 11.8717 27.7816 11.536 27.7909C7.9089 27.8282 5.71772 26.9996 4.52422 26.292C4.60814 26.2082 4.70138 26.1244 4.79462 26.0313C6.63149 24.1227 7.49864 20.4731 7.37743 15.1756C7.135 5.3906 11.3029 3.80787 13.0745 3.13754L13.1305 3.11892C14.1748 2.72789 15.1725 2.52306 16.0956 2.52306C18.5012 2.52306 19.732 3.84511 19.8346 3.96614C20.0956 4.292 20.4966 4.45027 20.9162 4.41303C21.1213 4.39441 21.3264 4.3851 21.5222 4.3851C22.8742 4.3851 23.9465 4.83199 24.7857 5.76301C26.5573 7.71815 27.2846 11.8426 26.7624 17.0749C26.2403 22.3538 27.8907 24.9979 29.3173 26.2827C27.3965 27.3441 24.6645 27.7444 22.6038 27.7444C22.492 27.7444 22.4267 27.7444 22.4174 27.7444C22.0817 27.7351 21.746 27.8654 21.5036 28.0982C21.2612 28.3309 21.1213 28.6568 21.1213 29.0013V33.8146C21.1213 34.3639 21.4756 34.8388 21.9978 35.0063C25.541 36.1515 28.5713 38.4604 30.576 41.4956H3.39599V41.4769Z" fill="white"/>
</svg>
