<svg width="24" height="24" viewBox="0 0 24 24" fill="none" xmlns="http://www.w3.org/2000/svg">
<path d="M20 9.66919V9.49919C20.0061 7.79813 19.4664 6.13998 18.4602 4.7684C17.454 3.39683 16.0344 2.38415 14.41 1.87919H14.35C13.511 1.62342 12.6369 1.50192 11.76 1.51919C9.67183 1.63378 7.7061 2.54094 6.264 4.05552C4.8219 5.57009 4.01215 7.57791 4 9.66919C3.41401 9.87533 2.90646 10.2583 2.54742 10.7652C2.18838 11.2721 1.99554 11.878 1.99554 12.4992C1.99554 13.1204 2.18838 13.7263 2.54742 14.2332C2.90646 14.7401 3.41401 15.123 4 15.3292C4.20597 17.304 5.13892 19.1316 6.61748 20.4568C8.09604 21.7819 10.0145 22.5099 12 22.4992H12.23C14.15 22.4063 15.9749 21.636 17.3809 20.3253C18.7868 19.0145 19.6829 17.2479 19.91 15.3392C20.5029 15.1447 21.0204 14.7702 21.3904 14.2678C21.7605 13.7654 21.9647 13.1601 21.9746 12.5362C21.9845 11.9124 21.7996 11.3009 21.4457 10.787C21.0918 10.2731 20.5864 9.88239 20 9.66919ZM12.18 20.4992C10.7324 20.5411 9.3185 20.058 8.19921 19.139C7.07991 18.22 6.33077 16.9272 6.09 15.4992H17.86C17.6159 16.8511 16.922 18.0808 15.8908 18.9885C14.8597 19.8962 13.5519 20.4286 12.18 20.4992ZM19 13.4992H5C4.73479 13.4992 4.48043 13.3938 4.2929 13.2063C4.10536 13.0188 4 12.7644 4 12.4992C4 12.234 4.10536 11.9796 4.2929 11.7921C4.48043 11.6045 4.73479 11.4992 5 11.4992H7C7.26522 11.4992 7.51957 11.3938 7.70711 11.2063C7.89465 11.0188 8 10.7644 8 10.4992C8 10.234 7.89465 9.97962 7.70711 9.79208C7.51957 9.60455 7.26522 9.49919 7 9.49919H6C6.04477 8.4618 6.34127 7.45088 6.86392 6.55366C7.38658 5.65643 8.11969 4.89985 9 4.34919V7.49919C9 7.76441 9.10536 8.01876 9.2929 8.2063C9.48043 8.39383 9.73479 8.49919 10 8.49919C10.2652 8.49919 10.5196 8.39383 10.7071 8.2063C10.8946 8.01876 11 7.76441 11 7.49919V3.58919C11.2714 3.54384 11.5452 3.5138 11.82 3.49919H12C12.3351 3.50391 12.6694 3.534 13 3.58919V7.49919C13 7.76441 13.1054 8.01876 13.2929 8.2063C13.4804 8.39383 13.7348 8.49919 14 8.49919C14.2652 8.49919 14.5196 8.39383 14.7071 8.2063C14.8946 8.01876 15 7.76441 15 7.49919V4.31919C15.4242 4.56482 15.8199 4.85659 16.18 5.18919C16.7566 5.74909 17.2148 6.41911 17.5274 7.15949C17.84 7.89987 18.0008 8.69551 18 9.49919H17C16.7348 9.49919 16.4804 9.60455 16.2929 9.79208C16.1054 9.97962 16 10.234 16 10.4992C16 10.7644 16.1054 11.0188 16.2929 11.2063C16.4804 11.3938 16.7348 11.4992 17 11.4992H19C19.2652 11.4992 19.5196 11.6045 19.7071 11.7921C19.8946 11.9796 20 12.234 20 12.4992C20 12.7644 19.8946 13.0188 19.7071 13.2063C19.5196 13.3938 19.2652 13.4992 19 13.4992Z" fill="white"/>
</svg>
