<svg width="102" height="102" viewBox="0 0 102 102" fill="none" xmlns="http://www.w3.org/2000/svg">
<path d="M39.6667 51V45.375H62.3333V51H102V28.5C102 27.0082 101.403 25.5774 100.34 24.5225C99.2776 23.4676 97.8362 22.875 96.3333 22.875H68V11.625C68 10.1332 67.403 8.70242 66.3403 7.64753C65.2776 6.59263 63.8362 6 62.3333 6H39.6667C38.1638 6 36.7224 6.59263 35.6597 7.64753C34.597 8.70242 34 10.1332 34 11.625V22.875H5.66667C4.16377 22.875 2.72243 23.4676 1.65973 24.5225C0.597022 25.5774 0 27.0082 0 28.5V51H39.6667ZM39.6667 11.625H62.3333V22.875H39.6667V11.625ZM102 59.4375V90.375C102 91.8668 101.403 93.2976 100.34 94.3525C99.2776 95.4074 97.8362 96 96.3333 96H5.66667C4.16377 96 2.72243 95.4074 1.65973 94.3525C0.597022 93.2976 0 91.8668 0 90.375V59.4375H39.6667V65.0625H62.3333V59.4375H102Z" fill="white"/>
</svg>
